<?xml version="1.0" standalone="no"?>
<svg xmlns="http://www.w3.org/2000/svg" width="1200" height="1200" xmlns:xlink="http://www.w3.org/1999/xlink" viewBox="0 0 1200 1200"><defs><clipPath id="clip-path-background-color-17"><rect x="0" y="0" width="1200" height="1200"/></clipPath><clipPath id="clip-path-dot-color-17"><path d="M 337 22v 35h 17.5a 17.5 17.5, 0, 0, 0, 0 -35" transform="rotate(180,354.5,39.5)"/><path d="M 372 22v 35h 35v -17.5a 17.5 17.5, 0, 0, 0, -17.5 -17.5" transform="rotate(0,389.5,39.5)"/><circle cx="459.5" cy="39.5" r="17.5" transform="rotate(0,459.5,39.5)"/><circle cx="529.5" cy="39.5" r="17.5" transform="rotate(0,529.5,39.5)"/><path d="M 652 22v 35h 17.5a 17.5 17.5, 0, 0, 0, 0 -35" transform="rotate(180,669.5,39.5)"/><rect x="687" y="22" width="35" height="35" transform="rotate(0,704.5,39.5)"/><path d="M 722 22v 35h 17.5a 17.5 17.5, 0, 0, 0, 0 -35" transform="rotate(0,739.5,39.5)"/><path d="M 792 22v 35h 17.5a 17.5 17.5, 0, 0, 0, 0 -35" transform="rotate(180,809.5,39.5)"/><path d="M 827 22v 35h 35v -17.5a 17.5 17.5, 0, 0, 0, -17.5 -17.5" transform="rotate(0,844.5,39.5)"/><path d="M 302 57v 35h 17.5a 17.5 17.5, 0, 0, 0, 0 -35" transform="rotate(-90,319.5,74.5)"/><rect x="372" y="57" width="35" height="35" transform="rotate(0,389.5,74.5)"/><path d="M 547 57v 35h 17.5a 17.5 17.5, 0, 0, 0, 0 -35" transform="rotate(-90,564.5,74.5)"/><circle cx="634.5" cy="74.5" r="17.5" transform="rotate(0,634.5,74.5)"/><path d="M 827 57v 35h 35v -17.5a 17.5 17.5, 0, 0, 0, -17.5 -17.5" transform="rotate(180,844.5,74.5)"/><path d="M 862 57v 35h 35v -17.5a 17.5 17.5, 0, 0, 0, -17.5 -17.5" transform="rotate(0,879.5,74.5)"/><path d="M 302 92v 35h 17.5a 17.5 17.5, 0, 0, 0, 0 -35" transform="rotate(90,319.5,109.5)"/><path d="M 372 92v 35h 17.5a 17.5 17.5, 0, 0, 0, 0 -35" transform="rotate(90,389.5,109.5)"/><path d="M 547 92v 35h 35v -17.5a 17.5 17.5, 0, 0, 0, -17.5 -17.5" transform="rotate(180,564.5,109.5)"/><path d="M 582 92v 35h 35v -17.5a 17.5 17.5, 0, 0, 0, -17.5 -17.5" transform="rotate(0,599.5,109.5)"/><path d="M 652 92v 35h 17.5a 17.5 17.5, 0, 0, 0, 0 -35" transform="rotate(-90,669.5,109.5)"/><circle cx="739.5" cy="109.5" r="17.5" transform="rotate(0,739.5,109.5)"/><rect x="862" y="92" width="35" height="35" transform="rotate(0,879.5,109.5)"/><path d="M 337 127v 35h 17.5a 17.5 17.5, 0, 0, 0, 0 -35" transform="rotate(-90,354.5,144.5)"/><path d="M 407 127v 35h 17.5a 17.5 17.5, 0, 0, 0, 0 -35" transform="rotate(-90,424.5,144.5)"/><circle cx="494.5" cy="144.5" r="17.5" transform="rotate(0,494.5,144.5)"/><rect x="582" y="127" width="35" height="35" transform="rotate(0,599.5,144.5)"/><rect x="652" y="127" width="35" height="35" transform="rotate(0,669.5,144.5)"/><path d="M 687 127v 35h 17.5a 17.5 17.5, 0, 0, 0, 0 -35" transform="rotate(0,704.5,144.5)"/><circle cx="809.5" cy="144.5" r="17.5" transform="rotate(0,809.5,144.5)"/><rect x="862" y="127" width="35" height="35" transform="rotate(0,879.5,144.5)"/><path d="M 337 162v 35h 17.5a 17.5 17.5, 0, 0, 0, 0 -35" transform="rotate(90,354.5,179.5)"/><path d="M 407 162v 35h 35v -17.5a 17.5 17.5, 0, 0, 0, -17.5 -17.5" transform="rotate(180,424.5,179.5)"/><path d="M 442 162v 35h 35v -17.5a 17.5 17.5, 0, 0, 0, -17.5 -17.5" transform="rotate(0,459.5,179.5)"/><circle cx="529.5" cy="179.5" r="17.5" transform="rotate(0,529.5,179.5)"/><path d="M 582 162v 35h 17.5a 17.5 17.5, 0, 0, 0, 0 -35" transform="rotate(90,599.5,179.5)"/><rect x="652" y="162" width="35" height="35" transform="rotate(0,669.5,179.5)"/><path d="M 862 162v 35h 17.5a 17.5 17.5, 0, 0, 0, 0 -35" transform="rotate(90,879.5,179.5)"/><path d="M 372 197v 35h 17.5a 17.5 17.5, 0, 0, 0, 0 -35" transform="rotate(-90,389.5,214.5)"/><rect x="442" y="197" width="35" height="35" transform="rotate(0,459.5,214.5)"/><path d="M 477 197v 35h 17.5a 17.5 17.5, 0, 0, 0, 0 -35" transform="rotate(0,494.5,214.5)"/><rect x="652" y="197" width="35" height="35" transform="rotate(0,669.5,214.5)"/><path d="M 757 197v 35h 17.5a 17.5 17.5, 0, 0, 0, 0 -35" transform="rotate(180,774.5,214.5)"/><path d="M 792 197v 35h 35v -17.5a 17.5 17.5, 0, 0, 0, -17.5 -17.5" transform="rotate(0,809.5,214.5)"/><circle cx="319.5" cy="249.5" r="17.5" transform="rotate(0,319.5,249.5)"/><path d="M 372 232v 35h 17.5a 17.5 17.5, 0, 0, 0, 0 -35" transform="rotate(90,389.5,249.5)"/><path d="M 442 232v 35h 17.5a 17.5 17.5, 0, 0, 0, 0 -35" transform="rotate(90,459.5,249.5)"/><path d="M 512 232v 35h 17.5a 17.5 17.5, 0, 0, 0, 0 -35" transform="rotate(-90,529.5,249.5)"/><circle cx="599.5" cy="249.5" r="17.5" transform="rotate(0,599.5,249.5)"/><rect x="652" y="232" width="35" height="35" transform="rotate(0,669.5,249.5)"/><circle cx="739.5" cy="249.5" r="17.5" transform="rotate(0,739.5,249.5)"/><path d="M 792 232v 35h 17.5a 17.5 17.5, 0, 0, 0, 0 -35" transform="rotate(90,809.5,249.5)"/><path d="M 862 232v 35h 17.5a 17.5 17.5, 0, 0, 0, 0 -35" transform="rotate(-90,879.5,249.5)"/><path d="M 512 267v 35h 17.5a 17.5 17.5, 0, 0, 0, 0 -35" transform="rotate(90,529.5,284.5)"/><path d="M 617 267v 35h 35v -17.5a 17.5 17.5, 0, 0, 0, -17.5 -17.5" transform="rotate(-90,634.5,284.5)"/><rect x="652" y="267" width="35" height="35" transform="rotate(0,669.5,284.5)"/><path d="M 687 267v 35h 17.5a 17.5 17.5, 0, 0, 0, 0 -35" transform="rotate(0,704.5,284.5)"/><path d="M 827 267v 35h 35v -17.5a 17.5 17.5, 0, 0, 0, -17.5 -17.5" transform="rotate(-90,844.5,284.5)"/><rect x="862" y="267" width="35" height="35" transform="rotate(0,879.5,284.5)"/><path d="M 57 302v 35h 35v -17.5a 17.5 17.5, 0, 0, 0, -17.5 -17.5" transform="rotate(-90,74.5,319.5)"/><rect x="92" y="302" width="35" height="35" transform="rotate(0,109.5,319.5)"/><path d="M 127 302v 35h 35v -17.5a 17.5 17.5, 0, 0, 0, -17.5 -17.5" transform="rotate(0,144.5,319.5)"/><path d="M 197 302v 35h 17.5a 17.5 17.5, 0, 0, 0, 0 -35" transform="rotate(180,214.5,319.5)"/><path d="M 232 302v 35h 17.5a 17.5 17.5, 0, 0, 0, 0 -35" transform="rotate(0,249.5,319.5)"/><circle cx="354.5" cy="319.5" r="17.5" transform="rotate(0,354.5,319.5)"/><path d="M 442 302v 35h 17.5a 17.5 17.5, 0, 0, 0, 0 -35" transform="rotate(180,459.5,319.5)"/><path d="M 477 302v 35h 17.5a 17.5 17.5, 0, 0, 0, 0 -35" transform="rotate(0,494.5,319.5)"/><rect x="617" y="302" width="35" height="35" transform="rotate(0,634.5,319.5)"/><path d="M 757 302v 35h 17.5a 17.5 17.5, 0, 0, 0, 0 -35" transform="rotate(-90,774.5,319.5)"/><rect x="827" y="302" width="35" height="35" transform="rotate(0,844.5,319.5)"/><path d="M 862 302v 35h 35v -17.5a 17.5 17.5, 0, 0, 0, -17.5 -17.5" transform="rotate(90,879.5,319.5)"/><path d="M 1072 302v 35h 35v -17.5a 17.5 17.5, 0, 0, 0, -17.5 -17.5" transform="rotate(-90,1089.5,319.5)"/><path d="M 1107 302v 35h 35v -17.5a 17.5 17.5, 0, 0, 0, -17.5 -17.5" transform="rotate(0,1124.5,319.5)"/><rect x="57" y="337" width="35" height="35" transform="rotate(0,74.5,354.5)"/><rect x="92" y="337" width="35" height="35" transform="rotate(0,109.5,354.5)"/><rect x="127" y="337" width="35" height="35" transform="rotate(0,144.5,354.5)"/><path d="M 162 337v 35h 17.5a 17.5 17.5, 0, 0, 0, 0 -35" transform="rotate(0,179.5,354.5)"/><circle cx="284.5" cy="354.5" r="17.5" transform="rotate(0,284.5,354.5)"/><circle cx="389.5" cy="354.5" r="17.5" transform="rotate(0,389.5,354.5)"/><path d="M 547 337v 35h 35v -17.5a 17.5 17.5, 0, 0, 0, -17.5 -17.5" transform="rotate(-90,564.5,354.5)"/><rect x="582" y="337" width="35" height="35" transform="rotate(0,599.5,354.5)"/><rect x="617" y="337" width="35" height="35" transform="rotate(0,634.5,354.5)"/><rect x="652" y="337" width="35" height="35" transform="rotate(0,669.5,354.5)"/><rect x="687" y="337" width="35" height="35" transform="rotate(0,704.5,354.5)"/><rect x="722" y="337" width="35" height="35" transform="rotate(0,739.5,354.5)"/><path d="M 757 337v 35h 35v -17.5a 17.5 17.5, 0, 0, 0, -17.5 -17.5" transform="rotate(90,774.5,354.5)"/><rect x="827" y="337" width="35" height="35" transform="rotate(0,844.5,354.5)"/><path d="M 932 337v 35h 35v -17.5a 17.5 17.5, 0, 0, 0, -17.5 -17.5" transform="rotate(-90,949.5,354.5)"/><path d="M 967 337v 35h 35v -17.5a 17.5 17.5, 0, 0, 0, -17.5 -17.5" transform="rotate(0,984.5,354.5)"/><path d="M 1037 337v 35h 35v -17.5a 17.5 17.5, 0, 0, 0, -17.5 -17.5" transform="rotate(-90,1054.5,354.5)"/><rect x="1072" y="337" width="35" height="35" transform="rotate(0,1089.5,354.5)"/><rect x="1107" y="337" width="35" height="35" transform="rotate(0,1124.5,354.5)"/><path d="M 1142 337v 35h 35v -17.5a 17.5 17.5, 0, 0, 0, -17.5 -17.5" transform="rotate(0,1159.5,354.5)"/><rect x="57" y="372" width="35" height="35" transform="rotate(0,74.5,389.5)"/><circle cx="249.5" cy="389.5" r="17.5" transform="rotate(0,249.5,389.5)"/><path d="M 337 372v 35h 17.5a 17.5 17.5, 0, 0, 0, 0 -35" transform="rotate(-90,354.5,389.5)"/><path d="M 407 372v 35h 35v -17.5a 17.5 17.5, 0, 0, 0, -17.5 -17.5" transform="rotate(-90,424.5,389.5)"/><path d="M 442 372v 35h 17.5a 17.5 17.5, 0, 0, 0, 0 -35" transform="rotate(0,459.5,389.5)"/><path d="M 547 372v 35h 35v -17.5a 17.5 17.5, 0, 0, 0, -17.5 -17.5" transform="rotate(180,564.5,389.5)"/><rect x="582" y="372" width="35" height="35" transform="rotate(0,599.5,389.5)"/><path d="M 652 372v 35h 17.5a 17.5 17.5, 0, 0, 0, 0 -35" transform="rotate(90,669.5,389.5)"/><path d="M 792 372v 35h 17.5a 17.5 17.5, 0, 0, 0, 0 -35" transform="rotate(180,809.5,389.5)"/><path d="M 827 372v 35h 35v -17.5a 17.5 17.5, 0, 0, 0, -17.5 -17.5" transform="rotate(90,844.5,389.5)"/><path d="M 932 372v 35h 35v -17.5a 17.5 17.5, 0, 0, 0, -17.5 -17.5" transform="rotate(180,949.5,389.5)"/><rect x="967" y="372" width="35" height="35" transform="rotate(0,984.5,389.5)"/><rect x="1002" y="372" width="35" height="35" transform="rotate(0,1019.5,389.5)"/><rect x="1037" y="372" width="35" height="35" transform="rotate(0,1054.5,389.5)"/><rect x="1107" y="372" width="35" height="35" transform="rotate(0,1124.5,389.5)"/><rect x="1142" y="372" width="35" height="35" transform="rotate(0,1159.5,389.5)"/><path d="M 22 407v 35h 35v -17.5a 17.5 17.5, 0, 0, 0, -17.5 -17.5" transform="rotate(-90,39.5,424.5)"/><rect x="57" y="407" width="35" height="35" transform="rotate(0,74.5,424.5)"/><path d="M 127 407v 35h 17.5a 17.5 17.5, 0, 0, 0, 0 -35" transform="rotate(180,144.5,424.5)"/><rect x="162" y="407" width="35" height="35" transform="rotate(0,179.5,424.5)"/><path d="M 197 407v 35h 17.5a 17.5 17.5, 0, 0, 0, 0 -35" transform="rotate(0,214.5,424.5)"/><path d="M 302 407v 35h 17.5a 17.5 17.5, 0, 0, 0, 0 -35" transform="rotate(180,319.5,424.5)"/><rect x="337" y="407" width="35" height="35" transform="rotate(0,354.5,424.5)"/><rect x="372" y="407" width="35" height="35" transform="rotate(0,389.5,424.5)"/><path d="M 407 407v 35h 35v -17.5a 17.5 17.5, 0, 0, 0, -17.5 -17.5" transform="rotate(90,424.5,424.5)"/><circle cx="494.5" cy="424.5" r="17.5" transform="rotate(0,494.5,424.5)"/><rect x="582" y="407" width="35" height="35" transform="rotate(0,599.5,424.5)"/><path d="M 617 407v 35h 17.5a 17.5 17.5, 0, 0, 0, 0 -35" transform="rotate(0,634.5,424.5)"/><path d="M 862 407v 35h 17.5a 17.5 17.5, 0, 0, 0, 0 -35" transform="rotate(-90,879.5,424.5)"/><rect x="967" y="407" width="35" height="35" transform="rotate(0,984.5,424.5)"/><rect x="1037" y="407" width="35" height="35" transform="rotate(0,1054.5,424.5)"/><rect x="1107" y="407" width="35" height="35" transform="rotate(0,1124.5,424.5)"/><rect x="1142" y="407" width="35" height="35" transform="rotate(0,1159.5,424.5)"/><path d="M 22 442v 35h 35v -17.5a 17.5 17.5, 0, 0, 0, -17.5 -17.5" transform="rotate(180,39.5,459.5)"/><path d="M 57 442v 35h 35v -17.5a 17.5 17.5, 0, 0, 0, -17.5 -17.5" transform="rotate(90,74.5,459.5)"/><rect x="162" y="442" width="35" height="35" transform="rotate(0,179.5,459.5)"/><circle cx="249.5" cy="459.5" r="17.5" transform="rotate(0,249.5,459.5)"/><rect x="372" y="442" width="35" height="35" transform="rotate(0,389.5,459.5)"/><rect x="582" y="442" width="35" height="35" transform="rotate(0,599.5,459.5)"/><path d="M 722 442v 35h 17.5a 17.5 17.5, 0, 0, 0, 0 -35" transform="rotate(-90,739.5,459.5)"/><circle cx="809.5" cy="459.5" r="17.5" transform="rotate(0,809.5,459.5)"/><rect x="862" y="442" width="35" height="35" transform="rotate(0,879.5,459.5)"/><path d="M 897 442v 35h 35v -17.5a 17.5 17.5, 0, 0, 0, -17.5 -17.5" transform="rotate(0,914.5,459.5)"/><rect x="967" y="442" width="35" height="35" transform="rotate(0,984.5,459.5)"/><rect x="1002" y="442" width="35" height="35" transform="rotate(0,1019.5,459.5)"/><rect x="1037" y="442" width="35" height="35" transform="rotate(0,1054.5,459.5)"/><rect x="1107" y="442" width="35" height="35" transform="rotate(0,1124.5,459.5)"/><path d="M 1142 442v 35h 35v -17.5a 17.5 17.5, 0, 0, 0, -17.5 -17.5" transform="rotate(90,1159.5,459.5)"/><path d="M 162 477v 35h 35v -17.5a 17.5 17.5, 0, 0, 0, -17.5 -17.5" transform="rotate(180,179.5,494.5)"/><path d="M 197 477v 35h 35v -17.5a 17.5 17.5, 0, 0, 0, -17.5 -17.5" transform="rotate(0,214.5,494.5)"/><circle cx="284.5" cy="494.5" r="17.5" transform="rotate(0,284.5,494.5)"/><path d="M 337 477v 35h 17.5a 17.5 17.5, 0, 0, 0, 0 -35" transform="rotate(180,354.5,494.5)"/><rect x="372" y="477" width="35" height="35" transform="rotate(0,389.5,494.5)"/><path d="M 442 477v 35h 17.5a 17.5 17.5, 0, 0, 0, 0 -35" transform="rotate(180,459.5,494.5)"/><rect x="477" y="477" width="35" height="35" transform="rotate(0,494.5,494.5)"/><rect x="512" y="477" width="35" height="35" transform="rotate(0,529.5,494.5)"/><rect x="547" y="477" width="35" height="35" transform="rotate(0,564.5,494.5)"/><rect x="582" y="477" width="35" height="35" transform="rotate(0,599.5,494.5)"/><path d="M 617 477v 35h 35v -17.5a 17.5 17.5, 0, 0, 0, -17.5 -17.5" transform="rotate(0,634.5,494.5)"/><rect x="722" y="477" width="35" height="35" transform="rotate(0,739.5,494.5)"/><rect x="862" y="477" width="35" height="35" transform="rotate(0,879.5,494.5)"/><path d="M 897 477v 35h 35v -17.5a 17.5 17.5, 0, 0, 0, -17.5 -17.5" transform="rotate(90,914.5,494.5)"/><rect x="967" y="477" width="35" height="35" transform="rotate(0,984.5,494.5)"/><rect x="1037" y="477" width="35" height="35" transform="rotate(0,1054.5,494.5)"/><path d="M 1107 477v 35h 17.5a 17.5 17.5, 0, 0, 0, 0 -35" transform="rotate(90,1124.5,494.5)"/><path d="M 92 512v 35h 35v -17.5a 17.5 17.5, 0, 0, 0, -17.5 -17.5" transform="rotate(-90,109.5,529.5)"/><path d="M 127 512v 35h 17.5a 17.5 17.5, 0, 0, 0, 0 -35" transform="rotate(0,144.5,529.5)"/><rect x="197" y="512" width="35" height="35" transform="rotate(0,214.5,529.5)"/><path d="M 232 512v 35h 17.5a 17.5 17.5, 0, 0, 0, 0 -35" transform="rotate(0,249.5,529.5)"/><rect x="372" y="512" width="35" height="35" transform="rotate(0,389.5,529.5)"/><path d="M 407 512v 35h 35v -17.5a 17.5 17.5, 0, 0, 0, -17.5 -17.5" transform="rotate(0,424.5,529.5)"/><path d="M 512 512v 35h 17.5a 17.5 17.5, 0, 0, 0, 0 -35" transform="rotate(90,529.5,529.5)"/><path d="M 617 512v 35h 17.5a 17.5 17.5, 0, 0, 0, 0 -35" transform="rotate(90,634.5,529.5)"/><path d="M 687 512v 35h 17.5a 17.5 17.5, 0, 0, 0, 0 -35" transform="rotate(180,704.5,529.5)"/><path d="M 722 512v 35h 35v -17.5a 17.5 17.5, 0, 0, 0, -17.5 -17.5" transform="rotate(90,739.5,529.5)"/><rect x="862" y="512" width="35" height="35" transform="rotate(0,879.5,529.5)"/><path d="M 932 512v 35h 35v -17.5a 17.5 17.5, 0, 0, 0, -17.5 -17.5" transform="rotate(-90,949.5,529.5)"/><rect x="967" y="512" width="35" height="35" transform="rotate(0,984.5,529.5)"/><rect x="1037" y="512" width="35" height="35" transform="rotate(0,1054.5,529.5)"/><path d="M 1072 512v 35h 35v -17.5a 17.5 17.5, 0, 0, 0, -17.5 -17.5" transform="rotate(0,1089.5,529.5)"/><path d="M 22 547v 35h 17.5a 17.5 17.5, 0, 0, 0, 0 -35" transform="rotate(180,39.5,564.5)"/><rect x="57" y="547" width="35" height="35" transform="rotate(0,74.5,564.5)"/><path d="M 92 547v 35h 35v -17.5a 17.5 17.5, 0, 0, 0, -17.5 -17.5" transform="rotate(90,109.5,564.5)"/><path d="M 197 547v 35h 17.5a 17.5 17.5, 0, 0, 0, 0 -35" transform="rotate(90,214.5,564.5)"/><path d="M 302 547v 35h 17.5a 17.5 17.5, 0, 0, 0, 0 -35" transform="rotate(180,319.5,564.5)"/><rect x="337" y="547" width="35" height="35" transform="rotate(0,354.5,564.5)"/><rect x="372" y="547" width="35" height="35" transform="rotate(0,389.5,564.5)"/><rect x="407" y="547" width="35" height="35" transform="rotate(0,424.5,564.5)"/><rect x="442" y="547" width="35" height="35" transform="rotate(0,459.5,564.5)"/><path d="M 477 547v 35h 17.5a 17.5 17.5, 0, 0, 0, 0 -35" transform="rotate(0,494.5,564.5)"/><circle cx="564.5" cy="564.5" r="17.5" transform="rotate(0,564.5,564.5)"/><circle cx="669.5" cy="564.5" r="17.5" transform="rotate(0,669.5,564.5)"/><path d="M 757 547v 35h 35v -17.5a 17.5 17.5, 0, 0, 0, -17.5 -17.5" transform="rotate(-90,774.5,564.5)"/><path d="M 792 547v 35h 35v -17.5a 17.5 17.5, 0, 0, 0, -17.5 -17.5" transform="rotate(0,809.5,564.5)"/><rect x="862" y="547" width="35" height="35" transform="rotate(0,879.5,564.5)"/><rect x="897" y="547" width="35" height="35" transform="rotate(0,914.5,564.5)"/><rect x="932" y="547" width="35" height="35" transform="rotate(0,949.5,564.5)"/><path d="M 967 547v 35h 35v -17.5a 17.5 17.5, 0, 0, 0, -17.5 -17.5" transform="rotate(90,984.5,564.5)"/><rect x="1037" y="547" width="35" height="35" transform="rotate(0,1054.5,564.5)"/><rect x="1072" y="547" width="35" height="35" transform="rotate(0,1089.5,564.5)"/><rect x="57" y="582" width="35" height="35" transform="rotate(0,74.5,599.5)"/><circle cx="144.5" cy="599.5" r="17.5" transform="rotate(0,144.5,599.5)"/><path d="M 232 582v 35h 17.5a 17.5 17.5, 0, 0, 0, 0 -35" transform="rotate(180,249.5,599.5)"/><path d="M 267 582v 35h 17.5a 17.5 17.5, 0, 0, 0, 0 -35" transform="rotate(0,284.5,599.5)"/><rect x="372" y="582" width="35" height="35" transform="rotate(0,389.5,599.5)"/><path d="M 407 582v 35h 35v -17.5a 17.5 17.5, 0, 0, 0, -17.5 -17.5" transform="rotate(90,424.5,599.5)"/><circle cx="529.5" cy="599.5" r="17.5" transform="rotate(0,529.5,599.5)"/><path d="M 582 582v 35h 17.5a 17.5 17.5, 0, 0, 0, 0 -35" transform="rotate(180,599.5,599.5)"/><path d="M 617 582v 35h 17.5a 17.5 17.5, 0, 0, 0, 0 -35" transform="rotate(0,634.5,599.5)"/><path d="M 722 582v 35h 35v -17.5a 17.5 17.5, 0, 0, 0, -17.5 -17.5" transform="rotate(-90,739.5,599.5)"/><rect x="757" y="582" width="35" height="35" transform="rotate(0,774.5,599.5)"/><rect x="792" y="582" width="35" height="35" transform="rotate(0,809.5,599.5)"/><rect x="827" y="582" width="35" height="35" transform="rotate(0,844.5,599.5)"/><rect x="862" y="582" width="35" height="35" transform="rotate(0,879.5,599.5)"/><rect x="897" y="582" width="35" height="35" transform="rotate(0,914.5,599.5)"/><rect x="932" y="582" width="35" height="35" transform="rotate(0,949.5,599.5)"/><path d="M 1002 582v 35h 35v -17.5a 17.5 17.5, 0, 0, 0, -17.5 -17.5" transform="rotate(-90,1019.5,599.5)"/><rect x="1037" y="582" width="35" height="35" transform="rotate(0,1054.5,599.5)"/><path d="M 1072 582v 35h 35v -17.5a 17.5 17.5, 0, 0, 0, -17.5 -17.5" transform="rotate(90,1089.5,599.5)"/><path d="M 57 617v 35h 35v -17.5a 17.5 17.5, 0, 0, 0, -17.5 -17.5" transform="rotate(180,74.5,634.5)"/><path d="M 92 617v 35h 17.5a 17.5 17.5, 0, 0, 0, 0 -35" transform="rotate(0,109.5,634.5)"/><path d="M 162 617v 35h 35v -17.5a 17.5 17.5, 0, 0, 0, -17.5 -17.5" transform="rotate(-90,179.5,634.5)"/><path d="M 197 617v 35h 35v -17.5a 17.5 17.5, 0, 0, 0, -17.5 -17.5" transform="rotate(0,214.5,634.5)"/><path d="M 337 617v 35h 17.5a 17.5 17.5, 0, 0, 0, 0 -35" transform="rotate(180,354.5,634.5)"/><path d="M 372 617v 35h 35v -17.5a 17.5 17.5, 0, 0, 0, -17.5 -17.5" transform="rotate(90,389.5,634.5)"/><path d="M 442 617v 35h 17.5a 17.5 17.5, 0, 0, 0, 0 -35" transform="rotate(-90,459.5,634.5)"/><circle cx="669.5" cy="634.5" r="17.5" transform="rotate(0,669.5,634.5)"/><path d="M 722 617v 35h 35v -17.5a 17.5 17.5, 0, 0, 0, -17.5 -17.5" transform="rotate(180,739.5,634.5)"/><rect x="757" y="617" width="35" height="35" transform="rotate(0,774.5,634.5)"/><rect x="792" y="617" width="35" height="35" transform="rotate(0,809.5,634.5)"/><rect x="827" y="617" width="35" height="35" transform="rotate(0,844.5,634.5)"/><rect x="862" y="617" width="35" height="35" transform="rotate(0,879.5,634.5)"/><rect x="897" y="617" width="35" height="35" transform="rotate(0,914.5,634.5)"/><path d="M 932 617v 35h 35v -17.5a 17.5 17.5, 0, 0, 0, -17.5 -17.5" transform="rotate(90,949.5,634.5)"/><rect x="1002" y="617" width="35" height="35" transform="rotate(0,1019.5,634.5)"/><path d="M 1037 617v 35h 35v -17.5a 17.5 17.5, 0, 0, 0, -17.5 -17.5" transform="rotate(90,1054.5,634.5)"/><path d="M 1107 617v 35h 35v -17.5a 17.5 17.5, 0, 0, 0, -17.5 -17.5" transform="rotate(-90,1124.5,634.5)"/><path d="M 1142 617v 35h 17.5a 17.5 17.5, 0, 0, 0, 0 -35" transform="rotate(0,1159.5,634.5)"/><path d="M 22 652v 35h 17.5a 17.5 17.5, 0, 0, 0, 0 -35" transform="rotate(-90,39.5,669.5)"/><path d="M 162 652v 35h 35v -17.5a 17.5 17.5, 0, 0, 0, -17.5 -17.5" transform="rotate(180,179.5,669.5)"/><rect x="197" y="652" width="35" height="35" transform="rotate(0,214.5,669.5)"/><rect x="232" y="652" width="35" height="35" transform="rotate(0,249.5,669.5)"/><rect x="267" y="652" width="35" height="35" transform="rotate(0,284.5,669.5)"/><path d="M 302 652v 35h 17.5a 17.5 17.5, 0, 0, 0, 0 -35" transform="rotate(0,319.5,669.5)"/><path d="M 442 652v 35h 35v -17.5a 17.5 17.5, 0, 0, 0, -17.5 -17.5" transform="rotate(180,459.5,669.5)"/><rect x="477" y="652" width="35" height="35" transform="rotate(0,494.5,669.5)"/><path d="M 512 652v 35h 17.5a 17.5 17.5, 0, 0, 0, 0 -35" transform="rotate(0,529.5,669.5)"/><path d="M 792 652v 35h 17.5a 17.5 17.5, 0, 0, 0, 0 -35" transform="rotate(90,809.5,669.5)"/><rect x="862" y="652" width="35" height="35" transform="rotate(0,879.5,669.5)"/><path d="M 967 652v 35h 17.5a 17.5 17.5, 0, 0, 0, 0 -35" transform="rotate(180,984.5,669.5)"/><rect x="1002" y="652" width="35" height="35" transform="rotate(0,1019.5,669.5)"/><path d="M 1072 652v 35h 17.5a 17.5 17.5, 0, 0, 0, 0 -35" transform="rotate(180,1089.5,669.5)"/><rect x="1107" y="652" width="35" height="35" transform="rotate(0,1124.5,669.5)"/><rect x="22" y="687" width="35" height="35" transform="rotate(0,39.5,704.5)"/><rect x="267" y="687" width="35" height="35" transform="rotate(0,284.5,704.5)"/><rect x="477" y="687" width="35" height="35" transform="rotate(0,494.5,704.5)"/><circle cx="704.5" cy="704.5" r="17.5" transform="rotate(0,704.5,704.5)"/><path d="M 827 687v 35h 35v -17.5a 17.5 17.5, 0, 0, 0, -17.5 -17.5" transform="rotate(-90,844.5,704.5)"/><path d="M 862 687v 35h 35v -17.5a 17.5 17.5, 0, 0, 0, -17.5 -17.5" transform="rotate(90,879.5,704.5)"/><path d="M 1002 687v 35h 17.5a 17.5 17.5, 0, 0, 0, 0 -35" transform="rotate(90,1019.5,704.5)"/><rect x="1107" y="687" width="35" height="35" transform="rotate(0,1124.5,704.5)"/><path d="M 1142 687v 35h 35v -17.5a 17.5 17.5, 0, 0, 0, -17.5 -17.5" transform="rotate(0,1159.5,704.5)"/><rect x="22" y="722" width="35" height="35" transform="rotate(0,39.5,739.5)"/><path d="M 92 722v 35h 17.5a 17.5 17.5, 0, 0, 0, 0 -35" transform="rotate(-90,109.5,739.5)"/><path d="M 162 722v 35h 17.5a 17.5 17.5, 0, 0, 0, 0 -35" transform="rotate(180,179.5,739.5)"/><rect x="197" y="722" width="35" height="35" transform="rotate(0,214.5,739.5)"/><rect x="232" y="722" width="35" height="35" transform="rotate(0,249.5,739.5)"/><rect x="267" y="722" width="35" height="35" transform="rotate(0,284.5,739.5)"/><path d="M 372 722v 35h 35v -17.5a 17.5 17.5, 0, 0, 0, -17.5 -17.5" transform="rotate(-90,389.5,739.5)"/><rect x="407" y="722" width="35" height="35" transform="rotate(0,424.5,739.5)"/><rect x="442" y="722" width="35" height="35" transform="rotate(0,459.5,739.5)"/><rect x="477" y="722" width="35" height="35" transform="rotate(0,494.5,739.5)"/><path d="M 512 722v 35h 17.5a 17.5 17.5, 0, 0, 0, 0 -35" transform="rotate(0,529.5,739.5)"/><path d="M 652 722v 35h 17.5a 17.5 17.5, 0, 0, 0, 0 -35" transform="rotate(-90,669.5,739.5)"/><path d="M 792 722v 35h 17.5a 17.5 17.5, 0, 0, 0, 0 -35" transform="rotate(180,809.5,739.5)"/><rect x="827" y="722" width="35" height="35" transform="rotate(0,844.5,739.5)"/><path d="M 1037 722v 35h 35v -17.5a 17.5 17.5, 0, 0, 0, -17.5 -17.5" transform="rotate(-90,1054.5,739.5)"/><rect x="1072" y="722" width="35" height="35" transform="rotate(0,1089.5,739.5)"/><rect x="1107" y="722" width="35" height="35" transform="rotate(0,1124.5,739.5)"/><rect x="1142" y="722" width="35" height="35" transform="rotate(0,1159.5,739.5)"/><path d="M 22 757v 35h 17.5a 17.5 17.5, 0, 0, 0, 0 -35" transform="rotate(90,39.5,774.5)"/><path d="M 92 757v 35h 35v -17.5a 17.5 17.5, 0, 0, 0, -17.5 -17.5" transform="rotate(180,109.5,774.5)"/><path d="M 127 757v 35h 17.5a 17.5 17.5, 0, 0, 0, 0 -35" transform="rotate(0,144.5,774.5)"/><path d="M 197 757v 35h 17.5a 17.5 17.5, 0, 0, 0, 0 -35" transform="rotate(90,214.5,774.5)"/><path d="M 267 757v 35h 35v -17.5a 17.5 17.5, 0, 0, 0, -17.5 -17.5" transform="rotate(180,284.5,774.5)"/><rect x="302" y="757" width="35" height="35" transform="rotate(0,319.5,774.5)"/><rect x="337" y="757" width="35" height="35" transform="rotate(0,354.5,774.5)"/><rect x="372" y="757" width="35" height="35" transform="rotate(0,389.5,774.5)"/><rect x="442" y="757" width="35" height="35" transform="rotate(0,459.5,774.5)"/><path d="M 547 757v 35h 17.5a 17.5 17.5, 0, 0, 0, 0 -35" transform="rotate(180,564.5,774.5)"/><path d="M 582 757v 35h 17.5a 17.5 17.5, 0, 0, 0, 0 -35" transform="rotate(0,599.5,774.5)"/><rect x="652" y="757" width="35" height="35" transform="rotate(0,669.5,774.5)"/><path d="M 722 757v 35h 35v -17.5a 17.5 17.5, 0, 0, 0, -17.5 -17.5" transform="rotate(-90,739.5,774.5)"/><path d="M 757 757v 35h 35v -17.5a 17.5 17.5, 0, 0, 0, -17.5 -17.5" transform="rotate(0,774.5,774.5)"/><rect x="827" y="757" width="35" height="35" transform="rotate(0,844.5,774.5)"/><path d="M 932 757v 35h 17.5a 17.5 17.5, 0, 0, 0, 0 -35" transform="rotate(-90,949.5,774.5)"/><path d="M 1037 757v 35h 35v -17.5a 17.5 17.5, 0, 0, 0, -17.5 -17.5" transform="rotate(180,1054.5,774.5)"/><path d="M 1072 757v 35h 35v -17.5a 17.5 17.5, 0, 0, 0, -17.5 -17.5" transform="rotate(90,1089.5,774.5)"/><rect x="1142" y="757" width="35" height="35" transform="rotate(0,1159.5,774.5)"/><circle cx="249.5" cy="809.5" r="17.5" transform="rotate(0,249.5,809.5)"/><path d="M 302 792v 35h 35v -17.5a 17.5 17.5, 0, 0, 0, -17.5 -17.5" transform="rotate(180,319.5,809.5)"/><rect x="337" y="792" width="35" height="35" transform="rotate(0,354.5,809.5)"/><path d="M 372 792v 35h 35v -17.5a 17.5 17.5, 0, 0, 0, -17.5 -17.5" transform="rotate(90,389.5,809.5)"/><path d="M 442 792v 35h 17.5a 17.5 17.5, 0, 0, 0, 0 -35" transform="rotate(90,459.5,809.5)"/><path d="M 617 792v 35h 35v -17.5a 17.5 17.5, 0, 0, 0, -17.5 -17.5" transform="rotate(-90,634.5,809.5)"/><rect x="652" y="792" width="35" height="35" transform="rotate(0,669.5,809.5)"/><rect x="687" y="792" width="35" height="35" transform="rotate(0,704.5,809.5)"/><rect x="722" y="792" width="35" height="35" transform="rotate(0,739.5,809.5)"/><rect x="757" y="792" width="35" height="35" transform="rotate(0,774.5,809.5)"/><rect x="792" y="792" width="35" height="35" transform="rotate(0,809.5,809.5)"/><rect x="827" y="792" width="35" height="35" transform="rotate(0,844.5,809.5)"/><path d="M 862 792v 35h 35v -17.5a 17.5 17.5, 0, 0, 0, -17.5 -17.5" transform="rotate(0,879.5,809.5)"/><rect x="932" y="792" width="35" height="35" transform="rotate(0,949.5,809.5)"/><path d="M 1107 792v 35h 17.5a 17.5 17.5, 0, 0, 0, 0 -35" transform="rotate(180,1124.5,809.5)"/><rect x="1142" y="792" width="35" height="35" transform="rotate(0,1159.5,809.5)"/><circle cx="74.5" cy="844.5" r="17.5" transform="rotate(0,74.5,844.5)"/><path d="M 127 827v 35h 35v -17.5a 17.5 17.5, 0, 0, 0, -17.5 -17.5" transform="rotate(-90,144.5,844.5)"/><rect x="162" y="827" width="35" height="35" transform="rotate(0,179.5,844.5)"/><path d="M 197 827v 35h 35v -17.5a 17.5 17.5, 0, 0, 0, -17.5 -17.5" transform="rotate(0,214.5,844.5)"/><path d="M 267 827v 35h 17.5a 17.5 17.5, 0, 0, 0, 0 -35" transform="rotate(-90,284.5,844.5)"/><path d="M 407 827v 35h 17.5a 17.5 17.5, 0, 0, 0, 0 -35" transform="rotate(-90,424.5,844.5)"/><rect x="617" y="827" width="35" height="35" transform="rotate(0,634.5,844.5)"/><path d="M 652 827v 35h 35v -17.5a 17.5 17.5, 0, 0, 0, -17.5 -17.5" transform="rotate(90,669.5,844.5)"/><path d="M 722 827v 35h 17.5a 17.5 17.5, 0, 0, 0, 0 -35" transform="rotate(90,739.5,844.5)"/><rect x="792" y="827" width="35" height="35" transform="rotate(0,809.5,844.5)"/><rect x="862" y="827" width="35" height="35" transform="rotate(0,879.5,844.5)"/><rect x="932" y="827" width="35" height="35" transform="rotate(0,949.5,844.5)"/><rect x="967" y="827" width="35" height="35" transform="rotate(0,984.5,844.5)"/><rect x="1002" y="827" width="35" height="35" transform="rotate(0,1019.5,844.5)"/><path d="M 1037 827v 35h 35v -17.5a 17.5 17.5, 0, 0, 0, -17.5 -17.5" transform="rotate(0,1054.5,844.5)"/><path d="M 1142 827v 35h 17.5a 17.5 17.5, 0, 0, 0, 0 -35" transform="rotate(90,1159.5,844.5)"/><circle cx="39.5" cy="879.5" r="17.5" transform="rotate(0,39.5,879.5)"/><path d="M 127 862v 35h 17.5a 17.5 17.5, 0, 0, 0, 0 -35" transform="rotate(90,144.5,879.5)"/><path d="M 197 862v 35h 35v -17.5a 17.5 17.5, 0, 0, 0, -17.5 -17.5" transform="rotate(180,214.5,879.5)"/><rect x="232" y="862" width="35" height="35" transform="rotate(0,249.5,879.5)"/><rect x="267" y="862" width="35" height="35" transform="rotate(0,284.5,879.5)"/><path d="M 302 862v 35h 35v -17.5a 17.5 17.5, 0, 0, 0, -17.5 -17.5" transform="rotate(0,319.5,879.5)"/><path d="M 407 862v 35h 35v -17.5a 17.5 17.5, 0, 0, 0, -17.5 -17.5" transform="rotate(180,424.5,879.5)"/><path d="M 442 862v 35h 35v -17.5a 17.5 17.5, 0, 0, 0, -17.5 -17.5" transform="rotate(0,459.5,879.5)"/><rect x="617" y="862" width="35" height="35" transform="rotate(0,634.5,879.5)"/><path d="M 687 862v 35h 17.5a 17.5 17.5, 0, 0, 0, 0 -35" transform="rotate(-90,704.5,879.5)"/><path d="M 792 862v 35h 35v -17.5a 17.5 17.5, 0, 0, 0, -17.5 -17.5" transform="rotate(180,809.5,879.5)"/><rect x="827" y="862" width="35" height="35" transform="rotate(0,844.5,879.5)"/><rect x="862" y="862" width="35" height="35" transform="rotate(0,879.5,879.5)"/><rect x="897" y="862" width="35" height="35" transform="rotate(0,914.5,879.5)"/><rect x="932" y="862" width="35" height="35" transform="rotate(0,949.5,879.5)"/><rect x="967" y="862" width="35" height="35" transform="rotate(0,984.5,879.5)"/><rect x="1002" y="862" width="35" height="35" transform="rotate(0,1019.5,879.5)"/><rect x="1037" y="862" width="35" height="35" transform="rotate(0,1054.5,879.5)"/><circle cx="1124.5" cy="879.5" r="17.5" transform="rotate(0,1124.5,879.5)"/><path d="M 302 897v 35h 35v -17.5a 17.5 17.5, 0, 0, 0, -17.5 -17.5" transform="rotate(180,319.5,914.5)"/><rect x="337" y="897" width="35" height="35" transform="rotate(0,354.5,914.5)"/><path d="M 372 897v 35h 35v -17.5a 17.5 17.5, 0, 0, 0, -17.5 -17.5" transform="rotate(0,389.5,914.5)"/><path d="M 442 897v 35h 17.5a 17.5 17.5, 0, 0, 0, 0 -35" transform="rotate(90,459.5,914.5)"/><path d="M 547 897v 35h 17.5a 17.5 17.5, 0, 0, 0, 0 -35" transform="rotate(-90,564.5,914.5)"/><path d="M 617 897v 35h 17.5a 17.5 17.5, 0, 0, 0, 0 -35" transform="rotate(90,634.5,914.5)"/><rect x="687" y="897" width="35" height="35" transform="rotate(0,704.5,914.5)"/><rect x="722" y="897" width="35" height="35" transform="rotate(0,739.5,914.5)"/><path d="M 757 897v 35h 35v -17.5a 17.5 17.5, 0, 0, 0, -17.5 -17.5" transform="rotate(0,774.5,914.5)"/><rect x="827" y="897" width="35" height="35" transform="rotate(0,844.5,914.5)"/><rect x="862" y="897" width="35" height="35" transform="rotate(0,879.5,914.5)"/><rect x="1002" y="897" width="35" height="35" transform="rotate(0,1019.5,914.5)"/><path d="M 1037 897v 35h 35v -17.5a 17.5 17.5, 0, 0, 0, -17.5 -17.5" transform="rotate(90,1054.5,914.5)"/><rect x="337" y="932" width="35" height="35" transform="rotate(0,354.5,949.5)"/><rect x="372" y="932" width="35" height="35" transform="rotate(0,389.5,949.5)"/><path d="M 407 932v 35h 17.5a 17.5 17.5, 0, 0, 0, 0 -35" transform="rotate(0,424.5,949.5)"/><path d="M 477 932v 35h 17.5a 17.5 17.5, 0, 0, 0, 0 -35" transform="rotate(180,494.5,949.5)"/><rect x="512" y="932" width="35" height="35" transform="rotate(0,529.5,949.5)"/><rect x="547" y="932" width="35" height="35" transform="rotate(0,564.5,949.5)"/><path d="M 687 932v 35h 35v -17.5a 17.5 17.5, 0, 0, 0, -17.5 -17.5" transform="rotate(180,704.5,949.5)"/><rect x="722" y="932" width="35" height="35" transform="rotate(0,739.5,949.5)"/><path d="M 757 932v 35h 35v -17.5a 17.5 17.5, 0, 0, 0, -17.5 -17.5" transform="rotate(90,774.5,949.5)"/><rect x="827" y="932" width="35" height="35" transform="rotate(0,844.5,949.5)"/><rect x="862" y="932" width="35" height="35" transform="rotate(0,879.5,949.5)"/><circle cx="949.5" cy="949.5" r="17.5" transform="rotate(0,949.5,949.5)"/><rect x="1002" y="932" width="35" height="35" transform="rotate(0,1019.5,949.5)"/><path d="M 302 967v 35h 17.5a 17.5 17.5, 0, 0, 0, 0 -35" transform="rotate(180,319.5,984.5)"/><path d="M 337 967v 35h 35v -17.5a 17.5 17.5, 0, 0, 0, -17.5 -17.5" transform="rotate(90,354.5,984.5)"/><rect x="547" y="967" width="35" height="35" transform="rotate(0,564.5,984.5)"/><rect x="582" y="967" width="35" height="35" transform="rotate(0,599.5,984.5)"/><rect x="617" y="967" width="35" height="35" transform="rotate(0,634.5,984.5)"/><path d="M 652 967v 35h 17.5a 17.5 17.5, 0, 0, 0, 0 -35" transform="rotate(0,669.5,984.5)"/><rect x="827" y="967" width="35" height="35" transform="rotate(0,844.5,984.5)"/><rect x="862" y="967" width="35" height="35" transform="rotate(0,879.5,984.5)"/><rect x="1002" y="967" width="35" height="35" transform="rotate(0,1019.5,984.5)"/><rect x="1037" y="967" width="35" height="35" transform="rotate(0,1054.5,984.5)"/><rect x="1072" y="967" width="35" height="35" transform="rotate(0,1089.5,984.5)"/><rect x="1107" y="967" width="35" height="35" transform="rotate(0,1124.5,984.5)"/><path d="M 1142 967v 35h 17.5a 17.5 17.5, 0, 0, 0, 0 -35" transform="rotate(0,1159.5,984.5)"/><path d="M 372 1002v 35h 17.5a 17.5 17.5, 0, 0, 0, 0 -35" transform="rotate(-90,389.5,1019.5)"/><path d="M 477 1002v 35h 17.5a 17.5 17.5, 0, 0, 0, 0 -35" transform="rotate(180,494.5,1019.5)"/><rect x="512" y="1002" width="35" height="35" transform="rotate(0,529.5,1019.5)"/><rect x="547" y="1002" width="35" height="35" transform="rotate(0,564.5,1019.5)"/><rect x="617" y="1002" width="35" height="35" transform="rotate(0,634.5,1019.5)"/><path d="M 687 1002v 35h 17.5a 17.5 17.5, 0, 0, 0, 0 -35" transform="rotate(-90,704.5,1019.5)"/><path d="M 792 1002v 35h 35v -17.5a 17.5 17.5, 0, 0, 0, -17.5 -17.5" transform="rotate(-90,809.5,1019.5)"/><rect x="827" y="1002" width="35" height="35" transform="rotate(0,844.5,1019.5)"/><rect x="862" y="1002" width="35" height="35" transform="rotate(0,879.5,1019.5)"/><rect x="897" y="1002" width="35" height="35" transform="rotate(0,914.5,1019.5)"/><rect x="932" y="1002" width="35" height="35" transform="rotate(0,949.5,1019.5)"/><rect x="967" y="1002" width="35" height="35" transform="rotate(0,984.5,1019.5)"/><path d="M 1002 1002v 35h 35v -17.5a 17.5 17.5, 0, 0, 0, -17.5 -17.5" transform="rotate(90,1019.5,1019.5)"/><path d="M 1072 1002v 35h 35v -17.5a 17.5 17.5, 0, 0, 0, -17.5 -17.5" transform="rotate(180,1089.5,1019.5)"/><rect x="1107" y="1002" width="35" height="35" transform="rotate(0,1124.5,1019.5)"/><path d="M 302 1037v 35h 35v -17.5a 17.5 17.5, 0, 0, 0, -17.5 -17.5" transform="rotate(-90,319.5,1054.5)"/><rect x="337" y="1037" width="35" height="35" transform="rotate(0,354.5,1054.5)"/><rect x="372" y="1037" width="35" height="35" transform="rotate(0,389.5,1054.5)"/><circle cx="459.5" cy="1054.5" r="17.5" transform="rotate(0,459.5,1054.5)"/><rect x="512" y="1037" width="35" height="35" transform="rotate(0,529.5,1054.5)"/><rect x="547" y="1037" width="35" height="35" transform="rotate(0,564.5,1054.5)"/><rect x="582" y="1037" width="35" height="35" transform="rotate(0,599.5,1054.5)"/><path d="M 617 1037v 35h 35v -17.5a 17.5 17.5, 0, 0, 0, -17.5 -17.5" transform="rotate(90,634.5,1054.5)"/><path d="M 687 1037v 35h 17.5a 17.5 17.5, 0, 0, 0, 0 -35" transform="rotate(90,704.5,1054.5)"/><path d="M 757 1037v 35h 35v -17.5a 17.5 17.5, 0, 0, 0, -17.5 -17.5" transform="rotate(-90,774.5,1054.5)"/><rect x="792" y="1037" width="35" height="35" transform="rotate(0,809.5,1054.5)"/><rect x="827" y="1037" width="35" height="35" transform="rotate(0,844.5,1054.5)"/><rect x="967" y="1037" width="35" height="35" transform="rotate(0,984.5,1054.5)"/><path d="M 1107 1037v 35h 35v -17.5a 17.5 17.5, 0, 0, 0, -17.5 -17.5" transform="rotate(180,1124.5,1054.5)"/><path d="M 1142 1037v 35h 17.5a 17.5 17.5, 0, 0, 0, 0 -35" transform="rotate(0,1159.5,1054.5)"/><rect x="302" y="1072" width="35" height="35" transform="rotate(0,319.5,1089.5)"/><rect x="337" y="1072" width="35" height="35" transform="rotate(0,354.5,1089.5)"/><rect x="372" y="1072" width="35" height="35" transform="rotate(0,389.5,1089.5)"/><path d="M 407 1072v 35h 17.5a 17.5 17.5, 0, 0, 0, 0 -35" transform="rotate(0,424.5,1089.5)"/><path d="M 477 1072v 35h 35v -17.5a 17.5 17.5, 0, 0, 0, -17.5 -17.5" transform="rotate(-90,494.5,1089.5)"/><rect x="512" y="1072" width="35" height="35" transform="rotate(0,529.5,1089.5)"/><path d="M 652 1072v 35h 17.5a 17.5 17.5, 0, 0, 0, 0 -35" transform="rotate(-90,669.5,1089.5)"/><path d="M 722 1072v 35h 35v -17.5a 17.5 17.5, 0, 0, 0, -17.5 -17.5" transform="rotate(-90,739.5,1089.5)"/><rect x="757" y="1072" width="35" height="35" transform="rotate(0,774.5,1089.5)"/><rect x="792" y="1072" width="35" height="35" transform="rotate(0,809.5,1089.5)"/><rect x="827" y="1072" width="35" height="35" transform="rotate(0,844.5,1089.5)"/><rect x="862" y="1072" width="35" height="35" transform="rotate(0,879.5,1089.5)"/><rect x="897" y="1072" width="35" height="35" transform="rotate(0,914.5,1089.5)"/><rect x="932" y="1072" width="35" height="35" transform="rotate(0,949.5,1089.5)"/><rect x="967" y="1072" width="35" height="35" transform="rotate(0,984.5,1089.5)"/><path d="M 302 1107v 35h 35v -17.5a 17.5 17.5, 0, 0, 0, -17.5 -17.5" transform="rotate(180,319.5,1124.5)"/><rect x="337" y="1107" width="35" height="35" transform="rotate(0,354.5,1124.5)"/><path d="M 372 1107v 35h 35v -17.5a 17.5 17.5, 0, 0, 0, -17.5 -17.5" transform="rotate(90,389.5,1124.5)"/><path d="M 442 1107v 35h 17.5a 17.5 17.5, 0, 0, 0, 0 -35" transform="rotate(180,459.5,1124.5)"/><rect x="477" y="1107" width="35" height="35" transform="rotate(0,494.5,1124.5)"/><rect x="512" y="1107" width="35" height="35" transform="rotate(0,529.5,1124.5)"/><rect x="547" y="1107" width="35" height="35" transform="rotate(0,564.5,1124.5)"/><path d="M 582 1107v 35h 35v -17.5a 17.5 17.5, 0, 0, 0, -17.5 -17.5" transform="rotate(0,599.5,1124.5)"/><rect x="652" y="1107" width="35" height="35" transform="rotate(0,669.5,1124.5)"/><rect x="722" y="1107" width="35" height="35" transform="rotate(0,739.5,1124.5)"/><path d="M 827 1107v 35h 35v -17.5a 17.5 17.5, 0, 0, 0, -17.5 -17.5" transform="rotate(180,844.5,1124.5)"/><rect x="862" y="1107" width="35" height="35" transform="rotate(0,879.5,1124.5)"/><rect x="897" y="1107" width="35" height="35" transform="rotate(0,914.5,1124.5)"/><rect x="932" y="1107" width="35" height="35" transform="rotate(0,949.5,1124.5)"/><rect x="967" y="1107" width="35" height="35" transform="rotate(0,984.5,1124.5)"/><path d="M 1002 1107v 35h 35v -17.5a 17.5 17.5, 0, 0, 0, -17.5 -17.5" transform="rotate(0,1019.5,1124.5)"/><circle cx="1159.5" cy="1124.5" r="17.5" transform="rotate(0,1159.5,1124.5)"/><path d="M 477 1142v 35h 35v -17.5a 17.5 17.5, 0, 0, 0, -17.5 -17.5" transform="rotate(180,494.5,1159.5)"/><path d="M 512 1142v 35h 35v -17.5a 17.5 17.5, 0, 0, 0, -17.5 -17.5" transform="rotate(90,529.5,1159.5)"/><path d="M 582 1142v 35h 17.5a 17.5 17.5, 0, 0, 0, 0 -35" transform="rotate(90,599.5,1159.5)"/><path d="M 652 1142v 35h 35v -17.5a 17.5 17.5, 0, 0, 0, -17.5 -17.5" transform="rotate(180,669.5,1159.5)"/><rect x="687" y="1142" width="35" height="35" transform="rotate(0,704.5,1159.5)"/><rect x="722" y="1142" width="35" height="35" transform="rotate(0,739.5,1159.5)"/><path d="M 757 1142v 35h 17.5a 17.5 17.5, 0, 0, 0, 0 -35" transform="rotate(0,774.5,1159.5)"/><path d="M 897 1142v 35h 17.5a 17.5 17.5, 0, 0, 0, 0 -35" transform="rotate(90,914.5,1159.5)"/><path d="M 1002 1142v 35h 35v -17.5a 17.5 17.5, 0, 0, 0, -17.5 -17.5" transform="rotate(180,1019.5,1159.5)"/><rect x="1037" y="1142" width="35" height="35" transform="rotate(0,1054.5,1159.5)"/><path d="M 1072 1142v 35h 17.5a 17.5 17.5, 0, 0, 0, 0 -35" transform="rotate(0,1089.5,1159.5)"/></clipPath><clipPath id="clip-path-corners-square-color-0-0-17"><path clip-rule="evenodd" d="M 22 109.5v 70a 87.5 87.5, 0, 0, 0, 87.5 87.5h 70a 87.5 87.5, 0, 0, 0, 87.5 -87.5v -70a 87.5 87.5, 0, 0, 0, -87.5 -87.5h -70a 87.5 87.5, 0, 0, 0, -87.5 87.5M 109.5 57h 70a 52.5 52.5, 0, 0, 1, 52.5 52.5v 70a 52.5 52.5, 0, 0, 1, -52.5 52.5h -70a 52.5 52.5, 0, 0, 1, -52.5 -52.5v -70a 52.5 52.5, 0, 0, 1, 52.5 -52.5" transform="rotate(0,144.5,144.5)"/></clipPath><clipPath id="clip-path-corners-dot-color-0-0-17"><circle cx="144.5" cy="144.5" r="52.5" transform="rotate(0,144.5,144.5)"/></clipPath><clipPath id="clip-path-corners-square-color-1-0-17"><path clip-rule="evenodd" d="M 932 109.5v 70a 87.5 87.5, 0, 0, 0, 87.5 87.5h 70a 87.5 87.5, 0, 0, 0, 87.5 -87.5v -70a 87.5 87.5, 0, 0, 0, -87.5 -87.5h -70a 87.5 87.5, 0, 0, 0, -87.5 87.5M 1019.5 57h 70a 52.5 52.5, 0, 0, 1, 52.5 52.5v 70a 52.5 52.5, 0, 0, 1, -52.5 52.5h -70a 52.5 52.5, 0, 0, 1, -52.5 -52.5v -70a 52.5 52.5, 0, 0, 1, 52.5 -52.5" transform="rotate(90,1054.5,144.5)"/></clipPath><clipPath id="clip-path-corners-dot-color-1-0-17"><circle cx="1054.5" cy="144.5" r="52.5" transform="rotate(90,1054.5,144.5)"/></clipPath><clipPath id="clip-path-corners-square-color-0-1-17"><path clip-rule="evenodd" d="M 22 1019.5v 70a 87.5 87.5, 0, 0, 0, 87.5 87.5h 70a 87.5 87.5, 0, 0, 0, 87.5 -87.5v -70a 87.5 87.5, 0, 0, 0, -87.5 -87.5h -70a 87.5 87.5, 0, 0, 0, -87.5 87.5M 109.5 967h 70a 52.5 52.5, 0, 0, 1, 52.5 52.5v 70a 52.5 52.5, 0, 0, 1, -52.5 52.5h -70a 52.5 52.5, 0, 0, 1, -52.5 -52.5v -70a 52.5 52.5, 0, 0, 1, 52.5 -52.5" transform="rotate(-90,144.5,1054.5)"/></clipPath><clipPath id="clip-path-corners-dot-color-0-1-17"><circle cx="144.5" cy="1054.5" r="52.5" transform="rotate(-90,144.5,1054.5)"/></clipPath></defs><rect x="0" y="0" height="1200" width="1200" clip-path="url('#clip-path-background-color-17')" fill="#ffffff"/><rect x="0" y="0" height="1200" width="1200" clip-path="url('#clip-path-dot-color-17')" fill="#000000"/><rect x="22" y="22" height="245" width="245" clip-path="url('#clip-path-corners-square-color-0-0-17')" fill="#000000"/><rect x="92" y="92" height="105" width="105" clip-path="url('#clip-path-corners-dot-color-0-0-17')" fill="#000000"/><rect x="932" y="22" height="245" width="245" clip-path="url('#clip-path-corners-square-color-1-0-17')" fill="#000000"/><rect x="1002" y="92" height="105" width="105" clip-path="url('#clip-path-corners-dot-color-1-0-17')" fill="#000000"/><rect x="22" y="932" height="245" width="245" clip-path="url('#clip-path-corners-square-color-0-1-17')" fill="#000000"/><rect x="92" y="1002" height="105" width="105" clip-path="url('#clip-path-corners-dot-color-0-1-17')" fill="#000000"/></svg>