<?xml version="1.0" standalone="no"?>
<svg xmlns="http://www.w3.org/2000/svg" width="1200" height="1200" xmlns:xlink="http://www.w3.org/1999/xlink" viewBox="0 0 1200 1200"><defs><clipPath id="clip-path-background-color-27"><rect x="0" y="0" width="1200" height="1200"/></clipPath><clipPath id="clip-path-dot-color-27"><path d="M 296 8v 32h 32v -16a 16 16, 0, 0, 0, -16 -16" transform="rotate(-90,312,24)"/><rect x="328" y="8" width="32" height="32" transform="rotate(0,344,24)"/><rect x="360" y="8" width="32" height="32" transform="rotate(0,376,24)"/><rect x="392" y="8" width="32" height="32" transform="rotate(0,408,24)"/><path d="M 424 8v 32h 16a 16 16, 0, 0, 0, 0 -32" transform="rotate(0,440,24)"/><path d="M 552 8v 32h 32v -16a 16 16, 0, 0, 0, -16 -16" transform="rotate(-90,568,24)"/><path d="M 584 8v 32h 32v -16a 16 16, 0, 0, 0, -16 -16" transform="rotate(0,600,24)"/><path d="M 648 8v 32h 16a 16 16, 0, 0, 0, 0 -32" transform="rotate(180,664,24)"/><path d="M 680 8v 32h 16a 16 16, 0, 0, 0, 0 -32" transform="rotate(0,696,24)"/><path d="M 744 8v 32h 16a 16 16, 0, 0, 0, 0 -32" transform="rotate(180,760,24)"/><path d="M 776 8v 32h 16a 16 16, 0, 0, 0, 0 -32" transform="rotate(0,792,24)"/><path d="M 840 8v 32h 16a 16 16, 0, 0, 0, 0 -32" transform="rotate(-90,856,24)"/><path d="M 904 8v 32h 16a 16 16, 0, 0, 0, 0 -32" transform="rotate(-90,920,24)"/><path d="M 264 40v 32h 16a 16 16, 0, 0, 0, 0 -32" transform="rotate(180,280,56)"/><rect x="296" y="40" width="32" height="32" transform="rotate(0,312,56)"/><rect x="360" y="40" width="32" height="32" transform="rotate(0,376,56)"/><path d="M 392 40v 32h 32v -16a 16 16, 0, 0, 0, -16 -16" transform="rotate(90,408,56)"/><path d="M 488 40v 32h 16a 16 16, 0, 0, 0, 0 -32" transform="rotate(-90,504,56)"/><rect x="552" y="40" width="32" height="32" transform="rotate(0,568,56)"/><path d="M 584 40v 32h 32v -16a 16 16, 0, 0, 0, -16 -16" transform="rotate(90,600,56)"/><path d="M 712 40v 32h 16a 16 16, 0, 0, 0, 0 -32" transform="rotate(-90,728,56)"/><path d="M 808 40v 32h 32v -16a 16 16, 0, 0, 0, -16 -16" transform="rotate(-90,824,56)"/><rect x="840" y="40" width="32" height="32" transform="rotate(0,856,56)"/><path d="M 904 40v 32h 16a 16 16, 0, 0, 0, 0 -32" transform="rotate(90,920,56)"/><rect x="296" y="72" width="32" height="32" transform="rotate(0,312,88)"/><path d="M 360 72v 32h 16a 16 16, 0, 0, 0, 0 -32" transform="rotate(90,376,88)"/><path d="M 456 72v 32h 32v -16a 16 16, 0, 0, 0, -16 -16" transform="rotate(-90,472,88)"/><rect x="488" y="72" width="32" height="32" transform="rotate(0,504,88)"/><rect x="520" y="72" width="32" height="32" transform="rotate(0,536,88)"/><rect x="552" y="72" width="32" height="32" transform="rotate(0,568,88)"/><path d="M 616 72v 32h 16a 16 16, 0, 0, 0, 0 -32" transform="rotate(-90,632,88)"/><path d="M 680 72v 32h 32v -16a 16 16, 0, 0, 0, -16 -16" transform="rotate(-90,696,88)"/><path d="M 712 72v 32h 32v -16a 16 16, 0, 0, 0, -16 -16" transform="rotate(90,728,88)"/><path d="M 776 72v 32h 32v -16a 16 16, 0, 0, 0, -16 -16" transform="rotate(-90,792,88)"/><rect x="808" y="72" width="32" height="32" transform="rotate(0,824,88)"/><rect x="840" y="72" width="32" height="32" transform="rotate(0,856,88)"/><path d="M 872 72v 32h 32v -16a 16 16, 0, 0, 0, -16 -16" transform="rotate(0,888,88)"/><path d="M 264 104v 32h 32v -16a 16 16, 0, 0, 0, -16 -16" transform="rotate(-90,280,120)"/><rect x="296" y="104" width="32" height="32" transform="rotate(0,312,120)"/><path d="M 328 104v 32h 16a 16 16, 0, 0, 0, 0 -32" transform="rotate(0,344,120)"/><path d="M 392 104v 32h 16a 16 16, 0, 0, 0, 0 -32" transform="rotate(-90,408,120)"/><rect x="456" y="104" width="32" height="32" transform="rotate(0,472,120)"/><rect x="488" y="104" width="32" height="32" transform="rotate(0,504,120)"/><rect x="520" y="104" width="32" height="32" transform="rotate(0,536,120)"/><rect x="552" y="104" width="32" height="32" transform="rotate(0,568,120)"/><rect x="584" y="104" width="32" height="32" transform="rotate(0,600,120)"/><rect x="616" y="104" width="32" height="32" transform="rotate(0,632,120)"/><rect x="680" y="104" width="32" height="32" transform="rotate(0,696,120)"/><path d="M 776 104v 32h 32v -16a 16 16, 0, 0, 0, -16 -16" transform="rotate(180,792,120)"/><path d="M 808 104v 32h 32v -16a 16 16, 0, 0, 0, -16 -16" transform="rotate(90,824,120)"/><path d="M 872 104v 32h 32v -16a 16 16, 0, 0, 0, -16 -16" transform="rotate(180,888,120)"/><path d="M 904 104v 32h 16a 16 16, 0, 0, 0, 0 -32" transform="rotate(0,920,120)"/><path d="M 264 136v 32h 16a 16 16, 0, 0, 0, 0 -32" transform="rotate(90,280,152)"/><path d="M 360 136v 32h 32v -16a 16 16, 0, 0, 0, -16 -16" transform="rotate(-90,376,152)"/><path d="M 392 136v 32h 32v -16a 16 16, 0, 0, 0, -16 -16" transform="rotate(90,408,152)"/><rect x="456" y="136" width="32" height="32" transform="rotate(0,472,152)"/><rect x="488" y="136" width="32" height="32" transform="rotate(0,504,152)"/><path d="M 520 136v 32h 32v -16a 16 16, 0, 0, 0, -16 -16" transform="rotate(90,536,152)"/><rect x="616" y="136" width="32" height="32" transform="rotate(0,632,152)"/><path d="M 680 136v 32h 32v -16a 16 16, 0, 0, 0, -16 -16" transform="rotate(180,696,152)"/><path d="M 712 136v 32h 16a 16 16, 0, 0, 0, 0 -32" transform="rotate(0,728,152)"/><circle cx="856" cy="152" r="16" transform="rotate(0,856,152)"/><path d="M 296 168v 32h 16a 16 16, 0, 0, 0, 0 -32" transform="rotate(180,312,184)"/><rect x="328" y="168" width="32" height="32" transform="rotate(0,344,184)"/><path d="M 360 168v 32h 32v -16a 16 16, 0, 0, 0, -16 -16" transform="rotate(90,376,184)"/><rect x="456" y="168" width="32" height="32" transform="rotate(0,472,184)"/><path d="M 488 168v 32h 32v -16a 16 16, 0, 0, 0, -16 -16" transform="rotate(90,504,184)"/><path d="M 584 168v 32h 32v -16a 16 16, 0, 0, 0, -16 -16" transform="rotate(-90,600,184)"/><path d="M 616 168v 32h 32v -16a 16 16, 0, 0, 0, -16 -16" transform="rotate(90,632,184)"/><path d="M 744 168v 32h 16a 16 16, 0, 0, 0, 0 -32" transform="rotate(180,760,184)"/><path d="M 776 168v 32h 32v -16a 16 16, 0, 0, 0, -16 -16" transform="rotate(0,792,184)"/><path d="M 264 200v 32h 16a 16 16, 0, 0, 0, 0 -32" transform="rotate(-90,280,216)"/><path d="M 328 200v 32h 16a 16 16, 0, 0, 0, 0 -32" transform="rotate(90,344,216)"/><path d="M 392 200v 32h 16a 16 16, 0, 0, 0, 0 -32" transform="rotate(-90,408,216)"/><path d="M 456 200v 32h 16a 16 16, 0, 0, 0, 0 -32" transform="rotate(90,472,216)"/><path d="M 520 200v 32h 16a 16 16, 0, 0, 0, 0 -32" transform="rotate(-90,536,216)"/><rect x="584" y="200" width="32" height="32" transform="rotate(0,600,216)"/><path d="M 648 200v 32h 16a 16 16, 0, 0, 0, 0 -32" transform="rotate(-90,664,216)"/><path d="M 712 200v 32h 16a 16 16, 0, 0, 0, 0 -32" transform="rotate(-90,728,216)"/><path d="M 776 200v 32h 16a 16 16, 0, 0, 0, 0 -32" transform="rotate(90,792,216)"/><circle cx="856" cy="216" r="16" transform="rotate(0,856,216)"/><path d="M 904 200v 32h 16a 16 16, 0, 0, 0, 0 -32" transform="rotate(-90,920,216)"/><rect x="264" y="232" width="32" height="32" transform="rotate(0,280,248)"/><path d="M 360 232v 32h 32v -16a 16 16, 0, 0, 0, -16 -16" transform="rotate(-90,376,248)"/><rect x="392" y="232" width="32" height="32" transform="rotate(0,408,248)"/><path d="M 520 232v 32h 16a 16 16, 0, 0, 0, 0 -32" transform="rotate(90,536,248)"/><rect x="584" y="232" width="32" height="32" transform="rotate(0,600,248)"/><rect x="648" y="232" width="32" height="32" transform="rotate(0,664,248)"/><path d="M 712 232v 32h 32v -16a 16 16, 0, 0, 0, -16 -16" transform="rotate(180,728,248)"/><path d="M 744 232v 32h 16a 16 16, 0, 0, 0, 0 -32" transform="rotate(0,760,248)"/><path d="M 808 232v 32h 16a 16 16, 0, 0, 0, 0 -32" transform="rotate(-90,824,248)"/><path d="M 872 232v 32h 16a 16 16, 0, 0, 0, 0 -32" transform="rotate(180,888,248)"/><rect x="904" y="232" width="32" height="32" transform="rotate(0,920,248)"/><circle cx="56" cy="280" r="16" transform="rotate(0,56,280)"/><path d="M 104 264v 32h 32v -16a 16 16, 0, 0, 0, -16 -16" transform="rotate(-90,120,280)"/><rect x="136" y="264" width="32" height="32" transform="rotate(0,152,280)"/><rect x="168" y="264" width="32" height="32" transform="rotate(0,184,280)"/><path d="M 200 264v 32h 16a 16 16, 0, 0, 0, 0 -32" transform="rotate(0,216,280)"/><path d="M 264 264v 32h 16a 16 16, 0, 0, 0, 0 -32" transform="rotate(90,280,280)"/><path d="M 328 264v 32h 16a 16 16, 0, 0, 0, 0 -32" transform="rotate(180,344,280)"/><rect x="360" y="264" width="32" height="32" transform="rotate(0,376,280)"/><path d="M 392 264v 32h 32v -16a 16 16, 0, 0, 0, -16 -16" transform="rotate(90,408,280)"/><circle cx="472" cy="280" r="16" transform="rotate(0,472,280)"/><path d="M 552 264v 32h 16a 16 16, 0, 0, 0, 0 -32" transform="rotate(180,568,280)"/><rect x="584" y="264" width="32" height="32" transform="rotate(0,600,280)"/><rect x="616" y="264" width="32" height="32" transform="rotate(0,632,280)"/><rect x="648" y="264" width="32" height="32" transform="rotate(0,664,280)"/><path d="M 776 264v 32h 16a 16 16, 0, 0, 0, 0 -32" transform="rotate(180,792,280)"/><rect x="808" y="264" width="32" height="32" transform="rotate(0,824,280)"/><path d="M 904 264v 32h 32v -16a 16 16, 0, 0, 0, -16 -16" transform="rotate(180,920,280)"/><rect x="936" y="264" width="32" height="32" transform="rotate(0,952,280)"/><path d="M 968 264v 32h 32v -16a 16 16, 0, 0, 0, -16 -16" transform="rotate(0,984,280)"/><path d="M 1032 264v 32h 32v -16a 16 16, 0, 0, 0, -16 -16" transform="rotate(-90,1048,280)"/><path d="M 1064 264v 32h 32v -16a 16 16, 0, 0, 0, -16 -16" transform="rotate(0,1080,280)"/><circle cx="1144" cy="280" r="16" transform="rotate(0,1144,280)"/><path d="M 72 296v 32h 32v -16a 16 16, 0, 0, 0, -16 -16" transform="rotate(-90,88,312)"/><rect x="104" y="296" width="32" height="32" transform="rotate(0,120,312)"/><circle cx="248" cy="312" r="16" transform="rotate(0,248,312)"/><rect x="360" y="296" width="32" height="32" transform="rotate(0,376,312)"/><path d="M 424 296v 32h 16a 16 16, 0, 0, 0, 0 -32" transform="rotate(-90,440,312)"/><circle cx="504" cy="312" r="16" transform="rotate(0,504,312)"/><rect x="616" y="296" width="32" height="32" transform="rotate(0,632,312)"/><rect x="648" y="296" width="32" height="32" transform="rotate(0,664,312)"/><path d="M 680 296v 32h 32v -16a 16 16, 0, 0, 0, -16 -16" transform="rotate(0,696,312)"/><path d="M 744 296v 32h 16a 16 16, 0, 0, 0, 0 -32" transform="rotate(-90,760,312)"/><rect x="808" y="296" width="32" height="32" transform="rotate(0,824,312)"/><rect x="936" y="296" width="32" height="32" transform="rotate(0,952,312)"/><rect x="968" y="296" width="32" height="32" transform="rotate(0,984,312)"/><rect x="1032" y="296" width="32" height="32" transform="rotate(0,1048,312)"/><path d="M 1064 296v 32h 32v -16a 16 16, 0, 0, 0, -16 -16" transform="rotate(90,1080,312)"/><path d="M 8 328v 32h 32v -16a 16 16, 0, 0, 0, -16 -16" transform="rotate(-90,24,344)"/><rect x="40" y="328" width="32" height="32" transform="rotate(0,56,344)"/><rect x="72" y="328" width="32" height="32" transform="rotate(0,88,344)"/><path d="M 104 328v 32h 32v -16a 16 16, 0, 0, 0, -16 -16" transform="rotate(90,120,344)"/><path d="M 168 328v 32h 32v -16a 16 16, 0, 0, 0, -16 -16" transform="rotate(-90,184,344)"/><path d="M 200 328v 32h 16a 16 16, 0, 0, 0, 0 -32" transform="rotate(0,216,344)"/><path d="M 296 328v 32h 16a 16 16, 0, 0, 0, 0 -32" transform="rotate(-90,312,344)"/><rect x="360" y="328" width="32" height="32" transform="rotate(0,376,344)"/><path d="M 424 328v 32h 16a 16 16, 0, 0, 0, 0 -32" transform="rotate(90,440,344)"/><path d="M 520 328v 32h 32v -16a 16 16, 0, 0, 0, -16 -16" transform="rotate(-90,536,344)"/><path d="M 552 328v 32h 32v -16a 16 16, 0, 0, 0, -16 -16" transform="rotate(0,568,344)"/><path d="M 616 328v 32h 16a 16 16, 0, 0, 0, 0 -32" transform="rotate(90,632,344)"/><path d="M 680 328v 32h 32v -16a 16 16, 0, 0, 0, -16 -16" transform="rotate(180,696,344)"/><rect x="712" y="328" width="32" height="32" transform="rotate(0,728,344)"/><path d="M 744 328v 32h 32v -16a 16 16, 0, 0, 0, -16 -16" transform="rotate(90,760,344)"/><path d="M 808 328v 32h 16a 16 16, 0, 0, 0, 0 -32" transform="rotate(90,824,344)"/><rect x="936" y="328" width="32" height="32" transform="rotate(0,952,344)"/><rect x="968" y="328" width="32" height="32" transform="rotate(0,984,344)"/><rect x="1000" y="328" width="32" height="32" transform="rotate(0,1016,344)"/><path d="M 1032 328v 32h 32v -16a 16 16, 0, 0, 0, -16 -16" transform="rotate(90,1048,344)"/><circle cx="1176" cy="344" r="16" transform="rotate(0,1176,344)"/><rect x="8" y="360" width="32" height="32" transform="rotate(0,24,376)"/><path d="M 40 360v 32h 32v -16a 16 16, 0, 0, 0, -16 -16" transform="rotate(90,56,376)"/><path d="M 136 360v 32h 32v -16a 16 16, 0, 0, 0, -16 -16" transform="rotate(-90,152,376)"/><rect x="168" y="360" width="32" height="32" transform="rotate(0,184,376)"/><path d="M 264 360v 32h 32v -16a 16 16, 0, 0, 0, -16 -16" transform="rotate(-90,280,376)"/><rect x="296" y="360" width="32" height="32" transform="rotate(0,312,376)"/><rect x="328" y="360" width="32" height="32" transform="rotate(0,344,376)"/><rect x="360" y="360" width="32" height="32" transform="rotate(0,376,376)"/><path d="M 392 360v 32h 32v -16a 16 16, 0, 0, 0, -16 -16" transform="rotate(0,408,376)"/><rect x="520" y="360" width="32" height="32" transform="rotate(0,536,376)"/><path d="M 552 360v 32h 32v -16a 16 16, 0, 0, 0, -16 -16" transform="rotate(90,568,376)"/><circle cx="664" cy="376" r="16" transform="rotate(0,664,376)"/><path d="M 712 360v 32h 16a 16 16, 0, 0, 0, 0 -32" transform="rotate(90,728,376)"/><circle cx="792" cy="376" r="16" transform="rotate(0,792,376)"/><path d="M 840 360v 32h 16a 16 16, 0, 0, 0, 0 -32" transform="rotate(180,856,376)"/><path d="M 872 360v 32h 16a 16 16, 0, 0, 0, 0 -32" transform="rotate(0,888,376)"/><path d="M 936 360v 32h 32v -16a 16 16, 0, 0, 0, -16 -16" transform="rotate(180,952,376)"/><rect x="968" y="360" width="32" height="32" transform="rotate(0,984,376)"/><path d="M 1064 360v 32h 16a 16 16, 0, 0, 0, 0 -32" transform="rotate(180,1080,376)"/><path d="M 1096 360v 32h 16a 16 16, 0, 0, 0, 0 -32" transform="rotate(0,1112,376)"/><path d="M 8 392v 32h 16a 16 16, 0, 0, 0, 0 -32" transform="rotate(90,24,408)"/><path d="M 104 392v 32h 32v -16a 16 16, 0, 0, 0, -16 -16" transform="rotate(-90,120,408)"/><rect x="136" y="392" width="32" height="32" transform="rotate(0,152,408)"/><rect x="168" y="392" width="32" height="32" transform="rotate(0,184,408)"/><rect x="200" y="392" width="32" height="32" transform="rotate(0,216,408)"/><rect x="232" y="392" width="32" height="32" transform="rotate(0,248,408)"/><rect x="264" y="392" width="32" height="32" transform="rotate(0,280,408)"/><rect x="296" y="392" width="32" height="32" transform="rotate(0,312,408)"/><path d="M 328 392v 32h 32v -16a 16 16, 0, 0, 0, -16 -16" transform="rotate(90,344,408)"/><rect x="392" y="392" width="32" height="32" transform="rotate(0,408,408)"/><rect x="424" y="392" width="32" height="32" transform="rotate(0,440,408)"/><path d="M 456 392v 32h 32v -16a 16 16, 0, 0, 0, -16 -16" transform="rotate(0,472,408)"/><rect x="520" y="392" width="32" height="32" transform="rotate(0,536,408)"/><path d="M 584 392v 32h 16a 16 16, 0, 0, 0, 0 -32" transform="rotate(180,600,408)"/><path d="M 616 392v 32h 16a 16 16, 0, 0, 0, 0 -32" transform="rotate(0,632,408)"/><path d="M 744 392v 32h 16a 16 16, 0, 0, 0, 0 -32" transform="rotate(-90,760,408)"/><path d="M 904 392v 32h 16a 16 16, 0, 0, 0, 0 -32" transform="rotate(-90,920,408)"/><path d="M 968 392v 32h 32v -16a 16 16, 0, 0, 0, -16 -16" transform="rotate(180,984,408)"/><path d="M 1000 392v 32h 32v -16a 16 16, 0, 0, 0, -16 -16" transform="rotate(0,1016,408)"/><path d="M 1128 392v 32h 16a 16 16, 0, 0, 0, 0 -32" transform="rotate(180,1144,408)"/><path d="M 1160 392v 32h 16a 16 16, 0, 0, 0, 0 -32" transform="rotate(0,1176,408)"/><rect x="104" y="424" width="32" height="32" transform="rotate(0,120,440)"/><rect x="136" y="424" width="32" height="32" transform="rotate(0,152,440)"/><rect x="232" y="424" width="32" height="32" transform="rotate(0,248,440)"/><rect x="264" y="424" width="32" height="32" transform="rotate(0,280,440)"/><path d="M 296 424v 32h 32v -16a 16 16, 0, 0, 0, -16 -16" transform="rotate(90,312,440)"/><rect x="392" y="424" width="32" height="32" transform="rotate(0,408,440)"/><rect x="424" y="424" width="32" height="32" transform="rotate(0,440,440)"/><rect x="456" y="424" width="32" height="32" transform="rotate(0,472,440)"/><rect x="488" y="424" width="32" height="32" transform="rotate(0,504,440)"/><path d="M 520 424v 32h 32v -16a 16 16, 0, 0, 0, -16 -16" transform="rotate(90,536,440)"/><circle cx="696" cy="440" r="16" transform="rotate(0,696,440)"/><path d="M 744 424v 32h 16a 16 16, 0, 0, 0, 0 -32" transform="rotate(90,760,440)"/><path d="M 840 424v 32h 32v -16a 16 16, 0, 0, 0, -16 -16" transform="rotate(-90,856,440)"/><rect x="872" y="424" width="32" height="32" transform="rotate(0,888,440)"/><rect x="904" y="424" width="32" height="32" transform="rotate(0,920,440)"/><path d="M 936 424v 32h 32v -16a 16 16, 0, 0, 0, -16 -16" transform="rotate(0,952,440)"/><rect x="1000" y="424" width="32" height="32" transform="rotate(0,1016,440)"/><path d="M 1032 424v 32h 16a 16 16, 0, 0, 0, 0 -32" transform="rotate(0,1048,440)"/><path d="M 1096 424v 32h 16a 16 16, 0, 0, 0, 0 -32" transform="rotate(-90,1112,440)"/><path d="M 8 456v 32h 16a 16 16, 0, 0, 0, 0 -32" transform="rotate(180,24,472)"/><rect x="40" y="456" width="32" height="32" transform="rotate(0,56,472)"/><rect x="72" y="456" width="32" height="32" transform="rotate(0,88,472)"/><rect x="104" y="456" width="32" height="32" transform="rotate(0,120,472)"/><rect x="136" y="456" width="32" height="32" transform="rotate(0,152,472)"/><rect x="168" y="456" width="32" height="32" transform="rotate(0,184,472)"/><rect x="200" y="456" width="32" height="32" transform="rotate(0,216,472)"/><path d="M 232 456v 32h 32v -16a 16 16, 0, 0, 0, -16 -16" transform="rotate(90,248,472)"/><path d="M 328 456v 32h 32v -16a 16 16, 0, 0, 0, -16 -16" transform="rotate(-90,344,472)"/><rect x="360" y="456" width="32" height="32" transform="rotate(0,376,472)"/><rect x="392" y="456" width="32" height="32" transform="rotate(0,408,472)"/><rect x="424" y="456" width="32" height="32" transform="rotate(0,440,472)"/><rect x="456" y="456" width="32" height="32" transform="rotate(0,472,472)"/><rect x="488" y="456" width="32" height="32" transform="rotate(0,504,472)"/><circle cx="600" cy="472" r="16" transform="rotate(0,600,472)"/><circle cx="664" cy="472" r="16" transform="rotate(0,664,472)"/><circle cx="792" cy="472" r="16" transform="rotate(0,792,472)"/><path d="M 840 456v 32h 32v -16a 16 16, 0, 0, 0, -16 -16" transform="rotate(180,856,472)"/><rect x="872" y="456" width="32" height="32" transform="rotate(0,888,472)"/><rect x="904" y="456" width="32" height="32" transform="rotate(0,920,472)"/><path d="M 936 456v 32h 32v -16a 16 16, 0, 0, 0, -16 -16" transform="rotate(90,952,472)"/><rect x="1000" y="456" width="32" height="32" transform="rotate(0,1016,472)"/><path d="M 1064 456v 32h 32v -16a 16 16, 0, 0, 0, -16 -16" transform="rotate(-90,1080,472)"/><rect x="1096" y="456" width="32" height="32" transform="rotate(0,1112,472)"/><rect x="1128" y="456" width="32" height="32" transform="rotate(0,1144,472)"/><path d="M 1160 456v 32h 32v -16a 16 16, 0, 0, 0, -16 -16" transform="rotate(0,1176,472)"/><rect x="72" y="488" width="32" height="32" transform="rotate(0,88,504)"/><path d="M 168 488v 32h 16a 16 16, 0, 0, 0, 0 -32" transform="rotate(90,184,504)"/><circle cx="280" cy="504" r="16" transform="rotate(0,280,504)"/><rect x="328" y="488" width="32" height="32" transform="rotate(0,344,504)"/><rect x="488" y="488" width="32" height="32" transform="rotate(0,504,504)"/><circle cx="568" cy="504" r="16" transform="rotate(0,568,504)"/><path d="M 616 488v 32h 16a 16 16, 0, 0, 0, 0 -32" transform="rotate(-90,632,504)"/><path d="M 680 488v 32h 32v -16a 16 16, 0, 0, 0, -16 -16" transform="rotate(-90,696,504)"/><path d="M 712 488v 32h 32v -16a 16 16, 0, 0, 0, -16 -16" transform="rotate(0,728,504)"/><path d="M 1000 488v 32h 32v -16a 16 16, 0, 0, 0, -16 -16" transform="rotate(180,1016,504)"/><rect x="1032" y="488" width="32" height="32" transform="rotate(0,1048,504)"/><rect x="1064" y="488" width="32" height="32" transform="rotate(0,1080,504)"/><rect x="1096" y="488" width="32" height="32" transform="rotate(0,1112,504)"/><rect x="1128" y="488" width="32" height="32" transform="rotate(0,1144,504)"/><rect x="1160" y="488" width="32" height="32" transform="rotate(0,1176,504)"/><rect x="72" y="520" width="32" height="32" transform="rotate(0,88,536)"/><circle cx="216" cy="536" r="16" transform="rotate(0,216,536)"/><path d="M 296 520v 32h 16a 16 16, 0, 0, 0, 0 -32" transform="rotate(180,312,536)"/><rect x="328" y="520" width="32" height="32" transform="rotate(0,344,536)"/><path d="M 360 520v 32h 16a 16 16, 0, 0, 0, 0 -32" transform="rotate(0,376,536)"/><rect x="488" y="520" width="32" height="32" transform="rotate(0,504,536)"/><path d="M 584 520v 32h 32v -16a 16 16, 0, 0, 0, -16 -16" transform="rotate(-90,600,536)"/><path d="M 616 520v 32h 32v -16a 16 16, 0, 0, 0, -16 -16" transform="rotate(90,632,536)"/><path d="M 680 520v 32h 32v -16a 16 16, 0, 0, 0, -16 -16" transform="rotate(180,696,536)"/><rect x="712" y="520" width="32" height="32" transform="rotate(0,728,536)"/><path d="M 776 520v 32h 16a 16 16, 0, 0, 0, 0 -32" transform="rotate(180,792,536)"/><path d="M 808 520v 32h 16a 16 16, 0, 0, 0, 0 -32" transform="rotate(0,824,536)"/><circle cx="984" cy="536" r="16" transform="rotate(0,984,536)"/><rect x="1096" y="520" width="32" height="32" transform="rotate(0,1112,536)"/><path d="M 1160 520v 32h 16a 16 16, 0, 0, 0, 0 -32" transform="rotate(90,1176,536)"/><path d="M 72 552v 32h 32v -16a 16 16, 0, 0, 0, -16 -16" transform="rotate(180,88,568)"/><rect x="104" y="552" width="32" height="32" transform="rotate(0,120,568)"/><path d="M 136 552v 32h 32v -16a 16 16, 0, 0, 0, -16 -16" transform="rotate(0,152,568)"/><path d="M 424 552v 32h 16a 16 16, 0, 0, 0, 0 -32" transform="rotate(-90,440,568)"/><rect x="488" y="552" width="32" height="32" transform="rotate(0,504,568)"/><path d="M 520 552v 32h 16a 16 16, 0, 0, 0, 0 -32" transform="rotate(0,536,568)"/><path d="M 584 552v 32h 16a 16 16, 0, 0, 0, 0 -32" transform="rotate(90,600,568)"/><path d="M 712 552v 32h 32v -16a 16 16, 0, 0, 0, -16 -16" transform="rotate(180,728,568)"/><path d="M 744 552v 32h 16a 16 16, 0, 0, 0, 0 -32" transform="rotate(0,760,568)"/><path d="M 872 552v 32h 16a 16 16, 0, 0, 0, 0 -32" transform="rotate(-90,888,568)"/><circle cx="952" cy="568" r="16" transform="rotate(0,952,568)"/><path d="M 1064 552v 32h 32v -16a 16 16, 0, 0, 0, -16 -16" transform="rotate(-90,1080,568)"/><rect x="1096" y="552" width="32" height="32" transform="rotate(0,1112,568)"/><path d="M 1128 552v 32h 16a 16 16, 0, 0, 0, 0 -32" transform="rotate(0,1144,568)"/><circle cx="56" cy="600" r="16" transform="rotate(0,56,600)"/><path d="M 136 584v 32h 16a 16 16, 0, 0, 0, 0 -32" transform="rotate(90,152,600)"/><circle cx="216" cy="600" r="16" transform="rotate(0,216,600)"/><path d="M 264 584v 32h 16a 16 16, 0, 0, 0, 0 -32" transform="rotate(180,280,600)"/><path d="M 296 584v 32h 32v -16a 16 16, 0, 0, 0, -16 -16" transform="rotate(0,312,600)"/><path d="M 392 584v 32h 32v -16a 16 16, 0, 0, 0, -16 -16" transform="rotate(-90,408,600)"/><rect x="424" y="584" width="32" height="32" transform="rotate(0,440,600)"/><rect x="456" y="584" width="32" height="32" transform="rotate(0,472,600)"/><path d="M 488 584v 32h 32v -16a 16 16, 0, 0, 0, -16 -16" transform="rotate(90,504,600)"/><path d="M 552 584v 32h 16a 16 16, 0, 0, 0, 0 -32" transform="rotate(-90,568,600)"/><circle cx="696" cy="600" r="16" transform="rotate(0,696,600)"/><path d="M 776 584v 32h 16a 16 16, 0, 0, 0, 0 -32" transform="rotate(180,792,600)"/><path d="M 808 584v 32h 32v -16a 16 16, 0, 0, 0, -16 -16" transform="rotate(0,824,600)"/><rect x="872" y="584" width="32" height="32" transform="rotate(0,888,600)"/><path d="M 1032 584v 32h 16a 16 16, 0, 0, 0, 0 -32" transform="rotate(180,1048,600)"/><rect x="1064" y="584" width="32" height="32" transform="rotate(0,1080,600)"/><circle cx="1176" cy="600" r="16" transform="rotate(0,1176,600)"/><path d="M 104 616v 32h 16a 16 16, 0, 0, 0, 0 -32" transform="rotate(-90,120,632)"/><path d="M 168 616v 32h 16a 16 16, 0, 0, 0, 0 -32" transform="rotate(-90,184,632)"/><circle cx="248" cy="632" r="16" transform="rotate(0,248,632)"/><path d="M 296 616v 32h 16a 16 16, 0, 0, 0, 0 -32" transform="rotate(90,312,632)"/><path d="M 360 616v 32h 16a 16 16, 0, 0, 0, 0 -32" transform="rotate(180,376,632)"/><rect x="392" y="616" width="32" height="32" transform="rotate(0,408,632)"/><path d="M 456 616v 32h 16a 16 16, 0, 0, 0, 0 -32" transform="rotate(90,472,632)"/><path d="M 520 616v 32h 16a 16 16, 0, 0, 0, 0 -32" transform="rotate(180,536,632)"/><rect x="552" y="616" width="32" height="32" transform="rotate(0,568,632)"/><circle cx="632" cy="632" r="16" transform="rotate(0,632,632)"/><path d="M 712 616v 32h 16a 16 16, 0, 0, 0, 0 -32" transform="rotate(180,728,632)"/><path d="M 744 616v 32h 32v -16a 16 16, 0, 0, 0, -16 -16" transform="rotate(0,760,632)"/><path d="M 808 616v 32h 16a 16 16, 0, 0, 0, 0 -32" transform="rotate(90,824,632)"/><path d="M 872 616v 32h 32v -16a 16 16, 0, 0, 0, -16 -16" transform="rotate(180,888,632)"/><rect x="904" y="616" width="32" height="32" transform="rotate(0,920,632)"/><rect x="936" y="616" width="32" height="32" transform="rotate(0,952,632)"/><rect x="968" y="616" width="32" height="32" transform="rotate(0,984,632)"/><path d="M 1000 616v 32h 16a 16 16, 0, 0, 0, 0 -32" transform="rotate(0,1016,632)"/><rect x="1064" y="616" width="32" height="32" transform="rotate(0,1080,632)"/><path d="M 1128 616v 32h 16a 16 16, 0, 0, 0, 0 -32" transform="rotate(-90,1144,632)"/><path d="M 8 648v 32h 16a 16 16, 0, 0, 0, 0 -32" transform="rotate(-90,24,664)"/><rect x="104" y="648" width="32" height="32" transform="rotate(0,120,664)"/><rect x="136" y="648" width="32" height="32" transform="rotate(0,152,664)"/><rect x="168" y="648" width="32" height="32" transform="rotate(0,184,664)"/><path d="M 200 648v 32h 16a 16 16, 0, 0, 0, 0 -32" transform="rotate(0,216,664)"/><rect x="392" y="648" width="32" height="32" transform="rotate(0,408,664)"/><path d="M 424 648v 32h 32v -16a 16 16, 0, 0, 0, -16 -16" transform="rotate(0,440,664)"/><circle cx="504" cy="664" r="16" transform="rotate(0,504,664)"/><rect x="552" y="648" width="32" height="32" transform="rotate(0,568,664)"/><rect x="744" y="648" width="32" height="32" transform="rotate(0,760,664)"/><path d="M 776 648v 32h 16a 16 16, 0, 0, 0, 0 -32" transform="rotate(0,792,664)"/><path d="M 840 648v 32h 16a 16 16, 0, 0, 0, 0 -32" transform="rotate(-90,856,664)"/><rect x="904" y="648" width="32" height="32" transform="rotate(0,920,664)"/><rect x="936" y="648" width="32" height="32" transform="rotate(0,952,664)"/><path d="M 968 648v 32h 32v -16a 16 16, 0, 0, 0, -16 -16" transform="rotate(90,984,664)"/><path d="M 1032 648v 32h 32v -16a 16 16, 0, 0, 0, -16 -16" transform="rotate(-90,1048,664)"/><path d="M 1064 648v 32h 32v -16a 16 16, 0, 0, 0, -16 -16" transform="rotate(90,1080,664)"/><path d="M 1128 648v 32h 16a 16 16, 0, 0, 0, 0 -32" transform="rotate(90,1144,664)"/><path d="M 8 680v 32h 32v -16a 16 16, 0, 0, 0, -16 -16" transform="rotate(180,24,696)"/><path d="M 40 680v 32h 32v -16a 16 16, 0, 0, 0, -16 -16" transform="rotate(0,56,696)"/><rect x="104" y="680" width="32" height="32" transform="rotate(0,120,696)"/><rect x="168" y="680" width="32" height="32" transform="rotate(0,184,696)"/><path d="M 232 680v 32h 32v -16a 16 16, 0, 0, 0, -16 -16" transform="rotate(-90,248,696)"/><path d="M 264 680v 32h 32v -16a 16 16, 0, 0, 0, -16 -16" transform="rotate(0,280,696)"/><path d="M 392 680v 32h 32v -16a 16 16, 0, 0, 0, -16 -16" transform="rotate(180,408,696)"/><rect x="424" y="680" width="32" height="32" transform="rotate(0,440,696)"/><path d="M 456 680v 32h 16a 16 16, 0, 0, 0, 0 -32" transform="rotate(0,472,696)"/><path d="M 520 680v 32h 32v -16a 16 16, 0, 0, 0, -16 -16" transform="rotate(-90,536,696)"/><rect x="552" y="680" width="32" height="32" transform="rotate(0,568,696)"/><rect x="584" y="680" width="32" height="32" transform="rotate(0,600,696)"/><rect x="616" y="680" width="32" height="32" transform="rotate(0,632,696)"/><path d="M 648 680v 32h 16a 16 16, 0, 0, 0, 0 -32" transform="rotate(0,664,696)"/><rect x="744" y="680" width="32" height="32" transform="rotate(0,760,696)"/><path d="M 808 680v 32h 32v -16a 16 16, 0, 0, 0, -16 -16" transform="rotate(-90,824,696)"/><rect x="840" y="680" width="32" height="32" transform="rotate(0,856,696)"/><rect x="872" y="680" width="32" height="32" transform="rotate(0,888,696)"/><path d="M 904 680v 32h 32v -16a 16 16, 0, 0, 0, -16 -16" transform="rotate(90,920,696)"/><path d="M 1000 680v 32h 16a 16 16, 0, 0, 0, 0 -32" transform="rotate(180,1016,696)"/><rect x="1032" y="680" width="32" height="32" transform="rotate(0,1048,696)"/><circle cx="1112" cy="696" r="16" transform="rotate(0,1112,696)"/><rect x="40" y="712" width="32" height="32" transform="rotate(0,56,728)"/><rect x="104" y="712" width="32" height="32" transform="rotate(0,120,728)"/><rect x="136" y="712" width="32" height="32" transform="rotate(0,152,728)"/><rect x="168" y="712" width="32" height="32" transform="rotate(0,184,728)"/><rect x="200" y="712" width="32" height="32" transform="rotate(0,216,728)"/><rect x="232" y="712" width="32" height="32" transform="rotate(0,248,728)"/><rect x="264" y="712" width="32" height="32" transform="rotate(0,280,728)"/><path d="M 296 712v 32h 32v -16a 16 16, 0, 0, 0, -16 -16" transform="rotate(0,312,728)"/><rect x="424" y="712" width="32" height="32" transform="rotate(0,440,728)"/><rect x="520" y="712" width="32" height="32" transform="rotate(0,536,728)"/><rect x="552" y="712" width="32" height="32" transform="rotate(0,568,728)"/><rect x="744" y="712" width="32" height="32" transform="rotate(0,760,728)"/><rect x="808" y="712" width="32" height="32" transform="rotate(0,824,728)"/><rect x="872" y="712" width="32" height="32" transform="rotate(0,888,728)"/><path d="M 1032 712v 32h 16a 16 16, 0, 0, 0, 0 -32" transform="rotate(90,1048,728)"/><path d="M 1160 712v 32h 16a 16 16, 0, 0, 0, 0 -32" transform="rotate(-90,1176,728)"/><path d="M 8 744v 32h 32v -16a 16 16, 0, 0, 0, -16 -16" transform="rotate(-90,24,760)"/><rect x="40" y="744" width="32" height="32" transform="rotate(0,56,760)"/><rect x="72" y="744" width="32" height="32" transform="rotate(0,88,760)"/><rect x="104" y="744" width="32" height="32" transform="rotate(0,120,760)"/><rect x="232" y="744" width="32" height="32" transform="rotate(0,248,760)"/><rect x="296" y="744" width="32" height="32" transform="rotate(0,312,760)"/><rect x="424" y="744" width="32" height="32" transform="rotate(0,440,760)"/><path d="M 488 744v 32h 16a 16 16, 0, 0, 0, 0 -32" transform="rotate(180,504,760)"/><rect x="520" y="744" width="32" height="32" transform="rotate(0,536,760)"/><path d="M 552 744v 32h 32v -16a 16 16, 0, 0, 0, -16 -16" transform="rotate(90,568,760)"/><circle cx="632" cy="760" r="16" transform="rotate(0,632,760)"/><path d="M 712 744v 32h 16a 16 16, 0, 0, 0, 0 -32" transform="rotate(180,728,760)"/><path d="M 744 744v 32h 32v -16a 16 16, 0, 0, 0, -16 -16" transform="rotate(90,760,760)"/><rect x="808" y="744" width="32" height="32" transform="rotate(0,824,760)"/><path d="M 872 744v 32h 32v -16a 16 16, 0, 0, 0, -16 -16" transform="rotate(180,888,760)"/><rect x="904" y="744" width="32" height="32" transform="rotate(0,920,760)"/><path d="M 936 744v 32h 16a 16 16, 0, 0, 0, 0 -32" transform="rotate(0,952,760)"/><path d="M 1000 744v 32h 16a 16 16, 0, 0, 0, 0 -32" transform="rotate(-90,1016,760)"/><path d="M 1064 744v 32h 16a 16 16, 0, 0, 0, 0 -32" transform="rotate(180,1080,760)"/><path d="M 1096 744v 32h 16a 16 16, 0, 0, 0, 0 -32" transform="rotate(0,1112,760)"/><rect x="1160" y="744" width="32" height="32" transform="rotate(0,1176,760)"/><rect x="8" y="776" width="32" height="32" transform="rotate(0,24,792)"/><path d="M 72 776v 32h 32v -16a 16 16, 0, 0, 0, -16 -16" transform="rotate(180,88,792)"/><rect x="104" y="776" width="32" height="32" transform="rotate(0,120,792)"/><path d="M 136 776v 32h 16a 16 16, 0, 0, 0, 0 -32" transform="rotate(0,152,792)"/><path d="M 200 776v 32h 16a 16 16, 0, 0, 0, 0 -32" transform="rotate(180,216,792)"/><rect x="232" y="776" width="32" height="32" transform="rotate(0,248,792)"/><rect x="264" y="776" width="32" height="32" transform="rotate(0,280,792)"/><rect x="296" y="776" width="32" height="32" transform="rotate(0,312,792)"/><path d="M 328 776v 32h 16a 16 16, 0, 0, 0, 0 -32" transform="rotate(0,344,792)"/><rect x="424" y="776" width="32" height="32" transform="rotate(0,440,792)"/><path d="M 456 776v 32h 16a 16 16, 0, 0, 0, 0 -32" transform="rotate(0,472,792)"/><path d="M 520 776v 32h 16a 16 16, 0, 0, 0, 0 -32" transform="rotate(90,536,792)"/><path d="M 584 776v 32h 16a 16 16, 0, 0, 0, 0 -32" transform="rotate(-90,600,792)"/><path d="M 648 776v 32h 16a 16 16, 0, 0, 0, 0 -32" transform="rotate(-90,664,792)"/><rect x="808" y="776" width="32" height="32" transform="rotate(0,824,792)"/><path d="M 1000 776v 32h 32v -16a 16 16, 0, 0, 0, -16 -16" transform="rotate(180,1016,792)"/><path d="M 1032 776v 32h 16a 16 16, 0, 0, 0, 0 -32" transform="rotate(0,1048,792)"/><path d="M 1160 776v 32h 16a 16 16, 0, 0, 0, 0 -32" transform="rotate(90,1176,792)"/><rect x="8" y="808" width="32" height="32" transform="rotate(0,24,824)"/><path d="M 104 808v 32h 16a 16 16, 0, 0, 0, 0 -32" transform="rotate(90,120,824)"/><rect x="232" y="808" width="32" height="32" transform="rotate(0,248,824)"/><path d="M 264 808v 32h 32v -16a 16 16, 0, 0, 0, -16 -16" transform="rotate(90,280,824)"/><path d="M 360 808v 32h 16a 16 16, 0, 0, 0, 0 -32" transform="rotate(-90,376,824)"/><rect x="424" y="808" width="32" height="32" transform="rotate(0,440,824)"/><path d="M 552 808v 32h 32v -16a 16 16, 0, 0, 0, -16 -16" transform="rotate(-90,568,824)"/><rect x="584" y="808" width="32" height="32" transform="rotate(0,600,824)"/><path d="M 648 808v 32h 32v -16a 16 16, 0, 0, 0, -16 -16" transform="rotate(180,664,824)"/><rect x="680" y="808" width="32" height="32" transform="rotate(0,696,824)"/><rect x="712" y="808" width="32" height="32" transform="rotate(0,728,824)"/><path d="M 744 808v 32h 16a 16 16, 0, 0, 0, 0 -32" transform="rotate(0,760,824)"/><path d="M 808 808v 32h 32v -16a 16 16, 0, 0, 0, -16 -16" transform="rotate(180,824,824)"/><path d="M 840 808v 32h 16a 16 16, 0, 0, 0, 0 -32" transform="rotate(0,856,824)"/><path d="M 968 808v 32h 16a 16 16, 0, 0, 0, 0 -32" transform="rotate(-90,984,824)"/><rect x="8" y="840" width="32" height="32" transform="rotate(0,24,856)"/><rect x="40" y="840" width="32" height="32" transform="rotate(0,56,856)"/><path d="M 72 840v 32h 16a 16 16, 0, 0, 0, 0 -32" transform="rotate(0,88,856)"/><path d="M 168 840v 32h 16a 16 16, 0, 0, 0, 0 -32" transform="rotate(180,184,856)"/><rect x="200" y="840" width="32" height="32" transform="rotate(0,216,856)"/><rect x="232" y="840" width="32" height="32" transform="rotate(0,248,856)"/><path d="M 360 840v 32h 16a 16 16, 0, 0, 0, 0 -32" transform="rotate(90,376,856)"/><rect x="424" y="840" width="32" height="32" transform="rotate(0,440,856)"/><path d="M 456 840v 32h 16a 16 16, 0, 0, 0, 0 -32" transform="rotate(0,472,856)"/><path d="M 520 840v 32h 16a 16 16, 0, 0, 0, 0 -32" transform="rotate(180,536,856)"/><rect x="552" y="840" width="32" height="32" transform="rotate(0,568,856)"/><rect x="584" y="840" width="32" height="32" transform="rotate(0,600,856)"/><path d="M 680 840v 32h 32v -16a 16 16, 0, 0, 0, -16 -16" transform="rotate(180,696,856)"/><path d="M 712 840v 32h 32v -16a 16 16, 0, 0, 0, -16 -16" transform="rotate(90,728,856)"/><circle cx="792" cy="856" r="16" transform="rotate(0,792,856)"/><circle cx="888" cy="856" r="16" transform="rotate(0,888,856)"/><path d="M 968 840v 32h 32v -16a 16 16, 0, 0, 0, -16 -16" transform="rotate(180,984,856)"/><rect x="1000" y="840" width="32" height="32" transform="rotate(0,1016,856)"/><path d="M 1032 840v 32h 16a 16 16, 0, 0, 0, 0 -32" transform="rotate(0,1048,856)"/><path d="M 1128 840v 32h 16a 16 16, 0, 0, 0, 0 -32" transform="rotate(180,1144,856)"/><path d="M 1160 840v 32h 32v -16a 16 16, 0, 0, 0, -16 -16" transform="rotate(0,1176,856)"/><rect x="8" y="872" width="32" height="32" transform="rotate(0,24,888)"/><circle cx="152" cy="888" r="16" transform="rotate(0,152,888)"/><rect x="232" y="872" width="32" height="32" transform="rotate(0,248,888)"/><path d="M 296 872v 32h 16a 16 16, 0, 0, 0, 0 -32" transform="rotate(-90,312,888)"/><path d="M 392 872v 32h 32v -16a 16 16, 0, 0, 0, -16 -16" transform="rotate(-90,408,888)"/><path d="M 424 872v 32h 32v -16a 16 16, 0, 0, 0, -16 -16" transform="rotate(90,440,888)"/><path d="M 488 872v 32h 16a 16 16, 0, 0, 0, 0 -32" transform="rotate(-90,504,888)"/><path d="M 584 872v 32h 32v -16a 16 16, 0, 0, 0, -16 -16" transform="rotate(180,600,888)"/><rect x="616" y="872" width="32" height="32" transform="rotate(0,632,888)"/><path d="M 648 872v 32h 16a 16 16, 0, 0, 0, 0 -32" transform="rotate(0,664,888)"/><circle cx="760" cy="888" r="16" transform="rotate(0,760,888)"/><path d="M 904 872v 32h 32v -16a 16 16, 0, 0, 0, -16 -16" transform="rotate(-90,920,888)"/><path d="M 936 872v 32h 32v -16a 16 16, 0, 0, 0, -16 -16" transform="rotate(0,952,888)"/><rect x="1000" y="872" width="32" height="32" transform="rotate(0,1016,888)"/><circle cx="1112" cy="888" r="16" transform="rotate(0,1112,888)"/><rect x="1160" y="872" width="32" height="32" transform="rotate(0,1176,888)"/><path d="M 8 904v 32h 16a 16 16, 0, 0, 0, 0 -32" transform="rotate(90,24,920)"/><circle cx="120" cy="920" r="16" transform="rotate(0,120,920)"/><path d="M 200 904v 32h 16a 16 16, 0, 0, 0, 0 -32" transform="rotate(180,216,920)"/><rect x="232" y="904" width="32" height="32" transform="rotate(0,248,920)"/><rect x="264" y="904" width="32" height="32" transform="rotate(0,280,920)"/><rect x="296" y="904" width="32" height="32" transform="rotate(0,312,920)"/><path d="M 392 904v 32h 16a 16 16, 0, 0, 0, 0 -32" transform="rotate(90,408,920)"/><path d="M 456 904v 32h 32v -16a 16 16, 0, 0, 0, -16 -16" transform="rotate(-90,472,920)"/><path d="M 488 904v 32h 32v -16a 16 16, 0, 0, 0, -16 -16" transform="rotate(90,504,920)"/><circle cx="568" cy="920" r="16" transform="rotate(0,568,920)"/><circle cx="728" cy="920" r="16" transform="rotate(0,728,920)"/><path d="M 776 904v 32h 16a 16 16, 0, 0, 0, 0 -32" transform="rotate(180,792,920)"/><path d="M 808 904v 32h 32v -16a 16 16, 0, 0, 0, -16 -16" transform="rotate(0,824,920)"/><path d="M 872 904v 32h 16a 16 16, 0, 0, 0, 0 -32" transform="rotate(180,888,920)"/><rect x="904" y="904" width="32" height="32" transform="rotate(0,920,920)"/><rect x="936" y="904" width="32" height="32" transform="rotate(0,952,920)"/><rect x="968" y="904" width="32" height="32" transform="rotate(0,984,920)"/><rect x="1000" y="904" width="32" height="32" transform="rotate(0,1016,920)"/><rect x="1032" y="904" width="32" height="32" transform="rotate(0,1048,920)"/><path d="M 1064 904v 32h 32v -16a 16 16, 0, 0, 0, -16 -16" transform="rotate(0,1080,920)"/><path d="M 1160 904v 32h 16a 16 16, 0, 0, 0, 0 -32" transform="rotate(90,1176,920)"/><path d="M 264 936v 32h 32v -16a 16 16, 0, 0, 0, -16 -16" transform="rotate(180,280,952)"/><rect x="296" y="936" width="32" height="32" transform="rotate(0,312,952)"/><path d="M 360 936v 32h 16a 16 16, 0, 0, 0, 0 -32" transform="rotate(-90,376,952)"/><path d="M 456 936v 32h 16a 16 16, 0, 0, 0, 0 -32" transform="rotate(90,472,952)"/><circle cx="600" cy="952" r="16" transform="rotate(0,600,952)"/><rect x="808" y="936" width="32" height="32" transform="rotate(0,824,952)"/><path d="M 840 936v 32h 32v -16a 16 16, 0, 0, 0, -16 -16" transform="rotate(0,856,952)"/><rect x="904" y="936" width="32" height="32" transform="rotate(0,920,952)"/><rect x="1032" y="936" width="32" height="32" transform="rotate(0,1048,952)"/><rect x="1064" y="936" width="32" height="32" transform="rotate(0,1080,952)"/><rect x="1096" y="936" width="32" height="32" transform="rotate(0,1112,952)"/><path d="M 1128 936v 32h 16a 16 16, 0, 0, 0, 0 -32" transform="rotate(0,1144,952)"/><rect x="296" y="968" width="32" height="32" transform="rotate(0,312,984)"/><rect x="328" y="968" width="32" height="32" transform="rotate(0,344,984)"/><rect x="360" y="968" width="32" height="32" transform="rotate(0,376,984)"/><rect x="392" y="968" width="32" height="32" transform="rotate(0,408,984)"/><path d="M 424 968v 32h 16a 16 16, 0, 0, 0, 0 -32" transform="rotate(0,440,984)"/><path d="M 488 968v 32h 32v -16a 16 16, 0, 0, 0, -16 -16" transform="rotate(-90,504,984)"/><rect x="520" y="968" width="32" height="32" transform="rotate(0,536,984)"/><path d="M 552 968v 32h 16a 16 16, 0, 0, 0, 0 -32" transform="rotate(0,568,984)"/><path d="M 648 968v 32h 16a 16 16, 0, 0, 0, 0 -32" transform="rotate(180,664,984)"/><rect x="680" y="968" width="32" height="32" transform="rotate(0,696,984)"/><rect x="712" y="968" width="32" height="32" transform="rotate(0,728,984)"/><path d="M 744 968v 32h 16a 16 16, 0, 0, 0, 0 -32" transform="rotate(0,760,984)"/><rect x="808" y="968" width="32" height="32" transform="rotate(0,824,984)"/><path d="M 840 968v 32h 32v -16a 16 16, 0, 0, 0, -16 -16" transform="rotate(90,856,984)"/><rect x="904" y="968" width="32" height="32" transform="rotate(0,920,984)"/><circle cx="984" cy="984" r="16" transform="rotate(0,984,984)"/><rect x="1032" y="968" width="32" height="32" transform="rotate(0,1048,984)"/><rect x="1064" y="968" width="32" height="32" transform="rotate(0,1080,984)"/><path d="M 1096 968v 32h 32v -16a 16 16, 0, 0, 0, -16 -16" transform="rotate(90,1112,984)"/><circle cx="1176" cy="984" r="16" transform="rotate(0,1176,984)"/><path d="M 264 1000v 32h 32v -16a 16 16, 0, 0, 0, -16 -16" transform="rotate(-90,280,1016)"/><rect x="296" y="1000" width="32" height="32" transform="rotate(0,312,1016)"/><path d="M 328 1000v 32h 32v -16a 16 16, 0, 0, 0, -16 -16" transform="rotate(90,344,1016)"/><path d="M 488 1000v 32h 32v -16a 16 16, 0, 0, 0, -16 -16" transform="rotate(180,504,1016)"/><rect x="520" y="1000" width="32" height="32" transform="rotate(0,536,1016)"/><circle cx="632" cy="1016" r="16" transform="rotate(0,632,1016)"/><rect x="712" y="1000" width="32" height="32" transform="rotate(0,728,1016)"/><path d="M 808 1000v 32h 16a 16 16, 0, 0, 0, 0 -32" transform="rotate(90,824,1016)"/><path d="M 872 1000v 32h 32v -16a 16 16, 0, 0, 0, -16 -16" transform="rotate(-90,888,1016)"/><rect x="904" y="1000" width="32" height="32" transform="rotate(0,920,1016)"/><rect x="1032" y="1000" width="32" height="32" transform="rotate(0,1048,1016)"/><path d="M 1064 1000v 32h 32v -16a 16 16, 0, 0, 0, -16 -16" transform="rotate(90,1080,1016)"/><rect x="264" y="1032" width="32" height="32" transform="rotate(0,280,1048)"/><rect x="296" y="1032" width="32" height="32" transform="rotate(0,312,1048)"/><path d="M 424 1032v 32h 16a 16 16, 0, 0, 0, 0 -32" transform="rotate(-90,440,1048)"/><rect x="520" y="1032" width="32" height="32" transform="rotate(0,536,1048)"/><path d="M 552 1032v 32h 16a 16 16, 0, 0, 0, 0 -32" transform="rotate(0,568,1048)"/><path d="M 680 1032v 32h 16a 16 16, 0, 0, 0, 0 -32" transform="rotate(180,696,1048)"/><path d="M 712 1032v 32h 32v -16a 16 16, 0, 0, 0, -16 -16" transform="rotate(90,728,1048)"/><path d="M 840 1032v 32h 32v -16a 16 16, 0, 0, 0, -16 -16" transform="rotate(-90,856,1048)"/><rect x="872" y="1032" width="32" height="32" transform="rotate(0,888,1048)"/><rect x="904" y="1032" width="32" height="32" transform="rotate(0,920,1048)"/><rect x="936" y="1032" width="32" height="32" transform="rotate(0,952,1048)"/><rect x="968" y="1032" width="32" height="32" transform="rotate(0,984,1048)"/><rect x="1000" y="1032" width="32" height="32" transform="rotate(0,1016,1048)"/><path d="M 1032 1032v 32h 32v -16a 16 16, 0, 0, 0, -16 -16" transform="rotate(90,1048,1048)"/><circle cx="1176" cy="1048" r="16" transform="rotate(0,1176,1048)"/><path d="M 264 1064v 32h 32v -16a 16 16, 0, 0, 0, -16 -16" transform="rotate(180,280,1080)"/><rect x="296" y="1064" width="32" height="32" transform="rotate(0,312,1080)"/><rect x="328" y="1064" width="32" height="32" transform="rotate(0,344,1080)"/><path d="M 360 1064v 32h 32v -16a 16 16, 0, 0, 0, -16 -16" transform="rotate(0,376,1080)"/><path d="M 424 1064v 32h 32v -16a 16 16, 0, 0, 0, -16 -16" transform="rotate(180,440,1080)"/><rect x="456" y="1064" width="32" height="32" transform="rotate(0,472,1080)"/><rect x="488" y="1064" width="32" height="32" transform="rotate(0,504,1080)"/><path d="M 520 1064v 32h 32v -16a 16 16, 0, 0, 0, -16 -16" transform="rotate(90,536,1080)"/><path d="M 776 1064v 32h 16a 16 16, 0, 0, 0, 0 -32" transform="rotate(180,792,1080)"/><rect x="808" y="1064" width="32" height="32" transform="rotate(0,824,1080)"/><rect x="840" y="1064" width="32" height="32" transform="rotate(0,856,1080)"/><rect x="872" y="1064" width="32" height="32" transform="rotate(0,888,1080)"/><path d="M 904 1064v 32h 32v -16a 16 16, 0, 0, 0, -16 -16" transform="rotate(90,920,1080)"/><path d="M 968 1064v 32h 16a 16 16, 0, 0, 0, 0 -32" transform="rotate(90,984,1080)"/><path d="M 1064 1064v 32h 16a 16 16, 0, 0, 0, 0 -32" transform="rotate(-90,1080,1080)"/><path d="M 360 1096v 32h 16a 16 16, 0, 0, 0, 0 -32" transform="rotate(90,376,1112)"/><path d="M 456 1096v 32h 16a 16 16, 0, 0, 0, 0 -32" transform="rotate(90,472,1112)"/><path d="M 584 1096v 32h 16a 16 16, 0, 0, 0, 0 -32" transform="rotate(180,600,1112)"/><rect x="616" y="1096" width="32" height="32" transform="rotate(0,632,1112)"/><rect x="648" y="1096" width="32" height="32" transform="rotate(0,664,1112)"/><path d="M 680 1096v 32h 16a 16 16, 0, 0, 0, 0 -32" transform="rotate(0,696,1112)"/><path d="M 744 1096v 32h 16a 16 16, 0, 0, 0, 0 -32" transform="rotate(-90,760,1112)"/><path d="M 808 1096v 32h 16a 16 16, 0, 0, 0, 0 -32" transform="rotate(90,824,1112)"/><path d="M 872 1096v 32h 16a 16 16, 0, 0, 0, 0 -32" transform="rotate(90,888,1112)"/><path d="M 1000 1096v 32h 16a 16 16, 0, 0, 0, 0 -32" transform="rotate(180,1016,1112)"/><rect x="1032" y="1096" width="32" height="32" transform="rotate(0,1048,1112)"/><rect x="1064" y="1096" width="32" height="32" transform="rotate(0,1080,1112)"/><path d="M 1128 1096v 32h 32v -16a 16 16, 0, 0, 0, -16 -16" transform="rotate(-90,1144,1112)"/><path d="M 1160 1096v 32h 32v -16a 16 16, 0, 0, 0, -16 -16" transform="rotate(0,1176,1112)"/><path d="M 264 1128v 32h 16a 16 16, 0, 0, 0, 0 -32" transform="rotate(180,280,1144)"/><path d="M 296 1128v 32h 16a 16 16, 0, 0, 0, 0 -32" transform="rotate(0,312,1144)"/><path d="M 392 1128v 32h 32v -16a 16 16, 0, 0, 0, -16 -16" transform="rotate(-90,408,1144)"/><path d="M 424 1128v 32h 32v -16a 16 16, 0, 0, 0, -16 -16" transform="rotate(0,440,1144)"/><circle cx="504" cy="1144" r="16" transform="rotate(0,504,1144)"/><path d="M 616 1128v 32h 32v -16a 16 16, 0, 0, 0, -16 -16" transform="rotate(180,632,1144)"/><rect x="648" y="1128" width="32" height="32" transform="rotate(0,664,1144)"/><path d="M 712 1128v 32h 16a 16 16, 0, 0, 0, 0 -32" transform="rotate(180,728,1144)"/><rect x="744" y="1128" width="32" height="32" transform="rotate(0,760,1144)"/><path d="M 776 1128v 32h 32v -16a 16 16, 0, 0, 0, -16 -16" transform="rotate(0,792,1144)"/><path d="M 936 1128v 32h 16a 16 16, 0, 0, 0, 0 -32" transform="rotate(180,952,1144)"/><path d="M 968 1128v 32h 16a 16 16, 0, 0, 0, 0 -32" transform="rotate(0,984,1144)"/><rect x="1032" y="1128" width="32" height="32" transform="rotate(0,1048,1144)"/><rect x="1064" y="1128" width="32" height="32" transform="rotate(0,1080,1144)"/><rect x="1096" y="1128" width="32" height="32" transform="rotate(0,1112,1144)"/><rect x="1128" y="1128" width="32" height="32" transform="rotate(0,1144,1144)"/><rect x="1160" y="1128" width="32" height="32" transform="rotate(0,1176,1144)"/><circle cx="344" cy="1176" r="16" transform="rotate(0,344,1176)"/><path d="M 392 1160v 32h 32v -16a 16 16, 0, 0, 0, -16 -16" transform="rotate(180,408,1176)"/><path d="M 424 1160v 32h 32v -16a 16 16, 0, 0, 0, -16 -16" transform="rotate(90,440,1176)"/><circle cx="568" cy="1176" r="16" transform="rotate(0,568,1176)"/><path d="M 648 1160v 32h 16a 16 16, 0, 0, 0, 0 -32" transform="rotate(90,664,1176)"/><path d="M 744 1160v 32h 32v -16a 16 16, 0, 0, 0, -16 -16" transform="rotate(180,760,1176)"/><path d="M 776 1160v 32h 32v -16a 16 16, 0, 0, 0, -16 -16" transform="rotate(90,792,1176)"/><circle cx="856" cy="1176" r="16" transform="rotate(0,856,1176)"/><circle cx="920" cy="1176" r="16" transform="rotate(0,920,1176)"/><path d="M 1000 1160v 32h 16a 16 16, 0, 0, 0, 0 -32" transform="rotate(180,1016,1176)"/><path d="M 1032 1160v 32h 32v -16a 16 16, 0, 0, 0, -16 -16" transform="rotate(90,1048,1176)"/><path d="M 1160 1160v 32h 16a 16 16, 0, 0, 0, 0 -32" transform="rotate(90,1176,1176)"/></clipPath><clipPath id="clip-path-corners-square-color-0-0-27"><path clip-rule="evenodd" d="M 8 88v 64a 80 80, 0, 0, 0, 80 80h 64a 80 80, 0, 0, 0, 80 -80v -64a 80 80, 0, 0, 0, -80 -80h -64a 80 80, 0, 0, 0, -80 80M 88 40h 64a 48 48, 0, 0, 1, 48 48v 64a 48 48, 0, 0, 1, -48 48h -64a 48 48, 0, 0, 1, -48 -48v -64a 48 48, 0, 0, 1, 48 -48" transform="rotate(0,120,120)"/></clipPath><clipPath id="clip-path-corners-dot-color-0-0-27"><circle cx="120" cy="120" r="48" transform="rotate(0,120,120)"/></clipPath><clipPath id="clip-path-corners-square-color-1-0-27"><path clip-rule="evenodd" d="M 968 88v 64a 80 80, 0, 0, 0, 80 80h 64a 80 80, 0, 0, 0, 80 -80v -64a 80 80, 0, 0, 0, -80 -80h -64a 80 80, 0, 0, 0, -80 80M 1048 40h 64a 48 48, 0, 0, 1, 48 48v 64a 48 48, 0, 0, 1, -48 48h -64a 48 48, 0, 0, 1, -48 -48v -64a 48 48, 0, 0, 1, 48 -48" transform="rotate(90,1080,120)"/></clipPath><clipPath id="clip-path-corners-dot-color-1-0-27"><circle cx="1080" cy="120" r="48" transform="rotate(90,1080,120)"/></clipPath><clipPath id="clip-path-corners-square-color-0-1-27"><path clip-rule="evenodd" d="M 8 1048v 64a 80 80, 0, 0, 0, 80 80h 64a 80 80, 0, 0, 0, 80 -80v -64a 80 80, 0, 0, 0, -80 -80h -64a 80 80, 0, 0, 0, -80 80M 88 1000h 64a 48 48, 0, 0, 1, 48 48v 64a 48 48, 0, 0, 1, -48 48h -64a 48 48, 0, 0, 1, -48 -48v -64a 48 48, 0, 0, 1, 48 -48" transform="rotate(-90,120,1080)"/></clipPath><clipPath id="clip-path-corners-dot-color-0-1-27"><circle cx="120" cy="1080" r="48" transform="rotate(-90,120,1080)"/></clipPath></defs><rect x="0" y="0" height="1200" width="1200" clip-path="url('#clip-path-background-color-27')" fill="#ffffff"/><rect x="0" y="0" height="1200" width="1200" clip-path="url('#clip-path-dot-color-27')" fill="#000000"/><rect x="8" y="8" height="224" width="224" clip-path="url('#clip-path-corners-square-color-0-0-27')" fill="#000000"/><rect x="72" y="72" height="96" width="96" clip-path="url('#clip-path-corners-dot-color-0-0-27')" fill="#000000"/><rect x="968" y="8" height="224" width="224" clip-path="url('#clip-path-corners-square-color-1-0-27')" fill="#000000"/><rect x="1032" y="72" height="96" width="96" clip-path="url('#clip-path-corners-dot-color-1-0-27')" fill="#000000"/><rect x="8" y="968" height="224" width="224" clip-path="url('#clip-path-corners-square-color-0-1-27')" fill="#000000"/><rect x="72" y="1032" height="96" width="96" clip-path="url('#clip-path-corners-dot-color-0-1-27')" fill="#000000"/></svg>