<?xml version="1.0" standalone="no"?>
<svg xmlns="http://www.w3.org/2000/svg" width="1200" height="1200" xmlns:xlink="http://www.w3.org/1999/xlink" viewBox="0 0 1200 1200"><defs><clipPath id="clip-path-background-color-3"><rect x="0" y="0" width="1200" height="1200"/></clipPath><clipPath id="clip-path-dot-color-3"><path d="M 418 26v 28h 28v -14a 14 14, 0, 0, 0, -14 -14" transform="rotate(-90,432,40)"/><path d="M 446 26v 28h 28v -14a 14 14, 0, 0, 0, -14 -14" transform="rotate(0,460,40)"/><path d="M 502 26v 28h 14a 14 14, 0, 0, 0, 0 -28" transform="rotate(-90,516,40)"/><path d="M 558 26v 28h 14a 14 14, 0, 0, 0, 0 -28" transform="rotate(180,572,40)"/><rect x="586" y="26" width="28" height="28" transform="rotate(0,600,40)"/><rect x="614" y="26" width="28" height="28" transform="rotate(0,628,40)"/><path d="M 642 26v 28h 14a 14 14, 0, 0, 0, 0 -28" transform="rotate(0,656,40)"/><path d="M 698 26v 28h 28v -14a 14 14, 0, 0, 0, -14 -14" transform="rotate(-90,712,40)"/><rect x="726" y="26" width="28" height="28" transform="rotate(0,740,40)"/><path d="M 754 26v 28h 14a 14 14, 0, 0, 0, 0 -28" transform="rotate(0,768,40)"/><path d="M 866 26v 28h 14a 14 14, 0, 0, 0, 0 -28" transform="rotate(-90,880,40)"/><path d="M 278 54v 28h 28v -14a 14 14, 0, 0, 0, -14 -14" transform="rotate(-90,292,68)"/><rect x="306" y="54" width="28" height="28" transform="rotate(0,320,68)"/><rect x="334" y="54" width="28" height="28" transform="rotate(0,348,68)"/><path d="M 362 54v 28h 14a 14 14, 0, 0, 0, 0 -28" transform="rotate(0,376,68)"/><rect x="418" y="54" width="28" height="28" transform="rotate(0,432,68)"/><rect x="446" y="54" width="28" height="28" transform="rotate(0,460,68)"/><rect x="474" y="54" width="28" height="28" transform="rotate(0,488,68)"/><rect x="502" y="54" width="28" height="28" transform="rotate(0,516,68)"/><path d="M 614 54v 28h 14a 14 14, 0, 0, 0, 0 -28" transform="rotate(90,628,68)"/><path d="M 670 54v 28h 14a 14 14, 0, 0, 0, 0 -28" transform="rotate(180,684,68)"/><rect x="698" y="54" width="28" height="28" transform="rotate(0,712,68)"/><path d="M 838 54v 28h 14a 14 14, 0, 0, 0, 0 -28" transform="rotate(180,852,68)"/><rect x="866" y="54" width="28" height="28" transform="rotate(0,880,68)"/><path d="M 278 82v 28h 14a 14 14, 0, 0, 0, 0 -28" transform="rotate(90,292,96)"/><path d="M 390 82v 28h 14a 14 14, 0, 0, 0, 0 -28" transform="rotate(180,404,96)"/><path d="M 418 82v 28h 28v -14a 14 14, 0, 0, 0, -14 -14" transform="rotate(90,432,96)"/><path d="M 502 82v 28h 28v -14a 14 14, 0, 0, 0, -14 -14" transform="rotate(180,516,96)"/><rect x="530" y="82" width="28" height="28" transform="rotate(0,544,96)"/><rect x="558" y="82" width="28" height="28" transform="rotate(0,572,96)"/><path d="M 586 82v 28h 14a 14 14, 0, 0, 0, 0 -28" transform="rotate(0,600,96)"/><path d="M 698 82v 28h 28v -14a 14 14, 0, 0, 0, -14 -14" transform="rotate(180,712,96)"/><path d="M 726 82v 28h 14a 14 14, 0, 0, 0, 0 -28" transform="rotate(0,740,96)"/><rect x="866" y="82" width="28" height="28" transform="rotate(0,880,96)"/><circle cx="264" cy="124" r="14" transform="rotate(0,264,124)"/><path d="M 474 110v 28h 14a 14 14, 0, 0, 0, 0 -28" transform="rotate(-90,488,124)"/><circle cx="656" cy="124" r="14" transform="rotate(0,656,124)"/><rect x="866" y="110" width="28" height="28" transform="rotate(0,880,124)"/><circle cx="936" cy="124" r="14" transform="rotate(0,936,124)"/><path d="M 306 138v 28h 14a 14 14, 0, 0, 0, 0 -28" transform="rotate(180,320,152)"/><rect x="334" y="138" width="28" height="28" transform="rotate(0,348,152)"/><path d="M 362 138v 28h 28v -14a 14 14, 0, 0, 0, -14 -14" transform="rotate(0,376,152)"/><path d="M 446 138v 28h 14a 14 14, 0, 0, 0, 0 -28" transform="rotate(180,460,152)"/><rect x="474" y="138" width="28" height="28" transform="rotate(0,488,152)"/><path d="M 502 138v 28h 28v -14a 14 14, 0, 0, 0, -14 -14" transform="rotate(0,516,152)"/><path d="M 586 138v 28h 28v -14a 14 14, 0, 0, 0, -14 -14" transform="rotate(-90,600,152)"/><path d="M 614 138v 28h 14a 14 14, 0, 0, 0, 0 -28" transform="rotate(0,628,152)"/><path d="M 698 138v 28h 14a 14 14, 0, 0, 0, 0 -28" transform="rotate(180,712,152)"/><path d="M 726 138v 28h 28v -14a 14 14, 0, 0, 0, -14 -14" transform="rotate(0,740,152)"/><path d="M 838 138v 28h 28v -14a 14 14, 0, 0, 0, -14 -14" transform="rotate(-90,852,152)"/><path d="M 866 138v 28h 28v -14a 14 14, 0, 0, 0, -14 -14" transform="rotate(90,880,152)"/><path d="M 250 166v 28h 28v -14a 14 14, 0, 0, 0, -14 -14" transform="rotate(-90,264,180)"/><path d="M 278 166v 28h 14a 14 14, 0, 0, 0, 0 -28" transform="rotate(0,292,180)"/><rect x="362" y="166" width="28" height="28" transform="rotate(0,376,180)"/><path d="M 502 166v 28h 28v -14a 14 14, 0, 0, 0, -14 -14" transform="rotate(180,516,180)"/><rect x="530" y="166" width="28" height="28" transform="rotate(0,544,180)"/><rect x="558" y="166" width="28" height="28" transform="rotate(0,572,180)"/><rect x="586" y="166" width="28" height="28" transform="rotate(0,600,180)"/><circle cx="684" cy="180" r="14" transform="rotate(0,684,180)"/><path d="M 726 166v 28h 14a 14 14, 0, 0, 0, 0 -28" transform="rotate(90,740,180)"/><path d="M 838 166v 28h 14a 14 14, 0, 0, 0, 0 -28" transform="rotate(90,852,180)"/><path d="M 922 166v 28h 14a 14 14, 0, 0, 0, 0 -28" transform="rotate(-90,936,180)"/><rect x="250" y="194" width="28" height="28" transform="rotate(0,264,208)"/><circle cx="320" cy="208" r="14" transform="rotate(0,320,208)"/><path d="M 362 194v 28h 14a 14 14, 0, 0, 0, 0 -28" transform="rotate(90,376,208)"/><path d="M 418 194v 28h 14a 14 14, 0, 0, 0, 0 -28" transform="rotate(-90,432,208)"/><circle cx="488" cy="208" r="14" transform="rotate(0,488,208)"/><rect x="530" y="194" width="28" height="28" transform="rotate(0,544,208)"/><path d="M 586 194v 28h 14a 14 14, 0, 0, 0, 0 -28" transform="rotate(90,600,208)"/><path d="M 642 194v 28h 14a 14 14, 0, 0, 0, 0 -28" transform="rotate(-90,656,208)"/><path d="M 698 194v 28h 14a 14 14, 0, 0, 0, 0 -28" transform="rotate(-90,712,208)"/><circle cx="768" cy="208" r="14" transform="rotate(0,768,208)"/><circle cx="824" cy="208" r="14" transform="rotate(0,824,208)"/><path d="M 866 194v 28h 14a 14 14, 0, 0, 0, 0 -28" transform="rotate(-90,880,208)"/><rect x="922" y="194" width="28" height="28" transform="rotate(0,936,208)"/><path d="M 250 222v 28h 14a 14 14, 0, 0, 0, 0 -28" transform="rotate(90,264,236)"/><circle cx="348" cy="236" r="14" transform="rotate(0,348,236)"/><rect x="418" y="222" width="28" height="28" transform="rotate(0,432,236)"/><path d="M 530 222v 28h 28v -14a 14 14, 0, 0, 0, -14 -14" transform="rotate(180,544,236)"/><path d="M 558 222v 28h 14a 14 14, 0, 0, 0, 0 -28" transform="rotate(0,572,236)"/><path d="M 614 222v 28h 28v -14a 14 14, 0, 0, 0, -14 -14" transform="rotate(-90,628,236)"/><rect x="642" y="222" width="28" height="28" transform="rotate(0,656,236)"/><rect x="670" y="222" width="28" height="28" transform="rotate(0,684,236)"/><path d="M 698 222v 28h 28v -14a 14 14, 0, 0, 0, -14 -14" transform="rotate(90,712,236)"/><path d="M 782 222v 28h 14a 14 14, 0, 0, 0, 0 -28" transform="rotate(-90,796,236)"/><path d="M 866 222v 28h 14a 14 14, 0, 0, 0, 0 -28" transform="rotate(90,880,236)"/><rect x="922" y="222" width="28" height="28" transform="rotate(0,936,236)"/><path d="M 54 250v 28h 14a 14 14, 0, 0, 0, 0 -28" transform="rotate(180,68,264)"/><path d="M 82 250v 28h 28v -14a 14 14, 0, 0, 0, -14 -14" transform="rotate(0,96,264)"/><circle cx="208" cy="264" r="14" transform="rotate(0,208,264)"/><path d="M 278 250v 28h 14a 14 14, 0, 0, 0, 0 -28" transform="rotate(-90,292,264)"/><rect x="418" y="250" width="28" height="28" transform="rotate(0,432,264)"/><path d="M 474 250v 28h 28v -14a 14 14, 0, 0, 0, -14 -14" transform="rotate(-90,488,264)"/><path d="M 502 250v 28h 14a 14 14, 0, 0, 0, 0 -28" transform="rotate(0,516,264)"/><rect x="614" y="250" width="28" height="28" transform="rotate(0,628,264)"/><rect x="670" y="250" width="28" height="28" transform="rotate(0,684,264)"/><rect x="782" y="250" width="28" height="28" transform="rotate(0,796,264)"/><path d="M 894 250v 28h 28v -14a 14 14, 0, 0, 0, -14 -14" transform="rotate(-90,908,264)"/><rect x="922" y="250" width="28" height="28" transform="rotate(0,936,264)"/><path d="M 978 250v 28h 28v -14a 14 14, 0, 0, 0, -14 -14" transform="rotate(-90,992,264)"/><path d="M 1006 250v 28h 28v -14a 14 14, 0, 0, 0, -14 -14" transform="rotate(0,1020,264)"/><circle cx="1076" cy="264" r="14" transform="rotate(0,1076,264)"/><rect x="82" y="278" width="28" height="28" transform="rotate(0,96,292)"/><path d="M 222 278v 28h 14a 14 14, 0, 0, 0, 0 -28" transform="rotate(180,236,292)"/><rect x="250" y="278" width="28" height="28" transform="rotate(0,264,292)"/><path d="M 278 278v 28h 28v -14a 14 14, 0, 0, 0, -14 -14" transform="rotate(90,292,292)"/><circle cx="348" cy="292" r="14" transform="rotate(0,348,292)"/><rect x="418" y="278" width="28" height="28" transform="rotate(0,432,292)"/><path d="M 474 278v 28h 14a 14 14, 0, 0, 0, 0 -28" transform="rotate(90,488,292)"/><path d="M 586 278v 28h 14a 14 14, 0, 0, 0, 0 -28" transform="rotate(180,600,292)"/><rect x="614" y="278" width="28" height="28" transform="rotate(0,628,292)"/><rect x="670" y="278" width="28" height="28" transform="rotate(0,684,292)"/><rect x="782" y="278" width="28" height="28" transform="rotate(0,796,292)"/><path d="M 810 278v 28h 14a 14 14, 0, 0, 0, 0 -28" transform="rotate(0,824,292)"/><path d="M 866 278v 28h 28v -14a 14 14, 0, 0, 0, -14 -14" transform="rotate(-90,880,292)"/><rect x="894" y="278" width="28" height="28" transform="rotate(0,908,292)"/><rect x="922" y="278" width="28" height="28" transform="rotate(0,936,292)"/><rect x="950" y="278" width="28" height="28" transform="rotate(0,964,292)"/><rect x="978" y="278" width="28" height="28" transform="rotate(0,992,292)"/><path d="M 1006 278v 28h 28v -14a 14 14, 0, 0, 0, -14 -14" transform="rotate(90,1020,292)"/><path d="M 1090 278v 28h 28v -14a 14 14, 0, 0, 0, -14 -14" transform="rotate(-90,1104,292)"/><rect x="1118" y="278" width="28" height="28" transform="rotate(0,1132,292)"/><path d="M 1146 278v 28h 28v -14a 14 14, 0, 0, 0, -14 -14" transform="rotate(0,1160,292)"/><circle cx="40" cy="320" r="14" transform="rotate(0,40,320)"/><path d="M 82 306v 28h 14a 14 14, 0, 0, 0, 0 -28" transform="rotate(90,96,320)"/><path d="M 166 306v 28h 14a 14 14, 0, 0, 0, 0 -28" transform="rotate(180,180,320)"/><path d="M 194 306v 28h 14a 14 14, 0, 0, 0, 0 -28" transform="rotate(0,208,320)"/><rect x="250" y="306" width="28" height="28" transform="rotate(0,264,320)"/><path d="M 390 306v 28h 14a 14 14, 0, 0, 0, 0 -28" transform="rotate(180,404,320)"/><rect x="418" y="306" width="28" height="28" transform="rotate(0,432,320)"/><circle cx="516" cy="320" r="14" transform="rotate(0,516,320)"/><path d="M 614 306v 28h 28v -14a 14 14, 0, 0, 0, -14 -14" transform="rotate(180,628,320)"/><rect x="642" y="306" width="28" height="28" transform="rotate(0,656,320)"/><path d="M 670 306v 28h 28v -14a 14 14, 0, 0, 0, -14 -14" transform="rotate(90,684,320)"/><circle cx="740" cy="320" r="14" transform="rotate(0,740,320)"/><path d="M 782 306v 28h 14a 14 14, 0, 0, 0, 0 -28" transform="rotate(90,796,320)"/><path d="M 866 306v 28h 28v -14a 14 14, 0, 0, 0, -14 -14" transform="rotate(180,880,320)"/><rect x="894" y="306" width="28" height="28" transform="rotate(0,908,320)"/><path d="M 1034 306v 28h 14a 14 14, 0, 0, 0, 0 -28" transform="rotate(180,1048,320)"/><rect x="1062" y="306" width="28" height="28" transform="rotate(0,1076,320)"/><path d="M 1090 306v 28h 28v -14a 14 14, 0, 0, 0, -14 -14" transform="rotate(90,1104,320)"/><path d="M 1146 306v 28h 14a 14 14, 0, 0, 0, 0 -28" transform="rotate(90,1160,320)"/><path d="M 54 334v 28h 14a 14 14, 0, 0, 0, 0 -28" transform="rotate(-90,68,348)"/><path d="M 138 334v 28h 14a 14 14, 0, 0, 0, 0 -28" transform="rotate(-90,152,348)"/><path d="M 222 334v 28h 28v -14a 14 14, 0, 0, 0, -14 -14" transform="rotate(-90,236,348)"/><rect x="250" y="334" width="28" height="28" transform="rotate(0,264,348)"/><path d="M 278 334v 28h 14a 14 14, 0, 0, 0, 0 -28" transform="rotate(0,292,348)"/><path d="M 362 334v 28h 14a 14 14, 0, 0, 0, 0 -28" transform="rotate(-90,376,348)"/><rect x="418" y="334" width="28" height="28" transform="rotate(0,432,348)"/><path d="M 530 334v 28h 14a 14 14, 0, 0, 0, 0 -28" transform="rotate(-90,544,348)"/><path d="M 586 334v 28h 14a 14 14, 0, 0, 0, 0 -28" transform="rotate(-90,600,348)"/><path d="M 810 334v 28h 14a 14 14, 0, 0, 0, 0 -28" transform="rotate(-90,824,348)"/><path d="M 894 334v 28h 28v -14a 14 14, 0, 0, 0, -14 -14" transform="rotate(180,908,348)"/><path d="M 922 334v 28h 14a 14 14, 0, 0, 0, 0 -28" transform="rotate(0,936,348)"/><path d="M 1062 334v 28h 14a 14 14, 0, 0, 0, 0 -28" transform="rotate(90,1076,348)"/><circle cx="1132" cy="348" r="14" transform="rotate(0,1132,348)"/><rect x="54" y="362" width="28" height="28" transform="rotate(0,68,376)"/><rect x="138" y="362" width="28" height="28" transform="rotate(0,152,376)"/><path d="M 194 362v 28h 14a 14 14, 0, 0, 0, 0 -28" transform="rotate(180,208,376)"/><path d="M 222 362v 28h 28v -14a 14 14, 0, 0, 0, -14 -14" transform="rotate(90,236,376)"/><path d="M 334 362v 28h 28v -14a 14 14, 0, 0, 0, -14 -14" transform="rotate(-90,348,376)"/><rect x="362" y="362" width="28" height="28" transform="rotate(0,376,376)"/><path d="M 418 362v 28h 14a 14 14, 0, 0, 0, 0 -28" transform="rotate(90,432,376)"/><path d="M 474 362v 28h 28v -14a 14 14, 0, 0, 0, -14 -14" transform="rotate(-90,488,376)"/><rect x="502" y="362" width="28" height="28" transform="rotate(0,516,376)"/><rect x="530" y="362" width="28" height="28" transform="rotate(0,544,376)"/><rect x="558" y="362" width="28" height="28" transform="rotate(0,572,376)"/><rect x="586" y="362" width="28" height="28" transform="rotate(0,600,376)"/><path d="M 754 362v 28h 14a 14 14, 0, 0, 0, 0 -28" transform="rotate(180,768,376)"/><rect x="782" y="362" width="28" height="28" transform="rotate(0,796,376)"/><rect x="810" y="362" width="28" height="28" transform="rotate(0,824,376)"/><path d="M 978 362v 28h 28v -14a 14 14, 0, 0, 0, -14 -14" transform="rotate(-90,992,376)"/><path d="M 1006 362v 28h 28v -14a 14 14, 0, 0, 0, -14 -14" transform="rotate(0,1020,376)"/><path d="M 54 390v 28h 14a 14 14, 0, 0, 0, 0 -28" transform="rotate(90,68,404)"/><path d="M 110 390v 28h 28v -14a 14 14, 0, 0, 0, -14 -14" transform="rotate(-90,124,404)"/><rect x="138" y="390" width="28" height="28" transform="rotate(0,152,404)"/><path d="M 334 390v 28h 28v -14a 14 14, 0, 0, 0, -14 -14" transform="rotate(180,348,404)"/><rect x="362" y="390" width="28" height="28" transform="rotate(0,376,404)"/><path d="M 390 390v 28h 14a 14 14, 0, 0, 0, 0 -28" transform="rotate(0,404,404)"/><rect x="474" y="390" width="28" height="28" transform="rotate(0,488,404)"/><path d="M 530 390v 28h 28v -14a 14 14, 0, 0, 0, -14 -14" transform="rotate(180,544,404)"/><rect x="558" y="390" width="28" height="28" transform="rotate(0,572,404)"/><rect x="586" y="390" width="28" height="28" transform="rotate(0,600,404)"/><rect x="614" y="390" width="28" height="28" transform="rotate(0,628,404)"/><path d="M 642 390v 28h 14a 14 14, 0, 0, 0, 0 -28" transform="rotate(0,656,404)"/><path d="M 726 390v 28h 14a 14 14, 0, 0, 0, 0 -28" transform="rotate(-90,740,404)"/><rect x="810" y="390" width="28" height="28" transform="rotate(0,824,404)"/><rect x="838" y="390" width="28" height="28" transform="rotate(0,852,404)"/><path d="M 866 390v 28h 28v -14a 14 14, 0, 0, 0, -14 -14" transform="rotate(0,880,404)"/><rect x="978" y="390" width="28" height="28" transform="rotate(0,992,404)"/><path d="M 1006 390v 28h 28v -14a 14 14, 0, 0, 0, -14 -14" transform="rotate(90,1020,404)"/><path d="M 1118 390v 28h 14a 14 14, 0, 0, 0, 0 -28" transform="rotate(180,1132,404)"/><path d="M 1146 390v 28h 28v -14a 14 14, 0, 0, 0, -14 -14" transform="rotate(0,1160,404)"/><path d="M 110 418v 28h 28v -14a 14 14, 0, 0, 0, -14 -14" transform="rotate(180,124,432)"/><rect x="138" y="418" width="28" height="28" transform="rotate(0,152,432)"/><rect x="166" y="418" width="28" height="28" transform="rotate(0,180,432)"/><rect x="194" y="418" width="28" height="28" transform="rotate(0,208,432)"/><path d="M 222 418v 28h 14a 14 14, 0, 0, 0, 0 -28" transform="rotate(0,236,432)"/><path d="M 278 418v 28h 14a 14 14, 0, 0, 0, 0 -28" transform="rotate(-90,292,432)"/><path d="M 418 418v 28h 28v -14a 14 14, 0, 0, 0, -14 -14" transform="rotate(-90,432,432)"/><rect x="446" y="418" width="28" height="28" transform="rotate(0,460,432)"/><path d="M 474 418v 28h 28v -14a 14 14, 0, 0, 0, -14 -14" transform="rotate(90,488,432)"/><rect x="586" y="418" width="28" height="28" transform="rotate(0,600,432)"/><path d="M 614 418v 28h 28v -14a 14 14, 0, 0, 0, -14 -14" transform="rotate(90,628,432)"/><circle cx="684" cy="432" r="14" transform="rotate(0,684,432)"/><path d="M 726 418v 28h 28v -14a 14 14, 0, 0, 0, -14 -14" transform="rotate(180,740,432)"/><path d="M 754 418v 28h 28v -14a 14 14, 0, 0, 0, -14 -14" transform="rotate(0,768,432)"/><rect x="810" y="418" width="28" height="28" transform="rotate(0,824,432)"/><rect x="838" y="418" width="28" height="28" transform="rotate(0,852,432)"/><rect x="866" y="418" width="28" height="28" transform="rotate(0,880,432)"/><path d="M 894 418v 28h 14a 14 14, 0, 0, 0, 0 -28" transform="rotate(0,908,432)"/><path d="M 950 418v 28h 28v -14a 14 14, 0, 0, 0, -14 -14" transform="rotate(-90,964,432)"/><rect x="978" y="418" width="28" height="28" transform="rotate(0,992,432)"/><rect x="1146" y="418" width="28" height="28" transform="rotate(0,1160,432)"/><path d="M 26 446v 28h 14a 14 14, 0, 0, 0, 0 -28" transform="rotate(-90,40,460)"/><path d="M 138 446v 28h 28v -14a 14 14, 0, 0, 0, -14 -14" transform="rotate(180,152,460)"/><path d="M 166 446v 28h 28v -14a 14 14, 0, 0, 0, -14 -14" transform="rotate(90,180,460)"/><path d="M 250 446v 28h 28v -14a 14 14, 0, 0, 0, -14 -14" transform="rotate(-90,264,460)"/><path d="M 278 446v 28h 28v -14a 14 14, 0, 0, 0, -14 -14" transform="rotate(90,292,460)"/><path d="M 334 446v 28h 14a 14 14, 0, 0, 0, 0 -28" transform="rotate(-90,348,460)"/><path d="M 390 446v 28h 28v -14a 14 14, 0, 0, 0, -14 -14" transform="rotate(-90,404,460)"/><path d="M 418 446v 28h 28v -14a 14 14, 0, 0, 0, -14 -14" transform="rotate(90,432,460)"/><path d="M 502 446v 28h 14a 14 14, 0, 0, 0, 0 -28" transform="rotate(-90,516,460)"/><rect x="586" y="446" width="28" height="28" transform="rotate(0,600,460)"/><path d="M 642 446v 28h 14a 14 14, 0, 0, 0, 0 -28" transform="rotate(-90,656,460)"/><path d="M 754 446v 28h 28v -14a 14 14, 0, 0, 0, -14 -14" transform="rotate(180,768,460)"/><rect x="782" y="446" width="28" height="28" transform="rotate(0,796,460)"/><rect x="810" y="446" width="28" height="28" transform="rotate(0,824,460)"/><path d="M 866 446v 28h 14a 14 14, 0, 0, 0, 0 -28" transform="rotate(90,880,460)"/><rect x="950" y="446" width="28" height="28" transform="rotate(0,964,460)"/><rect x="978" y="446" width="28" height="28" transform="rotate(0,992,460)"/><rect x="1006" y="446" width="28" height="28" transform="rotate(0,1020,460)"/><rect x="1034" y="446" width="28" height="28" transform="rotate(0,1048,460)"/><path d="M 1062 446v 28h 28v -14a 14 14, 0, 0, 0, -14 -14" transform="rotate(0,1076,460)"/><path d="M 1118 446v 28h 28v -14a 14 14, 0, 0, 0, -14 -14" transform="rotate(-90,1132,460)"/><rect x="1146" y="446" width="28" height="28" transform="rotate(0,1160,460)"/><path d="M 26 474v 28h 14a 14 14, 0, 0, 0, 0 -28" transform="rotate(90,40,488)"/><path d="M 82 474v 28h 28v -14a 14 14, 0, 0, 0, -14 -14" transform="rotate(-90,96,488)"/><path d="M 110 474v 28h 14a 14 14, 0, 0, 0, 0 -28" transform="rotate(0,124,488)"/><circle cx="208" cy="488" r="14" transform="rotate(0,208,488)"/><rect x="250" y="474" width="28" height="28" transform="rotate(0,264,488)"/><rect x="334" y="474" width="28" height="28" transform="rotate(0,348,488)"/><path d="M 390 474v 28h 14a 14 14, 0, 0, 0, 0 -28" transform="rotate(90,404,488)"/><circle cx="460" cy="488" r="14" transform="rotate(0,460,488)"/><path d="M 502 474v 28h 28v -14a 14 14, 0, 0, 0, -14 -14" transform="rotate(180,516,488)"/><rect x="530" y="474" width="28" height="28" transform="rotate(0,544,488)"/><rect x="558" y="474" width="28" height="28" transform="rotate(0,572,488)"/><path d="M 586 474v 28h 28v -14a 14 14, 0, 0, 0, -14 -14" transform="rotate(90,600,488)"/><path d="M 642 474v 28h 28v -14a 14 14, 0, 0, 0, -14 -14" transform="rotate(180,656,488)"/><rect x="670" y="474" width="28" height="28" transform="rotate(0,684,488)"/><path d="M 698 474v 28h 28v -14a 14 14, 0, 0, 0, -14 -14" transform="rotate(0,712,488)"/><rect x="810" y="474" width="28" height="28" transform="rotate(0,824,488)"/><path d="M 894 474v 28h 14a 14 14, 0, 0, 0, 0 -28" transform="rotate(-90,908,488)"/><rect x="950" y="474" width="28" height="28" transform="rotate(0,964,488)"/><rect x="978" y="474" width="28" height="28" transform="rotate(0,992,488)"/><rect x="1062" y="474" width="28" height="28" transform="rotate(0,1076,488)"/><path d="M 1118 474v 28h 28v -14a 14 14, 0, 0, 0, -14 -14" transform="rotate(180,1132,488)"/><rect x="1146" y="474" width="28" height="28" transform="rotate(0,1160,488)"/><rect x="82" y="502" width="28" height="28" transform="rotate(0,96,516)"/><path d="M 250 502v 28h 28v -14a 14 14, 0, 0, 0, -14 -14" transform="rotate(180,264,516)"/><path d="M 278 502v 28h 28v -14a 14 14, 0, 0, 0, -14 -14" transform="rotate(0,292,516)"/><rect x="334" y="502" width="28" height="28" transform="rotate(0,348,516)"/><path d="M 362 502v 28h 28v -14a 14 14, 0, 0, 0, -14 -14" transform="rotate(0,376,516)"/><path d="M 530 502v 28h 28v -14a 14 14, 0, 0, 0, -14 -14" transform="rotate(180,544,516)"/><rect x="558" y="502" width="28" height="28" transform="rotate(0,572,516)"/><rect x="670" y="502" width="28" height="28" transform="rotate(0,684,516)"/><rect x="698" y="502" width="28" height="28" transform="rotate(0,712,516)"/><path d="M 726 502v 28h 14a 14 14, 0, 0, 0, 0 -28" transform="rotate(0,740,516)"/><path d="M 782 502v 28h 28v -14a 14 14, 0, 0, 0, -14 -14" transform="rotate(-90,796,516)"/><rect x="810" y="502" width="28" height="28" transform="rotate(0,824,516)"/><rect x="894" y="502" width="28" height="28" transform="rotate(0,908,516)"/><rect x="922" y="502" width="28" height="28" transform="rotate(0,936,516)"/><rect x="950" y="502" width="28" height="28" transform="rotate(0,964,516)"/><rect x="978" y="502" width="28" height="28" transform="rotate(0,992,516)"/><path d="M 1006 502v 28h 28v -14a 14 14, 0, 0, 0, -14 -14" transform="rotate(0,1020,516)"/><rect x="1062" y="502" width="28" height="28" transform="rotate(0,1076,516)"/><rect x="1146" y="502" width="28" height="28" transform="rotate(0,1160,516)"/><path d="M 26 530v 28h 14a 14 14, 0, 0, 0, 0 -28" transform="rotate(180,40,544)"/><rect x="54" y="530" width="28" height="28" transform="rotate(0,68,544)"/><rect x="82" y="530" width="28" height="28" transform="rotate(0,96,544)"/><path d="M 110 530v 28h 28v -14a 14 14, 0, 0, 0, -14 -14" transform="rotate(0,124,544)"/><path d="M 166 530v 28h 14a 14 14, 0, 0, 0, 0 -28" transform="rotate(180,180,544)"/><path d="M 194 530v 28h 14a 14 14, 0, 0, 0, 0 -28" transform="rotate(0,208,544)"/><path d="M 278 530v 28h 28v -14a 14 14, 0, 0, 0, -14 -14" transform="rotate(180,292,544)"/><rect x="306" y="530" width="28" height="28" transform="rotate(0,320,544)"/><rect x="334" y="530" width="28" height="28" transform="rotate(0,348,544)"/><rect x="362" y="530" width="28" height="28" transform="rotate(0,376,544)"/><path d="M 446 530v 28h 14a 14 14, 0, 0, 0, 0 -28" transform="rotate(180,460,544)"/><path d="M 474 530v 28h 28v -14a 14 14, 0, 0, 0, -14 -14" transform="rotate(0,488,544)"/><path d="M 558 530v 28h 14a 14 14, 0, 0, 0, 0 -28" transform="rotate(90,572,544)"/><circle cx="628" cy="544" r="14" transform="rotate(0,628,544)"/><rect x="670" y="530" width="28" height="28" transform="rotate(0,684,544)"/><path d="M 698 530v 28h 28v -14a 14 14, 0, 0, 0, -14 -14" transform="rotate(90,712,544)"/><path d="M 782 530v 28h 28v -14a 14 14, 0, 0, 0, -14 -14" transform="rotate(180,796,544)"/><rect x="810" y="530" width="28" height="28" transform="rotate(0,824,544)"/><rect x="838" y="530" width="28" height="28" transform="rotate(0,852,544)"/><rect x="866" y="530" width="28" height="28" transform="rotate(0,880,544)"/><path d="M 894 530v 28h 28v -14a 14 14, 0, 0, 0, -14 -14" transform="rotate(90,908,544)"/><rect x="950" y="530" width="28" height="28" transform="rotate(0,964,544)"/><path d="M 1006 530v 28h 28v -14a 14 14, 0, 0, 0, -14 -14" transform="rotate(180,1020,544)"/><rect x="1034" y="530" width="28" height="28" transform="rotate(0,1048,544)"/><rect x="1062" y="530" width="28" height="28" transform="rotate(0,1076,544)"/><path d="M 1090 530v 28h 14a 14 14, 0, 0, 0, 0 -28" transform="rotate(0,1104,544)"/><rect x="1146" y="530" width="28" height="28" transform="rotate(0,1160,544)"/><rect x="54" y="558" width="28" height="28" transform="rotate(0,68,572)"/><rect x="82" y="558" width="28" height="28" transform="rotate(0,96,572)"/><path d="M 110 558v 28h 28v -14a 14 14, 0, 0, 0, -14 -14" transform="rotate(90,124,572)"/><path d="M 250 558v 28h 14a 14 14, 0, 0, 0, 0 -28" transform="rotate(-90,264,572)"/><path d="M 306 558v 28h 14a 14 14, 0, 0, 0, 0 -28" transform="rotate(90,320,572)"/><rect x="362" y="558" width="28" height="28" transform="rotate(0,376,572)"/><circle cx="432" cy="572" r="14" transform="rotate(0,432,572)"/><rect x="474" y="558" width="28" height="28" transform="rotate(0,488,572)"/><path d="M 530 558v 28h 14a 14 14, 0, 0, 0, 0 -28" transform="rotate(-90,544,572)"/><path d="M 642 558v 28h 14a 14 14, 0, 0, 0, 0 -28" transform="rotate(180,656,572)"/><rect x="670" y="558" width="28" height="28" transform="rotate(0,684,572)"/><path d="M 726 558v 28h 14a 14 14, 0, 0, 0, 0 -28" transform="rotate(-90,740,572)"/><path d="M 810 558v 28h 14a 14 14, 0, 0, 0, 0 -28" transform="rotate(90,824,572)"/><rect x="866" y="558" width="28" height="28" transform="rotate(0,880,572)"/><path d="M 922 558v 28h 28v -14a 14 14, 0, 0, 0, -14 -14" transform="rotate(-90,936,572)"/><path d="M 950 558v 28h 28v -14a 14 14, 0, 0, 0, -14 -14" transform="rotate(90,964,572)"/><rect x="1062" y="558" width="28" height="28" transform="rotate(0,1076,572)"/><path d="M 1146 558v 28h 14a 14 14, 0, 0, 0, 0 -28" transform="rotate(90,1160,572)"/><path d="M 26 586v 28h 28v -14a 14 14, 0, 0, 0, -14 -14" transform="rotate(-90,40,600)"/><rect x="54" y="586" width="28" height="28" transform="rotate(0,68,600)"/><path d="M 166 586v 28h 28v -14a 14 14, 0, 0, 0, -14 -14" transform="rotate(-90,180,600)"/><rect x="194" y="586" width="28" height="28" transform="rotate(0,208,600)"/><rect x="222" y="586" width="28" height="28" transform="rotate(0,236,600)"/><rect x="250" y="586" width="28" height="28" transform="rotate(0,264,600)"/><path d="M 278 586v 28h 14a 14 14, 0, 0, 0, 0 -28" transform="rotate(0,292,600)"/><path d="M 362 586v 28h 28v -14a 14 14, 0, 0, 0, -14 -14" transform="rotate(180,376,600)"/><path d="M 390 586v 28h 14a 14 14, 0, 0, 0, 0 -28" transform="rotate(0,404,600)"/><rect x="474" y="586" width="28" height="28" transform="rotate(0,488,600)"/><rect x="502" y="586" width="28" height="28" transform="rotate(0,516,600)"/><rect x="530" y="586" width="28" height="28" transform="rotate(0,544,600)"/><rect x="558" y="586" width="28" height="28" transform="rotate(0,572,600)"/><rect x="586" y="586" width="28" height="28" transform="rotate(0,600,600)"/><path d="M 614 586v 28h 28v -14a 14 14, 0, 0, 0, -14 -14" transform="rotate(0,628,600)"/><rect x="670" y="586" width="28" height="28" transform="rotate(0,684,600)"/><rect x="698" y="586" width="28" height="28" transform="rotate(0,712,600)"/><path d="M 726 586v 28h 28v -14a 14 14, 0, 0, 0, -14 -14" transform="rotate(90,740,600)"/><path d="M 838 586v 28h 14a 14 14, 0, 0, 0, 0 -28" transform="rotate(180,852,600)"/><rect x="866" y="586" width="28" height="28" transform="rotate(0,880,600)"/><rect x="922" y="586" width="28" height="28" transform="rotate(0,936,600)"/><path d="M 978 586v 28h 28v -14a 14 14, 0, 0, 0, -14 -14" transform="rotate(-90,992,600)"/><path d="M 1006 586v 28h 28v -14a 14 14, 0, 0, 0, -14 -14" transform="rotate(0,1020,600)"/><path d="M 1062 586v 28h 14a 14 14, 0, 0, 0, 0 -28" transform="rotate(90,1076,600)"/><path d="M 26 614v 28h 28v -14a 14 14, 0, 0, 0, -14 -14" transform="rotate(180,40,628)"/><path d="M 54 614v 28h 28v -14a 14 14, 0, 0, 0, -14 -14" transform="rotate(90,68,628)"/><path d="M 138 614v 28h 14a 14 14, 0, 0, 0, 0 -28" transform="rotate(180,152,628)"/><rect x="166" y="614" width="28" height="28" transform="rotate(0,180,628)"/><rect x="250" y="614" width="28" height="28" transform="rotate(0,264,628)"/><path d="M 334 614v 28h 14a 14 14, 0, 0, 0, 0 -28" transform="rotate(-90,348,628)"/><path d="M 418 614v 28h 14a 14 14, 0, 0, 0, 0 -28" transform="rotate(180,432,628)"/><rect x="446" y="614" width="28" height="28" transform="rotate(0,460,628)"/><rect x="474" y="614" width="28" height="28" transform="rotate(0,488,628)"/><rect x="502" y="614" width="28" height="28" transform="rotate(0,516,628)"/><rect x="530" y="614" width="28" height="28" transform="rotate(0,544,628)"/><rect x="614" y="614" width="28" height="28" transform="rotate(0,628,628)"/><rect x="670" y="614" width="28" height="28" transform="rotate(0,684,628)"/><rect x="698" y="614" width="28" height="28" transform="rotate(0,712,628)"/><path d="M 782 614v 28h 28v -14a 14 14, 0, 0, 0, -14 -14" transform="rotate(-90,796,628)"/><path d="M 810 614v 28h 14a 14 14, 0, 0, 0, 0 -28" transform="rotate(0,824,628)"/><path d="M 866 614v 28h 28v -14a 14 14, 0, 0, 0, -14 -14" transform="rotate(180,880,628)"/><rect x="894" y="614" width="28" height="28" transform="rotate(0,908,628)"/><path d="M 922 614v 28h 28v -14a 14 14, 0, 0, 0, -14 -14" transform="rotate(90,936,628)"/><rect x="978" y="614" width="28" height="28" transform="rotate(0,992,628)"/><path d="M 1006 614v 28h 28v -14a 14 14, 0, 0, 0, -14 -14" transform="rotate(90,1020,628)"/><path d="M 1146 614v 28h 14a 14 14, 0, 0, 0, 0 -28" transform="rotate(-90,1160,628)"/><circle cx="124" cy="656" r="14" transform="rotate(0,124,656)"/><path d="M 166 642v 28h 28v -14a 14 14, 0, 0, 0, -14 -14" transform="rotate(180,180,656)"/><path d="M 194 642v 28h 14a 14 14, 0, 0, 0, 0 -28" transform="rotate(0,208,656)"/><rect x="250" y="642" width="28" height="28" transform="rotate(0,264,656)"/><path d="M 278 642v 28h 14a 14 14, 0, 0, 0, 0 -28" transform="rotate(0,292,656)"/><path d="M 334 642v 28h 28v -14a 14 14, 0, 0, 0, -14 -14" transform="rotate(180,348,656)"/><path d="M 362 642v 28h 28v -14a 14 14, 0, 0, 0, -14 -14" transform="rotate(0,376,656)"/><path d="M 446 642v 28h 28v -14a 14 14, 0, 0, 0, -14 -14" transform="rotate(180,460,656)"/><path d="M 474 642v 28h 28v -14a 14 14, 0, 0, 0, -14 -14" transform="rotate(90,488,656)"/><path d="M 530 642v 28h 28v -14a 14 14, 0, 0, 0, -14 -14" transform="rotate(180,544,656)"/><rect x="558" y="642" width="28" height="28" transform="rotate(0,572,656)"/><rect x="586" y="642" width="28" height="28" transform="rotate(0,600,656)"/><rect x="614" y="642" width="28" height="28" transform="rotate(0,628,656)"/><rect x="642" y="642" width="28" height="28" transform="rotate(0,656,656)"/><rect x="670" y="642" width="28" height="28" transform="rotate(0,684,656)"/><rect x="698" y="642" width="28" height="28" transform="rotate(0,712,656)"/><path d="M 726 642v 28h 14a 14 14, 0, 0, 0, 0 -28" transform="rotate(0,740,656)"/><path d="M 782 642v 28h 14a 14 14, 0, 0, 0, 0 -28" transform="rotate(90,796,656)"/><circle cx="852" cy="656" r="14" transform="rotate(0,852,656)"/><rect x="894" y="642" width="28" height="28" transform="rotate(0,908,656)"/><path d="M 978 642v 28h 14a 14 14, 0, 0, 0, 0 -28" transform="rotate(90,992,656)"/><circle cx="1048" cy="656" r="14" transform="rotate(0,1048,656)"/><rect x="1146" y="642" width="28" height="28" transform="rotate(0,1160,656)"/><circle cx="68" cy="684" r="14" transform="rotate(0,68,684)"/><path d="M 222 670v 28h 14a 14 14, 0, 0, 0, 0 -28" transform="rotate(180,236,684)"/><rect x="250" y="670" width="28" height="28" transform="rotate(0,264,684)"/><path d="M 306 670v 28h 14a 14 14, 0, 0, 0, 0 -28" transform="rotate(-90,320,684)"/><path d="M 362 670v 28h 28v -14a 14 14, 0, 0, 0, -14 -14" transform="rotate(180,376,684)"/><path d="M 390 670v 28h 14a 14 14, 0, 0, 0, 0 -28" transform="rotate(0,404,684)"/><circle cx="516" cy="684" r="14" transform="rotate(0,516,684)"/><rect x="558" y="670" width="28" height="28" transform="rotate(0,572,684)"/><path d="M 586 670v 28h 28v -14a 14 14, 0, 0, 0, -14 -14" transform="rotate(90,600,684)"/><rect x="670" y="670" width="28" height="28" transform="rotate(0,684,684)"/><circle cx="768" cy="684" r="14" transform="rotate(0,768,684)"/><path d="M 866 670v 28h 14a 14 14, 0, 0, 0, 0 -28" transform="rotate(180,880,684)"/><rect x="894" y="670" width="28" height="28" transform="rotate(0,908,684)"/><path d="M 1062 670v 28h 14a 14 14, 0, 0, 0, 0 -28" transform="rotate(-90,1076,684)"/><path d="M 1146 670v 28h 14a 14 14, 0, 0, 0, 0 -28" transform="rotate(90,1160,684)"/><path d="M 110 698v 28h 28v -14a 14 14, 0, 0, 0, -14 -14" transform="rotate(-90,124,712)"/><rect x="138" y="698" width="28" height="28" transform="rotate(0,152,712)"/><rect x="166" y="698" width="28" height="28" transform="rotate(0,180,712)"/><path d="M 194 698v 28h 14a 14 14, 0, 0, 0, 0 -28" transform="rotate(0,208,712)"/><path d="M 250 698v 28h 28v -14a 14 14, 0, 0, 0, -14 -14" transform="rotate(180,264,712)"/><rect x="278" y="698" width="28" height="28" transform="rotate(0,292,712)"/><rect x="306" y="698" width="28" height="28" transform="rotate(0,320,712)"/><path d="M 334 698v 28h 14a 14 14, 0, 0, 0, 0 -28" transform="rotate(0,348,712)"/><path d="M 530 698v 28h 14a 14 14, 0, 0, 0, 0 -28" transform="rotate(180,544,712)"/><rect x="558" y="698" width="28" height="28" transform="rotate(0,572,712)"/><path d="M 642 698v 28h 28v -14a 14 14, 0, 0, 0, -14 -14" transform="rotate(-90,656,712)"/><rect x="670" y="698" width="28" height="28" transform="rotate(0,684,712)"/><path d="M 782 698v 28h 14a 14 14, 0, 0, 0, 0 -28" transform="rotate(-90,796,712)"/><rect x="894" y="698" width="28" height="28" transform="rotate(0,908,712)"/><path d="M 922 698v 28h 14a 14 14, 0, 0, 0, 0 -28" transform="rotate(0,936,712)"/><path d="M 978 698v 28h 28v -14a 14 14, 0, 0, 0, -14 -14" transform="rotate(-90,992,712)"/><path d="M 1006 698v 28h 28v -14a 14 14, 0, 0, 0, -14 -14" transform="rotate(0,1020,712)"/><rect x="1062" y="698" width="28" height="28" transform="rotate(0,1076,712)"/><path d="M 82 726v 28h 14a 14 14, 0, 0, 0, 0 -28" transform="rotate(180,96,740)"/><path d="M 110 726v 28h 28v -14a 14 14, 0, 0, 0, -14 -14" transform="rotate(90,124,740)"/><rect x="166" y="726" width="28" height="28" transform="rotate(0,180,740)"/><path d="M 278 726v 28h 14a 14 14, 0, 0, 0, 0 -28" transform="rotate(90,292,740)"/><path d="M 502 726v 28h 14a 14 14, 0, 0, 0, 0 -28" transform="rotate(-90,516,740)"/><path d="M 558 726v 28h 14a 14 14, 0, 0, 0, 0 -28" transform="rotate(90,572,740)"/><path d="M 642 726v 28h 28v -14a 14 14, 0, 0, 0, -14 -14" transform="rotate(180,656,740)"/><rect x="670" y="726" width="28" height="28" transform="rotate(0,684,740)"/><rect x="698" y="726" width="28" height="28" transform="rotate(0,712,740)"/><path d="M 726 726v 28h 28v -14a 14 14, 0, 0, 0, -14 -14" transform="rotate(0,740,740)"/><rect x="782" y="726" width="28" height="28" transform="rotate(0,796,740)"/><path d="M 810 726v 28h 28v -14a 14 14, 0, 0, 0, -14 -14" transform="rotate(0,824,740)"/><rect x="894" y="726" width="28" height="28" transform="rotate(0,908,740)"/><path d="M 950 726v 28h 14a 14 14, 0, 0, 0, 0 -28" transform="rotate(180,964,740)"/><rect x="978" y="726" width="28" height="28" transform="rotate(0,992,740)"/><path d="M 1006 726v 28h 28v -14a 14 14, 0, 0, 0, -14 -14" transform="rotate(90,1020,740)"/><rect x="1062" y="726" width="28" height="28" transform="rotate(0,1076,740)"/><path d="M 1146 726v 28h 14a 14 14, 0, 0, 0, 0 -28" transform="rotate(-90,1160,740)"/><path d="M 26 754v 28h 14a 14 14, 0, 0, 0, 0 -28" transform="rotate(180,40,768)"/><path d="M 54 754v 28h 28v -14a 14 14, 0, 0, 0, -14 -14" transform="rotate(0,68,768)"/><path d="M 138 754v 28h 28v -14a 14 14, 0, 0, 0, -14 -14" transform="rotate(-90,152,768)"/><rect x="166" y="754" width="28" height="28" transform="rotate(0,180,768)"/><path d="M 194 754v 28h 14a 14 14, 0, 0, 0, 0 -28" transform="rotate(0,208,768)"/><circle cx="348" cy="768" r="14" transform="rotate(0,348,768)"/><path d="M 390 754v 28h 14a 14 14, 0, 0, 0, 0 -28" transform="rotate(180,404,768)"/><path d="M 418 754v 28h 14a 14 14, 0, 0, 0, 0 -28" transform="rotate(0,432,768)"/><path d="M 474 754v 28h 14a 14 14, 0, 0, 0, 0 -28" transform="rotate(180,488,768)"/><rect x="502" y="754" width="28" height="28" transform="rotate(0,516,768)"/><path d="M 530 754v 28h 28v -14a 14 14, 0, 0, 0, -14 -14" transform="rotate(0,544,768)"/><path d="M 670 754v 28h 28v -14a 14 14, 0, 0, 0, -14 -14" transform="rotate(180,684,768)"/><rect x="698" y="754" width="28" height="28" transform="rotate(0,712,768)"/><path d="M 726 754v 28h 28v -14a 14 14, 0, 0, 0, -14 -14" transform="rotate(90,740,768)"/><path d="M 782 754v 28h 28v -14a 14 14, 0, 0, 0, -14 -14" transform="rotate(180,796,768)"/><rect x="810" y="754" width="28" height="28" transform="rotate(0,824,768)"/><path d="M 838 754v 28h 14a 14 14, 0, 0, 0, 0 -28" transform="rotate(0,852,768)"/><rect x="894" y="754" width="28" height="28" transform="rotate(0,908,768)"/><rect x="1062" y="754" width="28" height="28" transform="rotate(0,1076,768)"/><rect x="1090" y="754" width="28" height="28" transform="rotate(0,1104,768)"/><rect x="1118" y="754" width="28" height="28" transform="rotate(0,1132,768)"/><path d="M 1146 754v 28h 28v -14a 14 14, 0, 0, 0, -14 -14" transform="rotate(90,1160,768)"/><path d="M 54 782v 28h 28v -14a 14 14, 0, 0, 0, -14 -14" transform="rotate(180,68,796)"/><path d="M 82 782v 28h 14a 14 14, 0, 0, 0, 0 -28" transform="rotate(0,96,796)"/><path d="M 138 782v 28h 28v -14a 14 14, 0, 0, 0, -14 -14" transform="rotate(180,152,796)"/><path d="M 166 782v 28h 28v -14a 14 14, 0, 0, 0, -14 -14" transform="rotate(90,180,796)"/><path d="M 222 782v 28h 14a 14 14, 0, 0, 0, 0 -28" transform="rotate(180,236,796)"/><path d="M 250 782v 28h 14a 14 14, 0, 0, 0, 0 -28" transform="rotate(0,264,796)"/><path d="M 306 782v 28h 14a 14 14, 0, 0, 0, 0 -28" transform="rotate(-90,320,796)"/><path d="M 362 782v 28h 14a 14 14, 0, 0, 0, 0 -28" transform="rotate(-90,376,796)"/><path d="M 446 782v 28h 14a 14 14, 0, 0, 0, 0 -28" transform="rotate(-90,460,796)"/><rect x="530" y="782" width="28" height="28" transform="rotate(0,544,796)"/><rect x="698" y="782" width="28" height="28" transform="rotate(0,712,796)"/><circle cx="768" cy="796" r="14" transform="rotate(0,768,796)"/><path d="M 810 782v 28h 14a 14 14, 0, 0, 0, 0 -28" transform="rotate(90,824,796)"/><path d="M 894 782v 28h 28v -14a 14 14, 0, 0, 0, -14 -14" transform="rotate(180,908,796)"/><path d="M 922 782v 28h 28v -14a 14 14, 0, 0, 0, -14 -14" transform="rotate(0,936,796)"/><path d="M 1062 782v 28h 14a 14 14, 0, 0, 0, 0 -28" transform="rotate(90,1076,796)"/><path d="M 1118 782v 28h 14a 14 14, 0, 0, 0, 0 -28" transform="rotate(90,1132,796)"/><circle cx="124" cy="824" r="14" transform="rotate(0,124,824)"/><circle cx="208" cy="824" r="14" transform="rotate(0,208,824)"/><path d="M 278 810v 28h 14a 14 14, 0, 0, 0, 0 -28" transform="rotate(180,292,824)"/><path d="M 306 810v 28h 28v -14a 14 14, 0, 0, 0, -14 -14" transform="rotate(90,320,824)"/><path d="M 362 810v 28h 28v -14a 14 14, 0, 0, 0, -14 -14" transform="rotate(180,376,824)"/><path d="M 390 810v 28h 28v -14a 14 14, 0, 0, 0, -14 -14" transform="rotate(0,404,824)"/><rect x="446" y="810" width="28" height="28" transform="rotate(0,460,824)"/><path d="M 474 810v 28h 14a 14 14, 0, 0, 0, 0 -28" transform="rotate(0,488,824)"/><rect x="530" y="810" width="28" height="28" transform="rotate(0,544,824)"/><path d="M 558 810v 28h 14a 14 14, 0, 0, 0, 0 -28" transform="rotate(0,572,824)"/><circle cx="656" cy="824" r="14" transform="rotate(0,656,824)"/><rect x="698" y="810" width="28" height="28" transform="rotate(0,712,824)"/><circle cx="796" cy="824" r="14" transform="rotate(0,796,824)"/><rect x="922" y="810" width="28" height="28" transform="rotate(0,936,824)"/><rect x="950" y="810" width="28" height="28" transform="rotate(0,964,824)"/><rect x="978" y="810" width="28" height="28" transform="rotate(0,992,824)"/><path d="M 1006 810v 28h 14a 14 14, 0, 0, 0, 0 -28" transform="rotate(0,1020,824)"/><path d="M 1146 810v 28h 14a 14 14, 0, 0, 0, 0 -28" transform="rotate(-90,1160,824)"/><path d="M 82 838v 28h 14a 14 14, 0, 0, 0, 0 -28" transform="rotate(-90,96,852)"/><path d="M 138 838v 28h 28v -14a 14 14, 0, 0, 0, -14 -14" transform="rotate(-90,152,852)"/><path d="M 166 838v 28h 28v -14a 14 14, 0, 0, 0, -14 -14" transform="rotate(0,180,852)"/><path d="M 222 838v 28h 14a 14 14, 0, 0, 0, 0 -28" transform="rotate(-90,236,852)"/><path d="M 334 838v 28h 14a 14 14, 0, 0, 0, 0 -28" transform="rotate(-90,348,852)"/><rect x="390" y="838" width="28" height="28" transform="rotate(0,404,852)"/><rect x="446" y="838" width="28" height="28" transform="rotate(0,460,852)"/><path d="M 502 838v 28h 28v -14a 14 14, 0, 0, 0, -14 -14" transform="rotate(-90,516,852)"/><path d="M 530 838v 28h 28v -14a 14 14, 0, 0, 0, -14 -14" transform="rotate(90,544,852)"/><rect x="698" y="838" width="28" height="28" transform="rotate(0,712,852)"/><circle cx="852" cy="852" r="14" transform="rotate(0,852,852)"/><rect x="922" y="838" width="28" height="28" transform="rotate(0,936,852)"/><path d="M 1062 838v 28h 14a 14 14, 0, 0, 0, 0 -28" transform="rotate(180,1076,852)"/><rect x="1090" y="838" width="28" height="28" transform="rotate(0,1104,852)"/><rect x="1118" y="838" width="28" height="28" transform="rotate(0,1132,852)"/><rect x="1146" y="838" width="28" height="28" transform="rotate(0,1160,852)"/><path d="M 26 866v 28h 14a 14 14, 0, 0, 0, 0 -28" transform="rotate(180,40,880)"/><rect x="54" y="866" width="28" height="28" transform="rotate(0,68,880)"/><rect x="82" y="866" width="28" height="28" transform="rotate(0,96,880)"/><rect x="110" y="866" width="28" height="28" transform="rotate(0,124,880)"/><rect x="138" y="866" width="28" height="28" transform="rotate(0,152,880)"/><rect x="166" y="866" width="28" height="28" transform="rotate(0,180,880)"/><rect x="194" y="866" width="28" height="28" transform="rotate(0,208,880)"/><rect x="222" y="866" width="28" height="28" transform="rotate(0,236,880)"/><path d="M 278 866v 28h 14a 14 14, 0, 0, 0, 0 -28" transform="rotate(180,292,880)"/><rect x="306" y="866" width="28" height="28" transform="rotate(0,320,880)"/><path d="M 334 866v 28h 28v -14a 14 14, 0, 0, 0, -14 -14" transform="rotate(90,348,880)"/><rect x="390" y="866" width="28" height="28" transform="rotate(0,404,880)"/><rect x="446" y="866" width="28" height="28" transform="rotate(0,460,880)"/><rect x="502" y="866" width="28" height="28" transform="rotate(0,516,880)"/><path d="M 558 866v 28h 14a 14 14, 0, 0, 0, 0 -28" transform="rotate(180,572,880)"/><rect x="586" y="866" width="28" height="28" transform="rotate(0,600,880)"/><path d="M 614 866v 28h 28v -14a 14 14, 0, 0, 0, -14 -14" transform="rotate(0,628,880)"/><rect x="698" y="866" width="28" height="28" transform="rotate(0,712,880)"/><circle cx="796" cy="880" r="14" transform="rotate(0,796,880)"/><rect x="922" y="866" width="28" height="28" transform="rotate(0,936,880)"/><path d="M 950 866v 28h 14a 14 14, 0, 0, 0, 0 -28" transform="rotate(0,964,880)"/><path d="M 1034 866v 28h 14a 14 14, 0, 0, 0, 0 -28" transform="rotate(-90,1048,880)"/><path d="M 1146 866v 28h 14a 14 14, 0, 0, 0, 0 -28" transform="rotate(90,1160,880)"/><rect x="82" y="894" width="28" height="28" transform="rotate(0,96,908)"/><path d="M 110 894v 28h 28v -14a 14 14, 0, 0, 0, -14 -14" transform="rotate(90,124,908)"/><path d="M 166 894v 28h 14a 14 14, 0, 0, 0, 0 -28" transform="rotate(90,180,908)"/><rect x="222" y="894" width="28" height="28" transform="rotate(0,236,908)"/><path d="M 250 894v 28h 14a 14 14, 0, 0, 0, 0 -28" transform="rotate(0,264,908)"/><rect x="390" y="894" width="28" height="28" transform="rotate(0,404,908)"/><rect x="418" y="894" width="28" height="28" transform="rotate(0,432,908)"/><rect x="446" y="894" width="28" height="28" transform="rotate(0,460,908)"/><rect x="474" y="894" width="28" height="28" transform="rotate(0,488,908)"/><rect x="502" y="894" width="28" height="28" transform="rotate(0,516,908)"/><rect x="586" y="894" width="28" height="28" transform="rotate(0,600,908)"/><rect x="614" y="894" width="28" height="28" transform="rotate(0,628,908)"/><path d="M 670 894v 28h 14a 14 14, 0, 0, 0, 0 -28" transform="rotate(180,684,908)"/><path d="M 698 894v 28h 28v -14a 14 14, 0, 0, 0, -14 -14" transform="rotate(90,712,908)"/><circle cx="768" cy="908" r="14" transform="rotate(0,768,908)"/><path d="M 894 894v 28h 14a 14 14, 0, 0, 0, 0 -28" transform="rotate(180,908,908)"/><rect x="922" y="894" width="28" height="28" transform="rotate(0,936,908)"/><path d="M 978 894v 28h 28v -14a 14 14, 0, 0, 0, -14 -14" transform="rotate(-90,992,908)"/><rect x="1006" y="894" width="28" height="28" transform="rotate(0,1020,908)"/><rect x="1034" y="894" width="28" height="28" transform="rotate(0,1048,908)"/><path d="M 1062 894v 28h 28v -14a 14 14, 0, 0, 0, -14 -14" transform="rotate(0,1076,908)"/><path d="M 1118 894v 28h 14a 14 14, 0, 0, 0, 0 -28" transform="rotate(-90,1132,908)"/><path d="M 26 922v 28h 14a 14 14, 0, 0, 0, 0 -28" transform="rotate(180,40,936)"/><rect x="54" y="922" width="28" height="28" transform="rotate(0,68,936)"/><path d="M 82 922v 28h 28v -14a 14 14, 0, 0, 0, -14 -14" transform="rotate(90,96,936)"/><path d="M 194 922v 28h 14a 14 14, 0, 0, 0, 0 -28" transform="rotate(180,208,936)"/><path d="M 222 922v 28h 28v -14a 14 14, 0, 0, 0, -14 -14" transform="rotate(90,236,936)"/><path d="M 334 922v 28h 14a 14 14, 0, 0, 0, 0 -28" transform="rotate(180,348,936)"/><rect x="362" y="922" width="28" height="28" transform="rotate(0,376,936)"/><rect x="390" y="922" width="28" height="28" transform="rotate(0,404,936)"/><path d="M 418 922v 28h 28v -14a 14 14, 0, 0, 0, -14 -14" transform="rotate(90,432,936)"/><path d="M 502 922v 28h 28v -14a 14 14, 0, 0, 0, -14 -14" transform="rotate(180,516,936)"/><path d="M 530 922v 28h 14a 14 14, 0, 0, 0, 0 -28" transform="rotate(0,544,936)"/><rect x="586" y="922" width="28" height="28" transform="rotate(0,600,936)"/><rect x="614" y="922" width="28" height="28" transform="rotate(0,628,936)"/><path d="M 782 922v 28h 28v -14a 14 14, 0, 0, 0, -14 -14" transform="rotate(-90,796,936)"/><path d="M 810 922v 28h 28v -14a 14 14, 0, 0, 0, -14 -14" transform="rotate(0,824,936)"/><rect x="922" y="922" width="28" height="28" transform="rotate(0,936,936)"/><rect x="950" y="922" width="28" height="28" transform="rotate(0,964,936)"/><rect x="978" y="922" width="28" height="28" transform="rotate(0,992,936)"/><rect x="1006" y="922" width="28" height="28" transform="rotate(0,1020,936)"/><rect x="1034" y="922" width="28" height="28" transform="rotate(0,1048,936)"/><rect x="1062" y="922" width="28" height="28" transform="rotate(0,1076,936)"/><path d="M 1118 922v 28h 14a 14 14, 0, 0, 0, 0 -28" transform="rotate(90,1132,936)"/><path d="M 250 950v 28h 14a 14 14, 0, 0, 0, 0 -28" transform="rotate(180,264,964)"/><rect x="278" y="950" width="28" height="28" transform="rotate(0,292,964)"/><path d="M 306 950v 28h 14a 14 14, 0, 0, 0, 0 -28" transform="rotate(0,320,964)"/><path d="M 362 950v 28h 28v -14a 14 14, 0, 0, 0, -14 -14" transform="rotate(180,376,964)"/><path d="M 390 950v 28h 28v -14a 14 14, 0, 0, 0, -14 -14" transform="rotate(90,404,964)"/><rect x="586" y="950" width="28" height="28" transform="rotate(0,600,964)"/><rect x="614" y="950" width="28" height="28" transform="rotate(0,628,964)"/><path d="M 670 950v 28h 28v -14a 14 14, 0, 0, 0, -14 -14" transform="rotate(-90,684,964)"/><path d="M 698 950v 28h 14a 14 14, 0, 0, 0, 0 -28" transform="rotate(0,712,964)"/><path d="M 754 950v 28h 28v -14a 14 14, 0, 0, 0, -14 -14" transform="rotate(-90,768,964)"/><rect x="782" y="950" width="28" height="28" transform="rotate(0,796,964)"/><rect x="810" y="950" width="28" height="28" transform="rotate(0,824,964)"/><rect x="838" y="950" width="28" height="28" transform="rotate(0,852,964)"/><path d="M 866 950v 28h 14a 14 14, 0, 0, 0, 0 -28" transform="rotate(0,880,964)"/><rect x="922" y="950" width="28" height="28" transform="rotate(0,936,964)"/><rect x="1034" y="950" width="28" height="28" transform="rotate(0,1048,964)"/><rect x="1062" y="950" width="28" height="28" transform="rotate(0,1076,964)"/><path d="M 1090 950v 28h 14a 14 14, 0, 0, 0, 0 -28" transform="rotate(0,1104,964)"/><path d="M 1146 950v 28h 14a 14 14, 0, 0, 0, 0 -28" transform="rotate(-90,1160,964)"/><circle cx="348" cy="992" r="14" transform="rotate(0,348,992)"/><path d="M 474 978v 28h 28v -14a 14 14, 0, 0, 0, -14 -14" transform="rotate(-90,488,992)"/><path d="M 502 978v 28h 14a 14 14, 0, 0, 0, 0 -28" transform="rotate(0,516,992)"/><rect x="586" y="978" width="28" height="28" transform="rotate(0,600,992)"/><rect x="614" y="978" width="28" height="28" transform="rotate(0,628,992)"/><rect x="642" y="978" width="28" height="28" transform="rotate(0,656,992)"/><path d="M 670 978v 28h 28v -14a 14 14, 0, 0, 0, -14 -14" transform="rotate(90,684,992)"/><path d="M 726 978v 28h 14a 14 14, 0, 0, 0, 0 -28" transform="rotate(180,740,992)"/><rect x="754" y="978" width="28" height="28" transform="rotate(0,768,992)"/><path d="M 782 978v 28h 28v -14a 14 14, 0, 0, 0, -14 -14" transform="rotate(90,796,992)"/><rect x="922" y="978" width="28" height="28" transform="rotate(0,936,992)"/><circle cx="992" cy="992" r="14" transform="rotate(0,992,992)"/><rect x="1034" y="978" width="28" height="28" transform="rotate(0,1048,992)"/><path d="M 1118 978v 28h 28v -14a 14 14, 0, 0, 0, -14 -14" transform="rotate(-90,1132,992)"/><path d="M 1146 978v 28h 28v -14a 14 14, 0, 0, 0, -14 -14" transform="rotate(90,1160,992)"/><circle cx="320" cy="1020" r="14" transform="rotate(0,320,1020)"/><path d="M 362 1006v 28h 28v -14a 14 14, 0, 0, 0, -14 -14" transform="rotate(-90,376,1020)"/><rect x="390" y="1006" width="28" height="28" transform="rotate(0,404,1020)"/><rect x="418" y="1006" width="28" height="28" transform="rotate(0,432,1020)"/><rect x="446" y="1006" width="28" height="28" transform="rotate(0,460,1020)"/><rect x="474" y="1006" width="28" height="28" transform="rotate(0,488,1020)"/><rect x="586" y="1006" width="28" height="28" transform="rotate(0,600,1020)"/><path d="M 642 1006v 28h 14a 14 14, 0, 0, 0, 0 -28" transform="rotate(90,656,1020)"/><circle cx="712" cy="1020" r="14" transform="rotate(0,712,1020)"/><rect x="754" y="1006" width="28" height="28" transform="rotate(0,768,1020)"/><path d="M 838 1006v 28h 14a 14 14, 0, 0, 0, 0 -28" transform="rotate(-90,852,1020)"/><rect x="922" y="1006" width="28" height="28" transform="rotate(0,936,1020)"/><rect x="1034" y="1006" width="28" height="28" transform="rotate(0,1048,1020)"/><path d="M 1062 1006v 28h 28v -14a 14 14, 0, 0, 0, -14 -14" transform="rotate(0,1076,1020)"/><rect x="1118" y="1006" width="28" height="28" transform="rotate(0,1132,1020)"/><path d="M 278 1034v 28h 14a 14 14, 0, 0, 0, 0 -28" transform="rotate(-90,292,1048)"/><path d="M 362 1034v 28h 28v -14a 14 14, 0, 0, 0, -14 -14" transform="rotate(180,376,1048)"/><rect x="390" y="1034" width="28" height="28" transform="rotate(0,404,1048)"/><rect x="418" y="1034" width="28" height="28" transform="rotate(0,432,1048)"/><rect x="446" y="1034" width="28" height="28" transform="rotate(0,460,1048)"/><rect x="474" y="1034" width="28" height="28" transform="rotate(0,488,1048)"/><rect x="502" y="1034" width="28" height="28" transform="rotate(0,516,1048)"/><rect x="530" y="1034" width="28" height="28" transform="rotate(0,544,1048)"/><rect x="558" y="1034" width="28" height="28" transform="rotate(0,572,1048)"/><path d="M 586 1034v 28h 28v -14a 14 14, 0, 0, 0, -14 -14" transform="rotate(90,600,1048)"/><path d="M 670 1034v 28h 14a 14 14, 0, 0, 0, 0 -28" transform="rotate(-90,684,1048)"/><path d="M 726 1034v 28h 14a 14 14, 0, 0, 0, 0 -28" transform="rotate(180,740,1048)"/><rect x="754" y="1034" width="28" height="28" transform="rotate(0,768,1048)"/><path d="M 810 1034v 28h 28v -14a 14 14, 0, 0, 0, -14 -14" transform="rotate(-90,824,1048)"/><rect x="838" y="1034" width="28" height="28" transform="rotate(0,852,1048)"/><path d="M 894 1034v 28h 28v -14a 14 14, 0, 0, 0, -14 -14" transform="rotate(-90,908,1048)"/><rect x="922" y="1034" width="28" height="28" transform="rotate(0,936,1048)"/><rect x="950" y="1034" width="28" height="28" transform="rotate(0,964,1048)"/><rect x="978" y="1034" width="28" height="28" transform="rotate(0,992,1048)"/><rect x="1006" y="1034" width="28" height="28" transform="rotate(0,1020,1048)"/><rect x="1034" y="1034" width="28" height="28" transform="rotate(0,1048,1048)"/><rect x="1062" y="1034" width="28" height="28" transform="rotate(0,1076,1048)"/><rect x="1118" y="1034" width="28" height="28" transform="rotate(0,1132,1048)"/><path d="M 278 1062v 28h 14a 14 14, 0, 0, 0, 0 -28" transform="rotate(90,292,1076)"/><path d="M 474 1062v 28h 14a 14 14, 0, 0, 0, 0 -28" transform="rotate(90,488,1076)"/><rect x="558" y="1062" width="28" height="28" transform="rotate(0,572,1076)"/><rect x="670" y="1062" width="28" height="28" transform="rotate(0,684,1076)"/><path d="M 698 1062v 28h 14a 14 14, 0, 0, 0, 0 -28" transform="rotate(0,712,1076)"/><path d="M 754 1062v 28h 28v -14a 14 14, 0, 0, 0, -14 -14" transform="rotate(180,768,1076)"/><rect x="782" y="1062" width="28" height="28" transform="rotate(0,796,1076)"/><rect x="810" y="1062" width="28" height="28" transform="rotate(0,824,1076)"/><rect x="838" y="1062" width="28" height="28" transform="rotate(0,852,1076)"/><rect x="894" y="1062" width="28" height="28" transform="rotate(0,908,1076)"/><rect x="922" y="1062" width="28" height="28" transform="rotate(0,936,1076)"/><path d="M 1006 1062v 28h 28v -14a 14 14, 0, 0, 0, -14 -14" transform="rotate(180,1020,1076)"/><rect x="1034" y="1062" width="28" height="28" transform="rotate(0,1048,1076)"/><rect x="1062" y="1062" width="28" height="28" transform="rotate(0,1076,1076)"/><rect x="1090" y="1062" width="28" height="28" transform="rotate(0,1104,1076)"/><rect x="1118" y="1062" width="28" height="28" transform="rotate(0,1132,1076)"/><path d="M 1146 1062v 28h 28v -14a 14 14, 0, 0, 0, -14 -14" transform="rotate(0,1160,1076)"/><path d="M 250 1090v 28h 14a 14 14, 0, 0, 0, 0 -28" transform="rotate(-90,264,1104)"/><path d="M 306 1090v 28h 28v -14a 14 14, 0, 0, 0, -14 -14" transform="rotate(-90,320,1104)"/><path d="M 334 1090v 28h 28v -14a 14 14, 0, 0, 0, -14 -14" transform="rotate(0,348,1104)"/><path d="M 390 1090v 28h 14a 14 14, 0, 0, 0, 0 -28" transform="rotate(-90,404,1104)"/><path d="M 446 1090v 28h 14a 14 14, 0, 0, 0, 0 -28" transform="rotate(-90,460,1104)"/><path d="M 530 1090v 28h 28v -14a 14 14, 0, 0, 0, -14 -14" transform="rotate(-90,544,1104)"/><path d="M 558 1090v 28h 28v -14a 14 14, 0, 0, 0, -14 -14" transform="rotate(90,572,1104)"/><path d="M 670 1090v 28h 14a 14 14, 0, 0, 0, 0 -28" transform="rotate(90,684,1104)"/><rect x="782" y="1090" width="28" height="28" transform="rotate(0,796,1104)"/><path d="M 838 1090v 28h 14a 14 14, 0, 0, 0, 0 -28" transform="rotate(90,852,1104)"/><rect x="894" y="1090" width="28" height="28" transform="rotate(0,908,1104)"/><rect x="922" y="1090" width="28" height="28" transform="rotate(0,936,1104)"/><path d="M 950 1090v 28h 28v -14a 14 14, 0, 0, 0, -14 -14" transform="rotate(0,964,1104)"/><path d="M 1034 1090v 28h 14a 14 14, 0, 0, 0, 0 -28" transform="rotate(90,1048,1104)"/><path d="M 1090 1090v 28h 28v -14a 14 14, 0, 0, 0, -14 -14" transform="rotate(180,1104,1104)"/><rect x="1118" y="1090" width="28" height="28" transform="rotate(0,1132,1104)"/><path d="M 1146 1090v 28h 28v -14a 14 14, 0, 0, 0, -14 -14" transform="rotate(90,1160,1104)"/><path d="M 250 1118v 28h 14a 14 14, 0, 0, 0, 0 -28" transform="rotate(90,264,1132)"/><rect x="306" y="1118" width="28" height="28" transform="rotate(0,320,1132)"/><rect x="334" y="1118" width="28" height="28" transform="rotate(0,348,1132)"/><rect x="390" y="1118" width="28" height="28" transform="rotate(0,404,1132)"/><rect x="418" y="1118" width="28" height="28" transform="rotate(0,432,1132)"/><path d="M 446 1118v 28h 28v -14a 14 14, 0, 0, 0, -14 -14" transform="rotate(90,460,1132)"/><path d="M 502 1118v 28h 28v -14a 14 14, 0, 0, 0, -14 -14" transform="rotate(-90,516,1132)"/><rect x="530" y="1118" width="28" height="28" transform="rotate(0,544,1132)"/><path d="M 586 1118v 28h 28v -14a 14 14, 0, 0, 0, -14 -14" transform="rotate(-90,600,1132)"/><rect x="614" y="1118" width="28" height="28" transform="rotate(0,628,1132)"/><path d="M 642 1118v 28h 28v -14a 14 14, 0, 0, 0, -14 -14" transform="rotate(0,656,1132)"/><rect x="782" y="1118" width="28" height="28" transform="rotate(0,796,1132)"/><path d="M 894 1118v 28h 28v -14a 14 14, 0, 0, 0, -14 -14" transform="rotate(180,908,1132)"/><rect x="922" y="1118" width="28" height="28" transform="rotate(0,936,1132)"/><rect x="950" y="1118" width="28" height="28" transform="rotate(0,964,1132)"/><path d="M 978 1118v 28h 14a 14 14, 0, 0, 0, 0 -28" transform="rotate(0,992,1132)"/><path d="M 1062 1118v 28h 14a 14 14, 0, 0, 0, 0 -28" transform="rotate(-90,1076,1132)"/><path d="M 278 1146v 28h 14a 14 14, 0, 0, 0, 0 -28" transform="rotate(180,292,1160)"/><rect x="306" y="1146" width="28" height="28" transform="rotate(0,320,1160)"/><path d="M 334 1146v 28h 28v -14a 14 14, 0, 0, 0, -14 -14" transform="rotate(90,348,1160)"/><path d="M 390 1146v 28h 14a 14 14, 0, 0, 0, 0 -28" transform="rotate(90,404,1160)"/><path d="M 474 1146v 28h 14a 14 14, 0, 0, 0, 0 -28" transform="rotate(180,488,1160)"/><rect x="502" y="1146" width="28" height="28" transform="rotate(0,516,1160)"/><rect x="530" y="1146" width="28" height="28" transform="rotate(0,544,1160)"/><rect x="558" y="1146" width="28" height="28" transform="rotate(0,572,1160)"/><path d="M 586 1146v 28h 28v -14a 14 14, 0, 0, 0, -14 -14" transform="rotate(90,600,1160)"/><path d="M 642 1146v 28h 28v -14a 14 14, 0, 0, 0, -14 -14" transform="rotate(180,656,1160)"/><rect x="670" y="1146" width="28" height="28" transform="rotate(0,684,1160)"/><path d="M 698 1146v 28h 14a 14 14, 0, 0, 0, 0 -28" transform="rotate(0,712,1160)"/><path d="M 782 1146v 28h 14a 14 14, 0, 0, 0, 0 -28" transform="rotate(90,796,1160)"/><path d="M 922 1146v 28h 28v -14a 14 14, 0, 0, 0, -14 -14" transform="rotate(180,936,1160)"/><path d="M 950 1146v 28h 28v -14a 14 14, 0, 0, 0, -14 -14" transform="rotate(90,964,1160)"/><path d="M 1034 1146v 28h 14a 14 14, 0, 0, 0, 0 -28" transform="rotate(180,1048,1160)"/><path d="M 1062 1146v 28h 28v -14a 14 14, 0, 0, 0, -14 -14" transform="rotate(90,1076,1160)"/><circle cx="1160" cy="1160" r="14" transform="rotate(0,1160,1160)"/></clipPath><clipPath id="clip-path-corners-square-color-0-0-3"><path clip-rule="evenodd" d="M 26 96v 56a 70 70, 0, 0, 0, 70 70h 56a 70 70, 0, 0, 0, 70 -70v -56a 70 70, 0, 0, 0, -70 -70h -56a 70 70, 0, 0, 0, -70 70M 96 54h 56a 42 42, 0, 0, 1, 42 42v 56a 42 42, 0, 0, 1, -42 42h -56a 42 42, 0, 0, 1, -42 -42v -56a 42 42, 0, 0, 1, 42 -42" transform="rotate(0,124,124)"/></clipPath><clipPath id="clip-path-corners-dot-color-0-0-3"><circle cx="124" cy="124" r="42" transform="rotate(0,124,124)"/></clipPath><clipPath id="clip-path-corners-square-color-1-0-3"><path clip-rule="evenodd" d="M 978 96v 56a 70 70, 0, 0, 0, 70 70h 56a 70 70, 0, 0, 0, 70 -70v -56a 70 70, 0, 0, 0, -70 -70h -56a 70 70, 0, 0, 0, -70 70M 1048 54h 56a 42 42, 0, 0, 1, 42 42v 56a 42 42, 0, 0, 1, -42 42h -56a 42 42, 0, 0, 1, -42 -42v -56a 42 42, 0, 0, 1, 42 -42" transform="rotate(90,1076,124)"/></clipPath><clipPath id="clip-path-corners-dot-color-1-0-3"><circle cx="1076" cy="124" r="42" transform="rotate(90,1076,124)"/></clipPath><clipPath id="clip-path-corners-square-color-0-1-3"><path clip-rule="evenodd" d="M 26 1048v 56a 70 70, 0, 0, 0, 70 70h 56a 70 70, 0, 0, 0, 70 -70v -56a 70 70, 0, 0, 0, -70 -70h -56a 70 70, 0, 0, 0, -70 70M 96 1006h 56a 42 42, 0, 0, 1, 42 42v 56a 42 42, 0, 0, 1, -42 42h -56a 42 42, 0, 0, 1, -42 -42v -56a 42 42, 0, 0, 1, 42 -42" transform="rotate(-90,124,1076)"/></clipPath><clipPath id="clip-path-corners-dot-color-0-1-3"><circle cx="124" cy="1076" r="42" transform="rotate(-90,124,1076)"/></clipPath></defs><rect x="0" y="0" height="1200" width="1200" clip-path="url('#clip-path-background-color-3')" fill="#ffffff"/><rect x="0" y="0" height="1200" width="1200" clip-path="url('#clip-path-dot-color-3')" fill="#000000"/><rect x="26" y="26" height="196" width="196" clip-path="url('#clip-path-corners-square-color-0-0-3')" fill="#000000"/><rect x="82" y="82" height="84" width="84" clip-path="url('#clip-path-corners-dot-color-0-0-3')" fill="#000000"/><rect x="978" y="26" height="196" width="196" clip-path="url('#clip-path-corners-square-color-1-0-3')" fill="#000000"/><rect x="1034" y="82" height="84" width="84" clip-path="url('#clip-path-corners-dot-color-1-0-3')" fill="#000000"/><rect x="26" y="978" height="196" width="196" clip-path="url('#clip-path-corners-square-color-0-1-3')" fill="#000000"/><rect x="82" y="1034" height="84" width="84" clip-path="url('#clip-path-corners-dot-color-0-1-3')" fill="#000000"/></svg>