<?xml version="1.0" standalone="no"?>
<svg xmlns="http://www.w3.org/2000/svg" width="1200" height="1200" xmlns:xlink="http://www.w3.org/1999/xlink" viewBox="0 0 1200 1200"><defs><clipPath id="clip-path-background-color-9"><rect x="0" y="0" width="1200" height="1200"/></clipPath><clipPath id="clip-path-dot-color-9"><path d="M 250 26v 28h 28v -14a 14 14, 0, 0, 0, -14 -14" transform="rotate(-90,264,40)"/><path d="M 278 26v 28h 28v -14a 14 14, 0, 0, 0, -14 -14" transform="rotate(0,292,40)"/><circle cx="348" cy="40" r="14" transform="rotate(0,348,40)"/><path d="M 390 26v 28h 14a 14 14, 0, 0, 0, 0 -28" transform="rotate(180,404,40)"/><path d="M 418 26v 28h 28v -14a 14 14, 0, 0, 0, -14 -14" transform="rotate(0,432,40)"/><circle cx="516" cy="40" r="14" transform="rotate(0,516,40)"/><path d="M 586 26v 28h 14a 14 14, 0, 0, 0, 0 -28" transform="rotate(180,600,40)"/><rect x="614" y="26" width="28" height="28" transform="rotate(0,628,40)"/><rect x="642" y="26" width="28" height="28" transform="rotate(0,656,40)"/><rect x="670" y="26" width="28" height="28" transform="rotate(0,684,40)"/><rect x="698" y="26" width="28" height="28" transform="rotate(0,712,40)"/><rect x="726" y="26" width="28" height="28" transform="rotate(0,740,40)"/><rect x="754" y="26" width="28" height="28" transform="rotate(0,768,40)"/><path d="M 782 26v 28h 28v -14a 14 14, 0, 0, 0, -14 -14" transform="rotate(0,796,40)"/><path d="M 866 26v 28h 14a 14 14, 0, 0, 0, 0 -28" transform="rotate(180,880,40)"/><path d="M 894 26v 28h 28v -14a 14 14, 0, 0, 0, -14 -14" transform="rotate(0,908,40)"/><rect x="250" y="54" width="28" height="28" transform="rotate(0,264,68)"/><rect x="278" y="54" width="28" height="28" transform="rotate(0,292,68)"/><path d="M 306 54v 28h 14a 14 14, 0, 0, 0, 0 -28" transform="rotate(0,320,68)"/><circle cx="376" cy="68" r="14" transform="rotate(0,376,68)"/><path d="M 418 54v 28h 14a 14 14, 0, 0, 0, 0 -28" transform="rotate(90,432,68)"/><circle cx="488" cy="68" r="14" transform="rotate(0,488,68)"/><path d="M 530 54v 28h 14a 14 14, 0, 0, 0, 0 -28" transform="rotate(180,544,68)"/><path d="M 558 54v 28h 14a 14 14, 0, 0, 0, 0 -28" transform="rotate(0,572,68)"/><rect x="698" y="54" width="28" height="28" transform="rotate(0,712,68)"/><rect x="754" y="54" width="28" height="28" transform="rotate(0,768,68)"/><rect x="782" y="54" width="28" height="28" transform="rotate(0,796,68)"/><circle cx="852" cy="68" r="14" transform="rotate(0,852,68)"/><rect x="894" y="54" width="28" height="28" transform="rotate(0,908,68)"/><rect x="250" y="82" width="28" height="28" transform="rotate(0,264,96)"/><path d="M 334 82v 28h 14a 14 14, 0, 0, 0, 0 -28" transform="rotate(-90,348,96)"/><circle cx="404" cy="96" r="14" transform="rotate(0,404,96)"/><path d="M 446 82v 28h 14a 14 14, 0, 0, 0, 0 -28" transform="rotate(-90,460,96)"/><circle cx="516" cy="96" r="14" transform="rotate(0,516,96)"/><circle cx="600" cy="96" r="14" transform="rotate(0,600,96)"/><path d="M 642 82v 28h 14a 14 14, 0, 0, 0, 0 -28" transform="rotate(180,656,96)"/><rect x="670" y="82" width="28" height="28" transform="rotate(0,684,96)"/><rect x="698" y="82" width="28" height="28" transform="rotate(0,712,96)"/><rect x="726" y="82" width="28" height="28" transform="rotate(0,740,96)"/><rect x="754" y="82" width="28" height="28" transform="rotate(0,768,96)"/><rect x="782" y="82" width="28" height="28" transform="rotate(0,796,96)"/><rect x="894" y="82" width="28" height="28" transform="rotate(0,908,96)"/><rect x="250" y="110" width="28" height="28" transform="rotate(0,264,124)"/><path d="M 278 110v 28h 14a 14 14, 0, 0, 0, 0 -28" transform="rotate(0,292,124)"/><path d="M 334 110v 28h 14a 14 14, 0, 0, 0, 0 -28" transform="rotate(90,348,124)"/><path d="M 446 110v 28h 28v -14a 14 14, 0, 0, 0, -14 -14" transform="rotate(180,460,124)"/><path d="M 474 110v 28h 28v -14a 14 14, 0, 0, 0, -14 -14" transform="rotate(0,488,124)"/><path d="M 558 110v 28h 14a 14 14, 0, 0, 0, 0 -28" transform="rotate(-90,572,124)"/><path d="M 614 110v 28h 14a 14 14, 0, 0, 0, 0 -28" transform="rotate(-90,628,124)"/><rect x="670" y="110" width="28" height="28" transform="rotate(0,684,124)"/><path d="M 726 110v 28h 28v -14a 14 14, 0, 0, 0, -14 -14" transform="rotate(180,740,124)"/><rect x="754" y="110" width="28" height="28" transform="rotate(0,768,124)"/><rect x="782" y="110" width="28" height="28" transform="rotate(0,796,124)"/><circle cx="852" cy="124" r="14" transform="rotate(0,852,124)"/><rect x="894" y="110" width="28" height="28" transform="rotate(0,908,124)"/><path d="M 922 110v 28h 14a 14 14, 0, 0, 0, 0 -28" transform="rotate(0,936,124)"/><path d="M 250 138v 28h 14a 14 14, 0, 0, 0, 0 -28" transform="rotate(90,264,152)"/><path d="M 306 138v 28h 14a 14 14, 0, 0, 0, 0 -28" transform="rotate(-90,320,152)"/><path d="M 362 138v 28h 14a 14 14, 0, 0, 0, 0 -28" transform="rotate(-90,376,152)"/><path d="M 418 138v 28h 14a 14 14, 0, 0, 0, 0 -28" transform="rotate(-90,432,152)"/><path d="M 474 138v 28h 28v -14a 14 14, 0, 0, 0, -14 -14" transform="rotate(180,488,152)"/><path d="M 502 138v 28h 28v -14a 14 14, 0, 0, 0, -14 -14" transform="rotate(0,516,152)"/><path d="M 558 138v 28h 28v -14a 14 14, 0, 0, 0, -14 -14" transform="rotate(180,572,152)"/><rect x="586" y="138" width="28" height="28" transform="rotate(0,600,152)"/><path d="M 614 138v 28h 28v -14a 14 14, 0, 0, 0, -14 -14" transform="rotate(90,628,152)"/><path d="M 670 138v 28h 28v -14a 14 14, 0, 0, 0, -14 -14" transform="rotate(180,684,152)"/><path d="M 698 138v 28h 14a 14 14, 0, 0, 0, 0 -28" transform="rotate(0,712,152)"/><path d="M 754 138v 28h 28v -14a 14 14, 0, 0, 0, -14 -14" transform="rotate(180,768,152)"/><rect x="782" y="138" width="28" height="28" transform="rotate(0,796,152)"/><rect x="894" y="138" width="28" height="28" transform="rotate(0,908,152)"/><path d="M 278 166v 28h 14a 14 14, 0, 0, 0, 0 -28" transform="rotate(180,292,180)"/><rect x="306" y="166" width="28" height="28" transform="rotate(0,320,180)"/><rect x="334" y="166" width="28" height="28" transform="rotate(0,348,180)"/><rect x="362" y="166" width="28" height="28" transform="rotate(0,376,180)"/><rect x="390" y="166" width="28" height="28" transform="rotate(0,404,180)"/><rect x="418" y="166" width="28" height="28" transform="rotate(0,432,180)"/><path d="M 446 166v 28h 14a 14 14, 0, 0, 0, 0 -28" transform="rotate(0,460,180)"/><path d="M 502 166v 28h 28v -14a 14 14, 0, 0, 0, -14 -14" transform="rotate(180,516,180)"/><path d="M 530 166v 28h 28v -14a 14 14, 0, 0, 0, -14 -14" transform="rotate(0,544,180)"/><rect x="586" y="166" width="28" height="28" transform="rotate(0,600,180)"/><path d="M 782 166v 28h 14a 14 14, 0, 0, 0, 0 -28" transform="rotate(90,796,180)"/><path d="M 894 166v 28h 28v -14a 14 14, 0, 0, 0, -14 -14" transform="rotate(180,908,180)"/><path d="M 922 166v 28h 28v -14a 14 14, 0, 0, 0, -14 -14" transform="rotate(0,936,180)"/><path d="M 250 194v 28h 14a 14 14, 0, 0, 0, 0 -28" transform="rotate(-90,264,208)"/><path d="M 306 194v 28h 14a 14 14, 0, 0, 0, 0 -28" transform="rotate(90,320,208)"/><path d="M 362 194v 28h 14a 14 14, 0, 0, 0, 0 -28" transform="rotate(90,376,208)"/><path d="M 418 194v 28h 14a 14 14, 0, 0, 0, 0 -28" transform="rotate(90,432,208)"/><circle cx="488" cy="208" r="14" transform="rotate(0,488,208)"/><rect x="530" y="194" width="28" height="28" transform="rotate(0,544,208)"/><path d="M 586 194v 28h 14a 14 14, 0, 0, 0, 0 -28" transform="rotate(90,600,208)"/><circle cx="656" cy="208" r="14" transform="rotate(0,656,208)"/><path d="M 698 194v 28h 14a 14 14, 0, 0, 0, 0 -28" transform="rotate(-90,712,208)"/><circle cx="768" cy="208" r="14" transform="rotate(0,768,208)"/><circle cx="824" cy="208" r="14" transform="rotate(0,824,208)"/><path d="M 866 194v 28h 14a 14 14, 0, 0, 0, 0 -28" transform="rotate(-90,880,208)"/><rect x="922" y="194" width="28" height="28" transform="rotate(0,936,208)"/><path d="M 250 222v 28h 14a 14 14, 0, 0, 0, 0 -28" transform="rotate(90,264,236)"/><path d="M 446 222v 28h 14a 14 14, 0, 0, 0, 0 -28" transform="rotate(-90,460,236)"/><path d="M 502 222v 28h 14a 14 14, 0, 0, 0, 0 -28" transform="rotate(180,516,236)"/><rect x="530" y="222" width="28" height="28" transform="rotate(0,544,236)"/><path d="M 698 222v 28h 28v -14a 14 14, 0, 0, 0, -14 -14" transform="rotate(180,712,236)"/><path d="M 726 222v 28h 28v -14a 14 14, 0, 0, 0, -14 -14" transform="rotate(0,740,236)"/><path d="M 838 222v 28h 28v -14a 14 14, 0, 0, 0, -14 -14" transform="rotate(-90,852,236)"/><rect x="866" y="222" width="28" height="28" transform="rotate(0,880,236)"/><rect x="894" y="222" width="28" height="28" transform="rotate(0,908,236)"/><rect x="922" y="222" width="28" height="28" transform="rotate(0,936,236)"/><path d="M 54 250v 28h 28v -14a 14 14, 0, 0, 0, -14 -14" transform="rotate(-90,68,264)"/><path d="M 82 250v 28h 28v -14a 14 14, 0, 0, 0, -14 -14" transform="rotate(0,96,264)"/><path d="M 138 250v 28h 14a 14 14, 0, 0, 0, 0 -28" transform="rotate(-90,152,264)"/><path d="M 194 250v 28h 14a 14 14, 0, 0, 0, 0 -28" transform="rotate(180,208,264)"/><path d="M 222 250v 28h 14a 14 14, 0, 0, 0, 0 -28" transform="rotate(0,236,264)"/><path d="M 306 250v 28h 14a 14 14, 0, 0, 0, 0 -28" transform="rotate(180,320,264)"/><rect x="334" y="250" width="28" height="28" transform="rotate(0,348,264)"/><path d="M 362 250v 28h 14a 14 14, 0, 0, 0, 0 -28" transform="rotate(0,376,264)"/><path d="M 418 250v 28h 14a 14 14, 0, 0, 0, 0 -28" transform="rotate(180,432,264)"/><rect x="446" y="250" width="28" height="28" transform="rotate(0,460,264)"/><rect x="530" y="250" width="28" height="28" transform="rotate(0,544,264)"/><rect x="558" y="250" width="28" height="28" transform="rotate(0,572,264)"/><rect x="586" y="250" width="28" height="28" transform="rotate(0,600,264)"/><rect x="614" y="250" width="28" height="28" transform="rotate(0,628,264)"/><path d="M 642 250v 28h 28v -14a 14 14, 0, 0, 0, -14 -14" transform="rotate(0,656,264)"/><rect x="726" y="250" width="28" height="28" transform="rotate(0,740,264)"/><rect x="838" y="250" width="28" height="28" transform="rotate(0,852,264)"/><rect x="922" y="250" width="28" height="28" transform="rotate(0,936,264)"/><path d="M 978 250v 28h 14a 14 14, 0, 0, 0, 0 -28" transform="rotate(-90,992,264)"/><path d="M 1034 250v 28h 14a 14 14, 0, 0, 0, 0 -28" transform="rotate(180,1048,264)"/><rect x="1062" y="250" width="28" height="28" transform="rotate(0,1076,264)"/><rect x="1090" y="250" width="28" height="28" transform="rotate(0,1104,264)"/><rect x="1118" y="250" width="28" height="28" transform="rotate(0,1132,264)"/><path d="M 1146 250v 28h 28v -14a 14 14, 0, 0, 0, -14 -14" transform="rotate(0,1160,264)"/><path d="M 54 278v 28h 28v -14a 14 14, 0, 0, 0, -14 -14" transform="rotate(180,68,292)"/><rect x="82" y="278" width="28" height="28" transform="rotate(0,96,292)"/><rect x="110" y="278" width="28" height="28" transform="rotate(0,124,292)"/><rect x="138" y="278" width="28" height="28" transform="rotate(0,152,292)"/><path d="M 166 278v 28h 14a 14 14, 0, 0, 0, 0 -28" transform="rotate(0,180,292)"/><path d="M 250 278v 28h 14a 14 14, 0, 0, 0, 0 -28" transform="rotate(-90,264,292)"/><path d="M 334 278v 28h 14a 14 14, 0, 0, 0, 0 -28" transform="rotate(90,348,292)"/><circle cx="404" cy="292" r="14" transform="rotate(0,404,292)"/><rect x="446" y="278" width="28" height="28" transform="rotate(0,460,292)"/><rect x="474" y="278" width="28" height="28" transform="rotate(0,488,292)"/><rect x="502" y="278" width="28" height="28" transform="rotate(0,516,292)"/><rect x="530" y="278" width="28" height="28" transform="rotate(0,544,292)"/><rect x="558" y="278" width="28" height="28" transform="rotate(0,572,292)"/><path d="M 586 278v 28h 28v -14a 14 14, 0, 0, 0, -14 -14" transform="rotate(90,600,292)"/><rect x="642" y="278" width="28" height="28" transform="rotate(0,656,292)"/><rect x="670" y="278" width="28" height="28" transform="rotate(0,684,292)"/><rect x="698" y="278" width="28" height="28" transform="rotate(0,712,292)"/><path d="M 726 278v 28h 28v -14a 14 14, 0, 0, 0, -14 -14" transform="rotate(90,740,292)"/><path d="M 810 278v 28h 14a 14 14, 0, 0, 0, 0 -28" transform="rotate(180,824,292)"/><rect x="838" y="278" width="28" height="28" transform="rotate(0,852,292)"/><path d="M 866 278v 28h 28v -14a 14 14, 0, 0, 0, -14 -14" transform="rotate(0,880,292)"/><path d="M 922 278v 28h 14a 14 14, 0, 0, 0, 0 -28" transform="rotate(90,936,292)"/><rect x="978" y="278" width="28" height="28" transform="rotate(0,992,292)"/><path d="M 1062 278v 28h 28v -14a 14 14, 0, 0, 0, -14 -14" transform="rotate(180,1076,292)"/><rect x="1090" y="278" width="28" height="28" transform="rotate(0,1104,292)"/><rect x="1118" y="278" width="28" height="28" transform="rotate(0,1132,292)"/><rect x="1146" y="278" width="28" height="28" transform="rotate(0,1160,292)"/><path d="M 82 306v 28h 28v -14a 14 14, 0, 0, 0, -14 -14" transform="rotate(180,96,320)"/><rect x="110" y="306" width="28" height="28" transform="rotate(0,124,320)"/><rect x="138" y="306" width="28" height="28" transform="rotate(0,152,320)"/><path d="M 194 306v 28h 14a 14 14, 0, 0, 0, 0 -28" transform="rotate(180,208,320)"/><rect x="222" y="306" width="28" height="28" transform="rotate(0,236,320)"/><rect x="250" y="306" width="28" height="28" transform="rotate(0,264,320)"/><path d="M 278 306v 28h 14a 14 14, 0, 0, 0, 0 -28" transform="rotate(0,292,320)"/><circle cx="376" cy="320" r="14" transform="rotate(0,376,320)"/><path d="M 418 306v 28h 28v -14a 14 14, 0, 0, 0, -14 -14" transform="rotate(-90,432,320)"/><rect x="446" y="306" width="28" height="28" transform="rotate(0,460,320)"/><rect x="558" y="306" width="28" height="28" transform="rotate(0,572,320)"/><path d="M 642 306v 28h 14a 14 14, 0, 0, 0, 0 -28" transform="rotate(90,656,320)"/><path d="M 698 306v 28h 14a 14 14, 0, 0, 0, 0 -28" transform="rotate(90,712,320)"/><rect x="838" y="306" width="28" height="28" transform="rotate(0,852,320)"/><path d="M 866 306v 28h 28v -14a 14 14, 0, 0, 0, -14 -14" transform="rotate(90,880,320)"/><path d="M 950 306v 28h 14a 14 14, 0, 0, 0, 0 -28" transform="rotate(180,964,320)"/><rect x="978" y="306" width="28" height="28" transform="rotate(0,992,320)"/><rect x="1006" y="306" width="28" height="28" transform="rotate(0,1020,320)"/><path d="M 1034 306v 28h 14a 14 14, 0, 0, 0, 0 -28" transform="rotate(0,1048,320)"/><path d="M 1090 306v 28h 28v -14a 14 14, 0, 0, 0, -14 -14" transform="rotate(180,1104,320)"/><rect x="1118" y="306" width="28" height="28" transform="rotate(0,1132,320)"/><path d="M 1146 306v 28h 28v -14a 14 14, 0, 0, 0, -14 -14" transform="rotate(90,1160,320)"/><rect x="110" y="334" width="28" height="28" transform="rotate(0,124,348)"/><path d="M 138 334v 28h 28v -14a 14 14, 0, 0, 0, -14 -14" transform="rotate(90,152,348)"/><path d="M 250 334v 28h 14a 14 14, 0, 0, 0, 0 -28" transform="rotate(90,264,348)"/><path d="M 390 334v 28h 28v -14a 14 14, 0, 0, 0, -14 -14" transform="rotate(-90,404,348)"/><rect x="418" y="334" width="28" height="28" transform="rotate(0,432,348)"/><rect x="446" y="334" width="28" height="28" transform="rotate(0,460,348)"/><rect x="474" y="334" width="28" height="28" transform="rotate(0,488,348)"/><rect x="502" y="334" width="28" height="28" transform="rotate(0,516,348)"/><rect x="530" y="334" width="28" height="28" transform="rotate(0,544,348)"/><path d="M 558 334v 28h 28v -14a 14 14, 0, 0, 0, -14 -14" transform="rotate(90,572,348)"/><path d="M 614 334v 28h 14a 14 14, 0, 0, 0, 0 -28" transform="rotate(-90,628,348)"/><path d="M 726 334v 28h 14a 14 14, 0, 0, 0, 0 -28" transform="rotate(-90,740,348)"/><path d="M 782 334v 28h 14a 14 14, 0, 0, 0, 0 -28" transform="rotate(180,796,348)"/><rect x="810" y="334" width="28" height="28" transform="rotate(0,824,348)"/><rect x="838" y="334" width="28" height="28" transform="rotate(0,852,348)"/><path d="M 922 334v 28h 14a 14 14, 0, 0, 0, 0 -28" transform="rotate(-90,936,348)"/><path d="M 1006 334v 28h 14a 14 14, 0, 0, 0, 0 -28" transform="rotate(90,1020,348)"/><path d="M 26 362v 28h 28v -14a 14 14, 0, 0, 0, -14 -14" transform="rotate(-90,40,376)"/><path d="M 54 362v 28h 28v -14a 14 14, 0, 0, 0, -14 -14" transform="rotate(0,68,376)"/><path d="M 110 362v 28h 14a 14 14, 0, 0, 0, 0 -28" transform="rotate(90,124,376)"/><path d="M 166 362v 28h 28v -14a 14 14, 0, 0, 0, -14 -14" transform="rotate(-90,180,376)"/><path d="M 194 362v 28h 14a 14 14, 0, 0, 0, 0 -28" transform="rotate(0,208,376)"/><path d="M 278 362v 28h 14a 14 14, 0, 0, 0, 0 -28" transform="rotate(-90,292,376)"/><path d="M 390 362v 28h 28v -14a 14 14, 0, 0, 0, -14 -14" transform="rotate(180,404,376)"/><path d="M 418 362v 28h 28v -14a 14 14, 0, 0, 0, -14 -14" transform="rotate(90,432,376)"/><rect x="474" y="362" width="28" height="28" transform="rotate(0,488,376)"/><rect x="530" y="362" width="28" height="28" transform="rotate(0,544,376)"/><path d="M 586 362v 28h 28v -14a 14 14, 0, 0, 0, -14 -14" transform="rotate(-90,600,376)"/><path d="M 614 362v 28h 28v -14a 14 14, 0, 0, 0, -14 -14" transform="rotate(90,628,376)"/><path d="M 698 362v 28h 28v -14a 14 14, 0, 0, 0, -14 -14" transform="rotate(-90,712,376)"/><rect x="726" y="362" width="28" height="28" transform="rotate(0,740,376)"/><path d="M 754 362v 28h 14a 14 14, 0, 0, 0, 0 -28" transform="rotate(0,768,376)"/><path d="M 838 362v 28h 14a 14 14, 0, 0, 0, 0 -28" transform="rotate(90,852,376)"/><path d="M 894 362v 28h 28v -14a 14 14, 0, 0, 0, -14 -14" transform="rotate(-90,908,376)"/><rect x="922" y="362" width="28" height="28" transform="rotate(0,936,376)"/><rect x="950" y="362" width="28" height="28" transform="rotate(0,964,376)"/><path d="M 978 362v 28h 28v -14a 14 14, 0, 0, 0, -14 -14" transform="rotate(0,992,376)"/><path d="M 1062 362v 28h 14a 14 14, 0, 0, 0, 0 -28" transform="rotate(-90,1076,376)"/><circle cx="1132" cy="376" r="14" transform="rotate(0,1132,376)"/><path d="M 26 390v 28h 28v -14a 14 14, 0, 0, 0, -14 -14" transform="rotate(180,40,404)"/><rect x="54" y="390" width="28" height="28" transform="rotate(0,68,404)"/><path d="M 166 390v 28h 14a 14 14, 0, 0, 0, 0 -28" transform="rotate(90,180,404)"/><circle cx="236" cy="404" r="14" transform="rotate(0,236,404)"/><path d="M 278 390v 28h 14a 14 14, 0, 0, 0, 0 -28" transform="rotate(90,292,404)"/><path d="M 334 390v 28h 14a 14 14, 0, 0, 0, 0 -28" transform="rotate(-90,348,404)"/><path d="M 446 390v 28h 28v -14a 14 14, 0, 0, 0, -14 -14" transform="rotate(-90,460,404)"/><rect x="474" y="390" width="28" height="28" transform="rotate(0,488,404)"/><rect x="502" y="390" width="28" height="28" transform="rotate(0,516,404)"/><rect x="530" y="390" width="28" height="28" transform="rotate(0,544,404)"/><rect x="558" y="390" width="28" height="28" transform="rotate(0,572,404)"/><path d="M 586 390v 28h 28v -14a 14 14, 0, 0, 0, -14 -14" transform="rotate(90,600,404)"/><path d="M 642 390v 28h 14a 14 14, 0, 0, 0, 0 -28" transform="rotate(180,656,404)"/><rect x="670" y="390" width="28" height="28" transform="rotate(0,684,404)"/><rect x="698" y="390" width="28" height="28" transform="rotate(0,712,404)"/><circle cx="796" cy="404" r="14" transform="rotate(0,796,404)"/><path d="M 866 390v 28h 28v -14a 14 14, 0, 0, 0, -14 -14" transform="rotate(-90,880,404)"/><rect x="894" y="390" width="28" height="28" transform="rotate(0,908,404)"/><rect x="922" y="390" width="28" height="28" transform="rotate(0,936,404)"/><rect x="978" y="390" width="28" height="28" transform="rotate(0,992,404)"/><rect x="1062" y="390" width="28" height="28" transform="rotate(0,1076,404)"/><path d="M 1146 390v 28h 14a 14 14, 0, 0, 0, 0 -28" transform="rotate(-90,1160,404)"/><rect x="54" y="418" width="28" height="28" transform="rotate(0,68,432)"/><path d="M 138 418v 28h 14a 14 14, 0, 0, 0, 0 -28" transform="rotate(-90,152,432)"/><circle cx="208" cy="432" r="14" transform="rotate(0,208,432)"/><rect x="334" y="418" width="28" height="28" transform="rotate(0,348,432)"/><path d="M 390 418v 28h 14a 14 14, 0, 0, 0, 0 -28" transform="rotate(180,404,432)"/><rect x="418" y="418" width="28" height="28" transform="rotate(0,432,432)"/><rect x="446" y="418" width="28" height="28" transform="rotate(0,460,432)"/><rect x="474" y="418" width="28" height="28" transform="rotate(0,488,432)"/><path d="M 502 418v 28h 28v -14a 14 14, 0, 0, 0, -14 -14" transform="rotate(90,516,432)"/><path d="M 558 418v 28h 14a 14 14, 0, 0, 0, 0 -28" transform="rotate(90,572,432)"/><path d="M 670 418v 28h 28v -14a 14 14, 0, 0, 0, -14 -14" transform="rotate(180,684,432)"/><rect x="698" y="418" width="28" height="28" transform="rotate(0,712,432)"/><path d="M 754 418v 28h 14a 14 14, 0, 0, 0, 0 -28" transform="rotate(-90,768,432)"/><rect x="866" y="418" width="28" height="28" transform="rotate(0,880,432)"/><rect x="894" y="418" width="28" height="28" transform="rotate(0,908,432)"/><rect x="922" y="418" width="28" height="28" transform="rotate(0,936,432)"/><rect x="978" y="418" width="28" height="28" transform="rotate(0,992,432)"/><path d="M 1006 418v 28h 14a 14 14, 0, 0, 0, 0 -28" transform="rotate(0,1020,432)"/><path d="M 1062 418v 28h 14a 14 14, 0, 0, 0, 0 -28" transform="rotate(90,1076,432)"/><path d="M 1118 418v 28h 14a 14 14, 0, 0, 0, 0 -28" transform="rotate(180,1132,432)"/><rect x="1146" y="418" width="28" height="28" transform="rotate(0,1160,432)"/><path d="M 54 446v 28h 14a 14 14, 0, 0, 0, 0 -28" transform="rotate(90,68,460)"/><path d="M 110 446v 28h 28v -14a 14 14, 0, 0, 0, -14 -14" transform="rotate(-90,124,460)"/><rect x="138" y="446" width="28" height="28" transform="rotate(0,152,460)"/><path d="M 222 446v 28h 28v -14a 14 14, 0, 0, 0, -14 -14" transform="rotate(-90,236,460)"/><path d="M 250 446v 28h 14a 14 14, 0, 0, 0, 0 -28" transform="rotate(0,264,460)"/><rect x="334" y="446" width="28" height="28" transform="rotate(0,348,460)"/><path d="M 362 446v 28h 14a 14 14, 0, 0, 0, 0 -28" transform="rotate(0,376,460)"/><path d="M 418 446v 28h 14a 14 14, 0, 0, 0, 0 -28" transform="rotate(90,432,460)"/><path d="M 474 446v 28h 14a 14 14, 0, 0, 0, 0 -28" transform="rotate(90,488,460)"/><path d="M 586 446v 28h 28v -14a 14 14, 0, 0, 0, -14 -14" transform="rotate(-90,600,460)"/><rect x="614" y="446" width="28" height="28" transform="rotate(0,628,460)"/><path d="M 642 446v 28h 28v -14a 14 14, 0, 0, 0, -14 -14" transform="rotate(0,656,460)"/><rect x="698" y="446" width="28" height="28" transform="rotate(0,712,460)"/><rect x="726" y="446" width="28" height="28" transform="rotate(0,740,460)"/><rect x="754" y="446" width="28" height="28" transform="rotate(0,768,460)"/><path d="M 782 446v 28h 14a 14 14, 0, 0, 0, 0 -28" transform="rotate(0,796,460)"/><path d="M 838 446v 28h 28v -14a 14 14, 0, 0, 0, -14 -14" transform="rotate(-90,852,460)"/><path d="M 866 446v 28h 28v -14a 14 14, 0, 0, 0, -14 -14" transform="rotate(90,880,460)"/><path d="M 922 446v 28h 14a 14 14, 0, 0, 0, 0 -28" transform="rotate(90,936,460)"/><rect x="978" y="446" width="28" height="28" transform="rotate(0,992,460)"/><circle cx="1048" cy="460" r="14" transform="rotate(0,1048,460)"/><rect x="1146" y="446" width="28" height="28" transform="rotate(0,1160,460)"/><circle cx="40" cy="488" r="14" transform="rotate(0,40,488)"/><path d="M 82 474v 28h 14a 14 14, 0, 0, 0, 0 -28" transform="rotate(180,96,488)"/><rect x="110" y="474" width="28" height="28" transform="rotate(0,124,488)"/><rect x="138" y="474" width="28" height="28" transform="rotate(0,152,488)"/><rect x="166" y="474" width="28" height="28" transform="rotate(0,180,488)"/><rect x="194" y="474" width="28" height="28" transform="rotate(0,208,488)"/><rect x="222" y="474" width="28" height="28" transform="rotate(0,236,488)"/><path d="M 278 474v 28h 14a 14 14, 0, 0, 0, 0 -28" transform="rotate(-90,292,488)"/><path d="M 334 474v 28h 14a 14 14, 0, 0, 0, 0 -28" transform="rotate(90,348,488)"/><path d="M 446 474v 28h 14a 14 14, 0, 0, 0, 0 -28" transform="rotate(-90,460,488)"/><path d="M 530 474v 28h 28v -14a 14 14, 0, 0, 0, -14 -14" transform="rotate(-90,544,488)"/><rect x="558" y="474" width="28" height="28" transform="rotate(0,572,488)"/><rect x="586" y="474" width="28" height="28" transform="rotate(0,600,488)"/><rect x="614" y="474" width="28" height="28" transform="rotate(0,628,488)"/><rect x="642" y="474" width="28" height="28" transform="rotate(0,656,488)"/><rect x="670" y="474" width="28" height="28" transform="rotate(0,684,488)"/><rect x="698" y="474" width="28" height="28" transform="rotate(0,712,488)"/><rect x="726" y="474" width="28" height="28" transform="rotate(0,740,488)"/><path d="M 810 474v 28h 28v -14a 14 14, 0, 0, 0, -14 -14" transform="rotate(-90,824,488)"/><path d="M 838 474v 28h 28v -14a 14 14, 0, 0, 0, -14 -14" transform="rotate(90,852,488)"/><circle cx="908" cy="488" r="14" transform="rotate(0,908,488)"/><rect x="978" y="474" width="28" height="28" transform="rotate(0,992,488)"/><path d="M 1006 474v 28h 14a 14 14, 0, 0, 0, 0 -28" transform="rotate(0,1020,488)"/><rect x="1146" y="474" width="28" height="28" transform="rotate(0,1160,488)"/><path d="M 110 502v 28h 14a 14 14, 0, 0, 0, 0 -28" transform="rotate(90,124,516)"/><rect x="222" y="502" width="28" height="28" transform="rotate(0,236,516)"/><rect x="250" y="502" width="28" height="28" transform="rotate(0,264,516)"/><path d="M 278 502v 28h 28v -14a 14 14, 0, 0, 0, -14 -14" transform="rotate(90,292,516)"/><path d="M 362 502v 28h 14a 14 14, 0, 0, 0, 0 -28" transform="rotate(-90,376,516)"/><path d="M 446 502v 28h 14a 14 14, 0, 0, 0, 0 -28" transform="rotate(90,460,516)"/><path d="M 502 502v 28h 28v -14a 14 14, 0, 0, 0, -14 -14" transform="rotate(-90,516,516)"/><path d="M 530 502v 28h 28v -14a 14 14, 0, 0, 0, -14 -14" transform="rotate(90,544,516)"/><path d="M 614 502v 28h 14a 14 14, 0, 0, 0, 0 -28" transform="rotate(90,628,516)"/><rect x="698" y="502" width="28" height="28" transform="rotate(0,712,516)"/><path d="M 726 502v 28h 28v -14a 14 14, 0, 0, 0, -14 -14" transform="rotate(90,740,516)"/><rect x="810" y="502" width="28" height="28" transform="rotate(0,824,516)"/><circle cx="936" cy="516" r="14" transform="rotate(0,936,516)"/><path d="M 978 502v 28h 14a 14 14, 0, 0, 0, 0 -28" transform="rotate(90,992,516)"/><path d="M 1118 502v 28h 28v -14a 14 14, 0, 0, 0, -14 -14" transform="rotate(-90,1132,516)"/><rect x="1146" y="502" width="28" height="28" transform="rotate(0,1160,516)"/><circle cx="40" cy="544" r="14" transform="rotate(0,40,544)"/><circle cx="96" cy="544" r="14" transform="rotate(0,96,544)"/><path d="M 194 530v 28h 14a 14 14, 0, 0, 0, 0 -28" transform="rotate(180,208,544)"/><rect x="222" y="530" width="28" height="28" transform="rotate(0,236,544)"/><path d="M 250 530v 28h 28v -14a 14 14, 0, 0, 0, -14 -14" transform="rotate(90,264,544)"/><circle cx="320" cy="544" r="14" transform="rotate(0,320,544)"/><rect x="362" y="530" width="28" height="28" transform="rotate(0,376,544)"/><circle cx="432" cy="544" r="14" transform="rotate(0,432,544)"/><path d="M 474 530v 28h 28v -14a 14 14, 0, 0, 0, -14 -14" transform="rotate(-90,488,544)"/><path d="M 502 530v 28h 28v -14a 14 14, 0, 0, 0, -14 -14" transform="rotate(90,516,544)"/><path d="M 642 530v 28h 14a 14 14, 0, 0, 0, 0 -28" transform="rotate(-90,656,544)"/><path d="M 698 530v 28h 14a 14 14, 0, 0, 0, 0 -28" transform="rotate(90,712,544)"/><path d="M 754 530v 28h 14a 14 14, 0, 0, 0, 0 -28" transform="rotate(-90,768,544)"/><rect x="810" y="530" width="28" height="28" transform="rotate(0,824,544)"/><path d="M 838 530v 28h 14a 14 14, 0, 0, 0, 0 -28" transform="rotate(0,852,544)"/><circle cx="1048" cy="544" r="14" transform="rotate(0,1048,544)"/><path d="M 1090 530v 28h 14a 14 14, 0, 0, 0, 0 -28" transform="rotate(180,1104,544)"/><rect x="1118" y="530" width="28" height="28" transform="rotate(0,1132,544)"/><rect x="1146" y="530" width="28" height="28" transform="rotate(0,1160,544)"/><circle cx="124" cy="572" r="14" transform="rotate(0,124,572)"/><circle cx="180" cy="572" r="14" transform="rotate(0,180,572)"/><circle cx="292" cy="572" r="14" transform="rotate(0,292,572)"/><path d="M 334 558v 28h 28v -14a 14 14, 0, 0, 0, -14 -14" transform="rotate(-90,348,572)"/><rect x="362" y="558" width="28" height="28" transform="rotate(0,376,572)"/><path d="M 446 558v 28h 28v -14a 14 14, 0, 0, 0, -14 -14" transform="rotate(-90,460,572)"/><rect x="474" y="558" width="28" height="28" transform="rotate(0,488,572)"/><path d="M 530 558v 28h 28v -14a 14 14, 0, 0, 0, -14 -14" transform="rotate(-90,544,572)"/><path d="M 558 558v 28h 14a 14 14, 0, 0, 0, 0 -28" transform="rotate(0,572,572)"/><rect x="642" y="558" width="28" height="28" transform="rotate(0,656,572)"/><path d="M 726 558v 28h 14a 14 14, 0, 0, 0, 0 -28" transform="rotate(180,740,572)"/><rect x="754" y="558" width="28" height="28" transform="rotate(0,768,572)"/><rect x="782" y="558" width="28" height="28" transform="rotate(0,796,572)"/><path d="M 810 558v 28h 28v -14a 14 14, 0, 0, 0, -14 -14" transform="rotate(90,824,572)"/><path d="M 894 558v 28h 28v -14a 14 14, 0, 0, 0, -14 -14" transform="rotate(-90,908,572)"/><path d="M 922 558v 28h 28v -14a 14 14, 0, 0, 0, -14 -14" transform="rotate(0,936,572)"/><path d="M 1006 558v 28h 14a 14 14, 0, 0, 0, 0 -28" transform="rotate(-90,1020,572)"/><rect x="1118" y="558" width="28" height="28" transform="rotate(0,1132,572)"/><path d="M 1146 558v 28h 28v -14a 14 14, 0, 0, 0, -14 -14" transform="rotate(90,1160,572)"/><path d="M 26 586v 28h 14a 14 14, 0, 0, 0, 0 -28" transform="rotate(-90,40,600)"/><path d="M 194 586v 28h 14a 14 14, 0, 0, 0, 0 -28" transform="rotate(180,208,600)"/><path d="M 222 586v 28h 14a 14 14, 0, 0, 0, 0 -28" transform="rotate(0,236,600)"/><path d="M 334 586v 28h 28v -14a 14 14, 0, 0, 0, -14 -14" transform="rotate(180,348,600)"/><path d="M 362 586v 28h 28v -14a 14 14, 0, 0, 0, -14 -14" transform="rotate(90,376,600)"/><path d="M 446 586v 28h 28v -14a 14 14, 0, 0, 0, -14 -14" transform="rotate(180,460,600)"/><rect x="474" y="586" width="28" height="28" transform="rotate(0,488,600)"/><rect x="530" y="586" width="28" height="28" transform="rotate(0,544,600)"/><path d="M 586 586v 28h 14a 14 14, 0, 0, 0, 0 -28" transform="rotate(180,600,600)"/><rect x="614" y="586" width="28" height="28" transform="rotate(0,628,600)"/><rect x="642" y="586" width="28" height="28" transform="rotate(0,656,600)"/><path d="M 698 586v 28h 14a 14 14, 0, 0, 0, 0 -28" transform="rotate(-90,712,600)"/><rect x="754" y="586" width="28" height="28" transform="rotate(0,768,600)"/><path d="M 782 586v 28h 28v -14a 14 14, 0, 0, 0, -14 -14" transform="rotate(90,796,600)"/><path d="M 894 586v 28h 28v -14a 14 14, 0, 0, 0, -14 -14" transform="rotate(180,908,600)"/><rect x="922" y="586" width="28" height="28" transform="rotate(0,936,600)"/><rect x="950" y="586" width="28" height="28" transform="rotate(0,964,600)"/><rect x="978" y="586" width="28" height="28" transform="rotate(0,992,600)"/><path d="M 1006 586v 28h 28v -14a 14 14, 0, 0, 0, -14 -14" transform="rotate(90,1020,600)"/><rect x="1118" y="586" width="28" height="28" transform="rotate(0,1132,600)"/><path d="M 26 614v 28h 14a 14 14, 0, 0, 0, 0 -28" transform="rotate(90,40,628)"/><path d="M 82 614v 28h 28v -14a 14 14, 0, 0, 0, -14 -14" transform="rotate(-90,96,628)"/><rect x="110" y="614" width="28" height="28" transform="rotate(0,124,628)"/><path d="M 138 614v 28h 14a 14 14, 0, 0, 0, 0 -28" transform="rotate(0,152,628)"/><path d="M 250 614v 28h 14a 14 14, 0, 0, 0, 0 -28" transform="rotate(-90,264,628)"/><circle cx="320" cy="628" r="14" transform="rotate(0,320,628)"/><rect x="474" y="614" width="28" height="28" transform="rotate(0,488,628)"/><rect x="502" y="614" width="28" height="28" transform="rotate(0,516,628)"/><rect x="530" y="614" width="28" height="28" transform="rotate(0,544,628)"/><path d="M 558 614v 28h 14a 14 14, 0, 0, 0, 0 -28" transform="rotate(0,572,628)"/><path d="M 614 614v 28h 28v -14a 14 14, 0, 0, 0, -14 -14" transform="rotate(180,628,628)"/><rect x="642" y="614" width="28" height="28" transform="rotate(0,656,628)"/><rect x="698" y="614" width="28" height="28" transform="rotate(0,712,628)"/><rect x="726" y="614" width="28" height="28" transform="rotate(0,740,628)"/><path d="M 754 614v 28h 28v -14a 14 14, 0, 0, 0, -14 -14" transform="rotate(90,768,628)"/><path d="M 810 614v 28h 14a 14 14, 0, 0, 0, 0 -28" transform="rotate(180,824,628)"/><path d="M 838 614v 28h 14a 14 14, 0, 0, 0, 0 -28" transform="rotate(0,852,628)"/><path d="M 922 614v 28h 28v -14a 14 14, 0, 0, 0, -14 -14" transform="rotate(180,936,628)"/><rect x="950" y="614" width="28" height="28" transform="rotate(0,964,628)"/><rect x="978" y="614" width="28" height="28" transform="rotate(0,992,628)"/><rect x="1118" y="614" width="28" height="28" transform="rotate(0,1132,628)"/><path d="M 1146 614v 28h 28v -14a 14 14, 0, 0, 0, -14 -14" transform="rotate(0,1160,628)"/><path d="M 54 642v 28h 14a 14 14, 0, 0, 0, 0 -28" transform="rotate(180,68,656)"/><rect x="82" y="642" width="28" height="28" transform="rotate(0,96,656)"/><path d="M 110 642v 28h 28v -14a 14 14, 0, 0, 0, -14 -14" transform="rotate(90,124,656)"/><circle cx="208" cy="656" r="14" transform="rotate(0,208,656)"/><path d="M 250 642v 28h 14a 14 14, 0, 0, 0, 0 -28" transform="rotate(90,264,656)"/><path d="M 362 642v 28h 28v -14a 14 14, 0, 0, 0, -14 -14" transform="rotate(-90,376,656)"/><path d="M 390 642v 28h 28v -14a 14 14, 0, 0, 0, -14 -14" transform="rotate(0,404,656)"/><path d="M 474 642v 28h 14a 14 14, 0, 0, 0, 0 -28" transform="rotate(90,488,656)"/><path d="M 530 642v 28h 14a 14 14, 0, 0, 0, 0 -28" transform="rotate(90,544,656)"/><path d="M 586 642v 28h 14a 14 14, 0, 0, 0, 0 -28" transform="rotate(-90,600,656)"/><path d="M 642 642v 28h 14a 14 14, 0, 0, 0, 0 -28" transform="rotate(90,656,656)"/><path d="M 698 642v 28h 14a 14 14, 0, 0, 0, 0 -28" transform="rotate(90,712,656)"/><rect x="950" y="642" width="28" height="28" transform="rotate(0,964,656)"/><path d="M 978 642v 28h 28v -14a 14 14, 0, 0, 0, -14 -14" transform="rotate(90,992,656)"/><path d="M 1034 642v 28h 14a 14 14, 0, 0, 0, 0 -28" transform="rotate(-90,1048,656)"/><path d="M 1090 642v 28h 14a 14 14, 0, 0, 0, 0 -28" transform="rotate(180,1104,656)"/><rect x="1118" y="642" width="28" height="28" transform="rotate(0,1132,656)"/><rect x="1146" y="642" width="28" height="28" transform="rotate(0,1160,656)"/><circle cx="180" cy="684" r="14" transform="rotate(0,180,684)"/><path d="M 334 670v 28h 14a 14 14, 0, 0, 0, 0 -28" transform="rotate(180,348,684)"/><rect x="362" y="670" width="28" height="28" transform="rotate(0,376,684)"/><rect x="390" y="670" width="28" height="28" transform="rotate(0,404,684)"/><path d="M 446 670v 28h 14a 14 14, 0, 0, 0, 0 -28" transform="rotate(-90,460,684)"/><rect x="586" y="670" width="28" height="28" transform="rotate(0,600,684)"/><path d="M 614 670v 28h 28v -14a 14 14, 0, 0, 0, -14 -14" transform="rotate(0,628,684)"/><path d="M 726 670v 28h 28v -14a 14 14, 0, 0, 0, -14 -14" transform="rotate(-90,740,684)"/><rect x="754" y="670" width="28" height="28" transform="rotate(0,768,684)"/><path d="M 782 670v 28h 14a 14 14, 0, 0, 0, 0 -28" transform="rotate(0,796,684)"/><path d="M 838 670v 28h 28v -14a 14 14, 0, 0, 0, -14 -14" transform="rotate(-90,852,684)"/><path d="M 866 670v 28h 14a 14 14, 0, 0, 0, 0 -28" transform="rotate(0,880,684)"/><rect x="950" y="670" width="28" height="28" transform="rotate(0,964,684)"/><path d="M 1034 670v 28h 14a 14 14, 0, 0, 0, 0 -28" transform="rotate(90,1048,684)"/><path d="M 1146 670v 28h 14a 14 14, 0, 0, 0, 0 -28" transform="rotate(90,1160,684)"/><path d="M 54 698v 28h 14a 14 14, 0, 0, 0, 0 -28" transform="rotate(-90,68,712)"/><path d="M 138 698v 28h 14a 14 14, 0, 0, 0, 0 -28" transform="rotate(-90,152,712)"/><circle cx="208" cy="712" r="14" transform="rotate(0,208,712)"/><circle cx="264" cy="712" r="14" transform="rotate(0,264,712)"/><rect x="362" y="698" width="28" height="28" transform="rotate(0,376,712)"/><rect x="390" y="698" width="28" height="28" transform="rotate(0,404,712)"/><rect x="418" y="698" width="28" height="28" transform="rotate(0,432,712)"/><rect x="446" y="698" width="28" height="28" transform="rotate(0,460,712)"/><rect x="474" y="698" width="28" height="28" transform="rotate(0,488,712)"/><path d="M 502 698v 28h 14a 14 14, 0, 0, 0, 0 -28" transform="rotate(0,516,712)"/><path d="M 586 698v 28h 28v -14a 14 14, 0, 0, 0, -14 -14" transform="rotate(180,600,712)"/><rect x="614" y="698" width="28" height="28" transform="rotate(0,628,712)"/><path d="M 726 698v 28h 14a 14 14, 0, 0, 0, 0 -28" transform="rotate(90,740,712)"/><rect x="838" y="698" width="28" height="28" transform="rotate(0,852,712)"/><path d="M 922 698v 28h 14a 14 14, 0, 0, 0, 0 -28" transform="rotate(180,936,712)"/><rect x="950" y="698" width="28" height="28" transform="rotate(0,964,712)"/><path d="M 978 698v 28h 28v -14a 14 14, 0, 0, 0, -14 -14" transform="rotate(0,992,712)"/><path d="M 1118 698v 28h 14a 14 14, 0, 0, 0, 0 -28" transform="rotate(-90,1132,712)"/><path d="M 26 726v 28h 28v -14a 14 14, 0, 0, 0, -14 -14" transform="rotate(-90,40,740)"/><rect x="54" y="726" width="28" height="28" transform="rotate(0,68,740)"/><path d="M 82 726v 28h 14a 14 14, 0, 0, 0, 0 -28" transform="rotate(0,96,740)"/><path d="M 138 726v 28h 14a 14 14, 0, 0, 0, 0 -28" transform="rotate(90,152,740)"/><path d="M 222 726v 28h 14a 14 14, 0, 0, 0, 0 -28" transform="rotate(-90,236,740)"/><path d="M 306 726v 28h 14a 14 14, 0, 0, 0, 0 -28" transform="rotate(180,320,740)"/><rect x="334" y="726" width="28" height="28" transform="rotate(0,348,740)"/><rect x="362" y="726" width="28" height="28" transform="rotate(0,376,740)"/><path d="M 390 726v 28h 28v -14a 14 14, 0, 0, 0, -14 -14" transform="rotate(90,404,740)"/><rect x="614" y="726" width="28" height="28" transform="rotate(0,628,740)"/><path d="M 642 726v 28h 14a 14 14, 0, 0, 0, 0 -28" transform="rotate(0,656,740)"/><path d="M 698 726v 28h 14a 14 14, 0, 0, 0, 0 -28" transform="rotate(-90,712,740)"/><path d="M 810 726v 28h 28v -14a 14 14, 0, 0, 0, -14 -14" transform="rotate(-90,824,740)"/><path d="M 838 726v 28h 28v -14a 14 14, 0, 0, 0, -14 -14" transform="rotate(90,852,740)"/><path d="M 978 726v 28h 14a 14 14, 0, 0, 0, 0 -28" transform="rotate(90,992,740)"/><path d="M 1118 726v 28h 28v -14a 14 14, 0, 0, 0, -14 -14" transform="rotate(180,1132,740)"/><path d="M 1146 726v 28h 28v -14a 14 14, 0, 0, 0, -14 -14" transform="rotate(0,1160,740)"/><path d="M 26 754v 28h 28v -14a 14 14, 0, 0, 0, -14 -14" transform="rotate(180,40,768)"/><path d="M 54 754v 28h 28v -14a 14 14, 0, 0, 0, -14 -14" transform="rotate(90,68,768)"/><path d="M 110 754v 28h 14a 14 14, 0, 0, 0, 0 -28" transform="rotate(-90,124,768)"/><path d="M 194 754v 28h 14a 14 14, 0, 0, 0, 0 -28" transform="rotate(180,208,768)"/><path d="M 222 754v 28h 28v -14a 14 14, 0, 0, 0, -14 -14" transform="rotate(90,236,768)"/><path d="M 278 754v 28h 14a 14 14, 0, 0, 0, 0 -28" transform="rotate(-90,292,768)"/><path d="M 418 754v 28h 14a 14 14, 0, 0, 0, 0 -28" transform="rotate(180,432,768)"/><rect x="446" y="754" width="28" height="28" transform="rotate(0,460,768)"/><path d="M 474 754v 28h 28v -14a 14 14, 0, 0, 0, -14 -14" transform="rotate(0,488,768)"/><path d="M 530 754v 28h 14a 14 14, 0, 0, 0, 0 -28" transform="rotate(-90,544,768)"/><path d="M 586 754v 28h 14a 14 14, 0, 0, 0, 0 -28" transform="rotate(180,600,768)"/><rect x="614" y="754" width="28" height="28" transform="rotate(0,628,768)"/><rect x="698" y="754" width="28" height="28" transform="rotate(0,712,768)"/><rect x="810" y="754" width="28" height="28" transform="rotate(0,824,768)"/><path d="M 1006 754v 28h 14a 14 14, 0, 0, 0, 0 -28" transform="rotate(-90,1020,768)"/><circle cx="1104" cy="768" r="14" transform="rotate(0,1104,768)"/><path d="M 1146 754v 28h 14a 14 14, 0, 0, 0, 0 -28" transform="rotate(90,1160,768)"/><path d="M 82 782v 28h 14a 14 14, 0, 0, 0, 0 -28" transform="rotate(180,96,796)"/><rect x="110" y="782" width="28" height="28" transform="rotate(0,124,796)"/><rect x="138" y="782" width="28" height="28" transform="rotate(0,152,796)"/><path d="M 166 782v 28h 28v -14a 14 14, 0, 0, 0, -14 -14" transform="rotate(0,180,796)"/><path d="M 250 782v 28h 14a 14 14, 0, 0, 0, 0 -28" transform="rotate(180,264,796)"/><rect x="278" y="782" width="28" height="28" transform="rotate(0,292,796)"/><rect x="306" y="782" width="28" height="28" transform="rotate(0,320,796)"/><rect x="334" y="782" width="28" height="28" transform="rotate(0,348,796)"/><rect x="362" y="782" width="28" height="28" transform="rotate(0,376,796)"/><path d="M 390 782v 28h 14a 14 14, 0, 0, 0, 0 -28" transform="rotate(0,404,796)"/><rect x="446" y="782" width="28" height="28" transform="rotate(0,460,796)"/><rect x="474" y="782" width="28" height="28" transform="rotate(0,488,796)"/><rect x="502" y="782" width="28" height="28" transform="rotate(0,516,796)"/><rect x="530" y="782" width="28" height="28" transform="rotate(0,544,796)"/><path d="M 558 782v 28h 14a 14 14, 0, 0, 0, 0 -28" transform="rotate(0,572,796)"/><rect x="614" y="782" width="28" height="28" transform="rotate(0,628,796)"/><path d="M 670 782v 28h 28v -14a 14 14, 0, 0, 0, -14 -14" transform="rotate(-90,684,796)"/><rect x="698" y="782" width="28" height="28" transform="rotate(0,712,796)"/><rect x="726" y="782" width="28" height="28" transform="rotate(0,740,796)"/><rect x="754" y="782" width="28" height="28" transform="rotate(0,768,796)"/><rect x="782" y="782" width="28" height="28" transform="rotate(0,796,796)"/><rect x="810" y="782" width="28" height="28" transform="rotate(0,824,796)"/><path d="M 838 782v 28h 28v -14a 14 14, 0, 0, 0, -14 -14" transform="rotate(0,852,796)"/><path d="M 922 782v 28h 28v -14a 14 14, 0, 0, 0, -14 -14" transform="rotate(-90,936,796)"/><path d="M 950 782v 28h 28v -14a 14 14, 0, 0, 0, -14 -14" transform="rotate(0,964,796)"/><path d="M 1006 782v 28h 14a 14 14, 0, 0, 0, 0 -28" transform="rotate(90,1020,796)"/><circle cx="40" cy="824" r="14" transform="rotate(0,40,824)"/><path d="M 138 810v 28h 28v -14a 14 14, 0, 0, 0, -14 -14" transform="rotate(180,152,824)"/><rect x="166" y="810" width="28" height="28" transform="rotate(0,180,824)"/><rect x="194" y="810" width="28" height="28" transform="rotate(0,208,824)"/><path d="M 222 810v 28h 14a 14 14, 0, 0, 0, 0 -28" transform="rotate(0,236,824)"/><path d="M 306 810v 28h 28v -14a 14 14, 0, 0, 0, -14 -14" transform="rotate(180,320,824)"/><rect x="334" y="810" width="28" height="28" transform="rotate(0,348,824)"/><path d="M 362 810v 28h 28v -14a 14 14, 0, 0, 0, -14 -14" transform="rotate(90,376,824)"/><path d="M 446 810v 28h 14a 14 14, 0, 0, 0, 0 -28" transform="rotate(90,460,824)"/><path d="M 502 810v 28h 28v -14a 14 14, 0, 0, 0, -14 -14" transform="rotate(180,516,824)"/><rect x="530" y="810" width="28" height="28" transform="rotate(0,544,824)"/><rect x="614" y="810" width="28" height="28" transform="rotate(0,628,824)"/><rect x="642" y="810" width="28" height="28" transform="rotate(0,656,824)"/><rect x="670" y="810" width="28" height="28" transform="rotate(0,684,824)"/><rect x="726" y="810" width="28" height="28" transform="rotate(0,740,824)"/><rect x="810" y="810" width="28" height="28" transform="rotate(0,824,824)"/><path d="M 838 810v 28h 28v -14a 14 14, 0, 0, 0, -14 -14" transform="rotate(90,852,824)"/><path d="M 894 810v 28h 28v -14a 14 14, 0, 0, 0, -14 -14" transform="rotate(-90,908,824)"/><rect x="922" y="810" width="28" height="28" transform="rotate(0,936,824)"/><rect x="950" y="810" width="28" height="28" transform="rotate(0,964,824)"/><path d="M 978 810v 28h 28v -14a 14 14, 0, 0, 0, -14 -14" transform="rotate(0,992,824)"/><circle cx="1076" cy="824" r="14" transform="rotate(0,1076,824)"/><path d="M 1118 810v 28h 14a 14 14, 0, 0, 0, 0 -28" transform="rotate(180,1132,824)"/><path d="M 1146 810v 28h 28v -14a 14 14, 0, 0, 0, -14 -14" transform="rotate(0,1160,824)"/><path d="M 54 838v 28h 14a 14 14, 0, 0, 0, 0 -28" transform="rotate(180,68,852)"/><rect x="82" y="838" width="28" height="28" transform="rotate(0,96,852)"/><path d="M 110 838v 28h 14a 14 14, 0, 0, 0, 0 -28" transform="rotate(0,124,852)"/><circle cx="292" cy="852" r="14" transform="rotate(0,292,852)"/><path d="M 530 838v 28h 14a 14 14, 0, 0, 0, 0 -28" transform="rotate(90,544,852)"/><path d="M 614 838v 28h 14a 14 14, 0, 0, 0, 0 -28" transform="rotate(90,628,852)"/><path d="M 670 838v 28h 14a 14 14, 0, 0, 0, 0 -28" transform="rotate(90,684,852)"/><rect x="726" y="838" width="28" height="28" transform="rotate(0,740,852)"/><path d="M 782 838v 28h 28v -14a 14 14, 0, 0, 0, -14 -14" transform="rotate(-90,796,852)"/><rect x="810" y="838" width="28" height="28" transform="rotate(0,824,852)"/><path d="M 894 838v 28h 14a 14 14, 0, 0, 0, 0 -28" transform="rotate(90,908,852)"/><path d="M 950 838v 28h 28v -14a 14 14, 0, 0, 0, -14 -14" transform="rotate(180,964,852)"/><rect x="978" y="838" width="28" height="28" transform="rotate(0,992,852)"/><path d="M 1006 838v 28h 28v -14a 14 14, 0, 0, 0, -14 -14" transform="rotate(0,1020,852)"/><circle cx="1104" cy="852" r="14" transform="rotate(0,1104,852)"/><rect x="1146" y="838" width="28" height="28" transform="rotate(0,1160,852)"/><circle cx="40" cy="880" r="14" transform="rotate(0,40,880)"/><rect x="82" y="866" width="28" height="28" transform="rotate(0,96,880)"/><path d="M 138 866v 28h 14a 14 14, 0, 0, 0, 0 -28" transform="rotate(-90,152,880)"/><circle cx="208" cy="880" r="14" transform="rotate(0,208,880)"/><circle cx="320" cy="880" r="14" transform="rotate(0,320,880)"/><path d="M 362 866v 28h 14a 14 14, 0, 0, 0, 0 -28" transform="rotate(-90,376,880)"/><path d="M 446 866v 28h 14a 14 14, 0, 0, 0, 0 -28" transform="rotate(180,460,880)"/><path d="M 474 866v 28h 28v -14a 14 14, 0, 0, 0, -14 -14" transform="rotate(0,488,880)"/><path d="M 558 866v 28h 28v -14a 14 14, 0, 0, 0, -14 -14" transform="rotate(-90,572,880)"/><path d="M 586 866v 28h 14a 14 14, 0, 0, 0, 0 -28" transform="rotate(0,600,880)"/><rect x="726" y="866" width="28" height="28" transform="rotate(0,740,880)"/><path d="M 782 866v 28h 28v -14a 14 14, 0, 0, 0, -14 -14" transform="rotate(180,796,880)"/><rect x="810" y="866" width="28" height="28" transform="rotate(0,824,880)"/><path d="M 838 866v 28h 28v -14a 14 14, 0, 0, 0, -14 -14" transform="rotate(0,852,880)"/><path d="M 1006 866v 28h 28v -14a 14 14, 0, 0, 0, -14 -14" transform="rotate(180,1020,880)"/><rect x="1034" y="866" width="28" height="28" transform="rotate(0,1048,880)"/><path d="M 1062 866v 28h 14a 14 14, 0, 0, 0, 0 -28" transform="rotate(0,1076,880)"/><path d="M 1118 866v 28h 14a 14 14, 0, 0, 0, 0 -28" transform="rotate(180,1132,880)"/><path d="M 1146 866v 28h 28v -14a 14 14, 0, 0, 0, -14 -14" transform="rotate(90,1160,880)"/><path d="M 54 894v 28h 14a 14 14, 0, 0, 0, 0 -28" transform="rotate(180,68,908)"/><rect x="82" y="894" width="28" height="28" transform="rotate(0,96,908)"/><path d="M 138 894v 28h 14a 14 14, 0, 0, 0, 0 -28" transform="rotate(90,152,908)"/><path d="M 250 894v 28h 28v -14a 14 14, 0, 0, 0, -14 -14" transform="rotate(-90,264,908)"/><path d="M 278 894v 28h 28v -14a 14 14, 0, 0, 0, -14 -14" transform="rotate(0,292,908)"/><rect x="362" y="894" width="28" height="28" transform="rotate(0,376,908)"/><path d="M 418 894v 28h 14a 14 14, 0, 0, 0, 0 -28" transform="rotate(-90,432,908)"/><path d="M 474 894v 28h 14a 14 14, 0, 0, 0, 0 -28" transform="rotate(90,488,908)"/><path d="M 558 894v 28h 14a 14 14, 0, 0, 0, 0 -28" transform="rotate(90,572,908)"/><circle cx="684" cy="908" r="14" transform="rotate(0,684,908)"/><rect x="726" y="894" width="28" height="28" transform="rotate(0,740,908)"/><path d="M 754 894v 28h 14a 14 14, 0, 0, 0, 0 -28" transform="rotate(0,768,908)"/><rect x="810" y="894" width="28" height="28" transform="rotate(0,824,908)"/><rect x="838" y="894" width="28" height="28" transform="rotate(0,852,908)"/><path d="M 894 894v 28h 14a 14 14, 0, 0, 0, 0 -28" transform="rotate(180,908,908)"/><rect x="922" y="894" width="28" height="28" transform="rotate(0,936,908)"/><rect x="950" y="894" width="28" height="28" transform="rotate(0,964,908)"/><path d="M 978 894v 28h 28v -14a 14 14, 0, 0, 0, -14 -14" transform="rotate(0,992,908)"/><rect x="1034" y="894" width="28" height="28" transform="rotate(0,1048,908)"/><circle cx="40" cy="936" r="14" transform="rotate(0,40,936)"/><path d="M 82 922v 28h 28v -14a 14 14, 0, 0, 0, -14 -14" transform="rotate(180,96,936)"/><path d="M 110 922v 28h 14a 14 14, 0, 0, 0, 0 -28" transform="rotate(0,124,936)"/><circle cx="208" cy="936" r="14" transform="rotate(0,208,936)"/><rect x="250" y="922" width="28" height="28" transform="rotate(0,264,936)"/><path d="M 278 922v 28h 28v -14a 14 14, 0, 0, 0, -14 -14" transform="rotate(90,292,936)"/><rect x="362" y="922" width="28" height="28" transform="rotate(0,376,936)"/><path d="M 418 922v 28h 28v -14a 14 14, 0, 0, 0, -14 -14" transform="rotate(180,432,936)"/><path d="M 446 922v 28h 28v -14a 14 14, 0, 0, 0, -14 -14" transform="rotate(0,460,936)"/><circle cx="544" cy="936" r="14" transform="rotate(0,544,936)"/><path d="M 586 922v 28h 14a 14 14, 0, 0, 0, 0 -28" transform="rotate(-90,600,936)"/><path d="M 726 922v 28h 14a 14 14, 0, 0, 0, 0 -28" transform="rotate(90,740,936)"/><path d="M 782 922v 28h 14a 14 14, 0, 0, 0, 0 -28" transform="rotate(180,796,936)"/><rect x="810" y="922" width="28" height="28" transform="rotate(0,824,936)"/><rect x="838" y="922" width="28" height="28" transform="rotate(0,852,936)"/><rect x="922" y="922" width="28" height="28" transform="rotate(0,936,936)"/><rect x="950" y="922" width="28" height="28" transform="rotate(0,964,936)"/><rect x="978" y="922" width="28" height="28" transform="rotate(0,992,936)"/><rect x="1006" y="922" width="28" height="28" transform="rotate(0,1020,936)"/><rect x="1034" y="922" width="28" height="28" transform="rotate(0,1048,936)"/><rect x="250" y="950" width="28" height="28" transform="rotate(0,264,964)"/><path d="M 306 950v 28h 14a 14 14, 0, 0, 0, 0 -28" transform="rotate(180,320,964)"/><rect x="334" y="950" width="28" height="28" transform="rotate(0,348,964)"/><rect x="362" y="950" width="28" height="28" transform="rotate(0,376,964)"/><path d="M 390 950v 28h 28v -14a 14 14, 0, 0, 0, -14 -14" transform="rotate(0,404,964)"/><rect x="446" y="950" width="28" height="28" transform="rotate(0,460,964)"/><path d="M 558 950v 28h 28v -14a 14 14, 0, 0, 0, -14 -14" transform="rotate(-90,572,964)"/><rect x="586" y="950" width="28" height="28" transform="rotate(0,600,964)"/><path d="M 614 950v 28h 28v -14a 14 14, 0, 0, 0, -14 -14" transform="rotate(0,628,964)"/><circle cx="712" cy="964" r="14" transform="rotate(0,712,964)"/><circle cx="768" cy="964" r="14" transform="rotate(0,768,964)"/><path d="M 810 950v 28h 28v -14a 14 14, 0, 0, 0, -14 -14" transform="rotate(180,824,964)"/><rect x="838" y="950" width="28" height="28" transform="rotate(0,852,964)"/><rect x="866" y="950" width="28" height="28" transform="rotate(0,880,964)"/><rect x="894" y="950" width="28" height="28" transform="rotate(0,908,964)"/><rect x="922" y="950" width="28" height="28" transform="rotate(0,936,964)"/><rect x="1034" y="950" width="28" height="28" transform="rotate(0,1048,964)"/><path d="M 1090 950v 28h 14a 14 14, 0, 0, 0, 0 -28" transform="rotate(180,1104,964)"/><rect x="1118" y="950" width="28" height="28" transform="rotate(0,1132,964)"/><path d="M 1146 950v 28h 28v -14a 14 14, 0, 0, 0, -14 -14" transform="rotate(0,1160,964)"/><path d="M 250 978v 28h 28v -14a 14 14, 0, 0, 0, -14 -14" transform="rotate(180,264,992)"/><path d="M 278 978v 28h 14a 14 14, 0, 0, 0, 0 -28" transform="rotate(0,292,992)"/><rect x="390" y="978" width="28" height="28" transform="rotate(0,404,992)"/><path d="M 446 978v 28h 28v -14a 14 14, 0, 0, 0, -14 -14" transform="rotate(180,460,992)"/><path d="M 474 978v 28h 28v -14a 14 14, 0, 0, 0, -14 -14" transform="rotate(0,488,992)"/><rect x="558" y="978" width="28" height="28" transform="rotate(0,572,992)"/><rect x="586" y="978" width="28" height="28" transform="rotate(0,600,992)"/><path d="M 614 978v 28h 28v -14a 14 14, 0, 0, 0, -14 -14" transform="rotate(90,628,992)"/><circle cx="740" cy="992" r="14" transform="rotate(0,740,992)"/><rect x="866" y="978" width="28" height="28" transform="rotate(0,880,992)"/><rect x="894" y="978" width="28" height="28" transform="rotate(0,908,992)"/><rect x="922" y="978" width="28" height="28" transform="rotate(0,936,992)"/><circle cx="992" cy="992" r="14" transform="rotate(0,992,992)"/><rect x="1034" y="978" width="28" height="28" transform="rotate(0,1048,992)"/><path d="M 1062 978v 28h 14a 14 14, 0, 0, 0, 0 -28" transform="rotate(0,1076,992)"/><path d="M 1146 978v 28h 14a 14 14, 0, 0, 0, 0 -28" transform="rotate(90,1160,992)"/><path d="M 306 1006v 28h 14a 14 14, 0, 0, 0, 0 -28" transform="rotate(180,320,1020)"/><rect x="334" y="1006" width="28" height="28" transform="rotate(0,348,1020)"/><rect x="362" y="1006" width="28" height="28" transform="rotate(0,376,1020)"/><path d="M 390 1006v 28h 28v -14a 14 14, 0, 0, 0, -14 -14" transform="rotate(90,404,1020)"/><rect x="474" y="1006" width="28" height="28" transform="rotate(0,488,1020)"/><path d="M 502 1006v 28h 14a 14 14, 0, 0, 0, 0 -28" transform="rotate(0,516,1020)"/><path d="M 558 1006v 28h 28v -14a 14 14, 0, 0, 0, -14 -14" transform="rotate(180,572,1020)"/><rect x="586" y="1006" width="28" height="28" transform="rotate(0,600,1020)"/><path d="M 670 1006v 28h 14a 14 14, 0, 0, 0, 0 -28" transform="rotate(180,684,1020)"/><path d="M 698 1006v 28h 14a 14 14, 0, 0, 0, 0 -28" transform="rotate(0,712,1020)"/><path d="M 782 1006v 28h 14a 14 14, 0, 0, 0, 0 -28" transform="rotate(-90,796,1020)"/><path d="M 838 1006v 28h 14a 14 14, 0, 0, 0, 0 -28" transform="rotate(180,852,1020)"/><rect x="866" y="1006" width="28" height="28" transform="rotate(0,880,1020)"/><rect x="894" y="1006" width="28" height="28" transform="rotate(0,908,1020)"/><rect x="922" y="1006" width="28" height="28" transform="rotate(0,936,1020)"/><rect x="1034" y="1006" width="28" height="28" transform="rotate(0,1048,1020)"/><path d="M 250 1034v 28h 14a 14 14, 0, 0, 0, 0 -28" transform="rotate(180,264,1048)"/><path d="M 278 1034v 28h 28v -14a 14 14, 0, 0, 0, -14 -14" transform="rotate(0,292,1048)"/><rect x="334" y="1034" width="28" height="28" transform="rotate(0,348,1048)"/><path d="M 362 1034v 28h 28v -14a 14 14, 0, 0, 0, -14 -14" transform="rotate(90,376,1048)"/><rect x="474" y="1034" width="28" height="28" transform="rotate(0,488,1048)"/><path d="M 586 1034v 28h 28v -14a 14 14, 0, 0, 0, -14 -14" transform="rotate(180,600,1048)"/><path d="M 614 1034v 28h 14a 14 14, 0, 0, 0, 0 -28" transform="rotate(0,628,1048)"/><path d="M 782 1034v 28h 28v -14a 14 14, 0, 0, 0, -14 -14" transform="rotate(180,796,1048)"/><path d="M 810 1034v 28h 28v -14a 14 14, 0, 0, 0, -14 -14" transform="rotate(0,824,1048)"/><rect x="866" y="1034" width="28" height="28" transform="rotate(0,880,1048)"/><rect x="922" y="1034" width="28" height="28" transform="rotate(0,936,1048)"/><rect x="950" y="1034" width="28" height="28" transform="rotate(0,964,1048)"/><rect x="978" y="1034" width="28" height="28" transform="rotate(0,992,1048)"/><rect x="1006" y="1034" width="28" height="28" transform="rotate(0,1020,1048)"/><rect x="1034" y="1034" width="28" height="28" transform="rotate(0,1048,1048)"/><path d="M 278 1062v 28h 14a 14 14, 0, 0, 0, 0 -28" transform="rotate(90,292,1076)"/><path d="M 334 1062v 28h 14a 14 14, 0, 0, 0, 0 -28" transform="rotate(90,348,1076)"/><path d="M 390 1062v 28h 28v -14a 14 14, 0, 0, 0, -14 -14" transform="rotate(-90,404,1076)"/><rect x="418" y="1062" width="28" height="28" transform="rotate(0,432,1076)"/><rect x="446" y="1062" width="28" height="28" transform="rotate(0,460,1076)"/><path d="M 474 1062v 28h 28v -14a 14 14, 0, 0, 0, -14 -14" transform="rotate(90,488,1076)"/><circle cx="544" cy="1076" r="14" transform="rotate(0,544,1076)"/><circle cx="656" cy="1076" r="14" transform="rotate(0,656,1076)"/><path d="M 698 1062v 28h 14a 14 14, 0, 0, 0, 0 -28" transform="rotate(180,712,1076)"/><path d="M 726 1062v 28h 28v -14a 14 14, 0, 0, 0, -14 -14" transform="rotate(0,740,1076)"/><path d="M 810 1062v 28h 14a 14 14, 0, 0, 0, 0 -28" transform="rotate(90,824,1076)"/><path d="M 866 1062v 28h 14a 14 14, 0, 0, 0, 0 -28" transform="rotate(90,880,1076)"/><rect x="922" y="1062" width="28" height="28" transform="rotate(0,936,1076)"/><path d="M 950 1062v 28h 28v -14a 14 14, 0, 0, 0, -14 -14" transform="rotate(90,964,1076)"/><rect x="1034" y="1062" width="28" height="28" transform="rotate(0,1048,1076)"/><path d="M 1146 1062v 28h 14a 14 14, 0, 0, 0, 0 -28" transform="rotate(-90,1160,1076)"/><path d="M 250 1090v 28h 14a 14 14, 0, 0, 0, 0 -28" transform="rotate(-90,264,1104)"/><path d="M 306 1090v 28h 14a 14 14, 0, 0, 0, 0 -28" transform="rotate(-90,320,1104)"/><rect x="390" y="1090" width="28" height="28" transform="rotate(0,404,1104)"/><path d="M 418 1090v 28h 28v -14a 14 14, 0, 0, 0, -14 -14" transform="rotate(90,432,1104)"/><path d="M 614 1090v 28h 14a 14 14, 0, 0, 0, 0 -28" transform="rotate(-90,628,1104)"/><rect x="726" y="1090" width="28" height="28" transform="rotate(0,740,1104)"/><rect x="922" y="1090" width="28" height="28" transform="rotate(0,936,1104)"/><path d="M 1006 1090v 28h 28v -14a 14 14, 0, 0, 0, -14 -14" transform="rotate(-90,1020,1104)"/><rect x="1034" y="1090" width="28" height="28" transform="rotate(0,1048,1104)"/><rect x="1062" y="1090" width="28" height="28" transform="rotate(0,1076,1104)"/><path d="M 1090 1090v 28h 14a 14 14, 0, 0, 0, 0 -28" transform="rotate(0,1104,1104)"/><path d="M 1146 1090v 28h 14a 14 14, 0, 0, 0, 0 -28" transform="rotate(90,1160,1104)"/><path d="M 250 1118v 28h 28v -14a 14 14, 0, 0, 0, -14 -14" transform="rotate(180,264,1132)"/><rect x="278" y="1118" width="28" height="28" transform="rotate(0,292,1132)"/><rect x="306" y="1118" width="28" height="28" transform="rotate(0,320,1132)"/><rect x="390" y="1118" width="28" height="28" transform="rotate(0,404,1132)"/><path d="M 530 1118v 28h 14a 14 14, 0, 0, 0, 0 -28" transform="rotate(180,544,1132)"/><rect x="558" y="1118" width="28" height="28" transform="rotate(0,572,1132)"/><rect x="586" y="1118" width="28" height="28" transform="rotate(0,600,1132)"/><path d="M 614 1118v 28h 28v -14a 14 14, 0, 0, 0, -14 -14" transform="rotate(90,628,1132)"/><circle cx="684" cy="1132" r="14" transform="rotate(0,684,1132)"/><rect x="726" y="1118" width="28" height="28" transform="rotate(0,740,1132)"/><path d="M 838 1118v 28h 14a 14 14, 0, 0, 0, 0 -28" transform="rotate(-90,852,1132)"/><rect x="922" y="1118" width="28" height="28" transform="rotate(0,936,1132)"/><path d="M 978 1118v 28h 14a 14 14, 0, 0, 0, 0 -28" transform="rotate(180,992,1132)"/><rect x="1006" y="1118" width="28" height="28" transform="rotate(0,1020,1132)"/><path d="M 1118 1118v 28h 14a 14 14, 0, 0, 0, 0 -28" transform="rotate(-90,1132,1132)"/><path d="M 306 1146v 28h 14a 14 14, 0, 0, 0, 0 -28" transform="rotate(90,320,1160)"/><path d="M 390 1146v 28h 14a 14 14, 0, 0, 0, 0 -28" transform="rotate(90,404,1160)"/><path d="M 446 1146v 28h 14a 14 14, 0, 0, 0, 0 -28" transform="rotate(180,460,1160)"/><rect x="474" y="1146" width="28" height="28" transform="rotate(0,488,1160)"/><path d="M 502 1146v 28h 14a 14 14, 0, 0, 0, 0 -28" transform="rotate(0,516,1160)"/><circle cx="656" cy="1160" r="14" transform="rotate(0,656,1160)"/><path d="M 698 1146v 28h 14a 14 14, 0, 0, 0, 0 -28" transform="rotate(180,712,1160)"/><path d="M 726 1146v 28h 28v -14a 14 14, 0, 0, 0, -14 -14" transform="rotate(90,740,1160)"/><path d="M 838 1146v 28h 14a 14 14, 0, 0, 0, 0 -28" transform="rotate(90,852,1160)"/><path d="M 894 1146v 28h 14a 14 14, 0, 0, 0, 0 -28" transform="rotate(180,908,1160)"/><path d="M 922 1146v 28h 28v -14a 14 14, 0, 0, 0, -14 -14" transform="rotate(90,936,1160)"/><path d="M 1006 1146v 28h 28v -14a 14 14, 0, 0, 0, -14 -14" transform="rotate(180,1020,1160)"/><path d="M 1034 1146v 28h 14a 14 14, 0, 0, 0, 0 -28" transform="rotate(0,1048,1160)"/><path d="M 1118 1146v 28h 28v -14a 14 14, 0, 0, 0, -14 -14" transform="rotate(180,1132,1160)"/><path d="M 1146 1146v 28h 14a 14 14, 0, 0, 0, 0 -28" transform="rotate(0,1160,1160)"/></clipPath><clipPath id="clip-path-corners-square-color-0-0-9"><path clip-rule="evenodd" d="M 26 96v 56a 70 70, 0, 0, 0, 70 70h 56a 70 70, 0, 0, 0, 70 -70v -56a 70 70, 0, 0, 0, -70 -70h -56a 70 70, 0, 0, 0, -70 70M 96 54h 56a 42 42, 0, 0, 1, 42 42v 56a 42 42, 0, 0, 1, -42 42h -56a 42 42, 0, 0, 1, -42 -42v -56a 42 42, 0, 0, 1, 42 -42" transform="rotate(0,124,124)"/></clipPath><clipPath id="clip-path-corners-dot-color-0-0-9"><circle cx="124" cy="124" r="42" transform="rotate(0,124,124)"/></clipPath><clipPath id="clip-path-corners-square-color-1-0-9"><path clip-rule="evenodd" d="M 978 96v 56a 70 70, 0, 0, 0, 70 70h 56a 70 70, 0, 0, 0, 70 -70v -56a 70 70, 0, 0, 0, -70 -70h -56a 70 70, 0, 0, 0, -70 70M 1048 54h 56a 42 42, 0, 0, 1, 42 42v 56a 42 42, 0, 0, 1, -42 42h -56a 42 42, 0, 0, 1, -42 -42v -56a 42 42, 0, 0, 1, 42 -42" transform="rotate(90,1076,124)"/></clipPath><clipPath id="clip-path-corners-dot-color-1-0-9"><circle cx="1076" cy="124" r="42" transform="rotate(90,1076,124)"/></clipPath><clipPath id="clip-path-corners-square-color-0-1-9"><path clip-rule="evenodd" d="M 26 1048v 56a 70 70, 0, 0, 0, 70 70h 56a 70 70, 0, 0, 0, 70 -70v -56a 70 70, 0, 0, 0, -70 -70h -56a 70 70, 0, 0, 0, -70 70M 96 1006h 56a 42 42, 0, 0, 1, 42 42v 56a 42 42, 0, 0, 1, -42 42h -56a 42 42, 0, 0, 1, -42 -42v -56a 42 42, 0, 0, 1, 42 -42" transform="rotate(-90,124,1076)"/></clipPath><clipPath id="clip-path-corners-dot-color-0-1-9"><circle cx="124" cy="1076" r="42" transform="rotate(-90,124,1076)"/></clipPath></defs><rect x="0" y="0" height="1200" width="1200" clip-path="url('#clip-path-background-color-9')" fill="#ffffff"/><rect x="0" y="0" height="1200" width="1200" clip-path="url('#clip-path-dot-color-9')" fill="#000000"/><rect x="26" y="26" height="196" width="196" clip-path="url('#clip-path-corners-square-color-0-0-9')" fill="#000000"/><rect x="82" y="82" height="84" width="84" clip-path="url('#clip-path-corners-dot-color-0-0-9')" fill="#000000"/><rect x="978" y="26" height="196" width="196" clip-path="url('#clip-path-corners-square-color-1-0-9')" fill="#000000"/><rect x="1034" y="82" height="84" width="84" clip-path="url('#clip-path-corners-dot-color-1-0-9')" fill="#000000"/><rect x="26" y="978" height="196" width="196" clip-path="url('#clip-path-corners-square-color-0-1-9')" fill="#000000"/><rect x="82" y="1034" height="84" width="84" clip-path="url('#clip-path-corners-dot-color-0-1-9')" fill="#000000"/></svg>