<?xml version="1.0" standalone="no"?>
<svg xmlns="http://www.w3.org/2000/svg" width="1200" height="1200" xmlns:xlink="http://www.w3.org/1999/xlink" viewBox="0 0 1200 1200"><defs><clipPath id="clip-path-background-color-2"><rect x="0" y="0" width="1200" height="1200"/></clipPath><clipPath id="clip-path-dot-color-2"><path d="M 372 22v 35h 17.5a 17.5 17.5, 0, 0, 0, 0 -35" transform="rotate(-90,389.5,39.5)"/><path d="M 477 22v 35h 17.5a 17.5 17.5, 0, 0, 0, 0 -35" transform="rotate(-90,494.5,39.5)"/><path d="M 547 22v 35h 17.5a 17.5 17.5, 0, 0, 0, 0 -35" transform="rotate(-90,564.5,39.5)"/><path d="M 617 22v 35h 35v -17.5a 17.5 17.5, 0, 0, 0, -17.5 -17.5" transform="rotate(-90,634.5,39.5)"/><path d="M 652 22v 35h 35v -17.5a 17.5 17.5, 0, 0, 0, -17.5 -17.5" transform="rotate(0,669.5,39.5)"/><circle cx="774.5" cy="39.5" r="17.5" transform="rotate(0,774.5,39.5)"/><path d="M 302 57v 35h 17.5a 17.5 17.5, 0, 0, 0, 0 -35" transform="rotate(180,319.5,74.5)"/><rect x="337" y="57" width="35" height="35" transform="rotate(0,354.5,74.5)"/><rect x="372" y="57" width="35" height="35" transform="rotate(0,389.5,74.5)"/><rect x="407" y="57" width="35" height="35" transform="rotate(0,424.5,74.5)"/><rect x="442" y="57" width="35" height="35" transform="rotate(0,459.5,74.5)"/><rect x="477" y="57" width="35" height="35" transform="rotate(0,494.5,74.5)"/><rect x="512" y="57" width="35" height="35" transform="rotate(0,529.5,74.5)"/><rect x="547" y="57" width="35" height="35" transform="rotate(0,564.5,74.5)"/><rect x="582" y="57" width="35" height="35" transform="rotate(0,599.5,74.5)"/><rect x="617" y="57" width="35" height="35" transform="rotate(0,634.5,74.5)"/><rect x="652" y="57" width="35" height="35" transform="rotate(0,669.5,74.5)"/><path d="M 687 57v 35h 17.5a 17.5 17.5, 0, 0, 0, 0 -35" transform="rotate(0,704.5,74.5)"/><path d="M 792 57v 35h 17.5a 17.5 17.5, 0, 0, 0, 0 -35" transform="rotate(-90,809.5,74.5)"/><path d="M 337 92v 35h 35v -17.5a 17.5 17.5, 0, 0, 0, -17.5 -17.5" transform="rotate(180,354.5,109.5)"/><rect x="372" y="92" width="35" height="35" transform="rotate(0,389.5,109.5)"/><rect x="407" y="92" width="35" height="35" transform="rotate(0,424.5,109.5)"/><path d="M 442 92v 35h 35v -17.5a 17.5 17.5, 0, 0, 0, -17.5 -17.5" transform="rotate(90,459.5,109.5)"/><path d="M 582 92v 35h 17.5a 17.5 17.5, 0, 0, 0, 0 -35" transform="rotate(90,599.5,109.5)"/><path d="M 722 92v 35h 17.5a 17.5 17.5, 0, 0, 0, 0 -35" transform="rotate(180,739.5,109.5)"/><rect x="757" y="92" width="35" height="35" transform="rotate(0,774.5,109.5)"/><path d="M 792 92v 35h 35v -17.5a 17.5 17.5, 0, 0, 0, -17.5 -17.5" transform="rotate(90,809.5,109.5)"/><path d="M 302 127v 35h 17.5a 17.5 17.5, 0, 0, 0, 0 -35" transform="rotate(-90,319.5,144.5)"/><rect x="372" y="127" width="35" height="35" transform="rotate(0,389.5,144.5)"/><circle cx="564.5" cy="144.5" r="17.5" transform="rotate(0,564.5,144.5)"/><path d="M 652 127v 35h 35v -17.5a 17.5 17.5, 0, 0, 0, -17.5 -17.5" transform="rotate(-90,669.5,144.5)"/><path d="M 687 127v 35h 35v -17.5a 17.5 17.5, 0, 0, 0, -17.5 -17.5" transform="rotate(0,704.5,144.5)"/><rect x="757" y="127" width="35" height="35" transform="rotate(0,774.5,144.5)"/><path d="M 302 162v 35h 17.5a 17.5 17.5, 0, 0, 0, 0 -35" transform="rotate(90,319.5,179.5)"/><path d="M 372 162v 35h 17.5a 17.5 17.5, 0, 0, 0, 0 -35" transform="rotate(90,389.5,179.5)"/><path d="M 442 162v 35h 17.5a 17.5 17.5, 0, 0, 0, 0 -35" transform="rotate(180,459.5,179.5)"/><path d="M 477 162v 35h 35v -17.5a 17.5 17.5, 0, 0, 0, -17.5 -17.5" transform="rotate(0,494.5,179.5)"/><path d="M 652 162v 35h 35v -17.5a 17.5 17.5, 0, 0, 0, -17.5 -17.5" transform="rotate(180,669.5,179.5)"/><path d="M 687 162v 35h 35v -17.5a 17.5 17.5, 0, 0, 0, -17.5 -17.5" transform="rotate(90,704.5,179.5)"/><rect x="757" y="162" width="35" height="35" transform="rotate(0,774.5,179.5)"/><circle cx="354.5" cy="214.5" r="17.5" transform="rotate(0,354.5,214.5)"/><circle cx="424.5" cy="214.5" r="17.5" transform="rotate(0,424.5,214.5)"/><path d="M 477 197v 35h 17.5a 17.5 17.5, 0, 0, 0, 0 -35" transform="rotate(90,494.5,214.5)"/><path d="M 547 197v 35h 17.5a 17.5 17.5, 0, 0, 0, 0 -35" transform="rotate(180,564.5,214.5)"/><rect x="582" y="197" width="35" height="35" transform="rotate(0,599.5,214.5)"/><path d="M 617 197v 35h 17.5a 17.5 17.5, 0, 0, 0, 0 -35" transform="rotate(0,634.5,214.5)"/><path d="M 757 197v 35h 35v -17.5a 17.5 17.5, 0, 0, 0, -17.5 -17.5" transform="rotate(180,774.5,214.5)"/><rect x="792" y="197" width="35" height="35" transform="rotate(0,809.5,214.5)"/><rect x="827" y="197" width="35" height="35" transform="rotate(0,844.5,214.5)"/><path d="M 862 197v 35h 35v -17.5a 17.5 17.5, 0, 0, 0, -17.5 -17.5" transform="rotate(0,879.5,214.5)"/><path d="M 302 232v 35h 17.5a 17.5 17.5, 0, 0, 0, 0 -35" transform="rotate(-90,319.5,249.5)"/><path d="M 372 232v 35h 17.5a 17.5 17.5, 0, 0, 0, 0 -35" transform="rotate(-90,389.5,249.5)"/><circle cx="459.5" cy="249.5" r="17.5" transform="rotate(0,459.5,249.5)"/><circle cx="529.5" cy="249.5" r="17.5" transform="rotate(0,529.5,249.5)"/><rect x="582" y="232" width="35" height="35" transform="rotate(0,599.5,249.5)"/><circle cx="669.5" cy="249.5" r="17.5" transform="rotate(0,669.5,249.5)"/><circle cx="739.5" cy="249.5" r="17.5" transform="rotate(0,739.5,249.5)"/><path d="M 792 232v 35h 17.5a 17.5 17.5, 0, 0, 0, 0 -35" transform="rotate(90,809.5,249.5)"/><rect x="862" y="232" width="35" height="35" transform="rotate(0,879.5,249.5)"/><rect x="302" y="267" width="35" height="35" transform="rotate(0,319.5,284.5)"/><rect x="337" y="267" width="35" height="35" transform="rotate(0,354.5,284.5)"/><path d="M 372 267v 35h 35v -17.5a 17.5 17.5, 0, 0, 0, -17.5 -17.5" transform="rotate(90,389.5,284.5)"/><path d="M 477 267v 35h 17.5a 17.5 17.5, 0, 0, 0, 0 -35" transform="rotate(-90,494.5,284.5)"/><path d="M 547 267v 35h 35v -17.5a 17.5 17.5, 0, 0, 0, -17.5 -17.5" transform="rotate(-90,564.5,284.5)"/><path d="M 582 267v 35h 35v -17.5a 17.5 17.5, 0, 0, 0, -17.5 -17.5" transform="rotate(90,599.5,284.5)"/><path d="M 687 267v 35h 17.5a 17.5 17.5, 0, 0, 0, 0 -35" transform="rotate(-90,704.5,284.5)"/><path d="M 827 267v 35h 17.5a 17.5 17.5, 0, 0, 0, 0 -35" transform="rotate(180,844.5,284.5)"/><path d="M 862 267v 35h 35v -17.5a 17.5 17.5, 0, 0, 0, -17.5 -17.5" transform="rotate(90,879.5,284.5)"/><path d="M 57 302v 35h 17.5a 17.5 17.5, 0, 0, 0, 0 -35" transform="rotate(-90,74.5,319.5)"/><path d="M 127 302v 35h 17.5a 17.5 17.5, 0, 0, 0, 0 -35" transform="rotate(180,144.5,319.5)"/><rect x="162" y="302" width="35" height="35" transform="rotate(0,179.5,319.5)"/><rect x="197" y="302" width="35" height="35" transform="rotate(0,214.5,319.5)"/><path d="M 232 302v 35h 17.5a 17.5 17.5, 0, 0, 0, 0 -35" transform="rotate(0,249.5,319.5)"/><path d="M 302 302v 35h 35v -17.5a 17.5 17.5, 0, 0, 0, -17.5 -17.5" transform="rotate(180,319.5,319.5)"/><path d="M 337 302v 35h 35v -17.5a 17.5 17.5, 0, 0, 0, -17.5 -17.5" transform="rotate(90,354.5,319.5)"/><circle cx="424.5" cy="319.5" r="17.5" transform="rotate(0,424.5,319.5)"/><path d="M 477 302v 35h 17.5a 17.5 17.5, 0, 0, 0, 0 -35" transform="rotate(90,494.5,319.5)"/><path d="M 547 302v 35h 17.5a 17.5 17.5, 0, 0, 0, 0 -35" transform="rotate(90,564.5,319.5)"/><path d="M 617 302v 35h 35v -17.5a 17.5 17.5, 0, 0, 0, -17.5 -17.5" transform="rotate(-90,634.5,319.5)"/><rect x="652" y="302" width="35" height="35" transform="rotate(0,669.5,319.5)"/><rect x="687" y="302" width="35" height="35" transform="rotate(0,704.5,319.5)"/><path d="M 897 302v 35h 17.5a 17.5 17.5, 0, 0, 0, 0 -35" transform="rotate(180,914.5,319.5)"/><path d="M 932 302v 35h 17.5a 17.5 17.5, 0, 0, 0, 0 -35" transform="rotate(0,949.5,319.5)"/><path d="M 1002 302v 35h 35v -17.5a 17.5 17.5, 0, 0, 0, -17.5 -17.5" transform="rotate(-90,1019.5,319.5)"/><path d="M 1037 302v 35h 35v -17.5a 17.5 17.5, 0, 0, 0, -17.5 -17.5" transform="rotate(0,1054.5,319.5)"/><path d="M 1107 302v 35h 17.5a 17.5 17.5, 0, 0, 0, 0 -35" transform="rotate(-90,1124.5,319.5)"/><rect x="57" y="337" width="35" height="35" transform="rotate(0,74.5,354.5)"/><rect x="162" y="337" width="35" height="35" transform="rotate(0,179.5,354.5)"/><path d="M 267 337v 35h 17.5a 17.5 17.5, 0, 0, 0, 0 -35" transform="rotate(-90,284.5,354.5)"/><path d="M 372 337v 35h 17.5a 17.5 17.5, 0, 0, 0, 0 -35" transform="rotate(-90,389.5,354.5)"/><path d="M 582 337v 35h 17.5a 17.5 17.5, 0, 0, 0, 0 -35" transform="rotate(180,599.5,354.5)"/><rect x="617" y="337" width="35" height="35" transform="rotate(0,634.5,354.5)"/><rect x="652" y="337" width="35" height="35" transform="rotate(0,669.5,354.5)"/><path d="M 687 337v 35h 35v -17.5a 17.5 17.5, 0, 0, 0, -17.5 -17.5" transform="rotate(90,704.5,354.5)"/><path d="M 757 337v 35h 35v -17.5a 17.5 17.5, 0, 0, 0, -17.5 -17.5" transform="rotate(-90,774.5,354.5)"/><rect x="792" y="337" width="35" height="35" transform="rotate(0,809.5,354.5)"/><path d="M 827 337v 35h 35v -17.5a 17.5 17.5, 0, 0, 0, -17.5 -17.5" transform="rotate(0,844.5,354.5)"/><rect x="1002" y="337" width="35" height="35" transform="rotate(0,1019.5,354.5)"/><rect x="1037" y="337" width="35" height="35" transform="rotate(0,1054.5,354.5)"/><rect x="1072" y="337" width="35" height="35" transform="rotate(0,1089.5,354.5)"/><rect x="1107" y="337" width="35" height="35" transform="rotate(0,1124.5,354.5)"/><path d="M 22 372v 35h 17.5a 17.5 17.5, 0, 0, 0, 0 -35" transform="rotate(180,39.5,389.5)"/><rect x="57" y="372" width="35" height="35" transform="rotate(0,74.5,389.5)"/><rect x="92" y="372" width="35" height="35" transform="rotate(0,109.5,389.5)"/><rect x="127" y="372" width="35" height="35" transform="rotate(0,144.5,389.5)"/><path d="M 162 372v 35h 35v -17.5a 17.5 17.5, 0, 0, 0, -17.5 -17.5" transform="rotate(90,179.5,389.5)"/><path d="M 232 372v 35h 17.5a 17.5 17.5, 0, 0, 0, 0 -35" transform="rotate(180,249.5,389.5)"/><rect x="267" y="372" width="35" height="35" transform="rotate(0,284.5,389.5)"/><path d="M 337 372v 35h 17.5a 17.5 17.5, 0, 0, 0, 0 -35" transform="rotate(180,354.5,389.5)"/><rect x="372" y="372" width="35" height="35" transform="rotate(0,389.5,389.5)"/><rect x="407" y="372" width="35" height="35" transform="rotate(0,424.5,389.5)"/><path d="M 442 372v 35h 35v -17.5a 17.5 17.5, 0, 0, 0, -17.5 -17.5" transform="rotate(0,459.5,389.5)"/><path d="M 547 372v 35h 17.5a 17.5 17.5, 0, 0, 0, 0 -35" transform="rotate(-90,564.5,389.5)"/><path d="M 757 372v 35h 17.5a 17.5 17.5, 0, 0, 0, 0 -35" transform="rotate(90,774.5,389.5)"/><rect x="827" y="372" width="35" height="35" transform="rotate(0,844.5,389.5)"/><path d="M 862 372v 35h 17.5a 17.5 17.5, 0, 0, 0, 0 -35" transform="rotate(0,879.5,389.5)"/><circle cx="949.5" cy="389.5" r="17.5" transform="rotate(0,949.5,389.5)"/><path d="M 1002 372v 35h 35v -17.5a 17.5 17.5, 0, 0, 0, -17.5 -17.5" transform="rotate(180,1019.5,389.5)"/><rect x="1037" y="372" width="35" height="35" transform="rotate(0,1054.5,389.5)"/><rect x="1072" y="372" width="35" height="35" transform="rotate(0,1089.5,389.5)"/><rect x="1107" y="372" width="35" height="35" transform="rotate(0,1124.5,389.5)"/><path d="M 1142 372v 35h 35v -17.5a 17.5 17.5, 0, 0, 0, -17.5 -17.5" transform="rotate(0,1159.5,389.5)"/><rect x="57" y="407" width="35" height="35" transform="rotate(0,74.5,424.5)"/><rect x="92" y="407" width="35" height="35" transform="rotate(0,109.5,424.5)"/><rect x="127" y="407" width="35" height="35" transform="rotate(0,144.5,424.5)"/><path d="M 267 407v 35h 17.5a 17.5 17.5, 0, 0, 0, 0 -35" transform="rotate(90,284.5,424.5)"/><rect x="372" y="407" width="35" height="35" transform="rotate(0,389.5,424.5)"/><rect x="407" y="407" width="35" height="35" transform="rotate(0,424.5,424.5)"/><rect x="442" y="407" width="35" height="35" transform="rotate(0,459.5,424.5)"/><path d="M 477 407v 35h 17.5a 17.5 17.5, 0, 0, 0, 0 -35" transform="rotate(0,494.5,424.5)"/><path d="M 547 407v 35h 17.5a 17.5 17.5, 0, 0, 0, 0 -35" transform="rotate(90,564.5,424.5)"/><path d="M 652 407v 35h 17.5a 17.5 17.5, 0, 0, 0, 0 -35" transform="rotate(180,669.5,424.5)"/><path d="M 687 407v 35h 35v -17.5a 17.5 17.5, 0, 0, 0, -17.5 -17.5" transform="rotate(0,704.5,424.5)"/><rect x="827" y="407" width="35" height="35" transform="rotate(0,844.5,424.5)"/><circle cx="914.5" cy="424.5" r="17.5" transform="rotate(0,914.5,424.5)"/><path d="M 967 407v 35h 17.5a 17.5 17.5, 0, 0, 0, 0 -35" transform="rotate(-90,984.5,424.5)"/><path d="M 1072 407v 35h 17.5a 17.5 17.5, 0, 0, 0, 0 -35" transform="rotate(90,1089.5,424.5)"/><path d="M 1142 407v 35h 17.5a 17.5 17.5, 0, 0, 0, 0 -35" transform="rotate(90,1159.5,424.5)"/><path d="M 57 442v 35h 35v -17.5a 17.5 17.5, 0, 0, 0, -17.5 -17.5" transform="rotate(180,74.5,459.5)"/><rect x="92" y="442" width="35" height="35" transform="rotate(0,109.5,459.5)"/><path d="M 127 442v 35h 35v -17.5a 17.5 17.5, 0, 0, 0, -17.5 -17.5" transform="rotate(90,144.5,459.5)"/><path d="M 197 442v 35h 35v -17.5a 17.5 17.5, 0, 0, 0, -17.5 -17.5" transform="rotate(-90,214.5,459.5)"/><path d="M 232 442v 35h 17.5a 17.5 17.5, 0, 0, 0, 0 -35" transform="rotate(0,249.5,459.5)"/><rect x="372" y="442" width="35" height="35" transform="rotate(0,389.5,459.5)"/><circle cx="529.5" cy="459.5" r="17.5" transform="rotate(0,529.5,459.5)"/><path d="M 617 442v 35h 17.5a 17.5 17.5, 0, 0, 0, 0 -35" transform="rotate(-90,634.5,459.5)"/><path d="M 687 442v 35h 17.5a 17.5 17.5, 0, 0, 0, 0 -35" transform="rotate(90,704.5,459.5)"/><rect x="827" y="442" width="35" height="35" transform="rotate(0,844.5,459.5)"/><path d="M 932 442v 35h 17.5a 17.5 17.5, 0, 0, 0, 0 -35" transform="rotate(180,949.5,459.5)"/><rect x="967" y="442" width="35" height="35" transform="rotate(0,984.5,459.5)"/><rect x="92" y="477" width="35" height="35" transform="rotate(0,109.5,494.5)"/><path d="M 162 477v 35h 35v -17.5a 17.5 17.5, 0, 0, 0, -17.5 -17.5" transform="rotate(-90,179.5,494.5)"/><path d="M 197 477v 35h 35v -17.5a 17.5 17.5, 0, 0, 0, -17.5 -17.5" transform="rotate(90,214.5,494.5)"/><path d="M 267 477v 35h 17.5a 17.5 17.5, 0, 0, 0, 0 -35" transform="rotate(-90,284.5,494.5)"/><path d="M 337 477v 35h 17.5a 17.5 17.5, 0, 0, 0, 0 -35" transform="rotate(180,354.5,494.5)"/><rect x="372" y="477" width="35" height="35" transform="rotate(0,389.5,494.5)"/><circle cx="459.5" cy="494.5" r="17.5" transform="rotate(0,459.5,494.5)"/><path d="M 547 477v 35h 17.5a 17.5 17.5, 0, 0, 0, 0 -35" transform="rotate(-90,564.5,494.5)"/><rect x="617" y="477" width="35" height="35" transform="rotate(0,634.5,494.5)"/><path d="M 652 477v 35h 35v -17.5a 17.5 17.5, 0, 0, 0, -17.5 -17.5" transform="rotate(0,669.5,494.5)"/><path d="M 792 477v 35h 17.5a 17.5 17.5, 0, 0, 0, 0 -35" transform="rotate(180,809.5,494.5)"/><path d="M 827 477v 35h 35v -17.5a 17.5 17.5, 0, 0, 0, -17.5 -17.5" transform="rotate(90,844.5,494.5)"/><path d="M 967 477v 35h 17.5a 17.5 17.5, 0, 0, 0, 0 -35" transform="rotate(90,984.5,494.5)"/><circle cx="1089.5" cy="494.5" r="17.5" transform="rotate(0,1089.5,494.5)"/><rect x="92" y="512" width="35" height="35" transform="rotate(0,109.5,529.5)"/><rect x="162" y="512" width="35" height="35" transform="rotate(0,179.5,529.5)"/><path d="M 232 512v 35h 17.5a 17.5 17.5, 0, 0, 0, 0 -35" transform="rotate(180,249.5,529.5)"/><rect x="267" y="512" width="35" height="35" transform="rotate(0,284.5,529.5)"/><path d="M 302 512v 35h 35v -17.5a 17.5 17.5, 0, 0, 0, -17.5 -17.5" transform="rotate(0,319.5,529.5)"/><path d="M 372 512v 35h 35v -17.5a 17.5 17.5, 0, 0, 0, -17.5 -17.5" transform="rotate(180,389.5,529.5)"/><path d="M 407 512v 35h 17.5a 17.5 17.5, 0, 0, 0, 0 -35" transform="rotate(0,424.5,529.5)"/><path d="M 477 512v 35h 17.5a 17.5 17.5, 0, 0, 0, 0 -35" transform="rotate(-90,494.5,529.5)"/><path d="M 547 512v 35h 17.5a 17.5 17.5, 0, 0, 0, 0 -35" transform="rotate(90,564.5,529.5)"/><path d="M 617 512v 35h 35v -17.5a 17.5 17.5, 0, 0, 0, -17.5 -17.5" transform="rotate(180,634.5,529.5)"/><rect x="652" y="512" width="35" height="35" transform="rotate(0,669.5,529.5)"/><rect x="687" y="512" width="35" height="35" transform="rotate(0,704.5,529.5)"/><rect x="722" y="512" width="35" height="35" transform="rotate(0,739.5,529.5)"/><path d="M 757 512v 35h 17.5a 17.5 17.5, 0, 0, 0, 0 -35" transform="rotate(0,774.5,529.5)"/><circle cx="949.5" cy="529.5" r="17.5" transform="rotate(0,949.5,529.5)"/><path d="M 1037 512v 35h 17.5a 17.5 17.5, 0, 0, 0, 0 -35" transform="rotate(-90,1054.5,529.5)"/><path d="M 22 547v 35h 17.5a 17.5 17.5, 0, 0, 0, 0 -35" transform="rotate(180,39.5,564.5)"/><rect x="57" y="547" width="35" height="35" transform="rotate(0,74.5,564.5)"/><rect x="92" y="547" width="35" height="35" transform="rotate(0,109.5,564.5)"/><rect x="162" y="547" width="35" height="35" transform="rotate(0,179.5,564.5)"/><path d="M 197 547v 35h 17.5a 17.5 17.5, 0, 0, 0, 0 -35" transform="rotate(0,214.5,564.5)"/><path d="M 302 547v 35h 35v -17.5a 17.5 17.5, 0, 0, 0, -17.5 -17.5" transform="rotate(180,319.5,564.5)"/><path d="M 337 547v 35h 17.5a 17.5 17.5, 0, 0, 0, 0 -35" transform="rotate(0,354.5,564.5)"/><path d="M 442 547v 35h 35v -17.5a 17.5 17.5, 0, 0, 0, -17.5 -17.5" transform="rotate(-90,459.5,564.5)"/><rect x="477" y="547" width="35" height="35" transform="rotate(0,494.5,564.5)"/><circle cx="599.5" cy="564.5" r="17.5" transform="rotate(0,599.5,564.5)"/><rect x="652" y="547" width="35" height="35" transform="rotate(0,669.5,564.5)"/><rect x="722" y="547" width="35" height="35" transform="rotate(0,739.5,564.5)"/><path d="M 862 547v 35h 17.5a 17.5 17.5, 0, 0, 0, 0 -35" transform="rotate(180,879.5,564.5)"/><path d="M 897 547v 35h 35v -17.5a 17.5 17.5, 0, 0, 0, -17.5 -17.5" transform="rotate(0,914.5,564.5)"/><path d="M 1002 547v 35h 35v -17.5a 17.5 17.5, 0, 0, 0, -17.5 -17.5" transform="rotate(-90,1019.5,564.5)"/><rect x="1037" y="547" width="35" height="35" transform="rotate(0,1054.5,564.5)"/><path d="M 1072 547v 35h 17.5a 17.5 17.5, 0, 0, 0, 0 -35" transform="rotate(0,1089.5,564.5)"/><circle cx="1159.5" cy="564.5" r="17.5" transform="rotate(0,1159.5,564.5)"/><rect x="92" y="582" width="35" height="35" transform="rotate(0,109.5,599.5)"/><rect x="127" y="582" width="35" height="35" transform="rotate(0,144.5,599.5)"/><path d="M 162 582v 35h 35v -17.5a 17.5 17.5, 0, 0, 0, -17.5 -17.5" transform="rotate(90,179.5,599.5)"/><circle cx="249.5" cy="599.5" r="17.5" transform="rotate(0,249.5,599.5)"/><path d="M 372 582v 35h 35v -17.5a 17.5 17.5, 0, 0, 0, -17.5 -17.5" transform="rotate(-90,389.5,599.5)"/><rect x="407" y="582" width="35" height="35" transform="rotate(0,424.5,599.5)"/><rect x="442" y="582" width="35" height="35" transform="rotate(0,459.5,599.5)"/><rect x="477" y="582" width="35" height="35" transform="rotate(0,494.5,599.5)"/><rect x="512" y="582" width="35" height="35" transform="rotate(0,529.5,599.5)"/><path d="M 547 582v 35h 17.5a 17.5 17.5, 0, 0, 0, 0 -35" transform="rotate(0,564.5,599.5)"/><path d="M 652 582v 35h 17.5a 17.5 17.5, 0, 0, 0, 0 -35" transform="rotate(90,669.5,599.5)"/><rect x="722" y="582" width="35" height="35" transform="rotate(0,739.5,599.5)"/><path d="M 792 582v 35h 35v -17.5a 17.5 17.5, 0, 0, 0, -17.5 -17.5" transform="rotate(-90,809.5,599.5)"/><path d="M 827 582v 35h 17.5a 17.5 17.5, 0, 0, 0, 0 -35" transform="rotate(0,844.5,599.5)"/><path d="M 897 582v 35h 35v -17.5a 17.5 17.5, 0, 0, 0, -17.5 -17.5" transform="rotate(180,914.5,599.5)"/><rect x="932" y="582" width="35" height="35" transform="rotate(0,949.5,599.5)"/><rect x="967" y="582" width="35" height="35" transform="rotate(0,984.5,599.5)"/><rect x="1002" y="582" width="35" height="35" transform="rotate(0,1019.5,599.5)"/><path d="M 1037 582v 35h 35v -17.5a 17.5 17.5, 0, 0, 0, -17.5 -17.5" transform="rotate(90,1054.5,599.5)"/><path d="M 57 617v 35h 17.5a 17.5 17.5, 0, 0, 0, 0 -35" transform="rotate(180,74.5,634.5)"/><rect x="92" y="617" width="35" height="35" transform="rotate(0,109.5,634.5)"/><path d="M 127 617v 35h 35v -17.5a 17.5 17.5, 0, 0, 0, -17.5 -17.5" transform="rotate(90,144.5,634.5)"/><rect x="372" y="617" width="35" height="35" transform="rotate(0,389.5,634.5)"/><path d="M 442 617v 35h 17.5a 17.5 17.5, 0, 0, 0, 0 -35" transform="rotate(90,459.5,634.5)"/><path d="M 582 617v 35h 35v -17.5a 17.5 17.5, 0, 0, 0, -17.5 -17.5" transform="rotate(-90,599.5,634.5)"/><path d="M 617 617v 35h 17.5a 17.5 17.5, 0, 0, 0, 0 -35" transform="rotate(0,634.5,634.5)"/><path d="M 687 617v 35h 35v -17.5a 17.5 17.5, 0, 0, 0, -17.5 -17.5" transform="rotate(-90,704.5,634.5)"/><rect x="722" y="617" width="35" height="35" transform="rotate(0,739.5,634.5)"/><rect x="792" y="617" width="35" height="35" transform="rotate(0,809.5,634.5)"/><rect x="932" y="617" width="35" height="35" transform="rotate(0,949.5,634.5)"/><path d="M 1002 617v 35h 17.5a 17.5 17.5, 0, 0, 0, 0 -35" transform="rotate(90,1019.5,634.5)"/><path d="M 1072 617v 35h 17.5a 17.5 17.5, 0, 0, 0, 0 -35" transform="rotate(-90,1089.5,634.5)"/><path d="M 1142 617v 35h 17.5a 17.5 17.5, 0, 0, 0, 0 -35" transform="rotate(-90,1159.5,634.5)"/><circle cx="39.5" cy="669.5" r="17.5" transform="rotate(0,39.5,669.5)"/><path d="M 162 652v 35h 17.5a 17.5 17.5, 0, 0, 0, 0 -35" transform="rotate(-90,179.5,669.5)"/><circle cx="249.5" cy="669.5" r="17.5" transform="rotate(0,249.5,669.5)"/><path d="M 302 652v 35h 17.5a 17.5 17.5, 0, 0, 0, 0 -35" transform="rotate(-90,319.5,669.5)"/><rect x="372" y="652" width="35" height="35" transform="rotate(0,389.5,669.5)"/><rect x="582" y="652" width="35" height="35" transform="rotate(0,599.5,669.5)"/><path d="M 652 652v 35h 17.5a 17.5 17.5, 0, 0, 0, 0 -35" transform="rotate(180,669.5,669.5)"/><rect x="687" y="652" width="35" height="35" transform="rotate(0,704.5,669.5)"/><path d="M 722 652v 35h 35v -17.5a 17.5 17.5, 0, 0, 0, -17.5 -17.5" transform="rotate(90,739.5,669.5)"/><rect x="792" y="652" width="35" height="35" transform="rotate(0,809.5,669.5)"/><rect x="827" y="652" width="35" height="35" transform="rotate(0,844.5,669.5)"/><rect x="862" y="652" width="35" height="35" transform="rotate(0,879.5,669.5)"/><rect x="897" y="652" width="35" height="35" transform="rotate(0,914.5,669.5)"/><rect x="932" y="652" width="35" height="35" transform="rotate(0,949.5,669.5)"/><path d="M 967 652v 35h 17.5a 17.5 17.5, 0, 0, 0, 0 -35" transform="rotate(0,984.5,669.5)"/><path d="M 1037 652v 35h 35v -17.5a 17.5 17.5, 0, 0, 0, -17.5 -17.5" transform="rotate(-90,1054.5,669.5)"/><rect x="1072" y="652" width="35" height="35" transform="rotate(0,1089.5,669.5)"/><rect x="1142" y="652" width="35" height="35" transform="rotate(0,1159.5,669.5)"/><circle cx="74.5" cy="704.5" r="17.5" transform="rotate(0,74.5,704.5)"/><rect x="162" y="687" width="35" height="35" transform="rotate(0,179.5,704.5)"/><path d="M 197 687v 35h 35v -17.5a 17.5 17.5, 0, 0, 0, -17.5 -17.5" transform="rotate(0,214.5,704.5)"/><path d="M 302 687v 35h 35v -17.5a 17.5 17.5, 0, 0, 0, -17.5 -17.5" transform="rotate(180,319.5,704.5)"/><rect x="337" y="687" width="35" height="35" transform="rotate(0,354.5,704.5)"/><path d="M 372 687v 35h 35v -17.5a 17.5 17.5, 0, 0, 0, -17.5 -17.5" transform="rotate(90,389.5,704.5)"/><path d="M 512 687v 35h 35v -17.5a 17.5 17.5, 0, 0, 0, -17.5 -17.5" transform="rotate(-90,529.5,704.5)"/><rect x="547" y="687" width="35" height="35" transform="rotate(0,564.5,704.5)"/><rect x="582" y="687" width="35" height="35" transform="rotate(0,599.5,704.5)"/><path d="M 792 687v 35h 17.5a 17.5 17.5, 0, 0, 0, 0 -35" transform="rotate(90,809.5,704.5)"/><path d="M 897 687v 35h 17.5a 17.5 17.5, 0, 0, 0, 0 -35" transform="rotate(90,914.5,704.5)"/><path d="M 1002 687v 35h 17.5a 17.5 17.5, 0, 0, 0, 0 -35" transform="rotate(180,1019.5,704.5)"/><rect x="1037" y="687" width="35" height="35" transform="rotate(0,1054.5,704.5)"/><path d="M 1072 687v 35h 35v -17.5a 17.5 17.5, 0, 0, 0, -17.5 -17.5" transform="rotate(90,1089.5,704.5)"/><rect x="1142" y="687" width="35" height="35" transform="rotate(0,1159.5,704.5)"/><path d="M 22 722v 35h 17.5a 17.5 17.5, 0, 0, 0, 0 -35" transform="rotate(-90,39.5,739.5)"/><rect x="162" y="722" width="35" height="35" transform="rotate(0,179.5,739.5)"/><rect x="197" y="722" width="35" height="35" transform="rotate(0,214.5,739.5)"/><path d="M 232 722v 35h 17.5a 17.5 17.5, 0, 0, 0, 0 -35" transform="rotate(0,249.5,739.5)"/><path d="M 407 722v 35h 17.5a 17.5 17.5, 0, 0, 0, 0 -35" transform="rotate(180,424.5,739.5)"/><path d="M 442 722v 35h 17.5a 17.5 17.5, 0, 0, 0, 0 -35" transform="rotate(0,459.5,739.5)"/><path d="M 512 722v 35h 35v -17.5a 17.5 17.5, 0, 0, 0, -17.5 -17.5" transform="rotate(180,529.5,739.5)"/><rect x="547" y="722" width="35" height="35" transform="rotate(0,564.5,739.5)"/><rect x="582" y="722" width="35" height="35" transform="rotate(0,599.5,739.5)"/><rect x="617" y="722" width="35" height="35" transform="rotate(0,634.5,739.5)"/><path d="M 652 722v 35h 35v -17.5a 17.5 17.5, 0, 0, 0, -17.5 -17.5" transform="rotate(0,669.5,739.5)"/><path d="M 827 722v 35h 35v -17.5a 17.5 17.5, 0, 0, 0, -17.5 -17.5" transform="rotate(-90,844.5,739.5)"/><path d="M 862 722v 35h 17.5a 17.5 17.5, 0, 0, 0, 0 -35" transform="rotate(0,879.5,739.5)"/><path d="M 967 722v 35h 17.5a 17.5 17.5, 0, 0, 0, 0 -35" transform="rotate(-90,984.5,739.5)"/><rect x="1037" y="722" width="35" height="35" transform="rotate(0,1054.5,739.5)"/><path d="M 1107 722v 35h 17.5a 17.5 17.5, 0, 0, 0, 0 -35" transform="rotate(180,1124.5,739.5)"/><path d="M 1142 722v 35h 35v -17.5a 17.5 17.5, 0, 0, 0, -17.5 -17.5" transform="rotate(90,1159.5,739.5)"/><rect x="22" y="757" width="35" height="35" transform="rotate(0,39.5,774.5)"/><path d="M 162 757v 35h 17.5a 17.5 17.5, 0, 0, 0, 0 -35" transform="rotate(90,179.5,774.5)"/><path d="M 267 757v 35h 35v -17.5a 17.5 17.5, 0, 0, 0, -17.5 -17.5" transform="rotate(-90,284.5,774.5)"/><rect x="302" y="757" width="35" height="35" transform="rotate(0,319.5,774.5)"/><path d="M 337 757v 35h 35v -17.5a 17.5 17.5, 0, 0, 0, -17.5 -17.5" transform="rotate(0,354.5,774.5)"/><path d="M 477 757v 35h 17.5a 17.5 17.5, 0, 0, 0, 0 -35" transform="rotate(-90,494.5,774.5)"/><path d="M 547 757v 35h 35v -17.5a 17.5 17.5, 0, 0, 0, -17.5 -17.5" transform="rotate(180,564.5,774.5)"/><rect x="582" y="757" width="35" height="35" transform="rotate(0,599.5,774.5)"/><rect x="617" y="757" width="35" height="35" transform="rotate(0,634.5,774.5)"/><rect x="652" y="757" width="35" height="35" transform="rotate(0,669.5,774.5)"/><path d="M 687 757v 35h 17.5a 17.5 17.5, 0, 0, 0, 0 -35" transform="rotate(0,704.5,774.5)"/><rect x="827" y="757" width="35" height="35" transform="rotate(0,844.5,774.5)"/><rect x="967" y="757" width="35" height="35" transform="rotate(0,984.5,774.5)"/><rect x="1002" y="757" width="35" height="35" transform="rotate(0,1019.5,774.5)"/><rect x="1037" y="757" width="35" height="35" transform="rotate(0,1054.5,774.5)"/><path d="M 1072 757v 35h 35v -17.5a 17.5 17.5, 0, 0, 0, -17.5 -17.5" transform="rotate(0,1089.5,774.5)"/><rect x="22" y="792" width="35" height="35" transform="rotate(0,39.5,809.5)"/><path d="M 92 792v 35h 17.5a 17.5 17.5, 0, 0, 0, 0 -35" transform="rotate(-90,109.5,809.5)"/><path d="M 197 792v 35h 17.5a 17.5 17.5, 0, 0, 0, 0 -35" transform="rotate(180,214.5,809.5)"/><rect x="232" y="792" width="35" height="35" transform="rotate(0,249.5,809.5)"/><path d="M 267 792v 35h 35v -17.5a 17.5 17.5, 0, 0, 0, -17.5 -17.5" transform="rotate(90,284.5,809.5)"/><path d="M 337 792v 35h 17.5a 17.5 17.5, 0, 0, 0, 0 -35" transform="rotate(90,354.5,809.5)"/><path d="M 442 792v 35h 35v -17.5a 17.5 17.5, 0, 0, 0, -17.5 -17.5" transform="rotate(-90,459.5,809.5)"/><rect x="477" y="792" width="35" height="35" transform="rotate(0,494.5,809.5)"/><path d="M 512 792v 35h 17.5a 17.5 17.5, 0, 0, 0, 0 -35" transform="rotate(0,529.5,809.5)"/><rect x="617" y="792" width="35" height="35" transform="rotate(0,634.5,809.5)"/><path d="M 652 792v 35h 35v -17.5a 17.5 17.5, 0, 0, 0, -17.5 -17.5" transform="rotate(90,669.5,809.5)"/><path d="M 792 792v 35h 35v -17.5a 17.5 17.5, 0, 0, 0, -17.5 -17.5" transform="rotate(-90,809.5,809.5)"/><rect x="827" y="792" width="35" height="35" transform="rotate(0,844.5,809.5)"/><path d="M 932 792v 35h 35v -17.5a 17.5 17.5, 0, 0, 0, -17.5 -17.5" transform="rotate(-90,949.5,809.5)"/><rect x="967" y="792" width="35" height="35" transform="rotate(0,984.5,809.5)"/><rect x="1072" y="792" width="35" height="35" transform="rotate(0,1089.5,809.5)"/><rect x="1107" y="792" width="35" height="35" transform="rotate(0,1124.5,809.5)"/><path d="M 1142 792v 35h 17.5a 17.5 17.5, 0, 0, 0, 0 -35" transform="rotate(0,1159.5,809.5)"/><rect x="22" y="827" width="35" height="35" transform="rotate(0,39.5,844.5)"/><rect x="92" y="827" width="35" height="35" transform="rotate(0,109.5,844.5)"/><circle cx="179.5" cy="844.5" r="17.5" transform="rotate(0,179.5,844.5)"/><path d="M 372 827v 35h 17.5a 17.5 17.5, 0, 0, 0, 0 -35" transform="rotate(-90,389.5,844.5)"/><rect x="442" y="827" width="35" height="35" transform="rotate(0,459.5,844.5)"/><path d="M 547 827v 35h 35v -17.5a 17.5 17.5, 0, 0, 0, -17.5 -17.5" transform="rotate(-90,564.5,844.5)"/><rect x="582" y="827" width="35" height="35" transform="rotate(0,599.5,844.5)"/><rect x="617" y="827" width="35" height="35" transform="rotate(0,634.5,844.5)"/><path d="M 687 827v 35h 17.5a 17.5 17.5, 0, 0, 0, 0 -35" transform="rotate(-90,704.5,844.5)"/><path d="M 792 827v 35h 35v -17.5a 17.5 17.5, 0, 0, 0, -17.5 -17.5" transform="rotate(180,809.5,844.5)"/><path d="M 827 827v 35h 35v -17.5a 17.5 17.5, 0, 0, 0, -17.5 -17.5" transform="rotate(90,844.5,844.5)"/><path d="M 897 827v 35h 35v -17.5a 17.5 17.5, 0, 0, 0, -17.5 -17.5" transform="rotate(-90,914.5,844.5)"/><rect x="932" y="827" width="35" height="35" transform="rotate(0,949.5,844.5)"/><rect x="967" y="827" width="35" height="35" transform="rotate(0,984.5,844.5)"/><path d="M 1002 827v 35h 35v -17.5a 17.5 17.5, 0, 0, 0, -17.5 -17.5" transform="rotate(0,1019.5,844.5)"/><path d="M 1072 827v 35h 35v -17.5a 17.5 17.5, 0, 0, 0, -17.5 -17.5" transform="rotate(180,1089.5,844.5)"/><path d="M 1107 827v 35h 35v -17.5a 17.5 17.5, 0, 0, 0, -17.5 -17.5" transform="rotate(90,1124.5,844.5)"/><path d="M 22 862v 35h 35v -17.5a 17.5 17.5, 0, 0, 0, -17.5 -17.5" transform="rotate(180,39.5,879.5)"/><rect x="57" y="862" width="35" height="35" transform="rotate(0,74.5,879.5)"/><path d="M 92 862v 35h 35v -17.5a 17.5 17.5, 0, 0, 0, -17.5 -17.5" transform="rotate(90,109.5,879.5)"/><path d="M 197 862v 35h 17.5a 17.5 17.5, 0, 0, 0, 0 -35" transform="rotate(180,214.5,879.5)"/><rect x="232" y="862" width="35" height="35" transform="rotate(0,249.5,879.5)"/><rect x="267" y="862" width="35" height="35" transform="rotate(0,284.5,879.5)"/><rect x="302" y="862" width="35" height="35" transform="rotate(0,319.5,879.5)"/><rect x="337" y="862" width="35" height="35" transform="rotate(0,354.5,879.5)"/><rect x="372" y="862" width="35" height="35" transform="rotate(0,389.5,879.5)"/><rect x="407" y="862" width="35" height="35" transform="rotate(0,424.5,879.5)"/><rect x="442" y="862" width="35" height="35" transform="rotate(0,459.5,879.5)"/><path d="M 477 862v 35h 35v -17.5a 17.5 17.5, 0, 0, 0, -17.5 -17.5" transform="rotate(0,494.5,879.5)"/><rect x="547" y="862" width="35" height="35" transform="rotate(0,564.5,879.5)"/><path d="M 617 862v 35h 35v -17.5a 17.5 17.5, 0, 0, 0, -17.5 -17.5" transform="rotate(180,634.5,879.5)"/><rect x="652" y="862" width="35" height="35" transform="rotate(0,669.5,879.5)"/><rect x="687" y="862" width="35" height="35" transform="rotate(0,704.5,879.5)"/><path d="M 722 862v 35h 35v -17.5a 17.5 17.5, 0, 0, 0, -17.5 -17.5" transform="rotate(0,739.5,879.5)"/><path d="M 862 862v 35h 35v -17.5a 17.5 17.5, 0, 0, 0, -17.5 -17.5" transform="rotate(-90,879.5,879.5)"/><rect x="897" y="862" width="35" height="35" transform="rotate(0,914.5,879.5)"/><rect x="932" y="862" width="35" height="35" transform="rotate(0,949.5,879.5)"/><rect x="967" y="862" width="35" height="35" transform="rotate(0,984.5,879.5)"/><rect x="1002" y="862" width="35" height="35" transform="rotate(0,1019.5,879.5)"/><path d="M 302 897v 35h 35v -17.5a 17.5 17.5, 0, 0, 0, -17.5 -17.5" transform="rotate(180,319.5,914.5)"/><path d="M 337 897v 35h 35v -17.5a 17.5 17.5, 0, 0, 0, -17.5 -17.5" transform="rotate(90,354.5,914.5)"/><path d="M 477 897v 35h 17.5a 17.5 17.5, 0, 0, 0, 0 -35" transform="rotate(90,494.5,914.5)"/><path d="M 547 897v 35h 17.5a 17.5 17.5, 0, 0, 0, 0 -35" transform="rotate(90,564.5,914.5)"/><rect x="652" y="897" width="35" height="35" transform="rotate(0,669.5,914.5)"/><rect x="722" y="897" width="35" height="35" transform="rotate(0,739.5,914.5)"/><rect x="862" y="897" width="35" height="35" transform="rotate(0,879.5,914.5)"/><rect x="1002" y="897" width="35" height="35" transform="rotate(0,1019.5,914.5)"/><path d="M 1072 897v 35h 35v -17.5a 17.5 17.5, 0, 0, 0, -17.5 -17.5" transform="rotate(-90,1089.5,914.5)"/><path d="M 1107 897v 35h 17.5a 17.5 17.5, 0, 0, 0, 0 -35" transform="rotate(0,1124.5,914.5)"/><path d="M 407 932v 35h 35v -17.5a 17.5 17.5, 0, 0, 0, -17.5 -17.5" transform="rotate(-90,424.5,949.5)"/><path d="M 442 932v 35h 17.5a 17.5 17.5, 0, 0, 0, 0 -35" transform="rotate(0,459.5,949.5)"/><path d="M 582 932v 35h 35v -17.5a 17.5 17.5, 0, 0, 0, -17.5 -17.5" transform="rotate(-90,599.5,949.5)"/><rect x="617" y="932" width="35" height="35" transform="rotate(0,634.5,949.5)"/><rect x="652" y="932" width="35" height="35" transform="rotate(0,669.5,949.5)"/><rect x="687" y="932" width="35" height="35" transform="rotate(0,704.5,949.5)"/><rect x="722" y="932" width="35" height="35" transform="rotate(0,739.5,949.5)"/><path d="M 757 932v 35h 17.5a 17.5 17.5, 0, 0, 0, 0 -35" transform="rotate(0,774.5,949.5)"/><path d="M 827 932v 35h 35v -17.5a 17.5 17.5, 0, 0, 0, -17.5 -17.5" transform="rotate(-90,844.5,949.5)"/><rect x="862" y="932" width="35" height="35" transform="rotate(0,879.5,949.5)"/><circle cx="949.5" cy="949.5" r="17.5" transform="rotate(0,949.5,949.5)"/><rect x="1002" y="932" width="35" height="35" transform="rotate(0,1019.5,949.5)"/><rect x="1072" y="932" width="35" height="35" transform="rotate(0,1089.5,949.5)"/><path d="M 302 967v 35h 17.5a 17.5 17.5, 0, 0, 0, 0 -35" transform="rotate(-90,319.5,984.5)"/><path d="M 372 967v 35h 35v -17.5a 17.5 17.5, 0, 0, 0, -17.5 -17.5" transform="rotate(-90,389.5,984.5)"/><rect x="407" y="967" width="35" height="35" transform="rotate(0,424.5,984.5)"/><path d="M 477 967v 35h 17.5a 17.5 17.5, 0, 0, 0, 0 -35" transform="rotate(180,494.5,984.5)"/><rect x="512" y="967" width="35" height="35" transform="rotate(0,529.5,984.5)"/><rect x="547" y="967" width="35" height="35" transform="rotate(0,564.5,984.5)"/><rect x="582" y="967" width="35" height="35" transform="rotate(0,599.5,984.5)"/><rect x="722" y="967" width="35" height="35" transform="rotate(0,739.5,984.5)"/><path d="M 792 967v 35h 35v -17.5a 17.5 17.5, 0, 0, 0, -17.5 -17.5" transform="rotate(-90,809.5,984.5)"/><rect x="827" y="967" width="35" height="35" transform="rotate(0,844.5,984.5)"/><rect x="862" y="967" width="35" height="35" transform="rotate(0,879.5,984.5)"/><rect x="1002" y="967" width="35" height="35" transform="rotate(0,1019.5,984.5)"/><rect x="1037" y="967" width="35" height="35" transform="rotate(0,1054.5,984.5)"/><rect x="1072" y="967" width="35" height="35" transform="rotate(0,1089.5,984.5)"/><path d="M 1107 967v 35h 35v -17.5a 17.5 17.5, 0, 0, 0, -17.5 -17.5" transform="rotate(0,1124.5,984.5)"/><rect x="302" y="1002" width="35" height="35" transform="rotate(0,319.5,1019.5)"/><path d="M 372 1002v 35h 35v -17.5a 17.5 17.5, 0, 0, 0, -17.5 -17.5" transform="rotate(180,389.5,1019.5)"/><rect x="407" y="1002" width="35" height="35" transform="rotate(0,424.5,1019.5)"/><rect x="512" y="1002" width="35" height="35" transform="rotate(0,529.5,1019.5)"/><path d="M 582 1002v 35h 35v -17.5a 17.5 17.5, 0, 0, 0, -17.5 -17.5" transform="rotate(180,599.5,1019.5)"/><rect x="617" y="1002" width="35" height="35" transform="rotate(0,634.5,1019.5)"/><rect x="652" y="1002" width="35" height="35" transform="rotate(0,669.5,1019.5)"/><rect x="687" y="1002" width="35" height="35" transform="rotate(0,704.5,1019.5)"/><rect x="722" y="1002" width="35" height="35" transform="rotate(0,739.5,1019.5)"/><rect x="792" y="1002" width="35" height="35" transform="rotate(0,809.5,1019.5)"/><rect x="827" y="1002" width="35" height="35" transform="rotate(0,844.5,1019.5)"/><rect x="862" y="1002" width="35" height="35" transform="rotate(0,879.5,1019.5)"/><rect x="897" y="1002" width="35" height="35" transform="rotate(0,914.5,1019.5)"/><rect x="932" y="1002" width="35" height="35" transform="rotate(0,949.5,1019.5)"/><rect x="967" y="1002" width="35" height="35" transform="rotate(0,984.5,1019.5)"/><path d="M 1002 1002v 35h 35v -17.5a 17.5 17.5, 0, 0, 0, -17.5 -17.5" transform="rotate(90,1019.5,1019.5)"/><path d="M 1107 1002v 35h 17.5a 17.5 17.5, 0, 0, 0, 0 -35" transform="rotate(90,1124.5,1019.5)"/><path d="M 302 1037v 35h 35v -17.5a 17.5 17.5, 0, 0, 0, -17.5 -17.5" transform="rotate(180,319.5,1054.5)"/><path d="M 337 1037v 35h 17.5a 17.5 17.5, 0, 0, 0, 0 -35" transform="rotate(0,354.5,1054.5)"/><path d="M 407 1037v 35h 17.5a 17.5 17.5, 0, 0, 0, 0 -35" transform="rotate(90,424.5,1054.5)"/><path d="M 477 1037v 35h 35v -17.5a 17.5 17.5, 0, 0, 0, -17.5 -17.5" transform="rotate(-90,494.5,1054.5)"/><rect x="512" y="1037" width="35" height="35" transform="rotate(0,529.5,1054.5)"/><path d="M 617 1037v 35h 35v -17.5a 17.5 17.5, 0, 0, 0, -17.5 -17.5" transform="rotate(180,634.5,1054.5)"/><rect x="652" y="1037" width="35" height="35" transform="rotate(0,669.5,1054.5)"/><rect x="687" y="1037" width="35" height="35" transform="rotate(0,704.5,1054.5)"/><rect x="722" y="1037" width="35" height="35" transform="rotate(0,739.5,1054.5)"/><rect x="757" y="1037" width="35" height="35" transform="rotate(0,774.5,1054.5)"/><path d="M 792 1037v 35h 35v -17.5a 17.5 17.5, 0, 0, 0, -17.5 -17.5" transform="rotate(90,809.5,1054.5)"/><rect x="862" y="1037" width="35" height="35" transform="rotate(0,879.5,1054.5)"/><path d="M 897 1037v 35h 35v -17.5a 17.5 17.5, 0, 0, 0, -17.5 -17.5" transform="rotate(90,914.5,1054.5)"/><rect x="967" y="1037" width="35" height="35" transform="rotate(0,984.5,1054.5)"/><path d="M 1037 1037v 35h 35v -17.5a 17.5 17.5, 0, 0, 0, -17.5 -17.5" transform="rotate(-90,1054.5,1054.5)"/><path d="M 1072 1037v 35h 17.5a 17.5 17.5, 0, 0, 0, 0 -35" transform="rotate(0,1089.5,1054.5)"/><path d="M 1142 1037v 35h 17.5a 17.5 17.5, 0, 0, 0, 0 -35" transform="rotate(-90,1159.5,1054.5)"/><path d="M 442 1072v 35h 35v -17.5a 17.5 17.5, 0, 0, 0, -17.5 -17.5" transform="rotate(-90,459.5,1089.5)"/><rect x="477" y="1072" width="35" height="35" transform="rotate(0,494.5,1089.5)"/><path d="M 512 1072v 35h 35v -17.5a 17.5 17.5, 0, 0, 0, -17.5 -17.5" transform="rotate(90,529.5,1089.5)"/><rect x="652" y="1072" width="35" height="35" transform="rotate(0,669.5,1089.5)"/><path d="M 687 1072v 35h 35v -17.5a 17.5 17.5, 0, 0, 0, -17.5 -17.5" transform="rotate(90,704.5,1089.5)"/><path d="M 757 1072v 35h 17.5a 17.5 17.5, 0, 0, 0, 0 -35" transform="rotate(90,774.5,1089.5)"/><path d="M 862 1072v 35h 17.5a 17.5 17.5, 0, 0, 0, 0 -35" transform="rotate(90,879.5,1089.5)"/><rect x="967" y="1072" width="35" height="35" transform="rotate(0,984.5,1089.5)"/><rect x="1002" y="1072" width="35" height="35" transform="rotate(0,1019.5,1089.5)"/><rect x="1037" y="1072" width="35" height="35" transform="rotate(0,1054.5,1089.5)"/><path d="M 1107 1072v 35h 35v -17.5a 17.5 17.5, 0, 0, 0, -17.5 -17.5" transform="rotate(-90,1124.5,1089.5)"/><rect x="1142" y="1072" width="35" height="35" transform="rotate(0,1159.5,1089.5)"/><path d="M 302 1107v 35h 17.5a 17.5 17.5, 0, 0, 0, 0 -35" transform="rotate(180,319.5,1124.5)"/><rect x="337" y="1107" width="35" height="35" transform="rotate(0,354.5,1124.5)"/><rect x="372" y="1107" width="35" height="35" transform="rotate(0,389.5,1124.5)"/><rect x="407" y="1107" width="35" height="35" transform="rotate(0,424.5,1124.5)"/><path d="M 442 1107v 35h 35v -17.5a 17.5 17.5, 0, 0, 0, -17.5 -17.5" transform="rotate(90,459.5,1124.5)"/><circle cx="564.5" cy="1124.5" r="17.5" transform="rotate(0,564.5,1124.5)"/><path d="M 652 1107v 35h 17.5a 17.5 17.5, 0, 0, 0, 0 -35" transform="rotate(90,669.5,1124.5)"/><path d="M 932 1107v 35h 17.5a 17.5 17.5, 0, 0, 0, 0 -35" transform="rotate(180,949.5,1124.5)"/><rect x="967" y="1107" width="35" height="35" transform="rotate(0,984.5,1124.5)"/><rect x="1002" y="1107" width="35" height="35" transform="rotate(0,1019.5,1124.5)"/><rect x="1037" y="1107" width="35" height="35" transform="rotate(0,1054.5,1124.5)"/><rect x="1072" y="1107" width="35" height="35" transform="rotate(0,1089.5,1124.5)"/><rect x="1107" y="1107" width="35" height="35" transform="rotate(0,1124.5,1124.5)"/><path d="M 1142 1107v 35h 35v -17.5a 17.5 17.5, 0, 0, 0, -17.5 -17.5" transform="rotate(90,1159.5,1124.5)"/><path d="M 337 1142v 35h 17.5a 17.5 17.5, 0, 0, 0, 0 -35" transform="rotate(90,354.5,1159.5)"/><circle cx="494.5" cy="1159.5" r="17.5" transform="rotate(0,494.5,1159.5)"/><circle cx="739.5" cy="1159.5" r="17.5" transform="rotate(0,739.5,1159.5)"/><path d="M 862 1142v 35h 17.5a 17.5 17.5, 0, 0, 0, 0 -35" transform="rotate(180,879.5,1159.5)"/><path d="M 897 1142v 35h 17.5a 17.5 17.5, 0, 0, 0, 0 -35" transform="rotate(0,914.5,1159.5)"/><path d="M 967 1142v 35h 35v -17.5a 17.5 17.5, 0, 0, 0, -17.5 -17.5" transform="rotate(180,984.5,1159.5)"/><rect x="1002" y="1142" width="35" height="35" transform="rotate(0,1019.5,1159.5)"/><path d="M 1037 1142v 35h 35v -17.5a 17.5 17.5, 0, 0, 0, -17.5 -17.5" transform="rotate(90,1054.5,1159.5)"/></clipPath><clipPath id="clip-path-corners-square-color-0-0-2"><path clip-rule="evenodd" d="M 22 109.5v 70a 87.5 87.5, 0, 0, 0, 87.5 87.5h 70a 87.5 87.5, 0, 0, 0, 87.5 -87.5v -70a 87.5 87.5, 0, 0, 0, -87.5 -87.5h -70a 87.5 87.5, 0, 0, 0, -87.5 87.5M 109.5 57h 70a 52.5 52.5, 0, 0, 1, 52.5 52.5v 70a 52.5 52.5, 0, 0, 1, -52.5 52.5h -70a 52.5 52.5, 0, 0, 1, -52.5 -52.5v -70a 52.5 52.5, 0, 0, 1, 52.5 -52.5" transform="rotate(0,144.5,144.5)"/></clipPath><clipPath id="clip-path-corners-dot-color-0-0-2"><circle cx="144.5" cy="144.5" r="52.5" transform="rotate(0,144.5,144.5)"/></clipPath><clipPath id="clip-path-corners-square-color-1-0-2"><path clip-rule="evenodd" d="M 932 109.5v 70a 87.5 87.5, 0, 0, 0, 87.5 87.5h 70a 87.5 87.5, 0, 0, 0, 87.5 -87.5v -70a 87.5 87.5, 0, 0, 0, -87.5 -87.5h -70a 87.5 87.5, 0, 0, 0, -87.5 87.5M 1019.5 57h 70a 52.5 52.5, 0, 0, 1, 52.5 52.5v 70a 52.5 52.5, 0, 0, 1, -52.5 52.5h -70a 52.5 52.5, 0, 0, 1, -52.5 -52.5v -70a 52.5 52.5, 0, 0, 1, 52.5 -52.5" transform="rotate(90,1054.5,144.5)"/></clipPath><clipPath id="clip-path-corners-dot-color-1-0-2"><circle cx="1054.5" cy="144.5" r="52.5" transform="rotate(90,1054.5,144.5)"/></clipPath><clipPath id="clip-path-corners-square-color-0-1-2"><path clip-rule="evenodd" d="M 22 1019.5v 70a 87.5 87.5, 0, 0, 0, 87.5 87.5h 70a 87.5 87.5, 0, 0, 0, 87.5 -87.5v -70a 87.5 87.5, 0, 0, 0, -87.5 -87.5h -70a 87.5 87.5, 0, 0, 0, -87.5 87.5M 109.5 967h 70a 52.5 52.5, 0, 0, 1, 52.5 52.5v 70a 52.5 52.5, 0, 0, 1, -52.5 52.5h -70a 52.5 52.5, 0, 0, 1, -52.5 -52.5v -70a 52.5 52.5, 0, 0, 1, 52.5 -52.5" transform="rotate(-90,144.5,1054.5)"/></clipPath><clipPath id="clip-path-corners-dot-color-0-1-2"><circle cx="144.5" cy="1054.5" r="52.5" transform="rotate(-90,144.5,1054.5)"/></clipPath></defs><rect x="0" y="0" height="1200" width="1200" clip-path="url('#clip-path-background-color-2')" fill="#ffffff"/><rect x="0" y="0" height="1200" width="1200" clip-path="url('#clip-path-dot-color-2')" fill="#000000"/><rect x="22" y="22" height="245" width="245" clip-path="url('#clip-path-corners-square-color-0-0-2')" fill="#000000"/><rect x="92" y="92" height="105" width="105" clip-path="url('#clip-path-corners-dot-color-0-0-2')" fill="#000000"/><rect x="932" y="22" height="245" width="245" clip-path="url('#clip-path-corners-square-color-1-0-2')" fill="#000000"/><rect x="1002" y="92" height="105" width="105" clip-path="url('#clip-path-corners-dot-color-1-0-2')" fill="#000000"/><rect x="22" y="932" height="245" width="245" clip-path="url('#clip-path-corners-square-color-0-1-2')" fill="#000000"/><rect x="92" y="1002" height="105" width="105" clip-path="url('#clip-path-corners-dot-color-0-1-2')" fill="#000000"/></svg>