<?xml version="1.0" standalone="no"?>
<svg xmlns="http://www.w3.org/2000/svg" width="1200" height="1200" xmlns:xlink="http://www.w3.org/1999/xlink" viewBox="0 0 1200 1200"><defs><clipPath id="clip-path-background-color-41"><rect x="0" y="0" width="1200" height="1200"/></clipPath><clipPath id="clip-path-dot-color-41"><circle cx="280" cy="24" r="16" transform="rotate(0,280,24)"/><path d="M 392 8v 32h 32v -16a 16 16, 0, 0, 0, -16 -16" transform="rotate(-90,408,24)"/><path d="M 424 8v 32h 16a 16 16, 0, 0, 0, 0 -32" transform="rotate(0,440,24)"/><circle cx="504" cy="24" r="16" transform="rotate(0,504,24)"/><path d="M 552 8v 32h 16a 16 16, 0, 0, 0, 0 -32" transform="rotate(180,568,24)"/><rect x="584" y="8" width="32" height="32" transform="rotate(0,600,24)"/><rect x="616" y="8" width="32" height="32" transform="rotate(0,632,24)"/><path d="M 648 8v 32h 32v -16a 16 16, 0, 0, 0, -16 -16" transform="rotate(0,664,24)"/><path d="M 712 8v 32h 16a 16 16, 0, 0, 0, 0 -32" transform="rotate(180,728,24)"/><path d="M 744 8v 32h 32v -16a 16 16, 0, 0, 0, -16 -16" transform="rotate(0,760,24)"/><path d="M 840 8v 32h 32v -16a 16 16, 0, 0, 0, -16 -16" transform="rotate(-90,856,24)"/><rect x="872" y="8" width="32" height="32" transform="rotate(0,888,24)"/><path d="M 904 8v 32h 16a 16 16, 0, 0, 0, 0 -32" transform="rotate(0,920,24)"/><circle cx="312" cy="56" r="16" transform="rotate(0,312,56)"/><rect x="392" y="40" width="32" height="32" transform="rotate(0,408,56)"/><circle cx="472" cy="56" r="16" transform="rotate(0,472,56)"/><path d="M 520 40v 32h 16a 16 16, 0, 0, 0, 0 -32" transform="rotate(-90,536,56)"/><rect x="648" y="40" width="32" height="32" transform="rotate(0,664,56)"/><path d="M 680 40v 32h 16a 16 16, 0, 0, 0, 0 -32" transform="rotate(0,696,56)"/><rect x="744" y="40" width="32" height="32" transform="rotate(0,760,56)"/><path d="M 840 40v 32h 32v -16a 16 16, 0, 0, 0, -16 -16" transform="rotate(180,856,56)"/><path d="M 872 40v 32h 32v -16a 16 16, 0, 0, 0, -16 -16" transform="rotate(90,888,56)"/><path d="M 264 72v 32h 16a 16 16, 0, 0, 0, 0 -32" transform="rotate(-90,280,88)"/><circle cx="344" cy="88" r="16" transform="rotate(0,344,88)"/><path d="M 392 72v 32h 32v -16a 16 16, 0, 0, 0, -16 -16" transform="rotate(180,408,88)"/><path d="M 424 72v 32h 16a 16 16, 0, 0, 0, 0 -32" transform="rotate(0,440,88)"/><rect x="520" y="72" width="32" height="32" transform="rotate(0,536,88)"/><path d="M 552 72v 32h 32v -16a 16 16, 0, 0, 0, -16 -16" transform="rotate(0,568,88)"/><rect x="648" y="72" width="32" height="32" transform="rotate(0,664,88)"/><path d="M 712 72v 32h 32v -16a 16 16, 0, 0, 0, -16 -16" transform="rotate(-90,728,88)"/><rect x="744" y="72" width="32" height="32" transform="rotate(0,760,88)"/><path d="M 264 104v 32h 32v -16a 16 16, 0, 0, 0, -16 -16" transform="rotate(180,280,120)"/><path d="M 296 104v 32h 32v -16a 16 16, 0, 0, 0, -16 -16" transform="rotate(0,312,120)"/><rect x="520" y="104" width="32" height="32" transform="rotate(0,536,120)"/><rect x="552" y="104" width="32" height="32" transform="rotate(0,568,120)"/><rect x="584" y="104" width="32" height="32" transform="rotate(0,600,120)"/><rect x="616" y="104" width="32" height="32" transform="rotate(0,632,120)"/><rect x="648" y="104" width="32" height="32" transform="rotate(0,664,120)"/><rect x="712" y="104" width="32" height="32" transform="rotate(0,728,120)"/><rect x="744" y="104" width="32" height="32" transform="rotate(0,760,120)"/><path d="M 840 104v 32h 16a 16 16, 0, 0, 0, 0 -32" transform="rotate(-90,856,120)"/><path d="M 296 136v 32h 16a 16 16, 0, 0, 0, 0 -32" transform="rotate(90,312,152)"/><path d="M 360 136v 32h 16a 16 16, 0, 0, 0, 0 -32" transform="rotate(-90,376,152)"/><path d="M 424 136v 32h 16a 16 16, 0, 0, 0, 0 -32" transform="rotate(-90,440,152)"/><path d="M 488 136v 32h 32v -16a 16 16, 0, 0, 0, -16 -16" transform="rotate(-90,504,152)"/><rect x="520" y="136" width="32" height="32" transform="rotate(0,536,152)"/><rect x="552" y="136" width="32" height="32" transform="rotate(0,568,152)"/><rect x="616" y="136" width="32" height="32" transform="rotate(0,632,152)"/><path d="M 648 136v 32h 32v -16a 16 16, 0, 0, 0, -16 -16" transform="rotate(90,664,152)"/><rect x="712" y="136" width="32" height="32" transform="rotate(0,728,152)"/><path d="M 744 136v 32h 32v -16a 16 16, 0, 0, 0, -16 -16" transform="rotate(90,760,152)"/><path d="M 808 136v 32h 16a 16 16, 0, 0, 0, 0 -32" transform="rotate(180,824,152)"/><rect x="840" y="136" width="32" height="32" transform="rotate(0,856,152)"/><path d="M 872 136v 32h 32v -16a 16 16, 0, 0, 0, -16 -16" transform="rotate(0,888,152)"/><path d="M 264 168v 32h 16a 16 16, 0, 0, 0, 0 -32" transform="rotate(-90,280,184)"/><path d="M 360 168v 32h 32v -16a 16 16, 0, 0, 0, -16 -16" transform="rotate(180,376,184)"/><rect x="392" y="168" width="32" height="32" transform="rotate(0,408,184)"/><rect x="424" y="168" width="32" height="32" transform="rotate(0,440,184)"/><rect x="456" y="168" width="32" height="32" transform="rotate(0,472,184)"/><rect x="488" y="168" width="32" height="32" transform="rotate(0,504,184)"/><rect x="520" y="168" width="32" height="32" transform="rotate(0,536,184)"/><path d="M 552 168v 32h 32v -16a 16 16, 0, 0, 0, -16 -16" transform="rotate(90,568,184)"/><path d="M 616 168v 32h 16a 16 16, 0, 0, 0, 0 -32" transform="rotate(90,632,184)"/><path d="M 680 168v 32h 16a 16 16, 0, 0, 0, 0 -32" transform="rotate(180,696,184)"/><rect x="712" y="168" width="32" height="32" transform="rotate(0,728,184)"/><path d="M 776 168v 32h 16a 16 16, 0, 0, 0, 0 -32" transform="rotate(-90,792,184)"/><rect x="840" y="168" width="32" height="32" transform="rotate(0,856,184)"/><rect x="872" y="168" width="32" height="32" transform="rotate(0,888,184)"/><path d="M 904 168v 32h 32v -16a 16 16, 0, 0, 0, -16 -16" transform="rotate(0,920,184)"/><rect x="264" y="200" width="32" height="32" transform="rotate(0,280,216)"/><path d="M 328 200v 32h 16a 16 16, 0, 0, 0, 0 -32" transform="rotate(-90,344,216)"/><path d="M 392 200v 32h 16a 16 16, 0, 0, 0, 0 -32" transform="rotate(90,408,216)"/><rect x="456" y="200" width="32" height="32" transform="rotate(0,472,216)"/><rect x="520" y="200" width="32" height="32" transform="rotate(0,536,216)"/><circle cx="600" cy="216" r="16" transform="rotate(0,600,216)"/><path d="M 648 200v 32h 16a 16 16, 0, 0, 0, 0 -32" transform="rotate(-90,664,216)"/><path d="M 712 200v 32h 16a 16 16, 0, 0, 0, 0 -32" transform="rotate(90,728,216)"/><rect x="776" y="200" width="32" height="32" transform="rotate(0,792,216)"/><path d="M 840 200v 32h 16a 16 16, 0, 0, 0, 0 -32" transform="rotate(90,856,216)"/><path d="M 904 200v 32h 16a 16 16, 0, 0, 0, 0 -32" transform="rotate(90,920,216)"/><rect x="264" y="232" width="32" height="32" transform="rotate(0,280,248)"/><rect x="296" y="232" width="32" height="32" transform="rotate(0,312,248)"/><rect x="328" y="232" width="32" height="32" transform="rotate(0,344,248)"/><path d="M 360 232v 32h 16a 16 16, 0, 0, 0, 0 -32" transform="rotate(0,376,248)"/><path d="M 456 232v 32h 32v -16a 16 16, 0, 0, 0, -16 -16" transform="rotate(180,472,248)"/><rect x="488" y="232" width="32" height="32" transform="rotate(0,504,248)"/><rect x="520" y="232" width="32" height="32" transform="rotate(0,536,248)"/><path d="M 552 232v 32h 16a 16 16, 0, 0, 0, 0 -32" transform="rotate(0,568,248)"/><rect x="648" y="232" width="32" height="32" transform="rotate(0,664,248)"/><path d="M 680 232v 32h 32v -16a 16 16, 0, 0, 0, -16 -16" transform="rotate(0,696,248)"/><rect x="776" y="232" width="32" height="32" transform="rotate(0,792,248)"/><circle cx="56" cy="280" r="16" transform="rotate(0,56,280)"/><circle cx="120" cy="280" r="16" transform="rotate(0,120,280)"/><path d="M 168 264v 32h 32v -16a 16 16, 0, 0, 0, -16 -16" transform="rotate(-90,184,280)"/><rect x="200" y="264" width="32" height="32" transform="rotate(0,216,280)"/><rect x="232" y="264" width="32" height="32" transform="rotate(0,248,280)"/><rect x="264" y="264" width="32" height="32" transform="rotate(0,280,280)"/><rect x="296" y="264" width="32" height="32" transform="rotate(0,312,280)"/><rect x="328" y="264" width="32" height="32" transform="rotate(0,344,280)"/><path d="M 392 264v 32h 32v -16a 16 16, 0, 0, 0, -16 -16" transform="rotate(-90,408,280)"/><path d="M 424 264v 32h 16a 16 16, 0, 0, 0, 0 -32" transform="rotate(0,440,280)"/><path d="M 488 264v 32h 32v -16a 16 16, 0, 0, 0, -16 -16" transform="rotate(180,504,280)"/><rect x="520" y="264" width="32" height="32" transform="rotate(0,536,280)"/><path d="M 584 264v 32h 32v -16a 16 16, 0, 0, 0, -16 -16" transform="rotate(-90,600,280)"/><rect x="616" y="264" width="32" height="32" transform="rotate(0,632,280)"/><rect x="648" y="264" width="32" height="32" transform="rotate(0,664,280)"/><rect x="680" y="264" width="32" height="32" transform="rotate(0,696,280)"/><rect x="776" y="264" width="32" height="32" transform="rotate(0,792,280)"/><rect x="808" y="264" width="32" height="32" transform="rotate(0,824,280)"/><rect x="840" y="264" width="32" height="32" transform="rotate(0,856,280)"/><path d="M 872 264v 32h 16a 16 16, 0, 0, 0, 0 -32" transform="rotate(0,888,280)"/><path d="M 936 264v 32h 16a 16 16, 0, 0, 0, 0 -32" transform="rotate(180,952,280)"/><rect x="968" y="264" width="32" height="32" transform="rotate(0,984,280)"/><path d="M 1000 264v 32h 16a 16 16, 0, 0, 0, 0 -32" transform="rotate(0,1016,280)"/><path d="M 1064 264v 32h 16a 16 16, 0, 0, 0, 0 -32" transform="rotate(180,1080,280)"/><path d="M 1096 264v 32h 32v -16a 16 16, 0, 0, 0, -16 -16" transform="rotate(0,1112,280)"/><path d="M 1160 264v 32h 16a 16 16, 0, 0, 0, 0 -32" transform="rotate(-90,1176,280)"/><path d="M 8 296v 32h 16a 16 16, 0, 0, 0, 0 -32" transform="rotate(-90,24,312)"/><circle cx="88" cy="312" r="16" transform="rotate(0,88,312)"/><path d="M 136 296v 32h 16a 16 16, 0, 0, 0, 0 -32" transform="rotate(180,152,312)"/><rect x="168" y="296" width="32" height="32" transform="rotate(0,184,312)"/><path d="M 264 296v 32h 32v -16a 16 16, 0, 0, 0, -16 -16" transform="rotate(180,280,312)"/><rect x="296" y="296" width="32" height="32" transform="rotate(0,312,312)"/><path d="M 328 296v 32h 32v -16a 16 16, 0, 0, 0, -16 -16" transform="rotate(90,344,312)"/><path d="M 392 296v 32h 16a 16 16, 0, 0, 0, 0 -32" transform="rotate(90,408,312)"/><path d="M 456 296v 32h 16a 16 16, 0, 0, 0, 0 -32" transform="rotate(-90,472,312)"/><rect x="520" y="296" width="32" height="32" transform="rotate(0,536,312)"/><rect x="552" y="296" width="32" height="32" transform="rotate(0,568,312)"/><rect x="584" y="296" width="32" height="32" transform="rotate(0,600,312)"/><rect x="680" y="296" width="32" height="32" transform="rotate(0,696,312)"/><path d="M 712 296v 32h 16a 16 16, 0, 0, 0, 0 -32" transform="rotate(0,728,312)"/><path d="M 776 296v 32h 16a 16 16, 0, 0, 0, 0 -32" transform="rotate(90,792,312)"/><path d="M 904 296v 32h 16a 16 16, 0, 0, 0, 0 -32" transform="rotate(-90,920,312)"/><rect x="968" y="296" width="32" height="32" transform="rotate(0,984,312)"/><path d="M 1096 296v 32h 32v -16a 16 16, 0, 0, 0, -16 -16" transform="rotate(180,1112,312)"/><rect x="1128" y="296" width="32" height="32" transform="rotate(0,1144,312)"/><rect x="1160" y="296" width="32" height="32" transform="rotate(0,1176,312)"/><path d="M 8 328v 32h 16a 16 16, 0, 0, 0, 0 -32" transform="rotate(90,24,344)"/><rect x="168" y="328" width="32" height="32" transform="rotate(0,184,344)"/><rect x="200" y="328" width="32" height="32" transform="rotate(0,216,344)"/><path d="M 232 328v 32h 32v -16a 16 16, 0, 0, 0, -16 -16" transform="rotate(0,248,344)"/><rect x="296" y="328" width="32" height="32" transform="rotate(0,312,344)"/><rect x="456" y="328" width="32" height="32" transform="rotate(0,472,344)"/><rect x="488" y="328" width="32" height="32" transform="rotate(0,504,344)"/><rect x="520" y="328" width="32" height="32" transform="rotate(0,536,344)"/><path d="M 584 328v 32h 16a 16 16, 0, 0, 0, 0 -32" transform="rotate(90,600,344)"/><rect x="680" y="328" width="32" height="32" transform="rotate(0,696,344)"/><rect x="904" y="328" width="32" height="32" transform="rotate(0,920,344)"/><path d="M 968 328v 32h 16a 16 16, 0, 0, 0, 0 -32" transform="rotate(90,984,344)"/><path d="M 1032 328v 32h 16a 16 16, 0, 0, 0, 0 -32" transform="rotate(180,1048,344)"/><path d="M 1064 328v 32h 16a 16 16, 0, 0, 0, 0 -32" transform="rotate(0,1080,344)"/><rect x="1128" y="328" width="32" height="32" transform="rotate(0,1144,344)"/><rect x="1160" y="328" width="32" height="32" transform="rotate(0,1176,344)"/><circle cx="56" cy="376" r="16" transform="rotate(0,56,376)"/><rect x="168" y="360" width="32" height="32" transform="rotate(0,184,376)"/><path d="M 232 360v 32h 16a 16 16, 0, 0, 0, 0 -32" transform="rotate(90,248,376)"/><path d="M 296 360v 32h 32v -16a 16 16, 0, 0, 0, -16 -16" transform="rotate(180,312,376)"/><path d="M 328 360v 32h 32v -16a 16 16, 0, 0, 0, -16 -16" transform="rotate(0,344,376)"/><path d="M 424 360v 32h 32v -16a 16 16, 0, 0, 0, -16 -16" transform="rotate(-90,440,376)"/><rect x="456" y="360" width="32" height="32" transform="rotate(0,472,376)"/><rect x="488" y="360" width="32" height="32" transform="rotate(0,504,376)"/><rect x="520" y="360" width="32" height="32" transform="rotate(0,536,376)"/><path d="M 552 360v 32h 16a 16 16, 0, 0, 0, 0 -32" transform="rotate(0,568,376)"/><circle cx="632" cy="376" r="16" transform="rotate(0,632,376)"/><rect x="680" y="360" width="32" height="32" transform="rotate(0,696,376)"/><rect x="712" y="360" width="32" height="32" transform="rotate(0,728,376)"/><path d="M 744 360v 32h 16a 16 16, 0, 0, 0, 0 -32" transform="rotate(0,760,376)"/><path d="M 808 360v 32h 16a 16 16, 0, 0, 0, 0 -32" transform="rotate(-90,824,376)"/><path d="M 872 360v 32h 16a 16 16, 0, 0, 0, 0 -32" transform="rotate(180,888,376)"/><path d="M 904 360v 32h 32v -16a 16 16, 0, 0, 0, -16 -16" transform="rotate(90,920,376)"/><circle cx="1016" cy="376" r="16" transform="rotate(0,1016,376)"/><path d="M 1128 360v 32h 32v -16a 16 16, 0, 0, 0, -16 -16" transform="rotate(180,1144,376)"/><rect x="1160" y="360" width="32" height="32" transform="rotate(0,1176,376)"/><path d="M 168 392v 32h 32v -16a 16 16, 0, 0, 0, -16 -16" transform="rotate(180,184,408)"/><path d="M 200 392v 32h 16a 16 16, 0, 0, 0, 0 -32" transform="rotate(0,216,408)"/><rect x="328" y="392" width="32" height="32" transform="rotate(0,344,408)"/><rect x="360" y="392" width="32" height="32" transform="rotate(0,376,408)"/><rect x="392" y="392" width="32" height="32" transform="rotate(0,408,408)"/><rect x="424" y="392" width="32" height="32" transform="rotate(0,440,408)"/><rect x="456" y="392" width="32" height="32" transform="rotate(0,472,408)"/><path d="M 488 392v 32h 32v -16a 16 16, 0, 0, 0, -16 -16" transform="rotate(90,504,408)"/><circle cx="600" cy="408" r="16" transform="rotate(0,600,408)"/><rect x="680" y="392" width="32" height="32" transform="rotate(0,696,408)"/><rect x="808" y="392" width="32" height="32" transform="rotate(0,824,408)"/><path d="M 936 392v 32h 16a 16 16, 0, 0, 0, 0 -32" transform="rotate(180,952,408)"/><path d="M 968 392v 32h 32v -16a 16 16, 0, 0, 0, -16 -16" transform="rotate(0,984,408)"/><rect x="1160" y="392" width="32" height="32" transform="rotate(0,1176,408)"/><path d="M 8 424v 32h 16a 16 16, 0, 0, 0, 0 -32" transform="rotate(-90,24,440)"/><path d="M 72 424v 32h 16a 16 16, 0, 0, 0, 0 -32" transform="rotate(-90,88,440)"/><path d="M 264 424v 32h 16a 16 16, 0, 0, 0, 0 -32" transform="rotate(180,280,440)"/><rect x="296" y="424" width="32" height="32" transform="rotate(0,312,440)"/><rect x="328" y="424" width="32" height="32" transform="rotate(0,344,440)"/><path d="M 552 424v 32h 16a 16 16, 0, 0, 0, 0 -32" transform="rotate(-90,568,440)"/><path d="M 648 424v 32h 16a 16 16, 0, 0, 0, 0 -32" transform="rotate(180,664,440)"/><rect x="680" y="424" width="32" height="32" transform="rotate(0,696,440)"/><path d="M 712 424v 32h 16a 16 16, 0, 0, 0, 0 -32" transform="rotate(0,728,440)"/><path d="M 776 424v 32h 32v -16a 16 16, 0, 0, 0, -16 -16" transform="rotate(-90,792,440)"/><rect x="808" y="424" width="32" height="32" transform="rotate(0,824,440)"/><path d="M 968 424v 32h 16a 16 16, 0, 0, 0, 0 -32" transform="rotate(90,984,440)"/><circle cx="1080" cy="440" r="16" transform="rotate(0,1080,440)"/><path d="M 1128 424v 32h 16a 16 16, 0, 0, 0, 0 -32" transform="rotate(180,1144,440)"/><rect x="1160" y="424" width="32" height="32" transform="rotate(0,1176,440)"/><rect x="8" y="456" width="32" height="32" transform="rotate(0,24,472)"/><path d="M 72 456v 32h 32v -16a 16 16, 0, 0, 0, -16 -16" transform="rotate(180,88,472)"/><path d="M 104 456v 32h 32v -16a 16 16, 0, 0, 0, -16 -16" transform="rotate(0,120,472)"/><path d="M 168 456v 32h 32v -16a 16 16, 0, 0, 0, -16 -16" transform="rotate(-90,184,472)"/><rect x="200" y="456" width="32" height="32" transform="rotate(0,216,472)"/><path d="M 232 456v 32h 32v -16a 16 16, 0, 0, 0, -16 -16" transform="rotate(0,248,472)"/><rect x="328" y="456" width="32" height="32" transform="rotate(0,344,472)"/><rect x="360" y="456" width="32" height="32" transform="rotate(0,376,472)"/><path d="M 392 456v 32h 32v -16a 16 16, 0, 0, 0, -16 -16" transform="rotate(0,408,472)"/><path d="M 456 456v 32h 32v -16a 16 16, 0, 0, 0, -16 -16" transform="rotate(-90,472,472)"/><rect x="488" y="456" width="32" height="32" transform="rotate(0,504,472)"/><rect x="520" y="456" width="32" height="32" transform="rotate(0,536,472)"/><rect x="552" y="456" width="32" height="32" transform="rotate(0,568,472)"/><path d="M 584 456v 32h 16a 16 16, 0, 0, 0, 0 -32" transform="rotate(0,600,472)"/><path d="M 744 456v 32h 32v -16a 16 16, 0, 0, 0, -16 -16" transform="rotate(-90,760,472)"/><rect x="776" y="456" width="32" height="32" transform="rotate(0,792,472)"/><rect x="808" y="456" width="32" height="32" transform="rotate(0,824,472)"/><path d="M 840 456v 32h 32v -16a 16 16, 0, 0, 0, -16 -16" transform="rotate(0,856,472)"/><circle cx="920" cy="472" r="16" transform="rotate(0,920,472)"/><circle cx="1112" cy="472" r="16" transform="rotate(0,1112,472)"/><path d="M 1160 456v 32h 16a 16 16, 0, 0, 0, 0 -32" transform="rotate(90,1176,472)"/><path d="M 8 488v 32h 32v -16a 16 16, 0, 0, 0, -16 -16" transform="rotate(180,24,504)"/><path d="M 40 488v 32h 32v -16a 16 16, 0, 0, 0, -16 -16" transform="rotate(0,56,504)"/><rect x="104" y="488" width="32" height="32" transform="rotate(0,120,504)"/><rect x="136" y="488" width="32" height="32" transform="rotate(0,152,504)"/><rect x="168" y="488" width="32" height="32" transform="rotate(0,184,504)"/><path d="M 232 488v 32h 32v -16a 16 16, 0, 0, 0, -16 -16" transform="rotate(180,248,504)"/><path d="M 264 488v 32h 16a 16 16, 0, 0, 0, 0 -32" transform="rotate(0,280,504)"/><path d="M 328 488v 32h 32v -16a 16 16, 0, 0, 0, -16 -16" transform="rotate(180,344,504)"/><rect x="360" y="488" width="32" height="32" transform="rotate(0,376,504)"/><rect x="392" y="488" width="32" height="32" transform="rotate(0,408,504)"/><rect x="424" y="488" width="32" height="32" transform="rotate(0,440,504)"/><rect x="456" y="488" width="32" height="32" transform="rotate(0,472,504)"/><rect x="488" y="488" width="32" height="32" transform="rotate(0,504,504)"/><rect x="552" y="488" width="32" height="32" transform="rotate(0,568,504)"/><path d="M 616 488v 32h 32v -16a 16 16, 0, 0, 0, -16 -16" transform="rotate(-90,632,504)"/><rect x="648" y="488" width="32" height="32" transform="rotate(0,664,504)"/><rect x="680" y="488" width="32" height="32" transform="rotate(0,696,504)"/><rect x="712" y="488" width="32" height="32" transform="rotate(0,728,504)"/><rect x="744" y="488" width="32" height="32" transform="rotate(0,760,504)"/><rect x="776" y="488" width="32" height="32" transform="rotate(0,792,504)"/><rect x="808" y="488" width="32" height="32" transform="rotate(0,824,504)"/><path d="M 840 488v 32h 32v -16a 16 16, 0, 0, 0, -16 -16" transform="rotate(90,856,504)"/><path d="M 936 488v 32h 32v -16a 16 16, 0, 0, 0, -16 -16" transform="rotate(-90,952,504)"/><path d="M 968 488v 32h 32v -16a 16 16, 0, 0, 0, -16 -16" transform="rotate(0,984,504)"/><rect x="40" y="520" width="32" height="32" transform="rotate(0,56,536)"/><path d="M 104 520v 32h 32v -16a 16 16, 0, 0, 0, -16 -16" transform="rotate(180,120,536)"/><rect x="136" y="520" width="32" height="32" transform="rotate(0,152,536)"/><rect x="168" y="520" width="32" height="32" transform="rotate(0,184,536)"/><path d="M 200 520v 32h 16a 16 16, 0, 0, 0, 0 -32" transform="rotate(0,216,536)"/><rect x="360" y="520" width="32" height="32" transform="rotate(0,376,536)"/><rect x="392" y="520" width="32" height="32" transform="rotate(0,408,536)"/><path d="M 424 520v 32h 32v -16a 16 16, 0, 0, 0, -16 -16" transform="rotate(90,440,536)"/><path d="M 488 520v 32h 16a 16 16, 0, 0, 0, 0 -32" transform="rotate(90,504,536)"/><rect x="552" y="520" width="32" height="32" transform="rotate(0,568,536)"/><rect x="584" y="520" width="32" height="32" transform="rotate(0,600,536)"/><rect x="616" y="520" width="32" height="32" transform="rotate(0,632,536)"/><rect x="648" y="520" width="32" height="32" transform="rotate(0,664,536)"/><rect x="680" y="520" width="32" height="32" transform="rotate(0,696,536)"/><rect x="712" y="520" width="32" height="32" transform="rotate(0,728,536)"/><rect x="744" y="520" width="32" height="32" transform="rotate(0,760,536)"/><path d="M 936 520v 32h 32v -16a 16 16, 0, 0, 0, -16 -16" transform="rotate(180,952,536)"/><rect x="968" y="520" width="32" height="32" transform="rotate(0,984,536)"/><path d="M 1000 520v 32h 32v -16a 16 16, 0, 0, 0, -16 -16" transform="rotate(0,1016,536)"/><path d="M 1064 520v 32h 16a 16 16, 0, 0, 0, 0 -32" transform="rotate(180,1080,536)"/><rect x="1096" y="520" width="32" height="32" transform="rotate(0,1112,536)"/><rect x="1128" y="520" width="32" height="32" transform="rotate(0,1144,536)"/><path d="M 1160 520v 32h 32v -16a 16 16, 0, 0, 0, -16 -16" transform="rotate(0,1176,536)"/><path d="M 8 552v 32h 16a 16 16, 0, 0, 0, 0 -32" transform="rotate(180,24,568)"/><rect x="40" y="552" width="32" height="32" transform="rotate(0,56,568)"/><path d="M 136 552v 32h 32v -16a 16 16, 0, 0, 0, -16 -16" transform="rotate(180,152,568)"/><path d="M 168 552v 32h 32v -16a 16 16, 0, 0, 0, -16 -16" transform="rotate(90,184,568)"/><circle cx="248" cy="568" r="16" transform="rotate(0,248,568)"/><path d="M 328 552v 32h 16a 16 16, 0, 0, 0, 0 -32" transform="rotate(180,344,568)"/><path d="M 360 552v 32h 32v -16a 16 16, 0, 0, 0, -16 -16" transform="rotate(90,376,568)"/><path d="M 456 552v 32h 16a 16 16, 0, 0, 0, 0 -32" transform="rotate(-90,472,568)"/><path d="M 552 552v 32h 32v -16a 16 16, 0, 0, 0, -16 -16" transform="rotate(180,568,568)"/><path d="M 584 552v 32h 32v -16a 16 16, 0, 0, 0, -16 -16" transform="rotate(90,600,568)"/><path d="M 680 552v 32h 32v -16a 16 16, 0, 0, 0, -16 -16" transform="rotate(180,696,568)"/><rect x="712" y="552" width="32" height="32" transform="rotate(0,728,568)"/><rect x="744" y="552" width="32" height="32" transform="rotate(0,760,568)"/><path d="M 776 552v 32h 16a 16 16, 0, 0, 0, 0 -32" transform="rotate(0,792,568)"/><path d="M 840 552v 32h 16a 16 16, 0, 0, 0, 0 -32" transform="rotate(-90,856,568)"/><circle cx="920" cy="568" r="16" transform="rotate(0,920,568)"/><path d="M 968 552v 32h 32v -16a 16 16, 0, 0, 0, -16 -16" transform="rotate(180,984,568)"/><rect x="1000" y="552" width="32" height="32" transform="rotate(0,1016,568)"/><path d="M 1032 552v 32h 32v -16a 16 16, 0, 0, 0, -16 -16" transform="rotate(0,1048,568)"/><rect x="1160" y="552" width="32" height="32" transform="rotate(0,1176,568)"/><path d="M 40 584v 32h 16a 16 16, 0, 0, 0, 0 -32" transform="rotate(90,56,600)"/><circle cx="120" cy="600" r="16" transform="rotate(0,120,600)"/><circle cx="216" cy="600" r="16" transform="rotate(0,216,600)"/><path d="M 264 584v 32h 32v -16a 16 16, 0, 0, 0, -16 -16" transform="rotate(-90,280,600)"/><path d="M 296 584v 32h 32v -16a 16 16, 0, 0, 0, -16 -16" transform="rotate(0,312,600)"/><path d="M 456 584v 32h 16a 16 16, 0, 0, 0, 0 -32" transform="rotate(90,472,600)"/><path d="M 616 584v 32h 16a 16 16, 0, 0, 0, 0 -32" transform="rotate(180,632,600)"/><path d="M 648 584v 32h 16a 16 16, 0, 0, 0, 0 -32" transform="rotate(0,664,600)"/><rect x="840" y="584" width="32" height="32" transform="rotate(0,856,600)"/><circle cx="952" cy="600" r="16" transform="rotate(0,952,600)"/><path d="M 1000 584v 32h 32v -16a 16 16, 0, 0, 0, -16 -16" transform="rotate(180,1016,600)"/><rect x="1032" y="584" width="32" height="32" transform="rotate(0,1048,600)"/><path d="M 1128 584v 32h 16a 16 16, 0, 0, 0, 0 -32" transform="rotate(180,1144,600)"/><rect x="1160" y="584" width="32" height="32" transform="rotate(0,1176,600)"/><path d="M 8 616v 32h 16a 16 16, 0, 0, 0, 0 -32" transform="rotate(-90,24,632)"/><circle cx="88" cy="632" r="16" transform="rotate(0,88,632)"/><path d="M 232 616v 32h 32v -16a 16 16, 0, 0, 0, -16 -16" transform="rotate(-90,248,632)"/><rect x="264" y="616" width="32" height="32" transform="rotate(0,280,632)"/><rect x="296" y="616" width="32" height="32" transform="rotate(0,312,632)"/><path d="M 360 616v 32h 32v -16a 16 16, 0, 0, 0, -16 -16" transform="rotate(-90,376,632)"/><path d="M 392 616v 32h 32v -16a 16 16, 0, 0, 0, -16 -16" transform="rotate(0,408,632)"/><circle cx="504" cy="632" r="16" transform="rotate(0,504,632)"/><path d="M 552 616v 32h 16a 16 16, 0, 0, 0, 0 -32" transform="rotate(-90,568,632)"/><path d="M 680 616v 32h 16a 16 16, 0, 0, 0, 0 -32" transform="rotate(-90,696,632)"/><path d="M 744 616v 32h 16a 16 16, 0, 0, 0, 0 -32" transform="rotate(-90,760,632)"/><rect x="840" y="616" width="32" height="32" transform="rotate(0,856,632)"/><rect x="1032" y="616" width="32" height="32" transform="rotate(0,1048,632)"/><circle cx="1112" cy="632" r="16" transform="rotate(0,1112,632)"/><path d="M 1160 616v 32h 16a 16 16, 0, 0, 0, 0 -32" transform="rotate(90,1176,632)"/><path d="M 8 648v 32h 32v -16a 16 16, 0, 0, 0, -16 -16" transform="rotate(180,24,664)"/><path d="M 40 648v 32h 16a 16 16, 0, 0, 0, 0 -32" transform="rotate(0,56,664)"/><path d="M 136 648v 32h 32v -16a 16 16, 0, 0, 0, -16 -16" transform="rotate(-90,152,664)"/><rect x="168" y="648" width="32" height="32" transform="rotate(0,184,664)"/><rect x="200" y="648" width="32" height="32" transform="rotate(0,216,664)"/><path d="M 232 648v 32h 32v -16a 16 16, 0, 0, 0, -16 -16" transform="rotate(90,248,664)"/><rect x="296" y="648" width="32" height="32" transform="rotate(0,312,664)"/><rect x="328" y="648" width="32" height="32" transform="rotate(0,344,664)"/><rect x="360" y="648" width="32" height="32" transform="rotate(0,376,664)"/><path d="M 392 648v 32h 32v -16a 16 16, 0, 0, 0, -16 -16" transform="rotate(90,408,664)"/><path d="M 456 648v 32h 16a 16 16, 0, 0, 0, 0 -32" transform="rotate(-90,472,664)"/><path d="M 520 648v 32h 32v -16a 16 16, 0, 0, 0, -16 -16" transform="rotate(-90,536,664)"/><path d="M 552 648v 32h 32v -16a 16 16, 0, 0, 0, -16 -16" transform="rotate(90,568,664)"/><path d="M 616 648v 32h 16a 16 16, 0, 0, 0, 0 -32" transform="rotate(-90,632,664)"/><rect x="680" y="648" width="32" height="32" transform="rotate(0,696,664)"/><path d="M 744 648v 32h 32v -16a 16 16, 0, 0, 0, -16 -16" transform="rotate(180,760,664)"/><rect x="776" y="648" width="32" height="32" transform="rotate(0,792,664)"/><rect x="808" y="648" width="32" height="32" transform="rotate(0,824,664)"/><rect x="840" y="648" width="32" height="32" transform="rotate(0,856,664)"/><rect x="872" y="648" width="32" height="32" transform="rotate(0,888,664)"/><path d="M 904 648v 32h 16a 16 16, 0, 0, 0, 0 -32" transform="rotate(0,920,664)"/><path d="M 968 648v 32h 32v -16a 16 16, 0, 0, 0, -16 -16" transform="rotate(-90,984,664)"/><rect x="1000" y="648" width="32" height="32" transform="rotate(0,1016,664)"/><path d="M 1032 648v 32h 32v -16a 16 16, 0, 0, 0, -16 -16" transform="rotate(90,1048,664)"/><path d="M 1128 648v 32h 16a 16 16, 0, 0, 0, 0 -32" transform="rotate(-90,1144,664)"/><path d="M 72 680v 32h 16a 16 16, 0, 0, 0, 0 -32" transform="rotate(180,88,696)"/><rect x="104" y="680" width="32" height="32" transform="rotate(0,120,696)"/><rect x="136" y="680" width="32" height="32" transform="rotate(0,152,696)"/><path d="M 264 680v 32h 32v -16a 16 16, 0, 0, 0, -16 -16" transform="rotate(-90,280,696)"/><rect x="296" y="680" width="32" height="32" transform="rotate(0,312,696)"/><rect x="328" y="680" width="32" height="32" transform="rotate(0,344,696)"/><rect x="360" y="680" width="32" height="32" transform="rotate(0,376,696)"/><path d="M 456 680v 32h 32v -16a 16 16, 0, 0, 0, -16 -16" transform="rotate(180,472,696)"/><rect x="488" y="680" width="32" height="32" transform="rotate(0,504,696)"/><path d="M 520 680v 32h 32v -16a 16 16, 0, 0, 0, -16 -16" transform="rotate(90,536,696)"/><path d="M 584 680v 32h 16a 16 16, 0, 0, 0, 0 -32" transform="rotate(180,600,696)"/><path d="M 616 680v 32h 32v -16a 16 16, 0, 0, 0, -16 -16" transform="rotate(90,632,696)"/><rect x="680" y="680" width="32" height="32" transform="rotate(0,696,696)"/><path d="M 712 680v 32h 16a 16 16, 0, 0, 0, 0 -32" transform="rotate(0,728,696)"/><rect x="776" y="680" width="32" height="32" transform="rotate(0,792,696)"/><rect x="808" y="680" width="32" height="32" transform="rotate(0,824,696)"/><rect x="840" y="680" width="32" height="32" transform="rotate(0,856,696)"/><path d="M 936 680v 32h 32v -16a 16 16, 0, 0, 0, -16 -16" transform="rotate(-90,952,696)"/><rect x="968" y="680" width="32" height="32" transform="rotate(0,984,696)"/><path d="M 1064 680v 32h 16a 16 16, 0, 0, 0, 0 -32" transform="rotate(-90,1080,696)"/><path d="M 1128 680v 32h 32v -16a 16 16, 0, 0, 0, -16 -16" transform="rotate(180,1144,696)"/><path d="M 1160 680v 32h 32v -16a 16 16, 0, 0, 0, -16 -16" transform="rotate(0,1176,696)"/><path d="M 40 712v 32h 16a 16 16, 0, 0, 0, 0 -32" transform="rotate(-90,56,728)"/><rect x="104" y="712" width="32" height="32" transform="rotate(0,120,728)"/><rect x="136" y="712" width="32" height="32" transform="rotate(0,152,728)"/><path d="M 200 712v 32h 16a 16 16, 0, 0, 0, 0 -32" transform="rotate(180,216,728)"/><rect x="232" y="712" width="32" height="32" transform="rotate(0,248,728)"/><path d="M 264 712v 32h 32v -16a 16 16, 0, 0, 0, -16 -16" transform="rotate(90,280,728)"/><path d="M 360 712v 32h 32v -16a 16 16, 0, 0, 0, -16 -16" transform="rotate(180,376,728)"/><path d="M 392 712v 32h 16a 16 16, 0, 0, 0, 0 -32" transform="rotate(0,408,728)"/><rect x="488" y="712" width="32" height="32" transform="rotate(0,504,728)"/><rect x="680" y="712" width="32" height="32" transform="rotate(0,696,728)"/><rect x="776" y="712" width="32" height="32" transform="rotate(0,792,728)"/><path d="M 840 712v 32h 16a 16 16, 0, 0, 0, 0 -32" transform="rotate(90,856,728)"/><path d="M 936 712v 32h 32v -16a 16 16, 0, 0, 0, -16 -16" transform="rotate(180,952,728)"/><rect x="968" y="712" width="32" height="32" transform="rotate(0,984,728)"/><rect x="1000" y="712" width="32" height="32" transform="rotate(0,1016,728)"/><rect x="1032" y="712" width="32" height="32" transform="rotate(0,1048,728)"/><path d="M 1064 712v 32h 32v -16a 16 16, 0, 0, 0, -16 -16" transform="rotate(90,1080,728)"/><rect x="1160" y="712" width="32" height="32" transform="rotate(0,1176,728)"/><path d="M 8 744v 32h 16a 16 16, 0, 0, 0, 0 -32" transform="rotate(180,24,760)"/><rect x="40" y="744" width="32" height="32" transform="rotate(0,56,760)"/><rect x="72" y="744" width="32" height="32" transform="rotate(0,88,760)"/><rect x="104" y="744" width="32" height="32" transform="rotate(0,120,760)"/><rect x="136" y="744" width="32" height="32" transform="rotate(0,152,760)"/><path d="M 168 744v 32h 32v -16a 16 16, 0, 0, 0, -16 -16" transform="rotate(0,184,760)"/><path d="M 232 744v 32h 16a 16 16, 0, 0, 0, 0 -32" transform="rotate(90,248,760)"/><path d="M 328 744v 32h 16a 16 16, 0, 0, 0, 0 -32" transform="rotate(-90,344,760)"/><path d="M 456 744v 32h 16a 16 16, 0, 0, 0, 0 -32" transform="rotate(180,472,760)"/><rect x="488" y="744" width="32" height="32" transform="rotate(0,504,760)"/><path d="M 584 744v 32h 32v -16a 16 16, 0, 0, 0, -16 -16" transform="rotate(-90,600,760)"/><rect x="616" y="744" width="32" height="32" transform="rotate(0,632,760)"/><rect x="648" y="744" width="32" height="32" transform="rotate(0,664,760)"/><rect x="680" y="744" width="32" height="32" transform="rotate(0,696,760)"/><path d="M 776 744v 32h 32v -16a 16 16, 0, 0, 0, -16 -16" transform="rotate(180,792,760)"/><path d="M 808 744v 32h 32v -16a 16 16, 0, 0, 0, -16 -16" transform="rotate(0,824,760)"/><path d="M 1032 744v 32h 16a 16 16, 0, 0, 0, 0 -32" transform="rotate(90,1048,760)"/><path d="M 1128 744v 32h 16a 16 16, 0, 0, 0, 0 -32" transform="rotate(180,1144,760)"/><rect x="1160" y="744" width="32" height="32" transform="rotate(0,1176,760)"/><path d="M 104 776v 32h 32v -16a 16 16, 0, 0, 0, -16 -16" transform="rotate(180,120,792)"/><rect x="136" y="776" width="32" height="32" transform="rotate(0,152,792)"/><rect x="168" y="776" width="32" height="32" transform="rotate(0,184,792)"/><path d="M 200 776v 32h 16a 16 16, 0, 0, 0, 0 -32" transform="rotate(0,216,792)"/><circle cx="280" cy="792" r="16" transform="rotate(0,280,792)"/><rect x="328" y="776" width="32" height="32" transform="rotate(0,344,792)"/><path d="M 488 776v 32h 16a 16 16, 0, 0, 0, 0 -32" transform="rotate(90,504,792)"/><path d="M 552 776v 32h 16a 16 16, 0, 0, 0, 0 -32" transform="rotate(180,568,792)"/><rect x="584" y="776" width="32" height="32" transform="rotate(0,600,792)"/><rect x="616" y="776" width="32" height="32" transform="rotate(0,632,792)"/><rect x="648" y="776" width="32" height="32" transform="rotate(0,664,792)"/><rect x="680" y="776" width="32" height="32" transform="rotate(0,696,792)"/><path d="M 808 776v 32h 16a 16 16, 0, 0, 0, 0 -32" transform="rotate(90,824,792)"/><path d="M 872 776v 32h 16a 16 16, 0, 0, 0, 0 -32" transform="rotate(180,888,792)"/><rect x="904" y="776" width="32" height="32" transform="rotate(0,920,792)"/><rect x="936" y="776" width="32" height="32" transform="rotate(0,952,792)"/><path d="M 968 776v 32h 32v -16a 16 16, 0, 0, 0, -16 -16" transform="rotate(0,984,792)"/><path d="M 1064 776v 32h 16a 16 16, 0, 0, 0, 0 -32" transform="rotate(-90,1080,792)"/><rect x="1160" y="776" width="32" height="32" transform="rotate(0,1176,792)"/><path d="M 40 808v 32h 16a 16 16, 0, 0, 0, 0 -32" transform="rotate(180,56,824)"/><path d="M 72 808v 32h 16a 16 16, 0, 0, 0, 0 -32" transform="rotate(0,88,824)"/><rect x="136" y="808" width="32" height="32" transform="rotate(0,152,824)"/><rect x="168" y="808" width="32" height="32" transform="rotate(0,184,824)"/><rect x="328" y="808" width="32" height="32" transform="rotate(0,344,824)"/><path d="M 392 808v 32h 16a 16 16, 0, 0, 0, 0 -32" transform="rotate(180,408,824)"/><path d="M 424 808v 32h 16a 16 16, 0, 0, 0, 0 -32" transform="rotate(0,440,824)"/><circle cx="536" cy="824" r="16" transform="rotate(0,536,824)"/><rect x="616" y="808" width="32" height="32" transform="rotate(0,632,824)"/><path d="M 680 808v 32h 16a 16 16, 0, 0, 0, 0 -32" transform="rotate(90,696,824)"/><path d="M 776 808v 32h 16a 16 16, 0, 0, 0, 0 -32" transform="rotate(-90,792,824)"/><circle cx="856" cy="824" r="16" transform="rotate(0,856,824)"/><rect x="968" y="808" width="32" height="32" transform="rotate(0,984,824)"/><path d="M 1000 808v 32h 16a 16 16, 0, 0, 0, 0 -32" transform="rotate(0,1016,824)"/><rect x="1064" y="808" width="32" height="32" transform="rotate(0,1080,824)"/><rect x="1096" y="808" width="32" height="32" transform="rotate(0,1112,824)"/><rect x="1128" y="808" width="32" height="32" transform="rotate(0,1144,824)"/><rect x="1160" y="808" width="32" height="32" transform="rotate(0,1176,824)"/><circle cx="24" cy="856" r="16" transform="rotate(0,24,856)"/><path d="M 136 840v 32h 32v -16a 16 16, 0, 0, 0, -16 -16" transform="rotate(180,152,856)"/><rect x="168" y="840" width="32" height="32" transform="rotate(0,184,856)"/><path d="M 200 840v 32h 16a 16 16, 0, 0, 0, 0 -32" transform="rotate(0,216,856)"/><rect x="328" y="840" width="32" height="32" transform="rotate(0,344,856)"/><path d="M 616 840v 32h 16a 16 16, 0, 0, 0, 0 -32" transform="rotate(90,632,856)"/><path d="M 712 840v 32h 32v -16a 16 16, 0, 0, 0, -16 -16" transform="rotate(-90,728,856)"/><rect x="744" y="840" width="32" height="32" transform="rotate(0,760,856)"/><rect x="776" y="840" width="32" height="32" transform="rotate(0,792,856)"/><path d="M 808 840v 32h 32v -16a 16 16, 0, 0, 0, -16 -16" transform="rotate(0,824,856)"/><path d="M 904 840v 32h 32v -16a 16 16, 0, 0, 0, -16 -16" transform="rotate(-90,920,856)"/><rect x="936" y="840" width="32" height="32" transform="rotate(0,952,856)"/><rect x="968" y="840" width="32" height="32" transform="rotate(0,984,856)"/><path d="M 1032 840v 32h 16a 16 16, 0, 0, 0, 0 -32" transform="rotate(180,1048,856)"/><path d="M 1064 840v 32h 32v -16a 16 16, 0, 0, 0, -16 -16" transform="rotate(90,1080,856)"/><path d="M 1160 840v 32h 16a 16 16, 0, 0, 0, 0 -32" transform="rotate(90,1176,856)"/><path d="M 40 872v 32h 32v -16a 16 16, 0, 0, 0, -16 -16" transform="rotate(-90,56,888)"/><path d="M 72 872v 32h 16a 16 16, 0, 0, 0, 0 -32" transform="rotate(0,88,888)"/><path d="M 264 872v 32h 32v -16a 16 16, 0, 0, 0, -16 -16" transform="rotate(-90,280,888)"/><rect x="296" y="872" width="32" height="32" transform="rotate(0,312,888)"/><rect x="328" y="872" width="32" height="32" transform="rotate(0,344,888)"/><path d="M 360 872v 32h 32v -16a 16 16, 0, 0, 0, -16 -16" transform="rotate(0,376,888)"/><path d="M 424 872v 32h 16a 16 16, 0, 0, 0, 0 -32" transform="rotate(-90,440,888)"/><circle cx="504" cy="888" r="16" transform="rotate(0,504,888)"/><path d="M 552 872v 32h 32v -16a 16 16, 0, 0, 0, -16 -16" transform="rotate(-90,568,888)"/><path d="M 584 872v 32h 16a 16 16, 0, 0, 0, 0 -32" transform="rotate(0,600,888)"/><path d="M 680 872v 32h 32v -16a 16 16, 0, 0, 0, -16 -16" transform="rotate(-90,696,888)"/><rect x="712" y="872" width="32" height="32" transform="rotate(0,728,888)"/><rect x="776" y="872" width="32" height="32" transform="rotate(0,792,888)"/><rect x="808" y="872" width="32" height="32" transform="rotate(0,824,888)"/><rect x="840" y="872" width="32" height="32" transform="rotate(0,856,888)"/><rect x="872" y="872" width="32" height="32" transform="rotate(0,888,888)"/><rect x="904" y="872" width="32" height="32" transform="rotate(0,920,888)"/><rect x="968" y="872" width="32" height="32" transform="rotate(0,984,888)"/><path d="M 1000 872v 32h 32v -16a 16 16, 0, 0, 0, -16 -16" transform="rotate(0,1016,888)"/><path d="M 1128 872v 32h 16a 16 16, 0, 0, 0, 0 -32" transform="rotate(-90,1144,888)"/><path d="M 8 904v 32h 16a 16 16, 0, 0, 0, 0 -32" transform="rotate(180,24,920)"/><path d="M 40 904v 32h 32v -16a 16 16, 0, 0, 0, -16 -16" transform="rotate(90,56,920)"/><path d="M 136 904v 32h 16a 16 16, 0, 0, 0, 0 -32" transform="rotate(180,152,920)"/><rect x="168" y="904" width="32" height="32" transform="rotate(0,184,920)"/><path d="M 200 904v 32h 16a 16 16, 0, 0, 0, 0 -32" transform="rotate(0,216,920)"/><rect x="264" y="904" width="32" height="32" transform="rotate(0,280,920)"/><path d="M 296 904v 32h 32v -16a 16 16, 0, 0, 0, -16 -16" transform="rotate(90,312,920)"/><rect x="360" y="904" width="32" height="32" transform="rotate(0,376,920)"/><rect x="392" y="904" width="32" height="32" transform="rotate(0,408,920)"/><rect x="424" y="904" width="32" height="32" transform="rotate(0,440,920)"/><rect x="552" y="904" width="32" height="32" transform="rotate(0,568,920)"/><path d="M 616 904v 32h 16a 16 16, 0, 0, 0, 0 -32" transform="rotate(180,632,920)"/><rect x="648" y="904" width="32" height="32" transform="rotate(0,664,920)"/><rect x="680" y="904" width="32" height="32" transform="rotate(0,696,920)"/><rect x="712" y="904" width="32" height="32" transform="rotate(0,728,920)"/><rect x="744" y="904" width="32" height="32" transform="rotate(0,760,920)"/><rect x="776" y="904" width="32" height="32" transform="rotate(0,792,920)"/><rect x="904" y="904" width="32" height="32" transform="rotate(0,920,920)"/><rect x="936" y="904" width="32" height="32" transform="rotate(0,952,920)"/><rect x="968" y="904" width="32" height="32" transform="rotate(0,984,920)"/><rect x="1000" y="904" width="32" height="32" transform="rotate(0,1016,920)"/><rect x="1032" y="904" width="32" height="32" transform="rotate(0,1048,920)"/><rect x="1064" y="904" width="32" height="32" transform="rotate(0,1080,920)"/><rect x="1096" y="904" width="32" height="32" transform="rotate(0,1112,920)"/><rect x="1128" y="904" width="32" height="32" transform="rotate(0,1144,920)"/><path d="M 1160 904v 32h 32v -16a 16 16, 0, 0, 0, -16 -16" transform="rotate(0,1176,920)"/><rect x="264" y="936" width="32" height="32" transform="rotate(0,280,952)"/><path d="M 328 936v 32h 16a 16 16, 0, 0, 0, 0 -32" transform="rotate(180,344,952)"/><rect x="360" y="936" width="32" height="32" transform="rotate(0,376,952)"/><path d="M 424 936v 32h 32v -16a 16 16, 0, 0, 0, -16 -16" transform="rotate(180,440,952)"/><rect x="456" y="936" width="32" height="32" transform="rotate(0,472,952)"/><rect x="488" y="936" width="32" height="32" transform="rotate(0,504,952)"/><rect x="520" y="936" width="32" height="32" transform="rotate(0,536,952)"/><rect x="552" y="936" width="32" height="32" transform="rotate(0,568,952)"/><path d="M 584 936v 32h 32v -16a 16 16, 0, 0, 0, -16 -16" transform="rotate(0,600,952)"/><rect x="648" y="936" width="32" height="32" transform="rotate(0,664,952)"/><rect x="680" y="936" width="32" height="32" transform="rotate(0,696,952)"/><rect x="712" y="936" width="32" height="32" transform="rotate(0,728,952)"/><rect x="744" y="936" width="32" height="32" transform="rotate(0,760,952)"/><path d="M 776 936v 32h 32v -16a 16 16, 0, 0, 0, -16 -16" transform="rotate(90,792,952)"/><rect x="904" y="936" width="32" height="32" transform="rotate(0,920,952)"/><rect x="1032" y="936" width="32" height="32" transform="rotate(0,1048,952)"/><rect x="1160" y="936" width="32" height="32" transform="rotate(0,1176,952)"/><rect x="264" y="968" width="32" height="32" transform="rotate(0,280,984)"/><rect x="360" y="968" width="32" height="32" transform="rotate(0,376,984)"/><path d="M 392 968v 32h 16a 16 16, 0, 0, 0, 0 -32" transform="rotate(0,408,984)"/><path d="M 488 968v 32h 32v -16a 16 16, 0, 0, 0, -16 -16" transform="rotate(180,504,984)"/><path d="M 520 968v 32h 32v -16a 16 16, 0, 0, 0, -16 -16" transform="rotate(90,536,984)"/><path d="M 584 968v 32h 16a 16 16, 0, 0, 0, 0 -32" transform="rotate(90,600,984)"/><path d="M 648 968v 32h 32v -16a 16 16, 0, 0, 0, -16 -16" transform="rotate(180,664,984)"/><rect x="680" y="968" width="32" height="32" transform="rotate(0,696,984)"/><path d="M 712 968v 32h 32v -16a 16 16, 0, 0, 0, -16 -16" transform="rotate(90,728,984)"/><path d="M 840 968v 32h 32v -16a 16 16, 0, 0, 0, -16 -16" transform="rotate(-90,856,984)"/><rect x="872" y="968" width="32" height="32" transform="rotate(0,888,984)"/><rect x="904" y="968" width="32" height="32" transform="rotate(0,920,984)"/><circle cx="984" cy="984" r="16" transform="rotate(0,984,984)"/><rect x="1032" y="968" width="32" height="32" transform="rotate(0,1048,984)"/><path d="M 1096 968v 32h 32v -16a 16 16, 0, 0, 0, -16 -16" transform="rotate(-90,1112,984)"/><rect x="1128" y="968" width="32" height="32" transform="rotate(0,1144,984)"/><rect x="1160" y="968" width="32" height="32" transform="rotate(0,1176,984)"/><path d="M 264 1000v 32h 16a 16 16, 0, 0, 0, 0 -32" transform="rotate(90,280,1016)"/><rect x="360" y="1000" width="32" height="32" transform="rotate(0,376,1016)"/><path d="M 424 1000v 32h 16a 16 16, 0, 0, 0, 0 -32" transform="rotate(180,440,1016)"/><path d="M 456 1000v 32h 16a 16 16, 0, 0, 0, 0 -32" transform="rotate(0,472,1016)"/><path d="M 616 1000v 32h 16a 16 16, 0, 0, 0, 0 -32" transform="rotate(-90,632,1016)"/><path d="M 680 1000v 32h 16a 16 16, 0, 0, 0, 0 -32" transform="rotate(90,696,1016)"/><path d="M 744 1000v 32h 32v -16a 16 16, 0, 0, 0, -16 -16" transform="rotate(-90,760,1016)"/><path d="M 776 1000v 32h 32v -16a 16 16, 0, 0, 0, -16 -16" transform="rotate(0,792,1016)"/><rect x="840" y="1000" width="32" height="32" transform="rotate(0,856,1016)"/><rect x="904" y="1000" width="32" height="32" transform="rotate(0,920,1016)"/><rect x="1032" y="1000" width="32" height="32" transform="rotate(0,1048,1016)"/><path d="M 1096 1000v 32h 32v -16a 16 16, 0, 0, 0, -16 -16" transform="rotate(180,1112,1016)"/><rect x="1128" y="1000" width="32" height="32" transform="rotate(0,1144,1016)"/><rect x="1160" y="1000" width="32" height="32" transform="rotate(0,1176,1016)"/><path d="M 296 1032v 32h 32v -16a 16 16, 0, 0, 0, -16 -16" transform="rotate(-90,312,1048)"/><rect x="328" y="1032" width="32" height="32" transform="rotate(0,344,1048)"/><rect x="360" y="1032" width="32" height="32" transform="rotate(0,376,1048)"/><path d="M 392 1032v 32h 16a 16 16, 0, 0, 0, 0 -32" transform="rotate(0,408,1048)"/><path d="M 520 1032v 32h 16a 16 16, 0, 0, 0, 0 -32" transform="rotate(180,536,1048)"/><path d="M 552 1032v 32h 16a 16 16, 0, 0, 0, 0 -32" transform="rotate(0,568,1048)"/><rect x="616" y="1032" width="32" height="32" transform="rotate(0,632,1048)"/><path d="M 712 1032v 32h 16a 16 16, 0, 0, 0, 0 -32" transform="rotate(180,728,1048)"/><rect x="744" y="1032" width="32" height="32" transform="rotate(0,760,1048)"/><rect x="776" y="1032" width="32" height="32" transform="rotate(0,792,1048)"/><rect x="808" y="1032" width="32" height="32" transform="rotate(0,824,1048)"/><path d="M 840 1032v 32h 32v -16a 16 16, 0, 0, 0, -16 -16" transform="rotate(90,856,1048)"/><path d="M 904 1032v 32h 32v -16a 16 16, 0, 0, 0, -16 -16" transform="rotate(180,920,1048)"/><rect x="936" y="1032" width="32" height="32" transform="rotate(0,952,1048)"/><rect x="968" y="1032" width="32" height="32" transform="rotate(0,984,1048)"/><rect x="1000" y="1032" width="32" height="32" transform="rotate(0,1016,1048)"/><rect x="1032" y="1032" width="32" height="32" transform="rotate(0,1048,1048)"/><path d="M 1064 1032v 32h 16a 16 16, 0, 0, 0, 0 -32" transform="rotate(0,1080,1048)"/><path d="M 1128 1032v 32h 32v -16a 16 16, 0, 0, 0, -16 -16" transform="rotate(180,1144,1048)"/><rect x="1160" y="1032" width="32" height="32" transform="rotate(0,1176,1048)"/><path d="M 264 1064v 32h 16a 16 16, 0, 0, 0, 0 -32" transform="rotate(180,280,1080)"/><rect x="296" y="1064" width="32" height="32" transform="rotate(0,312,1080)"/><rect x="328" y="1064" width="32" height="32" transform="rotate(0,344,1080)"/><rect x="360" y="1064" width="32" height="32" transform="rotate(0,376,1080)"/><path d="M 424 1064v 32h 16a 16 16, 0, 0, 0, 0 -32" transform="rotate(-90,440,1080)"/><path d="M 616 1064v 32h 32v -16a 16 16, 0, 0, 0, -16 -16" transform="rotate(180,632,1080)"/><rect x="648" y="1064" width="32" height="32" transform="rotate(0,664,1080)"/><path d="M 680 1064v 32h 16a 16 16, 0, 0, 0, 0 -32" transform="rotate(0,696,1080)"/><rect x="776" y="1064" width="32" height="32" transform="rotate(0,792,1080)"/><path d="M 808 1064v 32h 32v -16a 16 16, 0, 0, 0, -16 -16" transform="rotate(90,824,1080)"/><rect x="936" y="1064" width="32" height="32" transform="rotate(0,952,1080)"/><path d="M 1000 1064v 32h 32v -16a 16 16, 0, 0, 0, -16 -16" transform="rotate(180,1016,1080)"/><rect x="1032" y="1064" width="32" height="32" transform="rotate(0,1048,1080)"/><circle cx="1112" cy="1080" r="16" transform="rotate(0,1112,1080)"/><rect x="1160" y="1064" width="32" height="32" transform="rotate(0,1176,1080)"/><path d="M 328 1096v 32h 32v -16a 16 16, 0, 0, 0, -16 -16" transform="rotate(180,344,1112)"/><rect x="360" y="1096" width="32" height="32" transform="rotate(0,376,1112)"/><path d="M 424 1096v 32h 32v -16a 16 16, 0, 0, 0, -16 -16" transform="rotate(180,440,1112)"/><rect x="456" y="1096" width="32" height="32" transform="rotate(0,472,1112)"/><path d="M 488 1096v 32h 16a 16 16, 0, 0, 0, 0 -32" transform="rotate(0,504,1112)"/><path d="M 552 1096v 32h 16a 16 16, 0, 0, 0, 0 -32" transform="rotate(-90,568,1112)"/><path d="M 648 1096v 32h 16a 16 16, 0, 0, 0, 0 -32" transform="rotate(90,664,1112)"/><circle cx="728" cy="1112" r="16" transform="rotate(0,728,1112)"/><path d="M 776 1096v 32h 16a 16 16, 0, 0, 0, 0 -32" transform="rotate(90,792,1112)"/><circle cx="856" cy="1112" r="16" transform="rotate(0,856,1112)"/><path d="M 936 1096v 32h 16a 16 16, 0, 0, 0, 0 -32" transform="rotate(90,952,1112)"/><path d="M 1032 1096v 32h 16a 16 16, 0, 0, 0, 0 -32" transform="rotate(90,1048,1112)"/><path d="M 1160 1096v 32h 16a 16 16, 0, 0, 0, 0 -32" transform="rotate(90,1176,1112)"/><path d="M 264 1128v 32h 16a 16 16, 0, 0, 0, 0 -32" transform="rotate(180,280,1144)"/><path d="M 296 1128v 32h 32v -16a 16 16, 0, 0, 0, -16 -16" transform="rotate(0,312,1144)"/><rect x="360" y="1128" width="32" height="32" transform="rotate(0,376,1144)"/><path d="M 392 1128v 32h 16a 16 16, 0, 0, 0, 0 -32" transform="rotate(0,408,1144)"/><path d="M 456 1128v 32h 16a 16 16, 0, 0, 0, 0 -32" transform="rotate(90,472,1144)"/><path d="M 520 1128v 32h 16a 16 16, 0, 0, 0, 0 -32" transform="rotate(180,536,1144)"/><path d="M 552 1128v 32h 32v -16a 16 16, 0, 0, 0, -16 -16" transform="rotate(90,568,1144)"/><path d="M 680 1128v 32h 16a 16 16, 0, 0, 0, 0 -32" transform="rotate(-90,696,1144)"/><circle cx="760" cy="1144" r="16" transform="rotate(0,760,1144)"/><path d="M 808 1128v 32h 16a 16 16, 0, 0, 0, 0 -32" transform="rotate(-90,824,1144)"/><path d="M 872 1128v 32h 32v -16a 16 16, 0, 0, 0, -16 -16" transform="rotate(-90,888,1144)"/><path d="M 904 1128v 32h 32v -16a 16 16, 0, 0, 0, -16 -16" transform="rotate(0,920,1144)"/><circle cx="1016" cy="1144" r="16" transform="rotate(0,1016,1144)"/><path d="M 296 1160v 32h 16a 16 16, 0, 0, 0, 0 -32" transform="rotate(90,312,1176)"/><path d="M 360 1160v 32h 16a 16 16, 0, 0, 0, 0 -32" transform="rotate(90,376,1176)"/><circle cx="440" cy="1176" r="16" transform="rotate(0,440,1176)"/><circle cx="504" cy="1176" r="16" transform="rotate(0,504,1176)"/><circle cx="632" cy="1176" r="16" transform="rotate(0,632,1176)"/><path d="M 680 1160v 32h 16a 16 16, 0, 0, 0, 0 -32" transform="rotate(90,696,1176)"/><path d="M 808 1160v 32h 16a 16 16, 0, 0, 0, 0 -32" transform="rotate(90,824,1176)"/><path d="M 872 1160v 32h 32v -16a 16 16, 0, 0, 0, -16 -16" transform="rotate(180,888,1176)"/><rect x="904" y="1160" width="32" height="32" transform="rotate(0,920,1176)"/><path d="M 936 1160v 32h 16a 16 16, 0, 0, 0, 0 -32" transform="rotate(0,952,1176)"/><path d="M 1032 1160v 32h 16a 16 16, 0, 0, 0, 0 -32" transform="rotate(180,1048,1176)"/><path d="M 1064 1160v 32h 16a 16 16, 0, 0, 0, 0 -32" transform="rotate(0,1080,1176)"/><path d="M 1128 1160v 32h 16a 16 16, 0, 0, 0, 0 -32" transform="rotate(180,1144,1176)"/><path d="M 1160 1160v 32h 16a 16 16, 0, 0, 0, 0 -32" transform="rotate(0,1176,1176)"/></clipPath><clipPath id="clip-path-corners-square-color-0-0-41"><path clip-rule="evenodd" d="M 8 88v 64a 80 80, 0, 0, 0, 80 80h 64a 80 80, 0, 0, 0, 80 -80v -64a 80 80, 0, 0, 0, -80 -80h -64a 80 80, 0, 0, 0, -80 80M 88 40h 64a 48 48, 0, 0, 1, 48 48v 64a 48 48, 0, 0, 1, -48 48h -64a 48 48, 0, 0, 1, -48 -48v -64a 48 48, 0, 0, 1, 48 -48" transform="rotate(0,120,120)"/></clipPath><clipPath id="clip-path-corners-dot-color-0-0-41"><circle cx="120" cy="120" r="48" transform="rotate(0,120,120)"/></clipPath><clipPath id="clip-path-corners-square-color-1-0-41"><path clip-rule="evenodd" d="M 968 88v 64a 80 80, 0, 0, 0, 80 80h 64a 80 80, 0, 0, 0, 80 -80v -64a 80 80, 0, 0, 0, -80 -80h -64a 80 80, 0, 0, 0, -80 80M 1048 40h 64a 48 48, 0, 0, 1, 48 48v 64a 48 48, 0, 0, 1, -48 48h -64a 48 48, 0, 0, 1, -48 -48v -64a 48 48, 0, 0, 1, 48 -48" transform="rotate(90,1080,120)"/></clipPath><clipPath id="clip-path-corners-dot-color-1-0-41"><circle cx="1080" cy="120" r="48" transform="rotate(90,1080,120)"/></clipPath><clipPath id="clip-path-corners-square-color-0-1-41"><path clip-rule="evenodd" d="M 8 1048v 64a 80 80, 0, 0, 0, 80 80h 64a 80 80, 0, 0, 0, 80 -80v -64a 80 80, 0, 0, 0, -80 -80h -64a 80 80, 0, 0, 0, -80 80M 88 1000h 64a 48 48, 0, 0, 1, 48 48v 64a 48 48, 0, 0, 1, -48 48h -64a 48 48, 0, 0, 1, -48 -48v -64a 48 48, 0, 0, 1, 48 -48" transform="rotate(-90,120,1080)"/></clipPath><clipPath id="clip-path-corners-dot-color-0-1-41"><circle cx="120" cy="1080" r="48" transform="rotate(-90,120,1080)"/></clipPath></defs><rect x="0" y="0" height="1200" width="1200" clip-path="url('#clip-path-background-color-41')" fill="#ffffff"/><rect x="0" y="0" height="1200" width="1200" clip-path="url('#clip-path-dot-color-41')" fill="#000000"/><rect x="8" y="8" height="224" width="224" clip-path="url('#clip-path-corners-square-color-0-0-41')" fill="#000000"/><rect x="72" y="72" height="96" width="96" clip-path="url('#clip-path-corners-dot-color-0-0-41')" fill="#000000"/><rect x="968" y="8" height="224" width="224" clip-path="url('#clip-path-corners-square-color-1-0-41')" fill="#000000"/><rect x="1032" y="72" height="96" width="96" clip-path="url('#clip-path-corners-dot-color-1-0-41')" fill="#000000"/><rect x="8" y="968" height="224" width="224" clip-path="url('#clip-path-corners-square-color-0-1-41')" fill="#000000"/><rect x="72" y="1032" height="96" width="96" clip-path="url('#clip-path-corners-dot-color-0-1-41')" fill="#000000"/></svg>