<?xml version="1.0" standalone="no"?>
<svg xmlns="http://www.w3.org/2000/svg" width="1200" height="1200" xmlns:xlink="http://www.w3.org/1999/xlink" viewBox="0 0 1200 1200"><defs><clipPath id="clip-path-background-color-43"><rect x="0" y="0" width="1200" height="1200"/></clipPath><clipPath id="clip-path-dot-color-43"><path d="M 306 26v 28h 14a 14 14, 0, 0, 0, 0 -28" transform="rotate(-90,320,40)"/><circle cx="376" cy="40" r="14" transform="rotate(0,376,40)"/><path d="M 418 26v 28h 14a 14 14, 0, 0, 0, 0 -28" transform="rotate(-90,432,40)"/><path d="M 474 26v 28h 14a 14 14, 0, 0, 0, 0 -28" transform="rotate(-90,488,40)"/><path d="M 586 26v 28h 14a 14 14, 0, 0, 0, 0 -28" transform="rotate(180,600,40)"/><path d="M 614 26v 28h 14a 14 14, 0, 0, 0, 0 -28" transform="rotate(0,628,40)"/><path d="M 670 26v 28h 14a 14 14, 0, 0, 0, 0 -28" transform="rotate(180,684,40)"/><rect x="698" y="26" width="28" height="28" transform="rotate(0,712,40)"/><rect x="726" y="26" width="28" height="28" transform="rotate(0,740,40)"/><path d="M 754 26v 28h 28v -14a 14 14, 0, 0, 0, -14 -14" transform="rotate(0,768,40)"/><circle cx="264" cy="68" r="14" transform="rotate(0,264,68)"/><rect x="306" y="54" width="28" height="28" transform="rotate(0,320,68)"/><path d="M 334 54v 28h 14a 14 14, 0, 0, 0, 0 -28" transform="rotate(0,348,68)"/><path d="M 418 54v 28h 14a 14 14, 0, 0, 0, 0 -28" transform="rotate(90,432,68)"/><rect x="474" y="54" width="28" height="28" transform="rotate(0,488,68)"/><rect x="726" y="54" width="28" height="28" transform="rotate(0,740,68)"/><rect x="754" y="54" width="28" height="28" transform="rotate(0,768,68)"/><path d="M 838 54v 28h 14a 14 14, 0, 0, 0, 0 -28" transform="rotate(-90,852,68)"/><path d="M 894 54v 28h 14a 14 14, 0, 0, 0, 0 -28" transform="rotate(-90,908,68)"/><path d="M 306 82v 28h 14a 14 14, 0, 0, 0, 0 -28" transform="rotate(90,320,96)"/><rect x="474" y="82" width="28" height="28" transform="rotate(0,488,96)"/><path d="M 530 82v 28h 14a 14 14, 0, 0, 0, 0 -28" transform="rotate(-90,544,96)"/><circle cx="656" cy="96" r="14" transform="rotate(0,656,96)"/><path d="M 726 82v 28h 28v -14a 14 14, 0, 0, 0, -14 -14" transform="rotate(180,740,96)"/><rect x="754" y="82" width="28" height="28" transform="rotate(0,768,96)"/><path d="M 782 82v 28h 28v -14a 14 14, 0, 0, 0, -14 -14" transform="rotate(0,796,96)"/><path d="M 838 82v 28h 28v -14a 14 14, 0, 0, 0, -14 -14" transform="rotate(180,852,96)"/><rect x="866" y="82" width="28" height="28" transform="rotate(0,880,96)"/><rect x="894" y="82" width="28" height="28" transform="rotate(0,908,96)"/><path d="M 922 82v 28h 14a 14 14, 0, 0, 0, 0 -28" transform="rotate(0,936,96)"/><path d="M 250 110v 28h 28v -14a 14 14, 0, 0, 0, -14 -14" transform="rotate(-90,264,124)"/><path d="M 278 110v 28h 14a 14 14, 0, 0, 0, 0 -28" transform="rotate(0,292,124)"/><circle cx="348" cy="124" r="14" transform="rotate(0,348,124)"/><path d="M 418 110v 28h 14a 14 14, 0, 0, 0, 0 -28" transform="rotate(180,432,124)"/><rect x="446" y="110" width="28" height="28" transform="rotate(0,460,124)"/><rect x="474" y="110" width="28" height="28" transform="rotate(0,488,124)"/><rect x="530" y="110" width="28" height="28" transform="rotate(0,544,124)"/><path d="M 558 110v 28h 28v -14a 14 14, 0, 0, 0, -14 -14" transform="rotate(0,572,124)"/><path d="M 614 110v 28h 14a 14 14, 0, 0, 0, 0 -28" transform="rotate(-90,628,124)"/><path d="M 670 110v 28h 28v -14a 14 14, 0, 0, 0, -14 -14" transform="rotate(-90,684,124)"/><path d="M 698 110v 28h 28v -14a 14 14, 0, 0, 0, -14 -14" transform="rotate(0,712,124)"/><path d="M 754 110v 28h 28v -14a 14 14, 0, 0, 0, -14 -14" transform="rotate(180,768,124)"/><rect x="782" y="110" width="28" height="28" transform="rotate(0,796,124)"/><path d="M 810 110v 28h 28v -14a 14 14, 0, 0, 0, -14 -14" transform="rotate(0,824,124)"/><rect x="894" y="110" width="28" height="28" transform="rotate(0,908,124)"/><path d="M 250 138v 28h 14a 14 14, 0, 0, 0, 0 -28" transform="rotate(90,264,152)"/><circle cx="320" cy="152" r="14" transform="rotate(0,320,152)"/><circle cx="376" cy="152" r="14" transform="rotate(0,376,152)"/><path d="M 446 138v 28h 28v -14a 14 14, 0, 0, 0, -14 -14" transform="rotate(180,460,152)"/><rect x="474" y="138" width="28" height="28" transform="rotate(0,488,152)"/><rect x="502" y="138" width="28" height="28" transform="rotate(0,516,152)"/><rect x="530" y="138" width="28" height="28" transform="rotate(0,544,152)"/><path d="M 558 138v 28h 28v -14a 14 14, 0, 0, 0, -14 -14" transform="rotate(90,572,152)"/><rect x="614" y="138" width="28" height="28" transform="rotate(0,628,152)"/><rect x="670" y="138" width="28" height="28" transform="rotate(0,684,152)"/><path d="M 698 138v 28h 28v -14a 14 14, 0, 0, 0, -14 -14" transform="rotate(90,712,152)"/><rect x="810" y="138" width="28" height="28" transform="rotate(0,824,152)"/><rect x="838" y="138" width="28" height="28" transform="rotate(0,852,152)"/><rect x="866" y="138" width="28" height="28" transform="rotate(0,880,152)"/><path d="M 894 138v 28h 28v -14a 14 14, 0, 0, 0, -14 -14" transform="rotate(90,908,152)"/><rect x="474" y="166" width="28" height="28" transform="rotate(0,488,180)"/><rect x="530" y="166" width="28" height="28" transform="rotate(0,544,180)"/><path d="M 586 166v 28h 28v -14a 14 14, 0, 0, 0, -14 -14" transform="rotate(-90,600,180)"/><rect x="614" y="166" width="28" height="28" transform="rotate(0,628,180)"/><rect x="642" y="166" width="28" height="28" transform="rotate(0,656,180)"/><path d="M 670 166v 28h 28v -14a 14 14, 0, 0, 0, -14 -14" transform="rotate(90,684,180)"/><circle cx="740" cy="180" r="14" transform="rotate(0,740,180)"/><rect x="810" y="166" width="28" height="28" transform="rotate(0,824,180)"/><rect x="866" y="166" width="28" height="28" transform="rotate(0,880,180)"/><path d="M 922 166v 28h 14a 14 14, 0, 0, 0, 0 -28" transform="rotate(-90,936,180)"/><path d="M 250 194v 28h 14a 14 14, 0, 0, 0, 0 -28" transform="rotate(-90,264,208)"/><path d="M 306 194v 28h 14a 14 14, 0, 0, 0, 0 -28" transform="rotate(-90,320,208)"/><path d="M 362 194v 28h 14a 14 14, 0, 0, 0, 0 -28" transform="rotate(-90,376,208)"/><path d="M 418 194v 28h 14a 14 14, 0, 0, 0, 0 -28" transform="rotate(-90,432,208)"/><rect x="474" y="194" width="28" height="28" transform="rotate(0,488,208)"/><rect x="530" y="194" width="28" height="28" transform="rotate(0,544,208)"/><path d="M 586 194v 28h 14a 14 14, 0, 0, 0, 0 -28" transform="rotate(90,600,208)"/><rect x="642" y="194" width="28" height="28" transform="rotate(0,656,208)"/><path d="M 698 194v 28h 14a 14 14, 0, 0, 0, 0 -28" transform="rotate(-90,712,208)"/><path d="M 754 194v 28h 14a 14 14, 0, 0, 0, 0 -28" transform="rotate(-90,768,208)"/><path d="M 810 194v 28h 14a 14 14, 0, 0, 0, 0 -28" transform="rotate(90,824,208)"/><path d="M 866 194v 28h 14a 14 14, 0, 0, 0, 0 -28" transform="rotate(90,880,208)"/><path d="M 922 194v 28h 14a 14 14, 0, 0, 0, 0 -28" transform="rotate(90,936,208)"/><rect x="250" y="222" width="28" height="28" transform="rotate(0,264,236)"/><rect x="278" y="222" width="28" height="28" transform="rotate(0,292,236)"/><rect x="306" y="222" width="28" height="28" transform="rotate(0,320,236)"/><rect x="362" y="222" width="28" height="28" transform="rotate(0,376,236)"/><rect x="418" y="222" width="28" height="28" transform="rotate(0,432,236)"/><rect x="446" y="222" width="28" height="28" transform="rotate(0,460,236)"/><rect x="474" y="222" width="28" height="28" transform="rotate(0,488,236)"/><rect x="502" y="222" width="28" height="28" transform="rotate(0,516,236)"/><rect x="530" y="222" width="28" height="28" transform="rotate(0,544,236)"/><path d="M 558 222v 28h 28v -14a 14 14, 0, 0, 0, -14 -14" transform="rotate(0,572,236)"/><path d="M 614 222v 28h 14a 14 14, 0, 0, 0, 0 -28" transform="rotate(180,628,236)"/><rect x="642" y="222" width="28" height="28" transform="rotate(0,656,236)"/><rect x="698" y="222" width="28" height="28" transform="rotate(0,712,236)"/><rect x="726" y="222" width="28" height="28" transform="rotate(0,740,236)"/><rect x="754" y="222" width="28" height="28" transform="rotate(0,768,236)"/><path d="M 782 222v 28h 28v -14a 14 14, 0, 0, 0, -14 -14" transform="rotate(0,796,236)"/><path d="M 894 222v 28h 14a 14 14, 0, 0, 0, 0 -28" transform="rotate(-90,908,236)"/><circle cx="68" cy="264" r="14" transform="rotate(0,68,264)"/><path d="M 110 250v 28h 14a 14 14, 0, 0, 0, 0 -28" transform="rotate(180,124,264)"/><rect x="138" y="250" width="28" height="28" transform="rotate(0,152,264)"/><rect x="166" y="250" width="28" height="28" transform="rotate(0,180,264)"/><path d="M 194 250v 28h 14a 14 14, 0, 0, 0, 0 -28" transform="rotate(0,208,264)"/><rect x="250" y="250" width="28" height="28" transform="rotate(0,264,264)"/><rect x="278" y="250" width="28" height="28" transform="rotate(0,292,264)"/><rect x="306" y="250" width="28" height="28" transform="rotate(0,320,264)"/><rect x="334" y="250" width="28" height="28" transform="rotate(0,348,264)"/><rect x="362" y="250" width="28" height="28" transform="rotate(0,376,264)"/><rect x="390" y="250" width="28" height="28" transform="rotate(0,404,264)"/><rect x="418" y="250" width="28" height="28" transform="rotate(0,432,264)"/><rect x="446" y="250" width="28" height="28" transform="rotate(0,460,264)"/><rect x="474" y="250" width="28" height="28" transform="rotate(0,488,264)"/><rect x="502" y="250" width="28" height="28" transform="rotate(0,516,264)"/><rect x="530" y="250" width="28" height="28" transform="rotate(0,544,264)"/><path d="M 558 250v 28h 28v -14a 14 14, 0, 0, 0, -14 -14" transform="rotate(90,572,264)"/><rect x="642" y="250" width="28" height="28" transform="rotate(0,656,264)"/><path d="M 698 250v 28h 14a 14 14, 0, 0, 0, 0 -28" transform="rotate(90,712,264)"/><rect x="754" y="250" width="28" height="28" transform="rotate(0,768,264)"/><rect x="782" y="250" width="28" height="28" transform="rotate(0,796,264)"/><circle cx="852" cy="264" r="14" transform="rotate(0,852,264)"/><rect x="894" y="250" width="28" height="28" transform="rotate(0,908,264)"/><path d="M 950 250v 28h 14a 14 14, 0, 0, 0, 0 -28" transform="rotate(180,964,264)"/><path d="M 978 250v 28h 14a 14 14, 0, 0, 0, 0 -28" transform="rotate(0,992,264)"/><path d="M 1034 250v 28h 28v -14a 14 14, 0, 0, 0, -14 -14" transform="rotate(-90,1048,264)"/><path d="M 1062 250v 28h 14a 14 14, 0, 0, 0, 0 -28" transform="rotate(0,1076,264)"/><circle cx="1132" cy="264" r="14" transform="rotate(0,1132,264)"/><path d="M 26 278v 28h 14a 14 14, 0, 0, 0, 0 -28" transform="rotate(-90,40,292)"/><path d="M 82 278v 28h 14a 14 14, 0, 0, 0, 0 -28" transform="rotate(-90,96,292)"/><path d="M 138 278v 28h 14a 14 14, 0, 0, 0, 0 -28" transform="rotate(90,152,292)"/><path d="M 250 278v 28h 14a 14 14, 0, 0, 0, 0 -28" transform="rotate(90,264,292)"/><rect x="362" y="278" width="28" height="28" transform="rotate(0,376,292)"/><rect x="446" y="278" width="28" height="28" transform="rotate(0,460,292)"/><rect x="502" y="278" width="28" height="28" transform="rotate(0,516,292)"/><rect x="530" y="278" width="28" height="28" transform="rotate(0,544,292)"/><path d="M 614 278v 28h 14a 14 14, 0, 0, 0, 0 -28" transform="rotate(180,628,292)"/><rect x="642" y="278" width="28" height="28" transform="rotate(0,656,292)"/><path d="M 670 278v 28h 28v -14a 14 14, 0, 0, 0, -14 -14" transform="rotate(0,684,292)"/><path d="M 754 278v 28h 28v -14a 14 14, 0, 0, 0, -14 -14" transform="rotate(180,768,292)"/><rect x="782" y="278" width="28" height="28" transform="rotate(0,796,292)"/><path d="M 894 278v 28h 14a 14 14, 0, 0, 0, 0 -28" transform="rotate(90,908,292)"/><path d="M 1006 278v 28h 14a 14 14, 0, 0, 0, 0 -28" transform="rotate(180,1020,292)"/><path d="M 1034 278v 28h 28v -14a 14 14, 0, 0, 0, -14 -14" transform="rotate(90,1048,292)"/><path d="M 26 306v 28h 28v -14a 14 14, 0, 0, 0, -14 -14" transform="rotate(180,40,320)"/><rect x="54" y="306" width="28" height="28" transform="rotate(0,68,320)"/><rect x="82" y="306" width="28" height="28" transform="rotate(0,96,320)"/><path d="M 110 306v 28h 28v -14a 14 14, 0, 0, 0, -14 -14" transform="rotate(0,124,320)"/><path d="M 166 306v 28h 14a 14 14, 0, 0, 0, 0 -28" transform="rotate(180,180,320)"/><path d="M 194 306v 28h 14a 14 14, 0, 0, 0, 0 -28" transform="rotate(0,208,320)"/><path d="M 334 306v 28h 14a 14 14, 0, 0, 0, 0 -28" transform="rotate(180,348,320)"/><rect x="362" y="306" width="28" height="28" transform="rotate(0,376,320)"/><rect x="446" y="306" width="28" height="28" transform="rotate(0,460,320)"/><path d="M 502 306v 28h 28v -14a 14 14, 0, 0, 0, -14 -14" transform="rotate(180,516,320)"/><rect x="530" y="306" width="28" height="28" transform="rotate(0,544,320)"/><path d="M 558 306v 28h 14a 14 14, 0, 0, 0, 0 -28" transform="rotate(0,572,320)"/><path d="M 642 306v 28h 28v -14a 14 14, 0, 0, 0, -14 -14" transform="rotate(180,656,320)"/><path d="M 670 306v 28h 28v -14a 14 14, 0, 0, 0, -14 -14" transform="rotate(90,684,320)"/><path d="M 782 306v 28h 28v -14a 14 14, 0, 0, 0, -14 -14" transform="rotate(180,796,320)"/><path d="M 810 306v 28h 14a 14 14, 0, 0, 0, 0 -28" transform="rotate(0,824,320)"/><path d="M 866 306v 28h 14a 14 14, 0, 0, 0, 0 -28" transform="rotate(-90,880,320)"/><path d="M 978 306v 28h 14a 14 14, 0, 0, 0, 0 -28" transform="rotate(-90,992,320)"/><path d="M 1090 306v 28h 14a 14 14, 0, 0, 0, 0 -28" transform="rotate(180,1104,320)"/><path d="M 1118 306v 28h 28v -14a 14 14, 0, 0, 0, -14 -14" transform="rotate(0,1132,320)"/><rect x="54" y="334" width="28" height="28" transform="rotate(0,68,348)"/><path d="M 110 334v 28h 28v -14a 14 14, 0, 0, 0, -14 -14" transform="rotate(180,124,348)"/><path d="M 138 334v 28h 28v -14a 14 14, 0, 0, 0, -14 -14" transform="rotate(0,152,348)"/><path d="M 222 334v 28h 14a 14 14, 0, 0, 0, 0 -28" transform="rotate(180,236,348)"/><path d="M 250 334v 28h 28v -14a 14 14, 0, 0, 0, -14 -14" transform="rotate(0,264,348)"/><path d="M 306 334v 28h 14a 14 14, 0, 0, 0, 0 -28" transform="rotate(-90,320,348)"/><path d="M 362 334v 28h 28v -14a 14 14, 0, 0, 0, -14 -14" transform="rotate(180,376,348)"/><rect x="390" y="334" width="28" height="28" transform="rotate(0,404,348)"/><rect x="418" y="334" width="28" height="28" transform="rotate(0,432,348)"/><rect x="446" y="334" width="28" height="28" transform="rotate(0,460,348)"/><path d="M 474 334v 28h 14a 14 14, 0, 0, 0, 0 -28" transform="rotate(0,488,348)"/><rect x="530" y="334" width="28" height="28" transform="rotate(0,544,348)"/><circle cx="712" cy="348" r="14" transform="rotate(0,712,348)"/><path d="M 838 334v 28h 14a 14 14, 0, 0, 0, 0 -28" transform="rotate(180,852,348)"/><rect x="866" y="334" width="28" height="28" transform="rotate(0,880,348)"/><rect x="894" y="334" width="28" height="28" transform="rotate(0,908,348)"/><path d="M 922 334v 28h 28v -14a 14 14, 0, 0, 0, -14 -14" transform="rotate(0,936,348)"/><rect x="978" y="334" width="28" height="28" transform="rotate(0,992,348)"/><rect x="1006" y="334" width="28" height="28" transform="rotate(0,1020,348)"/><rect x="1034" y="334" width="28" height="28" transform="rotate(0,1048,348)"/><path d="M 1062 334v 28h 14a 14 14, 0, 0, 0, 0 -28" transform="rotate(0,1076,348)"/><path d="M 1118 334v 28h 28v -14a 14 14, 0, 0, 0, -14 -14" transform="rotate(180,1132,348)"/><path d="M 1146 334v 28h 28v -14a 14 14, 0, 0, 0, -14 -14" transform="rotate(0,1160,348)"/><path d="M 26 362v 28h 28v -14a 14 14, 0, 0, 0, -14 -14" transform="rotate(-90,40,376)"/><rect x="54" y="362" width="28" height="28" transform="rotate(0,68,376)"/><path d="M 82 362v 28h 28v -14a 14 14, 0, 0, 0, -14 -14" transform="rotate(0,96,376)"/><path d="M 138 362v 28h 14a 14 14, 0, 0, 0, 0 -28" transform="rotate(90,152,376)"/><circle cx="208" cy="376" r="14" transform="rotate(0,208,376)"/><path d="M 250 362v 28h 28v -14a 14 14, 0, 0, 0, -14 -14" transform="rotate(180,264,376)"/><rect x="278" y="362" width="28" height="28" transform="rotate(0,292,376)"/><path d="M 306 362v 28h 28v -14a 14 14, 0, 0, 0, -14 -14" transform="rotate(90,320,376)"/><path d="M 418 362v 28h 14a 14 14, 0, 0, 0, 0 -28" transform="rotate(90,432,376)"/><path d="M 502 362v 28h 14a 14 14, 0, 0, 0, 0 -28" transform="rotate(180,516,376)"/><path d="M 530 362v 28h 28v -14a 14 14, 0, 0, 0, -14 -14" transform="rotate(90,544,376)"/><path d="M 614 362v 28h 28v -14a 14 14, 0, 0, 0, -14 -14" transform="rotate(-90,628,376)"/><rect x="642" y="362" width="28" height="28" transform="rotate(0,656,376)"/><path d="M 670 362v 28h 14a 14 14, 0, 0, 0, 0 -28" transform="rotate(0,684,376)"/><path d="M 754 362v 28h 28v -14a 14 14, 0, 0, 0, -14 -14" transform="rotate(-90,768,376)"/><rect x="782" y="362" width="28" height="28" transform="rotate(0,796,376)"/><path d="M 810 362v 28h 28v -14a 14 14, 0, 0, 0, -14 -14" transform="rotate(0,824,376)"/><rect x="922" y="362" width="28" height="28" transform="rotate(0,936,376)"/><rect x="978" y="362" width="28" height="28" transform="rotate(0,992,376)"/><rect x="1006" y="362" width="28" height="28" transform="rotate(0,1020,376)"/><rect x="1146" y="362" width="28" height="28" transform="rotate(0,1160,376)"/><rect x="26" y="390" width="28" height="28" transform="rotate(0,40,404)"/><rect x="82" y="390" width="28" height="28" transform="rotate(0,96,404)"/><path d="M 110 390v 28h 14a 14 14, 0, 0, 0, 0 -28" transform="rotate(0,124,404)"/><circle cx="180" cy="404" r="14" transform="rotate(0,180,404)"/><path d="M 334 390v 28h 14a 14 14, 0, 0, 0, 0 -28" transform="rotate(180,348,404)"/><path d="M 362 390v 28h 14a 14 14, 0, 0, 0, 0 -28" transform="rotate(0,376,404)"/><path d="M 586 390v 28h 14a 14 14, 0, 0, 0, 0 -28" transform="rotate(180,600,404)"/><rect x="614" y="390" width="28" height="28" transform="rotate(0,628,404)"/><path d="M 642 390v 28h 28v -14a 14 14, 0, 0, 0, -14 -14" transform="rotate(90,656,404)"/><path d="M 698 390v 28h 14a 14 14, 0, 0, 0, 0 -28" transform="rotate(180,712,404)"/><rect x="726" y="390" width="28" height="28" transform="rotate(0,740,404)"/><rect x="754" y="390" width="28" height="28" transform="rotate(0,768,404)"/><rect x="810" y="390" width="28" height="28" transform="rotate(0,824,404)"/><path d="M 894 390v 28h 28v -14a 14 14, 0, 0, 0, -14 -14" transform="rotate(-90,908,404)"/><rect x="922" y="390" width="28" height="28" transform="rotate(0,936,404)"/><rect x="950" y="390" width="28" height="28" transform="rotate(0,964,404)"/><rect x="978" y="390" width="28" height="28" transform="rotate(0,992,404)"/><rect x="1006" y="390" width="28" height="28" transform="rotate(0,1020,404)"/><rect x="1034" y="390" width="28" height="28" transform="rotate(0,1048,404)"/><rect x="1062" y="390" width="28" height="28" transform="rotate(0,1076,404)"/><rect x="1090" y="390" width="28" height="28" transform="rotate(0,1104,404)"/><rect x="1118" y="390" width="28" height="28" transform="rotate(0,1132,404)"/><rect x="1146" y="390" width="28" height="28" transform="rotate(0,1160,404)"/><rect x="26" y="418" width="28" height="28" transform="rotate(0,40,432)"/><rect x="82" y="418" width="28" height="28" transform="rotate(0,96,432)"/><path d="M 194 418v 28h 14a 14 14, 0, 0, 0, 0 -28" transform="rotate(180,208,432)"/><path d="M 222 418v 28h 28v -14a 14 14, 0, 0, 0, -14 -14" transform="rotate(0,236,432)"/><path d="M 278 418v 28h 14a 14 14, 0, 0, 0, 0 -28" transform="rotate(180,292,432)"/><path d="M 306 418v 28h 28v -14a 14 14, 0, 0, 0, -14 -14" transform="rotate(0,320,432)"/><path d="M 418 418v 28h 14a 14 14, 0, 0, 0, 0 -28" transform="rotate(-90,432,432)"/><path d="M 474 418v 28h 14a 14 14, 0, 0, 0, 0 -28" transform="rotate(180,488,432)"/><path d="M 502 418v 28h 14a 14 14, 0, 0, 0, 0 -28" transform="rotate(0,516,432)"/><path d="M 614 418v 28h 14a 14 14, 0, 0, 0, 0 -28" transform="rotate(90,628,432)"/><rect x="754" y="418" width="28" height="28" transform="rotate(0,768,432)"/><path d="M 810 418v 28h 28v -14a 14 14, 0, 0, 0, -14 -14" transform="rotate(180,824,432)"/><path d="M 838 418v 28h 14a 14 14, 0, 0, 0, 0 -28" transform="rotate(0,852,432)"/><path d="M 894 418v 28h 28v -14a 14 14, 0, 0, 0, -14 -14" transform="rotate(180,908,432)"/><rect x="922" y="418" width="28" height="28" transform="rotate(0,936,432)"/><rect x="950" y="418" width="28" height="28" transform="rotate(0,964,432)"/><rect x="978" y="418" width="28" height="28" transform="rotate(0,992,432)"/><rect x="1006" y="418" width="28" height="28" transform="rotate(0,1020,432)"/><rect x="1090" y="418" width="28" height="28" transform="rotate(0,1104,432)"/><rect x="1146" y="418" width="28" height="28" transform="rotate(0,1160,432)"/><rect x="26" y="446" width="28" height="28" transform="rotate(0,40,460)"/><rect x="54" y="446" width="28" height="28" transform="rotate(0,68,460)"/><path d="M 82 446v 28h 28v -14a 14 14, 0, 0, 0, -14 -14" transform="rotate(90,96,460)"/><path d="M 138 446v 28h 14a 14 14, 0, 0, 0, 0 -28" transform="rotate(180,152,460)"/><path d="M 166 446v 28h 28v -14a 14 14, 0, 0, 0, -14 -14" transform="rotate(0,180,460)"/><path d="M 222 446v 28h 28v -14a 14 14, 0, 0, 0, -14 -14" transform="rotate(180,236,460)"/><path d="M 250 446v 28h 14a 14 14, 0, 0, 0, 0 -28" transform="rotate(0,264,460)"/><rect x="306" y="446" width="28" height="28" transform="rotate(0,320,460)"/><path d="M 334 446v 28h 14a 14 14, 0, 0, 0, 0 -28" transform="rotate(0,348,460)"/><path d="M 418 446v 28h 14a 14 14, 0, 0, 0, 0 -28" transform="rotate(90,432,460)"/><path d="M 530 446v 28h 14a 14 14, 0, 0, 0, 0 -28" transform="rotate(180,544,460)"/><path d="M 558 446v 28h 14a 14 14, 0, 0, 0, 0 -28" transform="rotate(0,572,460)"/><circle cx="656" cy="460" r="14" transform="rotate(0,656,460)"/><circle cx="712" cy="460" r="14" transform="rotate(0,712,460)"/><path d="M 754 446v 28h 28v -14a 14 14, 0, 0, 0, -14 -14" transform="rotate(180,768,460)"/><path d="M 782 446v 28h 14a 14 14, 0, 0, 0, 0 -28" transform="rotate(0,796,460)"/><circle cx="880" cy="460" r="14" transform="rotate(0,880,460)"/><rect x="950" y="446" width="28" height="28" transform="rotate(0,964,460)"/><path d="M 1006 446v 28h 14a 14 14, 0, 0, 0, 0 -28" transform="rotate(90,1020,460)"/><path d="M 1062 446v 28h 14a 14 14, 0, 0, 0, 0 -28" transform="rotate(180,1076,460)"/><rect x="1090" y="446" width="28" height="28" transform="rotate(0,1104,460)"/><rect x="1118" y="446" width="28" height="28" transform="rotate(0,1132,460)"/><rect x="1146" y="446" width="28" height="28" transform="rotate(0,1160,460)"/><rect x="26" y="474" width="28" height="28" transform="rotate(0,40,488)"/><path d="M 166 474v 28h 28v -14a 14 14, 0, 0, 0, -14 -14" transform="rotate(180,180,488)"/><path d="M 194 474v 28h 14a 14 14, 0, 0, 0, 0 -28" transform="rotate(0,208,488)"/><rect x="306" y="474" width="28" height="28" transform="rotate(0,320,488)"/><path d="M 446 474v 28h 28v -14a 14 14, 0, 0, 0, -14 -14" transform="rotate(-90,460,488)"/><path d="M 474 474v 28h 28v -14a 14 14, 0, 0, 0, -14 -14" transform="rotate(0,488,488)"/><circle cx="628" cy="488" r="14" transform="rotate(0,628,488)"/><circle cx="684" cy="488" r="14" transform="rotate(0,684,488)"/><path d="M 726 474v 28h 14a 14 14, 0, 0, 0, 0 -28" transform="rotate(-90,740,488)"/><path d="M 922 474v 28h 14a 14 14, 0, 0, 0, 0 -28" transform="rotate(180,936,488)"/><rect x="950" y="474" width="28" height="28" transform="rotate(0,964,488)"/><path d="M 1118 474v 28h 28v -14a 14 14, 0, 0, 0, -14 -14" transform="rotate(180,1132,488)"/><path d="M 1146 474v 28h 28v -14a 14 14, 0, 0, 0, -14 -14" transform="rotate(90,1160,488)"/><path d="M 26 502v 28h 28v -14a 14 14, 0, 0, 0, -14 -14" transform="rotate(180,40,516)"/><path d="M 54 502v 28h 14a 14 14, 0, 0, 0, 0 -28" transform="rotate(0,68,516)"/><path d="M 110 502v 28h 14a 14 14, 0, 0, 0, 0 -28" transform="rotate(180,124,516)"/><path d="M 138 502v 28h 28v -14a 14 14, 0, 0, 0, -14 -14" transform="rotate(0,152,516)"/><path d="M 222 502v 28h 14a 14 14, 0, 0, 0, 0 -28" transform="rotate(180,236,516)"/><path d="M 250 502v 28h 28v -14a 14 14, 0, 0, 0, -14 -14" transform="rotate(0,264,516)"/><path d="M 306 502v 28h 28v -14a 14 14, 0, 0, 0, -14 -14" transform="rotate(180,320,516)"/><path d="M 334 502v 28h 28v -14a 14 14, 0, 0, 0, -14 -14" transform="rotate(0,348,516)"/><path d="M 418 502v 28h 14a 14 14, 0, 0, 0, 0 -28" transform="rotate(180,432,516)"/><rect x="446" y="502" width="28" height="28" transform="rotate(0,460,516)"/><rect x="474" y="502" width="28" height="28" transform="rotate(0,488,516)"/><circle cx="544" cy="516" r="14" transform="rotate(0,544,516)"/><path d="M 586 502v 28h 14a 14 14, 0, 0, 0, 0 -28" transform="rotate(-90,600,516)"/><path d="M 726 502v 28h 14a 14 14, 0, 0, 0, 0 -28" transform="rotate(90,740,516)"/><path d="M 782 502v 28h 14a 14 14, 0, 0, 0, 0 -28" transform="rotate(-90,796,516)"/><path d="M 838 502v 28h 28v -14a 14 14, 0, 0, 0, -14 -14" transform="rotate(-90,852,516)"/><rect x="866" y="502" width="28" height="28" transform="rotate(0,880,516)"/><path d="M 894 502v 28h 28v -14a 14 14, 0, 0, 0, -14 -14" transform="rotate(0,908,516)"/><rect x="950" y="502" width="28" height="28" transform="rotate(0,964,516)"/><path d="M 1034 502v 28h 14a 14 14, 0, 0, 0, 0 -28" transform="rotate(-90,1048,516)"/><path d="M 82 530v 28h 14a 14 14, 0, 0, 0, 0 -28" transform="rotate(-90,96,544)"/><rect x="138" y="530" width="28" height="28" transform="rotate(0,152,544)"/><circle cx="208" cy="544" r="14" transform="rotate(0,208,544)"/><path d="M 250 530v 28h 28v -14a 14 14, 0, 0, 0, -14 -14" transform="rotate(180,264,544)"/><path d="M 278 530v 28h 28v -14a 14 14, 0, 0, 0, -14 -14" transform="rotate(0,292,544)"/><rect x="334" y="530" width="28" height="28" transform="rotate(0,348,544)"/><path d="M 390 530v 28h 14a 14 14, 0, 0, 0, 0 -28" transform="rotate(-90,404,544)"/><path d="M 474 530v 28h 28v -14a 14 14, 0, 0, 0, -14 -14" transform="rotate(180,488,544)"/><path d="M 502 530v 28h 14a 14 14, 0, 0, 0, 0 -28" transform="rotate(0,516,544)"/><rect x="586" y="530" width="28" height="28" transform="rotate(0,600,544)"/><path d="M 614 530v 28h 14a 14 14, 0, 0, 0, 0 -28" transform="rotate(0,628,544)"/><circle cx="684" cy="544" r="14" transform="rotate(0,684,544)"/><path d="M 782 530v 28h 14a 14 14, 0, 0, 0, 0 -28" transform="rotate(90,796,544)"/><path d="M 838 530v 28h 28v -14a 14 14, 0, 0, 0, -14 -14" transform="rotate(180,852,544)"/><rect x="866" y="530" width="28" height="28" transform="rotate(0,880,544)"/><path d="M 894 530v 28h 28v -14a 14 14, 0, 0, 0, -14 -14" transform="rotate(90,908,544)"/><rect x="950" y="530" width="28" height="28" transform="rotate(0,964,544)"/><path d="M 1006 530v 28h 14a 14 14, 0, 0, 0, 0 -28" transform="rotate(180,1020,544)"/><rect x="1034" y="530" width="28" height="28" transform="rotate(0,1048,544)"/><path d="M 1146 530v 28h 14a 14 14, 0, 0, 0, 0 -28" transform="rotate(-90,1160,544)"/><path d="M 26 558v 28h 28v -14a 14 14, 0, 0, 0, -14 -14" transform="rotate(-90,40,572)"/><rect x="54" y="558" width="28" height="28" transform="rotate(0,68,572)"/><rect x="82" y="558" width="28" height="28" transform="rotate(0,96,572)"/><rect x="110" y="558" width="28" height="28" transform="rotate(0,124,572)"/><rect x="138" y="558" width="28" height="28" transform="rotate(0,152,572)"/><path d="M 166 558v 28h 28v -14a 14 14, 0, 0, 0, -14 -14" transform="rotate(0,180,572)"/><circle cx="236" cy="572" r="14" transform="rotate(0,236,572)"/><rect x="278" y="558" width="28" height="28" transform="rotate(0,292,572)"/><rect x="334" y="558" width="28" height="28" transform="rotate(0,348,572)"/><rect x="362" y="558" width="28" height="28" transform="rotate(0,376,572)"/><rect x="390" y="558" width="28" height="28" transform="rotate(0,404,572)"/><path d="M 418 558v 28h 14a 14 14, 0, 0, 0, 0 -28" transform="rotate(0,432,572)"/><path d="M 558 558v 28h 28v -14a 14 14, 0, 0, 0, -14 -14" transform="rotate(-90,572,572)"/><path d="M 586 558v 28h 28v -14a 14 14, 0, 0, 0, -14 -14" transform="rotate(90,600,572)"/><path d="M 754 558v 28h 14a 14 14, 0, 0, 0, 0 -28" transform="rotate(-90,768,572)"/><path d="M 922 558v 28h 14a 14 14, 0, 0, 0, 0 -28" transform="rotate(180,936,572)"/><path d="M 950 558v 28h 28v -14a 14 14, 0, 0, 0, -14 -14" transform="rotate(90,964,572)"/><path d="M 1034 558v 28h 14a 14 14, 0, 0, 0, 0 -28" transform="rotate(90,1048,572)"/><path d="M 1090 558v 28h 14a 14 14, 0, 0, 0, 0 -28" transform="rotate(-90,1104,572)"/><path d="M 1146 558v 28h 14a 14 14, 0, 0, 0, 0 -28" transform="rotate(90,1160,572)"/><path d="M 26 586v 28h 14a 14 14, 0, 0, 0, 0 -28" transform="rotate(90,40,600)"/><rect x="82" y="586" width="28" height="28" transform="rotate(0,96,600)"/><path d="M 138 586v 28h 28v -14a 14 14, 0, 0, 0, -14 -14" transform="rotate(180,152,600)"/><rect x="166" y="586" width="28" height="28" transform="rotate(0,180,600)"/><path d="M 194 586v 28h 14a 14 14, 0, 0, 0, 0 -28" transform="rotate(0,208,600)"/><path d="M 250 586v 28h 28v -14a 14 14, 0, 0, 0, -14 -14" transform="rotate(-90,264,600)"/><path d="M 278 586v 28h 28v -14a 14 14, 0, 0, 0, -14 -14" transform="rotate(90,292,600)"/><rect x="334" y="586" width="28" height="28" transform="rotate(0,348,600)"/><path d="M 446 586v 28h 14a 14 14, 0, 0, 0, 0 -28" transform="rotate(180,460,600)"/><path d="M 474 586v 28h 28v -14a 14 14, 0, 0, 0, -14 -14" transform="rotate(0,488,600)"/><path d="M 530 586v 28h 14a 14 14, 0, 0, 0, 0 -28" transform="rotate(180,544,600)"/><rect x="558" y="586" width="28" height="28" transform="rotate(0,572,600)"/><path d="M 614 586v 28h 14a 14 14, 0, 0, 0, 0 -28" transform="rotate(180,628,600)"/><path d="M 642 586v 28h 28v -14a 14 14, 0, 0, 0, -14 -14" transform="rotate(0,656,600)"/><path d="M 726 586v 28h 14a 14 14, 0, 0, 0, 0 -28" transform="rotate(180,740,600)"/><rect x="754" y="586" width="28" height="28" transform="rotate(0,768,600)"/><path d="M 866 586v 28h 14a 14 14, 0, 0, 0, 0 -28" transform="rotate(180,880,600)"/><path d="M 894 586v 28h 28v -14a 14 14, 0, 0, 0, -14 -14" transform="rotate(0,908,600)"/><circle cx="992" cy="600" r="14" transform="rotate(0,992,600)"/><path d="M 1090 586v 28h 14a 14 14, 0, 0, 0, 0 -28" transform="rotate(90,1104,600)"/><rect x="82" y="614" width="28" height="28" transform="rotate(0,96,628)"/><path d="M 222 614v 28h 14a 14 14, 0, 0, 0, 0 -28" transform="rotate(180,236,628)"/><path d="M 250 614v 28h 28v -14a 14 14, 0, 0, 0, -14 -14" transform="rotate(90,264,628)"/><path d="M 334 614v 28h 14a 14 14, 0, 0, 0, 0 -28" transform="rotate(90,348,628)"/><circle cx="404" cy="628" r="14" transform="rotate(0,404,628)"/><rect x="474" y="614" width="28" height="28" transform="rotate(0,488,628)"/><path d="M 558 614v 28h 28v -14a 14 14, 0, 0, 0, -14 -14" transform="rotate(180,572,628)"/><path d="M 586 614v 28h 14a 14 14, 0, 0, 0, 0 -28" transform="rotate(0,600,628)"/><rect x="642" y="614" width="28" height="28" transform="rotate(0,656,628)"/><path d="M 670 614v 28h 28v -14a 14 14, 0, 0, 0, -14 -14" transform="rotate(0,684,628)"/><path d="M 754 614v 28h 28v -14a 14 14, 0, 0, 0, -14 -14" transform="rotate(180,768,628)"/><path d="M 782 614v 28h 28v -14a 14 14, 0, 0, 0, -14 -14" transform="rotate(0,796,628)"/><path d="M 894 614v 28h 14a 14 14, 0, 0, 0, 0 -28" transform="rotate(90,908,628)"/><path d="M 1006 614v 28h 14a 14 14, 0, 0, 0, 0 -28" transform="rotate(180,1020,628)"/><rect x="1034" y="614" width="28" height="28" transform="rotate(0,1048,628)"/><path d="M 1062 614v 28h 28v -14a 14 14, 0, 0, 0, -14 -14" transform="rotate(0,1076,628)"/><rect x="82" y="642" width="28" height="28" transform="rotate(0,96,656)"/><circle cx="208" cy="656" r="14" transform="rotate(0,208,656)"/><path d="M 418 642v 28h 28v -14a 14 14, 0, 0, 0, -14 -14" transform="rotate(-90,432,656)"/><rect x="446" y="642" width="28" height="28" transform="rotate(0,460,656)"/><rect x="474" y="642" width="28" height="28" transform="rotate(0,488,656)"/><path d="M 530 642v 28h 14a 14 14, 0, 0, 0, 0 -28" transform="rotate(-90,544,656)"/><path d="M 642 642v 28h 28v -14a 14 14, 0, 0, 0, -14 -14" transform="rotate(180,656,656)"/><rect x="670" y="642" width="28" height="28" transform="rotate(0,684,656)"/><path d="M 698 642v 28h 28v -14a 14 14, 0, 0, 0, -14 -14" transform="rotate(0,712,656)"/><path d="M 782 642v 28h 28v -14a 14 14, 0, 0, 0, -14 -14" transform="rotate(180,796,656)"/><rect x="810" y="642" width="28" height="28" transform="rotate(0,824,656)"/><path d="M 838 642v 28h 28v -14a 14 14, 0, 0, 0, -14 -14" transform="rotate(0,852,656)"/><path d="M 950 642v 28h 14a 14 14, 0, 0, 0, 0 -28" transform="rotate(-90,964,656)"/><rect x="1034" y="642" width="28" height="28" transform="rotate(0,1048,656)"/><rect x="1062" y="642" width="28" height="28" transform="rotate(0,1076,656)"/><path d="M 1090 642v 28h 14a 14 14, 0, 0, 0, 0 -28" transform="rotate(0,1104,656)"/><path d="M 26 670v 28h 14a 14 14, 0, 0, 0, 0 -28" transform="rotate(180,40,684)"/><rect x="54" y="670" width="28" height="28" transform="rotate(0,68,684)"/><path d="M 82 670v 28h 28v -14a 14 14, 0, 0, 0, -14 -14" transform="rotate(90,96,684)"/><path d="M 222 670v 28h 14a 14 14, 0, 0, 0, 0 -28" transform="rotate(180,236,684)"/><rect x="250" y="670" width="28" height="28" transform="rotate(0,264,684)"/><path d="M 278 670v 28h 28v -14a 14 14, 0, 0, 0, -14 -14" transform="rotate(0,292,684)"/><path d="M 390 670v 28h 14a 14 14, 0, 0, 0, 0 -28" transform="rotate(180,404,684)"/><rect x="418" y="670" width="28" height="28" transform="rotate(0,432,684)"/><path d="M 474 670v 28h 14a 14 14, 0, 0, 0, 0 -28" transform="rotate(90,488,684)"/><path d="M 530 670v 28h 14a 14 14, 0, 0, 0, 0 -28" transform="rotate(90,544,684)"/><path d="M 586 670v 28h 14a 14 14, 0, 0, 0, 0 -28" transform="rotate(-90,600,684)"/><path d="M 698 670v 28h 14a 14 14, 0, 0, 0, 0 -28" transform="rotate(90,712,684)"/><circle cx="768" cy="684" r="14" transform="rotate(0,768,684)"/><path d="M 810 670v 28h 28v -14a 14 14, 0, 0, 0, -14 -14" transform="rotate(180,824,684)"/><path d="M 838 670v 28h 28v -14a 14 14, 0, 0, 0, -14 -14" transform="rotate(90,852,684)"/><path d="M 894 670v 28h 14a 14 14, 0, 0, 0, 0 -28" transform="rotate(-90,908,684)"/><path d="M 950 670v 28h 28v -14a 14 14, 0, 0, 0, -14 -14" transform="rotate(180,964,684)"/><path d="M 978 670v 28h 28v -14a 14 14, 0, 0, 0, -14 -14" transform="rotate(0,992,684)"/><path d="M 1034 670v 28h 28v -14a 14 14, 0, 0, 0, -14 -14" transform="rotate(180,1048,684)"/><rect x="1062" y="670" width="28" height="28" transform="rotate(0,1076,684)"/><path d="M 1146 670v 28h 14a 14 14, 0, 0, 0, 0 -28" transform="rotate(-90,1160,684)"/><rect x="54" y="698" width="28" height="28" transform="rotate(0,68,712)"/><path d="M 110 698v 28h 14a 14 14, 0, 0, 0, 0 -28" transform="rotate(180,124,712)"/><path d="M 138 698v 28h 14a 14 14, 0, 0, 0, 0 -28" transform="rotate(0,152,712)"/><circle cx="208" cy="712" r="14" transform="rotate(0,208,712)"/><rect x="278" y="698" width="28" height="28" transform="rotate(0,292,712)"/><circle cx="348" cy="712" r="14" transform="rotate(0,348,712)"/><path d="M 418 698v 28h 28v -14a 14 14, 0, 0, 0, -14 -14" transform="rotate(180,432,712)"/><path d="M 446 698v 28h 14a 14 14, 0, 0, 0, 0 -28" transform="rotate(0,460,712)"/><path d="M 502 698v 28h 14a 14 14, 0, 0, 0, 0 -28" transform="rotate(-90,516,712)"/><path d="M 586 698v 28h 14a 14 14, 0, 0, 0, 0 -28" transform="rotate(90,600,712)"/><path d="M 642 698v 28h 14a 14 14, 0, 0, 0, 0 -28" transform="rotate(180,656,712)"/><path d="M 670 698v 28h 28v -14a 14 14, 0, 0, 0, -14 -14" transform="rotate(0,684,712)"/><path d="M 782 698v 28h 14a 14 14, 0, 0, 0, 0 -28" transform="rotate(-90,796,712)"/><path d="M 894 698v 28h 28v -14a 14 14, 0, 0, 0, -14 -14" transform="rotate(180,908,712)"/><path d="M 922 698v 28h 28v -14a 14 14, 0, 0, 0, -14 -14" transform="rotate(0,936,712)"/><rect x="978" y="698" width="28" height="28" transform="rotate(0,992,712)"/><path d="M 1006 698v 28h 28v -14a 14 14, 0, 0, 0, -14 -14" transform="rotate(0,1020,712)"/><path d="M 1062 698v 28h 14a 14 14, 0, 0, 0, 0 -28" transform="rotate(90,1076,712)"/><path d="M 1118 698v 28h 14a 14 14, 0, 0, 0, 0 -28" transform="rotate(180,1132,712)"/><rect x="1146" y="698" width="28" height="28" transform="rotate(0,1160,712)"/><path d="M 54 726v 28h 14a 14 14, 0, 0, 0, 0 -28" transform="rotate(90,68,740)"/><circle cx="180" cy="740" r="14" transform="rotate(0,180,740)"/><path d="M 250 726v 28h 14a 14 14, 0, 0, 0, 0 -28" transform="rotate(180,264,740)"/><path d="M 278 726v 28h 28v -14a 14 14, 0, 0, 0, -14 -14" transform="rotate(90,292,740)"/><path d="M 362 726v 28h 14a 14 14, 0, 0, 0, 0 -28" transform="rotate(-90,376,740)"/><path d="M 474 726v 28h 14a 14 14, 0, 0, 0, 0 -28" transform="rotate(180,488,740)"/><rect x="502" y="726" width="28" height="28" transform="rotate(0,516,740)"/><path d="M 614 726v 28h 14a 14 14, 0, 0, 0, 0 -28" transform="rotate(-90,628,740)"/><path d="M 670 726v 28h 14a 14 14, 0, 0, 0, 0 -28" transform="rotate(90,684,740)"/><path d="M 754 726v 28h 28v -14a 14 14, 0, 0, 0, -14 -14" transform="rotate(-90,768,740)"/><rect x="782" y="726" width="28" height="28" transform="rotate(0,796,740)"/><path d="M 810 726v 28h 28v -14a 14 14, 0, 0, 0, -14 -14" transform="rotate(0,824,740)"/><circle cx="880" cy="740" r="14" transform="rotate(0,880,740)"/><rect x="922" y="726" width="28" height="28" transform="rotate(0,936,740)"/><rect x="950" y="726" width="28" height="28" transform="rotate(0,964,740)"/><rect x="978" y="726" width="28" height="28" transform="rotate(0,992,740)"/><rect x="1006" y="726" width="28" height="28" transform="rotate(0,1020,740)"/><path d="M 1034 726v 28h 14a 14 14, 0, 0, 0, 0 -28" transform="rotate(0,1048,740)"/><circle cx="1104" cy="740" r="14" transform="rotate(0,1104,740)"/><rect x="1146" y="726" width="28" height="28" transform="rotate(0,1160,740)"/><path d="M 26 754v 28h 14a 14 14, 0, 0, 0, 0 -28" transform="rotate(-90,40,768)"/><path d="M 110 754v 28h 14a 14 14, 0, 0, 0, 0 -28" transform="rotate(-90,124,768)"/><circle cx="208" cy="768" r="14" transform="rotate(0,208,768)"/><path d="M 334 754v 28h 14a 14 14, 0, 0, 0, 0 -28" transform="rotate(180,348,768)"/><rect x="362" y="754" width="28" height="28" transform="rotate(0,376,768)"/><path d="M 390 754v 28h 14a 14 14, 0, 0, 0, 0 -28" transform="rotate(0,404,768)"/><path d="M 502 754v 28h 14a 14 14, 0, 0, 0, 0 -28" transform="rotate(90,516,768)"/><path d="M 558 754v 28h 14a 14 14, 0, 0, 0, 0 -28" transform="rotate(180,572,768)"/><rect x="586" y="754" width="28" height="28" transform="rotate(0,600,768)"/><rect x="614" y="754" width="28" height="28" transform="rotate(0,628,768)"/><path d="M 698 754v 28h 14a 14 14, 0, 0, 0, 0 -28" transform="rotate(180,712,768)"/><rect x="726" y="754" width="28" height="28" transform="rotate(0,740,768)"/><rect x="754" y="754" width="28" height="28" transform="rotate(0,768,768)"/><rect x="782" y="754" width="28" height="28" transform="rotate(0,796,768)"/><path d="M 810 754v 28h 28v -14a 14 14, 0, 0, 0, -14 -14" transform="rotate(90,824,768)"/><path d="M 894 754v 28h 28v -14a 14 14, 0, 0, 0, -14 -14" transform="rotate(-90,908,768)"/><path d="M 922 754v 28h 28v -14a 14 14, 0, 0, 0, -14 -14" transform="rotate(90,936,768)"/><rect x="978" y="754" width="28" height="28" transform="rotate(0,992,768)"/><rect x="1006" y="754" width="28" height="28" transform="rotate(0,1020,768)"/><path d="M 1062 754v 28h 14a 14 14, 0, 0, 0, 0 -28" transform="rotate(-90,1076,768)"/><path d="M 1146 754v 28h 14a 14 14, 0, 0, 0, 0 -28" transform="rotate(90,1160,768)"/><rect x="26" y="782" width="28" height="28" transform="rotate(0,40,796)"/><path d="M 54 782v 28h 28v -14a 14 14, 0, 0, 0, -14 -14" transform="rotate(0,68,796)"/><path d="M 110 782v 28h 14a 14 14, 0, 0, 0, 0 -28" transform="rotate(90,124,796)"/><path d="M 166 782v 28h 14a 14 14, 0, 0, 0, 0 -28" transform="rotate(-90,180,796)"/><path d="M 222 782v 28h 14a 14 14, 0, 0, 0, 0 -28" transform="rotate(-90,236,796)"/><rect x="362" y="782" width="28" height="28" transform="rotate(0,376,796)"/><path d="M 418 782v 28h 14a 14 14, 0, 0, 0, 0 -28" transform="rotate(180,432,796)"/><path d="M 446 782v 28h 28v -14a 14 14, 0, 0, 0, -14 -14" transform="rotate(0,460,796)"/><path d="M 614 782v 28h 28v -14a 14 14, 0, 0, 0, -14 -14" transform="rotate(180,628,796)"/><path d="M 642 782v 28h 14a 14 14, 0, 0, 0, 0 -28" transform="rotate(0,656,796)"/><path d="M 866 782v 28h 14a 14 14, 0, 0, 0, 0 -28" transform="rotate(180,880,796)"/><rect x="894" y="782" width="28" height="28" transform="rotate(0,908,796)"/><path d="M 950 782v 28h 14a 14 14, 0, 0, 0, 0 -28" transform="rotate(180,964,796)"/><rect x="978" y="782" width="28" height="28" transform="rotate(0,992,796)"/><rect x="1006" y="782" width="28" height="28" transform="rotate(0,1020,796)"/><rect x="1062" y="782" width="28" height="28" transform="rotate(0,1076,796)"/><path d="M 1090 782v 28h 14a 14 14, 0, 0, 0, 0 -28" transform="rotate(0,1104,796)"/><rect x="26" y="810" width="28" height="28" transform="rotate(0,40,824)"/><rect x="54" y="810" width="28" height="28" transform="rotate(0,68,824)"/><path d="M 166 810v 28h 28v -14a 14 14, 0, 0, 0, -14 -14" transform="rotate(180,180,824)"/><rect x="194" y="810" width="28" height="28" transform="rotate(0,208,824)"/><rect x="222" y="810" width="28" height="28" transform="rotate(0,236,824)"/><rect x="250" y="810" width="28" height="28" transform="rotate(0,264,824)"/><path d="M 278 810v 28h 28v -14a 14 14, 0, 0, 0, -14 -14" transform="rotate(0,292,824)"/><path d="M 334 810v 28h 14a 14 14, 0, 0, 0, 0 -28" transform="rotate(180,348,824)"/><rect x="362" y="810" width="28" height="28" transform="rotate(0,376,824)"/><path d="M 390 810v 28h 28v -14a 14 14, 0, 0, 0, -14 -14" transform="rotate(0,404,824)"/><rect x="446" y="810" width="28" height="28" transform="rotate(0,460,824)"/><circle cx="516" cy="824" r="14" transform="rotate(0,516,824)"/><circle cx="572" cy="824" r="14" transform="rotate(0,572,824)"/><path d="M 698 810v 28h 14a 14 14, 0, 0, 0, 0 -28" transform="rotate(180,712,824)"/><path d="M 726 810v 28h 28v -14a 14 14, 0, 0, 0, -14 -14" transform="rotate(0,740,824)"/><path d="M 782 810v 28h 14a 14 14, 0, 0, 0, 0 -28" transform="rotate(180,796,824)"/><path d="M 810 810v 28h 28v -14a 14 14, 0, 0, 0, -14 -14" transform="rotate(0,824,824)"/><rect x="894" y="810" width="28" height="28" transform="rotate(0,908,824)"/><path d="M 922 810v 28h 28v -14a 14 14, 0, 0, 0, -14 -14" transform="rotate(0,936,824)"/><rect x="1006" y="810" width="28" height="28" transform="rotate(0,1020,824)"/><rect x="1062" y="810" width="28" height="28" transform="rotate(0,1076,824)"/><circle cx="1132" cy="824" r="14" transform="rotate(0,1132,824)"/><rect x="26" y="838" width="28" height="28" transform="rotate(0,40,852)"/><rect x="54" y="838" width="28" height="28" transform="rotate(0,68,852)"/><path d="M 82 838v 28h 14a 14 14, 0, 0, 0, 0 -28" transform="rotate(0,96,852)"/><path d="M 138 838v 28h 14a 14 14, 0, 0, 0, 0 -28" transform="rotate(-90,152,852)"/><path d="M 222 838v 28h 28v -14a 14 14, 0, 0, 0, -14 -14" transform="rotate(180,236,852)"/><rect x="250" y="838" width="28" height="28" transform="rotate(0,264,852)"/><path d="M 278 838v 28h 28v -14a 14 14, 0, 0, 0, -14 -14" transform="rotate(90,292,852)"/><rect x="362" y="838" width="28" height="28" transform="rotate(0,376,852)"/><rect x="390" y="838" width="28" height="28" transform="rotate(0,404,852)"/><rect x="446" y="838" width="28" height="28" transform="rotate(0,460,852)"/><circle cx="684" cy="852" r="14" transform="rotate(0,684,852)"/><rect x="726" y="838" width="28" height="28" transform="rotate(0,740,852)"/><path d="M 810 838v 28h 14a 14 14, 0, 0, 0, 0 -28" transform="rotate(90,824,852)"/><path d="M 866 838v 28h 28v -14a 14 14, 0, 0, 0, -14 -14" transform="rotate(-90,880,852)"/><rect x="894" y="838" width="28" height="28" transform="rotate(0,908,852)"/><rect x="922" y="838" width="28" height="28" transform="rotate(0,936,852)"/><path d="M 950 838v 28h 28v -14a 14 14, 0, 0, 0, -14 -14" transform="rotate(0,964,852)"/><path d="M 1006 838v 28h 28v -14a 14 14, 0, 0, 0, -14 -14" transform="rotate(180,1020,852)"/><rect x="1034" y="838" width="28" height="28" transform="rotate(0,1048,852)"/><rect x="1062" y="838" width="28" height="28" transform="rotate(0,1076,852)"/><path d="M 1090 838v 28h 14a 14 14, 0, 0, 0, 0 -28" transform="rotate(0,1104,852)"/><rect x="26" y="866" width="28" height="28" transform="rotate(0,40,880)"/><rect x="54" y="866" width="28" height="28" transform="rotate(0,68,880)"/><rect x="138" y="866" width="28" height="28" transform="rotate(0,152,880)"/><circle cx="208" cy="880" r="14" transform="rotate(0,208,880)"/><circle cx="320" cy="880" r="14" transform="rotate(0,320,880)"/><rect x="362" y="866" width="28" height="28" transform="rotate(0,376,880)"/><rect x="390" y="866" width="28" height="28" transform="rotate(0,404,880)"/><rect x="418" y="866" width="28" height="28" transform="rotate(0,432,880)"/><rect x="446" y="866" width="28" height="28" transform="rotate(0,460,880)"/><circle cx="572" cy="880" r="14" transform="rotate(0,572,880)"/><circle cx="656" cy="880" r="14" transform="rotate(0,656,880)"/><path d="M 698 866v 28h 14a 14 14, 0, 0, 0, 0 -28" transform="rotate(180,712,880)"/><rect x="726" y="866" width="28" height="28" transform="rotate(0,740,880)"/><rect x="754" y="866" width="28" height="28" transform="rotate(0,768,880)"/><path d="M 782 866v 28h 14a 14 14, 0, 0, 0, 0 -28" transform="rotate(0,796,880)"/><path d="M 838 866v 28h 14a 14 14, 0, 0, 0, 0 -28" transform="rotate(180,852,880)"/><rect x="866" y="866" width="28" height="28" transform="rotate(0,880,880)"/><rect x="894" y="866" width="28" height="28" transform="rotate(0,908,880)"/><rect x="922" y="866" width="28" height="28" transform="rotate(0,936,880)"/><path d="M 950 866v 28h 28v -14a 14 14, 0, 0, 0, -14 -14" transform="rotate(90,964,880)"/><path d="M 1034 866v 28h 14a 14 14, 0, 0, 0, 0 -28" transform="rotate(90,1048,880)"/><circle cx="1160" cy="880" r="14" transform="rotate(0,1160,880)"/><rect x="26" y="894" width="28" height="28" transform="rotate(0,40,908)"/><rect x="54" y="894" width="28" height="28" transform="rotate(0,68,908)"/><rect x="138" y="894" width="28" height="28" transform="rotate(0,152,908)"/><path d="M 222 894v 28h 14a 14 14, 0, 0, 0, 0 -28" transform="rotate(180,236,908)"/><path d="M 250 894v 28h 14a 14 14, 0, 0, 0, 0 -28" transform="rotate(0,264,908)"/><rect x="362" y="894" width="28" height="28" transform="rotate(0,376,908)"/><rect x="390" y="894" width="28" height="28" transform="rotate(0,404,908)"/><path d="M 446 894v 28h 28v -14a 14 14, 0, 0, 0, -14 -14" transform="rotate(180,460,908)"/><rect x="474" y="894" width="28" height="28" transform="rotate(0,488,908)"/><path d="M 502 894v 28h 28v -14a 14 14, 0, 0, 0, -14 -14" transform="rotate(0,516,908)"/><path d="M 670 894v 28h 14a 14 14, 0, 0, 0, 0 -28" transform="rotate(-90,684,908)"/><path d="M 726 894v 28h 14a 14 14, 0, 0, 0, 0 -28" transform="rotate(90,740,908)"/><path d="M 894 894v 28h 28v -14a 14 14, 0, 0, 0, -14 -14" transform="rotate(180,908,908)"/><rect x="922" y="894" width="28" height="28" transform="rotate(0,936,908)"/><path d="M 978 894v 28h 28v -14a 14 14, 0, 0, 0, -14 -14" transform="rotate(-90,992,908)"/><path d="M 1006 894v 28h 28v -14a 14 14, 0, 0, 0, -14 -14" transform="rotate(0,1020,908)"/><path d="M 1090 894v 28h 14a 14 14, 0, 0, 0, 0 -28" transform="rotate(-90,1104,908)"/><path d="M 26 922v 28h 28v -14a 14 14, 0, 0, 0, -14 -14" transform="rotate(180,40,936)"/><rect x="54" y="922" width="28" height="28" transform="rotate(0,68,936)"/><path d="M 82 922v 28h 14a 14 14, 0, 0, 0, 0 -28" transform="rotate(0,96,936)"/><path d="M 138 922v 28h 28v -14a 14 14, 0, 0, 0, -14 -14" transform="rotate(180,152,936)"/><rect x="166" y="922" width="28" height="28" transform="rotate(0,180,936)"/><path d="M 194 922v 28h 14a 14 14, 0, 0, 0, 0 -28" transform="rotate(0,208,936)"/><path d="M 278 922v 28h 14a 14 14, 0, 0, 0, 0 -28" transform="rotate(-90,292,936)"/><path d="M 334 922v 28h 14a 14 14, 0, 0, 0, 0 -28" transform="rotate(180,348,936)"/><rect x="362" y="922" width="28" height="28" transform="rotate(0,376,936)"/><rect x="390" y="922" width="28" height="28" transform="rotate(0,404,936)"/><path d="M 418 922v 28h 28v -14a 14 14, 0, 0, 0, -14 -14" transform="rotate(0,432,936)"/><rect x="502" y="922" width="28" height="28" transform="rotate(0,516,936)"/><rect x="530" y="922" width="28" height="28" transform="rotate(0,544,936)"/><rect x="558" y="922" width="28" height="28" transform="rotate(0,572,936)"/><path d="M 586 922v 28h 14a 14 14, 0, 0, 0, 0 -28" transform="rotate(0,600,936)"/><rect x="670" y="922" width="28" height="28" transform="rotate(0,684,936)"/><path d="M 754 922v 28h 28v -14a 14 14, 0, 0, 0, -14 -14" transform="rotate(-90,768,936)"/><path d="M 782 922v 28h 28v -14a 14 14, 0, 0, 0, -14 -14" transform="rotate(0,796,936)"/><path d="M 838 922v 28h 14a 14 14, 0, 0, 0, 0 -28" transform="rotate(-90,852,936)"/><rect x="922" y="922" width="28" height="28" transform="rotate(0,936,936)"/><rect x="950" y="922" width="28" height="28" transform="rotate(0,964,936)"/><rect x="978" y="922" width="28" height="28" transform="rotate(0,992,936)"/><rect x="1006" y="922" width="28" height="28" transform="rotate(0,1020,936)"/><rect x="1034" y="922" width="28" height="28" transform="rotate(0,1048,936)"/><rect x="1062" y="922" width="28" height="28" transform="rotate(0,1076,936)"/><rect x="1090" y="922" width="28" height="28" transform="rotate(0,1104,936)"/><circle cx="1160" cy="936" r="14" transform="rotate(0,1160,936)"/><path d="M 250 950v 28h 14a 14 14, 0, 0, 0, 0 -28" transform="rotate(180,264,964)"/><rect x="278" y="950" width="28" height="28" transform="rotate(0,292,964)"/><path d="M 362 950v 28h 14a 14 14, 0, 0, 0, 0 -28" transform="rotate(90,376,964)"/><path d="M 418 950v 28h 14a 14 14, 0, 0, 0, 0 -28" transform="rotate(90,432,964)"/><path d="M 474 950v 28h 28v -14a 14 14, 0, 0, 0, -14 -14" transform="rotate(-90,488,964)"/><rect x="502" y="950" width="28" height="28" transform="rotate(0,516,964)"/><rect x="670" y="950" width="28" height="28" transform="rotate(0,684,964)"/><rect x="754" y="950" width="28" height="28" transform="rotate(0,768,964)"/><rect x="782" y="950" width="28" height="28" transform="rotate(0,796,964)"/><path d="M 838 950v 28h 28v -14a 14 14, 0, 0, 0, -14 -14" transform="rotate(180,852,964)"/><rect x="866" y="950" width="28" height="28" transform="rotate(0,880,964)"/><rect x="894" y="950" width="28" height="28" transform="rotate(0,908,964)"/><rect x="922" y="950" width="28" height="28" transform="rotate(0,936,964)"/><rect x="1034" y="950" width="28" height="28" transform="rotate(0,1048,964)"/><rect x="1062" y="950" width="28" height="28" transform="rotate(0,1076,964)"/><rect x="1090" y="950" width="28" height="28" transform="rotate(0,1104,964)"/><path d="M 278 978v 28h 14a 14 14, 0, 0, 0, 0 -28" transform="rotate(90,292,992)"/><circle cx="404" cy="992" r="14" transform="rotate(0,404,992)"/><path d="M 474 978v 28h 28v -14a 14 14, 0, 0, 0, -14 -14" transform="rotate(180,488,992)"/><rect x="502" y="978" width="28" height="28" transform="rotate(0,516,992)"/><rect x="530" y="978" width="28" height="28" transform="rotate(0,544,992)"/><rect x="558" y="978" width="28" height="28" transform="rotate(0,572,992)"/><path d="M 586 978v 28h 28v -14a 14 14, 0, 0, 0, -14 -14" transform="rotate(0,600,992)"/><path d="M 642 978v 28h 28v -14a 14 14, 0, 0, 0, -14 -14" transform="rotate(-90,656,992)"/><path d="M 670 978v 28h 28v -14a 14 14, 0, 0, 0, -14 -14" transform="rotate(90,684,992)"/><rect x="754" y="978" width="28" height="28" transform="rotate(0,768,992)"/><rect x="782" y="978" width="28" height="28" transform="rotate(0,796,992)"/><rect x="894" y="978" width="28" height="28" transform="rotate(0,908,992)"/><rect x="922" y="978" width="28" height="28" transform="rotate(0,936,992)"/><circle cx="992" cy="992" r="14" transform="rotate(0,992,992)"/><rect x="1034" y="978" width="28" height="28" transform="rotate(0,1048,992)"/><path d="M 1090 978v 28h 28v -14a 14 14, 0, 0, 0, -14 -14" transform="rotate(180,1104,992)"/><path d="M 1118 978v 28h 28v -14a 14 14, 0, 0, 0, -14 -14" transform="rotate(0,1132,992)"/><path d="M 250 1006v 28h 14a 14 14, 0, 0, 0, 0 -28" transform="rotate(-90,264,1020)"/><path d="M 306 1006v 28h 14a 14 14, 0, 0, 0, 0 -28" transform="rotate(180,320,1020)"/><rect x="334" y="1006" width="28" height="28" transform="rotate(0,348,1020)"/><path d="M 362 1006v 28h 28v -14a 14 14, 0, 0, 0, -14 -14" transform="rotate(0,376,1020)"/><path d="M 446 1006v 28h 14a 14 14, 0, 0, 0, 0 -28" transform="rotate(-90,460,1020)"/><rect x="502" y="1006" width="28" height="28" transform="rotate(0,516,1020)"/><rect x="530" y="1006" width="28" height="28" transform="rotate(0,544,1020)"/><rect x="558" y="1006" width="28" height="28" transform="rotate(0,572,1020)"/><rect x="586" y="1006" width="28" height="28" transform="rotate(0,600,1020)"/><rect x="642" y="1006" width="28" height="28" transform="rotate(0,656,1020)"/><rect x="754" y="1006" width="28" height="28" transform="rotate(0,768,1020)"/><path d="M 782 1006v 28h 28v -14a 14 14, 0, 0, 0, -14 -14" transform="rotate(90,796,1020)"/><path d="M 866 1006v 28h 14a 14 14, 0, 0, 0, 0 -28" transform="rotate(180,880,1020)"/><rect x="894" y="1006" width="28" height="28" transform="rotate(0,908,1020)"/><rect x="922" y="1006" width="28" height="28" transform="rotate(0,936,1020)"/><rect x="1034" y="1006" width="28" height="28" transform="rotate(0,1048,1020)"/><path d="M 1062 1006v 28h 28v -14a 14 14, 0, 0, 0, -14 -14" transform="rotate(0,1076,1020)"/><rect x="1118" y="1006" width="28" height="28" transform="rotate(0,1132,1020)"/><path d="M 1146 1006v 28h 14a 14 14, 0, 0, 0, 0 -28" transform="rotate(0,1160,1020)"/><rect x="250" y="1034" width="28" height="28" transform="rotate(0,264,1048)"/><rect x="362" y="1034" width="28" height="28" transform="rotate(0,376,1048)"/><path d="M 418 1034v 28h 28v -14a 14 14, 0, 0, 0, -14 -14" transform="rotate(-90,432,1048)"/><rect x="446" y="1034" width="28" height="28" transform="rotate(0,460,1048)"/><path d="M 502 1034v 28h 14a 14 14, 0, 0, 0, 0 -28" transform="rotate(90,516,1048)"/><rect x="558" y="1034" width="28" height="28" transform="rotate(0,572,1048)"/><rect x="586" y="1034" width="28" height="28" transform="rotate(0,600,1048)"/><rect x="614" y="1034" width="28" height="28" transform="rotate(0,628,1048)"/><rect x="642" y="1034" width="28" height="28" transform="rotate(0,656,1048)"/><path d="M 670 1034v 28h 28v -14a 14 14, 0, 0, 0, -14 -14" transform="rotate(0,684,1048)"/><path d="M 726 1034v 28h 28v -14a 14 14, 0, 0, 0, -14 -14" transform="rotate(-90,740,1048)"/><path d="M 754 1034v 28h 28v -14a 14 14, 0, 0, 0, -14 -14" transform="rotate(90,768,1048)"/><path d="M 810 1034v 28h 28v -14a 14 14, 0, 0, 0, -14 -14" transform="rotate(-90,824,1048)"/><path d="M 838 1034v 28h 28v -14a 14 14, 0, 0, 0, -14 -14" transform="rotate(0,852,1048)"/><rect x="894" y="1034" width="28" height="28" transform="rotate(0,908,1048)"/><rect x="922" y="1034" width="28" height="28" transform="rotate(0,936,1048)"/><rect x="950" y="1034" width="28" height="28" transform="rotate(0,964,1048)"/><rect x="978" y="1034" width="28" height="28" transform="rotate(0,992,1048)"/><rect x="1006" y="1034" width="28" height="28" transform="rotate(0,1020,1048)"/><rect x="1034" y="1034" width="28" height="28" transform="rotate(0,1048,1048)"/><path d="M 1062 1034v 28h 28v -14a 14 14, 0, 0, 0, -14 -14" transform="rotate(90,1076,1048)"/><path d="M 1118 1034v 28h 14a 14 14, 0, 0, 0, 0 -28" transform="rotate(90,1132,1048)"/><path d="M 250 1062v 28h 28v -14a 14 14, 0, 0, 0, -14 -14" transform="rotate(180,264,1076)"/><path d="M 278 1062v 28h 28v -14a 14 14, 0, 0, 0, -14 -14" transform="rotate(0,292,1076)"/><path d="M 362 1062v 28h 28v -14a 14 14, 0, 0, 0, -14 -14" transform="rotate(180,376,1076)"/><rect x="390" y="1062" width="28" height="28" transform="rotate(0,404,1076)"/><rect x="418" y="1062" width="28" height="28" transform="rotate(0,432,1076)"/><rect x="446" y="1062" width="28" height="28" transform="rotate(0,460,1076)"/><path d="M 474 1062v 28h 28v -14a 14 14, 0, 0, 0, -14 -14" transform="rotate(0,488,1076)"/><rect x="558" y="1062" width="28" height="28" transform="rotate(0,572,1076)"/><path d="M 614 1062v 28h 28v -14a 14 14, 0, 0, 0, -14 -14" transform="rotate(180,628,1076)"/><rect x="642" y="1062" width="28" height="28" transform="rotate(0,656,1076)"/><path d="M 670 1062v 28h 28v -14a 14 14, 0, 0, 0, -14 -14" transform="rotate(90,684,1076)"/><path d="M 726 1062v 28h 14a 14 14, 0, 0, 0, 0 -28" transform="rotate(90,740,1076)"/><path d="M 782 1062v 28h 28v -14a 14 14, 0, 0, 0, -14 -14" transform="rotate(-90,796,1076)"/><rect x="810" y="1062" width="28" height="28" transform="rotate(0,824,1076)"/><rect x="838" y="1062" width="28" height="28" transform="rotate(0,852,1076)"/><rect x="866" y="1062" width="28" height="28" transform="rotate(0,880,1076)"/><rect x="894" y="1062" width="28" height="28" transform="rotate(0,908,1076)"/><path d="M 922 1062v 28h 28v -14a 14 14, 0, 0, 0, -14 -14" transform="rotate(90,936,1076)"/><rect x="1006" y="1062" width="28" height="28" transform="rotate(0,1020,1076)"/><circle cx="1104" cy="1076" r="14" transform="rotate(0,1104,1076)"/><rect x="278" y="1090" width="28" height="28" transform="rotate(0,292,1104)"/><rect x="306" y="1090" width="28" height="28" transform="rotate(0,320,1104)"/><path d="M 334 1090v 28h 28v -14a 14 14, 0, 0, 0, -14 -14" transform="rotate(0,348,1104)"/><rect x="390" y="1090" width="28" height="28" transform="rotate(0,404,1104)"/><rect x="418" y="1090" width="28" height="28" transform="rotate(0,432,1104)"/><rect x="446" y="1090" width="28" height="28" transform="rotate(0,460,1104)"/><path d="M 474 1090v 28h 28v -14a 14 14, 0, 0, 0, -14 -14" transform="rotate(90,488,1104)"/><path d="M 530 1090v 28h 28v -14a 14 14, 0, 0, 0, -14 -14" transform="rotate(-90,544,1104)"/><rect x="558" y="1090" width="28" height="28" transform="rotate(0,572,1104)"/><path d="M 586 1090v 28h 28v -14a 14 14, 0, 0, 0, -14 -14" transform="rotate(0,600,1104)"/><path d="M 754 1090v 28h 28v -14a 14 14, 0, 0, 0, -14 -14" transform="rotate(-90,768,1104)"/><rect x="782" y="1090" width="28" height="28" transform="rotate(0,796,1104)"/><path d="M 950 1090v 28h 14a 14 14, 0, 0, 0, 0 -28" transform="rotate(-90,964,1104)"/><path d="M 1006 1090v 28h 28v -14a 14 14, 0, 0, 0, -14 -14" transform="rotate(180,1020,1104)"/><rect x="1034" y="1090" width="28" height="28" transform="rotate(0,1048,1104)"/><path d="M 1062 1090v 28h 28v -14a 14 14, 0, 0, 0, -14 -14" transform="rotate(0,1076,1104)"/><path d="M 1146 1090v 28h 14a 14 14, 0, 0, 0, 0 -28" transform="rotate(-90,1160,1104)"/><path d="M 250 1118v 28h 14a 14 14, 0, 0, 0, 0 -28" transform="rotate(180,264,1132)"/><rect x="278" y="1118" width="28" height="28" transform="rotate(0,292,1132)"/><rect x="306" y="1118" width="28" height="28" transform="rotate(0,320,1132)"/><rect x="334" y="1118" width="28" height="28" transform="rotate(0,348,1132)"/><path d="M 390 1118v 28h 14a 14 14, 0, 0, 0, 0 -28" transform="rotate(90,404,1132)"/><path d="M 502 1118v 28h 28v -14a 14 14, 0, 0, 0, -14 -14" transform="rotate(-90,516,1132)"/><rect x="530" y="1118" width="28" height="28" transform="rotate(0,544,1132)"/><rect x="586" y="1118" width="28" height="28" transform="rotate(0,600,1132)"/><rect x="614" y="1118" width="28" height="28" transform="rotate(0,628,1132)"/><path d="M 642 1118v 28h 28v -14a 14 14, 0, 0, 0, -14 -14" transform="rotate(0,656,1132)"/><path d="M 698 1118v 28h 14a 14 14, 0, 0, 0, 0 -28" transform="rotate(-90,712,1132)"/><path d="M 754 1118v 28h 28v -14a 14 14, 0, 0, 0, -14 -14" transform="rotate(180,768,1132)"/><rect x="782" y="1118" width="28" height="28" transform="rotate(0,796,1132)"/><path d="M 810 1118v 28h 28v -14a 14 14, 0, 0, 0, -14 -14" transform="rotate(0,824,1132)"/><path d="M 866 1118v 28h 14a 14 14, 0, 0, 0, 0 -28" transform="rotate(180,880,1132)"/><path d="M 894 1118v 28h 28v -14a 14 14, 0, 0, 0, -14 -14" transform="rotate(0,908,1132)"/><rect x="950" y="1118" width="28" height="28" transform="rotate(0,964,1132)"/><rect x="1034" y="1118" width="28" height="28" transform="rotate(0,1048,1132)"/><rect x="1062" y="1118" width="28" height="28" transform="rotate(0,1076,1132)"/><path d="M 1090 1118v 28h 14a 14 14, 0, 0, 0, 0 -28" transform="rotate(0,1104,1132)"/><path d="M 1146 1118v 28h 14a 14 14, 0, 0, 0, 0 -28" transform="rotate(90,1160,1132)"/><path d="M 334 1146v 28h 14a 14 14, 0, 0, 0, 0 -28" transform="rotate(90,348,1160)"/><circle cx="432" cy="1160" r="14" transform="rotate(0,432,1160)"/><path d="M 502 1146v 28h 28v -14a 14 14, 0, 0, 0, -14 -14" transform="rotate(180,516,1160)"/><path d="M 530 1146v 28h 28v -14a 14 14, 0, 0, 0, -14 -14" transform="rotate(90,544,1160)"/><path d="M 586 1146v 28h 14a 14 14, 0, 0, 0, 0 -28" transform="rotate(90,600,1160)"/><path d="M 642 1146v 28h 28v -14a 14 14, 0, 0, 0, -14 -14" transform="rotate(180,656,1160)"/><rect x="670" y="1146" width="28" height="28" transform="rotate(0,684,1160)"/><rect x="698" y="1146" width="28" height="28" transform="rotate(0,712,1160)"/><path d="M 726 1146v 28h 14a 14 14, 0, 0, 0, 0 -28" transform="rotate(0,740,1160)"/><path d="M 782 1146v 28h 28v -14a 14 14, 0, 0, 0, -14 -14" transform="rotate(180,796,1160)"/><path d="M 810 1146v 28h 28v -14a 14 14, 0, 0, 0, -14 -14" transform="rotate(90,824,1160)"/><path d="M 894 1146v 28h 28v -14a 14 14, 0, 0, 0, -14 -14" transform="rotate(180,908,1160)"/><rect x="922" y="1146" width="28" height="28" transform="rotate(0,936,1160)"/><rect x="950" y="1146" width="28" height="28" transform="rotate(0,964,1160)"/><path d="M 978 1146v 28h 14a 14 14, 0, 0, 0, 0 -28" transform="rotate(0,992,1160)"/><path d="M 1034 1146v 28h 14a 14 14, 0, 0, 0, 0 -28" transform="rotate(90,1048,1160)"/></clipPath><clipPath id="clip-path-corners-square-color-0-0-43"><path clip-rule="evenodd" d="M 26 96v 56a 70 70, 0, 0, 0, 70 70h 56a 70 70, 0, 0, 0, 70 -70v -56a 70 70, 0, 0, 0, -70 -70h -56a 70 70, 0, 0, 0, -70 70M 96 54h 56a 42 42, 0, 0, 1, 42 42v 56a 42 42, 0, 0, 1, -42 42h -56a 42 42, 0, 0, 1, -42 -42v -56a 42 42, 0, 0, 1, 42 -42" transform="rotate(0,124,124)"/></clipPath><clipPath id="clip-path-corners-dot-color-0-0-43"><circle cx="124" cy="124" r="42" transform="rotate(0,124,124)"/></clipPath><clipPath id="clip-path-corners-square-color-1-0-43"><path clip-rule="evenodd" d="M 978 96v 56a 70 70, 0, 0, 0, 70 70h 56a 70 70, 0, 0, 0, 70 -70v -56a 70 70, 0, 0, 0, -70 -70h -56a 70 70, 0, 0, 0, -70 70M 1048 54h 56a 42 42, 0, 0, 1, 42 42v 56a 42 42, 0, 0, 1, -42 42h -56a 42 42, 0, 0, 1, -42 -42v -56a 42 42, 0, 0, 1, 42 -42" transform="rotate(90,1076,124)"/></clipPath><clipPath id="clip-path-corners-dot-color-1-0-43"><circle cx="1076" cy="124" r="42" transform="rotate(90,1076,124)"/></clipPath><clipPath id="clip-path-corners-square-color-0-1-43"><path clip-rule="evenodd" d="M 26 1048v 56a 70 70, 0, 0, 0, 70 70h 56a 70 70, 0, 0, 0, 70 -70v -56a 70 70, 0, 0, 0, -70 -70h -56a 70 70, 0, 0, 0, -70 70M 96 1006h 56a 42 42, 0, 0, 1, 42 42v 56a 42 42, 0, 0, 1, -42 42h -56a 42 42, 0, 0, 1, -42 -42v -56a 42 42, 0, 0, 1, 42 -42" transform="rotate(-90,124,1076)"/></clipPath><clipPath id="clip-path-corners-dot-color-0-1-43"><circle cx="124" cy="1076" r="42" transform="rotate(-90,124,1076)"/></clipPath></defs><rect x="0" y="0" height="1200" width="1200" clip-path="url('#clip-path-background-color-43')" fill="#ffffff"/><rect x="0" y="0" height="1200" width="1200" clip-path="url('#clip-path-dot-color-43')" fill="#000000"/><rect x="26" y="26" height="196" width="196" clip-path="url('#clip-path-corners-square-color-0-0-43')" fill="#000000"/><rect x="82" y="82" height="84" width="84" clip-path="url('#clip-path-corners-dot-color-0-0-43')" fill="#000000"/><rect x="978" y="26" height="196" width="196" clip-path="url('#clip-path-corners-square-color-1-0-43')" fill="#000000"/><rect x="1034" y="82" height="84" width="84" clip-path="url('#clip-path-corners-dot-color-1-0-43')" fill="#000000"/><rect x="26" y="978" height="196" width="196" clip-path="url('#clip-path-corners-square-color-0-1-43')" fill="#000000"/><rect x="82" y="1034" height="84" width="84" clip-path="url('#clip-path-corners-dot-color-0-1-43')" fill="#000000"/></svg>