<?xml version="1.0" standalone="no"?>
<svg xmlns="http://www.w3.org/2000/svg" width="1200" height="1200" xmlns:xlink="http://www.w3.org/1999/xlink" viewBox="0 0 1200 1200"><defs><clipPath id="clip-path-background-color-37"><rect x="0" y="0" width="1200" height="1200"/></clipPath><clipPath id="clip-path-dot-color-37"><circle cx="264" cy="40" r="14" transform="rotate(0,264,40)"/><path d="M 334 26v 28h 28v -14a 14 14, 0, 0, 0, -14 -14" transform="rotate(-90,348,40)"/><rect x="362" y="26" width="28" height="28" transform="rotate(0,376,40)"/><path d="M 390 26v 28h 14a 14 14, 0, 0, 0, 0 -28" transform="rotate(0,404,40)"/><path d="M 502 26v 28h 14a 14 14, 0, 0, 0, 0 -28" transform="rotate(-90,516,40)"/><path d="M 558 26v 28h 14a 14 14, 0, 0, 0, 0 -28" transform="rotate(-90,572,40)"/><circle cx="656" cy="40" r="14" transform="rotate(0,656,40)"/><path d="M 698 26v 28h 14a 14 14, 0, 0, 0, 0 -28" transform="rotate(180,712,40)"/><path d="M 726 26v 28h 28v -14a 14 14, 0, 0, 0, -14 -14" transform="rotate(0,740,40)"/><circle cx="824" cy="40" r="14" transform="rotate(0,824,40)"/><path d="M 894 26v 28h 14a 14 14, 0, 0, 0, 0 -28" transform="rotate(180,908,40)"/><path d="M 922 26v 28h 28v -14a 14 14, 0, 0, 0, -14 -14" transform="rotate(0,936,40)"/><path d="M 278 54v 28h 28v -14a 14 14, 0, 0, 0, -14 -14" transform="rotate(-90,292,68)"/><rect x="306" y="54" width="28" height="28" transform="rotate(0,320,68)"/><path d="M 334 54v 28h 28v -14a 14 14, 0, 0, 0, -14 -14" transform="rotate(90,348,68)"/><path d="M 418 54v 28h 28v -14a 14 14, 0, 0, 0, -14 -14" transform="rotate(-90,432,68)"/><rect x="446" y="54" width="28" height="28" transform="rotate(0,460,68)"/><rect x="474" y="54" width="28" height="28" transform="rotate(0,488,68)"/><path d="M 502 54v 28h 28v -14a 14 14, 0, 0, 0, -14 -14" transform="rotate(90,516,68)"/><rect x="558" y="54" width="28" height="28" transform="rotate(0,572,68)"/><path d="M 586 54v 28h 14a 14 14, 0, 0, 0, 0 -28" transform="rotate(0,600,68)"/><rect x="726" y="54" width="28" height="28" transform="rotate(0,740,68)"/><rect x="754" y="54" width="28" height="28" transform="rotate(0,768,68)"/><path d="M 782 54v 28h 28v -14a 14 14, 0, 0, 0, -14 -14" transform="rotate(0,796,68)"/><circle cx="880" cy="68" r="14" transform="rotate(0,880,68)"/><rect x="922" y="54" width="28" height="28" transform="rotate(0,936,68)"/><rect x="278" y="82" width="28" height="28" transform="rotate(0,292,96)"/><path d="M 306 82v 28h 28v -14a 14 14, 0, 0, 0, -14 -14" transform="rotate(90,320,96)"/><path d="M 390 82v 28h 14a 14 14, 0, 0, 0, 0 -28" transform="rotate(180,404,96)"/><path d="M 418 82v 28h 28v -14a 14 14, 0, 0, 0, -14 -14" transform="rotate(90,432,96)"/><rect x="558" y="82" width="28" height="28" transform="rotate(0,572,96)"/><circle cx="628" cy="96" r="14" transform="rotate(0,628,96)"/><path d="M 726 82v 28h 14a 14 14, 0, 0, 0, 0 -28" transform="rotate(90,740,96)"/><path d="M 782 82v 28h 28v -14a 14 14, 0, 0, 0, -14 -14" transform="rotate(180,796,96)"/><path d="M 810 82v 28h 14a 14 14, 0, 0, 0, 0 -28" transform="rotate(0,824,96)"/><rect x="922" y="82" width="28" height="28" transform="rotate(0,936,96)"/><rect x="278" y="110" width="28" height="28" transform="rotate(0,292,124)"/><path d="M 334 110v 28h 14a 14 14, 0, 0, 0, 0 -28" transform="rotate(-90,348,124)"/><rect x="558" y="110" width="28" height="28" transform="rotate(0,572,124)"/><path d="M 586 110v 28h 28v -14a 14 14, 0, 0, 0, -14 -14" transform="rotate(0,600,124)"/><path d="M 642 110v 28h 28v -14a 14 14, 0, 0, 0, -14 -14" transform="rotate(-90,656,124)"/><rect x="670" y="110" width="28" height="28" transform="rotate(0,684,124)"/><path d="M 698 110v 28h 28v -14a 14 14, 0, 0, 0, -14 -14" transform="rotate(0,712,124)"/><circle cx="768" cy="124" r="14" transform="rotate(0,768,124)"/><path d="M 866 110v 28h 14a 14 14, 0, 0, 0, 0 -28" transform="rotate(180,880,124)"/><rect x="894" y="110" width="28" height="28" transform="rotate(0,908,124)"/><rect x="922" y="110" width="28" height="28" transform="rotate(0,936,124)"/><path d="M 250 138v 28h 28v -14a 14 14, 0, 0, 0, -14 -14" transform="rotate(-90,264,152)"/><rect x="278" y="138" width="28" height="28" transform="rotate(0,292,152)"/><rect x="334" y="138" width="28" height="28" transform="rotate(0,348,152)"/><path d="M 362 138v 28h 14a 14 14, 0, 0, 0, 0 -28" transform="rotate(0,376,152)"/><path d="M 446 138v 28h 28v -14a 14 14, 0, 0, 0, -14 -14" transform="rotate(-90,460,152)"/><rect x="474" y="138" width="28" height="28" transform="rotate(0,488,152)"/><rect x="502" y="138" width="28" height="28" transform="rotate(0,516,152)"/><rect x="530" y="138" width="28" height="28" transform="rotate(0,544,152)"/><rect x="558" y="138" width="28" height="28" transform="rotate(0,572,152)"/><rect x="586" y="138" width="28" height="28" transform="rotate(0,600,152)"/><path d="M 642 138v 28h 14a 14 14, 0, 0, 0, 0 -28" transform="rotate(90,656,152)"/><path d="M 698 138v 28h 14a 14 14, 0, 0, 0, 0 -28" transform="rotate(90,712,152)"/><circle cx="824" cy="152" r="14" transform="rotate(0,824,152)"/><path d="M 894 138v 28h 28v -14a 14 14, 0, 0, 0, -14 -14" transform="rotate(180,908,152)"/><rect x="922" y="138" width="28" height="28" transform="rotate(0,936,152)"/><rect x="250" y="166" width="28" height="28" transform="rotate(0,264,180)"/><rect x="278" y="166" width="28" height="28" transform="rotate(0,292,180)"/><rect x="306" y="166" width="28" height="28" transform="rotate(0,320,180)"/><path d="M 334 166v 28h 28v -14a 14 14, 0, 0, 0, -14 -14" transform="rotate(90,348,180)"/><path d="M 418 166v 28h 28v -14a 14 14, 0, 0, 0, -14 -14" transform="rotate(-90,432,180)"/><path d="M 446 166v 28h 28v -14a 14 14, 0, 0, 0, -14 -14" transform="rotate(90,460,180)"/><rect x="586" y="166" width="28" height="28" transform="rotate(0,600,180)"/><circle cx="740" cy="180" r="14" transform="rotate(0,740,180)"/><circle cx="796" cy="180" r="14" transform="rotate(0,796,180)"/><path d="M 838 166v 28h 14a 14 14, 0, 0, 0, 0 -28" transform="rotate(180,852,180)"/><path d="M 866 166v 28h 28v -14a 14 14, 0, 0, 0, -14 -14" transform="rotate(0,880,180)"/><rect x="922" y="166" width="28" height="28" transform="rotate(0,936,180)"/><path d="M 250 194v 28h 14a 14 14, 0, 0, 0, 0 -28" transform="rotate(90,264,208)"/><path d="M 306 194v 28h 14a 14 14, 0, 0, 0, 0 -28" transform="rotate(90,320,208)"/><path d="M 362 194v 28h 14a 14 14, 0, 0, 0, 0 -28" transform="rotate(-90,376,208)"/><path d="M 418 194v 28h 14a 14 14, 0, 0, 0, 0 -28" transform="rotate(90,432,208)"/><path d="M 474 194v 28h 14a 14 14, 0, 0, 0, 0 -28" transform="rotate(-90,488,208)"/><circle cx="544" cy="208" r="14" transform="rotate(0,544,208)"/><rect x="586" y="194" width="28" height="28" transform="rotate(0,600,208)"/><circle cx="656" cy="208" r="14" transform="rotate(0,656,208)"/><path d="M 698 194v 28h 14a 14 14, 0, 0, 0, 0 -28" transform="rotate(-90,712,208)"/><circle cx="768" cy="208" r="14" transform="rotate(0,768,208)"/><circle cx="824" cy="208" r="14" transform="rotate(0,824,208)"/><path d="M 866 194v 28h 14a 14 14, 0, 0, 0, 0 -28" transform="rotate(90,880,208)"/><rect x="922" y="194" width="28" height="28" transform="rotate(0,936,208)"/><rect x="362" y="222" width="28" height="28" transform="rotate(0,376,236)"/><path d="M 390 222v 28h 14a 14 14, 0, 0, 0, 0 -28" transform="rotate(0,404,236)"/><rect x="474" y="222" width="28" height="28" transform="rotate(0,488,236)"/><path d="M 586 222v 28h 14a 14 14, 0, 0, 0, 0 -28" transform="rotate(90,600,236)"/><path d="M 698 222v 28h 14a 14 14, 0, 0, 0, 0 -28" transform="rotate(90,712,236)"/><path d="M 922 222v 28h 14a 14 14, 0, 0, 0, 0 -28" transform="rotate(90,936,236)"/><path d="M 54 250v 28h 14a 14 14, 0, 0, 0, 0 -28" transform="rotate(180,68,264)"/><rect x="82" y="250" width="28" height="28" transform="rotate(0,96,264)"/><rect x="110" y="250" width="28" height="28" transform="rotate(0,124,264)"/><rect x="138" y="250" width="28" height="28" transform="rotate(0,152,264)"/><rect x="166" y="250" width="28" height="28" transform="rotate(0,180,264)"/><rect x="194" y="250" width="28" height="28" transform="rotate(0,208,264)"/><path d="M 222 250v 28h 14a 14 14, 0, 0, 0, 0 -28" transform="rotate(0,236,264)"/><path d="M 278 250v 28h 14a 14 14, 0, 0, 0, 0 -28" transform="rotate(-90,292,264)"/><path d="M 334 250v 28h 14a 14 14, 0, 0, 0, 0 -28" transform="rotate(180,348,264)"/><rect x="362" y="250" width="28" height="28" transform="rotate(0,376,264)"/><path d="M 446 250v 28h 28v -14a 14 14, 0, 0, 0, -14 -14" transform="rotate(-90,460,264)"/><rect x="474" y="250" width="28" height="28" transform="rotate(0,488,264)"/><circle cx="544" cy="264" r="14" transform="rotate(0,544,264)"/><path d="M 726 250v 28h 14a 14 14, 0, 0, 0, 0 -28" transform="rotate(180,740,264)"/><rect x="754" y="250" width="28" height="28" transform="rotate(0,768,264)"/><rect x="782" y="250" width="28" height="28" transform="rotate(0,796,264)"/><rect x="810" y="250" width="28" height="28" transform="rotate(0,824,264)"/><path d="M 838 250v 28h 14a 14 14, 0, 0, 0, 0 -28" transform="rotate(0,852,264)"/><path d="M 1006 250v 28h 28v -14a 14 14, 0, 0, 0, -14 -14" transform="rotate(-90,1020,264)"/><path d="M 1034 250v 28h 28v -14a 14 14, 0, 0, 0, -14 -14" transform="rotate(0,1048,264)"/><path d="M 1146 250v 28h 14a 14 14, 0, 0, 0, 0 -28" transform="rotate(-90,1160,264)"/><path d="M 26 278v 28h 14a 14 14, 0, 0, 0, 0 -28" transform="rotate(-90,40,292)"/><rect x="110" y="278" width="28" height="28" transform="rotate(0,124,292)"/><rect x="138" y="278" width="28" height="28" transform="rotate(0,152,292)"/><path d="M 278 278v 28h 14a 14 14, 0, 0, 0, 0 -28" transform="rotate(90,292,292)"/><rect x="362" y="278" width="28" height="28" transform="rotate(0,376,292)"/><path d="M 446 278v 28h 28v -14a 14 14, 0, 0, 0, -14 -14" transform="rotate(180,460,292)"/><rect x="474" y="278" width="28" height="28" transform="rotate(0,488,292)"/><path d="M 502 278v 28h 14a 14 14, 0, 0, 0, 0 -28" transform="rotate(0,516,292)"/><path d="M 586 278v 28h 14a 14 14, 0, 0, 0, 0 -28" transform="rotate(-90,600,292)"/><path d="M 642 278v 28h 14a 14 14, 0, 0, 0, 0 -28" transform="rotate(-90,656,292)"/><rect x="810" y="278" width="28" height="28" transform="rotate(0,824,292)"/><path d="M 894 278v 28h 14a 14 14, 0, 0, 0, 0 -28" transform="rotate(180,908,292)"/><rect x="922" y="278" width="28" height="28" transform="rotate(0,936,292)"/><rect x="950" y="278" width="28" height="28" transform="rotate(0,964,292)"/><rect x="978" y="278" width="28" height="28" transform="rotate(0,992,292)"/><rect x="1006" y="278" width="28" height="28" transform="rotate(0,1020,292)"/><path d="M 1034 278v 28h 28v -14a 14 14, 0, 0, 0, -14 -14" transform="rotate(90,1048,292)"/><path d="M 1090 278v 28h 14a 14 14, 0, 0, 0, 0 -28" transform="rotate(180,1104,292)"/><rect x="1118" y="278" width="28" height="28" transform="rotate(0,1132,292)"/><path d="M 1146 278v 28h 28v -14a 14 14, 0, 0, 0, -14 -14" transform="rotate(90,1160,292)"/><rect x="26" y="306" width="28" height="28" transform="rotate(0,40,320)"/><path d="M 110 306v 28h 28v -14a 14 14, 0, 0, 0, -14 -14" transform="rotate(180,124,320)"/><rect x="138" y="306" width="28" height="28" transform="rotate(0,152,320)"/><rect x="166" y="306" width="28" height="28" transform="rotate(0,180,320)"/><path d="M 194 306v 28h 14a 14 14, 0, 0, 0, 0 -28" transform="rotate(0,208,320)"/><path d="M 250 306v 28h 14a 14 14, 0, 0, 0, 0 -28" transform="rotate(-90,264,320)"/><rect x="362" y="306" width="28" height="28" transform="rotate(0,376,320)"/><path d="M 418 306v 28h 14a 14 14, 0, 0, 0, 0 -28" transform="rotate(-90,432,320)"/><rect x="474" y="306" width="28" height="28" transform="rotate(0,488,320)"/><path d="M 530 306v 28h 28v -14a 14 14, 0, 0, 0, -14 -14" transform="rotate(-90,544,320)"/><rect x="558" y="306" width="28" height="28" transform="rotate(0,572,320)"/><path d="M 586 306v 28h 28v -14a 14 14, 0, 0, 0, -14 -14" transform="rotate(90,600,320)"/><rect x="642" y="306" width="28" height="28" transform="rotate(0,656,320)"/><path d="M 698 306v 28h 14a 14 14, 0, 0, 0, 0 -28" transform="rotate(-90,712,320)"/><path d="M 754 306v 28h 14a 14 14, 0, 0, 0, 0 -28" transform="rotate(180,768,320)"/><rect x="782" y="306" width="28" height="28" transform="rotate(0,796,320)"/><rect x="810" y="306" width="28" height="28" transform="rotate(0,824,320)"/><rect x="838" y="306" width="28" height="28" transform="rotate(0,852,320)"/><path d="M 866 306v 28h 28v -14a 14 14, 0, 0, 0, -14 -14" transform="rotate(0,880,320)"/><rect x="922" y="306" width="28" height="28" transform="rotate(0,936,320)"/><path d="M 950 306v 28h 28v -14a 14 14, 0, 0, 0, -14 -14" transform="rotate(90,964,320)"/><path d="M 1006 306v 28h 14a 14 14, 0, 0, 0, 0 -28" transform="rotate(90,1020,320)"/><path d="M 1118 306v 28h 14a 14 14, 0, 0, 0, 0 -28" transform="rotate(90,1132,320)"/><rect x="26" y="334" width="28" height="28" transform="rotate(0,40,348)"/><path d="M 54 334v 28h 28v -14a 14 14, 0, 0, 0, -14 -14" transform="rotate(0,68,348)"/><rect x="138" y="334" width="28" height="28" transform="rotate(0,152,348)"/><rect x="166" y="334" width="28" height="28" transform="rotate(0,180,348)"/><path d="M 222 334v 28h 28v -14a 14 14, 0, 0, 0, -14 -14" transform="rotate(-90,236,348)"/><rect x="250" y="334" width="28" height="28" transform="rotate(0,264,348)"/><path d="M 278 334v 28h 28v -14a 14 14, 0, 0, 0, -14 -14" transform="rotate(0,292,348)"/><path d="M 334 334v 28h 14a 14 14, 0, 0, 0, 0 -28" transform="rotate(180,348,348)"/><rect x="362" y="334" width="28" height="28" transform="rotate(0,376,348)"/><rect x="390" y="334" width="28" height="28" transform="rotate(0,404,348)"/><rect x="418" y="334" width="28" height="28" transform="rotate(0,432,348)"/><rect x="446" y="334" width="28" height="28" transform="rotate(0,460,348)"/><rect x="474" y="334" width="28" height="28" transform="rotate(0,488,348)"/><rect x="502" y="334" width="28" height="28" transform="rotate(0,516,348)"/><rect x="530" y="334" width="28" height="28" transform="rotate(0,544,348)"/><path d="M 614 334v 28h 28v -14a 14 14, 0, 0, 0, -14 -14" transform="rotate(-90,628,348)"/><rect x="642" y="334" width="28" height="28" transform="rotate(0,656,348)"/><rect x="670" y="334" width="28" height="28" transform="rotate(0,684,348)"/><rect x="698" y="334" width="28" height="28" transform="rotate(0,712,348)"/><rect x="782" y="334" width="28" height="28" transform="rotate(0,796,348)"/><rect x="810" y="334" width="28" height="28" transform="rotate(0,824,348)"/><path d="M 866 334v 28h 28v -14a 14 14, 0, 0, 0, -14 -14" transform="rotate(180,880,348)"/><rect x="894" y="334" width="28" height="28" transform="rotate(0,908,348)"/><path d="M 922 334v 28h 28v -14a 14 14, 0, 0, 0, -14 -14" transform="rotate(90,936,348)"/><path d="M 1034 334v 28h 14a 14 14, 0, 0, 0, 0 -28" transform="rotate(180,1048,348)"/><path d="M 1062 334v 28h 28v -14a 14 14, 0, 0, 0, -14 -14" transform="rotate(0,1076,348)"/><path d="M 26 362v 28h 28v -14a 14 14, 0, 0, 0, -14 -14" transform="rotate(180,40,376)"/><path d="M 54 362v 28h 28v -14a 14 14, 0, 0, 0, -14 -14" transform="rotate(90,68,376)"/><path d="M 138 362v 28h 28v -14a 14 14, 0, 0, 0, -14 -14" transform="rotate(180,152,376)"/><rect x="166" y="362" width="28" height="28" transform="rotate(0,180,376)"/><rect x="194" y="362" width="28" height="28" transform="rotate(0,208,376)"/><rect x="222" y="362" width="28" height="28" transform="rotate(0,236,376)"/><rect x="278" y="362" width="28" height="28" transform="rotate(0,292,376)"/><rect x="390" y="362" width="28" height="28" transform="rotate(0,404,376)"/><path d="M 446 362v 28h 28v -14a 14 14, 0, 0, 0, -14 -14" transform="rotate(180,460,376)"/><path d="M 474 362v 28h 28v -14a 14 14, 0, 0, 0, -14 -14" transform="rotate(90,488,376)"/><path d="M 530 362v 28h 14a 14 14, 0, 0, 0, 0 -28" transform="rotate(90,544,376)"/><path d="M 614 362v 28h 14a 14 14, 0, 0, 0, 0 -28" transform="rotate(90,628,376)"/><path d="M 698 362v 28h 28v -14a 14 14, 0, 0, 0, -14 -14" transform="rotate(180,712,376)"/><path d="M 726 362v 28h 14a 14 14, 0, 0, 0, 0 -28" transform="rotate(0,740,376)"/><rect x="782" y="362" width="28" height="28" transform="rotate(0,796,376)"/><rect x="810" y="362" width="28" height="28" transform="rotate(0,824,376)"/><path d="M 838 362v 28h 14a 14 14, 0, 0, 0, 0 -28" transform="rotate(0,852,376)"/><path d="M 894 362v 28h 14a 14 14, 0, 0, 0, 0 -28" transform="rotate(90,908,376)"/><path d="M 1062 362v 28h 28v -14a 14 14, 0, 0, 0, -14 -14" transform="rotate(180,1076,376)"/><path d="M 1090 362v 28h 14a 14 14, 0, 0, 0, 0 -28" transform="rotate(0,1104,376)"/><path d="M 222 390v 28h 28v -14a 14 14, 0, 0, 0, -14 -14" transform="rotate(180,236,404)"/><rect x="250" y="390" width="28" height="28" transform="rotate(0,264,404)"/><rect x="278" y="390" width="28" height="28" transform="rotate(0,292,404)"/><rect x="390" y="390" width="28" height="28" transform="rotate(0,404,404)"/><path d="M 418 390v 28h 28v -14a 14 14, 0, 0, 0, -14 -14" transform="rotate(0,432,404)"/><path d="M 642 390v 28h 14a 14 14, 0, 0, 0, 0 -28" transform="rotate(-90,656,404)"/><rect x="782" y="390" width="28" height="28" transform="rotate(0,796,404)"/><path d="M 922 390v 28h 14a 14 14, 0, 0, 0, 0 -28" transform="rotate(180,936,404)"/><rect x="950" y="390" width="28" height="28" transform="rotate(0,964,404)"/><rect x="978" y="390" width="28" height="28" transform="rotate(0,992,404)"/><rect x="1006" y="390" width="28" height="28" transform="rotate(0,1020,404)"/><path d="M 1034 390v 28h 14a 14 14, 0, 0, 0, 0 -28" transform="rotate(0,1048,404)"/><circle cx="1160" cy="404" r="14" transform="rotate(0,1160,404)"/><path d="M 54 418v 28h 14a 14 14, 0, 0, 0, 0 -28" transform="rotate(180,68,432)"/><path d="M 82 418v 28h 14a 14 14, 0, 0, 0, 0 -28" transform="rotate(0,96,432)"/><circle cx="208" cy="432" r="14" transform="rotate(0,208,432)"/><rect x="278" y="418" width="28" height="28" transform="rotate(0,292,432)"/><path d="M 334 418v 28h 14a 14 14, 0, 0, 0, 0 -28" transform="rotate(-90,348,432)"/><path d="M 390 418v 28h 28v -14a 14 14, 0, 0, 0, -14 -14" transform="rotate(180,404,432)"/><rect x="418" y="418" width="28" height="28" transform="rotate(0,432,432)"/><rect x="446" y="418" width="28" height="28" transform="rotate(0,460,432)"/><rect x="474" y="418" width="28" height="28" transform="rotate(0,488,432)"/><path d="M 502 418v 28h 14a 14 14, 0, 0, 0, 0 -28" transform="rotate(0,516,432)"/><path d="M 614 418v 28h 28v -14a 14 14, 0, 0, 0, -14 -14" transform="rotate(-90,628,432)"/><rect x="642" y="418" width="28" height="28" transform="rotate(0,656,432)"/><rect x="670" y="418" width="28" height="28" transform="rotate(0,684,432)"/><rect x="698" y="418" width="28" height="28" transform="rotate(0,712,432)"/><rect x="726" y="418" width="28" height="28" transform="rotate(0,740,432)"/><rect x="754" y="418" width="28" height="28" transform="rotate(0,768,432)"/><rect x="782" y="418" width="28" height="28" transform="rotate(0,796,432)"/><rect x="810" y="418" width="28" height="28" transform="rotate(0,824,432)"/><path d="M 838 418v 28h 14a 14 14, 0, 0, 0, 0 -28" transform="rotate(0,852,432)"/><path d="M 894 418v 28h 14a 14 14, 0, 0, 0, 0 -28" transform="rotate(-90,908,432)"/><path d="M 950 418v 28h 14a 14 14, 0, 0, 0, 0 -28" transform="rotate(90,964,432)"/><rect x="1006" y="418" width="28" height="28" transform="rotate(0,1020,432)"/><path d="M 1062 418v 28h 28v -14a 14 14, 0, 0, 0, -14 -14" transform="rotate(-90,1076,432)"/><path d="M 1090 418v 28h 14a 14 14, 0, 0, 0, 0 -28" transform="rotate(0,1104,432)"/><path d="M 26 446v 28h 14a 14 14, 0, 0, 0, 0 -28" transform="rotate(-90,40,460)"/><path d="M 110 446v 28h 14a 14 14, 0, 0, 0, 0 -28" transform="rotate(180,124,460)"/><rect x="138" y="446" width="28" height="28" transform="rotate(0,152,460)"/><path d="M 166 446v 28h 28v -14a 14 14, 0, 0, 0, -14 -14" transform="rotate(0,180,460)"/><circle cx="236" cy="460" r="14" transform="rotate(0,236,460)"/><path d="M 278 446v 28h 14a 14 14, 0, 0, 0, 0 -28" transform="rotate(90,292,460)"/><rect x="334" y="446" width="28" height="28" transform="rotate(0,348,460)"/><path d="M 362 446v 28h 14a 14 14, 0, 0, 0, 0 -28" transform="rotate(0,376,460)"/><rect x="474" y="446" width="28" height="28" transform="rotate(0,488,460)"/><path d="M 530 446v 28h 14a 14 14, 0, 0, 0, 0 -28" transform="rotate(180,544,460)"/><rect x="558" y="446" width="28" height="28" transform="rotate(0,572,460)"/><rect x="586" y="446" width="28" height="28" transform="rotate(0,600,460)"/><rect x="614" y="446" width="28" height="28" transform="rotate(0,628,460)"/><rect x="670" y="446" width="28" height="28" transform="rotate(0,684,460)"/><rect x="782" y="446" width="28" height="28" transform="rotate(0,796,460)"/><path d="M 866 446v 28h 14a 14 14, 0, 0, 0, 0 -28" transform="rotate(180,880,460)"/><rect x="894" y="446" width="28" height="28" transform="rotate(0,908,460)"/><path d="M 922 446v 28h 14a 14 14, 0, 0, 0, 0 -28" transform="rotate(0,936,460)"/><path d="M 978 446v 28h 14a 14 14, 0, 0, 0, 0 -28" transform="rotate(180,992,460)"/><rect x="1006" y="446" width="28" height="28" transform="rotate(0,1020,460)"/><path d="M 1062 446v 28h 14a 14 14, 0, 0, 0, 0 -28" transform="rotate(90,1076,460)"/><rect x="26" y="474" width="28" height="28" transform="rotate(0,40,488)"/><circle cx="96" cy="488" r="14" transform="rotate(0,96,488)"/><rect x="166" y="474" width="28" height="28" transform="rotate(0,180,488)"/><path d="M 194 474v 28h 14a 14 14, 0, 0, 0, 0 -28" transform="rotate(0,208,488)"/><path d="M 250 474v 28h 14a 14 14, 0, 0, 0, 0 -28" transform="rotate(-90,264,488)"/><path d="M 306 474v 28h 14a 14 14, 0, 0, 0, 0 -28" transform="rotate(180,320,488)"/><path d="M 334 474v 28h 28v -14a 14 14, 0, 0, 0, -14 -14" transform="rotate(90,348,488)"/><path d="M 418 474v 28h 28v -14a 14 14, 0, 0, 0, -14 -14" transform="rotate(-90,432,488)"/><rect x="446" y="474" width="28" height="28" transform="rotate(0,460,488)"/><rect x="474" y="474" width="28" height="28" transform="rotate(0,488,488)"/><path d="M 502 474v 28h 14a 14 14, 0, 0, 0, 0 -28" transform="rotate(0,516,488)"/><path d="M 558 474v 28h 28v -14a 14 14, 0, 0, 0, -14 -14" transform="rotate(180,572,488)"/><rect x="586" y="474" width="28" height="28" transform="rotate(0,600,488)"/><rect x="614" y="474" width="28" height="28" transform="rotate(0,628,488)"/><rect x="670" y="474" width="28" height="28" transform="rotate(0,684,488)"/><path d="M 726 474v 28h 14a 14 14, 0, 0, 0, 0 -28" transform="rotate(180,740,488)"/><rect x="754" y="474" width="28" height="28" transform="rotate(0,768,488)"/><path d="M 782 474v 28h 28v -14a 14 14, 0, 0, 0, -14 -14" transform="rotate(90,796,488)"/><path d="M 838 474v 28h 14a 14 14, 0, 0, 0, 0 -28" transform="rotate(-90,852,488)"/><rect x="894" y="474" width="28" height="28" transform="rotate(0,908,488)"/><circle cx="964" cy="488" r="14" transform="rotate(0,964,488)"/><rect x="1006" y="474" width="28" height="28" transform="rotate(0,1020,488)"/><path d="M 1090 474v 28h 14a 14 14, 0, 0, 0, 0 -28" transform="rotate(180,1104,488)"/><rect x="1118" y="474" width="28" height="28" transform="rotate(0,1132,488)"/><path d="M 1146 474v 28h 28v -14a 14 14, 0, 0, 0, -14 -14" transform="rotate(0,1160,488)"/><path d="M 26 502v 28h 28v -14a 14 14, 0, 0, 0, -14 -14" transform="rotate(180,40,516)"/><path d="M 54 502v 28h 28v -14a 14 14, 0, 0, 0, -14 -14" transform="rotate(0,68,516)"/><path d="M 110 502v 28h 14a 14 14, 0, 0, 0, 0 -28" transform="rotate(-90,124,516)"/><rect x="166" y="502" width="28" height="28" transform="rotate(0,180,516)"/><path d="M 250 502v 28h 28v -14a 14 14, 0, 0, 0, -14 -14" transform="rotate(180,264,516)"/><path d="M 278 502v 28h 28v -14a 14 14, 0, 0, 0, -14 -14" transform="rotate(0,292,516)"/><path d="M 390 502v 28h 14a 14 14, 0, 0, 0, 0 -28" transform="rotate(180,404,516)"/><rect x="418" y="502" width="28" height="28" transform="rotate(0,432,516)"/><path d="M 530 502v 28h 14a 14 14, 0, 0, 0, 0 -28" transform="rotate(-90,544,516)"/><path d="M 586 502v 28h 28v -14a 14 14, 0, 0, 0, -14 -14" transform="rotate(180,600,516)"/><rect x="614" y="502" width="28" height="28" transform="rotate(0,628,516)"/><rect x="642" y="502" width="28" height="28" transform="rotate(0,656,516)"/><path d="M 670 502v 28h 28v -14a 14 14, 0, 0, 0, -14 -14" transform="rotate(90,684,516)"/><path d="M 810 502v 28h 28v -14a 14 14, 0, 0, 0, -14 -14" transform="rotate(-90,824,516)"/><rect x="838" y="502" width="28" height="28" transform="rotate(0,852,516)"/><rect x="866" y="502" width="28" height="28" transform="rotate(0,880,516)"/><path d="M 894 502v 28h 28v -14a 14 14, 0, 0, 0, -14 -14" transform="rotate(90,908,516)"/><path d="M 978 502v 28h 28v -14a 14 14, 0, 0, 0, -14 -14" transform="rotate(-90,992,516)"/><rect x="1006" y="502" width="28" height="28" transform="rotate(0,1020,516)"/><path d="M 1034 502v 28h 28v -14a 14 14, 0, 0, 0, -14 -14" transform="rotate(0,1048,516)"/><path d="M 1118 502v 28h 28v -14a 14 14, 0, 0, 0, -14 -14" transform="rotate(180,1132,516)"/><path d="M 1146 502v 28h 28v -14a 14 14, 0, 0, 0, -14 -14" transform="rotate(90,1160,516)"/><path d="M 54 530v 28h 14a 14 14, 0, 0, 0, 0 -28" transform="rotate(90,68,544)"/><rect x="110" y="530" width="28" height="28" transform="rotate(0,124,544)"/><rect x="166" y="530" width="28" height="28" transform="rotate(0,180,544)"/><rect x="194" y="530" width="28" height="28" transform="rotate(0,208,544)"/><path d="M 222 530v 28h 28v -14a 14 14, 0, 0, 0, -14 -14" transform="rotate(0,236,544)"/><path d="M 278 530v 28h 28v -14a 14 14, 0, 0, 0, -14 -14" transform="rotate(180,292,544)"/><path d="M 306 530v 28h 28v -14a 14 14, 0, 0, 0, -14 -14" transform="rotate(0,320,544)"/><path d="M 418 530v 28h 14a 14 14, 0, 0, 0, 0 -28" transform="rotate(90,432,544)"/><path d="M 502 530v 28h 28v -14a 14 14, 0, 0, 0, -14 -14" transform="rotate(-90,516,544)"/><rect x="530" y="530" width="28" height="28" transform="rotate(0,544,544)"/><path d="M 558 530v 28h 14a 14 14, 0, 0, 0, 0 -28" transform="rotate(0,572,544)"/><path d="M 782 530v 28h 28v -14a 14 14, 0, 0, 0, -14 -14" transform="rotate(-90,796,544)"/><rect x="810" y="530" width="28" height="28" transform="rotate(0,824,544)"/><rect x="838" y="530" width="28" height="28" transform="rotate(0,852,544)"/><path d="M 922 530v 28h 14a 14 14, 0, 0, 0, 0 -28" transform="rotate(180,936,544)"/><rect x="950" y="530" width="28" height="28" transform="rotate(0,964,544)"/><path d="M 978 530v 28h 28v -14a 14 14, 0, 0, 0, -14 -14" transform="rotate(90,992,544)"/><rect x="1034" y="530" width="28" height="28" transform="rotate(0,1048,544)"/><rect x="1062" y="530" width="28" height="28" transform="rotate(0,1076,544)"/><path d="M 1090 530v 28h 14a 14 14, 0, 0, 0, 0 -28" transform="rotate(0,1104,544)"/><path d="M 26 558v 28h 14a 14 14, 0, 0, 0, 0 -28" transform="rotate(-90,40,572)"/><path d="M 110 558v 28h 28v -14a 14 14, 0, 0, 0, -14 -14" transform="rotate(180,124,572)"/><rect x="138" y="558" width="28" height="28" transform="rotate(0,152,572)"/><rect x="166" y="558" width="28" height="28" transform="rotate(0,180,572)"/><rect x="222" y="558" width="28" height="28" transform="rotate(0,236,572)"/><path d="M 306 558v 28h 28v -14a 14 14, 0, 0, 0, -14 -14" transform="rotate(180,320,572)"/><rect x="334" y="558" width="28" height="28" transform="rotate(0,348,572)"/><path d="M 362 558v 28h 14a 14 14, 0, 0, 0, 0 -28" transform="rotate(0,376,572)"/><path d="M 446 558v 28h 14a 14 14, 0, 0, 0, 0 -28" transform="rotate(-90,460,572)"/><rect x="502" y="558" width="28" height="28" transform="rotate(0,516,572)"/><rect x="530" y="558" width="28" height="28" transform="rotate(0,544,572)"/><path d="M 614 558v 28h 28v -14a 14 14, 0, 0, 0, -14 -14" transform="rotate(-90,628,572)"/><path d="M 642 558v 28h 14a 14 14, 0, 0, 0, 0 -28" transform="rotate(0,656,572)"/><path d="M 754 558v 28h 14a 14 14, 0, 0, 0, 0 -28" transform="rotate(180,768,572)"/><path d="M 782 558v 28h 28v -14a 14 14, 0, 0, 0, -14 -14" transform="rotate(90,796,572)"/><path d="M 838 558v 28h 28v -14a 14 14, 0, 0, 0, -14 -14" transform="rotate(180,852,572)"/><rect x="866" y="558" width="28" height="28" transform="rotate(0,880,572)"/><path d="M 894 558v 28h 14a 14 14, 0, 0, 0, 0 -28" transform="rotate(0,908,572)"/><path d="M 1034 558v 28h 28v -14a 14 14, 0, 0, 0, -14 -14" transform="rotate(180,1048,572)"/><rect x="1062" y="558" width="28" height="28" transform="rotate(0,1076,572)"/><path d="M 1118 558v 28h 14a 14 14, 0, 0, 0, 0 -28" transform="rotate(180,1132,572)"/><path d="M 1146 558v 28h 28v -14a 14 14, 0, 0, 0, -14 -14" transform="rotate(0,1160,572)"/><path d="M 26 586v 28h 28v -14a 14 14, 0, 0, 0, -14 -14" transform="rotate(180,40,600)"/><rect x="54" y="586" width="28" height="28" transform="rotate(0,68,600)"/><path d="M 82 586v 28h 28v -14a 14 14, 0, 0, 0, -14 -14" transform="rotate(0,96,600)"/><path d="M 166 586v 28h 28v -14a 14 14, 0, 0, 0, -14 -14" transform="rotate(180,180,600)"/><rect x="194" y="586" width="28" height="28" transform="rotate(0,208,600)"/><rect x="222" y="586" width="28" height="28" transform="rotate(0,236,600)"/><rect x="250" y="586" width="28" height="28" transform="rotate(0,264,600)"/><path d="M 278 586v 28h 14a 14 14, 0, 0, 0, 0 -28" transform="rotate(0,292,600)"/><rect x="334" y="586" width="28" height="28" transform="rotate(0,348,600)"/><path d="M 390 586v 28h 14a 14 14, 0, 0, 0, 0 -28" transform="rotate(-90,404,600)"/><rect x="446" y="586" width="28" height="28" transform="rotate(0,460,600)"/><path d="M 502 586v 28h 28v -14a 14 14, 0, 0, 0, -14 -14" transform="rotate(180,516,600)"/><path d="M 530 586v 28h 28v -14a 14 14, 0, 0, 0, -14 -14" transform="rotate(90,544,600)"/><rect x="614" y="586" width="28" height="28" transform="rotate(0,628,600)"/><path d="M 810 586v 28h 14a 14 14, 0, 0, 0, 0 -28" transform="rotate(-90,824,600)"/><rect x="1062" y="586" width="28" height="28" transform="rotate(0,1076,600)"/><path d="M 1090 586v 28h 28v -14a 14 14, 0, 0, 0, -14 -14" transform="rotate(0,1104,600)"/><rect x="1146" y="586" width="28" height="28" transform="rotate(0,1160,600)"/><path d="M 82 614v 28h 14a 14 14, 0, 0, 0, 0 -28" transform="rotate(90,96,628)"/><circle cx="152" cy="628" r="14" transform="rotate(0,152,628)"/><path d="M 250 614v 28h 14a 14 14, 0, 0, 0, 0 -28" transform="rotate(90,264,628)"/><path d="M 306 614v 28h 28v -14a 14 14, 0, 0, 0, -14 -14" transform="rotate(-90,320,628)"/><rect x="334" y="614" width="28" height="28" transform="rotate(0,348,628)"/><rect x="390" y="614" width="28" height="28" transform="rotate(0,404,628)"/><rect x="446" y="614" width="28" height="28" transform="rotate(0,460,628)"/><circle cx="572" cy="628" r="14" transform="rotate(0,572,628)"/><rect x="614" y="614" width="28" height="28" transform="rotate(0,628,628)"/><rect x="642" y="614" width="28" height="28" transform="rotate(0,656,628)"/><path d="M 670 614v 28h 14a 14 14, 0, 0, 0, 0 -28" transform="rotate(0,684,628)"/><path d="M 754 614v 28h 14a 14 14, 0, 0, 0, 0 -28" transform="rotate(-90,768,628)"/><rect x="810" y="614" width="28" height="28" transform="rotate(0,824,628)"/><path d="M 866 614v 28h 14a 14 14, 0, 0, 0, 0 -28" transform="rotate(180,880,628)"/><rect x="894" y="614" width="28" height="28" transform="rotate(0,908,628)"/><rect x="922" y="614" width="28" height="28" transform="rotate(0,936,628)"/><rect x="950" y="614" width="28" height="28" transform="rotate(0,964,628)"/><rect x="978" y="614" width="28" height="28" transform="rotate(0,992,628)"/><rect x="1006" y="614" width="28" height="28" transform="rotate(0,1020,628)"/><rect x="1034" y="614" width="28" height="28" transform="rotate(0,1048,628)"/><rect x="1062" y="614" width="28" height="28" transform="rotate(0,1076,628)"/><rect x="1090" y="614" width="28" height="28" transform="rotate(0,1104,628)"/><rect x="1118" y="614" width="28" height="28" transform="rotate(0,1132,628)"/><path d="M 1146 614v 28h 28v -14a 14 14, 0, 0, 0, -14 -14" transform="rotate(90,1160,628)"/><path d="M 166 642v 28h 28v -14a 14 14, 0, 0, 0, -14 -14" transform="rotate(-90,180,656)"/><rect x="194" y="642" width="28" height="28" transform="rotate(0,208,656)"/><path d="M 222 642v 28h 28v -14a 14 14, 0, 0, 0, -14 -14" transform="rotate(0,236,656)"/><path d="M 278 642v 28h 14a 14 14, 0, 0, 0, 0 -28" transform="rotate(180,292,656)"/><rect x="306" y="642" width="28" height="28" transform="rotate(0,320,656)"/><rect x="334" y="642" width="28" height="28" transform="rotate(0,348,656)"/><path d="M 390 642v 28h 28v -14a 14 14, 0, 0, 0, -14 -14" transform="rotate(180,404,656)"/><rect x="418" y="642" width="28" height="28" transform="rotate(0,432,656)"/><rect x="446" y="642" width="28" height="28" transform="rotate(0,460,656)"/><path d="M 474 642v 28h 14a 14 14, 0, 0, 0, 0 -28" transform="rotate(0,488,656)"/><path d="M 530 642v 28h 14a 14 14, 0, 0, 0, 0 -28" transform="rotate(-90,544,656)"/><path d="M 586 642v 28h 28v -14a 14 14, 0, 0, 0, -14 -14" transform="rotate(-90,600,656)"/><rect x="614" y="642" width="28" height="28" transform="rotate(0,628,656)"/><path d="M 698 642v 28h 14a 14 14, 0, 0, 0, 0 -28" transform="rotate(-90,712,656)"/><rect x="754" y="642" width="28" height="28" transform="rotate(0,768,656)"/><rect x="782" y="642" width="28" height="28" transform="rotate(0,796,656)"/><path d="M 810 642v 28h 28v -14a 14 14, 0, 0, 0, -14 -14" transform="rotate(90,824,656)"/><path d="M 922 642v 28h 28v -14a 14 14, 0, 0, 0, -14 -14" transform="rotate(180,936,656)"/><path d="M 950 642v 28h 28v -14a 14 14, 0, 0, 0, -14 -14" transform="rotate(90,964,656)"/><rect x="1006" y="642" width="28" height="28" transform="rotate(0,1020,656)"/><rect x="1034" y="642" width="28" height="28" transform="rotate(0,1048,656)"/><rect x="1062" y="642" width="28" height="28" transform="rotate(0,1076,656)"/><path d="M 26 670v 28h 14a 14 14, 0, 0, 0, 0 -28" transform="rotate(180,40,684)"/><rect x="54" y="670" width="28" height="28" transform="rotate(0,68,684)"/><path d="M 82 670v 28h 28v -14a 14 14, 0, 0, 0, -14 -14" transform="rotate(0,96,684)"/><path d="M 138 670v 28h 14a 14 14, 0, 0, 0, 0 -28" transform="rotate(180,152,684)"/><rect x="166" y="670" width="28" height="28" transform="rotate(0,180,684)"/><rect x="222" y="670" width="28" height="28" transform="rotate(0,236,684)"/><path d="M 334 670v 28h 14a 14 14, 0, 0, 0, 0 -28" transform="rotate(90,348,684)"/><rect x="446" y="670" width="28" height="28" transform="rotate(0,460,684)"/><path d="M 502 670v 28h 28v -14a 14 14, 0, 0, 0, -14 -14" transform="rotate(-90,516,684)"/><path d="M 530 670v 28h 28v -14a 14 14, 0, 0, 0, -14 -14" transform="rotate(90,544,684)"/><path d="M 586 670v 28h 28v -14a 14 14, 0, 0, 0, -14 -14" transform="rotate(180,600,684)"/><path d="M 614 670v 28h 28v -14a 14 14, 0, 0, 0, -14 -14" transform="rotate(90,628,684)"/><path d="M 670 670v 28h 14a 14 14, 0, 0, 0, 0 -28" transform="rotate(180,684,684)"/><path d="M 698 670v 28h 28v -14a 14 14, 0, 0, 0, -14 -14" transform="rotate(90,712,684)"/><rect x="754" y="670" width="28" height="28" transform="rotate(0,768,684)"/><rect x="782" y="670" width="28" height="28" transform="rotate(0,796,684)"/><circle cx="908" cy="684" r="14" transform="rotate(0,908,684)"/><path d="M 1006 670v 28h 14a 14 14, 0, 0, 0, 0 -28" transform="rotate(90,1020,684)"/><rect x="1062" y="670" width="28" height="28" transform="rotate(0,1076,684)"/><path d="M 1146 670v 28h 14a 14 14, 0, 0, 0, 0 -28" transform="rotate(-90,1160,684)"/><rect x="82" y="698" width="28" height="28" transform="rotate(0,96,712)"/><path d="M 110 698v 28h 28v -14a 14 14, 0, 0, 0, -14 -14" transform="rotate(0,124,712)"/><rect x="166" y="698" width="28" height="28" transform="rotate(0,180,712)"/><rect x="194" y="698" width="28" height="28" transform="rotate(0,208,712)"/><rect x="222" y="698" width="28" height="28" transform="rotate(0,236,712)"/><rect x="250" y="698" width="28" height="28" transform="rotate(0,264,712)"/><rect x="278" y="698" width="28" height="28" transform="rotate(0,292,712)"/><path d="M 306 698v 28h 28v -14a 14 14, 0, 0, 0, -14 -14" transform="rotate(0,320,712)"/><path d="M 362 698v 28h 14a 14 14, 0, 0, 0, 0 -28" transform="rotate(180,376,712)"/><path d="M 390 698v 28h 28v -14a 14 14, 0, 0, 0, -14 -14" transform="rotate(0,404,712)"/><path d="M 446 698v 28h 14a 14 14, 0, 0, 0, 0 -28" transform="rotate(90,460,712)"/><rect x="502" y="698" width="28" height="28" transform="rotate(0,516,712)"/><path d="M 558 698v 28h 14a 14 14, 0, 0, 0, 0 -28" transform="rotate(-90,572,712)"/><path d="M 642 698v 28h 14a 14 14, 0, 0, 0, 0 -28" transform="rotate(-90,656,712)"/><path d="M 726 698v 28h 28v -14a 14 14, 0, 0, 0, -14 -14" transform="rotate(-90,740,712)"/><rect x="754" y="698" width="28" height="28" transform="rotate(0,768,712)"/><rect x="782" y="698" width="28" height="28" transform="rotate(0,796,712)"/><rect x="810" y="698" width="28" height="28" transform="rotate(0,824,712)"/><path d="M 838 698v 28h 14a 14 14, 0, 0, 0, 0 -28" transform="rotate(0,852,712)"/><rect x="1062" y="698" width="28" height="28" transform="rotate(0,1076,712)"/><path d="M 1090 698v 28h 14a 14 14, 0, 0, 0, 0 -28" transform="rotate(0,1104,712)"/><rect x="1146" y="698" width="28" height="28" transform="rotate(0,1160,712)"/><path d="M 82 726v 28h 28v -14a 14 14, 0, 0, 0, -14 -14" transform="rotate(180,96,740)"/><rect x="110" y="726" width="28" height="28" transform="rotate(0,124,740)"/><rect x="138" y="726" width="28" height="28" transform="rotate(0,152,740)"/><path d="M 166 726v 28h 28v -14a 14 14, 0, 0, 0, -14 -14" transform="rotate(90,180,740)"/><rect x="222" y="726" width="28" height="28" transform="rotate(0,236,740)"/><rect x="306" y="726" width="28" height="28" transform="rotate(0,320,740)"/><path d="M 390 726v 28h 14a 14 14, 0, 0, 0, 0 -28" transform="rotate(90,404,740)"/><rect x="502" y="726" width="28" height="28" transform="rotate(0,516,740)"/><rect x="530" y="726" width="28" height="28" transform="rotate(0,544,740)"/><path d="M 558 726v 28h 28v -14a 14 14, 0, 0, 0, -14 -14" transform="rotate(90,572,740)"/><rect x="642" y="726" width="28" height="28" transform="rotate(0,656,740)"/><path d="M 670 726v 28h 14a 14 14, 0, 0, 0, 0 -28" transform="rotate(0,684,740)"/><path d="M 726 726v 28h 14a 14 14, 0, 0, 0, 0 -28" transform="rotate(90,740,740)"/><path d="M 810 726v 28h 14a 14 14, 0, 0, 0, 0 -28" transform="rotate(90,824,740)"/><path d="M 866 726v 28h 14a 14 14, 0, 0, 0, 0 -28" transform="rotate(180,880,740)"/><path d="M 894 726v 28h 14a 14 14, 0, 0, 0, 0 -28" transform="rotate(0,908,740)"/><path d="M 978 726v 28h 28v -14a 14 14, 0, 0, 0, -14 -14" transform="rotate(-90,992,740)"/><rect x="1006" y="726" width="28" height="28" transform="rotate(0,1020,740)"/><rect x="1034" y="726" width="28" height="28" transform="rotate(0,1048,740)"/><path d="M 1062 726v 28h 28v -14a 14 14, 0, 0, 0, -14 -14" transform="rotate(90,1076,740)"/><path d="M 1118 726v 28h 14a 14 14, 0, 0, 0, 0 -28" transform="rotate(180,1132,740)"/><path d="M 1146 726v 28h 28v -14a 14 14, 0, 0, 0, -14 -14" transform="rotate(90,1160,740)"/><path d="M 26 754v 28h 14a 14 14, 0, 0, 0, 0 -28" transform="rotate(180,40,768)"/><path d="M 54 754v 28h 14a 14 14, 0, 0, 0, 0 -28" transform="rotate(0,68,768)"/><path d="M 110 754v 28h 28v -14a 14 14, 0, 0, 0, -14 -14" transform="rotate(180,124,768)"/><path d="M 138 754v 28h 28v -14a 14 14, 0, 0, 0, -14 -14" transform="rotate(90,152,768)"/><path d="M 194 754v 28h 14a 14 14, 0, 0, 0, 0 -28" transform="rotate(180,208,768)"/><rect x="222" y="754" width="28" height="28" transform="rotate(0,236,768)"/><rect x="306" y="754" width="28" height="28" transform="rotate(0,320,768)"/><path d="M 502 754v 28h 14a 14 14, 0, 0, 0, 0 -28" transform="rotate(90,516,768)"/><path d="M 614 754v 28h 14a 14 14, 0, 0, 0, 0 -28" transform="rotate(180,628,768)"/><path d="M 642 754v 28h 28v -14a 14 14, 0, 0, 0, -14 -14" transform="rotate(90,656,768)"/><circle cx="712" cy="768" r="14" transform="rotate(0,712,768)"/><path d="M 754 754v 28h 28v -14a 14 14, 0, 0, 0, -14 -14" transform="rotate(-90,768,768)"/><path d="M 782 754v 28h 28v -14a 14 14, 0, 0, 0, -14 -14" transform="rotate(0,796,768)"/><path d="M 922 754v 28h 14a 14 14, 0, 0, 0, 0 -28" transform="rotate(-90,936,768)"/><path d="M 978 754v 28h 28v -14a 14 14, 0, 0, 0, -14 -14" transform="rotate(180,992,768)"/><rect x="1006" y="754" width="28" height="28" transform="rotate(0,1020,768)"/><path d="M 82 782v 28h 14a 14 14, 0, 0, 0, 0 -28" transform="rotate(-90,96,796)"/><circle cx="180" cy="796" r="14" transform="rotate(0,180,796)"/><rect x="222" y="782" width="28" height="28" transform="rotate(0,236,796)"/><rect x="250" y="782" width="28" height="28" transform="rotate(0,264,796)"/><rect x="278" y="782" width="28" height="28" transform="rotate(0,292,796)"/><path d="M 306 782v 28h 28v -14a 14 14, 0, 0, 0, -14 -14" transform="rotate(90,320,796)"/><path d="M 446 782v 28h 14a 14 14, 0, 0, 0, 0 -28" transform="rotate(180,460,796)"/><path d="M 474 782v 28h 14a 14 14, 0, 0, 0, 0 -28" transform="rotate(0,488,796)"/><rect x="754" y="782" width="28" height="28" transform="rotate(0,768,796)"/><rect x="782" y="782" width="28" height="28" transform="rotate(0,796,796)"/><path d="M 810 782v 28h 14a 14 14, 0, 0, 0, 0 -28" transform="rotate(0,824,796)"/><path d="M 866 782v 28h 14a 14 14, 0, 0, 0, 0 -28" transform="rotate(180,880,796)"/><rect x="894" y="782" width="28" height="28" transform="rotate(0,908,796)"/><rect x="922" y="782" width="28" height="28" transform="rotate(0,936,796)"/><path d="M 950 782v 28h 14a 14 14, 0, 0, 0, 0 -28" transform="rotate(0,964,796)"/><path d="M 1006 782v 28h 14a 14 14, 0, 0, 0, 0 -28" transform="rotate(90,1020,796)"/><path d="M 1062 782v 28h 14a 14 14, 0, 0, 0, 0 -28" transform="rotate(-90,1076,796)"/><path d="M 1118 782v 28h 28v -14a 14 14, 0, 0, 0, -14 -14" transform="rotate(-90,1132,796)"/><path d="M 1146 782v 28h 14a 14 14, 0, 0, 0, 0 -28" transform="rotate(0,1160,796)"/><path d="M 54 810v 28h 14a 14 14, 0, 0, 0, 0 -28" transform="rotate(180,68,824)"/><rect x="82" y="810" width="28" height="28" transform="rotate(0,96,824)"/><path d="M 194 810v 28h 14a 14 14, 0, 0, 0, 0 -28" transform="rotate(180,208,824)"/><rect x="222" y="810" width="28" height="28" transform="rotate(0,236,824)"/><path d="M 278 810v 28h 14a 14 14, 0, 0, 0, 0 -28" transform="rotate(90,292,824)"/><path d="M 334 810v 28h 28v -14a 14 14, 0, 0, 0, -14 -14" transform="rotate(-90,348,824)"/><rect x="362" y="810" width="28" height="28" transform="rotate(0,376,824)"/><rect x="390" y="810" width="28" height="28" transform="rotate(0,404,824)"/><path d="M 418 810v 28h 14a 14 14, 0, 0, 0, 0 -28" transform="rotate(0,432,824)"/><circle cx="600" cy="824" r="14" transform="rotate(0,600,824)"/><circle cx="684" cy="824" r="14" transform="rotate(0,684,824)"/><path d="M 726 810v 28h 28v -14a 14 14, 0, 0, 0, -14 -14" transform="rotate(-90,740,824)"/><rect x="754" y="810" width="28" height="28" transform="rotate(0,768,824)"/><rect x="782" y="810" width="28" height="28" transform="rotate(0,796,824)"/><path d="M 838 810v 28h 14a 14 14, 0, 0, 0, 0 -28" transform="rotate(-90,852,824)"/><path d="M 894 810v 28h 14a 14 14, 0, 0, 0, 0 -28" transform="rotate(90,908,824)"/><rect x="1062" y="810" width="28" height="28" transform="rotate(0,1076,824)"/><rect x="1090" y="810" width="28" height="28" transform="rotate(0,1104,824)"/><rect x="1118" y="810" width="28" height="28" transform="rotate(0,1132,824)"/><path d="M 26 838v 28h 14a 14 14, 0, 0, 0, 0 -28" transform="rotate(-90,40,852)"/><rect x="82" y="838" width="28" height="28" transform="rotate(0,96,852)"/><path d="M 110 838v 28h 14a 14 14, 0, 0, 0, 0 -28" transform="rotate(0,124,852)"/><rect x="222" y="838" width="28" height="28" transform="rotate(0,236,852)"/><path d="M 250 838v 28h 28v -14a 14 14, 0, 0, 0, -14 -14" transform="rotate(0,264,852)"/><path d="M 306 838v 28h 14a 14 14, 0, 0, 0, 0 -28" transform="rotate(180,320,852)"/><rect x="334" y="838" width="28" height="28" transform="rotate(0,348,852)"/><rect x="362" y="838" width="28" height="28" transform="rotate(0,376,852)"/><path d="M 390 838v 28h 28v -14a 14 14, 0, 0, 0, -14 -14" transform="rotate(90,404,852)"/><path d="M 446 838v 28h 14a 14 14, 0, 0, 0, 0 -28" transform="rotate(-90,460,852)"/><path d="M 502 838v 28h 14a 14 14, 0, 0, 0, 0 -28" transform="rotate(-90,516,852)"/><path d="M 614 838v 28h 14a 14 14, 0, 0, 0, 0 -28" transform="rotate(180,628,852)"/><path d="M 642 838v 28h 14a 14 14, 0, 0, 0, 0 -28" transform="rotate(0,656,852)"/><path d="M 698 838v 28h 14a 14 14, 0, 0, 0, 0 -28" transform="rotate(180,712,852)"/><path d="M 726 838v 28h 28v -14a 14 14, 0, 0, 0, -14 -14" transform="rotate(90,740,852)"/><path d="M 782 838v 28h 28v -14a 14 14, 0, 0, 0, -14 -14" transform="rotate(180,796,852)"/><rect x="810" y="838" width="28" height="28" transform="rotate(0,824,852)"/><rect x="838" y="838" width="28" height="28" transform="rotate(0,852,852)"/><path d="M 866 838v 28h 28v -14a 14 14, 0, 0, 0, -14 -14" transform="rotate(0,880,852)"/><path d="M 950 838v 28h 28v -14a 14 14, 0, 0, 0, -14 -14" transform="rotate(-90,964,852)"/><path d="M 978 838v 28h 28v -14a 14 14, 0, 0, 0, -14 -14" transform="rotate(0,992,852)"/><path d="M 1034 838v 28h 28v -14a 14 14, 0, 0, 0, -14 -14" transform="rotate(-90,1048,852)"/><rect x="1062" y="838" width="28" height="28" transform="rotate(0,1076,852)"/><rect x="1090" y="838" width="28" height="28" transform="rotate(0,1104,852)"/><rect x="1118" y="838" width="28" height="28" transform="rotate(0,1132,852)"/><path d="M 1146 838v 28h 14a 14 14, 0, 0, 0, 0 -28" transform="rotate(0,1160,852)"/><rect x="26" y="866" width="28" height="28" transform="rotate(0,40,880)"/><rect x="82" y="866" width="28" height="28" transform="rotate(0,96,880)"/><path d="M 194 866v 28h 14a 14 14, 0, 0, 0, 0 -28" transform="rotate(180,208,880)"/><rect x="222" y="866" width="28" height="28" transform="rotate(0,236,880)"/><path d="M 250 866v 28h 28v -14a 14 14, 0, 0, 0, -14 -14" transform="rotate(90,264,880)"/><rect x="334" y="866" width="28" height="28" transform="rotate(0,348,880)"/><path d="M 362 866v 28h 28v -14a 14 14, 0, 0, 0, -14 -14" transform="rotate(90,376,880)"/><path d="M 446 866v 28h 14a 14 14, 0, 0, 0, 0 -28" transform="rotate(90,460,880)"/><rect x="502" y="866" width="28" height="28" transform="rotate(0,516,880)"/><path d="M 866 866v 28h 14a 14 14, 0, 0, 0, 0 -28" transform="rotate(90,880,880)"/><rect x="950" y="866" width="28" height="28" transform="rotate(0,964,880)"/><rect x="978" y="866" width="28" height="28" transform="rotate(0,992,880)"/><rect x="1006" y="866" width="28" height="28" transform="rotate(0,1020,880)"/><rect x="1034" y="866" width="28" height="28" transform="rotate(0,1048,880)"/><rect x="1062" y="866" width="28" height="28" transform="rotate(0,1076,880)"/><path d="M 1090 866v 28h 28v -14a 14 14, 0, 0, 0, -14 -14" transform="rotate(90,1104,880)"/><rect x="26" y="894" width="28" height="28" transform="rotate(0,40,908)"/><rect x="82" y="894" width="28" height="28" transform="rotate(0,96,908)"/><rect x="110" y="894" width="28" height="28" transform="rotate(0,124,908)"/><rect x="138" y="894" width="28" height="28" transform="rotate(0,152,908)"/><path d="M 166 894v 28h 14a 14 14, 0, 0, 0, 0 -28" transform="rotate(0,180,908)"/><path d="M 278 894v 28h 14a 14 14, 0, 0, 0, 0 -28" transform="rotate(-90,292,908)"/><rect x="334" y="894" width="28" height="28" transform="rotate(0,348,908)"/><path d="M 418 894v 28h 14a 14 14, 0, 0, 0, 0 -28" transform="rotate(-90,432,908)"/><path d="M 474 894v 28h 28v -14a 14 14, 0, 0, 0, -14 -14" transform="rotate(-90,488,908)"/><rect x="502" y="894" width="28" height="28" transform="rotate(0,516,908)"/><path d="M 586 894v 28h 28v -14a 14 14, 0, 0, 0, -14 -14" transform="rotate(-90,600,908)"/><path d="M 614 894v 28h 14a 14 14, 0, 0, 0, 0 -28" transform="rotate(0,628,908)"/><circle cx="712" cy="908" r="14" transform="rotate(0,712,908)"/><path d="M 754 894v 28h 14a 14 14, 0, 0, 0, 0 -28" transform="rotate(-90,768,908)"/><path d="M 810 894v 28h 14a 14 14, 0, 0, 0, 0 -28" transform="rotate(-90,824,908)"/><path d="M 922 894v 28h 28v -14a 14 14, 0, 0, 0, -14 -14" transform="rotate(-90,936,908)"/><rect x="950" y="894" width="28" height="28" transform="rotate(0,964,908)"/><rect x="978" y="894" width="28" height="28" transform="rotate(0,992,908)"/><rect x="1006" y="894" width="28" height="28" transform="rotate(0,1020,908)"/><path d="M 1062 894v 28h 14a 14 14, 0, 0, 0, 0 -28" transform="rotate(90,1076,908)"/><circle cx="1132" cy="908" r="14" transform="rotate(0,1132,908)"/><path d="M 26 922v 28h 14a 14 14, 0, 0, 0, 0 -28" transform="rotate(90,40,936)"/><path d="M 82 922v 28h 14a 14 14, 0, 0, 0, 0 -28" transform="rotate(90,96,936)"/><path d="M 138 922v 28h 14a 14 14, 0, 0, 0, 0 -28" transform="rotate(90,152,936)"/><path d="M 194 922v 28h 14a 14 14, 0, 0, 0, 0 -28" transform="rotate(180,208,936)"/><path d="M 222 922v 28h 14a 14 14, 0, 0, 0, 0 -28" transform="rotate(0,236,936)"/><path d="M 278 922v 28h 28v -14a 14 14, 0, 0, 0, -14 -14" transform="rotate(180,292,936)"/><rect x="306" y="922" width="28" height="28" transform="rotate(0,320,936)"/><rect x="334" y="922" width="28" height="28" transform="rotate(0,348,936)"/><path d="M 362 922v 28h 28v -14a 14 14, 0, 0, 0, -14 -14" transform="rotate(0,376,936)"/><path d="M 418 922v 28h 28v -14a 14 14, 0, 0, 0, -14 -14" transform="rotate(180,432,936)"/><rect x="446" y="922" width="28" height="28" transform="rotate(0,460,936)"/><rect x="474" y="922" width="28" height="28" transform="rotate(0,488,936)"/><rect x="502" y="922" width="28" height="28" transform="rotate(0,516,936)"/><path d="M 530 922v 28h 14a 14 14, 0, 0, 0, 0 -28" transform="rotate(0,544,936)"/><rect x="586" y="922" width="28" height="28" transform="rotate(0,600,936)"/><path d="M 642 922v 28h 14a 14 14, 0, 0, 0, 0 -28" transform="rotate(-90,656,936)"/><path d="M 726 922v 28h 28v -14a 14 14, 0, 0, 0, -14 -14" transform="rotate(-90,740,936)"/><path d="M 754 922v 28h 28v -14a 14 14, 0, 0, 0, -14 -14" transform="rotate(90,768,936)"/><rect x="810" y="922" width="28" height="28" transform="rotate(0,824,936)"/><path d="M 838 922v 28h 14a 14 14, 0, 0, 0, 0 -28" transform="rotate(0,852,936)"/><path d="M 894 922v 28h 28v -14a 14 14, 0, 0, 0, -14 -14" transform="rotate(-90,908,936)"/><rect x="922" y="922" width="28" height="28" transform="rotate(0,936,936)"/><rect x="950" y="922" width="28" height="28" transform="rotate(0,964,936)"/><rect x="978" y="922" width="28" height="28" transform="rotate(0,992,936)"/><rect x="1006" y="922" width="28" height="28" transform="rotate(0,1020,936)"/><path d="M 1034 922v 28h 28v -14a 14 14, 0, 0, 0, -14 -14" transform="rotate(0,1048,936)"/><circle cx="1104" cy="936" r="14" transform="rotate(0,1104,936)"/><path d="M 250 950v 28h 14a 14 14, 0, 0, 0, 0 -28" transform="rotate(-90,264,964)"/><path d="M 306 950v 28h 14a 14 14, 0, 0, 0, 0 -28" transform="rotate(90,320,964)"/><path d="M 362 950v 28h 28v -14a 14 14, 0, 0, 0, -14 -14" transform="rotate(180,376,964)"/><path d="M 390 950v 28h 28v -14a 14 14, 0, 0, 0, -14 -14" transform="rotate(0,404,964)"/><path d="M 446 950v 28h 14a 14 14, 0, 0, 0, 0 -28" transform="rotate(90,460,964)"/><path d="M 502 950v 28h 14a 14 14, 0, 0, 0, 0 -28" transform="rotate(90,516,964)"/><path d="M 586 950v 28h 28v -14a 14 14, 0, 0, 0, -14 -14" transform="rotate(180,600,964)"/><rect x="614" y="950" width="28" height="28" transform="rotate(0,628,964)"/><rect x="642" y="950" width="28" height="28" transform="rotate(0,656,964)"/><path d="M 670 950v 28h 14a 14 14, 0, 0, 0, 0 -28" transform="rotate(0,684,964)"/><rect x="726" y="950" width="28" height="28" transform="rotate(0,740,964)"/><path d="M 810 950v 28h 14a 14 14, 0, 0, 0, 0 -28" transform="rotate(90,824,964)"/><path d="M 866 950v 28h 28v -14a 14 14, 0, 0, 0, -14 -14" transform="rotate(-90,880,964)"/><rect x="894" y="950" width="28" height="28" transform="rotate(0,908,964)"/><rect x="922" y="950" width="28" height="28" transform="rotate(0,936,964)"/><rect x="1034" y="950" width="28" height="28" transform="rotate(0,1048,964)"/><path d="M 1062 950v 28h 14a 14 14, 0, 0, 0, 0 -28" transform="rotate(0,1076,964)"/><path d="M 1118 950v 28h 28v -14a 14 14, 0, 0, 0, -14 -14" transform="rotate(-90,1132,964)"/><path d="M 1146 950v 28h 14a 14 14, 0, 0, 0, 0 -28" transform="rotate(0,1160,964)"/><rect x="250" y="978" width="28" height="28" transform="rotate(0,264,992)"/><path d="M 278 978v 28h 14a 14 14, 0, 0, 0, 0 -28" transform="rotate(0,292,992)"/><circle cx="348" cy="992" r="14" transform="rotate(0,348,992)"/><path d="M 390 978v 28h 28v -14a 14 14, 0, 0, 0, -14 -14" transform="rotate(180,404,992)"/><path d="M 418 978v 28h 28v -14a 14 14, 0, 0, 0, -14 -14" transform="rotate(0,432,992)"/><path d="M 474 978v 28h 14a 14 14, 0, 0, 0, 0 -28" transform="rotate(-90,488,992)"/><path d="M 558 978v 28h 14a 14 14, 0, 0, 0, 0 -28" transform="rotate(-90,572,992)"/><rect x="614" y="978" width="28" height="28" transform="rotate(0,628,992)"/><rect x="726" y="978" width="28" height="28" transform="rotate(0,740,992)"/><rect x="754" y="978" width="28" height="28" transform="rotate(0,768,992)"/><path d="M 782 978v 28h 14a 14 14, 0, 0, 0, 0 -28" transform="rotate(0,796,992)"/><path d="M 866 978v 28h 28v -14a 14 14, 0, 0, 0, -14 -14" transform="rotate(180,880,992)"/><rect x="894" y="978" width="28" height="28" transform="rotate(0,908,992)"/><rect x="922" y="978" width="28" height="28" transform="rotate(0,936,992)"/><circle cx="992" cy="992" r="14" transform="rotate(0,992,992)"/><rect x="1034" y="978" width="28" height="28" transform="rotate(0,1048,992)"/><path d="M 1118 978v 28h 14a 14 14, 0, 0, 0, 0 -28" transform="rotate(90,1132,992)"/><rect x="250" y="1006" width="28" height="28" transform="rotate(0,264,1020)"/><circle cx="320" cy="1020" r="14" transform="rotate(0,320,1020)"/><path d="M 362 1006v 28h 14a 14 14, 0, 0, 0, 0 -28" transform="rotate(-90,376,1020)"/><path d="M 418 1006v 28h 14a 14 14, 0, 0, 0, 0 -28" transform="rotate(90,432,1020)"/><rect x="474" y="1006" width="28" height="28" transform="rotate(0,488,1020)"/><rect x="502" y="1006" width="28" height="28" transform="rotate(0,516,1020)"/><rect x="530" y="1006" width="28" height="28" transform="rotate(0,544,1020)"/><rect x="558" y="1006" width="28" height="28" transform="rotate(0,572,1020)"/><rect x="586" y="1006" width="28" height="28" transform="rotate(0,600,1020)"/><rect x="614" y="1006" width="28" height="28" transform="rotate(0,628,1020)"/><rect x="642" y="1006" width="28" height="28" transform="rotate(0,656,1020)"/><path d="M 670 1006v 28h 14a 14 14, 0, 0, 0, 0 -28" transform="rotate(0,684,1020)"/><path d="M 726 1006v 28h 14a 14 14, 0, 0, 0, 0 -28" transform="rotate(90,740,1020)"/><circle cx="824" cy="1020" r="14" transform="rotate(0,824,1020)"/><path d="M 894 1006v 28h 28v -14a 14 14, 0, 0, 0, -14 -14" transform="rotate(180,908,1020)"/><rect x="922" y="1006" width="28" height="28" transform="rotate(0,936,1020)"/><rect x="1034" y="1006" width="28" height="28" transform="rotate(0,1048,1020)"/><path d="M 1062 1006v 28h 14a 14 14, 0, 0, 0, 0 -28" transform="rotate(0,1076,1020)"/><rect x="250" y="1034" width="28" height="28" transform="rotate(0,264,1048)"/><path d="M 278 1034v 28h 28v -14a 14 14, 0, 0, 0, -14 -14" transform="rotate(0,292,1048)"/><path d="M 334 1034v 28h 14a 14 14, 0, 0, 0, 0 -28" transform="rotate(180,348,1048)"/><rect x="362" y="1034" width="28" height="28" transform="rotate(0,376,1048)"/><path d="M 446 1034v 28h 14a 14 14, 0, 0, 0, 0 -28" transform="rotate(180,460,1048)"/><rect x="474" y="1034" width="28" height="28" transform="rotate(0,488,1048)"/><rect x="502" y="1034" width="28" height="28" transform="rotate(0,516,1048)"/><path d="M 614 1034v 28h 28v -14a 14 14, 0, 0, 0, -14 -14" transform="rotate(180,628,1048)"/><path d="M 642 1034v 28h 28v -14a 14 14, 0, 0, 0, -14 -14" transform="rotate(90,656,1048)"/><circle cx="768" cy="1048" r="14" transform="rotate(0,768,1048)"/><circle cx="880" cy="1048" r="14" transform="rotate(0,880,1048)"/><path d="M 922 1034v 28h 28v -14a 14 14, 0, 0, 0, -14 -14" transform="rotate(180,936,1048)"/><rect x="950" y="1034" width="28" height="28" transform="rotate(0,964,1048)"/><rect x="978" y="1034" width="28" height="28" transform="rotate(0,992,1048)"/><rect x="1006" y="1034" width="28" height="28" transform="rotate(0,1020,1048)"/><path d="M 1034 1034v 28h 28v -14a 14 14, 0, 0, 0, -14 -14" transform="rotate(90,1048,1048)"/><path d="M 1090 1034v 28h 14a 14 14, 0, 0, 0, 0 -28" transform="rotate(180,1104,1048)"/><rect x="1118" y="1034" width="28" height="28" transform="rotate(0,1132,1048)"/><path d="M 1146 1034v 28h 28v -14a 14 14, 0, 0, 0, -14 -14" transform="rotate(0,1160,1048)"/><rect x="250" y="1062" width="28" height="28" transform="rotate(0,264,1076)"/><rect x="278" y="1062" width="28" height="28" transform="rotate(0,292,1076)"/><path d="M 306 1062v 28h 14a 14 14, 0, 0, 0, 0 -28" transform="rotate(0,320,1076)"/><path d="M 362 1062v 28h 14a 14 14, 0, 0, 0, 0 -28" transform="rotate(90,376,1076)"/><circle cx="432" cy="1076" r="14" transform="rotate(0,432,1076)"/><path d="M 474 1062v 28h 28v -14a 14 14, 0, 0, 0, -14 -14" transform="rotate(180,488,1076)"/><path d="M 502 1062v 28h 28v -14a 14 14, 0, 0, 0, -14 -14" transform="rotate(90,516,1076)"/><path d="M 586 1062v 28h 14a 14 14, 0, 0, 0, 0 -28" transform="rotate(-90,600,1076)"/><circle cx="684" cy="1076" r="14" transform="rotate(0,684,1076)"/><path d="M 810 1062v 28h 28v -14a 14 14, 0, 0, 0, -14 -14" transform="rotate(-90,824,1076)"/><path d="M 838 1062v 28h 14a 14 14, 0, 0, 0, 0 -28" transform="rotate(0,852,1076)"/><rect x="950" y="1062" width="28" height="28" transform="rotate(0,964,1076)"/><rect x="1006" y="1062" width="28" height="28" transform="rotate(0,1020,1076)"/><path d="M 1146 1062v 28h 14a 14 14, 0, 0, 0, 0 -28" transform="rotate(90,1160,1076)"/><rect x="250" y="1090" width="28" height="28" transform="rotate(0,264,1104)"/><rect x="278" y="1090" width="28" height="28" transform="rotate(0,292,1104)"/><path d="M 334 1090v 28h 14a 14 14, 0, 0, 0, 0 -28" transform="rotate(-90,348,1104)"/><circle cx="404" cy="1104" r="14" transform="rotate(0,404,1104)"/><path d="M 446 1090v 28h 14a 14 14, 0, 0, 0, 0 -28" transform="rotate(-90,460,1104)"/><path d="M 586 1090v 28h 14a 14 14, 0, 0, 0, 0 -28" transform="rotate(90,600,1104)"/><circle cx="656" cy="1104" r="14" transform="rotate(0,656,1104)"/><path d="M 726 1090v 28h 14a 14 14, 0, 0, 0, 0 -28" transform="rotate(180,740,1104)"/><rect x="754" y="1090" width="28" height="28" transform="rotate(0,768,1104)"/><rect x="782" y="1090" width="28" height="28" transform="rotate(0,796,1104)"/><path d="M 810 1090v 28h 28v -14a 14 14, 0, 0, 0, -14 -14" transform="rotate(90,824,1104)"/><path d="M 894 1090v 28h 14a 14 14, 0, 0, 0, 0 -28" transform="rotate(-90,908,1104)"/><path d="M 950 1090v 28h 28v -14a 14 14, 0, 0, 0, -14 -14" transform="rotate(180,964,1104)"/><rect x="978" y="1090" width="28" height="28" transform="rotate(0,992,1104)"/><rect x="1006" y="1090" width="28" height="28" transform="rotate(0,1020,1104)"/><rect x="1034" y="1090" width="28" height="28" transform="rotate(0,1048,1104)"/><rect x="1062" y="1090" width="28" height="28" transform="rotate(0,1076,1104)"/><rect x="1090" y="1090" width="28" height="28" transform="rotate(0,1104,1104)"/><path d="M 1118 1090v 28h 28v -14a 14 14, 0, 0, 0, -14 -14" transform="rotate(0,1132,1104)"/><path d="M 250 1118v 28h 28v -14a 14 14, 0, 0, 0, -14 -14" transform="rotate(180,264,1132)"/><rect x="278" y="1118" width="28" height="28" transform="rotate(0,292,1132)"/><rect x="306" y="1118" width="28" height="28" transform="rotate(0,320,1132)"/><path d="M 334 1118v 28h 28v -14a 14 14, 0, 0, 0, -14 -14" transform="rotate(90,348,1132)"/><path d="M 446 1118v 28h 28v -14a 14 14, 0, 0, 0, -14 -14" transform="rotate(180,460,1132)"/><rect x="474" y="1118" width="28" height="28" transform="rotate(0,488,1132)"/><path d="M 502 1118v 28h 28v -14a 14 14, 0, 0, 0, -14 -14" transform="rotate(0,516,1132)"/><path d="M 614 1118v 28h 14a 14 14, 0, 0, 0, 0 -28" transform="rotate(-90,628,1132)"/><path d="M 698 1118v 28h 14a 14 14, 0, 0, 0, 0 -28" transform="rotate(-90,712,1132)"/><path d="M 866 1118v 28h 14a 14 14, 0, 0, 0, 0 -28" transform="rotate(180,880,1132)"/><rect x="894" y="1118" width="28" height="28" transform="rotate(0,908,1132)"/><path d="M 922 1118v 28h 14a 14 14, 0, 0, 0, 0 -28" transform="rotate(0,936,1132)"/><rect x="978" y="1118" width="28" height="28" transform="rotate(0,992,1132)"/><rect x="1034" y="1118" width="28" height="28" transform="rotate(0,1048,1132)"/><path d="M 1062 1118v 28h 28v -14a 14 14, 0, 0, 0, -14 -14" transform="rotate(90,1076,1132)"/><path d="M 1118 1118v 28h 14a 14 14, 0, 0, 0, 0 -28" transform="rotate(90,1132,1132)"/><path d="M 278 1146v 28h 14a 14 14, 0, 0, 0, 0 -28" transform="rotate(90,292,1160)"/><path d="M 390 1146v 28h 14a 14 14, 0, 0, 0, 0 -28" transform="rotate(180,404,1160)"/><path d="M 418 1146v 28h 14a 14 14, 0, 0, 0, 0 -28" transform="rotate(0,432,1160)"/><path d="M 502 1146v 28h 14a 14 14, 0, 0, 0, 0 -28" transform="rotate(90,516,1160)"/><path d="M 586 1146v 28h 14a 14 14, 0, 0, 0, 0 -28" transform="rotate(180,600,1160)"/><path d="M 614 1146v 28h 28v -14a 14 14, 0, 0, 0, -14 -14" transform="rotate(90,628,1160)"/><path d="M 698 1146v 28h 28v -14a 14 14, 0, 0, 0, -14 -14" transform="rotate(180,712,1160)"/><rect x="726" y="1146" width="28" height="28" transform="rotate(0,740,1160)"/><rect x="754" y="1146" width="28" height="28" transform="rotate(0,768,1160)"/><rect x="782" y="1146" width="28" height="28" transform="rotate(0,796,1160)"/><rect x="810" y="1146" width="28" height="28" transform="rotate(0,824,1160)"/><path d="M 838 1146v 28h 14a 14 14, 0, 0, 0, 0 -28" transform="rotate(0,852,1160)"/><path d="M 894 1146v 28h 14a 14 14, 0, 0, 0, 0 -28" transform="rotate(90,908,1160)"/><path d="M 950 1146v 28h 14a 14 14, 0, 0, 0, 0 -28" transform="rotate(180,964,1160)"/><rect x="978" y="1146" width="28" height="28" transform="rotate(0,992,1160)"/><rect x="1006" y="1146" width="28" height="28" transform="rotate(0,1020,1160)"/><path d="M 1034 1146v 28h 28v -14a 14 14, 0, 0, 0, -14 -14" transform="rotate(90,1048,1160)"/><circle cx="1104" cy="1160" r="14" transform="rotate(0,1104,1160)"/></clipPath><clipPath id="clip-path-corners-square-color-0-0-37"><path clip-rule="evenodd" d="M 26 96v 56a 70 70, 0, 0, 0, 70 70h 56a 70 70, 0, 0, 0, 70 -70v -56a 70 70, 0, 0, 0, -70 -70h -56a 70 70, 0, 0, 0, -70 70M 96 54h 56a 42 42, 0, 0, 1, 42 42v 56a 42 42, 0, 0, 1, -42 42h -56a 42 42, 0, 0, 1, -42 -42v -56a 42 42, 0, 0, 1, 42 -42" transform="rotate(0,124,124)"/></clipPath><clipPath id="clip-path-corners-dot-color-0-0-37"><circle cx="124" cy="124" r="42" transform="rotate(0,124,124)"/></clipPath><clipPath id="clip-path-corners-square-color-1-0-37"><path clip-rule="evenodd" d="M 978 96v 56a 70 70, 0, 0, 0, 70 70h 56a 70 70, 0, 0, 0, 70 -70v -56a 70 70, 0, 0, 0, -70 -70h -56a 70 70, 0, 0, 0, -70 70M 1048 54h 56a 42 42, 0, 0, 1, 42 42v 56a 42 42, 0, 0, 1, -42 42h -56a 42 42, 0, 0, 1, -42 -42v -56a 42 42, 0, 0, 1, 42 -42" transform="rotate(90,1076,124)"/></clipPath><clipPath id="clip-path-corners-dot-color-1-0-37"><circle cx="1076" cy="124" r="42" transform="rotate(90,1076,124)"/></clipPath><clipPath id="clip-path-corners-square-color-0-1-37"><path clip-rule="evenodd" d="M 26 1048v 56a 70 70, 0, 0, 0, 70 70h 56a 70 70, 0, 0, 0, 70 -70v -56a 70 70, 0, 0, 0, -70 -70h -56a 70 70, 0, 0, 0, -70 70M 96 1006h 56a 42 42, 0, 0, 1, 42 42v 56a 42 42, 0, 0, 1, -42 42h -56a 42 42, 0, 0, 1, -42 -42v -56a 42 42, 0, 0, 1, 42 -42" transform="rotate(-90,124,1076)"/></clipPath><clipPath id="clip-path-corners-dot-color-0-1-37"><circle cx="124" cy="1076" r="42" transform="rotate(-90,124,1076)"/></clipPath></defs><rect x="0" y="0" height="1200" width="1200" clip-path="url('#clip-path-background-color-37')" fill="#ffffff"/><rect x="0" y="0" height="1200" width="1200" clip-path="url('#clip-path-dot-color-37')" fill="#000000"/><rect x="26" y="26" height="196" width="196" clip-path="url('#clip-path-corners-square-color-0-0-37')" fill="#000000"/><rect x="82" y="82" height="84" width="84" clip-path="url('#clip-path-corners-dot-color-0-0-37')" fill="#000000"/><rect x="978" y="26" height="196" width="196" clip-path="url('#clip-path-corners-square-color-1-0-37')" fill="#000000"/><rect x="1034" y="82" height="84" width="84" clip-path="url('#clip-path-corners-dot-color-1-0-37')" fill="#000000"/><rect x="26" y="978" height="196" width="196" clip-path="url('#clip-path-corners-square-color-0-1-37')" fill="#000000"/><rect x="82" y="1034" height="84" width="84" clip-path="url('#clip-path-corners-dot-color-0-1-37')" fill="#000000"/></svg>