<?xml version="1.0" standalone="no"?>
<svg xmlns="http://www.w3.org/2000/svg" width="1200" height="1200" xmlns:xlink="http://www.w3.org/1999/xlink" viewBox="0 0 1200 1200"><defs><clipPath id="clip-path-background-color-80"><rect x="0" y="0" width="1200" height="1200"/></clipPath><clipPath id="clip-path-dot-color-80"><path d="M 296 8v 32h 16a 16 16, 0, 0, 0, 0 -32" transform="rotate(180,312,24)"/><path d="M 328 8v 32h 16a 16 16, 0, 0, 0, 0 -32" transform="rotate(0,344,24)"/><path d="M 584 8v 32h 16a 16 16, 0, 0, 0, 0 -32" transform="rotate(-90,600,24)"/><path d="M 648 8v 32h 16a 16 16, 0, 0, 0, 0 -32" transform="rotate(180,664,24)"/><rect x="680" y="8" width="32" height="32" transform="rotate(0,696,24)"/><rect x="712" y="8" width="32" height="32" transform="rotate(0,728,24)"/><path d="M 744 8v 32h 32v -16a 16 16, 0, 0, 0, -16 -16" transform="rotate(0,760,24)"/><path d="M 808 8v 32h 16a 16 16, 0, 0, 0, 0 -32" transform="rotate(180,824,24)"/><path d="M 840 8v 32h 32v -16a 16 16, 0, 0, 0, -16 -16" transform="rotate(0,856,24)"/><path d="M 904 8v 32h 16a 16 16, 0, 0, 0, 0 -32" transform="rotate(-90,920,24)"/><circle cx="280" cy="56" r="16" transform="rotate(0,280,56)"/><path d="M 392 40v 32h 16a 16 16, 0, 0, 0, 0 -32" transform="rotate(180,408,56)"/><path d="M 424 40v 32h 16a 16 16, 0, 0, 0, 0 -32" transform="rotate(0,440,56)"/><path d="M 488 40v 32h 16a 16 16, 0, 0, 0, 0 -32" transform="rotate(-90,504,56)"/><path d="M 552 40v 32h 16a 16 16, 0, 0, 0, 0 -32" transform="rotate(180,568,56)"/><rect x="584" y="40" width="32" height="32" transform="rotate(0,600,56)"/><path d="M 616 40v 32h 16a 16 16, 0, 0, 0, 0 -32" transform="rotate(0,632,56)"/><rect x="712" y="40" width="32" height="32" transform="rotate(0,728,56)"/><rect x="744" y="40" width="32" height="32" transform="rotate(0,760,56)"/><path d="M 776 40v 32h 16a 16 16, 0, 0, 0, 0 -32" transform="rotate(0,792,56)"/><path d="M 840 40v 32h 16a 16 16, 0, 0, 0, 0 -32" transform="rotate(90,856,56)"/><path d="M 904 40v 32h 16a 16 16, 0, 0, 0, 0 -32" transform="rotate(90,920,56)"/><rect x="488" y="72" width="32" height="32" transform="rotate(0,504,88)"/><path d="M 520 72v 32h 32v -16a 16 16, 0, 0, 0, -16 -16" transform="rotate(0,536,88)"/><path d="M 680 72v 32h 32v -16a 16 16, 0, 0, 0, -16 -16" transform="rotate(-90,696,88)"/><rect x="712" y="72" width="32" height="32" transform="rotate(0,728,88)"/><rect x="744" y="72" width="32" height="32" transform="rotate(0,760,88)"/><path d="M 808 72v 32h 16a 16 16, 0, 0, 0, 0 -32" transform="rotate(-90,824,88)"/><path d="M 872 72v 32h 16a 16 16, 0, 0, 0, 0 -32" transform="rotate(-90,888,88)"/><path d="M 264 104v 32h 32v -16a 16 16, 0, 0, 0, -16 -16" transform="rotate(-90,280,120)"/><path d="M 296 104v 32h 16a 16 16, 0, 0, 0, 0 -32" transform="rotate(0,312,120)"/><path d="M 360 104v 32h 16a 16 16, 0, 0, 0, 0 -32" transform="rotate(180,376,120)"/><rect x="392" y="104" width="32" height="32" transform="rotate(0,408,120)"/><path d="M 424 104v 32h 32v -16a 16 16, 0, 0, 0, -16 -16" transform="rotate(0,440,120)"/><rect x="488" y="104" width="32" height="32" transform="rotate(0,504,120)"/><rect x="520" y="104" width="32" height="32" transform="rotate(0,536,120)"/><rect x="552" y="104" width="32" height="32" transform="rotate(0,568,120)"/><path d="M 584 104v 32h 16a 16 16, 0, 0, 0, 0 -32" transform="rotate(0,600,120)"/><path d="M 648 104v 32h 16a 16 16, 0, 0, 0, 0 -32" transform="rotate(180,664,120)"/><rect x="680" y="104" width="32" height="32" transform="rotate(0,696,120)"/><path d="M 744 104v 32h 16a 16 16, 0, 0, 0, 0 -32" transform="rotate(90,760,120)"/><rect x="808" y="104" width="32" height="32" transform="rotate(0,824,120)"/><path d="M 872 104v 32h 32v -16a 16 16, 0, 0, 0, -16 -16" transform="rotate(180,888,120)"/><path d="M 904 104v 32h 16a 16 16, 0, 0, 0, 0 -32" transform="rotate(0,920,120)"/><path d="M 264 136v 32h 16a 16 16, 0, 0, 0, 0 -32" transform="rotate(90,280,152)"/><path d="M 328 136v 32h 16a 16 16, 0, 0, 0, 0 -32" transform="rotate(-90,344,152)"/><path d="M 424 136v 32h 32v -16a 16 16, 0, 0, 0, -16 -16" transform="rotate(180,440,152)"/><rect x="456" y="136" width="32" height="32" transform="rotate(0,472,152)"/><rect x="488" y="136" width="32" height="32" transform="rotate(0,504,152)"/><rect x="520" y="136" width="32" height="32" transform="rotate(0,536,152)"/><circle cx="632" cy="152" r="16" transform="rotate(0,632,152)"/><path d="M 680 136v 32h 32v -16a 16 16, 0, 0, 0, -16 -16" transform="rotate(180,696,152)"/><path d="M 712 136v 32h 16a 16 16, 0, 0, 0, 0 -32" transform="rotate(0,728,152)"/><rect x="808" y="136" width="32" height="32" transform="rotate(0,824,152)"/><path d="M 296 168v 32h 16a 16 16, 0, 0, 0, 0 -32" transform="rotate(180,312,184)"/><rect x="328" y="168" width="32" height="32" transform="rotate(0,344,184)"/><path d="M 392 168v 32h 16a 16 16, 0, 0, 0, 0 -32" transform="rotate(-90,408,184)"/><rect x="456" y="168" width="32" height="32" transform="rotate(0,472,184)"/><rect x="520" y="168" width="32" height="32" transform="rotate(0,536,184)"/><path d="M 584 168v 32h 16a 16 16, 0, 0, 0, 0 -32" transform="rotate(-90,600,184)"/><path d="M 648 168v 32h 16a 16 16, 0, 0, 0, 0 -32" transform="rotate(-90,664,184)"/><circle cx="760" cy="184" r="16" transform="rotate(0,760,184)"/><path d="M 808 168v 32h 32v -16a 16 16, 0, 0, 0, -16 -16" transform="rotate(180,824,184)"/><path d="M 840 168v 32h 32v -16a 16 16, 0, 0, 0, -16 -16" transform="rotate(0,856,184)"/><path d="M 264 200v 32h 16a 16 16, 0, 0, 0, 0 -32" transform="rotate(-90,280,216)"/><path d="M 328 200v 32h 16a 16 16, 0, 0, 0, 0 -32" transform="rotate(90,344,216)"/><path d="M 392 200v 32h 16a 16 16, 0, 0, 0, 0 -32" transform="rotate(90,408,216)"/><path d="M 456 200v 32h 16a 16 16, 0, 0, 0, 0 -32" transform="rotate(90,472,216)"/><rect x="520" y="200" width="32" height="32" transform="rotate(0,536,216)"/><rect x="584" y="200" width="32" height="32" transform="rotate(0,600,216)"/><path d="M 648 200v 32h 16a 16 16, 0, 0, 0, 0 -32" transform="rotate(90,664,216)"/><path d="M 712 200v 32h 16a 16 16, 0, 0, 0, 0 -32" transform="rotate(-90,728,216)"/><circle cx="792" cy="216" r="16" transform="rotate(0,792,216)"/><rect x="840" y="200" width="32" height="32" transform="rotate(0,856,216)"/><path d="M 904 200v 32h 16a 16 16, 0, 0, 0, 0 -32" transform="rotate(-90,920,216)"/><rect x="264" y="232" width="32" height="32" transform="rotate(0,280,248)"/><path d="M 424 232v 32h 16a 16 16, 0, 0, 0, 0 -32" transform="rotate(-90,440,248)"/><path d="M 488 232v 32h 32v -16a 16 16, 0, 0, 0, -16 -16" transform="rotate(-90,504,248)"/><rect x="520" y="232" width="32" height="32" transform="rotate(0,536,248)"/><rect x="584" y="232" width="32" height="32" transform="rotate(0,600,248)"/><path d="M 712 232v 32h 16a 16 16, 0, 0, 0, 0 -32" transform="rotate(90,728,248)"/><rect x="840" y="232" width="32" height="32" transform="rotate(0,856,248)"/><rect x="872" y="232" width="32" height="32" transform="rotate(0,888,248)"/><rect x="904" y="232" width="32" height="32" transform="rotate(0,920,248)"/><circle cx="56" cy="280" r="16" transform="rotate(0,56,280)"/><path d="M 104 264v 32h 16a 16 16, 0, 0, 0, 0 -32" transform="rotate(180,120,280)"/><rect x="136" y="264" width="32" height="32" transform="rotate(0,152,280)"/><rect x="168" y="264" width="32" height="32" transform="rotate(0,184,280)"/><path d="M 200 264v 32h 16a 16 16, 0, 0, 0, 0 -32" transform="rotate(0,216,280)"/><path d="M 264 264v 32h 16a 16 16, 0, 0, 0, 0 -32" transform="rotate(90,280,280)"/><path d="M 328 264v 32h 16a 16 16, 0, 0, 0, 0 -32" transform="rotate(180,344,280)"/><rect x="360" y="264" width="32" height="32" transform="rotate(0,376,280)"/><rect x="392" y="264" width="32" height="32" transform="rotate(0,408,280)"/><rect x="424" y="264" width="32" height="32" transform="rotate(0,440,280)"/><rect x="456" y="264" width="32" height="32" transform="rotate(0,472,280)"/><rect x="488" y="264" width="32" height="32" transform="rotate(0,504,280)"/><rect x="520" y="264" width="32" height="32" transform="rotate(0,536,280)"/><rect x="552" y="264" width="32" height="32" transform="rotate(0,568,280)"/><path d="M 584 264v 32h 32v -16a 16 16, 0, 0, 0, -16 -16" transform="rotate(90,600,280)"/><path d="M 648 264v 32h 16a 16 16, 0, 0, 0, 0 -32" transform="rotate(-90,664,280)"/><path d="M 776 264v 32h 16a 16 16, 0, 0, 0, 0 -32" transform="rotate(180,792,280)"/><rect x="808" y="264" width="32" height="32" transform="rotate(0,824,280)"/><rect x="840" y="264" width="32" height="32" transform="rotate(0,856,280)"/><rect x="904" y="264" width="32" height="32" transform="rotate(0,920,280)"/><rect x="936" y="264" width="32" height="32" transform="rotate(0,952,280)"/><path d="M 968 264v 32h 16a 16 16, 0, 0, 0, 0 -32" transform="rotate(0,984,280)"/><path d="M 1032 264v 32h 32v -16a 16 16, 0, 0, 0, -16 -16" transform="rotate(-90,1048,280)"/><path d="M 1064 264v 32h 16a 16 16, 0, 0, 0, 0 -32" transform="rotate(0,1080,280)"/><circle cx="1144" cy="280" r="16" transform="rotate(0,1144,280)"/><path d="M 72 296v 32h 16a 16 16, 0, 0, 0, 0 -32" transform="rotate(-90,88,312)"/><circle cx="248" cy="312" r="16" transform="rotate(0,248,312)"/><circle cx="312" cy="312" r="16" transform="rotate(0,312,312)"/><rect x="360" y="296" width="32" height="32" transform="rotate(0,376,312)"/><rect x="424" y="296" width="32" height="32" transform="rotate(0,440,312)"/><path d="M 456 296v 32h 32v -16a 16 16, 0, 0, 0, -16 -16" transform="rotate(90,472,312)"/><path d="M 616 296v 32h 32v -16a 16 16, 0, 0, 0, -16 -16" transform="rotate(-90,632,312)"/><path d="M 648 296v 32h 32v -16a 16 16, 0, 0, 0, -16 -16" transform="rotate(90,664,312)"/><path d="M 744 296v 32h 16a 16 16, 0, 0, 0, 0 -32" transform="rotate(-90,760,312)"/><rect x="808" y="296" width="32" height="32" transform="rotate(0,824,312)"/><path d="M 840 296v 32h 32v -16a 16 16, 0, 0, 0, -16 -16" transform="rotate(90,856,312)"/><path d="M 904 296v 32h 16a 16 16, 0, 0, 0, 0 -32" transform="rotate(90,920,312)"/><path d="M 1000 296v 32h 32v -16a 16 16, 0, 0, 0, -16 -16" transform="rotate(-90,1016,312)"/><rect x="1032" y="296" width="32" height="32" transform="rotate(0,1048,312)"/><path d="M 1096 296v 32h 16a 16 16, 0, 0, 0, 0 -32" transform="rotate(-90,1112,312)"/><path d="M 40 328v 32h 16a 16 16, 0, 0, 0, 0 -32" transform="rotate(180,56,344)"/><rect x="72" y="328" width="32" height="32" transform="rotate(0,88,344)"/><path d="M 104 328v 32h 32v -16a 16 16, 0, 0, 0, -16 -16" transform="rotate(0,120,344)"/><path d="M 168 328v 32h 16a 16 16, 0, 0, 0, 0 -32" transform="rotate(180,184,344)"/><path d="M 200 328v 32h 16a 16 16, 0, 0, 0, 0 -32" transform="rotate(0,216,344)"/><rect x="360" y="328" width="32" height="32" transform="rotate(0,376,344)"/><path d="M 424 328v 32h 16a 16 16, 0, 0, 0, 0 -32" transform="rotate(90,440,344)"/><circle cx="568" cy="344" r="16" transform="rotate(0,568,344)"/><path d="M 616 328v 32h 16a 16 16, 0, 0, 0, 0 -32" transform="rotate(90,632,344)"/><path d="M 744 328v 32h 16a 16 16, 0, 0, 0, 0 -32" transform="rotate(90,760,344)"/><path d="M 808 328v 32h 16a 16 16, 0, 0, 0, 0 -32" transform="rotate(90,824,344)"/><path d="M 872 328v 32h 16a 16 16, 0, 0, 0, 0 -32" transform="rotate(-90,888,344)"/><path d="M 936 328v 32h 32v -16a 16 16, 0, 0, 0, -16 -16" transform="rotate(-90,952,344)"/><rect x="968" y="328" width="32" height="32" transform="rotate(0,984,344)"/><rect x="1000" y="328" width="32" height="32" transform="rotate(0,1016,344)"/><path d="M 1032 328v 32h 32v -16a 16 16, 0, 0, 0, -16 -16" transform="rotate(90,1048,344)"/><rect x="1096" y="328" width="32" height="32" transform="rotate(0,1112,344)"/><circle cx="1176" cy="344" r="16" transform="rotate(0,1176,344)"/><circle cx="24" cy="376" r="16" transform="rotate(0,24,376)"/><rect x="104" y="360" width="32" height="32" transform="rotate(0,120,376)"/><path d="M 264 360v 32h 32v -16a 16 16, 0, 0, 0, -16 -16" transform="rotate(-90,280,376)"/><rect x="296" y="360" width="32" height="32" transform="rotate(0,312,376)"/><rect x="328" y="360" width="32" height="32" transform="rotate(0,344,376)"/><rect x="360" y="360" width="32" height="32" transform="rotate(0,376,376)"/><path d="M 392 360v 32h 16a 16 16, 0, 0, 0, 0 -32" transform="rotate(0,408,376)"/><path d="M 456 360v 32h 16a 16 16, 0, 0, 0, 0 -32" transform="rotate(180,472,376)"/><rect x="488" y="360" width="32" height="32" transform="rotate(0,504,376)"/><path d="M 520 360v 32h 16a 16 16, 0, 0, 0, 0 -32" transform="rotate(0,536,376)"/><circle cx="600" cy="376" r="16" transform="rotate(0,600,376)"/><circle cx="664" cy="376" r="16" transform="rotate(0,664,376)"/><circle cx="728" cy="376" r="16" transform="rotate(0,728,376)"/><circle cx="792" cy="376" r="16" transform="rotate(0,792,376)"/><path d="M 840 360v 32h 16a 16 16, 0, 0, 0, 0 -32" transform="rotate(180,856,376)"/><rect x="872" y="360" width="32" height="32" transform="rotate(0,888,376)"/><rect x="904" y="360" width="32" height="32" transform="rotate(0,920,376)"/><rect x="936" y="360" width="32" height="32" transform="rotate(0,952,376)"/><rect x="968" y="360" width="32" height="32" transform="rotate(0,984,376)"/><rect x="1000" y="360" width="32" height="32" transform="rotate(0,1016,376)"/><path d="M 1096 360v 32h 16a 16 16, 0, 0, 0, 0 -32" transform="rotate(90,1112,376)"/><path d="M 40 392v 32h 16a 16 16, 0, 0, 0, 0 -32" transform="rotate(180,56,408)"/><rect x="72" y="392" width="32" height="32" transform="rotate(0,88,408)"/><rect x="104" y="392" width="32" height="32" transform="rotate(0,120,408)"/><path d="M 136 392v 32h 16a 16 16, 0, 0, 0, 0 -32" transform="rotate(0,152,408)"/><path d="M 200 392v 32h 16a 16 16, 0, 0, 0, 0 -32" transform="rotate(180,216,408)"/><rect x="232" y="392" width="32" height="32" transform="rotate(0,248,408)"/><rect x="264" y="392" width="32" height="32" transform="rotate(0,280,408)"/><path d="M 328 392v 32h 16a 16 16, 0, 0, 0, 0 -32" transform="rotate(90,344,408)"/><path d="M 488 392v 32h 16a 16 16, 0, 0, 0, 0 -32" transform="rotate(90,504,408)"/><path d="M 616 392v 32h 16a 16 16, 0, 0, 0, 0 -32" transform="rotate(-90,632,408)"/><path d="M 744 392v 32h 16a 16 16, 0, 0, 0, 0 -32" transform="rotate(-90,760,408)"/><rect x="904" y="392" width="32" height="32" transform="rotate(0,920,408)"/><path d="M 968 392v 32h 32v -16a 16 16, 0, 0, 0, -16 -16" transform="rotate(180,984,408)"/><rect x="1000" y="392" width="32" height="32" transform="rotate(0,1016,408)"/><circle cx="1080" cy="408" r="16" transform="rotate(0,1080,408)"/><path d="M 1128 392v 32h 16a 16 16, 0, 0, 0, 0 -32" transform="rotate(180,1144,408)"/><path d="M 1160 392v 32h 16a 16 16, 0, 0, 0, 0 -32" transform="rotate(0,1176,408)"/><rect x="104" y="424" width="32" height="32" transform="rotate(0,120,440)"/><rect x="232" y="424" width="32" height="32" transform="rotate(0,248,440)"/><path d="M 264 424v 32h 32v -16a 16 16, 0, 0, 0, -16 -16" transform="rotate(90,280,440)"/><circle cx="376" cy="440" r="16" transform="rotate(0,376,440)"/><path d="M 424 424v 32h 16a 16 16, 0, 0, 0, 0 -32" transform="rotate(-90,440,440)"/><path d="M 520 424v 32h 32v -16a 16 16, 0, 0, 0, -16 -16" transform="rotate(-90,536,440)"/><rect x="552" y="424" width="32" height="32" transform="rotate(0,568,440)"/><rect x="584" y="424" width="32" height="32" transform="rotate(0,600,440)"/><rect x="616" y="424" width="32" height="32" transform="rotate(0,632,440)"/><path d="M 648 424v 32h 32v -16a 16 16, 0, 0, 0, -16 -16" transform="rotate(0,664,440)"/><path d="M 744 424v 32h 16a 16 16, 0, 0, 0, 0 -32" transform="rotate(90,760,440)"/><path d="M 840 424v 32h 32v -16a 16 16, 0, 0, 0, -16 -16" transform="rotate(-90,856,440)"/><rect x="872" y="424" width="32" height="32" transform="rotate(0,888,440)"/><rect x="904" y="424" width="32" height="32" transform="rotate(0,920,440)"/><path d="M 936 424v 32h 32v -16a 16 16, 0, 0, 0, -16 -16" transform="rotate(0,952,440)"/><rect x="1000" y="424" width="32" height="32" transform="rotate(0,1016,440)"/><path d="M 1032 424v 32h 16a 16 16, 0, 0, 0, 0 -32" transform="rotate(0,1048,440)"/><path d="M 1096 424v 32h 16a 16 16, 0, 0, 0, 0 -32" transform="rotate(-90,1112,440)"/><path d="M 8 456v 32h 16a 16 16, 0, 0, 0, 0 -32" transform="rotate(180,24,472)"/><rect x="40" y="456" width="32" height="32" transform="rotate(0,56,472)"/><rect x="72" y="456" width="32" height="32" transform="rotate(0,88,472)"/><path d="M 104 456v 32h 32v -16a 16 16, 0, 0, 0, -16 -16" transform="rotate(90,120,472)"/><path d="M 168 456v 32h 16a 16 16, 0, 0, 0, 0 -32" transform="rotate(180,184,472)"/><rect x="200" y="456" width="32" height="32" transform="rotate(0,216,472)"/><path d="M 232 456v 32h 32v -16a 16 16, 0, 0, 0, -16 -16" transform="rotate(90,248,472)"/><path d="M 328 456v 32h 16a 16 16, 0, 0, 0, 0 -32" transform="rotate(-90,344,472)"/><path d="M 392 456v 32h 16a 16 16, 0, 0, 0, 0 -32" transform="rotate(180,408,472)"/><rect x="424" y="456" width="32" height="32" transform="rotate(0,440,472)"/><path d="M 456 456v 32h 16a 16 16, 0, 0, 0, 0 -32" transform="rotate(0,472,472)"/><path d="M 520 456v 32h 16a 16 16, 0, 0, 0, 0 -32" transform="rotate(90,536,472)"/><path d="M 616 456v 32h 32v -16a 16 16, 0, 0, 0, -16 -16" transform="rotate(180,632,472)"/><rect x="648" y="456" width="32" height="32" transform="rotate(0,664,472)"/><rect x="680" y="456" width="32" height="32" transform="rotate(0,696,472)"/><path d="M 712 456v 32h 16a 16 16, 0, 0, 0, 0 -32" transform="rotate(0,728,472)"/><circle cx="792" cy="472" r="16" transform="rotate(0,792,472)"/><path d="M 840 456v 32h 32v -16a 16 16, 0, 0, 0, -16 -16" transform="rotate(180,856,472)"/><rect x="872" y="456" width="32" height="32" transform="rotate(0,888,472)"/><path d="M 936 456v 32h 16a 16 16, 0, 0, 0, 0 -32" transform="rotate(90,952,472)"/><rect x="1000" y="456" width="32" height="32" transform="rotate(0,1016,472)"/><path d="M 1064 456v 32h 32v -16a 16 16, 0, 0, 0, -16 -16" transform="rotate(-90,1080,472)"/><rect x="1096" y="456" width="32" height="32" transform="rotate(0,1112,472)"/><rect x="1128" y="456" width="32" height="32" transform="rotate(0,1144,472)"/><path d="M 1160 456v 32h 32v -16a 16 16, 0, 0, 0, -16 -16" transform="rotate(0,1176,472)"/><rect x="72" y="488" width="32" height="32" transform="rotate(0,88,504)"/><path d="M 264 488v 32h 32v -16a 16 16, 0, 0, 0, -16 -16" transform="rotate(-90,280,504)"/><rect x="296" y="488" width="32" height="32" transform="rotate(0,312,504)"/><rect x="328" y="488" width="32" height="32" transform="rotate(0,344,504)"/><path d="M 360 488v 32h 32v -16a 16 16, 0, 0, 0, -16 -16" transform="rotate(0,376,504)"/><path d="M 552 488v 32h 16a 16 16, 0, 0, 0, 0 -32" transform="rotate(180,568,504)"/><path d="M 584 488v 32h 16a 16 16, 0, 0, 0, 0 -32" transform="rotate(0,600,504)"/><rect x="648" y="488" width="32" height="32" transform="rotate(0,664,504)"/><path d="M 872 488v 32h 16a 16 16, 0, 0, 0, 0 -32" transform="rotate(90,888,504)"/><path d="M 1000 488v 32h 32v -16a 16 16, 0, 0, 0, -16 -16" transform="rotate(180,1016,504)"/><rect x="1032" y="488" width="32" height="32" transform="rotate(0,1048,504)"/><rect x="1064" y="488" width="32" height="32" transform="rotate(0,1080,504)"/><rect x="1096" y="488" width="32" height="32" transform="rotate(0,1112,504)"/><rect x="1128" y="488" width="32" height="32" transform="rotate(0,1144,504)"/><rect x="1160" y="488" width="32" height="32" transform="rotate(0,1176,504)"/><rect x="72" y="520" width="32" height="32" transform="rotate(0,88,536)"/><circle cx="152" cy="536" r="16" transform="rotate(0,152,536)"/><path d="M 200 520v 32h 16a 16 16, 0, 0, 0, 0 -32" transform="rotate(180,216,536)"/><rect x="232" y="520" width="32" height="32" transform="rotate(0,248,536)"/><rect x="264" y="520" width="32" height="32" transform="rotate(0,280,536)"/><rect x="360" y="520" width="32" height="32" transform="rotate(0,376,536)"/><path d="M 616 520v 32h 32v -16a 16 16, 0, 0, 0, -16 -16" transform="rotate(-90,632,536)"/><rect x="648" y="520" width="32" height="32" transform="rotate(0,664,536)"/><path d="M 680 520v 32h 16a 16 16, 0, 0, 0, 0 -32" transform="rotate(0,696,536)"/><circle cx="824" cy="536" r="16" transform="rotate(0,824,536)"/><circle cx="984" cy="536" r="16" transform="rotate(0,984,536)"/><rect x="1096" y="520" width="32" height="32" transform="rotate(0,1112,536)"/><path d="M 1160 520v 32h 16a 16 16, 0, 0, 0, 0 -32" transform="rotate(90,1176,536)"/><path d="M 8 552v 32h 16a 16 16, 0, 0, 0, 0 -32" transform="rotate(-90,24,568)"/><path d="M 72 552v 32h 32v -16a 16 16, 0, 0, 0, -16 -16" transform="rotate(180,88,568)"/><path d="M 104 552v 32h 16a 16 16, 0, 0, 0, 0 -32" transform="rotate(0,120,568)"/><path d="M 232 552v 32h 32v -16a 16 16, 0, 0, 0, -16 -16" transform="rotate(180,248,568)"/><rect x="264" y="552" width="32" height="32" transform="rotate(0,280,568)"/><path d="M 296 552v 32h 16a 16 16, 0, 0, 0, 0 -32" transform="rotate(0,312,568)"/><rect x="360" y="552" width="32" height="32" transform="rotate(0,376,568)"/><path d="M 392 552v 32h 16a 16 16, 0, 0, 0, 0 -32" transform="rotate(0,408,568)"/><path d="M 488 552v 32h 32v -16a 16 16, 0, 0, 0, -16 -16" transform="rotate(-90,504,568)"/><rect x="520" y="552" width="32" height="32" transform="rotate(0,536,568)"/><path d="M 552 552v 32h 16a 16 16, 0, 0, 0, 0 -32" transform="rotate(0,568,568)"/><rect x="616" y="552" width="32" height="32" transform="rotate(0,632,568)"/><rect x="648" y="552" width="32" height="32" transform="rotate(0,664,568)"/><path d="M 744 552v 32h 32v -16a 16 16, 0, 0, 0, -16 -16" transform="rotate(-90,760,568)"/><path d="M 776 552v 32h 16a 16 16, 0, 0, 0, 0 -32" transform="rotate(0,792,568)"/><path d="M 872 552v 32h 16a 16 16, 0, 0, 0, 0 -32" transform="rotate(-90,888,568)"/><circle cx="952" cy="568" r="16" transform="rotate(0,952,568)"/><path d="M 1064 552v 32h 32v -16a 16 16, 0, 0, 0, -16 -16" transform="rotate(-90,1080,568)"/><rect x="1096" y="552" width="32" height="32" transform="rotate(0,1112,568)"/><path d="M 1128 552v 32h 16a 16 16, 0, 0, 0, 0 -32" transform="rotate(0,1144,568)"/><path d="M 8 584v 32h 32v -16a 16 16, 0, 0, 0, -16 -16" transform="rotate(180,24,600)"/><path d="M 40 584v 32h 32v -16a 16 16, 0, 0, 0, -16 -16" transform="rotate(0,56,600)"/><circle cx="152" cy="600" r="16" transform="rotate(0,152,600)"/><circle cx="216" cy="600" r="16" transform="rotate(0,216,600)"/><rect x="264" y="584" width="32" height="32" transform="rotate(0,280,600)"/><path d="M 360 584v 32h 16a 16 16, 0, 0, 0, 0 -32" transform="rotate(90,376,600)"/><path d="M 456 584v 32h 32v -16a 16 16, 0, 0, 0, -16 -16" transform="rotate(-90,472,600)"/><path d="M 488 584v 32h 32v -16a 16 16, 0, 0, 0, -16 -16" transform="rotate(90,504,600)"/><rect x="616" y="584" width="32" height="32" transform="rotate(0,632,600)"/><rect x="648" y="584" width="32" height="32" transform="rotate(0,664,600)"/><path d="M 680 584v 32h 16a 16 16, 0, 0, 0, 0 -32" transform="rotate(0,696,600)"/><path d="M 744 584v 32h 16a 16 16, 0, 0, 0, 0 -32" transform="rotate(90,760,600)"/><path d="M 840 584v 32h 16a 16 16, 0, 0, 0, 0 -32" transform="rotate(180,856,600)"/><rect x="872" y="584" width="32" height="32" transform="rotate(0,888,600)"/><path d="M 1032 584v 32h 16a 16 16, 0, 0, 0, 0 -32" transform="rotate(180,1048,600)"/><rect x="1064" y="584" width="32" height="32" transform="rotate(0,1080,600)"/><path d="M 1160 584v 32h 16a 16 16, 0, 0, 0, 0 -32" transform="rotate(-90,1176,600)"/><rect x="40" y="616" width="32" height="32" transform="rotate(0,56,632)"/><path d="M 104 616v 32h 16a 16 16, 0, 0, 0, 0 -32" transform="rotate(-90,120,632)"/><circle cx="184" cy="632" r="16" transform="rotate(0,184,632)"/><path d="M 232 616v 32h 16a 16 16, 0, 0, 0, 0 -32" transform="rotate(180,248,632)"/><path d="M 264 616v 32h 32v -16a 16 16, 0, 0, 0, -16 -16" transform="rotate(90,280,632)"/><circle cx="344" cy="632" r="16" transform="rotate(0,344,632)"/><rect x="456" y="616" width="32" height="32" transform="rotate(0,472,632)"/><path d="M 520 616v 32h 16a 16 16, 0, 0, 0, 0 -32" transform="rotate(-90,536,632)"/><rect x="616" y="616" width="32" height="32" transform="rotate(0,632,632)"/><circle cx="728" cy="632" r="16" transform="rotate(0,728,632)"/><path d="M 776 616v 32h 16a 16 16, 0, 0, 0, 0 -32" transform="rotate(180,792,632)"/><path d="M 808 616v 32h 16a 16 16, 0, 0, 0, 0 -32" transform="rotate(0,824,632)"/><path d="M 872 616v 32h 32v -16a 16 16, 0, 0, 0, -16 -16" transform="rotate(180,888,632)"/><rect x="904" y="616" width="32" height="32" transform="rotate(0,920,632)"/><rect x="936" y="616" width="32" height="32" transform="rotate(0,952,632)"/><rect x="968" y="616" width="32" height="32" transform="rotate(0,984,632)"/><path d="M 1000 616v 32h 16a 16 16, 0, 0, 0, 0 -32" transform="rotate(0,1016,632)"/><rect x="1064" y="616" width="32" height="32" transform="rotate(0,1080,632)"/><rect x="1160" y="616" width="32" height="32" transform="rotate(0,1176,632)"/><path d="M 40 648v 32h 16a 16 16, 0, 0, 0, 0 -32" transform="rotate(90,56,664)"/><rect x="104" y="648" width="32" height="32" transform="rotate(0,120,664)"/><path d="M 136 648v 32h 16a 16 16, 0, 0, 0, 0 -32" transform="rotate(0,152,664)"/><circle cx="216" cy="664" r="16" transform="rotate(0,216,664)"/><circle cx="312" cy="664" r="16" transform="rotate(0,312,664)"/><circle cx="408" cy="664" r="16" transform="rotate(0,408,664)"/><rect x="456" y="648" width="32" height="32" transform="rotate(0,472,664)"/><rect x="488" y="648" width="32" height="32" transform="rotate(0,504,664)"/><rect x="520" y="648" width="32" height="32" transform="rotate(0,536,664)"/><path d="M 552 648v 32h 32v -16a 16 16, 0, 0, 0, -16 -16" transform="rotate(0,568,664)"/><path d="M 616 648v 32h 16a 16 16, 0, 0, 0, 0 -32" transform="rotate(90,632,664)"/><rect x="904" y="648" width="32" height="32" transform="rotate(0,920,664)"/><rect x="936" y="648" width="32" height="32" transform="rotate(0,952,664)"/><path d="M 968 648v 32h 32v -16a 16 16, 0, 0, 0, -16 -16" transform="rotate(90,984,664)"/><path d="M 1032 648v 32h 32v -16a 16 16, 0, 0, 0, -16 -16" transform="rotate(-90,1048,664)"/><path d="M 1064 648v 32h 32v -16a 16 16, 0, 0, 0, -16 -16" transform="rotate(90,1080,664)"/><path d="M 1128 648v 32h 32v -16a 16 16, 0, 0, 0, -16 -16" transform="rotate(-90,1144,664)"/><path d="M 1160 648v 32h 32v -16a 16 16, 0, 0, 0, -16 -16" transform="rotate(90,1176,664)"/><circle cx="24" cy="696" r="16" transform="rotate(0,24,696)"/><rect x="104" y="680" width="32" height="32" transform="rotate(0,120,696)"/><path d="M 168 680v 32h 16a 16 16, 0, 0, 0, 0 -32" transform="rotate(-90,184,696)"/><path d="M 232 680v 32h 32v -16a 16 16, 0, 0, 0, -16 -16" transform="rotate(-90,248,696)"/><path d="M 264 680v 32h 32v -16a 16 16, 0, 0, 0, -16 -16" transform="rotate(0,280,696)"/><circle cx="344" cy="696" r="16" transform="rotate(0,344,696)"/><path d="M 424 680v 32h 16a 16 16, 0, 0, 0, 0 -32" transform="rotate(180,440,696)"/><path d="M 456 680v 32h 32v -16a 16 16, 0, 0, 0, -16 -16" transform="rotate(90,472,696)"/><rect x="552" y="680" width="32" height="32" transform="rotate(0,568,696)"/><path d="M 584 680v 32h 16a 16 16, 0, 0, 0, 0 -32" transform="rotate(0,600,696)"/><path d="M 744 680v 32h 16a 16 16, 0, 0, 0, 0 -32" transform="rotate(-90,760,696)"/><path d="M 840 680v 32h 32v -16a 16 16, 0, 0, 0, -16 -16" transform="rotate(-90,856,696)"/><rect x="872" y="680" width="32" height="32" transform="rotate(0,888,696)"/><path d="M 904 680v 32h 32v -16a 16 16, 0, 0, 0, -16 -16" transform="rotate(90,920,696)"/><path d="M 1000 680v 32h 16a 16 16, 0, 0, 0, 0 -32" transform="rotate(180,1016,696)"/><rect x="1032" y="680" width="32" height="32" transform="rotate(0,1048,696)"/><path d="M 1096 680v 32h 16a 16 16, 0, 0, 0, 0 -32" transform="rotate(180,1112,696)"/><path d="M 1128 680v 32h 32v -16a 16 16, 0, 0, 0, -16 -16" transform="rotate(90,1144,696)"/><path d="M 40 712v 32h 16a 16 16, 0, 0, 0, 0 -32" transform="rotate(-90,56,728)"/><rect x="104" y="712" width="32" height="32" transform="rotate(0,120,728)"/><rect x="136" y="712" width="32" height="32" transform="rotate(0,152,728)"/><rect x="168" y="712" width="32" height="32" transform="rotate(0,184,728)"/><rect x="200" y="712" width="32" height="32" transform="rotate(0,216,728)"/><rect x="232" y="712" width="32" height="32" transform="rotate(0,248,728)"/><rect x="264" y="712" width="32" height="32" transform="rotate(0,280,728)"/><path d="M 296 712v 32h 32v -16a 16 16, 0, 0, 0, -16 -16" transform="rotate(0,312,728)"/><path d="M 488 712v 32h 16a 16 16, 0, 0, 0, 0 -32" transform="rotate(180,504,728)"/><rect x="520" y="712" width="32" height="32" transform="rotate(0,536,728)"/><rect x="552" y="712" width="32" height="32" transform="rotate(0,568,728)"/><path d="M 744 712v 32h 32v -16a 16 16, 0, 0, 0, -16 -16" transform="rotate(180,760,728)"/><path d="M 776 712v 32h 32v -16a 16 16, 0, 0, 0, -16 -16" transform="rotate(0,792,728)"/><rect x="840" y="712" width="32" height="32" transform="rotate(0,856,728)"/><rect x="872" y="712" width="32" height="32" transform="rotate(0,888,728)"/><path d="M 1032 712v 32h 16a 16 16, 0, 0, 0, 0 -32" transform="rotate(90,1048,728)"/><circle cx="1176" cy="728" r="16" transform="rotate(0,1176,728)"/><rect x="40" y="744" width="32" height="32" transform="rotate(0,56,760)"/><path d="M 104 744v 32h 16a 16 16, 0, 0, 0, 0 -32" transform="rotate(90,120,760)"/><rect x="232" y="744" width="32" height="32" transform="rotate(0,248,760)"/><rect x="296" y="744" width="32" height="32" transform="rotate(0,312,760)"/><path d="M 392 744v 32h 16a 16 16, 0, 0, 0, 0 -32" transform="rotate(180,408,760)"/><rect x="424" y="744" width="32" height="32" transform="rotate(0,440,760)"/><path d="M 456 744v 32h 16a 16 16, 0, 0, 0, 0 -32" transform="rotate(0,472,760)"/><path d="M 552 744v 32h 16a 16 16, 0, 0, 0, 0 -32" transform="rotate(90,568,760)"/><path d="M 616 744v 32h 32v -16a 16 16, 0, 0, 0, -16 -16" transform="rotate(-90,632,760)"/><path d="M 648 744v 32h 32v -16a 16 16, 0, 0, 0, -16 -16" transform="rotate(0,664,760)"/><circle cx="728" cy="760" r="16" transform="rotate(0,728,760)"/><path d="M 776 744v 32h 16a 16 16, 0, 0, 0, 0 -32" transform="rotate(90,792,760)"/><rect x="840" y="744" width="32" height="32" transform="rotate(0,856,760)"/><rect x="872" y="744" width="32" height="32" transform="rotate(0,888,760)"/><rect x="904" y="744" width="32" height="32" transform="rotate(0,920,760)"/><rect x="936" y="744" width="32" height="32" transform="rotate(0,952,760)"/><rect x="968" y="744" width="32" height="32" transform="rotate(0,984,760)"/><path d="M 1000 744v 32h 32v -16a 16 16, 0, 0, 0, -16 -16" transform="rotate(0,1016,760)"/><path d="M 1064 744v 32h 16a 16 16, 0, 0, 0, 0 -32" transform="rotate(180,1080,760)"/><rect x="1096" y="744" width="32" height="32" transform="rotate(0,1112,760)"/><path d="M 1128 744v 32h 32v -16a 16 16, 0, 0, 0, -16 -16" transform="rotate(0,1144,760)"/><path d="M 8 776v 32h 32v -16a 16 16, 0, 0, 0, -16 -16" transform="rotate(-90,24,792)"/><path d="M 40 776v 32h 32v -16a 16 16, 0, 0, 0, -16 -16" transform="rotate(90,56,792)"/><path d="M 136 776v 32h 16a 16 16, 0, 0, 0, 0 -32" transform="rotate(-90,152,792)"/><path d="M 200 776v 32h 16a 16 16, 0, 0, 0, 0 -32" transform="rotate(180,216,792)"/><rect x="232" y="776" width="32" height="32" transform="rotate(0,248,792)"/><rect x="264" y="776" width="32" height="32" transform="rotate(0,280,792)"/><rect x="296" y="776" width="32" height="32" transform="rotate(0,312,792)"/><path d="M 328 776v 32h 16a 16 16, 0, 0, 0, 0 -32" transform="rotate(0,344,792)"/><path d="M 424 776v 32h 16a 16 16, 0, 0, 0, 0 -32" transform="rotate(90,440,792)"/><path d="M 520 776v 32h 16a 16 16, 0, 0, 0, 0 -32" transform="rotate(-90,536,792)"/><path d="M 584 776v 32h 32v -16a 16 16, 0, 0, 0, -16 -16" transform="rotate(-90,600,792)"/><rect x="616" y="776" width="32" height="32" transform="rotate(0,632,792)"/><rect x="648" y="776" width="32" height="32" transform="rotate(0,664,792)"/><path d="M 744 776v 32h 16a 16 16, 0, 0, 0, 0 -32" transform="rotate(-90,760,792)"/><path d="M 808 776v 32h 32v -16a 16 16, 0, 0, 0, -16 -16" transform="rotate(-90,824,792)"/><path d="M 840 776v 32h 32v -16a 16 16, 0, 0, 0, -16 -16" transform="rotate(90,856,792)"/><path d="M 968 776v 32h 32v -16a 16 16, 0, 0, 0, -16 -16" transform="rotate(180,984,792)"/><path d="M 1000 776v 32h 32v -16a 16 16, 0, 0, 0, -16 -16" transform="rotate(90,1016,792)"/><path d="M 1128 776v 32h 32v -16a 16 16, 0, 0, 0, -16 -16" transform="rotate(180,1144,792)"/><path d="M 1160 776v 32h 16a 16 16, 0, 0, 0, 0 -32" transform="rotate(0,1176,792)"/><rect x="8" y="808" width="32" height="32" transform="rotate(0,24,824)"/><path d="M 72 808v 32h 16a 16 16, 0, 0, 0, 0 -32" transform="rotate(-90,88,824)"/><path d="M 136 808v 32h 16a 16 16, 0, 0, 0, 0 -32" transform="rotate(90,152,824)"/><rect x="232" y="808" width="32" height="32" transform="rotate(0,248,824)"/><rect x="264" y="808" width="32" height="32" transform="rotate(0,280,824)"/><path d="M 296 808v 32h 32v -16a 16 16, 0, 0, 0, -16 -16" transform="rotate(90,312,824)"/><path d="M 360 808v 32h 16a 16 16, 0, 0, 0, 0 -32" transform="rotate(-90,376,824)"/><path d="M 456 808v 32h 16a 16 16, 0, 0, 0, 0 -32" transform="rotate(180,472,824)"/><rect x="488" y="808" width="32" height="32" transform="rotate(0,504,824)"/><path d="M 520 808v 32h 32v -16a 16 16, 0, 0, 0, -16 -16" transform="rotate(90,536,824)"/><path d="M 584 808v 32h 16a 16 16, 0, 0, 0, 0 -32" transform="rotate(90,600,824)"/><path d="M 648 808v 32h 16a 16 16, 0, 0, 0, 0 -32" transform="rotate(90,664,824)"/><path d="M 712 808v 32h 16a 16 16, 0, 0, 0, 0 -32" transform="rotate(180,728,824)"/><path d="M 744 808v 32h 32v -16a 16 16, 0, 0, 0, -16 -16" transform="rotate(90,760,824)"/><path d="M 808 808v 32h 16a 16 16, 0, 0, 0, 0 -32" transform="rotate(90,824,824)"/><path d="M 872 808v 32h 32v -16a 16 16, 0, 0, 0, -16 -16" transform="rotate(-90,888,824)"/><rect x="904" y="808" width="32" height="32" transform="rotate(0,920,824)"/><path d="M 936 808v 32h 16a 16 16, 0, 0, 0, 0 -32" transform="rotate(0,952,824)"/><path d="M 1032 808v 32h 16a 16 16, 0, 0, 0, 0 -32" transform="rotate(180,1048,824)"/><rect x="1064" y="808" width="32" height="32" transform="rotate(0,1080,824)"/><path d="M 1096 808v 32h 32v -16a 16 16, 0, 0, 0, -16 -16" transform="rotate(0,1112,824)"/><rect x="8" y="840" width="32" height="32" transform="rotate(0,24,856)"/><rect x="40" y="840" width="32" height="32" transform="rotate(0,56,856)"/><rect x="72" y="840" width="32" height="32" transform="rotate(0,88,856)"/><path d="M 200 840v 32h 16a 16 16, 0, 0, 0, 0 -32" transform="rotate(180,216,856)"/><rect x="232" y="840" width="32" height="32" transform="rotate(0,248,856)"/><path d="M 328 840v 32h 32v -16a 16 16, 0, 0, 0, -16 -16" transform="rotate(-90,344,856)"/><path d="M 360 840v 32h 32v -16a 16 16, 0, 0, 0, -16 -16" transform="rotate(90,376,856)"/><path d="M 488 840v 32h 16a 16 16, 0, 0, 0, 0 -32" transform="rotate(90,504,856)"/><circle cx="792" cy="856" r="16" transform="rotate(0,792,856)"/><path d="M 872 840v 32h 32v -16a 16 16, 0, 0, 0, -16 -16" transform="rotate(180,888,856)"/><path d="M 904 840v 32h 32v -16a 16 16, 0, 0, 0, -16 -16" transform="rotate(90,920,856)"/><circle cx="984" cy="856" r="16" transform="rotate(0,984,856)"/><rect x="1096" y="840" width="32" height="32" transform="rotate(0,1112,856)"/><rect x="1128" y="840" width="32" height="32" transform="rotate(0,1144,856)"/><path d="M 1160 840v 32h 32v -16a 16 16, 0, 0, 0, -16 -16" transform="rotate(0,1176,856)"/><rect x="8" y="872" width="32" height="32" transform="rotate(0,24,888)"/><path d="M 72 872v 32h 32v -16a 16 16, 0, 0, 0, -16 -16" transform="rotate(180,88,888)"/><rect x="104" y="872" width="32" height="32" transform="rotate(0,120,888)"/><path d="M 136 872v 32h 16a 16 16, 0, 0, 0, 0 -32" transform="rotate(0,152,888)"/><rect x="232" y="872" width="32" height="32" transform="rotate(0,248,888)"/><rect x="328" y="872" width="32" height="32" transform="rotate(0,344,888)"/><path d="M 392 872v 32h 32v -16a 16 16, 0, 0, 0, -16 -16" transform="rotate(-90,408,888)"/><path d="M 424 872v 32h 32v -16a 16 16, 0, 0, 0, -16 -16" transform="rotate(0,440,888)"/><path d="M 520 872v 32h 16a 16 16, 0, 0, 0, 0 -32" transform="rotate(-90,536,888)"/><path d="M 616 872v 32h 16a 16 16, 0, 0, 0, 0 -32" transform="rotate(180,632,888)"/><path d="M 648 872v 32h 16a 16 16, 0, 0, 0, 0 -32" transform="rotate(0,664,888)"/><circle cx="760" cy="888" r="16" transform="rotate(0,760,888)"/><path d="M 936 872v 32h 16a 16 16, 0, 0, 0, 0 -32" transform="rotate(-90,952,888)"/><path d="M 1000 872v 32h 16a 16 16, 0, 0, 0, 0 -32" transform="rotate(-90,1016,888)"/><path d="M 1064 872v 32h 32v -16a 16 16, 0, 0, 0, -16 -16" transform="rotate(-90,1080,888)"/><rect x="1096" y="872" width="32" height="32" transform="rotate(0,1112,888)"/><rect x="1160" y="872" width="32" height="32" transform="rotate(0,1176,888)"/><path d="M 8 904v 32h 16a 16 16, 0, 0, 0, 0 -32" transform="rotate(90,24,920)"/><path d="M 104 904v 32h 16a 16 16, 0, 0, 0, 0 -32" transform="rotate(90,120,920)"/><path d="M 168 904v 32h 16a 16 16, 0, 0, 0, 0 -32" transform="rotate(180,184,920)"/><rect x="200" y="904" width="32" height="32" transform="rotate(0,216,920)"/><path d="M 232 904v 32h 32v -16a 16 16, 0, 0, 0, -16 -16" transform="rotate(90,248,920)"/><path d="M 296 904v 32h 32v -16a 16 16, 0, 0, 0, -16 -16" transform="rotate(-90,312,920)"/><rect x="328" y="904" width="32" height="32" transform="rotate(0,344,920)"/><rect x="392" y="904" width="32" height="32" transform="rotate(0,408,920)"/><path d="M 424 904v 32h 32v -16a 16 16, 0, 0, 0, -16 -16" transform="rotate(90,440,920)"/><path d="M 520 904v 32h 32v -16a 16 16, 0, 0, 0, -16 -16" transform="rotate(180,536,920)"/><path d="M 552 904v 32h 16a 16 16, 0, 0, 0, 0 -32" transform="rotate(0,568,920)"/><path d="M 712 904v 32h 16a 16 16, 0, 0, 0, 0 -32" transform="rotate(-90,728,920)"/><path d="M 776 904v 32h 16a 16 16, 0, 0, 0, 0 -32" transform="rotate(180,792,920)"/><path d="M 808 904v 32h 32v -16a 16 16, 0, 0, 0, -16 -16" transform="rotate(0,824,920)"/><path d="M 872 904v 32h 16a 16 16, 0, 0, 0, 0 -32" transform="rotate(180,888,920)"/><rect x="904" y="904" width="32" height="32" transform="rotate(0,920,920)"/><rect x="936" y="904" width="32" height="32" transform="rotate(0,952,920)"/><rect x="968" y="904" width="32" height="32" transform="rotate(0,984,920)"/><rect x="1000" y="904" width="32" height="32" transform="rotate(0,1016,920)"/><rect x="1032" y="904" width="32" height="32" transform="rotate(0,1048,920)"/><rect x="1064" y="904" width="32" height="32" transform="rotate(0,1080,920)"/><rect x="1096" y="904" width="32" height="32" transform="rotate(0,1112,920)"/><path d="M 1160 904v 32h 16a 16 16, 0, 0, 0, 0 -32" transform="rotate(90,1176,920)"/><path d="M 264 936v 32h 16a 16 16, 0, 0, 0, 0 -32" transform="rotate(180,280,952)"/><rect x="296" y="936" width="32" height="32" transform="rotate(0,312,952)"/><rect x="328" y="936" width="32" height="32" transform="rotate(0,344,952)"/><rect x="360" y="936" width="32" height="32" transform="rotate(0,376,952)"/><path d="M 392 936v 32h 32v -16a 16 16, 0, 0, 0, -16 -16" transform="rotate(90,408,952)"/><circle cx="504" cy="952" r="16" transform="rotate(0,504,952)"/><path d="M 648 936v 32h 32v -16a 16 16, 0, 0, 0, -16 -16" transform="rotate(-90,664,952)"/><rect x="680" y="936" width="32" height="32" transform="rotate(0,696,952)"/><path d="M 712 936v 32h 32v -16a 16 16, 0, 0, 0, -16 -16" transform="rotate(90,728,952)"/><rect x="808" y="936" width="32" height="32" transform="rotate(0,824,952)"/><path d="M 840 936v 32h 32v -16a 16 16, 0, 0, 0, -16 -16" transform="rotate(0,856,952)"/><rect x="904" y="936" width="32" height="32" transform="rotate(0,920,952)"/><rect x="1032" y="936" width="32" height="32" transform="rotate(0,1048,952)"/><rect x="1064" y="936" width="32" height="32" transform="rotate(0,1080,952)"/><rect x="1096" y="936" width="32" height="32" transform="rotate(0,1112,952)"/><path d="M 1128 936v 32h 16a 16 16, 0, 0, 0, 0 -32" transform="rotate(0,1144,952)"/><rect x="360" y="968" width="32" height="32" transform="rotate(0,376,984)"/><circle cx="440" cy="984" r="16" transform="rotate(0,440,984)"/><circle cx="600" cy="984" r="16" transform="rotate(0,600,984)"/><path d="M 648 968v 32h 16a 16 16, 0, 0, 0, 0 -32" transform="rotate(90,664,984)"/><circle cx="760" cy="984" r="16" transform="rotate(0,760,984)"/><rect x="808" y="968" width="32" height="32" transform="rotate(0,824,984)"/><path d="M 840 968v 32h 32v -16a 16 16, 0, 0, 0, -16 -16" transform="rotate(90,856,984)"/><rect x="904" y="968" width="32" height="32" transform="rotate(0,920,984)"/><circle cx="984" cy="984" r="16" transform="rotate(0,984,984)"/><rect x="1032" y="968" width="32" height="32" transform="rotate(0,1048,984)"/><rect x="1064" y="968" width="32" height="32" transform="rotate(0,1080,984)"/><path d="M 1096 968v 32h 32v -16a 16 16, 0, 0, 0, -16 -16" transform="rotate(90,1112,984)"/><circle cx="1176" cy="984" r="16" transform="rotate(0,1176,984)"/><path d="M 264 1000v 32h 16a 16 16, 0, 0, 0, 0 -32" transform="rotate(-90,280,1016)"/><rect x="360" y="1000" width="32" height="32" transform="rotate(0,376,1016)"/><path d="M 392 1000v 32h 32v -16a 16 16, 0, 0, 0, -16 -16" transform="rotate(0,408,1016)"/><path d="M 552 1000v 32h 16a 16 16, 0, 0, 0, 0 -32" transform="rotate(-90,568,1016)"/><circle cx="632" cy="1016" r="16" transform="rotate(0,632,1016)"/><path d="M 680 1000v 32h 16a 16 16, 0, 0, 0, 0 -32" transform="rotate(-90,696,1016)"/><path d="M 808 1000v 32h 16a 16 16, 0, 0, 0, 0 -32" transform="rotate(90,824,1016)"/><path d="M 872 1000v 32h 32v -16a 16 16, 0, 0, 0, -16 -16" transform="rotate(-90,888,1016)"/><rect x="904" y="1000" width="32" height="32" transform="rotate(0,920,1016)"/><rect x="1032" y="1000" width="32" height="32" transform="rotate(0,1048,1016)"/><path d="M 1064 1000v 32h 32v -16a 16 16, 0, 0, 0, -16 -16" transform="rotate(90,1080,1016)"/><rect x="264" y="1032" width="32" height="32" transform="rotate(0,280,1048)"/><rect x="360" y="1032" width="32" height="32" transform="rotate(0,376,1048)"/><rect x="392" y="1032" width="32" height="32" transform="rotate(0,408,1048)"/><path d="M 424 1032v 32h 32v -16a 16 16, 0, 0, 0, -16 -16" transform="rotate(0,440,1048)"/><path d="M 520 1032v 32h 32v -16a 16 16, 0, 0, 0, -16 -16" transform="rotate(-90,536,1048)"/><path d="M 552 1032v 32h 32v -16a 16 16, 0, 0, 0, -16 -16" transform="rotate(90,568,1048)"/><path d="M 648 1032v 32h 32v -16a 16 16, 0, 0, 0, -16 -16" transform="rotate(-90,664,1048)"/><path d="M 680 1032v 32h 32v -16a 16 16, 0, 0, 0, -16 -16" transform="rotate(90,696,1048)"/><circle cx="792" cy="1048" r="16" transform="rotate(0,792,1048)"/><path d="M 840 1032v 32h 32v -16a 16 16, 0, 0, 0, -16 -16" transform="rotate(-90,856,1048)"/><rect x="872" y="1032" width="32" height="32" transform="rotate(0,888,1048)"/><rect x="904" y="1032" width="32" height="32" transform="rotate(0,920,1048)"/><rect x="936" y="1032" width="32" height="32" transform="rotate(0,952,1048)"/><rect x="968" y="1032" width="32" height="32" transform="rotate(0,984,1048)"/><rect x="1000" y="1032" width="32" height="32" transform="rotate(0,1016,1048)"/><path d="M 1032 1032v 32h 32v -16a 16 16, 0, 0, 0, -16 -16" transform="rotate(90,1048,1048)"/><circle cx="1176" cy="1048" r="16" transform="rotate(0,1176,1048)"/><path d="M 264 1064v 32h 32v -16a 16 16, 0, 0, 0, -16 -16" transform="rotate(180,280,1080)"/><rect x="296" y="1064" width="32" height="32" transform="rotate(0,312,1080)"/><rect x="328" y="1064" width="32" height="32" transform="rotate(0,344,1080)"/><path d="M 360 1064v 32h 32v -16a 16 16, 0, 0, 0, -16 -16" transform="rotate(90,376,1080)"/><rect x="424" y="1064" width="32" height="32" transform="rotate(0,440,1080)"/><rect x="456" y="1064" width="32" height="32" transform="rotate(0,472,1080)"/><rect x="488" y="1064" width="32" height="32" transform="rotate(0,504,1080)"/><path d="M 520 1064v 32h 32v -16a 16 16, 0, 0, 0, -16 -16" transform="rotate(90,536,1080)"/><path d="M 648 1064v 32h 16a 16 16, 0, 0, 0, 0 -32" transform="rotate(90,664,1080)"/><path d="M 712 1064v 32h 16a 16 16, 0, 0, 0, 0 -32" transform="rotate(-90,728,1080)"/><path d="M 808 1064v 32h 16a 16 16, 0, 0, 0, 0 -32" transform="rotate(180,824,1080)"/><path d="M 840 1064v 32h 32v -16a 16 16, 0, 0, 0, -16 -16" transform="rotate(90,856,1080)"/><path d="M 968 1064v 32h 16a 16 16, 0, 0, 0, 0 -32" transform="rotate(90,984,1080)"/><path d="M 1064 1064v 32h 16a 16 16, 0, 0, 0, 0 -32" transform="rotate(-90,1080,1080)"/><path d="M 1128 1064v 32h 16a 16 16, 0, 0, 0, 0 -32" transform="rotate(-90,1144,1080)"/><path d="M 392 1096v 32h 32v -16a 16 16, 0, 0, 0, -16 -16" transform="rotate(-90,408,1112)"/><path d="M 424 1096v 32h 32v -16a 16 16, 0, 0, 0, -16 -16" transform="rotate(90,440,1112)"/><path d="M 584 1096v 32h 16a 16 16, 0, 0, 0, 0 -32" transform="rotate(-90,600,1112)"/><path d="M 680 1096v 32h 16a 16 16, 0, 0, 0, 0 -32" transform="rotate(180,696,1112)"/><path d="M 712 1096v 32h 32v -16a 16 16, 0, 0, 0, -16 -16" transform="rotate(90,728,1112)"/><circle cx="792" cy="1112" r="16" transform="rotate(0,792,1112)"/><circle cx="888" cy="1112" r="16" transform="rotate(0,888,1112)"/><path d="M 1000 1096v 32h 16a 16 16, 0, 0, 0, 0 -32" transform="rotate(180,1016,1112)"/><rect x="1032" y="1096" width="32" height="32" transform="rotate(0,1048,1112)"/><rect x="1064" y="1096" width="32" height="32" transform="rotate(0,1080,1112)"/><rect x="1128" y="1096" width="32" height="32" transform="rotate(0,1144,1112)"/><path d="M 1160 1096v 32h 32v -16a 16 16, 0, 0, 0, -16 -16" transform="rotate(0,1176,1112)"/><circle cx="280" cy="1144" r="16" transform="rotate(0,280,1144)"/><path d="M 328 1128v 32h 16a 16 16, 0, 0, 0, 0 -32" transform="rotate(180,344,1144)"/><rect x="360" y="1128" width="32" height="32" transform="rotate(0,376,1144)"/><rect x="392" y="1128" width="32" height="32" transform="rotate(0,408,1144)"/><path d="M 456 1128v 32h 16a 16 16, 0, 0, 0, 0 -32" transform="rotate(180,472,1144)"/><path d="M 488 1128v 32h 16a 16 16, 0, 0, 0, 0 -32" transform="rotate(0,504,1144)"/><path d="M 552 1128v 32h 32v -16a 16 16, 0, 0, 0, -16 -16" transform="rotate(-90,568,1144)"/><rect x="584" y="1128" width="32" height="32" transform="rotate(0,600,1144)"/><circle cx="856" cy="1144" r="16" transform="rotate(0,856,1144)"/><path d="M 936 1128v 32h 16a 16 16, 0, 0, 0, 0 -32" transform="rotate(180,952,1144)"/><path d="M 968 1128v 32h 16a 16 16, 0, 0, 0, 0 -32" transform="rotate(0,984,1144)"/><rect x="1032" y="1128" width="32" height="32" transform="rotate(0,1048,1144)"/><rect x="1064" y="1128" width="32" height="32" transform="rotate(0,1080,1144)"/><rect x="1096" y="1128" width="32" height="32" transform="rotate(0,1112,1144)"/><rect x="1128" y="1128" width="32" height="32" transform="rotate(0,1144,1144)"/><rect x="1160" y="1128" width="32" height="32" transform="rotate(0,1176,1144)"/><path d="M 392 1160v 32h 32v -16a 16 16, 0, 0, 0, -16 -16" transform="rotate(180,408,1176)"/><path d="M 424 1160v 32h 16a 16 16, 0, 0, 0, 0 -32" transform="rotate(0,440,1176)"/><path d="M 552 1160v 32h 32v -16a 16 16, 0, 0, 0, -16 -16" transform="rotate(180,568,1176)"/><rect x="584" y="1160" width="32" height="32" transform="rotate(0,600,1176)"/><path d="M 616 1160v 32h 16a 16 16, 0, 0, 0, 0 -32" transform="rotate(0,632,1176)"/><circle cx="792" cy="1176" r="16" transform="rotate(0,792,1176)"/><circle cx="920" cy="1176" r="16" transform="rotate(0,920,1176)"/><path d="M 1000 1160v 32h 16a 16 16, 0, 0, 0, 0 -32" transform="rotate(180,1016,1176)"/><path d="M 1032 1160v 32h 32v -16a 16 16, 0, 0, 0, -16 -16" transform="rotate(90,1048,1176)"/><path d="M 1160 1160v 32h 16a 16 16, 0, 0, 0, 0 -32" transform="rotate(90,1176,1176)"/></clipPath><clipPath id="clip-path-corners-square-color-0-0-80"><path clip-rule="evenodd" d="M 8 88v 64a 80 80, 0, 0, 0, 80 80h 64a 80 80, 0, 0, 0, 80 -80v -64a 80 80, 0, 0, 0, -80 -80h -64a 80 80, 0, 0, 0, -80 80M 88 40h 64a 48 48, 0, 0, 1, 48 48v 64a 48 48, 0, 0, 1, -48 48h -64a 48 48, 0, 0, 1, -48 -48v -64a 48 48, 0, 0, 1, 48 -48" transform="rotate(0,120,120)"/></clipPath><clipPath id="clip-path-corners-dot-color-0-0-80"><circle cx="120" cy="120" r="48" transform="rotate(0,120,120)"/></clipPath><clipPath id="clip-path-corners-square-color-1-0-80"><path clip-rule="evenodd" d="M 968 88v 64a 80 80, 0, 0, 0, 80 80h 64a 80 80, 0, 0, 0, 80 -80v -64a 80 80, 0, 0, 0, -80 -80h -64a 80 80, 0, 0, 0, -80 80M 1048 40h 64a 48 48, 0, 0, 1, 48 48v 64a 48 48, 0, 0, 1, -48 48h -64a 48 48, 0, 0, 1, -48 -48v -64a 48 48, 0, 0, 1, 48 -48" transform="rotate(90,1080,120)"/></clipPath><clipPath id="clip-path-corners-dot-color-1-0-80"><circle cx="1080" cy="120" r="48" transform="rotate(90,1080,120)"/></clipPath><clipPath id="clip-path-corners-square-color-0-1-80"><path clip-rule="evenodd" d="M 8 1048v 64a 80 80, 0, 0, 0, 80 80h 64a 80 80, 0, 0, 0, 80 -80v -64a 80 80, 0, 0, 0, -80 -80h -64a 80 80, 0, 0, 0, -80 80M 88 1000h 64a 48 48, 0, 0, 1, 48 48v 64a 48 48, 0, 0, 1, -48 48h -64a 48 48, 0, 0, 1, -48 -48v -64a 48 48, 0, 0, 1, 48 -48" transform="rotate(-90,120,1080)"/></clipPath><clipPath id="clip-path-corners-dot-color-0-1-80"><circle cx="120" cy="1080" r="48" transform="rotate(-90,120,1080)"/></clipPath></defs><rect x="0" y="0" height="1200" width="1200" clip-path="url('#clip-path-background-color-80')" fill="#ffffff"/><rect x="0" y="0" height="1200" width="1200" clip-path="url('#clip-path-dot-color-80')" fill="#000000"/><rect x="8" y="8" height="224" width="224" clip-path="url('#clip-path-corners-square-color-0-0-80')" fill="#000000"/><rect x="72" y="72" height="96" width="96" clip-path="url('#clip-path-corners-dot-color-0-0-80')" fill="#000000"/><rect x="968" y="8" height="224" width="224" clip-path="url('#clip-path-corners-square-color-1-0-80')" fill="#000000"/><rect x="1032" y="72" height="96" width="96" clip-path="url('#clip-path-corners-dot-color-1-0-80')" fill="#000000"/><rect x="8" y="968" height="224" width="224" clip-path="url('#clip-path-corners-square-color-0-1-80')" fill="#000000"/><rect x="72" y="1032" height="96" width="96" clip-path="url('#clip-path-corners-dot-color-0-1-80')" fill="#000000"/></svg>