<?xml version="1.0" standalone="no"?>
<svg xmlns="http://www.w3.org/2000/svg" width="1200" height="1200" xmlns:xlink="http://www.w3.org/1999/xlink" viewBox="0 0 1200 1200"><defs><clipPath id="clip-path-background-color-79"><rect x="0" y="0" width="1200" height="1200"/></clipPath><clipPath id="clip-path-dot-color-79"><circle cx="312" cy="24" r="16" transform="rotate(0,312,24)"/><circle cx="376" cy="24" r="16" transform="rotate(0,376,24)"/><path d="M 424 8v 32h 16a 16 16, 0, 0, 0, 0 -32" transform="rotate(180,440,24)"/><path d="M 456 8v 32h 16a 16 16, 0, 0, 0, 0 -32" transform="rotate(0,472,24)"/><circle cx="536" cy="24" r="16" transform="rotate(0,536,24)"/><path d="M 584 8v 32h 16a 16 16, 0, 0, 0, 0 -32" transform="rotate(-90,600,24)"/><circle cx="696" cy="24" r="16" transform="rotate(0,696,24)"/><path d="M 264 40v 32h 16a 16 16, 0, 0, 0, 0 -32" transform="rotate(-90,280,56)"/><circle cx="344" cy="56" r="16" transform="rotate(0,344,56)"/><circle cx="504" cy="56" r="16" transform="rotate(0,504,56)"/><path d="M 552 40v 32h 16a 16 16, 0, 0, 0, 0 -32" transform="rotate(180,568,56)"/><path d="M 584 40v 32h 32v -16a 16 16, 0, 0, 0, -16 -16" transform="rotate(90,600,56)"/><circle cx="664" cy="56" r="16" transform="rotate(0,664,56)"/><path d="M 712 40v 32h 16a 16 16, 0, 0, 0, 0 -32" transform="rotate(-90,728,56)"/><path d="M 808 40v 32h 32v -16a 16 16, 0, 0, 0, -16 -16" transform="rotate(-90,824,56)"/><path d="M 840 40v 32h 16a 16 16, 0, 0, 0, 0 -32" transform="rotate(0,856,56)"/><circle cx="920" cy="56" r="16" transform="rotate(0,920,56)"/><path d="M 264 72v 32h 16a 16 16, 0, 0, 0, 0 -32" transform="rotate(90,280,88)"/><path d="M 360 72v 32h 16a 16 16, 0, 0, 0, 0 -32" transform="rotate(-90,376,88)"/><path d="M 520 72v 32h 16a 16 16, 0, 0, 0, 0 -32" transform="rotate(-90,536,88)"/><circle cx="632" cy="88" r="16" transform="rotate(0,632,88)"/><rect x="712" y="72" width="32" height="32" transform="rotate(0,728,88)"/><rect x="744" y="72" width="32" height="32" transform="rotate(0,760,88)"/><rect x="776" y="72" width="32" height="32" transform="rotate(0,792,88)"/><rect x="808" y="72" width="32" height="32" transform="rotate(0,824,88)"/><path d="M 360 104v 32h 32v -16a 16 16, 0, 0, 0, -16 -16" transform="rotate(180,376,120)"/><rect x="392" y="104" width="32" height="32" transform="rotate(0,408,120)"/><rect x="424" y="104" width="32" height="32" transform="rotate(0,440,120)"/><path d="M 456 104v 32h 32v -16a 16 16, 0, 0, 0, -16 -16" transform="rotate(0,472,120)"/><path d="M 520 104v 32h 16a 16 16, 0, 0, 0, 0 -32" transform="rotate(90,536,120)"/><circle cx="600" cy="120" r="16" transform="rotate(0,600,120)"/><rect x="712" y="104" width="32" height="32" transform="rotate(0,728,120)"/><path d="M 744 104v 32h 32v -16a 16 16, 0, 0, 0, -16 -16" transform="rotate(90,760,120)"/><rect x="808" y="104" width="32" height="32" transform="rotate(0,824,120)"/><path d="M 840 104v 32h 16a 16 16, 0, 0, 0, 0 -32" transform="rotate(0,856,120)"/><path d="M 296 136v 32h 32v -16a 16 16, 0, 0, 0, -16 -16" transform="rotate(-90,312,152)"/><path d="M 328 136v 32h 32v -16a 16 16, 0, 0, 0, -16 -16" transform="rotate(0,344,152)"/><path d="M 392 136v 32h 32v -16a 16 16, 0, 0, 0, -16 -16" transform="rotate(180,408,152)"/><rect x="424" y="136" width="32" height="32" transform="rotate(0,440,152)"/><rect x="456" y="136" width="32" height="32" transform="rotate(0,472,152)"/><path d="M 488 136v 32h 16a 16 16, 0, 0, 0, 0 -32" transform="rotate(0,504,152)"/><path d="M 616 136v 32h 16a 16 16, 0, 0, 0, 0 -32" transform="rotate(-90,632,152)"/><path d="M 712 136v 32h 16a 16 16, 0, 0, 0, 0 -32" transform="rotate(90,728,152)"/><path d="M 776 136v 32h 32v -16a 16 16, 0, 0, 0, -16 -16" transform="rotate(-90,792,152)"/><rect x="808" y="136" width="32" height="32" transform="rotate(0,824,152)"/><circle cx="888" cy="152" r="16" transform="rotate(0,888,152)"/><path d="M 296 168v 32h 32v -16a 16 16, 0, 0, 0, -16 -16" transform="rotate(180,312,184)"/><rect x="328" y="168" width="32" height="32" transform="rotate(0,344,184)"/><path d="M 360 168v 32h 16a 16 16, 0, 0, 0, 0 -32" transform="rotate(0,376,184)"/><circle cx="568" cy="184" r="16" transform="rotate(0,568,184)"/><path d="M 616 168v 32h 32v -16a 16 16, 0, 0, 0, -16 -16" transform="rotate(180,632,184)"/><path d="M 648 168v 32h 32v -16a 16 16, 0, 0, 0, -16 -16" transform="rotate(0,664,184)"/><rect x="776" y="168" width="32" height="32" transform="rotate(0,792,184)"/><path d="M 808 168v 32h 32v -16a 16 16, 0, 0, 0, -16 -16" transform="rotate(90,824,184)"/><circle cx="280" cy="216" r="16" transform="rotate(0,280,216)"/><path d="M 328 200v 32h 16a 16 16, 0, 0, 0, 0 -32" transform="rotate(90,344,216)"/><path d="M 392 200v 32h 16a 16 16, 0, 0, 0, 0 -32" transform="rotate(-90,408,216)"/><circle cx="472" cy="216" r="16" transform="rotate(0,472,216)"/><path d="M 520 200v 32h 16a 16 16, 0, 0, 0, 0 -32" transform="rotate(-90,536,216)"/><circle cx="600" cy="216" r="16" transform="rotate(0,600,216)"/><path d="M 648 200v 32h 16a 16 16, 0, 0, 0, 0 -32" transform="rotate(90,664,216)"/><path d="M 712 200v 32h 16a 16 16, 0, 0, 0, 0 -32" transform="rotate(-90,728,216)"/><rect x="776" y="200" width="32" height="32" transform="rotate(0,792,216)"/><circle cx="856" cy="216" r="16" transform="rotate(0,856,216)"/><path d="M 904 200v 32h 16a 16 16, 0, 0, 0, 0 -32" transform="rotate(-90,920,216)"/><path d="M 360 232v 32h 32v -16a 16 16, 0, 0, 0, -16 -16" transform="rotate(-90,376,248)"/><rect x="392" y="232" width="32" height="32" transform="rotate(0,408,248)"/><path d="M 424 232v 32h 16a 16 16, 0, 0, 0, 0 -32" transform="rotate(0,440,248)"/><path d="M 520 232v 32h 32v -16a 16 16, 0, 0, 0, -16 -16" transform="rotate(180,536,248)"/><path d="M 552 232v 32h 32v -16a 16 16, 0, 0, 0, -16 -16" transform="rotate(0,568,248)"/><circle cx="632" cy="248" r="16" transform="rotate(0,632,248)"/><path d="M 712 232v 32h 32v -16a 16 16, 0, 0, 0, -16 -16" transform="rotate(180,728,248)"/><rect x="744" y="232" width="32" height="32" transform="rotate(0,760,248)"/><path d="M 776 232v 32h 32v -16a 16 16, 0, 0, 0, -16 -16" transform="rotate(90,792,248)"/><path d="M 872 232v 32h 32v -16a 16 16, 0, 0, 0, -16 -16" transform="rotate(-90,888,248)"/><rect x="904" y="232" width="32" height="32" transform="rotate(0,920,248)"/><path d="M 40 264v 32h 32v -16a 16 16, 0, 0, 0, -16 -16" transform="rotate(-90,56,280)"/><rect x="72" y="264" width="32" height="32" transform="rotate(0,88,280)"/><path d="M 104 264v 32h 16a 16 16, 0, 0, 0, 0 -32" transform="rotate(0,120,280)"/><path d="M 168 264v 32h 16a 16 16, 0, 0, 0, 0 -32" transform="rotate(180,184,280)"/><path d="M 200 264v 32h 16a 16 16, 0, 0, 0, 0 -32" transform="rotate(0,216,280)"/><path d="M 296 264v 32h 16a 16 16, 0, 0, 0, 0 -32" transform="rotate(180,312,280)"/><rect x="328" y="264" width="32" height="32" transform="rotate(0,344,280)"/><rect x="360" y="264" width="32" height="32" transform="rotate(0,376,280)"/><path d="M 552 264v 32h 16a 16 16, 0, 0, 0, 0 -32" transform="rotate(90,568,280)"/><path d="M 648 264v 32h 16a 16 16, 0, 0, 0, 0 -32" transform="rotate(180,664,280)"/><path d="M 680 264v 32h 32v -16a 16 16, 0, 0, 0, -16 -16" transform="rotate(0,696,280)"/><path d="M 840 264v 32h 16a 16 16, 0, 0, 0, 0 -32" transform="rotate(180,856,280)"/><rect x="872" y="264" width="32" height="32" transform="rotate(0,888,280)"/><rect x="904" y="264" width="32" height="32" transform="rotate(0,920,280)"/><path d="M 1096 264v 32h 16a 16 16, 0, 0, 0, 0 -32" transform="rotate(180,1112,280)"/><path d="M 1128 264v 32h 16a 16 16, 0, 0, 0, 0 -32" transform="rotate(0,1144,280)"/><path d="M 8 296v 32h 32v -16a 16 16, 0, 0, 0, -16 -16" transform="rotate(-90,24,312)"/><path d="M 40 296v 32h 32v -16a 16 16, 0, 0, 0, -16 -16" transform="rotate(90,56,312)"/><circle cx="152" cy="312" r="16" transform="rotate(0,152,312)"/><path d="M 232 296v 32h 16a 16 16, 0, 0, 0, 0 -32" transform="rotate(180,248,312)"/><path d="M 264 296v 32h 16a 16 16, 0, 0, 0, 0 -32" transform="rotate(0,280,312)"/><path d="M 328 296v 32h 32v -16a 16 16, 0, 0, 0, -16 -16" transform="rotate(180,344,312)"/><rect x="360" y="296" width="32" height="32" transform="rotate(0,376,312)"/><path d="M 424 296v 32h 16a 16 16, 0, 0, 0, 0 -32" transform="rotate(-90,440,312)"/><circle cx="536" cy="312" r="16" transform="rotate(0,536,312)"/><path d="M 616 296v 32h 16a 16 16, 0, 0, 0, 0 -32" transform="rotate(-90,632,312)"/><rect x="680" y="296" width="32" height="32" transform="rotate(0,696,312)"/><rect x="712" y="296" width="32" height="32" transform="rotate(0,728,312)"/><path d="M 744 296v 32h 32v -16a 16 16, 0, 0, 0, -16 -16" transform="rotate(0,760,312)"/><path d="M 808 296v 32h 16a 16 16, 0, 0, 0, 0 -32" transform="rotate(-90,824,312)"/><path d="M 904 296v 32h 32v -16a 16 16, 0, 0, 0, -16 -16" transform="rotate(180,920,312)"/><path d="M 936 296v 32h 32v -16a 16 16, 0, 0, 0, -16 -16" transform="rotate(0,952,312)"/><circle cx="1016" cy="312" r="16" transform="rotate(0,1016,312)"/><path d="M 1064 296v 32h 16a 16 16, 0, 0, 0, 0 -32" transform="rotate(-90,1080,312)"/><rect x="8" y="328" width="32" height="32" transform="rotate(0,24,344)"/><path d="M 104 328v 32h 16a 16 16, 0, 0, 0, 0 -32" transform="rotate(-90,120,344)"/><path d="M 168 328v 32h 32v -16a 16 16, 0, 0, 0, -16 -16" transform="rotate(-90,184,344)"/><path d="M 200 328v 32h 16a 16 16, 0, 0, 0, 0 -32" transform="rotate(0,216,344)"/><path d="M 296 328v 32h 16a 16 16, 0, 0, 0, 0 -32" transform="rotate(-90,312,344)"/><path d="M 360 328v 32h 32v -16a 16 16, 0, 0, 0, -16 -16" transform="rotate(180,376,344)"/><rect x="392" y="328" width="32" height="32" transform="rotate(0,408,344)"/><rect x="424" y="328" width="32" height="32" transform="rotate(0,440,344)"/><path d="M 456 328v 32h 32v -16a 16 16, 0, 0, 0, -16 -16" transform="rotate(0,472,344)"/><path d="M 552 328v 32h 32v -16a 16 16, 0, 0, 0, -16 -16" transform="rotate(-90,568,344)"/><rect x="584" y="328" width="32" height="32" transform="rotate(0,600,344)"/><rect x="616" y="328" width="32" height="32" transform="rotate(0,632,344)"/><path d="M 680 328v 32h 16a 16 16, 0, 0, 0, 0 -32" transform="rotate(90,696,344)"/><rect x="744" y="328" width="32" height="32" transform="rotate(0,760,344)"/><rect x="776" y="328" width="32" height="32" transform="rotate(0,792,344)"/><rect x="808" y="328" width="32" height="32" transform="rotate(0,824,344)"/><path d="M 936 328v 32h 16a 16 16, 0, 0, 0, 0 -32" transform="rotate(90,952,344)"/><path d="M 1032 328v 32h 32v -16a 16 16, 0, 0, 0, -16 -16" transform="rotate(-90,1048,344)"/><rect x="1064" y="328" width="32" height="32" transform="rotate(0,1080,344)"/><path d="M 1096 328v 32h 32v -16a 16 16, 0, 0, 0, -16 -16" transform="rotate(0,1112,344)"/><rect x="8" y="360" width="32" height="32" transform="rotate(0,24,376)"/><path d="M 72 360v 32h 16a 16 16, 0, 0, 0, 0 -32" transform="rotate(180,88,376)"/><rect x="104" y="360" width="32" height="32" transform="rotate(0,120,376)"/><rect x="168" y="360" width="32" height="32" transform="rotate(0,184,376)"/><path d="M 232 360v 32h 16a 16 16, 0, 0, 0, 0 -32" transform="rotate(180,248,376)"/><rect x="264" y="360" width="32" height="32" transform="rotate(0,280,376)"/><rect x="296" y="360" width="32" height="32" transform="rotate(0,312,376)"/><path d="M 328 360v 32h 16a 16 16, 0, 0, 0, 0 -32" transform="rotate(0,344,376)"/><rect x="424" y="360" width="32" height="32" transform="rotate(0,440,376)"/><rect x="456" y="360" width="32" height="32" transform="rotate(0,472,376)"/><path d="M 488 360v 32h 32v -16a 16 16, 0, 0, 0, -16 -16" transform="rotate(0,504,376)"/><rect x="552" y="360" width="32" height="32" transform="rotate(0,568,376)"/><path d="M 616 360v 32h 32v -16a 16 16, 0, 0, 0, -16 -16" transform="rotate(180,632,376)"/><path d="M 648 360v 32h 16a 16 16, 0, 0, 0, 0 -32" transform="rotate(0,664,376)"/><path d="M 712 360v 32h 32v -16a 16 16, 0, 0, 0, -16 -16" transform="rotate(-90,728,376)"/><path d="M 744 360v 32h 32v -16a 16 16, 0, 0, 0, -16 -16" transform="rotate(90,760,376)"/><rect x="808" y="360" width="32" height="32" transform="rotate(0,824,376)"/><rect x="840" y="360" width="32" height="32" transform="rotate(0,856,376)"/><rect x="872" y="360" width="32" height="32" transform="rotate(0,888,376)"/><path d="M 904 360v 32h 16a 16 16, 0, 0, 0, 0 -32" transform="rotate(0,920,376)"/><rect x="1032" y="360" width="32" height="32" transform="rotate(0,1048,376)"/><rect x="1096" y="360" width="32" height="32" transform="rotate(0,1112,376)"/><rect x="1128" y="360" width="32" height="32" transform="rotate(0,1144,376)"/><path d="M 1160 360v 32h 32v -16a 16 16, 0, 0, 0, -16 -16" transform="rotate(0,1176,376)"/><rect x="8" y="392" width="32" height="32" transform="rotate(0,24,408)"/><path d="M 40 392v 32h 16a 16 16, 0, 0, 0, 0 -32" transform="rotate(0,56,408)"/><rect x="104" y="392" width="32" height="32" transform="rotate(0,120,408)"/><rect x="168" y="392" width="32" height="32" transform="rotate(0,184,408)"/><path d="M 200 392v 32h 16a 16 16, 0, 0, 0, 0 -32" transform="rotate(0,216,408)"/><path d="M 264 392v 32h 16a 16 16, 0, 0, 0, 0 -32" transform="rotate(90,280,408)"/><circle cx="376" cy="408" r="16" transform="rotate(0,376,408)"/><path d="M 424 392v 32h 16a 16 16, 0, 0, 0, 0 -32" transform="rotate(90,440,408)"/><path d="M 488 392v 32h 32v -16a 16 16, 0, 0, 0, -16 -16" transform="rotate(180,504,408)"/><rect x="520" y="392" width="32" height="32" transform="rotate(0,536,408)"/><rect x="552" y="392" width="32" height="32" transform="rotate(0,568,408)"/><path d="M 712 392v 32h 16a 16 16, 0, 0, 0, 0 -32" transform="rotate(90,728,408)"/><rect x="808" y="392" width="32" height="32" transform="rotate(0,824,408)"/><rect x="840" y="392" width="32" height="32" transform="rotate(0,856,408)"/><rect x="872" y="392" width="32" height="32" transform="rotate(0,888,408)"/><path d="M 936 392v 32h 16a 16 16, 0, 0, 0, 0 -32" transform="rotate(180,952,408)"/><path d="M 968 392v 32h 32v -16a 16 16, 0, 0, 0, -16 -16" transform="rotate(0,984,408)"/><rect x="1032" y="392" width="32" height="32" transform="rotate(0,1048,408)"/><rect x="1064" y="392" width="32" height="32" transform="rotate(0,1080,408)"/><rect x="1096" y="392" width="32" height="32" transform="rotate(0,1112,408)"/><rect x="1160" y="392" width="32" height="32" transform="rotate(0,1176,408)"/><path d="M 8 424v 32h 16a 16 16, 0, 0, 0, 0 -32" transform="rotate(90,24,440)"/><path d="M 104 424v 32h 32v -16a 16 16, 0, 0, 0, -16 -16" transform="rotate(180,120,440)"/><rect x="136" y="424" width="32" height="32" transform="rotate(0,152,440)"/><rect x="168" y="424" width="32" height="32" transform="rotate(0,184,440)"/><circle cx="248" cy="440" r="16" transform="rotate(0,248,440)"/><path d="M 296 424v 32h 16a 16 16, 0, 0, 0, 0 -32" transform="rotate(-90,312,440)"/><rect x="520" y="424" width="32" height="32" transform="rotate(0,536,440)"/><rect x="552" y="424" width="32" height="32" transform="rotate(0,568,440)"/><path d="M 616 424v 32h 16a 16 16, 0, 0, 0, 0 -32" transform="rotate(180,632,440)"/><path d="M 648 424v 32h 16a 16 16, 0, 0, 0, 0 -32" transform="rotate(0,664,440)"/><path d="M 776 424v 32h 16a 16 16, 0, 0, 0, 0 -32" transform="rotate(180,792,440)"/><rect x="808" y="424" width="32" height="32" transform="rotate(0,824,440)"/><rect x="840" y="424" width="32" height="32" transform="rotate(0,856,440)"/><rect x="872" y="424" width="32" height="32" transform="rotate(0,888,440)"/><path d="M 904 424v 32h 16a 16 16, 0, 0, 0, 0 -32" transform="rotate(0,920,440)"/><rect x="968" y="424" width="32" height="32" transform="rotate(0,984,440)"/><path d="M 1032 424v 32h 16a 16 16, 0, 0, 0, 0 -32" transform="rotate(90,1048,440)"/><rect x="1096" y="424" width="32" height="32" transform="rotate(0,1112,440)"/><rect x="1128" y="424" width="32" height="32" transform="rotate(0,1144,440)"/><path d="M 1160 424v 32h 32v -16a 16 16, 0, 0, 0, -16 -16" transform="rotate(90,1176,440)"/><path d="M 40 456v 32h 16a 16 16, 0, 0, 0, 0 -32" transform="rotate(180,56,472)"/><path d="M 72 456v 32h 16a 16 16, 0, 0, 0, 0 -32" transform="rotate(0,88,472)"/><path d="M 168 456v 32h 32v -16a 16 16, 0, 0, 0, -16 -16" transform="rotate(180,184,472)"/><path d="M 200 456v 32h 16a 16 16, 0, 0, 0, 0 -32" transform="rotate(0,216,472)"/><rect x="296" y="456" width="32" height="32" transform="rotate(0,312,472)"/><path d="M 328 456v 32h 16a 16 16, 0, 0, 0, 0 -32" transform="rotate(0,344,472)"/><path d="M 424 456v 32h 16a 16 16, 0, 0, 0, 0 -32" transform="rotate(180,440,472)"/><rect x="456" y="456" width="32" height="32" transform="rotate(0,472,472)"/><rect x="488" y="456" width="32" height="32" transform="rotate(0,504,472)"/><rect x="520" y="456" width="32" height="32" transform="rotate(0,536,472)"/><path d="M 552 456v 32h 32v -16a 16 16, 0, 0, 0, -16 -16" transform="rotate(90,568,472)"/><path d="M 712 456v 32h 16a 16 16, 0, 0, 0, 0 -32" transform="rotate(-90,728,472)"/><rect x="840" y="456" width="32" height="32" transform="rotate(0,856,472)"/><path d="M 936 456v 32h 16a 16 16, 0, 0, 0, 0 -32" transform="rotate(180,952,472)"/><rect x="968" y="456" width="32" height="32" transform="rotate(0,984,472)"/><path d="M 1000 456v 32h 32v -16a 16 16, 0, 0, 0, -16 -16" transform="rotate(0,1016,472)"/><path d="M 1096 456v 32h 32v -16a 16 16, 0, 0, 0, -16 -16" transform="rotate(180,1112,472)"/><rect x="1128" y="456" width="32" height="32" transform="rotate(0,1144,472)"/><path d="M 104 488v 32h 16a 16 16, 0, 0, 0, 0 -32" transform="rotate(-90,120,504)"/><circle cx="248" cy="504" r="16" transform="rotate(0,248,504)"/><rect x="296" y="488" width="32" height="32" transform="rotate(0,312,504)"/><circle cx="376" cy="504" r="16" transform="rotate(0,376,504)"/><path d="M 456 488v 32h 32v -16a 16 16, 0, 0, 0, -16 -16" transform="rotate(180,472,504)"/><rect x="488" y="488" width="32" height="32" transform="rotate(0,504,504)"/><path d="M 520 488v 32h 32v -16a 16 16, 0, 0, 0, -16 -16" transform="rotate(90,536,504)"/><path d="M 680 488v 32h 16a 16 16, 0, 0, 0, 0 -32" transform="rotate(180,696,504)"/><path d="M 712 488v 32h 32v -16a 16 16, 0, 0, 0, -16 -16" transform="rotate(90,728,504)"/><path d="M 840 488v 32h 16a 16 16, 0, 0, 0, 0 -32" transform="rotate(90,856,504)"/><circle cx="920" cy="504" r="16" transform="rotate(0,920,504)"/><path d="M 1000 488v 32h 16a 16 16, 0, 0, 0, 0 -32" transform="rotate(90,1016,504)"/><path d="M 1128 488v 32h 32v -16a 16 16, 0, 0, 0, -16 -16" transform="rotate(180,1144,504)"/><path d="M 1160 488v 32h 16a 16 16, 0, 0, 0, 0 -32" transform="rotate(0,1176,504)"/><circle cx="24" cy="536" r="16" transform="rotate(0,24,536)"/><path d="M 72 520v 32h 32v -16a 16 16, 0, 0, 0, -16 -16" transform="rotate(-90,88,536)"/><rect x="104" y="520" width="32" height="32" transform="rotate(0,120,536)"/><circle cx="216" cy="536" r="16" transform="rotate(0,216,536)"/><path d="M 264 520v 32h 32v -16a 16 16, 0, 0, 0, -16 -16" transform="rotate(-90,280,536)"/><rect x="296" y="520" width="32" height="32" transform="rotate(0,312,536)"/><rect x="488" y="520" width="32" height="32" transform="rotate(0,504,536)"/><path d="M 552 520v 32h 32v -16a 16 16, 0, 0, 0, -16 -16" transform="rotate(-90,568,536)"/><rect x="584" y="520" width="32" height="32" transform="rotate(0,600,536)"/><rect x="616" y="520" width="32" height="32" transform="rotate(0,632,536)"/><path d="M 648 520v 32h 16a 16 16, 0, 0, 0, 0 -32" transform="rotate(0,664,536)"/><path d="M 808 520v 32h 16a 16 16, 0, 0, 0, 0 -32" transform="rotate(-90,824,536)"/><path d="M 872 520v 32h 16a 16 16, 0, 0, 0, 0 -32" transform="rotate(-90,888,536)"/><path d="M 1064 520v 32h 32v -16a 16 16, 0, 0, 0, -16 -16" transform="rotate(-90,1080,536)"/><path d="M 1096 520v 32h 32v -16a 16 16, 0, 0, 0, -16 -16" transform="rotate(0,1112,536)"/><path d="M 40 552v 32h 16a 16 16, 0, 0, 0, 0 -32" transform="rotate(180,56,568)"/><rect x="72" y="552" width="32" height="32" transform="rotate(0,88,568)"/><rect x="104" y="552" width="32" height="32" transform="rotate(0,120,568)"/><rect x="136" y="552" width="32" height="32" transform="rotate(0,152,568)"/><path d="M 168 552v 32h 16a 16 16, 0, 0, 0, 0 -32" transform="rotate(0,184,568)"/><path d="M 264 552v 32h 32v -16a 16 16, 0, 0, 0, -16 -16" transform="rotate(180,280,568)"/><rect x="296" y="552" width="32" height="32" transform="rotate(0,312,568)"/><rect x="328" y="552" width="32" height="32" transform="rotate(0,344,568)"/><rect x="360" y="552" width="32" height="32" transform="rotate(0,376,568)"/><rect x="392" y="552" width="32" height="32" transform="rotate(0,408,568)"/><path d="M 424 552v 32h 32v -16a 16 16, 0, 0, 0, -16 -16" transform="rotate(0,440,568)"/><rect x="488" y="552" width="32" height="32" transform="rotate(0,504,568)"/><rect x="520" y="552" width="32" height="32" transform="rotate(0,536,568)"/><rect x="552" y="552" width="32" height="32" transform="rotate(0,568,568)"/><rect x="584" y="552" width="32" height="32" transform="rotate(0,600,568)"/><rect x="808" y="552" width="32" height="32" transform="rotate(0,824,568)"/><rect x="872" y="552" width="32" height="32" transform="rotate(0,888,568)"/><path d="M 968 552v 32h 16a 16 16, 0, 0, 0, 0 -32" transform="rotate(180,984,568)"/><path d="M 1000 552v 32h 32v -16a 16 16, 0, 0, 0, -16 -16" transform="rotate(0,1016,568)"/><rect x="1064" y="552" width="32" height="32" transform="rotate(0,1080,568)"/><rect x="1096" y="552" width="32" height="32" transform="rotate(0,1112,568)"/><path d="M 1160 552v 32h 16a 16 16, 0, 0, 0, 0 -32" transform="rotate(-90,1176,568)"/><path d="M 8 584v 32h 16a 16 16, 0, 0, 0, 0 -32" transform="rotate(-90,24,600)"/><path d="M 72 584v 32h 16a 16 16, 0, 0, 0, 0 -32" transform="rotate(90,88,600)"/><path d="M 200 584v 32h 16a 16 16, 0, 0, 0, 0 -32" transform="rotate(180,216,600)"/><path d="M 232 584v 32h 16a 16 16, 0, 0, 0, 0 -32" transform="rotate(0,248,600)"/><path d="M 392 584v 32h 32v -16a 16 16, 0, 0, 0, -16 -16" transform="rotate(180,408,600)"/><rect x="424" y="584" width="32" height="32" transform="rotate(0,440,600)"/><path d="M 488 584v 32h 32v -16a 16 16, 0, 0, 0, -16 -16" transform="rotate(180,504,600)"/><rect x="520" y="584" width="32" height="32" transform="rotate(0,536,600)"/><rect x="552" y="584" width="32" height="32" transform="rotate(0,568,600)"/><rect x="584" y="584" width="32" height="32" transform="rotate(0,600,600)"/><rect x="616" y="584" width="32" height="32" transform="rotate(0,632,600)"/><rect x="648" y="584" width="32" height="32" transform="rotate(0,664,600)"/><rect x="680" y="584" width="32" height="32" transform="rotate(0,696,600)"/><path d="M 712 584v 32h 32v -16a 16 16, 0, 0, 0, -16 -16" transform="rotate(0,728,600)"/><path d="M 808 584v 32h 16a 16 16, 0, 0, 0, 0 -32" transform="rotate(90,824,600)"/><rect x="872" y="584" width="32" height="32" transform="rotate(0,888,600)"/><rect x="904" y="584" width="32" height="32" transform="rotate(0,920,600)"/><path d="M 936 584v 32h 16a 16 16, 0, 0, 0, 0 -32" transform="rotate(0,952,600)"/><path d="M 1000 584v 32h 16a 16 16, 0, 0, 0, 0 -32" transform="rotate(90,1016,600)"/><rect x="1064" y="584" width="32" height="32" transform="rotate(0,1080,600)"/><rect x="1096" y="584" width="32" height="32" transform="rotate(0,1112,600)"/><rect x="1128" y="584" width="32" height="32" transform="rotate(0,1144,600)"/><path d="M 1160 584v 32h 32v -16a 16 16, 0, 0, 0, -16 -16" transform="rotate(90,1176,600)"/><rect x="8" y="616" width="32" height="32" transform="rotate(0,24,632)"/><circle cx="120" cy="632" r="16" transform="rotate(0,120,632)"/><circle cx="184" cy="632" r="16" transform="rotate(0,184,632)"/><circle cx="280" cy="632" r="16" transform="rotate(0,280,632)"/><path d="M 360 616v 32h 16a 16 16, 0, 0, 0, 0 -32" transform="rotate(-90,376,632)"/><path d="M 424 616v 32h 32v -16a 16 16, 0, 0, 0, -16 -16" transform="rotate(180,440,632)"/><path d="M 456 616v 32h 32v -16a 16 16, 0, 0, 0, -16 -16" transform="rotate(0,472,632)"/><path d="M 520 616v 32h 32v -16a 16 16, 0, 0, 0, -16 -16" transform="rotate(180,536,632)"/><rect x="552" y="616" width="32" height="32" transform="rotate(0,568,632)"/><path d="M 584 616v 32h 32v -16a 16 16, 0, 0, 0, -16 -16" transform="rotate(90,600,632)"/><path d="M 648 616v 32h 16a 16 16, 0, 0, 0, 0 -32" transform="rotate(90,664,632)"/><path d="M 712 616v 32h 16a 16 16, 0, 0, 0, 0 -32" transform="rotate(90,728,632)"/><rect x="872" y="616" width="32" height="32" transform="rotate(0,888,632)"/><rect x="904" y="616" width="32" height="32" transform="rotate(0,920,632)"/><path d="M 1064 616v 32h 16a 16 16, 0, 0, 0, 0 -32" transform="rotate(90,1080,632)"/><path d="M 1128 616v 32h 16a 16 16, 0, 0, 0, 0 -32" transform="rotate(90,1144,632)"/><rect x="8" y="648" width="32" height="32" transform="rotate(0,24,664)"/><path d="M 40 648v 32h 16a 16 16, 0, 0, 0, 0 -32" transform="rotate(0,56,664)"/><path d="M 200 648v 32h 16a 16 16, 0, 0, 0, 0 -32" transform="rotate(180,216,664)"/><path d="M 232 648v 32h 32v -16a 16 16, 0, 0, 0, -16 -16" transform="rotate(0,248,664)"/><path d="M 328 648v 32h 32v -16a 16 16, 0, 0, 0, -16 -16" transform="rotate(-90,344,664)"/><path d="M 360 648v 32h 32v -16a 16 16, 0, 0, 0, -16 -16" transform="rotate(90,376,664)"/><path d="M 456 648v 32h 16a 16 16, 0, 0, 0, 0 -32" transform="rotate(90,472,664)"/><rect x="552" y="648" width="32" height="32" transform="rotate(0,568,664)"/><path d="M 680 648v 32h 16a 16 16, 0, 0, 0, 0 -32" transform="rotate(-90,696,664)"/><circle cx="792" cy="664" r="16" transform="rotate(0,792,664)"/><path d="M 872 648v 32h 32v -16a 16 16, 0, 0, 0, -16 -16" transform="rotate(180,888,664)"/><rect x="904" y="648" width="32" height="32" transform="rotate(0,920,664)"/><path d="M 936 648v 32h 16a 16 16, 0, 0, 0, 0 -32" transform="rotate(0,952,664)"/><circle cx="1048" cy="664" r="16" transform="rotate(0,1048,664)"/><circle cx="1176" cy="664" r="16" transform="rotate(0,1176,664)"/><rect x="8" y="680" width="32" height="32" transform="rotate(0,24,696)"/><path d="M 136 680v 32h 32v -16a 16 16, 0, 0, 0, -16 -16" transform="rotate(-90,152,696)"/><path d="M 168 680v 32h 32v -16a 16 16, 0, 0, 0, -16 -16" transform="rotate(0,184,696)"/><rect x="232" y="680" width="32" height="32" transform="rotate(0,248,696)"/><path d="M 296 680v 32h 16a 16 16, 0, 0, 0, 0 -32" transform="rotate(180,312,696)"/><path d="M 328 680v 32h 32v -16a 16 16, 0, 0, 0, -16 -16" transform="rotate(90,344,696)"/><path d="M 488 680v 32h 32v -16a 16 16, 0, 0, 0, -16 -16" transform="rotate(-90,504,696)"/><rect x="520" y="680" width="32" height="32" transform="rotate(0,536,696)"/><rect x="552" y="680" width="32" height="32" transform="rotate(0,568,696)"/><path d="M 648 680v 32h 16a 16 16, 0, 0, 0, 0 -32" transform="rotate(180,664,696)"/><rect x="680" y="680" width="32" height="32" transform="rotate(0,696,696)"/><rect x="712" y="680" width="32" height="32" transform="rotate(0,728,696)"/><path d="M 744 680v 32h 32v -16a 16 16, 0, 0, 0, -16 -16" transform="rotate(0,760,696)"/><circle cx="1016" cy="696" r="16" transform="rotate(0,1016,696)"/><path d="M 1064 680v 32h 16a 16 16, 0, 0, 0, 0 -32" transform="rotate(-90,1080,696)"/><circle cx="1144" cy="696" r="16" transform="rotate(0,1144,696)"/><path d="M 8 712v 32h 32v -16a 16 16, 0, 0, 0, -16 -16" transform="rotate(180,24,728)"/><path d="M 40 712v 32h 16a 16 16, 0, 0, 0, 0 -32" transform="rotate(0,56,728)"/><path d="M 136 712v 32h 32v -16a 16 16, 0, 0, 0, -16 -16" transform="rotate(180,152,728)"/><rect x="168" y="712" width="32" height="32" transform="rotate(0,184,728)"/><rect x="200" y="712" width="32" height="32" transform="rotate(0,216,728)"/><rect x="232" y="712" width="32" height="32" transform="rotate(0,248,728)"/><path d="M 264 712v 32h 16a 16 16, 0, 0, 0, 0 -32" transform="rotate(0,280,728)"/><circle cx="408" cy="728" r="16" transform="rotate(0,408,728)"/><path d="M 456 712v 32h 16a 16 16, 0, 0, 0, 0 -32" transform="rotate(180,472,728)"/><path d="M 488 712v 32h 32v -16a 16 16, 0, 0, 0, -16 -16" transform="rotate(90,504,728)"/><path d="M 552 712v 32h 32v -16a 16 16, 0, 0, 0, -16 -16" transform="rotate(180,568,728)"/><path d="M 584 712v 32h 32v -16a 16 16, 0, 0, 0, -16 -16" transform="rotate(0,600,728)"/><path d="M 680 712v 32h 16a 16 16, 0, 0, 0, 0 -32" transform="rotate(90,696,728)"/><rect x="744" y="712" width="32" height="32" transform="rotate(0,760,728)"/><path d="M 808 712v 32h 32v -16a 16 16, 0, 0, 0, -16 -16" transform="rotate(-90,824,728)"/><path d="M 840 712v 32h 32v -16a 16 16, 0, 0, 0, -16 -16" transform="rotate(0,856,728)"/><path d="M 936 712v 32h 32v -16a 16 16, 0, 0, 0, -16 -16" transform="rotate(-90,952,728)"/><path d="M 968 712v 32h 16a 16 16, 0, 0, 0, 0 -32" transform="rotate(0,984,728)"/><path d="M 1032 712v 32h 16a 16 16, 0, 0, 0, 0 -32" transform="rotate(180,1048,728)"/><rect x="1064" y="712" width="32" height="32" transform="rotate(0,1080,728)"/><circle cx="88" cy="760" r="16" transform="rotate(0,88,760)"/><rect x="168" y="744" width="32" height="32" transform="rotate(0,184,760)"/><path d="M 296 744v 32h 16a 16 16, 0, 0, 0, 0 -32" transform="rotate(-90,312,760)"/><path d="M 360 744v 32h 16a 16 16, 0, 0, 0, 0 -32" transform="rotate(-90,376,760)"/><path d="M 424 744v 32h 16a 16 16, 0, 0, 0, 0 -32" transform="rotate(-90,440,760)"/><rect x="584" y="744" width="32" height="32" transform="rotate(0,600,760)"/><circle cx="664" cy="760" r="16" transform="rotate(0,664,760)"/><path d="M 712 744v 32h 32v -16a 16 16, 0, 0, 0, -16 -16" transform="rotate(-90,728,760)"/><path d="M 744 744v 32h 32v -16a 16 16, 0, 0, 0, -16 -16" transform="rotate(90,760,760)"/><rect x="808" y="744" width="32" height="32" transform="rotate(0,824,760)"/><rect x="840" y="744" width="32" height="32" transform="rotate(0,856,760)"/><rect x="872" y="744" width="32" height="32" transform="rotate(0,888,760)"/><rect x="904" y="744" width="32" height="32" transform="rotate(0,920,760)"/><rect x="936" y="744" width="32" height="32" transform="rotate(0,952,760)"/><path d="M 1064 744v 32h 32v -16a 16 16, 0, 0, 0, -16 -16" transform="rotate(180,1080,760)"/><path d="M 1096 744v 32h 32v -16a 16 16, 0, 0, 0, -16 -16" transform="rotate(0,1112,760)"/><path d="M 1160 744v 32h 16a 16 16, 0, 0, 0, 0 -32" transform="rotate(-90,1176,760)"/><path d="M 104 776v 32h 16a 16 16, 0, 0, 0, 0 -32" transform="rotate(-90,120,792)"/><rect x="168" y="776" width="32" height="32" transform="rotate(0,184,792)"/><path d="M 200 776v 32h 16a 16 16, 0, 0, 0, 0 -32" transform="rotate(0,216,792)"/><rect x="296" y="776" width="32" height="32" transform="rotate(0,312,792)"/><path d="M 360 776v 32h 16a 16 16, 0, 0, 0, 0 -32" transform="rotate(90,376,792)"/><path d="M 424 776v 32h 32v -16a 16 16, 0, 0, 0, -16 -16" transform="rotate(180,440,792)"/><path d="M 456 776v 32h 16a 16 16, 0, 0, 0, 0 -32" transform="rotate(0,472,792)"/><path d="M 552 776v 32h 32v -16a 16 16, 0, 0, 0, -16 -16" transform="rotate(-90,568,792)"/><path d="M 584 776v 32h 32v -16a 16 16, 0, 0, 0, -16 -16" transform="rotate(90,600,792)"/><rect x="712" y="776" width="32" height="32" transform="rotate(0,728,792)"/><path d="M 808 776v 32h 32v -16a 16 16, 0, 0, 0, -16 -16" transform="rotate(180,824,792)"/><rect x="840" y="776" width="32" height="32" transform="rotate(0,856,792)"/><rect x="904" y="776" width="32" height="32" transform="rotate(0,920,792)"/><rect x="936" y="776" width="32" height="32" transform="rotate(0,952,792)"/><path d="M 968 776v 32h 32v -16a 16 16, 0, 0, 0, -16 -16" transform="rotate(0,984,792)"/><path d="M 1032 776v 32h 16a 16 16, 0, 0, 0, 0 -32" transform="rotate(-90,1048,792)"/><rect x="1096" y="776" width="32" height="32" transform="rotate(0,1112,792)"/><rect x="1160" y="776" width="32" height="32" transform="rotate(0,1176,792)"/><rect x="104" y="808" width="32" height="32" transform="rotate(0,120,824)"/><rect x="136" y="808" width="32" height="32" transform="rotate(0,152,824)"/><path d="M 168 808v 32h 32v -16a 16 16, 0, 0, 0, -16 -16" transform="rotate(90,184,824)"/><path d="M 264 808v 32h 16a 16 16, 0, 0, 0, 0 -32" transform="rotate(180,280,824)"/><rect x="296" y="808" width="32" height="32" transform="rotate(0,312,824)"/><path d="M 392 808v 32h 16a 16 16, 0, 0, 0, 0 -32" transform="rotate(-90,408,824)"/><path d="M 552 808v 32h 16a 16 16, 0, 0, 0, 0 -32" transform="rotate(90,568,824)"/><path d="M 616 808v 32h 16a 16 16, 0, 0, 0, 0 -32" transform="rotate(180,632,824)"/><path d="M 648 808v 32h 16a 16 16, 0, 0, 0, 0 -32" transform="rotate(0,664,824)"/><path d="M 712 808v 32h 16a 16 16, 0, 0, 0, 0 -32" transform="rotate(90,728,824)"/><circle cx="792" cy="824" r="16" transform="rotate(0,792,824)"/><path d="M 840 808v 32h 32v -16a 16 16, 0, 0, 0, -16 -16" transform="rotate(180,856,824)"/><rect x="872" y="808" width="32" height="32" transform="rotate(0,888,824)"/><rect x="904" y="808" width="32" height="32" transform="rotate(0,920,824)"/><rect x="936" y="808" width="32" height="32" transform="rotate(0,952,824)"/><rect x="968" y="808" width="32" height="32" transform="rotate(0,984,824)"/><rect x="1000" y="808" width="32" height="32" transform="rotate(0,1016,824)"/><rect x="1032" y="808" width="32" height="32" transform="rotate(0,1048,824)"/><rect x="1064" y="808" width="32" height="32" transform="rotate(0,1080,824)"/><rect x="1096" y="808" width="32" height="32" transform="rotate(0,1112,824)"/><rect x="1128" y="808" width="32" height="32" transform="rotate(0,1144,824)"/><path d="M 1160 808v 32h 32v -16a 16 16, 0, 0, 0, -16 -16" transform="rotate(90,1176,824)"/><circle cx="56" cy="856" r="16" transform="rotate(0,56,856)"/><path d="M 104 840v 32h 16a 16 16, 0, 0, 0, 0 -32" transform="rotate(90,120,856)"/><path d="M 200 840v 32h 16a 16 16, 0, 0, 0, 0 -32" transform="rotate(180,216,856)"/><path d="M 232 840v 32h 32v -16a 16 16, 0, 0, 0, -16 -16" transform="rotate(0,248,856)"/><rect x="296" y="840" width="32" height="32" transform="rotate(0,312,856)"/><rect x="328" y="840" width="32" height="32" transform="rotate(0,344,856)"/><rect x="360" y="840" width="32" height="32" transform="rotate(0,376,856)"/><rect x="392" y="840" width="32" height="32" transform="rotate(0,408,856)"/><path d="M 456 840v 32h 32v -16a 16 16, 0, 0, 0, -16 -16" transform="rotate(-90,472,856)"/><rect x="488" y="840" width="32" height="32" transform="rotate(0,504,856)"/><path d="M 520 840v 32h 32v -16a 16 16, 0, 0, 0, -16 -16" transform="rotate(0,536,856)"/><circle cx="600" cy="856" r="16" transform="rotate(0,600,856)"/><path d="M 680 840v 32h 16a 16 16, 0, 0, 0, 0 -32" transform="rotate(-90,696,856)"/><path d="M 904 840v 32h 16a 16 16, 0, 0, 0, 0 -32" transform="rotate(90,920,856)"/><rect x="1000" y="840" width="32" height="32" transform="rotate(0,1016,856)"/><rect x="1032" y="840" width="32" height="32" transform="rotate(0,1048,856)"/><rect x="1064" y="840" width="32" height="32" transform="rotate(0,1080,856)"/><rect x="1096" y="840" width="32" height="32" transform="rotate(0,1112,856)"/><path d="M 1128 840v 32h 32v -16a 16 16, 0, 0, 0, -16 -16" transform="rotate(90,1144,856)"/><circle cx="24" cy="888" r="16" transform="rotate(0,24,888)"/><rect x="232" y="872" width="32" height="32" transform="rotate(0,248,888)"/><rect x="264" y="872" width="32" height="32" transform="rotate(0,280,888)"/><path d="M 296 872v 32h 32v -16a 16 16, 0, 0, 0, -16 -16" transform="rotate(90,312,888)"/><path d="M 392 872v 32h 32v -16a 16 16, 0, 0, 0, -16 -16" transform="rotate(180,408,888)"/><rect x="424" y="872" width="32" height="32" transform="rotate(0,440,888)"/><rect x="456" y="872" width="32" height="32" transform="rotate(0,472,888)"/><rect x="488" y="872" width="32" height="32" transform="rotate(0,504,888)"/><rect x="520" y="872" width="32" height="32" transform="rotate(0,536,888)"/><circle cx="632" cy="888" r="16" transform="rotate(0,632,888)"/><rect x="680" y="872" width="32" height="32" transform="rotate(0,696,888)"/><rect x="712" y="872" width="32" height="32" transform="rotate(0,728,888)"/><path d="M 744 872v 32h 16a 16 16, 0, 0, 0, 0 -32" transform="rotate(0,760,888)"/><circle cx="856" cy="888" r="16" transform="rotate(0,856,888)"/><path d="M 936 872v 32h 16a 16 16, 0, 0, 0, 0 -32" transform="rotate(-90,952,888)"/><rect x="1000" y="872" width="32" height="32" transform="rotate(0,1016,888)"/><circle cx="1176" cy="888" r="16" transform="rotate(0,1176,888)"/><circle cx="88" cy="920" r="16" transform="rotate(0,88,920)"/><path d="M 168 904v 32h 16a 16 16, 0, 0, 0, 0 -32" transform="rotate(180,184,920)"/><rect x="200" y="904" width="32" height="32" transform="rotate(0,216,920)"/><path d="M 232 904v 32h 32v -16a 16 16, 0, 0, 0, -16 -16" transform="rotate(90,248,920)"/><path d="M 328 904v 32h 16a 16 16, 0, 0, 0, 0 -32" transform="rotate(-90,344,920)"/><rect x="488" y="904" width="32" height="32" transform="rotate(0,504,920)"/><rect x="520" y="904" width="32" height="32" transform="rotate(0,536,920)"/><rect x="552" y="904" width="32" height="32" transform="rotate(0,568,920)"/><path d="M 584 904v 32h 32v -16a 16 16, 0, 0, 0, -16 -16" transform="rotate(0,600,920)"/><path d="M 648 904v 32h 16a 16 16, 0, 0, 0, 0 -32" transform="rotate(180,664,920)"/><rect x="680" y="904" width="32" height="32" transform="rotate(0,696,920)"/><rect x="712" y="904" width="32" height="32" transform="rotate(0,728,920)"/><circle cx="824" cy="920" r="16" transform="rotate(0,824,920)"/><path d="M 904 904v 32h 32v -16a 16 16, 0, 0, 0, -16 -16" transform="rotate(-90,920,920)"/><rect x="936" y="904" width="32" height="32" transform="rotate(0,952,920)"/><rect x="968" y="904" width="32" height="32" transform="rotate(0,984,920)"/><rect x="1000" y="904" width="32" height="32" transform="rotate(0,1016,920)"/><path d="M 1032 904v 32h 32v -16a 16 16, 0, 0, 0, -16 -16" transform="rotate(0,1048,920)"/><path d="M 1096 904v 32h 16a 16 16, 0, 0, 0, 0 -32" transform="rotate(-90,1112,920)"/><path d="M 264 936v 32h 16a 16 16, 0, 0, 0, 0 -32" transform="rotate(180,280,952)"/><rect x="296" y="936" width="32" height="32" transform="rotate(0,312,952)"/><rect x="328" y="936" width="32" height="32" transform="rotate(0,344,952)"/><path d="M 360 936v 32h 32v -16a 16 16, 0, 0, 0, -16 -16" transform="rotate(0,376,952)"/><path d="M 424 936v 32h 16a 16 16, 0, 0, 0, 0 -32" transform="rotate(180,440,952)"/><rect x="456" y="936" width="32" height="32" transform="rotate(0,472,952)"/><path d="M 488 936v 32h 32v -16a 16 16, 0, 0, 0, -16 -16" transform="rotate(90,504,952)"/><path d="M 584 936v 32h 16a 16 16, 0, 0, 0, 0 -32" transform="rotate(90,600,952)"/><path d="M 680 936v 32h 32v -16a 16 16, 0, 0, 0, -16 -16" transform="rotate(180,696,952)"/><rect x="712" y="936" width="32" height="32" transform="rotate(0,728,952)"/><rect x="744" y="936" width="32" height="32" transform="rotate(0,760,952)"/><path d="M 776 936v 32h 16a 16 16, 0, 0, 0, 0 -32" transform="rotate(0,792,952)"/><circle cx="856" cy="952" r="16" transform="rotate(0,856,952)"/><rect x="904" y="936" width="32" height="32" transform="rotate(0,920,952)"/><rect x="1032" y="936" width="32" height="32" transform="rotate(0,1048,952)"/><rect x="1064" y="936" width="32" height="32" transform="rotate(0,1080,952)"/><path d="M 1096 936v 32h 32v -16a 16 16, 0, 0, 0, -16 -16" transform="rotate(90,1112,952)"/><path d="M 1160 936v 32h 16a 16 16, 0, 0, 0, 0 -32" transform="rotate(-90,1176,952)"/><rect x="328" y="968" width="32" height="32" transform="rotate(0,344,984)"/><rect x="360" y="968" width="32" height="32" transform="rotate(0,376,984)"/><path d="M 392 968v 32h 16a 16 16, 0, 0, 0, 0 -32" transform="rotate(0,408,984)"/><path d="M 456 968v 32h 16a 16 16, 0, 0, 0, 0 -32" transform="rotate(90,472,984)"/><path d="M 520 968v 32h 16a 16 16, 0, 0, 0, 0 -32" transform="rotate(180,536,984)"/><path d="M 552 968v 32h 32v -16a 16 16, 0, 0, 0, -16 -16" transform="rotate(0,568,984)"/><circle cx="632" cy="984" r="16" transform="rotate(0,632,984)"/><path d="M 712 968v 32h 16a 16 16, 0, 0, 0, 0 -32" transform="rotate(90,728,984)"/><rect x="904" y="968" width="32" height="32" transform="rotate(0,920,984)"/><circle cx="984" cy="984" r="16" transform="rotate(0,984,984)"/><rect x="1032" y="968" width="32" height="32" transform="rotate(0,1048,984)"/><rect x="1064" y="968" width="32" height="32" transform="rotate(0,1080,984)"/><path d="M 1128 968v 32h 32v -16a 16 16, 0, 0, 0, -16 -16" transform="rotate(-90,1144,984)"/><rect x="1160" y="968" width="32" height="32" transform="rotate(0,1176,984)"/><path d="M 264 1000v 32h 16a 16 16, 0, 0, 0, 0 -32" transform="rotate(180,280,1016)"/><rect x="296" y="1000" width="32" height="32" transform="rotate(0,312,1016)"/><rect x="328" y="1000" width="32" height="32" transform="rotate(0,344,1016)"/><rect x="360" y="1000" width="32" height="32" transform="rotate(0,376,1016)"/><path d="M 424 1000v 32h 16a 16 16, 0, 0, 0, 0 -32" transform="rotate(-90,440,1016)"/><rect x="552" y="1000" width="32" height="32" transform="rotate(0,568,1016)"/><path d="M 584 1000v 32h 32v -16a 16 16, 0, 0, 0, -16 -16" transform="rotate(0,600,1016)"/><circle cx="696" cy="1016" r="16" transform="rotate(0,696,1016)"/><path d="M 744 1000v 32h 16a 16 16, 0, 0, 0, 0 -32" transform="rotate(180,760,1016)"/><path d="M 776 1000v 32h 32v -16a 16 16, 0, 0, 0, -16 -16" transform="rotate(0,792,1016)"/><path d="M 872 1000v 32h 16a 16 16, 0, 0, 0, 0 -32" transform="rotate(180,888,1016)"/><rect x="904" y="1000" width="32" height="32" transform="rotate(0,920,1016)"/><rect x="1032" y="1000" width="32" height="32" transform="rotate(0,1048,1016)"/><rect x="1064" y="1000" width="32" height="32" transform="rotate(0,1080,1016)"/><path d="M 1128 1000v 32h 32v -16a 16 16, 0, 0, 0, -16 -16" transform="rotate(180,1144,1016)"/><path d="M 1160 1000v 32h 32v -16a 16 16, 0, 0, 0, -16 -16" transform="rotate(90,1176,1016)"/><path d="M 328 1032v 32h 32v -16a 16 16, 0, 0, 0, -16 -16" transform="rotate(180,344,1048)"/><rect x="360" y="1032" width="32" height="32" transform="rotate(0,376,1048)"/><rect x="392" y="1032" width="32" height="32" transform="rotate(0,408,1048)"/><rect x="424" y="1032" width="32" height="32" transform="rotate(0,440,1048)"/><path d="M 488 1032v 32h 16a 16 16, 0, 0, 0, 0 -32" transform="rotate(180,504,1048)"/><rect x="520" y="1032" width="32" height="32" transform="rotate(0,536,1048)"/><rect x="552" y="1032" width="32" height="32" transform="rotate(0,568,1048)"/><rect x="584" y="1032" width="32" height="32" transform="rotate(0,600,1048)"/><rect x="616" y="1032" width="32" height="32" transform="rotate(0,632,1048)"/><path d="M 648 1032v 32h 16a 16 16, 0, 0, 0, 0 -32" transform="rotate(0,664,1048)"/><path d="M 776 1032v 32h 16a 16 16, 0, 0, 0, 0 -32" transform="rotate(90,792,1048)"/><circle cx="856" cy="1048" r="16" transform="rotate(0,856,1048)"/><rect x="904" y="1032" width="32" height="32" transform="rotate(0,920,1048)"/><rect x="936" y="1032" width="32" height="32" transform="rotate(0,952,1048)"/><rect x="968" y="1032" width="32" height="32" transform="rotate(0,984,1048)"/><rect x="1000" y="1032" width="32" height="32" transform="rotate(0,1016,1048)"/><rect x="1032" y="1032" width="32" height="32" transform="rotate(0,1048,1048)"/><path d="M 1064 1032v 32h 32v -16a 16 16, 0, 0, 0, -16 -16" transform="rotate(90,1080,1048)"/><path d="M 264 1064v 32h 32v -16a 16 16, 0, 0, 0, -16 -16" transform="rotate(-90,280,1080)"/><path d="M 296 1064v 32h 32v -16a 16 16, 0, 0, 0, -16 -16" transform="rotate(0,312,1080)"/><rect x="392" y="1064" width="32" height="32" transform="rotate(0,408,1080)"/><rect x="424" y="1064" width="32" height="32" transform="rotate(0,440,1080)"/><rect x="552" y="1064" width="32" height="32" transform="rotate(0,568,1080)"/><rect x="584" y="1064" width="32" height="32" transform="rotate(0,600,1080)"/><circle cx="696" cy="1080" r="16" transform="rotate(0,696,1080)"/><path d="M 744 1064v 32h 16a 16 16, 0, 0, 0, 0 -32" transform="rotate(-90,760,1080)"/><circle cx="824" cy="1080" r="16" transform="rotate(0,824,1080)"/><path d="M 872 1064v 32h 16a 16 16, 0, 0, 0, 0 -32" transform="rotate(180,888,1080)"/><path d="M 904 1064v 32h 32v -16a 16 16, 0, 0, 0, -16 -16" transform="rotate(90,920,1080)"/><rect x="968" y="1064" width="32" height="32" transform="rotate(0,984,1080)"/><rect x="1032" y="1064" width="32" height="32" transform="rotate(0,1048,1080)"/><path d="M 1096 1064v 32h 16a 16 16, 0, 0, 0, 0 -32" transform="rotate(180,1112,1080)"/><path d="M 1128 1064v 32h 32v -16a 16 16, 0, 0, 0, -16 -16" transform="rotate(0,1144,1080)"/><rect x="264" y="1096" width="32" height="32" transform="rotate(0,280,1112)"/><rect x="296" y="1096" width="32" height="32" transform="rotate(0,312,1112)"/><path d="M 328 1096v 32h 16a 16 16, 0, 0, 0, 0 -32" transform="rotate(0,344,1112)"/><rect x="392" y="1096" width="32" height="32" transform="rotate(0,408,1112)"/><rect x="424" y="1096" width="32" height="32" transform="rotate(0,440,1112)"/><path d="M 488 1096v 32h 16a 16 16, 0, 0, 0, 0 -32" transform="rotate(-90,504,1112)"/><path d="M 552 1096v 32h 32v -16a 16 16, 0, 0, 0, -16 -16" transform="rotate(180,568,1112)"/><rect x="584" y="1096" width="32" height="32" transform="rotate(0,600,1112)"/><path d="M 712 1096v 32h 16a 16 16, 0, 0, 0, 0 -32" transform="rotate(180,728,1112)"/><rect x="744" y="1096" width="32" height="32" transform="rotate(0,760,1112)"/><path d="M 776 1096v 32h 16a 16 16, 0, 0, 0, 0 -32" transform="rotate(0,792,1112)"/><path d="M 968 1096v 32h 32v -16a 16 16, 0, 0, 0, -16 -16" transform="rotate(180,984,1112)"/><rect x="1000" y="1096" width="32" height="32" transform="rotate(0,1016,1112)"/><rect x="1032" y="1096" width="32" height="32" transform="rotate(0,1048,1112)"/><path d="M 1128 1096v 32h 16a 16 16, 0, 0, 0, 0 -32" transform="rotate(90,1144,1112)"/><path d="M 264 1128v 32h 16a 16 16, 0, 0, 0, 0 -32" transform="rotate(90,280,1144)"/><rect x="392" y="1128" width="32" height="32" transform="rotate(0,408,1144)"/><rect x="424" y="1128" width="32" height="32" transform="rotate(0,440,1144)"/><rect x="456" y="1128" width="32" height="32" transform="rotate(0,472,1144)"/><path d="M 488 1128v 32h 32v -16a 16 16, 0, 0, 0, -16 -16" transform="rotate(90,504,1144)"/><rect x="584" y="1128" width="32" height="32" transform="rotate(0,600,1144)"/><path d="M 616 1128v 32h 16a 16 16, 0, 0, 0, 0 -32" transform="rotate(0,632,1144)"/><rect x="744" y="1128" width="32" height="32" transform="rotate(0,760,1144)"/><path d="M 808 1128v 32h 32v -16a 16 16, 0, 0, 0, -16 -16" transform="rotate(-90,824,1144)"/><path d="M 840 1128v 32h 32v -16a 16 16, 0, 0, 0, -16 -16" transform="rotate(0,856,1144)"/><path d="M 1000 1128v 32h 32v -16a 16 16, 0, 0, 0, -16 -16" transform="rotate(180,1016,1144)"/><rect x="1032" y="1128" width="32" height="32" transform="rotate(0,1048,1144)"/><rect x="1064" y="1128" width="32" height="32" transform="rotate(0,1080,1144)"/><path d="M 1096 1128v 32h 32v -16a 16 16, 0, 0, 0, -16 -16" transform="rotate(0,1112,1144)"/><path d="M 360 1160v 32h 16a 16 16, 0, 0, 0, 0 -32" transform="rotate(180,376,1176)"/><path d="M 392 1160v 32h 32v -16a 16 16, 0, 0, 0, -16 -16" transform="rotate(90,408,1176)"/><path d="M 456 1160v 32h 16a 16 16, 0, 0, 0, 0 -32" transform="rotate(90,472,1176)"/><circle cx="536" cy="1176" r="16" transform="rotate(0,536,1176)"/><path d="M 584 1160v 32h 16a 16 16, 0, 0, 0, 0 -32" transform="rotate(90,600,1176)"/><circle cx="664" cy="1176" r="16" transform="rotate(0,664,1176)"/><path d="M 712 1160v 32h 16a 16 16, 0, 0, 0, 0 -32" transform="rotate(180,728,1176)"/><rect x="744" y="1160" width="32" height="32" transform="rotate(0,760,1176)"/><rect x="776" y="1160" width="32" height="32" transform="rotate(0,792,1176)"/><rect x="808" y="1160" width="32" height="32" transform="rotate(0,824,1176)"/><path d="M 840 1160v 32h 32v -16a 16 16, 0, 0, 0, -16 -16" transform="rotate(90,856,1176)"/><circle cx="952" cy="1176" r="16" transform="rotate(0,952,1176)"/><path d="M 1096 1160v 32h 32v -16a 16 16, 0, 0, 0, -16 -16" transform="rotate(180,1112,1176)"/><rect x="1128" y="1160" width="32" height="32" transform="rotate(0,1144,1176)"/><path d="M 1160 1160v 32h 16a 16 16, 0, 0, 0, 0 -32" transform="rotate(0,1176,1176)"/></clipPath><clipPath id="clip-path-corners-square-color-0-0-79"><path clip-rule="evenodd" d="M 8 88v 64a 80 80, 0, 0, 0, 80 80h 64a 80 80, 0, 0, 0, 80 -80v -64a 80 80, 0, 0, 0, -80 -80h -64a 80 80, 0, 0, 0, -80 80M 88 40h 64a 48 48, 0, 0, 1, 48 48v 64a 48 48, 0, 0, 1, -48 48h -64a 48 48, 0, 0, 1, -48 -48v -64a 48 48, 0, 0, 1, 48 -48" transform="rotate(0,120,120)"/></clipPath><clipPath id="clip-path-corners-dot-color-0-0-79"><circle cx="120" cy="120" r="48" transform="rotate(0,120,120)"/></clipPath><clipPath id="clip-path-corners-square-color-1-0-79"><path clip-rule="evenodd" d="M 968 88v 64a 80 80, 0, 0, 0, 80 80h 64a 80 80, 0, 0, 0, 80 -80v -64a 80 80, 0, 0, 0, -80 -80h -64a 80 80, 0, 0, 0, -80 80M 1048 40h 64a 48 48, 0, 0, 1, 48 48v 64a 48 48, 0, 0, 1, -48 48h -64a 48 48, 0, 0, 1, -48 -48v -64a 48 48, 0, 0, 1, 48 -48" transform="rotate(90,1080,120)"/></clipPath><clipPath id="clip-path-corners-dot-color-1-0-79"><circle cx="1080" cy="120" r="48" transform="rotate(90,1080,120)"/></clipPath><clipPath id="clip-path-corners-square-color-0-1-79"><path clip-rule="evenodd" d="M 8 1048v 64a 80 80, 0, 0, 0, 80 80h 64a 80 80, 0, 0, 0, 80 -80v -64a 80 80, 0, 0, 0, -80 -80h -64a 80 80, 0, 0, 0, -80 80M 88 1000h 64a 48 48, 0, 0, 1, 48 48v 64a 48 48, 0, 0, 1, -48 48h -64a 48 48, 0, 0, 1, -48 -48v -64a 48 48, 0, 0, 1, 48 -48" transform="rotate(-90,120,1080)"/></clipPath><clipPath id="clip-path-corners-dot-color-0-1-79"><circle cx="120" cy="1080" r="48" transform="rotate(-90,120,1080)"/></clipPath></defs><rect x="0" y="0" height="1200" width="1200" clip-path="url('#clip-path-background-color-79')" fill="#ffffff"/><rect x="0" y="0" height="1200" width="1200" clip-path="url('#clip-path-dot-color-79')" fill="#000000"/><rect x="8" y="8" height="224" width="224" clip-path="url('#clip-path-corners-square-color-0-0-79')" fill="#000000"/><rect x="72" y="72" height="96" width="96" clip-path="url('#clip-path-corners-dot-color-0-0-79')" fill="#000000"/><rect x="968" y="8" height="224" width="224" clip-path="url('#clip-path-corners-square-color-1-0-79')" fill="#000000"/><rect x="1032" y="72" height="96" width="96" clip-path="url('#clip-path-corners-dot-color-1-0-79')" fill="#000000"/><rect x="8" y="968" height="224" width="224" clip-path="url('#clip-path-corners-square-color-0-1-79')" fill="#000000"/><rect x="72" y="1032" height="96" width="96" clip-path="url('#clip-path-corners-dot-color-0-1-79')" fill="#000000"/></svg>