<?xml version="1.0" standalone="no"?>
<svg xmlns="http://www.w3.org/2000/svg" width="1200" height="1200" xmlns:xlink="http://www.w3.org/1999/xlink" viewBox="0 0 1200 1200"><defs><clipPath id="clip-path-background-color-94"><rect x="0" y="0" width="1200" height="1200"/></clipPath><clipPath id="clip-path-dot-color-94"><path d="M 250 26v 28h 14a 14 14, 0, 0, 0, 0 -28" transform="rotate(180,264,40)"/><path d="M 278 26v 28h 28v -14a 14 14, 0, 0, 0, -14 -14" transform="rotate(0,292,40)"/><path d="M 334 26v 28h 28v -14a 14 14, 0, 0, 0, -14 -14" transform="rotate(-90,348,40)"/><rect x="362" y="26" width="28" height="28" transform="rotate(0,376,40)"/><rect x="390" y="26" width="28" height="28" transform="rotate(0,404,40)"/><path d="M 418 26v 28h 28v -14a 14 14, 0, 0, 0, -14 -14" transform="rotate(0,432,40)"/><path d="M 558 26v 28h 14a 14 14, 0, 0, 0, 0 -28" transform="rotate(-90,572,40)"/><path d="M 614 26v 28h 28v -14a 14 14, 0, 0, 0, -14 -14" transform="rotate(-90,628,40)"/><path d="M 642 26v 28h 14a 14 14, 0, 0, 0, 0 -28" transform="rotate(0,656,40)"/><path d="M 726 26v 28h 14a 14 14, 0, 0, 0, 0 -28" transform="rotate(-90,740,40)"/><path d="M 810 26v 28h 14a 14 14, 0, 0, 0, 0 -28" transform="rotate(-90,824,40)"/><path d="M 866 26v 28h 14a 14 14, 0, 0, 0, 0 -28" transform="rotate(180,880,40)"/><path d="M 894 26v 28h 14a 14 14, 0, 0, 0, 0 -28" transform="rotate(0,908,40)"/><rect x="278" y="54" width="28" height="28" transform="rotate(0,292,68)"/><path d="M 334 54v 28h 14a 14 14, 0, 0, 0, 0 -28" transform="rotate(90,348,68)"/><path d="M 418 54v 28h 28v -14a 14 14, 0, 0, 0, -14 -14" transform="rotate(180,432,68)"/><path d="M 446 54v 28h 14a 14 14, 0, 0, 0, 0 -28" transform="rotate(0,460,68)"/><circle cx="516" cy="68" r="14" transform="rotate(0,516,68)"/><path d="M 558 54v 28h 14a 14 14, 0, 0, 0, 0 -28" transform="rotate(90,572,68)"/><path d="M 614 54v 28h 14a 14 14, 0, 0, 0, 0 -28" transform="rotate(90,628,68)"/><path d="M 670 54v 28h 14a 14 14, 0, 0, 0, 0 -28" transform="rotate(180,684,68)"/><rect x="698" y="54" width="28" height="28" transform="rotate(0,712,68)"/><rect x="726" y="54" width="28" height="28" transform="rotate(0,740,68)"/><rect x="754" y="54" width="28" height="28" transform="rotate(0,768,68)"/><rect x="782" y="54" width="28" height="28" transform="rotate(0,796,68)"/><path d="M 810 54v 28h 28v -14a 14 14, 0, 0, 0, -14 -14" transform="rotate(90,824,68)"/><path d="M 278 82v 28h 14a 14 14, 0, 0, 0, 0 -28" transform="rotate(90,292,96)"/><circle cx="404" cy="96" r="14" transform="rotate(0,404,96)"/><path d="M 586 82v 28h 14a 14 14, 0, 0, 0, 0 -28" transform="rotate(-90,600,96)"/><path d="M 726 82v 28h 14a 14 14, 0, 0, 0, 0 -28" transform="rotate(90,740,96)"/><path d="M 782 82v 28h 14a 14 14, 0, 0, 0, 0 -28" transform="rotate(90,796,96)"/><path d="M 894 82v 28h 28v -14a 14 14, 0, 0, 0, -14 -14" transform="rotate(-90,908,96)"/><path d="M 922 82v 28h 28v -14a 14 14, 0, 0, 0, -14 -14" transform="rotate(0,936,96)"/><circle cx="376" cy="124" r="14" transform="rotate(0,376,124)"/><circle cx="432" cy="124" r="14" transform="rotate(0,432,124)"/><path d="M 474 110v 28h 14a 14 14, 0, 0, 0, 0 -28" transform="rotate(180,488,124)"/><rect x="502" y="110" width="28" height="28" transform="rotate(0,516,124)"/><rect x="530" y="110" width="28" height="28" transform="rotate(0,544,124)"/><rect x="558" y="110" width="28" height="28" transform="rotate(0,572,124)"/><rect x="586" y="110" width="28" height="28" transform="rotate(0,600,124)"/><rect x="614" y="110" width="28" height="28" transform="rotate(0,628,124)"/><rect x="642" y="110" width="28" height="28" transform="rotate(0,656,124)"/><path d="M 670 110v 28h 28v -14a 14 14, 0, 0, 0, -14 -14" transform="rotate(0,684,124)"/><circle cx="768" cy="124" r="14" transform="rotate(0,768,124)"/><path d="M 866 110v 28h 28v -14a 14 14, 0, 0, 0, -14 -14" transform="rotate(-90,880,124)"/><rect x="894" y="110" width="28" height="28" transform="rotate(0,908,124)"/><rect x="922" y="110" width="28" height="28" transform="rotate(0,936,124)"/><path d="M 250 138v 28h 28v -14a 14 14, 0, 0, 0, -14 -14" transform="rotate(-90,264,152)"/><path d="M 278 138v 28h 14a 14 14, 0, 0, 0, 0 -28" transform="rotate(0,292,152)"/><circle cx="404" cy="152" r="14" transform="rotate(0,404,152)"/><circle cx="460" cy="152" r="14" transform="rotate(0,460,152)"/><path d="M 502 138v 28h 14a 14 14, 0, 0, 0, 0 -28" transform="rotate(90,516,152)"/><path d="M 642 138v 28h 28v -14a 14 14, 0, 0, 0, -14 -14" transform="rotate(180,656,152)"/><rect x="670" y="138" width="28" height="28" transform="rotate(0,684,152)"/><path d="M 698 138v 28h 14a 14 14, 0, 0, 0, 0 -28" transform="rotate(0,712,152)"/><circle cx="824" cy="152" r="14" transform="rotate(0,824,152)"/><rect x="866" y="138" width="28" height="28" transform="rotate(0,880,152)"/><rect x="894" y="138" width="28" height="28" transform="rotate(0,908,152)"/><rect x="922" y="138" width="28" height="28" transform="rotate(0,936,152)"/><rect x="250" y="166" width="28" height="28" transform="rotate(0,264,180)"/><path d="M 362 166v 28h 14a 14 14, 0, 0, 0, 0 -28" transform="rotate(-90,376,180)"/><path d="M 418 166v 28h 14a 14 14, 0, 0, 0, 0 -28" transform="rotate(-90,432,180)"/><path d="M 530 166v 28h 14a 14 14, 0, 0, 0, 0 -28" transform="rotate(-90,544,180)"/><circle cx="628" cy="180" r="14" transform="rotate(0,628,180)"/><path d="M 670 166v 28h 14a 14 14, 0, 0, 0, 0 -28" transform="rotate(90,684,180)"/><circle cx="740" cy="180" r="14" transform="rotate(0,740,180)"/><circle cx="796" cy="180" r="14" transform="rotate(0,796,180)"/><path d="M 838 166v 28h 14a 14 14, 0, 0, 0, 0 -28" transform="rotate(180,852,180)"/><rect x="866" y="166" width="28" height="28" transform="rotate(0,880,180)"/><rect x="922" y="166" width="28" height="28" transform="rotate(0,936,180)"/><path d="M 250 194v 28h 14a 14 14, 0, 0, 0, 0 -28" transform="rotate(90,264,208)"/><path d="M 306 194v 28h 14a 14 14, 0, 0, 0, 0 -28" transform="rotate(-90,320,208)"/><rect x="362" y="194" width="28" height="28" transform="rotate(0,376,208)"/><rect x="418" y="194" width="28" height="28" transform="rotate(0,432,208)"/><circle cx="488" cy="208" r="14" transform="rotate(0,488,208)"/><rect x="530" y="194" width="28" height="28" transform="rotate(0,544,208)"/><path d="M 586 194v 28h 14a 14 14, 0, 0, 0, 0 -28" transform="rotate(-90,600,208)"/><circle cx="656" cy="208" r="14" transform="rotate(0,656,208)"/><circle cx="712" cy="208" r="14" transform="rotate(0,712,208)"/><circle cx="768" cy="208" r="14" transform="rotate(0,768,208)"/><circle cx="824" cy="208" r="14" transform="rotate(0,824,208)"/><path d="M 866 194v 28h 14a 14 14, 0, 0, 0, 0 -28" transform="rotate(90,880,208)"/><rect x="922" y="194" width="28" height="28" transform="rotate(0,936,208)"/><path d="M 278 222v 28h 28v -14a 14 14, 0, 0, 0, -14 -14" transform="rotate(-90,292,236)"/><rect x="306" y="222" width="28" height="28" transform="rotate(0,320,236)"/><rect x="334" y="222" width="28" height="28" transform="rotate(0,348,236)"/><path d="M 362 222v 28h 28v -14a 14 14, 0, 0, 0, -14 -14" transform="rotate(90,376,236)"/><rect x="418" y="222" width="28" height="28" transform="rotate(0,432,236)"/><path d="M 446 222v 28h 28v -14a 14 14, 0, 0, 0, -14 -14" transform="rotate(0,460,236)"/><path d="M 502 222v 28h 28v -14a 14 14, 0, 0, 0, -14 -14" transform="rotate(-90,516,236)"/><rect x="530" y="222" width="28" height="28" transform="rotate(0,544,236)"/><rect x="558" y="222" width="28" height="28" transform="rotate(0,572,236)"/><rect x="586" y="222" width="28" height="28" transform="rotate(0,600,236)"/><path d="M 670 222v 28h 14a 14 14, 0, 0, 0, 0 -28" transform="rotate(-90,684,236)"/><path d="M 922 222v 28h 14a 14 14, 0, 0, 0, 0 -28" transform="rotate(90,936,236)"/><path d="M 54 250v 28h 28v -14a 14 14, 0, 0, 0, -14 -14" transform="rotate(-90,68,264)"/><rect x="82" y="250" width="28" height="28" transform="rotate(0,96,264)"/><rect x="110" y="250" width="28" height="28" transform="rotate(0,124,264)"/><rect x="138" y="250" width="28" height="28" transform="rotate(0,152,264)"/><rect x="166" y="250" width="28" height="28" transform="rotate(0,180,264)"/><rect x="194" y="250" width="28" height="28" transform="rotate(0,208,264)"/><path d="M 222 250v 28h 28v -14a 14 14, 0, 0, 0, -14 -14" transform="rotate(0,236,264)"/><path d="M 278 250v 28h 28v -14a 14 14, 0, 0, 0, -14 -14" transform="rotate(180,292,264)"/><rect x="306" y="250" width="28" height="28" transform="rotate(0,320,264)"/><rect x="334" y="250" width="28" height="28" transform="rotate(0,348,264)"/><path d="M 390 250v 28h 28v -14a 14 14, 0, 0, 0, -14 -14" transform="rotate(-90,404,264)"/><rect x="418" y="250" width="28" height="28" transform="rotate(0,432,264)"/><rect x="446" y="250" width="28" height="28" transform="rotate(0,460,264)"/><rect x="474" y="250" width="28" height="28" transform="rotate(0,488,264)"/><rect x="502" y="250" width="28" height="28" transform="rotate(0,516,264)"/><rect x="586" y="250" width="28" height="28" transform="rotate(0,600,264)"/><rect x="614" y="250" width="28" height="28" transform="rotate(0,628,264)"/><rect x="642" y="250" width="28" height="28" transform="rotate(0,656,264)"/><rect x="670" y="250" width="28" height="28" transform="rotate(0,684,264)"/><rect x="698" y="250" width="28" height="28" transform="rotate(0,712,264)"/><rect x="726" y="250" width="28" height="28" transform="rotate(0,740,264)"/><rect x="754" y="250" width="28" height="28" transform="rotate(0,768,264)"/><rect x="782" y="250" width="28" height="28" transform="rotate(0,796,264)"/><rect x="810" y="250" width="28" height="28" transform="rotate(0,824,264)"/><path d="M 838 250v 28h 14a 14 14, 0, 0, 0, 0 -28" transform="rotate(0,852,264)"/><path d="M 1006 250v 28h 14a 14 14, 0, 0, 0, 0 -28" transform="rotate(180,1020,264)"/><path d="M 1034 250v 28h 28v -14a 14 14, 0, 0, 0, -14 -14" transform="rotate(0,1048,264)"/><path d="M 1146 250v 28h 14a 14 14, 0, 0, 0, 0 -28" transform="rotate(-90,1160,264)"/><rect x="54" y="278" width="28" height="28" transform="rotate(0,68,292)"/><path d="M 110 278v 28h 14a 14 14, 0, 0, 0, 0 -28" transform="rotate(90,124,292)"/><rect x="222" y="278" width="28" height="28" transform="rotate(0,236,292)"/><path d="M 250 278v 28h 14a 14 14, 0, 0, 0, 0 -28" transform="rotate(0,264,292)"/><rect x="306" y="278" width="28" height="28" transform="rotate(0,320,292)"/><rect x="334" y="278" width="28" height="28" transform="rotate(0,348,292)"/><rect x="362" y="278" width="28" height="28" transform="rotate(0,376,292)"/><path d="M 390 278v 28h 28v -14a 14 14, 0, 0, 0, -14 -14" transform="rotate(90,404,292)"/><path d="M 474 278v 28h 28v -14a 14 14, 0, 0, 0, -14 -14" transform="rotate(180,488,292)"/><rect x="502" y="278" width="28" height="28" transform="rotate(0,516,292)"/><rect x="586" y="278" width="28" height="28" transform="rotate(0,600,292)"/><path d="M 642 278v 28h 14a 14 14, 0, 0, 0, 0 -28" transform="rotate(90,656,292)"/><rect x="698" y="278" width="28" height="28" transform="rotate(0,712,292)"/><rect x="810" y="278" width="28" height="28" transform="rotate(0,824,292)"/><path d="M 894 278v 28h 14a 14 14, 0, 0, 0, 0 -28" transform="rotate(180,908,292)"/><rect x="922" y="278" width="28" height="28" transform="rotate(0,936,292)"/><rect x="950" y="278" width="28" height="28" transform="rotate(0,964,292)"/><path d="M 978 278v 28h 14a 14 14, 0, 0, 0, 0 -28" transform="rotate(0,992,292)"/><path d="M 1034 278v 28h 14a 14 14, 0, 0, 0, 0 -28" transform="rotate(90,1048,292)"/><path d="M 1090 278v 28h 14a 14 14, 0, 0, 0, 0 -28" transform="rotate(180,1104,292)"/><rect x="1118" y="278" width="28" height="28" transform="rotate(0,1132,292)"/><path d="M 1146 278v 28h 28v -14a 14 14, 0, 0, 0, -14 -14" transform="rotate(90,1160,292)"/><path d="M 54 306v 28h 28v -14a 14 14, 0, 0, 0, -14 -14" transform="rotate(180,68,320)"/><path d="M 82 306v 28h 14a 14 14, 0, 0, 0, 0 -28" transform="rotate(0,96,320)"/><path d="M 138 306v 28h 28v -14a 14 14, 0, 0, 0, -14 -14" transform="rotate(-90,152,320)"/><rect x="166" y="306" width="28" height="28" transform="rotate(0,180,320)"/><rect x="194" y="306" width="28" height="28" transform="rotate(0,208,320)"/><path d="M 222 306v 28h 28v -14a 14 14, 0, 0, 0, -14 -14" transform="rotate(90,236,320)"/><rect x="306" y="306" width="28" height="28" transform="rotate(0,320,320)"/><path d="M 334 306v 28h 28v -14a 14 14, 0, 0, 0, -14 -14" transform="rotate(90,348,320)"/><circle cx="460" cy="320" r="14" transform="rotate(0,460,320)"/><path d="M 502 306v 28h 28v -14a 14 14, 0, 0, 0, -14 -14" transform="rotate(180,516,320)"/><rect x="530" y="306" width="28" height="28" transform="rotate(0,544,320)"/><rect x="558" y="306" width="28" height="28" transform="rotate(0,572,320)"/><rect x="586" y="306" width="28" height="28" transform="rotate(0,600,320)"/><rect x="698" y="306" width="28" height="28" transform="rotate(0,712,320)"/><path d="M 754 306v 28h 14a 14 14, 0, 0, 0, 0 -28" transform="rotate(180,768,320)"/><rect x="782" y="306" width="28" height="28" transform="rotate(0,796,320)"/><rect x="810" y="306" width="28" height="28" transform="rotate(0,824,320)"/><rect x="838" y="306" width="28" height="28" transform="rotate(0,852,320)"/><path d="M 866 306v 28h 28v -14a 14 14, 0, 0, 0, -14 -14" transform="rotate(0,880,320)"/><rect x="922" y="306" width="28" height="28" transform="rotate(0,936,320)"/><path d="M 1006 306v 28h 14a 14 14, 0, 0, 0, 0 -28" transform="rotate(-90,1020,320)"/><circle cx="40" cy="348" r="14" transform="rotate(0,40,348)"/><path d="M 110 334v 28h 14a 14 14, 0, 0, 0, 0 -28" transform="rotate(180,124,348)"/><rect x="138" y="334" width="28" height="28" transform="rotate(0,152,348)"/><path d="M 306 334v 28h 14a 14 14, 0, 0, 0, 0 -28" transform="rotate(90,320,348)"/><circle cx="488" cy="348" r="14" transform="rotate(0,488,348)"/><rect x="586" y="334" width="28" height="28" transform="rotate(0,600,348)"/><circle cx="656" cy="348" r="14" transform="rotate(0,656,348)"/><rect x="698" y="334" width="28" height="28" transform="rotate(0,712,348)"/><rect x="782" y="334" width="28" height="28" transform="rotate(0,796,348)"/><rect x="810" y="334" width="28" height="28" transform="rotate(0,824,348)"/><path d="M 866 334v 28h 28v -14a 14 14, 0, 0, 0, -14 -14" transform="rotate(180,880,348)"/><rect x="894" y="334" width="28" height="28" transform="rotate(0,908,348)"/><path d="M 922 334v 28h 28v -14a 14 14, 0, 0, 0, -14 -14" transform="rotate(90,936,348)"/><path d="M 1006 334v 28h 28v -14a 14 14, 0, 0, 0, -14 -14" transform="rotate(180,1020,348)"/><rect x="1034" y="334" width="28" height="28" transform="rotate(0,1048,348)"/><path d="M 1062 334v 28h 28v -14a 14 14, 0, 0, 0, -14 -14" transform="rotate(0,1076,348)"/><path d="M 1118 334v 28h 28v -14a 14 14, 0, 0, 0, -14 -14" transform="rotate(-90,1132,348)"/><path d="M 1146 334v 28h 14a 14 14, 0, 0, 0, 0 -28" transform="rotate(0,1160,348)"/><circle cx="68" cy="376" r="14" transform="rotate(0,68,376)"/><rect x="138" y="362" width="28" height="28" transform="rotate(0,152,376)"/><rect x="166" y="362" width="28" height="28" transform="rotate(0,180,376)"/><rect x="194" y="362" width="28" height="28" transform="rotate(0,208,376)"/><rect x="222" y="362" width="28" height="28" transform="rotate(0,236,376)"/><rect x="250" y="362" width="28" height="28" transform="rotate(0,264,376)"/><path d="M 278 362v 28h 14a 14 14, 0, 0, 0, 0 -28" transform="rotate(0,292,376)"/><path d="M 334 362v 28h 28v -14a 14 14, 0, 0, 0, -14 -14" transform="rotate(-90,348,376)"/><path d="M 362 362v 28h 14a 14 14, 0, 0, 0, 0 -28" transform="rotate(0,376,376)"/><path d="M 446 362v 28h 14a 14 14, 0, 0, 0, 0 -28" transform="rotate(-90,460,376)"/><path d="M 530 362v 28h 14a 14 14, 0, 0, 0, 0 -28" transform="rotate(180,544,376)"/><rect x="558" y="362" width="28" height="28" transform="rotate(0,572,376)"/><path d="M 586 362v 28h 28v -14a 14 14, 0, 0, 0, -14 -14" transform="rotate(90,600,376)"/><path d="M 670 362v 28h 14a 14 14, 0, 0, 0, 0 -28" transform="rotate(180,684,376)"/><rect x="698" y="362" width="28" height="28" transform="rotate(0,712,376)"/><path d="M 726 362v 28h 28v -14a 14 14, 0, 0, 0, -14 -14" transform="rotate(0,740,376)"/><rect x="782" y="362" width="28" height="28" transform="rotate(0,796,376)"/><rect x="810" y="362" width="28" height="28" transform="rotate(0,824,376)"/><path d="M 838 362v 28h 28v -14a 14 14, 0, 0, 0, -14 -14" transform="rotate(0,852,376)"/><rect x="894" y="362" width="28" height="28" transform="rotate(0,908,376)"/><path d="M 1062 362v 28h 28v -14a 14 14, 0, 0, 0, -14 -14" transform="rotate(180,1076,376)"/><rect x="1090" y="362" width="28" height="28" transform="rotate(0,1104,376)"/><rect x="1118" y="362" width="28" height="28" transform="rotate(0,1132,376)"/><path d="M 110 390v 28h 14a 14 14, 0, 0, 0, 0 -28" transform="rotate(180,124,404)"/><rect x="138" y="390" width="28" height="28" transform="rotate(0,152,404)"/><path d="M 306 390v 28h 14a 14 14, 0, 0, 0, 0 -28" transform="rotate(180,320,404)"/><rect x="334" y="390" width="28" height="28" transform="rotate(0,348,404)"/><path d="M 390 390v 28h 14a 14 14, 0, 0, 0, 0 -28" transform="rotate(180,404,404)"/><rect x="418" y="390" width="28" height="28" transform="rotate(0,432,404)"/><path d="M 446 390v 28h 28v -14a 14 14, 0, 0, 0, -14 -14" transform="rotate(90,460,404)"/><circle cx="516" cy="404" r="14" transform="rotate(0,516,404)"/><path d="M 726 390v 28h 14a 14 14, 0, 0, 0, 0 -28" transform="rotate(90,740,404)"/><rect x="782" y="390" width="28" height="28" transform="rotate(0,796,404)"/><path d="M 838 390v 28h 14a 14 14, 0, 0, 0, 0 -28" transform="rotate(90,852,404)"/><path d="M 894 390v 28h 28v -14a 14 14, 0, 0, 0, -14 -14" transform="rotate(180,908,404)"/><rect x="922" y="390" width="28" height="28" transform="rotate(0,936,404)"/><rect x="950" y="390" width="28" height="28" transform="rotate(0,964,404)"/><rect x="978" y="390" width="28" height="28" transform="rotate(0,992,404)"/><rect x="1006" y="390" width="28" height="28" transform="rotate(0,1020,404)"/><path d="M 1034 390v 28h 14a 14 14, 0, 0, 0, 0 -28" transform="rotate(0,1048,404)"/><path d="M 1118 390v 28h 28v -14a 14 14, 0, 0, 0, -14 -14" transform="rotate(180,1132,404)"/><path d="M 1146 390v 28h 14a 14 14, 0, 0, 0, 0 -28" transform="rotate(0,1160,404)"/><path d="M 26 418v 28h 14a 14 14, 0, 0, 0, 0 -28" transform="rotate(180,40,432)"/><rect x="54" y="418" width="28" height="28" transform="rotate(0,68,432)"/><path d="M 82 418v 28h 14a 14 14, 0, 0, 0, 0 -28" transform="rotate(0,96,432)"/><path d="M 138 418v 28h 14a 14 14, 0, 0, 0, 0 -28" transform="rotate(90,152,432)"/><path d="M 194 418v 28h 14a 14 14, 0, 0, 0, 0 -28" transform="rotate(180,208,432)"/><path d="M 222 418v 28h 14a 14 14, 0, 0, 0, 0 -28" transform="rotate(0,236,432)"/><rect x="334" y="418" width="28" height="28" transform="rotate(0,348,432)"/><path d="M 530 418v 28h 28v -14a 14 14, 0, 0, 0, -14 -14" transform="rotate(-90,544,432)"/><path d="M 558 418v 28h 28v -14a 14 14, 0, 0, 0, -14 -14" transform="rotate(0,572,432)"/><path d="M 642 418v 28h 14a 14 14, 0, 0, 0, 0 -28" transform="rotate(180,656,432)"/><rect x="670" y="418" width="28" height="28" transform="rotate(0,684,432)"/><path d="M 698 418v 28h 14a 14 14, 0, 0, 0, 0 -28" transform="rotate(0,712,432)"/><path d="M 754 418v 28h 14a 14 14, 0, 0, 0, 0 -28" transform="rotate(180,768,432)"/><rect x="782" y="418" width="28" height="28" transform="rotate(0,796,432)"/><path d="M 810 418v 28h 14a 14 14, 0, 0, 0, 0 -28" transform="rotate(0,824,432)"/><path d="M 950 418v 28h 14a 14 14, 0, 0, 0, 0 -28" transform="rotate(90,964,432)"/><rect x="1006" y="418" width="28" height="28" transform="rotate(0,1020,432)"/><path d="M 1062 418v 28h 28v -14a 14 14, 0, 0, 0, -14 -14" transform="rotate(-90,1076,432)"/><path d="M 1090 418v 28h 14a 14 14, 0, 0, 0, 0 -28" transform="rotate(0,1104,432)"/><rect x="54" y="446" width="28" height="28" transform="rotate(0,68,460)"/><path d="M 110 446v 28h 14a 14 14, 0, 0, 0, 0 -28" transform="rotate(-90,124,460)"/><circle cx="180" cy="460" r="14" transform="rotate(0,180,460)"/><path d="M 278 446v 28h 14a 14 14, 0, 0, 0, 0 -28" transform="rotate(-90,292,460)"/><path d="M 334 446v 28h 14a 14 14, 0, 0, 0, 0 -28" transform="rotate(90,348,460)"/><path d="M 418 446v 28h 14a 14 14, 0, 0, 0, 0 -28" transform="rotate(180,432,460)"/><path d="M 446 446v 28h 14a 14 14, 0, 0, 0, 0 -28" transform="rotate(0,460,460)"/><path d="M 502 446v 28h 28v -14a 14 14, 0, 0, 0, -14 -14" transform="rotate(-90,516,460)"/><rect x="530" y="446" width="28" height="28" transform="rotate(0,544,460)"/><rect x="558" y="446" width="28" height="28" transform="rotate(0,572,460)"/><path d="M 586 446v 28h 14a 14 14, 0, 0, 0, 0 -28" transform="rotate(0,600,460)"/><rect x="670" y="446" width="28" height="28" transform="rotate(0,684,460)"/><rect x="782" y="446" width="28" height="28" transform="rotate(0,796,460)"/><path d="M 978 446v 28h 14a 14 14, 0, 0, 0, 0 -28" transform="rotate(180,992,460)"/><rect x="1006" y="446" width="28" height="28" transform="rotate(0,1020,460)"/><path d="M 1062 446v 28h 14a 14 14, 0, 0, 0, 0 -28" transform="rotate(90,1076,460)"/><path d="M 26 474v 28h 28v -14a 14 14, 0, 0, 0, -14 -14" transform="rotate(-90,40,488)"/><path d="M 54 474v 28h 28v -14a 14 14, 0, 0, 0, -14 -14" transform="rotate(90,68,488)"/><path d="M 110 474v 28h 28v -14a 14 14, 0, 0, 0, -14 -14" transform="rotate(180,124,488)"/><path d="M 138 474v 28h 28v -14a 14 14, 0, 0, 0, -14 -14" transform="rotate(0,152,488)"/><path d="M 194 474v 28h 14a 14 14, 0, 0, 0, 0 -28" transform="rotate(180,208,488)"/><path d="M 222 474v 28h 28v -14a 14 14, 0, 0, 0, -14 -14" transform="rotate(0,236,488)"/><rect x="278" y="474" width="28" height="28" transform="rotate(0,292,488)"/><path d="M 306 474v 28h 14a 14 14, 0, 0, 0, 0 -28" transform="rotate(0,320,488)"/><path d="M 474 474v 28h 28v -14a 14 14, 0, 0, 0, -14 -14" transform="rotate(-90,488,488)"/><rect x="502" y="474" width="28" height="28" transform="rotate(0,516,488)"/><path d="M 530 474v 28h 28v -14a 14 14, 0, 0, 0, -14 -14" transform="rotate(90,544,488)"/><path d="M 642 474v 28h 28v -14a 14 14, 0, 0, 0, -14 -14" transform="rotate(-90,656,488)"/><rect x="670" y="474" width="28" height="28" transform="rotate(0,684,488)"/><path d="M 726 474v 28h 14a 14 14, 0, 0, 0, 0 -28" transform="rotate(180,740,488)"/><rect x="754" y="474" width="28" height="28" transform="rotate(0,768,488)"/><rect x="782" y="474" width="28" height="28" transform="rotate(0,796,488)"/><rect x="810" y="474" width="28" height="28" transform="rotate(0,824,488)"/><path d="M 838 474v 28h 28v -14a 14 14, 0, 0, 0, -14 -14" transform="rotate(0,852,488)"/><path d="M 894 474v 28h 14a 14 14, 0, 0, 0, 0 -28" transform="rotate(-90,908,488)"/><circle cx="964" cy="488" r="14" transform="rotate(0,964,488)"/><rect x="1006" y="474" width="28" height="28" transform="rotate(0,1020,488)"/><path d="M 1090 474v 28h 28v -14a 14 14, 0, 0, 0, -14 -14" transform="rotate(-90,1104,488)"/><rect x="1118" y="474" width="28" height="28" transform="rotate(0,1132,488)"/><path d="M 1146 474v 28h 28v -14a 14 14, 0, 0, 0, -14 -14" transform="rotate(0,1160,488)"/><path d="M 26 502v 28h 14a 14 14, 0, 0, 0, 0 -28" transform="rotate(90,40,516)"/><circle cx="96" cy="516" r="14" transform="rotate(0,96,516)"/><rect x="138" y="502" width="28" height="28" transform="rotate(0,152,516)"/><rect x="222" y="502" width="28" height="28" transform="rotate(0,236,516)"/><rect x="250" y="502" width="28" height="28" transform="rotate(0,264,516)"/><rect x="278" y="502" width="28" height="28" transform="rotate(0,292,516)"/><path d="M 334 502v 28h 14a 14 14, 0, 0, 0, 0 -28" transform="rotate(-90,348,516)"/><path d="M 390 502v 28h 14a 14 14, 0, 0, 0, 0 -28" transform="rotate(-90,404,516)"/><rect x="474" y="502" width="28" height="28" transform="rotate(0,488,516)"/><circle cx="600" cy="516" r="14" transform="rotate(0,600,516)"/><path d="M 642 502v 28h 28v -14a 14 14, 0, 0, 0, -14 -14" transform="rotate(180,656,516)"/><path d="M 670 502v 28h 28v -14a 14 14, 0, 0, 0, -14 -14" transform="rotate(90,684,516)"/><path d="M 810 502v 28h 28v -14a 14 14, 0, 0, 0, -14 -14" transform="rotate(180,824,516)"/><rect x="838" y="502" width="28" height="28" transform="rotate(0,852,516)"/><path d="M 894 502v 28h 28v -14a 14 14, 0, 0, 0, -14 -14" transform="rotate(180,908,516)"/><path d="M 922 502v 28h 28v -14a 14 14, 0, 0, 0, -14 -14" transform="rotate(0,936,516)"/><path d="M 978 502v 28h 28v -14a 14 14, 0, 0, 0, -14 -14" transform="rotate(-90,992,516)"/><rect x="1006" y="502" width="28" height="28" transform="rotate(0,1020,516)"/><rect x="1034" y="502" width="28" height="28" transform="rotate(0,1048,516)"/><rect x="1062" y="502" width="28" height="28" transform="rotate(0,1076,516)"/><rect x="1090" y="502" width="28" height="28" transform="rotate(0,1104,516)"/><rect x="1118" y="502" width="28" height="28" transform="rotate(0,1132,516)"/><path d="M 1146 502v 28h 28v -14a 14 14, 0, 0, 0, -14 -14" transform="rotate(90,1160,516)"/><circle cx="68" cy="544" r="14" transform="rotate(0,68,544)"/><rect x="138" y="530" width="28" height="28" transform="rotate(0,152,544)"/><rect x="166" y="530" width="28" height="28" transform="rotate(0,180,544)"/><rect x="194" y="530" width="28" height="28" transform="rotate(0,208,544)"/><rect x="222" y="530" width="28" height="28" transform="rotate(0,236,544)"/><rect x="250" y="530" width="28" height="28" transform="rotate(0,264,544)"/><path d="M 278 530v 28h 28v -14a 14 14, 0, 0, 0, -14 -14" transform="rotate(90,292,544)"/><path d="M 334 530v 28h 28v -14a 14 14, 0, 0, 0, -14 -14" transform="rotate(180,348,544)"/><rect x="362" y="530" width="28" height="28" transform="rotate(0,376,544)"/><rect x="390" y="530" width="28" height="28" transform="rotate(0,404,544)"/><rect x="474" y="530" width="28" height="28" transform="rotate(0,488,544)"/><rect x="502" y="530" width="28" height="28" transform="rotate(0,516,544)"/><rect x="530" y="530" width="28" height="28" transform="rotate(0,544,544)"/><path d="M 558 530v 28h 28v -14a 14 14, 0, 0, 0, -14 -14" transform="rotate(0,572,544)"/><circle cx="628" cy="544" r="14" transform="rotate(0,628,544)"/><circle cx="796" cy="544" r="14" transform="rotate(0,796,544)"/><rect x="838" y="530" width="28" height="28" transform="rotate(0,852,544)"/><path d="M 922 530v 28h 28v -14a 14 14, 0, 0, 0, -14 -14" transform="rotate(180,936,544)"/><rect x="950" y="530" width="28" height="28" transform="rotate(0,964,544)"/><path d="M 978 530v 28h 28v -14a 14 14, 0, 0, 0, -14 -14" transform="rotate(90,992,544)"/><rect x="1034" y="530" width="28" height="28" transform="rotate(0,1048,544)"/><path d="M 1090 530v 28h 14a 14 14, 0, 0, 0, 0 -28" transform="rotate(90,1104,544)"/><circle cx="40" cy="572" r="14" transform="rotate(0,40,572)"/><path d="M 82 558v 28h 28v -14a 14 14, 0, 0, 0, -14 -14" transform="rotate(-90,96,572)"/><rect x="110" y="558" width="28" height="28" transform="rotate(0,124,572)"/><rect x="138" y="558" width="28" height="28" transform="rotate(0,152,572)"/><rect x="166" y="558" width="28" height="28" transform="rotate(0,180,572)"/><path d="M 222 558v 28h 14a 14 14, 0, 0, 0, 0 -28" transform="rotate(90,236,572)"/><rect x="362" y="558" width="28" height="28" transform="rotate(0,376,572)"/><path d="M 390 558v 28h 28v -14a 14 14, 0, 0, 0, -14 -14" transform="rotate(90,404,572)"/><rect x="474" y="558" width="28" height="28" transform="rotate(0,488,572)"/><rect x="502" y="558" width="28" height="28" transform="rotate(0,516,572)"/><rect x="530" y="558" width="28" height="28" transform="rotate(0,544,572)"/><rect x="558" y="558" width="28" height="28" transform="rotate(0,572,572)"/><path d="M 642 558v 28h 28v -14a 14 14, 0, 0, 0, -14 -14" transform="rotate(-90,656,572)"/><path d="M 670 558v 28h 14a 14 14, 0, 0, 0, 0 -28" transform="rotate(0,684,572)"/><circle cx="768" cy="572" r="14" transform="rotate(0,768,572)"/><path d="M 810 558v 28h 28v -14a 14 14, 0, 0, 0, -14 -14" transform="rotate(-90,824,572)"/><rect x="838" y="558" width="28" height="28" transform="rotate(0,852,572)"/><path d="M 866 558v 28h 14a 14 14, 0, 0, 0, 0 -28" transform="rotate(0,880,572)"/><path d="M 1034 558v 28h 28v -14a 14 14, 0, 0, 0, -14 -14" transform="rotate(180,1048,572)"/><path d="M 1062 558v 28h 28v -14a 14 14, 0, 0, 0, -14 -14" transform="rotate(0,1076,572)"/><path d="M 1118 558v 28h 14a 14 14, 0, 0, 0, 0 -28" transform="rotate(180,1132,572)"/><path d="M 1146 558v 28h 28v -14a 14 14, 0, 0, 0, -14 -14" transform="rotate(0,1160,572)"/><path d="M 82 586v 28h 14a 14 14, 0, 0, 0, 0 -28" transform="rotate(90,96,600)"/><path d="M 166 586v 28h 28v -14a 14 14, 0, 0, 0, -14 -14" transform="rotate(180,180,600)"/><path d="M 194 586v 28h 14a 14 14, 0, 0, 0, 0 -28" transform="rotate(0,208,600)"/><circle cx="292" cy="600" r="14" transform="rotate(0,292,600)"/><path d="M 334 586v 28h 28v -14a 14 14, 0, 0, 0, -14 -14" transform="rotate(-90,348,600)"/><path d="M 362 586v 28h 28v -14a 14 14, 0, 0, 0, -14 -14" transform="rotate(90,376,600)"/><path d="M 446 586v 28h 14a 14 14, 0, 0, 0, 0 -28" transform="rotate(180,460,600)"/><path d="M 474 586v 28h 28v -14a 14 14, 0, 0, 0, -14 -14" transform="rotate(90,488,600)"/><path d="M 558 586v 28h 14a 14 14, 0, 0, 0, 0 -28" transform="rotate(90,572,600)"/><rect x="642" y="586" width="28" height="28" transform="rotate(0,656,600)"/><circle cx="712" cy="600" r="14" transform="rotate(0,712,600)"/><rect x="810" y="586" width="28" height="28" transform="rotate(0,824,600)"/><rect x="1062" y="586" width="28" height="28" transform="rotate(0,1076,600)"/><path d="M 1090 586v 28h 14a 14 14, 0, 0, 0, 0 -28" transform="rotate(0,1104,600)"/><rect x="1146" y="586" width="28" height="28" transform="rotate(0,1160,600)"/><circle cx="40" cy="628" r="14" transform="rotate(0,40,628)"/><rect x="334" y="614" width="28" height="28" transform="rotate(0,348,628)"/><circle cx="516" cy="628" r="14" transform="rotate(0,516,628)"/><rect x="642" y="614" width="28" height="28" transform="rotate(0,656,628)"/><path d="M 670 614v 28h 14a 14 14, 0, 0, 0, 0 -28" transform="rotate(0,684,628)"/><path d="M 754 614v 28h 14a 14 14, 0, 0, 0, 0 -28" transform="rotate(-90,768,628)"/><rect x="810" y="614" width="28" height="28" transform="rotate(0,824,628)"/><path d="M 866 614v 28h 14a 14 14, 0, 0, 0, 0 -28" transform="rotate(180,880,628)"/><rect x="894" y="614" width="28" height="28" transform="rotate(0,908,628)"/><rect x="922" y="614" width="28" height="28" transform="rotate(0,936,628)"/><rect x="950" y="614" width="28" height="28" transform="rotate(0,964,628)"/><rect x="978" y="614" width="28" height="28" transform="rotate(0,992,628)"/><rect x="1006" y="614" width="28" height="28" transform="rotate(0,1020,628)"/><rect x="1034" y="614" width="28" height="28" transform="rotate(0,1048,628)"/><rect x="1062" y="614" width="28" height="28" transform="rotate(0,1076,628)"/><path d="M 1118 614v 28h 14a 14 14, 0, 0, 0, 0 -28" transform="rotate(180,1132,628)"/><path d="M 1146 614v 28h 28v -14a 14 14, 0, 0, 0, -14 -14" transform="rotate(90,1160,628)"/><path d="M 54 642v 28h 14a 14 14, 0, 0, 0, 0 -28" transform="rotate(-90,68,656)"/><path d="M 138 642v 28h 14a 14 14, 0, 0, 0, 0 -28" transform="rotate(180,152,656)"/><rect x="166" y="642" width="28" height="28" transform="rotate(0,180,656)"/><path d="M 194 642v 28h 14a 14 14, 0, 0, 0, 0 -28" transform="rotate(0,208,656)"/><rect x="334" y="642" width="28" height="28" transform="rotate(0,348,656)"/><path d="M 362 642v 28h 28v -14a 14 14, 0, 0, 0, -14 -14" transform="rotate(0,376,656)"/><path d="M 446 642v 28h 14a 14 14, 0, 0, 0, 0 -28" transform="rotate(180,460,656)"/><path d="M 474 642v 28h 14a 14 14, 0, 0, 0, 0 -28" transform="rotate(0,488,656)"/><path d="M 530 642v 28h 14a 14 14, 0, 0, 0, 0 -28" transform="rotate(-90,544,656)"/><circle cx="600" cy="656" r="14" transform="rotate(0,600,656)"/><rect x="642" y="642" width="28" height="28" transform="rotate(0,656,656)"/><path d="M 698 642v 28h 14a 14 14, 0, 0, 0, 0 -28" transform="rotate(-90,712,656)"/><rect x="754" y="642" width="28" height="28" transform="rotate(0,768,656)"/><rect x="782" y="642" width="28" height="28" transform="rotate(0,796,656)"/><path d="M 810 642v 28h 28v -14a 14 14, 0, 0, 0, -14 -14" transform="rotate(90,824,656)"/><path d="M 922 642v 28h 14a 14 14, 0, 0, 0, 0 -28" transform="rotate(90,936,656)"/><path d="M 978 642v 28h 14a 14 14, 0, 0, 0, 0 -28" transform="rotate(90,992,656)"/><rect x="1034" y="642" width="28" height="28" transform="rotate(0,1048,656)"/><path d="M 1062 642v 28h 28v -14a 14 14, 0, 0, 0, -14 -14" transform="rotate(90,1076,656)"/><path d="M 54 670v 28h 14a 14 14, 0, 0, 0, 0 -28" transform="rotate(90,68,684)"/><circle cx="124" cy="684" r="14" transform="rotate(0,124,684)"/><path d="M 166 670v 28h 14a 14 14, 0, 0, 0, 0 -28" transform="rotate(90,180,684)"/><path d="M 250 670v 28h 28v -14a 14 14, 0, 0, 0, -14 -14" transform="rotate(-90,264,684)"/><path d="M 278 670v 28h 28v -14a 14 14, 0, 0, 0, -14 -14" transform="rotate(0,292,684)"/><rect x="334" y="670" width="28" height="28" transform="rotate(0,348,684)"/><rect x="362" y="670" width="28" height="28" transform="rotate(0,376,684)"/><path d="M 418 670v 28h 14a 14 14, 0, 0, 0, 0 -28" transform="rotate(-90,432,684)"/><path d="M 502 670v 28h 14a 14 14, 0, 0, 0, 0 -28" transform="rotate(180,516,684)"/><rect x="530" y="670" width="28" height="28" transform="rotate(0,544,684)"/><path d="M 614 670v 28h 14a 14 14, 0, 0, 0, 0 -28" transform="rotate(180,628,684)"/><rect x="642" y="670" width="28" height="28" transform="rotate(0,656,684)"/><path d="M 698 670v 28h 14a 14 14, 0, 0, 0, 0 -28" transform="rotate(90,712,684)"/><rect x="754" y="670" width="28" height="28" transform="rotate(0,768,684)"/><rect x="782" y="670" width="28" height="28" transform="rotate(0,796,684)"/><circle cx="908" cy="684" r="14" transform="rotate(0,908,684)"/><path d="M 1006 670v 28h 28v -14a 14 14, 0, 0, 0, -14 -14" transform="rotate(-90,1020,684)"/><path d="M 1034 670v 28h 28v -14a 14 14, 0, 0, 0, -14 -14" transform="rotate(90,1048,684)"/><path d="M 26 698v 28h 14a 14 14, 0, 0, 0, 0 -28" transform="rotate(-90,40,712)"/><circle cx="208" cy="712" r="14" transform="rotate(0,208,712)"/><path d="M 250 698v 28h 28v -14a 14 14, 0, 0, 0, -14 -14" transform="rotate(180,264,712)"/><path d="M 278 698v 28h 28v -14a 14 14, 0, 0, 0, -14 -14" transform="rotate(90,292,712)"/><path d="M 334 698v 28h 28v -14a 14 14, 0, 0, 0, -14 -14" transform="rotate(180,348,712)"/><rect x="362" y="698" width="28" height="28" transform="rotate(0,376,712)"/><rect x="390" y="698" width="28" height="28" transform="rotate(0,404,712)"/><rect x="418" y="698" width="28" height="28" transform="rotate(0,432,712)"/><path d="M 446 698v 28h 14a 14 14, 0, 0, 0, 0 -28" transform="rotate(0,460,712)"/><path d="M 530 698v 28h 14a 14 14, 0, 0, 0, 0 -28" transform="rotate(90,544,712)"/><path d="M 586 698v 28h 14a 14 14, 0, 0, 0, 0 -28" transform="rotate(-90,600,712)"/><path d="M 642 698v 28h 28v -14a 14 14, 0, 0, 0, -14 -14" transform="rotate(180,656,712)"/><path d="M 670 698v 28h 28v -14a 14 14, 0, 0, 0, -14 -14" transform="rotate(0,684,712)"/><path d="M 726 698v 28h 28v -14a 14 14, 0, 0, 0, -14 -14" transform="rotate(-90,740,712)"/><rect x="754" y="698" width="28" height="28" transform="rotate(0,768,712)"/><rect x="782" y="698" width="28" height="28" transform="rotate(0,796,712)"/><rect x="810" y="698" width="28" height="28" transform="rotate(0,824,712)"/><path d="M 838 698v 28h 14a 14 14, 0, 0, 0, 0 -28" transform="rotate(0,852,712)"/><rect x="1006" y="698" width="28" height="28" transform="rotate(0,1020,712)"/><path d="M 1090 698v 28h 14a 14 14, 0, 0, 0, 0 -28" transform="rotate(180,1104,712)"/><path d="M 1118 698v 28h 14a 14 14, 0, 0, 0, 0 -28" transform="rotate(0,1132,712)"/><path d="M 26 726v 28h 28v -14a 14 14, 0, 0, 0, -14 -14" transform="rotate(180,40,740)"/><rect x="54" y="726" width="28" height="28" transform="rotate(0,68,740)"/><rect x="82" y="726" width="28" height="28" transform="rotate(0,96,740)"/><rect x="110" y="726" width="28" height="28" transform="rotate(0,124,740)"/><path d="M 138 726v 28h 14a 14 14, 0, 0, 0, 0 -28" transform="rotate(0,152,740)"/><path d="M 222 726v 28h 14a 14 14, 0, 0, 0, 0 -28" transform="rotate(-90,236,740)"/><path d="M 306 726v 28h 14a 14 14, 0, 0, 0, 0 -28" transform="rotate(-90,320,740)"/><rect x="390" y="726" width="28" height="28" transform="rotate(0,404,740)"/><path d="M 418 726v 28h 28v -14a 14 14, 0, 0, 0, -14 -14" transform="rotate(90,432,740)"/><path d="M 474 726v 28h 14a 14 14, 0, 0, 0, 0 -28" transform="rotate(-90,488,740)"/><path d="M 558 726v 28h 28v -14a 14 14, 0, 0, 0, -14 -14" transform="rotate(-90,572,740)"/><rect x="586" y="726" width="28" height="28" transform="rotate(0,600,740)"/><path d="M 614 726v 28h 14a 14 14, 0, 0, 0, 0 -28" transform="rotate(0,628,740)"/><path d="M 670 726v 28h 14a 14 14, 0, 0, 0, 0 -28" transform="rotate(90,684,740)"/><path d="M 726 726v 28h 14a 14 14, 0, 0, 0, 0 -28" transform="rotate(90,740,740)"/><path d="M 810 726v 28h 14a 14 14, 0, 0, 0, 0 -28" transform="rotate(90,824,740)"/><path d="M 866 726v 28h 14a 14 14, 0, 0, 0, 0 -28" transform="rotate(180,880,740)"/><path d="M 894 726v 28h 14a 14 14, 0, 0, 0, 0 -28" transform="rotate(0,908,740)"/><path d="M 950 726v 28h 14a 14 14, 0, 0, 0, 0 -28" transform="rotate(180,964,740)"/><rect x="978" y="726" width="28" height="28" transform="rotate(0,992,740)"/><rect x="1006" y="726" width="28" height="28" transform="rotate(0,1020,740)"/><rect x="1034" y="726" width="28" height="28" transform="rotate(0,1048,740)"/><path d="M 1062 726v 28h 14a 14 14, 0, 0, 0, 0 -28" transform="rotate(0,1076,740)"/><circle cx="1160" cy="740" r="14" transform="rotate(0,1160,740)"/><path d="M 54 754v 28h 28v -14a 14 14, 0, 0, 0, -14 -14" transform="rotate(180,68,768)"/><rect x="82" y="754" width="28" height="28" transform="rotate(0,96,768)"/><path d="M 110 754v 28h 28v -14a 14 14, 0, 0, 0, -14 -14" transform="rotate(90,124,768)"/><path d="M 194 754v 28h 14a 14 14, 0, 0, 0, 0 -28" transform="rotate(180,208,768)"/><rect x="222" y="754" width="28" height="28" transform="rotate(0,236,768)"/><rect x="250" y="754" width="28" height="28" transform="rotate(0,264,768)"/><rect x="278" y="754" width="28" height="28" transform="rotate(0,292,768)"/><rect x="306" y="754" width="28" height="28" transform="rotate(0,320,768)"/><rect x="334" y="754" width="28" height="28" transform="rotate(0,348,768)"/><rect x="362" y="754" width="28" height="28" transform="rotate(0,376,768)"/><path d="M 390 754v 28h 28v -14a 14 14, 0, 0, 0, -14 -14" transform="rotate(90,404,768)"/><path d="M 474 754v 28h 14a 14 14, 0, 0, 0, 0 -28" transform="rotate(90,488,768)"/><path d="M 530 754v 28h 14a 14 14, 0, 0, 0, 0 -28" transform="rotate(180,544,768)"/><path d="M 558 754v 28h 28v -14a 14 14, 0, 0, 0, -14 -14" transform="rotate(90,572,768)"/><circle cx="712" cy="768" r="14" transform="rotate(0,712,768)"/><path d="M 754 754v 28h 28v -14a 14 14, 0, 0, 0, -14 -14" transform="rotate(-90,768,768)"/><path d="M 782 754v 28h 28v -14a 14 14, 0, 0, 0, -14 -14" transform="rotate(0,796,768)"/><path d="M 922 754v 28h 14a 14 14, 0, 0, 0, 0 -28" transform="rotate(-90,936,768)"/><path d="M 978 754v 28h 28v -14a 14 14, 0, 0, 0, -14 -14" transform="rotate(180,992,768)"/><rect x="1006" y="754" width="28" height="28" transform="rotate(0,1020,768)"/><rect x="1034" y="754" width="28" height="28" transform="rotate(0,1048,768)"/><circle cx="40" cy="796" r="14" transform="rotate(0,40,796)"/><path d="M 166 782v 28h 14a 14 14, 0, 0, 0, 0 -28" transform="rotate(-90,180,796)"/><rect x="278" y="782" width="28" height="28" transform="rotate(0,292,796)"/><path d="M 306 782v 28h 28v -14a 14 14, 0, 0, 0, -14 -14" transform="rotate(90,320,796)"/><path d="M 362 782v 28h 14a 14 14, 0, 0, 0, 0 -28" transform="rotate(90,376,796)"/><path d="M 418 782v 28h 28v -14a 14 14, 0, 0, 0, -14 -14" transform="rotate(-90,432,796)"/><path d="M 446 782v 28h 14a 14 14, 0, 0, 0, 0 -28" transform="rotate(0,460,796)"/><circle cx="516" cy="796" r="14" transform="rotate(0,516,796)"/><path d="M 586 782v 28h 14a 14 14, 0, 0, 0, 0 -28" transform="rotate(180,600,796)"/><path d="M 614 782v 28h 28v -14a 14 14, 0, 0, 0, -14 -14" transform="rotate(0,628,796)"/><rect x="754" y="782" width="28" height="28" transform="rotate(0,768,796)"/><rect x="782" y="782" width="28" height="28" transform="rotate(0,796,796)"/><path d="M 810 782v 28h 14a 14 14, 0, 0, 0, 0 -28" transform="rotate(0,824,796)"/><path d="M 866 782v 28h 14a 14 14, 0, 0, 0, 0 -28" transform="rotate(180,880,796)"/><rect x="894" y="782" width="28" height="28" transform="rotate(0,908,796)"/><rect x="922" y="782" width="28" height="28" transform="rotate(0,936,796)"/><path d="M 950 782v 28h 14a 14 14, 0, 0, 0, 0 -28" transform="rotate(0,964,796)"/><path d="M 1034 782v 28h 28v -14a 14 14, 0, 0, 0, -14 -14" transform="rotate(180,1048,796)"/><path d="M 1062 782v 28h 28v -14a 14 14, 0, 0, 0, -14 -14" transform="rotate(0,1076,796)"/><path d="M 54 810v 28h 28v -14a 14 14, 0, 0, 0, -14 -14" transform="rotate(-90,68,824)"/><rect x="82" y="810" width="28" height="28" transform="rotate(0,96,824)"/><rect x="110" y="810" width="28" height="28" transform="rotate(0,124,824)"/><rect x="138" y="810" width="28" height="28" transform="rotate(0,152,824)"/><rect x="166" y="810" width="28" height="28" transform="rotate(0,180,824)"/><path d="M 194 810v 28h 14a 14 14, 0, 0, 0, 0 -28" transform="rotate(0,208,824)"/><rect x="278" y="810" width="28" height="28" transform="rotate(0,292,824)"/><path d="M 390 810v 28h 14a 14 14, 0, 0, 0, 0 -28" transform="rotate(180,404,824)"/><path d="M 418 810v 28h 28v -14a 14 14, 0, 0, 0, -14 -14" transform="rotate(90,432,824)"/><circle cx="488" cy="824" r="14" transform="rotate(0,488,824)"/><circle cx="572" cy="824" r="14" transform="rotate(0,572,824)"/><path d="M 614 810v 28h 14a 14 14, 0, 0, 0, 0 -28" transform="rotate(90,628,824)"/><circle cx="684" cy="824" r="14" transform="rotate(0,684,824)"/><path d="M 726 810v 28h 14a 14 14, 0, 0, 0, 0 -28" transform="rotate(180,740,824)"/><rect x="754" y="810" width="28" height="28" transform="rotate(0,768,824)"/><rect x="782" y="810" width="28" height="28" transform="rotate(0,796,824)"/><circle cx="852" cy="824" r="14" transform="rotate(0,852,824)"/><rect x="894" y="810" width="28" height="28" transform="rotate(0,908,824)"/><rect x="922" y="810" width="28" height="28" transform="rotate(0,936,824)"/><rect x="1062" y="810" width="28" height="28" transform="rotate(0,1076,824)"/><path d="M 1090 810v 28h 28v -14a 14 14, 0, 0, 0, -14 -14" transform="rotate(0,1104,824)"/><path d="M 26 838v 28h 28v -14a 14 14, 0, 0, 0, -14 -14" transform="rotate(-90,40,852)"/><rect x="54" y="838" width="28" height="28" transform="rotate(0,68,852)"/><rect x="82" y="838" width="28" height="28" transform="rotate(0,96,852)"/><path d="M 138 838v 28h 14a 14 14, 0, 0, 0, 0 -28" transform="rotate(90,152,852)"/><path d="M 222 838v 28h 28v -14a 14 14, 0, 0, 0, -14 -14" transform="rotate(-90,236,852)"/><rect x="250" y="838" width="28" height="28" transform="rotate(0,264,852)"/><path d="M 278 838v 28h 28v -14a 14 14, 0, 0, 0, -14 -14" transform="rotate(90,292,852)"/><path d="M 502 838v 28h 14a 14 14, 0, 0, 0, 0 -28" transform="rotate(180,516,852)"/><path d="M 530 838v 28h 28v -14a 14 14, 0, 0, 0, -14 -14" transform="rotate(0,544,852)"/><path d="M 586 838v 28h 14a 14 14, 0, 0, 0, 0 -28" transform="rotate(-90,600,852)"/><path d="M 642 838v 28h 14a 14 14, 0, 0, 0, 0 -28" transform="rotate(-90,656,852)"/><circle cx="712" cy="852" r="14" transform="rotate(0,712,852)"/><path d="M 782 838v 28h 28v -14a 14 14, 0, 0, 0, -14 -14" transform="rotate(180,796,852)"/><path d="M 810 838v 28h 14a 14 14, 0, 0, 0, 0 -28" transform="rotate(0,824,852)"/><path d="M 866 838v 28h 14a 14 14, 0, 0, 0, 0 -28" transform="rotate(180,880,852)"/><rect x="894" y="838" width="28" height="28" transform="rotate(0,908,852)"/><rect x="922" y="838" width="28" height="28" transform="rotate(0,936,852)"/><path d="M 978 838v 28h 14a 14 14, 0, 0, 0, 0 -28" transform="rotate(-90,992,852)"/><path d="M 1034 838v 28h 28v -14a 14 14, 0, 0, 0, -14 -14" transform="rotate(-90,1048,852)"/><rect x="1062" y="838" width="28" height="28" transform="rotate(0,1076,852)"/><rect x="1090" y="838" width="28" height="28" transform="rotate(0,1104,852)"/><rect x="1118" y="838" width="28" height="28" transform="rotate(0,1132,852)"/><path d="M 1146 838v 28h 14a 14 14, 0, 0, 0, 0 -28" transform="rotate(0,1160,852)"/><rect x="26" y="866" width="28" height="28" transform="rotate(0,40,880)"/><rect x="82" y="866" width="28" height="28" transform="rotate(0,96,880)"/><path d="M 166 866v 28h 14a 14 14, 0, 0, 0, 0 -28" transform="rotate(180,180,880)"/><rect x="194" y="866" width="28" height="28" transform="rotate(0,208,880)"/><path d="M 222 866v 28h 28v -14a 14 14, 0, 0, 0, -14 -14" transform="rotate(90,236,880)"/><circle cx="320" cy="880" r="14" transform="rotate(0,320,880)"/><path d="M 390 866v 28h 14a 14 14, 0, 0, 0, 0 -28" transform="rotate(-90,404,880)"/><path d="M 446 866v 28h 28v -14a 14 14, 0, 0, 0, -14 -14" transform="rotate(-90,460,880)"/><path d="M 474 866v 28h 28v -14a 14 14, 0, 0, 0, -14 -14" transform="rotate(0,488,880)"/><rect x="530" y="866" width="28" height="28" transform="rotate(0,544,880)"/><rect x="586" y="866" width="28" height="28" transform="rotate(0,600,880)"/><rect x="614" y="866" width="28" height="28" transform="rotate(0,628,880)"/><rect x="642" y="866" width="28" height="28" transform="rotate(0,656,880)"/><path d="M 726 866v 28h 14a 14 14, 0, 0, 0, 0 -28" transform="rotate(180,740,880)"/><path d="M 754 866v 28h 14a 14 14, 0, 0, 0, 0 -28" transform="rotate(0,768,880)"/><circle cx="852" cy="880" r="14" transform="rotate(0,852,880)"/><rect x="922" y="866" width="28" height="28" transform="rotate(0,936,880)"/><rect x="950" y="866" width="28" height="28" transform="rotate(0,964,880)"/><rect x="978" y="866" width="28" height="28" transform="rotate(0,992,880)"/><rect x="1006" y="866" width="28" height="28" transform="rotate(0,1020,880)"/><rect x="1034" y="866" width="28" height="28" transform="rotate(0,1048,880)"/><rect x="1062" y="866" width="28" height="28" transform="rotate(0,1076,880)"/><path d="M 1090 866v 28h 28v -14a 14 14, 0, 0, 0, -14 -14" transform="rotate(90,1104,880)"/><rect x="26" y="894" width="28" height="28" transform="rotate(0,40,908)"/><rect x="82" y="894" width="28" height="28" transform="rotate(0,96,908)"/><circle cx="348" cy="908" r="14" transform="rotate(0,348,908)"/><path d="M 390 894v 28h 28v -14a 14 14, 0, 0, 0, -14 -14" transform="rotate(180,404,908)"/><rect x="418" y="894" width="28" height="28" transform="rotate(0,432,908)"/><rect x="446" y="894" width="28" height="28" transform="rotate(0,460,908)"/><path d="M 474 894v 28h 28v -14a 14 14, 0, 0, 0, -14 -14" transform="rotate(90,488,908)"/><rect x="530" y="894" width="28" height="28" transform="rotate(0,544,908)"/><rect x="586" y="894" width="28" height="28" transform="rotate(0,600,908)"/><rect x="614" y="894" width="28" height="28" transform="rotate(0,628,908)"/><path d="M 642 894v 28h 28v -14a 14 14, 0, 0, 0, -14 -14" transform="rotate(90,656,908)"/><path d="M 698 894v 28h 14a 14 14, 0, 0, 0, 0 -28" transform="rotate(-90,712,908)"/><circle cx="824" cy="908" r="14" transform="rotate(0,824,908)"/><circle cx="880" cy="908" r="14" transform="rotate(0,880,908)"/><rect x="922" y="894" width="28" height="28" transform="rotate(0,936,908)"/><rect x="950" y="894" width="28" height="28" transform="rotate(0,964,908)"/><rect x="978" y="894" width="28" height="28" transform="rotate(0,992,908)"/><rect x="1006" y="894" width="28" height="28" transform="rotate(0,1020,908)"/><path d="M 1062 894v 28h 14a 14 14, 0, 0, 0, 0 -28" transform="rotate(90,1076,908)"/><path d="M 26 922v 28h 14a 14 14, 0, 0, 0, 0 -28" transform="rotate(90,40,936)"/><path d="M 82 922v 28h 14a 14 14, 0, 0, 0, 0 -28" transform="rotate(90,96,936)"/><circle cx="208" cy="936" r="14" transform="rotate(0,208,936)"/><path d="M 250 922v 28h 14a 14 14, 0, 0, 0, 0 -28" transform="rotate(-90,264,936)"/><circle cx="320" cy="936" r="14" transform="rotate(0,320,936)"/><rect x="446" y="922" width="28" height="28" transform="rotate(0,460,936)"/><rect x="530" y="922" width="28" height="28" transform="rotate(0,544,936)"/><rect x="586" y="922" width="28" height="28" transform="rotate(0,600,936)"/><path d="M 698 922v 28h 28v -14a 14 14, 0, 0, 0, -14 -14" transform="rotate(180,712,936)"/><rect x="726" y="922" width="28" height="28" transform="rotate(0,740,936)"/><path d="M 754 922v 28h 14a 14 14, 0, 0, 0, 0 -28" transform="rotate(0,768,936)"/><circle cx="852" cy="936" r="14" transform="rotate(0,852,936)"/><rect x="922" y="922" width="28" height="28" transform="rotate(0,936,936)"/><rect x="950" y="922" width="28" height="28" transform="rotate(0,964,936)"/><rect x="978" y="922" width="28" height="28" transform="rotate(0,992,936)"/><rect x="1006" y="922" width="28" height="28" transform="rotate(0,1020,936)"/><path d="M 1034 922v 28h 28v -14a 14 14, 0, 0, 0, -14 -14" transform="rotate(0,1048,936)"/><path d="M 1090 922v 28h 14a 14 14, 0, 0, 0, 0 -28" transform="rotate(180,1104,936)"/><path d="M 1118 922v 28h 28v -14a 14 14, 0, 0, 0, -14 -14" transform="rotate(0,1132,936)"/><rect x="250" y="950" width="28" height="28" transform="rotate(0,264,964)"/><path d="M 278 950v 28h 28v -14a 14 14, 0, 0, 0, -14 -14" transform="rotate(0,292,964)"/><path d="M 390 950v 28h 14a 14 14, 0, 0, 0, 0 -28" transform="rotate(-90,404,964)"/><rect x="446" y="950" width="28" height="28" transform="rotate(0,460,964)"/><path d="M 474 950v 28h 14a 14 14, 0, 0, 0, 0 -28" transform="rotate(0,488,964)"/><rect x="530" y="950" width="28" height="28" transform="rotate(0,544,964)"/><rect x="558" y="950" width="28" height="28" transform="rotate(0,572,964)"/><path d="M 586 950v 28h 28v -14a 14 14, 0, 0, 0, -14 -14" transform="rotate(90,600,964)"/><circle cx="684" cy="964" r="14" transform="rotate(0,684,964)"/><rect x="726" y="950" width="28" height="28" transform="rotate(0,740,964)"/><path d="M 810 950v 28h 14a 14 14, 0, 0, 0, 0 -28" transform="rotate(-90,824,964)"/><path d="M 866 950v 28h 14a 14 14, 0, 0, 0, 0 -28" transform="rotate(-90,880,964)"/><rect x="922" y="950" width="28" height="28" transform="rotate(0,936,964)"/><rect x="1034" y="950" width="28" height="28" transform="rotate(0,1048,964)"/><rect x="1118" y="950" width="28" height="28" transform="rotate(0,1132,964)"/><path d="M 1146 950v 28h 14a 14 14, 0, 0, 0, 0 -28" transform="rotate(0,1160,964)"/><rect x="250" y="978" width="28" height="28" transform="rotate(0,264,992)"/><path d="M 278 978v 28h 28v -14a 14 14, 0, 0, 0, -14 -14" transform="rotate(90,292,992)"/><path d="M 362 978v 28h 14a 14 14, 0, 0, 0, 0 -28" transform="rotate(180,376,992)"/><rect x="390" y="978" width="28" height="28" transform="rotate(0,404,992)"/><rect x="418" y="978" width="28" height="28" transform="rotate(0,432,992)"/><rect x="446" y="978" width="28" height="28" transform="rotate(0,460,992)"/><path d="M 530 978v 28h 28v -14a 14 14, 0, 0, 0, -14 -14" transform="rotate(180,544,992)"/><path d="M 558 978v 28h 28v -14a 14 14, 0, 0, 0, -14 -14" transform="rotate(90,572,992)"/><path d="M 614 978v 28h 14a 14 14, 0, 0, 0, 0 -28" transform="rotate(180,628,992)"/><path d="M 642 978v 28h 28v -14a 14 14, 0, 0, 0, -14 -14" transform="rotate(0,656,992)"/><rect x="726" y="978" width="28" height="28" transform="rotate(0,740,992)"/><rect x="754" y="978" width="28" height="28" transform="rotate(0,768,992)"/><rect x="782" y="978" width="28" height="28" transform="rotate(0,796,992)"/><path d="M 810 978v 28h 28v -14a 14 14, 0, 0, 0, -14 -14" transform="rotate(90,824,992)"/><path d="M 866 978v 28h 28v -14a 14 14, 0, 0, 0, -14 -14" transform="rotate(180,880,992)"/><rect x="894" y="978" width="28" height="28" transform="rotate(0,908,992)"/><rect x="922" y="978" width="28" height="28" transform="rotate(0,936,992)"/><circle cx="992" cy="992" r="14" transform="rotate(0,992,992)"/><rect x="1034" y="978" width="28" height="28" transform="rotate(0,1048,992)"/><rect x="1062" y="978" width="28" height="28" transform="rotate(0,1076,992)"/><rect x="1090" y="978" width="28" height="28" transform="rotate(0,1104,992)"/><path d="M 1118 978v 28h 28v -14a 14 14, 0, 0, 0, -14 -14" transform="rotate(90,1132,992)"/><rect x="250" y="1006" width="28" height="28" transform="rotate(0,264,1020)"/><path d="M 306 1006v 28h 28v -14a 14 14, 0, 0, 0, -14 -14" transform="rotate(-90,320,1020)"/><path d="M 334 1006v 28h 14a 14 14, 0, 0, 0, 0 -28" transform="rotate(0,348,1020)"/><path d="M 390 1006v 28h 28v -14a 14 14, 0, 0, 0, -14 -14" transform="rotate(180,404,1020)"/><rect x="418" y="1006" width="28" height="28" transform="rotate(0,432,1020)"/><rect x="446" y="1006" width="28" height="28" transform="rotate(0,460,1020)"/><path d="M 474 1006v 28h 14a 14 14, 0, 0, 0, 0 -28" transform="rotate(0,488,1020)"/><path d="M 586 1006v 28h 14a 14 14, 0, 0, 0, 0 -28" transform="rotate(-90,600,1020)"/><path d="M 642 1006v 28h 14a 14 14, 0, 0, 0, 0 -28" transform="rotate(90,656,1020)"/><path d="M 698 1006v 28h 28v -14a 14 14, 0, 0, 0, -14 -14" transform="rotate(-90,712,1020)"/><path d="M 726 1006v 28h 28v -14a 14 14, 0, 0, 0, -14 -14" transform="rotate(90,740,1020)"/><path d="M 782 1006v 28h 14a 14 14, 0, 0, 0, 0 -28" transform="rotate(90,796,1020)"/><path d="M 894 1006v 28h 28v -14a 14 14, 0, 0, 0, -14 -14" transform="rotate(180,908,1020)"/><rect x="922" y="1006" width="28" height="28" transform="rotate(0,936,1020)"/><rect x="1034" y="1006" width="28" height="28" transform="rotate(0,1048,1020)"/><path d="M 1062 1006v 28h 28v -14a 14 14, 0, 0, 0, -14 -14" transform="rotate(90,1076,1020)"/><rect x="250" y="1034" width="28" height="28" transform="rotate(0,264,1048)"/><rect x="278" y="1034" width="28" height="28" transform="rotate(0,292,1048)"/><path d="M 306 1034v 28h 28v -14a 14 14, 0, 0, 0, -14 -14" transform="rotate(90,320,1048)"/><path d="M 502 1034v 28h 28v -14a 14 14, 0, 0, 0, -14 -14" transform="rotate(-90,516,1048)"/><rect x="530" y="1034" width="28" height="28" transform="rotate(0,544,1048)"/><rect x="558" y="1034" width="28" height="28" transform="rotate(0,572,1048)"/><rect x="586" y="1034" width="28" height="28" transform="rotate(0,600,1048)"/><path d="M 670 1034v 28h 28v -14a 14 14, 0, 0, 0, -14 -14" transform="rotate(-90,684,1048)"/><path d="M 698 1034v 28h 28v -14a 14 14, 0, 0, 0, -14 -14" transform="rotate(90,712,1048)"/><circle cx="768" cy="1048" r="14" transform="rotate(0,768,1048)"/><circle cx="880" cy="1048" r="14" transform="rotate(0,880,1048)"/><path d="M 922 1034v 28h 28v -14a 14 14, 0, 0, 0, -14 -14" transform="rotate(180,936,1048)"/><rect x="950" y="1034" width="28" height="28" transform="rotate(0,964,1048)"/><rect x="978" y="1034" width="28" height="28" transform="rotate(0,992,1048)"/><rect x="1006" y="1034" width="28" height="28" transform="rotate(0,1020,1048)"/><path d="M 1034 1034v 28h 28v -14a 14 14, 0, 0, 0, -14 -14" transform="rotate(90,1048,1048)"/><path d="M 1090 1034v 28h 28v -14a 14 14, 0, 0, 0, -14 -14" transform="rotate(-90,1104,1048)"/><rect x="1118" y="1034" width="28" height="28" transform="rotate(0,1132,1048)"/><path d="M 1146 1034v 28h 14a 14 14, 0, 0, 0, 0 -28" transform="rotate(0,1160,1048)"/><rect x="250" y="1062" width="28" height="28" transform="rotate(0,264,1076)"/><path d="M 278 1062v 28h 28v -14a 14 14, 0, 0, 0, -14 -14" transform="rotate(90,292,1076)"/><path d="M 334 1062v 28h 14a 14 14, 0, 0, 0, 0 -28" transform="rotate(180,348,1076)"/><path d="M 362 1062v 28h 28v -14a 14 14, 0, 0, 0, -14 -14" transform="rotate(0,376,1076)"/><path d="M 446 1062v 28h 14a 14 14, 0, 0, 0, 0 -28" transform="rotate(-90,460,1076)"/><rect x="502" y="1062" width="28" height="28" transform="rotate(0,516,1076)"/><path d="M 530 1062v 28h 28v -14a 14 14, 0, 0, 0, -14 -14" transform="rotate(90,544,1076)"/><path d="M 586 1062v 28h 28v -14a 14 14, 0, 0, 0, -14 -14" transform="rotate(180,600,1076)"/><path d="M 614 1062v 28h 14a 14 14, 0, 0, 0, 0 -28" transform="rotate(0,628,1076)"/><path d="M 670 1062v 28h 14a 14 14, 0, 0, 0, 0 -28" transform="rotate(90,684,1076)"/><path d="M 810 1062v 28h 28v -14a 14 14, 0, 0, 0, -14 -14" transform="rotate(-90,824,1076)"/><path d="M 838 1062v 28h 14a 14 14, 0, 0, 0, 0 -28" transform="rotate(0,852,1076)"/><path d="M 894 1062v 28h 14a 14 14, 0, 0, 0, 0 -28" transform="rotate(-90,908,1076)"/><rect x="950" y="1062" width="28" height="28" transform="rotate(0,964,1076)"/><rect x="1006" y="1062" width="28" height="28" transform="rotate(0,1020,1076)"/><path d="M 1062 1062v 28h 28v -14a 14 14, 0, 0, 0, -14 -14" transform="rotate(-90,1076,1076)"/><rect x="1090" y="1062" width="28" height="28" transform="rotate(0,1104,1076)"/><path d="M 1118 1062v 28h 28v -14a 14 14, 0, 0, 0, -14 -14" transform="rotate(90,1132,1076)"/><rect x="250" y="1090" width="28" height="28" transform="rotate(0,264,1104)"/><path d="M 362 1090v 28h 28v -14a 14 14, 0, 0, 0, -14 -14" transform="rotate(180,376,1104)"/><path d="M 390 1090v 28h 14a 14 14, 0, 0, 0, 0 -28" transform="rotate(0,404,1104)"/><path d="M 446 1090v 28h 14a 14 14, 0, 0, 0, 0 -28" transform="rotate(90,460,1104)"/><rect x="502" y="1090" width="28" height="28" transform="rotate(0,516,1104)"/><circle cx="572" cy="1104" r="14" transform="rotate(0,572,1104)"/><path d="M 642 1090v 28h 14a 14 14, 0, 0, 0, 0 -28" transform="rotate(-90,656,1104)"/><path d="M 726 1090v 28h 14a 14 14, 0, 0, 0, 0 -28" transform="rotate(180,740,1104)"/><rect x="754" y="1090" width="28" height="28" transform="rotate(0,768,1104)"/><rect x="782" y="1090" width="28" height="28" transform="rotate(0,796,1104)"/><path d="M 810 1090v 28h 28v -14a 14 14, 0, 0, 0, -14 -14" transform="rotate(90,824,1104)"/><rect x="894" y="1090" width="28" height="28" transform="rotate(0,908,1104)"/><rect x="922" y="1090" width="28" height="28" transform="rotate(0,936,1104)"/><rect x="950" y="1090" width="28" height="28" transform="rotate(0,964,1104)"/><rect x="978" y="1090" width="28" height="28" transform="rotate(0,992,1104)"/><rect x="1006" y="1090" width="28" height="28" transform="rotate(0,1020,1104)"/><rect x="1034" y="1090" width="28" height="28" transform="rotate(0,1048,1104)"/><rect x="1062" y="1090" width="28" height="28" transform="rotate(0,1076,1104)"/><path d="M 250 1118v 28h 14a 14 14, 0, 0, 0, 0 -28" transform="rotate(90,264,1132)"/><rect x="502" y="1118" width="28" height="28" transform="rotate(0,516,1132)"/><path d="M 530 1118v 28h 14a 14 14, 0, 0, 0, 0 -28" transform="rotate(0,544,1132)"/><path d="M 586 1118v 28h 28v -14a 14 14, 0, 0, 0, -14 -14" transform="rotate(-90,600,1132)"/><rect x="614" y="1118" width="28" height="28" transform="rotate(0,628,1132)"/><rect x="642" y="1118" width="28" height="28" transform="rotate(0,656,1132)"/><rect x="670" y="1118" width="28" height="28" transform="rotate(0,684,1132)"/><path d="M 698 1118v 28h 28v -14a 14 14, 0, 0, 0, -14 -14" transform="rotate(0,712,1132)"/><path d="M 866 1118v 28h 14a 14 14, 0, 0, 0, 0 -28" transform="rotate(180,880,1132)"/><rect x="894" y="1118" width="28" height="28" transform="rotate(0,908,1132)"/><path d="M 922 1118v 28h 28v -14a 14 14, 0, 0, 0, -14 -14" transform="rotate(90,936,1132)"/><rect x="978" y="1118" width="28" height="28" transform="rotate(0,992,1132)"/><rect x="1034" y="1118" width="28" height="28" transform="rotate(0,1048,1132)"/><path d="M 1062 1118v 28h 28v -14a 14 14, 0, 0, 0, -14 -14" transform="rotate(90,1076,1132)"/><circle cx="1132" cy="1132" r="14" transform="rotate(0,1132,1132)"/><circle cx="404" cy="1160" r="14" transform="rotate(0,404,1160)"/><path d="M 502 1146v 28h 14a 14 14, 0, 0, 0, 0 -28" transform="rotate(90,516,1160)"/><path d="M 586 1146v 28h 28v -14a 14 14, 0, 0, 0, -14 -14" transform="rotate(180,600,1160)"/><rect x="614" y="1146" width="28" height="28" transform="rotate(0,628,1160)"/><path d="M 642 1146v 28h 28v -14a 14 14, 0, 0, 0, -14 -14" transform="rotate(90,656,1160)"/><path d="M 698 1146v 28h 28v -14a 14 14, 0, 0, 0, -14 -14" transform="rotate(180,712,1160)"/><rect x="726" y="1146" width="28" height="28" transform="rotate(0,740,1160)"/><rect x="754" y="1146" width="28" height="28" transform="rotate(0,768,1160)"/><rect x="782" y="1146" width="28" height="28" transform="rotate(0,796,1160)"/><rect x="810" y="1146" width="28" height="28" transform="rotate(0,824,1160)"/><path d="M 838 1146v 28h 14a 14 14, 0, 0, 0, 0 -28" transform="rotate(0,852,1160)"/><path d="M 894 1146v 28h 14a 14 14, 0, 0, 0, 0 -28" transform="rotate(90,908,1160)"/><path d="M 950 1146v 28h 14a 14 14, 0, 0, 0, 0 -28" transform="rotate(180,964,1160)"/><rect x="978" y="1146" width="28" height="28" transform="rotate(0,992,1160)"/><rect x="1006" y="1146" width="28" height="28" transform="rotate(0,1020,1160)"/><path d="M 1034 1146v 28h 28v -14a 14 14, 0, 0, 0, -14 -14" transform="rotate(90,1048,1160)"/><circle cx="1104" cy="1160" r="14" transform="rotate(0,1104,1160)"/></clipPath><clipPath id="clip-path-corners-square-color-0-0-94"><path clip-rule="evenodd" d="M 26 96v 56a 70 70, 0, 0, 0, 70 70h 56a 70 70, 0, 0, 0, 70 -70v -56a 70 70, 0, 0, 0, -70 -70h -56a 70 70, 0, 0, 0, -70 70M 96 54h 56a 42 42, 0, 0, 1, 42 42v 56a 42 42, 0, 0, 1, -42 42h -56a 42 42, 0, 0, 1, -42 -42v -56a 42 42, 0, 0, 1, 42 -42" transform="rotate(0,124,124)"/></clipPath><clipPath id="clip-path-corners-dot-color-0-0-94"><circle cx="124" cy="124" r="42" transform="rotate(0,124,124)"/></clipPath><clipPath id="clip-path-corners-square-color-1-0-94"><path clip-rule="evenodd" d="M 978 96v 56a 70 70, 0, 0, 0, 70 70h 56a 70 70, 0, 0, 0, 70 -70v -56a 70 70, 0, 0, 0, -70 -70h -56a 70 70, 0, 0, 0, -70 70M 1048 54h 56a 42 42, 0, 0, 1, 42 42v 56a 42 42, 0, 0, 1, -42 42h -56a 42 42, 0, 0, 1, -42 -42v -56a 42 42, 0, 0, 1, 42 -42" transform="rotate(90,1076,124)"/></clipPath><clipPath id="clip-path-corners-dot-color-1-0-94"><circle cx="1076" cy="124" r="42" transform="rotate(90,1076,124)"/></clipPath><clipPath id="clip-path-corners-square-color-0-1-94"><path clip-rule="evenodd" d="M 26 1048v 56a 70 70, 0, 0, 0, 70 70h 56a 70 70, 0, 0, 0, 70 -70v -56a 70 70, 0, 0, 0, -70 -70h -56a 70 70, 0, 0, 0, -70 70M 96 1006h 56a 42 42, 0, 0, 1, 42 42v 56a 42 42, 0, 0, 1, -42 42h -56a 42 42, 0, 0, 1, -42 -42v -56a 42 42, 0, 0, 1, 42 -42" transform="rotate(-90,124,1076)"/></clipPath><clipPath id="clip-path-corners-dot-color-0-1-94"><circle cx="124" cy="1076" r="42" transform="rotate(-90,124,1076)"/></clipPath></defs><rect x="0" y="0" height="1200" width="1200" clip-path="url('#clip-path-background-color-94')" fill="#ffffff"/><rect x="0" y="0" height="1200" width="1200" clip-path="url('#clip-path-dot-color-94')" fill="#000000"/><rect x="26" y="26" height="196" width="196" clip-path="url('#clip-path-corners-square-color-0-0-94')" fill="#000000"/><rect x="82" y="82" height="84" width="84" clip-path="url('#clip-path-corners-dot-color-0-0-94')" fill="#000000"/><rect x="978" y="26" height="196" width="196" clip-path="url('#clip-path-corners-square-color-1-0-94')" fill="#000000"/><rect x="1034" y="82" height="84" width="84" clip-path="url('#clip-path-corners-dot-color-1-0-94')" fill="#000000"/><rect x="26" y="978" height="196" width="196" clip-path="url('#clip-path-corners-square-color-0-1-94')" fill="#000000"/><rect x="82" y="1034" height="84" width="84" clip-path="url('#clip-path-corners-dot-color-0-1-94')" fill="#000000"/></svg>