<?xml version="1.0" standalone="no"?>
<svg xmlns="http://www.w3.org/2000/svg" width="1200" height="1200" xmlns:xlink="http://www.w3.org/1999/xlink" viewBox="0 0 1200 1200"><defs><clipPath id="clip-path-background-color-85"><rect x="0" y="0" width="1200" height="1200"/></clipPath><clipPath id="clip-path-dot-color-85"><path d="M 302 22v 35h 35v -17.5a 17.5 17.5, 0, 0, 0, -17.5 -17.5" transform="rotate(-90,319.5,39.5)"/><path d="M 337 22v 35h 17.5a 17.5 17.5, 0, 0, 0, 0 -35" transform="rotate(0,354.5,39.5)"/><circle cx="494.5" cy="39.5" r="17.5" transform="rotate(0,494.5,39.5)"/><circle cx="564.5" cy="39.5" r="17.5" transform="rotate(0,564.5,39.5)"/><path d="M 652 22v 35h 17.5a 17.5 17.5, 0, 0, 0, 0 -35" transform="rotate(180,669.5,39.5)"/><path d="M 687 22v 35h 35v -17.5a 17.5 17.5, 0, 0, 0, -17.5 -17.5" transform="rotate(0,704.5,39.5)"/><path d="M 827 22v 35h 17.5a 17.5 17.5, 0, 0, 0, 0 -35" transform="rotate(-90,844.5,39.5)"/><rect x="302" y="57" width="35" height="35" transform="rotate(0,319.5,74.5)"/><path d="M 372 57v 35h 35v -17.5a 17.5 17.5, 0, 0, 0, -17.5 -17.5" transform="rotate(-90,389.5,74.5)"/><path d="M 407 57v 35h 35v -17.5a 17.5 17.5, 0, 0, 0, -17.5 -17.5" transform="rotate(0,424.5,74.5)"/><path d="M 512 57v 35h 17.5a 17.5 17.5, 0, 0, 0, 0 -35" transform="rotate(-90,529.5,74.5)"/><circle cx="634.5" cy="74.5" r="17.5" transform="rotate(0,634.5,74.5)"/><rect x="687" y="57" width="35" height="35" transform="rotate(0,704.5,74.5)"/><rect x="722" y="57" width="35" height="35" transform="rotate(0,739.5,74.5)"/><path d="M 757 57v 35h 17.5a 17.5 17.5, 0, 0, 0, 0 -35" transform="rotate(0,774.5,74.5)"/><path d="M 827 57v 35h 35v -17.5a 17.5 17.5, 0, 0, 0, -17.5 -17.5" transform="rotate(180,844.5,74.5)"/><path d="M 862 57v 35h 17.5a 17.5 17.5, 0, 0, 0, 0 -35" transform="rotate(0,879.5,74.5)"/><rect x="302" y="92" width="35" height="35" transform="rotate(0,319.5,109.5)"/><rect x="337" y="92" width="35" height="35" transform="rotate(0,354.5,109.5)"/><rect x="372" y="92" width="35" height="35" transform="rotate(0,389.5,109.5)"/><rect x="407" y="92" width="35" height="35" transform="rotate(0,424.5,109.5)"/><path d="M 477 92v 35h 17.5a 17.5 17.5, 0, 0, 0, 0 -35" transform="rotate(180,494.5,109.5)"/><rect x="512" y="92" width="35" height="35" transform="rotate(0,529.5,109.5)"/><path d="M 687 92v 35h 17.5a 17.5 17.5, 0, 0, 0, 0 -35" transform="rotate(90,704.5,109.5)"/><rect x="302" y="127" width="35" height="35" transform="rotate(0,319.5,144.5)"/><rect x="337" y="127" width="35" height="35" transform="rotate(0,354.5,144.5)"/><rect x="372" y="127" width="35" height="35" transform="rotate(0,389.5,144.5)"/><path d="M 407 127v 35h 35v -17.5a 17.5 17.5, 0, 0, 0, -17.5 -17.5" transform="rotate(90,424.5,144.5)"/><rect x="512" y="127" width="35" height="35" transform="rotate(0,529.5,144.5)"/><rect x="547" y="127" width="35" height="35" transform="rotate(0,564.5,144.5)"/><path d="M 582 127v 35h 17.5a 17.5 17.5, 0, 0, 0, 0 -35" transform="rotate(0,599.5,144.5)"/><path d="M 652 127v 35h 17.5a 17.5 17.5, 0, 0, 0, 0 -35" transform="rotate(-90,669.5,144.5)"/><path d="M 792 127v 35h 35v -17.5a 17.5 17.5, 0, 0, 0, -17.5 -17.5" transform="rotate(-90,809.5,144.5)"/><path d="M 827 127v 35h 35v -17.5a 17.5 17.5, 0, 0, 0, -17.5 -17.5" transform="rotate(0,844.5,144.5)"/><path d="M 302 162v 35h 17.5a 17.5 17.5, 0, 0, 0, 0 -35" transform="rotate(90,319.5,179.5)"/><rect x="372" y="162" width="35" height="35" transform="rotate(0,389.5,179.5)"/><path d="M 442 162v 35h 17.5a 17.5 17.5, 0, 0, 0, 0 -35" transform="rotate(-90,459.5,179.5)"/><path d="M 512 162v 35h 35v -17.5a 17.5 17.5, 0, 0, 0, -17.5 -17.5" transform="rotate(180,529.5,179.5)"/><path d="M 547 162v 35h 35v -17.5a 17.5 17.5, 0, 0, 0, -17.5 -17.5" transform="rotate(90,564.5,179.5)"/><path d="M 617 162v 35h 35v -17.5a 17.5 17.5, 0, 0, 0, -17.5 -17.5" transform="rotate(-90,634.5,179.5)"/><rect x="652" y="162" width="35" height="35" transform="rotate(0,669.5,179.5)"/><path d="M 687 162v 35h 35v -17.5a 17.5 17.5, 0, 0, 0, -17.5 -17.5" transform="rotate(0,704.5,179.5)"/><path d="M 792 162v 35h 35v -17.5a 17.5 17.5, 0, 0, 0, -17.5 -17.5" transform="rotate(180,809.5,179.5)"/><rect x="827" y="162" width="35" height="35" transform="rotate(0,844.5,179.5)"/><rect x="372" y="197" width="35" height="35" transform="rotate(0,389.5,214.5)"/><rect x="442" y="197" width="35" height="35" transform="rotate(0,459.5,214.5)"/><path d="M 477 197v 35h 17.5a 17.5 17.5, 0, 0, 0, 0 -35" transform="rotate(0,494.5,214.5)"/><path d="M 617 197v 35h 35v -17.5a 17.5 17.5, 0, 0, 0, -17.5 -17.5" transform="rotate(180,634.5,214.5)"/><rect x="652" y="197" width="35" height="35" transform="rotate(0,669.5,214.5)"/><rect x="687" y="197" width="35" height="35" transform="rotate(0,704.5,214.5)"/><path d="M 722 197v 35h 35v -17.5a 17.5 17.5, 0, 0, 0, -17.5 -17.5" transform="rotate(0,739.5,214.5)"/><path d="M 827 197v 35h 17.5a 17.5 17.5, 0, 0, 0, 0 -35" transform="rotate(90,844.5,214.5)"/><path d="M 302 232v 35h 17.5a 17.5 17.5, 0, 0, 0, 0 -35" transform="rotate(-90,319.5,249.5)"/><path d="M 372 232v 35h 17.5a 17.5 17.5, 0, 0, 0, 0 -35" transform="rotate(90,389.5,249.5)"/><rect x="442" y="232" width="35" height="35" transform="rotate(0,459.5,249.5)"/><circle cx="529.5" cy="249.5" r="17.5" transform="rotate(0,529.5,249.5)"/><circle cx="599.5" cy="249.5" r="17.5" transform="rotate(0,599.5,249.5)"/><rect x="652" y="232" width="35" height="35" transform="rotate(0,669.5,249.5)"/><rect x="722" y="232" width="35" height="35" transform="rotate(0,739.5,249.5)"/><circle cx="809.5" cy="249.5" r="17.5" transform="rotate(0,809.5,249.5)"/><circle cx="879.5" cy="249.5" r="17.5" transform="rotate(0,879.5,249.5)"/><path d="M 302 267v 35h 35v -17.5a 17.5 17.5, 0, 0, 0, -17.5 -17.5" transform="rotate(180,319.5,284.5)"/><path d="M 337 267v 35h 35v -17.5a 17.5 17.5, 0, 0, 0, -17.5 -17.5" transform="rotate(0,354.5,284.5)"/><path d="M 407 267v 35h 17.5a 17.5 17.5, 0, 0, 0, 0 -35" transform="rotate(180,424.5,284.5)"/><rect x="442" y="267" width="35" height="35" transform="rotate(0,459.5,284.5)"/><path d="M 547 267v 35h 17.5a 17.5 17.5, 0, 0, 0, 0 -35" transform="rotate(-90,564.5,284.5)"/><path d="M 617 267v 35h 35v -17.5a 17.5 17.5, 0, 0, 0, -17.5 -17.5" transform="rotate(-90,634.5,284.5)"/><rect x="652" y="267" width="35" height="35" transform="rotate(0,669.5,284.5)"/><rect x="687" y="267" width="35" height="35" transform="rotate(0,704.5,284.5)"/><rect x="722" y="267" width="35" height="35" transform="rotate(0,739.5,284.5)"/><path d="M 757 267v 35h 35v -17.5a 17.5 17.5, 0, 0, 0, -17.5 -17.5" transform="rotate(0,774.5,284.5)"/><path d="M 827 267v 35h 17.5a 17.5 17.5, 0, 0, 0, 0 -35" transform="rotate(-90,844.5,284.5)"/><path d="M 57 302v 35h 17.5a 17.5 17.5, 0, 0, 0, 0 -35" transform="rotate(180,74.5,319.5)"/><path d="M 92 302v 35h 35v -17.5a 17.5 17.5, 0, 0, 0, -17.5 -17.5" transform="rotate(0,109.5,319.5)"/><path d="M 162 302v 35h 17.5a 17.5 17.5, 0, 0, 0, 0 -35" transform="rotate(-90,179.5,319.5)"/><path d="M 232 302v 35h 17.5a 17.5 17.5, 0, 0, 0, 0 -35" transform="rotate(180,249.5,319.5)"/><path d="M 267 302v 35h 35v -17.5a 17.5 17.5, 0, 0, 0, -17.5 -17.5" transform="rotate(0,284.5,319.5)"/><path d="M 337 302v 35h 17.5a 17.5 17.5, 0, 0, 0, 0 -35" transform="rotate(90,354.5,319.5)"/><rect x="442" y="302" width="35" height="35" transform="rotate(0,459.5,319.5)"/><path d="M 512 302v 35h 17.5a 17.5 17.5, 0, 0, 0, 0 -35" transform="rotate(180,529.5,319.5)"/><rect x="547" y="302" width="35" height="35" transform="rotate(0,564.5,319.5)"/><rect x="582" y="302" width="35" height="35" transform="rotate(0,599.5,319.5)"/><rect x="617" y="302" width="35" height="35" transform="rotate(0,634.5,319.5)"/><rect x="652" y="302" width="35" height="35" transform="rotate(0,669.5,319.5)"/><rect x="687" y="302" width="35" height="35" transform="rotate(0,704.5,319.5)"/><rect x="722" y="302" width="35" height="35" transform="rotate(0,739.5,319.5)"/><path d="M 757 302v 35h 35v -17.5a 17.5 17.5, 0, 0, 0, -17.5 -17.5" transform="rotate(90,774.5,319.5)"/><path d="M 827 302v 35h 17.5a 17.5 17.5, 0, 0, 0, 0 -35" transform="rotate(90,844.5,319.5)"/><path d="M 932 302v 35h 17.5a 17.5 17.5, 0, 0, 0, 0 -35" transform="rotate(-90,949.5,319.5)"/><path d="M 1002 302v 35h 17.5a 17.5 17.5, 0, 0, 0, 0 -35" transform="rotate(180,1019.5,319.5)"/><rect x="1037" y="302" width="35" height="35" transform="rotate(0,1054.5,319.5)"/><rect x="1072" y="302" width="35" height="35" transform="rotate(0,1089.5,319.5)"/><rect x="1107" y="302" width="35" height="35" transform="rotate(0,1124.5,319.5)"/><path d="M 1142 302v 35h 35v -17.5a 17.5 17.5, 0, 0, 0, -17.5 -17.5" transform="rotate(0,1159.5,319.5)"/><path d="M 92 337v 35h 17.5a 17.5 17.5, 0, 0, 0, 0 -35" transform="rotate(90,109.5,354.5)"/><rect x="162" y="337" width="35" height="35" transform="rotate(0,179.5,354.5)"/><path d="M 197 337v 35h 17.5a 17.5 17.5, 0, 0, 0, 0 -35" transform="rotate(0,214.5,354.5)"/><rect x="267" y="337" width="35" height="35" transform="rotate(0,284.5,354.5)"/><path d="M 302 337v 35h 17.5a 17.5 17.5, 0, 0, 0, 0 -35" transform="rotate(0,319.5,354.5)"/><rect x="442" y="337" width="35" height="35" transform="rotate(0,459.5,354.5)"/><path d="M 477 337v 35h 17.5a 17.5 17.5, 0, 0, 0, 0 -35" transform="rotate(0,494.5,354.5)"/><path d="M 547 337v 35h 17.5a 17.5 17.5, 0, 0, 0, 0 -35" transform="rotate(90,564.5,354.5)"/><path d="M 722 337v 35h 17.5a 17.5 17.5, 0, 0, 0, 0 -35" transform="rotate(90,739.5,354.5)"/><path d="M 862 337v 35h 35v -17.5a 17.5 17.5, 0, 0, 0, -17.5 -17.5" transform="rotate(-90,879.5,354.5)"/><rect x="897" y="337" width="35" height="35" transform="rotate(0,914.5,354.5)"/><rect x="932" y="337" width="35" height="35" transform="rotate(0,949.5,354.5)"/><path d="M 967 337v 35h 35v -17.5a 17.5 17.5, 0, 0, 0, -17.5 -17.5" transform="rotate(0,984.5,354.5)"/><rect x="1142" y="337" width="35" height="35" transform="rotate(0,1159.5,354.5)"/><circle cx="74.5" cy="389.5" r="17.5" transform="rotate(0,74.5,389.5)"/><path d="M 162 372v 35h 17.5a 17.5 17.5, 0, 0, 0, 0 -35" transform="rotate(90,179.5,389.5)"/><path d="M 232 372v 35h 17.5a 17.5 17.5, 0, 0, 0, 0 -35" transform="rotate(180,249.5,389.5)"/><rect x="267" y="372" width="35" height="35" transform="rotate(0,284.5,389.5)"/><path d="M 337 372v 35h 35v -17.5a 17.5 17.5, 0, 0, 0, -17.5 -17.5" transform="rotate(-90,354.5,389.5)"/><path d="M 372 372v 35h 35v -17.5a 17.5 17.5, 0, 0, 0, -17.5 -17.5" transform="rotate(0,389.5,389.5)"/><rect x="442" y="372" width="35" height="35" transform="rotate(0,459.5,389.5)"/><circle cx="529.5" cy="389.5" r="17.5" transform="rotate(0,529.5,389.5)"/><path d="M 582 372v 35h 17.5a 17.5 17.5, 0, 0, 0, 0 -35" transform="rotate(180,599.5,389.5)"/><path d="M 617 372v 35h 35v -17.5a 17.5 17.5, 0, 0, 0, -17.5 -17.5" transform="rotate(0,634.5,389.5)"/><path d="M 792 372v 35h 17.5a 17.5 17.5, 0, 0, 0, 0 -35" transform="rotate(-90,809.5,389.5)"/><rect x="862" y="372" width="35" height="35" transform="rotate(0,879.5,389.5)"/><path d="M 932 372v 35h 35v -17.5a 17.5 17.5, 0, 0, 0, -17.5 -17.5" transform="rotate(180,949.5,389.5)"/><path d="M 967 372v 35h 35v -17.5a 17.5 17.5, 0, 0, 0, -17.5 -17.5" transform="rotate(90,984.5,389.5)"/><path d="M 1072 372v 35h 17.5a 17.5 17.5, 0, 0, 0, 0 -35" transform="rotate(180,1089.5,389.5)"/><rect x="1107" y="372" width="35" height="35" transform="rotate(0,1124.5,389.5)"/><rect x="1142" y="372" width="35" height="35" transform="rotate(0,1159.5,389.5)"/><path d="M 92 407v 35h 17.5a 17.5 17.5, 0, 0, 0, 0 -35" transform="rotate(-90,109.5,424.5)"/><rect x="267" y="407" width="35" height="35" transform="rotate(0,284.5,424.5)"/><path d="M 337 407v 35h 35v -17.5a 17.5 17.5, 0, 0, 0, -17.5 -17.5" transform="rotate(180,354.5,424.5)"/><rect x="372" y="407" width="35" height="35" transform="rotate(0,389.5,424.5)"/><rect x="407" y="407" width="35" height="35" transform="rotate(0,424.5,424.5)"/><path d="M 442 407v 35h 35v -17.5a 17.5 17.5, 0, 0, 0, -17.5 -17.5" transform="rotate(90,459.5,424.5)"/><circle cx="564.5" cy="424.5" r="17.5" transform="rotate(0,564.5,424.5)"/><path d="M 617 407v 35h 17.5a 17.5 17.5, 0, 0, 0, 0 -35" transform="rotate(90,634.5,424.5)"/><path d="M 757 407v 35h 35v -17.5a 17.5 17.5, 0, 0, 0, -17.5 -17.5" transform="rotate(-90,774.5,424.5)"/><rect x="792" y="407" width="35" height="35" transform="rotate(0,809.5,424.5)"/><rect x="827" y="407" width="35" height="35" transform="rotate(0,844.5,424.5)"/><rect x="862" y="407" width="35" height="35" transform="rotate(0,879.5,424.5)"/><circle cx="1019.5" cy="424.5" r="17.5" transform="rotate(0,1019.5,424.5)"/><rect x="1107" y="407" width="35" height="35" transform="rotate(0,1124.5,424.5)"/><path d="M 1142 407v 35h 35v -17.5a 17.5 17.5, 0, 0, 0, -17.5 -17.5" transform="rotate(90,1159.5,424.5)"/><path d="M 22 442v 35h 35v -17.5a 17.5 17.5, 0, 0, 0, -17.5 -17.5" transform="rotate(-90,39.5,459.5)"/><rect x="57" y="442" width="35" height="35" transform="rotate(0,74.5,459.5)"/><rect x="92" y="442" width="35" height="35" transform="rotate(0,109.5,459.5)"/><rect x="127" y="442" width="35" height="35" transform="rotate(0,144.5,459.5)"/><rect x="162" y="442" width="35" height="35" transform="rotate(0,179.5,459.5)"/><rect x="197" y="442" width="35" height="35" transform="rotate(0,214.5,459.5)"/><rect x="232" y="442" width="35" height="35" transform="rotate(0,249.5,459.5)"/><rect x="267" y="442" width="35" height="35" transform="rotate(0,284.5,459.5)"/><circle cx="529.5" cy="459.5" r="17.5" transform="rotate(0,529.5,459.5)"/><circle cx="669.5" cy="459.5" r="17.5" transform="rotate(0,669.5,459.5)"/><path d="M 722 442v 35h 35v -17.5a 17.5 17.5, 0, 0, 0, -17.5 -17.5" transform="rotate(-90,739.5,459.5)"/><rect x="757" y="442" width="35" height="35" transform="rotate(0,774.5,459.5)"/><rect x="862" y="442" width="35" height="35" transform="rotate(0,879.5,459.5)"/><rect x="897" y="442" width="35" height="35" transform="rotate(0,914.5,459.5)"/><path d="M 932 442v 35h 35v -17.5a 17.5 17.5, 0, 0, 0, -17.5 -17.5" transform="rotate(0,949.5,459.5)"/><path d="M 1037 442v 35h 17.5a 17.5 17.5, 0, 0, 0, 0 -35" transform="rotate(-90,1054.5,459.5)"/><path d="M 1107 442v 35h 17.5a 17.5 17.5, 0, 0, 0, 0 -35" transform="rotate(90,1124.5,459.5)"/><path d="M 22 477v 35h 17.5a 17.5 17.5, 0, 0, 0, 0 -35" transform="rotate(90,39.5,494.5)"/><rect x="197" y="477" width="35" height="35" transform="rotate(0,214.5,494.5)"/><rect x="267" y="477" width="35" height="35" transform="rotate(0,284.5,494.5)"/><rect x="302" y="477" width="35" height="35" transform="rotate(0,319.5,494.5)"/><rect x="337" y="477" width="35" height="35" transform="rotate(0,354.5,494.5)"/><path d="M 372 477v 35h 17.5a 17.5 17.5, 0, 0, 0, 0 -35" transform="rotate(0,389.5,494.5)"/><circle cx="459.5" cy="494.5" r="17.5" transform="rotate(0,459.5,494.5)"/><path d="M 547 477v 35h 17.5a 17.5 17.5, 0, 0, 0, 0 -35" transform="rotate(180,564.5,494.5)"/><path d="M 582 477v 35h 35v -17.5a 17.5 17.5, 0, 0, 0, -17.5 -17.5" transform="rotate(0,599.5,494.5)"/><path d="M 722 477v 35h 35v -17.5a 17.5 17.5, 0, 0, 0, -17.5 -17.5" transform="rotate(180,739.5,494.5)"/><path d="M 757 477v 35h 35v -17.5a 17.5 17.5, 0, 0, 0, -17.5 -17.5" transform="rotate(90,774.5,494.5)"/><path d="M 862 477v 35h 17.5a 17.5 17.5, 0, 0, 0, 0 -35" transform="rotate(90,879.5,494.5)"/><path d="M 932 477v 35h 17.5a 17.5 17.5, 0, 0, 0, 0 -35" transform="rotate(90,949.5,494.5)"/><rect x="1037" y="477" width="35" height="35" transform="rotate(0,1054.5,494.5)"/><path d="M 1142 477v 35h 17.5a 17.5 17.5, 0, 0, 0, 0 -35" transform="rotate(-90,1159.5,494.5)"/><circle cx="109.5" cy="529.5" r="17.5" transform="rotate(0,109.5,529.5)"/><path d="M 197 512v 35h 35v -17.5a 17.5 17.5, 0, 0, 0, -17.5 -17.5" transform="rotate(180,214.5,529.5)"/><rect x="232" y="512" width="35" height="35" transform="rotate(0,249.5,529.5)"/><rect x="267" y="512" width="35" height="35" transform="rotate(0,284.5,529.5)"/><circle cx="529.5" cy="529.5" r="17.5" transform="rotate(0,529.5,529.5)"/><path d="M 582 512v 35h 17.5a 17.5 17.5, 0, 0, 0, 0 -35" transform="rotate(90,599.5,529.5)"/><path d="M 652 512v 35h 17.5a 17.5 17.5, 0, 0, 0, 0 -35" transform="rotate(-90,669.5,529.5)"/><circle cx="914.5" cy="529.5" r="17.5" transform="rotate(0,914.5,529.5)"/><path d="M 967 512v 35h 17.5a 17.5 17.5, 0, 0, 0, 0 -35" transform="rotate(-90,984.5,529.5)"/><path d="M 1037 512v 35h 17.5a 17.5 17.5, 0, 0, 0, 0 -35" transform="rotate(90,1054.5,529.5)"/><path d="M 1107 512v 35h 35v -17.5a 17.5 17.5, 0, 0, 0, -17.5 -17.5" transform="rotate(-90,1124.5,529.5)"/><path d="M 1142 512v 35h 35v -17.5a 17.5 17.5, 0, 0, 0, -17.5 -17.5" transform="rotate(90,1159.5,529.5)"/><path d="M 22 547v 35h 17.5a 17.5 17.5, 0, 0, 0, 0 -35" transform="rotate(-90,39.5,564.5)"/><path d="M 127 547v 35h 17.5a 17.5 17.5, 0, 0, 0, 0 -35" transform="rotate(-90,144.5,564.5)"/><rect x="267" y="547" width="35" height="35" transform="rotate(0,284.5,564.5)"/><rect x="302" y="547" width="35" height="35" transform="rotate(0,319.5,564.5)"/><path d="M 337 547v 35h 35v -17.5a 17.5 17.5, 0, 0, 0, -17.5 -17.5" transform="rotate(0,354.5,564.5)"/><path d="M 407 547v 35h 17.5a 17.5 17.5, 0, 0, 0, 0 -35" transform="rotate(-90,424.5,564.5)"/><circle cx="564.5" cy="564.5" r="17.5" transform="rotate(0,564.5,564.5)"/><path d="M 652 547v 35h 35v -17.5a 17.5 17.5, 0, 0, 0, -17.5 -17.5" transform="rotate(180,669.5,564.5)"/><rect x="687" y="547" width="35" height="35" transform="rotate(0,704.5,564.5)"/><rect x="722" y="547" width="35" height="35" transform="rotate(0,739.5,564.5)"/><rect x="757" y="547" width="35" height="35" transform="rotate(0,774.5,564.5)"/><path d="M 792 547v 35h 17.5a 17.5 17.5, 0, 0, 0, 0 -35" transform="rotate(0,809.5,564.5)"/><path d="M 932 547v 35h 35v -17.5a 17.5 17.5, 0, 0, 0, -17.5 -17.5" transform="rotate(-90,949.5,564.5)"/><path d="M 967 547v 35h 35v -17.5a 17.5 17.5, 0, 0, 0, -17.5 -17.5" transform="rotate(90,984.5,564.5)"/><path d="M 1107 547v 35h 17.5a 17.5 17.5, 0, 0, 0, 0 -35" transform="rotate(90,1124.5,564.5)"/><path d="M 22 582v 35h 17.5a 17.5 17.5, 0, 0, 0, 0 -35" transform="rotate(90,39.5,599.5)"/><path d="M 127 582v 35h 17.5a 17.5 17.5, 0, 0, 0, 0 -35" transform="rotate(90,144.5,599.5)"/><path d="M 232 582v 35h 17.5a 17.5 17.5, 0, 0, 0, 0 -35" transform="rotate(180,249.5,599.5)"/><rect x="267" y="582" width="35" height="35" transform="rotate(0,284.5,599.5)"/><rect x="302" y="582" width="35" height="35" transform="rotate(0,319.5,599.5)"/><path d="M 337 582v 35h 35v -17.5a 17.5 17.5, 0, 0, 0, -17.5 -17.5" transform="rotate(90,354.5,599.5)"/><path d="M 407 582v 35h 17.5a 17.5 17.5, 0, 0, 0, 0 -35" transform="rotate(90,424.5,599.5)"/><path d="M 687 582v 35h 35v -17.5a 17.5 17.5, 0, 0, 0, -17.5 -17.5" transform="rotate(180,704.5,599.5)"/><rect x="722" y="582" width="35" height="35" transform="rotate(0,739.5,599.5)"/><path d="M 757 582v 35h 35v -17.5a 17.5 17.5, 0, 0, 0, -17.5 -17.5" transform="rotate(90,774.5,599.5)"/><path d="M 897 582v 35h 35v -17.5a 17.5 17.5, 0, 0, 0, -17.5 -17.5" transform="rotate(-90,914.5,599.5)"/><rect x="932" y="582" width="35" height="35" transform="rotate(0,949.5,599.5)"/><circle cx="74.5" cy="634.5" r="17.5" transform="rotate(0,74.5,634.5)"/><rect x="302" y="617" width="35" height="35" transform="rotate(0,319.5,634.5)"/><path d="M 442 617v 35h 35v -17.5a 17.5 17.5, 0, 0, 0, -17.5 -17.5" transform="rotate(-90,459.5,634.5)"/><rect x="477" y="617" width="35" height="35" transform="rotate(0,494.5,634.5)"/><path d="M 512 617v 35h 17.5a 17.5 17.5, 0, 0, 0, 0 -35" transform="rotate(0,529.5,634.5)"/><path d="M 582 617v 35h 17.5a 17.5 17.5, 0, 0, 0, 0 -35" transform="rotate(180,599.5,634.5)"/><path d="M 617 617v 35h 17.5a 17.5 17.5, 0, 0, 0, 0 -35" transform="rotate(0,634.5,634.5)"/><rect x="722" y="617" width="35" height="35" transform="rotate(0,739.5,634.5)"/><path d="M 862 617v 35h 35v -17.5a 17.5 17.5, 0, 0, 0, -17.5 -17.5" transform="rotate(-90,879.5,634.5)"/><rect x="897" y="617" width="35" height="35" transform="rotate(0,914.5,634.5)"/><rect x="932" y="617" width="35" height="35" transform="rotate(0,949.5,634.5)"/><path d="M 967 617v 35h 17.5a 17.5 17.5, 0, 0, 0, 0 -35" transform="rotate(0,984.5,634.5)"/><path d="M 1107 617v 35h 35v -17.5a 17.5 17.5, 0, 0, 0, -17.5 -17.5" transform="rotate(-90,1124.5,634.5)"/><path d="M 1142 617v 35h 35v -17.5a 17.5 17.5, 0, 0, 0, -17.5 -17.5" transform="rotate(0,1159.5,634.5)"/><path d="M 197 652v 35h 17.5a 17.5 17.5, 0, 0, 0, 0 -35" transform="rotate(180,214.5,669.5)"/><rect x="232" y="652" width="35" height="35" transform="rotate(0,249.5,669.5)"/><rect x="267" y="652" width="35" height="35" transform="rotate(0,284.5,669.5)"/><rect x="302" y="652" width="35" height="35" transform="rotate(0,319.5,669.5)"/><rect x="337" y="652" width="35" height="35" transform="rotate(0,354.5,669.5)"/><rect x="372" y="652" width="35" height="35" transform="rotate(0,389.5,669.5)"/><rect x="407" y="652" width="35" height="35" transform="rotate(0,424.5,669.5)"/><rect x="442" y="652" width="35" height="35" transform="rotate(0,459.5,669.5)"/><path d="M 477 652v 35h 35v -17.5a 17.5 17.5, 0, 0, 0, -17.5 -17.5" transform="rotate(90,494.5,669.5)"/><rect x="722" y="652" width="35" height="35" transform="rotate(0,739.5,669.5)"/><path d="M 757 652v 35h 35v -17.5a 17.5 17.5, 0, 0, 0, -17.5 -17.5" transform="rotate(0,774.5,669.5)"/><rect x="862" y="652" width="35" height="35" transform="rotate(0,879.5,669.5)"/><rect x="932" y="652" width="35" height="35" transform="rotate(0,949.5,669.5)"/><path d="M 1072 652v 35h 17.5a 17.5 17.5, 0, 0, 0, 0 -35" transform="rotate(180,1089.5,669.5)"/><rect x="1107" y="652" width="35" height="35" transform="rotate(0,1124.5,669.5)"/><path d="M 1142 652v 35h 35v -17.5a 17.5 17.5, 0, 0, 0, -17.5 -17.5" transform="rotate(90,1159.5,669.5)"/><circle cx="144.5" cy="704.5" r="17.5" transform="rotate(0,144.5,704.5)"/><rect x="267" y="687" width="35" height="35" transform="rotate(0,284.5,704.5)"/><rect x="407" y="687" width="35" height="35" transform="rotate(0,424.5,704.5)"/><path d="M 442 687v 35h 35v -17.5a 17.5 17.5, 0, 0, 0, -17.5 -17.5" transform="rotate(90,459.5,704.5)"/><circle cx="529.5" cy="704.5" r="17.5" transform="rotate(0,529.5,704.5)"/><path d="M 582 687v 35h 17.5a 17.5 17.5, 0, 0, 0, 0 -35" transform="rotate(-90,599.5,704.5)"/><path d="M 652 687v 35h 17.5a 17.5 17.5, 0, 0, 0, 0 -35" transform="rotate(-90,669.5,704.5)"/><rect x="722" y="687" width="35" height="35" transform="rotate(0,739.5,704.5)"/><rect x="757" y="687" width="35" height="35" transform="rotate(0,774.5,704.5)"/><path d="M 827 687v 35h 35v -17.5a 17.5 17.5, 0, 0, 0, -17.5 -17.5" transform="rotate(-90,844.5,704.5)"/><rect x="862" y="687" width="35" height="35" transform="rotate(0,879.5,704.5)"/><rect x="897" y="687" width="35" height="35" transform="rotate(0,914.5,704.5)"/><rect x="932" y="687" width="35" height="35" transform="rotate(0,949.5,704.5)"/><rect x="967" y="687" width="35" height="35" transform="rotate(0,984.5,704.5)"/><path d="M 1002 687v 35h 17.5a 17.5 17.5, 0, 0, 0, 0 -35" transform="rotate(0,1019.5,704.5)"/><circle cx="39.5" cy="739.5" r="17.5" transform="rotate(0,39.5,739.5)"/><path d="M 162 722v 35h 35v -17.5a 17.5 17.5, 0, 0, 0, -17.5 -17.5" transform="rotate(-90,179.5,739.5)"/><rect x="197" y="722" width="35" height="35" transform="rotate(0,214.5,739.5)"/><rect x="232" y="722" width="35" height="35" transform="rotate(0,249.5,739.5)"/><rect x="267" y="722" width="35" height="35" transform="rotate(0,284.5,739.5)"/><path d="M 372 722v 35h 35v -17.5a 17.5 17.5, 0, 0, 0, -17.5 -17.5" transform="rotate(-90,389.5,739.5)"/><rect x="407" y="722" width="35" height="35" transform="rotate(0,424.5,739.5)"/><path d="M 477 722v 35h 17.5a 17.5 17.5, 0, 0, 0, 0 -35" transform="rotate(-90,494.5,739.5)"/><path d="M 547 722v 35h 35v -17.5a 17.5 17.5, 0, 0, 0, -17.5 -17.5" transform="rotate(-90,564.5,739.5)"/><rect x="582" y="722" width="35" height="35" transform="rotate(0,599.5,739.5)"/><rect x="652" y="722" width="35" height="35" transform="rotate(0,669.5,739.5)"/><rect x="687" y="722" width="35" height="35" transform="rotate(0,704.5,739.5)"/><rect x="722" y="722" width="35" height="35" transform="rotate(0,739.5,739.5)"/><rect x="757" y="722" width="35" height="35" transform="rotate(0,774.5,739.5)"/><path d="M 827 722v 35h 35v -17.5a 17.5 17.5, 0, 0, 0, -17.5 -17.5" transform="rotate(180,844.5,739.5)"/><rect x="862" y="722" width="35" height="35" transform="rotate(0,879.5,739.5)"/><rect x="897" y="722" width="35" height="35" transform="rotate(0,914.5,739.5)"/><rect x="932" y="722" width="35" height="35" transform="rotate(0,949.5,739.5)"/><circle cx="1054.5" cy="739.5" r="17.5" transform="rotate(0,1054.5,739.5)"/><path d="M 57 757v 35h 17.5a 17.5 17.5, 0, 0, 0, 0 -35" transform="rotate(180,74.5,774.5)"/><path d="M 92 757v 35h 17.5a 17.5 17.5, 0, 0, 0, 0 -35" transform="rotate(0,109.5,774.5)"/><rect x="162" y="757" width="35" height="35" transform="rotate(0,179.5,774.5)"/><path d="M 197 757v 35h 35v -17.5a 17.5 17.5, 0, 0, 0, -17.5 -17.5" transform="rotate(90,214.5,774.5)"/><rect x="267" y="757" width="35" height="35" transform="rotate(0,284.5,774.5)"/><path d="M 337 757v 35h 35v -17.5a 17.5 17.5, 0, 0, 0, -17.5 -17.5" transform="rotate(-90,354.5,774.5)"/><rect x="372" y="757" width="35" height="35" transform="rotate(0,389.5,774.5)"/><rect x="407" y="757" width="35" height="35" transform="rotate(0,424.5,774.5)"/><rect x="442" y="757" width="35" height="35" transform="rotate(0,459.5,774.5)"/><rect x="477" y="757" width="35" height="35" transform="rotate(0,494.5,774.5)"/><rect x="547" y="757" width="35" height="35" transform="rotate(0,564.5,774.5)"/><rect x="582" y="757" width="35" height="35" transform="rotate(0,599.5,774.5)"/><rect x="617" y="757" width="35" height="35" transform="rotate(0,634.5,774.5)"/><path d="M 652 757v 35h 35v -17.5a 17.5 17.5, 0, 0, 0, -17.5 -17.5" transform="rotate(90,669.5,774.5)"/><rect x="757" y="757" width="35" height="35" transform="rotate(0,774.5,774.5)"/><path d="M 792 757v 35h 17.5a 17.5 17.5, 0, 0, 0, 0 -35" transform="rotate(0,809.5,774.5)"/><path d="M 862 757v 35h 35v -17.5a 17.5 17.5, 0, 0, 0, -17.5 -17.5" transform="rotate(180,879.5,774.5)"/><rect x="897" y="757" width="35" height="35" transform="rotate(0,914.5,774.5)"/><rect x="932" y="757" width="35" height="35" transform="rotate(0,949.5,774.5)"/><path d="M 1107 757v 35h 35v -17.5a 17.5 17.5, 0, 0, 0, -17.5 -17.5" transform="rotate(-90,1124.5,774.5)"/><path d="M 1142 757v 35h 35v -17.5a 17.5 17.5, 0, 0, 0, -17.5 -17.5" transform="rotate(0,1159.5,774.5)"/><circle cx="39.5" cy="809.5" r="17.5" transform="rotate(0,39.5,809.5)"/><path d="M 127 792v 35h 17.5a 17.5 17.5, 0, 0, 0, 0 -35" transform="rotate(180,144.5,809.5)"/><path d="M 162 792v 35h 35v -17.5a 17.5 17.5, 0, 0, 0, -17.5 -17.5" transform="rotate(90,179.5,809.5)"/><path d="M 232 792v 35h 17.5a 17.5 17.5, 0, 0, 0, 0 -35" transform="rotate(180,249.5,809.5)"/><rect x="267" y="792" width="35" height="35" transform="rotate(0,284.5,809.5)"/><rect x="302" y="792" width="35" height="35" transform="rotate(0,319.5,809.5)"/><rect x="337" y="792" width="35" height="35" transform="rotate(0,354.5,809.5)"/><rect x="372" y="792" width="35" height="35" transform="rotate(0,389.5,809.5)"/><path d="M 407 792v 35h 35v -17.5a 17.5 17.5, 0, 0, 0, -17.5 -17.5" transform="rotate(90,424.5,809.5)"/><path d="M 477 792v 35h 17.5a 17.5 17.5, 0, 0, 0, 0 -35" transform="rotate(90,494.5,809.5)"/><path d="M 547 792v 35h 17.5a 17.5 17.5, 0, 0, 0, 0 -35" transform="rotate(90,564.5,809.5)"/><rect x="757" y="792" width="35" height="35" transform="rotate(0,774.5,809.5)"/><rect x="932" y="792" width="35" height="35" transform="rotate(0,949.5,809.5)"/><path d="M 1002 792v 35h 17.5a 17.5 17.5, 0, 0, 0, 0 -35" transform="rotate(180,1019.5,809.5)"/><rect x="1037" y="792" width="35" height="35" transform="rotate(0,1054.5,809.5)"/><rect x="1072" y="792" width="35" height="35" transform="rotate(0,1089.5,809.5)"/><rect x="1107" y="792" width="35" height="35" transform="rotate(0,1124.5,809.5)"/><rect x="1142" y="792" width="35" height="35" transform="rotate(0,1159.5,809.5)"/><circle cx="74.5" cy="844.5" r="17.5" transform="rotate(0,74.5,844.5)"/><circle cx="214.5" cy="844.5" r="17.5" transform="rotate(0,214.5,844.5)"/><path d="M 302 827v 35h 35v -17.5a 17.5 17.5, 0, 0, 0, -17.5 -17.5" transform="rotate(180,319.5,844.5)"/><rect x="337" y="827" width="35" height="35" transform="rotate(0,354.5,844.5)"/><circle cx="529.5" cy="844.5" r="17.5" transform="rotate(0,529.5,844.5)"/><path d="M 582 827v 35h 35v -17.5a 17.5 17.5, 0, 0, 0, -17.5 -17.5" transform="rotate(-90,599.5,844.5)"/><path d="M 617 827v 35h 35v -17.5a 17.5 17.5, 0, 0, 0, -17.5 -17.5" transform="rotate(0,634.5,844.5)"/><path d="M 722 827v 35h 35v -17.5a 17.5 17.5, 0, 0, 0, -17.5 -17.5" transform="rotate(-90,739.5,844.5)"/><rect x="757" y="827" width="35" height="35" transform="rotate(0,774.5,844.5)"/><path d="M 827 827v 35h 35v -17.5a 17.5 17.5, 0, 0, 0, -17.5 -17.5" transform="rotate(-90,844.5,844.5)"/><path d="M 862 827v 35h 35v -17.5a 17.5 17.5, 0, 0, 0, -17.5 -17.5" transform="rotate(0,879.5,844.5)"/><rect x="932" y="827" width="35" height="35" transform="rotate(0,949.5,844.5)"/><rect x="1107" y="827" width="35" height="35" transform="rotate(0,1124.5,844.5)"/><path d="M 1142 827v 35h 35v -17.5a 17.5 17.5, 0, 0, 0, -17.5 -17.5" transform="rotate(90,1159.5,844.5)"/><circle cx="39.5" cy="879.5" r="17.5" transform="rotate(0,39.5,879.5)"/><circle cx="144.5" cy="879.5" r="17.5" transform="rotate(0,144.5,879.5)"/><path d="M 232 862v 35h 17.5a 17.5 17.5, 0, 0, 0, 0 -35" transform="rotate(180,249.5,879.5)"/><path d="M 267 862v 35h 17.5a 17.5 17.5, 0, 0, 0, 0 -35" transform="rotate(0,284.5,879.5)"/><rect x="337" y="862" width="35" height="35" transform="rotate(0,354.5,879.5)"/><path d="M 407 862v 35h 35v -17.5a 17.5 17.5, 0, 0, 0, -17.5 -17.5" transform="rotate(-90,424.5,879.5)"/><path d="M 442 862v 35h 17.5a 17.5 17.5, 0, 0, 0, 0 -35" transform="rotate(0,459.5,879.5)"/><path d="M 547 862v 35h 17.5a 17.5 17.5, 0, 0, 0, 0 -35" transform="rotate(180,564.5,879.5)"/><rect x="582" y="862" width="35" height="35" transform="rotate(0,599.5,879.5)"/><rect x="617" y="862" width="35" height="35" transform="rotate(0,634.5,879.5)"/><path d="M 722 862v 35h 35v -17.5a 17.5 17.5, 0, 0, 0, -17.5 -17.5" transform="rotate(180,739.5,879.5)"/><rect x="757" y="862" width="35" height="35" transform="rotate(0,774.5,879.5)"/><rect x="827" y="862" width="35" height="35" transform="rotate(0,844.5,879.5)"/><rect x="862" y="862" width="35" height="35" transform="rotate(0,879.5,879.5)"/><rect x="897" y="862" width="35" height="35" transform="rotate(0,914.5,879.5)"/><rect x="932" y="862" width="35" height="35" transform="rotate(0,949.5,879.5)"/><rect x="967" y="862" width="35" height="35" transform="rotate(0,984.5,879.5)"/><rect x="1002" y="862" width="35" height="35" transform="rotate(0,1019.5,879.5)"/><path d="M 1037 862v 35h 35v -17.5a 17.5 17.5, 0, 0, 0, -17.5 -17.5" transform="rotate(0,1054.5,879.5)"/><rect x="1107" y="862" width="35" height="35" transform="rotate(0,1124.5,879.5)"/><path d="M 302 897v 35h 35v -17.5a 17.5 17.5, 0, 0, 0, -17.5 -17.5" transform="rotate(-90,319.5,914.5)"/><path d="M 337 897v 35h 35v -17.5a 17.5 17.5, 0, 0, 0, -17.5 -17.5" transform="rotate(90,354.5,914.5)"/><rect x="407" y="897" width="35" height="35" transform="rotate(0,424.5,914.5)"/><rect x="617" y="897" width="35" height="35" transform="rotate(0,634.5,914.5)"/><rect x="757" y="897" width="35" height="35" transform="rotate(0,774.5,914.5)"/><rect x="827" y="897" width="35" height="35" transform="rotate(0,844.5,914.5)"/><rect x="862" y="897" width="35" height="35" transform="rotate(0,879.5,914.5)"/><rect x="1002" y="897" width="35" height="35" transform="rotate(0,1019.5,914.5)"/><path d="M 1037 897v 35h 35v -17.5a 17.5 17.5, 0, 0, 0, -17.5 -17.5" transform="rotate(90,1054.5,914.5)"/><rect x="1107" y="897" width="35" height="35" transform="rotate(0,1124.5,914.5)"/><path d="M 1142 897v 35h 35v -17.5a 17.5 17.5, 0, 0, 0, -17.5 -17.5" transform="rotate(0,1159.5,914.5)"/><path d="M 302 932v 35h 17.5a 17.5 17.5, 0, 0, 0, 0 -35" transform="rotate(90,319.5,949.5)"/><path d="M 407 932v 35h 35v -17.5a 17.5 17.5, 0, 0, 0, -17.5 -17.5" transform="rotate(180,424.5,949.5)"/><path d="M 442 932v 35h 17.5a 17.5 17.5, 0, 0, 0, 0 -35" transform="rotate(0,459.5,949.5)"/><circle cx="529.5" cy="949.5" r="17.5" transform="rotate(0,529.5,949.5)"/><path d="M 617 932v 35h 17.5a 17.5 17.5, 0, 0, 0, 0 -35" transform="rotate(90,634.5,949.5)"/><rect x="757" y="932" width="35" height="35" transform="rotate(0,774.5,949.5)"/><rect x="792" y="932" width="35" height="35" transform="rotate(0,809.5,949.5)"/><rect x="827" y="932" width="35" height="35" transform="rotate(0,844.5,949.5)"/><rect x="862" y="932" width="35" height="35" transform="rotate(0,879.5,949.5)"/><circle cx="949.5" cy="949.5" r="17.5" transform="rotate(0,949.5,949.5)"/><rect x="1002" y="932" width="35" height="35" transform="rotate(0,1019.5,949.5)"/><path d="M 1072 932v 35h 17.5a 17.5 17.5, 0, 0, 0, 0 -35" transform="rotate(180,1089.5,949.5)"/><rect x="1107" y="932" width="35" height="35" transform="rotate(0,1124.5,949.5)"/><rect x="1142" y="932" width="35" height="35" transform="rotate(0,1159.5,949.5)"/><path d="M 652 967v 35h 17.5a 17.5 17.5, 0, 0, 0, 0 -35" transform="rotate(180,669.5,984.5)"/><path d="M 687 967v 35h 35v -17.5a 17.5 17.5, 0, 0, 0, -17.5 -17.5" transform="rotate(0,704.5,984.5)"/><rect x="757" y="967" width="35" height="35" transform="rotate(0,774.5,984.5)"/><path d="M 792 967v 35h 35v -17.5a 17.5 17.5, 0, 0, 0, -17.5 -17.5" transform="rotate(90,809.5,984.5)"/><rect x="862" y="967" width="35" height="35" transform="rotate(0,879.5,984.5)"/><rect x="1002" y="967" width="35" height="35" transform="rotate(0,1019.5,984.5)"/><path d="M 1142 967v 35h 17.5a 17.5 17.5, 0, 0, 0, 0 -35" transform="rotate(90,1159.5,984.5)"/><path d="M 302 1002v 35h 17.5a 17.5 17.5, 0, 0, 0, 0 -35" transform="rotate(180,319.5,1019.5)"/><rect x="337" y="1002" width="35" height="35" transform="rotate(0,354.5,1019.5)"/><rect x="372" y="1002" width="35" height="35" transform="rotate(0,389.5,1019.5)"/><rect x="407" y="1002" width="35" height="35" transform="rotate(0,424.5,1019.5)"/><path d="M 442 1002v 35h 35v -17.5a 17.5 17.5, 0, 0, 0, -17.5 -17.5" transform="rotate(0,459.5,1019.5)"/><path d="M 582 1002v 35h 35v -17.5a 17.5 17.5, 0, 0, 0, -17.5 -17.5" transform="rotate(-90,599.5,1019.5)"/><path d="M 617 1002v 35h 35v -17.5a 17.5 17.5, 0, 0, 0, -17.5 -17.5" transform="rotate(0,634.5,1019.5)"/><path d="M 687 1002v 35h 17.5a 17.5 17.5, 0, 0, 0, 0 -35" transform="rotate(90,704.5,1019.5)"/><path d="M 757 1002v 35h 17.5a 17.5 17.5, 0, 0, 0, 0 -35" transform="rotate(90,774.5,1019.5)"/><path d="M 862 1002v 35h 35v -17.5a 17.5 17.5, 0, 0, 0, -17.5 -17.5" transform="rotate(180,879.5,1019.5)"/><rect x="897" y="1002" width="35" height="35" transform="rotate(0,914.5,1019.5)"/><rect x="932" y="1002" width="35" height="35" transform="rotate(0,949.5,1019.5)"/><rect x="967" y="1002" width="35" height="35" transform="rotate(0,984.5,1019.5)"/><rect x="1002" y="1002" width="35" height="35" transform="rotate(0,1019.5,1019.5)"/><path d="M 1037 1002v 35h 35v -17.5a 17.5 17.5, 0, 0, 0, -17.5 -17.5" transform="rotate(0,1054.5,1019.5)"/><path d="M 1107 1002v 35h 17.5a 17.5 17.5, 0, 0, 0, 0 -35" transform="rotate(-90,1124.5,1019.5)"/><rect x="337" y="1037" width="35" height="35" transform="rotate(0,354.5,1054.5)"/><rect x="372" y="1037" width="35" height="35" transform="rotate(0,389.5,1054.5)"/><rect x="407" y="1037" width="35" height="35" transform="rotate(0,424.5,1054.5)"/><path d="M 442 1037v 35h 35v -17.5a 17.5 17.5, 0, 0, 0, -17.5 -17.5" transform="rotate(90,459.5,1054.5)"/><path d="M 512 1037v 35h 17.5a 17.5 17.5, 0, 0, 0, 0 -35" transform="rotate(180,529.5,1054.5)"/><rect x="547" y="1037" width="35" height="35" transform="rotate(0,564.5,1054.5)"/><rect x="582" y="1037" width="35" height="35" transform="rotate(0,599.5,1054.5)"/><rect x="617" y="1037" width="35" height="35" transform="rotate(0,634.5,1054.5)"/><path d="M 652 1037v 35h 17.5a 17.5 17.5, 0, 0, 0, 0 -35" transform="rotate(0,669.5,1054.5)"/><circle cx="739.5" cy="1054.5" r="17.5" transform="rotate(0,739.5,1054.5)"/><rect x="1002" y="1037" width="35" height="35" transform="rotate(0,1019.5,1054.5)"/><path d="M 1037 1037v 35h 35v -17.5a 17.5 17.5, 0, 0, 0, -17.5 -17.5" transform="rotate(90,1054.5,1054.5)"/><path d="M 1107 1037v 35h 35v -17.5a 17.5 17.5, 0, 0, 0, -17.5 -17.5" transform="rotate(180,1124.5,1054.5)"/><path d="M 1142 1037v 35h 35v -17.5a 17.5 17.5, 0, 0, 0, -17.5 -17.5" transform="rotate(0,1159.5,1054.5)"/><path d="M 302 1072v 35h 35v -17.5a 17.5 17.5, 0, 0, 0, -17.5 -17.5" transform="rotate(-90,319.5,1089.5)"/><path d="M 337 1072v 35h 35v -17.5a 17.5 17.5, 0, 0, 0, -17.5 -17.5" transform="rotate(90,354.5,1089.5)"/><rect x="407" y="1072" width="35" height="35" transform="rotate(0,424.5,1089.5)"/><path d="M 477 1072v 35h 17.5a 17.5 17.5, 0, 0, 0, 0 -35" transform="rotate(-90,494.5,1089.5)"/><path d="M 547 1072v 35h 17.5a 17.5 17.5, 0, 0, 0, 0 -35" transform="rotate(90,564.5,1089.5)"/><path d="M 617 1072v 35h 17.5a 17.5 17.5, 0, 0, 0, 0 -35" transform="rotate(90,634.5,1089.5)"/><path d="M 827 1072v 35h 35v -17.5a 17.5 17.5, 0, 0, 0, -17.5 -17.5" transform="rotate(-90,844.5,1089.5)"/><rect x="862" y="1072" width="35" height="35" transform="rotate(0,879.5,1089.5)"/><path d="M 897 1072v 35h 17.5a 17.5 17.5, 0, 0, 0, 0 -35" transform="rotate(0,914.5,1089.5)"/><rect x="1002" y="1072" width="35" height="35" transform="rotate(0,1019.5,1089.5)"/><path d="M 1142 1072v 35h 17.5a 17.5 17.5, 0, 0, 0, 0 -35" transform="rotate(90,1159.5,1089.5)"/><path d="M 302 1107v 35h 17.5a 17.5 17.5, 0, 0, 0, 0 -35" transform="rotate(90,319.5,1124.5)"/><path d="M 372 1107v 35h 17.5a 17.5 17.5, 0, 0, 0, 0 -35" transform="rotate(180,389.5,1124.5)"/><rect x="407" y="1107" width="35" height="35" transform="rotate(0,424.5,1124.5)"/><rect x="442" y="1107" width="35" height="35" transform="rotate(0,459.5,1124.5)"/><rect x="477" y="1107" width="35" height="35" transform="rotate(0,494.5,1124.5)"/><path d="M 512 1107v 35h 17.5a 17.5 17.5, 0, 0, 0, 0 -35" transform="rotate(0,529.5,1124.5)"/><circle cx="599.5" cy="1124.5" r="17.5" transform="rotate(0,599.5,1124.5)"/><circle cx="704.5" cy="1124.5" r="17.5" transform="rotate(0,704.5,1124.5)"/><path d="M 757 1107v 35h 17.5a 17.5 17.5, 0, 0, 0, 0 -35" transform="rotate(-90,774.5,1124.5)"/><path d="M 827 1107v 35h 35v -17.5a 17.5 17.5, 0, 0, 0, -17.5 -17.5" transform="rotate(180,844.5,1124.5)"/><rect x="862" y="1107" width="35" height="35" transform="rotate(0,879.5,1124.5)"/><rect x="1002" y="1107" width="35" height="35" transform="rotate(0,1019.5,1124.5)"/><path d="M 1107 1107v 35h 17.5a 17.5 17.5, 0, 0, 0, 0 -35" transform="rotate(-90,1124.5,1124.5)"/><path d="M 407 1142v 35h 17.5a 17.5 17.5, 0, 0, 0, 0 -35" transform="rotate(90,424.5,1159.5)"/><circle cx="564.5" cy="1159.5" r="17.5" transform="rotate(0,564.5,1159.5)"/><path d="M 617 1142v 35h 17.5a 17.5 17.5, 0, 0, 0, 0 -35" transform="rotate(180,634.5,1159.5)"/><path d="M 652 1142v 35h 17.5a 17.5 17.5, 0, 0, 0, 0 -35" transform="rotate(0,669.5,1159.5)"/><path d="M 757 1142v 35h 17.5a 17.5 17.5, 0, 0, 0, 0 -35" transform="rotate(90,774.5,1159.5)"/><path d="M 862 1142v 35h 17.5a 17.5 17.5, 0, 0, 0, 0 -35" transform="rotate(90,879.5,1159.5)"/><circle cx="949.5" cy="1159.5" r="17.5" transform="rotate(0,949.5,1159.5)"/><path d="M 1002 1142v 35h 35v -17.5a 17.5 17.5, 0, 0, 0, -17.5 -17.5" transform="rotate(180,1019.5,1159.5)"/><path d="M 1037 1142v 35h 17.5a 17.5 17.5, 0, 0, 0, 0 -35" transform="rotate(0,1054.5,1159.5)"/><path d="M 1107 1142v 35h 35v -17.5a 17.5 17.5, 0, 0, 0, -17.5 -17.5" transform="rotate(180,1124.5,1159.5)"/><path d="M 1142 1142v 35h 17.5a 17.5 17.5, 0, 0, 0, 0 -35" transform="rotate(0,1159.5,1159.5)"/></clipPath><clipPath id="clip-path-corners-square-color-0-0-85"><path clip-rule="evenodd" d="M 22 109.5v 70a 87.5 87.5, 0, 0, 0, 87.5 87.5h 70a 87.5 87.5, 0, 0, 0, 87.5 -87.5v -70a 87.5 87.5, 0, 0, 0, -87.5 -87.5h -70a 87.5 87.5, 0, 0, 0, -87.5 87.5M 109.5 57h 70a 52.5 52.5, 0, 0, 1, 52.5 52.5v 70a 52.5 52.5, 0, 0, 1, -52.5 52.5h -70a 52.5 52.5, 0, 0, 1, -52.5 -52.5v -70a 52.5 52.5, 0, 0, 1, 52.5 -52.5" transform="rotate(0,144.5,144.5)"/></clipPath><clipPath id="clip-path-corners-dot-color-0-0-85"><circle cx="144.5" cy="144.5" r="52.5" transform="rotate(0,144.5,144.5)"/></clipPath><clipPath id="clip-path-corners-square-color-1-0-85"><path clip-rule="evenodd" d="M 932 109.5v 70a 87.5 87.5, 0, 0, 0, 87.5 87.5h 70a 87.5 87.5, 0, 0, 0, 87.5 -87.5v -70a 87.5 87.5, 0, 0, 0, -87.5 -87.5h -70a 87.5 87.5, 0, 0, 0, -87.5 87.5M 1019.5 57h 70a 52.5 52.5, 0, 0, 1, 52.5 52.5v 70a 52.5 52.5, 0, 0, 1, -52.5 52.5h -70a 52.5 52.5, 0, 0, 1, -52.5 -52.5v -70a 52.5 52.5, 0, 0, 1, 52.5 -52.5" transform="rotate(90,1054.5,144.5)"/></clipPath><clipPath id="clip-path-corners-dot-color-1-0-85"><circle cx="1054.5" cy="144.5" r="52.5" transform="rotate(90,1054.5,144.5)"/></clipPath><clipPath id="clip-path-corners-square-color-0-1-85"><path clip-rule="evenodd" d="M 22 1019.5v 70a 87.5 87.5, 0, 0, 0, 87.5 87.5h 70a 87.5 87.5, 0, 0, 0, 87.5 -87.5v -70a 87.5 87.5, 0, 0, 0, -87.5 -87.5h -70a 87.5 87.5, 0, 0, 0, -87.5 87.5M 109.5 967h 70a 52.5 52.5, 0, 0, 1, 52.5 52.5v 70a 52.5 52.5, 0, 0, 1, -52.5 52.5h -70a 52.5 52.5, 0, 0, 1, -52.5 -52.5v -70a 52.5 52.5, 0, 0, 1, 52.5 -52.5" transform="rotate(-90,144.5,1054.5)"/></clipPath><clipPath id="clip-path-corners-dot-color-0-1-85"><circle cx="144.5" cy="1054.5" r="52.5" transform="rotate(-90,144.5,1054.5)"/></clipPath></defs><rect x="0" y="0" height="1200" width="1200" clip-path="url('#clip-path-background-color-85')" fill="#ffffff"/><rect x="0" y="0" height="1200" width="1200" clip-path="url('#clip-path-dot-color-85')" fill="#000000"/><rect x="22" y="22" height="245" width="245" clip-path="url('#clip-path-corners-square-color-0-0-85')" fill="#000000"/><rect x="92" y="92" height="105" width="105" clip-path="url('#clip-path-corners-dot-color-0-0-85')" fill="#000000"/><rect x="932" y="22" height="245" width="245" clip-path="url('#clip-path-corners-square-color-1-0-85')" fill="#000000"/><rect x="1002" y="92" height="105" width="105" clip-path="url('#clip-path-corners-dot-color-1-0-85')" fill="#000000"/><rect x="22" y="932" height="245" width="245" clip-path="url('#clip-path-corners-square-color-0-1-85')" fill="#000000"/><rect x="92" y="1002" height="105" width="105" clip-path="url('#clip-path-corners-dot-color-0-1-85')" fill="#000000"/></svg>