<?xml version="1.0" standalone="no"?>
<svg xmlns="http://www.w3.org/2000/svg" width="1200" height="1200" xmlns:xlink="http://www.w3.org/1999/xlink" viewBox="0 0 1200 1200"><defs><clipPath id="clip-path-background-color-149"><rect x="0" y="0" width="1200" height="1200"/></clipPath><clipPath id="clip-path-dot-color-149"><circle cx="264" cy="40" r="14" transform="rotate(0,264,40)"/><path d="M 306 26v 28h 28v -14a 14 14, 0, 0, 0, -14 -14" transform="rotate(-90,320,40)"/><rect x="334" y="26" width="28" height="28" transform="rotate(0,348,40)"/><path d="M 362 26v 28h 28v -14a 14 14, 0, 0, 0, -14 -14" transform="rotate(0,376,40)"/><path d="M 474 26v 28h 28v -14a 14 14, 0, 0, 0, -14 -14" transform="rotate(-90,488,40)"/><rect x="502" y="26" width="28" height="28" transform="rotate(0,516,40)"/><path d="M 530 26v 28h 14a 14 14, 0, 0, 0, 0 -28" transform="rotate(0,544,40)"/><path d="M 614 26v 28h 14a 14 14, 0, 0, 0, 0 -28" transform="rotate(180,628,40)"/><path d="M 642 26v 28h 28v -14a 14 14, 0, 0, 0, -14 -14" transform="rotate(0,656,40)"/><circle cx="740" cy="40" r="14" transform="rotate(0,740,40)"/><path d="M 810 26v 28h 14a 14 14, 0, 0, 0, 0 -28" transform="rotate(-90,824,40)"/><path d="M 866 26v 28h 28v -14a 14 14, 0, 0, 0, -14 -14" transform="rotate(-90,880,40)"/><path d="M 894 26v 28h 14a 14 14, 0, 0, 0, 0 -28" transform="rotate(0,908,40)"/><path d="M 306 54v 28h 14a 14 14, 0, 0, 0, 0 -28" transform="rotate(90,320,68)"/><rect x="362" y="54" width="28" height="28" transform="rotate(0,376,68)"/><path d="M 474 54v 28h 28v -14a 14 14, 0, 0, 0, -14 -14" transform="rotate(180,488,68)"/><rect x="502" y="54" width="28" height="28" transform="rotate(0,516,68)"/><circle cx="600" cy="68" r="14" transform="rotate(0,600,68)"/><rect x="642" y="54" width="28" height="28" transform="rotate(0,656,68)"/><rect x="670" y="54" width="28" height="28" transform="rotate(0,684,68)"/><path d="M 698 54v 28h 28v -14a 14 14, 0, 0, 0, -14 -14" transform="rotate(0,712,68)"/><path d="M 782 54v 28h 28v -14a 14 14, 0, 0, 0, -14 -14" transform="rotate(-90,796,68)"/><rect x="810" y="54" width="28" height="28" transform="rotate(0,824,68)"/><rect x="838" y="54" width="28" height="28" transform="rotate(0,852,68)"/><rect x="866" y="54" width="28" height="28" transform="rotate(0,880,68)"/><path d="M 922 54v 28h 14a 14 14, 0, 0, 0, 0 -28" transform="rotate(-90,936,68)"/><path d="M 334 82v 28h 14a 14 14, 0, 0, 0, 0 -28" transform="rotate(180,348,96)"/><rect x="362" y="82" width="28" height="28" transform="rotate(0,376,96)"/><path d="M 390 82v 28h 14a 14 14, 0, 0, 0, 0 -28" transform="rotate(0,404,96)"/><rect x="502" y="82" width="28" height="28" transform="rotate(0,516,96)"/><circle cx="572" cy="96" r="14" transform="rotate(0,572,96)"/><path d="M 614 82v 28h 14a 14 14, 0, 0, 0, 0 -28" transform="rotate(180,628,96)"/><rect x="642" y="82" width="28" height="28" transform="rotate(0,656,96)"/><rect x="670" y="82" width="28" height="28" transform="rotate(0,684,96)"/><rect x="698" y="82" width="28" height="28" transform="rotate(0,712,96)"/><path d="M 754 82v 28h 14a 14 14, 0, 0, 0, 0 -28" transform="rotate(180,768,96)"/><path d="M 782 82v 28h 28v -14a 14 14, 0, 0, 0, -14 -14" transform="rotate(90,796,96)"/><path d="M 866 82v 28h 14a 14 14, 0, 0, 0, 0 -28" transform="rotate(90,880,96)"/><rect x="922" y="82" width="28" height="28" transform="rotate(0,936,96)"/><circle cx="320" cy="124" r="14" transform="rotate(0,320,124)"/><path d="M 362 110v 28h 14a 14 14, 0, 0, 0, 0 -28" transform="rotate(90,376,124)"/><path d="M 418 110v 28h 28v -14a 14 14, 0, 0, 0, -14 -14" transform="rotate(-90,432,124)"/><path d="M 446 110v 28h 28v -14a 14 14, 0, 0, 0, -14 -14" transform="rotate(0,460,124)"/><rect x="502" y="110" width="28" height="28" transform="rotate(0,516,124)"/><path d="M 530 110v 28h 28v -14a 14 14, 0, 0, 0, -14 -14" transform="rotate(0,544,124)"/><circle cx="600" cy="124" r="14" transform="rotate(0,600,124)"/><path d="M 642 110v 28h 28v -14a 14 14, 0, 0, 0, -14 -14" transform="rotate(180,656,124)"/><rect x="670" y="110" width="28" height="28" transform="rotate(0,684,124)"/><rect x="698" y="110" width="28" height="28" transform="rotate(0,712,124)"/><circle cx="852" cy="124" r="14" transform="rotate(0,852,124)"/><rect x="922" y="110" width="28" height="28" transform="rotate(0,936,124)"/><path d="M 250 138v 28h 14a 14 14, 0, 0, 0, 0 -28" transform="rotate(-90,264,152)"/><path d="M 334 138v 28h 14a 14 14, 0, 0, 0, 0 -28" transform="rotate(-90,348,152)"/><path d="M 390 138v 28h 28v -14a 14 14, 0, 0, 0, -14 -14" transform="rotate(-90,404,152)"/><rect x="418" y="138" width="28" height="28" transform="rotate(0,432,152)"/><rect x="446" y="138" width="28" height="28" transform="rotate(0,460,152)"/><rect x="474" y="138" width="28" height="28" transform="rotate(0,488,152)"/><rect x="502" y="138" width="28" height="28" transform="rotate(0,516,152)"/><rect x="530" y="138" width="28" height="28" transform="rotate(0,544,152)"/><path d="M 558 138v 28h 14a 14 14, 0, 0, 0, 0 -28" transform="rotate(0,572,152)"/><path d="M 670 138v 28h 28v -14a 14 14, 0, 0, 0, -14 -14" transform="rotate(180,684,152)"/><rect x="698" y="138" width="28" height="28" transform="rotate(0,712,152)"/><circle cx="824" cy="152" r="14" transform="rotate(0,824,152)"/><path d="M 894 138v 28h 14a 14 14, 0, 0, 0, 0 -28" transform="rotate(180,908,152)"/><rect x="922" y="138" width="28" height="28" transform="rotate(0,936,152)"/><rect x="250" y="166" width="28" height="28" transform="rotate(0,264,180)"/><path d="M 278 166v 28h 14a 14 14, 0, 0, 0, 0 -28" transform="rotate(0,292,180)"/><path d="M 334 166v 28h 14a 14 14, 0, 0, 0, 0 -28" transform="rotate(90,348,180)"/><path d="M 390 166v 28h 28v -14a 14 14, 0, 0, 0, -14 -14" transform="rotate(180,404,180)"/><rect x="418" y="166" width="28" height="28" transform="rotate(0,432,180)"/><rect x="446" y="166" width="28" height="28" transform="rotate(0,460,180)"/><rect x="474" y="166" width="28" height="28" transform="rotate(0,488,180)"/><path d="M 586 166v 28h 14a 14 14, 0, 0, 0, 0 -28" transform="rotate(-90,600,180)"/><rect x="698" y="166" width="28" height="28" transform="rotate(0,712,180)"/><path d="M 726 166v 28h 14a 14 14, 0, 0, 0, 0 -28" transform="rotate(0,740,180)"/><circle cx="796" cy="180" r="14" transform="rotate(0,796,180)"/><path d="M 838 166v 28h 14a 14 14, 0, 0, 0, 0 -28" transform="rotate(180,852,180)"/><path d="M 866 166v 28h 28v -14a 14 14, 0, 0, 0, -14 -14" transform="rotate(0,880,180)"/><rect x="922" y="166" width="28" height="28" transform="rotate(0,936,180)"/><path d="M 250 194v 28h 14a 14 14, 0, 0, 0, 0 -28" transform="rotate(90,264,208)"/><circle cx="320" cy="208" r="14" transform="rotate(0,320,208)"/><path d="M 362 194v 28h 14a 14 14, 0, 0, 0, 0 -28" transform="rotate(-90,376,208)"/><path d="M 418 194v 28h 14a 14 14, 0, 0, 0, 0 -28" transform="rotate(90,432,208)"/><path d="M 474 194v 28h 14a 14 14, 0, 0, 0, 0 -28" transform="rotate(90,488,208)"/><circle cx="544" cy="208" r="14" transform="rotate(0,544,208)"/><rect x="586" y="194" width="28" height="28" transform="rotate(0,600,208)"/><circle cx="656" cy="208" r="14" transform="rotate(0,656,208)"/><path d="M 698 194v 28h 14a 14 14, 0, 0, 0, 0 -28" transform="rotate(90,712,208)"/><circle cx="768" cy="208" r="14" transform="rotate(0,768,208)"/><circle cx="824" cy="208" r="14" transform="rotate(0,824,208)"/><path d="M 866 194v 28h 14a 14 14, 0, 0, 0, 0 -28" transform="rotate(90,880,208)"/><rect x="922" y="194" width="28" height="28" transform="rotate(0,936,208)"/><path d="M 362 222v 28h 28v -14a 14 14, 0, 0, 0, -14 -14" transform="rotate(180,376,236)"/><path d="M 390 222v 28h 14a 14 14, 0, 0, 0, 0 -28" transform="rotate(0,404,236)"/><path d="M 446 222v 28h 14a 14 14, 0, 0, 0, 0 -28" transform="rotate(-90,460,236)"/><rect x="586" y="222" width="28" height="28" transform="rotate(0,600,236)"/><circle cx="684" cy="236" r="14" transform="rotate(0,684,236)"/><path d="M 922 222v 28h 14a 14 14, 0, 0, 0, 0 -28" transform="rotate(90,936,236)"/><path d="M 54 250v 28h 28v -14a 14 14, 0, 0, 0, -14 -14" transform="rotate(-90,68,264)"/><rect x="82" y="250" width="28" height="28" transform="rotate(0,96,264)"/><rect x="110" y="250" width="28" height="28" transform="rotate(0,124,264)"/><rect x="138" y="250" width="28" height="28" transform="rotate(0,152,264)"/><rect x="166" y="250" width="28" height="28" transform="rotate(0,180,264)"/><rect x="194" y="250" width="28" height="28" transform="rotate(0,208,264)"/><path d="M 222 250v 28h 14a 14 14, 0, 0, 0, 0 -28" transform="rotate(0,236,264)"/><path d="M 418 250v 28h 28v -14a 14 14, 0, 0, 0, -14 -14" transform="rotate(-90,432,264)"/><path d="M 446 250v 28h 28v -14a 14 14, 0, 0, 0, -14 -14" transform="rotate(90,460,264)"/><path d="M 502 250v 28h 14a 14 14, 0, 0, 0, 0 -28" transform="rotate(180,516,264)"/><rect x="530" y="250" width="28" height="28" transform="rotate(0,544,264)"/><rect x="558" y="250" width="28" height="28" transform="rotate(0,572,264)"/><rect x="586" y="250" width="28" height="28" transform="rotate(0,600,264)"/><path d="M 642 250v 28h 14a 14 14, 0, 0, 0, 0 -28" transform="rotate(-90,656,264)"/><path d="M 726 250v 28h 14a 14 14, 0, 0, 0, 0 -28" transform="rotate(180,740,264)"/><rect x="754" y="250" width="28" height="28" transform="rotate(0,768,264)"/><rect x="782" y="250" width="28" height="28" transform="rotate(0,796,264)"/><rect x="810" y="250" width="28" height="28" transform="rotate(0,824,264)"/><path d="M 838 250v 28h 14a 14 14, 0, 0, 0, 0 -28" transform="rotate(0,852,264)"/><path d="M 1006 250v 28h 28v -14a 14 14, 0, 0, 0, -14 -14" transform="rotate(-90,1020,264)"/><path d="M 1034 250v 28h 28v -14a 14 14, 0, 0, 0, -14 -14" transform="rotate(0,1048,264)"/><path d="M 1146 250v 28h 14a 14 14, 0, 0, 0, 0 -28" transform="rotate(-90,1160,264)"/><path d="M 26 278v 28h 28v -14a 14 14, 0, 0, 0, -14 -14" transform="rotate(-90,40,292)"/><rect x="54" y="278" width="28" height="28" transform="rotate(0,68,292)"/><rect x="82" y="278" width="28" height="28" transform="rotate(0,96,292)"/><rect x="110" y="278" width="28" height="28" transform="rotate(0,124,292)"/><path d="M 166 278v 28h 14a 14 14, 0, 0, 0, 0 -28" transform="rotate(90,180,292)"/><path d="M 278 278v 28h 28v -14a 14 14, 0, 0, 0, -14 -14" transform="rotate(-90,292,292)"/><rect x="306" y="278" width="28" height="28" transform="rotate(0,320,292)"/><path d="M 334 278v 28h 14a 14 14, 0, 0, 0, 0 -28" transform="rotate(0,348,292)"/><rect x="418" y="278" width="28" height="28" transform="rotate(0,432,292)"/><path d="M 558 278v 28h 28v -14a 14 14, 0, 0, 0, -14 -14" transform="rotate(180,572,292)"/><rect x="586" y="278" width="28" height="28" transform="rotate(0,600,292)"/><rect x="614" y="278" width="28" height="28" transform="rotate(0,628,292)"/><rect x="642" y="278" width="28" height="28" transform="rotate(0,656,292)"/><rect x="810" y="278" width="28" height="28" transform="rotate(0,824,292)"/><path d="M 894 278v 28h 14a 14 14, 0, 0, 0, 0 -28" transform="rotate(180,908,292)"/><path d="M 922 278v 28h 28v -14a 14 14, 0, 0, 0, -14 -14" transform="rotate(0,936,292)"/><path d="M 978 278v 28h 28v -14a 14 14, 0, 0, 0, -14 -14" transform="rotate(-90,992,292)"/><rect x="1006" y="278" width="28" height="28" transform="rotate(0,1020,292)"/><path d="M 1034 278v 28h 28v -14a 14 14, 0, 0, 0, -14 -14" transform="rotate(90,1048,292)"/><path d="M 1090 278v 28h 14a 14 14, 0, 0, 0, 0 -28" transform="rotate(180,1104,292)"/><rect x="1118" y="278" width="28" height="28" transform="rotate(0,1132,292)"/><path d="M 1146 278v 28h 28v -14a 14 14, 0, 0, 0, -14 -14" transform="rotate(90,1160,292)"/><rect x="26" y="306" width="28" height="28" transform="rotate(0,40,320)"/><rect x="82" y="306" width="28" height="28" transform="rotate(0,96,320)"/><path d="M 110 306v 28h 28v -14a 14 14, 0, 0, 0, -14 -14" transform="rotate(90,124,320)"/><circle cx="208" cy="320" r="14" transform="rotate(0,208,320)"/><path d="M 250 306v 28h 28v -14a 14 14, 0, 0, 0, -14 -14" transform="rotate(-90,264,320)"/><rect x="278" y="306" width="28" height="28" transform="rotate(0,292,320)"/><rect x="306" y="306" width="28" height="28" transform="rotate(0,320,320)"/><path d="M 362 306v 28h 14a 14 14, 0, 0, 0, 0 -28" transform="rotate(-90,376,320)"/><path d="M 418 306v 28h 14a 14 14, 0, 0, 0, 0 -28" transform="rotate(90,432,320)"/><path d="M 474 306v 28h 14a 14 14, 0, 0, 0, 0 -28" transform="rotate(180,488,320)"/><path d="M 502 306v 28h 28v -14a 14 14, 0, 0, 0, -14 -14" transform="rotate(0,516,320)"/><rect x="614" y="306" width="28" height="28" transform="rotate(0,628,320)"/><rect x="642" y="306" width="28" height="28" transform="rotate(0,656,320)"/><path d="M 698 306v 28h 14a 14 14, 0, 0, 0, 0 -28" transform="rotate(-90,712,320)"/><path d="M 754 306v 28h 14a 14 14, 0, 0, 0, 0 -28" transform="rotate(180,768,320)"/><rect x="782" y="306" width="28" height="28" transform="rotate(0,796,320)"/><rect x="810" y="306" width="28" height="28" transform="rotate(0,824,320)"/><rect x="838" y="306" width="28" height="28" transform="rotate(0,852,320)"/><path d="M 866 306v 28h 28v -14a 14 14, 0, 0, 0, -14 -14" transform="rotate(0,880,320)"/><rect x="922" y="306" width="28" height="28" transform="rotate(0,936,320)"/><rect x="950" y="306" width="28" height="28" transform="rotate(0,964,320)"/><path d="M 978 306v 28h 28v -14a 14 14, 0, 0, 0, -14 -14" transform="rotate(90,992,320)"/><rect x="26" y="334" width="28" height="28" transform="rotate(0,40,348)"/><rect x="54" y="334" width="28" height="28" transform="rotate(0,68,348)"/><path d="M 82 334v 28h 28v -14a 14 14, 0, 0, 0, -14 -14" transform="rotate(90,96,348)"/><path d="M 138 334v 28h 14a 14 14, 0, 0, 0, 0 -28" transform="rotate(180,152,348)"/><path d="M 166 334v 28h 14a 14 14, 0, 0, 0, 0 -28" transform="rotate(0,180,348)"/><rect x="250" y="334" width="28" height="28" transform="rotate(0,264,348)"/><rect x="306" y="334" width="28" height="28" transform="rotate(0,320,348)"/><rect x="334" y="334" width="28" height="28" transform="rotate(0,348,348)"/><rect x="362" y="334" width="28" height="28" transform="rotate(0,376,348)"/><path d="M 390 334v 28h 28v -14a 14 14, 0, 0, 0, -14 -14" transform="rotate(0,404,348)"/><path d="M 446 334v 28h 14a 14 14, 0, 0, 0, 0 -28" transform="rotate(-90,460,348)"/><rect x="502" y="334" width="28" height="28" transform="rotate(0,516,348)"/><path d="M 530 334v 28h 14a 14 14, 0, 0, 0, 0 -28" transform="rotate(0,544,348)"/><rect x="614" y="334" width="28" height="28" transform="rotate(0,628,348)"/><rect x="642" y="334" width="28" height="28" transform="rotate(0,656,348)"/><rect x="670" y="334" width="28" height="28" transform="rotate(0,684,348)"/><path d="M 698 334v 28h 28v -14a 14 14, 0, 0, 0, -14 -14" transform="rotate(90,712,348)"/><rect x="782" y="334" width="28" height="28" transform="rotate(0,796,348)"/><path d="M 810 334v 28h 28v -14a 14 14, 0, 0, 0, -14 -14" transform="rotate(90,824,348)"/><path d="M 866 334v 28h 28v -14a 14 14, 0, 0, 0, -14 -14" transform="rotate(180,880,348)"/><rect x="894" y="334" width="28" height="28" transform="rotate(0,908,348)"/><rect x="922" y="334" width="28" height="28" transform="rotate(0,936,348)"/><path d="M 1034 334v 28h 14a 14 14, 0, 0, 0, 0 -28" transform="rotate(180,1048,348)"/><path d="M 1062 334v 28h 28v -14a 14 14, 0, 0, 0, -14 -14" transform="rotate(0,1076,348)"/><path d="M 1118 334v 28h 28v -14a 14 14, 0, 0, 0, -14 -14" transform="rotate(-90,1132,348)"/><path d="M 1146 334v 28h 14a 14 14, 0, 0, 0, 0 -28" transform="rotate(0,1160,348)"/><rect x="26" y="362" width="28" height="28" transform="rotate(0,40,376)"/><path d="M 54 362v 28h 28v -14a 14 14, 0, 0, 0, -14 -14" transform="rotate(90,68,376)"/><path d="M 110 362v 28h 14a 14 14, 0, 0, 0, 0 -28" transform="rotate(-90,124,376)"/><path d="M 194 362v 28h 14a 14 14, 0, 0, 0, 0 -28" transform="rotate(180,208,376)"/><rect x="222" y="362" width="28" height="28" transform="rotate(0,236,376)"/><rect x="250" y="362" width="28" height="28" transform="rotate(0,264,376)"/><path d="M 306 362v 28h 28v -14a 14 14, 0, 0, 0, -14 -14" transform="rotate(180,320,376)"/><rect x="334" y="362" width="28" height="28" transform="rotate(0,348,376)"/><rect x="362" y="362" width="28" height="28" transform="rotate(0,376,376)"/><rect x="390" y="362" width="28" height="28" transform="rotate(0,404,376)"/><rect x="418" y="362" width="28" height="28" transform="rotate(0,432,376)"/><rect x="446" y="362" width="28" height="28" transform="rotate(0,460,376)"/><rect x="474" y="362" width="28" height="28" transform="rotate(0,488,376)"/><rect x="502" y="362" width="28" height="28" transform="rotate(0,516,376)"/><path d="M 586 362v 28h 28v -14a 14 14, 0, 0, 0, -14 -14" transform="rotate(-90,600,376)"/><rect x="614" y="362" width="28" height="28" transform="rotate(0,628,376)"/><rect x="642" y="362" width="28" height="28" transform="rotate(0,656,376)"/><path d="M 670 362v 28h 28v -14a 14 14, 0, 0, 0, -14 -14" transform="rotate(90,684,376)"/><path d="M 726 362v 28h 14a 14 14, 0, 0, 0, 0 -28" transform="rotate(-90,740,376)"/><path d="M 782 362v 28h 14a 14 14, 0, 0, 0, 0 -28" transform="rotate(90,796,376)"/><path d="M 838 362v 28h 14a 14 14, 0, 0, 0, 0 -28" transform="rotate(-90,852,376)"/><rect x="894" y="362" width="28" height="28" transform="rotate(0,908,376)"/><rect x="922" y="362" width="28" height="28" transform="rotate(0,936,376)"/><path d="M 1062 362v 28h 28v -14a 14 14, 0, 0, 0, -14 -14" transform="rotate(180,1076,376)"/><rect x="1090" y="362" width="28" height="28" transform="rotate(0,1104,376)"/><path d="M 1118 362v 28h 28v -14a 14 14, 0, 0, 0, -14 -14" transform="rotate(90,1132,376)"/><rect x="26" y="390" width="28" height="28" transform="rotate(0,40,404)"/><path d="M 110 390v 28h 14a 14 14, 0, 0, 0, 0 -28" transform="rotate(90,124,404)"/><circle cx="180" cy="404" r="14" transform="rotate(0,180,404)"/><rect x="250" y="390" width="28" height="28" transform="rotate(0,264,404)"/><path d="M 278 390v 28h 14a 14 14, 0, 0, 0, 0 -28" transform="rotate(0,292,404)"/><rect x="362" y="390" width="28" height="28" transform="rotate(0,376,404)"/><rect x="446" y="390" width="28" height="28" transform="rotate(0,460,404)"/><path d="M 502 390v 28h 28v -14a 14 14, 0, 0, 0, -14 -14" transform="rotate(180,516,404)"/><rect x="530" y="390" width="28" height="28" transform="rotate(0,544,404)"/><rect x="558" y="390" width="28" height="28" transform="rotate(0,572,404)"/><rect x="586" y="390" width="28" height="28" transform="rotate(0,600,404)"/><rect x="614" y="390" width="28" height="28" transform="rotate(0,628,404)"/><path d="M 642 390v 28h 28v -14a 14 14, 0, 0, 0, -14 -14" transform="rotate(90,656,404)"/><path d="M 698 390v 28h 14a 14 14, 0, 0, 0, 0 -28" transform="rotate(180,712,404)"/><path d="M 726 390v 28h 28v -14a 14 14, 0, 0, 0, -14 -14" transform="rotate(90,740,404)"/><path d="M 810 390v 28h 14a 14 14, 0, 0, 0, 0 -28" transform="rotate(180,824,404)"/><path d="M 838 390v 28h 28v -14a 14 14, 0, 0, 0, -14 -14" transform="rotate(90,852,404)"/><path d="M 894 390v 28h 28v -14a 14 14, 0, 0, 0, -14 -14" transform="rotate(180,908,404)"/><rect x="922" y="390" width="28" height="28" transform="rotate(0,936,404)"/><path d="M 978 390v 28h 14a 14 14, 0, 0, 0, 0 -28" transform="rotate(180,992,404)"/><rect x="1006" y="390" width="28" height="28" transform="rotate(0,1020,404)"/><path d="M 1034 390v 28h 14a 14 14, 0, 0, 0, 0 -28" transform="rotate(0,1048,404)"/><circle cx="1160" cy="404" r="14" transform="rotate(0,1160,404)"/><path d="M 26 418v 28h 28v -14a 14 14, 0, 0, 0, -14 -14" transform="rotate(180,40,432)"/><rect x="54" y="418" width="28" height="28" transform="rotate(0,68,432)"/><path d="M 82 418v 28h 28v -14a 14 14, 0, 0, 0, -14 -14" transform="rotate(0,96,432)"/><circle cx="208" cy="432" r="14" transform="rotate(0,208,432)"/><path d="M 250 418v 28h 14a 14 14, 0, 0, 0, 0 -28" transform="rotate(90,264,432)"/><rect x="362" y="418" width="28" height="28" transform="rotate(0,376,432)"/><path d="M 446 418v 28h 28v -14a 14 14, 0, 0, 0, -14 -14" transform="rotate(180,460,432)"/><path d="M 474 418v 28h 14a 14 14, 0, 0, 0, 0 -28" transform="rotate(0,488,432)"/><path d="M 530 418v 28h 28v -14a 14 14, 0, 0, 0, -14 -14" transform="rotate(180,544,432)"/><path d="M 558 418v 28h 28v -14a 14 14, 0, 0, 0, -14 -14" transform="rotate(90,572,432)"/><rect x="614" y="418" width="28" height="28" transform="rotate(0,628,432)"/><path d="M 754 418v 28h 14a 14 14, 0, 0, 0, 0 -28" transform="rotate(180,768,432)"/><path d="M 782 418v 28h 14a 14 14, 0, 0, 0, 0 -28" transform="rotate(0,796,432)"/><rect x="922" y="418" width="28" height="28" transform="rotate(0,936,432)"/><path d="M 950 418v 28h 14a 14 14, 0, 0, 0, 0 -28" transform="rotate(0,964,432)"/><rect x="1006" y="418" width="28" height="28" transform="rotate(0,1020,432)"/><path d="M 1062 418v 28h 28v -14a 14 14, 0, 0, 0, -14 -14" transform="rotate(-90,1076,432)"/><path d="M 1090 418v 28h 14a 14 14, 0, 0, 0, 0 -28" transform="rotate(0,1104,432)"/><path d="M 54 446v 28h 28v -14a 14 14, 0, 0, 0, -14 -14" transform="rotate(180,68,460)"/><path d="M 82 446v 28h 28v -14a 14 14, 0, 0, 0, -14 -14" transform="rotate(90,96,460)"/><path d="M 138 446v 28h 14a 14 14, 0, 0, 0, 0 -28" transform="rotate(180,152,460)"/><path d="M 166 446v 28h 28v -14a 14 14, 0, 0, 0, -14 -14" transform="rotate(0,180,460)"/><circle cx="236" cy="460" r="14" transform="rotate(0,236,460)"/><path d="M 362 446v 28h 28v -14a 14 14, 0, 0, 0, -14 -14" transform="rotate(180,376,460)"/><rect x="390" y="446" width="28" height="28" transform="rotate(0,404,460)"/><path d="M 418 446v 28h 14a 14 14, 0, 0, 0, 0 -28" transform="rotate(0,432,460)"/><path d="M 586 446v 28h 14a 14 14, 0, 0, 0, 0 -28" transform="rotate(180,600,460)"/><path d="M 614 446v 28h 28v -14a 14 14, 0, 0, 0, -14 -14" transform="rotate(90,628,460)"/><circle cx="712" cy="460" r="14" transform="rotate(0,712,460)"/><path d="M 810 446v 28h 14a 14 14, 0, 0, 0, 0 -28" transform="rotate(-90,824,460)"/><path d="M 922 446v 28h 14a 14 14, 0, 0, 0, 0 -28" transform="rotate(90,936,460)"/><path d="M 978 446v 28h 14a 14 14, 0, 0, 0, 0 -28" transform="rotate(180,992,460)"/><rect x="1006" y="446" width="28" height="28" transform="rotate(0,1020,460)"/><path d="M 1062 446v 28h 14a 14 14, 0, 0, 0, 0 -28" transform="rotate(90,1076,460)"/><path d="M 1118 446v 28h 14a 14 14, 0, 0, 0, 0 -28" transform="rotate(-90,1132,460)"/><path d="M 26 474v 28h 14a 14 14, 0, 0, 0, 0 -28" transform="rotate(-90,40,488)"/><path d="M 110 474v 28h 14a 14 14, 0, 0, 0, 0 -28" transform="rotate(-90,124,488)"/><path d="M 166 474v 28h 28v -14a 14 14, 0, 0, 0, -14 -14" transform="rotate(180,180,488)"/><path d="M 194 474v 28h 14a 14 14, 0, 0, 0, 0 -28" transform="rotate(0,208,488)"/><path d="M 250 474v 28h 14a 14 14, 0, 0, 0, 0 -28" transform="rotate(180,264,488)"/><rect x="278" y="474" width="28" height="28" transform="rotate(0,292,488)"/><rect x="306" y="474" width="28" height="28" transform="rotate(0,320,488)"/><path d="M 334 474v 28h 28v -14a 14 14, 0, 0, 0, -14 -14" transform="rotate(0,348,488)"/><path d="M 474 474v 28h 28v -14a 14 14, 0, 0, 0, -14 -14" transform="rotate(-90,488,488)"/><rect x="502" y="474" width="28" height="28" transform="rotate(0,516,488)"/><rect x="530" y="474" width="28" height="28" transform="rotate(0,544,488)"/><path d="M 558 474v 28h 28v -14a 14 14, 0, 0, 0, -14 -14" transform="rotate(0,572,488)"/><path d="M 726 474v 28h 28v -14a 14 14, 0, 0, 0, -14 -14" transform="rotate(-90,740,488)"/><path d="M 754 474v 28h 14a 14 14, 0, 0, 0, 0 -28" transform="rotate(0,768,488)"/><rect x="810" y="474" width="28" height="28" transform="rotate(0,824,488)"/><path d="M 838 474v 28h 28v -14a 14 14, 0, 0, 0, -14 -14" transform="rotate(0,852,488)"/><circle cx="964" cy="488" r="14" transform="rotate(0,964,488)"/><rect x="1006" y="474" width="28" height="28" transform="rotate(0,1020,488)"/><path d="M 1090 474v 28h 14a 14 14, 0, 0, 0, 0 -28" transform="rotate(180,1104,488)"/><rect x="1118" y="474" width="28" height="28" transform="rotate(0,1132,488)"/><rect x="26" y="502" width="28" height="28" transform="rotate(0,40,516)"/><path d="M 82 502v 28h 14a 14 14, 0, 0, 0, 0 -28" transform="rotate(180,96,516)"/><rect x="110" y="502" width="28" height="28" transform="rotate(0,124,516)"/><path d="M 138 502v 28h 14a 14 14, 0, 0, 0, 0 -28" transform="rotate(0,152,516)"/><circle cx="236" cy="516" r="14" transform="rotate(0,236,516)"/><path d="M 334 502v 28h 14a 14 14, 0, 0, 0, 0 -28" transform="rotate(90,348,516)"/><path d="M 418 502v 28h 14a 14 14, 0, 0, 0, 0 -28" transform="rotate(-90,432,516)"/><rect x="474" y="502" width="28" height="28" transform="rotate(0,488,516)"/><path d="M 558 502v 28h 28v -14a 14 14, 0, 0, 0, -14 -14" transform="rotate(180,572,516)"/><path d="M 586 502v 28h 28v -14a 14 14, 0, 0, 0, -14 -14" transform="rotate(0,600,516)"/><path d="M 642 502v 28h 14a 14 14, 0, 0, 0, 0 -28" transform="rotate(180,656,516)"/><path d="M 670 502v 28h 14a 14 14, 0, 0, 0, 0 -28" transform="rotate(0,684,516)"/><rect x="726" y="502" width="28" height="28" transform="rotate(0,740,516)"/><path d="M 810 502v 28h 28v -14a 14 14, 0, 0, 0, -14 -14" transform="rotate(180,824,516)"/><path d="M 838 502v 28h 28v -14a 14 14, 0, 0, 0, -14 -14" transform="rotate(90,852,516)"/><path d="M 894 502v 28h 14a 14 14, 0, 0, 0, 0 -28" transform="rotate(180,908,516)"/><path d="M 922 502v 28h 14a 14 14, 0, 0, 0, 0 -28" transform="rotate(0,936,516)"/><path d="M 978 502v 28h 28v -14a 14 14, 0, 0, 0, -14 -14" transform="rotate(-90,992,516)"/><rect x="1006" y="502" width="28" height="28" transform="rotate(0,1020,516)"/><path d="M 1034 502v 28h 28v -14a 14 14, 0, 0, 0, -14 -14" transform="rotate(0,1048,516)"/><path d="M 1118 502v 28h 28v -14a 14 14, 0, 0, 0, -14 -14" transform="rotate(180,1132,516)"/><path d="M 1146 502v 28h 14a 14 14, 0, 0, 0, 0 -28" transform="rotate(0,1160,516)"/><path d="M 26 530v 28h 14a 14 14, 0, 0, 0, 0 -28" transform="rotate(90,40,544)"/><rect x="110" y="530" width="28" height="28" transform="rotate(0,124,544)"/><path d="M 166 530v 28h 14a 14 14, 0, 0, 0, 0 -28" transform="rotate(180,180,544)"/><path d="M 194 530v 28h 14a 14 14, 0, 0, 0, 0 -28" transform="rotate(0,208,544)"/><path d="M 250 530v 28h 28v -14a 14 14, 0, 0, 0, -14 -14" transform="rotate(-90,264,544)"/><path d="M 278 530v 28h 28v -14a 14 14, 0, 0, 0, -14 -14" transform="rotate(0,292,544)"/><path d="M 390 530v 28h 28v -14a 14 14, 0, 0, 0, -14 -14" transform="rotate(-90,404,544)"/><rect x="418" y="530" width="28" height="28" transform="rotate(0,432,544)"/><rect x="446" y="530" width="28" height="28" transform="rotate(0,460,544)"/><rect x="474" y="530" width="28" height="28" transform="rotate(0,488,544)"/><path d="M 502 530v 28h 14a 14 14, 0, 0, 0, 0 -28" transform="rotate(0,516,544)"/><path d="M 586 530v 28h 14a 14 14, 0, 0, 0, 0 -28" transform="rotate(90,600,544)"/><rect x="726" y="530" width="28" height="28" transform="rotate(0,740,544)"/><rect x="754" y="530" width="28" height="28" transform="rotate(0,768,544)"/><path d="M 782 530v 28h 14a 14 14, 0, 0, 0, 0 -28" transform="rotate(0,796,544)"/><circle cx="880" cy="544" r="14" transform="rotate(0,880,544)"/><path d="M 950 530v 28h 14a 14 14, 0, 0, 0, 0 -28" transform="rotate(180,964,544)"/><path d="M 978 530v 28h 28v -14a 14 14, 0, 0, 0, -14 -14" transform="rotate(90,992,544)"/><rect x="1034" y="530" width="28" height="28" transform="rotate(0,1048,544)"/><rect x="1062" y="530" width="28" height="28" transform="rotate(0,1076,544)"/><path d="M 1090 530v 28h 14a 14 14, 0, 0, 0, 0 -28" transform="rotate(0,1104,544)"/><path d="M 54 558v 28h 14a 14 14, 0, 0, 0, 0 -28" transform="rotate(-90,68,572)"/><rect x="110" y="558" width="28" height="28" transform="rotate(0,124,572)"/><path d="M 138 558v 28h 14a 14 14, 0, 0, 0, 0 -28" transform="rotate(0,152,572)"/><path d="M 250 558v 28h 28v -14a 14 14, 0, 0, 0, -14 -14" transform="rotate(180,264,572)"/><rect x="278" y="558" width="28" height="28" transform="rotate(0,292,572)"/><path d="M 306 558v 28h 14a 14 14, 0, 0, 0, 0 -28" transform="rotate(0,320,572)"/><rect x="390" y="558" width="28" height="28" transform="rotate(0,404,572)"/><rect x="446" y="558" width="28" height="28" transform="rotate(0,460,572)"/><rect x="474" y="558" width="28" height="28" transform="rotate(0,488,572)"/><path d="M 614 558v 28h 14a 14 14, 0, 0, 0, 0 -28" transform="rotate(180,628,572)"/><rect x="642" y="558" width="28" height="28" transform="rotate(0,656,572)"/><path d="M 670 558v 28h 14a 14 14, 0, 0, 0, 0 -28" transform="rotate(0,684,572)"/><path d="M 726 558v 28h 14a 14 14, 0, 0, 0, 0 -28" transform="rotate(90,740,572)"/><path d="M 810 558v 28h 14a 14 14, 0, 0, 0, 0 -28" transform="rotate(-90,824,572)"/><circle cx="936" cy="572" r="14" transform="rotate(0,936,572)"/><path d="M 1034 558v 28h 28v -14a 14 14, 0, 0, 0, -14 -14" transform="rotate(180,1048,572)"/><path d="M 1062 558v 28h 28v -14a 14 14, 0, 0, 0, -14 -14" transform="rotate(90,1076,572)"/><path d="M 1118 558v 28h 14a 14 14, 0, 0, 0, 0 -28" transform="rotate(180,1132,572)"/><path d="M 1146 558v 28h 28v -14a 14 14, 0, 0, 0, -14 -14" transform="rotate(0,1160,572)"/><path d="M 54 586v 28h 28v -14a 14 14, 0, 0, 0, -14 -14" transform="rotate(180,68,600)"/><rect x="82" y="586" width="28" height="28" transform="rotate(0,96,600)"/><path d="M 110 586v 28h 28v -14a 14 14, 0, 0, 0, -14 -14" transform="rotate(90,124,600)"/><path d="M 166 586v 28h 28v -14a 14 14, 0, 0, 0, -14 -14" transform="rotate(-90,180,600)"/><rect x="194" y="586" width="28" height="28" transform="rotate(0,208,600)"/><path d="M 222 586v 28h 28v -14a 14 14, 0, 0, 0, -14 -14" transform="rotate(0,236,600)"/><rect x="278" y="586" width="28" height="28" transform="rotate(0,292,600)"/><path d="M 334 586v 28h 14a 14 14, 0, 0, 0, 0 -28" transform="rotate(180,348,600)"/><rect x="362" y="586" width="28" height="28" transform="rotate(0,376,600)"/><rect x="390" y="586" width="28" height="28" transform="rotate(0,404,600)"/><rect x="446" y="586" width="28" height="28" transform="rotate(0,460,600)"/><path d="M 474 586v 28h 28v -14a 14 14, 0, 0, 0, -14 -14" transform="rotate(90,488,600)"/><path d="M 586 586v 28h 14a 14 14, 0, 0, 0, 0 -28" transform="rotate(-90,600,600)"/><path d="M 642 586v 28h 14a 14 14, 0, 0, 0, 0 -28" transform="rotate(90,656,600)"/><circle cx="768" cy="600" r="14" transform="rotate(0,768,600)"/><rect x="810" y="586" width="28" height="28" transform="rotate(0,824,600)"/><path d="M 838 586v 28h 14a 14 14, 0, 0, 0, 0 -28" transform="rotate(0,852,600)"/><path d="M 1006 586v 28h 14a 14 14, 0, 0, 0, 0 -28" transform="rotate(-90,1020,600)"/><circle cx="1104" cy="600" r="14" transform="rotate(0,1104,600)"/><rect x="1146" y="586" width="28" height="28" transform="rotate(0,1160,600)"/><circle cx="40" cy="628" r="14" transform="rotate(0,40,628)"/><rect x="166" y="614" width="28" height="28" transform="rotate(0,180,628)"/><rect x="222" y="614" width="28" height="28" transform="rotate(0,236,628)"/><rect x="250" y="614" width="28" height="28" transform="rotate(0,264,628)"/><rect x="278" y="614" width="28" height="28" transform="rotate(0,292,628)"/><path d="M 390 614v 28h 14a 14 14, 0, 0, 0, 0 -28" transform="rotate(90,404,628)"/><path d="M 446 614v 28h 14a 14 14, 0, 0, 0, 0 -28" transform="rotate(90,460,628)"/><circle cx="516" cy="628" r="14" transform="rotate(0,516,628)"/><rect x="586" y="614" width="28" height="28" transform="rotate(0,600,628)"/><path d="M 614 614v 28h 28v -14a 14 14, 0, 0, 0, -14 -14" transform="rotate(0,628,628)"/><circle cx="684" cy="628" r="14" transform="rotate(0,684,628)"/><rect x="810" y="614" width="28" height="28" transform="rotate(0,824,628)"/><path d="M 866 614v 28h 14a 14 14, 0, 0, 0, 0 -28" transform="rotate(180,880,628)"/><rect x="894" y="614" width="28" height="28" transform="rotate(0,908,628)"/><rect x="922" y="614" width="28" height="28" transform="rotate(0,936,628)"/><rect x="950" y="614" width="28" height="28" transform="rotate(0,964,628)"/><rect x="978" y="614" width="28" height="28" transform="rotate(0,992,628)"/><rect x="1006" y="614" width="28" height="28" transform="rotate(0,1020,628)"/><rect x="1034" y="614" width="28" height="28" transform="rotate(0,1048,628)"/><path d="M 1062 614v 28h 28v -14a 14 14, 0, 0, 0, -14 -14" transform="rotate(0,1076,628)"/><path d="M 1118 614v 28h 14a 14 14, 0, 0, 0, 0 -28" transform="rotate(180,1132,628)"/><path d="M 1146 614v 28h 28v -14a 14 14, 0, 0, 0, -14 -14" transform="rotate(90,1160,628)"/><path d="M 110 642v 28h 28v -14a 14 14, 0, 0, 0, -14 -14" transform="rotate(-90,124,656)"/><rect x="138" y="642" width="28" height="28" transform="rotate(0,152,656)"/><rect x="166" y="642" width="28" height="28" transform="rotate(0,180,656)"/><rect x="194" y="642" width="28" height="28" transform="rotate(0,208,656)"/><path d="M 222 642v 28h 28v -14a 14 14, 0, 0, 0, -14 -14" transform="rotate(90,236,656)"/><rect x="278" y="642" width="28" height="28" transform="rotate(0,292,656)"/><rect x="306" y="642" width="28" height="28" transform="rotate(0,320,656)"/><rect x="334" y="642" width="28" height="28" transform="rotate(0,348,656)"/><path d="M 362 642v 28h 14a 14 14, 0, 0, 0, 0 -28" transform="rotate(0,376,656)"/><path d="M 586 642v 28h 28v -14a 14 14, 0, 0, 0, -14 -14" transform="rotate(180,600,656)"/><rect x="614" y="642" width="28" height="28" transform="rotate(0,628,656)"/><path d="M 642 642v 28h 14a 14 14, 0, 0, 0, 0 -28" transform="rotate(0,656,656)"/><path d="M 754 642v 28h 28v -14a 14 14, 0, 0, 0, -14 -14" transform="rotate(-90,768,656)"/><rect x="782" y="642" width="28" height="28" transform="rotate(0,796,656)"/><path d="M 810 642v 28h 28v -14a 14 14, 0, 0, 0, -14 -14" transform="rotate(90,824,656)"/><path d="M 922 642v 28h 28v -14a 14 14, 0, 0, 0, -14 -14" transform="rotate(180,936,656)"/><rect x="950" y="642" width="28" height="28" transform="rotate(0,964,656)"/><rect x="1006" y="642" width="28" height="28" transform="rotate(0,1020,656)"/><rect x="1034" y="642" width="28" height="28" transform="rotate(0,1048,656)"/><path d="M 1062 642v 28h 28v -14a 14 14, 0, 0, 0, -14 -14" transform="rotate(90,1076,656)"/><path d="M 54 670v 28h 14a 14 14, 0, 0, 0, 0 -28" transform="rotate(180,68,684)"/><rect x="82" y="670" width="28" height="28" transform="rotate(0,96,684)"/><path d="M 110 670v 28h 28v -14a 14 14, 0, 0, 0, -14 -14" transform="rotate(90,124,684)"/><path d="M 166 670v 28h 14a 14 14, 0, 0, 0, 0 -28" transform="rotate(90,180,684)"/><path d="M 250 670v 28h 14a 14 14, 0, 0, 0, 0 -28" transform="rotate(180,264,684)"/><rect x="278" y="670" width="28" height="28" transform="rotate(0,292,684)"/><rect x="306" y="670" width="28" height="28" transform="rotate(0,320,684)"/><path d="M 334 670v 28h 28v -14a 14 14, 0, 0, 0, -14 -14" transform="rotate(90,348,684)"/><path d="M 418 670v 28h 14a 14 14, 0, 0, 0, 0 -28" transform="rotate(-90,432,684)"/><path d="M 474 670v 28h 14a 14 14, 0, 0, 0, 0 -28" transform="rotate(-90,488,684)"/><path d="M 670 670v 28h 14a 14 14, 0, 0, 0, 0 -28" transform="rotate(-90,684,684)"/><rect x="754" y="670" width="28" height="28" transform="rotate(0,768,684)"/><rect x="782" y="670" width="28" height="28" transform="rotate(0,796,684)"/><circle cx="908" cy="684" r="14" transform="rotate(0,908,684)"/><path d="M 950 670v 28h 28v -14a 14 14, 0, 0, 0, -14 -14" transform="rotate(180,964,684)"/><rect x="978" y="670" width="28" height="28" transform="rotate(0,992,684)"/><path d="M 1006 670v 28h 28v -14a 14 14, 0, 0, 0, -14 -14" transform="rotate(90,1020,684)"/><path d="M 1118 670v 28h 14a 14 14, 0, 0, 0, 0 -28" transform="rotate(180,1132,684)"/><path d="M 1146 670v 28h 14a 14 14, 0, 0, 0, 0 -28" transform="rotate(0,1160,684)"/><rect x="82" y="698" width="28" height="28" transform="rotate(0,96,712)"/><path d="M 138 698v 28h 14a 14 14, 0, 0, 0, 0 -28" transform="rotate(-90,152,712)"/><path d="M 194 698v 28h 14a 14 14, 0, 0, 0, 0 -28" transform="rotate(180,208,712)"/><path d="M 222 698v 28h 28v -14a 14 14, 0, 0, 0, -14 -14" transform="rotate(0,236,712)"/><path d="M 278 698v 28h 28v -14a 14 14, 0, 0, 0, -14 -14" transform="rotate(180,292,712)"/><rect x="306" y="698" width="28" height="28" transform="rotate(0,320,712)"/><path d="M 418 698v 28h 28v -14a 14 14, 0, 0, 0, -14 -14" transform="rotate(180,432,712)"/><rect x="446" y="698" width="28" height="28" transform="rotate(0,460,712)"/><rect x="474" y="698" width="28" height="28" transform="rotate(0,488,712)"/><rect x="502" y="698" width="28" height="28" transform="rotate(0,516,712)"/><path d="M 530 698v 28h 28v -14a 14 14, 0, 0, 0, -14 -14" transform="rotate(0,544,712)"/><path d="M 614 698v 28h 28v -14a 14 14, 0, 0, 0, -14 -14" transform="rotate(-90,628,712)"/><rect x="642" y="698" width="28" height="28" transform="rotate(0,656,712)"/><rect x="670" y="698" width="28" height="28" transform="rotate(0,684,712)"/><path d="M 726 698v 28h 28v -14a 14 14, 0, 0, 0, -14 -14" transform="rotate(-90,740,712)"/><rect x="754" y="698" width="28" height="28" transform="rotate(0,768,712)"/><rect x="782" y="698" width="28" height="28" transform="rotate(0,796,712)"/><rect x="810" y="698" width="28" height="28" transform="rotate(0,824,712)"/><path d="M 838 698v 28h 14a 14 14, 0, 0, 0, 0 -28" transform="rotate(0,852,712)"/><circle cx="1104" cy="712" r="14" transform="rotate(0,1104,712)"/><circle cx="40" cy="740" r="14" transform="rotate(0,40,740)"/><path d="M 82 726v 28h 14a 14 14, 0, 0, 0, 0 -28" transform="rotate(90,96,740)"/><path d="M 138 726v 28h 28v -14a 14 14, 0, 0, 0, -14 -14" transform="rotate(180,152,740)"/><path d="M 166 726v 28h 14a 14 14, 0, 0, 0, 0 -28" transform="rotate(0,180,740)"/><rect x="222" y="726" width="28" height="28" transform="rotate(0,236,740)"/><path d="M 250 726v 28h 28v -14a 14 14, 0, 0, 0, -14 -14" transform="rotate(0,264,740)"/><path d="M 306 726v 28h 28v -14a 14 14, 0, 0, 0, -14 -14" transform="rotate(180,320,740)"/><path d="M 334 726v 28h 14a 14 14, 0, 0, 0, 0 -28" transform="rotate(0,348,740)"/><path d="M 446 726v 28h 28v -14a 14 14, 0, 0, 0, -14 -14" transform="rotate(180,460,740)"/><rect x="474" y="726" width="28" height="28" transform="rotate(0,488,740)"/><rect x="502" y="726" width="28" height="28" transform="rotate(0,516,740)"/><rect x="530" y="726" width="28" height="28" transform="rotate(0,544,740)"/><rect x="614" y="726" width="28" height="28" transform="rotate(0,628,740)"/><rect x="642" y="726" width="28" height="28" transform="rotate(0,656,740)"/><path d="M 670 726v 28h 28v -14a 14 14, 0, 0, 0, -14 -14" transform="rotate(90,684,740)"/><path d="M 726 726v 28h 14a 14 14, 0, 0, 0, 0 -28" transform="rotate(90,740,740)"/><path d="M 810 726v 28h 14a 14 14, 0, 0, 0, 0 -28" transform="rotate(90,824,740)"/><path d="M 866 726v 28h 14a 14 14, 0, 0, 0, 0 -28" transform="rotate(180,880,740)"/><path d="M 894 726v 28h 14a 14 14, 0, 0, 0, 0 -28" transform="rotate(0,908,740)"/><path d="M 950 726v 28h 28v -14a 14 14, 0, 0, 0, -14 -14" transform="rotate(-90,964,740)"/><rect x="978" y="726" width="28" height="28" transform="rotate(0,992,740)"/><rect x="1006" y="726" width="28" height="28" transform="rotate(0,1020,740)"/><rect x="1034" y="726" width="28" height="28" transform="rotate(0,1048,740)"/><path d="M 1062 726v 28h 14a 14 14, 0, 0, 0, 0 -28" transform="rotate(0,1076,740)"/><circle cx="1160" cy="740" r="14" transform="rotate(0,1160,740)"/><path d="M 194 754v 28h 14a 14 14, 0, 0, 0, 0 -28" transform="rotate(180,208,768)"/><rect x="222" y="754" width="28" height="28" transform="rotate(0,236,768)"/><path d="M 250 754v 28h 28v -14a 14 14, 0, 0, 0, -14 -14" transform="rotate(90,264,768)"/><path d="M 390 754v 28h 14a 14 14, 0, 0, 0, 0 -28" transform="rotate(180,404,768)"/><path d="M 418 754v 28h 28v -14a 14 14, 0, 0, 0, -14 -14" transform="rotate(0,432,768)"/><path d="M 502 754v 28h 28v -14a 14 14, 0, 0, 0, -14 -14" transform="rotate(180,516,768)"/><path d="M 530 754v 28h 28v -14a 14 14, 0, 0, 0, -14 -14" transform="rotate(90,544,768)"/><path d="M 614 754v 28h 28v -14a 14 14, 0, 0, 0, -14 -14" transform="rotate(180,628,768)"/><rect x="642" y="754" width="28" height="28" transform="rotate(0,656,768)"/><circle cx="712" cy="768" r="14" transform="rotate(0,712,768)"/><path d="M 754 754v 28h 28v -14a 14 14, 0, 0, 0, -14 -14" transform="rotate(-90,768,768)"/><path d="M 782 754v 28h 28v -14a 14 14, 0, 0, 0, -14 -14" transform="rotate(0,796,768)"/><path d="M 922 754v 28h 28v -14a 14 14, 0, 0, 0, -14 -14" transform="rotate(-90,936,768)"/><path d="M 950 754v 28h 28v -14a 14 14, 0, 0, 0, -14 -14" transform="rotate(90,964,768)"/><rect x="1006" y="754" width="28" height="28" transform="rotate(0,1020,768)"/><path d="M 1034 754v 28h 28v -14a 14 14, 0, 0, 0, -14 -14" transform="rotate(90,1048,768)"/><path d="M 26 782v 28h 14a 14 14, 0, 0, 0, 0 -28" transform="rotate(180,40,796)"/><rect x="54" y="782" width="28" height="28" transform="rotate(0,68,796)"/><path d="M 82 782v 28h 14a 14 14, 0, 0, 0, 0 -28" transform="rotate(0,96,796)"/><path d="M 138 782v 28h 14a 14 14, 0, 0, 0, 0 -28" transform="rotate(-90,152,796)"/><path d="M 278 782v 28h 14a 14 14, 0, 0, 0, 0 -28" transform="rotate(-90,292,796)"/><circle cx="376" cy="796" r="14" transform="rotate(0,376,796)"/><rect x="418" y="782" width="28" height="28" transform="rotate(0,432,796)"/><path d="M 446 782v 28h 28v -14a 14 14, 0, 0, 0, -14 -14" transform="rotate(0,460,796)"/><path d="M 642 782v 28h 14a 14 14, 0, 0, 0, 0 -28" transform="rotate(90,656,796)"/><rect x="754" y="782" width="28" height="28" transform="rotate(0,768,796)"/><rect x="782" y="782" width="28" height="28" transform="rotate(0,796,796)"/><path d="M 810 782v 28h 14a 14 14, 0, 0, 0, 0 -28" transform="rotate(0,824,796)"/><path d="M 866 782v 28h 14a 14 14, 0, 0, 0, 0 -28" transform="rotate(180,880,796)"/><rect x="894" y="782" width="28" height="28" transform="rotate(0,908,796)"/><path d="M 922 782v 28h 28v -14a 14 14, 0, 0, 0, -14 -14" transform="rotate(90,936,796)"/><path d="M 978 782v 28h 14a 14 14, 0, 0, 0, 0 -28" transform="rotate(180,992,796)"/><path d="M 1006 782v 28h 28v -14a 14 14, 0, 0, 0, -14 -14" transform="rotate(90,1020,796)"/><path d="M 1062 782v 28h 14a 14 14, 0, 0, 0, 0 -28" transform="rotate(-90,1076,796)"/><rect x="54" y="810" width="28" height="28" transform="rotate(0,68,824)"/><path d="M 110 810v 28h 28v -14a 14 14, 0, 0, 0, -14 -14" transform="rotate(-90,124,824)"/><rect x="138" y="810" width="28" height="28" transform="rotate(0,152,824)"/><rect x="166" y="810" width="28" height="28" transform="rotate(0,180,824)"/><rect x="194" y="810" width="28" height="28" transform="rotate(0,208,824)"/><path d="M 222 810v 28h 14a 14 14, 0, 0, 0, 0 -28" transform="rotate(0,236,824)"/><rect x="278" y="810" width="28" height="28" transform="rotate(0,292,824)"/><path d="M 390 810v 28h 28v -14a 14 14, 0, 0, 0, -14 -14" transform="rotate(-90,404,824)"/><rect x="418" y="810" width="28" height="28" transform="rotate(0,432,824)"/><rect x="446" y="810" width="28" height="28" transform="rotate(0,460,824)"/><path d="M 474 810v 28h 28v -14a 14 14, 0, 0, 0, -14 -14" transform="rotate(0,488,824)"/><path d="M 530 810v 28h 28v -14a 14 14, 0, 0, 0, -14 -14" transform="rotate(-90,544,824)"/><path d="M 558 810v 28h 14a 14 14, 0, 0, 0, 0 -28" transform="rotate(0,572,824)"/><path d="M 670 810v 28h 14a 14 14, 0, 0, 0, 0 -28" transform="rotate(180,684,824)"/><rect x="698" y="810" width="28" height="28" transform="rotate(0,712,824)"/><rect x="726" y="810" width="28" height="28" transform="rotate(0,740,824)"/><rect x="754" y="810" width="28" height="28" transform="rotate(0,768,824)"/><path d="M 782 810v 28h 28v -14a 14 14, 0, 0, 0, -14 -14" transform="rotate(90,796,824)"/><circle cx="852" cy="824" r="14" transform="rotate(0,852,824)"/><rect x="894" y="810" width="28" height="28" transform="rotate(0,908,824)"/><rect x="1062" y="810" width="28" height="28" transform="rotate(0,1076,824)"/><path d="M 1090 810v 28h 28v -14a 14 14, 0, 0, 0, -14 -14" transform="rotate(0,1104,824)"/><path d="M 26 838v 28h 28v -14a 14 14, 0, 0, 0, -14 -14" transform="rotate(-90,40,852)"/><path d="M 54 838v 28h 28v -14a 14 14, 0, 0, 0, -14 -14" transform="rotate(90,68,852)"/><path d="M 110 838v 28h 14a 14 14, 0, 0, 0, 0 -28" transform="rotate(90,124,852)"/><rect x="166" y="838" width="28" height="28" transform="rotate(0,180,852)"/><path d="M 250 838v 28h 28v -14a 14 14, 0, 0, 0, -14 -14" transform="rotate(-90,264,852)"/><rect x="278" y="838" width="28" height="28" transform="rotate(0,292,852)"/><rect x="306" y="838" width="28" height="28" transform="rotate(0,320,852)"/><rect x="334" y="838" width="28" height="28" transform="rotate(0,348,852)"/><rect x="362" y="838" width="28" height="28" transform="rotate(0,376,852)"/><path d="M 390 838v 28h 28v -14a 14 14, 0, 0, 0, -14 -14" transform="rotate(90,404,852)"/><rect x="474" y="838" width="28" height="28" transform="rotate(0,488,852)"/><rect x="502" y="838" width="28" height="28" transform="rotate(0,516,852)"/><rect x="530" y="838" width="28" height="28" transform="rotate(0,544,852)"/><path d="M 614 838v 28h 14a 14 14, 0, 0, 0, 0 -28" transform="rotate(180,628,852)"/><path d="M 642 838v 28h 14a 14 14, 0, 0, 0, 0 -28" transform="rotate(0,656,852)"/><path d="M 810 838v 28h 14a 14 14, 0, 0, 0, 0 -28" transform="rotate(-90,824,852)"/><path d="M 866 838v 28h 14a 14 14, 0, 0, 0, 0 -28" transform="rotate(180,880,852)"/><rect x="894" y="838" width="28" height="28" transform="rotate(0,908,852)"/><path d="M 922 838v 28h 14a 14 14, 0, 0, 0, 0 -28" transform="rotate(0,936,852)"/><path d="M 978 838v 28h 14a 14 14, 0, 0, 0, 0 -28" transform="rotate(-90,992,852)"/><path d="M 1034 838v 28h 28v -14a 14 14, 0, 0, 0, -14 -14" transform="rotate(-90,1048,852)"/><rect x="1062" y="838" width="28" height="28" transform="rotate(0,1076,852)"/><rect x="1090" y="838" width="28" height="28" transform="rotate(0,1104,852)"/><circle cx="1160" cy="852" r="14" transform="rotate(0,1160,852)"/><rect x="26" y="866" width="28" height="28" transform="rotate(0,40,880)"/><path d="M 166 866v 28h 28v -14a 14 14, 0, 0, 0, -14 -14" transform="rotate(180,180,880)"/><rect x="194" y="866" width="28" height="28" transform="rotate(0,208,880)"/><rect x="222" y="866" width="28" height="28" transform="rotate(0,236,880)"/><rect x="250" y="866" width="28" height="28" transform="rotate(0,264,880)"/><rect x="278" y="866" width="28" height="28" transform="rotate(0,292,880)"/><path d="M 334 866v 28h 14a 14 14, 0, 0, 0, 0 -28" transform="rotate(90,348,880)"/><path d="M 474 866v 28h 28v -14a 14 14, 0, 0, 0, -14 -14" transform="rotate(180,488,880)"/><rect x="502" y="866" width="28" height="28" transform="rotate(0,516,880)"/><rect x="530" y="866" width="28" height="28" transform="rotate(0,544,880)"/><path d="M 670 866v 28h 28v -14a 14 14, 0, 0, 0, -14 -14" transform="rotate(-90,684,880)"/><rect x="698" y="866" width="28" height="28" transform="rotate(0,712,880)"/><rect x="726" y="866" width="28" height="28" transform="rotate(0,740,880)"/><rect x="754" y="866" width="28" height="28" transform="rotate(0,768,880)"/><rect x="782" y="866" width="28" height="28" transform="rotate(0,796,880)"/><rect x="810" y="866" width="28" height="28" transform="rotate(0,824,880)"/><path d="M 838 866v 28h 14a 14 14, 0, 0, 0, 0 -28" transform="rotate(0,852,880)"/><path d="M 950 866v 28h 28v -14a 14 14, 0, 0, 0, -14 -14" transform="rotate(-90,964,880)"/><rect x="978" y="866" width="28" height="28" transform="rotate(0,992,880)"/><rect x="1006" y="866" width="28" height="28" transform="rotate(0,1020,880)"/><rect x="1034" y="866" width="28" height="28" transform="rotate(0,1048,880)"/><rect x="1062" y="866" width="28" height="28" transform="rotate(0,1076,880)"/><path d="M 1090 866v 28h 28v -14a 14 14, 0, 0, 0, -14 -14" transform="rotate(90,1104,880)"/><rect x="26" y="894" width="28" height="28" transform="rotate(0,40,908)"/><rect x="222" y="894" width="28" height="28" transform="rotate(0,236,908)"/><rect x="278" y="894" width="28" height="28" transform="rotate(0,292,908)"/><path d="M 306 894v 28h 28v -14a 14 14, 0, 0, 0, -14 -14" transform="rotate(0,320,908)"/><circle cx="376" cy="908" r="14" transform="rotate(0,376,908)"/><path d="M 502 894v 28h 28v -14a 14 14, 0, 0, 0, -14 -14" transform="rotate(180,516,908)"/><rect x="530" y="894" width="28" height="28" transform="rotate(0,544,908)"/><path d="M 558 894v 28h 14a 14 14, 0, 0, 0, 0 -28" transform="rotate(0,572,908)"/><path d="M 614 894v 28h 14a 14 14, 0, 0, 0, 0 -28" transform="rotate(-90,628,908)"/><rect x="670" y="894" width="28" height="28" transform="rotate(0,684,908)"/><path d="M 782 894v 28h 14a 14 14, 0, 0, 0, 0 -28" transform="rotate(90,796,908)"/><circle cx="880" cy="908" r="14" transform="rotate(0,880,908)"/><path d="M 922 894v 28h 28v -14a 14 14, 0, 0, 0, -14 -14" transform="rotate(-90,936,908)"/><rect x="950" y="894" width="28" height="28" transform="rotate(0,964,908)"/><rect x="978" y="894" width="28" height="28" transform="rotate(0,992,908)"/><rect x="1006" y="894" width="28" height="28" transform="rotate(0,1020,908)"/><path d="M 1062 894v 28h 14a 14 14, 0, 0, 0, 0 -28" transform="rotate(90,1076,908)"/><path d="M 1118 894v 28h 28v -14a 14 14, 0, 0, 0, -14 -14" transform="rotate(-90,1132,908)"/><path d="M 1146 894v 28h 14a 14 14, 0, 0, 0, 0 -28" transform="rotate(0,1160,908)"/><path d="M 26 922v 28h 14a 14 14, 0, 0, 0, 0 -28" transform="rotate(90,40,936)"/><path d="M 110 922v 28h 14a 14 14, 0, 0, 0, 0 -28" transform="rotate(180,124,936)"/><path d="M 138 922v 28h 14a 14 14, 0, 0, 0, 0 -28" transform="rotate(0,152,936)"/><path d="M 194 922v 28h 14a 14 14, 0, 0, 0, 0 -28" transform="rotate(180,208,936)"/><rect x="222" y="922" width="28" height="28" transform="rotate(0,236,936)"/><rect x="250" y="922" width="28" height="28" transform="rotate(0,264,936)"/><rect x="278" y="922" width="28" height="28" transform="rotate(0,292,936)"/><rect x="306" y="922" width="28" height="28" transform="rotate(0,320,936)"/><path d="M 334 922v 28h 28v -14a 14 14, 0, 0, 0, -14 -14" transform="rotate(0,348,936)"/><circle cx="432" cy="936" r="14" transform="rotate(0,432,936)"/><path d="M 474 922v 28h 14a 14 14, 0, 0, 0, 0 -28" transform="rotate(-90,488,936)"/><path d="M 530 922v 28h 14a 14 14, 0, 0, 0, 0 -28" transform="rotate(90,544,936)"/><path d="M 614 922v 28h 28v -14a 14 14, 0, 0, 0, -14 -14" transform="rotate(180,628,936)"/><rect x="642" y="922" width="28" height="28" transform="rotate(0,656,936)"/><rect x="670" y="922" width="28" height="28" transform="rotate(0,684,936)"/><rect x="698" y="922" width="28" height="28" transform="rotate(0,712,936)"/><rect x="726" y="922" width="28" height="28" transform="rotate(0,740,936)"/><path d="M 754 922v 28h 14a 14 14, 0, 0, 0, 0 -28" transform="rotate(0,768,936)"/><path d="M 838 922v 28h 14a 14 14, 0, 0, 0, 0 -28" transform="rotate(-90,852,936)"/><rect x="922" y="922" width="28" height="28" transform="rotate(0,936,936)"/><rect x="950" y="922" width="28" height="28" transform="rotate(0,964,936)"/><rect x="978" y="922" width="28" height="28" transform="rotate(0,992,936)"/><rect x="1006" y="922" width="28" height="28" transform="rotate(0,1020,936)"/><path d="M 1034 922v 28h 28v -14a 14 14, 0, 0, 0, -14 -14" transform="rotate(0,1048,936)"/><path d="M 1090 922v 28h 14a 14 14, 0, 0, 0, 0 -28" transform="rotate(180,1104,936)"/><rect x="1118" y="922" width="28" height="28" transform="rotate(0,1132,936)"/><rect x="250" y="950" width="28" height="28" transform="rotate(0,264,964)"/><path d="M 334 950v 28h 14a 14 14, 0, 0, 0, 0 -28" transform="rotate(90,348,964)"/><circle cx="404" cy="964" r="14" transform="rotate(0,404,964)"/><rect x="474" y="950" width="28" height="28" transform="rotate(0,488,964)"/><path d="M 502 950v 28h 14a 14 14, 0, 0, 0, 0 -28" transform="rotate(0,516,964)"/><circle cx="572" cy="964" r="14" transform="rotate(0,572,964)"/><path d="M 670 950v 28h 14a 14 14, 0, 0, 0, 0 -28" transform="rotate(90,684,964)"/><path d="M 810 950v 28h 28v -14a 14 14, 0, 0, 0, -14 -14" transform="rotate(-90,824,964)"/><rect x="838" y="950" width="28" height="28" transform="rotate(0,852,964)"/><path d="M 866 950v 28h 14a 14 14, 0, 0, 0, 0 -28" transform="rotate(0,880,964)"/><rect x="922" y="950" width="28" height="28" transform="rotate(0,936,964)"/><rect x="1034" y="950" width="28" height="28" transform="rotate(0,1048,964)"/><path d="M 1062 950v 28h 28v -14a 14 14, 0, 0, 0, -14 -14" transform="rotate(0,1076,964)"/><rect x="1118" y="950" width="28" height="28" transform="rotate(0,1132,964)"/><path d="M 1146 950v 28h 14a 14 14, 0, 0, 0, 0 -28" transform="rotate(0,1160,964)"/><rect x="250" y="978" width="28" height="28" transform="rotate(0,264,992)"/><circle cx="376" cy="992" r="14" transform="rotate(0,376,992)"/><path d="M 446 978v 28h 28v -14a 14 14, 0, 0, 0, -14 -14" transform="rotate(-90,460,992)"/><path d="M 474 978v 28h 28v -14a 14 14, 0, 0, 0, -14 -14" transform="rotate(90,488,992)"/><circle cx="544" cy="992" r="14" transform="rotate(0,544,992)"/><path d="M 614 978v 28h 14a 14 14, 0, 0, 0, 0 -28" transform="rotate(180,628,992)"/><path d="M 642 978v 28h 28v -14a 14 14, 0, 0, 0, -14 -14" transform="rotate(0,656,992)"/><path d="M 782 978v 28h 28v -14a 14 14, 0, 0, 0, -14 -14" transform="rotate(-90,796,992)"/><path d="M 810 978v 28h 28v -14a 14 14, 0, 0, 0, -14 -14" transform="rotate(90,824,992)"/><path d="M 894 978v 28h 28v -14a 14 14, 0, 0, 0, -14 -14" transform="rotate(-90,908,992)"/><rect x="922" y="978" width="28" height="28" transform="rotate(0,936,992)"/><circle cx="992" cy="992" r="14" transform="rotate(0,992,992)"/><rect x="1034" y="978" width="28" height="28" transform="rotate(0,1048,992)"/><path d="M 1062 978v 28h 28v -14a 14 14, 0, 0, 0, -14 -14" transform="rotate(90,1076,992)"/><path d="M 1118 978v 28h 14a 14 14, 0, 0, 0, 0 -28" transform="rotate(90,1132,992)"/><rect x="250" y="1006" width="28" height="28" transform="rotate(0,264,1020)"/><path d="M 278 1006v 28h 14a 14 14, 0, 0, 0, 0 -28" transform="rotate(0,292,1020)"/><path d="M 446 1006v 28h 14a 14 14, 0, 0, 0, 0 -28" transform="rotate(90,460,1020)"/><path d="M 502 1006v 28h 14a 14 14, 0, 0, 0, 0 -28" transform="rotate(-90,516,1020)"/><path d="M 558 1006v 28h 14a 14 14, 0, 0, 0, 0 -28" transform="rotate(180,572,1020)"/><path d="M 586 1006v 28h 28v -14a 14 14, 0, 0, 0, -14 -14" transform="rotate(0,600,1020)"/><rect x="642" y="1006" width="28" height="28" transform="rotate(0,656,1020)"/><path d="M 698 1006v 28h 14a 14 14, 0, 0, 0, 0 -28" transform="rotate(-90,712,1020)"/><path d="M 754 1006v 28h 14a 14 14, 0, 0, 0, 0 -28" transform="rotate(180,768,1020)"/><path d="M 782 1006v 28h 28v -14a 14 14, 0, 0, 0, -14 -14" transform="rotate(90,796,1020)"/><path d="M 894 1006v 28h 28v -14a 14 14, 0, 0, 0, -14 -14" transform="rotate(180,908,1020)"/><rect x="922" y="1006" width="28" height="28" transform="rotate(0,936,1020)"/><rect x="1034" y="1006" width="28" height="28" transform="rotate(0,1048,1020)"/><rect x="250" y="1034" width="28" height="28" transform="rotate(0,264,1048)"/><circle cx="404" cy="1048" r="14" transform="rotate(0,404,1048)"/><path d="M 474 1034v 28h 28v -14a 14 14, 0, 0, 0, -14 -14" transform="rotate(-90,488,1048)"/><rect x="502" y="1034" width="28" height="28" transform="rotate(0,516,1048)"/><path d="M 530 1034v 28h 14a 14 14, 0, 0, 0, 0 -28" transform="rotate(0,544,1048)"/><rect x="586" y="1034" width="28" height="28" transform="rotate(0,600,1048)"/><rect x="614" y="1034" width="28" height="28" transform="rotate(0,628,1048)"/><rect x="642" y="1034" width="28" height="28" transform="rotate(0,656,1048)"/><rect x="670" y="1034" width="28" height="28" transform="rotate(0,684,1048)"/><path d="M 698 1034v 28h 28v -14a 14 14, 0, 0, 0, -14 -14" transform="rotate(90,712,1048)"/><path d="M 838 1034v 28h 14a 14 14, 0, 0, 0, 0 -28" transform="rotate(-90,852,1048)"/><path d="M 922 1034v 28h 28v -14a 14 14, 0, 0, 0, -14 -14" transform="rotate(180,936,1048)"/><rect x="950" y="1034" width="28" height="28" transform="rotate(0,964,1048)"/><rect x="978" y="1034" width="28" height="28" transform="rotate(0,992,1048)"/><rect x="1006" y="1034" width="28" height="28" transform="rotate(0,1020,1048)"/><path d="M 1034 1034v 28h 28v -14a 14 14, 0, 0, 0, -14 -14" transform="rotate(90,1048,1048)"/><path d="M 1090 1034v 28h 28v -14a 14 14, 0, 0, 0, -14 -14" transform="rotate(-90,1104,1048)"/><rect x="1118" y="1034" width="28" height="28" transform="rotate(0,1132,1048)"/><path d="M 1146 1034v 28h 14a 14 14, 0, 0, 0, 0 -28" transform="rotate(0,1160,1048)"/><rect x="250" y="1062" width="28" height="28" transform="rotate(0,264,1076)"/><rect x="278" y="1062" width="28" height="28" transform="rotate(0,292,1076)"/><path d="M 306 1062v 28h 28v -14a 14 14, 0, 0, 0, -14 -14" transform="rotate(0,320,1076)"/><path d="M 418 1062v 28h 14a 14 14, 0, 0, 0, 0 -28" transform="rotate(-90,432,1076)"/><path d="M 474 1062v 28h 14a 14 14, 0, 0, 0, 0 -28" transform="rotate(90,488,1076)"/><path d="M 558 1062v 28h 14a 14 14, 0, 0, 0, 0 -28" transform="rotate(180,572,1076)"/><path d="M 586 1062v 28h 28v -14a 14 14, 0, 0, 0, -14 -14" transform="rotate(90,600,1076)"/><path d="M 670 1062v 28h 14a 14 14, 0, 0, 0, 0 -28" transform="rotate(90,684,1076)"/><path d="M 754 1062v 28h 14a 14 14, 0, 0, 0, 0 -28" transform="rotate(-90,768,1076)"/><path d="M 810 1062v 28h 28v -14a 14 14, 0, 0, 0, -14 -14" transform="rotate(-90,824,1076)"/><rect x="838" y="1062" width="28" height="28" transform="rotate(0,852,1076)"/><rect x="866" y="1062" width="28" height="28" transform="rotate(0,880,1076)"/><path d="M 894 1062v 28h 14a 14 14, 0, 0, 0, 0 -28" transform="rotate(0,908,1076)"/><rect x="950" y="1062" width="28" height="28" transform="rotate(0,964,1076)"/><rect x="1006" y="1062" width="28" height="28" transform="rotate(0,1020,1076)"/><path d="M 1062 1062v 28h 28v -14a 14 14, 0, 0, 0, -14 -14" transform="rotate(-90,1076,1076)"/><rect x="1090" y="1062" width="28" height="28" transform="rotate(0,1104,1076)"/><path d="M 1118 1062v 28h 28v -14a 14 14, 0, 0, 0, -14 -14" transform="rotate(90,1132,1076)"/><rect x="250" y="1090" width="28" height="28" transform="rotate(0,264,1104)"/><path d="M 306 1090v 28h 28v -14a 14 14, 0, 0, 0, -14 -14" transform="rotate(180,320,1104)"/><path d="M 334 1090v 28h 28v -14a 14 14, 0, 0, 0, -14 -14" transform="rotate(0,348,1104)"/><rect x="418" y="1090" width="28" height="28" transform="rotate(0,432,1104)"/><path d="M 446 1090v 28h 14a 14 14, 0, 0, 0, 0 -28" transform="rotate(0,460,1104)"/><circle cx="516" cy="1104" r="14" transform="rotate(0,516,1104)"/><path d="M 614 1090v 28h 14a 14 14, 0, 0, 0, 0 -28" transform="rotate(-90,628,1104)"/><path d="M 726 1090v 28h 14a 14 14, 0, 0, 0, 0 -28" transform="rotate(180,740,1104)"/><rect x="754" y="1090" width="28" height="28" transform="rotate(0,768,1104)"/><rect x="782" y="1090" width="28" height="28" transform="rotate(0,796,1104)"/><path d="M 810 1090v 28h 28v -14a 14 14, 0, 0, 0, -14 -14" transform="rotate(90,824,1104)"/><path d="M 922 1090v 28h 28v -14a 14 14, 0, 0, 0, -14 -14" transform="rotate(-90,936,1104)"/><rect x="950" y="1090" width="28" height="28" transform="rotate(0,964,1104)"/><rect x="978" y="1090" width="28" height="28" transform="rotate(0,992,1104)"/><rect x="1006" y="1090" width="28" height="28" transform="rotate(0,1020,1104)"/><rect x="1034" y="1090" width="28" height="28" transform="rotate(0,1048,1104)"/><rect x="1062" y="1090" width="28" height="28" transform="rotate(0,1076,1104)"/><path d="M 250 1118v 28h 14a 14 14, 0, 0, 0, 0 -28" transform="rotate(90,264,1132)"/><rect x="334" y="1118" width="28" height="28" transform="rotate(0,348,1132)"/><path d="M 390 1118v 28h 14a 14 14, 0, 0, 0, 0 -28" transform="rotate(180,404,1132)"/><path d="M 418 1118v 28h 28v -14a 14 14, 0, 0, 0, -14 -14" transform="rotate(90,432,1132)"/><circle cx="488" cy="1132" r="14" transform="rotate(0,488,1132)"/><path d="M 530 1118v 28h 14a 14 14, 0, 0, 0, 0 -28" transform="rotate(180,544,1132)"/><rect x="558" y="1118" width="28" height="28" transform="rotate(0,572,1132)"/><rect x="586" y="1118" width="28" height="28" transform="rotate(0,600,1132)"/><rect x="614" y="1118" width="28" height="28" transform="rotate(0,628,1132)"/><rect x="642" y="1118" width="28" height="28" transform="rotate(0,656,1132)"/><rect x="670" y="1118" width="28" height="28" transform="rotate(0,684,1132)"/><path d="M 698 1118v 28h 28v -14a 14 14, 0, 0, 0, -14 -14" transform="rotate(0,712,1132)"/><path d="M 866 1118v 28h 14a 14 14, 0, 0, 0, 0 -28" transform="rotate(180,880,1132)"/><rect x="894" y="1118" width="28" height="28" transform="rotate(0,908,1132)"/><path d="M 922 1118v 28h 28v -14a 14 14, 0, 0, 0, -14 -14" transform="rotate(90,936,1132)"/><rect x="978" y="1118" width="28" height="28" transform="rotate(0,992,1132)"/><rect x="1034" y="1118" width="28" height="28" transform="rotate(0,1048,1132)"/><path d="M 1062 1118v 28h 28v -14a 14 14, 0, 0, 0, -14 -14" transform="rotate(90,1076,1132)"/><circle cx="1132" cy="1132" r="14" transform="rotate(0,1132,1132)"/><path d="M 334 1146v 28h 28v -14a 14 14, 0, 0, 0, -14 -14" transform="rotate(180,348,1160)"/><path d="M 362 1146v 28h 14a 14 14, 0, 0, 0, 0 -28" transform="rotate(0,376,1160)"/><circle cx="516" cy="1160" r="14" transform="rotate(0,516,1160)"/><path d="M 586 1146v 28h 14a 14 14, 0, 0, 0, 0 -28" transform="rotate(90,600,1160)"/><path d="M 698 1146v 28h 28v -14a 14 14, 0, 0, 0, -14 -14" transform="rotate(180,712,1160)"/><rect x="726" y="1146" width="28" height="28" transform="rotate(0,740,1160)"/><rect x="754" y="1146" width="28" height="28" transform="rotate(0,768,1160)"/><rect x="782" y="1146" width="28" height="28" transform="rotate(0,796,1160)"/><rect x="810" y="1146" width="28" height="28" transform="rotate(0,824,1160)"/><path d="M 838 1146v 28h 14a 14 14, 0, 0, 0, 0 -28" transform="rotate(0,852,1160)"/><path d="M 894 1146v 28h 14a 14 14, 0, 0, 0, 0 -28" transform="rotate(90,908,1160)"/><path d="M 950 1146v 28h 14a 14 14, 0, 0, 0, 0 -28" transform="rotate(180,964,1160)"/><rect x="978" y="1146" width="28" height="28" transform="rotate(0,992,1160)"/><rect x="1006" y="1146" width="28" height="28" transform="rotate(0,1020,1160)"/><path d="M 1034 1146v 28h 28v -14a 14 14, 0, 0, 0, -14 -14" transform="rotate(90,1048,1160)"/><circle cx="1104" cy="1160" r="14" transform="rotate(0,1104,1160)"/></clipPath><clipPath id="clip-path-corners-square-color-0-0-149"><path clip-rule="evenodd" d="M 26 96v 56a 70 70, 0, 0, 0, 70 70h 56a 70 70, 0, 0, 0, 70 -70v -56a 70 70, 0, 0, 0, -70 -70h -56a 70 70, 0, 0, 0, -70 70M 96 54h 56a 42 42, 0, 0, 1, 42 42v 56a 42 42, 0, 0, 1, -42 42h -56a 42 42, 0, 0, 1, -42 -42v -56a 42 42, 0, 0, 1, 42 -42" transform="rotate(0,124,124)"/></clipPath><clipPath id="clip-path-corners-dot-color-0-0-149"><circle cx="124" cy="124" r="42" transform="rotate(0,124,124)"/></clipPath><clipPath id="clip-path-corners-square-color-1-0-149"><path clip-rule="evenodd" d="M 978 96v 56a 70 70, 0, 0, 0, 70 70h 56a 70 70, 0, 0, 0, 70 -70v -56a 70 70, 0, 0, 0, -70 -70h -56a 70 70, 0, 0, 0, -70 70M 1048 54h 56a 42 42, 0, 0, 1, 42 42v 56a 42 42, 0, 0, 1, -42 42h -56a 42 42, 0, 0, 1, -42 -42v -56a 42 42, 0, 0, 1, 42 -42" transform="rotate(90,1076,124)"/></clipPath><clipPath id="clip-path-corners-dot-color-1-0-149"><circle cx="1076" cy="124" r="42" transform="rotate(90,1076,124)"/></clipPath><clipPath id="clip-path-corners-square-color-0-1-149"><path clip-rule="evenodd" d="M 26 1048v 56a 70 70, 0, 0, 0, 70 70h 56a 70 70, 0, 0, 0, 70 -70v -56a 70 70, 0, 0, 0, -70 -70h -56a 70 70, 0, 0, 0, -70 70M 96 1006h 56a 42 42, 0, 0, 1, 42 42v 56a 42 42, 0, 0, 1, -42 42h -56a 42 42, 0, 0, 1, -42 -42v -56a 42 42, 0, 0, 1, 42 -42" transform="rotate(-90,124,1076)"/></clipPath><clipPath id="clip-path-corners-dot-color-0-1-149"><circle cx="124" cy="1076" r="42" transform="rotate(-90,124,1076)"/></clipPath></defs><rect x="0" y="0" height="1200" width="1200" clip-path="url('#clip-path-background-color-149')" fill="#ffffff"/><rect x="0" y="0" height="1200" width="1200" clip-path="url('#clip-path-dot-color-149')" fill="#000000"/><rect x="26" y="26" height="196" width="196" clip-path="url('#clip-path-corners-square-color-0-0-149')" fill="#000000"/><rect x="82" y="82" height="84" width="84" clip-path="url('#clip-path-corners-dot-color-0-0-149')" fill="#000000"/><rect x="978" y="26" height="196" width="196" clip-path="url('#clip-path-corners-square-color-1-0-149')" fill="#000000"/><rect x="1034" y="82" height="84" width="84" clip-path="url('#clip-path-corners-dot-color-1-0-149')" fill="#000000"/><rect x="26" y="978" height="196" width="196" clip-path="url('#clip-path-corners-square-color-0-1-149')" fill="#000000"/><rect x="82" y="1034" height="84" width="84" clip-path="url('#clip-path-corners-dot-color-0-1-149')" fill="#000000"/></svg>