<?xml version="1.0" standalone="no"?>
<svg xmlns="http://www.w3.org/2000/svg" width="1200" height="1200" xmlns:xlink="http://www.w3.org/1999/xlink" viewBox="0 0 1200 1200"><defs><clipPath id="clip-path-background-color-141"><rect x="0" y="0" width="1200" height="1200"/></clipPath><clipPath id="clip-path-dot-color-141"><circle cx="280" cy="24" r="16" transform="rotate(0,280,24)"/><circle cx="344" cy="24" r="16" transform="rotate(0,344,24)"/><path d="M 392 8v 32h 32v -16a 16 16, 0, 0, 0, -16 -16" transform="rotate(-90,408,24)"/><rect x="424" y="8" width="32" height="32" transform="rotate(0,440,24)"/><path d="M 456 8v 32h 32v -16a 16 16, 0, 0, 0, -16 -16" transform="rotate(0,472,24)"/><circle cx="536" cy="24" r="16" transform="rotate(0,536,24)"/><path d="M 616 8v 32h 16a 16 16, 0, 0, 0, 0 -32" transform="rotate(-90,632,24)"/><path d="M 680 8v 32h 16a 16 16, 0, 0, 0, 0 -32" transform="rotate(-90,696,24)"/><path d="M 776 8v 32h 16a 16 16, 0, 0, 0, 0 -32" transform="rotate(-90,792,24)"/><path d="M 360 40v 32h 16a 16 16, 0, 0, 0, 0 -32" transform="rotate(180,376,56)"/><path d="M 392 40v 32h 32v -16a 16 16, 0, 0, 0, -16 -16" transform="rotate(90,408,56)"/><rect x="456" y="40" width="32" height="32" transform="rotate(0,472,56)"/><path d="M 584 40v 32h 16a 16 16, 0, 0, 0, 0 -32" transform="rotate(180,600,56)"/><rect x="616" y="40" width="32" height="32" transform="rotate(0,632,56)"/><rect x="648" y="40" width="32" height="32" transform="rotate(0,664,56)"/><rect x="680" y="40" width="32" height="32" transform="rotate(0,696,56)"/><path d="M 712 40v 32h 16a 16 16, 0, 0, 0, 0 -32" transform="rotate(0,728,56)"/><path d="M 776 40v 32h 32v -16a 16 16, 0, 0, 0, -16 -16" transform="rotate(180,792,56)"/><path d="M 808 40v 32h 16a 16 16, 0, 0, 0, 0 -32" transform="rotate(0,824,56)"/><path d="M 872 40v 32h 32v -16a 16 16, 0, 0, 0, -16 -16" transform="rotate(-90,888,56)"/><path d="M 904 40v 32h 32v -16a 16 16, 0, 0, 0, -16 -16" transform="rotate(0,920,56)"/><path d="M 424 72v 32h 32v -16a 16 16, 0, 0, 0, -16 -16" transform="rotate(-90,440,88)"/><rect x="456" y="72" width="32" height="32" transform="rotate(0,472,88)"/><path d="M 488 72v 32h 16a 16 16, 0, 0, 0, 0 -32" transform="rotate(0,504,88)"/><path d="M 680 72v 32h 16a 16 16, 0, 0, 0, 0 -32" transform="rotate(90,696,88)"/><path d="M 872 72v 32h 32v -16a 16 16, 0, 0, 0, -16 -16" transform="rotate(180,888,88)"/><path d="M 904 72v 32h 32v -16a 16 16, 0, 0, 0, -16 -16" transform="rotate(90,920,88)"/><circle cx="312" cy="120" r="16" transform="rotate(0,312,120)"/><path d="M 360 104v 32h 32v -16a 16 16, 0, 0, 0, -16 -16" transform="rotate(-90,376,120)"/><rect x="392" y="104" width="32" height="32" transform="rotate(0,408,120)"/><rect x="424" y="104" width="32" height="32" transform="rotate(0,440,120)"/><path d="M 552 104v 32h 32v -16a 16 16, 0, 0, 0, -16 -16" transform="rotate(-90,568,120)"/><rect x="584" y="104" width="32" height="32" transform="rotate(0,600,120)"/><rect x="616" y="104" width="32" height="32" transform="rotate(0,632,120)"/><path d="M 648 104v 32h 32v -16a 16 16, 0, 0, 0, -16 -16" transform="rotate(0,664,120)"/><path d="M 712 104v 32h 16a 16 16, 0, 0, 0, 0 -32" transform="rotate(-90,728,120)"/><path d="M 776 104v 32h 16a 16 16, 0, 0, 0, 0 -32" transform="rotate(180,792,120)"/><rect x="808" y="104" width="32" height="32" transform="rotate(0,824,120)"/><path d="M 840 104v 32h 32v -16a 16 16, 0, 0, 0, -16 -16" transform="rotate(0,856,120)"/><path d="M 264 136v 32h 16a 16 16, 0, 0, 0, 0 -32" transform="rotate(-90,280,152)"/><path d="M 328 136v 32h 16a 16 16, 0, 0, 0, 0 -32" transform="rotate(180,344,152)"/><rect x="360" y="136" width="32" height="32" transform="rotate(0,376,152)"/><rect x="392" y="136" width="32" height="32" transform="rotate(0,408,152)"/><rect x="424" y="136" width="32" height="32" transform="rotate(0,440,152)"/><rect x="456" y="136" width="32" height="32" transform="rotate(0,472,152)"/><rect x="488" y="136" width="32" height="32" transform="rotate(0,504,152)"/><rect x="520" y="136" width="32" height="32" transform="rotate(0,536,152)"/><rect x="552" y="136" width="32" height="32" transform="rotate(0,568,152)"/><rect x="616" y="136" width="32" height="32" transform="rotate(0,632,152)"/><rect x="648" y="136" width="32" height="32" transform="rotate(0,664,152)"/><rect x="680" y="136" width="32" height="32" transform="rotate(0,696,152)"/><rect x="712" y="136" width="32" height="32" transform="rotate(0,728,152)"/><path d="M 744 136v 32h 16a 16 16, 0, 0, 0, 0 -32" transform="rotate(0,760,152)"/><rect x="840" y="136" width="32" height="32" transform="rotate(0,856,152)"/><rect x="264" y="168" width="32" height="32" transform="rotate(0,280,184)"/><path d="M 360 168v 32h 32v -16a 16 16, 0, 0, 0, -16 -16" transform="rotate(180,376,184)"/><rect x="392" y="168" width="32" height="32" transform="rotate(0,408,184)"/><path d="M 488 168v 32h 16a 16 16, 0, 0, 0, 0 -32" transform="rotate(90,504,184)"/><path d="M 552 168v 32h 32v -16a 16 16, 0, 0, 0, -16 -16" transform="rotate(180,568,184)"/><rect x="584" y="168" width="32" height="32" transform="rotate(0,600,184)"/><rect x="616" y="168" width="32" height="32" transform="rotate(0,632,184)"/><rect x="648" y="168" width="32" height="32" transform="rotate(0,664,184)"/><rect x="680" y="168" width="32" height="32" transform="rotate(0,696,184)"/><rect x="712" y="168" width="32" height="32" transform="rotate(0,728,184)"/><rect x="840" y="168" width="32" height="32" transform="rotate(0,856,184)"/><rect x="872" y="168" width="32" height="32" transform="rotate(0,888,184)"/><path d="M 904 168v 32h 32v -16a 16 16, 0, 0, 0, -16 -16" transform="rotate(0,920,184)"/><path d="M 264 200v 32h 16a 16 16, 0, 0, 0, 0 -32" transform="rotate(90,280,216)"/><circle cx="344" cy="216" r="16" transform="rotate(0,344,216)"/><rect x="392" y="200" width="32" height="32" transform="rotate(0,408,216)"/><circle cx="472" cy="216" r="16" transform="rotate(0,472,216)"/><path d="M 520 200v 32h 16a 16 16, 0, 0, 0, 0 -32" transform="rotate(-90,536,216)"/><rect x="584" y="200" width="32" height="32" transform="rotate(0,600,216)"/><path d="M 648 200v 32h 16a 16 16, 0, 0, 0, 0 -32" transform="rotate(90,664,216)"/><rect x="712" y="200" width="32" height="32" transform="rotate(0,728,216)"/><circle cx="792" cy="216" r="16" transform="rotate(0,792,216)"/><rect x="840" y="200" width="32" height="32" transform="rotate(0,856,216)"/><rect x="904" y="200" width="32" height="32" transform="rotate(0,920,216)"/><circle cx="312" cy="248" r="16" transform="rotate(0,312,248)"/><path d="M 360 232v 32h 16a 16 16, 0, 0, 0, 0 -32" transform="rotate(180,376,248)"/><rect x="392" y="232" width="32" height="32" transform="rotate(0,408,248)"/><path d="M 520 232v 32h 16a 16 16, 0, 0, 0, 0 -32" transform="rotate(90,536,248)"/><rect x="584" y="232" width="32" height="32" transform="rotate(0,600,248)"/><path d="M 616 232v 32h 16a 16 16, 0, 0, 0, 0 -32" transform="rotate(0,632,248)"/><path d="M 680 232v 32h 16a 16 16, 0, 0, 0, 0 -32" transform="rotate(180,696,248)"/><rect x="712" y="232" width="32" height="32" transform="rotate(0,728,248)"/><rect x="840" y="232" width="32" height="32" transform="rotate(0,856,248)"/><path d="M 904 232v 32h 16a 16 16, 0, 0, 0, 0 -32" transform="rotate(90,920,248)"/><path d="M 40 264v 32h 32v -16a 16 16, 0, 0, 0, -16 -16" transform="rotate(-90,56,280)"/><rect x="72" y="264" width="32" height="32" transform="rotate(0,88,280)"/><rect x="104" y="264" width="32" height="32" transform="rotate(0,120,280)"/><rect x="136" y="264" width="32" height="32" transform="rotate(0,152,280)"/><rect x="168" y="264" width="32" height="32" transform="rotate(0,184,280)"/><rect x="200" y="264" width="32" height="32" transform="rotate(0,216,280)"/><path d="M 232 264v 32h 32v -16a 16 16, 0, 0, 0, -16 -16" transform="rotate(0,248,280)"/><path d="M 392 264v 32h 16a 16 16, 0, 0, 0, 0 -32" transform="rotate(90,408,280)"/><path d="M 552 264v 32h 32v -16a 16 16, 0, 0, 0, -16 -16" transform="rotate(-90,568,280)"/><path d="M 584 264v 32h 32v -16a 16 16, 0, 0, 0, -16 -16" transform="rotate(90,600,280)"/><circle cx="664" cy="280" r="16" transform="rotate(0,664,280)"/><rect x="712" y="264" width="32" height="32" transform="rotate(0,728,280)"/><rect x="744" y="264" width="32" height="32" transform="rotate(0,760,280)"/><rect x="776" y="264" width="32" height="32" transform="rotate(0,792,280)"/><rect x="808" y="264" width="32" height="32" transform="rotate(0,824,280)"/><path d="M 840 264v 32h 32v -16a 16 16, 0, 0, 0, -16 -16" transform="rotate(90,856,280)"/><path d="M 1000 264v 32h 32v -16a 16 16, 0, 0, 0, -16 -16" transform="rotate(-90,1016,280)"/><path d="M 1032 264v 32h 16a 16 16, 0, 0, 0, 0 -32" transform="rotate(0,1048,280)"/><circle cx="1176" cy="280" r="16" transform="rotate(0,1176,280)"/><path d="M 40 296v 32h 32v -16a 16 16, 0, 0, 0, -16 -16" transform="rotate(180,56,312)"/><path d="M 72 296v 32h 32v -16a 16 16, 0, 0, 0, -16 -16" transform="rotate(90,88,312)"/><rect x="136" y="296" width="32" height="32" transform="rotate(0,152,312)"/><path d="M 232 296v 32h 32v -16a 16 16, 0, 0, 0, -16 -16" transform="rotate(180,248,312)"/><rect x="264" y="296" width="32" height="32" transform="rotate(0,280,312)"/><rect x="296" y="296" width="32" height="32" transform="rotate(0,312,312)"/><rect x="328" y="296" width="32" height="32" transform="rotate(0,344,312)"/><path d="M 360 296v 32h 16a 16 16, 0, 0, 0, 0 -32" transform="rotate(0,376,312)"/><path d="M 424 296v 32h 16a 16 16, 0, 0, 0, 0 -32" transform="rotate(-90,440,312)"/><path d="M 488 296v 32h 16a 16 16, 0, 0, 0, 0 -32" transform="rotate(180,504,312)"/><rect x="520" y="296" width="32" height="32" transform="rotate(0,536,312)"/><rect x="552" y="296" width="32" height="32" transform="rotate(0,568,312)"/><path d="M 616 296v 32h 16a 16 16, 0, 0, 0, 0 -32" transform="rotate(-90,632,312)"/><path d="M 680 296v 32h 16a 16 16, 0, 0, 0, 0 -32" transform="rotate(180,696,312)"/><rect x="712" y="296" width="32" height="32" transform="rotate(0,728,312)"/><path d="M 744 296v 32h 32v -16a 16 16, 0, 0, 0, -16 -16" transform="rotate(90,760,312)"/><rect x="808" y="296" width="32" height="32" transform="rotate(0,824,312)"/><circle cx="920" cy="312" r="16" transform="rotate(0,920,312)"/><rect x="1000" y="296" width="32" height="32" transform="rotate(0,1016,312)"/><circle cx="24" cy="344" r="16" transform="rotate(0,24,344)"/><path d="M 104 328v 32h 16a 16 16, 0, 0, 0, 0 -32" transform="rotate(180,120,344)"/><path d="M 136 328v 32h 32v -16a 16 16, 0, 0, 0, -16 -16" transform="rotate(90,152,344)"/><circle cx="216" cy="344" r="16" transform="rotate(0,216,344)"/><rect x="264" y="328" width="32" height="32" transform="rotate(0,280,344)"/><rect x="424" y="328" width="32" height="32" transform="rotate(0,440,344)"/><rect x="552" y="328" width="32" height="32" transform="rotate(0,568,344)"/><rect x="584" y="328" width="32" height="32" transform="rotate(0,600,344)"/><rect x="616" y="328" width="32" height="32" transform="rotate(0,632,344)"/><path d="M 648 328v 32h 32v -16a 16 16, 0, 0, 0, -16 -16" transform="rotate(0,664,344)"/><path d="M 808 328v 32h 32v -16a 16 16, 0, 0, 0, -16 -16" transform="rotate(180,824,344)"/><rect x="840" y="328" width="32" height="32" transform="rotate(0,856,344)"/><path d="M 872 328v 32h 32v -16a 16 16, 0, 0, 0, -16 -16" transform="rotate(0,888,344)"/><path d="M 968 328v 32h 32v -16a 16 16, 0, 0, 0, -16 -16" transform="rotate(-90,984,344)"/><rect x="1000" y="328" width="32" height="32" transform="rotate(0,1016,344)"/><path d="M 1032 328v 32h 32v -16a 16 16, 0, 0, 0, -16 -16" transform="rotate(0,1048,344)"/><path d="M 1128 328v 32h 32v -16a 16 16, 0, 0, 0, -16 -16" transform="rotate(-90,1144,344)"/><path d="M 1160 328v 32h 16a 16 16, 0, 0, 0, 0 -32" transform="rotate(0,1176,344)"/><path d="M 40 360v 32h 16a 16 16, 0, 0, 0, 0 -32" transform="rotate(-90,56,376)"/><rect x="264" y="360" width="32" height="32" transform="rotate(0,280,376)"/><path d="M 392 360v 32h 32v -16a 16 16, 0, 0, 0, -16 -16" transform="rotate(-90,408,376)"/><rect x="424" y="360" width="32" height="32" transform="rotate(0,440,376)"/><rect x="456" y="360" width="32" height="32" transform="rotate(0,472,376)"/><path d="M 488 360v 32h 32v -16a 16 16, 0, 0, 0, -16 -16" transform="rotate(0,504,376)"/><path d="M 552 360v 32h 32v -16a 16 16, 0, 0, 0, -16 -16" transform="rotate(180,568,376)"/><rect x="584" y="360" width="32" height="32" transform="rotate(0,600,376)"/><rect x="648" y="360" width="32" height="32" transform="rotate(0,664,376)"/><path d="M 680 360v 32h 16a 16 16, 0, 0, 0, 0 -32" transform="rotate(0,696,376)"/><path d="M 744 360v 32h 16a 16 16, 0, 0, 0, 0 -32" transform="rotate(180,760,376)"/><path d="M 776 360v 32h 16a 16 16, 0, 0, 0, 0 -32" transform="rotate(0,792,376)"/><rect x="840" y="360" width="32" height="32" transform="rotate(0,856,376)"/><rect x="872" y="360" width="32" height="32" transform="rotate(0,888,376)"/><path d="M 904 360v 32h 32v -16a 16 16, 0, 0, 0, -16 -16" transform="rotate(0,920,376)"/><rect x="968" y="360" width="32" height="32" transform="rotate(0,984,376)"/><rect x="1000" y="360" width="32" height="32" transform="rotate(0,1016,376)"/><rect x="1032" y="360" width="32" height="32" transform="rotate(0,1048,376)"/><path d="M 1064 360v 32h 32v -16a 16 16, 0, 0, 0, -16 -16" transform="rotate(0,1080,376)"/><path d="M 1128 360v 32h 16a 16 16, 0, 0, 0, 0 -32" transform="rotate(90,1144,376)"/><path d="M 8 392v 32h 16a 16 16, 0, 0, 0, 0 -32" transform="rotate(180,24,408)"/><rect x="40" y="392" width="32" height="32" transform="rotate(0,56,408)"/><circle cx="216" cy="408" r="16" transform="rotate(0,216,408)"/><path d="M 264 392v 32h 16a 16 16, 0, 0, 0, 0 -32" transform="rotate(90,280,408)"/><path d="M 328 392v 32h 16a 16 16, 0, 0, 0, 0 -32" transform="rotate(180,344,408)"/><rect x="360" y="392" width="32" height="32" transform="rotate(0,376,408)"/><path d="M 392 392v 32h 32v -16a 16 16, 0, 0, 0, -16 -16" transform="rotate(90,408,408)"/><path d="M 456 392v 32h 32v -16a 16 16, 0, 0, 0, -16 -16" transform="rotate(180,472,408)"/><path d="M 488 392v 32h 32v -16a 16 16, 0, 0, 0, -16 -16" transform="rotate(90,504,408)"/><path d="M 584 392v 32h 16a 16 16, 0, 0, 0, 0 -32" transform="rotate(90,600,408)"/><rect x="648" y="392" width="32" height="32" transform="rotate(0,664,408)"/><path d="M 712 392v 32h 16a 16 16, 0, 0, 0, 0 -32" transform="rotate(-90,728,408)"/><path d="M 808 392v 32h 32v -16a 16 16, 0, 0, 0, -16 -16" transform="rotate(-90,824,408)"/><path d="M 840 392v 32h 32v -16a 16 16, 0, 0, 0, -16 -16" transform="rotate(90,856,408)"/><rect x="904" y="392" width="32" height="32" transform="rotate(0,920,408)"/><rect x="936" y="392" width="32" height="32" transform="rotate(0,952,408)"/><path d="M 968 392v 32h 32v -16a 16 16, 0, 0, 0, -16 -16" transform="rotate(90,984,408)"/><path d="M 1032 392v 32h 32v -16a 16 16, 0, 0, 0, -16 -16" transform="rotate(180,1048,408)"/><rect x="1064" y="392" width="32" height="32" transform="rotate(0,1080,408)"/><path d="M 1096 392v 32h 32v -16a 16 16, 0, 0, 0, -16 -16" transform="rotate(0,1112,408)"/><circle cx="1176" cy="408" r="16" transform="rotate(0,1176,408)"/><path d="M 40 424v 32h 32v -16a 16 16, 0, 0, 0, -16 -16" transform="rotate(180,56,440)"/><path d="M 72 424v 32h 32v -16a 16 16, 0, 0, 0, -16 -16" transform="rotate(0,88,440)"/><path d="M 168 424v 32h 16a 16 16, 0, 0, 0, 0 -32" transform="rotate(-90,184,440)"/><path d="M 616 424v 32h 32v -16a 16 16, 0, 0, 0, -16 -16" transform="rotate(-90,632,440)"/><path d="M 648 424v 32h 32v -16a 16 16, 0, 0, 0, -16 -16" transform="rotate(90,664,440)"/><rect x="712" y="424" width="32" height="32" transform="rotate(0,728,440)"/><path d="M 744 424v 32h 16a 16 16, 0, 0, 0, 0 -32" transform="rotate(0,760,440)"/><rect x="808" y="424" width="32" height="32" transform="rotate(0,824,440)"/><rect x="904" y="424" width="32" height="32" transform="rotate(0,920,440)"/><rect x="936" y="424" width="32" height="32" transform="rotate(0,952,440)"/><rect x="1064" y="424" width="32" height="32" transform="rotate(0,1080,440)"/><path d="M 1096 424v 32h 32v -16a 16 16, 0, 0, 0, -16 -16" transform="rotate(90,1112,440)"/><circle cx="24" cy="472" r="16" transform="rotate(0,24,472)"/><path d="M 72 456v 32h 16a 16 16, 0, 0, 0, 0 -32" transform="rotate(90,88,472)"/><rect x="168" y="456" width="32" height="32" transform="rotate(0,184,472)"/><path d="M 200 456v 32h 16a 16 16, 0, 0, 0, 0 -32" transform="rotate(0,216,472)"/><path d="M 264 456v 32h 32v -16a 16 16, 0, 0, 0, -16 -16" transform="rotate(-90,280,472)"/><path d="M 296 456v 32h 32v -16a 16 16, 0, 0, 0, -16 -16" transform="rotate(0,312,472)"/><path d="M 360 456v 32h 16a 16 16, 0, 0, 0, 0 -32" transform="rotate(-90,376,472)"/><path d="M 456 456v 32h 32v -16a 16 16, 0, 0, 0, -16 -16" transform="rotate(-90,472,472)"/><rect x="488" y="456" width="32" height="32" transform="rotate(0,504,472)"/><path d="M 520 456v 32h 16a 16 16, 0, 0, 0, 0 -32" transform="rotate(0,536,472)"/><path d="M 584 456v 32h 32v -16a 16 16, 0, 0, 0, -16 -16" transform="rotate(-90,600,472)"/><path d="M 616 456v 32h 32v -16a 16 16, 0, 0, 0, -16 -16" transform="rotate(90,632,472)"/><path d="M 712 456v 32h 16a 16 16, 0, 0, 0, 0 -32" transform="rotate(90,728,472)"/><path d="M 776 456v 32h 16a 16 16, 0, 0, 0, 0 -32" transform="rotate(180,792,472)"/><rect x="808" y="456" width="32" height="32" transform="rotate(0,824,472)"/><rect x="840" y="456" width="32" height="32" transform="rotate(0,856,472)"/><rect x="872" y="456" width="32" height="32" transform="rotate(0,888,472)"/><rect x="904" y="456" width="32" height="32" transform="rotate(0,920,472)"/><path d="M 936 456v 32h 32v -16a 16 16, 0, 0, 0, -16 -16" transform="rotate(90,952,472)"/><path d="M 1064 456v 32h 16a 16 16, 0, 0, 0, 0 -32" transform="rotate(90,1080,472)"/><path d="M 1128 456v 32h 32v -16a 16 16, 0, 0, 0, -16 -16" transform="rotate(-90,1144,472)"/><path d="M 1160 456v 32h 32v -16a 16 16, 0, 0, 0, -16 -16" transform="rotate(0,1176,472)"/><rect x="168" y="488" width="32" height="32" transform="rotate(0,184,504)"/><path d="M 232 488v 32h 16a 16 16, 0, 0, 0, 0 -32" transform="rotate(180,248,504)"/><rect x="264" y="488" width="32" height="32" transform="rotate(0,280,504)"/><rect x="296" y="488" width="32" height="32" transform="rotate(0,312,504)"/><rect x="360" y="488" width="32" height="32" transform="rotate(0,376,504)"/><rect x="456" y="488" width="32" height="32" transform="rotate(0,472,504)"/><path d="M 488 488v 32h 32v -16a 16 16, 0, 0, 0, -16 -16" transform="rotate(90,504,504)"/><path d="M 552 488v 32h 32v -16a 16 16, 0, 0, 0, -16 -16" transform="rotate(-90,568,504)"/><path d="M 584 488v 32h 32v -16a 16 16, 0, 0, 0, -16 -16" transform="rotate(90,600,504)"/><circle cx="664" cy="504" r="16" transform="rotate(0,664,504)"/><rect x="840" y="488" width="32" height="32" transform="rotate(0,856,504)"/><path d="M 904 488v 32h 16a 16 16, 0, 0, 0, 0 -32" transform="rotate(90,920,504)"/><circle cx="1016" cy="504" r="16" transform="rotate(0,1016,504)"/><rect x="1128" y="488" width="32" height="32" transform="rotate(0,1144,504)"/><rect x="1160" y="488" width="32" height="32" transform="rotate(0,1176,504)"/><path d="M 72 520v 32h 16a 16 16, 0, 0, 0, 0 -32" transform="rotate(-90,88,536)"/><rect x="168" y="520" width="32" height="32" transform="rotate(0,184,536)"/><path d="M 200 520v 32h 16a 16 16, 0, 0, 0, 0 -32" transform="rotate(0,216,536)"/><rect x="264" y="520" width="32" height="32" transform="rotate(0,280,536)"/><rect x="296" y="520" width="32" height="32" transform="rotate(0,312,536)"/><rect x="328" y="520" width="32" height="32" transform="rotate(0,344,536)"/><rect x="360" y="520" width="32" height="32" transform="rotate(0,376,536)"/><path d="M 392 520v 32h 16a 16 16, 0, 0, 0, 0 -32" transform="rotate(0,408,536)"/><path d="M 456 520v 32h 16a 16 16, 0, 0, 0, 0 -32" transform="rotate(90,472,536)"/><path d="M 552 520v 32h 16a 16 16, 0, 0, 0, 0 -32" transform="rotate(90,568,536)"/><circle cx="632" cy="536" r="16" transform="rotate(0,632,536)"/><path d="M 680 520v 32h 32v -16a 16 16, 0, 0, 0, -16 -16" transform="rotate(-90,696,536)"/><rect x="712" y="520" width="32" height="32" transform="rotate(0,728,536)"/><rect x="744" y="520" width="32" height="32" transform="rotate(0,760,536)"/><rect x="776" y="520" width="32" height="32" transform="rotate(0,792,536)"/><rect x="808" y="520" width="32" height="32" transform="rotate(0,824,536)"/><path d="M 840 520v 32h 32v -16a 16 16, 0, 0, 0, -16 -16" transform="rotate(90,856,536)"/><path d="M 936 520v 32h 16a 16 16, 0, 0, 0, 0 -32" transform="rotate(180,952,536)"/><path d="M 968 520v 32h 16a 16 16, 0, 0, 0, 0 -32" transform="rotate(0,984,536)"/><circle cx="1048" cy="536" r="16" transform="rotate(0,1048,536)"/><path d="M 1096 520v 32h 16a 16 16, 0, 0, 0, 0 -32" transform="rotate(180,1112,536)"/><rect x="1128" y="520" width="32" height="32" transform="rotate(0,1144,536)"/><path d="M 1160 520v 32h 32v -16a 16 16, 0, 0, 0, -16 -16" transform="rotate(90,1176,536)"/><rect x="72" y="552" width="32" height="32" transform="rotate(0,88,568)"/><path d="M 136 552v 32h 16a 16 16, 0, 0, 0, 0 -32" transform="rotate(180,152,568)"/><path d="M 168 552v 32h 32v -16a 16 16, 0, 0, 0, -16 -16" transform="rotate(90,184,568)"/><path d="M 232 552v 32h 16a 16 16, 0, 0, 0, 0 -32" transform="rotate(180,248,568)"/><rect x="264" y="552" width="32" height="32" transform="rotate(0,280,568)"/><path d="M 296 552v 32h 32v -16a 16 16, 0, 0, 0, -16 -16" transform="rotate(90,312,568)"/><circle cx="600" cy="568" r="16" transform="rotate(0,600,568)"/><path d="M 648 552v 32h 32v -16a 16 16, 0, 0, 0, -16 -16" transform="rotate(-90,664,568)"/><rect x="680" y="552" width="32" height="32" transform="rotate(0,696,568)"/><path d="M 744 552v 32h 16a 16 16, 0, 0, 0, 0 -32" transform="rotate(90,760,568)"/><path d="M 904 552v 32h 16a 16 16, 0, 0, 0, 0 -32" transform="rotate(-90,920,568)"/><rect x="72" y="584" width="32" height="32" transform="rotate(0,88,600)"/><circle cx="216" cy="600" r="16" transform="rotate(0,216,600)"/><path d="M 264 584v 32h 16a 16 16, 0, 0, 0, 0 -32" transform="rotate(90,280,600)"/><path d="M 328 584v 32h 16a 16 16, 0, 0, 0, 0 -32" transform="rotate(180,344,600)"/><rect x="360" y="584" width="32" height="32" transform="rotate(0,376,600)"/><path d="M 392 584v 32h 32v -16a 16 16, 0, 0, 0, -16 -16" transform="rotate(0,408,600)"/><path d="M 488 584v 32h 32v -16a 16 16, 0, 0, 0, -16 -16" transform="rotate(-90,504,600)"/><rect x="520" y="584" width="32" height="32" transform="rotate(0,536,600)"/><path d="M 552 584v 32h 32v -16a 16 16, 0, 0, 0, -16 -16" transform="rotate(0,568,600)"/><path d="M 648 584v 32h 32v -16a 16 16, 0, 0, 0, -16 -16" transform="rotate(180,664,600)"/><rect x="680" y="584" width="32" height="32" transform="rotate(0,696,600)"/><path d="M 712 584v 32h 32v -16a 16 16, 0, 0, 0, -16 -16" transform="rotate(0,728,600)"/><path d="M 872 584v 32h 16a 16 16, 0, 0, 0, 0 -32" transform="rotate(180,888,600)"/><rect x="904" y="584" width="32" height="32" transform="rotate(0,920,600)"/><path d="M 936 584v 32h 32v -16a 16 16, 0, 0, 0, -16 -16" transform="rotate(0,952,600)"/><circle cx="1016" cy="600" r="16" transform="rotate(0,1016,600)"/><path d="M 1064 584v 32h 16a 16 16, 0, 0, 0, 0 -32" transform="rotate(180,1080,600)"/><rect x="1096" y="584" width="32" height="32" transform="rotate(0,1112,600)"/><rect x="1128" y="584" width="32" height="32" transform="rotate(0,1144,600)"/><path d="M 1160 584v 32h 32v -16a 16 16, 0, 0, 0, -16 -16" transform="rotate(0,1176,600)"/><path d="M 40 616v 32h 32v -16a 16 16, 0, 0, 0, -16 -16" transform="rotate(-90,56,632)"/><path d="M 72 616v 32h 32v -16a 16 16, 0, 0, 0, -16 -16" transform="rotate(90,88,632)"/><path d="M 136 616v 32h 32v -16a 16 16, 0, 0, 0, -16 -16" transform="rotate(-90,152,632)"/><path d="M 168 616v 32h 32v -16a 16 16, 0, 0, 0, -16 -16" transform="rotate(0,184,632)"/><path d="M 232 616v 32h 16a 16 16, 0, 0, 0, 0 -32" transform="rotate(-90,248,632)"/><path d="M 296 616v 32h 16a 16 16, 0, 0, 0, 0 -32" transform="rotate(-90,312,632)"/><rect x="360" y="616" width="32" height="32" transform="rotate(0,376,632)"/><rect x="392" y="616" width="32" height="32" transform="rotate(0,408,632)"/><rect x="424" y="616" width="32" height="32" transform="rotate(0,440,632)"/><rect x="456" y="616" width="32" height="32" transform="rotate(0,472,632)"/><rect x="488" y="616" width="32" height="32" transform="rotate(0,504,632)"/><rect x="520" y="616" width="32" height="32" transform="rotate(0,536,632)"/><rect x="552" y="616" width="32" height="32" transform="rotate(0,568,632)"/><path d="M 584 616v 32h 32v -16a 16 16, 0, 0, 0, -16 -16" transform="rotate(0,600,632)"/><path d="M 680 616v 32h 32v -16a 16 16, 0, 0, 0, -16 -16" transform="rotate(180,696,632)"/><rect x="712" y="616" width="32" height="32" transform="rotate(0,728,632)"/><path d="M 776 616v 32h 16a 16 16, 0, 0, 0, 0 -32" transform="rotate(-90,792,632)"/><path d="M 904 616v 32h 32v -16a 16 16, 0, 0, 0, -16 -16" transform="rotate(180,920,632)"/><rect x="936" y="616" width="32" height="32" transform="rotate(0,952,632)"/><path d="M 968 616v 32h 32v -16a 16 16, 0, 0, 0, -16 -16" transform="rotate(0,984,632)"/><path d="M 1032 616v 32h 16a 16 16, 0, 0, 0, 0 -32" transform="rotate(-90,1048,632)"/><path d="M 1128 616v 32h 32v -16a 16 16, 0, 0, 0, -16 -16" transform="rotate(180,1144,632)"/><path d="M 1160 616v 32h 32v -16a 16 16, 0, 0, 0, -16 -16" transform="rotate(90,1176,632)"/><path d="M 8 648v 32h 32v -16a 16 16, 0, 0, 0, -16 -16" transform="rotate(-90,24,664)"/><rect x="40" y="648" width="32" height="32" transform="rotate(0,56,664)"/><rect x="136" y="648" width="32" height="32" transform="rotate(0,152,664)"/><rect x="168" y="648" width="32" height="32" transform="rotate(0,184,664)"/><rect x="200" y="648" width="32" height="32" transform="rotate(0,216,664)"/><path d="M 232 648v 32h 32v -16a 16 16, 0, 0, 0, -16 -16" transform="rotate(90,248,664)"/><rect x="296" y="648" width="32" height="32" transform="rotate(0,312,664)"/><rect x="328" y="648" width="32" height="32" transform="rotate(0,344,664)"/><rect x="360" y="648" width="32" height="32" transform="rotate(0,376,664)"/><rect x="424" y="648" width="32" height="32" transform="rotate(0,440,664)"/><path d="M 488 648v 32h 16a 16 16, 0, 0, 0, 0 -32" transform="rotate(90,504,664)"/><rect x="552" y="648" width="32" height="32" transform="rotate(0,568,664)"/><rect x="584" y="648" width="32" height="32" transform="rotate(0,600,664)"/><rect x="712" y="648" width="32" height="32" transform="rotate(0,728,664)"/><rect x="776" y="648" width="32" height="32" transform="rotate(0,792,664)"/><rect x="808" y="648" width="32" height="32" transform="rotate(0,824,664)"/><path d="M 840 648v 32h 32v -16a 16 16, 0, 0, 0, -16 -16" transform="rotate(0,856,664)"/><path d="M 936 648v 32h 32v -16a 16 16, 0, 0, 0, -16 -16" transform="rotate(180,952,664)"/><rect x="968" y="648" width="32" height="32" transform="rotate(0,984,664)"/><rect x="1000" y="648" width="32" height="32" transform="rotate(0,1016,664)"/><rect x="1032" y="648" width="32" height="32" transform="rotate(0,1048,664)"/><rect x="1064" y="648" width="32" height="32" transform="rotate(0,1080,664)"/><path d="M 1096 648v 32h 16a 16 16, 0, 0, 0, 0 -32" transform="rotate(0,1112,664)"/><rect x="8" y="680" width="32" height="32" transform="rotate(0,24,696)"/><path d="M 40 680v 32h 32v -16a 16 16, 0, 0, 0, -16 -16" transform="rotate(90,56,696)"/><rect x="136" y="680" width="32" height="32" transform="rotate(0,152,696)"/><path d="M 264 680v 32h 32v -16a 16 16, 0, 0, 0, -16 -16" transform="rotate(-90,280,696)"/><rect x="296" y="680" width="32" height="32" transform="rotate(0,312,696)"/><path d="M 360 680v 32h 32v -16a 16 16, 0, 0, 0, -16 -16" transform="rotate(180,376,696)"/><rect x="392" y="680" width="32" height="32" transform="rotate(0,408,696)"/><path d="M 424 680v 32h 32v -16a 16 16, 0, 0, 0, -16 -16" transform="rotate(90,440,696)"/><path d="M 552 680v 32h 32v -16a 16 16, 0, 0, 0, -16 -16" transform="rotate(180,568,696)"/><rect x="584" y="680" width="32" height="32" transform="rotate(0,600,696)"/><path d="M 616 680v 32h 32v -16a 16 16, 0, 0, 0, -16 -16" transform="rotate(0,632,696)"/><path d="M 680 680v 32h 16a 16 16, 0, 0, 0, 0 -32" transform="rotate(180,696,696)"/><rect x="712" y="680" width="32" height="32" transform="rotate(0,728,696)"/><rect x="744" y="680" width="32" height="32" transform="rotate(0,760,696)"/><rect x="776" y="680" width="32" height="32" transform="rotate(0,792,696)"/><rect x="808" y="680" width="32" height="32" transform="rotate(0,824,696)"/><path d="M 840 680v 32h 32v -16a 16 16, 0, 0, 0, -16 -16" transform="rotate(90,856,696)"/><path d="M 1000 680v 32h 16a 16 16, 0, 0, 0, 0 -32" transform="rotate(90,1016,696)"/><path d="M 1064 680v 32h 16a 16 16, 0, 0, 0, 0 -32" transform="rotate(90,1080,696)"/><path d="M 8 712v 32h 16a 16 16, 0, 0, 0, 0 -32" transform="rotate(90,24,728)"/><rect x="136" y="712" width="32" height="32" transform="rotate(0,152,728)"/><path d="M 200 712v 32h 16a 16 16, 0, 0, 0, 0 -32" transform="rotate(180,216,728)"/><rect x="232" y="712" width="32" height="32" transform="rotate(0,248,728)"/><rect x="264" y="712" width="32" height="32" transform="rotate(0,280,728)"/><path d="M 296 712v 32h 32v -16a 16 16, 0, 0, 0, -16 -16" transform="rotate(90,312,728)"/><path d="M 456 712v 32h 16a 16 16, 0, 0, 0, 0 -32" transform="rotate(180,472,728)"/><rect x="488" y="712" width="32" height="32" transform="rotate(0,504,728)"/><path d="M 520 712v 32h 32v -16a 16 16, 0, 0, 0, -16 -16" transform="rotate(0,536,728)"/><path d="M 616 712v 32h 32v -16a 16 16, 0, 0, 0, -16 -16" transform="rotate(180,632,728)"/><path d="M 648 712v 32h 16a 16 16, 0, 0, 0, 0 -32" transform="rotate(0,664,728)"/><circle cx="888" cy="728" r="16" transform="rotate(0,888,728)"/><circle cx="984" cy="728" r="16" transform="rotate(0,984,728)"/><path d="M 1128 712v 32h 16a 16 16, 0, 0, 0, 0 -32" transform="rotate(180,1144,728)"/><path d="M 1160 712v 32h 32v -16a 16 16, 0, 0, 0, -16 -16" transform="rotate(0,1176,728)"/><path d="M 72 744v 32h 32v -16a 16 16, 0, 0, 0, -16 -16" transform="rotate(-90,88,760)"/><rect x="104" y="744" width="32" height="32" transform="rotate(0,120,760)"/><rect x="136" y="744" width="32" height="32" transform="rotate(0,152,760)"/><path d="M 168 744v 32h 32v -16a 16 16, 0, 0, 0, -16 -16" transform="rotate(0,184,760)"/><circle cx="344" cy="760" r="16" transform="rotate(0,344,760)"/><circle cx="408" cy="760" r="16" transform="rotate(0,408,760)"/><path d="M 520 744v 32h 16a 16 16, 0, 0, 0, 0 -32" transform="rotate(90,536,760)"/><circle cx="696" cy="760" r="16" transform="rotate(0,696,760)"/><circle cx="1016" cy="760" r="16" transform="rotate(0,1016,760)"/><rect x="1160" y="744" width="32" height="32" transform="rotate(0,1176,760)"/><path d="M 8 776v 32h 16a 16 16, 0, 0, 0, 0 -32" transform="rotate(-90,24,792)"/><path d="M 72 776v 32h 16a 16 16, 0, 0, 0, 0 -32" transform="rotate(90,88,792)"/><path d="M 168 776v 32h 32v -16a 16 16, 0, 0, 0, -16 -16" transform="rotate(180,184,792)"/><rect x="200" y="776" width="32" height="32" transform="rotate(0,216,792)"/><path d="M 232 776v 32h 16a 16 16, 0, 0, 0, 0 -32" transform="rotate(0,248,792)"/><circle cx="312" cy="792" r="16" transform="rotate(0,312,792)"/><path d="M 360 776v 32h 16a 16 16, 0, 0, 0, 0 -32" transform="rotate(-90,376,792)"/><path d="M 456 776v 32h 16a 16 16, 0, 0, 0, 0 -32" transform="rotate(-90,472,792)"/><path d="M 552 776v 32h 16a 16 16, 0, 0, 0, 0 -32" transform="rotate(180,568,792)"/><path d="M 584 776v 32h 32v -16a 16 16, 0, 0, 0, -16 -16" transform="rotate(0,600,792)"/><path d="M 712 776v 32h 16a 16 16, 0, 0, 0, 0 -32" transform="rotate(-90,728,792)"/><path d="M 808 776v 32h 16a 16 16, 0, 0, 0, 0 -32" transform="rotate(180,824,792)"/><path d="M 840 776v 32h 16a 16 16, 0, 0, 0, 0 -32" transform="rotate(0,856,792)"/><path d="M 936 776v 32h 16a 16 16, 0, 0, 0, 0 -32" transform="rotate(180,952,792)"/><path d="M 968 776v 32h 16a 16 16, 0, 0, 0, 0 -32" transform="rotate(0,984,792)"/><circle cx="1048" cy="792" r="16" transform="rotate(0,1048,792)"/><path d="M 1096 776v 32h 32v -16a 16 16, 0, 0, 0, -16 -16" transform="rotate(-90,1112,792)"/><rect x="1128" y="776" width="32" height="32" transform="rotate(0,1144,792)"/><path d="M 1160 776v 32h 32v -16a 16 16, 0, 0, 0, -16 -16" transform="rotate(90,1176,792)"/><rect x="8" y="808" width="32" height="32" transform="rotate(0,24,824)"/><path d="M 104 808v 32h 16a 16 16, 0, 0, 0, 0 -32" transform="rotate(-90,120,824)"/><rect x="360" y="808" width="32" height="32" transform="rotate(0,376,824)"/><path d="M 456 808v 32h 16a 16 16, 0, 0, 0, 0 -32" transform="rotate(90,472,824)"/><path d="M 520 808v 32h 16a 16 16, 0, 0, 0, 0 -32" transform="rotate(-90,536,824)"/><rect x="584" y="808" width="32" height="32" transform="rotate(0,600,824)"/><path d="M 616 808v 32h 32v -16a 16 16, 0, 0, 0, -16 -16" transform="rotate(0,632,824)"/><path d="M 680 808v 32h 16a 16 16, 0, 0, 0, 0 -32" transform="rotate(180,696,824)"/><rect x="712" y="808" width="32" height="32" transform="rotate(0,728,824)"/><path d="M 744 808v 32h 16a 16 16, 0, 0, 0, 0 -32" transform="rotate(0,760,824)"/><circle cx="920" cy="824" r="16" transform="rotate(0,920,824)"/><circle cx="1016" cy="824" r="16" transform="rotate(0,1016,824)"/><path d="M 1096 808v 32h 16a 16 16, 0, 0, 0, 0 -32" transform="rotate(90,1112,824)"/><rect x="8" y="840" width="32" height="32" transform="rotate(0,24,856)"/><path d="M 72 840v 32h 32v -16a 16 16, 0, 0, 0, -16 -16" transform="rotate(-90,88,856)"/><path d="M 104 840v 32h 32v -16a 16 16, 0, 0, 0, -16 -16" transform="rotate(90,120,856)"/><circle cx="216" cy="856" r="16" transform="rotate(0,216,856)"/><path d="M 328 840v 32h 32v -16a 16 16, 0, 0, 0, -16 -16" transform="rotate(-90,344,856)"/><path d="M 360 840v 32h 32v -16a 16 16, 0, 0, 0, -16 -16" transform="rotate(90,376,856)"/><path d="M 424 840v 32h 16a 16 16, 0, 0, 0, 0 -32" transform="rotate(-90,440,856)"/><path d="M 520 840v 32h 32v -16a 16 16, 0, 0, 0, -16 -16" transform="rotate(180,536,856)"/><rect x="552" y="840" width="32" height="32" transform="rotate(0,568,856)"/><rect x="584" y="840" width="32" height="32" transform="rotate(0,600,856)"/><rect x="616" y="840" width="32" height="32" transform="rotate(0,632,856)"/><path d="M 776 840v 32h 16a 16 16, 0, 0, 0, 0 -32" transform="rotate(180,792,856)"/><path d="M 808 840v 32h 16a 16 16, 0, 0, 0, 0 -32" transform="rotate(0,824,856)"/><circle cx="888" cy="856" r="16" transform="rotate(0,888,856)"/><circle cx="984" cy="856" r="16" transform="rotate(0,984,856)"/><circle cx="1048" cy="856" r="16" transform="rotate(0,1048,856)"/><path d="M 1128 840v 32h 16a 16 16, 0, 0, 0, 0 -32" transform="rotate(180,1144,856)"/><path d="M 1160 840v 32h 32v -16a 16 16, 0, 0, 0, -16 -16" transform="rotate(0,1176,856)"/><rect x="8" y="872" width="32" height="32" transform="rotate(0,24,888)"/><rect x="72" y="872" width="32" height="32" transform="rotate(0,88,888)"/><path d="M 136 872v 32h 16a 16 16, 0, 0, 0, 0 -32" transform="rotate(-90,152,888)"/><path d="M 232 872v 32h 32v -16a 16 16, 0, 0, 0, -16 -16" transform="rotate(-90,248,888)"/><rect x="264" y="872" width="32" height="32" transform="rotate(0,280,888)"/><rect x="296" y="872" width="32" height="32" transform="rotate(0,312,888)"/><rect x="328" y="872" width="32" height="32" transform="rotate(0,344,888)"/><path d="M 392 872v 32h 16a 16 16, 0, 0, 0, 0 -32" transform="rotate(180,408,888)"/><rect x="424" y="872" width="32" height="32" transform="rotate(0,440,888)"/><path d="M 488 872v 32h 16a 16 16, 0, 0, 0, 0 -32" transform="rotate(-90,504,888)"/><path d="M 584 872v 32h 32v -16a 16 16, 0, 0, 0, -16 -16" transform="rotate(180,600,888)"/><path d="M 616 872v 32h 32v -16a 16 16, 0, 0, 0, -16 -16" transform="rotate(90,632,888)"/><circle cx="696" cy="888" r="16" transform="rotate(0,696,888)"/><path d="M 744 872v 32h 16a 16 16, 0, 0, 0, 0 -32" transform="rotate(-90,760,888)"/><path d="M 840 872v 32h 16a 16 16, 0, 0, 0, 0 -32" transform="rotate(-90,856,888)"/><path d="M 936 872v 32h 16a 16 16, 0, 0, 0, 0 -32" transform="rotate(-90,952,888)"/><rect x="1160" y="872" width="32" height="32" transform="rotate(0,1176,888)"/><path d="M 8 904v 32h 16a 16 16, 0, 0, 0, 0 -32" transform="rotate(90,24,920)"/><path d="M 72 904v 32h 32v -16a 16 16, 0, 0, 0, -16 -16" transform="rotate(180,88,920)"/><rect x="104" y="904" width="32" height="32" transform="rotate(0,120,920)"/><rect x="136" y="904" width="32" height="32" transform="rotate(0,152,920)"/><rect x="168" y="904" width="32" height="32" transform="rotate(0,184,920)"/><rect x="200" y="904" width="32" height="32" transform="rotate(0,216,920)"/><path d="M 232 904v 32h 32v -16a 16 16, 0, 0, 0, -16 -16" transform="rotate(90,248,920)"/><rect x="328" y="904" width="32" height="32" transform="rotate(0,344,920)"/><path d="M 360 904v 32h 16a 16 16, 0, 0, 0, 0 -32" transform="rotate(0,376,920)"/><path d="M 424 904v 32h 16a 16 16, 0, 0, 0, 0 -32" transform="rotate(90,440,920)"/><rect x="488" y="904" width="32" height="32" transform="rotate(0,504,920)"/><path d="M 520 904v 32h 16a 16 16, 0, 0, 0, 0 -32" transform="rotate(0,536,920)"/><path d="M 712 904v 32h 16a 16 16, 0, 0, 0, 0 -32" transform="rotate(180,728,920)"/><rect x="744" y="904" width="32" height="32" transform="rotate(0,760,920)"/><rect x="776" y="904" width="32" height="32" transform="rotate(0,792,920)"/><rect x="808" y="904" width="32" height="32" transform="rotate(0,824,920)"/><rect x="840" y="904" width="32" height="32" transform="rotate(0,856,920)"/><rect x="872" y="904" width="32" height="32" transform="rotate(0,888,920)"/><rect x="904" y="904" width="32" height="32" transform="rotate(0,920,920)"/><rect x="936" y="904" width="32" height="32" transform="rotate(0,952,920)"/><rect x="968" y="904" width="32" height="32" transform="rotate(0,984,920)"/><rect x="1000" y="904" width="32" height="32" transform="rotate(0,1016,920)"/><rect x="1032" y="904" width="32" height="32" transform="rotate(0,1048,920)"/><rect x="1064" y="904" width="32" height="32" transform="rotate(0,1080,920)"/><rect x="1096" y="904" width="32" height="32" transform="rotate(0,1112,920)"/><rect x="1128" y="904" width="32" height="32" transform="rotate(0,1144,920)"/><path d="M 1160 904v 32h 32v -16a 16 16, 0, 0, 0, -16 -16" transform="rotate(90,1176,920)"/><path d="M 264 936v 32h 16a 16 16, 0, 0, 0, 0 -32" transform="rotate(-90,280,952)"/><rect x="328" y="936" width="32" height="32" transform="rotate(0,344,952)"/><path d="M 392 936v 32h 16a 16 16, 0, 0, 0, 0 -32" transform="rotate(-90,408,952)"/><rect x="488" y="936" width="32" height="32" transform="rotate(0,504,952)"/><circle cx="632" cy="952" r="16" transform="rotate(0,632,952)"/><path d="M 680 936v 32h 16a 16 16, 0, 0, 0, 0 -32" transform="rotate(-90,696,952)"/><path d="M 744 936v 32h 16a 16 16, 0, 0, 0, 0 -32" transform="rotate(90,760,952)"/><path d="M 808 936v 32h 32v -16a 16 16, 0, 0, 0, -16 -16" transform="rotate(180,824,952)"/><rect x="840" y="936" width="32" height="32" transform="rotate(0,856,952)"/><rect x="872" y="936" width="32" height="32" transform="rotate(0,888,952)"/><rect x="904" y="936" width="32" height="32" transform="rotate(0,920,952)"/><rect x="1032" y="936" width="32" height="32" transform="rotate(0,1048,952)"/><rect x="264" y="968" width="32" height="32" transform="rotate(0,280,984)"/><rect x="296" y="968" width="32" height="32" transform="rotate(0,312,984)"/><rect x="328" y="968" width="32" height="32" transform="rotate(0,344,984)"/><rect x="392" y="968" width="32" height="32" transform="rotate(0,408,984)"/><path d="M 456 968v 32h 32v -16a 16 16, 0, 0, 0, -16 -16" transform="rotate(-90,472,984)"/><rect x="488" y="968" width="32" height="32" transform="rotate(0,504,984)"/><path d="M 648 968v 32h 16a 16 16, 0, 0, 0, 0 -32" transform="rotate(180,664,984)"/><rect x="680" y="968" width="32" height="32" transform="rotate(0,696,984)"/><rect x="904" y="968" width="32" height="32" transform="rotate(0,920,984)"/><circle cx="984" cy="984" r="16" transform="rotate(0,984,984)"/><rect x="1032" y="968" width="32" height="32" transform="rotate(0,1048,984)"/><path d="M 1064 968v 32h 16a 16 16, 0, 0, 0, 0 -32" transform="rotate(0,1080,984)"/><path d="M 1128 968v 32h 16a 16 16, 0, 0, 0, 0 -32" transform="rotate(180,1144,984)"/><path d="M 1160 968v 32h 16a 16 16, 0, 0, 0, 0 -32" transform="rotate(0,1176,984)"/><rect x="264" y="1000" width="32" height="32" transform="rotate(0,280,1016)"/><rect x="296" y="1000" width="32" height="32" transform="rotate(0,312,1016)"/><path d="M 328 1000v 32h 32v -16a 16 16, 0, 0, 0, -16 -16" transform="rotate(90,344,1016)"/><rect x="392" y="1000" width="32" height="32" transform="rotate(0,408,1016)"/><rect x="424" y="1000" width="32" height="32" transform="rotate(0,440,1016)"/><rect x="456" y="1000" width="32" height="32" transform="rotate(0,472,1016)"/><rect x="488" y="1000" width="32" height="32" transform="rotate(0,504,1016)"/><path d="M 552 1000v 32h 16a 16 16, 0, 0, 0, 0 -32" transform="rotate(-90,568,1016)"/><rect x="680" y="1000" width="32" height="32" transform="rotate(0,696,1016)"/><path d="M 712 1000v 32h 16a 16 16, 0, 0, 0, 0 -32" transform="rotate(0,728,1016)"/><path d="M 840 1000v 32h 16a 16 16, 0, 0, 0, 0 -32" transform="rotate(-90,856,1016)"/><rect x="904" y="1000" width="32" height="32" transform="rotate(0,920,1016)"/><rect x="1032" y="1000" width="32" height="32" transform="rotate(0,1048,1016)"/><rect x="264" y="1032" width="32" height="32" transform="rotate(0,280,1048)"/><rect x="392" y="1032" width="32" height="32" transform="rotate(0,408,1048)"/><path d="M 488 1032v 32h 16a 16 16, 0, 0, 0, 0 -32" transform="rotate(90,504,1048)"/><rect x="552" y="1032" width="32" height="32" transform="rotate(0,568,1048)"/><path d="M 680 1032v 32h 16a 16 16, 0, 0, 0, 0 -32" transform="rotate(90,696,1048)"/><path d="M 776 1032v 32h 16a 16 16, 0, 0, 0, 0 -32" transform="rotate(180,792,1048)"/><rect x="808" y="1032" width="32" height="32" transform="rotate(0,824,1048)"/><rect x="840" y="1032" width="32" height="32" transform="rotate(0,856,1048)"/><rect x="872" y="1032" width="32" height="32" transform="rotate(0,888,1048)"/><rect x="904" y="1032" width="32" height="32" transform="rotate(0,920,1048)"/><rect x="936" y="1032" width="32" height="32" transform="rotate(0,952,1048)"/><rect x="968" y="1032" width="32" height="32" transform="rotate(0,984,1048)"/><rect x="1000" y="1032" width="32" height="32" transform="rotate(0,1016,1048)"/><rect x="1032" y="1032" width="32" height="32" transform="rotate(0,1048,1048)"/><path d="M 1096 1032v 32h 16a 16 16, 0, 0, 0, 0 -32" transform="rotate(-90,1112,1048)"/><circle cx="1176" cy="1048" r="16" transform="rotate(0,1176,1048)"/><rect x="264" y="1064" width="32" height="32" transform="rotate(0,280,1080)"/><path d="M 296 1064v 32h 16a 16 16, 0, 0, 0, 0 -32" transform="rotate(0,312,1080)"/><path d="M 360 1064v 32h 32v -16a 16 16, 0, 0, 0, -16 -16" transform="rotate(-90,376,1080)"/><rect x="392" y="1064" width="32" height="32" transform="rotate(0,408,1080)"/><path d="M 424 1064v 32h 16a 16 16, 0, 0, 0, 0 -32" transform="rotate(0,440,1080)"/><path d="M 552 1064v 32h 32v -16a 16 16, 0, 0, 0, -16 -16" transform="rotate(180,568,1080)"/><path d="M 584 1064v 32h 16a 16 16, 0, 0, 0, 0 -32" transform="rotate(0,600,1080)"/><circle cx="664" cy="1080" r="16" transform="rotate(0,664,1080)"/><path d="M 712 1064v 32h 16a 16 16, 0, 0, 0, 0 -32" transform="rotate(180,728,1080)"/><path d="M 744 1064v 32h 16a 16 16, 0, 0, 0, 0 -32" transform="rotate(0,760,1080)"/><path d="M 904 1064v 32h 16a 16 16, 0, 0, 0, 0 -32" transform="rotate(90,920,1080)"/><path d="M 968 1064v 32h 16a 16 16, 0, 0, 0, 0 -32" transform="rotate(90,984,1080)"/><path d="M 1032 1064v 32h 16a 16 16, 0, 0, 0, 0 -32" transform="rotate(90,1048,1080)"/><path d="M 1096 1064v 32h 32v -16a 16 16, 0, 0, 0, -16 -16" transform="rotate(180,1112,1080)"/><path d="M 1128 1064v 32h 16a 16 16, 0, 0, 0, 0 -32" transform="rotate(0,1144,1080)"/><rect x="264" y="1096" width="32" height="32" transform="rotate(0,280,1112)"/><path d="M 328 1096v 32h 16a 16 16, 0, 0, 0, 0 -32" transform="rotate(180,344,1112)"/><rect x="360" y="1096" width="32" height="32" transform="rotate(0,376,1112)"/><path d="M 392 1096v 32h 32v -16a 16 16, 0, 0, 0, -16 -16" transform="rotate(90,408,1112)"/><path d="M 456 1096v 32h 16a 16 16, 0, 0, 0, 0 -32" transform="rotate(-90,472,1112)"/><path d="M 616 1096v 32h 16a 16 16, 0, 0, 0, 0 -32" transform="rotate(-90,632,1112)"/><path d="M 680 1096v 32h 16a 16 16, 0, 0, 0, 0 -32" transform="rotate(-90,696,1112)"/><circle cx="824" cy="1112" r="16" transform="rotate(0,824,1112)"/><path d="M 872 1096v 32h 16a 16 16, 0, 0, 0, 0 -32" transform="rotate(-90,888,1112)"/><circle cx="952" cy="1112" r="16" transform="rotate(0,952,1112)"/><circle cx="1016" cy="1112" r="16" transform="rotate(0,1016,1112)"/><circle cx="1080" cy="1112" r="16" transform="rotate(0,1080,1112)"/><path d="M 1160 1096v 32h 16a 16 16, 0, 0, 0, 0 -32" transform="rotate(-90,1176,1112)"/><path d="M 264 1128v 32h 32v -16a 16 16, 0, 0, 0, -16 -16" transform="rotate(180,280,1144)"/><path d="M 296 1128v 32h 32v -16a 16 16, 0, 0, 0, -16 -16" transform="rotate(0,312,1144)"/><rect x="360" y="1128" width="32" height="32" transform="rotate(0,376,1144)"/><path d="M 424 1128v 32h 32v -16a 16 16, 0, 0, 0, -16 -16" transform="rotate(-90,440,1144)"/><path d="M 456 1128v 32h 32v -16a 16 16, 0, 0, 0, -16 -16" transform="rotate(90,472,1144)"/><path d="M 520 1128v 32h 16a 16 16, 0, 0, 0, 0 -32" transform="rotate(-90,536,1144)"/><path d="M 584 1128v 32h 16a 16 16, 0, 0, 0, 0 -32" transform="rotate(180,600,1144)"/><rect x="616" y="1128" width="32" height="32" transform="rotate(0,632,1144)"/><rect x="648" y="1128" width="32" height="32" transform="rotate(0,664,1144)"/><rect x="680" y="1128" width="32" height="32" transform="rotate(0,696,1144)"/><path d="M 712 1128v 32h 32v -16a 16 16, 0, 0, 0, -16 -16" transform="rotate(0,728,1144)"/><path d="M 840 1128v 32h 32v -16a 16 16, 0, 0, 0, -16 -16" transform="rotate(-90,856,1144)"/><rect x="872" y="1128" width="32" height="32" transform="rotate(0,888,1144)"/><path d="M 904 1128v 32h 16a 16 16, 0, 0, 0, 0 -32" transform="rotate(0,920,1144)"/><circle cx="984" cy="1144" r="16" transform="rotate(0,984,1144)"/><circle cx="1048" cy="1144" r="16" transform="rotate(0,1048,1144)"/><rect x="1160" y="1128" width="32" height="32" transform="rotate(0,1176,1144)"/><path d="M 296 1160v 32h 16a 16 16, 0, 0, 0, 0 -32" transform="rotate(90,312,1176)"/><path d="M 360 1160v 32h 16a 16 16, 0, 0, 0, 0 -32" transform="rotate(90,376,1176)"/><path d="M 424 1160v 32h 16a 16 16, 0, 0, 0, 0 -32" transform="rotate(90,440,1176)"/><path d="M 520 1160v 32h 16a 16 16, 0, 0, 0, 0 -32" transform="rotate(90,536,1176)"/><path d="M 616 1160v 32h 16a 16 16, 0, 0, 0, 0 -32" transform="rotate(90,632,1176)"/><path d="M 712 1160v 32h 16a 16 16, 0, 0, 0, 0 -32" transform="rotate(90,728,1176)"/><path d="M 776 1160v 32h 16a 16 16, 0, 0, 0, 0 -32" transform="rotate(180,792,1176)"/><rect x="808" y="1160" width="32" height="32" transform="rotate(0,824,1176)"/><path d="M 840 1160v 32h 32v -16a 16 16, 0, 0, 0, -16 -16" transform="rotate(90,856,1176)"/><circle cx="952" cy="1176" r="16" transform="rotate(0,952,1176)"/><path d="M 1096 1160v 32h 16a 16 16, 0, 0, 0, 0 -32" transform="rotate(180,1112,1176)"/><rect x="1128" y="1160" width="32" height="32" transform="rotate(0,1144,1176)"/><path d="M 1160 1160v 32h 32v -16a 16 16, 0, 0, 0, -16 -16" transform="rotate(90,1176,1176)"/></clipPath><clipPath id="clip-path-corners-square-color-0-0-141"><path clip-rule="evenodd" d="M 8 88v 64a 80 80, 0, 0, 0, 80 80h 64a 80 80, 0, 0, 0, 80 -80v -64a 80 80, 0, 0, 0, -80 -80h -64a 80 80, 0, 0, 0, -80 80M 88 40h 64a 48 48, 0, 0, 1, 48 48v 64a 48 48, 0, 0, 1, -48 48h -64a 48 48, 0, 0, 1, -48 -48v -64a 48 48, 0, 0, 1, 48 -48" transform="rotate(0,120,120)"/></clipPath><clipPath id="clip-path-corners-dot-color-0-0-141"><circle cx="120" cy="120" r="48" transform="rotate(0,120,120)"/></clipPath><clipPath id="clip-path-corners-square-color-1-0-141"><path clip-rule="evenodd" d="M 968 88v 64a 80 80, 0, 0, 0, 80 80h 64a 80 80, 0, 0, 0, 80 -80v -64a 80 80, 0, 0, 0, -80 -80h -64a 80 80, 0, 0, 0, -80 80M 1048 40h 64a 48 48, 0, 0, 1, 48 48v 64a 48 48, 0, 0, 1, -48 48h -64a 48 48, 0, 0, 1, -48 -48v -64a 48 48, 0, 0, 1, 48 -48" transform="rotate(90,1080,120)"/></clipPath><clipPath id="clip-path-corners-dot-color-1-0-141"><circle cx="1080" cy="120" r="48" transform="rotate(90,1080,120)"/></clipPath><clipPath id="clip-path-corners-square-color-0-1-141"><path clip-rule="evenodd" d="M 8 1048v 64a 80 80, 0, 0, 0, 80 80h 64a 80 80, 0, 0, 0, 80 -80v -64a 80 80, 0, 0, 0, -80 -80h -64a 80 80, 0, 0, 0, -80 80M 88 1000h 64a 48 48, 0, 0, 1, 48 48v 64a 48 48, 0, 0, 1, -48 48h -64a 48 48, 0, 0, 1, -48 -48v -64a 48 48, 0, 0, 1, 48 -48" transform="rotate(-90,120,1080)"/></clipPath><clipPath id="clip-path-corners-dot-color-0-1-141"><circle cx="120" cy="1080" r="48" transform="rotate(-90,120,1080)"/></clipPath></defs><rect x="0" y="0" height="1200" width="1200" clip-path="url('#clip-path-background-color-141')" fill="#ffffff"/><rect x="0" y="0" height="1200" width="1200" clip-path="url('#clip-path-dot-color-141')" fill="#000000"/><rect x="8" y="8" height="224" width="224" clip-path="url('#clip-path-corners-square-color-0-0-141')" fill="#000000"/><rect x="72" y="72" height="96" width="96" clip-path="url('#clip-path-corners-dot-color-0-0-141')" fill="#000000"/><rect x="968" y="8" height="224" width="224" clip-path="url('#clip-path-corners-square-color-1-0-141')" fill="#000000"/><rect x="1032" y="72" height="96" width="96" clip-path="url('#clip-path-corners-dot-color-1-0-141')" fill="#000000"/><rect x="8" y="968" height="224" width="224" clip-path="url('#clip-path-corners-square-color-0-1-141')" fill="#000000"/><rect x="72" y="1032" height="96" width="96" clip-path="url('#clip-path-corners-dot-color-0-1-141')" fill="#000000"/></svg>