<?xml version="1.0" standalone="no"?>
<svg xmlns="http://www.w3.org/2000/svg" width="1200" height="1200" xmlns:xlink="http://www.w3.org/1999/xlink" viewBox="0 0 1200 1200"><defs><clipPath id="clip-path-background-color-146"><rect x="0" y="0" width="1200" height="1200"/></clipPath><clipPath id="clip-path-dot-color-146"><path d="M 264 8v 32h 32v -16a 16 16, 0, 0, 0, -16 -16" transform="rotate(-90,280,24)"/><path d="M 296 8v 32h 16a 16 16, 0, 0, 0, 0 -32" transform="rotate(0,312,24)"/><circle cx="376" cy="24" r="16" transform="rotate(0,376,24)"/><path d="M 424 8v 32h 16a 16 16, 0, 0, 0, 0 -32" transform="rotate(-90,440,24)"/><circle cx="504" cy="24" r="16" transform="rotate(0,504,24)"/><path d="M 648 8v 32h 16a 16 16, 0, 0, 0, 0 -32" transform="rotate(-90,664,24)"/><path d="M 712 8v 32h 16a 16 16, 0, 0, 0, 0 -32" transform="rotate(-90,728,24)"/><path d="M 840 8v 32h 16a 16 16, 0, 0, 0, 0 -32" transform="rotate(180,856,24)"/><rect x="872" y="8" width="32" height="32" transform="rotate(0,888,24)"/><path d="M 904 8v 32h 32v -16a 16 16, 0, 0, 0, -16 -16" transform="rotate(0,920,24)"/><rect x="264" y="40" width="32" height="32" transform="rotate(0,280,56)"/><circle cx="344" cy="56" r="16" transform="rotate(0,344,56)"/><path d="M 392 40v 32h 32v -16a 16 16, 0, 0, 0, -16 -16" transform="rotate(-90,408,56)"/><rect x="424" y="40" width="32" height="32" transform="rotate(0,440,56)"/><path d="M 456 40v 32h 16a 16 16, 0, 0, 0, 0 -32" transform="rotate(0,472,56)"/><circle cx="568" cy="56" r="16" transform="rotate(0,568,56)"/><rect x="648" y="40" width="32" height="32" transform="rotate(0,664,56)"/><rect x="680" y="40" width="32" height="32" transform="rotate(0,696,56)"/><rect x="712" y="40" width="32" height="32" transform="rotate(0,728,56)"/><path d="M 872 40v 32h 32v -16a 16 16, 0, 0, 0, -16 -16" transform="rotate(180,888,56)"/><path d="M 904 40v 32h 32v -16a 16 16, 0, 0, 0, -16 -16" transform="rotate(90,920,56)"/><rect x="264" y="72" width="32" height="32" transform="rotate(0,280,88)"/><path d="M 392 72v 32h 32v -16a 16 16, 0, 0, 0, -16 -16" transform="rotate(180,408,88)"/><path d="M 424 72v 32h 32v -16a 16 16, 0, 0, 0, -16 -16" transform="rotate(90,440,88)"/><path d="M 520 72v 32h 16a 16 16, 0, 0, 0, 0 -32" transform="rotate(-90,536,88)"/><rect x="648" y="72" width="32" height="32" transform="rotate(0,664,88)"/><rect x="712" y="72" width="32" height="32" transform="rotate(0,728,88)"/><path d="M 744 72v 32h 16a 16 16, 0, 0, 0, 0 -32" transform="rotate(0,760,88)"/><path d="M 840 72v 32h 16a 16 16, 0, 0, 0, 0 -32" transform="rotate(-90,856,88)"/><rect x="264" y="104" width="32" height="32" transform="rotate(0,280,120)"/><path d="M 328 104v 32h 32v -16a 16 16, 0, 0, 0, -16 -16" transform="rotate(-90,344,120)"/><path d="M 360 104v 32h 32v -16a 16 16, 0, 0, 0, -16 -16" transform="rotate(0,376,120)"/><path d="M 520 104v 32h 32v -16a 16 16, 0, 0, 0, -16 -16" transform="rotate(180,536,120)"/><rect x="552" y="104" width="32" height="32" transform="rotate(0,568,120)"/><path d="M 584 104v 32h 16a 16 16, 0, 0, 0, 0 -32" transform="rotate(0,600,120)"/><path d="M 648 104v 32h 16a 16 16, 0, 0, 0, 0 -32" transform="rotate(90,664,120)"/><path d="M 712 104v 32h 16a 16 16, 0, 0, 0, 0 -32" transform="rotate(90,728,120)"/><path d="M 840 104v 32h 16a 16 16, 0, 0, 0, 0 -32" transform="rotate(90,856,120)"/><path d="M 264 136v 32h 32v -16a 16 16, 0, 0, 0, -16 -16" transform="rotate(180,280,152)"/><rect x="296" y="136" width="32" height="32" transform="rotate(0,312,152)"/><rect x="328" y="136" width="32" height="32" transform="rotate(0,344,152)"/><rect x="360" y="136" width="32" height="32" transform="rotate(0,376,152)"/><rect x="392" y="136" width="32" height="32" transform="rotate(0,408,152)"/><path d="M 424 136v 32h 16a 16 16, 0, 0, 0, 0 -32" transform="rotate(0,440,152)"/><path d="M 488 136v 32h 16a 16 16, 0, 0, 0, 0 -32" transform="rotate(-90,504,152)"/><path d="M 552 136v 32h 16a 16 16, 0, 0, 0, 0 -32" transform="rotate(90,568,152)"/><circle cx="632" cy="152" r="16" transform="rotate(0,632,152)"/><path d="M 744 136v 32h 16a 16 16, 0, 0, 0, 0 -32" transform="rotate(-90,760,152)"/><path d="M 808 136v 32h 16a 16 16, 0, 0, 0, 0 -32" transform="rotate(-90,824,152)"/><path d="M 872 136v 32h 32v -16a 16 16, 0, 0, 0, -16 -16" transform="rotate(-90,888,152)"/><path d="M 904 136v 32h 32v -16a 16 16, 0, 0, 0, -16 -16" transform="rotate(0,920,152)"/><path d="M 456 168v 32h 32v -16a 16 16, 0, 0, 0, -16 -16" transform="rotate(-90,472,184)"/><rect x="488" y="168" width="32" height="32" transform="rotate(0,504,184)"/><path d="M 520 168v 32h 32v -16a 16 16, 0, 0, 0, -16 -16" transform="rotate(0,536,184)"/><path d="M 648 168v 32h 32v -16a 16 16, 0, 0, 0, -16 -16" transform="rotate(-90,664,184)"/><rect x="680" y="168" width="32" height="32" transform="rotate(0,696,184)"/><rect x="712" y="168" width="32" height="32" transform="rotate(0,728,184)"/><rect x="744" y="168" width="32" height="32" transform="rotate(0,760,184)"/><rect x="776" y="168" width="32" height="32" transform="rotate(0,792,184)"/><rect x="808" y="168" width="32" height="32" transform="rotate(0,824,184)"/><rect x="840" y="168" width="32" height="32" transform="rotate(0,856,184)"/><rect x="872" y="168" width="32" height="32" transform="rotate(0,888,184)"/><rect x="904" y="168" width="32" height="32" transform="rotate(0,920,184)"/><path d="M 264 200v 32h 16a 16 16, 0, 0, 0, 0 -32" transform="rotate(-90,280,216)"/><circle cx="344" cy="216" r="16" transform="rotate(0,344,216)"/><circle cx="408" cy="216" r="16" transform="rotate(0,408,216)"/><rect x="456" y="200" width="32" height="32" transform="rotate(0,472,216)"/><path d="M 520 200v 32h 16a 16 16, 0, 0, 0, 0 -32" transform="rotate(90,536,216)"/><circle cx="600" cy="216" r="16" transform="rotate(0,600,216)"/><path d="M 648 200v 32h 16a 16 16, 0, 0, 0, 0 -32" transform="rotate(90,664,216)"/><rect x="712" y="200" width="32" height="32" transform="rotate(0,728,216)"/><rect x="776" y="200" width="32" height="32" transform="rotate(0,792,216)"/><rect x="840" y="200" width="32" height="32" transform="rotate(0,856,216)"/><rect x="904" y="200" width="32" height="32" transform="rotate(0,920,216)"/><path d="M 264 232v 32h 32v -16a 16 16, 0, 0, 0, -16 -16" transform="rotate(180,280,248)"/><path d="M 296 232v 32h 32v -16a 16 16, 0, 0, 0, -16 -16" transform="rotate(0,312,248)"/><path d="M 424 232v 32h 32v -16a 16 16, 0, 0, 0, -16 -16" transform="rotate(-90,440,248)"/><rect x="456" y="232" width="32" height="32" transform="rotate(0,472,248)"/><path d="M 488 232v 32h 16a 16 16, 0, 0, 0, 0 -32" transform="rotate(0,504,248)"/><path d="M 552 232v 32h 16a 16 16, 0, 0, 0, 0 -32" transform="rotate(-90,568,248)"/><path d="M 680 232v 32h 32v -16a 16 16, 0, 0, 0, -16 -16" transform="rotate(-90,696,248)"/><rect x="712" y="232" width="32" height="32" transform="rotate(0,728,248)"/><rect x="744" y="232" width="32" height="32" transform="rotate(0,760,248)"/><rect x="776" y="232" width="32" height="32" transform="rotate(0,792,248)"/><rect x="808" y="232" width="32" height="32" transform="rotate(0,824,248)"/><path d="M 840 232v 32h 32v -16a 16 16, 0, 0, 0, -16 -16" transform="rotate(90,856,248)"/><rect x="904" y="232" width="32" height="32" transform="rotate(0,920,248)"/><path d="M 40 264v 32h 16a 16 16, 0, 0, 0, 0 -32" transform="rotate(180,56,280)"/><path d="M 72 264v 32h 16a 16 16, 0, 0, 0, 0 -32" transform="rotate(0,88,280)"/><path d="M 136 264v 32h 16a 16 16, 0, 0, 0, 0 -32" transform="rotate(-90,152,280)"/><path d="M 200 264v 32h 16a 16 16, 0, 0, 0, 0 -32" transform="rotate(180,216,280)"/><path d="M 232 264v 32h 16a 16 16, 0, 0, 0, 0 -32" transform="rotate(0,248,280)"/><rect x="296" y="264" width="32" height="32" transform="rotate(0,312,280)"/><path d="M 328 264v 32h 32v -16a 16 16, 0, 0, 0, -16 -16" transform="rotate(0,344,280)"/><path d="M 392 264v 32h 32v -16a 16 16, 0, 0, 0, -16 -16" transform="rotate(-90,408,280)"/><path d="M 424 264v 32h 32v -16a 16 16, 0, 0, 0, -16 -16" transform="rotate(90,440,280)"/><path d="M 552 264v 32h 32v -16a 16 16, 0, 0, 0, -16 -16" transform="rotate(180,568,280)"/><path d="M 584 264v 32h 32v -16a 16 16, 0, 0, 0, -16 -16" transform="rotate(0,600,280)"/><rect x="680" y="264" width="32" height="32" transform="rotate(0,696,280)"/><path d="M 744 264v 32h 32v -16a 16 16, 0, 0, 0, -16 -16" transform="rotate(180,760,280)"/><rect x="776" y="264" width="32" height="32" transform="rotate(0,792,280)"/><path d="M 808 264v 32h 32v -16a 16 16, 0, 0, 0, -16 -16" transform="rotate(90,824,280)"/><path d="M 872 264v 32h 16a 16 16, 0, 0, 0, 0 -32" transform="rotate(180,888,280)"/><rect x="904" y="264" width="32" height="32" transform="rotate(0,920,280)"/><path d="M 968 264v 32h 16a 16 16, 0, 0, 0, 0 -32" transform="rotate(-90,984,280)"/><path d="M 1032 264v 32h 16a 16 16, 0, 0, 0, 0 -32" transform="rotate(180,1048,280)"/><rect x="1064" y="264" width="32" height="32" transform="rotate(0,1080,280)"/><rect x="1096" y="264" width="32" height="32" transform="rotate(0,1112,280)"/><rect x="1128" y="264" width="32" height="32" transform="rotate(0,1144,280)"/><path d="M 1160 264v 32h 32v -16a 16 16, 0, 0, 0, -16 -16" transform="rotate(0,1176,280)"/><circle cx="24" cy="312" r="16" transform="rotate(0,24,312)"/><path d="M 104 296v 32h 32v -16a 16 16, 0, 0, 0, -16 -16" transform="rotate(-90,120,312)"/><rect x="136" y="296" width="32" height="32" transform="rotate(0,152,312)"/><path d="M 168 296v 32h 16a 16 16, 0, 0, 0, 0 -32" transform="rotate(0,184,312)"/><path d="M 264 296v 32h 16a 16 16, 0, 0, 0, 0 -32" transform="rotate(180,280,312)"/><rect x="296" y="296" width="32" height="32" transform="rotate(0,312,312)"/><rect x="328" y="296" width="32" height="32" transform="rotate(0,344,312)"/><path d="M 392 296v 32h 16a 16 16, 0, 0, 0, 0 -32" transform="rotate(90,408,312)"/><circle cx="472" cy="312" r="16" transform="rotate(0,472,312)"/><rect x="584" y="296" width="32" height="32" transform="rotate(0,600,312)"/><rect x="680" y="296" width="32" height="32" transform="rotate(0,696,312)"/><path d="M 712 296v 32h 32v -16a 16 16, 0, 0, 0, -16 -16" transform="rotate(0,728,312)"/><path d="M 776 296v 32h 16a 16 16, 0, 0, 0, 0 -32" transform="rotate(90,792,312)"/><circle cx="856" cy="312" r="16" transform="rotate(0,856,312)"/><path d="M 904 296v 32h 32v -16a 16 16, 0, 0, 0, -16 -16" transform="rotate(180,920,312)"/><rect x="936" y="296" width="32" height="32" transform="rotate(0,952,312)"/><rect x="968" y="296" width="32" height="32" transform="rotate(0,984,312)"/><rect x="1128" y="296" width="32" height="32" transform="rotate(0,1144,312)"/><rect x="1160" y="296" width="32" height="32" transform="rotate(0,1176,312)"/><path d="M 72 328v 32h 32v -16a 16 16, 0, 0, 0, -16 -16" transform="rotate(-90,88,344)"/><path d="M 104 328v 32h 32v -16a 16 16, 0, 0, 0, -16 -16" transform="rotate(90,120,344)"/><circle cx="216" cy="344" r="16" transform="rotate(0,216,344)"/><path d="M 296 328v 32h 32v -16a 16 16, 0, 0, 0, -16 -16" transform="rotate(180,312,344)"/><path d="M 328 328v 32h 32v -16a 16 16, 0, 0, 0, -16 -16" transform="rotate(90,344,344)"/><circle cx="440" cy="344" r="16" transform="rotate(0,440,344)"/><path d="M 488 328v 32h 16a 16 16, 0, 0, 0, 0 -32" transform="rotate(180,504,344)"/><rect x="520" y="328" width="32" height="32" transform="rotate(0,536,344)"/><rect x="552" y="328" width="32" height="32" transform="rotate(0,568,344)"/><rect x="584" y="328" width="32" height="32" transform="rotate(0,600,344)"/><path d="M 616 328v 32h 32v -16a 16 16, 0, 0, 0, -16 -16" transform="rotate(0,632,344)"/><rect x="680" y="328" width="32" height="32" transform="rotate(0,696,344)"/><path d="M 712 328v 32h 32v -16a 16 16, 0, 0, 0, -16 -16" transform="rotate(90,728,344)"/><path d="M 808 328v 32h 16a 16 16, 0, 0, 0, 0 -32" transform="rotate(-90,824,344)"/><path d="M 968 328v 32h 16a 16 16, 0, 0, 0, 0 -32" transform="rotate(90,984,344)"/><path d="M 1032 328v 32h 32v -16a 16 16, 0, 0, 0, -16 -16" transform="rotate(-90,1048,344)"/><rect x="1064" y="328" width="32" height="32" transform="rotate(0,1080,344)"/><rect x="1096" y="328" width="32" height="32" transform="rotate(0,1112,344)"/><rect x="1128" y="328" width="32" height="32" transform="rotate(0,1144,344)"/><rect x="1160" y="328" width="32" height="32" transform="rotate(0,1176,344)"/><path d="M 8 360v 32h 16a 16 16, 0, 0, 0, 0 -32" transform="rotate(-90,24,376)"/><path d="M 72 360v 32h 16a 16 16, 0, 0, 0, 0 -32" transform="rotate(90,88,376)"/><circle cx="184" cy="376" r="16" transform="rotate(0,184,376)"/><path d="M 232 360v 32h 16a 16 16, 0, 0, 0, 0 -32" transform="rotate(180,248,376)"/><path d="M 264 360v 32h 32v -16a 16 16, 0, 0, 0, -16 -16" transform="rotate(0,280,376)"/><path d="M 360 360v 32h 16a 16 16, 0, 0, 0, 0 -32" transform="rotate(-90,376,376)"/><path d="M 616 360v 32h 32v -16a 16 16, 0, 0, 0, -16 -16" transform="rotate(180,632,376)"/><rect x="648" y="360" width="32" height="32" transform="rotate(0,664,376)"/><rect x="680" y="360" width="32" height="32" transform="rotate(0,696,376)"/><rect x="808" y="360" width="32" height="32" transform="rotate(0,824,376)"/><rect x="840" y="360" width="32" height="32" transform="rotate(0,856,376)"/><rect x="872" y="360" width="32" height="32" transform="rotate(0,888,376)"/><rect x="904" y="360" width="32" height="32" transform="rotate(0,920,376)"/><path d="M 936 360v 32h 32v -16a 16 16, 0, 0, 0, -16 -16" transform="rotate(0,952,376)"/><path d="M 1032 360v 32h 32v -16a 16 16, 0, 0, 0, -16 -16" transform="rotate(180,1048,376)"/><path d="M 1064 360v 32h 32v -16a 16 16, 0, 0, 0, -16 -16" transform="rotate(90,1080,376)"/><rect x="1160" y="360" width="32" height="32" transform="rotate(0,1176,376)"/><rect x="8" y="392" width="32" height="32" transform="rotate(0,24,408)"/><path d="M 40 392v 32h 32v -16a 16 16, 0, 0, 0, -16 -16" transform="rotate(0,56,408)"/><path d="M 104 392v 32h 16a 16 16, 0, 0, 0, 0 -32" transform="rotate(180,120,408)"/><path d="M 136 392v 32h 16a 16 16, 0, 0, 0, 0 -32" transform="rotate(0,152,408)"/><circle cx="216" cy="408" r="16" transform="rotate(0,216,408)"/><rect x="264" y="392" width="32" height="32" transform="rotate(0,280,408)"/><path d="M 296 392v 32h 16a 16 16, 0, 0, 0, 0 -32" transform="rotate(0,312,408)"/><rect x="360" y="392" width="32" height="32" transform="rotate(0,376,408)"/><path d="M 456 392v 32h 32v -16a 16 16, 0, 0, 0, -16 -16" transform="rotate(-90,472,408)"/><rect x="488" y="392" width="32" height="32" transform="rotate(0,504,408)"/><path d="M 520 392v 32h 16a 16 16, 0, 0, 0, 0 -32" transform="rotate(0,536,408)"/><path d="M 584 392v 32h 16a 16 16, 0, 0, 0, 0 -32" transform="rotate(-90,600,408)"/><rect x="680" y="392" width="32" height="32" transform="rotate(0,696,408)"/><path d="M 808 392v 32h 16a 16 16, 0, 0, 0, 0 -32" transform="rotate(90,824,408)"/><path d="M 936 392v 32h 32v -16a 16 16, 0, 0, 0, -16 -16" transform="rotate(180,952,408)"/><path d="M 968 392v 32h 32v -16a 16 16, 0, 0, 0, -16 -16" transform="rotate(0,984,408)"/><rect x="1160" y="392" width="32" height="32" transform="rotate(0,1176,408)"/><rect x="8" y="424" width="32" height="32" transform="rotate(0,24,440)"/><rect x="40" y="424" width="32" height="32" transform="rotate(0,56,440)"/><path d="M 72 424v 32h 16a 16 16, 0, 0, 0, 0 -32" transform="rotate(0,88,440)"/><path d="M 232 424v 32h 32v -16a 16 16, 0, 0, 0, -16 -16" transform="rotate(-90,248,440)"/><path d="M 264 424v 32h 32v -16a 16 16, 0, 0, 0, -16 -16" transform="rotate(90,280,440)"/><rect x="360" y="424" width="32" height="32" transform="rotate(0,376,440)"/><path d="M 424 424v 32h 16a 16 16, 0, 0, 0, 0 -32" transform="rotate(180,440,440)"/><path d="M 456 424v 32h 32v -16a 16 16, 0, 0, 0, -16 -16" transform="rotate(90,472,440)"/><rect x="584" y="424" width="32" height="32" transform="rotate(0,600,440)"/><path d="M 680 424v 32h 32v -16a 16 16, 0, 0, 0, -16 -16" transform="rotate(180,696,440)"/><path d="M 712 424v 32h 32v -16a 16 16, 0, 0, 0, -16 -16" transform="rotate(0,728,440)"/><path d="M 776 424v 32h 16a 16 16, 0, 0, 0, 0 -32" transform="rotate(-90,792,440)"/><circle cx="920" cy="440" r="16" transform="rotate(0,920,440)"/><path d="M 968 424v 32h 32v -16a 16 16, 0, 0, 0, -16 -16" transform="rotate(180,984,440)"/><path d="M 1000 424v 32h 16a 16 16, 0, 0, 0, 0 -32" transform="rotate(0,1016,440)"/><path d="M 1064 424v 32h 16a 16 16, 0, 0, 0, 0 -32" transform="rotate(180,1080,440)"/><rect x="1096" y="424" width="32" height="32" transform="rotate(0,1112,440)"/><rect x="1128" y="424" width="32" height="32" transform="rotate(0,1144,440)"/><rect x="1160" y="424" width="32" height="32" transform="rotate(0,1176,440)"/><rect x="8" y="456" width="32" height="32" transform="rotate(0,24,472)"/><path d="M 104 456v 32h 16a 16 16, 0, 0, 0, 0 -32" transform="rotate(180,120,472)"/><rect x="136" y="456" width="32" height="32" transform="rotate(0,152,472)"/><rect x="168" y="456" width="32" height="32" transform="rotate(0,184,472)"/><rect x="200" y="456" width="32" height="32" transform="rotate(0,216,472)"/><path d="M 232 456v 32h 32v -16a 16 16, 0, 0, 0, -16 -16" transform="rotate(90,248,472)"/><path d="M 296 456v 32h 16a 16 16, 0, 0, 0, 0 -32" transform="rotate(-90,312,472)"/><rect x="360" y="456" width="32" height="32" transform="rotate(0,376,472)"/><path d="M 552 456v 32h 16a 16 16, 0, 0, 0, 0 -32" transform="rotate(180,568,472)"/><rect x="584" y="456" width="32" height="32" transform="rotate(0,600,472)"/><path d="M 616 456v 32h 32v -16a 16 16, 0, 0, 0, -16 -16" transform="rotate(0,632,472)"/><rect x="712" y="456" width="32" height="32" transform="rotate(0,728,472)"/><rect x="776" y="456" width="32" height="32" transform="rotate(0,792,472)"/><path d="M 808 456v 32h 32v -16a 16 16, 0, 0, 0, -16 -16" transform="rotate(0,824,472)"/><path d="M 936 456v 32h 16a 16 16, 0, 0, 0, 0 -32" transform="rotate(-90,952,472)"/><circle cx="1048" cy="472" r="16" transform="rotate(0,1048,472)"/><path d="M 1096 456v 32h 32v -16a 16 16, 0, 0, 0, -16 -16" transform="rotate(180,1112,472)"/><rect x="1128" y="456" width="32" height="32" transform="rotate(0,1144,472)"/><path d="M 1160 456v 32h 32v -16a 16 16, 0, 0, 0, -16 -16" transform="rotate(90,1176,472)"/><path d="M 8 488v 32h 32v -16a 16 16, 0, 0, 0, -16 -16" transform="rotate(180,24,504)"/><path d="M 40 488v 32h 16a 16 16, 0, 0, 0, 0 -32" transform="rotate(0,56,504)"/><rect x="136" y="488" width="32" height="32" transform="rotate(0,152,504)"/><path d="M 168 488v 32h 32v -16a 16 16, 0, 0, 0, -16 -16" transform="rotate(90,184,504)"/><rect x="296" y="488" width="32" height="32" transform="rotate(0,312,504)"/><rect x="328" y="488" width="32" height="32" transform="rotate(0,344,504)"/><rect x="360" y="488" width="32" height="32" transform="rotate(0,376,504)"/><rect x="392" y="488" width="32" height="32" transform="rotate(0,408,504)"/><rect x="424" y="488" width="32" height="32" transform="rotate(0,440,504)"/><rect x="456" y="488" width="32" height="32" transform="rotate(0,472,504)"/><path d="M 488 488v 32h 32v -16a 16 16, 0, 0, 0, -16 -16" transform="rotate(0,504,504)"/><path d="M 616 488v 32h 16a 16 16, 0, 0, 0, 0 -32" transform="rotate(90,632,504)"/><path d="M 680 488v 32h 16a 16 16, 0, 0, 0, 0 -32" transform="rotate(180,696,504)"/><rect x="712" y="488" width="32" height="32" transform="rotate(0,728,504)"/><rect x="744" y="488" width="32" height="32" transform="rotate(0,760,504)"/><rect x="776" y="488" width="32" height="32" transform="rotate(0,792,504)"/><rect x="808" y="488" width="32" height="32" transform="rotate(0,824,504)"/><path d="M 840 488v 32h 16a 16 16, 0, 0, 0, 0 -32" transform="rotate(0,856,504)"/><path d="M 904 488v 32h 32v -16a 16 16, 0, 0, 0, -16 -16" transform="rotate(-90,920,504)"/><rect x="936" y="488" width="32" height="32" transform="rotate(0,952,504)"/><path d="M 968 488v 32h 32v -16a 16 16, 0, 0, 0, -16 -16" transform="rotate(0,984,504)"/><path d="M 104 520v 32h 16a 16 16, 0, 0, 0, 0 -32" transform="rotate(180,120,536)"/><rect x="136" y="520" width="32" height="32" transform="rotate(0,152,536)"/><circle cx="216" cy="536" r="16" transform="rotate(0,216,536)"/><path d="M 264 520v 32h 32v -16a 16 16, 0, 0, 0, -16 -16" transform="rotate(-90,280,536)"/><rect x="296" y="520" width="32" height="32" transform="rotate(0,312,536)"/><rect x="328" y="520" width="32" height="32" transform="rotate(0,344,536)"/><path d="M 488 520v 32h 32v -16a 16 16, 0, 0, 0, -16 -16" transform="rotate(180,504,536)"/><path d="M 520 520v 32h 16a 16 16, 0, 0, 0, 0 -32" transform="rotate(0,536,536)"/><path d="M 584 520v 32h 16a 16 16, 0, 0, 0, 0 -32" transform="rotate(-90,600,536)"/><rect x="712" y="520" width="32" height="32" transform="rotate(0,728,536)"/><rect x="744" y="520" width="32" height="32" transform="rotate(0,760,536)"/><rect x="808" y="520" width="32" height="32" transform="rotate(0,824,536)"/><path d="M 872 520v 32h 16a 16 16, 0, 0, 0, 0 -32" transform="rotate(180,888,536)"/><rect x="904" y="520" width="32" height="32" transform="rotate(0,920,536)"/><rect x="936" y="520" width="32" height="32" transform="rotate(0,952,536)"/><rect x="968" y="520" width="32" height="32" transform="rotate(0,984,536)"/><circle cx="1080" cy="536" r="16" transform="rotate(0,1080,536)"/><path d="M 1128 520v 32h 32v -16a 16 16, 0, 0, 0, -16 -16" transform="rotate(-90,1144,536)"/><path d="M 1160 520v 32h 32v -16a 16 16, 0, 0, 0, -16 -16" transform="rotate(0,1176,536)"/><path d="M 8 552v 32h 16a 16 16, 0, 0, 0, 0 -32" transform="rotate(180,24,568)"/><rect x="40" y="552" width="32" height="32" transform="rotate(0,56,568)"/><path d="M 72 552v 32h 16a 16 16, 0, 0, 0, 0 -32" transform="rotate(0,88,568)"/><path d="M 136 552v 32h 16a 16 16, 0, 0, 0, 0 -32" transform="rotate(90,152,568)"/><path d="M 232 552v 32h 16a 16 16, 0, 0, 0, 0 -32" transform="rotate(180,248,568)"/><rect x="264" y="552" width="32" height="32" transform="rotate(0,280,568)"/><rect x="296" y="552" width="32" height="32" transform="rotate(0,312,568)"/><path d="M 328 552v 32h 32v -16a 16 16, 0, 0, 0, -16 -16" transform="rotate(90,344,568)"/><path d="M 392 552v 32h 32v -16a 16 16, 0, 0, 0, -16 -16" transform="rotate(-90,408,568)"/><path d="M 424 552v 32h 16a 16 16, 0, 0, 0, 0 -32" transform="rotate(0,440,568)"/><path d="M 584 552v 32h 32v -16a 16 16, 0, 0, 0, -16 -16" transform="rotate(180,600,568)"/><path d="M 616 552v 32h 32v -16a 16 16, 0, 0, 0, -16 -16" transform="rotate(0,632,568)"/><path d="M 680 552v 32h 16a 16 16, 0, 0, 0, 0 -32" transform="rotate(180,696,568)"/><rect x="712" y="552" width="32" height="32" transform="rotate(0,728,568)"/><path d="M 744 552v 32h 32v -16a 16 16, 0, 0, 0, -16 -16" transform="rotate(90,760,568)"/><path d="M 808 552v 32h 16a 16 16, 0, 0, 0, 0 -32" transform="rotate(90,824,568)"/><path d="M 904 552v 32h 32v -16a 16 16, 0, 0, 0, -16 -16" transform="rotate(180,920,568)"/><rect x="936" y="552" width="32" height="32" transform="rotate(0,952,568)"/><rect x="968" y="552" width="32" height="32" transform="rotate(0,984,568)"/><path d="M 1000 552v 32h 32v -16a 16 16, 0, 0, 0, -16 -16" transform="rotate(0,1016,568)"/><rect x="1128" y="552" width="32" height="32" transform="rotate(0,1144,568)"/><rect x="1160" y="552" width="32" height="32" transform="rotate(0,1176,568)"/><circle cx="120" cy="600" r="16" transform="rotate(0,120,600)"/><path d="M 168 584v 32h 16a 16 16, 0, 0, 0, 0 -32" transform="rotate(180,184,600)"/><path d="M 200 584v 32h 16a 16 16, 0, 0, 0, 0 -32" transform="rotate(0,216,600)"/><path d="M 264 584v 32h 32v -16a 16 16, 0, 0, 0, -16 -16" transform="rotate(180,280,600)"/><rect x="296" y="584" width="32" height="32" transform="rotate(0,312,600)"/><rect x="392" y="584" width="32" height="32" transform="rotate(0,408,600)"/><path d="M 456 584v 32h 16a 16 16, 0, 0, 0, 0 -32" transform="rotate(-90,472,600)"/><rect x="616" y="584" width="32" height="32" transform="rotate(0,632,600)"/><path d="M 648 584v 32h 32v -16a 16 16, 0, 0, 0, -16 -16" transform="rotate(0,664,600)"/><circle cx="856" cy="600" r="16" transform="rotate(0,856,600)"/><path d="M 936 584v 32h 16a 16 16, 0, 0, 0, 0 -32" transform="rotate(90,952,600)"/><rect x="1000" y="584" width="32" height="32" transform="rotate(0,1016,600)"/><path d="M 1032 584v 32h 32v -16a 16 16, 0, 0, 0, -16 -16" transform="rotate(0,1048,600)"/><rect x="1128" y="584" width="32" height="32" transform="rotate(0,1144,600)"/><rect x="1160" y="584" width="32" height="32" transform="rotate(0,1176,600)"/><path d="M 8 616v 32h 16a 16 16, 0, 0, 0, 0 -32" transform="rotate(-90,24,632)"/><path d="M 72 616v 32h 16a 16 16, 0, 0, 0, 0 -32" transform="rotate(-90,88,632)"/><path d="M 232 616v 32h 16a 16 16, 0, 0, 0, 0 -32" transform="rotate(-90,248,632)"/><rect x="296" y="616" width="32" height="32" transform="rotate(0,312,632)"/><path d="M 392 616v 32h 16a 16 16, 0, 0, 0, 0 -32" transform="rotate(90,408,632)"/><rect x="456" y="616" width="32" height="32" transform="rotate(0,472,632)"/><rect x="488" y="616" width="32" height="32" transform="rotate(0,504,632)"/><path d="M 520 616v 32h 32v -16a 16 16, 0, 0, 0, -16 -16" transform="rotate(0,536,632)"/><path d="M 584 616v 32h 32v -16a 16 16, 0, 0, 0, -16 -16" transform="rotate(-90,600,632)"/><rect x="616" y="616" width="32" height="32" transform="rotate(0,632,632)"/><rect x="648" y="616" width="32" height="32" transform="rotate(0,664,632)"/><rect x="680" y="616" width="32" height="32" transform="rotate(0,696,632)"/><rect x="712" y="616" width="32" height="32" transform="rotate(0,728,632)"/><path d="M 744 616v 32h 16a 16 16, 0, 0, 0, 0 -32" transform="rotate(0,760,632)"/><path d="M 808 616v 32h 16a 16 16, 0, 0, 0, 0 -32" transform="rotate(-90,824,632)"/><path d="M 904 616v 32h 16a 16 16, 0, 0, 0, 0 -32" transform="rotate(-90,920,632)"/><rect x="1000" y="616" width="32" height="32" transform="rotate(0,1016,632)"/><path d="M 1032 616v 32h 32v -16a 16 16, 0, 0, 0, -16 -16" transform="rotate(90,1048,632)"/><rect x="1128" y="616" width="32" height="32" transform="rotate(0,1144,632)"/><rect x="1160" y="616" width="32" height="32" transform="rotate(0,1176,632)"/><rect x="8" y="648" width="32" height="32" transform="rotate(0,24,664)"/><rect x="40" y="648" width="32" height="32" transform="rotate(0,56,664)"/><rect x="72" y="648" width="32" height="32" transform="rotate(0,88,664)"/><path d="M 104 648v 32h 32v -16a 16 16, 0, 0, 0, -16 -16" transform="rotate(0,120,664)"/><path d="M 168 648v 32h 32v -16a 16 16, 0, 0, 0, -16 -16" transform="rotate(-90,184,664)"/><rect x="200" y="648" width="32" height="32" transform="rotate(0,216,664)"/><rect x="232" y="648" width="32" height="32" transform="rotate(0,248,664)"/><rect x="264" y="648" width="32" height="32" transform="rotate(0,280,664)"/><rect x="296" y="648" width="32" height="32" transform="rotate(0,312,664)"/><path d="M 328 648v 32h 32v -16a 16 16, 0, 0, 0, -16 -16" transform="rotate(0,344,664)"/><path d="M 424 648v 32h 16a 16 16, 0, 0, 0, 0 -32" transform="rotate(180,440,664)"/><path d="M 456 648v 32h 32v -16a 16 16, 0, 0, 0, -16 -16" transform="rotate(90,472,664)"/><path d="M 520 648v 32h 16a 16 16, 0, 0, 0, 0 -32" transform="rotate(90,536,664)"/><rect x="584" y="648" width="32" height="32" transform="rotate(0,600,664)"/><rect x="616" y="648" width="32" height="32" transform="rotate(0,632,664)"/><rect x="648" y="648" width="32" height="32" transform="rotate(0,664,664)"/><rect x="680" y="648" width="32" height="32" transform="rotate(0,696,664)"/><path d="M 776 648v 32h 16a 16 16, 0, 0, 0, 0 -32" transform="rotate(180,792,664)"/><rect x="808" y="648" width="32" height="32" transform="rotate(0,824,664)"/><path d="M 872 648v 32h 16a 16 16, 0, 0, 0, 0 -32" transform="rotate(180,888,664)"/><rect x="904" y="648" width="32" height="32" transform="rotate(0,920,664)"/><rect x="936" y="648" width="32" height="32" transform="rotate(0,952,664)"/><rect x="968" y="648" width="32" height="32" transform="rotate(0,984,664)"/><path d="M 1000 648v 32h 32v -16a 16 16, 0, 0, 0, -16 -16" transform="rotate(90,1016,664)"/><rect x="1128" y="648" width="32" height="32" transform="rotate(0,1144,664)"/><rect x="1160" y="648" width="32" height="32" transform="rotate(0,1176,664)"/><path d="M 8 680v 32h 16a 16 16, 0, 0, 0, 0 -32" transform="rotate(90,24,696)"/><path d="M 104 680v 32h 32v -16a 16 16, 0, 0, 0, -16 -16" transform="rotate(180,120,696)"/><rect x="136" y="680" width="32" height="32" transform="rotate(0,152,696)"/><path d="M 168 680v 32h 32v -16a 16 16, 0, 0, 0, -16 -16" transform="rotate(90,184,696)"/><rect x="232" y="680" width="32" height="32" transform="rotate(0,248,696)"/><rect x="264" y="680" width="32" height="32" transform="rotate(0,280,696)"/><rect x="296" y="680" width="32" height="32" transform="rotate(0,312,696)"/><rect x="328" y="680" width="32" height="32" transform="rotate(0,344,696)"/><path d="M 584 680v 32h 16a 16 16, 0, 0, 0, 0 -32" transform="rotate(90,600,696)"/><rect x="680" y="680" width="32" height="32" transform="rotate(0,696,696)"/><path d="M 712 680v 32h 32v -16a 16 16, 0, 0, 0, -16 -16" transform="rotate(0,728,696)"/><rect x="808" y="680" width="32" height="32" transform="rotate(0,824,696)"/><path d="M 840 680v 32h 32v -16a 16 16, 0, 0, 0, -16 -16" transform="rotate(0,856,696)"/><path d="M 936 680v 32h 32v -16a 16 16, 0, 0, 0, -16 -16" transform="rotate(180,952,696)"/><path d="M 968 680v 32h 32v -16a 16 16, 0, 0, 0, -16 -16" transform="rotate(90,984,696)"/><path d="M 1064 680v 32h 16a 16 16, 0, 0, 0, 0 -32" transform="rotate(-90,1080,696)"/><rect x="1128" y="680" width="32" height="32" transform="rotate(0,1144,696)"/><rect x="1160" y="680" width="32" height="32" transform="rotate(0,1176,696)"/><path d="M 40 712v 32h 32v -16a 16 16, 0, 0, 0, -16 -16" transform="rotate(-90,56,728)"/><path d="M 72 712v 32h 32v -16a 16 16, 0, 0, 0, -16 -16" transform="rotate(0,88,728)"/><path d="M 200 712v 32h 16a 16 16, 0, 0, 0, 0 -32" transform="rotate(180,216,728)"/><rect x="232" y="712" width="32" height="32" transform="rotate(0,248,728)"/><rect x="328" y="712" width="32" height="32" transform="rotate(0,344,728)"/><circle cx="440" cy="728" r="16" transform="rotate(0,440,728)"/><path d="M 488 712v 32h 16a 16 16, 0, 0, 0, 0 -32" transform="rotate(180,504,728)"/><path d="M 520 712v 32h 16a 16 16, 0, 0, 0, 0 -32" transform="rotate(0,536,728)"/><path d="M 616 712v 32h 16a 16 16, 0, 0, 0, 0 -32" transform="rotate(-90,632,728)"/><rect x="680" y="712" width="32" height="32" transform="rotate(0,696,728)"/><path d="M 712 712v 32h 32v -16a 16 16, 0, 0, 0, -16 -16" transform="rotate(90,728,728)"/><rect x="808" y="712" width="32" height="32" transform="rotate(0,824,728)"/><rect x="840" y="712" width="32" height="32" transform="rotate(0,856,728)"/><circle cx="920" cy="728" r="16" transform="rotate(0,920,728)"/><path d="M 1032 712v 32h 16a 16 16, 0, 0, 0, 0 -32" transform="rotate(180,1048,728)"/><rect x="1064" y="712" width="32" height="32" transform="rotate(0,1080,728)"/><rect x="1096" y="712" width="32" height="32" transform="rotate(0,1112,728)"/><rect x="1128" y="712" width="32" height="32" transform="rotate(0,1144,728)"/><path d="M 1160 712v 32h 32v -16a 16 16, 0, 0, 0, -16 -16" transform="rotate(90,1176,728)"/><path d="M 8 744v 32h 16a 16 16, 0, 0, 0, 0 -32" transform="rotate(180,24,760)"/><rect x="40" y="744" width="32" height="32" transform="rotate(0,56,760)"/><path d="M 72 744v 32h 32v -16a 16 16, 0, 0, 0, -16 -16" transform="rotate(90,88,760)"/><path d="M 136 744v 32h 16a 16 16, 0, 0, 0, 0 -32" transform="rotate(-90,152,760)"/><rect x="232" y="744" width="32" height="32" transform="rotate(0,248,760)"/><rect x="328" y="744" width="32" height="32" transform="rotate(0,344,760)"/><path d="M 360 744v 32h 32v -16a 16 16, 0, 0, 0, -16 -16" transform="rotate(0,376,760)"/><path d="M 456 744v 32h 16a 16 16, 0, 0, 0, 0 -32" transform="rotate(-90,472,760)"/><path d="M 552 744v 32h 32v -16a 16 16, 0, 0, 0, -16 -16" transform="rotate(-90,568,760)"/><rect x="584" y="744" width="32" height="32" transform="rotate(0,600,760)"/><path d="M 616 744v 32h 32v -16a 16 16, 0, 0, 0, -16 -16" transform="rotate(90,632,760)"/><rect x="680" y="744" width="32" height="32" transform="rotate(0,696,760)"/><path d="M 744 744v 32h 16a 16 16, 0, 0, 0, 0 -32" transform="rotate(180,760,760)"/><rect x="776" y="744" width="32" height="32" transform="rotate(0,792,760)"/><rect x="808" y="744" width="32" height="32" transform="rotate(0,824,760)"/><rect x="840" y="744" width="32" height="32" transform="rotate(0,856,760)"/><rect x="1128" y="744" width="32" height="32" transform="rotate(0,1144,760)"/><path d="M 136 776v 32h 32v -16a 16 16, 0, 0, 0, -16 -16" transform="rotate(180,152,792)"/><rect x="168" y="776" width="32" height="32" transform="rotate(0,184,792)"/><rect x="200" y="776" width="32" height="32" transform="rotate(0,216,792)"/><rect x="232" y="776" width="32" height="32" transform="rotate(0,248,792)"/><path d="M 264 776v 32h 16a 16 16, 0, 0, 0, 0 -32" transform="rotate(0,280,792)"/><path d="M 328 776v 32h 32v -16a 16 16, 0, 0, 0, -16 -16" transform="rotate(180,344,792)"/><path d="M 360 776v 32h 32v -16a 16 16, 0, 0, 0, -16 -16" transform="rotate(90,376,792)"/><path d="M 424 776v 32h 32v -16a 16 16, 0, 0, 0, -16 -16" transform="rotate(-90,440,792)"/><rect x="456" y="776" width="32" height="32" transform="rotate(0,472,792)"/><path d="M 488 776v 32h 16a 16 16, 0, 0, 0, 0 -32" transform="rotate(0,504,792)"/><rect x="552" y="776" width="32" height="32" transform="rotate(0,568,792)"/><path d="M 584 776v 32h 32v -16a 16 16, 0, 0, 0, -16 -16" transform="rotate(90,600,792)"/><path d="M 648 776v 32h 16a 16 16, 0, 0, 0, 0 -32" transform="rotate(180,664,792)"/><rect x="680" y="776" width="32" height="32" transform="rotate(0,696,792)"/><path d="M 840 776v 32h 32v -16a 16 16, 0, 0, 0, -16 -16" transform="rotate(180,856,792)"/><rect x="872" y="776" width="32" height="32" transform="rotate(0,888,792)"/><rect x="904" y="776" width="32" height="32" transform="rotate(0,920,792)"/><rect x="936" y="776" width="32" height="32" transform="rotate(0,952,792)"/><path d="M 968 776v 32h 32v -16a 16 16, 0, 0, 0, -16 -16" transform="rotate(0,984,792)"/><circle cx="1080" cy="792" r="16" transform="rotate(0,1080,792)"/><rect x="1128" y="776" width="32" height="32" transform="rotate(0,1144,792)"/><path d="M 1160 776v 32h 32v -16a 16 16, 0, 0, 0, -16 -16" transform="rotate(0,1176,792)"/><circle cx="120" cy="824" r="16" transform="rotate(0,120,824)"/><path d="M 168 808v 32h 16a 16 16, 0, 0, 0, 0 -32" transform="rotate(90,184,824)"/><path d="M 232 808v 32h 16a 16 16, 0, 0, 0, 0 -32" transform="rotate(90,248,824)"/><path d="M 392 808v 32h 16a 16 16, 0, 0, 0, 0 -32" transform="rotate(180,408,824)"/><path d="M 424 808v 32h 32v -16a 16 16, 0, 0, 0, -16 -16" transform="rotate(90,440,824)"/><rect x="552" y="808" width="32" height="32" transform="rotate(0,568,824)"/><rect x="680" y="808" width="32" height="32" transform="rotate(0,696,824)"/><path d="M 712 808v 32h 32v -16a 16 16, 0, 0, 0, -16 -16" transform="rotate(0,728,824)"/><path d="M 776 808v 32h 32v -16a 16 16, 0, 0, 0, -16 -16" transform="rotate(-90,792,824)"/><path d="M 808 808v 32h 32v -16a 16 16, 0, 0, 0, -16 -16" transform="rotate(0,824,824)"/><rect x="904" y="808" width="32" height="32" transform="rotate(0,920,824)"/><rect x="968" y="808" width="32" height="32" transform="rotate(0,984,824)"/><path d="M 1096 808v 32h 32v -16a 16 16, 0, 0, 0, -16 -16" transform="rotate(-90,1112,824)"/><rect x="1128" y="808" width="32" height="32" transform="rotate(0,1144,824)"/><rect x="1160" y="808" width="32" height="32" transform="rotate(0,1176,824)"/><circle cx="24" cy="856" r="16" transform="rotate(0,24,856)"/><path d="M 136 840v 32h 16a 16 16, 0, 0, 0, 0 -32" transform="rotate(-90,152,856)"/><circle cx="216" cy="856" r="16" transform="rotate(0,216,856)"/><path d="M 264 840v 32h 32v -16a 16 16, 0, 0, 0, -16 -16" transform="rotate(-90,280,856)"/><path d="M 296 840v 32h 32v -16a 16 16, 0, 0, 0, -16 -16" transform="rotate(0,312,856)"/><path d="M 360 840v 32h 16a 16 16, 0, 0, 0, 0 -32" transform="rotate(-90,376,856)"/><path d="M 456 840v 32h 32v -16a 16 16, 0, 0, 0, -16 -16" transform="rotate(-90,472,856)"/><path d="M 488 840v 32h 16a 16 16, 0, 0, 0, 0 -32" transform="rotate(0,504,856)"/><rect x="552" y="840" width="32" height="32" transform="rotate(0,568,856)"/><rect x="584" y="840" width="32" height="32" transform="rotate(0,600,856)"/><rect x="616" y="840" width="32" height="32" transform="rotate(0,632,856)"/><rect x="648" y="840" width="32" height="32" transform="rotate(0,664,856)"/><rect x="680" y="840" width="32" height="32" transform="rotate(0,696,856)"/><path d="M 712 840v 32h 32v -16a 16 16, 0, 0, 0, -16 -16" transform="rotate(90,728,856)"/><rect x="776" y="840" width="32" height="32" transform="rotate(0,792,856)"/><rect x="808" y="840" width="32" height="32" transform="rotate(0,824,856)"/><path d="M 840 840v 32h 32v -16a 16 16, 0, 0, 0, -16 -16" transform="rotate(0,856,856)"/><path d="M 904 840v 32h 16a 16 16, 0, 0, 0, 0 -32" transform="rotate(90,920,856)"/><rect x="968" y="840" width="32" height="32" transform="rotate(0,984,856)"/><path d="M 1064 840v 32h 16a 16 16, 0, 0, 0, 0 -32" transform="rotate(180,1080,856)"/><rect x="1096" y="840" width="32" height="32" transform="rotate(0,1112,856)"/><rect x="1128" y="840" width="32" height="32" transform="rotate(0,1144,856)"/><path d="M 1160 840v 32h 32v -16a 16 16, 0, 0, 0, -16 -16" transform="rotate(90,1176,856)"/><path d="M 40 872v 32h 16a 16 16, 0, 0, 0, 0 -32" transform="rotate(180,56,888)"/><path d="M 72 872v 32h 32v -16a 16 16, 0, 0, 0, -16 -16" transform="rotate(0,88,888)"/><path d="M 136 872v 32h 32v -16a 16 16, 0, 0, 0, -16 -16" transform="rotate(180,152,888)"/><path d="M 168 872v 32h 32v -16a 16 16, 0, 0, 0, -16 -16" transform="rotate(0,184,888)"/><path d="M 264 872v 32h 32v -16a 16 16, 0, 0, 0, -16 -16" transform="rotate(180,280,888)"/><rect x="296" y="872" width="32" height="32" transform="rotate(0,312,888)"/><rect x="328" y="872" width="32" height="32" transform="rotate(0,344,888)"/><rect x="360" y="872" width="32" height="32" transform="rotate(0,376,888)"/><path d="M 424 872v 32h 16a 16 16, 0, 0, 0, 0 -32" transform="rotate(180,440,888)"/><rect x="456" y="872" width="32" height="32" transform="rotate(0,472,888)"/><path d="M 520 872v 32h 16a 16 16, 0, 0, 0, 0 -32" transform="rotate(180,536,888)"/><path d="M 552 872v 32h 32v -16a 16 16, 0, 0, 0, -16 -16" transform="rotate(90,568,888)"/><rect x="680" y="872" width="32" height="32" transform="rotate(0,696,888)"/><rect x="776" y="872" width="32" height="32" transform="rotate(0,792,888)"/><rect x="808" y="872" width="32" height="32" transform="rotate(0,824,888)"/><rect x="840" y="872" width="32" height="32" transform="rotate(0,856,888)"/><path d="M 872 872v 32h 16a 16 16, 0, 0, 0, 0 -32" transform="rotate(0,888,888)"/><rect x="968" y="872" width="32" height="32" transform="rotate(0,984,888)"/><rect x="1128" y="872" width="32" height="32" transform="rotate(0,1144,888)"/><circle cx="24" cy="920" r="16" transform="rotate(0,24,920)"/><path d="M 72 904v 32h 16a 16 16, 0, 0, 0, 0 -32" transform="rotate(90,88,920)"/><path d="M 168 904v 32h 32v -16a 16 16, 0, 0, 0, -16 -16" transform="rotate(180,184,920)"/><rect x="200" y="904" width="32" height="32" transform="rotate(0,216,920)"/><path d="M 232 904v 32h 16a 16 16, 0, 0, 0, 0 -32" transform="rotate(0,248,920)"/><rect x="296" y="904" width="32" height="32" transform="rotate(0,312,920)"/><path d="M 360 904v 32h 16a 16 16, 0, 0, 0, 0 -32" transform="rotate(90,376,920)"/><path d="M 456 904v 32h 32v -16a 16 16, 0, 0, 0, -16 -16" transform="rotate(180,472,920)"/><path d="M 488 904v 32h 32v -16a 16 16, 0, 0, 0, -16 -16" transform="rotate(0,504,920)"/><path d="M 680 904v 32h 16a 16 16, 0, 0, 0, 0 -32" transform="rotate(90,696,920)"/><path d="M 744 904v 32h 16a 16 16, 0, 0, 0, 0 -32" transform="rotate(180,760,920)"/><rect x="776" y="904" width="32" height="32" transform="rotate(0,792,920)"/><path d="M 808 904v 32h 32v -16a 16 16, 0, 0, 0, -16 -16" transform="rotate(90,824,920)"/><path d="M 904 904v 32h 32v -16a 16 16, 0, 0, 0, -16 -16" transform="rotate(-90,920,920)"/><rect x="936" y="904" width="32" height="32" transform="rotate(0,952,920)"/><rect x="968" y="904" width="32" height="32" transform="rotate(0,984,920)"/><rect x="1000" y="904" width="32" height="32" transform="rotate(0,1016,920)"/><path d="M 1032 904v 32h 32v -16a 16 16, 0, 0, 0, -16 -16" transform="rotate(0,1048,920)"/><rect x="1128" y="904" width="32" height="32" transform="rotate(0,1144,920)"/><path d="M 1160 904v 32h 32v -16a 16 16, 0, 0, 0, -16 -16" transform="rotate(0,1176,920)"/><path d="M 264 936v 32h 32v -16a 16 16, 0, 0, 0, -16 -16" transform="rotate(-90,280,952)"/><rect x="296" y="936" width="32" height="32" transform="rotate(0,312,952)"/><path d="M 328 936v 32h 16a 16 16, 0, 0, 0, 0 -32" transform="rotate(0,344,952)"/><circle cx="440" cy="952" r="16" transform="rotate(0,440,952)"/><path d="M 488 936v 32h 16a 16 16, 0, 0, 0, 0 -32" transform="rotate(90,504,952)"/><path d="M 584 936v 32h 32v -16a 16 16, 0, 0, 0, -16 -16" transform="rotate(-90,600,952)"/><rect x="616" y="936" width="32" height="32" transform="rotate(0,632,952)"/><path d="M 648 936v 32h 16a 16 16, 0, 0, 0, 0 -32" transform="rotate(0,664,952)"/><path d="M 776 936v 32h 16a 16 16, 0, 0, 0, 0 -32" transform="rotate(90,792,952)"/><path d="M 840 936v 32h 32v -16a 16 16, 0, 0, 0, -16 -16" transform="rotate(-90,856,952)"/><rect x="872" y="936" width="32" height="32" transform="rotate(0,888,952)"/><rect x="904" y="936" width="32" height="32" transform="rotate(0,920,952)"/><rect x="1032" y="936" width="32" height="32" transform="rotate(0,1048,952)"/><rect x="1128" y="936" width="32" height="32" transform="rotate(0,1144,952)"/><rect x="1160" y="936" width="32" height="32" transform="rotate(0,1176,952)"/><path d="M 264 968v 32h 16a 16 16, 0, 0, 0, 0 -32" transform="rotate(90,280,984)"/><circle cx="376" cy="984" r="16" transform="rotate(0,376,984)"/><path d="M 520 968v 32h 16a 16 16, 0, 0, 0, 0 -32" transform="rotate(180,536,984)"/><rect x="552" y="968" width="32" height="32" transform="rotate(0,568,984)"/><rect x="584" y="968" width="32" height="32" transform="rotate(0,600,984)"/><path d="M 616 968v 32h 32v -16a 16 16, 0, 0, 0, -16 -16" transform="rotate(90,632,984)"/><circle cx="696" cy="984" r="16" transform="rotate(0,696,984)"/><rect x="840" y="968" width="32" height="32" transform="rotate(0,856,984)"/><rect x="872" y="968" width="32" height="32" transform="rotate(0,888,984)"/><rect x="904" y="968" width="32" height="32" transform="rotate(0,920,984)"/><circle cx="984" cy="984" r="16" transform="rotate(0,984,984)"/><rect x="1032" y="968" width="32" height="32" transform="rotate(0,1048,984)"/><path d="M 1096 968v 32h 16a 16 16, 0, 0, 0, 0 -32" transform="rotate(180,1112,984)"/><rect x="1128" y="968" width="32" height="32" transform="rotate(0,1144,984)"/><rect x="1160" y="968" width="32" height="32" transform="rotate(0,1176,984)"/><path d="M 328 1000v 32h 16a 16 16, 0, 0, 0, 0 -32" transform="rotate(-90,344,1016)"/><path d="M 456 1000v 32h 32v -16a 16 16, 0, 0, 0, -16 -16" transform="rotate(-90,472,1016)"/><path d="M 488 1000v 32h 16a 16 16, 0, 0, 0, 0 -32" transform="rotate(0,504,1016)"/><path d="M 552 1000v 32h 32v -16a 16 16, 0, 0, 0, -16 -16" transform="rotate(180,568,1016)"/><path d="M 584 1000v 32h 32v -16a 16 16, 0, 0, 0, -16 -16" transform="rotate(90,600,1016)"/><circle cx="664" cy="1016" r="16" transform="rotate(0,664,1016)"/><path d="M 744 1000v 32h 16a 16 16, 0, 0, 0, 0 -32" transform="rotate(180,760,1016)"/><rect x="776" y="1000" width="32" height="32" transform="rotate(0,792,1016)"/><rect x="808" y="1000" width="32" height="32" transform="rotate(0,824,1016)"/><path d="M 840 1000v 32h 32v -16a 16 16, 0, 0, 0, -16 -16" transform="rotate(90,856,1016)"/><rect x="904" y="1000" width="32" height="32" transform="rotate(0,920,1016)"/><rect x="1032" y="1000" width="32" height="32" transform="rotate(0,1048,1016)"/><path d="M 1128 1000v 32h 32v -16a 16 16, 0, 0, 0, -16 -16" transform="rotate(180,1144,1016)"/><rect x="1160" y="1000" width="32" height="32" transform="rotate(0,1176,1016)"/><circle cx="280" cy="1048" r="16" transform="rotate(0,280,1048)"/><rect x="328" y="1032" width="32" height="32" transform="rotate(0,344,1048)"/><rect x="360" y="1032" width="32" height="32" transform="rotate(0,376,1048)"/><path d="M 392 1032v 32h 16a 16 16, 0, 0, 0, 0 -32" transform="rotate(0,408,1048)"/><path d="M 456 1032v 32h 16a 16 16, 0, 0, 0, 0 -32" transform="rotate(90,472,1048)"/><circle cx="536" cy="1048" r="16" transform="rotate(0,536,1048)"/><rect x="776" y="1032" width="32" height="32" transform="rotate(0,792,1048)"/><rect x="808" y="1032" width="32" height="32" transform="rotate(0,824,1048)"/><rect x="904" y="1032" width="32" height="32" transform="rotate(0,920,1048)"/><rect x="936" y="1032" width="32" height="32" transform="rotate(0,952,1048)"/><rect x="968" y="1032" width="32" height="32" transform="rotate(0,984,1048)"/><rect x="1000" y="1032" width="32" height="32" transform="rotate(0,1016,1048)"/><rect x="1032" y="1032" width="32" height="32" transform="rotate(0,1048,1048)"/><path d="M 1064 1032v 32h 16a 16 16, 0, 0, 0, 0 -32" transform="rotate(0,1080,1048)"/><rect x="1160" y="1032" width="32" height="32" transform="rotate(0,1176,1048)"/><rect x="328" y="1064" width="32" height="32" transform="rotate(0,344,1080)"/><circle cx="568" cy="1080" r="16" transform="rotate(0,568,1080)"/><circle cx="632" cy="1080" r="16" transform="rotate(0,632,1080)"/><path d="M 744 1064v 32h 32v -16a 16 16, 0, 0, 0, -16 -16" transform="rotate(-90,760,1080)"/><rect x="776" y="1064" width="32" height="32" transform="rotate(0,792,1080)"/><rect x="808" y="1064" width="32" height="32" transform="rotate(0,824,1080)"/><rect x="904" y="1064" width="32" height="32" transform="rotate(0,920,1080)"/><rect x="936" y="1064" width="32" height="32" transform="rotate(0,952,1080)"/><rect x="1000" y="1064" width="32" height="32" transform="rotate(0,1016,1080)"/><rect x="1032" y="1064" width="32" height="32" transform="rotate(0,1048,1080)"/><path d="M 1096 1064v 32h 16a 16 16, 0, 0, 0, 0 -32" transform="rotate(-90,1112,1080)"/><rect x="1160" y="1064" width="32" height="32" transform="rotate(0,1176,1080)"/><path d="M 264 1096v 32h 16a 16 16, 0, 0, 0, 0 -32" transform="rotate(-90,280,1112)"/><path d="M 328 1096v 32h 16a 16 16, 0, 0, 0, 0 -32" transform="rotate(90,344,1112)"/><path d="M 392 1096v 32h 16a 16 16, 0, 0, 0, 0 -32" transform="rotate(-90,408,1112)"/><path d="M 488 1096v 32h 16a 16 16, 0, 0, 0, 0 -32" transform="rotate(180,504,1112)"/><path d="M 520 1096v 32h 32v -16a 16 16, 0, 0, 0, -16 -16" transform="rotate(0,536,1112)"/><circle cx="600" cy="1112" r="16" transform="rotate(0,600,1112)"/><path d="M 712 1096v 32h 32v -16a 16 16, 0, 0, 0, -16 -16" transform="rotate(-90,728,1112)"/><rect x="744" y="1096" width="32" height="32" transform="rotate(0,760,1112)"/><rect x="776" y="1096" width="32" height="32" transform="rotate(0,792,1112)"/><rect x="808" y="1096" width="32" height="32" transform="rotate(0,824,1112)"/><path d="M 840 1096v 32h 32v -16a 16 16, 0, 0, 0, -16 -16" transform="rotate(0,856,1112)"/><rect x="904" y="1096" width="32" height="32" transform="rotate(0,920,1112)"/><rect x="936" y="1096" width="32" height="32" transform="rotate(0,952,1112)"/><rect x="1000" y="1096" width="32" height="32" transform="rotate(0,1016,1112)"/><rect x="1032" y="1096" width="32" height="32" transform="rotate(0,1048,1112)"/><path d="M 1096 1096v 32h 16a 16 16, 0, 0, 0, 0 -32" transform="rotate(90,1112,1112)"/><path d="M 1160 1096v 32h 16a 16 16, 0, 0, 0, 0 -32" transform="rotate(90,1176,1112)"/><path d="M 264 1128v 32h 32v -16a 16 16, 0, 0, 0, -16 -16" transform="rotate(180,280,1144)"/><path d="M 296 1128v 32h 16a 16 16, 0, 0, 0, 0 -32" transform="rotate(0,312,1144)"/><path d="M 360 1128v 32h 32v -16a 16 16, 0, 0, 0, -16 -16" transform="rotate(-90,376,1144)"/><path d="M 392 1128v 32h 32v -16a 16 16, 0, 0, 0, -16 -16" transform="rotate(90,408,1144)"/><path d="M 456 1128v 32h 16a 16 16, 0, 0, 0, 0 -32" transform="rotate(-90,472,1144)"/><path d="M 520 1128v 32h 16a 16 16, 0, 0, 0, 0 -32" transform="rotate(90,536,1144)"/><circle cx="632" cy="1144" r="16" transform="rotate(0,632,1144)"/><path d="M 680 1128v 32h 32v -16a 16 16, 0, 0, 0, -16 -16" transform="rotate(-90,696,1144)"/><path d="M 712 1128v 32h 32v -16a 16 16, 0, 0, 0, -16 -16" transform="rotate(90,728,1144)"/><rect x="776" y="1128" width="32" height="32" transform="rotate(0,792,1144)"/><rect x="808" y="1128" width="32" height="32" transform="rotate(0,824,1144)"/><rect x="840" y="1128" width="32" height="32" transform="rotate(0,856,1144)"/><rect x="872" y="1128" width="32" height="32" transform="rotate(0,888,1144)"/><rect x="904" y="1128" width="32" height="32" transform="rotate(0,920,1144)"/><rect x="936" y="1128" width="32" height="32" transform="rotate(0,952,1144)"/><path d="M 1000 1128v 32h 32v -16a 16 16, 0, 0, 0, -16 -16" transform="rotate(180,1016,1144)"/><rect x="1032" y="1128" width="32" height="32" transform="rotate(0,1048,1144)"/><path d="M 1128 1128v 32h 16a 16 16, 0, 0, 0, 0 -32" transform="rotate(-90,1144,1144)"/><path d="M 328 1160v 32h 16a 16 16, 0, 0, 0, 0 -32" transform="rotate(180,344,1176)"/><path d="M 360 1160v 32h 32v -16a 16 16, 0, 0, 0, -16 -16" transform="rotate(90,376,1176)"/><path d="M 424 1160v 32h 16a 16 16, 0, 0, 0, 0 -32" transform="rotate(180,440,1176)"/><rect x="456" y="1160" width="32" height="32" transform="rotate(0,472,1176)"/><path d="M 488 1160v 32h 16a 16 16, 0, 0, 0, 0 -32" transform="rotate(0,504,1176)"/><circle cx="600" cy="1176" r="16" transform="rotate(0,600,1176)"/><path d="M 648 1160v 32h 16a 16 16, 0, 0, 0, 0 -32" transform="rotate(180,664,1176)"/><path d="M 680 1160v 32h 32v -16a 16 16, 0, 0, 0, -16 -16" transform="rotate(90,696,1176)"/><path d="M 744 1160v 32h 16a 16 16, 0, 0, 0, 0 -32" transform="rotate(180,760,1176)"/><rect x="776" y="1160" width="32" height="32" transform="rotate(0,792,1176)"/><path d="M 808 1160v 32h 32v -16a 16 16, 0, 0, 0, -16 -16" transform="rotate(90,824,1176)"/><path d="M 872 1160v 32h 32v -16a 16 16, 0, 0, 0, -16 -16" transform="rotate(180,888,1176)"/><rect x="904" y="1160" width="32" height="32" transform="rotate(0,920,1176)"/><path d="M 936 1160v 32h 32v -16a 16 16, 0, 0, 0, -16 -16" transform="rotate(90,952,1176)"/><path d="M 1032 1160v 32h 32v -16a 16 16, 0, 0, 0, -16 -16" transform="rotate(180,1048,1176)"/><path d="M 1064 1160v 32h 16a 16 16, 0, 0, 0, 0 -32" transform="rotate(0,1080,1176)"/><path d="M 1128 1160v 32h 32v -16a 16 16, 0, 0, 0, -16 -16" transform="rotate(180,1144,1176)"/><path d="M 1160 1160v 32h 16a 16 16, 0, 0, 0, 0 -32" transform="rotate(0,1176,1176)"/></clipPath><clipPath id="clip-path-corners-square-color-0-0-146"><path clip-rule="evenodd" d="M 8 88v 64a 80 80, 0, 0, 0, 80 80h 64a 80 80, 0, 0, 0, 80 -80v -64a 80 80, 0, 0, 0, -80 -80h -64a 80 80, 0, 0, 0, -80 80M 88 40h 64a 48 48, 0, 0, 1, 48 48v 64a 48 48, 0, 0, 1, -48 48h -64a 48 48, 0, 0, 1, -48 -48v -64a 48 48, 0, 0, 1, 48 -48" transform="rotate(0,120,120)"/></clipPath><clipPath id="clip-path-corners-dot-color-0-0-146"><circle cx="120" cy="120" r="48" transform="rotate(0,120,120)"/></clipPath><clipPath id="clip-path-corners-square-color-1-0-146"><path clip-rule="evenodd" d="M 968 88v 64a 80 80, 0, 0, 0, 80 80h 64a 80 80, 0, 0, 0, 80 -80v -64a 80 80, 0, 0, 0, -80 -80h -64a 80 80, 0, 0, 0, -80 80M 1048 40h 64a 48 48, 0, 0, 1, 48 48v 64a 48 48, 0, 0, 1, -48 48h -64a 48 48, 0, 0, 1, -48 -48v -64a 48 48, 0, 0, 1, 48 -48" transform="rotate(90,1080,120)"/></clipPath><clipPath id="clip-path-corners-dot-color-1-0-146"><circle cx="1080" cy="120" r="48" transform="rotate(90,1080,120)"/></clipPath><clipPath id="clip-path-corners-square-color-0-1-146"><path clip-rule="evenodd" d="M 8 1048v 64a 80 80, 0, 0, 0, 80 80h 64a 80 80, 0, 0, 0, 80 -80v -64a 80 80, 0, 0, 0, -80 -80h -64a 80 80, 0, 0, 0, -80 80M 88 1000h 64a 48 48, 0, 0, 1, 48 48v 64a 48 48, 0, 0, 1, -48 48h -64a 48 48, 0, 0, 1, -48 -48v -64a 48 48, 0, 0, 1, 48 -48" transform="rotate(-90,120,1080)"/></clipPath><clipPath id="clip-path-corners-dot-color-0-1-146"><circle cx="120" cy="1080" r="48" transform="rotate(-90,120,1080)"/></clipPath></defs><rect x="0" y="0" height="1200" width="1200" clip-path="url('#clip-path-background-color-146')" fill="#ffffff"/><rect x="0" y="0" height="1200" width="1200" clip-path="url('#clip-path-dot-color-146')" fill="#000000"/><rect x="8" y="8" height="224" width="224" clip-path="url('#clip-path-corners-square-color-0-0-146')" fill="#000000"/><rect x="72" y="72" height="96" width="96" clip-path="url('#clip-path-corners-dot-color-0-0-146')" fill="#000000"/><rect x="968" y="8" height="224" width="224" clip-path="url('#clip-path-corners-square-color-1-0-146')" fill="#000000"/><rect x="1032" y="72" height="96" width="96" clip-path="url('#clip-path-corners-dot-color-1-0-146')" fill="#000000"/><rect x="8" y="968" height="224" width="224" clip-path="url('#clip-path-corners-square-color-0-1-146')" fill="#000000"/><rect x="72" y="1032" height="96" width="96" clip-path="url('#clip-path-corners-dot-color-0-1-146')" fill="#000000"/></svg>