<?xml version="1.0" standalone="no"?>
<svg xmlns="http://www.w3.org/2000/svg" width="1200" height="1200" xmlns:xlink="http://www.w3.org/1999/xlink" viewBox="0 0 1200 1200"><defs><clipPath id="clip-path-background-color-217"><rect x="0" y="0" width="1200" height="1200"/></clipPath><clipPath id="clip-path-dot-color-217"><path d="M 250 26v 28h 14a 14 14, 0, 0, 0, 0 -28" transform="rotate(180,264,40)"/><rect x="278" y="26" width="28" height="28" transform="rotate(0,292,40)"/><path d="M 306 26v 28h 28v -14a 14 14, 0, 0, 0, -14 -14" transform="rotate(0,320,40)"/><path d="M 390 26v 28h 14a 14 14, 0, 0, 0, 0 -28" transform="rotate(-90,404,40)"/><path d="M 474 26v 28h 14a 14 14, 0, 0, 0, 0 -28" transform="rotate(-90,488,40)"/><circle cx="572" cy="40" r="14" transform="rotate(0,572,40)"/><path d="M 614 26v 28h 14a 14 14, 0, 0, 0, 0 -28" transform="rotate(180,628,40)"/><rect x="642" y="26" width="28" height="28" transform="rotate(0,656,40)"/><rect x="670" y="26" width="28" height="28" transform="rotate(0,684,40)"/><rect x="698" y="26" width="28" height="28" transform="rotate(0,712,40)"/><rect x="726" y="26" width="28" height="28" transform="rotate(0,740,40)"/><rect x="754" y="26" width="28" height="28" transform="rotate(0,768,40)"/><path d="M 782 26v 28h 28v -14a 14 14, 0, 0, 0, -14 -14" transform="rotate(0,796,40)"/><path d="M 838 26v 28h 14a 14 14, 0, 0, 0, 0 -28" transform="rotate(-90,852,40)"/><circle cx="908" cy="40" r="14" transform="rotate(0,908,40)"/><rect x="278" y="54" width="28" height="28" transform="rotate(0,292,68)"/><rect x="306" y="54" width="28" height="28" transform="rotate(0,320,68)"/><rect x="334" y="54" width="28" height="28" transform="rotate(0,348,68)"/><rect x="362" y="54" width="28" height="28" transform="rotate(0,376,68)"/><rect x="390" y="54" width="28" height="28" transform="rotate(0,404,68)"/><path d="M 418 54v 28h 14a 14 14, 0, 0, 0, 0 -28" transform="rotate(0,432,68)"/><rect x="474" y="54" width="28" height="28" transform="rotate(0,488,68)"/><rect x="502" y="54" width="28" height="28" transform="rotate(0,516,68)"/><path d="M 530 54v 28h 14a 14 14, 0, 0, 0, 0 -28" transform="rotate(0,544,68)"/><path d="M 670 54v 28h 14a 14 14, 0, 0, 0, 0 -28" transform="rotate(90,684,68)"/><rect x="726" y="54" width="28" height="28" transform="rotate(0,740,68)"/><rect x="754" y="54" width="28" height="28" transform="rotate(0,768,68)"/><rect x="782" y="54" width="28" height="28" transform="rotate(0,796,68)"/><rect x="810" y="54" width="28" height="28" transform="rotate(0,824,68)"/><rect x="838" y="54" width="28" height="28" transform="rotate(0,852,68)"/><path d="M 922 54v 28h 14a 14 14, 0, 0, 0, 0 -28" transform="rotate(-90,936,68)"/><path d="M 250 82v 28h 28v -14a 14 14, 0, 0, 0, -14 -14" transform="rotate(-90,264,96)"/><rect x="278" y="82" width="28" height="28" transform="rotate(0,292,96)"/><rect x="306" y="82" width="28" height="28" transform="rotate(0,320,96)"/><rect x="334" y="82" width="28" height="28" transform="rotate(0,348,96)"/><rect x="390" y="82" width="28" height="28" transform="rotate(0,404,96)"/><path d="M 446 82v 28h 28v -14a 14 14, 0, 0, 0, -14 -14" transform="rotate(-90,460,96)"/><rect x="474" y="82" width="28" height="28" transform="rotate(0,488,96)"/><path d="M 558 82v 28h 14a 14 14, 0, 0, 0, 0 -28" transform="rotate(-90,572,96)"/><path d="M 614 82v 28h 28v -14a 14 14, 0, 0, 0, -14 -14" transform="rotate(-90,628,96)"/><path d="M 642 82v 28h 28v -14a 14 14, 0, 0, 0, -14 -14" transform="rotate(0,656,96)"/><path d="M 698 82v 28h 14a 14 14, 0, 0, 0, 0 -28" transform="rotate(180,712,96)"/><rect x="726" y="82" width="28" height="28" transform="rotate(0,740,96)"/><path d="M 838 82v 28h 14a 14 14, 0, 0, 0, 0 -28" transform="rotate(90,852,96)"/><rect x="922" y="82" width="28" height="28" transform="rotate(0,936,96)"/><path d="M 250 110v 28h 28v -14a 14 14, 0, 0, 0, -14 -14" transform="rotate(180,264,124)"/><rect x="278" y="110" width="28" height="28" transform="rotate(0,292,124)"/><rect x="334" y="110" width="28" height="28" transform="rotate(0,348,124)"/><path d="M 390 110v 28h 28v -14a 14 14, 0, 0, 0, -14 -14" transform="rotate(180,404,124)"/><rect x="418" y="110" width="28" height="28" transform="rotate(0,432,124)"/><rect x="446" y="110" width="28" height="28" transform="rotate(0,460,124)"/><path d="M 474 110v 28h 28v -14a 14 14, 0, 0, 0, -14 -14" transform="rotate(90,488,124)"/><rect x="558" y="110" width="28" height="28" transform="rotate(0,572,124)"/><rect x="586" y="110" width="28" height="28" transform="rotate(0,600,124)"/><rect x="614" y="110" width="28" height="28" transform="rotate(0,628,124)"/><rect x="642" y="110" width="28" height="28" transform="rotate(0,656,124)"/><rect x="726" y="110" width="28" height="28" transform="rotate(0,740,124)"/><path d="M 754 110v 28h 28v -14a 14 14, 0, 0, 0, -14 -14" transform="rotate(0,768,124)"/><path d="M 866 110v 28h 14a 14 14, 0, 0, 0, 0 -28" transform="rotate(-90,880,124)"/><path d="M 922 110v 28h 14a 14 14, 0, 0, 0, 0 -28" transform="rotate(90,936,124)"/><path d="M 278 138v 28h 28v -14a 14 14, 0, 0, 0, -14 -14" transform="rotate(180,292,152)"/><rect x="306" y="138" width="28" height="28" transform="rotate(0,320,152)"/><rect x="334" y="138" width="28" height="28" transform="rotate(0,348,152)"/><rect x="418" y="138" width="28" height="28" transform="rotate(0,432,152)"/><rect x="446" y="138" width="28" height="28" transform="rotate(0,460,152)"/><path d="M 558 138v 28h 28v -14a 14 14, 0, 0, 0, -14 -14" transform="rotate(180,572,152)"/><rect x="586" y="138" width="28" height="28" transform="rotate(0,600,152)"/><rect x="642" y="138" width="28" height="28" transform="rotate(0,656,152)"/><path d="M 670 138v 28h 28v -14a 14 14, 0, 0, 0, -14 -14" transform="rotate(0,684,152)"/><path d="M 726 138v 28h 28v -14a 14 14, 0, 0, 0, -14 -14" transform="rotate(180,740,152)"/><rect x="754" y="138" width="28" height="28" transform="rotate(0,768,152)"/><rect x="782" y="138" width="28" height="28" transform="rotate(0,796,152)"/><path d="M 810 138v 28h 14a 14 14, 0, 0, 0, 0 -28" transform="rotate(0,824,152)"/><path d="M 866 138v 28h 14a 14 14, 0, 0, 0, 0 -28" transform="rotate(90,880,152)"/><path d="M 250 166v 28h 14a 14 14, 0, 0, 0, 0 -28" transform="rotate(-90,264,180)"/><path d="M 334 166v 28h 14a 14 14, 0, 0, 0, 0 -28" transform="rotate(90,348,180)"/><path d="M 390 166v 28h 14a 14 14, 0, 0, 0, 0 -28" transform="rotate(180,404,180)"/><rect x="418" y="166" width="28" height="28" transform="rotate(0,432,180)"/><path d="M 446 166v 28h 28v -14a 14 14, 0, 0, 0, -14 -14" transform="rotate(90,460,180)"/><circle cx="516" cy="180" r="14" transform="rotate(0,516,180)"/><rect x="586" y="166" width="28" height="28" transform="rotate(0,600,180)"/><rect x="642" y="166" width="28" height="28" transform="rotate(0,656,180)"/><rect x="670" y="166" width="28" height="28" transform="rotate(0,684,180)"/><path d="M 698 166v 28h 28v -14a 14 14, 0, 0, 0, -14 -14" transform="rotate(0,712,180)"/><rect x="754" y="166" width="28" height="28" transform="rotate(0,768,180)"/><path d="M 782 166v 28h 28v -14a 14 14, 0, 0, 0, -14 -14" transform="rotate(90,796,180)"/><circle cx="852" cy="180" r="14" transform="rotate(0,852,180)"/><circle cx="908" cy="180" r="14" transform="rotate(0,908,180)"/><rect x="250" y="194" width="28" height="28" transform="rotate(0,264,208)"/><path d="M 306 194v 28h 14a 14 14, 0, 0, 0, 0 -28" transform="rotate(-90,320,208)"/><circle cx="376" cy="208" r="14" transform="rotate(0,376,208)"/><rect x="418" y="194" width="28" height="28" transform="rotate(0,432,208)"/><circle cx="488" cy="208" r="14" transform="rotate(0,488,208)"/><circle cx="544" cy="208" r="14" transform="rotate(0,544,208)"/><rect x="586" y="194" width="28" height="28" transform="rotate(0,600,208)"/><rect x="642" y="194" width="28" height="28" transform="rotate(0,656,208)"/><path d="M 698 194v 28h 14a 14 14, 0, 0, 0, 0 -28" transform="rotate(90,712,208)"/><path d="M 754 194v 28h 14a 14 14, 0, 0, 0, 0 -28" transform="rotate(90,768,208)"/><path d="M 810 194v 28h 14a 14 14, 0, 0, 0, 0 -28" transform="rotate(-90,824,208)"/><path d="M 866 194v 28h 14a 14 14, 0, 0, 0, 0 -28" transform="rotate(-90,880,208)"/><path d="M 922 194v 28h 14a 14 14, 0, 0, 0, 0 -28" transform="rotate(-90,936,208)"/><rect x="250" y="222" width="28" height="28" transform="rotate(0,264,236)"/><rect x="278" y="222" width="28" height="28" transform="rotate(0,292,236)"/><rect x="306" y="222" width="28" height="28" transform="rotate(0,320,236)"/><path d="M 390 222v 28h 14a 14 14, 0, 0, 0, 0 -28" transform="rotate(180,404,236)"/><rect x="418" y="222" width="28" height="28" transform="rotate(0,432,236)"/><path d="M 446 222v 28h 14a 14 14, 0, 0, 0, 0 -28" transform="rotate(0,460,236)"/><path d="M 502 222v 28h 14a 14 14, 0, 0, 0, 0 -28" transform="rotate(-90,516,236)"/><path d="M 558 222v 28h 14a 14 14, 0, 0, 0, 0 -28" transform="rotate(180,572,236)"/><path d="M 586 222v 28h 28v -14a 14 14, 0, 0, 0, -14 -14" transform="rotate(90,600,236)"/><rect x="642" y="222" width="28" height="28" transform="rotate(0,656,236)"/><path d="M 810 222v 28h 28v -14a 14 14, 0, 0, 0, -14 -14" transform="rotate(180,824,236)"/><rect x="838" y="222" width="28" height="28" transform="rotate(0,852,236)"/><path d="M 866 222v 28h 28v -14a 14 14, 0, 0, 0, -14 -14" transform="rotate(90,880,236)"/><path d="M 922 222v 28h 14a 14 14, 0, 0, 0, 0 -28" transform="rotate(90,936,236)"/><path d="M 54 250v 28h 14a 14 14, 0, 0, 0, 0 -28" transform="rotate(-90,68,264)"/><path d="M 110 250v 28h 14a 14 14, 0, 0, 0, 0 -28" transform="rotate(-90,124,264)"/><path d="M 166 250v 28h 14a 14 14, 0, 0, 0, 0 -28" transform="rotate(180,180,264)"/><rect x="194" y="250" width="28" height="28" transform="rotate(0,208,264)"/><rect x="222" y="250" width="28" height="28" transform="rotate(0,236,264)"/><rect x="250" y="250" width="28" height="28" transform="rotate(0,264,264)"/><rect x="278" y="250" width="28" height="28" transform="rotate(0,292,264)"/><rect x="306" y="250" width="28" height="28" transform="rotate(0,320,264)"/><rect x="334" y="250" width="28" height="28" transform="rotate(0,348,264)"/><path d="M 362 250v 28h 14a 14 14, 0, 0, 0, 0 -28" transform="rotate(0,376,264)"/><rect x="418" y="250" width="28" height="28" transform="rotate(0,432,264)"/><path d="M 474 250v 28h 28v -14a 14 14, 0, 0, 0, -14 -14" transform="rotate(-90,488,264)"/><rect x="502" y="250" width="28" height="28" transform="rotate(0,516,264)"/><path d="M 530 250v 28h 28v -14a 14 14, 0, 0, 0, -14 -14" transform="rotate(0,544,264)"/><path d="M 614 250v 28h 14a 14 14, 0, 0, 0, 0 -28" transform="rotate(180,628,264)"/><rect x="642" y="250" width="28" height="28" transform="rotate(0,656,264)"/><path d="M 698 250v 28h 14a 14 14, 0, 0, 0, 0 -28" transform="rotate(180,712,264)"/><rect x="726" y="250" width="28" height="28" transform="rotate(0,740,264)"/><path d="M 754 250v 28h 14a 14 14, 0, 0, 0, 0 -28" transform="rotate(0,768,264)"/><path d="M 950 250v 28h 28v -14a 14 14, 0, 0, 0, -14 -14" transform="rotate(-90,964,264)"/><rect x="978" y="250" width="28" height="28" transform="rotate(0,992,264)"/><path d="M 1006 250v 28h 14a 14 14, 0, 0, 0, 0 -28" transform="rotate(0,1020,264)"/><path d="M 1062 250v 28h 28v -14a 14 14, 0, 0, 0, -14 -14" transform="rotate(-90,1076,264)"/><path d="M 1090 250v 28h 28v -14a 14 14, 0, 0, 0, -14 -14" transform="rotate(0,1104,264)"/><path d="M 1146 250v 28h 14a 14 14, 0, 0, 0, 0 -28" transform="rotate(-90,1160,264)"/><path d="M 26 278v 28h 14a 14 14, 0, 0, 0, 0 -28" transform="rotate(180,40,292)"/><rect x="54" y="278" width="28" height="28" transform="rotate(0,68,292)"/><rect x="82" y="278" width="28" height="28" transform="rotate(0,96,292)"/><path d="M 110 278v 28h 28v -14a 14 14, 0, 0, 0, -14 -14" transform="rotate(90,124,292)"/><path d="M 250 278v 28h 14a 14 14, 0, 0, 0, 0 -28" transform="rotate(90,264,292)"/><rect x="418" y="278" width="28" height="28" transform="rotate(0,432,292)"/><rect x="446" y="278" width="28" height="28" transform="rotate(0,460,292)"/><path d="M 474 278v 28h 28v -14a 14 14, 0, 0, 0, -14 -14" transform="rotate(90,488,292)"/><path d="M 530 278v 28h 28v -14a 14 14, 0, 0, 0, -14 -14" transform="rotate(180,544,292)"/><rect x="558" y="278" width="28" height="28" transform="rotate(0,572,292)"/><path d="M 586 278v 28h 28v -14a 14 14, 0, 0, 0, -14 -14" transform="rotate(0,600,292)"/><path d="M 642 278v 28h 14a 14 14, 0, 0, 0, 0 -28" transform="rotate(90,656,292)"/><rect x="726" y="278" width="28" height="28" transform="rotate(0,740,292)"/><path d="M 810 278v 28h 28v -14a 14 14, 0, 0, 0, -14 -14" transform="rotate(-90,824,292)"/><rect x="838" y="278" width="28" height="28" transform="rotate(0,852,292)"/><path d="M 866 278v 28h 28v -14a 14 14, 0, 0, 0, -14 -14" transform="rotate(0,880,292)"/><path d="M 922 278v 28h 14a 14 14, 0, 0, 0, 0 -28" transform="rotate(180,936,292)"/><rect x="950" y="278" width="28" height="28" transform="rotate(0,964,292)"/><path d="M 978 278v 28h 28v -14a 14 14, 0, 0, 0, -14 -14" transform="rotate(90,992,292)"/><rect x="1062" y="278" width="28" height="28" transform="rotate(0,1076,292)"/><rect x="1090" y="278" width="28" height="28" transform="rotate(0,1104,292)"/><rect x="1118" y="278" width="28" height="28" transform="rotate(0,1132,292)"/><path d="M 1146 278v 28h 28v -14a 14 14, 0, 0, 0, -14 -14" transform="rotate(90,1160,292)"/><path d="M 54 306v 28h 14a 14 14, 0, 0, 0, 0 -28" transform="rotate(90,68,320)"/><circle cx="208" cy="320" r="14" transform="rotate(0,208,320)"/><path d="M 278 306v 28h 14a 14 14, 0, 0, 0, 0 -28" transform="rotate(-90,292,320)"/><path d="M 334 306v 28h 28v -14a 14 14, 0, 0, 0, -14 -14" transform="rotate(-90,348,320)"/><path d="M 362 306v 28h 14a 14 14, 0, 0, 0, 0 -28" transform="rotate(0,376,320)"/><rect x="418" y="306" width="28" height="28" transform="rotate(0,432,320)"/><rect x="558" y="306" width="28" height="28" transform="rotate(0,572,320)"/><path d="M 586 306v 28h 28v -14a 14 14, 0, 0, 0, -14 -14" transform="rotate(90,600,320)"/><path d="M 698 306v 28h 28v -14a 14 14, 0, 0, 0, -14 -14" transform="rotate(-90,712,320)"/><rect x="726" y="306" width="28" height="28" transform="rotate(0,740,320)"/><rect x="810" y="306" width="28" height="28" transform="rotate(0,824,320)"/><rect x="838" y="306" width="28" height="28" transform="rotate(0,852,320)"/><rect x="866" y="306" width="28" height="28" transform="rotate(0,880,320)"/><path d="M 894 306v 28h 14a 14 14, 0, 0, 0, 0 -28" transform="rotate(0,908,320)"/><circle cx="1020" cy="320" r="14" transform="rotate(0,1020,320)"/><path d="M 1062 306v 28h 28v -14a 14 14, 0, 0, 0, -14 -14" transform="rotate(180,1076,320)"/><rect x="1090" y="306" width="28" height="28" transform="rotate(0,1104,320)"/><path d="M 82 334v 28h 14a 14 14, 0, 0, 0, 0 -28" transform="rotate(180,96,348)"/><path d="M 110 334v 28h 28v -14a 14 14, 0, 0, 0, -14 -14" transform="rotate(0,124,348)"/><circle cx="180" cy="348" r="14" transform="rotate(0,180,348)"/><path d="M 250 334v 28h 14a 14 14, 0, 0, 0, 0 -28" transform="rotate(180,264,348)"/><rect x="278" y="334" width="28" height="28" transform="rotate(0,292,348)"/><path d="M 334 334v 28h 14a 14 14, 0, 0, 0, 0 -28" transform="rotate(90,348,348)"/><path d="M 390 334v 28h 14a 14 14, 0, 0, 0, 0 -28" transform="rotate(180,404,348)"/><rect x="418" y="334" width="28" height="28" transform="rotate(0,432,348)"/><rect x="446" y="334" width="28" height="28" transform="rotate(0,460,348)"/><rect x="474" y="334" width="28" height="28" transform="rotate(0,488,348)"/><rect x="502" y="334" width="28" height="28" transform="rotate(0,516,348)"/><rect x="530" y="334" width="28" height="28" transform="rotate(0,544,348)"/><rect x="558" y="334" width="28" height="28" transform="rotate(0,572,348)"/><path d="M 642 334v 28h 28v -14a 14 14, 0, 0, 0, -14 -14" transform="rotate(-90,656,348)"/><rect x="670" y="334" width="28" height="28" transform="rotate(0,684,348)"/><rect x="698" y="334" width="28" height="28" transform="rotate(0,712,348)"/><rect x="726" y="334" width="28" height="28" transform="rotate(0,740,348)"/><rect x="754" y="334" width="28" height="28" transform="rotate(0,768,348)"/><rect x="782" y="334" width="28" height="28" transform="rotate(0,796,348)"/><rect x="810" y="334" width="28" height="28" transform="rotate(0,824,348)"/><path d="M 978 334v 28h 14a 14 14, 0, 0, 0, 0 -28" transform="rotate(-90,992,348)"/><path d="M 1090 334v 28h 14a 14 14, 0, 0, 0, 0 -28" transform="rotate(90,1104,348)"/><path d="M 26 362v 28h 28v -14a 14 14, 0, 0, 0, -14 -14" transform="rotate(-90,40,376)"/><path d="M 54 362v 28h 28v -14a 14 14, 0, 0, 0, -14 -14" transform="rotate(0,68,376)"/><path d="M 110 362v 28h 14a 14 14, 0, 0, 0, 0 -28" transform="rotate(90,124,376)"/><path d="M 194 362v 28h 14a 14 14, 0, 0, 0, 0 -28" transform="rotate(180,208,376)"/><path d="M 222 362v 28h 14a 14 14, 0, 0, 0, 0 -28" transform="rotate(0,236,376)"/><path d="M 278 362v 28h 14a 14 14, 0, 0, 0, 0 -28" transform="rotate(90,292,376)"/><circle cx="376" cy="376" r="14" transform="rotate(0,376,376)"/><rect x="530" y="362" width="28" height="28" transform="rotate(0,544,376)"/><rect x="558" y="362" width="28" height="28" transform="rotate(0,572,376)"/><path d="M 586 362v 28h 14a 14 14, 0, 0, 0, 0 -28" transform="rotate(0,600,376)"/><path d="M 642 362v 28h 14a 14 14, 0, 0, 0, 0 -28" transform="rotate(90,656,376)"/><rect x="698" y="362" width="28" height="28" transform="rotate(0,712,376)"/><rect x="726" y="362" width="28" height="28" transform="rotate(0,740,376)"/><path d="M 754 362v 28h 28v -14a 14 14, 0, 0, 0, -14 -14" transform="rotate(90,768,376)"/><rect x="810" y="362" width="28" height="28" transform="rotate(0,824,376)"/><path d="M 838 362v 28h 28v -14a 14 14, 0, 0, 0, -14 -14" transform="rotate(0,852,376)"/><path d="M 894 362v 28h 14a 14 14, 0, 0, 0, 0 -28" transform="rotate(-90,908,376)"/><path d="M 950 362v 28h 14a 14 14, 0, 0, 0, 0 -28" transform="rotate(180,964,376)"/><path d="M 978 362v 28h 28v -14a 14 14, 0, 0, 0, -14 -14" transform="rotate(90,992,376)"/><circle cx="1076" cy="376" r="14" transform="rotate(0,1076,376)"/><path d="M 1118 362v 28h 28v -14a 14 14, 0, 0, 0, -14 -14" transform="rotate(-90,1132,376)"/><path d="M 1146 362v 28h 14a 14 14, 0, 0, 0, 0 -28" transform="rotate(0,1160,376)"/><rect x="26" y="390" width="28" height="28" transform="rotate(0,40,404)"/><rect x="54" y="390" width="28" height="28" transform="rotate(0,68,404)"/><path d="M 82 390v 28h 14a 14 14, 0, 0, 0, 0 -28" transform="rotate(0,96,404)"/><path d="M 166 390v 28h 14a 14 14, 0, 0, 0, 0 -28" transform="rotate(-90,180,404)"/><circle cx="320" cy="404" r="14" transform="rotate(0,320,404)"/><path d="M 390 390v 28h 14a 14 14, 0, 0, 0, 0 -28" transform="rotate(-90,404,404)"/><path d="M 502 390v 28h 28v -14a 14 14, 0, 0, 0, -14 -14" transform="rotate(-90,516,404)"/><rect x="530" y="390" width="28" height="28" transform="rotate(0,544,404)"/><path d="M 558 390v 28h 28v -14a 14 14, 0, 0, 0, -14 -14" transform="rotate(90,572,404)"/><path d="M 670 390v 28h 14a 14 14, 0, 0, 0, 0 -28" transform="rotate(180,684,404)"/><rect x="698" y="390" width="28" height="28" transform="rotate(0,712,404)"/><path d="M 782 390v 28h 14a 14 14, 0, 0, 0, 0 -28" transform="rotate(180,796,404)"/><rect x="810" y="390" width="28" height="28" transform="rotate(0,824,404)"/><rect x="838" y="390" width="28" height="28" transform="rotate(0,852,404)"/><rect x="866" y="390" width="28" height="28" transform="rotate(0,880,404)"/><rect x="894" y="390" width="28" height="28" transform="rotate(0,908,404)"/><path d="M 922 390v 28h 14a 14 14, 0, 0, 0, 0 -28" transform="rotate(0,936,404)"/><rect x="1118" y="390" width="28" height="28" transform="rotate(0,1132,404)"/><path d="M 26 418v 28h 28v -14a 14 14, 0, 0, 0, -14 -14" transform="rotate(180,40,432)"/><path d="M 54 418v 28h 28v -14a 14 14, 0, 0, 0, -14 -14" transform="rotate(90,68,432)"/><path d="M 138 418v 28h 14a 14 14, 0, 0, 0, 0 -28" transform="rotate(180,152,432)"/><rect x="166" y="418" width="28" height="28" transform="rotate(0,180,432)"/><rect x="194" y="418" width="28" height="28" transform="rotate(0,208,432)"/><path d="M 222 418v 28h 14a 14 14, 0, 0, 0, 0 -28" transform="rotate(0,236,432)"/><path d="M 390 418v 28h 28v -14a 14 14, 0, 0, 0, -14 -14" transform="rotate(180,404,432)"/><path d="M 418 418v 28h 14a 14 14, 0, 0, 0, 0 -28" transform="rotate(0,432,432)"/><path d="M 474 418v 28h 14a 14 14, 0, 0, 0, 0 -28" transform="rotate(180,488,432)"/><rect x="502" y="418" width="28" height="28" transform="rotate(0,516,432)"/><path d="M 614 418v 28h 28v -14a 14 14, 0, 0, 0, -14 -14" transform="rotate(-90,628,432)"/><path d="M 642 418v 28h 14a 14 14, 0, 0, 0, 0 -28" transform="rotate(0,656,432)"/><rect x="698" y="418" width="28" height="28" transform="rotate(0,712,432)"/><rect x="726" y="418" width="28" height="28" transform="rotate(0,740,432)"/><path d="M 754 418v 28h 14a 14 14, 0, 0, 0, 0 -28" transform="rotate(0,768,432)"/><path d="M 978 418v 28h 14a 14 14, 0, 0, 0, 0 -28" transform="rotate(-90,992,432)"/><path d="M 1062 418v 28h 14a 14 14, 0, 0, 0, 0 -28" transform="rotate(180,1076,432)"/><rect x="1090" y="418" width="28" height="28" transform="rotate(0,1104,432)"/><rect x="1118" y="418" width="28" height="28" transform="rotate(0,1132,432)"/><path d="M 1146 418v 28h 28v -14a 14 14, 0, 0, 0, -14 -14" transform="rotate(0,1160,432)"/><path d="M 82 446v 28h 28v -14a 14 14, 0, 0, 0, -14 -14" transform="rotate(-90,96,460)"/><path d="M 110 446v 28h 28v -14a 14 14, 0, 0, 0, -14 -14" transform="rotate(0,124,460)"/><rect x="166" y="446" width="28" height="28" transform="rotate(0,180,460)"/><circle cx="264" cy="460" r="14" transform="rotate(0,264,460)"/><path d="M 306 446v 28h 14a 14 14, 0, 0, 0, 0 -28" transform="rotate(-90,320,460)"/><path d="M 362 446v 28h 14a 14 14, 0, 0, 0, 0 -28" transform="rotate(-90,376,460)"/><circle cx="460" cy="460" r="14" transform="rotate(0,460,460)"/><rect x="502" y="446" width="28" height="28" transform="rotate(0,516,460)"/><rect x="530" y="446" width="28" height="28" transform="rotate(0,544,460)"/><rect x="558" y="446" width="28" height="28" transform="rotate(0,572,460)"/><rect x="586" y="446" width="28" height="28" transform="rotate(0,600,460)"/><path d="M 614 446v 28h 28v -14a 14 14, 0, 0, 0, -14 -14" transform="rotate(90,628,460)"/><path d="M 698 446v 28h 28v -14a 14 14, 0, 0, 0, -14 -14" transform="rotate(180,712,460)"/><path d="M 726 446v 28h 28v -14a 14 14, 0, 0, 0, -14 -14" transform="rotate(90,740,460)"/><path d="M 782 446v 28h 14a 14 14, 0, 0, 0, 0 -28" transform="rotate(-90,796,460)"/><path d="M 838 446v 28h 14a 14 14, 0, 0, 0, 0 -28" transform="rotate(-90,852,460)"/><path d="M 978 446v 28h 14a 14 14, 0, 0, 0, 0 -28" transform="rotate(90,992,460)"/><circle cx="1048" cy="460" r="14" transform="rotate(0,1048,460)"/><rect x="1118" y="446" width="28" height="28" transform="rotate(0,1132,460)"/><rect x="1146" y="446" width="28" height="28" transform="rotate(0,1160,460)"/><path d="M 54 474v 28h 28v -14a 14 14, 0, 0, 0, -14 -14" transform="rotate(-90,68,488)"/><rect x="82" y="474" width="28" height="28" transform="rotate(0,96,488)"/><path d="M 110 474v 28h 28v -14a 14 14, 0, 0, 0, -14 -14" transform="rotate(90,124,488)"/><path d="M 166 474v 28h 28v -14a 14 14, 0, 0, 0, -14 -14" transform="rotate(180,180,488)"/><rect x="194" y="474" width="28" height="28" transform="rotate(0,208,488)"/><path d="M 222 474v 28h 28v -14a 14 14, 0, 0, 0, -14 -14" transform="rotate(0,236,488)"/><path d="M 306 474v 28h 14a 14 14, 0, 0, 0, 0 -28" transform="rotate(90,320,488)"/><path d="M 362 474v 28h 14a 14 14, 0, 0, 0, 0 -28" transform="rotate(90,376,488)"/><path d="M 474 474v 28h 14a 14 14, 0, 0, 0, 0 -28" transform="rotate(180,488,488)"/><rect x="502" y="474" width="28" height="28" transform="rotate(0,516,488)"/><rect x="530" y="474" width="28" height="28" transform="rotate(0,544,488)"/><rect x="558" y="474" width="28" height="28" transform="rotate(0,572,488)"/><rect x="586" y="474" width="28" height="28" transform="rotate(0,600,488)"/><path d="M 642 474v 28h 28v -14a 14 14, 0, 0, 0, -14 -14" transform="rotate(-90,656,488)"/><path d="M 670 474v 28h 28v -14a 14 14, 0, 0, 0, -14 -14" transform="rotate(0,684,488)"/><path d="M 782 474v 28h 14a 14 14, 0, 0, 0, 0 -28" transform="rotate(90,796,488)"/><rect x="838" y="474" width="28" height="28" transform="rotate(0,852,488)"/><path d="M 894 474v 28h 14a 14 14, 0, 0, 0, 0 -28" transform="rotate(180,908,488)"/><path d="M 922 474v 28h 28v -14a 14 14, 0, 0, 0, -14 -14" transform="rotate(0,936,488)"/><path d="M 1006 474v 28h 14a 14 14, 0, 0, 0, 0 -28" transform="rotate(-90,1020,488)"/><circle cx="1076" cy="488" r="14" transform="rotate(0,1076,488)"/><rect x="1118" y="474" width="28" height="28" transform="rotate(0,1132,488)"/><rect x="1146" y="474" width="28" height="28" transform="rotate(0,1160,488)"/><path d="M 26 502v 28h 28v -14a 14 14, 0, 0, 0, -14 -14" transform="rotate(-90,40,516)"/><path d="M 54 502v 28h 28v -14a 14 14, 0, 0, 0, -14 -14" transform="rotate(90,68,516)"/><rect x="222" y="502" width="28" height="28" transform="rotate(0,236,516)"/><path d="M 334 502v 28h 14a 14 14, 0, 0, 0, 0 -28" transform="rotate(-90,348,516)"/><path d="M 418 502v 28h 14a 14 14, 0, 0, 0, 0 -28" transform="rotate(180,432,516)"/><path d="M 446 502v 28h 14a 14 14, 0, 0, 0, 0 -28" transform="rotate(0,460,516)"/><rect x="502" y="502" width="28" height="28" transform="rotate(0,516,516)"/><path d="M 586 502v 28h 14a 14 14, 0, 0, 0, 0 -28" transform="rotate(90,600,516)"/><path d="M 642 502v 28h 28v -14a 14 14, 0, 0, 0, -14 -14" transform="rotate(180,656,516)"/><rect x="670" y="502" width="28" height="28" transform="rotate(0,684,516)"/><rect x="698" y="502" width="28" height="28" transform="rotate(0,712,516)"/><rect x="726" y="502" width="28" height="28" transform="rotate(0,740,516)"/><path d="M 754 502v 28h 28v -14a 14 14, 0, 0, 0, -14 -14" transform="rotate(0,768,516)"/><path d="M 810 502v 28h 14a 14 14, 0, 0, 0, 0 -28" transform="rotate(180,824,516)"/><path d="M 838 502v 28h 28v -14a 14 14, 0, 0, 0, -14 -14" transform="rotate(90,852,516)"/><path d="M 922 502v 28h 14a 14 14, 0, 0, 0, 0 -28" transform="rotate(90,936,516)"/><path d="M 978 502v 28h 14a 14 14, 0, 0, 0, 0 -28" transform="rotate(180,992,516)"/><path d="M 1006 502v 28h 28v -14a 14 14, 0, 0, 0, -14 -14" transform="rotate(90,1020,516)"/><path d="M 1090 502v 28h 28v -14a 14 14, 0, 0, 0, -14 -14" transform="rotate(-90,1104,516)"/><rect x="1118" y="502" width="28" height="28" transform="rotate(0,1132,516)"/><rect x="1146" y="502" width="28" height="28" transform="rotate(0,1160,516)"/><rect x="26" y="530" width="28" height="28" transform="rotate(0,40,544)"/><path d="M 82 530v 28h 14a 14 14, 0, 0, 0, 0 -28" transform="rotate(-90,96,544)"/><path d="M 138 530v 28h 14a 14 14, 0, 0, 0, 0 -28" transform="rotate(180,152,544)"/><rect x="166" y="530" width="28" height="28" transform="rotate(0,180,544)"/><rect x="194" y="530" width="28" height="28" transform="rotate(0,208,544)"/><path d="M 222 530v 28h 28v -14a 14 14, 0, 0, 0, -14 -14" transform="rotate(90,236,544)"/><path d="M 278 530v 28h 14a 14 14, 0, 0, 0, 0 -28" transform="rotate(180,292,544)"/><rect x="306" y="530" width="28" height="28" transform="rotate(0,320,544)"/><rect x="334" y="530" width="28" height="28" transform="rotate(0,348,544)"/><rect x="362" y="530" width="28" height="28" transform="rotate(0,376,544)"/><path d="M 390 530v 28h 14a 14 14, 0, 0, 0, 0 -28" transform="rotate(0,404,544)"/><path d="M 502 530v 28h 28v -14a 14 14, 0, 0, 0, -14 -14" transform="rotate(180,516,544)"/><path d="M 530 530v 28h 28v -14a 14 14, 0, 0, 0, -14 -14" transform="rotate(0,544,544)"/><circle cx="628" cy="544" r="14" transform="rotate(0,628,544)"/><rect x="754" y="530" width="28" height="28" transform="rotate(0,768,544)"/><path d="M 1034 530v 28h 14a 14 14, 0, 0, 0, 0 -28" transform="rotate(180,1048,544)"/><rect x="1062" y="530" width="28" height="28" transform="rotate(0,1076,544)"/><rect x="1090" y="530" width="28" height="28" transform="rotate(0,1104,544)"/><rect x="1118" y="530" width="28" height="28" transform="rotate(0,1132,544)"/><path d="M 1146 530v 28h 28v -14a 14 14, 0, 0, 0, -14 -14" transform="rotate(90,1160,544)"/><rect x="26" y="558" width="28" height="28" transform="rotate(0,40,572)"/><rect x="54" y="558" width="28" height="28" transform="rotate(0,68,572)"/><rect x="82" y="558" width="28" height="28" transform="rotate(0,96,572)"/><path d="M 110 558v 28h 28v -14a 14 14, 0, 0, 0, -14 -14" transform="rotate(0,124,572)"/><rect x="166" y="558" width="28" height="28" transform="rotate(0,180,572)"/><path d="M 250 558v 28h 14a 14 14, 0, 0, 0, 0 -28" transform="rotate(-90,264,572)"/><rect x="306" y="558" width="28" height="28" transform="rotate(0,320,572)"/><rect x="334" y="558" width="28" height="28" transform="rotate(0,348,572)"/><path d="M 362 558v 28h 28v -14a 14 14, 0, 0, 0, -14 -14" transform="rotate(90,376,572)"/><path d="M 446 558v 28h 14a 14 14, 0, 0, 0, 0 -28" transform="rotate(180,460,572)"/><path d="M 474 558v 28h 28v -14a 14 14, 0, 0, 0, -14 -14" transform="rotate(0,488,572)"/><rect x="530" y="558" width="28" height="28" transform="rotate(0,544,572)"/><path d="M 642 558v 28h 28v -14a 14 14, 0, 0, 0, -14 -14" transform="rotate(-90,656,572)"/><rect x="670" y="558" width="28" height="28" transform="rotate(0,684,572)"/><path d="M 698 558v 28h 14a 14 14, 0, 0, 0, 0 -28" transform="rotate(0,712,572)"/><path d="M 754 558v 28h 28v -14a 14 14, 0, 0, 0, -14 -14" transform="rotate(180,768,572)"/><rect x="782" y="558" width="28" height="28" transform="rotate(0,796,572)"/><rect x="810" y="558" width="28" height="28" transform="rotate(0,824,572)"/><rect x="838" y="558" width="28" height="28" transform="rotate(0,852,572)"/><rect x="866" y="558" width="28" height="28" transform="rotate(0,880,572)"/><path d="M 894 558v 28h 14a 14 14, 0, 0, 0, 0 -28" transform="rotate(0,908,572)"/><path d="M 978 558v 28h 28v -14a 14 14, 0, 0, 0, -14 -14" transform="rotate(-90,992,572)"/><path d="M 1006 558v 28h 14a 14 14, 0, 0, 0, 0 -28" transform="rotate(0,1020,572)"/><rect x="1062" y="558" width="28" height="28" transform="rotate(0,1076,572)"/><rect x="1118" y="558" width="28" height="28" transform="rotate(0,1132,572)"/><path d="M 26 586v 28h 14a 14 14, 0, 0, 0, 0 -28" transform="rotate(90,40,600)"/><path d="M 110 586v 28h 14a 14 14, 0, 0, 0, 0 -28" transform="rotate(90,124,600)"/><rect x="166" y="586" width="28" height="28" transform="rotate(0,180,600)"/><rect x="194" y="586" width="28" height="28" transform="rotate(0,208,600)"/><rect x="222" y="586" width="28" height="28" transform="rotate(0,236,600)"/><rect x="250" y="586" width="28" height="28" transform="rotate(0,264,600)"/><rect x="278" y="586" width="28" height="28" transform="rotate(0,292,600)"/><rect x="306" y="586" width="28" height="28" transform="rotate(0,320,600)"/><rect x="334" y="586" width="28" height="28" transform="rotate(0,348,600)"/><path d="M 474 586v 28h 14a 14 14, 0, 0, 0, 0 -28" transform="rotate(90,488,600)"/><path d="M 530 586v 28h 14a 14 14, 0, 0, 0, 0 -28" transform="rotate(90,544,600)"/><path d="M 614 586v 28h 14a 14 14, 0, 0, 0, 0 -28" transform="rotate(180,628,600)"/><rect x="642" y="586" width="28" height="28" transform="rotate(0,656,600)"/><path d="M 670 586v 28h 28v -14a 14 14, 0, 0, 0, -14 -14" transform="rotate(90,684,600)"/><path d="M 782 586v 28h 14a 14 14, 0, 0, 0, 0 -28" transform="rotate(90,796,600)"/><path d="M 950 586v 28h 28v -14a 14 14, 0, 0, 0, -14 -14" transform="rotate(-90,964,600)"/><rect x="978" y="586" width="28" height="28" transform="rotate(0,992,600)"/><path d="M 1062 586v 28h 28v -14a 14 14, 0, 0, 0, -14 -14" transform="rotate(180,1076,600)"/><rect x="1090" y="586" width="28" height="28" transform="rotate(0,1104,600)"/><rect x="1118" y="586" width="28" height="28" transform="rotate(0,1132,600)"/><path d="M 82 614v 28h 14a 14 14, 0, 0, 0, 0 -28" transform="rotate(-90,96,628)"/><path d="M 166 614v 28h 14a 14 14, 0, 0, 0, 0 -28" transform="rotate(90,180,628)"/><rect x="250" y="614" width="28" height="28" transform="rotate(0,264,628)"/><rect x="306" y="614" width="28" height="28" transform="rotate(0,320,628)"/><path d="M 334 614v 28h 28v -14a 14 14, 0, 0, 0, -14 -14" transform="rotate(90,348,628)"/><path d="M 390 614v 28h 14a 14 14, 0, 0, 0, 0 -28" transform="rotate(-90,404,628)"/><path d="M 502 614v 28h 14a 14 14, 0, 0, 0, 0 -28" transform="rotate(-90,516,628)"/><path d="M 698 614v 28h 14a 14 14, 0, 0, 0, 0 -28" transform="rotate(180,712,628)"/><rect x="726" y="614" width="28" height="28" transform="rotate(0,740,628)"/><path d="M 754 614v 28h 14a 14 14, 0, 0, 0, 0 -28" transform="rotate(0,768,628)"/><path d="M 810 614v 28h 28v -14a 14 14, 0, 0, 0, -14 -14" transform="rotate(-90,824,628)"/><path d="M 838 614v 28h 14a 14 14, 0, 0, 0, 0 -28" transform="rotate(0,852,628)"/><path d="M 922 614v 28h 14a 14 14, 0, 0, 0, 0 -28" transform="rotate(180,936,628)"/><rect x="950" y="614" width="28" height="28" transform="rotate(0,964,628)"/><path d="M 978 614v 28h 28v -14a 14 14, 0, 0, 0, -14 -14" transform="rotate(90,992,628)"/><rect x="1090" y="614" width="28" height="28" transform="rotate(0,1104,628)"/><rect x="1118" y="614" width="28" height="28" transform="rotate(0,1132,628)"/><path d="M 1146 614v 28h 14a 14 14, 0, 0, 0, 0 -28" transform="rotate(0,1160,628)"/><path d="M 82 642v 28h 14a 14 14, 0, 0, 0, 0 -28" transform="rotate(90,96,656)"/><path d="M 194 642v 28h 14a 14 14, 0, 0, 0, 0 -28" transform="rotate(180,208,656)"/><rect x="222" y="642" width="28" height="28" transform="rotate(0,236,656)"/><rect x="250" y="642" width="28" height="28" transform="rotate(0,264,656)"/><rect x="278" y="642" width="28" height="28" transform="rotate(0,292,656)"/><path d="M 306 642v 28h 28v -14a 14 14, 0, 0, 0, -14 -14" transform="rotate(90,320,656)"/><path d="M 390 642v 28h 28v -14a 14 14, 0, 0, 0, -14 -14" transform="rotate(180,404,656)"/><rect x="418" y="642" width="28" height="28" transform="rotate(0,432,656)"/><path d="M 446 642v 28h 14a 14 14, 0, 0, 0, 0 -28" transform="rotate(0,460,656)"/><path d="M 502 642v 28h 28v -14a 14 14, 0, 0, 0, -14 -14" transform="rotate(180,516,656)"/><path d="M 530 642v 28h 14a 14 14, 0, 0, 0, 0 -28" transform="rotate(0,544,656)"/><path d="M 586 642v 28h 14a 14 14, 0, 0, 0, 0 -28" transform="rotate(-90,600,656)"/><path d="M 642 642v 28h 14a 14 14, 0, 0, 0, 0 -28" transform="rotate(-90,656,656)"/><rect x="726" y="642" width="28" height="28" transform="rotate(0,740,656)"/><path d="M 810 642v 28h 14a 14 14, 0, 0, 0, 0 -28" transform="rotate(90,824,656)"/><circle cx="908" cy="656" r="14" transform="rotate(0,908,656)"/><path d="M 1006 642v 28h 14a 14 14, 0, 0, 0, 0 -28" transform="rotate(180,1020,656)"/><path d="M 1034 642v 28h 28v -14a 14 14, 0, 0, 0, -14 -14" transform="rotate(0,1048,656)"/><rect x="1090" y="642" width="28" height="28" transform="rotate(0,1104,656)"/><path d="M 1118 642v 28h 28v -14a 14 14, 0, 0, 0, -14 -14" transform="rotate(90,1132,656)"/><path d="M 26 670v 28h 28v -14a 14 14, 0, 0, 0, -14 -14" transform="rotate(-90,40,684)"/><path d="M 54 670v 28h 14a 14 14, 0, 0, 0, 0 -28" transform="rotate(0,68,684)"/><path d="M 110 670v 28h 28v -14a 14 14, 0, 0, 0, -14 -14" transform="rotate(-90,124,684)"/><rect x="138" y="670" width="28" height="28" transform="rotate(0,152,684)"/><path d="M 166 670v 28h 28v -14a 14 14, 0, 0, 0, -14 -14" transform="rotate(0,180,684)"/><path d="M 222 670v 28h 14a 14 14, 0, 0, 0, 0 -28" transform="rotate(90,236,684)"/><path d="M 362 670v 28h 14a 14 14, 0, 0, 0, 0 -28" transform="rotate(-90,376,684)"/><circle cx="488" cy="684" r="14" transform="rotate(0,488,684)"/><path d="M 586 670v 28h 14a 14 14, 0, 0, 0, 0 -28" transform="rotate(90,600,684)"/><path d="M 642 670v 28h 14a 14 14, 0, 0, 0, 0 -28" transform="rotate(90,656,684)"/><rect x="726" y="670" width="28" height="28" transform="rotate(0,740,684)"/><circle cx="796" cy="684" r="14" transform="rotate(0,796,684)"/><circle cx="880" cy="684" r="14" transform="rotate(0,880,684)"/><path d="M 922 670v 28h 14a 14 14, 0, 0, 0, 0 -28" transform="rotate(-90,936,684)"/><path d="M 1034 670v 28h 14a 14 14, 0, 0, 0, 0 -28" transform="rotate(90,1048,684)"/><path d="M 1090 670v 28h 14a 14 14, 0, 0, 0, 0 -28" transform="rotate(90,1104,684)"/><rect x="26" y="698" width="28" height="28" transform="rotate(0,40,712)"/><path d="M 82 698v 28h 14a 14 14, 0, 0, 0, 0 -28" transform="rotate(180,96,712)"/><path d="M 110 698v 28h 28v -14a 14 14, 0, 0, 0, -14 -14" transform="rotate(90,124,712)"/><rect x="166" y="698" width="28" height="28" transform="rotate(0,180,712)"/><path d="M 194 698v 28h 14a 14 14, 0, 0, 0, 0 -28" transform="rotate(0,208,712)"/><path d="M 250 698v 28h 14a 14 14, 0, 0, 0, 0 -28" transform="rotate(180,264,712)"/><path d="M 278 698v 28h 28v -14a 14 14, 0, 0, 0, -14 -14" transform="rotate(0,292,712)"/><path d="M 362 698v 28h 14a 14 14, 0, 0, 0, 0 -28" transform="rotate(90,376,712)"/><path d="M 446 698v 28h 14a 14 14, 0, 0, 0, 0 -28" transform="rotate(-90,460,712)"/><path d="M 502 698v 28h 28v -14a 14 14, 0, 0, 0, -14 -14" transform="rotate(-90,516,712)"/><rect x="530" y="698" width="28" height="28" transform="rotate(0,544,712)"/><path d="M 558 698v 28h 28v -14a 14 14, 0, 0, 0, -14 -14" transform="rotate(0,572,712)"/><circle cx="684" cy="712" r="14" transform="rotate(0,684,712)"/><rect x="726" y="698" width="28" height="28" transform="rotate(0,740,712)"/><path d="M 838 698v 28h 14a 14 14, 0, 0, 0, 0 -28" transform="rotate(-90,852,712)"/><path d="M 922 698v 28h 28v -14a 14 14, 0, 0, 0, -14 -14" transform="rotate(180,936,712)"/><rect x="950" y="698" width="28" height="28" transform="rotate(0,964,712)"/><path d="M 978 698v 28h 14a 14 14, 0, 0, 0, 0 -28" transform="rotate(0,992,712)"/><path d="M 1118 698v 28h 28v -14a 14 14, 0, 0, 0, -14 -14" transform="rotate(-90,1132,712)"/><path d="M 1146 698v 28h 14a 14 14, 0, 0, 0, 0 -28" transform="rotate(0,1160,712)"/><path d="M 26 726v 28h 28v -14a 14 14, 0, 0, 0, -14 -14" transform="rotate(180,40,740)"/><path d="M 54 726v 28h 28v -14a 14 14, 0, 0, 0, -14 -14" transform="rotate(0,68,740)"/><path d="M 166 726v 28h 14a 14 14, 0, 0, 0, 0 -28" transform="rotate(90,180,740)"/><rect x="278" y="726" width="28" height="28" transform="rotate(0,292,740)"/><circle cx="348" cy="740" r="14" transform="rotate(0,348,740)"/><path d="M 418 726v 28h 14a 14 14, 0, 0, 0, 0 -28" transform="rotate(180,432,740)"/><path d="M 446 726v 28h 28v -14a 14 14, 0, 0, 0, -14 -14" transform="rotate(90,460,740)"/><rect x="502" y="726" width="28" height="28" transform="rotate(0,516,740)"/><rect x="530" y="726" width="28" height="28" transform="rotate(0,544,740)"/><rect x="558" y="726" width="28" height="28" transform="rotate(0,572,740)"/><circle cx="656" cy="740" r="14" transform="rotate(0,656,740)"/><path d="M 698 726v 28h 28v -14a 14 14, 0, 0, 0, -14 -14" transform="rotate(-90,712,740)"/><path d="M 726 726v 28h 28v -14a 14 14, 0, 0, 0, -14 -14" transform="rotate(90,740,740)"/><rect x="838" y="726" width="28" height="28" transform="rotate(0,852,740)"/><circle cx="908" cy="740" r="14" transform="rotate(0,908,740)"/><circle cx="1076" cy="740" r="14" transform="rotate(0,1076,740)"/><rect x="1118" y="726" width="28" height="28" transform="rotate(0,1132,740)"/><rect x="54" y="754" width="28" height="28" transform="rotate(0,68,768)"/><path d="M 110 754v 28h 14a 14 14, 0, 0, 0, 0 -28" transform="rotate(-90,124,768)"/><path d="M 194 754v 28h 14a 14 14, 0, 0, 0, 0 -28" transform="rotate(180,208,768)"/><rect x="222" y="754" width="28" height="28" transform="rotate(0,236,768)"/><rect x="250" y="754" width="28" height="28" transform="rotate(0,264,768)"/><path d="M 278 754v 28h 28v -14a 14 14, 0, 0, 0, -14 -14" transform="rotate(90,292,768)"/><rect x="502" y="754" width="28" height="28" transform="rotate(0,516,768)"/><path d="M 558 754v 28h 14a 14 14, 0, 0, 0, 0 -28" transform="rotate(90,572,768)"/><circle cx="628" cy="768" r="14" transform="rotate(0,628,768)"/><path d="M 670 754v 28h 28v -14a 14 14, 0, 0, 0, -14 -14" transform="rotate(-90,684,768)"/><rect x="698" y="754" width="28" height="28" transform="rotate(0,712,768)"/><path d="M 754 754v 28h 14a 14 14, 0, 0, 0, 0 -28" transform="rotate(-90,768,768)"/><path d="M 810 754v 28h 28v -14a 14 14, 0, 0, 0, -14 -14" transform="rotate(-90,824,768)"/><rect x="838" y="754" width="28" height="28" transform="rotate(0,852,768)"/><path d="M 922 754v 28h 28v -14a 14 14, 0, 0, 0, -14 -14" transform="rotate(-90,936,768)"/><rect x="950" y="754" width="28" height="28" transform="rotate(0,964,768)"/><path d="M 978 754v 28h 14a 14 14, 0, 0, 0, 0 -28" transform="rotate(0,992,768)"/><path d="M 1034 754v 28h 14a 14 14, 0, 0, 0, 0 -28" transform="rotate(-90,1048,768)"/><rect x="1118" y="754" width="28" height="28" transform="rotate(0,1132,768)"/><path d="M 1146 754v 28h 28v -14a 14 14, 0, 0, 0, -14 -14" transform="rotate(0,1160,768)"/><path d="M 26 782v 28h 14a 14 14, 0, 0, 0, 0 -28" transform="rotate(180,40,796)"/><rect x="54" y="782" width="28" height="28" transform="rotate(0,68,796)"/><rect x="82" y="782" width="28" height="28" transform="rotate(0,96,796)"/><rect x="110" y="782" width="28" height="28" transform="rotate(0,124,796)"/><path d="M 166 782v 28h 14a 14 14, 0, 0, 0, 0 -28" transform="rotate(-90,180,796)"/><path d="M 306 782v 28h 28v -14a 14 14, 0, 0, 0, -14 -14" transform="rotate(-90,320,796)"/><path d="M 334 782v 28h 14a 14 14, 0, 0, 0, 0 -28" transform="rotate(0,348,796)"/><path d="M 390 782v 28h 28v -14a 14 14, 0, 0, 0, -14 -14" transform="rotate(-90,404,796)"/><path d="M 418 782v 28h 14a 14 14, 0, 0, 0, 0 -28" transform="rotate(0,432,796)"/><rect x="502" y="782" width="28" height="28" transform="rotate(0,516,796)"/><path d="M 642 782v 28h 14a 14 14, 0, 0, 0, 0 -28" transform="rotate(180,656,796)"/><rect x="670" y="782" width="28" height="28" transform="rotate(0,684,796)"/><rect x="698" y="782" width="28" height="28" transform="rotate(0,712,796)"/><rect x="726" y="782" width="28" height="28" transform="rotate(0,740,796)"/><rect x="754" y="782" width="28" height="28" transform="rotate(0,768,796)"/><rect x="782" y="782" width="28" height="28" transform="rotate(0,796,796)"/><rect x="810" y="782" width="28" height="28" transform="rotate(0,824,796)"/><rect x="838" y="782" width="28" height="28" transform="rotate(0,852,796)"/><path d="M 922 782v 28h 28v -14a 14 14, 0, 0, 0, -14 -14" transform="rotate(180,936,796)"/><rect x="950" y="782" width="28" height="28" transform="rotate(0,964,796)"/><path d="M 1034 782v 28h 14a 14 14, 0, 0, 0, 0 -28" transform="rotate(90,1048,796)"/><path d="M 1118 782v 28h 28v -14a 14 14, 0, 0, 0, -14 -14" transform="rotate(180,1132,796)"/><path d="M 1146 782v 28h 28v -14a 14 14, 0, 0, 0, -14 -14" transform="rotate(90,1160,796)"/><path d="M 110 810v 28h 28v -14a 14 14, 0, 0, 0, -14 -14" transform="rotate(180,124,824)"/><rect x="138" y="810" width="28" height="28" transform="rotate(0,152,824)"/><rect x="166" y="810" width="28" height="28" transform="rotate(0,180,824)"/><rect x="194" y="810" width="28" height="28" transform="rotate(0,208,824)"/><rect x="222" y="810" width="28" height="28" transform="rotate(0,236,824)"/><path d="M 250 810v 28h 28v -14a 14 14, 0, 0, 0, -14 -14" transform="rotate(0,264,824)"/><rect x="306" y="810" width="28" height="28" transform="rotate(0,320,824)"/><path d="M 362 810v 28h 14a 14 14, 0, 0, 0, 0 -28" transform="rotate(180,376,824)"/><path d="M 390 810v 28h 28v -14a 14 14, 0, 0, 0, -14 -14" transform="rotate(90,404,824)"/><path d="M 474 810v 28h 28v -14a 14 14, 0, 0, 0, -14 -14" transform="rotate(-90,488,824)"/><rect x="502" y="810" width="28" height="28" transform="rotate(0,516,824)"/><path d="M 530 810v 28h 28v -14a 14 14, 0, 0, 0, -14 -14" transform="rotate(0,544,824)"/><path d="M 586 810v 28h 14a 14 14, 0, 0, 0, 0 -28" transform="rotate(180,600,824)"/><path d="M 614 810v 28h 14a 14 14, 0, 0, 0, 0 -28" transform="rotate(0,628,824)"/><path d="M 670 810v 28h 14a 14 14, 0, 0, 0, 0 -28" transform="rotate(90,684,824)"/><rect x="838" y="810" width="28" height="28" transform="rotate(0,852,824)"/><rect x="950" y="810" width="28" height="28" transform="rotate(0,964,824)"/><circle cx="68" cy="852" r="14" transform="rotate(0,68,852)"/><rect x="138" y="838" width="28" height="28" transform="rotate(0,152,852)"/><rect x="250" y="838" width="28" height="28" transform="rotate(0,264,852)"/><path d="M 306 838v 28h 28v -14a 14 14, 0, 0, 0, -14 -14" transform="rotate(180,320,852)"/><path d="M 334 838v 28h 28v -14a 14 14, 0, 0, 0, -14 -14" transform="rotate(0,348,852)"/><rect x="474" y="838" width="28" height="28" transform="rotate(0,488,852)"/><path d="M 530 838v 28h 14a 14 14, 0, 0, 0, 0 -28" transform="rotate(90,544,852)"/><circle cx="656" cy="852" r="14" transform="rotate(0,656,852)"/><path d="M 754 838v 28h 14a 14 14, 0, 0, 0, 0 -28" transform="rotate(-90,768,852)"/><path d="M 810 838v 28h 28v -14a 14 14, 0, 0, 0, -14 -14" transform="rotate(-90,824,852)"/><path d="M 838 838v 28h 28v -14a 14 14, 0, 0, 0, -14 -14" transform="rotate(90,852,852)"/><path d="M 950 838v 28h 28v -14a 14 14, 0, 0, 0, -14 -14" transform="rotate(180,964,852)"/><path d="M 978 838v 28h 14a 14 14, 0, 0, 0, 0 -28" transform="rotate(0,992,852)"/><path d="M 1118 838v 28h 28v -14a 14 14, 0, 0, 0, -14 -14" transform="rotate(-90,1132,852)"/><path d="M 1146 838v 28h 28v -14a 14 14, 0, 0, 0, -14 -14" transform="rotate(0,1160,852)"/><circle cx="40" cy="880" r="14" transform="rotate(0,40,880)"/><path d="M 110 866v 28h 14a 14 14, 0, 0, 0, 0 -28" transform="rotate(180,124,880)"/><rect x="138" y="866" width="28" height="28" transform="rotate(0,152,880)"/><rect x="166" y="866" width="28" height="28" transform="rotate(0,180,880)"/><rect x="194" y="866" width="28" height="28" transform="rotate(0,208,880)"/><rect x="222" y="866" width="28" height="28" transform="rotate(0,236,880)"/><rect x="250" y="866" width="28" height="28" transform="rotate(0,264,880)"/><path d="M 278 866v 28h 14a 14 14, 0, 0, 0, 0 -28" transform="rotate(0,292,880)"/><path d="M 334 866v 28h 28v -14a 14 14, 0, 0, 0, -14 -14" transform="rotate(180,348,880)"/><rect x="362" y="866" width="28" height="28" transform="rotate(0,376,880)"/><rect x="390" y="866" width="28" height="28" transform="rotate(0,404,880)"/><path d="M 418 866v 28h 14a 14 14, 0, 0, 0, 0 -28" transform="rotate(0,432,880)"/><path d="M 474 866v 28h 14a 14 14, 0, 0, 0, 0 -28" transform="rotate(90,488,880)"/><path d="M 558 866v 28h 14a 14 14, 0, 0, 0, 0 -28" transform="rotate(-90,572,880)"/><rect x="754" y="866" width="28" height="28" transform="rotate(0,768,880)"/><path d="M 810 866v 28h 14a 14 14, 0, 0, 0, 0 -28" transform="rotate(90,824,880)"/><path d="M 866 866v 28h 14a 14 14, 0, 0, 0, 0 -28" transform="rotate(-90,880,880)"/><path d="M 1006 866v 28h 14a 14 14, 0, 0, 0, 0 -28" transform="rotate(180,1020,880)"/><rect x="1034" y="866" width="28" height="28" transform="rotate(0,1048,880)"/><path d="M 1062 866v 28h 28v -14a 14 14, 0, 0, 0, -14 -14" transform="rotate(0,1076,880)"/><path d="M 1118 866v 28h 28v -14a 14 14, 0, 0, 0, -14 -14" transform="rotate(180,1132,880)"/><path d="M 1146 866v 28h 28v -14a 14 14, 0, 0, 0, -14 -14" transform="rotate(90,1160,880)"/><rect x="166" y="894" width="28" height="28" transform="rotate(0,180,908)"/><rect x="250" y="894" width="28" height="28" transform="rotate(0,264,908)"/><path d="M 306 894v 28h 14a 14 14, 0, 0, 0, 0 -28" transform="rotate(-90,320,908)"/><path d="M 446 894v 28h 14a 14 14, 0, 0, 0, 0 -28" transform="rotate(-90,460,908)"/><path d="M 502 894v 28h 28v -14a 14 14, 0, 0, 0, -14 -14" transform="rotate(-90,516,908)"/><rect x="530" y="894" width="28" height="28" transform="rotate(0,544,908)"/><rect x="558" y="894" width="28" height="28" transform="rotate(0,572,908)"/><path d="M 586 894v 28h 28v -14a 14 14, 0, 0, 0, -14 -14" transform="rotate(0,600,908)"/><path d="M 642 894v 28h 28v -14a 14 14, 0, 0, 0, -14 -14" transform="rotate(-90,656,908)"/><path d="M 670 894v 28h 28v -14a 14 14, 0, 0, 0, -14 -14" transform="rotate(0,684,908)"/><rect x="754" y="894" width="28" height="28" transform="rotate(0,768,908)"/><path d="M 838 894v 28h 14a 14 14, 0, 0, 0, 0 -28" transform="rotate(180,852,908)"/><path d="M 866 894v 28h 28v -14a 14 14, 0, 0, 0, -14 -14" transform="rotate(90,880,908)"/><path d="M 922 894v 28h 28v -14a 14 14, 0, 0, 0, -14 -14" transform="rotate(-90,936,908)"/><path d="M 950 894v 28h 28v -14a 14 14, 0, 0, 0, -14 -14" transform="rotate(0,964,908)"/><rect x="1034" y="894" width="28" height="28" transform="rotate(0,1048,908)"/><path d="M 1062 894v 28h 28v -14a 14 14, 0, 0, 0, -14 -14" transform="rotate(90,1076,908)"/><circle cx="40" cy="936" r="14" transform="rotate(0,40,936)"/><circle cx="124" cy="936" r="14" transform="rotate(0,124,936)"/><path d="M 166 922v 28h 28v -14a 14 14, 0, 0, 0, -14 -14" transform="rotate(180,180,936)"/><path d="M 194 922v 28h 14a 14 14, 0, 0, 0, 0 -28" transform="rotate(0,208,936)"/><rect x="250" y="922" width="28" height="28" transform="rotate(0,264,936)"/><rect x="278" y="922" width="28" height="28" transform="rotate(0,292,936)"/><rect x="306" y="922" width="28" height="28" transform="rotate(0,320,936)"/><rect x="334" y="922" width="28" height="28" transform="rotate(0,348,936)"/><rect x="362" y="922" width="28" height="28" transform="rotate(0,376,936)"/><rect x="390" y="922" width="28" height="28" transform="rotate(0,404,936)"/><rect x="418" y="922" width="28" height="28" transform="rotate(0,432,936)"/><rect x="446" y="922" width="28" height="28" transform="rotate(0,460,936)"/><rect x="474" y="922" width="28" height="28" transform="rotate(0,488,936)"/><rect x="502" y="922" width="28" height="28" transform="rotate(0,516,936)"/><rect x="530" y="922" width="28" height="28" transform="rotate(0,544,936)"/><rect x="558" y="922" width="28" height="28" transform="rotate(0,572,936)"/><rect x="586" y="922" width="28" height="28" transform="rotate(0,600,936)"/><rect x="614" y="922" width="28" height="28" transform="rotate(0,628,936)"/><rect x="642" y="922" width="28" height="28" transform="rotate(0,656,936)"/><path d="M 670 922v 28h 28v -14a 14 14, 0, 0, 0, -14 -14" transform="rotate(90,684,936)"/><path d="M 726 922v 28h 14a 14 14, 0, 0, 0, 0 -28" transform="rotate(180,740,936)"/><rect x="754" y="922" width="28" height="28" transform="rotate(0,768,936)"/><path d="M 782 922v 28h 14a 14 14, 0, 0, 0, 0 -28" transform="rotate(0,796,936)"/><rect x="922" y="922" width="28" height="28" transform="rotate(0,936,936)"/><rect x="950" y="922" width="28" height="28" transform="rotate(0,964,936)"/><rect x="978" y="922" width="28" height="28" transform="rotate(0,992,936)"/><rect x="1006" y="922" width="28" height="28" transform="rotate(0,1020,936)"/><rect x="1034" y="922" width="28" height="28" transform="rotate(0,1048,936)"/><path d="M 1090 922v 28h 14a 14 14, 0, 0, 0, 0 -28" transform="rotate(-90,1104,936)"/><path d="M 1146 922v 28h 14a 14 14, 0, 0, 0, 0 -28" transform="rotate(-90,1160,936)"/><rect x="250" y="950" width="28" height="28" transform="rotate(0,264,964)"/><path d="M 306 950v 28h 14a 14 14, 0, 0, 0, 0 -28" transform="rotate(90,320,964)"/><path d="M 362 950v 28h 14a 14 14, 0, 0, 0, 0 -28" transform="rotate(90,376,964)"/><rect x="418" y="950" width="28" height="28" transform="rotate(0,432,964)"/><rect x="474" y="950" width="28" height="28" transform="rotate(0,488,964)"/><rect x="502" y="950" width="28" height="28" transform="rotate(0,516,964)"/><path d="M 530 950v 28h 28v -14a 14 14, 0, 0, 0, -14 -14" transform="rotate(90,544,964)"/><circle cx="712" cy="964" r="14" transform="rotate(0,712,964)"/><circle cx="824" cy="964" r="14" transform="rotate(0,824,964)"/><rect x="922" y="950" width="28" height="28" transform="rotate(0,936,964)"/><rect x="1034" y="950" width="28" height="28" transform="rotate(0,1048,964)"/><rect x="1062" y="950" width="28" height="28" transform="rotate(0,1076,964)"/><rect x="1090" y="950" width="28" height="28" transform="rotate(0,1104,964)"/><rect x="1118" y="950" width="28" height="28" transform="rotate(0,1132,964)"/><path d="M 1146 950v 28h 28v -14a 14 14, 0, 0, 0, -14 -14" transform="rotate(90,1160,964)"/><rect x="250" y="978" width="28" height="28" transform="rotate(0,264,992)"/><circle cx="348" cy="992" r="14" transform="rotate(0,348,992)"/><rect x="418" y="978" width="28" height="28" transform="rotate(0,432,992)"/><path d="M 474 978v 28h 14a 14 14, 0, 0, 0, 0 -28" transform="rotate(90,488,992)"/><circle cx="572" cy="992" r="14" transform="rotate(0,572,992)"/><path d="M 614 978v 28h 14a 14 14, 0, 0, 0, 0 -28" transform="rotate(180,628,992)"/><path d="M 642 978v 28h 14a 14 14, 0, 0, 0, 0 -28" transform="rotate(0,656,992)"/><path d="M 866 978v 28h 14a 14 14, 0, 0, 0, 0 -28" transform="rotate(-90,880,992)"/><rect x="922" y="978" width="28" height="28" transform="rotate(0,936,992)"/><circle cx="992" cy="992" r="14" transform="rotate(0,992,992)"/><rect x="1034" y="978" width="28" height="28" transform="rotate(0,1048,992)"/><rect x="1090" y="978" width="28" height="28" transform="rotate(0,1104,992)"/><path d="M 250 1006v 28h 14a 14 14, 0, 0, 0, 0 -28" transform="rotate(90,264,1020)"/><rect x="418" y="1006" width="28" height="28" transform="rotate(0,432,1020)"/><path d="M 446 1006v 28h 14a 14 14, 0, 0, 0, 0 -28" transform="rotate(0,460,1020)"/><circle cx="516" cy="1020" r="14" transform="rotate(0,516,1020)"/><path d="M 586 1006v 28h 14a 14 14, 0, 0, 0, 0 -28" transform="rotate(-90,600,1020)"/><path d="M 670 1006v 28h 14a 14 14, 0, 0, 0, 0 -28" transform="rotate(180,684,1020)"/><path d="M 698 1006v 28h 28v -14a 14 14, 0, 0, 0, -14 -14" transform="rotate(0,712,1020)"/><circle cx="768" cy="1020" r="14" transform="rotate(0,768,1020)"/><path d="M 810 1006v 28h 14a 14 14, 0, 0, 0, 0 -28" transform="rotate(-90,824,1020)"/><path d="M 866 1006v 28h 14a 14 14, 0, 0, 0, 0 -28" transform="rotate(90,880,1020)"/><rect x="922" y="1006" width="28" height="28" transform="rotate(0,936,1020)"/><rect x="1034" y="1006" width="28" height="28" transform="rotate(0,1048,1020)"/><rect x="1062" y="1006" width="28" height="28" transform="rotate(0,1076,1020)"/><path d="M 1090 1006v 28h 28v -14a 14 14, 0, 0, 0, -14 -14" transform="rotate(90,1104,1020)"/><circle cx="292" cy="1048" r="14" transform="rotate(0,292,1048)"/><path d="M 334 1034v 28h 14a 14 14, 0, 0, 0, 0 -28" transform="rotate(-90,348,1048)"/><rect x="418" y="1034" width="28" height="28" transform="rotate(0,432,1048)"/><path d="M 586 1034v 28h 28v -14a 14 14, 0, 0, 0, -14 -14" transform="rotate(180,600,1048)"/><path d="M 614 1034v 28h 28v -14a 14 14, 0, 0, 0, -14 -14" transform="rotate(0,628,1048)"/><rect x="698" y="1034" width="28" height="28" transform="rotate(0,712,1048)"/><path d="M 782 1034v 28h 14a 14 14, 0, 0, 0, 0 -28" transform="rotate(180,796,1048)"/><rect x="810" y="1034" width="28" height="28" transform="rotate(0,824,1048)"/><path d="M 838 1034v 28h 14a 14 14, 0, 0, 0, 0 -28" transform="rotate(0,852,1048)"/><path d="M 922 1034v 28h 28v -14a 14 14, 0, 0, 0, -14 -14" transform="rotate(180,936,1048)"/><rect x="950" y="1034" width="28" height="28" transform="rotate(0,964,1048)"/><rect x="978" y="1034" width="28" height="28" transform="rotate(0,992,1048)"/><rect x="1006" y="1034" width="28" height="28" transform="rotate(0,1020,1048)"/><rect x="1034" y="1034" width="28" height="28" transform="rotate(0,1048,1048)"/><circle cx="264" cy="1076" r="14" transform="rotate(0,264,1076)"/><path d="M 306 1062v 28h 28v -14a 14 14, 0, 0, 0, -14 -14" transform="rotate(-90,320,1076)"/><path d="M 334 1062v 28h 28v -14a 14 14, 0, 0, 0, -14 -14" transform="rotate(90,348,1076)"/><path d="M 390 1062v 28h 14a 14 14, 0, 0, 0, 0 -28" transform="rotate(180,404,1076)"/><rect x="418" y="1062" width="28" height="28" transform="rotate(0,432,1076)"/><rect x="446" y="1062" width="28" height="28" transform="rotate(0,460,1076)"/><rect x="474" y="1062" width="28" height="28" transform="rotate(0,488,1076)"/><rect x="502" y="1062" width="28" height="28" transform="rotate(0,516,1076)"/><rect x="530" y="1062" width="28" height="28" transform="rotate(0,544,1076)"/><path d="M 558 1062v 28h 28v -14a 14 14, 0, 0, 0, -14 -14" transform="rotate(0,572,1076)"/><rect x="614" y="1062" width="28" height="28" transform="rotate(0,628,1076)"/><path d="M 642 1062v 28h 28v -14a 14 14, 0, 0, 0, -14 -14" transform="rotate(0,656,1076)"/><rect x="698" y="1062" width="28" height="28" transform="rotate(0,712,1076)"/><path d="M 950 1062v 28h 28v -14a 14 14, 0, 0, 0, -14 -14" transform="rotate(180,964,1076)"/><path d="M 978 1062v 28h 28v -14a 14 14, 0, 0, 0, -14 -14" transform="rotate(90,992,1076)"/><rect x="1034" y="1062" width="28" height="28" transform="rotate(0,1048,1076)"/><rect x="1062" y="1062" width="28" height="28" transform="rotate(0,1076,1076)"/><rect x="1090" y="1062" width="28" height="28" transform="rotate(0,1104,1076)"/><rect x="1118" y="1062" width="28" height="28" transform="rotate(0,1132,1076)"/><path d="M 1146 1062v 28h 28v -14a 14 14, 0, 0, 0, -14 -14" transform="rotate(0,1160,1076)"/><rect x="306" y="1090" width="28" height="28" transform="rotate(0,320,1104)"/><circle cx="376" cy="1104" r="14" transform="rotate(0,376,1104)"/><rect x="418" y="1090" width="28" height="28" transform="rotate(0,432,1104)"/><path d="M 474 1090v 28h 28v -14a 14 14, 0, 0, 0, -14 -14" transform="rotate(180,488,1104)"/><rect x="502" y="1090" width="28" height="28" transform="rotate(0,516,1104)"/><path d="M 558 1090v 28h 28v -14a 14 14, 0, 0, 0, -14 -14" transform="rotate(180,572,1104)"/><rect x="586" y="1090" width="28" height="28" transform="rotate(0,600,1104)"/><rect x="614" y="1090" width="28" height="28" transform="rotate(0,628,1104)"/><rect x="642" y="1090" width="28" height="28" transform="rotate(0,656,1104)"/><rect x="670" y="1090" width="28" height="28" transform="rotate(0,684,1104)"/><rect x="698" y="1090" width="28" height="28" transform="rotate(0,712,1104)"/><rect x="726" y="1090" width="28" height="28" transform="rotate(0,740,1104)"/><path d="M 754 1090v 28h 14a 14 14, 0, 0, 0, 0 -28" transform="rotate(0,768,1104)"/><path d="M 838 1090v 28h 14a 14 14, 0, 0, 0, 0 -28" transform="rotate(-90,852,1104)"/><circle cx="908" cy="1104" r="14" transform="rotate(0,908,1104)"/><path d="M 1034 1090v 28h 28v -14a 14 14, 0, 0, 0, -14 -14" transform="rotate(180,1048,1104)"/><path d="M 1062 1090v 28h 28v -14a 14 14, 0, 0, 0, -14 -14" transform="rotate(90,1076,1104)"/><rect x="1118" y="1090" width="28" height="28" transform="rotate(0,1132,1104)"/><path d="M 1146 1090v 28h 28v -14a 14 14, 0, 0, 0, -14 -14" transform="rotate(90,1160,1104)"/><path d="M 250 1118v 28h 14a 14 14, 0, 0, 0, 0 -28" transform="rotate(180,264,1132)"/><rect x="278" y="1118" width="28" height="28" transform="rotate(0,292,1132)"/><rect x="306" y="1118" width="28" height="28" transform="rotate(0,320,1132)"/><path d="M 390 1118v 28h 14a 14 14, 0, 0, 0, 0 -28" transform="rotate(180,404,1132)"/><rect x="418" y="1118" width="28" height="28" transform="rotate(0,432,1132)"/><path d="M 446 1118v 28h 28v -14a 14 14, 0, 0, 0, -14 -14" transform="rotate(0,460,1132)"/><path d="M 502 1118v 28h 28v -14a 14 14, 0, 0, 0, -14 -14" transform="rotate(180,516,1132)"/><path d="M 530 1118v 28h 28v -14a 14 14, 0, 0, 0, -14 -14" transform="rotate(0,544,1132)"/><rect x="614" y="1118" width="28" height="28" transform="rotate(0,628,1132)"/><path d="M 670 1118v 28h 28v -14a 14 14, 0, 0, 0, -14 -14" transform="rotate(180,684,1132)"/><rect x="698" y="1118" width="28" height="28" transform="rotate(0,712,1132)"/><path d="M 726 1118v 28h 28v -14a 14 14, 0, 0, 0, -14 -14" transform="rotate(90,740,1132)"/><rect x="838" y="1118" width="28" height="28" transform="rotate(0,852,1132)"/><path d="M 922 1118v 28h 14a 14 14, 0, 0, 0, 0 -28" transform="rotate(-90,936,1132)"/><path d="M 978 1118v 28h 28v -14a 14 14, 0, 0, 0, -14 -14" transform="rotate(-90,992,1132)"/><path d="M 1006 1118v 28h 28v -14a 14 14, 0, 0, 0, -14 -14" transform="rotate(0,1020,1132)"/><rect x="1118" y="1118" width="28" height="28" transform="rotate(0,1132,1132)"/><path d="M 306 1146v 28h 14a 14 14, 0, 0, 0, 0 -28" transform="rotate(90,320,1160)"/><circle cx="376" cy="1160" r="14" transform="rotate(0,376,1160)"/><path d="M 446 1146v 28h 28v -14a 14 14, 0, 0, 0, -14 -14" transform="rotate(180,460,1160)"/><path d="M 474 1146v 28h 14a 14 14, 0, 0, 0, 0 -28" transform="rotate(0,488,1160)"/><path d="M 530 1146v 28h 14a 14 14, 0, 0, 0, 0 -28" transform="rotate(90,544,1160)"/><path d="M 614 1146v 28h 14a 14 14, 0, 0, 0, 0 -28" transform="rotate(90,628,1160)"/><path d="M 698 1146v 28h 14a 14 14, 0, 0, 0, 0 -28" transform="rotate(90,712,1160)"/><path d="M 810 1146v 28h 14a 14 14, 0, 0, 0, 0 -28" transform="rotate(180,824,1160)"/><path d="M 838 1146v 28h 28v -14a 14 14, 0, 0, 0, -14 -14" transform="rotate(90,852,1160)"/><path d="M 922 1146v 28h 14a 14 14, 0, 0, 0, 0 -28" transform="rotate(90,936,1160)"/><path d="M 978 1146v 28h 28v -14a 14 14, 0, 0, 0, -14 -14" transform="rotate(180,992,1160)"/><rect x="1006" y="1146" width="28" height="28" transform="rotate(0,1020,1160)"/><path d="M 1034 1146v 28h 14a 14 14, 0, 0, 0, 0 -28" transform="rotate(0,1048,1160)"/><path d="M 1118 1146v 28h 14a 14 14, 0, 0, 0, 0 -28" transform="rotate(90,1132,1160)"/></clipPath><clipPath id="clip-path-corners-square-color-0-0-217"><path clip-rule="evenodd" d="M 26 96v 56a 70 70, 0, 0, 0, 70 70h 56a 70 70, 0, 0, 0, 70 -70v -56a 70 70, 0, 0, 0, -70 -70h -56a 70 70, 0, 0, 0, -70 70M 96 54h 56a 42 42, 0, 0, 1, 42 42v 56a 42 42, 0, 0, 1, -42 42h -56a 42 42, 0, 0, 1, -42 -42v -56a 42 42, 0, 0, 1, 42 -42" transform="rotate(0,124,124)"/></clipPath><clipPath id="clip-path-corners-dot-color-0-0-217"><circle cx="124" cy="124" r="42" transform="rotate(0,124,124)"/></clipPath><clipPath id="clip-path-corners-square-color-1-0-217"><path clip-rule="evenodd" d="M 978 96v 56a 70 70, 0, 0, 0, 70 70h 56a 70 70, 0, 0, 0, 70 -70v -56a 70 70, 0, 0, 0, -70 -70h -56a 70 70, 0, 0, 0, -70 70M 1048 54h 56a 42 42, 0, 0, 1, 42 42v 56a 42 42, 0, 0, 1, -42 42h -56a 42 42, 0, 0, 1, -42 -42v -56a 42 42, 0, 0, 1, 42 -42" transform="rotate(90,1076,124)"/></clipPath><clipPath id="clip-path-corners-dot-color-1-0-217"><circle cx="1076" cy="124" r="42" transform="rotate(90,1076,124)"/></clipPath><clipPath id="clip-path-corners-square-color-0-1-217"><path clip-rule="evenodd" d="M 26 1048v 56a 70 70, 0, 0, 0, 70 70h 56a 70 70, 0, 0, 0, 70 -70v -56a 70 70, 0, 0, 0, -70 -70h -56a 70 70, 0, 0, 0, -70 70M 96 1006h 56a 42 42, 0, 0, 1, 42 42v 56a 42 42, 0, 0, 1, -42 42h -56a 42 42, 0, 0, 1, -42 -42v -56a 42 42, 0, 0, 1, 42 -42" transform="rotate(-90,124,1076)"/></clipPath><clipPath id="clip-path-corners-dot-color-0-1-217"><circle cx="124" cy="1076" r="42" transform="rotate(-90,124,1076)"/></clipPath></defs><rect x="0" y="0" height="1200" width="1200" clip-path="url('#clip-path-background-color-217')" fill="#ffffff"/><rect x="0" y="0" height="1200" width="1200" clip-path="url('#clip-path-dot-color-217')" fill="#000000"/><rect x="26" y="26" height="196" width="196" clip-path="url('#clip-path-corners-square-color-0-0-217')" fill="#000000"/><rect x="82" y="82" height="84" width="84" clip-path="url('#clip-path-corners-dot-color-0-0-217')" fill="#000000"/><rect x="978" y="26" height="196" width="196" clip-path="url('#clip-path-corners-square-color-1-0-217')" fill="#000000"/><rect x="1034" y="82" height="84" width="84" clip-path="url('#clip-path-corners-dot-color-1-0-217')" fill="#000000"/><rect x="26" y="978" height="196" width="196" clip-path="url('#clip-path-corners-square-color-0-1-217')" fill="#000000"/><rect x="82" y="1034" height="84" width="84" clip-path="url('#clip-path-corners-dot-color-0-1-217')" fill="#000000"/></svg>