<?xml version="1.0" standalone="no"?>
<svg xmlns="http://www.w3.org/2000/svg" width="1200" height="1200" xmlns:xlink="http://www.w3.org/1999/xlink" viewBox="0 0 1200 1200"><defs><clipPath id="clip-path-background-color-186"><rect x="0" y="0" width="1200" height="1200"/></clipPath><clipPath id="clip-path-dot-color-186"><path d="M 264 8v 32h 16a 16 16, 0, 0, 0, 0 -32" transform="rotate(-90,280,24)"/><circle cx="344" cy="24" r="16" transform="rotate(0,344,24)"/><circle cx="440" cy="24" r="16" transform="rotate(0,440,24)"/><circle cx="568" cy="24" r="16" transform="rotate(0,568,24)"/><path d="M 648 8v 32h 32v -16a 16 16, 0, 0, 0, -16 -16" transform="rotate(-90,664,24)"/><path d="M 680 8v 32h 16a 16 16, 0, 0, 0, 0 -32" transform="rotate(0,696,24)"/><path d="M 840 8v 32h 16a 16 16, 0, 0, 0, 0 -32" transform="rotate(-90,856,24)"/><path d="M 904 8v 32h 16a 16 16, 0, 0, 0, 0 -32" transform="rotate(-90,920,24)"/><path d="M 264 40v 32h 16a 16 16, 0, 0, 0, 0 -32" transform="rotate(90,280,56)"/><path d="M 360 40v 32h 16a 16 16, 0, 0, 0, 0 -32" transform="rotate(180,376,56)"/><path d="M 392 40v 32h 16a 16 16, 0, 0, 0, 0 -32" transform="rotate(0,408,56)"/><path d="M 488 40v 32h 16a 16 16, 0, 0, 0, 0 -32" transform="rotate(-90,504,56)"/><circle cx="600" cy="56" r="16" transform="rotate(0,600,56)"/><path d="M 648 40v 32h 16a 16 16, 0, 0, 0, 0 -32" transform="rotate(90,664,56)"/><circle cx="728" cy="56" r="16" transform="rotate(0,728,56)"/><path d="M 776 40v 32h 16a 16 16, 0, 0, 0, 0 -32" transform="rotate(-90,792,56)"/><rect x="840" y="40" width="32" height="32" transform="rotate(0,856,56)"/><rect x="904" y="40" width="32" height="32" transform="rotate(0,920,56)"/><circle cx="344" cy="88" r="16" transform="rotate(0,344,88)"/><path d="M 456 72v 32h 32v -16a 16 16, 0, 0, 0, -16 -16" transform="rotate(-90,472,88)"/><rect x="488" y="72" width="32" height="32" transform="rotate(0,504,88)"/><path d="M 680 72v 32h 16a 16 16, 0, 0, 0, 0 -32" transform="rotate(-90,696,88)"/><path d="M 744 72v 32h 16a 16 16, 0, 0, 0, 0 -32" transform="rotate(180,760,88)"/><path d="M 776 72v 32h 32v -16a 16 16, 0, 0, 0, -16 -16" transform="rotate(90,792,88)"/><path d="M 840 72v 32h 32v -16a 16 16, 0, 0, 0, -16 -16" transform="rotate(180,856,88)"/><rect x="872" y="72" width="32" height="32" transform="rotate(0,888,88)"/><rect x="904" y="72" width="32" height="32" transform="rotate(0,920,88)"/><path d="M 360 104v 32h 16a 16 16, 0, 0, 0, 0 -32" transform="rotate(-90,376,120)"/><path d="M 456 104v 32h 32v -16a 16 16, 0, 0, 0, -16 -16" transform="rotate(180,472,120)"/><rect x="488" y="104" width="32" height="32" transform="rotate(0,504,120)"/><path d="M 584 104v 32h 16a 16 16, 0, 0, 0, 0 -32" transform="rotate(180,600,120)"/><path d="M 616 104v 32h 16a 16 16, 0, 0, 0, 0 -32" transform="rotate(0,632,120)"/><rect x="680" y="104" width="32" height="32" transform="rotate(0,696,120)"/><path d="M 808 104v 32h 16a 16 16, 0, 0, 0, 0 -32" transform="rotate(-90,824,120)"/><path d="M 872 104v 32h 32v -16a 16 16, 0, 0, 0, -16 -16" transform="rotate(180,888,120)"/><path d="M 904 104v 32h 32v -16a 16 16, 0, 0, 0, -16 -16" transform="rotate(90,920,120)"/><path d="M 360 136v 32h 16a 16 16, 0, 0, 0, 0 -32" transform="rotate(90,376,152)"/><path d="M 488 136v 32h 32v -16a 16 16, 0, 0, 0, -16 -16" transform="rotate(180,504,152)"/><rect x="520" y="136" width="32" height="32" transform="rotate(0,536,152)"/><path d="M 552 136v 32h 32v -16a 16 16, 0, 0, 0, -16 -16" transform="rotate(0,568,152)"/><path d="M 680 136v 32h 32v -16a 16 16, 0, 0, 0, -16 -16" transform="rotate(180,696,152)"/><rect x="712" y="136" width="32" height="32" transform="rotate(0,728,152)"/><path d="M 744 136v 32h 16a 16 16, 0, 0, 0, 0 -32" transform="rotate(0,760,152)"/><path d="M 808 136v 32h 32v -16a 16 16, 0, 0, 0, -16 -16" transform="rotate(180,824,152)"/><path d="M 840 136v 32h 16a 16 16, 0, 0, 0, 0 -32" transform="rotate(0,856,152)"/><circle cx="312" cy="184" r="16" transform="rotate(0,312,184)"/><path d="M 392 168v 32h 32v -16a 16 16, 0, 0, 0, -16 -16" transform="rotate(-90,408,184)"/><path d="M 424 168v 32h 16a 16 16, 0, 0, 0, 0 -32" transform="rotate(0,440,184)"/><rect x="520" y="168" width="32" height="32" transform="rotate(0,536,184)"/><rect x="552" y="168" width="32" height="32" transform="rotate(0,568,184)"/><rect x="584" y="168" width="32" height="32" transform="rotate(0,600,184)"/><rect x="616" y="168" width="32" height="32" transform="rotate(0,632,184)"/><path d="M 648 168v 32h 32v -16a 16 16, 0, 0, 0, -16 -16" transform="rotate(0,664,184)"/><rect x="712" y="168" width="32" height="32" transform="rotate(0,728,184)"/><path d="M 904 168v 32h 16a 16 16, 0, 0, 0, 0 -32" transform="rotate(-90,920,184)"/><circle cx="280" cy="216" r="16" transform="rotate(0,280,216)"/><circle cx="344" cy="216" r="16" transform="rotate(0,344,216)"/><rect x="392" y="200" width="32" height="32" transform="rotate(0,408,216)"/><circle cx="472" cy="216" r="16" transform="rotate(0,472,216)"/><path d="M 520 200v 32h 16a 16 16, 0, 0, 0, 0 -32" transform="rotate(90,536,216)"/><rect x="584" y="200" width="32" height="32" transform="rotate(0,600,216)"/><path d="M 648 200v 32h 16a 16 16, 0, 0, 0, 0 -32" transform="rotate(90,664,216)"/><rect x="712" y="200" width="32" height="32" transform="rotate(0,728,216)"/><path d="M 776 200v 32h 16a 16 16, 0, 0, 0, 0 -32" transform="rotate(-90,792,216)"/><circle cx="856" cy="216" r="16" transform="rotate(0,856,216)"/><rect x="904" y="200" width="32" height="32" transform="rotate(0,920,216)"/><rect x="392" y="232" width="32" height="32" transform="rotate(0,408,248)"/><path d="M 424 232v 32h 16a 16 16, 0, 0, 0, 0 -32" transform="rotate(0,440,248)"/><circle cx="504" cy="248" r="16" transform="rotate(0,504,248)"/><rect x="584" y="232" width="32" height="32" transform="rotate(0,600,248)"/><rect x="712" y="232" width="32" height="32" transform="rotate(0,728,248)"/><rect x="744" y="232" width="32" height="32" transform="rotate(0,760,248)"/><rect x="776" y="232" width="32" height="32" transform="rotate(0,792,248)"/><path d="M 872 232v 32h 16a 16 16, 0, 0, 0, 0 -32" transform="rotate(180,888,248)"/><path d="M 904 232v 32h 32v -16a 16 16, 0, 0, 0, -16 -16" transform="rotate(90,920,248)"/><path d="M 40 264v 32h 16a 16 16, 0, 0, 0, 0 -32" transform="rotate(-90,56,280)"/><path d="M 200 264v 32h 16a 16 16, 0, 0, 0, 0 -32" transform="rotate(180,216,280)"/><rect x="232" y="264" width="32" height="32" transform="rotate(0,248,280)"/><path d="M 264 264v 32h 16a 16 16, 0, 0, 0, 0 -32" transform="rotate(0,280,280)"/><path d="M 392 264v 32h 16a 16 16, 0, 0, 0, 0 -32" transform="rotate(90,408,280)"/><path d="M 520 264v 32h 16a 16 16, 0, 0, 0, 0 -32" transform="rotate(180,536,280)"/><rect x="552" y="264" width="32" height="32" transform="rotate(0,568,280)"/><rect x="584" y="264" width="32" height="32" transform="rotate(0,600,280)"/><rect x="616" y="264" width="32" height="32" transform="rotate(0,632,280)"/><path d="M 648 264v 32h 32v -16a 16 16, 0, 0, 0, -16 -16" transform="rotate(0,664,280)"/><path d="M 712 264v 32h 16a 16 16, 0, 0, 0, 0 -32" transform="rotate(90,728,280)"/><path d="M 776 264v 32h 32v -16a 16 16, 0, 0, 0, -16 -16" transform="rotate(180,792,280)"/><path d="M 808 264v 32h 32v -16a 16 16, 0, 0, 0, -16 -16" transform="rotate(0,824,280)"/><circle cx="952" cy="280" r="16" transform="rotate(0,952,280)"/><path d="M 1128 264v 32h 16a 16 16, 0, 0, 0, 0 -32" transform="rotate(180,1144,280)"/><path d="M 1160 264v 32h 16a 16 16, 0, 0, 0, 0 -32" transform="rotate(0,1176,280)"/><path d="M 40 296v 32h 32v -16a 16 16, 0, 0, 0, -16 -16" transform="rotate(180,56,312)"/><path d="M 72 296v 32h 32v -16a 16 16, 0, 0, 0, -16 -16" transform="rotate(0,88,312)"/><path d="M 232 296v 32h 16a 16 16, 0, 0, 0, 0 -32" transform="rotate(90,248,312)"/><circle cx="312" cy="312" r="16" transform="rotate(0,312,312)"/><circle cx="376" cy="312" r="16" transform="rotate(0,376,312)"/><circle cx="440" cy="312" r="16" transform="rotate(0,440,312)"/><path d="M 552 296v 32h 16a 16 16, 0, 0, 0, 0 -32" transform="rotate(90,568,312)"/><rect x="616" y="296" width="32" height="32" transform="rotate(0,632,312)"/><rect x="648" y="296" width="32" height="32" transform="rotate(0,664,312)"/><circle cx="760" cy="312" r="16" transform="rotate(0,760,312)"/><rect x="808" y="296" width="32" height="32" transform="rotate(0,824,312)"/><rect x="840" y="296" width="32" height="32" transform="rotate(0,856,312)"/><path d="M 872 296v 32h 32v -16a 16 16, 0, 0, 0, -16 -16" transform="rotate(0,888,312)"/><path d="M 1000 296v 32h 16a 16 16, 0, 0, 0, 0 -32" transform="rotate(180,1016,312)"/><rect x="1032" y="296" width="32" height="32" transform="rotate(0,1048,312)"/><rect x="1064" y="296" width="32" height="32" transform="rotate(0,1080,312)"/><path d="M 1096 296v 32h 16a 16 16, 0, 0, 0, 0 -32" transform="rotate(0,1112,312)"/><path d="M 8 328v 32h 16a 16 16, 0, 0, 0, 0 -32" transform="rotate(-90,24,344)"/><path d="M 72 328v 32h 16a 16 16, 0, 0, 0, 0 -32" transform="rotate(90,88,344)"/><circle cx="216" cy="344" r="16" transform="rotate(0,216,344)"/><path d="M 264 328v 32h 16a 16 16, 0, 0, 0, 0 -32" transform="rotate(-90,280,344)"/><path d="M 488 328v 32h 32v -16a 16 16, 0, 0, 0, -16 -16" transform="rotate(-90,504,344)"/><path d="M 520 328v 32h 16a 16 16, 0, 0, 0, 0 -32" transform="rotate(0,536,344)"/><path d="M 616 328v 32h 32v -16a 16 16, 0, 0, 0, -16 -16" transform="rotate(180,632,344)"/><rect x="648" y="328" width="32" height="32" transform="rotate(0,664,344)"/><path d="M 808 328v 32h 32v -16a 16 16, 0, 0, 0, -16 -16" transform="rotate(180,824,344)"/><rect x="840" y="328" width="32" height="32" transform="rotate(0,856,344)"/><rect x="872" y="328" width="32" height="32" transform="rotate(0,888,344)"/><path d="M 904 328v 32h 16a 16 16, 0, 0, 0, 0 -32" transform="rotate(0,920,344)"/><path d="M 968 328v 32h 16a 16 16, 0, 0, 0, 0 -32" transform="rotate(-90,984,344)"/><path d="M 1032 328v 32h 16a 16 16, 0, 0, 0, 0 -32" transform="rotate(90,1048,344)"/><path d="M 1128 328v 32h 32v -16a 16 16, 0, 0, 0, -16 -16" transform="rotate(-90,1144,344)"/><path d="M 1160 328v 32h 16a 16 16, 0, 0, 0, 0 -32" transform="rotate(0,1176,344)"/><path d="M 8 360v 32h 16a 16 16, 0, 0, 0, 0 -32" transform="rotate(90,24,376)"/><circle cx="152" cy="376" r="16" transform="rotate(0,152,376)"/><rect x="264" y="360" width="32" height="32" transform="rotate(0,280,376)"/><circle cx="344" cy="376" r="16" transform="rotate(0,344,376)"/><path d="M 392 360v 32h 16a 16 16, 0, 0, 0, 0 -32" transform="rotate(180,408,376)"/><path d="M 424 360v 32h 16a 16 16, 0, 0, 0, 0 -32" transform="rotate(0,440,376)"/><path d="M 488 360v 32h 16a 16 16, 0, 0, 0, 0 -32" transform="rotate(90,504,376)"/><circle cx="600" cy="376" r="16" transform="rotate(0,600,376)"/><path d="M 648 360v 32h 16a 16 16, 0, 0, 0, 0 -32" transform="rotate(90,664,376)"/><path d="M 712 360v 32h 32v -16a 16 16, 0, 0, 0, -16 -16" transform="rotate(-90,728,376)"/><rect x="744" y="360" width="32" height="32" transform="rotate(0,760,376)"/><path d="M 776 360v 32h 16a 16 16, 0, 0, 0, 0 -32" transform="rotate(0,792,376)"/><path d="M 840 360v 32h 32v -16a 16 16, 0, 0, 0, -16 -16" transform="rotate(180,856,376)"/><rect x="872" y="360" width="32" height="32" transform="rotate(0,888,376)"/><rect x="968" y="360" width="32" height="32" transform="rotate(0,984,376)"/><rect x="1128" y="360" width="32" height="32" transform="rotate(0,1144,376)"/><circle cx="56" cy="408" r="16" transform="rotate(0,56,408)"/><path d="M 104 392v 32h 16a 16 16, 0, 0, 0, 0 -32" transform="rotate(-90,120,408)"/><path d="M 168 392v 32h 16a 16 16, 0, 0, 0, 0 -32" transform="rotate(180,184,408)"/><rect x="200" y="392" width="32" height="32" transform="rotate(0,216,408)"/><rect x="232" y="392" width="32" height="32" transform="rotate(0,248,408)"/><path d="M 264 392v 32h 32v -16a 16 16, 0, 0, 0, -16 -16" transform="rotate(90,280,408)"/><path d="M 520 392v 32h 16a 16 16, 0, 0, 0, 0 -32" transform="rotate(-90,536,408)"/><path d="M 616 392v 32h 16a 16 16, 0, 0, 0, 0 -32" transform="rotate(-90,632,408)"/><path d="M 712 392v 32h 32v -16a 16 16, 0, 0, 0, -16 -16" transform="rotate(180,728,408)"/><rect x="744" y="392" width="32" height="32" transform="rotate(0,760,408)"/><rect x="872" y="392" width="32" height="32" transform="rotate(0,888,408)"/><path d="M 904 392v 32h 16a 16 16, 0, 0, 0, 0 -32" transform="rotate(0,920,408)"/><path d="M 968 392v 32h 32v -16a 16 16, 0, 0, 0, -16 -16" transform="rotate(180,984,408)"/><path d="M 1000 392v 32h 16a 16 16, 0, 0, 0, 0 -32" transform="rotate(0,1016,408)"/><circle cx="1080" cy="408" r="16" transform="rotate(0,1080,408)"/><path d="M 1128 392v 32h 32v -16a 16 16, 0, 0, 0, -16 -16" transform="rotate(180,1144,408)"/><path d="M 1160 392v 32h 16a 16 16, 0, 0, 0, 0 -32" transform="rotate(0,1176,408)"/><rect x="104" y="424" width="32" height="32" transform="rotate(0,120,440)"/><rect x="232" y="424" width="32" height="32" transform="rotate(0,248,440)"/><circle cx="312" cy="440" r="16" transform="rotate(0,312,440)"/><path d="M 360 424v 32h 16a 16 16, 0, 0, 0, 0 -32" transform="rotate(-90,376,440)"/><path d="M 456 424v 32h 16a 16 16, 0, 0, 0, 0 -32" transform="rotate(-90,472,440)"/><rect x="520" y="424" width="32" height="32" transform="rotate(0,536,440)"/><path d="M 552 424v 32h 32v -16a 16 16, 0, 0, 0, -16 -16" transform="rotate(0,568,440)"/><path d="M 616 424v 32h 16a 16 16, 0, 0, 0, 0 -32" transform="rotate(90,632,440)"/><path d="M 744 424v 32h 16a 16 16, 0, 0, 0, 0 -32" transform="rotate(90,760,440)"/><path d="M 808 424v 32h 16a 16 16, 0, 0, 0, 0 -32" transform="rotate(-90,824,440)"/><rect x="872" y="424" width="32" height="32" transform="rotate(0,888,440)"/><path d="M 936 424v 32h 16a 16 16, 0, 0, 0, 0 -32" transform="rotate(-90,952,440)"/><circle cx="1112" cy="440" r="16" transform="rotate(0,1112,440)"/><circle cx="24" cy="472" r="16" transform="rotate(0,24,472)"/><path d="M 72 456v 32h 32v -16a 16 16, 0, 0, 0, -16 -16" transform="rotate(-90,88,472)"/><path d="M 104 456v 32h 32v -16a 16 16, 0, 0, 0, -16 -16" transform="rotate(90,120,472)"/><path d="M 168 456v 32h 16a 16 16, 0, 0, 0, 0 -32" transform="rotate(180,184,472)"/><rect x="200" y="456" width="32" height="32" transform="rotate(0,216,472)"/><path d="M 232 456v 32h 32v -16a 16 16, 0, 0, 0, -16 -16" transform="rotate(90,248,472)"/><path d="M 328 456v 32h 32v -16a 16 16, 0, 0, 0, -16 -16" transform="rotate(-90,344,472)"/><path d="M 360 456v 32h 32v -16a 16 16, 0, 0, 0, -16 -16" transform="rotate(90,376,472)"/><path d="M 456 456v 32h 16a 16 16, 0, 0, 0, 0 -32" transform="rotate(90,472,472)"/><path d="M 520 456v 32h 32v -16a 16 16, 0, 0, 0, -16 -16" transform="rotate(180,536,472)"/><rect x="552" y="456" width="32" height="32" transform="rotate(0,568,472)"/><path d="M 776 456v 32h 16a 16 16, 0, 0, 0, 0 -32" transform="rotate(180,792,472)"/><rect x="808" y="456" width="32" height="32" transform="rotate(0,824,472)"/><rect x="840" y="456" width="32" height="32" transform="rotate(0,856,472)"/><rect x="872" y="456" width="32" height="32" transform="rotate(0,888,472)"/><path d="M 936 456v 32h 16a 16 16, 0, 0, 0, 0 -32" transform="rotate(90,952,472)"/><path d="M 1064 456v 32h 16a 16 16, 0, 0, 0, 0 -32" transform="rotate(-90,1080,472)"/><path d="M 1128 456v 32h 32v -16a 16 16, 0, 0, 0, -16 -16" transform="rotate(-90,1144,472)"/><path d="M 1160 456v 32h 32v -16a 16 16, 0, 0, 0, -16 -16" transform="rotate(0,1176,472)"/><rect x="72" y="488" width="32" height="32" transform="rotate(0,88,504)"/><rect x="328" y="488" width="32" height="32" transform="rotate(0,344,504)"/><path d="M 392 488v 32h 16a 16 16, 0, 0, 0, 0 -32" transform="rotate(-90,408,504)"/><rect x="552" y="488" width="32" height="32" transform="rotate(0,568,504)"/><path d="M 584 488v 32h 16a 16 16, 0, 0, 0, 0 -32" transform="rotate(0,600,504)"/><path d="M 648 488v 32h 16a 16 16, 0, 0, 0, 0 -32" transform="rotate(-90,664,504)"/><rect x="872" y="488" width="32" height="32" transform="rotate(0,888,504)"/><path d="M 904 488v 32h 16a 16 16, 0, 0, 0, 0 -32" transform="rotate(0,920,504)"/><path d="M 1000 488v 32h 16a 16 16, 0, 0, 0, 0 -32" transform="rotate(180,1016,504)"/><rect x="1032" y="488" width="32" height="32" transform="rotate(0,1048,504)"/><rect x="1064" y="488" width="32" height="32" transform="rotate(0,1080,504)"/><rect x="1096" y="488" width="32" height="32" transform="rotate(0,1112,504)"/><rect x="1128" y="488" width="32" height="32" transform="rotate(0,1144,504)"/><rect x="1160" y="488" width="32" height="32" transform="rotate(0,1176,504)"/><rect x="72" y="520" width="32" height="32" transform="rotate(0,88,536)"/><circle cx="152" cy="536" r="16" transform="rotate(0,152,536)"/><circle cx="216" cy="536" r="16" transform="rotate(0,216,536)"/><path d="M 296 520v 32h 32v -16a 16 16, 0, 0, 0, -16 -16" transform="rotate(-90,312,536)"/><rect x="328" y="520" width="32" height="32" transform="rotate(0,344,536)"/><rect x="360" y="520" width="32" height="32" transform="rotate(0,376,536)"/><path d="M 392 520v 32h 32v -16a 16 16, 0, 0, 0, -16 -16" transform="rotate(90,408,536)"/><circle cx="472" cy="536" r="16" transform="rotate(0,472,536)"/><rect x="552" y="520" width="32" height="32" transform="rotate(0,568,536)"/><path d="M 616 520v 32h 16a 16 16, 0, 0, 0, 0 -32" transform="rotate(180,632,536)"/><path d="M 648 520v 32h 32v -16a 16 16, 0, 0, 0, -16 -16" transform="rotate(90,664,536)"/><path d="M 712 520v 32h 32v -16a 16 16, 0, 0, 0, -16 -16" transform="rotate(-90,728,536)"/><path d="M 744 520v 32h 32v -16a 16 16, 0, 0, 0, -16 -16" transform="rotate(0,760,536)"/><path d="M 808 520v 32h 16a 16 16, 0, 0, 0, 0 -32" transform="rotate(180,824,536)"/><rect x="840" y="520" width="32" height="32" transform="rotate(0,856,536)"/><rect x="872" y="520" width="32" height="32" transform="rotate(0,888,536)"/><path d="M 936 520v 32h 16a 16 16, 0, 0, 0, 0 -32" transform="rotate(180,952,536)"/><path d="M 968 520v 32h 16a 16 16, 0, 0, 0, 0 -32" transform="rotate(0,984,536)"/><path d="M 1032 520v 32h 16a 16 16, 0, 0, 0, 0 -32" transform="rotate(90,1048,536)"/><path d="M 1096 520v 32h 32v -16a 16 16, 0, 0, 0, -16 -16" transform="rotate(180,1112,536)"/><rect x="1128" y="520" width="32" height="32" transform="rotate(0,1144,536)"/><path d="M 1160 520v 32h 32v -16a 16 16, 0, 0, 0, -16 -16" transform="rotate(90,1176,536)"/><circle cx="24" cy="568" r="16" transform="rotate(0,24,568)"/><path d="M 72 552v 32h 32v -16a 16 16, 0, 0, 0, -16 -16" transform="rotate(180,88,568)"/><path d="M 104 552v 32h 16a 16 16, 0, 0, 0, 0 -32" transform="rotate(0,120,568)"/><circle cx="184" cy="568" r="16" transform="rotate(0,184,568)"/><path d="M 264 552v 32h 32v -16a 16 16, 0, 0, 0, -16 -16" transform="rotate(-90,280,568)"/><rect x="296" y="552" width="32" height="32" transform="rotate(0,312,568)"/><rect x="360" y="552" width="32" height="32" transform="rotate(0,376,568)"/><path d="M 424 552v 32h 16a 16 16, 0, 0, 0, 0 -32" transform="rotate(-90,440,568)"/><path d="M 488 552v 32h 16a 16 16, 0, 0, 0, 0 -32" transform="rotate(-90,504,568)"/><path d="M 552 552v 32h 16a 16 16, 0, 0, 0, 0 -32" transform="rotate(90,568,568)"/><path d="M 712 552v 32h 32v -16a 16 16, 0, 0, 0, -16 -16" transform="rotate(180,728,568)"/><rect x="744" y="552" width="32" height="32" transform="rotate(0,760,568)"/><rect x="872" y="552" width="32" height="32" transform="rotate(0,888,568)"/><path d="M 904 552v 32h 16a 16 16, 0, 0, 0, 0 -32" transform="rotate(0,920,568)"/><path d="M 1064 552v 32h 16a 16 16, 0, 0, 0, 0 -32" transform="rotate(-90,1080,568)"/><circle cx="56" cy="600" r="16" transform="rotate(0,56,600)"/><path d="M 136 584v 32h 16a 16 16, 0, 0, 0, 0 -32" transform="rotate(-90,152,600)"/><circle cx="216" cy="600" r="16" transform="rotate(0,216,600)"/><path d="M 264 584v 32h 32v -16a 16 16, 0, 0, 0, -16 -16" transform="rotate(180,280,600)"/><rect x="296" y="584" width="32" height="32" transform="rotate(0,312,600)"/><rect x="328" y="584" width="32" height="32" transform="rotate(0,344,600)"/><rect x="360" y="584" width="32" height="32" transform="rotate(0,376,600)"/><rect x="392" y="584" width="32" height="32" transform="rotate(0,408,600)"/><path d="M 424 584v 32h 32v -16a 16 16, 0, 0, 0, -16 -16" transform="rotate(90,440,600)"/><path d="M 488 584v 32h 16a 16 16, 0, 0, 0, 0 -32" transform="rotate(90,504,600)"/><path d="M 648 584v 32h 32v -16a 16 16, 0, 0, 0, -16 -16" transform="rotate(-90,664,600)"/><path d="M 680 584v 32h 16a 16 16, 0, 0, 0, 0 -32" transform="rotate(0,696,600)"/><path d="M 744 584v 32h 16a 16 16, 0, 0, 0, 0 -32" transform="rotate(90,760,600)"/><path d="M 840 584v 32h 32v -16a 16 16, 0, 0, 0, -16 -16" transform="rotate(-90,856,600)"/><rect x="872" y="584" width="32" height="32" transform="rotate(0,888,600)"/><path d="M 1032 584v 32h 32v -16a 16 16, 0, 0, 0, -16 -16" transform="rotate(-90,1048,600)"/><rect x="1064" y="584" width="32" height="32" transform="rotate(0,1080,600)"/><path d="M 1160 584v 32h 16a 16 16, 0, 0, 0, 0 -32" transform="rotate(-90,1176,600)"/><path d="M 72 616v 32h 16a 16 16, 0, 0, 0, 0 -32" transform="rotate(180,88,632)"/><rect x="104" y="616" width="32" height="32" transform="rotate(0,120,632)"/><path d="M 136 616v 32h 32v -16a 16 16, 0, 0, 0, -16 -16" transform="rotate(90,152,632)"/><circle cx="248" cy="632" r="16" transform="rotate(0,248,632)"/><path d="M 328 616v 32h 16a 16 16, 0, 0, 0, 0 -32" transform="rotate(90,344,632)"/><path d="M 520 616v 32h 16a 16 16, 0, 0, 0, 0 -32" transform="rotate(-90,536,632)"/><rect x="648" y="616" width="32" height="32" transform="rotate(0,664,632)"/><path d="M 712 616v 32h 16a 16 16, 0, 0, 0, 0 -32" transform="rotate(-90,728,632)"/><rect x="840" y="616" width="32" height="32" transform="rotate(0,856,632)"/><rect x="872" y="616" width="32" height="32" transform="rotate(0,888,632)"/><rect x="904" y="616" width="32" height="32" transform="rotate(0,920,632)"/><rect x="936" y="616" width="32" height="32" transform="rotate(0,952,632)"/><path d="M 968 616v 32h 32v -16a 16 16, 0, 0, 0, -16 -16" transform="rotate(0,984,632)"/><rect x="1032" y="616" width="32" height="32" transform="rotate(0,1048,632)"/><rect x="1064" y="616" width="32" height="32" transform="rotate(0,1080,632)"/><path d="M 1160 616v 32h 16a 16 16, 0, 0, 0, 0 -32" transform="rotate(90,1176,632)"/><path d="M 104 648v 32h 16a 16 16, 0, 0, 0, 0 -32" transform="rotate(90,120,664)"/><path d="M 168 648v 32h 32v -16a 16 16, 0, 0, 0, -16 -16" transform="rotate(-90,184,664)"/><path d="M 200 648v 32h 16a 16 16, 0, 0, 0, 0 -32" transform="rotate(0,216,664)"/><circle cx="280" cy="664" r="16" transform="rotate(0,280,664)"/><path d="M 424 648v 32h 16a 16 16, 0, 0, 0, 0 -32" transform="rotate(180,440,664)"/><rect x="456" y="648" width="32" height="32" transform="rotate(0,472,664)"/><rect x="488" y="648" width="32" height="32" transform="rotate(0,504,664)"/><rect x="520" y="648" width="32" height="32" transform="rotate(0,536,664)"/><path d="M 584 648v 32h 16a 16 16, 0, 0, 0, 0 -32" transform="rotate(-90,600,664)"/><rect x="648" y="648" width="32" height="32" transform="rotate(0,664,664)"/><path d="M 712 648v 32h 16a 16 16, 0, 0, 0, 0 -32" transform="rotate(90,728,664)"/><path d="M 808 648v 32h 32v -16a 16 16, 0, 0, 0, -16 -16" transform="rotate(-90,824,664)"/><rect x="840" y="648" width="32" height="32" transform="rotate(0,856,664)"/><path d="M 936 648v 32h 32v -16a 16 16, 0, 0, 0, -16 -16" transform="rotate(180,952,664)"/><rect x="968" y="648" width="32" height="32" transform="rotate(0,984,664)"/><rect x="1000" y="648" width="32" height="32" transform="rotate(0,1016,664)"/><rect x="1032" y="648" width="32" height="32" transform="rotate(0,1048,664)"/><rect x="1064" y="648" width="32" height="32" transform="rotate(0,1080,664)"/><rect x="1096" y="648" width="32" height="32" transform="rotate(0,1112,664)"/><path d="M 1128 648v 32h 16a 16 16, 0, 0, 0, 0 -32" transform="rotate(0,1144,664)"/><path d="M 168 680v 32h 16a 16 16, 0, 0, 0, 0 -32" transform="rotate(90,184,696)"/><circle cx="344" cy="696" r="16" transform="rotate(0,344,696)"/><path d="M 392 680v 32h 16a 16 16, 0, 0, 0, 0 -32" transform="rotate(-90,408,696)"/><path d="M 456 680v 32h 16a 16 16, 0, 0, 0, 0 -32" transform="rotate(90,472,696)"/><rect x="520" y="680" width="32" height="32" transform="rotate(0,536,696)"/><rect x="552" y="680" width="32" height="32" transform="rotate(0,568,696)"/><rect x="584" y="680" width="32" height="32" transform="rotate(0,600,696)"/><rect x="616" y="680" width="32" height="32" transform="rotate(0,632,696)"/><path d="M 648 680v 32h 32v -16a 16 16, 0, 0, 0, -16 -16" transform="rotate(90,664,696)"/><circle cx="760" cy="696" r="16" transform="rotate(0,760,696)"/><path d="M 808 680v 32h 32v -16a 16 16, 0, 0, 0, -16 -16" transform="rotate(180,824,696)"/><rect x="840" y="680" width="32" height="32" transform="rotate(0,856,696)"/><rect x="872" y="680" width="32" height="32" transform="rotate(0,888,696)"/><path d="M 904 680v 32h 16a 16 16, 0, 0, 0, 0 -32" transform="rotate(0,920,696)"/><path d="M 1000 680v 32h 32v -16a 16 16, 0, 0, 0, -16 -16" transform="rotate(180,1016,696)"/><path d="M 1032 680v 32h 32v -16a 16 16, 0, 0, 0, -16 -16" transform="rotate(90,1048,696)"/><path d="M 1096 680v 32h 16a 16 16, 0, 0, 0, 0 -32" transform="rotate(90,1112,696)"/><circle cx="56" cy="728" r="16" transform="rotate(0,56,728)"/><path d="M 136 712v 32h 16a 16 16, 0, 0, 0, 0 -32" transform="rotate(-90,152,728)"/><circle cx="216" cy="728" r="16" transform="rotate(0,216,728)"/><path d="M 296 712v 32h 16a 16 16, 0, 0, 0, 0 -32" transform="rotate(-90,312,728)"/><path d="M 360 712v 32h 32v -16a 16 16, 0, 0, 0, -16 -16" transform="rotate(-90,376,728)"/><rect x="392" y="712" width="32" height="32" transform="rotate(0,408,728)"/><path d="M 424 712v 32h 32v -16a 16 16, 0, 0, 0, -16 -16" transform="rotate(0,440,728)"/><path d="M 488 712v 32h 32v -16a 16 16, 0, 0, 0, -16 -16" transform="rotate(-90,504,728)"/><path d="M 520 712v 32h 32v -16a 16 16, 0, 0, 0, -16 -16" transform="rotate(90,536,728)"/><path d="M 616 712v 32h 16a 16 16, 0, 0, 0, 0 -32" transform="rotate(90,632,728)"/><rect x="840" y="712" width="32" height="32" transform="rotate(0,856,728)"/><rect x="872" y="712" width="32" height="32" transform="rotate(0,888,728)"/><path d="M 1128 712v 32h 16a 16 16, 0, 0, 0, 0 -32" transform="rotate(180,1144,728)"/><path d="M 1160 712v 32h 32v -16a 16 16, 0, 0, 0, -16 -16" transform="rotate(0,1176,728)"/><circle cx="24" cy="760" r="16" transform="rotate(0,24,760)"/><path d="M 72 744v 32h 32v -16a 16 16, 0, 0, 0, -16 -16" transform="rotate(-90,88,760)"/><rect x="104" y="744" width="32" height="32" transform="rotate(0,120,760)"/><rect x="136" y="744" width="32" height="32" transform="rotate(0,152,760)"/><path d="M 168 744v 32h 16a 16 16, 0, 0, 0, 0 -32" transform="rotate(0,184,760)"/><rect x="296" y="744" width="32" height="32" transform="rotate(0,312,760)"/><rect x="328" y="744" width="32" height="32" transform="rotate(0,344,760)"/><path d="M 360 744v 32h 32v -16a 16 16, 0, 0, 0, -16 -16" transform="rotate(90,376,760)"/><path d="M 424 744v 32h 16a 16 16, 0, 0, 0, 0 -32" transform="rotate(90,440,760)"/><rect x="488" y="744" width="32" height="32" transform="rotate(0,504,760)"/><path d="M 840 744v 32h 32v -16a 16 16, 0, 0, 0, -16 -16" transform="rotate(180,856,760)"/><path d="M 872 744v 32h 32v -16a 16 16, 0, 0, 0, -16 -16" transform="rotate(90,888,760)"/><path d="M 936 744v 32h 16a 16 16, 0, 0, 0, 0 -32" transform="rotate(180,952,760)"/><rect x="968" y="744" width="32" height="32" transform="rotate(0,984,760)"/><path d="M 1000 744v 32h 16a 16 16, 0, 0, 0, 0 -32" transform="rotate(0,1016,760)"/><circle cx="1080" cy="760" r="16" transform="rotate(0,1080,760)"/><path d="M 1160 744v 32h 16a 16 16, 0, 0, 0, 0 -32" transform="rotate(90,1176,760)"/><rect x="72" y="776" width="32" height="32" transform="rotate(0,88,792)"/><rect x="104" y="776" width="32" height="32" transform="rotate(0,120,792)"/><rect x="136" y="776" width="32" height="32" transform="rotate(0,152,792)"/><path d="M 200 776v 32h 16a 16 16, 0, 0, 0, 0 -32" transform="rotate(180,216,792)"/><rect x="232" y="776" width="32" height="32" transform="rotate(0,248,792)"/><rect x="264" y="776" width="32" height="32" transform="rotate(0,280,792)"/><rect x="296" y="776" width="32" height="32" transform="rotate(0,312,792)"/><path d="M 328 776v 32h 32v -16a 16 16, 0, 0, 0, -16 -16" transform="rotate(90,344,792)"/><path d="M 456 776v 32h 32v -16a 16 16, 0, 0, 0, -16 -16" transform="rotate(-90,472,792)"/><rect x="488" y="776" width="32" height="32" transform="rotate(0,504,792)"/><path d="M 584 776v 32h 32v -16a 16 16, 0, 0, 0, -16 -16" transform="rotate(-90,600,792)"/><rect x="616" y="776" width="32" height="32" transform="rotate(0,632,792)"/><path d="M 648 776v 32h 16a 16 16, 0, 0, 0, 0 -32" transform="rotate(0,664,792)"/><path d="M 744 776v 32h 16a 16 16, 0, 0, 0, 0 -32" transform="rotate(-90,760,792)"/><path d="M 904 776v 32h 16a 16 16, 0, 0, 0, 0 -32" transform="rotate(-90,920,792)"/><path d="M 968 776v 32h 16a 16 16, 0, 0, 0, 0 -32" transform="rotate(90,984,792)"/><circle cx="1144" cy="792" r="16" transform="rotate(0,1144,792)"/><path d="M 8 808v 32h 16a 16 16, 0, 0, 0, 0 -32" transform="rotate(-90,24,824)"/><path d="M 72 808v 32h 16a 16 16, 0, 0, 0, 0 -32" transform="rotate(90,88,824)"/><rect x="136" y="808" width="32" height="32" transform="rotate(0,152,824)"/><rect x="296" y="808" width="32" height="32" transform="rotate(0,312,824)"/><path d="M 360 808v 32h 16a 16 16, 0, 0, 0, 0 -32" transform="rotate(-90,376,824)"/><path d="M 456 808v 32h 32v -16a 16 16, 0, 0, 0, -16 -16" transform="rotate(180,472,824)"/><path d="M 488 808v 32h 32v -16a 16 16, 0, 0, 0, -16 -16" transform="rotate(90,504,824)"/><path d="M 552 808v 32h 32v -16a 16 16, 0, 0, 0, -16 -16" transform="rotate(-90,568,824)"/><rect x="584" y="808" width="32" height="32" transform="rotate(0,600,824)"/><rect x="616" y="808" width="32" height="32" transform="rotate(0,632,824)"/><path d="M 680 808v 32h 32v -16a 16 16, 0, 0, 0, -16 -16" transform="rotate(-90,696,824)"/><rect x="712" y="808" width="32" height="32" transform="rotate(0,728,824)"/><path d="M 744 808v 32h 32v -16a 16 16, 0, 0, 0, -16 -16" transform="rotate(90,760,824)"/><path d="M 840 808v 32h 16a 16 16, 0, 0, 0, 0 -32" transform="rotate(180,856,824)"/><rect x="872" y="808" width="32" height="32" transform="rotate(0,888,824)"/><path d="M 904 808v 32h 32v -16a 16 16, 0, 0, 0, -16 -16" transform="rotate(90,920,824)"/><path d="M 1000 808v 32h 16a 16 16, 0, 0, 0, 0 -32" transform="rotate(-90,1016,824)"/><path d="M 1064 808v 32h 16a 16 16, 0, 0, 0, 0 -32" transform="rotate(180,1080,824)"/><path d="M 1096 808v 32h 16a 16 16, 0, 0, 0, 0 -32" transform="rotate(0,1112,824)"/><rect x="8" y="840" width="32" height="32" transform="rotate(0,24,856)"/><rect x="136" y="840" width="32" height="32" transform="rotate(0,152,856)"/><circle cx="216" cy="856" r="16" transform="rotate(0,216,856)"/><path d="M 296 840v 32h 32v -16a 16 16, 0, 0, 0, -16 -16" transform="rotate(180,312,856)"/><rect x="328" y="840" width="32" height="32" transform="rotate(0,344,856)"/><path d="M 360 840v 32h 32v -16a 16 16, 0, 0, 0, -16 -16" transform="rotate(90,376,856)"/><path d="M 424 840v 32h 16a 16 16, 0, 0, 0, 0 -32" transform="rotate(-90,440,856)"/><rect x="552" y="840" width="32" height="32" transform="rotate(0,568,856)"/><rect x="616" y="840" width="32" height="32" transform="rotate(0,632,856)"/><path d="M 680 840v 32h 32v -16a 16 16, 0, 0, 0, -16 -16" transform="rotate(180,696,856)"/><path d="M 712 840v 32h 32v -16a 16 16, 0, 0, 0, -16 -16" transform="rotate(90,728,856)"/><path d="M 776 840v 32h 16a 16 16, 0, 0, 0, 0 -32" transform="rotate(180,792,856)"/><path d="M 808 840v 32h 16a 16 16, 0, 0, 0, 0 -32" transform="rotate(0,824,856)"/><rect x="872" y="840" width="32" height="32" transform="rotate(0,888,856)"/><path d="M 968 840v 32h 16a 16 16, 0, 0, 0, 0 -32" transform="rotate(180,984,856)"/><rect x="1000" y="840" width="32" height="32" transform="rotate(0,1016,856)"/><path d="M 1032 840v 32h 32v -16a 16 16, 0, 0, 0, -16 -16" transform="rotate(0,1048,856)"/><path d="M 1128 840v 32h 16a 16 16, 0, 0, 0, 0 -32" transform="rotate(180,1144,856)"/><path d="M 1160 840v 32h 32v -16a 16 16, 0, 0, 0, -16 -16" transform="rotate(0,1176,856)"/><rect x="8" y="872" width="32" height="32" transform="rotate(0,24,888)"/><path d="M 136 872v 32h 16a 16 16, 0, 0, 0, 0 -32" transform="rotate(90,152,888)"/><path d="M 232 872v 32h 16a 16 16, 0, 0, 0, 0 -32" transform="rotate(-90,248,888)"/><path d="M 392 872v 32h 32v -16a 16 16, 0, 0, 0, -16 -16" transform="rotate(-90,408,888)"/><path d="M 424 872v 32h 32v -16a 16 16, 0, 0, 0, -16 -16" transform="rotate(90,440,888)"/><rect x="552" y="872" width="32" height="32" transform="rotate(0,568,888)"/><path d="M 616 872v 32h 32v -16a 16 16, 0, 0, 0, -16 -16" transform="rotate(180,632,888)"/><path d="M 648 872v 32h 32v -16a 16 16, 0, 0, 0, -16 -16" transform="rotate(0,664,888)"/><path d="M 744 872v 32h 16a 16 16, 0, 0, 0, 0 -32" transform="rotate(-90,760,888)"/><path d="M 872 872v 32h 16a 16 16, 0, 0, 0, 0 -32" transform="rotate(90,888,888)"/><path d="M 936 872v 32h 16a 16 16, 0, 0, 0, 0 -32" transform="rotate(-90,952,888)"/><rect x="1000" y="872" width="32" height="32" transform="rotate(0,1016,888)"/><rect x="1032" y="872" width="32" height="32" transform="rotate(0,1048,888)"/><rect x="1064" y="872" width="32" height="32" transform="rotate(0,1080,888)"/><path d="M 1096 872v 32h 32v -16a 16 16, 0, 0, 0, -16 -16" transform="rotate(0,1112,888)"/><rect x="1160" y="872" width="32" height="32" transform="rotate(0,1176,888)"/><path d="M 8 904v 32h 16a 16 16, 0, 0, 0, 0 -32" transform="rotate(90,24,920)"/><path d="M 72 904v 32h 16a 16 16, 0, 0, 0, 0 -32" transform="rotate(180,88,920)"/><path d="M 104 904v 32h 16a 16 16, 0, 0, 0, 0 -32" transform="rotate(0,120,920)"/><path d="M 200 904v 32h 16a 16 16, 0, 0, 0, 0 -32" transform="rotate(180,216,920)"/><rect x="232" y="904" width="32" height="32" transform="rotate(0,248,920)"/><path d="M 264 904v 32h 32v -16a 16 16, 0, 0, 0, -16 -16" transform="rotate(0,280,920)"/><path d="M 360 904v 32h 16a 16 16, 0, 0, 0, 0 -32" transform="rotate(180,376,920)"/><path d="M 392 904v 32h 32v -16a 16 16, 0, 0, 0, -16 -16" transform="rotate(90,408,920)"/><circle cx="472" cy="920" r="16" transform="rotate(0,472,920)"/><rect x="552" y="904" width="32" height="32" transform="rotate(0,568,920)"/><rect x="648" y="904" width="32" height="32" transform="rotate(0,664,920)"/><path d="M 712 904v 32h 32v -16a 16 16, 0, 0, 0, -16 -16" transform="rotate(-90,728,920)"/><rect x="744" y="904" width="32" height="32" transform="rotate(0,760,920)"/><rect x="776" y="904" width="32" height="32" transform="rotate(0,792,920)"/><rect x="808" y="904" width="32" height="32" transform="rotate(0,824,920)"/><path d="M 840 904v 32h 32v -16a 16 16, 0, 0, 0, -16 -16" transform="rotate(0,856,920)"/><path d="M 904 904v 32h 32v -16a 16 16, 0, 0, 0, -16 -16" transform="rotate(-90,920,920)"/><rect x="936" y="904" width="32" height="32" transform="rotate(0,952,920)"/><rect x="968" y="904" width="32" height="32" transform="rotate(0,984,920)"/><rect x="1000" y="904" width="32" height="32" transform="rotate(0,1016,920)"/><rect x="1032" y="904" width="32" height="32" transform="rotate(0,1048,920)"/><rect x="1064" y="904" width="32" height="32" transform="rotate(0,1080,920)"/><rect x="1096" y="904" width="32" height="32" transform="rotate(0,1112,920)"/><rect x="1128" y="904" width="32" height="32" transform="rotate(0,1144,920)"/><path d="M 1160 904v 32h 32v -16a 16 16, 0, 0, 0, -16 -16" transform="rotate(90,1176,920)"/><rect x="264" y="936" width="32" height="32" transform="rotate(0,280,952)"/><path d="M 296 936v 32h 16a 16 16, 0, 0, 0, 0 -32" transform="rotate(0,312,952)"/><path d="M 488 936v 32h 32v -16a 16 16, 0, 0, 0, -16 -16" transform="rotate(-90,504,952)"/><rect x="520" y="936" width="32" height="32" transform="rotate(0,536,952)"/><rect x="552" y="936" width="32" height="32" transform="rotate(0,568,952)"/><path d="M 616 936v 32h 32v -16a 16 16, 0, 0, 0, -16 -16" transform="rotate(-90,632,952)"/><path d="M 648 936v 32h 32v -16a 16 16, 0, 0, 0, -16 -16" transform="rotate(90,664,952)"/><path d="M 712 936v 32h 32v -16a 16 16, 0, 0, 0, -16 -16" transform="rotate(180,728,952)"/><rect x="744" y="936" width="32" height="32" transform="rotate(0,760,952)"/><rect x="808" y="936" width="32" height="32" transform="rotate(0,824,952)"/><rect x="840" y="936" width="32" height="32" transform="rotate(0,856,952)"/><rect x="872" y="936" width="32" height="32" transform="rotate(0,888,952)"/><rect x="904" y="936" width="32" height="32" transform="rotate(0,920,952)"/><rect x="1032" y="936" width="32" height="32" transform="rotate(0,1048,952)"/><rect x="1064" y="936" width="32" height="32" transform="rotate(0,1080,952)"/><path d="M 264 968v 32h 16a 16 16, 0, 0, 0, 0 -32" transform="rotate(90,280,984)"/><path d="M 328 968v 32h 16a 16 16, 0, 0, 0, 0 -32" transform="rotate(-90,344,984)"/><path d="M 424 968v 32h 16a 16 16, 0, 0, 0, 0 -32" transform="rotate(-90,440,984)"/><rect x="488" y="968" width="32" height="32" transform="rotate(0,504,984)"/><path d="M 552 968v 32h 16a 16 16, 0, 0, 0, 0 -32" transform="rotate(90,568,984)"/><rect x="616" y="968" width="32" height="32" transform="rotate(0,632,984)"/><circle cx="696" cy="984" r="16" transform="rotate(0,696,984)"/><path d="M 744 968v 32h 16a 16 16, 0, 0, 0, 0 -32" transform="rotate(90,760,984)"/><path d="M 808 968v 32h 32v -16a 16 16, 0, 0, 0, -16 -16" transform="rotate(180,824,984)"/><rect x="840" y="968" width="32" height="32" transform="rotate(0,856,984)"/><rect x="904" y="968" width="32" height="32" transform="rotate(0,920,984)"/><circle cx="984" cy="984" r="16" transform="rotate(0,984,984)"/><rect x="1032" y="968" width="32" height="32" transform="rotate(0,1048,984)"/><rect x="1064" y="968" width="32" height="32" transform="rotate(0,1080,984)"/><path d="M 1096 968v 32h 16a 16 16, 0, 0, 0, 0 -32" transform="rotate(0,1112,984)"/><circle cx="1176" cy="984" r="16" transform="rotate(0,1176,984)"/><rect x="328" y="1000" width="32" height="32" transform="rotate(0,344,1016)"/><path d="M 392 1000v 32h 16a 16 16, 0, 0, 0, 0 -32" transform="rotate(180,408,1016)"/><rect x="424" y="1000" width="32" height="32" transform="rotate(0,440,1016)"/><rect x="456" y="1000" width="32" height="32" transform="rotate(0,472,1016)"/><rect x="488" y="1000" width="32" height="32" transform="rotate(0,504,1016)"/><path d="M 520 1000v 32h 16a 16 16, 0, 0, 0, 0 -32" transform="rotate(0,536,1016)"/><path d="M 584 1000v 32h 32v -16a 16 16, 0, 0, 0, -16 -16" transform="rotate(-90,600,1016)"/><path d="M 616 1000v 32h 32v -16a 16 16, 0, 0, 0, -16 -16" transform="rotate(90,632,1016)"/><path d="M 712 1000v 32h 16a 16 16, 0, 0, 0, 0 -32" transform="rotate(-90,728,1016)"/><rect x="840" y="1000" width="32" height="32" transform="rotate(0,856,1016)"/><rect x="872" y="1000" width="32" height="32" transform="rotate(0,888,1016)"/><rect x="904" y="1000" width="32" height="32" transform="rotate(0,920,1016)"/><rect x="1032" y="1000" width="32" height="32" transform="rotate(0,1048,1016)"/><path d="M 1064 1000v 32h 32v -16a 16 16, 0, 0, 0, -16 -16" transform="rotate(90,1080,1016)"/><path d="M 296 1032v 32h 16a 16 16, 0, 0, 0, 0 -32" transform="rotate(180,312,1048)"/><rect x="328" y="1032" width="32" height="32" transform="rotate(0,344,1048)"/><path d="M 360 1032v 32h 16a 16 16, 0, 0, 0, 0 -32" transform="rotate(0,376,1048)"/><rect x="584" y="1032" width="32" height="32" transform="rotate(0,600,1048)"/><path d="M 712 1032v 32h 16a 16 16, 0, 0, 0, 0 -32" transform="rotate(90,728,1048)"/><path d="M 776 1032v 32h 16a 16 16, 0, 0, 0, 0 -32" transform="rotate(180,792,1048)"/><rect x="808" y="1032" width="32" height="32" transform="rotate(0,824,1048)"/><rect x="840" y="1032" width="32" height="32" transform="rotate(0,856,1048)"/><rect x="872" y="1032" width="32" height="32" transform="rotate(0,888,1048)"/><rect x="904" y="1032" width="32" height="32" transform="rotate(0,920,1048)"/><rect x="936" y="1032" width="32" height="32" transform="rotate(0,952,1048)"/><rect x="968" y="1032" width="32" height="32" transform="rotate(0,984,1048)"/><rect x="1000" y="1032" width="32" height="32" transform="rotate(0,1016,1048)"/><path d="M 1032 1032v 32h 32v -16a 16 16, 0, 0, 0, -16 -16" transform="rotate(90,1048,1048)"/><circle cx="1112" cy="1048" r="16" transform="rotate(0,1112,1048)"/><circle cx="1176" cy="1048" r="16" transform="rotate(0,1176,1048)"/><path d="M 328 1064v 32h 16a 16 16, 0, 0, 0, 0 -32" transform="rotate(90,344,1080)"/><path d="M 424 1064v 32h 16a 16 16, 0, 0, 0, 0 -32" transform="rotate(180,440,1080)"/><rect x="456" y="1064" width="32" height="32" transform="rotate(0,472,1080)"/><rect x="488" y="1064" width="32" height="32" transform="rotate(0,504,1080)"/><rect x="520" y="1064" width="32" height="32" transform="rotate(0,536,1080)"/><rect x="552" y="1064" width="32" height="32" transform="rotate(0,568,1080)"/><rect x="584" y="1064" width="32" height="32" transform="rotate(0,600,1080)"/><path d="M 648 1064v 32h 16a 16 16, 0, 0, 0, 0 -32" transform="rotate(-90,664,1080)"/><circle cx="760" cy="1080" r="16" transform="rotate(0,760,1080)"/><rect x="840" y="1064" width="32" height="32" transform="rotate(0,856,1080)"/><path d="M 904 1064v 32h 16a 16 16, 0, 0, 0, 0 -32" transform="rotate(90,920,1080)"/><path d="M 968 1064v 32h 16a 16 16, 0, 0, 0, 0 -32" transform="rotate(90,984,1080)"/><path d="M 1064 1064v 32h 16a 16 16, 0, 0, 0, 0 -32" transform="rotate(-90,1080,1080)"/><circle cx="1144" cy="1080" r="16" transform="rotate(0,1144,1080)"/><path d="M 360 1096v 32h 16a 16 16, 0, 0, 0, 0 -32" transform="rotate(-90,376,1112)"/><rect x="584" y="1096" width="32" height="32" transform="rotate(0,600,1112)"/><path d="M 648 1096v 32h 32v -16a 16 16, 0, 0, 0, -16 -16" transform="rotate(180,664,1112)"/><rect x="680" y="1096" width="32" height="32" transform="rotate(0,696,1112)"/><path d="M 712 1096v 32h 16a 16 16, 0, 0, 0, 0 -32" transform="rotate(0,728,1112)"/><circle cx="792" cy="1112" r="16" transform="rotate(0,792,1112)"/><rect x="840" y="1096" width="32" height="32" transform="rotate(0,856,1112)"/><circle cx="952" cy="1112" r="16" transform="rotate(0,952,1112)"/><circle cx="1016" cy="1112" r="16" transform="rotate(0,1016,1112)"/><rect x="1064" y="1096" width="32" height="32" transform="rotate(0,1080,1112)"/><path d="M 1160 1096v 32h 16a 16 16, 0, 0, 0, 0 -32" transform="rotate(-90,1176,1112)"/><path d="M 264 1128v 32h 16a 16 16, 0, 0, 0, 0 -32" transform="rotate(180,280,1144)"/><rect x="296" y="1128" width="32" height="32" transform="rotate(0,312,1144)"/><rect x="328" y="1128" width="32" height="32" transform="rotate(0,344,1144)"/><path d="M 360 1128v 32h 32v -16a 16 16, 0, 0, 0, -16 -16" transform="rotate(90,376,1144)"/><path d="M 456 1128v 32h 32v -16a 16 16, 0, 0, 0, -16 -16" transform="rotate(-90,472,1144)"/><rect x="488" y="1128" width="32" height="32" transform="rotate(0,504,1144)"/><path d="M 520 1128v 32h 16a 16 16, 0, 0, 0, 0 -32" transform="rotate(0,536,1144)"/><rect x="584" y="1128" width="32" height="32" transform="rotate(0,600,1144)"/><path d="M 616 1128v 32h 32v -16a 16 16, 0, 0, 0, -16 -16" transform="rotate(0,632,1144)"/><path d="M 744 1128v 32h 16a 16 16, 0, 0, 0, 0 -32" transform="rotate(-90,760,1144)"/><path d="M 840 1128v 32h 16a 16 16, 0, 0, 0, 0 -32" transform="rotate(90,856,1144)"/><path d="M 904 1128v 32h 16a 16 16, 0, 0, 0, 0 -32" transform="rotate(-90,920,1144)"/><circle cx="984" cy="1144" r="16" transform="rotate(0,984,1144)"/><path d="M 1032 1128v 32h 32v -16a 16 16, 0, 0, 0, -16 -16" transform="rotate(-90,1048,1144)"/><path d="M 1064 1128v 32h 32v -16a 16 16, 0, 0, 0, -16 -16" transform="rotate(90,1080,1144)"/><rect x="1160" y="1128" width="32" height="32" transform="rotate(0,1176,1144)"/><path d="M 392 1160v 32h 16a 16 16, 0, 0, 0, 0 -32" transform="rotate(180,408,1176)"/><rect x="424" y="1160" width="32" height="32" transform="rotate(0,440,1176)"/><path d="M 456 1160v 32h 32v -16a 16 16, 0, 0, 0, -16 -16" transform="rotate(90,472,1176)"/><path d="M 552 1160v 32h 16a 16 16, 0, 0, 0, 0 -32" transform="rotate(180,568,1176)"/><rect x="584" y="1160" width="32" height="32" transform="rotate(0,600,1176)"/><rect x="616" y="1160" width="32" height="32" transform="rotate(0,632,1176)"/><path d="M 648 1160v 32h 16a 16 16, 0, 0, 0, 0 -32" transform="rotate(0,664,1176)"/><path d="M 744 1160v 32h 16a 16 16, 0, 0, 0, 0 -32" transform="rotate(90,760,1176)"/><path d="M 904 1160v 32h 16a 16 16, 0, 0, 0, 0 -32" transform="rotate(90,920,1176)"/><path d="M 1000 1160v 32h 16a 16 16, 0, 0, 0, 0 -32" transform="rotate(180,1016,1176)"/><path d="M 1032 1160v 32h 32v -16a 16 16, 0, 0, 0, -16 -16" transform="rotate(90,1048,1176)"/><path d="M 1160 1160v 32h 16a 16 16, 0, 0, 0, 0 -32" transform="rotate(90,1176,1176)"/></clipPath><clipPath id="clip-path-corners-square-color-0-0-186"><path clip-rule="evenodd" d="M 8 88v 64a 80 80, 0, 0, 0, 80 80h 64a 80 80, 0, 0, 0, 80 -80v -64a 80 80, 0, 0, 0, -80 -80h -64a 80 80, 0, 0, 0, -80 80M 88 40h 64a 48 48, 0, 0, 1, 48 48v 64a 48 48, 0, 0, 1, -48 48h -64a 48 48, 0, 0, 1, -48 -48v -64a 48 48, 0, 0, 1, 48 -48" transform="rotate(0,120,120)"/></clipPath><clipPath id="clip-path-corners-dot-color-0-0-186"><circle cx="120" cy="120" r="48" transform="rotate(0,120,120)"/></clipPath><clipPath id="clip-path-corners-square-color-1-0-186"><path clip-rule="evenodd" d="M 968 88v 64a 80 80, 0, 0, 0, 80 80h 64a 80 80, 0, 0, 0, 80 -80v -64a 80 80, 0, 0, 0, -80 -80h -64a 80 80, 0, 0, 0, -80 80M 1048 40h 64a 48 48, 0, 0, 1, 48 48v 64a 48 48, 0, 0, 1, -48 48h -64a 48 48, 0, 0, 1, -48 -48v -64a 48 48, 0, 0, 1, 48 -48" transform="rotate(90,1080,120)"/></clipPath><clipPath id="clip-path-corners-dot-color-1-0-186"><circle cx="1080" cy="120" r="48" transform="rotate(90,1080,120)"/></clipPath><clipPath id="clip-path-corners-square-color-0-1-186"><path clip-rule="evenodd" d="M 8 1048v 64a 80 80, 0, 0, 0, 80 80h 64a 80 80, 0, 0, 0, 80 -80v -64a 80 80, 0, 0, 0, -80 -80h -64a 80 80, 0, 0, 0, -80 80M 88 1000h 64a 48 48, 0, 0, 1, 48 48v 64a 48 48, 0, 0, 1, -48 48h -64a 48 48, 0, 0, 1, -48 -48v -64a 48 48, 0, 0, 1, 48 -48" transform="rotate(-90,120,1080)"/></clipPath><clipPath id="clip-path-corners-dot-color-0-1-186"><circle cx="120" cy="1080" r="48" transform="rotate(-90,120,1080)"/></clipPath></defs><rect x="0" y="0" height="1200" width="1200" clip-path="url('#clip-path-background-color-186')" fill="#ffffff"/><rect x="0" y="0" height="1200" width="1200" clip-path="url('#clip-path-dot-color-186')" fill="#000000"/><rect x="8" y="8" height="224" width="224" clip-path="url('#clip-path-corners-square-color-0-0-186')" fill="#000000"/><rect x="72" y="72" height="96" width="96" clip-path="url('#clip-path-corners-dot-color-0-0-186')" fill="#000000"/><rect x="968" y="8" height="224" width="224" clip-path="url('#clip-path-corners-square-color-1-0-186')" fill="#000000"/><rect x="1032" y="72" height="96" width="96" clip-path="url('#clip-path-corners-dot-color-1-0-186')" fill="#000000"/><rect x="8" y="968" height="224" width="224" clip-path="url('#clip-path-corners-square-color-0-1-186')" fill="#000000"/><rect x="72" y="1032" height="96" width="96" clip-path="url('#clip-path-corners-dot-color-0-1-186')" fill="#000000"/></svg>