<?xml version="1.0" standalone="no"?>
<svg xmlns="http://www.w3.org/2000/svg" width="1200" height="1200" xmlns:xlink="http://www.w3.org/1999/xlink" viewBox="0 0 1200 1200"><defs><clipPath id="clip-path-background-color-179"><rect x="0" y="0" width="1200" height="1200"/></clipPath><clipPath id="clip-path-dot-color-179"><circle cx="264" cy="40" r="14" transform="rotate(0,264,40)"/><circle cx="320" cy="40" r="14" transform="rotate(0,320,40)"/><circle cx="376" cy="40" r="14" transform="rotate(0,376,40)"/><path d="M 418 26v 28h 14a 14 14, 0, 0, 0, 0 -28" transform="rotate(-90,432,40)"/><path d="M 530 26v 28h 28v -14a 14 14, 0, 0, 0, -14 -14" transform="rotate(-90,544,40)"/><rect x="558" y="26" width="28" height="28" transform="rotate(0,572,40)"/><rect x="586" y="26" width="28" height="28" transform="rotate(0,600,40)"/><path d="M 614 26v 28h 28v -14a 14 14, 0, 0, 0, -14 -14" transform="rotate(0,628,40)"/><circle cx="684" cy="40" r="14" transform="rotate(0,684,40)"/><path d="M 754 26v 28h 28v -14a 14 14, 0, 0, 0, -14 -14" transform="rotate(-90,768,40)"/><path d="M 782 26v 28h 28v -14a 14 14, 0, 0, 0, -14 -14" transform="rotate(0,796,40)"/><path d="M 866 26v 28h 28v -14a 14 14, 0, 0, 0, -14 -14" transform="rotate(-90,880,40)"/><rect x="894" y="26" width="28" height="28" transform="rotate(0,908,40)"/><path d="M 922 26v 28h 28v -14a 14 14, 0, 0, 0, -14 -14" transform="rotate(0,936,40)"/><circle cx="292" cy="68" r="14" transform="rotate(0,292,68)"/><circle cx="348" cy="68" r="14" transform="rotate(0,348,68)"/><path d="M 418 54v 28h 14a 14 14, 0, 0, 0, 0 -28" transform="rotate(90,432,68)"/><path d="M 474 54v 28h 14a 14 14, 0, 0, 0, 0 -28" transform="rotate(180,488,68)"/><rect x="502" y="54" width="28" height="28" transform="rotate(0,516,68)"/><rect x="530" y="54" width="28" height="28" transform="rotate(0,544,68)"/><path d="M 586 54v 28h 28v -14a 14 14, 0, 0, 0, -14 -14" transform="rotate(180,600,68)"/><path d="M 614 54v 28h 28v -14a 14 14, 0, 0, 0, -14 -14" transform="rotate(90,628,68)"/><circle cx="712" cy="68" r="14" transform="rotate(0,712,68)"/><rect x="754" y="54" width="28" height="28" transform="rotate(0,768,68)"/><rect x="782" y="54" width="28" height="28" transform="rotate(0,796,68)"/><rect x="810" y="54" width="28" height="28" transform="rotate(0,824,68)"/><rect x="838" y="54" width="28" height="28" transform="rotate(0,852,68)"/><path d="M 866 54v 28h 28v -14a 14 14, 0, 0, 0, -14 -14" transform="rotate(90,880,68)"/><rect x="922" y="54" width="28" height="28" transform="rotate(0,936,68)"/><path d="M 250 82v 28h 14a 14 14, 0, 0, 0, 0 -28" transform="rotate(-90,264,96)"/><path d="M 390 82v 28h 14a 14 14, 0, 0, 0, 0 -28" transform="rotate(-90,404,96)"/><path d="M 446 82v 28h 14a 14 14, 0, 0, 0, 0 -28" transform="rotate(-90,460,96)"/><path d="M 530 82v 28h 28v -14a 14 14, 0, 0, 0, -14 -14" transform="rotate(180,544,96)"/><path d="M 558 82v 28h 28v -14a 14 14, 0, 0, 0, -14 -14" transform="rotate(0,572,96)"/><path d="M 642 82v 28h 14a 14 14, 0, 0, 0, 0 -28" transform="rotate(-90,656,96)"/><rect x="754" y="82" width="28" height="28" transform="rotate(0,768,96)"/><path d="M 782 82v 28h 28v -14a 14 14, 0, 0, 0, -14 -14" transform="rotate(90,796,96)"/><path d="M 838 82v 28h 14a 14 14, 0, 0, 0, 0 -28" transform="rotate(90,852,96)"/><rect x="922" y="82" width="28" height="28" transform="rotate(0,936,96)"/><path d="M 250 110v 28h 28v -14a 14 14, 0, 0, 0, -14 -14" transform="rotate(180,264,124)"/><rect x="278" y="110" width="28" height="28" transform="rotate(0,292,124)"/><rect x="306" y="110" width="28" height="28" transform="rotate(0,320,124)"/><path d="M 334 110v 28h 28v -14a 14 14, 0, 0, 0, -14 -14" transform="rotate(0,348,124)"/><path d="M 390 110v 28h 14a 14 14, 0, 0, 0, 0 -28" transform="rotate(90,404,124)"/><path d="M 446 110v 28h 14a 14 14, 0, 0, 0, 0 -28" transform="rotate(90,460,124)"/><circle cx="516" cy="124" r="14" transform="rotate(0,516,124)"/><rect x="558" y="110" width="28" height="28" transform="rotate(0,572,124)"/><rect x="586" y="110" width="28" height="28" transform="rotate(0,600,124)"/><rect x="614" y="110" width="28" height="28" transform="rotate(0,628,124)"/><path d="M 642 110v 28h 28v -14a 14 14, 0, 0, 0, -14 -14" transform="rotate(90,656,124)"/><path d="M 754 110v 28h 14a 14 14, 0, 0, 0, 0 -28" transform="rotate(90,768,124)"/><path d="M 894 110v 28h 14a 14 14, 0, 0, 0, 0 -28" transform="rotate(180,908,124)"/><path d="M 922 110v 28h 28v -14a 14 14, 0, 0, 0, -14 -14" transform="rotate(90,936,124)"/><path d="M 278 138v 28h 14a 14 14, 0, 0, 0, 0 -28" transform="rotate(90,292,152)"/><path d="M 334 138v 28h 28v -14a 14 14, 0, 0, 0, -14 -14" transform="rotate(180,348,152)"/><path d="M 362 138v 28h 14a 14 14, 0, 0, 0, 0 -28" transform="rotate(0,376,152)"/><circle cx="488" cy="152" r="14" transform="rotate(0,488,152)"/><rect x="558" y="138" width="28" height="28" transform="rotate(0,572,152)"/><rect x="586" y="138" width="28" height="28" transform="rotate(0,600,152)"/><path d="M 614 138v 28h 28v -14a 14 14, 0, 0, 0, -14 -14" transform="rotate(90,628,152)"/><circle cx="740" cy="152" r="14" transform="rotate(0,740,152)"/><path d="M 782 138v 28h 28v -14a 14 14, 0, 0, 0, -14 -14" transform="rotate(-90,796,152)"/><path d="M 810 138v 28h 14a 14 14, 0, 0, 0, 0 -28" transform="rotate(0,824,152)"/><circle cx="880" cy="152" r="14" transform="rotate(0,880,152)"/><path d="M 250 166v 28h 14a 14 14, 0, 0, 0, 0 -28" transform="rotate(-90,264,180)"/><path d="M 306 166v 28h 14a 14 14, 0, 0, 0, 0 -28" transform="rotate(-90,320,180)"/><path d="M 390 166v 28h 14a 14 14, 0, 0, 0, 0 -28" transform="rotate(180,404,180)"/><path d="M 418 166v 28h 28v -14a 14 14, 0, 0, 0, -14 -14" transform="rotate(0,432,180)"/><path d="M 502 166v 28h 14a 14 14, 0, 0, 0, 0 -28" transform="rotate(180,516,180)"/><rect x="530" y="166" width="28" height="28" transform="rotate(0,544,180)"/><rect x="558" y="166" width="28" height="28" transform="rotate(0,572,180)"/><rect x="586" y="166" width="28" height="28" transform="rotate(0,600,180)"/><path d="M 642 166v 28h 14a 14 14, 0, 0, 0, 0 -28" transform="rotate(-90,656,180)"/><path d="M 754 166v 28h 28v -14a 14 14, 0, 0, 0, -14 -14" transform="rotate(-90,768,180)"/><path d="M 782 166v 28h 28v -14a 14 14, 0, 0, 0, -14 -14" transform="rotate(90,796,180)"/><circle cx="852" cy="180" r="14" transform="rotate(0,852,180)"/><circle cx="908" cy="180" r="14" transform="rotate(0,908,180)"/><rect x="250" y="194" width="28" height="28" transform="rotate(0,264,208)"/><rect x="306" y="194" width="28" height="28" transform="rotate(0,320,208)"/><path d="M 362 194v 28h 14a 14 14, 0, 0, 0, 0 -28" transform="rotate(-90,376,208)"/><rect x="418" y="194" width="28" height="28" transform="rotate(0,432,208)"/><circle cx="488" cy="208" r="14" transform="rotate(0,488,208)"/><path d="M 530 194v 28h 14a 14 14, 0, 0, 0, 0 -28" transform="rotate(90,544,208)"/><rect x="586" y="194" width="28" height="28" transform="rotate(0,600,208)"/><rect x="642" y="194" width="28" height="28" transform="rotate(0,656,208)"/><path d="M 698 194v 28h 14a 14 14, 0, 0, 0, 0 -28" transform="rotate(-90,712,208)"/><path d="M 754 194v 28h 14a 14 14, 0, 0, 0, 0 -28" transform="rotate(90,768,208)"/><path d="M 810 194v 28h 14a 14 14, 0, 0, 0, 0 -28" transform="rotate(-90,824,208)"/><path d="M 866 194v 28h 14a 14 14, 0, 0, 0, 0 -28" transform="rotate(-90,880,208)"/><path d="M 922 194v 28h 14a 14 14, 0, 0, 0, 0 -28" transform="rotate(-90,936,208)"/><rect x="250" y="222" width="28" height="28" transform="rotate(0,264,236)"/><rect x="306" y="222" width="28" height="28" transform="rotate(0,320,236)"/><rect x="334" y="222" width="28" height="28" transform="rotate(0,348,236)"/><rect x="362" y="222" width="28" height="28" transform="rotate(0,376,236)"/><rect x="390" y="222" width="28" height="28" transform="rotate(0,404,236)"/><path d="M 418 222v 28h 28v -14a 14 14, 0, 0, 0, -14 -14" transform="rotate(90,432,236)"/><path d="M 558 222v 28h 14a 14 14, 0, 0, 0, 0 -28" transform="rotate(180,572,236)"/><path d="M 586 222v 28h 28v -14a 14 14, 0, 0, 0, -14 -14" transform="rotate(90,600,236)"/><rect x="642" y="222" width="28" height="28" transform="rotate(0,656,236)"/><path d="M 698 222v 28h 14a 14 14, 0, 0, 0, 0 -28" transform="rotate(90,712,236)"/><path d="M 810 222v 28h 28v -14a 14 14, 0, 0, 0, -14 -14" transform="rotate(180,824,236)"/><rect x="838" y="222" width="28" height="28" transform="rotate(0,852,236)"/><path d="M 866 222v 28h 28v -14a 14 14, 0, 0, 0, -14 -14" transform="rotate(90,880,236)"/><path d="M 922 222v 28h 14a 14 14, 0, 0, 0, 0 -28" transform="rotate(90,936,236)"/><circle cx="68" cy="264" r="14" transform="rotate(0,68,264)"/><path d="M 110 250v 28h 14a 14 14, 0, 0, 0, 0 -28" transform="rotate(-90,124,264)"/><path d="M 166 250v 28h 28v -14a 14 14, 0, 0, 0, -14 -14" transform="rotate(-90,180,264)"/><rect x="194" y="250" width="28" height="28" transform="rotate(0,208,264)"/><rect x="222" y="250" width="28" height="28" transform="rotate(0,236,264)"/><rect x="250" y="250" width="28" height="28" transform="rotate(0,264,264)"/><rect x="278" y="250" width="28" height="28" transform="rotate(0,292,264)"/><rect x="306" y="250" width="28" height="28" transform="rotate(0,320,264)"/><path d="M 334 250v 28h 28v -14a 14 14, 0, 0, 0, -14 -14" transform="rotate(90,348,264)"/><rect x="390" y="250" width="28" height="28" transform="rotate(0,404,264)"/><path d="M 446 250v 28h 28v -14a 14 14, 0, 0, 0, -14 -14" transform="rotate(-90,460,264)"/><path d="M 474 250v 28h 14a 14 14, 0, 0, 0, 0 -28" transform="rotate(0,488,264)"/><path d="M 530 250v 28h 14a 14 14, 0, 0, 0, 0 -28" transform="rotate(-90,544,264)"/><path d="M 614 250v 28h 14a 14 14, 0, 0, 0, 0 -28" transform="rotate(180,628,264)"/><rect x="642" y="250" width="28" height="28" transform="rotate(0,656,264)"/><path d="M 670 250v 28h 14a 14 14, 0, 0, 0, 0 -28" transform="rotate(0,684,264)"/><path d="M 726 250v 28h 28v -14a 14 14, 0, 0, 0, -14 -14" transform="rotate(-90,740,264)"/><path d="M 754 250v 28h 14a 14 14, 0, 0, 0, 0 -28" transform="rotate(0,768,264)"/><path d="M 950 250v 28h 28v -14a 14 14, 0, 0, 0, -14 -14" transform="rotate(-90,964,264)"/><rect x="978" y="250" width="28" height="28" transform="rotate(0,992,264)"/><path d="M 1006 250v 28h 28v -14a 14 14, 0, 0, 0, -14 -14" transform="rotate(0,1020,264)"/><path d="M 1062 250v 28h 28v -14a 14 14, 0, 0, 0, -14 -14" transform="rotate(-90,1076,264)"/><path d="M 1090 250v 28h 28v -14a 14 14, 0, 0, 0, -14 -14" transform="rotate(0,1104,264)"/><path d="M 1146 250v 28h 14a 14 14, 0, 0, 0, 0 -28" transform="rotate(-90,1160,264)"/><path d="M 82 278v 28h 14a 14 14, 0, 0, 0, 0 -28" transform="rotate(180,96,292)"/><rect x="110" y="278" width="28" height="28" transform="rotate(0,124,292)"/><rect x="138" y="278" width="28" height="28" transform="rotate(0,152,292)"/><rect x="166" y="278" width="28" height="28" transform="rotate(0,180,292)"/><rect x="222" y="278" width="28" height="28" transform="rotate(0,236,292)"/><path d="M 250 278v 28h 28v -14a 14 14, 0, 0, 0, -14 -14" transform="rotate(90,264,292)"/><path d="M 362 278v 28h 14a 14 14, 0, 0, 0, 0 -28" transform="rotate(180,376,292)"/><rect x="390" y="278" width="28" height="28" transform="rotate(0,404,292)"/><rect x="418" y="278" width="28" height="28" transform="rotate(0,432,292)"/><path d="M 446 278v 28h 28v -14a 14 14, 0, 0, 0, -14 -14" transform="rotate(90,460,292)"/><path d="M 502 278v 28h 14a 14 14, 0, 0, 0, 0 -28" transform="rotate(180,516,292)"/><rect x="530" y="278" width="28" height="28" transform="rotate(0,544,292)"/><path d="M 586 278v 28h 14a 14 14, 0, 0, 0, 0 -28" transform="rotate(-90,600,292)"/><path d="M 642 278v 28h 14a 14 14, 0, 0, 0, 0 -28" transform="rotate(90,656,292)"/><path d="M 698 278v 28h 28v -14a 14 14, 0, 0, 0, -14 -14" transform="rotate(-90,712,292)"/><rect x="726" y="278" width="28" height="28" transform="rotate(0,740,292)"/><path d="M 810 278v 28h 28v -14a 14 14, 0, 0, 0, -14 -14" transform="rotate(-90,824,292)"/><rect x="838" y="278" width="28" height="28" transform="rotate(0,852,292)"/><path d="M 866 278v 28h 28v -14a 14 14, 0, 0, 0, -14 -14" transform="rotate(0,880,292)"/><path d="M 922 278v 28h 14a 14 14, 0, 0, 0, 0 -28" transform="rotate(180,936,292)"/><rect x="950" y="278" width="28" height="28" transform="rotate(0,964,292)"/><rect x="978" y="278" width="28" height="28" transform="rotate(0,992,292)"/><rect x="1006" y="278" width="28" height="28" transform="rotate(0,1020,292)"/><rect x="1062" y="278" width="28" height="28" transform="rotate(0,1076,292)"/><rect x="1090" y="278" width="28" height="28" transform="rotate(0,1104,292)"/><path d="M 1146 278v 28h 14a 14 14, 0, 0, 0, 0 -28" transform="rotate(90,1160,292)"/><path d="M 26 306v 28h 14a 14 14, 0, 0, 0, 0 -28" transform="rotate(180,40,320)"/><path d="M 54 306v 28h 14a 14 14, 0, 0, 0, 0 -28" transform="rotate(0,68,320)"/><rect x="110" y="306" width="28" height="28" transform="rotate(0,124,320)"/><rect x="138" y="306" width="28" height="28" transform="rotate(0,152,320)"/><rect x="166" y="306" width="28" height="28" transform="rotate(0,180,320)"/><rect x="194" y="306" width="28" height="28" transform="rotate(0,208,320)"/><rect x="222" y="306" width="28" height="28" transform="rotate(0,236,320)"/><path d="M 278 306v 28h 28v -14a 14 14, 0, 0, 0, -14 -14" transform="rotate(-90,292,320)"/><rect x="306" y="306" width="28" height="28" transform="rotate(0,320,320)"/><path d="M 334 306v 28h 14a 14 14, 0, 0, 0, 0 -28" transform="rotate(0,348,320)"/><path d="M 530 306v 28h 14a 14 14, 0, 0, 0, 0 -28" transform="rotate(90,544,320)"/><rect x="586" y="306" width="28" height="28" transform="rotate(0,600,320)"/><path d="M 614 306v 28h 28v -14a 14 14, 0, 0, 0, -14 -14" transform="rotate(0,628,320)"/><path d="M 670 306v 28h 28v -14a 14 14, 0, 0, 0, -14 -14" transform="rotate(-90,684,320)"/><rect x="698" y="306" width="28" height="28" transform="rotate(0,712,320)"/><rect x="726" y="306" width="28" height="28" transform="rotate(0,740,320)"/><rect x="810" y="306" width="28" height="28" transform="rotate(0,824,320)"/><rect x="838" y="306" width="28" height="28" transform="rotate(0,852,320)"/><rect x="866" y="306" width="28" height="28" transform="rotate(0,880,320)"/><path d="M 894 306v 28h 14a 14 14, 0, 0, 0, 0 -28" transform="rotate(0,908,320)"/><path d="M 978 306v 28h 28v -14a 14 14, 0, 0, 0, -14 -14" transform="rotate(180,992,320)"/><path d="M 1006 306v 28h 28v -14a 14 14, 0, 0, 0, -14 -14" transform="rotate(90,1020,320)"/><path d="M 1062 306v 28h 28v -14a 14 14, 0, 0, 0, -14 -14" transform="rotate(180,1076,320)"/><rect x="1090" y="306" width="28" height="28" transform="rotate(0,1104,320)"/><path d="M 1118 306v 28h 28v -14a 14 14, 0, 0, 0, -14 -14" transform="rotate(0,1132,320)"/><path d="M 82 334v 28h 14a 14 14, 0, 0, 0, 0 -28" transform="rotate(180,96,348)"/><rect x="110" y="334" width="28" height="28" transform="rotate(0,124,348)"/><path d="M 166 334v 28h 14a 14 14, 0, 0, 0, 0 -28" transform="rotate(90,180,348)"/><path d="M 222 334v 28h 14a 14 14, 0, 0, 0, 0 -28" transform="rotate(90,236,348)"/><rect x="278" y="334" width="28" height="28" transform="rotate(0,292,348)"/><path d="M 362 334v 28h 28v -14a 14 14, 0, 0, 0, -14 -14" transform="rotate(-90,376,348)"/><path d="M 390 334v 28h 28v -14a 14 14, 0, 0, 0, -14 -14" transform="rotate(0,404,348)"/><path d="M 474 334v 28h 14a 14 14, 0, 0, 0, 0 -28" transform="rotate(180,488,348)"/><path d="M 502 334v 28h 28v -14a 14 14, 0, 0, 0, -14 -14" transform="rotate(0,516,348)"/><path d="M 586 334v 28h 28v -14a 14 14, 0, 0, 0, -14 -14" transform="rotate(180,600,348)"/><rect x="614" y="334" width="28" height="28" transform="rotate(0,628,348)"/><rect x="642" y="334" width="28" height="28" transform="rotate(0,656,348)"/><rect x="670" y="334" width="28" height="28" transform="rotate(0,684,348)"/><rect x="698" y="334" width="28" height="28" transform="rotate(0,712,348)"/><rect x="726" y="334" width="28" height="28" transform="rotate(0,740,348)"/><rect x="754" y="334" width="28" height="28" transform="rotate(0,768,348)"/><rect x="782" y="334" width="28" height="28" transform="rotate(0,796,348)"/><path d="M 810 334v 28h 28v -14a 14 14, 0, 0, 0, -14 -14" transform="rotate(90,824,348)"/><path d="M 1090 334v 28h 28v -14a 14 14, 0, 0, 0, -14 -14" transform="rotate(180,1104,348)"/><rect x="1118" y="334" width="28" height="28" transform="rotate(0,1132,348)"/><path d="M 1146 334v 28h 14a 14 14, 0, 0, 0, 0 -28" transform="rotate(0,1160,348)"/><path d="M 54 362v 28h 14a 14 14, 0, 0, 0, 0 -28" transform="rotate(-90,68,376)"/><rect x="110" y="362" width="28" height="28" transform="rotate(0,124,376)"/><circle cx="208" cy="376" r="14" transform="rotate(0,208,376)"/><path d="M 278 362v 28h 28v -14a 14 14, 0, 0, 0, -14 -14" transform="rotate(180,292,376)"/><path d="M 306 362v 28h 14a 14 14, 0, 0, 0, 0 -28" transform="rotate(0,320,376)"/><path d="M 362 362v 28h 28v -14a 14 14, 0, 0, 0, -14 -14" transform="rotate(180,376,376)"/><rect x="390" y="362" width="28" height="28" transform="rotate(0,404,376)"/><rect x="418" y="362" width="28" height="28" transform="rotate(0,432,376)"/><path d="M 446 362v 28h 28v -14a 14 14, 0, 0, 0, -14 -14" transform="rotate(0,460,376)"/><path d="M 502 362v 28h 14a 14 14, 0, 0, 0, 0 -28" transform="rotate(90,516,376)"/><path d="M 558 362v 28h 14a 14 14, 0, 0, 0, 0 -28" transform="rotate(-90,572,376)"/><path d="M 642 362v 28h 28v -14a 14 14, 0, 0, 0, -14 -14" transform="rotate(180,656,376)"/><rect x="670" y="362" width="28" height="28" transform="rotate(0,684,376)"/><path d="M 726 362v 28h 28v -14a 14 14, 0, 0, 0, -14 -14" transform="rotate(180,740,376)"/><path d="M 754 362v 28h 28v -14a 14 14, 0, 0, 0, -14 -14" transform="rotate(90,768,376)"/><circle cx="852" cy="376" r="14" transform="rotate(0,852,376)"/><path d="M 894 362v 28h 28v -14a 14 14, 0, 0, 0, -14 -14" transform="rotate(-90,908,376)"/><rect x="922" y="362" width="28" height="28" transform="rotate(0,936,376)"/><rect x="950" y="362" width="28" height="28" transform="rotate(0,964,376)"/><path d="M 978 362v 28h 14a 14 14, 0, 0, 0, 0 -28" transform="rotate(0,992,376)"/><circle cx="1076" cy="376" r="14" transform="rotate(0,1076,376)"/><rect x="1118" y="362" width="28" height="28" transform="rotate(0,1132,376)"/><rect x="54" y="390" width="28" height="28" transform="rotate(0,68,404)"/><rect x="110" y="390" width="28" height="28" transform="rotate(0,124,404)"/><rect x="138" y="390" width="28" height="28" transform="rotate(0,152,404)"/><path d="M 166 390v 28h 14a 14 14, 0, 0, 0, 0 -28" transform="rotate(0,180,404)"/><path d="M 222 390v 28h 28v -14a 14 14, 0, 0, 0, -14 -14" transform="rotate(-90,236,404)"/><path d="M 250 390v 28h 28v -14a 14 14, 0, 0, 0, -14 -14" transform="rotate(0,264,404)"/><rect x="390" y="390" width="28" height="28" transform="rotate(0,404,404)"/><path d="M 446 390v 28h 28v -14a 14 14, 0, 0, 0, -14 -14" transform="rotate(180,460,404)"/><path d="M 474 390v 28h 28v -14a 14 14, 0, 0, 0, -14 -14" transform="rotate(0,488,404)"/><path d="M 530 390v 28h 28v -14a 14 14, 0, 0, 0, -14 -14" transform="rotate(-90,544,404)"/><rect x="558" y="390" width="28" height="28" transform="rotate(0,572,404)"/><circle cx="628" cy="404" r="14" transform="rotate(0,628,404)"/><rect x="670" y="390" width="28" height="28" transform="rotate(0,684,404)"/><path d="M 866 390v 28h 14a 14 14, 0, 0, 0, 0 -28" transform="rotate(180,880,404)"/><rect x="894" y="390" width="28" height="28" transform="rotate(0,908,404)"/><rect x="922" y="390" width="28" height="28" transform="rotate(0,936,404)"/><path d="M 950 390v 28h 28v -14a 14 14, 0, 0, 0, -14 -14" transform="rotate(90,964,404)"/><rect x="1118" y="390" width="28" height="28" transform="rotate(0,1132,404)"/><path d="M 26 418v 28h 28v -14a 14 14, 0, 0, 0, -14 -14" transform="rotate(-90,40,432)"/><rect x="54" y="418" width="28" height="28" transform="rotate(0,68,432)"/><rect x="82" y="418" width="28" height="28" transform="rotate(0,96,432)"/><rect x="110" y="418" width="28" height="28" transform="rotate(0,124,432)"/><rect x="138" y="418" width="28" height="28" transform="rotate(0,152,432)"/><path d="M 194 418v 28h 14a 14 14, 0, 0, 0, 0 -28" transform="rotate(180,208,432)"/><rect x="222" y="418" width="28" height="28" transform="rotate(0,236,432)"/><path d="M 250 418v 28h 28v -14a 14 14, 0, 0, 0, -14 -14" transform="rotate(90,264,432)"/><path d="M 306 418v 28h 14a 14 14, 0, 0, 0, 0 -28" transform="rotate(180,320,432)"/><path d="M 334 418v 28h 14a 14 14, 0, 0, 0, 0 -28" transform="rotate(0,348,432)"/><path d="M 390 418v 28h 28v -14a 14 14, 0, 0, 0, -14 -14" transform="rotate(180,404,432)"/><path d="M 418 418v 28h 28v -14a 14 14, 0, 0, 0, -14 -14" transform="rotate(0,432,432)"/><path d="M 474 418v 28h 14a 14 14, 0, 0, 0, 0 -28" transform="rotate(90,488,432)"/><rect x="530" y="418" width="28" height="28" transform="rotate(0,544,432)"/><rect x="558" y="418" width="28" height="28" transform="rotate(0,572,432)"/><path d="M 586 418v 28h 14a 14 14, 0, 0, 0, 0 -28" transform="rotate(0,600,432)"/><rect x="670" y="418" width="28" height="28" transform="rotate(0,684,432)"/><path d="M 726 418v 28h 14a 14 14, 0, 0, 0, 0 -28" transform="rotate(-90,740,432)"/><path d="M 810 418v 28h 28v -14a 14 14, 0, 0, 0, -14 -14" transform="rotate(-90,824,432)"/><path d="M 838 418v 28h 28v -14a 14 14, 0, 0, 0, -14 -14" transform="rotate(0,852,432)"/><path d="M 978 418v 28h 14a 14 14, 0, 0, 0, 0 -28" transform="rotate(-90,992,432)"/><path d="M 1062 418v 28h 14a 14 14, 0, 0, 0, 0 -28" transform="rotate(180,1076,432)"/><rect x="1090" y="418" width="28" height="28" transform="rotate(0,1104,432)"/><rect x="1118" y="418" width="28" height="28" transform="rotate(0,1132,432)"/><path d="M 1146 418v 28h 28v -14a 14 14, 0, 0, 0, -14 -14" transform="rotate(0,1160,432)"/><rect x="26" y="446" width="28" height="28" transform="rotate(0,40,460)"/><rect x="54" y="446" width="28" height="28" transform="rotate(0,68,460)"/><rect x="82" y="446" width="28" height="28" transform="rotate(0,96,460)"/><path d="M 138 446v 28h 14a 14 14, 0, 0, 0, 0 -28" transform="rotate(90,152,460)"/><rect x="222" y="446" width="28" height="28" transform="rotate(0,236,460)"/><circle cx="376" cy="460" r="14" transform="rotate(0,376,460)"/><path d="M 418 446v 28h 14a 14 14, 0, 0, 0, 0 -28" transform="rotate(90,432,460)"/><path d="M 530 446v 28h 14a 14 14, 0, 0, 0, 0 -28" transform="rotate(90,544,460)"/><circle cx="628" cy="460" r="14" transform="rotate(0,628,460)"/><path d="M 670 446v 28h 14a 14 14, 0, 0, 0, 0 -28" transform="rotate(90,684,460)"/><path d="M 726 446v 28h 28v -14a 14 14, 0, 0, 0, -14 -14" transform="rotate(180,740,460)"/><rect x="754" y="446" width="28" height="28" transform="rotate(0,768,460)"/><rect x="782" y="446" width="28" height="28" transform="rotate(0,796,460)"/><rect x="810" y="446" width="28" height="28" transform="rotate(0,824,460)"/><rect x="838" y="446" width="28" height="28" transform="rotate(0,852,460)"/><path d="M 866 446v 28h 14a 14 14, 0, 0, 0, 0 -28" transform="rotate(0,880,460)"/><path d="M 978 446v 28h 14a 14 14, 0, 0, 0, 0 -28" transform="rotate(90,992,460)"/><circle cx="1048" cy="460" r="14" transform="rotate(0,1048,460)"/><path d="M 1146 446v 28h 14a 14 14, 0, 0, 0, 0 -28" transform="rotate(90,1160,460)"/><path d="M 26 474v 28h 14a 14 14, 0, 0, 0, 0 -28" transform="rotate(90,40,488)"/><path d="M 82 474v 28h 14a 14 14, 0, 0, 0, 0 -28" transform="rotate(90,96,488)"/><path d="M 166 474v 28h 28v -14a 14 14, 0, 0, 0, -14 -14" transform="rotate(-90,180,488)"/><rect x="194" y="474" width="28" height="28" transform="rotate(0,208,488)"/><rect x="222" y="474" width="28" height="28" transform="rotate(0,236,488)"/><path d="M 250 474v 28h 14a 14 14, 0, 0, 0, 0 -28" transform="rotate(0,264,488)"/><path d="M 306 474v 28h 14a 14 14, 0, 0, 0, 0 -28" transform="rotate(180,320,488)"/><path d="M 334 474v 28h 28v -14a 14 14, 0, 0, 0, -14 -14" transform="rotate(0,348,488)"/><path d="M 446 474v 28h 14a 14 14, 0, 0, 0, 0 -28" transform="rotate(180,460,488)"/><path d="M 474 474v 28h 28v -14a 14 14, 0, 0, 0, -14 -14" transform="rotate(0,488,488)"/><circle cx="572" cy="488" r="14" transform="rotate(0,572,488)"/><path d="M 698 474v 28h 14a 14 14, 0, 0, 0, 0 -28" transform="rotate(-90,712,488)"/><path d="M 782 474v 28h 14a 14 14, 0, 0, 0, 0 -28" transform="rotate(90,796,488)"/><rect x="838" y="474" width="28" height="28" transform="rotate(0,852,488)"/><path d="M 894 474v 28h 14a 14 14, 0, 0, 0, 0 -28" transform="rotate(180,908,488)"/><path d="M 922 474v 28h 14a 14 14, 0, 0, 0, 0 -28" transform="rotate(0,936,488)"/><path d="M 1006 474v 28h 14a 14 14, 0, 0, 0, 0 -28" transform="rotate(-90,1020,488)"/><circle cx="1076" cy="488" r="14" transform="rotate(0,1076,488)"/><path d="M 110 502v 28h 14a 14 14, 0, 0, 0, 0 -28" transform="rotate(180,124,516)"/><rect x="138" y="502" width="28" height="28" transform="rotate(0,152,516)"/><rect x="166" y="502" width="28" height="28" transform="rotate(0,180,516)"/><path d="M 222 502v 28h 14a 14 14, 0, 0, 0, 0 -28" transform="rotate(90,236,516)"/><rect x="334" y="502" width="28" height="28" transform="rotate(0,348,516)"/><circle cx="404" cy="516" r="14" transform="rotate(0,404,516)"/><rect x="474" y="502" width="28" height="28" transform="rotate(0,488,516)"/><path d="M 502 502v 28h 14a 14 14, 0, 0, 0, 0 -28" transform="rotate(0,516,516)"/><path d="M 614 502v 28h 28v -14a 14 14, 0, 0, 0, -14 -14" transform="rotate(-90,628,516)"/><rect x="642" y="502" width="28" height="28" transform="rotate(0,656,516)"/><rect x="670" y="502" width="28" height="28" transform="rotate(0,684,516)"/><rect x="698" y="502" width="28" height="28" transform="rotate(0,712,516)"/><path d="M 754 502v 28h 14a 14 14, 0, 0, 0, 0 -28" transform="rotate(-90,768,516)"/><path d="M 810 502v 28h 14a 14 14, 0, 0, 0, 0 -28" transform="rotate(180,824,516)"/><path d="M 838 502v 28h 28v -14a 14 14, 0, 0, 0, -14 -14" transform="rotate(90,852,516)"/><path d="M 978 502v 28h 14a 14 14, 0, 0, 0, 0 -28" transform="rotate(180,992,516)"/><path d="M 1006 502v 28h 28v -14a 14 14, 0, 0, 0, -14 -14" transform="rotate(90,1020,516)"/><path d="M 1090 502v 28h 28v -14a 14 14, 0, 0, 0, -14 -14" transform="rotate(-90,1104,516)"/><rect x="1118" y="502" width="28" height="28" transform="rotate(0,1132,516)"/><path d="M 1146 502v 28h 28v -14a 14 14, 0, 0, 0, -14 -14" transform="rotate(0,1160,516)"/><path d="M 26 530v 28h 14a 14 14, 0, 0, 0, 0 -28" transform="rotate(180,40,544)"/><path d="M 54 530v 28h 28v -14a 14 14, 0, 0, 0, -14 -14" transform="rotate(0,68,544)"/><rect x="166" y="530" width="28" height="28" transform="rotate(0,180,544)"/><path d="M 194 530v 28h 14a 14 14, 0, 0, 0, 0 -28" transform="rotate(0,208,544)"/><path d="M 278 530v 28h 14a 14 14, 0, 0, 0, 0 -28" transform="rotate(180,292,544)"/><rect x="306" y="530" width="28" height="28" transform="rotate(0,320,544)"/><path d="M 334 530v 28h 28v -14a 14 14, 0, 0, 0, -14 -14" transform="rotate(90,348,544)"/><path d="M 446 530v 28h 28v -14a 14 14, 0, 0, 0, -14 -14" transform="rotate(-90,460,544)"/><rect x="474" y="530" width="28" height="28" transform="rotate(0,488,544)"/><path d="M 558 530v 28h 14a 14 14, 0, 0, 0, 0 -28" transform="rotate(180,572,544)"/><rect x="586" y="530" width="28" height="28" transform="rotate(0,600,544)"/><rect x="614" y="530" width="28" height="28" transform="rotate(0,628,544)"/><rect x="698" y="530" width="28" height="28" transform="rotate(0,712,544)"/><path d="M 754 530v 28h 14a 14 14, 0, 0, 0, 0 -28" transform="rotate(90,768,544)"/><circle cx="936" cy="544" r="14" transform="rotate(0,936,544)"/><path d="M 1034 530v 28h 14a 14 14, 0, 0, 0, 0 -28" transform="rotate(180,1048,544)"/><rect x="1062" y="530" width="28" height="28" transform="rotate(0,1076,544)"/><rect x="1090" y="530" width="28" height="28" transform="rotate(0,1104,544)"/><rect x="1118" y="530" width="28" height="28" transform="rotate(0,1132,544)"/><path d="M 1146 530v 28h 28v -14a 14 14, 0, 0, 0, -14 -14" transform="rotate(90,1160,544)"/><rect x="54" y="558" width="28" height="28" transform="rotate(0,68,572)"/><path d="M 82 558v 28h 28v -14a 14 14, 0, 0, 0, -14 -14" transform="rotate(0,96,572)"/><rect x="166" y="558" width="28" height="28" transform="rotate(0,180,572)"/><path d="M 362 558v 28h 28v -14a 14 14, 0, 0, 0, -14 -14" transform="rotate(-90,376,572)"/><path d="M 390 558v 28h 14a 14 14, 0, 0, 0, 0 -28" transform="rotate(0,404,572)"/><path d="M 446 558v 28h 28v -14a 14 14, 0, 0, 0, -14 -14" transform="rotate(180,460,572)"/><rect x="474" y="558" width="28" height="28" transform="rotate(0,488,572)"/><rect x="614" y="558" width="28" height="28" transform="rotate(0,628,572)"/><rect x="698" y="558" width="28" height="28" transform="rotate(0,712,572)"/><path d="M 782 558v 28h 28v -14a 14 14, 0, 0, 0, -14 -14" transform="rotate(-90,796,572)"/><rect x="810" y="558" width="28" height="28" transform="rotate(0,824,572)"/><rect x="838" y="558" width="28" height="28" transform="rotate(0,852,572)"/><path d="M 866 558v 28h 14a 14 14, 0, 0, 0, 0 -28" transform="rotate(0,880,572)"/><path d="M 978 558v 28h 28v -14a 14 14, 0, 0, 0, -14 -14" transform="rotate(-90,992,572)"/><path d="M 1006 558v 28h 28v -14a 14 14, 0, 0, 0, -14 -14" transform="rotate(0,1020,572)"/><rect x="1062" y="558" width="28" height="28" transform="rotate(0,1076,572)"/><rect x="1118" y="558" width="28" height="28" transform="rotate(0,1132,572)"/><path d="M 26 586v 28h 28v -14a 14 14, 0, 0, 0, -14 -14" transform="rotate(-90,40,600)"/><rect x="54" y="586" width="28" height="28" transform="rotate(0,68,600)"/><rect x="82" y="586" width="28" height="28" transform="rotate(0,96,600)"/><path d="M 110 586v 28h 14a 14 14, 0, 0, 0, 0 -28" transform="rotate(0,124,600)"/><path d="M 166 586v 28h 28v -14a 14 14, 0, 0, 0, -14 -14" transform="rotate(180,180,600)"/><path d="M 194 586v 28h 14a 14 14, 0, 0, 0, 0 -28" transform="rotate(0,208,600)"/><rect x="362" y="586" width="28" height="28" transform="rotate(0,376,600)"/><path d="M 418 586v 28h 14a 14 14, 0, 0, 0, 0 -28" transform="rotate(-90,432,600)"/><rect x="474" y="586" width="28" height="28" transform="rotate(0,488,600)"/><path d="M 530 586v 28h 14a 14 14, 0, 0, 0, 0 -28" transform="rotate(180,544,600)"/><rect x="558" y="586" width="28" height="28" transform="rotate(0,572,600)"/><rect x="586" y="586" width="28" height="28" transform="rotate(0,600,600)"/><rect x="614" y="586" width="28" height="28" transform="rotate(0,628,600)"/><rect x="642" y="586" width="28" height="28" transform="rotate(0,656,600)"/><rect x="670" y="586" width="28" height="28" transform="rotate(0,684,600)"/><rect x="698" y="586" width="28" height="28" transform="rotate(0,712,600)"/><rect x="726" y="586" width="28" height="28" transform="rotate(0,740,600)"/><rect x="754" y="586" width="28" height="28" transform="rotate(0,768,600)"/><path d="M 782 586v 28h 28v -14a 14 14, 0, 0, 0, -14 -14" transform="rotate(90,796,600)"/><circle cx="908" cy="600" r="14" transform="rotate(0,908,600)"/><path d="M 950 586v 28h 28v -14a 14 14, 0, 0, 0, -14 -14" transform="rotate(-90,964,600)"/><rect x="978" y="586" width="28" height="28" transform="rotate(0,992,600)"/><path d="M 1006 586v 28h 28v -14a 14 14, 0, 0, 0, -14 -14" transform="rotate(90,1020,600)"/><rect x="1062" y="586" width="28" height="28" transform="rotate(0,1076,600)"/><rect x="1090" y="586" width="28" height="28" transform="rotate(0,1104,600)"/><rect x="1118" y="586" width="28" height="28" transform="rotate(0,1132,600)"/><rect x="26" y="614" width="28" height="28" transform="rotate(0,40,628)"/><path d="M 54 614v 28h 28v -14a 14 14, 0, 0, 0, -14 -14" transform="rotate(90,68,628)"/><path d="M 138 614v 28h 14a 14 14, 0, 0, 0, 0 -28" transform="rotate(-90,152,628)"/><path d="M 250 614v 28h 14a 14 14, 0, 0, 0, 0 -28" transform="rotate(-90,264,628)"/><path d="M 306 614v 28h 14a 14 14, 0, 0, 0, 0 -28" transform="rotate(180,320,628)"/><rect x="334" y="614" width="28" height="28" transform="rotate(0,348,628)"/><rect x="362" y="614" width="28" height="28" transform="rotate(0,376,628)"/><rect x="418" y="614" width="28" height="28" transform="rotate(0,432,628)"/><rect x="446" y="614" width="28" height="28" transform="rotate(0,460,628)"/><rect x="474" y="614" width="28" height="28" transform="rotate(0,488,628)"/><path d="M 502 614v 28h 28v -14a 14 14, 0, 0, 0, -14 -14" transform="rotate(0,516,628)"/><path d="M 586 614v 28h 28v -14a 14 14, 0, 0, 0, -14 -14" transform="rotate(180,600,628)"/><rect x="614" y="614" width="28" height="28" transform="rotate(0,628,628)"/><rect x="726" y="614" width="28" height="28" transform="rotate(0,740,628)"/><path d="M 810 614v 28h 28v -14a 14 14, 0, 0, 0, -14 -14" transform="rotate(-90,824,628)"/><path d="M 838 614v 28h 14a 14 14, 0, 0, 0, 0 -28" transform="rotate(0,852,628)"/><path d="M 922 614v 28h 14a 14 14, 0, 0, 0, 0 -28" transform="rotate(180,936,628)"/><rect x="950" y="614" width="28" height="28" transform="rotate(0,964,628)"/><rect x="978" y="614" width="28" height="28" transform="rotate(0,992,628)"/><path d="M 1062 614v 28h 28v -14a 14 14, 0, 0, 0, -14 -14" transform="rotate(180,1076,628)"/><rect x="1090" y="614" width="28" height="28" transform="rotate(0,1104,628)"/><rect x="1118" y="614" width="28" height="28" transform="rotate(0,1132,628)"/><path d="M 1146 614v 28h 14a 14 14, 0, 0, 0, 0 -28" transform="rotate(0,1160,628)"/><path d="M 26 642v 28h 14a 14 14, 0, 0, 0, 0 -28" transform="rotate(90,40,656)"/><circle cx="96" cy="656" r="14" transform="rotate(0,96,656)"/><rect x="138" y="642" width="28" height="28" transform="rotate(0,152,656)"/><circle cx="208" cy="656" r="14" transform="rotate(0,208,656)"/><rect x="250" y="642" width="28" height="28" transform="rotate(0,264,656)"/><path d="M 278 642v 28h 28v -14a 14 14, 0, 0, 0, -14 -14" transform="rotate(0,292,656)"/><rect x="334" y="642" width="28" height="28" transform="rotate(0,348,656)"/><rect x="362" y="642" width="28" height="28" transform="rotate(0,376,656)"/><rect x="390" y="642" width="28" height="28" transform="rotate(0,404,656)"/><rect x="418" y="642" width="28" height="28" transform="rotate(0,432,656)"/><rect x="446" y="642" width="28" height="28" transform="rotate(0,460,656)"/><rect x="474" y="642" width="28" height="28" transform="rotate(0,488,656)"/><path d="M 502 642v 28h 28v -14a 14 14, 0, 0, 0, -14 -14" transform="rotate(90,516,656)"/><circle cx="572" cy="656" r="14" transform="rotate(0,572,656)"/><rect x="614" y="642" width="28" height="28" transform="rotate(0,628,656)"/><path d="M 698 642v 28h 14a 14 14, 0, 0, 0, 0 -28" transform="rotate(180,712,656)"/><rect x="726" y="642" width="28" height="28" transform="rotate(0,740,656)"/><path d="M 810 642v 28h 14a 14 14, 0, 0, 0, 0 -28" transform="rotate(90,824,656)"/><circle cx="908" cy="656" r="14" transform="rotate(0,908,656)"/><path d="M 950 642v 28h 28v -14a 14 14, 0, 0, 0, -14 -14" transform="rotate(180,964,656)"/><path d="M 978 642v 28h 28v -14a 14 14, 0, 0, 0, -14 -14" transform="rotate(90,992,656)"/><rect x="1090" y="642" width="28" height="28" transform="rotate(0,1104,656)"/><rect x="1118" y="642" width="28" height="28" transform="rotate(0,1132,656)"/><rect x="138" y="670" width="28" height="28" transform="rotate(0,152,684)"/><path d="M 166 670v 28h 28v -14a 14 14, 0, 0, 0, -14 -14" transform="rotate(0,180,684)"/><path d="M 250 670v 28h 28v -14a 14 14, 0, 0, 0, -14 -14" transform="rotate(180,264,684)"/><path d="M 278 670v 28h 28v -14a 14 14, 0, 0, 0, -14 -14" transform="rotate(90,292,684)"/><path d="M 334 670v 28h 14a 14 14, 0, 0, 0, 0 -28" transform="rotate(90,348,684)"/><path d="M 418 670v 28h 14a 14 14, 0, 0, 0, 0 -28" transform="rotate(90,432,684)"/><path d="M 586 670v 28h 28v -14a 14 14, 0, 0, 0, -14 -14" transform="rotate(-90,600,684)"/><rect x="614" y="670" width="28" height="28" transform="rotate(0,628,684)"/><circle cx="684" cy="684" r="14" transform="rotate(0,684,684)"/><rect x="726" y="670" width="28" height="28" transform="rotate(0,740,684)"/><circle cx="796" cy="684" r="14" transform="rotate(0,796,684)"/><circle cx="880" cy="684" r="14" transform="rotate(0,880,684)"/><path d="M 922 670v 28h 14a 14 14, 0, 0, 0, 0 -28" transform="rotate(-90,936,684)"/><path d="M 1006 670v 28h 14a 14 14, 0, 0, 0, 0 -28" transform="rotate(-90,1020,684)"/><path d="M 1090 670v 28h 28v -14a 14 14, 0, 0, 0, -14 -14" transform="rotate(180,1104,684)"/><path d="M 1118 670v 28h 28v -14a 14 14, 0, 0, 0, -14 -14" transform="rotate(90,1132,684)"/><path d="M 54 698v 28h 14a 14 14, 0, 0, 0, 0 -28" transform="rotate(180,68,712)"/><rect x="82" y="698" width="28" height="28" transform="rotate(0,96,712)"/><rect x="110" y="698" width="28" height="28" transform="rotate(0,124,712)"/><rect x="138" y="698" width="28" height="28" transform="rotate(0,152,712)"/><rect x="166" y="698" width="28" height="28" transform="rotate(0,180,712)"/><rect x="194" y="698" width="28" height="28" transform="rotate(0,208,712)"/><path d="M 222 698v 28h 28v -14a 14 14, 0, 0, 0, -14 -14" transform="rotate(0,236,712)"/><path d="M 306 698v 28h 14a 14 14, 0, 0, 0, 0 -28" transform="rotate(-90,320,712)"/><path d="M 390 698v 28h 14a 14 14, 0, 0, 0, 0 -28" transform="rotate(-90,404,712)"/><path d="M 446 698v 28h 14a 14 14, 0, 0, 0, 0 -28" transform="rotate(180,460,712)"/><path d="M 474 698v 28h 14a 14 14, 0, 0, 0, 0 -28" transform="rotate(0,488,712)"/><rect x="586" y="698" width="28" height="28" transform="rotate(0,600,712)"/><path d="M 614 698v 28h 28v -14a 14 14, 0, 0, 0, -14 -14" transform="rotate(90,628,712)"/><rect x="726" y="698" width="28" height="28" transform="rotate(0,740,712)"/><path d="M 838 698v 28h 14a 14 14, 0, 0, 0, 0 -28" transform="rotate(-90,852,712)"/><path d="M 922 698v 28h 28v -14a 14 14, 0, 0, 0, -14 -14" transform="rotate(180,936,712)"/><rect x="950" y="698" width="28" height="28" transform="rotate(0,964,712)"/><rect x="978" y="698" width="28" height="28" transform="rotate(0,992,712)"/><path d="M 1006 698v 28h 28v -14a 14 14, 0, 0, 0, -14 -14" transform="rotate(90,1020,712)"/><rect x="82" y="726" width="28" height="28" transform="rotate(0,96,740)"/><rect x="110" y="726" width="28" height="28" transform="rotate(0,124,740)"/><path d="M 138 726v 28h 28v -14a 14 14, 0, 0, 0, -14 -14" transform="rotate(90,152,740)"/><path d="M 222 726v 28h 28v -14a 14 14, 0, 0, 0, -14 -14" transform="rotate(180,236,740)"/><rect x="250" y="726" width="28" height="28" transform="rotate(0,264,740)"/><rect x="278" y="726" width="28" height="28" transform="rotate(0,292,740)"/><rect x="306" y="726" width="28" height="28" transform="rotate(0,320,740)"/><path d="M 334 726v 28h 28v -14a 14 14, 0, 0, 0, -14 -14" transform="rotate(0,348,740)"/><path d="M 390 726v 28h 28v -14a 14 14, 0, 0, 0, -14 -14" transform="rotate(180,404,740)"/><path d="M 418 726v 28h 14a 14 14, 0, 0, 0, 0 -28" transform="rotate(0,432,740)"/><path d="M 558 726v 28h 28v -14a 14 14, 0, 0, 0, -14 -14" transform="rotate(-90,572,740)"/><rect x="586" y="726" width="28" height="28" transform="rotate(0,600,740)"/><circle cx="656" cy="740" r="14" transform="rotate(0,656,740)"/><path d="M 698 726v 28h 28v -14a 14 14, 0, 0, 0, -14 -14" transform="rotate(-90,712,740)"/><path d="M 726 726v 28h 28v -14a 14 14, 0, 0, 0, -14 -14" transform="rotate(90,740,740)"/><rect x="838" y="726" width="28" height="28" transform="rotate(0,852,740)"/><circle cx="908" cy="740" r="14" transform="rotate(0,908,740)"/><circle cx="1076" cy="740" r="14" transform="rotate(0,1076,740)"/><path d="M 1118 726v 28h 14a 14 14, 0, 0, 0, 0 -28" transform="rotate(-90,1132,740)"/><path d="M 26 754v 28h 14a 14 14, 0, 0, 0, 0 -28" transform="rotate(180,40,768)"/><rect x="54" y="754" width="28" height="28" transform="rotate(0,68,768)"/><path d="M 82 754v 28h 28v -14a 14 14, 0, 0, 0, -14 -14" transform="rotate(90,96,768)"/><circle cx="208" cy="768" r="14" transform="rotate(0,208,768)"/><path d="M 334 754v 28h 28v -14a 14 14, 0, 0, 0, -14 -14" transform="rotate(180,348,768)"/><path d="M 362 754v 28h 14a 14 14, 0, 0, 0, 0 -28" transform="rotate(0,376,768)"/><circle cx="516" cy="768" r="14" transform="rotate(0,516,768)"/><rect x="558" y="754" width="28" height="28" transform="rotate(0,572,768)"/><path d="M 586 754v 28h 28v -14a 14 14, 0, 0, 0, -14 -14" transform="rotate(90,600,768)"/><path d="M 670 754v 28h 28v -14a 14 14, 0, 0, 0, -14 -14" transform="rotate(-90,684,768)"/><rect x="698" y="754" width="28" height="28" transform="rotate(0,712,768)"/><path d="M 754 754v 28h 14a 14 14, 0, 0, 0, 0 -28" transform="rotate(-90,768,768)"/><path d="M 810 754v 28h 28v -14a 14 14, 0, 0, 0, -14 -14" transform="rotate(-90,824,768)"/><rect x="838" y="754" width="28" height="28" transform="rotate(0,852,768)"/><path d="M 922 754v 28h 28v -14a 14 14, 0, 0, 0, -14 -14" transform="rotate(-90,936,768)"/><rect x="950" y="754" width="28" height="28" transform="rotate(0,964,768)"/><path d="M 978 754v 28h 28v -14a 14 14, 0, 0, 0, -14 -14" transform="rotate(0,992,768)"/><path d="M 1118 754v 28h 28v -14a 14 14, 0, 0, 0, -14 -14" transform="rotate(180,1132,768)"/><path d="M 1146 754v 28h 14a 14 14, 0, 0, 0, 0 -28" transform="rotate(0,1160,768)"/><circle cx="124" cy="796" r="14" transform="rotate(0,124,796)"/><circle cx="180" cy="796" r="14" transform="rotate(0,180,796)"/><circle cx="236" cy="796" r="14" transform="rotate(0,236,796)"/><path d="M 306 782v 28h 14a 14 14, 0, 0, 0, 0 -28" transform="rotate(-90,320,796)"/><path d="M 418 782v 28h 14a 14 14, 0, 0, 0, 0 -28" transform="rotate(-90,432,796)"/><path d="M 530 782v 28h 14a 14 14, 0, 0, 0, 0 -28" transform="rotate(180,544,796)"/><rect x="558" y="782" width="28" height="28" transform="rotate(0,572,796)"/><path d="M 642 782v 28h 14a 14 14, 0, 0, 0, 0 -28" transform="rotate(180,656,796)"/><rect x="670" y="782" width="28" height="28" transform="rotate(0,684,796)"/><rect x="698" y="782" width="28" height="28" transform="rotate(0,712,796)"/><rect x="726" y="782" width="28" height="28" transform="rotate(0,740,796)"/><rect x="754" y="782" width="28" height="28" transform="rotate(0,768,796)"/><rect x="782" y="782" width="28" height="28" transform="rotate(0,796,796)"/><rect x="810" y="782" width="28" height="28" transform="rotate(0,824,796)"/><rect x="838" y="782" width="28" height="28" transform="rotate(0,852,796)"/><path d="M 922 782v 28h 14a 14 14, 0, 0, 0, 0 -28" transform="rotate(90,936,796)"/><path d="M 978 782v 28h 28v -14a 14 14, 0, 0, 0, -14 -14" transform="rotate(180,992,796)"/><path d="M 1006 782v 28h 14a 14 14, 0, 0, 0, 0 -28" transform="rotate(0,1020,796)"/><path d="M 26 810v 28h 14a 14 14, 0, 0, 0, 0 -28" transform="rotate(180,40,824)"/><path d="M 54 810v 28h 14a 14 14, 0, 0, 0, 0 -28" transform="rotate(0,68,824)"/><circle cx="152" cy="824" r="14" transform="rotate(0,152,824)"/><circle cx="208" cy="824" r="14" transform="rotate(0,208,824)"/><path d="M 278 810v 28h 28v -14a 14 14, 0, 0, 0, -14 -14" transform="rotate(-90,292,824)"/><rect x="306" y="810" width="28" height="28" transform="rotate(0,320,824)"/><path d="M 390 810v 28h 28v -14a 14 14, 0, 0, 0, -14 -14" transform="rotate(-90,404,824)"/><path d="M 418 810v 28h 28v -14a 14 14, 0, 0, 0, -14 -14" transform="rotate(90,432,824)"/><circle cx="488" cy="824" r="14" transform="rotate(0,488,824)"/><path d="M 558 810v 28h 14a 14 14, 0, 0, 0, 0 -28" transform="rotate(90,572,824)"/><path d="M 614 810v 28h 14a 14 14, 0, 0, 0, 0 -28" transform="rotate(-90,628,824)"/><path d="M 670 810v 28h 28v -14a 14 14, 0, 0, 0, -14 -14" transform="rotate(180,684,824)"/><rect x="698" y="810" width="28" height="28" transform="rotate(0,712,824)"/><path d="M 838 810v 28h 14a 14 14, 0, 0, 0, 0 -28" transform="rotate(90,852,824)"/><circle cx="964" cy="824" r="14" transform="rotate(0,964,824)"/><path d="M 1146 810v 28h 14a 14 14, 0, 0, 0, 0 -28" transform="rotate(-90,1160,824)"/><path d="M 82 838v 28h 28v -14a 14 14, 0, 0, 0, -14 -14" transform="rotate(-90,96,852)"/><path d="M 110 838v 28h 28v -14a 14 14, 0, 0, 0, -14 -14" transform="rotate(0,124,852)"/><path d="M 222 838v 28h 14a 14 14, 0, 0, 0, 0 -28" transform="rotate(-90,236,852)"/><rect x="278" y="838" width="28" height="28" transform="rotate(0,292,852)"/><rect x="306" y="838" width="28" height="28" transform="rotate(0,320,852)"/><rect x="334" y="838" width="28" height="28" transform="rotate(0,348,852)"/><rect x="362" y="838" width="28" height="28" transform="rotate(0,376,852)"/><rect x="390" y="838" width="28" height="28" transform="rotate(0,404,852)"/><path d="M 502 838v 28h 28v -14a 14 14, 0, 0, 0, -14 -14" transform="rotate(-90,516,852)"/><path d="M 530 838v 28h 28v -14a 14 14, 0, 0, 0, -14 -14" transform="rotate(0,544,852)"/><path d="M 614 838v 28h 28v -14a 14 14, 0, 0, 0, -14 -14" transform="rotate(180,628,852)"/><path d="M 642 838v 28h 28v -14a 14 14, 0, 0, 0, -14 -14" transform="rotate(0,656,852)"/><rect x="698" y="838" width="28" height="28" transform="rotate(0,712,852)"/><path d="M 754 838v 28h 14a 14 14, 0, 0, 0, 0 -28" transform="rotate(-90,768,852)"/><circle cx="824" cy="852" r="14" transform="rotate(0,824,852)"/><circle cx="992" cy="852" r="14" transform="rotate(0,992,852)"/><rect x="1146" y="838" width="28" height="28" transform="rotate(0,1160,852)"/><circle cx="40" cy="880" r="14" transform="rotate(0,40,880)"/><rect x="82" y="866" width="28" height="28" transform="rotate(0,96,880)"/><rect x="110" y="866" width="28" height="28" transform="rotate(0,124,880)"/><rect x="138" y="866" width="28" height="28" transform="rotate(0,152,880)"/><rect x="166" y="866" width="28" height="28" transform="rotate(0,180,880)"/><rect x="194" y="866" width="28" height="28" transform="rotate(0,208,880)"/><rect x="222" y="866" width="28" height="28" transform="rotate(0,236,880)"/><rect x="250" y="866" width="28" height="28" transform="rotate(0,264,880)"/><rect x="278" y="866" width="28" height="28" transform="rotate(0,292,880)"/><rect x="306" y="866" width="28" height="28" transform="rotate(0,320,880)"/><path d="M 362 866v 28h 28v -14a 14 14, 0, 0, 0, -14 -14" transform="rotate(180,376,880)"/><rect x="390" y="866" width="28" height="28" transform="rotate(0,404,880)"/><rect x="418" y="866" width="28" height="28" transform="rotate(0,432,880)"/><rect x="446" y="866" width="28" height="28" transform="rotate(0,460,880)"/><rect x="474" y="866" width="28" height="28" transform="rotate(0,488,880)"/><rect x="502" y="866" width="28" height="28" transform="rotate(0,516,880)"/><rect x="530" y="866" width="28" height="28" transform="rotate(0,544,880)"/><circle cx="600" cy="880" r="14" transform="rotate(0,600,880)"/><path d="M 642 866v 28h 28v -14a 14 14, 0, 0, 0, -14 -14" transform="rotate(180,656,880)"/><rect x="670" y="866" width="28" height="28" transform="rotate(0,684,880)"/><rect x="698" y="866" width="28" height="28" transform="rotate(0,712,880)"/><path d="M 754 866v 28h 14a 14 14, 0, 0, 0, 0 -28" transform="rotate(90,768,880)"/><path d="M 838 866v 28h 14a 14 14, 0, 0, 0, 0 -28" transform="rotate(-90,852,880)"/><path d="M 1006 866v 28h 14a 14 14, 0, 0, 0, 0 -28" transform="rotate(180,1020,880)"/><rect x="1034" y="866" width="28" height="28" transform="rotate(0,1048,880)"/><path d="M 1062 866v 28h 28v -14a 14 14, 0, 0, 0, -14 -14" transform="rotate(0,1076,880)"/><path d="M 1118 866v 28h 14a 14 14, 0, 0, 0, 0 -28" transform="rotate(180,1132,880)"/><rect x="1146" y="866" width="28" height="28" transform="rotate(0,1160,880)"/><rect x="82" y="894" width="28" height="28" transform="rotate(0,96,908)"/><rect x="110" y="894" width="28" height="28" transform="rotate(0,124,908)"/><path d="M 222 894v 28h 28v -14a 14 14, 0, 0, 0, -14 -14" transform="rotate(180,236,908)"/><rect x="250" y="894" width="28" height="28" transform="rotate(0,264,908)"/><rect x="278" y="894" width="28" height="28" transform="rotate(0,292,908)"/><rect x="306" y="894" width="28" height="28" transform="rotate(0,320,908)"/><path d="M 334 894v 28h 28v -14a 14 14, 0, 0, 0, -14 -14" transform="rotate(0,348,908)"/><rect x="418" y="894" width="28" height="28" transform="rotate(0,432,908)"/><rect x="530" y="894" width="28" height="28" transform="rotate(0,544,908)"/><path d="M 698 894v 28h 14a 14 14, 0, 0, 0, 0 -28" transform="rotate(90,712,908)"/><circle cx="796" cy="908" r="14" transform="rotate(0,796,908)"/><path d="M 838 894v 28h 28v -14a 14 14, 0, 0, 0, -14 -14" transform="rotate(180,852,908)"/><path d="M 866 894v 28h 14a 14 14, 0, 0, 0, 0 -28" transform="rotate(0,880,908)"/><path d="M 922 894v 28h 28v -14a 14 14, 0, 0, 0, -14 -14" transform="rotate(-90,936,908)"/><path d="M 950 894v 28h 28v -14a 14 14, 0, 0, 0, -14 -14" transform="rotate(0,964,908)"/><rect x="1034" y="894" width="28" height="28" transform="rotate(0,1048,908)"/><path d="M 1062 894v 28h 28v -14a 14 14, 0, 0, 0, -14 -14" transform="rotate(90,1076,908)"/><path d="M 1146 894v 28h 14a 14 14, 0, 0, 0, 0 -28" transform="rotate(90,1160,908)"/><circle cx="40" cy="936" r="14" transform="rotate(0,40,936)"/><path d="M 82 922v 28h 28v -14a 14 14, 0, 0, 0, -14 -14" transform="rotate(180,96,936)"/><rect x="110" y="922" width="28" height="28" transform="rotate(0,124,936)"/><rect x="138" y="922" width="28" height="28" transform="rotate(0,152,936)"/><rect x="166" y="922" width="28" height="28" transform="rotate(0,180,936)"/><path d="M 194 922v 28h 14a 14 14, 0, 0, 0, 0 -28" transform="rotate(0,208,936)"/><rect x="250" y="922" width="28" height="28" transform="rotate(0,264,936)"/><rect x="278" y="922" width="28" height="28" transform="rotate(0,292,936)"/><rect x="306" y="922" width="28" height="28" transform="rotate(0,320,936)"/><path d="M 334 922v 28h 28v -14a 14 14, 0, 0, 0, -14 -14" transform="rotate(90,348,936)"/><rect x="418" y="922" width="28" height="28" transform="rotate(0,432,936)"/><path d="M 474 922v 28h 28v -14a 14 14, 0, 0, 0, -14 -14" transform="rotate(-90,488,936)"/><rect x="502" y="922" width="28" height="28" transform="rotate(0,516,936)"/><path d="M 530 922v 28h 28v -14a 14 14, 0, 0, 0, -14 -14" transform="rotate(90,544,936)"/><circle cx="656" cy="936" r="14" transform="rotate(0,656,936)"/><path d="M 726 922v 28h 14a 14 14, 0, 0, 0, 0 -28" transform="rotate(-90,740,936)"/><path d="M 810 922v 28h 14a 14 14, 0, 0, 0, 0 -28" transform="rotate(-90,824,936)"/><rect x="922" y="922" width="28" height="28" transform="rotate(0,936,936)"/><rect x="950" y="922" width="28" height="28" transform="rotate(0,964,936)"/><rect x="978" y="922" width="28" height="28" transform="rotate(0,992,936)"/><rect x="1006" y="922" width="28" height="28" transform="rotate(0,1020,936)"/><rect x="1034" y="922" width="28" height="28" transform="rotate(0,1048,936)"/><path d="M 1090 922v 28h 14a 14 14, 0, 0, 0, 0 -28" transform="rotate(180,1104,936)"/><path d="M 1118 922v 28h 28v -14a 14 14, 0, 0, 0, -14 -14" transform="rotate(0,1132,936)"/><rect x="250" y="950" width="28" height="28" transform="rotate(0,264,964)"/><path d="M 306 950v 28h 14a 14 14, 0, 0, 0, 0 -28" transform="rotate(90,320,964)"/><circle cx="376" cy="964" r="14" transform="rotate(0,376,964)"/><path d="M 418 950v 28h 14a 14 14, 0, 0, 0, 0 -28" transform="rotate(90,432,964)"/><path d="M 474 950v 28h 14a 14 14, 0, 0, 0, 0 -28" transform="rotate(90,488,964)"/><path d="M 558 950v 28h 14a 14 14, 0, 0, 0, 0 -28" transform="rotate(-90,572,964)"/><path d="M 698 950v 28h 14a 14 14, 0, 0, 0, 0 -28" transform="rotate(180,712,964)"/><rect x="726" y="950" width="28" height="28" transform="rotate(0,740,964)"/><path d="M 810 950v 28h 28v -14a 14 14, 0, 0, 0, -14 -14" transform="rotate(180,824,964)"/><rect x="838" y="950" width="28" height="28" transform="rotate(0,852,964)"/><rect x="866" y="950" width="28" height="28" transform="rotate(0,880,964)"/><rect x="894" y="950" width="28" height="28" transform="rotate(0,908,964)"/><rect x="922" y="950" width="28" height="28" transform="rotate(0,936,964)"/><rect x="1034" y="950" width="28" height="28" transform="rotate(0,1048,964)"/><path d="M 1118 950v 28h 28v -14a 14 14, 0, 0, 0, -14 -14" transform="rotate(180,1132,964)"/><path d="M 1146 950v 28h 14a 14 14, 0, 0, 0, 0 -28" transform="rotate(0,1160,964)"/><rect x="250" y="978" width="28" height="28" transform="rotate(0,264,992)"/><path d="M 278 978v 28h 28v -14a 14 14, 0, 0, 0, -14 -14" transform="rotate(0,292,992)"/><path d="M 334 978v 28h 14a 14 14, 0, 0, 0, 0 -28" transform="rotate(-90,348,992)"/><path d="M 530 978v 28h 14a 14 14, 0, 0, 0, 0 -28" transform="rotate(180,544,992)"/><rect x="558" y="978" width="28" height="28" transform="rotate(0,572,992)"/><rect x="586" y="978" width="28" height="28" transform="rotate(0,600,992)"/><rect x="614" y="978" width="28" height="28" transform="rotate(0,628,992)"/><path d="M 642 978v 28h 28v -14a 14 14, 0, 0, 0, -14 -14" transform="rotate(0,656,992)"/><rect x="726" y="978" width="28" height="28" transform="rotate(0,740,992)"/><rect x="922" y="978" width="28" height="28" transform="rotate(0,936,992)"/><circle cx="992" cy="992" r="14" transform="rotate(0,992,992)"/><rect x="1034" y="978" width="28" height="28" transform="rotate(0,1048,992)"/><path d="M 1090 978v 28h 14a 14 14, 0, 0, 0, 0 -28" transform="rotate(-90,1104,992)"/><path d="M 250 1006v 28h 28v -14a 14 14, 0, 0, 0, -14 -14" transform="rotate(180,264,1020)"/><rect x="278" y="1006" width="28" height="28" transform="rotate(0,292,1020)"/><rect x="306" y="1006" width="28" height="28" transform="rotate(0,320,1020)"/><rect x="334" y="1006" width="28" height="28" transform="rotate(0,348,1020)"/><rect x="362" y="1006" width="28" height="28" transform="rotate(0,376,1020)"/><path d="M 390 1006v 28h 28v -14a 14 14, 0, 0, 0, -14 -14" transform="rotate(0,404,1020)"/><path d="M 474 1006v 28h 14a 14 14, 0, 0, 0, 0 -28" transform="rotate(-90,488,1020)"/><rect x="642" y="1006" width="28" height="28" transform="rotate(0,656,1020)"/><path d="M 698 1006v 28h 14a 14 14, 0, 0, 0, 0 -28" transform="rotate(180,712,1020)"/><path d="M 726 1006v 28h 28v -14a 14 14, 0, 0, 0, -14 -14" transform="rotate(90,740,1020)"/><rect x="922" y="1006" width="28" height="28" transform="rotate(0,936,1020)"/><rect x="1034" y="1006" width="28" height="28" transform="rotate(0,1048,1020)"/><path d="M 1090 1006v 28h 14a 14 14, 0, 0, 0, 0 -28" transform="rotate(90,1104,1020)"/><path d="M 306 1034v 28h 28v -14a 14 14, 0, 0, 0, -14 -14" transform="rotate(180,320,1048)"/><path d="M 334 1034v 28h 28v -14a 14 14, 0, 0, 0, -14 -14" transform="rotate(90,348,1048)"/><rect x="390" y="1034" width="28" height="28" transform="rotate(0,404,1048)"/><path d="M 418 1034v 28h 14a 14 14, 0, 0, 0, 0 -28" transform="rotate(0,432,1048)"/><rect x="474" y="1034" width="28" height="28" transform="rotate(0,488,1048)"/><path d="M 502 1034v 28h 28v -14a 14 14, 0, 0, 0, -14 -14" transform="rotate(0,516,1048)"/><circle cx="572" cy="1048" r="14" transform="rotate(0,572,1048)"/><path d="M 614 1034v 28h 28v -14a 14 14, 0, 0, 0, -14 -14" transform="rotate(-90,628,1048)"/><rect x="642" y="1034" width="28" height="28" transform="rotate(0,656,1048)"/><path d="M 670 1034v 28h 14a 14 14, 0, 0, 0, 0 -28" transform="rotate(0,684,1048)"/><circle cx="768" cy="1048" r="14" transform="rotate(0,768,1048)"/><path d="M 810 1034v 28h 14a 14 14, 0, 0, 0, 0 -28" transform="rotate(180,824,1048)"/><path d="M 838 1034v 28h 14a 14 14, 0, 0, 0, 0 -28" transform="rotate(0,852,1048)"/><path d="M 922 1034v 28h 28v -14a 14 14, 0, 0, 0, -14 -14" transform="rotate(180,936,1048)"/><rect x="950" y="1034" width="28" height="28" transform="rotate(0,964,1048)"/><rect x="978" y="1034" width="28" height="28" transform="rotate(0,992,1048)"/><rect x="1006" y="1034" width="28" height="28" transform="rotate(0,1020,1048)"/><rect x="1034" y="1034" width="28" height="28" transform="rotate(0,1048,1048)"/><path d="M 1062 1034v 28h 28v -14a 14 14, 0, 0, 0, -14 -14" transform="rotate(0,1076,1048)"/><circle cx="264" cy="1076" r="14" transform="rotate(0,264,1076)"/><path d="M 362 1062v 28h 28v -14a 14 14, 0, 0, 0, -14 -14" transform="rotate(-90,376,1076)"/><rect x="390" y="1062" width="28" height="28" transform="rotate(0,404,1076)"/><rect x="474" y="1062" width="28" height="28" transform="rotate(0,488,1076)"/><path d="M 502 1062v 28h 28v -14a 14 14, 0, 0, 0, -14 -14" transform="rotate(90,516,1076)"/><path d="M 586 1062v 28h 28v -14a 14 14, 0, 0, 0, -14 -14" transform="rotate(-90,600,1076)"/><path d="M 614 1062v 28h 28v -14a 14 14, 0, 0, 0, -14 -14" transform="rotate(90,628,1076)"/><path d="M 698 1062v 28h 14a 14 14, 0, 0, 0, 0 -28" transform="rotate(-90,712,1076)"/><path d="M 950 1062v 28h 28v -14a 14 14, 0, 0, 0, -14 -14" transform="rotate(180,964,1076)"/><path d="M 978 1062v 28h 28v -14a 14 14, 0, 0, 0, -14 -14" transform="rotate(90,992,1076)"/><rect x="1034" y="1062" width="28" height="28" transform="rotate(0,1048,1076)"/><rect x="1062" y="1062" width="28" height="28" transform="rotate(0,1076,1076)"/><rect x="1090" y="1062" width="28" height="28" transform="rotate(0,1104,1076)"/><rect x="1118" y="1062" width="28" height="28" transform="rotate(0,1132,1076)"/><path d="M 1146 1062v 28h 28v -14a 14 14, 0, 0, 0, -14 -14" transform="rotate(0,1160,1076)"/><circle cx="292" cy="1104" r="14" transform="rotate(0,292,1104)"/><path d="M 362 1090v 28h 28v -14a 14 14, 0, 0, 0, -14 -14" transform="rotate(180,376,1104)"/><path d="M 390 1090v 28h 28v -14a 14 14, 0, 0, 0, -14 -14" transform="rotate(90,404,1104)"/><rect x="474" y="1090" width="28" height="28" transform="rotate(0,488,1104)"/><path d="M 558 1090v 28h 14a 14 14, 0, 0, 0, 0 -28" transform="rotate(180,572,1104)"/><path d="M 586 1090v 28h 28v -14a 14 14, 0, 0, 0, -14 -14" transform="rotate(90,600,1104)"/><path d="M 670 1090v 28h 28v -14a 14 14, 0, 0, 0, -14 -14" transform="rotate(-90,684,1104)"/><rect x="698" y="1090" width="28" height="28" transform="rotate(0,712,1104)"/><rect x="726" y="1090" width="28" height="28" transform="rotate(0,740,1104)"/><path d="M 754 1090v 28h 14a 14 14, 0, 0, 0, 0 -28" transform="rotate(0,768,1104)"/><path d="M 838 1090v 28h 14a 14 14, 0, 0, 0, 0 -28" transform="rotate(-90,852,1104)"/><circle cx="908" cy="1104" r="14" transform="rotate(0,908,1104)"/><path d="M 1034 1090v 28h 14a 14 14, 0, 0, 0, 0 -28" transform="rotate(90,1048,1104)"/><rect x="1118" y="1090" width="28" height="28" transform="rotate(0,1132,1104)"/><path d="M 1146 1090v 28h 28v -14a 14 14, 0, 0, 0, -14 -14" transform="rotate(90,1160,1104)"/><circle cx="264" cy="1132" r="14" transform="rotate(0,264,1132)"/><path d="M 334 1118v 28h 14a 14 14, 0, 0, 0, 0 -28" transform="rotate(-90,348,1132)"/><path d="M 446 1118v 28h 14a 14 14, 0, 0, 0, 0 -28" transform="rotate(180,460,1132)"/><rect x="474" y="1118" width="28" height="28" transform="rotate(0,488,1132)"/><path d="M 614 1118v 28h 14a 14 14, 0, 0, 0, 0 -28" transform="rotate(-90,628,1132)"/><path d="M 670 1118v 28h 28v -14a 14 14, 0, 0, 0, -14 -14" transform="rotate(180,684,1132)"/><rect x="698" y="1118" width="28" height="28" transform="rotate(0,712,1132)"/><path d="M 726 1118v 28h 28v -14a 14 14, 0, 0, 0, -14 -14" transform="rotate(90,740,1132)"/><rect x="838" y="1118" width="28" height="28" transform="rotate(0,852,1132)"/><path d="M 922 1118v 28h 14a 14 14, 0, 0, 0, 0 -28" transform="rotate(-90,936,1132)"/><path d="M 978 1118v 28h 28v -14a 14 14, 0, 0, 0, -14 -14" transform="rotate(-90,992,1132)"/><path d="M 1006 1118v 28h 28v -14a 14 14, 0, 0, 0, -14 -14" transform="rotate(0,1020,1132)"/><rect x="1118" y="1118" width="28" height="28" transform="rotate(0,1132,1132)"/><circle cx="292" cy="1160" r="14" transform="rotate(0,292,1160)"/><path d="M 334 1146v 28h 28v -14a 14 14, 0, 0, 0, -14 -14" transform="rotate(180,348,1160)"/><path d="M 362 1146v 28h 14a 14 14, 0, 0, 0, 0 -28" transform="rotate(0,376,1160)"/><path d="M 474 1146v 28h 28v -14a 14 14, 0, 0, 0, -14 -14" transform="rotate(180,488,1160)"/><rect x="502" y="1146" width="28" height="28" transform="rotate(0,516,1160)"/><rect x="530" y="1146" width="28" height="28" transform="rotate(0,544,1160)"/><rect x="558" y="1146" width="28" height="28" transform="rotate(0,572,1160)"/><rect x="586" y="1146" width="28" height="28" transform="rotate(0,600,1160)"/><path d="M 614 1146v 28h 28v -14a 14 14, 0, 0, 0, -14 -14" transform="rotate(90,628,1160)"/><path d="M 698 1146v 28h 14a 14 14, 0, 0, 0, 0 -28" transform="rotate(90,712,1160)"/><path d="M 810 1146v 28h 14a 14 14, 0, 0, 0, 0 -28" transform="rotate(180,824,1160)"/><path d="M 838 1146v 28h 28v -14a 14 14, 0, 0, 0, -14 -14" transform="rotate(90,852,1160)"/><path d="M 922 1146v 28h 14a 14 14, 0, 0, 0, 0 -28" transform="rotate(90,936,1160)"/><path d="M 978 1146v 28h 28v -14a 14 14, 0, 0, 0, -14 -14" transform="rotate(180,992,1160)"/><rect x="1006" y="1146" width="28" height="28" transform="rotate(0,1020,1160)"/><rect x="1034" y="1146" width="28" height="28" transform="rotate(0,1048,1160)"/><path d="M 1062 1146v 28h 14a 14 14, 0, 0, 0, 0 -28" transform="rotate(0,1076,1160)"/><path d="M 1118 1146v 28h 14a 14 14, 0, 0, 0, 0 -28" transform="rotate(90,1132,1160)"/></clipPath><clipPath id="clip-path-corners-square-color-0-0-179"><path clip-rule="evenodd" d="M 26 96v 56a 70 70, 0, 0, 0, 70 70h 56a 70 70, 0, 0, 0, 70 -70v -56a 70 70, 0, 0, 0, -70 -70h -56a 70 70, 0, 0, 0, -70 70M 96 54h 56a 42 42, 0, 0, 1, 42 42v 56a 42 42, 0, 0, 1, -42 42h -56a 42 42, 0, 0, 1, -42 -42v -56a 42 42, 0, 0, 1, 42 -42" transform="rotate(0,124,124)"/></clipPath><clipPath id="clip-path-corners-dot-color-0-0-179"><circle cx="124" cy="124" r="42" transform="rotate(0,124,124)"/></clipPath><clipPath id="clip-path-corners-square-color-1-0-179"><path clip-rule="evenodd" d="M 978 96v 56a 70 70, 0, 0, 0, 70 70h 56a 70 70, 0, 0, 0, 70 -70v -56a 70 70, 0, 0, 0, -70 -70h -56a 70 70, 0, 0, 0, -70 70M 1048 54h 56a 42 42, 0, 0, 1, 42 42v 56a 42 42, 0, 0, 1, -42 42h -56a 42 42, 0, 0, 1, -42 -42v -56a 42 42, 0, 0, 1, 42 -42" transform="rotate(90,1076,124)"/></clipPath><clipPath id="clip-path-corners-dot-color-1-0-179"><circle cx="1076" cy="124" r="42" transform="rotate(90,1076,124)"/></clipPath><clipPath id="clip-path-corners-square-color-0-1-179"><path clip-rule="evenodd" d="M 26 1048v 56a 70 70, 0, 0, 0, 70 70h 56a 70 70, 0, 0, 0, 70 -70v -56a 70 70, 0, 0, 0, -70 -70h -56a 70 70, 0, 0, 0, -70 70M 96 1006h 56a 42 42, 0, 0, 1, 42 42v 56a 42 42, 0, 0, 1, -42 42h -56a 42 42, 0, 0, 1, -42 -42v -56a 42 42, 0, 0, 1, 42 -42" transform="rotate(-90,124,1076)"/></clipPath><clipPath id="clip-path-corners-dot-color-0-1-179"><circle cx="124" cy="1076" r="42" transform="rotate(-90,124,1076)"/></clipPath></defs><rect x="0" y="0" height="1200" width="1200" clip-path="url('#clip-path-background-color-179')" fill="#ffffff"/><rect x="0" y="0" height="1200" width="1200" clip-path="url('#clip-path-dot-color-179')" fill="#000000"/><rect x="26" y="26" height="196" width="196" clip-path="url('#clip-path-corners-square-color-0-0-179')" fill="#000000"/><rect x="82" y="82" height="84" width="84" clip-path="url('#clip-path-corners-dot-color-0-0-179')" fill="#000000"/><rect x="978" y="26" height="196" width="196" clip-path="url('#clip-path-corners-square-color-1-0-179')" fill="#000000"/><rect x="1034" y="82" height="84" width="84" clip-path="url('#clip-path-corners-dot-color-1-0-179')" fill="#000000"/><rect x="26" y="978" height="196" width="196" clip-path="url('#clip-path-corners-square-color-0-1-179')" fill="#000000"/><rect x="82" y="1034" height="84" width="84" clip-path="url('#clip-path-corners-dot-color-0-1-179')" fill="#000000"/></svg>