<?xml version="1.0" standalone="no"?>
<svg xmlns="http://www.w3.org/2000/svg" width="1200" height="1200" xmlns:xlink="http://www.w3.org/1999/xlink" viewBox="0 0 1200 1200"><defs><clipPath id="clip-path-background-color-175"><rect x="0" y="0" width="1200" height="1200"/></clipPath><clipPath id="clip-path-dot-color-175"><path d="M 250 26v 28h 14a 14 14, 0, 0, 0, 0 -28" transform="rotate(180,264,40)"/><path d="M 278 26v 28h 28v -14a 14 14, 0, 0, 0, -14 -14" transform="rotate(0,292,40)"/><path d="M 334 26v 28h 14a 14 14, 0, 0, 0, 0 -28" transform="rotate(-90,348,40)"/><circle cx="404" cy="40" r="14" transform="rotate(0,404,40)"/><path d="M 474 26v 28h 14a 14 14, 0, 0, 0, 0 -28" transform="rotate(180,488,40)"/><rect x="502" y="26" width="28" height="28" transform="rotate(0,516,40)"/><path d="M 530 26v 28h 14a 14 14, 0, 0, 0, 0 -28" transform="rotate(0,544,40)"/><path d="M 586 26v 28h 14a 14 14, 0, 0, 0, 0 -28" transform="rotate(180,600,40)"/><path d="M 614 26v 28h 14a 14 14, 0, 0, 0, 0 -28" transform="rotate(0,628,40)"/><path d="M 670 26v 28h 14a 14 14, 0, 0, 0, 0 -28" transform="rotate(180,684,40)"/><path d="M 698 26v 28h 28v -14a 14 14, 0, 0, 0, -14 -14" transform="rotate(0,712,40)"/><path d="M 810 26v 28h 14a 14 14, 0, 0, 0, 0 -28" transform="rotate(180,824,40)"/><rect x="838" y="26" width="28" height="28" transform="rotate(0,852,40)"/><rect x="866" y="26" width="28" height="28" transform="rotate(0,880,40)"/><path d="M 894 26v 28h 14a 14 14, 0, 0, 0, 0 -28" transform="rotate(0,908,40)"/><path d="M 278 54v 28h 28v -14a 14 14, 0, 0, 0, -14 -14" transform="rotate(180,292,68)"/><rect x="306" y="54" width="28" height="28" transform="rotate(0,320,68)"/><rect x="334" y="54" width="28" height="28" transform="rotate(0,348,68)"/><path d="M 502 54v 28h 14a 14 14, 0, 0, 0, 0 -28" transform="rotate(90,516,68)"/><circle cx="572" cy="68" r="14" transform="rotate(0,572,68)"/><path d="M 642 54v 28h 14a 14 14, 0, 0, 0, 0 -28" transform="rotate(-90,656,68)"/><rect x="698" y="54" width="28" height="28" transform="rotate(0,712,68)"/><circle cx="796" cy="68" r="14" transform="rotate(0,796,68)"/><rect x="838" y="54" width="28" height="28" transform="rotate(0,852,68)"/><path d="M 922 54v 28h 14a 14 14, 0, 0, 0, 0 -28" transform="rotate(-90,936,68)"/><path d="M 306 82v 28h 28v -14a 14 14, 0, 0, 0, -14 -14" transform="rotate(180,320,96)"/><rect x="334" y="82" width="28" height="28" transform="rotate(0,348,96)"/><rect x="362" y="82" width="28" height="28" transform="rotate(0,376,96)"/><rect x="390" y="82" width="28" height="28" transform="rotate(0,404,96)"/><rect x="418" y="82" width="28" height="28" transform="rotate(0,432,96)"/><path d="M 446 82v 28h 14a 14 14, 0, 0, 0, 0 -28" transform="rotate(0,460,96)"/><circle cx="544" cy="96" r="14" transform="rotate(0,544,96)"/><path d="M 642 82v 28h 14a 14 14, 0, 0, 0, 0 -28" transform="rotate(90,656,96)"/><rect x="698" y="82" width="28" height="28" transform="rotate(0,712,96)"/><circle cx="768" cy="96" r="14" transform="rotate(0,768,96)"/><path d="M 810 82v 28h 14a 14 14, 0, 0, 0, 0 -28" transform="rotate(180,824,96)"/><rect x="838" y="82" width="28" height="28" transform="rotate(0,852,96)"/><path d="M 866 82v 28h 14a 14 14, 0, 0, 0, 0 -28" transform="rotate(0,880,96)"/><rect x="922" y="82" width="28" height="28" transform="rotate(0,936,96)"/><rect x="362" y="110" width="28" height="28" transform="rotate(0,376,124)"/><path d="M 558 110v 28h 14a 14 14, 0, 0, 0, 0 -28" transform="rotate(180,572,124)"/><path d="M 586 110v 28h 14a 14 14, 0, 0, 0, 0 -28" transform="rotate(0,600,124)"/><path d="M 670 110v 28h 14a 14 14, 0, 0, 0, 0 -28" transform="rotate(180,684,124)"/><path d="M 698 110v 28h 28v -14a 14 14, 0, 0, 0, -14 -14" transform="rotate(90,712,124)"/><rect x="922" y="110" width="28" height="28" transform="rotate(0,936,124)"/><path d="M 250 138v 28h 14a 14 14, 0, 0, 0, 0 -28" transform="rotate(-90,264,152)"/><path d="M 334 138v 28h 14a 14 14, 0, 0, 0, 0 -28" transform="rotate(180,348,152)"/><rect x="362" y="138" width="28" height="28" transform="rotate(0,376,152)"/><path d="M 446 138v 28h 14a 14 14, 0, 0, 0, 0 -28" transform="rotate(180,460,152)"/><path d="M 474 138v 28h 14a 14 14, 0, 0, 0, 0 -28" transform="rotate(0,488,152)"/><circle cx="628" cy="152" r="14" transform="rotate(0,628,152)"/><circle cx="768" cy="152" r="14" transform="rotate(0,768,152)"/><circle cx="824" cy="152" r="14" transform="rotate(0,824,152)"/><path d="M 866 138v 28h 28v -14a 14 14, 0, 0, 0, -14 -14" transform="rotate(-90,880,152)"/><rect x="894" y="138" width="28" height="28" transform="rotate(0,908,152)"/><rect x="922" y="138" width="28" height="28" transform="rotate(0,936,152)"/><rect x="250" y="166" width="28" height="28" transform="rotate(0,264,180)"/><rect x="278" y="166" width="28" height="28" transform="rotate(0,292,180)"/><path d="M 306 166v 28h 28v -14a 14 14, 0, 0, 0, -14 -14" transform="rotate(0,320,180)"/><rect x="362" y="166" width="28" height="28" transform="rotate(0,376,180)"/><path d="M 502 166v 28h 14a 14 14, 0, 0, 0, 0 -28" transform="rotate(180,516,180)"/><path d="M 530 166v 28h 28v -14a 14 14, 0, 0, 0, -14 -14" transform="rotate(0,544,180)"/><path d="M 698 166v 28h 28v -14a 14 14, 0, 0, 0, -14 -14" transform="rotate(-90,712,180)"/><path d="M 726 166v 28h 14a 14 14, 0, 0, 0, 0 -28" transform="rotate(0,740,180)"/><circle cx="796" cy="180" r="14" transform="rotate(0,796,180)"/><path d="M 838 166v 28h 14a 14 14, 0, 0, 0, 0 -28" transform="rotate(180,852,180)"/><rect x="866" y="166" width="28" height="28" transform="rotate(0,880,180)"/><rect x="922" y="166" width="28" height="28" transform="rotate(0,936,180)"/><path d="M 250 194v 28h 14a 14 14, 0, 0, 0, 0 -28" transform="rotate(90,264,208)"/><rect x="306" y="194" width="28" height="28" transform="rotate(0,320,208)"/><path d="M 362 194v 28h 14a 14 14, 0, 0, 0, 0 -28" transform="rotate(90,376,208)"/><circle cx="432" cy="208" r="14" transform="rotate(0,432,208)"/><path d="M 474 194v 28h 14a 14 14, 0, 0, 0, 0 -28" transform="rotate(-90,488,208)"/><rect x="530" y="194" width="28" height="28" transform="rotate(0,544,208)"/><path d="M 586 194v 28h 14a 14 14, 0, 0, 0, 0 -28" transform="rotate(-90,600,208)"/><path d="M 642 194v 28h 14a 14 14, 0, 0, 0, 0 -28" transform="rotate(-90,656,208)"/><path d="M 698 194v 28h 14a 14 14, 0, 0, 0, 0 -28" transform="rotate(90,712,208)"/><circle cx="768" cy="208" r="14" transform="rotate(0,768,208)"/><circle cx="824" cy="208" r="14" transform="rotate(0,824,208)"/><path d="M 866 194v 28h 14a 14 14, 0, 0, 0, 0 -28" transform="rotate(90,880,208)"/><rect x="922" y="194" width="28" height="28" transform="rotate(0,936,208)"/><path d="M 306 222v 28h 14a 14 14, 0, 0, 0, 0 -28" transform="rotate(90,320,236)"/><circle cx="404" cy="236" r="14" transform="rotate(0,404,236)"/><path d="M 474 222v 28h 28v -14a 14 14, 0, 0, 0, -14 -14" transform="rotate(180,488,236)"/><rect x="502" y="222" width="28" height="28" transform="rotate(0,516,236)"/><rect x="530" y="222" width="28" height="28" transform="rotate(0,544,236)"/><rect x="558" y="222" width="28" height="28" transform="rotate(0,572,236)"/><path d="M 586 222v 28h 28v -14a 14 14, 0, 0, 0, -14 -14" transform="rotate(90,600,236)"/><path d="M 642 222v 28h 28v -14a 14 14, 0, 0, 0, -14 -14" transform="rotate(180,656,236)"/><path d="M 670 222v 28h 14a 14 14, 0, 0, 0, 0 -28" transform="rotate(0,684,236)"/><path d="M 922 222v 28h 14a 14 14, 0, 0, 0, 0 -28" transform="rotate(90,936,236)"/><path d="M 54 250v 28h 28v -14a 14 14, 0, 0, 0, -14 -14" transform="rotate(-90,68,264)"/><rect x="82" y="250" width="28" height="28" transform="rotate(0,96,264)"/><rect x="110" y="250" width="28" height="28" transform="rotate(0,124,264)"/><rect x="138" y="250" width="28" height="28" transform="rotate(0,152,264)"/><rect x="166" y="250" width="28" height="28" transform="rotate(0,180,264)"/><rect x="194" y="250" width="28" height="28" transform="rotate(0,208,264)"/><path d="M 222 250v 28h 28v -14a 14 14, 0, 0, 0, -14 -14" transform="rotate(0,236,264)"/><circle cx="292" cy="264" r="14" transform="rotate(0,292,264)"/><path d="M 362 250v 28h 14a 14 14, 0, 0, 0, 0 -28" transform="rotate(-90,376,264)"/><path d="M 418 250v 28h 14a 14 14, 0, 0, 0, 0 -28" transform="rotate(-90,432,264)"/><path d="M 502 250v 28h 28v -14a 14 14, 0, 0, 0, -14 -14" transform="rotate(180,516,264)"/><rect x="530" y="250" width="28" height="28" transform="rotate(0,544,264)"/><path d="M 698 250v 28h 14a 14 14, 0, 0, 0, 0 -28" transform="rotate(180,712,264)"/><rect x="726" y="250" width="28" height="28" transform="rotate(0,740,264)"/><rect x="754" y="250" width="28" height="28" transform="rotate(0,768,264)"/><rect x="782" y="250" width="28" height="28" transform="rotate(0,796,264)"/><rect x="810" y="250" width="28" height="28" transform="rotate(0,824,264)"/><path d="M 838 250v 28h 14a 14 14, 0, 0, 0, 0 -28" transform="rotate(0,852,264)"/><path d="M 1006 250v 28h 14a 14 14, 0, 0, 0, 0 -28" transform="rotate(180,1020,264)"/><path d="M 1034 250v 28h 28v -14a 14 14, 0, 0, 0, -14 -14" transform="rotate(0,1048,264)"/><path d="M 1146 250v 28h 14a 14 14, 0, 0, 0, 0 -28" transform="rotate(-90,1160,264)"/><path d="M 26 278v 28h 14a 14 14, 0, 0, 0, 0 -28" transform="rotate(180,40,292)"/><path d="M 54 278v 28h 28v -14a 14 14, 0, 0, 0, -14 -14" transform="rotate(90,68,292)"/><path d="M 166 278v 28h 14a 14 14, 0, 0, 0, 0 -28" transform="rotate(90,180,292)"/><path d="M 222 278v 28h 14a 14 14, 0, 0, 0, 0 -28" transform="rotate(90,236,292)"/><path d="M 306 278v 28h 14a 14 14, 0, 0, 0, 0 -28" transform="rotate(-90,320,292)"/><rect x="362" y="278" width="28" height="28" transform="rotate(0,376,292)"/><rect x="418" y="278" width="28" height="28" transform="rotate(0,432,292)"/><circle cx="488" cy="292" r="14" transform="rotate(0,488,292)"/><rect x="530" y="278" width="28" height="28" transform="rotate(0,544,292)"/><path d="M 586 278v 28h 14a 14 14, 0, 0, 0, 0 -28" transform="rotate(-90,600,292)"/><circle cx="684" cy="292" r="14" transform="rotate(0,684,292)"/><rect x="810" y="278" width="28" height="28" transform="rotate(0,824,292)"/><path d="M 894 278v 28h 14a 14 14, 0, 0, 0, 0 -28" transform="rotate(180,908,292)"/><rect x="922" y="278" width="28" height="28" transform="rotate(0,936,292)"/><rect x="950" y="278" width="28" height="28" transform="rotate(0,964,292)"/><path d="M 978 278v 28h 28v -14a 14 14, 0, 0, 0, -14 -14" transform="rotate(0,992,292)"/><path d="M 1034 278v 28h 14a 14 14, 0, 0, 0, 0 -28" transform="rotate(90,1048,292)"/><path d="M 1090 278v 28h 14a 14 14, 0, 0, 0, 0 -28" transform="rotate(180,1104,292)"/><rect x="1118" y="278" width="28" height="28" transform="rotate(0,1132,292)"/><path d="M 1146 278v 28h 28v -14a 14 14, 0, 0, 0, -14 -14" transform="rotate(90,1160,292)"/><path d="M 110 306v 28h 14a 14 14, 0, 0, 0, 0 -28" transform="rotate(-90,124,320)"/><circle cx="208" cy="320" r="14" transform="rotate(0,208,320)"/><path d="M 250 306v 28h 14a 14 14, 0, 0, 0, 0 -28" transform="rotate(-90,264,320)"/><path d="M 306 306v 28h 14a 14 14, 0, 0, 0, 0 -28" transform="rotate(90,320,320)"/><rect x="362" y="306" width="28" height="28" transform="rotate(0,376,320)"/><rect x="390" y="306" width="28" height="28" transform="rotate(0,404,320)"/><rect x="418" y="306" width="28" height="28" transform="rotate(0,432,320)"/><path d="M 446 306v 28h 14a 14 14, 0, 0, 0, 0 -28" transform="rotate(0,460,320)"/><rect x="530" y="306" width="28" height="28" transform="rotate(0,544,320)"/><rect x="558" y="306" width="28" height="28" transform="rotate(0,572,320)"/><path d="M 586 306v 28h 28v -14a 14 14, 0, 0, 0, -14 -14" transform="rotate(90,600,320)"/><path d="M 754 306v 28h 14a 14 14, 0, 0, 0, 0 -28" transform="rotate(180,768,320)"/><rect x="782" y="306" width="28" height="28" transform="rotate(0,796,320)"/><rect x="810" y="306" width="28" height="28" transform="rotate(0,824,320)"/><rect x="838" y="306" width="28" height="28" transform="rotate(0,852,320)"/><path d="M 866 306v 28h 28v -14a 14 14, 0, 0, 0, -14 -14" transform="rotate(0,880,320)"/><rect x="922" y="306" width="28" height="28" transform="rotate(0,936,320)"/><rect x="950" y="306" width="28" height="28" transform="rotate(0,964,320)"/><rect x="978" y="306" width="28" height="28" transform="rotate(0,992,320)"/><path d="M 1006 306v 28h 14a 14 14, 0, 0, 0, 0 -28" transform="rotate(0,1020,320)"/><circle cx="40" cy="348" r="14" transform="rotate(0,40,348)"/><path d="M 82 334v 28h 14a 14 14, 0, 0, 0, 0 -28" transform="rotate(180,96,348)"/><rect x="110" y="334" width="28" height="28" transform="rotate(0,124,348)"/><rect x="138" y="334" width="28" height="28" transform="rotate(0,152,348)"/><path d="M 166 334v 28h 28v -14a 14 14, 0, 0, 0, -14 -14" transform="rotate(0,180,348)"/><path d="M 222 334v 28h 14a 14 14, 0, 0, 0, 0 -28" transform="rotate(180,236,348)"/><rect x="250" y="334" width="28" height="28" transform="rotate(0,264,348)"/><path d="M 278 334v 28h 14a 14 14, 0, 0, 0, 0 -28" transform="rotate(0,292,348)"/><path d="M 334 334v 28h 28v -14a 14 14, 0, 0, 0, -14 -14" transform="rotate(-90,348,348)"/><path d="M 362 334v 28h 28v -14a 14 14, 0, 0, 0, -14 -14" transform="rotate(90,376,348)"/><path d="M 418 334v 28h 14a 14 14, 0, 0, 0, 0 -28" transform="rotate(90,432,348)"/><path d="M 502 334v 28h 28v -14a 14 14, 0, 0, 0, -14 -14" transform="rotate(-90,516,348)"/><path d="M 530 334v 28h 28v -14a 14 14, 0, 0, 0, -14 -14" transform="rotate(90,544,348)"/><path d="M 614 334v 28h 28v -14a 14 14, 0, 0, 0, -14 -14" transform="rotate(-90,628,348)"/><rect x="642" y="334" width="28" height="28" transform="rotate(0,656,348)"/><rect x="670" y="334" width="28" height="28" transform="rotate(0,684,348)"/><path d="M 698 334v 28h 14a 14 14, 0, 0, 0, 0 -28" transform="rotate(0,712,348)"/><rect x="782" y="334" width="28" height="28" transform="rotate(0,796,348)"/><path d="M 810 334v 28h 28v -14a 14 14, 0, 0, 0, -14 -14" transform="rotate(90,824,348)"/><path d="M 866 334v 28h 28v -14a 14 14, 0, 0, 0, -14 -14" transform="rotate(180,880,348)"/><rect x="894" y="334" width="28" height="28" transform="rotate(0,908,348)"/><rect x="922" y="334" width="28" height="28" transform="rotate(0,936,348)"/><path d="M 950 334v 28h 28v -14a 14 14, 0, 0, 0, -14 -14" transform="rotate(90,964,348)"/><path d="M 1034 334v 28h 14a 14 14, 0, 0, 0, 0 -28" transform="rotate(180,1048,348)"/><path d="M 1062 334v 28h 28v -14a 14 14, 0, 0, 0, -14 -14" transform="rotate(0,1076,348)"/><path d="M 1118 334v 28h 28v -14a 14 14, 0, 0, 0, -14 -14" transform="rotate(-90,1132,348)"/><path d="M 1146 334v 28h 14a 14 14, 0, 0, 0, 0 -28" transform="rotate(0,1160,348)"/><path d="M 138 362v 28h 28v -14a 14 14, 0, 0, 0, -14 -14" transform="rotate(180,152,376)"/><rect x="166" y="362" width="28" height="28" transform="rotate(0,180,376)"/><path d="M 194 362v 28h 14a 14 14, 0, 0, 0, 0 -28" transform="rotate(0,208,376)"/><rect x="250" y="362" width="28" height="28" transform="rotate(0,264,376)"/><path d="M 334 362v 28h 14a 14 14, 0, 0, 0, 0 -28" transform="rotate(90,348,376)"/><path d="M 390 362v 28h 14a 14 14, 0, 0, 0, 0 -28" transform="rotate(-90,404,376)"/><rect x="502" y="362" width="28" height="28" transform="rotate(0,516,376)"/><path d="M 558 362v 28h 28v -14a 14 14, 0, 0, 0, -14 -14" transform="rotate(-90,572,376)"/><rect x="586" y="362" width="28" height="28" transform="rotate(0,600,376)"/><path d="M 614 362v 28h 28v -14a 14 14, 0, 0, 0, -14 -14" transform="rotate(90,628,376)"/><circle cx="740" cy="376" r="14" transform="rotate(0,740,376)"/><rect x="782" y="362" width="28" height="28" transform="rotate(0,796,376)"/><path d="M 838 362v 28h 14a 14 14, 0, 0, 0, 0 -28" transform="rotate(-90,852,376)"/><path d="M 894 362v 28h 14a 14 14, 0, 0, 0, 0 -28" transform="rotate(90,908,376)"/><path d="M 1062 362v 28h 28v -14a 14 14, 0, 0, 0, -14 -14" transform="rotate(180,1076,376)"/><rect x="1090" y="362" width="28" height="28" transform="rotate(0,1104,376)"/><rect x="1118" y="362" width="28" height="28" transform="rotate(0,1132,376)"/><path d="M 26 390v 28h 28v -14a 14 14, 0, 0, 0, -14 -14" transform="rotate(-90,40,404)"/><path d="M 54 390v 28h 28v -14a 14 14, 0, 0, 0, -14 -14" transform="rotate(0,68,404)"/><circle cx="124" cy="404" r="14" transform="rotate(0,124,404)"/><path d="M 166 390v 28h 14a 14 14, 0, 0, 0, 0 -28" transform="rotate(90,180,404)"/><path d="M 222 390v 28h 28v -14a 14 14, 0, 0, 0, -14 -14" transform="rotate(-90,236,404)"/><rect x="250" y="390" width="28" height="28" transform="rotate(0,264,404)"/><circle cx="320" cy="404" r="14" transform="rotate(0,320,404)"/><rect x="390" y="390" width="28" height="28" transform="rotate(0,404,404)"/><circle cx="460" cy="404" r="14" transform="rotate(0,460,404)"/><rect x="502" y="390" width="28" height="28" transform="rotate(0,516,404)"/><path d="M 558 390v 28h 14a 14 14, 0, 0, 0, 0 -28" transform="rotate(90,572,404)"/><path d="M 642 390v 28h 14a 14 14, 0, 0, 0, 0 -28" transform="rotate(-90,656,404)"/><circle cx="712" cy="404" r="14" transform="rotate(0,712,404)"/><path d="M 782 390v 28h 28v -14a 14 14, 0, 0, 0, -14 -14" transform="rotate(180,796,404)"/><rect x="810" y="390" width="28" height="28" transform="rotate(0,824,404)"/><path d="M 838 390v 28h 28v -14a 14 14, 0, 0, 0, -14 -14" transform="rotate(90,852,404)"/><path d="M 950 390v 28h 28v -14a 14 14, 0, 0, 0, -14 -14" transform="rotate(-90,964,404)"/><rect x="978" y="390" width="28" height="28" transform="rotate(0,992,404)"/><rect x="1006" y="390" width="28" height="28" transform="rotate(0,1020,404)"/><path d="M 1034 390v 28h 14a 14 14, 0, 0, 0, 0 -28" transform="rotate(0,1048,404)"/><path d="M 1118 390v 28h 28v -14a 14 14, 0, 0, 0, -14 -14" transform="rotate(180,1132,404)"/><path d="M 1146 390v 28h 14a 14 14, 0, 0, 0, 0 -28" transform="rotate(0,1160,404)"/><rect x="26" y="418" width="28" height="28" transform="rotate(0,40,432)"/><rect x="54" y="418" width="28" height="28" transform="rotate(0,68,432)"/><path d="M 82 418v 28h 28v -14a 14 14, 0, 0, 0, -14 -14" transform="rotate(0,96,432)"/><circle cx="152" cy="432" r="14" transform="rotate(0,152,432)"/><path d="M 194 418v 28h 14a 14 14, 0, 0, 0, 0 -28" transform="rotate(180,208,432)"/><rect x="222" y="418" width="28" height="28" transform="rotate(0,236,432)"/><path d="M 250 418v 28h 28v -14a 14 14, 0, 0, 0, -14 -14" transform="rotate(90,264,432)"/><path d="M 334 418v 28h 14a 14 14, 0, 0, 0, 0 -28" transform="rotate(-90,348,432)"/><rect x="390" y="418" width="28" height="28" transform="rotate(0,404,432)"/><rect x="502" y="418" width="28" height="28" transform="rotate(0,516,432)"/><path d="M 614 418v 28h 28v -14a 14 14, 0, 0, 0, -14 -14" transform="rotate(-90,628,432)"/><path d="M 642 418v 28h 28v -14a 14 14, 0, 0, 0, -14 -14" transform="rotate(90,656,432)"/><circle cx="740" cy="432" r="14" transform="rotate(0,740,432)"/><path d="M 950 418v 28h 14a 14 14, 0, 0, 0, 0 -28" transform="rotate(90,964,432)"/><rect x="1006" y="418" width="28" height="28" transform="rotate(0,1020,432)"/><path d="M 1062 418v 28h 28v -14a 14 14, 0, 0, 0, -14 -14" transform="rotate(-90,1076,432)"/><path d="M 1090 418v 28h 14a 14 14, 0, 0, 0, 0 -28" transform="rotate(0,1104,432)"/><rect x="26" y="446" width="28" height="28" transform="rotate(0,40,460)"/><rect x="54" y="446" width="28" height="28" transform="rotate(0,68,460)"/><path d="M 82 446v 28h 28v -14a 14 14, 0, 0, 0, -14 -14" transform="rotate(90,96,460)"/><circle cx="180" cy="460" r="14" transform="rotate(0,180,460)"/><path d="M 278 446v 28h 14a 14 14, 0, 0, 0, 0 -28" transform="rotate(180,292,460)"/><rect x="306" y="446" width="28" height="28" transform="rotate(0,320,460)"/><rect x="334" y="446" width="28" height="28" transform="rotate(0,348,460)"/><rect x="362" y="446" width="28" height="28" transform="rotate(0,376,460)"/><path d="M 390 446v 28h 28v -14a 14 14, 0, 0, 0, -14 -14" transform="rotate(90,404,460)"/><rect x="502" y="446" width="28" height="28" transform="rotate(0,516,460)"/><path d="M 586 446v 28h 14a 14 14, 0, 0, 0, 0 -28" transform="rotate(180,600,460)"/><path d="M 614 446v 28h 28v -14a 14 14, 0, 0, 0, -14 -14" transform="rotate(90,628,460)"/><path d="M 698 446v 28h 14a 14 14, 0, 0, 0, 0 -28" transform="rotate(-90,712,460)"/><path d="M 754 446v 28h 14a 14 14, 0, 0, 0, 0 -28" transform="rotate(-90,768,460)"/><circle cx="824" cy="460" r="14" transform="rotate(0,824,460)"/><circle cx="936" cy="460" r="14" transform="rotate(0,936,460)"/><path d="M 978 446v 28h 14a 14 14, 0, 0, 0, 0 -28" transform="rotate(180,992,460)"/><rect x="1006" y="446" width="28" height="28" transform="rotate(0,1020,460)"/><path d="M 1062 446v 28h 14a 14 14, 0, 0, 0, 0 -28" transform="rotate(90,1076,460)"/><circle cx="1160" cy="460" r="14" transform="rotate(0,1160,460)"/><rect x="26" y="474" width="28" height="28" transform="rotate(0,40,488)"/><circle cx="208" cy="488" r="14" transform="rotate(0,208,488)"/><path d="M 250 474v 28h 14a 14 14, 0, 0, 0, 0 -28" transform="rotate(-90,264,488)"/><path d="M 306 474v 28h 28v -14a 14 14, 0, 0, 0, -14 -14" transform="rotate(180,320,488)"/><rect x="334" y="474" width="28" height="28" transform="rotate(0,348,488)"/><circle cx="432" cy="488" r="14" transform="rotate(0,432,488)"/><path d="M 474 474v 28h 28v -14a 14 14, 0, 0, 0, -14 -14" transform="rotate(-90,488,488)"/><rect x="502" y="474" width="28" height="28" transform="rotate(0,516,488)"/><rect x="530" y="474" width="28" height="28" transform="rotate(0,544,488)"/><path d="M 558 474v 28h 28v -14a 14 14, 0, 0, 0, -14 -14" transform="rotate(0,572,488)"/><circle cx="656" cy="488" r="14" transform="rotate(0,656,488)"/><path d="M 698 474v 28h 28v -14a 14 14, 0, 0, 0, -14 -14" transform="rotate(180,712,488)"/><rect x="726" y="474" width="28" height="28" transform="rotate(0,740,488)"/><path d="M 754 474v 28h 28v -14a 14 14, 0, 0, 0, -14 -14" transform="rotate(90,768,488)"/><circle cx="852" cy="488" r="14" transform="rotate(0,852,488)"/><circle cx="964" cy="488" r="14" transform="rotate(0,964,488)"/><rect x="1006" y="474" width="28" height="28" transform="rotate(0,1020,488)"/><path d="M 1090 474v 28h 14a 14 14, 0, 0, 0, 0 -28" transform="rotate(180,1104,488)"/><path d="M 1118 474v 28h 28v -14a 14 14, 0, 0, 0, -14 -14" transform="rotate(0,1132,488)"/><rect x="26" y="502" width="28" height="28" transform="rotate(0,40,516)"/><path d="M 54 502v 28h 28v -14a 14 14, 0, 0, 0, -14 -14" transform="rotate(0,68,516)"/><path d="M 138 502v 28h 28v -14a 14 14, 0, 0, 0, -14 -14" transform="rotate(-90,152,516)"/><path d="M 166 502v 28h 28v -14a 14 14, 0, 0, 0, -14 -14" transform="rotate(0,180,516)"/><path d="M 222 502v 28h 28v -14a 14 14, 0, 0, 0, -14 -14" transform="rotate(-90,236,516)"/><path d="M 250 502v 28h 28v -14a 14 14, 0, 0, 0, -14 -14" transform="rotate(90,264,516)"/><rect x="334" y="502" width="28" height="28" transform="rotate(0,348,516)"/><path d="M 362 502v 28h 14a 14 14, 0, 0, 0, 0 -28" transform="rotate(0,376,516)"/><path d="M 446 502v 28h 14a 14 14, 0, 0, 0, 0 -28" transform="rotate(180,460,516)"/><rect x="474" y="502" width="28" height="28" transform="rotate(0,488,516)"/><rect x="530" y="502" width="28" height="28" transform="rotate(0,544,516)"/><rect x="558" y="502" width="28" height="28" transform="rotate(0,572,516)"/><rect x="586" y="502" width="28" height="28" transform="rotate(0,600,516)"/><path d="M 614 502v 28h 14a 14 14, 0, 0, 0, 0 -28" transform="rotate(0,628,516)"/><circle cx="684" cy="516" r="14" transform="rotate(0,684,516)"/><rect x="726" y="502" width="28" height="28" transform="rotate(0,740,516)"/><path d="M 810 502v 28h 14a 14 14, 0, 0, 0, 0 -28" transform="rotate(-90,824,516)"/><path d="M 866 502v 28h 28v -14a 14 14, 0, 0, 0, -14 -14" transform="rotate(-90,880,516)"/><rect x="894" y="502" width="28" height="28" transform="rotate(0,908,516)"/><path d="M 922 502v 28h 14a 14 14, 0, 0, 0, 0 -28" transform="rotate(0,936,516)"/><path d="M 978 502v 28h 28v -14a 14 14, 0, 0, 0, -14 -14" transform="rotate(-90,992,516)"/><rect x="1006" y="502" width="28" height="28" transform="rotate(0,1020,516)"/><rect x="1034" y="502" width="28" height="28" transform="rotate(0,1048,516)"/><path d="M 1062 502v 28h 28v -14a 14 14, 0, 0, 0, -14 -14" transform="rotate(0,1076,516)"/><path d="M 1118 502v 28h 28v -14a 14 14, 0, 0, 0, -14 -14" transform="rotate(180,1132,516)"/><path d="M 1146 502v 28h 14a 14 14, 0, 0, 0, 0 -28" transform="rotate(0,1160,516)"/><rect x="26" y="530" width="28" height="28" transform="rotate(0,40,544)"/><rect x="54" y="530" width="28" height="28" transform="rotate(0,68,544)"/><rect x="138" y="530" width="28" height="28" transform="rotate(0,152,544)"/><rect x="166" y="530" width="28" height="28" transform="rotate(0,180,544)"/><rect x="194" y="530" width="28" height="28" transform="rotate(0,208,544)"/><path d="M 222 530v 28h 28v -14a 14 14, 0, 0, 0, -14 -14" transform="rotate(90,236,544)"/><path d="M 334 530v 28h 14a 14 14, 0, 0, 0, 0 -28" transform="rotate(90,348,544)"/><circle cx="432" cy="544" r="14" transform="rotate(0,432,544)"/><path d="M 474 530v 28h 14a 14 14, 0, 0, 0, 0 -28" transform="rotate(90,488,544)"/><path d="M 530 530v 28h 28v -14a 14 14, 0, 0, 0, -14 -14" transform="rotate(180,544,544)"/><path d="M 558 530v 28h 28v -14a 14 14, 0, 0, 0, -14 -14" transform="rotate(90,572,544)"/><circle cx="656" cy="544" r="14" transform="rotate(0,656,544)"/><path d="M 698 530v 28h 28v -14a 14 14, 0, 0, 0, -14 -14" transform="rotate(-90,712,544)"/><rect x="726" y="530" width="28" height="28" transform="rotate(0,740,544)"/><rect x="754" y="530" width="28" height="28" transform="rotate(0,768,544)"/><rect x="782" y="530" width="28" height="28" transform="rotate(0,796,544)"/><path d="M 810 530v 28h 28v -14a 14 14, 0, 0, 0, -14 -14" transform="rotate(90,824,544)"/><path d="M 866 530v 28h 14a 14 14, 0, 0, 0, 0 -28" transform="rotate(90,880,544)"/><path d="M 950 530v 28h 14a 14 14, 0, 0, 0, 0 -28" transform="rotate(180,964,544)"/><path d="M 978 530v 28h 28v -14a 14 14, 0, 0, 0, -14 -14" transform="rotate(90,992,544)"/><rect x="1034" y="530" width="28" height="28" transform="rotate(0,1048,544)"/><rect x="1062" y="530" width="28" height="28" transform="rotate(0,1076,544)"/><rect x="26" y="558" width="28" height="28" transform="rotate(0,40,572)"/><rect x="54" y="558" width="28" height="28" transform="rotate(0,68,572)"/><rect x="138" y="558" width="28" height="28" transform="rotate(0,152,572)"/><path d="M 250 558v 28h 28v -14a 14 14, 0, 0, 0, -14 -14" transform="rotate(-90,264,572)"/><path d="M 278 558v 28h 14a 14 14, 0, 0, 0, 0 -28" transform="rotate(0,292,572)"/><path d="M 502 558v 28h 14a 14 14, 0, 0, 0, 0 -28" transform="rotate(-90,516,572)"/><path d="M 586 558v 28h 28v -14a 14 14, 0, 0, 0, -14 -14" transform="rotate(-90,600,572)"/><path d="M 614 558v 28h 14a 14 14, 0, 0, 0, 0 -28" transform="rotate(0,628,572)"/><path d="M 670 558v 28h 14a 14 14, 0, 0, 0, 0 -28" transform="rotate(180,684,572)"/><rect x="698" y="558" width="28" height="28" transform="rotate(0,712,572)"/><path d="M 726 558v 28h 28v -14a 14 14, 0, 0, 0, -14 -14" transform="rotate(90,740,572)"/><path d="M 782 558v 28h 14a 14 14, 0, 0, 0, 0 -28" transform="rotate(90,796,572)"/><path d="M 1034 558v 28h 28v -14a 14 14, 0, 0, 0, -14 -14" transform="rotate(180,1048,572)"/><rect x="1062" y="558" width="28" height="28" transform="rotate(0,1076,572)"/><path d="M 1118 558v 28h 14a 14 14, 0, 0, 0, 0 -28" transform="rotate(180,1132,572)"/><path d="M 1146 558v 28h 28v -14a 14 14, 0, 0, 0, -14 -14" transform="rotate(0,1160,572)"/><path d="M 26 586v 28h 28v -14a 14 14, 0, 0, 0, -14 -14" transform="rotate(180,40,600)"/><rect x="54" y="586" width="28" height="28" transform="rotate(0,68,600)"/><path d="M 82 586v 28h 14a 14 14, 0, 0, 0, 0 -28" transform="rotate(0,96,600)"/><rect x="138" y="586" width="28" height="28" transform="rotate(0,152,600)"/><path d="M 194 586v 28h 14a 14 14, 0, 0, 0, 0 -28" transform="rotate(180,208,600)"/><rect x="222" y="586" width="28" height="28" transform="rotate(0,236,600)"/><path d="M 250 586v 28h 28v -14a 14 14, 0, 0, 0, -14 -14" transform="rotate(90,264,600)"/><circle cx="320" cy="600" r="14" transform="rotate(0,320,600)"/><circle cx="376" cy="600" r="14" transform="rotate(0,376,600)"/><path d="M 418 586v 28h 14a 14 14, 0, 0, 0, 0 -28" transform="rotate(-90,432,600)"/><path d="M 502 586v 28h 28v -14a 14 14, 0, 0, 0, -14 -14" transform="rotate(180,516,600)"/><rect x="530" y="586" width="28" height="28" transform="rotate(0,544,600)"/><rect x="558" y="586" width="28" height="28" transform="rotate(0,572,600)"/><rect x="586" y="586" width="28" height="28" transform="rotate(0,600,600)"/><path d="M 642 586v 28h 14a 14 14, 0, 0, 0, 0 -28" transform="rotate(-90,656,600)"/><rect x="698" y="586" width="28" height="28" transform="rotate(0,712,600)"/><circle cx="768" cy="600" r="14" transform="rotate(0,768,600)"/><path d="M 810 586v 28h 14a 14 14, 0, 0, 0, 0 -28" transform="rotate(-90,824,600)"/><path d="M 866 586v 28h 14a 14 14, 0, 0, 0, 0 -28" transform="rotate(180,880,600)"/><path d="M 894 586v 28h 28v -14a 14 14, 0, 0, 0, -14 -14" transform="rotate(0,908,600)"/><path d="M 1062 586v 28h 28v -14a 14 14, 0, 0, 0, -14 -14" transform="rotate(180,1076,600)"/><path d="M 1090 586v 28h 14a 14 14, 0, 0, 0, 0 -28" transform="rotate(0,1104,600)"/><rect x="1146" y="586" width="28" height="28" transform="rotate(0,1160,600)"/><rect x="138" y="614" width="28" height="28" transform="rotate(0,152,628)"/><path d="M 166 614v 28h 14a 14 14, 0, 0, 0, 0 -28" transform="rotate(0,180,628)"/><rect x="222" y="614" width="28" height="28" transform="rotate(0,236,628)"/><circle cx="292" cy="628" r="14" transform="rotate(0,292,628)"/><path d="M 390 614v 28h 14a 14 14, 0, 0, 0, 0 -28" transform="rotate(180,404,628)"/><rect x="418" y="614" width="28" height="28" transform="rotate(0,432,628)"/><rect x="446" y="614" width="28" height="28" transform="rotate(0,460,628)"/><path d="M 474 614v 28h 28v -14a 14 14, 0, 0, 0, -14 -14" transform="rotate(0,488,628)"/><path d="M 558 614v 28h 28v -14a 14 14, 0, 0, 0, -14 -14" transform="rotate(180,572,628)"/><rect x="586" y="614" width="28" height="28" transform="rotate(0,600,628)"/><rect x="614" y="614" width="28" height="28" transform="rotate(0,628,628)"/><rect x="642" y="614" width="28" height="28" transform="rotate(0,656,628)"/><rect x="670" y="614" width="28" height="28" transform="rotate(0,684,628)"/><rect x="698" y="614" width="28" height="28" transform="rotate(0,712,628)"/><rect x="810" y="614" width="28" height="28" transform="rotate(0,824,628)"/><path d="M 894 614v 28h 28v -14a 14 14, 0, 0, 0, -14 -14" transform="rotate(180,908,628)"/><rect x="922" y="614" width="28" height="28" transform="rotate(0,936,628)"/><rect x="950" y="614" width="28" height="28" transform="rotate(0,964,628)"/><rect x="978" y="614" width="28" height="28" transform="rotate(0,992,628)"/><rect x="1006" y="614" width="28" height="28" transform="rotate(0,1020,628)"/><path d="M 1034 614v 28h 28v -14a 14 14, 0, 0, 0, -14 -14" transform="rotate(0,1048,628)"/><path d="M 1118 614v 28h 14a 14 14, 0, 0, 0, 0 -28" transform="rotate(180,1132,628)"/><path d="M 1146 614v 28h 28v -14a 14 14, 0, 0, 0, -14 -14" transform="rotate(90,1160,628)"/><path d="M 110 642v 28h 28v -14a 14 14, 0, 0, 0, -14 -14" transform="rotate(-90,124,656)"/><rect x="138" y="642" width="28" height="28" transform="rotate(0,152,656)"/><path d="M 194 642v 28h 14a 14 14, 0, 0, 0, 0 -28" transform="rotate(180,208,656)"/><rect x="222" y="642" width="28" height="28" transform="rotate(0,236,656)"/><path d="M 250 642v 28h 28v -14a 14 14, 0, 0, 0, -14 -14" transform="rotate(0,264,656)"/><path d="M 334 642v 28h 28v -14a 14 14, 0, 0, 0, -14 -14" transform="rotate(-90,348,656)"/><path d="M 362 642v 28h 28v -14a 14 14, 0, 0, 0, -14 -14" transform="rotate(0,376,656)"/><path d="M 474 642v 28h 28v -14a 14 14, 0, 0, 0, -14 -14" transform="rotate(180,488,656)"/><rect x="502" y="642" width="28" height="28" transform="rotate(0,516,656)"/><path d="M 530 642v 28h 28v -14a 14 14, 0, 0, 0, -14 -14" transform="rotate(0,544,656)"/><path d="M 586 642v 28h 14a 14 14, 0, 0, 0, 0 -28" transform="rotate(90,600,656)"/><rect x="642" y="642" width="28" height="28" transform="rotate(0,656,656)"/><rect x="698" y="642" width="28" height="28" transform="rotate(0,712,656)"/><path d="M 754 642v 28h 28v -14a 14 14, 0, 0, 0, -14 -14" transform="rotate(-90,768,656)"/><rect x="782" y="642" width="28" height="28" transform="rotate(0,796,656)"/><path d="M 810 642v 28h 28v -14a 14 14, 0, 0, 0, -14 -14" transform="rotate(90,824,656)"/><path d="M 922 642v 28h 14a 14 14, 0, 0, 0, 0 -28" transform="rotate(90,936,656)"/><path d="M 978 642v 28h 28v -14a 14 14, 0, 0, 0, -14 -14" transform="rotate(180,992,656)"/><rect x="1006" y="642" width="28" height="28" transform="rotate(0,1020,656)"/><rect x="1034" y="642" width="28" height="28" transform="rotate(0,1048,656)"/><circle cx="1104" cy="656" r="14" transform="rotate(0,1104,656)"/><path d="M 26 670v 28h 14a 14 14, 0, 0, 0, 0 -28" transform="rotate(180,40,684)"/><rect x="54" y="670" width="28" height="28" transform="rotate(0,68,684)"/><rect x="82" y="670" width="28" height="28" transform="rotate(0,96,684)"/><rect x="110" y="670" width="28" height="28" transform="rotate(0,124,684)"/><rect x="138" y="670" width="28" height="28" transform="rotate(0,152,684)"/><path d="M 166 670v 28h 28v -14a 14 14, 0, 0, 0, -14 -14" transform="rotate(0,180,684)"/><path d="M 250 670v 28h 14a 14 14, 0, 0, 0, 0 -28" transform="rotate(90,264,684)"/><path d="M 306 670v 28h 28v -14a 14 14, 0, 0, 0, -14 -14" transform="rotate(-90,320,684)"/><rect x="334" y="670" width="28" height="28" transform="rotate(0,348,684)"/><rect x="362" y="670" width="28" height="28" transform="rotate(0,376,684)"/><rect x="390" y="670" width="28" height="28" transform="rotate(0,404,684)"/><path d="M 418 670v 28h 14a 14 14, 0, 0, 0, 0 -28" transform="rotate(0,432,684)"/><path d="M 502 670v 28h 28v -14a 14 14, 0, 0, 0, -14 -14" transform="rotate(180,516,684)"/><rect x="530" y="670" width="28" height="28" transform="rotate(0,544,684)"/><path d="M 558 670v 28h 14a 14 14, 0, 0, 0, 0 -28" transform="rotate(0,572,684)"/><path d="M 614 670v 28h 14a 14 14, 0, 0, 0, 0 -28" transform="rotate(180,628,684)"/><rect x="642" y="670" width="28" height="28" transform="rotate(0,656,684)"/><rect x="670" y="670" width="28" height="28" transform="rotate(0,684,684)"/><path d="M 698 670v 28h 28v -14a 14 14, 0, 0, 0, -14 -14" transform="rotate(90,712,684)"/><rect x="754" y="670" width="28" height="28" transform="rotate(0,768,684)"/><rect x="782" y="670" width="28" height="28" transform="rotate(0,796,684)"/><circle cx="908" cy="684" r="14" transform="rotate(0,908,684)"/><rect x="1006" y="670" width="28" height="28" transform="rotate(0,1020,684)"/><rect x="1034" y="670" width="28" height="28" transform="rotate(0,1048,684)"/><path d="M 1062 670v 28h 14a 14 14, 0, 0, 0, 0 -28" transform="rotate(0,1076,684)"/><path d="M 1118 670v 28h 14a 14 14, 0, 0, 0, 0 -28" transform="rotate(-90,1132,684)"/><path d="M 54 698v 28h 28v -14a 14 14, 0, 0, 0, -14 -14" transform="rotate(180,68,712)"/><path d="M 82 698v 28h 28v -14a 14 14, 0, 0, 0, -14 -14" transform="rotate(90,96,712)"/><rect x="166" y="698" width="28" height="28" transform="rotate(0,180,712)"/><rect x="194" y="698" width="28" height="28" transform="rotate(0,208,712)"/><path d="M 222 698v 28h 28v -14a 14 14, 0, 0, 0, -14 -14" transform="rotate(0,236,712)"/><path d="M 278 698v 28h 28v -14a 14 14, 0, 0, 0, -14 -14" transform="rotate(-90,292,712)"/><path d="M 306 698v 28h 28v -14a 14 14, 0, 0, 0, -14 -14" transform="rotate(90,320,712)"/><rect x="390" y="698" width="28" height="28" transform="rotate(0,404,712)"/><path d="M 474 698v 28h 14a 14 14, 0, 0, 0, 0 -28" transform="rotate(-90,488,712)"/><path d="M 726 698v 28h 28v -14a 14 14, 0, 0, 0, -14 -14" transform="rotate(-90,740,712)"/><rect x="754" y="698" width="28" height="28" transform="rotate(0,768,712)"/><rect x="782" y="698" width="28" height="28" transform="rotate(0,796,712)"/><rect x="810" y="698" width="28" height="28" transform="rotate(0,824,712)"/><path d="M 838 698v 28h 14a 14 14, 0, 0, 0, 0 -28" transform="rotate(0,852,712)"/><rect x="1006" y="698" width="28" height="28" transform="rotate(0,1020,712)"/><path d="M 1090 698v 28h 14a 14 14, 0, 0, 0, 0 -28" transform="rotate(180,1104,712)"/><rect x="1118" y="698" width="28" height="28" transform="rotate(0,1132,712)"/><path d="M 26 726v 28h 14a 14 14, 0, 0, 0, 0 -28" transform="rotate(-90,40,740)"/><path d="M 110 726v 28h 28v -14a 14 14, 0, 0, 0, -14 -14" transform="rotate(-90,124,740)"/><rect x="138" y="726" width="28" height="28" transform="rotate(0,152,740)"/><path d="M 166 726v 28h 28v -14a 14 14, 0, 0, 0, -14 -14" transform="rotate(90,180,740)"/><path d="M 222 726v 28h 28v -14a 14 14, 0, 0, 0, -14 -14" transform="rotate(180,236,740)"/><rect x="250" y="726" width="28" height="28" transform="rotate(0,264,740)"/><rect x="278" y="726" width="28" height="28" transform="rotate(0,292,740)"/><path d="M 362 726v 28h 28v -14a 14 14, 0, 0, 0, -14 -14" transform="rotate(-90,376,740)"/><rect x="390" y="726" width="28" height="28" transform="rotate(0,404,740)"/><rect x="418" y="726" width="28" height="28" transform="rotate(0,432,740)"/><rect x="446" y="726" width="28" height="28" transform="rotate(0,460,740)"/><rect x="474" y="726" width="28" height="28" transform="rotate(0,488,740)"/><path d="M 502 726v 28h 14a 14 14, 0, 0, 0, 0 -28" transform="rotate(0,516,740)"/><path d="M 558 726v 28h 14a 14 14, 0, 0, 0, 0 -28" transform="rotate(180,572,740)"/><path d="M 586 726v 28h 28v -14a 14 14, 0, 0, 0, -14 -14" transform="rotate(0,600,740)"/><circle cx="684" cy="740" r="14" transform="rotate(0,684,740)"/><path d="M 726 726v 28h 14a 14 14, 0, 0, 0, 0 -28" transform="rotate(90,740,740)"/><path d="M 810 726v 28h 14a 14 14, 0, 0, 0, 0 -28" transform="rotate(90,824,740)"/><path d="M 866 726v 28h 14a 14 14, 0, 0, 0, 0 -28" transform="rotate(180,880,740)"/><path d="M 894 726v 28h 14a 14 14, 0, 0, 0, 0 -28" transform="rotate(0,908,740)"/><path d="M 978 726v 28h 14a 14 14, 0, 0, 0, 0 -28" transform="rotate(180,992,740)"/><rect x="1006" y="726" width="28" height="28" transform="rotate(0,1020,740)"/><rect x="1034" y="726" width="28" height="28" transform="rotate(0,1048,740)"/><path d="M 1062 726v 28h 14a 14 14, 0, 0, 0, 0 -28" transform="rotate(0,1076,740)"/><path d="M 1118 726v 28h 28v -14a 14 14, 0, 0, 0, -14 -14" transform="rotate(180,1132,740)"/><path d="M 1146 726v 28h 14a 14 14, 0, 0, 0, 0 -28" transform="rotate(0,1160,740)"/><rect x="26" y="754" width="28" height="28" transform="rotate(0,40,768)"/><rect x="110" y="754" width="28" height="28" transform="rotate(0,124,768)"/><rect x="138" y="754" width="28" height="28" transform="rotate(0,152,768)"/><circle cx="208" cy="768" r="14" transform="rotate(0,208,768)"/><path d="M 250 754v 28h 28v -14a 14 14, 0, 0, 0, -14 -14" transform="rotate(180,264,768)"/><rect x="278" y="754" width="28" height="28" transform="rotate(0,292,768)"/><rect x="306" y="754" width="28" height="28" transform="rotate(0,320,768)"/><rect x="334" y="754" width="28" height="28" transform="rotate(0,348,768)"/><rect x="362" y="754" width="28" height="28" transform="rotate(0,376,768)"/><rect x="474" y="754" width="28" height="28" transform="rotate(0,488,768)"/><rect x="586" y="754" width="28" height="28" transform="rotate(0,600,768)"/><rect x="614" y="754" width="28" height="28" transform="rotate(0,628,768)"/><path d="M 642 754v 28h 28v -14a 14 14, 0, 0, 0, -14 -14" transform="rotate(0,656,768)"/><circle cx="712" cy="768" r="14" transform="rotate(0,712,768)"/><path d="M 754 754v 28h 28v -14a 14 14, 0, 0, 0, -14 -14" transform="rotate(-90,768,768)"/><path d="M 782 754v 28h 28v -14a 14 14, 0, 0, 0, -14 -14" transform="rotate(0,796,768)"/><path d="M 922 754v 28h 14a 14 14, 0, 0, 0, 0 -28" transform="rotate(-90,936,768)"/><path d="M 1006 754v 28h 14a 14 14, 0, 0, 0, 0 -28" transform="rotate(90,1020,768)"/><rect x="26" y="782" width="28" height="28" transform="rotate(0,40,796)"/><path d="M 54 782v 28h 28v -14a 14 14, 0, 0, 0, -14 -14" transform="rotate(0,68,796)"/><rect x="110" y="782" width="28" height="28" transform="rotate(0,124,796)"/><rect x="138" y="782" width="28" height="28" transform="rotate(0,152,796)"/><path d="M 166 782v 28h 28v -14a 14 14, 0, 0, 0, -14 -14" transform="rotate(0,180,796)"/><rect x="306" y="782" width="28" height="28" transform="rotate(0,320,796)"/><path d="M 362 782v 28h 28v -14a 14 14, 0, 0, 0, -14 -14" transform="rotate(180,376,796)"/><rect x="390" y="782" width="28" height="28" transform="rotate(0,404,796)"/><path d="M 418 782v 28h 14a 14 14, 0, 0, 0, 0 -28" transform="rotate(0,432,796)"/><rect x="474" y="782" width="28" height="28" transform="rotate(0,488,796)"/><path d="M 502 782v 28h 14a 14 14, 0, 0, 0, 0 -28" transform="rotate(0,516,796)"/><path d="M 586 782v 28h 14a 14 14, 0, 0, 0, 0 -28" transform="rotate(90,600,796)"/><path d="M 642 782v 28h 14a 14 14, 0, 0, 0, 0 -28" transform="rotate(90,656,796)"/><rect x="754" y="782" width="28" height="28" transform="rotate(0,768,796)"/><rect x="782" y="782" width="28" height="28" transform="rotate(0,796,796)"/><path d="M 810 782v 28h 28v -14a 14 14, 0, 0, 0, -14 -14" transform="rotate(0,824,796)"/><path d="M 866 782v 28h 14a 14 14, 0, 0, 0, 0 -28" transform="rotate(180,880,796)"/><rect x="894" y="782" width="28" height="28" transform="rotate(0,908,796)"/><path d="M 922 782v 28h 28v -14a 14 14, 0, 0, 0, -14 -14" transform="rotate(90,936,796)"/><path d="M 1034 782v 28h 14a 14 14, 0, 0, 0, 0 -28" transform="rotate(180,1048,796)"/><path d="M 1062 782v 28h 28v -14a 14 14, 0, 0, 0, -14 -14" transform="rotate(0,1076,796)"/><path d="M 1146 782v 28h 14a 14 14, 0, 0, 0, 0 -28" transform="rotate(-90,1160,796)"/><rect x="26" y="810" width="28" height="28" transform="rotate(0,40,824)"/><path d="M 54 810v 28h 28v -14a 14 14, 0, 0, 0, -14 -14" transform="rotate(90,68,824)"/><rect x="110" y="810" width="28" height="28" transform="rotate(0,124,824)"/><path d="M 166 810v 28h 28v -14a 14 14, 0, 0, 0, -14 -14" transform="rotate(180,180,824)"/><path d="M 194 810v 28h 14a 14 14, 0, 0, 0, 0 -28" transform="rotate(0,208,824)"/><path d="M 250 810v 28h 14a 14 14, 0, 0, 0, 0 -28" transform="rotate(-90,264,824)"/><rect x="306" y="810" width="28" height="28" transform="rotate(0,320,824)"/><path d="M 446 810v 28h 28v -14a 14 14, 0, 0, 0, -14 -14" transform="rotate(-90,460,824)"/><rect x="474" y="810" width="28" height="28" transform="rotate(0,488,824)"/><path d="M 558 810v 28h 14a 14 14, 0, 0, 0, 0 -28" transform="rotate(-90,572,824)"/><path d="M 670 810v 28h 14a 14 14, 0, 0, 0, 0 -28" transform="rotate(180,684,824)"/><rect x="698" y="810" width="28" height="28" transform="rotate(0,712,824)"/><rect x="726" y="810" width="28" height="28" transform="rotate(0,740,824)"/><rect x="754" y="810" width="28" height="28" transform="rotate(0,768,824)"/><rect x="782" y="810" width="28" height="28" transform="rotate(0,796,824)"/><rect x="810" y="810" width="28" height="28" transform="rotate(0,824,824)"/><path d="M 838 810v 28h 14a 14 14, 0, 0, 0, 0 -28" transform="rotate(0,852,824)"/><rect x="894" y="810" width="28" height="28" transform="rotate(0,908,824)"/><rect x="1062" y="810" width="28" height="28" transform="rotate(0,1076,824)"/><path d="M 1090 810v 28h 28v -14a 14 14, 0, 0, 0, -14 -14" transform="rotate(0,1104,824)"/><rect x="1146" y="810" width="28" height="28" transform="rotate(0,1160,824)"/><rect x="26" y="838" width="28" height="28" transform="rotate(0,40,852)"/><path d="M 110 838v 28h 14a 14 14, 0, 0, 0, 0 -28" transform="rotate(90,124,852)"/><path d="M 250 838v 28h 14a 14 14, 0, 0, 0, 0 -28" transform="rotate(90,264,852)"/><rect x="306" y="838" width="28" height="28" transform="rotate(0,320,852)"/><path d="M 334 838v 28h 14a 14 14, 0, 0, 0, 0 -28" transform="rotate(0,348,852)"/><path d="M 418 838v 28h 28v -14a 14 14, 0, 0, 0, -14 -14" transform="rotate(-90,432,852)"/><rect x="446" y="838" width="28" height="28" transform="rotate(0,460,852)"/><rect x="474" y="838" width="28" height="28" transform="rotate(0,488,852)"/><rect x="558" y="838" width="28" height="28" transform="rotate(0,572,852)"/><path d="M 586 838v 28h 14a 14 14, 0, 0, 0, 0 -28" transform="rotate(0,600,852)"/><path d="M 642 838v 28h 14a 14 14, 0, 0, 0, 0 -28" transform="rotate(-90,656,852)"/><path d="M 726 838v 28h 14a 14 14, 0, 0, 0, 0 -28" transform="rotate(90,740,852)"/><rect x="782" y="838" width="28" height="28" transform="rotate(0,796,852)"/><path d="M 866 838v 28h 14a 14 14, 0, 0, 0, 0 -28" transform="rotate(180,880,852)"/><rect x="894" y="838" width="28" height="28" transform="rotate(0,908,852)"/><rect x="922" y="838" width="28" height="28" transform="rotate(0,936,852)"/><rect x="950" y="838" width="28" height="28" transform="rotate(0,964,852)"/><path d="M 978 838v 28h 28v -14a 14 14, 0, 0, 0, -14 -14" transform="rotate(0,992,852)"/><path d="M 1034 838v 28h 28v -14a 14 14, 0, 0, 0, -14 -14" transform="rotate(-90,1048,852)"/><rect x="1062" y="838" width="28" height="28" transform="rotate(0,1076,852)"/><rect x="1090" y="838" width="28" height="28" transform="rotate(0,1104,852)"/><path d="M 1146 838v 28h 14a 14 14, 0, 0, 0, 0 -28" transform="rotate(90,1160,852)"/><rect x="26" y="866" width="28" height="28" transform="rotate(0,40,880)"/><path d="M 166 866v 28h 14a 14 14, 0, 0, 0, 0 -28" transform="rotate(180,180,880)"/><rect x="194" y="866" width="28" height="28" transform="rotate(0,208,880)"/><path d="M 222 866v 28h 28v -14a 14 14, 0, 0, 0, -14 -14" transform="rotate(0,236,880)"/><rect x="306" y="866" width="28" height="28" transform="rotate(0,320,880)"/><path d="M 362 866v 28h 14a 14 14, 0, 0, 0, 0 -28" transform="rotate(-90,376,880)"/><path d="M 418 866v 28h 14a 14 14, 0, 0, 0, 0 -28" transform="rotate(90,432,880)"/><rect x="474" y="866" width="28" height="28" transform="rotate(0,488,880)"/><path d="M 502 866v 28h 14a 14 14, 0, 0, 0, 0 -28" transform="rotate(0,516,880)"/><path d="M 558 866v 28h 14a 14 14, 0, 0, 0, 0 -28" transform="rotate(90,572,880)"/><rect x="642" y="866" width="28" height="28" transform="rotate(0,656,880)"/><rect x="670" y="866" width="28" height="28" transform="rotate(0,684,880)"/><path d="M 698 866v 28h 14a 14 14, 0, 0, 0, 0 -28" transform="rotate(0,712,880)"/><rect x="782" y="866" width="28" height="28" transform="rotate(0,796,880)"/><rect x="810" y="866" width="28" height="28" transform="rotate(0,824,880)"/><path d="M 838 866v 28h 14a 14 14, 0, 0, 0, 0 -28" transform="rotate(0,852,880)"/><path d="M 922 866v 28h 28v -14a 14 14, 0, 0, 0, -14 -14" transform="rotate(180,936,880)"/><rect x="950" y="866" width="28" height="28" transform="rotate(0,964,880)"/><rect x="978" y="866" width="28" height="28" transform="rotate(0,992,880)"/><rect x="1006" y="866" width="28" height="28" transform="rotate(0,1020,880)"/><rect x="1034" y="866" width="28" height="28" transform="rotate(0,1048,880)"/><rect x="1062" y="866" width="28" height="28" transform="rotate(0,1076,880)"/><path d="M 1090 866v 28h 28v -14a 14 14, 0, 0, 0, -14 -14" transform="rotate(90,1104,880)"/><rect x="26" y="894" width="28" height="28" transform="rotate(0,40,908)"/><path d="M 82 894v 28h 28v -14a 14 14, 0, 0, 0, -14 -14" transform="rotate(-90,96,908)"/><rect x="110" y="894" width="28" height="28" transform="rotate(0,124,908)"/><path d="M 138 894v 28h 14a 14 14, 0, 0, 0, 0 -28" transform="rotate(0,152,908)"/><path d="M 222 894v 28h 28v -14a 14 14, 0, 0, 0, -14 -14" transform="rotate(180,236,908)"/><rect x="250" y="894" width="28" height="28" transform="rotate(0,264,908)"/><rect x="278" y="894" width="28" height="28" transform="rotate(0,292,908)"/><rect x="306" y="894" width="28" height="28" transform="rotate(0,320,908)"/><path d="M 362 894v 28h 14a 14 14, 0, 0, 0, 0 -28" transform="rotate(90,376,908)"/><path d="M 446 894v 28h 14a 14 14, 0, 0, 0, 0 -28" transform="rotate(180,460,908)"/><path d="M 474 894v 28h 28v -14a 14 14, 0, 0, 0, -14 -14" transform="rotate(90,488,908)"/><path d="M 530 894v 28h 14a 14 14, 0, 0, 0, 0 -28" transform="rotate(-90,544,908)"/><path d="M 586 894v 28h 14a 14 14, 0, 0, 0, 0 -28" transform="rotate(180,600,908)"/><rect x="614" y="894" width="28" height="28" transform="rotate(0,628,908)"/><rect x="642" y="894" width="28" height="28" transform="rotate(0,656,908)"/><rect x="670" y="894" width="28" height="28" transform="rotate(0,684,908)"/><rect x="782" y="894" width="28" height="28" transform="rotate(0,796,908)"/><rect x="950" y="894" width="28" height="28" transform="rotate(0,964,908)"/><rect x="978" y="894" width="28" height="28" transform="rotate(0,992,908)"/><rect x="1006" y="894" width="28" height="28" transform="rotate(0,1020,908)"/><path d="M 1062 894v 28h 14a 14 14, 0, 0, 0, 0 -28" transform="rotate(90,1076,908)"/><path d="M 26 922v 28h 14a 14 14, 0, 0, 0, 0 -28" transform="rotate(90,40,936)"/><path d="M 82 922v 28h 14a 14 14, 0, 0, 0, 0 -28" transform="rotate(90,96,936)"/><path d="M 166 922v 28h 14a 14 14, 0, 0, 0, 0 -28" transform="rotate(180,180,936)"/><path d="M 194 922v 28h 14a 14 14, 0, 0, 0, 0 -28" transform="rotate(0,208,936)"/><path d="M 278 922v 28h 28v -14a 14 14, 0, 0, 0, -14 -14" transform="rotate(180,292,936)"/><rect x="306" y="922" width="28" height="28" transform="rotate(0,320,936)"/><path d="M 334 922v 28h 14a 14 14, 0, 0, 0, 0 -28" transform="rotate(0,348,936)"/><path d="M 418 922v 28h 14a 14 14, 0, 0, 0, 0 -28" transform="rotate(-90,432,936)"/><path d="M 502 922v 28h 14a 14 14, 0, 0, 0, 0 -28" transform="rotate(180,516,936)"/><rect x="530" y="922" width="28" height="28" transform="rotate(0,544,936)"/><path d="M 642 922v 28h 28v -14a 14 14, 0, 0, 0, -14 -14" transform="rotate(180,656,936)"/><rect x="670" y="922" width="28" height="28" transform="rotate(0,684,936)"/><rect x="698" y="922" width="28" height="28" transform="rotate(0,712,936)"/><path d="M 726 922v 28h 14a 14 14, 0, 0, 0, 0 -28" transform="rotate(0,740,936)"/><path d="M 782 922v 28h 14a 14 14, 0, 0, 0, 0 -28" transform="rotate(90,796,936)"/><path d="M 838 922v 28h 14a 14 14, 0, 0, 0, 0 -28" transform="rotate(-90,852,936)"/><path d="M 922 922v 28h 28v -14a 14 14, 0, 0, 0, -14 -14" transform="rotate(-90,936,936)"/><rect x="950" y="922" width="28" height="28" transform="rotate(0,964,936)"/><rect x="978" y="922" width="28" height="28" transform="rotate(0,992,936)"/><rect x="1006" y="922" width="28" height="28" transform="rotate(0,1020,936)"/><path d="M 1034 922v 28h 28v -14a 14 14, 0, 0, 0, -14 -14" transform="rotate(0,1048,936)"/><circle cx="1104" cy="936" r="14" transform="rotate(0,1104,936)"/><path d="M 1146 922v 28h 14a 14 14, 0, 0, 0, 0 -28" transform="rotate(-90,1160,936)"/><path d="M 250 950v 28h 14a 14 14, 0, 0, 0, 0 -28" transform="rotate(-90,264,964)"/><path d="M 362 950v 28h 28v -14a 14 14, 0, 0, 0, -14 -14" transform="rotate(-90,376,964)"/><rect x="390" y="950" width="28" height="28" transform="rotate(0,404,964)"/><rect x="418" y="950" width="28" height="28" transform="rotate(0,432,964)"/><rect x="446" y="950" width="28" height="28" transform="rotate(0,460,964)"/><path d="M 474 950v 28h 14a 14 14, 0, 0, 0, 0 -28" transform="rotate(0,488,964)"/><path d="M 530 950v 28h 14a 14 14, 0, 0, 0, 0 -28" transform="rotate(90,544,964)"/><path d="M 670 950v 28h 14a 14 14, 0, 0, 0, 0 -28" transform="rotate(90,684,964)"/><path d="M 810 950v 28h 14a 14 14, 0, 0, 0, 0 -28" transform="rotate(180,824,964)"/><rect x="838" y="950" width="28" height="28" transform="rotate(0,852,964)"/><rect x="922" y="950" width="28" height="28" transform="rotate(0,936,964)"/><rect x="1034" y="950" width="28" height="28" transform="rotate(0,1048,964)"/><path d="M 1062 950v 28h 28v -14a 14 14, 0, 0, 0, -14 -14" transform="rotate(0,1076,964)"/><path d="M 1118 950v 28h 28v -14a 14 14, 0, 0, 0, -14 -14" transform="rotate(-90,1132,964)"/><path d="M 1146 950v 28h 28v -14a 14 14, 0, 0, 0, -14 -14" transform="rotate(90,1160,964)"/><rect x="250" y="978" width="28" height="28" transform="rotate(0,264,992)"/><path d="M 306 978v 28h 14a 14 14, 0, 0, 0, 0 -28" transform="rotate(180,320,992)"/><rect x="334" y="978" width="28" height="28" transform="rotate(0,348,992)"/><rect x="362" y="978" width="28" height="28" transform="rotate(0,376,992)"/><rect x="390" y="978" width="28" height="28" transform="rotate(0,404,992)"/><rect x="418" y="978" width="28" height="28" transform="rotate(0,432,992)"/><path d="M 502 978v 28h 14a 14 14, 0, 0, 0, 0 -28" transform="rotate(-90,516,992)"/><path d="M 558 978v 28h 14a 14 14, 0, 0, 0, 0 -28" transform="rotate(-90,572,992)"/><path d="M 614 978v 28h 14a 14 14, 0, 0, 0, 0 -28" transform="rotate(-90,628,992)"/><circle cx="796" cy="992" r="14" transform="rotate(0,796,992)"/><rect x="838" y="978" width="28" height="28" transform="rotate(0,852,992)"/><path d="M 894 978v 28h 28v -14a 14 14, 0, 0, 0, -14 -14" transform="rotate(-90,908,992)"/><rect x="922" y="978" width="28" height="28" transform="rotate(0,936,992)"/><circle cx="992" cy="992" r="14" transform="rotate(0,992,992)"/><rect x="1034" y="978" width="28" height="28" transform="rotate(0,1048,992)"/><rect x="1062" y="978" width="28" height="28" transform="rotate(0,1076,992)"/><path d="M 1118 978v 28h 14a 14 14, 0, 0, 0, 0 -28" transform="rotate(90,1132,992)"/><rect x="250" y="1006" width="28" height="28" transform="rotate(0,264,1020)"/><path d="M 334 1006v 28h 28v -14a 14 14, 0, 0, 0, -14 -14" transform="rotate(180,348,1020)"/><path d="M 362 1006v 28h 28v -14a 14 14, 0, 0, 0, -14 -14" transform="rotate(90,376,1020)"/><path d="M 418 1006v 28h 28v -14a 14 14, 0, 0, 0, -14 -14" transform="rotate(180,432,1020)"/><path d="M 446 1006v 28h 28v -14a 14 14, 0, 0, 0, -14 -14" transform="rotate(0,460,1020)"/><rect x="502" y="1006" width="28" height="28" transform="rotate(0,516,1020)"/><rect x="530" y="1006" width="28" height="28" transform="rotate(0,544,1020)"/><rect x="558" y="1006" width="28" height="28" transform="rotate(0,572,1020)"/><rect x="586" y="1006" width="28" height="28" transform="rotate(0,600,1020)"/><path d="M 614 1006v 28h 28v -14a 14 14, 0, 0, 0, -14 -14" transform="rotate(90,628,1020)"/><circle cx="768" cy="1020" r="14" transform="rotate(0,768,1020)"/><path d="M 838 1006v 28h 28v -14a 14 14, 0, 0, 0, -14 -14" transform="rotate(180,852,1020)"/><rect x="866" y="1006" width="28" height="28" transform="rotate(0,880,1020)"/><rect x="894" y="1006" width="28" height="28" transform="rotate(0,908,1020)"/><rect x="922" y="1006" width="28" height="28" transform="rotate(0,936,1020)"/><rect x="1034" y="1006" width="28" height="28" transform="rotate(0,1048,1020)"/><rect x="1062" y="1006" width="28" height="28" transform="rotate(0,1076,1020)"/><rect x="250" y="1034" width="28" height="28" transform="rotate(0,264,1048)"/><path d="M 446 1034v 28h 14a 14 14, 0, 0, 0, 0 -28" transform="rotate(90,460,1048)"/><path d="M 502 1034v 28h 28v -14a 14 14, 0, 0, 0, -14 -14" transform="rotate(180,516,1048)"/><rect x="530" y="1034" width="28" height="28" transform="rotate(0,544,1048)"/><rect x="558" y="1034" width="28" height="28" transform="rotate(0,572,1048)"/><rect x="586" y="1034" width="28" height="28" transform="rotate(0,600,1048)"/><path d="M 642 1034v 28h 28v -14a 14 14, 0, 0, 0, -14 -14" transform="rotate(-90,656,1048)"/><path d="M 670 1034v 28h 28v -14a 14 14, 0, 0, 0, -14 -14" transform="rotate(0,684,1048)"/><circle cx="796" cy="1048" r="14" transform="rotate(0,796,1048)"/><path d="M 922 1034v 28h 28v -14a 14 14, 0, 0, 0, -14 -14" transform="rotate(180,936,1048)"/><rect x="950" y="1034" width="28" height="28" transform="rotate(0,964,1048)"/><rect x="978" y="1034" width="28" height="28" transform="rotate(0,992,1048)"/><rect x="1006" y="1034" width="28" height="28" transform="rotate(0,1020,1048)"/><rect x="1034" y="1034" width="28" height="28" transform="rotate(0,1048,1048)"/><rect x="1062" y="1034" width="28" height="28" transform="rotate(0,1076,1048)"/><rect x="1090" y="1034" width="28" height="28" transform="rotate(0,1104,1048)"/><rect x="1118" y="1034" width="28" height="28" transform="rotate(0,1132,1048)"/><path d="M 1146 1034v 28h 14a 14 14, 0, 0, 0, 0 -28" transform="rotate(0,1160,1048)"/><rect x="250" y="1062" width="28" height="28" transform="rotate(0,264,1076)"/><path d="M 306 1062v 28h 14a 14 14, 0, 0, 0, 0 -28" transform="rotate(180,320,1076)"/><path d="M 334 1062v 28h 28v -14a 14 14, 0, 0, 0, -14 -14" transform="rotate(0,348,1076)"/><rect x="586" y="1062" width="28" height="28" transform="rotate(0,600,1076)"/><rect x="642" y="1062" width="28" height="28" transform="rotate(0,656,1076)"/><path d="M 670 1062v 28h 28v -14a 14 14, 0, 0, 0, -14 -14" transform="rotate(90,684,1076)"/><path d="M 754 1062v 28h 14a 14 14, 0, 0, 0, 0 -28" transform="rotate(-90,768,1076)"/><path d="M 810 1062v 28h 28v -14a 14 14, 0, 0, 0, -14 -14" transform="rotate(-90,824,1076)"/><rect x="838" y="1062" width="28" height="28" transform="rotate(0,852,1076)"/><path d="M 866 1062v 28h 14a 14 14, 0, 0, 0, 0 -28" transform="rotate(0,880,1076)"/><rect x="950" y="1062" width="28" height="28" transform="rotate(0,964,1076)"/><rect x="1006" y="1062" width="28" height="28" transform="rotate(0,1020,1076)"/><path d="M 1062 1062v 28h 28v -14a 14 14, 0, 0, 0, -14 -14" transform="rotate(180,1076,1076)"/><rect x="1090" y="1062" width="28" height="28" transform="rotate(0,1104,1076)"/><path d="M 1118 1062v 28h 28v -14a 14 14, 0, 0, 0, -14 -14" transform="rotate(90,1132,1076)"/><rect x="250" y="1090" width="28" height="28" transform="rotate(0,264,1104)"/><path d="M 278 1090v 28h 14a 14 14, 0, 0, 0, 0 -28" transform="rotate(0,292,1104)"/><path d="M 334 1090v 28h 28v -14a 14 14, 0, 0, 0, -14 -14" transform="rotate(180,348,1104)"/><path d="M 362 1090v 28h 28v -14a 14 14, 0, 0, 0, -14 -14" transform="rotate(0,376,1104)"/><path d="M 418 1090v 28h 28v -14a 14 14, 0, 0, 0, -14 -14" transform="rotate(-90,432,1104)"/><path d="M 446 1090v 28h 28v -14a 14 14, 0, 0, 0, -14 -14" transform="rotate(0,460,1104)"/><path d="M 530 1090v 28h 28v -14a 14 14, 0, 0, 0, -14 -14" transform="rotate(-90,544,1104)"/><rect x="558" y="1090" width="28" height="28" transform="rotate(0,572,1104)"/><path d="M 586 1090v 28h 28v -14a 14 14, 0, 0, 0, -14 -14" transform="rotate(90,600,1104)"/><path d="M 642 1090v 28h 14a 14 14, 0, 0, 0, 0 -28" transform="rotate(90,656,1104)"/><path d="M 698 1090v 28h 14a 14 14, 0, 0, 0, 0 -28" transform="rotate(180,712,1104)"/><rect x="726" y="1090" width="28" height="28" transform="rotate(0,740,1104)"/><rect x="754" y="1090" width="28" height="28" transform="rotate(0,768,1104)"/><rect x="782" y="1090" width="28" height="28" transform="rotate(0,796,1104)"/><path d="M 810 1090v 28h 28v -14a 14 14, 0, 0, 0, -14 -14" transform="rotate(90,824,1104)"/><path d="M 894 1090v 28h 14a 14 14, 0, 0, 0, 0 -28" transform="rotate(-90,908,1104)"/><path d="M 950 1090v 28h 28v -14a 14 14, 0, 0, 0, -14 -14" transform="rotate(180,964,1104)"/><rect x="978" y="1090" width="28" height="28" transform="rotate(0,992,1104)"/><rect x="1006" y="1090" width="28" height="28" transform="rotate(0,1020,1104)"/><path d="M 1034 1090v 28h 28v -14a 14 14, 0, 0, 0, -14 -14" transform="rotate(0,1048,1104)"/><path d="M 250 1118v 28h 14a 14 14, 0, 0, 0, 0 -28" transform="rotate(90,264,1132)"/><path d="M 362 1118v 28h 28v -14a 14 14, 0, 0, 0, -14 -14" transform="rotate(180,376,1132)"/><rect x="390" y="1118" width="28" height="28" transform="rotate(0,404,1132)"/><rect x="418" y="1118" width="28" height="28" transform="rotate(0,432,1132)"/><rect x="446" y="1118" width="28" height="28" transform="rotate(0,460,1132)"/><rect x="474" y="1118" width="28" height="28" transform="rotate(0,488,1132)"/><rect x="502" y="1118" width="28" height="28" transform="rotate(0,516,1132)"/><rect x="530" y="1118" width="28" height="28" transform="rotate(0,544,1132)"/><path d="M 558 1118v 28h 28v -14a 14 14, 0, 0, 0, -14 -14" transform="rotate(90,572,1132)"/><path d="M 866 1118v 28h 14a 14 14, 0, 0, 0, 0 -28" transform="rotate(180,880,1132)"/><rect x="894" y="1118" width="28" height="28" transform="rotate(0,908,1132)"/><path d="M 922 1118v 28h 14a 14 14, 0, 0, 0, 0 -28" transform="rotate(0,936,1132)"/><rect x="978" y="1118" width="28" height="28" transform="rotate(0,992,1132)"/><rect x="1034" y="1118" width="28" height="28" transform="rotate(0,1048,1132)"/><path d="M 1062 1118v 28h 14a 14 14, 0, 0, 0, 0 -28" transform="rotate(0,1076,1132)"/><circle cx="1132" cy="1132" r="14" transform="rotate(0,1132,1132)"/><circle cx="348" cy="1160" r="14" transform="rotate(0,348,1160)"/><path d="M 446 1146v 28h 14a 14 14, 0, 0, 0, 0 -28" transform="rotate(90,460,1160)"/><path d="M 530 1146v 28h 14a 14 14, 0, 0, 0, 0 -28" transform="rotate(90,544,1160)"/><circle cx="656" cy="1160" r="14" transform="rotate(0,656,1160)"/><path d="M 698 1146v 28h 14a 14 14, 0, 0, 0, 0 -28" transform="rotate(180,712,1160)"/><rect x="726" y="1146" width="28" height="28" transform="rotate(0,740,1160)"/><rect x="754" y="1146" width="28" height="28" transform="rotate(0,768,1160)"/><rect x="782" y="1146" width="28" height="28" transform="rotate(0,796,1160)"/><rect x="810" y="1146" width="28" height="28" transform="rotate(0,824,1160)"/><path d="M 838 1146v 28h 14a 14 14, 0, 0, 0, 0 -28" transform="rotate(0,852,1160)"/><path d="M 894 1146v 28h 14a 14 14, 0, 0, 0, 0 -28" transform="rotate(90,908,1160)"/><path d="M 950 1146v 28h 14a 14 14, 0, 0, 0, 0 -28" transform="rotate(180,964,1160)"/><rect x="978" y="1146" width="28" height="28" transform="rotate(0,992,1160)"/><rect x="1006" y="1146" width="28" height="28" transform="rotate(0,1020,1160)"/><path d="M 1034 1146v 28h 28v -14a 14 14, 0, 0, 0, -14 -14" transform="rotate(90,1048,1160)"/><circle cx="1104" cy="1160" r="14" transform="rotate(0,1104,1160)"/></clipPath><clipPath id="clip-path-corners-square-color-0-0-175"><path clip-rule="evenodd" d="M 26 96v 56a 70 70, 0, 0, 0, 70 70h 56a 70 70, 0, 0, 0, 70 -70v -56a 70 70, 0, 0, 0, -70 -70h -56a 70 70, 0, 0, 0, -70 70M 96 54h 56a 42 42, 0, 0, 1, 42 42v 56a 42 42, 0, 0, 1, -42 42h -56a 42 42, 0, 0, 1, -42 -42v -56a 42 42, 0, 0, 1, 42 -42" transform="rotate(0,124,124)"/></clipPath><clipPath id="clip-path-corners-dot-color-0-0-175"><circle cx="124" cy="124" r="42" transform="rotate(0,124,124)"/></clipPath><clipPath id="clip-path-corners-square-color-1-0-175"><path clip-rule="evenodd" d="M 978 96v 56a 70 70, 0, 0, 0, 70 70h 56a 70 70, 0, 0, 0, 70 -70v -56a 70 70, 0, 0, 0, -70 -70h -56a 70 70, 0, 0, 0, -70 70M 1048 54h 56a 42 42, 0, 0, 1, 42 42v 56a 42 42, 0, 0, 1, -42 42h -56a 42 42, 0, 0, 1, -42 -42v -56a 42 42, 0, 0, 1, 42 -42" transform="rotate(90,1076,124)"/></clipPath><clipPath id="clip-path-corners-dot-color-1-0-175"><circle cx="1076" cy="124" r="42" transform="rotate(90,1076,124)"/></clipPath><clipPath id="clip-path-corners-square-color-0-1-175"><path clip-rule="evenodd" d="M 26 1048v 56a 70 70, 0, 0, 0, 70 70h 56a 70 70, 0, 0, 0, 70 -70v -56a 70 70, 0, 0, 0, -70 -70h -56a 70 70, 0, 0, 0, -70 70M 96 1006h 56a 42 42, 0, 0, 1, 42 42v 56a 42 42, 0, 0, 1, -42 42h -56a 42 42, 0, 0, 1, -42 -42v -56a 42 42, 0, 0, 1, 42 -42" transform="rotate(-90,124,1076)"/></clipPath><clipPath id="clip-path-corners-dot-color-0-1-175"><circle cx="124" cy="1076" r="42" transform="rotate(-90,124,1076)"/></clipPath></defs><rect x="0" y="0" height="1200" width="1200" clip-path="url('#clip-path-background-color-175')" fill="#ffffff"/><rect x="0" y="0" height="1200" width="1200" clip-path="url('#clip-path-dot-color-175')" fill="#000000"/><rect x="26" y="26" height="196" width="196" clip-path="url('#clip-path-corners-square-color-0-0-175')" fill="#000000"/><rect x="82" y="82" height="84" width="84" clip-path="url('#clip-path-corners-dot-color-0-0-175')" fill="#000000"/><rect x="978" y="26" height="196" width="196" clip-path="url('#clip-path-corners-square-color-1-0-175')" fill="#000000"/><rect x="1034" y="82" height="84" width="84" clip-path="url('#clip-path-corners-dot-color-1-0-175')" fill="#000000"/><rect x="26" y="978" height="196" width="196" clip-path="url('#clip-path-corners-square-color-0-1-175')" fill="#000000"/><rect x="82" y="1034" height="84" width="84" clip-path="url('#clip-path-corners-dot-color-0-1-175')" fill="#000000"/></svg>