<?xml version="1.0" standalone="no"?>
<svg xmlns="http://www.w3.org/2000/svg" width="1200" height="1200" xmlns:xlink="http://www.w3.org/1999/xlink" viewBox="0 0 1200 1200"><defs><clipPath id="clip-path-background-color-166"><rect x="0" y="0" width="1200" height="1200"/></clipPath><clipPath id="clip-path-dot-color-166"><path d="M 275 15v 26h 13a 13 13, 0, 0, 0, 0 -26" transform="rotate(180,288,28)"/><path d="M 301 15v 26h 13a 13 13, 0, 0, 0, 0 -26" transform="rotate(0,314,28)"/><circle cx="392" cy="28" r="13" transform="rotate(0,392,28)"/><path d="M 509 15v 26h 13a 13 13, 0, 0, 0, 0 -26" transform="rotate(-90,522,28)"/><circle cx="574" cy="28" r="13" transform="rotate(0,574,28)"/><path d="M 691 15v 26h 13a 13 13, 0, 0, 0, 0 -26" transform="rotate(180,704,28)"/><path d="M 717 15v 26h 26v -13a 13 13, 0, 0, 0, -13 -13" transform="rotate(0,730,28)"/><path d="M 769 15v 26h 26v -13a 13 13, 0, 0, 0, -13 -13" transform="rotate(-90,782,28)"/><path d="M 795 15v 26h 13a 13 13, 0, 0, 0, 0 -26" transform="rotate(0,808,28)"/><circle cx="964" cy="28" r="13" transform="rotate(0,964,28)"/><path d="M 327 41v 26h 13a 13 13, 0, 0, 0, 0 -26" transform="rotate(-90,340,54)"/><path d="M 405 41v 26h 26v -13a 13 13, 0, 0, 0, -13 -13" transform="rotate(-90,418,54)"/><rect x="431" y="41" width="26" height="26" transform="rotate(0,444,54)"/><path d="M 457 41v 26h 26v -13a 13 13, 0, 0, 0, -13 -13" transform="rotate(0,470,54)"/><rect x="509" y="41" width="26" height="26" transform="rotate(0,522,54)"/><path d="M 535 41v 26h 13a 13 13, 0, 0, 0, 0 -26" transform="rotate(0,548,54)"/><path d="M 587 41v 26h 26v -13a 13 13, 0, 0, 0, -13 -13" transform="rotate(-90,600,54)"/><rect x="613" y="41" width="26" height="26" transform="rotate(0,626,54)"/><rect x="639" y="41" width="26" height="26" transform="rotate(0,652,54)"/><path d="M 665 41v 26h 13a 13 13, 0, 0, 0, 0 -26" transform="rotate(0,678,54)"/><rect x="717" y="41" width="26" height="26" transform="rotate(0,730,54)"/><rect x="743" y="41" width="26" height="26" transform="rotate(0,756,54)"/><path d="M 769 41v 26h 26v -13a 13 13, 0, 0, 0, -13 -13" transform="rotate(90,782,54)"/><path d="M 821 41v 26h 13a 13 13, 0, 0, 0, 0 -26" transform="rotate(180,834,54)"/><rect x="847" y="41" width="26" height="26" transform="rotate(0,860,54)"/><path d="M 873 41v 26h 26v -13a 13 13, 0, 0, 0, -13 -13" transform="rotate(0,886,54)"/><path d="M 925 41v 26h 13a 13 13, 0, 0, 0, 0 -26" transform="rotate(-90,938,54)"/><circle cx="236" cy="80" r="13" transform="rotate(0,236,80)"/><path d="M 327 67v 26h 13a 13 13, 0, 0, 0, 0 -26" transform="rotate(90,340,80)"/><path d="M 405 67v 26h 13a 13 13, 0, 0, 0, 0 -26" transform="rotate(90,418,80)"/><path d="M 457 67v 26h 13a 13 13, 0, 0, 0, 0 -26" transform="rotate(90,470,80)"/><rect x="509" y="67" width="26" height="26" transform="rotate(0,522,80)"/><path d="M 587 67v 26h 13a 13 13, 0, 0, 0, 0 -26" transform="rotate(90,600,80)"/><path d="M 717 67v 26h 13a 13 13, 0, 0, 0, 0 -26" transform="rotate(90,730,80)"/><path d="M 795 67v 26h 13a 13 13, 0, 0, 0, 0 -26" transform="rotate(-90,808,80)"/><path d="M 873 67v 26h 13a 13 13, 0, 0, 0, 0 -26" transform="rotate(90,886,80)"/><rect x="925" y="67" width="26" height="26" transform="rotate(0,938,80)"/><path d="M 249 93v 26h 26v -13a 13 13, 0, 0, 0, -13 -13" transform="rotate(-90,262,106)"/><rect x="275" y="93" width="26" height="26" transform="rotate(0,288,106)"/><path d="M 301 93v 26h 26v -13a 13 13, 0, 0, 0, -13 -13" transform="rotate(0,314,106)"/><path d="M 353 93v 26h 26v -13a 13 13, 0, 0, 0, -13 -13" transform="rotate(-90,366,106)"/><path d="M 379 93v 26h 26v -13a 13 13, 0, 0, 0, -13 -13" transform="rotate(0,392,106)"/><circle cx="444" cy="106" r="13" transform="rotate(0,444,106)"/><path d="M 483 93v 26h 13a 13 13, 0, 0, 0, 0 -26" transform="rotate(180,496,106)"/><rect x="509" y="93" width="26" height="26" transform="rotate(0,522,106)"/><rect x="535" y="93" width="26" height="26" transform="rotate(0,548,106)"/><path d="M 561 93v 26h 26v -13a 13 13, 0, 0, 0, -13 -13" transform="rotate(0,574,106)"/><path d="M 639 93v 26h 26v -13a 13 13, 0, 0, 0, -13 -13" transform="rotate(-90,652,106)"/><path d="M 665 93v 26h 26v -13a 13 13, 0, 0, 0, -13 -13" transform="rotate(0,678,106)"/><circle cx="756" cy="106" r="13" transform="rotate(0,756,106)"/><rect x="795" y="93" width="26" height="26" transform="rotate(0,808,106)"/><rect x="925" y="93" width="26" height="26" transform="rotate(0,938,106)"/><path d="M 951 93v 26h 26v -13a 13 13, 0, 0, 0, -13 -13" transform="rotate(0,964,106)"/><path d="M 223 119v 26h 26v -13a 13 13, 0, 0, 0, -13 -13" transform="rotate(-90,236,132)"/><rect x="249" y="119" width="26" height="26" transform="rotate(0,262,132)"/><rect x="275" y="119" width="26" height="26" transform="rotate(0,288,132)"/><rect x="301" y="119" width="26" height="26" transform="rotate(0,314,132)"/><rect x="327" y="119" width="26" height="26" transform="rotate(0,340,132)"/><rect x="353" y="119" width="26" height="26" transform="rotate(0,366,132)"/><rect x="379" y="119" width="26" height="26" transform="rotate(0,392,132)"/><rect x="509" y="119" width="26" height="26" transform="rotate(0,522,132)"/><rect x="535" y="119" width="26" height="26" transform="rotate(0,548,132)"/><rect x="561" y="119" width="26" height="26" transform="rotate(0,574,132)"/><rect x="587" y="119" width="26" height="26" transform="rotate(0,600,132)"/><rect x="613" y="119" width="26" height="26" transform="rotate(0,626,132)"/><rect x="639" y="119" width="26" height="26" transform="rotate(0,652,132)"/><rect x="665" y="119" width="26" height="26" transform="rotate(0,678,132)"/><path d="M 691 119v 26h 26v -13a 13 13, 0, 0, 0, -13 -13" transform="rotate(0,704,132)"/><path d="M 769 119v 26h 13a 13 13, 0, 0, 0, 0 -26" transform="rotate(180,782,132)"/><path d="M 795 119v 26h 26v -13a 13 13, 0, 0, 0, -13 -13" transform="rotate(90,808,132)"/><path d="M 847 119v 26h 13a 13 13, 0, 0, 0, 0 -26" transform="rotate(180,860,132)"/><rect x="873" y="119" width="26" height="26" transform="rotate(0,886,132)"/><rect x="899" y="119" width="26" height="26" transform="rotate(0,912,132)"/><rect x="925" y="119" width="26" height="26" transform="rotate(0,938,132)"/><path d="M 951 119v 26h 26v -13a 13 13, 0, 0, 0, -13 -13" transform="rotate(90,964,132)"/><rect x="223" y="145" width="26" height="26" transform="rotate(0,236,158)"/><path d="M 249 145v 26h 26v -13a 13 13, 0, 0, 0, -13 -13" transform="rotate(90,262,158)"/><rect x="327" y="145" width="26" height="26" transform="rotate(0,340,158)"/><rect x="353" y="145" width="26" height="26" transform="rotate(0,366,158)"/><rect x="379" y="145" width="26" height="26" transform="rotate(0,392,158)"/><path d="M 405 145v 26h 13a 13 13, 0, 0, 0, 0 -26" transform="rotate(0,418,158)"/><path d="M 457 145v 26h 13a 13 13, 0, 0, 0, 0 -26" transform="rotate(180,470,158)"/><rect x="483" y="145" width="26" height="26" transform="rotate(0,496,158)"/><rect x="509" y="145" width="26" height="26" transform="rotate(0,522,158)"/><rect x="535" y="145" width="26" height="26" transform="rotate(0,548,158)"/><rect x="639" y="145" width="26" height="26" transform="rotate(0,652,158)"/><rect x="691" y="145" width="26" height="26" transform="rotate(0,704,158)"/><path d="M 743 145v 26h 13a 13 13, 0, 0, 0, 0 -26" transform="rotate(-90,756,158)"/><circle cx="834" cy="158" r="13" transform="rotate(0,834,158)"/><path d="M 223 171v 26h 13a 13 13, 0, 0, 0, 0 -26" transform="rotate(90,236,184)"/><path d="M 275 171v 26h 13a 13 13, 0, 0, 0, 0 -26" transform="rotate(-90,288,184)"/><path d="M 327 171v 26h 13a 13 13, 0, 0, 0, 0 -26" transform="rotate(90,340,184)"/><rect x="379" y="171" width="26" height="26" transform="rotate(0,392,184)"/><circle cx="444" cy="184" r="13" transform="rotate(0,444,184)"/><rect x="483" y="171" width="26" height="26" transform="rotate(0,496,184)"/><rect x="535" y="171" width="26" height="26" transform="rotate(0,548,184)"/><circle cx="600" cy="184" r="13" transform="rotate(0,600,184)"/><rect x="639" y="171" width="26" height="26" transform="rotate(0,652,184)"/><path d="M 691 171v 26h 13a 13 13, 0, 0, 0, 0 -26" transform="rotate(90,704,184)"/><path d="M 743 171v 26h 13a 13 13, 0, 0, 0, 0 -26" transform="rotate(90,756,184)"/><path d="M 795 171v 26h 13a 13 13, 0, 0, 0, 0 -26" transform="rotate(-90,808,184)"/><path d="M 847 171v 26h 13a 13 13, 0, 0, 0, 0 -26" transform="rotate(-90,860,184)"/><circle cx="912" cy="184" r="13" transform="rotate(0,912,184)"/><path d="M 951 171v 26h 13a 13 13, 0, 0, 0, 0 -26" transform="rotate(-90,964,184)"/><path d="M 275 197v 26h 26v -13a 13 13, 0, 0, 0, -13 -13" transform="rotate(180,288,210)"/><path d="M 301 197v 26h 26v -13a 13 13, 0, 0, 0, -13 -13" transform="rotate(0,314,210)"/><path d="M 353 197v 26h 13a 13 13, 0, 0, 0, 0 -26" transform="rotate(180,366,210)"/><path d="M 379 197v 26h 26v -13a 13 13, 0, 0, 0, -13 -13" transform="rotate(90,392,210)"/><path d="M 457 197v 26h 26v -13a 13 13, 0, 0, 0, -13 -13" transform="rotate(-90,470,210)"/><rect x="483" y="197" width="26" height="26" transform="rotate(0,496,210)"/><rect x="535" y="197" width="26" height="26" transform="rotate(0,548,210)"/><rect x="639" y="197" width="26" height="26" transform="rotate(0,652,210)"/><rect x="795" y="197" width="26" height="26" transform="rotate(0,808,210)"/><rect x="821" y="197" width="26" height="26" transform="rotate(0,834,210)"/><rect x="847" y="197" width="26" height="26" transform="rotate(0,860,210)"/><path d="M 925 197v 26h 13a 13 13, 0, 0, 0, 0 -26" transform="rotate(180,938,210)"/><path d="M 951 197v 26h 26v -13a 13 13, 0, 0, 0, -13 -13" transform="rotate(90,964,210)"/><circle cx="54" cy="236" r="13" transform="rotate(0,54,236)"/><path d="M 119 223v 26h 13a 13 13, 0, 0, 0, 0 -26" transform="rotate(-90,132,236)"/><circle cx="184" cy="236" r="13" transform="rotate(0,184,236)"/><path d="M 223 223v 26h 26v -13a 13 13, 0, 0, 0, -13 -13" transform="rotate(-90,236,236)"/><path d="M 249 223v 26h 13a 13 13, 0, 0, 0, 0 -26" transform="rotate(0,262,236)"/><path d="M 301 223v 26h 26v -13a 13 13, 0, 0, 0, -13 -13" transform="rotate(180,314,236)"/><path d="M 327 223v 26h 13a 13 13, 0, 0, 0, 0 -26" transform="rotate(0,340,236)"/><path d="M 405 223v 26h 26v -13a 13 13, 0, 0, 0, -13 -13" transform="rotate(-90,418,236)"/><rect x="431" y="223" width="26" height="26" transform="rotate(0,444,236)"/><rect x="457" y="223" width="26" height="26" transform="rotate(0,470,236)"/><rect x="483" y="223" width="26" height="26" transform="rotate(0,496,236)"/><rect x="509" y="223" width="26" height="26" transform="rotate(0,522,236)"/><rect x="535" y="223" width="26" height="26" transform="rotate(0,548,236)"/><rect x="561" y="223" width="26" height="26" transform="rotate(0,574,236)"/><rect x="587" y="223" width="26" height="26" transform="rotate(0,600,236)"/><rect x="613" y="223" width="26" height="26" transform="rotate(0,626,236)"/><path d="M 639 223v 26h 26v -13a 13 13, 0, 0, 0, -13 -13" transform="rotate(90,652,236)"/><path d="M 717 223v 26h 13a 13 13, 0, 0, 0, 0 -26" transform="rotate(-90,730,236)"/><path d="M 769 223v 26h 26v -13a 13 13, 0, 0, 0, -13 -13" transform="rotate(-90,782,236)"/><rect x="795" y="223" width="26" height="26" transform="rotate(0,808,236)"/><path d="M 847 223v 26h 13a 13 13, 0, 0, 0, 0 -26" transform="rotate(90,860,236)"/><circle cx="990" cy="236" r="13" transform="rotate(0,990,236)"/><path d="M 1029 223v 26h 13a 13 13, 0, 0, 0, 0 -26" transform="rotate(180,1042,236)"/><path d="M 1055 223v 26h 13a 13 13, 0, 0, 0, 0 -26" transform="rotate(0,1068,236)"/><circle cx="1120" cy="236" r="13" transform="rotate(0,1120,236)"/><circle cx="28" cy="262" r="13" transform="rotate(0,28,262)"/><path d="M 119 249v 26h 26v -13a 13 13, 0, 0, 0, -13 -13" transform="rotate(180,132,262)"/><path d="M 145 249v 26h 13a 13 13, 0, 0, 0, 0 -26" transform="rotate(0,158,262)"/><path d="M 223 249v 26h 13a 13 13, 0, 0, 0, 0 -26" transform="rotate(90,236,262)"/><rect x="405" y="249" width="26" height="26" transform="rotate(0,418,262)"/><rect x="431" y="249" width="26" height="26" transform="rotate(0,444,262)"/><path d="M 457 249v 26h 26v -13a 13 13, 0, 0, 0, -13 -13" transform="rotate(90,470,262)"/><path d="M 535 249v 26h 26v -13a 13 13, 0, 0, 0, -13 -13" transform="rotate(180,548,262)"/><rect x="561" y="249" width="26" height="26" transform="rotate(0,574,262)"/><rect x="587" y="249" width="26" height="26" transform="rotate(0,600,262)"/><path d="M 613 249v 26h 26v -13a 13 13, 0, 0, 0, -13 -13" transform="rotate(90,626,262)"/><path d="M 691 249v 26h 26v -13a 13 13, 0, 0, 0, -13 -13" transform="rotate(-90,704,262)"/><path d="M 717 249v 26h 26v -13a 13 13, 0, 0, 0, -13 -13" transform="rotate(90,730,262)"/><path d="M 769 249v 26h 26v -13a 13 13, 0, 0, 0, -13 -13" transform="rotate(180,782,262)"/><rect x="795" y="249" width="26" height="26" transform="rotate(0,808,262)"/><path d="M 873 249v 26h 13a 13 13, 0, 0, 0, 0 -26" transform="rotate(-90,886,262)"/><circle cx="964" cy="262" r="13" transform="rotate(0,964,262)"/><path d="M 1003 249v 26h 13a 13 13, 0, 0, 0, 0 -26" transform="rotate(-90,1016,262)"/><circle cx="1094" cy="262" r="13" transform="rotate(0,1094,262)"/><path d="M 171 275v 26h 13a 13 13, 0, 0, 0, 0 -26" transform="rotate(180,184,288)"/><path d="M 197 275v 26h 26v -13a 13 13, 0, 0, 0, -13 -13" transform="rotate(0,210,288)"/><path d="M 301 275v 26h 13a 13 13, 0, 0, 0, 0 -26" transform="rotate(-90,314,288)"/><path d="M 353 275v 26h 13a 13 13, 0, 0, 0, 0 -26" transform="rotate(180,366,288)"/><rect x="379" y="275" width="26" height="26" transform="rotate(0,392,288)"/><rect x="405" y="275" width="26" height="26" transform="rotate(0,418,288)"/><path d="M 509 275v 26h 13a 13 13, 0, 0, 0, 0 -26" transform="rotate(-90,522,288)"/><path d="M 665 275v 26h 13a 13 13, 0, 0, 0, 0 -26" transform="rotate(180,678,288)"/><path d="M 691 275v 26h 26v -13a 13 13, 0, 0, 0, -13 -13" transform="rotate(90,704,288)"/><circle cx="756" cy="288" r="13" transform="rotate(0,756,288)"/><rect x="795" y="275" width="26" height="26" transform="rotate(0,808,288)"/><path d="M 821 275v 26h 13a 13 13, 0, 0, 0, 0 -26" transform="rotate(0,834,288)"/><path d="M 873 275v 26h 13a 13 13, 0, 0, 0, 0 -26" transform="rotate(90,886,288)"/><circle cx="938" cy="288" r="13" transform="rotate(0,938,288)"/><path d="M 977 275v 26h 26v -13a 13 13, 0, 0, 0, -13 -13" transform="rotate(-90,990,288)"/><rect x="1003" y="275" width="26" height="26" transform="rotate(0,1016,288)"/><circle cx="1068" cy="288" r="13" transform="rotate(0,1068,288)"/><circle cx="1146" cy="288" r="13" transform="rotate(0,1146,288)"/><path d="M 15 301v 26h 13a 13 13, 0, 0, 0, 0 -26" transform="rotate(-90,28,314)"/><path d="M 67 301v 26h 13a 13 13, 0, 0, 0, 0 -26" transform="rotate(-90,80,314)"/><rect x="197" y="301" width="26" height="26" transform="rotate(0,210,314)"/><path d="M 249 301v 26h 13a 13 13, 0, 0, 0, 0 -26" transform="rotate(-90,262,314)"/><rect x="301" y="301" width="26" height="26" transform="rotate(0,314,314)"/><path d="M 327 301v 26h 26v -13a 13 13, 0, 0, 0, -13 -13" transform="rotate(0,340,314)"/><rect x="405" y="301" width="26" height="26" transform="rotate(0,418,314)"/><path d="M 483 301v 26h 26v -13a 13 13, 0, 0, 0, -13 -13" transform="rotate(-90,496,314)"/><rect x="509" y="301" width="26" height="26" transform="rotate(0,522,314)"/><path d="M 561 301v 26h 13a 13 13, 0, 0, 0, 0 -26" transform="rotate(-90,574,314)"/><circle cx="626" cy="314" r="13" transform="rotate(0,626,314)"/><path d="M 717 301v 26h 13a 13 13, 0, 0, 0, 0 -26" transform="rotate(-90,730,314)"/><path d="M 769 301v 26h 13a 13 13, 0, 0, 0, 0 -26" transform="rotate(180,782,314)"/><rect x="795" y="301" width="26" height="26" transform="rotate(0,808,314)"/><path d="M 847 301v 26h 13a 13 13, 0, 0, 0, 0 -26" transform="rotate(-90,860,314)"/><rect x="977" y="301" width="26" height="26" transform="rotate(0,990,314)"/><rect x="1003" y="301" width="26" height="26" transform="rotate(0,1016,314)"/><path d="M 1159 301v 26h 13a 13 13, 0, 0, 0, 0 -26" transform="rotate(-90,1172,314)"/><path d="M 15 327v 26h 26v -13a 13 13, 0, 0, 0, -13 -13" transform="rotate(180,28,340)"/><rect x="41" y="327" width="26" height="26" transform="rotate(0,54,340)"/><rect x="67" y="327" width="26" height="26" transform="rotate(0,80,340)"/><path d="M 93 327v 26h 26v -13a 13 13, 0, 0, 0, -13 -13" transform="rotate(0,106,340)"/><path d="M 171 327v 26h 13a 13 13, 0, 0, 0, 0 -26" transform="rotate(180,184,340)"/><path d="M 197 327v 26h 26v -13a 13 13, 0, 0, 0, -13 -13" transform="rotate(90,210,340)"/><path d="M 249 327v 26h 13a 13 13, 0, 0, 0, 0 -26" transform="rotate(90,262,340)"/><rect x="301" y="327" width="26" height="26" transform="rotate(0,314,340)"/><rect x="327" y="327" width="26" height="26" transform="rotate(0,340,340)"/><path d="M 353 327v 26h 13a 13 13, 0, 0, 0, 0 -26" transform="rotate(0,366,340)"/><path d="M 405 327v 26h 13a 13 13, 0, 0, 0, 0 -26" transform="rotate(90,418,340)"/><rect x="483" y="327" width="26" height="26" transform="rotate(0,496,340)"/><rect x="509" y="327" width="26" height="26" transform="rotate(0,522,340)"/><rect x="535" y="327" width="26" height="26" transform="rotate(0,548,340)"/><rect x="561" y="327" width="26" height="26" transform="rotate(0,574,340)"/><path d="M 587 327v 26h 26v -13a 13 13, 0, 0, 0, -13 -13" transform="rotate(0,600,340)"/><circle cx="652" cy="340" r="13" transform="rotate(0,652,340)"/><path d="M 691 327v 26h 26v -13a 13 13, 0, 0, 0, -13 -13" transform="rotate(-90,704,340)"/><rect x="717" y="327" width="26" height="26" transform="rotate(0,730,340)"/><rect x="795" y="327" width="26" height="26" transform="rotate(0,808,340)"/><rect x="847" y="327" width="26" height="26" transform="rotate(0,860,340)"/><path d="M 873 327v 26h 26v -13a 13 13, 0, 0, 0, -13 -13" transform="rotate(0,886,340)"/><path d="M 977 327v 26h 26v -13a 13 13, 0, 0, 0, -13 -13" transform="rotate(180,990,340)"/><rect x="1003" y="327" width="26" height="26" transform="rotate(0,1016,340)"/><path d="M 1029 327v 26h 26v -13a 13 13, 0, 0, 0, -13 -13" transform="rotate(0,1042,340)"/><path d="M 1133 327v 26h 26v -13a 13 13, 0, 0, 0, -13 -13" transform="rotate(-90,1146,340)"/><path d="M 1159 327v 26h 26v -13a 13 13, 0, 0, 0, -13 -13" transform="rotate(90,1172,340)"/><path d="M 41 353v 26h 13a 13 13, 0, 0, 0, 0 -26" transform="rotate(90,54,366)"/><path d="M 93 353v 26h 13a 13 13, 0, 0, 0, 0 -26" transform="rotate(90,106,366)"/><circle cx="158" cy="366" r="13" transform="rotate(0,158,366)"/><circle cx="236" cy="366" r="13" transform="rotate(0,236,366)"/><path d="M 275 353v 26h 13a 13 13, 0, 0, 0, 0 -26" transform="rotate(180,288,366)"/><rect x="301" y="353" width="26" height="26" transform="rotate(0,314,366)"/><circle cx="392" cy="366" r="13" transform="rotate(0,392,366)"/><path d="M 457 353v 26h 13a 13 13, 0, 0, 0, 0 -26" transform="rotate(180,470,366)"/><rect x="483" y="353" width="26" height="26" transform="rotate(0,496,366)"/><rect x="509" y="353" width="26" height="26" transform="rotate(0,522,366)"/><rect x="535" y="353" width="26" height="26" transform="rotate(0,548,366)"/><rect x="561" y="353" width="26" height="26" transform="rotate(0,574,366)"/><path d="M 587 353v 26h 26v -13a 13 13, 0, 0, 0, -13 -13" transform="rotate(90,600,366)"/><rect x="691" y="353" width="26" height="26" transform="rotate(0,704,366)"/><rect x="717" y="353" width="26" height="26" transform="rotate(0,730,366)"/><rect x="743" y="353" width="26" height="26" transform="rotate(0,756,366)"/><rect x="769" y="353" width="26" height="26" transform="rotate(0,782,366)"/><rect x="795" y="353" width="26" height="26" transform="rotate(0,808,366)"/><rect x="821" y="353" width="26" height="26" transform="rotate(0,834,366)"/><rect x="847" y="353" width="26" height="26" transform="rotate(0,860,366)"/><rect x="873" y="353" width="26" height="26" transform="rotate(0,886,366)"/><path d="M 925 353v 26h 26v -13a 13 13, 0, 0, 0, -13 -13" transform="rotate(-90,938,366)"/><path d="M 951 353v 26h 26v -13a 13 13, 0, 0, 0, -13 -13" transform="rotate(0,964,366)"/><rect x="1003" y="353" width="26" height="26" transform="rotate(0,1016,366)"/><path d="M 1029 353v 26h 26v -13a 13 13, 0, 0, 0, -13 -13" transform="rotate(90,1042,366)"/><circle cx="1094" cy="366" r="13" transform="rotate(0,1094,366)"/><rect x="1133" y="353" width="26" height="26" transform="rotate(0,1146,366)"/><circle cx="28" cy="392" r="13" transform="rotate(0,28,392)"/><circle cx="132" cy="392" r="13" transform="rotate(0,132,392)"/><path d="M 171 379v 26h 13a 13 13, 0, 0, 0, 0 -26" transform="rotate(180,184,392)"/><path d="M 197 379v 26h 13a 13 13, 0, 0, 0, 0 -26" transform="rotate(0,210,392)"/><path d="M 301 379v 26h 26v -13a 13 13, 0, 0, 0, -13 -13" transform="rotate(180,314,392)"/><path d="M 327 379v 26h 13a 13 13, 0, 0, 0, 0 -26" transform="rotate(0,340,392)"/><path d="M 405 379v 26h 13a 13 13, 0, 0, 0, 0 -26" transform="rotate(180,418,392)"/><path d="M 431 379v 26h 26v -13a 13 13, 0, 0, 0, -13 -13" transform="rotate(0,444,392)"/><path d="M 483 379v 26h 26v -13a 13 13, 0, 0, 0, -13 -13" transform="rotate(180,496,392)"/><rect x="509" y="379" width="26" height="26" transform="rotate(0,522,392)"/><rect x="535" y="379" width="26" height="26" transform="rotate(0,548,392)"/><rect x="561" y="379" width="26" height="26" transform="rotate(0,574,392)"/><path d="M 639 379v 26h 13a 13 13, 0, 0, 0, 0 -26" transform="rotate(180,652,392)"/><rect x="665" y="379" width="26" height="26" transform="rotate(0,678,392)"/><rect x="691" y="379" width="26" height="26" transform="rotate(0,704,392)"/><rect x="717" y="379" width="26" height="26" transform="rotate(0,730,392)"/><rect x="743" y="379" width="26" height="26" transform="rotate(0,756,392)"/><rect x="769" y="379" width="26" height="26" transform="rotate(0,782,392)"/><rect x="795" y="379" width="26" height="26" transform="rotate(0,808,392)"/><path d="M 821 379v 26h 26v -13a 13 13, 0, 0, 0, -13 -13" transform="rotate(90,834,392)"/><rect x="873" y="379" width="26" height="26" transform="rotate(0,886,392)"/><path d="M 925 379v 26h 26v -13a 13 13, 0, 0, 0, -13 -13" transform="rotate(180,938,392)"/><rect x="951" y="379" width="26" height="26" transform="rotate(0,964,392)"/><rect x="977" y="379" width="26" height="26" transform="rotate(0,990,392)"/><path d="M 1003 379v 26h 26v -13a 13 13, 0, 0, 0, -13 -13" transform="rotate(90,1016,392)"/><circle cx="1068" cy="392" r="13" transform="rotate(0,1068,392)"/><path d="M 1133 379v 26h 13a 13 13, 0, 0, 0, 0 -26" transform="rotate(90,1146,392)"/><path d="M 41 405v 26h 13a 13 13, 0, 0, 0, 0 -26" transform="rotate(180,54,418)"/><rect x="67" y="405" width="26" height="26" transform="rotate(0,80,418)"/><path d="M 93 405v 26h 26v -13a 13 13, 0, 0, 0, -13 -13" transform="rotate(0,106,418)"/><path d="M 275 405v 26h 13a 13 13, 0, 0, 0, 0 -26" transform="rotate(-90,288,418)"/><path d="M 353 405v 26h 13a 13 13, 0, 0, 0, 0 -26" transform="rotate(-90,366,418)"/><rect x="431" y="405" width="26" height="26" transform="rotate(0,444,418)"/><path d="M 457 405v 26h 26v -13a 13 13, 0, 0, 0, -13 -13" transform="rotate(0,470,418)"/><rect x="509" y="405" width="26" height="26" transform="rotate(0,522,418)"/><path d="M 561 405v 26h 13a 13 13, 0, 0, 0, 0 -26" transform="rotate(90,574,418)"/><path d="M 665 405v 26h 26v -13a 13 13, 0, 0, 0, -13 -13" transform="rotate(180,678,418)"/><rect x="691" y="405" width="26" height="26" transform="rotate(0,704,418)"/><path d="M 847 405v 26h 26v -13a 13 13, 0, 0, 0, -13 -13" transform="rotate(-90,860,418)"/><path d="M 873 405v 26h 26v -13a 13 13, 0, 0, 0, -13 -13" transform="rotate(90,886,418)"/><path d="M 951 405v 26h 13a 13 13, 0, 0, 0, 0 -26" transform="rotate(90,964,418)"/><path d="M 1029 405v 26h 13a 13 13, 0, 0, 0, 0 -26" transform="rotate(-90,1042,418)"/><path d="M 1159 405v 26h 13a 13 13, 0, 0, 0, 0 -26" transform="rotate(-90,1172,418)"/><circle cx="28" cy="444" r="13" transform="rotate(0,28,444)"/><path d="M 67 431v 26h 26v -13a 13 13, 0, 0, 0, -13 -13" transform="rotate(180,80,444)"/><rect x="93" y="431" width="26" height="26" transform="rotate(0,106,444)"/><path d="M 119 431v 26h 13a 13 13, 0, 0, 0, 0 -26" transform="rotate(0,132,444)"/><path d="M 171 431v 26h 13a 13 13, 0, 0, 0, 0 -26" transform="rotate(180,184,444)"/><rect x="197" y="431" width="26" height="26" transform="rotate(0,210,444)"/><path d="M 223 431v 26h 13a 13 13, 0, 0, 0, 0 -26" transform="rotate(0,236,444)"/><path d="M 275 431v 26h 13a 13 13, 0, 0, 0, 0 -26" transform="rotate(90,288,444)"/><path d="M 327 431v 26h 26v -13a 13 13, 0, 0, 0, -13 -13" transform="rotate(-90,340,444)"/><rect x="353" y="431" width="26" height="26" transform="rotate(0,366,444)"/><path d="M 405 431v 26h 13a 13 13, 0, 0, 0, 0 -26" transform="rotate(180,418,444)"/><rect x="431" y="431" width="26" height="26" transform="rotate(0,444,444)"/><rect x="457" y="431" width="26" height="26" transform="rotate(0,470,444)"/><path d="M 509 431v 26h 26v -13a 13 13, 0, 0, 0, -13 -13" transform="rotate(180,522,444)"/><path d="M 535 431v 26h 26v -13a 13 13, 0, 0, 0, -13 -13" transform="rotate(0,548,444)"/><path d="M 587 431v 26h 13a 13 13, 0, 0, 0, 0 -26" transform="rotate(-90,600,444)"/><path d="M 639 431v 26h 13a 13 13, 0, 0, 0, 0 -26" transform="rotate(-90,652,444)"/><rect x="691" y="431" width="26" height="26" transform="rotate(0,704,444)"/><path d="M 717 431v 26h 13a 13 13, 0, 0, 0, 0 -26" transform="rotate(0,730,444)"/><path d="M 769 431v 26h 26v -13a 13 13, 0, 0, 0, -13 -13" transform="rotate(-90,782,444)"/><rect x="795" y="431" width="26" height="26" transform="rotate(0,808,444)"/><rect x="821" y="431" width="26" height="26" transform="rotate(0,834,444)"/><path d="M 847 431v 26h 26v -13a 13 13, 0, 0, 0, -13 -13" transform="rotate(90,860,444)"/><path d="M 899 431v 26h 13a 13 13, 0, 0, 0, 0 -26" transform="rotate(180,912,444)"/><path d="M 925 431v 26h 13a 13 13, 0, 0, 0, 0 -26" transform="rotate(0,938,444)"/><path d="M 1003 431v 26h 26v -13a 13 13, 0, 0, 0, -13 -13" transform="rotate(-90,1016,444)"/><rect x="1029" y="431" width="26" height="26" transform="rotate(0,1042,444)"/><circle cx="1094" cy="444" r="13" transform="rotate(0,1094,444)"/><path d="M 1133 431v 26h 26v -13a 13 13, 0, 0, 0, -13 -13" transform="rotate(-90,1146,444)"/><path d="M 1159 431v 26h 26v -13a 13 13, 0, 0, 0, -13 -13" transform="rotate(90,1172,444)"/><circle cx="54" cy="470" r="13" transform="rotate(0,54,470)"/><path d="M 197 457v 26h 13a 13 13, 0, 0, 0, 0 -26" transform="rotate(90,210,470)"/><path d="M 301 457v 26h 26v -13a 13 13, 0, 0, 0, -13 -13" transform="rotate(-90,314,470)"/><rect x="327" y="457" width="26" height="26" transform="rotate(0,340,470)"/><rect x="353" y="457" width="26" height="26" transform="rotate(0,366,470)"/><path d="M 379 457v 26h 13a 13 13, 0, 0, 0, 0 -26" transform="rotate(0,392,470)"/><path d="M 431 457v 26h 26v -13a 13 13, 0, 0, 0, -13 -13" transform="rotate(180,444,470)"/><rect x="457" y="457" width="26" height="26" transform="rotate(0,470,470)"/><path d="M 483 457v 26h 13a 13 13, 0, 0, 0, 0 -26" transform="rotate(0,496,470)"/><path d="M 535 457v 26h 13a 13 13, 0, 0, 0, 0 -26" transform="rotate(90,548,470)"/><rect x="587" y="457" width="26" height="26" transform="rotate(0,600,470)"/><rect x="613" y="457" width="26" height="26" transform="rotate(0,626,470)"/><path d="M 639 457v 26h 26v -13a 13 13, 0, 0, 0, -13 -13" transform="rotate(90,652,470)"/><rect x="691" y="457" width="26" height="26" transform="rotate(0,704,470)"/><path d="M 769 457v 26h 26v -13a 13 13, 0, 0, 0, -13 -13" transform="rotate(180,782,470)"/><rect x="795" y="457" width="26" height="26" transform="rotate(0,808,470)"/><path d="M 821 457v 26h 26v -13a 13 13, 0, 0, 0, -13 -13" transform="rotate(90,834,470)"/><path d="M 951 457v 26h 13a 13 13, 0, 0, 0, 0 -26" transform="rotate(-90,964,470)"/><rect x="1003" y="457" width="26" height="26" transform="rotate(0,1016,470)"/><rect x="1029" y="457" width="26" height="26" transform="rotate(0,1042,470)"/><path d="M 1107 457v 26h 26v -13a 13 13, 0, 0, 0, -13 -13" transform="rotate(-90,1120,470)"/><rect x="1133" y="457" width="26" height="26" transform="rotate(0,1146,470)"/><path d="M 15 483v 26h 13a 13 13, 0, 0, 0, 0 -26" transform="rotate(-90,28,496)"/><circle cx="80" cy="496" r="13" transform="rotate(0,80,496)"/><path d="M 119 483v 26h 13a 13 13, 0, 0, 0, 0 -26" transform="rotate(-90,132,496)"/><circle cx="184" cy="496" r="13" transform="rotate(0,184,496)"/><rect x="301" y="483" width="26" height="26" transform="rotate(0,314,496)"/><rect x="353" y="483" width="26" height="26" transform="rotate(0,366,496)"/><path d="M 561 483v 26h 26v -13a 13 13, 0, 0, 0, -13 -13" transform="rotate(-90,574,496)"/><path d="M 587 483v 26h 26v -13a 13 13, 0, 0, 0, -13 -13" transform="rotate(90,600,496)"/><path d="M 665 483v 26h 26v -13a 13 13, 0, 0, 0, -13 -13" transform="rotate(-90,678,496)"/><rect x="691" y="483" width="26" height="26" transform="rotate(0,704,496)"/><path d="M 743 483v 26h 13a 13 13, 0, 0, 0, 0 -26" transform="rotate(-90,756,496)"/><rect x="795" y="483" width="26" height="26" transform="rotate(0,808,496)"/><path d="M 873 483v 26h 13a 13 13, 0, 0, 0, 0 -26" transform="rotate(-90,886,496)"/><path d="M 951 483v 26h 26v -13a 13 13, 0, 0, 0, -13 -13" transform="rotate(180,964,496)"/><rect x="977" y="483" width="26" height="26" transform="rotate(0,990,496)"/><rect x="1003" y="483" width="26" height="26" transform="rotate(0,1016,496)"/><path d="M 1029 483v 26h 26v -13a 13 13, 0, 0, 0, -13 -13" transform="rotate(90,1042,496)"/><path d="M 1107 483v 26h 26v -13a 13 13, 0, 0, 0, -13 -13" transform="rotate(180,1120,496)"/><rect x="1133" y="483" width="26" height="26" transform="rotate(0,1146,496)"/><path d="M 15 509v 26h 13a 13 13, 0, 0, 0, 0 -26" transform="rotate(90,28,522)"/><path d="M 93 509v 26h 13a 13 13, 0, 0, 0, 0 -26" transform="rotate(180,106,522)"/><rect x="119" y="509" width="26" height="26" transform="rotate(0,132,522)"/><path d="M 145 509v 26h 26v -13a 13 13, 0, 0, 0, -13 -13" transform="rotate(0,158,522)"/><path d="M 197 509v 26h 26v -13a 13 13, 0, 0, 0, -13 -13" transform="rotate(-90,210,522)"/><rect x="223" y="509" width="26" height="26" transform="rotate(0,236,522)"/><path d="M 249 509v 26h 13a 13 13, 0, 0, 0, 0 -26" transform="rotate(0,262,522)"/><rect x="301" y="509" width="26" height="26" transform="rotate(0,314,522)"/><rect x="353" y="509" width="26" height="26" transform="rotate(0,366,522)"/><path d="M 457 509v 26h 26v -13a 13 13, 0, 0, 0, -13 -13" transform="rotate(-90,470,522)"/><rect x="483" y="509" width="26" height="26" transform="rotate(0,496,522)"/><path d="M 509 509v 26h 13a 13 13, 0, 0, 0, 0 -26" transform="rotate(0,522,522)"/><rect x="561" y="509" width="26" height="26" transform="rotate(0,574,522)"/><path d="M 639 509v 26h 26v -13a 13 13, 0, 0, 0, -13 -13" transform="rotate(-90,652,522)"/><rect x="665" y="509" width="26" height="26" transform="rotate(0,678,522)"/><rect x="691" y="509" width="26" height="26" transform="rotate(0,704,522)"/><rect x="717" y="509" width="26" height="26" transform="rotate(0,730,522)"/><rect x="743" y="509" width="26" height="26" transform="rotate(0,756,522)"/><path d="M 795 509v 26h 13a 13 13, 0, 0, 0, 0 -26" transform="rotate(90,808,522)"/><path d="M 847 509v 26h 26v -13a 13 13, 0, 0, 0, -13 -13" transform="rotate(-90,860,522)"/><rect x="873" y="509" width="26" height="26" transform="rotate(0,886,522)"/><rect x="899" y="509" width="26" height="26" transform="rotate(0,912,522)"/><path d="M 925 509v 26h 13a 13 13, 0, 0, 0, 0 -26" transform="rotate(0,938,522)"/><rect x="977" y="509" width="26" height="26" transform="rotate(0,990,522)"/><rect x="1133" y="509" width="26" height="26" transform="rotate(0,1146,522)"/><rect x="119" y="535" width="26" height="26" transform="rotate(0,132,548)"/><rect x="145" y="535" width="26" height="26" transform="rotate(0,158,548)"/><rect x="171" y="535" width="26" height="26" transform="rotate(0,184,548)"/><rect x="197" y="535" width="26" height="26" transform="rotate(0,210,548)"/><rect x="223" y="535" width="26" height="26" transform="rotate(0,236,548)"/><path d="M 275 535v 26h 26v -13a 13 13, 0, 0, 0, -13 -13" transform="rotate(-90,288,548)"/><rect x="301" y="535" width="26" height="26" transform="rotate(0,314,548)"/><rect x="327" y="535" width="26" height="26" transform="rotate(0,340,548)"/><rect x="353" y="535" width="26" height="26" transform="rotate(0,366,548)"/><rect x="379" y="535" width="26" height="26" transform="rotate(0,392,548)"/><rect x="405" y="535" width="26" height="26" transform="rotate(0,418,548)"/><rect x="431" y="535" width="26" height="26" transform="rotate(0,444,548)"/><rect x="457" y="535" width="26" height="26" transform="rotate(0,470,548)"/><path d="M 535 535v 26h 26v -13a 13 13, 0, 0, 0, -13 -13" transform="rotate(-90,548,548)"/><rect x="561" y="535" width="26" height="26" transform="rotate(0,574,548)"/><rect x="587" y="535" width="26" height="26" transform="rotate(0,600,548)"/><rect x="613" y="535" width="26" height="26" transform="rotate(0,626,548)"/><rect x="639" y="535" width="26" height="26" transform="rotate(0,652,548)"/><path d="M 665 535v 26h 26v -13a 13 13, 0, 0, 0, -13 -13" transform="rotate(90,678,548)"/><path d="M 717 535v 26h 26v -13a 13 13, 0, 0, 0, -13 -13" transform="rotate(180,730,548)"/><rect x="743" y="535" width="26" height="26" transform="rotate(0,756,548)"/><path d="M 821 535v 26h 13a 13 13, 0, 0, 0, 0 -26" transform="rotate(180,834,548)"/><rect x="847" y="535" width="26" height="26" transform="rotate(0,860,548)"/><rect x="873" y="535" width="26" height="26" transform="rotate(0,886,548)"/><path d="M 899 535v 26h 26v -13a 13 13, 0, 0, 0, -13 -13" transform="rotate(90,912,548)"/><path d="M 951 535v 26h 26v -13a 13 13, 0, 0, 0, -13 -13" transform="rotate(-90,964,548)"/><rect x="977" y="535" width="26" height="26" transform="rotate(0,990,548)"/><rect x="1003" y="535" width="26" height="26" transform="rotate(0,1016,548)"/><rect x="1029" y="535" width="26" height="26" transform="rotate(0,1042,548)"/><rect x="1055" y="535" width="26" height="26" transform="rotate(0,1068,548)"/><path d="M 1081 535v 26h 13a 13 13, 0, 0, 0, 0 -26" transform="rotate(0,1094,548)"/><path d="M 1133 535v 26h 26v -13a 13 13, 0, 0, 0, -13 -13" transform="rotate(180,1146,548)"/><path d="M 1159 535v 26h 13a 13 13, 0, 0, 0, 0 -26" transform="rotate(0,1172,548)"/><rect x="119" y="561" width="26" height="26" transform="rotate(0,132,574)"/><rect x="223" y="561" width="26" height="26" transform="rotate(0,236,574)"/><rect x="275" y="561" width="26" height="26" transform="rotate(0,288,574)"/><path d="M 353 561v 26h 13a 13 13, 0, 0, 0, 0 -26" transform="rotate(90,366,574)"/><path d="M 431 561v 26h 26v -13a 13 13, 0, 0, 0, -13 -13" transform="rotate(180,444,574)"/><rect x="457" y="561" width="26" height="26" transform="rotate(0,470,574)"/><rect x="483" y="561" width="26" height="26" transform="rotate(0,496,574)"/><rect x="509" y="561" width="26" height="26" transform="rotate(0,522,574)"/><rect x="535" y="561" width="26" height="26" transform="rotate(0,548,574)"/><rect x="639" y="561" width="26" height="26" transform="rotate(0,652,574)"/><path d="M 743 561v 26h 26v -13a 13 13, 0, 0, 0, -13 -13" transform="rotate(180,756,574)"/><path d="M 769 561v 26h 26v -13a 13 13, 0, 0, 0, -13 -13" transform="rotate(0,782,574)"/><rect x="847" y="561" width="26" height="26" transform="rotate(0,860,574)"/><rect x="873" y="561" width="26" height="26" transform="rotate(0,886,574)"/><path d="M 925 561v 26h 13a 13 13, 0, 0, 0, 0 -26" transform="rotate(180,938,574)"/><rect x="951" y="561" width="26" height="26" transform="rotate(0,964,574)"/><rect x="1055" y="561" width="26" height="26" transform="rotate(0,1068,574)"/><path d="M 93 587v 26h 13a 13 13, 0, 0, 0, 0 -26" transform="rotate(180,106,600)"/><rect x="119" y="587" width="26" height="26" transform="rotate(0,132,600)"/><circle cx="184" cy="600" r="13" transform="rotate(0,184,600)"/><rect x="223" y="587" width="26" height="26" transform="rotate(0,236,600)"/><path d="M 275 587v 26h 13a 13 13, 0, 0, 0, 0 -26" transform="rotate(90,288,600)"/><path d="M 379 587v 26h 13a 13 13, 0, 0, 0, 0 -26" transform="rotate(-90,392,600)"/><rect x="483" y="587" width="26" height="26" transform="rotate(0,496,600)"/><rect x="535" y="587" width="26" height="26" transform="rotate(0,548,600)"/><circle cx="600" cy="600" r="13" transform="rotate(0,600,600)"/><rect x="639" y="587" width="26" height="26" transform="rotate(0,652,600)"/><path d="M 769 587v 26h 13a 13 13, 0, 0, 0, 0 -26" transform="rotate(90,782,600)"/><path d="M 821 587v 26h 13a 13 13, 0, 0, 0, 0 -26" transform="rotate(180,834,600)"/><rect x="847" y="587" width="26" height="26" transform="rotate(0,860,600)"/><path d="M 873 587v 26h 26v -13a 13 13, 0, 0, 0, -13 -13" transform="rotate(90,886,600)"/><rect x="951" y="587" width="26" height="26" transform="rotate(0,964,600)"/><circle cx="1016" cy="600" r="13" transform="rotate(0,1016,600)"/><rect x="1055" y="587" width="26" height="26" transform="rotate(0,1068,600)"/><path d="M 1081 587v 26h 13a 13 13, 0, 0, 0, 0 -26" transform="rotate(0,1094,600)"/><path d="M 1133 587v 26h 13a 13 13, 0, 0, 0, 0 -26" transform="rotate(-90,1146,600)"/><path d="M 15 613v 26h 13a 13 13, 0, 0, 0, 0 -26" transform="rotate(-90,28,626)"/><path d="M 67 613v 26h 13a 13 13, 0, 0, 0, 0 -26" transform="rotate(-90,80,626)"/><rect x="119" y="613" width="26" height="26" transform="rotate(0,132,626)"/><rect x="223" y="613" width="26" height="26" transform="rotate(0,236,626)"/><path d="M 249 613v 26h 13a 13 13, 0, 0, 0, 0 -26" transform="rotate(0,262,626)"/><rect x="379" y="613" width="26" height="26" transform="rotate(0,392,626)"/><path d="M 483 613v 26h 26v -13a 13 13, 0, 0, 0, -13 -13" transform="rotate(180,496,626)"/><rect x="509" y="613" width="26" height="26" transform="rotate(0,522,626)"/><rect x="535" y="613" width="26" height="26" transform="rotate(0,548,626)"/><rect x="639" y="613" width="26" height="26" transform="rotate(0,652,626)"/><path d="M 665 613v 26h 26v -13a 13 13, 0, 0, 0, -13 -13" transform="rotate(0,678,626)"/><circle cx="730" cy="626" r="13" transform="rotate(0,730,626)"/><rect x="847" y="613" width="26" height="26" transform="rotate(0,860,626)"/><path d="M 925 613v 26h 26v -13a 13 13, 0, 0, 0, -13 -13" transform="rotate(-90,938,626)"/><rect x="951" y="613" width="26" height="26" transform="rotate(0,964,626)"/><rect x="1055" y="613" width="26" height="26" transform="rotate(0,1068,626)"/><rect x="1133" y="613" width="26" height="26" transform="rotate(0,1146,626)"/><path d="M 15 639v 26h 26v -13a 13 13, 0, 0, 0, -13 -13" transform="rotate(180,28,652)"/><rect x="41" y="639" width="26" height="26" transform="rotate(0,54,652)"/><rect x="67" y="639" width="26" height="26" transform="rotate(0,80,652)"/><rect x="93" y="639" width="26" height="26" transform="rotate(0,106,652)"/><rect x="119" y="639" width="26" height="26" transform="rotate(0,132,652)"/><rect x="145" y="639" width="26" height="26" transform="rotate(0,158,652)"/><rect x="171" y="639" width="26" height="26" transform="rotate(0,184,652)"/><rect x="197" y="639" width="26" height="26" transform="rotate(0,210,652)"/><rect x="223" y="639" width="26" height="26" transform="rotate(0,236,652)"/><circle cx="314" cy="652" r="13" transform="rotate(0,314,652)"/><path d="M 353 639v 26h 26v -13a 13 13, 0, 0, 0, -13 -13" transform="rotate(-90,366,652)"/><rect x="379" y="639" width="26" height="26" transform="rotate(0,392,652)"/><path d="M 431 639v 26h 26v -13a 13 13, 0, 0, 0, -13 -13" transform="rotate(-90,444,652)"/><path d="M 457 639v 26h 13a 13 13, 0, 0, 0, 0 -26" transform="rotate(0,470,652)"/><rect x="509" y="639" width="26" height="26" transform="rotate(0,522,652)"/><rect x="535" y="639" width="26" height="26" transform="rotate(0,548,652)"/><rect x="561" y="639" width="26" height="26" transform="rotate(0,574,652)"/><rect x="587" y="639" width="26" height="26" transform="rotate(0,600,652)"/><rect x="613" y="639" width="26" height="26" transform="rotate(0,626,652)"/><rect x="639" y="639" width="26" height="26" transform="rotate(0,652,652)"/><path d="M 665 639v 26h 26v -13a 13 13, 0, 0, 0, -13 -13" transform="rotate(90,678,652)"/><path d="M 769 639v 26h 26v -13a 13 13, 0, 0, 0, -13 -13" transform="rotate(-90,782,652)"/><path d="M 795 639v 26h 26v -13a 13 13, 0, 0, 0, -13 -13" transform="rotate(0,808,652)"/><path d="M 847 639v 26h 26v -13a 13 13, 0, 0, 0, -13 -13" transform="rotate(180,860,652)"/><path d="M 873 639v 26h 26v -13a 13 13, 0, 0, 0, -13 -13" transform="rotate(0,886,652)"/><path d="M 925 639v 26h 26v -13a 13 13, 0, 0, 0, -13 -13" transform="rotate(180,938,652)"/><rect x="951" y="639" width="26" height="26" transform="rotate(0,964,652)"/><rect x="977" y="639" width="26" height="26" transform="rotate(0,990,652)"/><rect x="1003" y="639" width="26" height="26" transform="rotate(0,1016,652)"/><rect x="1029" y="639" width="26" height="26" transform="rotate(0,1042,652)"/><rect x="1055" y="639" width="26" height="26" transform="rotate(0,1068,652)"/><path d="M 1081 639v 26h 26v -13a 13 13, 0, 0, 0, -13 -13" transform="rotate(0,1094,652)"/><rect x="1133" y="639" width="26" height="26" transform="rotate(0,1146,652)"/><path d="M 41 665v 26h 26v -13a 13 13, 0, 0, 0, -13 -13" transform="rotate(180,54,678)"/><path d="M 67 665v 26h 26v -13a 13 13, 0, 0, 0, -13 -13" transform="rotate(90,80,678)"/><rect x="197" y="665" width="26" height="26" transform="rotate(0,210,678)"/><path d="M 223 665v 26h 26v -13a 13 13, 0, 0, 0, -13 -13" transform="rotate(90,236,678)"/><circle cx="288" cy="678" r="13" transform="rotate(0,288,678)"/><path d="M 353 665v 26h 26v -13a 13 13, 0, 0, 0, -13 -13" transform="rotate(180,366,678)"/><rect x="379" y="665" width="26" height="26" transform="rotate(0,392,678)"/><rect x="405" y="665" width="26" height="26" transform="rotate(0,418,678)"/><rect x="431" y="665" width="26" height="26" transform="rotate(0,444,678)"/><path d="M 483 665v 26h 13a 13 13, 0, 0, 0, 0 -26" transform="rotate(180,496,678)"/><rect x="509" y="665" width="26" height="26" transform="rotate(0,522,678)"/><rect x="535" y="665" width="26" height="26" transform="rotate(0,548,678)"/><path d="M 613 665v 26h 13a 13 13, 0, 0, 0, 0 -26" transform="rotate(90,626,678)"/><circle cx="730" cy="678" r="13" transform="rotate(0,730,678)"/><rect x="769" y="665" width="26" height="26" transform="rotate(0,782,678)"/><rect x="795" y="665" width="26" height="26" transform="rotate(0,808,678)"/><rect x="873" y="665" width="26" height="26" transform="rotate(0,886,678)"/><path d="M 951 665v 26h 26v -13a 13 13, 0, 0, 0, -13 -13" transform="rotate(180,964,678)"/><rect x="977" y="665" width="26" height="26" transform="rotate(0,990,678)"/><rect x="1003" y="665" width="26" height="26" transform="rotate(0,1016,678)"/><path d="M 1029 665v 26h 26v -13a 13 13, 0, 0, 0, -13 -13" transform="rotate(90,1042,678)"/><path d="M 1081 665v 26h 26v -13a 13 13, 0, 0, 0, -13 -13" transform="rotate(180,1094,678)"/><rect x="1107" y="665" width="26" height="26" transform="rotate(0,1120,678)"/><path d="M 1133 665v 26h 26v -13a 13 13, 0, 0, 0, -13 -13" transform="rotate(90,1146,678)"/><path d="M 171 691v 26h 13a 13 13, 0, 0, 0, 0 -26" transform="rotate(180,184,704)"/><path d="M 197 691v 26h 26v -13a 13 13, 0, 0, 0, -13 -13" transform="rotate(90,210,704)"/><path d="M 249 691v 26h 13a 13 13, 0, 0, 0, 0 -26" transform="rotate(-90,262,704)"/><rect x="431" y="691" width="26" height="26" transform="rotate(0,444,704)"/><path d="M 457 691v 26h 26v -13a 13 13, 0, 0, 0, -13 -13" transform="rotate(0,470,704)"/><path d="M 509 691v 26h 26v -13a 13 13, 0, 0, 0, -13 -13" transform="rotate(180,522,704)"/><rect x="535" y="691" width="26" height="26" transform="rotate(0,548,704)"/><circle cx="600" cy="704" r="13" transform="rotate(0,600,704)"/><path d="M 743 691v 26h 13a 13 13, 0, 0, 0, 0 -26" transform="rotate(180,756,704)"/><rect x="769" y="691" width="26" height="26" transform="rotate(0,782,704)"/><rect x="795" y="691" width="26" height="26" transform="rotate(0,808,704)"/><rect x="821" y="691" width="26" height="26" transform="rotate(0,834,704)"/><rect x="847" y="691" width="26" height="26" transform="rotate(0,860,704)"/><path d="M 873 691v 26h 26v -13a 13 13, 0, 0, 0, -13 -13" transform="rotate(90,886,704)"/><path d="M 1055 691v 26h 13a 13 13, 0, 0, 0, 0 -26" transform="rotate(-90,1068,704)"/><path d="M 41 717v 26h 13a 13 13, 0, 0, 0, 0 -26" transform="rotate(180,54,730)"/><rect x="67" y="717" width="26" height="26" transform="rotate(0,80,730)"/><path d="M 93 717v 26h 26v -13a 13 13, 0, 0, 0, -13 -13" transform="rotate(0,106,730)"/><rect x="249" y="717" width="26" height="26" transform="rotate(0,262,730)"/><circle cx="314" cy="730" r="13" transform="rotate(0,314,730)"/><rect x="431" y="717" width="26" height="26" transform="rotate(0,444,730)"/><path d="M 457 717v 26h 26v -13a 13 13, 0, 0, 0, -13 -13" transform="rotate(90,470,730)"/><rect x="535" y="717" width="26" height="26" transform="rotate(0,548,730)"/><path d="M 613 717v 26h 13a 13 13, 0, 0, 0, 0 -26" transform="rotate(-90,626,730)"/><circle cx="678" cy="730" r="13" transform="rotate(0,678,730)"/><path d="M 717 717v 26h 13a 13 13, 0, 0, 0, 0 -26" transform="rotate(-90,730,730)"/><rect x="769" y="717" width="26" height="26" transform="rotate(0,782,730)"/><rect x="795" y="717" width="26" height="26" transform="rotate(0,808,730)"/><rect x="847" y="717" width="26" height="26" transform="rotate(0,860,730)"/><circle cx="964" cy="730" r="13" transform="rotate(0,964,730)"/><path d="M 1003 717v 26h 13a 13 13, 0, 0, 0, 0 -26" transform="rotate(180,1016,730)"/><rect x="1029" y="717" width="26" height="26" transform="rotate(0,1042,730)"/><rect x="1055" y="717" width="26" height="26" transform="rotate(0,1068,730)"/><rect x="67" y="743" width="26" height="26" transform="rotate(0,80,756)"/><path d="M 93 743v 26h 26v -13a 13 13, 0, 0, 0, -13 -13" transform="rotate(90,106,756)"/><path d="M 145 743v 26h 26v -13a 13 13, 0, 0, 0, -13 -13" transform="rotate(-90,158,756)"/><rect x="171" y="743" width="26" height="26" transform="rotate(0,184,756)"/><rect x="197" y="743" width="26" height="26" transform="rotate(0,210,756)"/><rect x="223" y="743" width="26" height="26" transform="rotate(0,236,756)"/><rect x="249" y="743" width="26" height="26" transform="rotate(0,262,756)"/><path d="M 275 743v 26h 13a 13 13, 0, 0, 0, 0 -26" transform="rotate(0,288,756)"/><circle cx="366" cy="756" r="13" transform="rotate(0,366,756)"/><path d="M 431 743v 26h 13a 13 13, 0, 0, 0, 0 -26" transform="rotate(90,444,756)"/><path d="M 483 743v 26h 13a 13 13, 0, 0, 0, 0 -26" transform="rotate(-90,496,756)"/><path d="M 535 743v 26h 13a 13 13, 0, 0, 0, 0 -26" transform="rotate(90,548,756)"/><path d="M 613 743v 26h 26v -13a 13 13, 0, 0, 0, -13 -13" transform="rotate(180,626,756)"/><path d="M 639 743v 26h 26v -13a 13 13, 0, 0, 0, -13 -13" transform="rotate(0,652,756)"/><rect x="717" y="743" width="26" height="26" transform="rotate(0,730,756)"/><rect x="769" y="743" width="26" height="26" transform="rotate(0,782,756)"/><rect x="795" y="743" width="26" height="26" transform="rotate(0,808,756)"/><path d="M 847 743v 26h 13a 13 13, 0, 0, 0, 0 -26" transform="rotate(90,860,756)"/><circle cx="912" cy="756" r="13" transform="rotate(0,912,756)"/><path d="M 1055 743v 26h 13a 13 13, 0, 0, 0, 0 -26" transform="rotate(90,1068,756)"/><circle cx="1172" cy="756" r="13" transform="rotate(0,1172,756)"/><path d="M 67 769v 26h 13a 13 13, 0, 0, 0, 0 -26" transform="rotate(90,80,782)"/><path d="M 119 769v 26h 26v -13a 13 13, 0, 0, 0, -13 -13" transform="rotate(-90,132,782)"/><path d="M 145 769v 26h 26v -13a 13 13, 0, 0, 0, -13 -13" transform="rotate(90,158,782)"/><path d="M 223 769v 26h 26v -13a 13 13, 0, 0, 0, -13 -13" transform="rotate(180,236,782)"/><rect x="249" y="769" width="26" height="26" transform="rotate(0,262,782)"/><circle cx="340" cy="782" r="13" transform="rotate(0,340,782)"/><path d="M 379 769v 26h 13a 13 13, 0, 0, 0, 0 -26" transform="rotate(180,392,782)"/><path d="M 405 769v 26h 26v -13a 13 13, 0, 0, 0, -13 -13" transform="rotate(0,418,782)"/><path d="M 483 769v 26h 26v -13a 13 13, 0, 0, 0, -13 -13" transform="rotate(180,496,782)"/><path d="M 509 769v 26h 26v -13a 13 13, 0, 0, 0, -13 -13" transform="rotate(0,522,782)"/><path d="M 561 769v 26h 13a 13 13, 0, 0, 0, 0 -26" transform="rotate(-90,574,782)"/><rect x="639" y="769" width="26" height="26" transform="rotate(0,652,782)"/><path d="M 717 769v 26h 13a 13 13, 0, 0, 0, 0 -26" transform="rotate(90,730,782)"/><rect x="769" y="769" width="26" height="26" transform="rotate(0,782,782)"/><rect x="795" y="769" width="26" height="26" transform="rotate(0,808,782)"/><path d="M 821 769v 26h 26v -13a 13 13, 0, 0, 0, -13 -13" transform="rotate(0,834,782)"/><path d="M 951 769v 26h 13a 13 13, 0, 0, 0, 0 -26" transform="rotate(180,964,782)"/><path d="M 977 769v 26h 26v -13a 13 13, 0, 0, 0, -13 -13" transform="rotate(0,990,782)"/><circle cx="1042" cy="782" r="13" transform="rotate(0,1042,782)"/><path d="M 1081 769v 26h 26v -13a 13 13, 0, 0, 0, -13 -13" transform="rotate(-90,1094,782)"/><rect x="1107" y="769" width="26" height="26" transform="rotate(0,1120,782)"/><path d="M 1133 769v 26h 13a 13 13, 0, 0, 0, 0 -26" transform="rotate(0,1146,782)"/><path d="M 15 795v 26h 13a 13 13, 0, 0, 0, 0 -26" transform="rotate(-90,28,808)"/><path d="M 93 795v 26h 13a 13 13, 0, 0, 0, 0 -26" transform="rotate(180,106,808)"/><path d="M 119 795v 26h 26v -13a 13 13, 0, 0, 0, -13 -13" transform="rotate(90,132,808)"/><path d="M 171 795v 26h 13a 13 13, 0, 0, 0, 0 -26" transform="rotate(180,184,808)"/><path d="M 197 795v 26h 13a 13 13, 0, 0, 0, 0 -26" transform="rotate(0,210,808)"/><path d="M 249 795v 26h 13a 13 13, 0, 0, 0, 0 -26" transform="rotate(90,262,808)"/><path d="M 405 795v 26h 26v -13a 13 13, 0, 0, 0, -13 -13" transform="rotate(180,418,808)"/><rect x="431" y="795" width="26" height="26" transform="rotate(0,444,808)"/><path d="M 457 795v 26h 26v -13a 13 13, 0, 0, 0, -13 -13" transform="rotate(0,470,808)"/><path d="M 509 795v 26h 13a 13 13, 0, 0, 0, 0 -26" transform="rotate(90,522,808)"/><rect x="561" y="795" width="26" height="26" transform="rotate(0,574,808)"/><path d="M 613 795v 26h 13a 13 13, 0, 0, 0, 0 -26" transform="rotate(180,626,808)"/><path d="M 639 795v 26h 26v -13a 13 13, 0, 0, 0, -13 -13" transform="rotate(90,652,808)"/><circle cx="704" cy="808" r="13" transform="rotate(0,704,808)"/><rect x="769" y="795" width="26" height="26" transform="rotate(0,782,808)"/><rect x="795" y="795" width="26" height="26" transform="rotate(0,808,808)"/><rect x="821" y="795" width="26" height="26" transform="rotate(0,834,808)"/><rect x="847" y="795" width="26" height="26" transform="rotate(0,860,808)"/><path d="M 873 795v 26h 13a 13 13, 0, 0, 0, 0 -26" transform="rotate(0,886,808)"/><rect x="977" y="795" width="26" height="26" transform="rotate(0,990,808)"/><path d="M 1081 795v 26h 13a 13 13, 0, 0, 0, 0 -26" transform="rotate(90,1094,808)"/><rect x="15" y="821" width="26" height="26" transform="rotate(0,28,834)"/><rect x="41" y="821" width="26" height="26" transform="rotate(0,54,834)"/><path d="M 67 821v 26h 26v -13a 13 13, 0, 0, 0, -13 -13" transform="rotate(0,80,834)"/><circle cx="236" cy="834" r="13" transform="rotate(0,236,834)"/><path d="M 301 821v 26h 13a 13 13, 0, 0, 0, 0 -26" transform="rotate(180,314,834)"/><path d="M 327 821v 26h 26v -13a 13 13, 0, 0, 0, -13 -13" transform="rotate(0,340,834)"/><circle cx="392" cy="834" r="13" transform="rotate(0,392,834)"/><rect x="457" y="821" width="26" height="26" transform="rotate(0,470,834)"/><path d="M 483 821v 26h 13a 13 13, 0, 0, 0, 0 -26" transform="rotate(0,496,834)"/><path d="M 535 821v 26h 26v -13a 13 13, 0, 0, 0, -13 -13" transform="rotate(-90,548,834)"/><rect x="561" y="821" width="26" height="26" transform="rotate(0,574,834)"/><path d="M 587 821v 26h 13a 13 13, 0, 0, 0, 0 -26" transform="rotate(0,600,834)"/><rect x="769" y="821" width="26" height="26" transform="rotate(0,782,834)"/><rect x="847" y="821" width="26" height="26" transform="rotate(0,860,834)"/><path d="M 899 821v 26h 13a 13 13, 0, 0, 0, 0 -26" transform="rotate(-90,912,834)"/><path d="M 951 821v 26h 13a 13 13, 0, 0, 0, 0 -26" transform="rotate(180,964,834)"/><rect x="977" y="821" width="26" height="26" transform="rotate(0,990,834)"/><rect x="1003" y="821" width="26" height="26" transform="rotate(0,1016,834)"/><rect x="1029" y="821" width="26" height="26" transform="rotate(0,1042,834)"/><path d="M 1055 821v 26h 26v -13a 13 13, 0, 0, 0, -13 -13" transform="rotate(0,1068,834)"/><path d="M 1133 821v 26h 26v -13a 13 13, 0, 0, 0, -13 -13" transform="rotate(-90,1146,834)"/><path d="M 1159 821v 26h 26v -13a 13 13, 0, 0, 0, -13 -13" transform="rotate(0,1172,834)"/><rect x="15" y="847" width="26" height="26" transform="rotate(0,28,860)"/><rect x="41" y="847" width="26" height="26" transform="rotate(0,54,860)"/><rect x="67" y="847" width="26" height="26" transform="rotate(0,80,860)"/><rect x="93" y="847" width="26" height="26" transform="rotate(0,106,860)"/><rect x="119" y="847" width="26" height="26" transform="rotate(0,132,860)"/><rect x="145" y="847" width="26" height="26" transform="rotate(0,158,860)"/><rect x="171" y="847" width="26" height="26" transform="rotate(0,184,860)"/><path d="M 197 847v 26h 13a 13 13, 0, 0, 0, 0 -26" transform="rotate(0,210,860)"/><path d="M 249 847v 26h 26v -13a 13 13, 0, 0, 0, -13 -13" transform="rotate(-90,262,860)"/><path d="M 275 847v 26h 13a 13 13, 0, 0, 0, 0 -26" transform="rotate(0,288,860)"/><path d="M 327 847v 26h 26v -13a 13 13, 0, 0, 0, -13 -13" transform="rotate(180,340,860)"/><path d="M 353 847v 26h 13a 13 13, 0, 0, 0, 0 -26" transform="rotate(0,366,860)"/><path d="M 405 847v 26h 26v -13a 13 13, 0, 0, 0, -13 -13" transform="rotate(-90,418,860)"/><rect x="431" y="847" width="26" height="26" transform="rotate(0,444,860)"/><path d="M 457 847v 26h 26v -13a 13 13, 0, 0, 0, -13 -13" transform="rotate(90,470,860)"/><path d="M 509 847v 26h 26v -13a 13 13, 0, 0, 0, -13 -13" transform="rotate(-90,522,860)"/><path d="M 535 847v 26h 26v -13a 13 13, 0, 0, 0, -13 -13" transform="rotate(90,548,860)"/><path d="M 613 847v 26h 13a 13 13, 0, 0, 0, 0 -26" transform="rotate(180,626,860)"/><path d="M 639 847v 26h 13a 13 13, 0, 0, 0, 0 -26" transform="rotate(0,652,860)"/><path d="M 717 847v 26h 13a 13 13, 0, 0, 0, 0 -26" transform="rotate(-90,730,860)"/><rect x="769" y="847" width="26" height="26" transform="rotate(0,782,860)"/><rect x="847" y="847" width="26" height="26" transform="rotate(0,860,860)"/><path d="M 899 847v 26h 13a 13 13, 0, 0, 0, 0 -26" transform="rotate(90,912,860)"/><rect x="977" y="847" width="26" height="26" transform="rotate(0,990,860)"/><path d="M 1003 847v 26h 26v -13a 13 13, 0, 0, 0, -13 -13" transform="rotate(90,1016,860)"/><path d="M 1055 847v 26h 13a 13 13, 0, 0, 0, 0 -26" transform="rotate(90,1068,860)"/><path d="M 1133 847v 26h 26v -13a 13 13, 0, 0, 0, -13 -13" transform="rotate(180,1146,860)"/><path d="M 1159 847v 26h 26v -13a 13 13, 0, 0, 0, -13 -13" transform="rotate(90,1172,860)"/><path d="M 15 873v 26h 13a 13 13, 0, 0, 0, 0 -26" transform="rotate(90,28,886)"/><path d="M 67 873v 26h 26v -13a 13 13, 0, 0, 0, -13 -13" transform="rotate(180,80,886)"/><path d="M 93 873v 26h 26v -13a 13 13, 0, 0, 0, -13 -13" transform="rotate(90,106,886)"/><path d="M 223 873v 26h 26v -13a 13 13, 0, 0, 0, -13 -13" transform="rotate(-90,236,886)"/><path d="M 249 873v 26h 26v -13a 13 13, 0, 0, 0, -13 -13" transform="rotate(90,262,886)"/><path d="M 379 873v 26h 26v -13a 13 13, 0, 0, 0, -13 -13" transform="rotate(-90,392,886)"/><path d="M 405 873v 26h 26v -13a 13 13, 0, 0, 0, -13 -13" transform="rotate(90,418,886)"/><rect x="509" y="873" width="26" height="26" transform="rotate(0,522,886)"/><path d="M 717 873v 26h 13a 13 13, 0, 0, 0, 0 -26" transform="rotate(90,730,886)"/><rect x="769" y="873" width="26" height="26" transform="rotate(0,782,886)"/><path d="M 795 873v 26h 26v -13a 13 13, 0, 0, 0, -13 -13" transform="rotate(0,808,886)"/><rect x="847" y="873" width="26" height="26" transform="rotate(0,860,886)"/><path d="M 873 873v 26h 26v -13a 13 13, 0, 0, 0, -13 -13" transform="rotate(0,886,886)"/><rect x="977" y="873" width="26" height="26" transform="rotate(0,990,886)"/><path d="M 1029 873v 26h 13a 13 13, 0, 0, 0, 0 -26" transform="rotate(-90,1042,886)"/><path d="M 1107 873v 26h 13a 13 13, 0, 0, 0, 0 -26" transform="rotate(-90,1120,886)"/><path d="M 119 899v 26h 13a 13 13, 0, 0, 0, 0 -26" transform="rotate(-90,132,912)"/><circle cx="184" cy="912" r="13" transform="rotate(0,184,912)"/><path d="M 223 899v 26h 13a 13 13, 0, 0, 0, 0 -26" transform="rotate(90,236,912)"/><circle cx="314" cy="912" r="13" transform="rotate(0,314,912)"/><path d="M 353 899v 26h 26v -13a 13 13, 0, 0, 0, -13 -13" transform="rotate(-90,366,912)"/><rect x="379" y="899" width="26" height="26" transform="rotate(0,392,912)"/><rect x="509" y="899" width="26" height="26" transform="rotate(0,522,912)"/><rect x="535" y="899" width="26" height="26" transform="rotate(0,548,912)"/><path d="M 561 899v 26h 13a 13 13, 0, 0, 0, 0 -26" transform="rotate(0,574,912)"/><path d="M 665 899v 26h 26v -13a 13 13, 0, 0, 0, -13 -13" transform="rotate(-90,678,912)"/><path d="M 691 899v 26h 13a 13 13, 0, 0, 0, 0 -26" transform="rotate(0,704,912)"/><path d="M 743 899v 26h 13a 13 13, 0, 0, 0, 0 -26" transform="rotate(180,756,912)"/><rect x="769" y="899" width="26" height="26" transform="rotate(0,782,912)"/><path d="M 795 899v 26h 26v -13a 13 13, 0, 0, 0, -13 -13" transform="rotate(90,808,912)"/><rect x="847" y="899" width="26" height="26" transform="rotate(0,860,912)"/><rect x="873" y="899" width="26" height="26" transform="rotate(0,886,912)"/><rect x="977" y="899" width="26" height="26" transform="rotate(0,990,912)"/><path d="M 1029 899v 26h 13a 13 13, 0, 0, 0, 0 -26" transform="rotate(90,1042,912)"/><path d="M 1107 899v 26h 26v -13a 13 13, 0, 0, 0, -13 -13" transform="rotate(180,1120,912)"/><path d="M 1133 899v 26h 26v -13a 13 13, 0, 0, 0, -13 -13" transform="rotate(0,1146,912)"/><path d="M 41 925v 26h 13a 13 13, 0, 0, 0, 0 -26" transform="rotate(180,54,938)"/><rect x="67" y="925" width="26" height="26" transform="rotate(0,80,938)"/><rect x="93" y="925" width="26" height="26" transform="rotate(0,106,938)"/><rect x="119" y="925" width="26" height="26" transform="rotate(0,132,938)"/><circle cx="262" cy="938" r="13" transform="rotate(0,262,938)"/><path d="M 327 925v 26h 26v -13a 13 13, 0, 0, 0, -13 -13" transform="rotate(-90,340,938)"/><rect x="353" y="925" width="26" height="26" transform="rotate(0,366,938)"/><rect x="379" y="925" width="26" height="26" transform="rotate(0,392,938)"/><path d="M 431 925v 26h 26v -13a 13 13, 0, 0, 0, -13 -13" transform="rotate(-90,444,938)"/><rect x="457" y="925" width="26" height="26" transform="rotate(0,470,938)"/><rect x="483" y="925" width="26" height="26" transform="rotate(0,496,938)"/><path d="M 509 925v 26h 26v -13a 13 13, 0, 0, 0, -13 -13" transform="rotate(90,522,938)"/><path d="M 587 925v 26h 26v -13a 13 13, 0, 0, 0, -13 -13" transform="rotate(-90,600,938)"/><path d="M 613 925v 26h 26v -13a 13 13, 0, 0, 0, -13 -13" transform="rotate(0,626,938)"/><rect x="665" y="925" width="26" height="26" transform="rotate(0,678,938)"/><path d="M 821 925v 26h 13a 13 13, 0, 0, 0, 0 -26" transform="rotate(180,834,938)"/><rect x="847" y="925" width="26" height="26" transform="rotate(0,860,938)"/><rect x="873" y="925" width="26" height="26" transform="rotate(0,886,938)"/><path d="M 951 925v 26h 26v -13a 13 13, 0, 0, 0, -13 -13" transform="rotate(-90,964,938)"/><rect x="977" y="925" width="26" height="26" transform="rotate(0,990,938)"/><path d="M 1003 925v 26h 26v -13a 13 13, 0, 0, 0, -13 -13" transform="rotate(0,1016,938)"/><path d="M 1055 925v 26h 13a 13 13, 0, 0, 0, 0 -26" transform="rotate(-90,1068,938)"/><path d="M 1133 925v 26h 13a 13 13, 0, 0, 0, 0 -26" transform="rotate(90,1146,938)"/><circle cx="28" cy="964" r="13" transform="rotate(0,28,964)"/><path d="M 93 951v 26h 26v -13a 13 13, 0, 0, 0, -13 -13" transform="rotate(180,106,964)"/><path d="M 119 951v 26h 26v -13a 13 13, 0, 0, 0, -13 -13" transform="rotate(90,132,964)"/><circle cx="184" cy="964" r="13" transform="rotate(0,184,964)"/><path d="M 223 951v 26h 13a 13 13, 0, 0, 0, 0 -26" transform="rotate(-90,236,964)"/><rect x="327" y="951" width="26" height="26" transform="rotate(0,340,964)"/><rect x="379" y="951" width="26" height="26" transform="rotate(0,392,964)"/><rect x="405" y="951" width="26" height="26" transform="rotate(0,418,964)"/><rect x="431" y="951" width="26" height="26" transform="rotate(0,444,964)"/><path d="M 457 951v 26h 26v -13a 13 13, 0, 0, 0, -13 -13" transform="rotate(90,470,964)"/><path d="M 535 951v 26h 26v -13a 13 13, 0, 0, 0, -13 -13" transform="rotate(-90,548,964)"/><rect x="561" y="951" width="26" height="26" transform="rotate(0,574,964)"/><rect x="587" y="951" width="26" height="26" transform="rotate(0,600,964)"/><rect x="613" y="951" width="26" height="26" transform="rotate(0,626,964)"/><rect x="639" y="951" width="26" height="26" transform="rotate(0,652,964)"/><path d="M 665 951v 26h 26v -13a 13 13, 0, 0, 0, -13 -13" transform="rotate(90,678,964)"/><circle cx="730" cy="964" r="13" transform="rotate(0,730,964)"/><path d="M 769 951v 26h 13a 13 13, 0, 0, 0, 0 -26" transform="rotate(180,782,964)"/><path d="M 795 951v 26h 26v -13a 13 13, 0, 0, 0, -13 -13" transform="rotate(0,808,964)"/><rect x="847" y="951" width="26" height="26" transform="rotate(0,860,964)"/><rect x="873" y="951" width="26" height="26" transform="rotate(0,886,964)"/><rect x="951" y="951" width="26" height="26" transform="rotate(0,964,964)"/><rect x="977" y="951" width="26" height="26" transform="rotate(0,990,964)"/><rect x="1003" y="951" width="26" height="26" transform="rotate(0,1016,964)"/><rect x="1029" y="951" width="26" height="26" transform="rotate(0,1042,964)"/><rect x="1055" y="951" width="26" height="26" transform="rotate(0,1068,964)"/><circle cx="1172" cy="964" r="13" transform="rotate(0,1172,964)"/><path d="M 223 977v 26h 26v -13a 13 13, 0, 0, 0, -13 -13" transform="rotate(180,236,990)"/><rect x="249" y="977" width="26" height="26" transform="rotate(0,262,990)"/><rect x="275" y="977" width="26" height="26" transform="rotate(0,288,990)"/><rect x="301" y="977" width="26" height="26" transform="rotate(0,314,990)"/><rect x="327" y="977" width="26" height="26" transform="rotate(0,340,990)"/><rect x="353" y="977" width="26" height="26" transform="rotate(0,366,990)"/><rect x="379" y="977" width="26" height="26" transform="rotate(0,392,990)"/><path d="M 405 977v 26h 26v -13a 13 13, 0, 0, 0, -13 -13" transform="rotate(90,418,990)"/><path d="M 483 977v 26h 13a 13 13, 0, 0, 0, 0 -26" transform="rotate(-90,496,990)"/><rect x="535" y="977" width="26" height="26" transform="rotate(0,548,990)"/><rect x="639" y="977" width="26" height="26" transform="rotate(0,652,990)"/><path d="M 691 977v 26h 13a 13 13, 0, 0, 0, 0 -26" transform="rotate(-90,704,990)"/><circle cx="756" cy="990" r="13" transform="rotate(0,756,990)"/><rect x="795" y="977" width="26" height="26" transform="rotate(0,808,990)"/><rect x="847" y="977" width="26" height="26" transform="rotate(0,860,990)"/><rect x="873" y="977" width="26" height="26" transform="rotate(0,886,990)"/><rect x="951" y="977" width="26" height="26" transform="rotate(0,964,990)"/><rect x="1055" y="977" width="26" height="26" transform="rotate(0,1068,990)"/><rect x="1081" y="977" width="26" height="26" transform="rotate(0,1094,990)"/><path d="M 1107 977v 26h 26v -13a 13 13, 0, 0, 0, -13 -13" transform="rotate(0,1120,990)"/><path d="M 249 1003v 26h 13a 13 13, 0, 0, 0, 0 -26" transform="rotate(90,262,1016)"/><rect x="301" y="1003" width="26" height="26" transform="rotate(0,314,1016)"/><path d="M 327 1003v 26h 26v -13a 13 13, 0, 0, 0, -13 -13" transform="rotate(90,340,1016)"/><rect x="483" y="1003" width="26" height="26" transform="rotate(0,496,1016)"/><rect x="535" y="1003" width="26" height="26" transform="rotate(0,548,1016)"/><circle cx="600" cy="1016" r="13" transform="rotate(0,600,1016)"/><rect x="639" y="1003" width="26" height="26" transform="rotate(0,652,1016)"/><rect x="665" y="1003" width="26" height="26" transform="rotate(0,678,1016)"/><path d="M 691 1003v 26h 26v -13a 13 13, 0, 0, 0, -13 -13" transform="rotate(90,704,1016)"/><path d="M 769 1003v 26h 26v -13a 13 13, 0, 0, 0, -13 -13" transform="rotate(-90,782,1016)"/><rect x="795" y="1003" width="26" height="26" transform="rotate(0,808,1016)"/><rect x="821" y="1003" width="26" height="26" transform="rotate(0,834,1016)"/><rect x="847" y="1003" width="26" height="26" transform="rotate(0,860,1016)"/><path d="M 873 1003v 26h 26v -13a 13 13, 0, 0, 0, -13 -13" transform="rotate(90,886,1016)"/><rect x="951" y="1003" width="26" height="26" transform="rotate(0,964,1016)"/><circle cx="1016" cy="1016" r="13" transform="rotate(0,1016,1016)"/><rect x="1055" y="1003" width="26" height="26" transform="rotate(0,1068,1016)"/><rect x="1081" y="1003" width="26" height="26" transform="rotate(0,1094,1016)"/><rect x="1107" y="1003" width="26" height="26" transform="rotate(0,1120,1016)"/><path d="M 1133 1003v 26h 26v -13a 13 13, 0, 0, 0, -13 -13" transform="rotate(0,1146,1016)"/><path d="M 275 1029v 26h 13a 13 13, 0, 0, 0, 0 -26" transform="rotate(180,288,1042)"/><path d="M 301 1029v 26h 26v -13a 13 13, 0, 0, 0, -13 -13" transform="rotate(90,314,1042)"/><path d="M 457 1029v 26h 26v -13a 13 13, 0, 0, 0, -13 -13" transform="rotate(-90,470,1042)"/><rect x="483" y="1029" width="26" height="26" transform="rotate(0,496,1042)"/><rect x="509" y="1029" width="26" height="26" transform="rotate(0,522,1042)"/><rect x="535" y="1029" width="26" height="26" transform="rotate(0,548,1042)"/><rect x="639" y="1029" width="26" height="26" transform="rotate(0,652,1042)"/><path d="M 769 1029v 26h 13a 13 13, 0, 0, 0, 0 -26" transform="rotate(90,782,1042)"/><path d="M 821 1029v 26h 26v -13a 13 13, 0, 0, 0, -13 -13" transform="rotate(180,834,1042)"/><rect x="847" y="1029" width="26" height="26" transform="rotate(0,860,1042)"/><path d="M 925 1029v 26h 13a 13 13, 0, 0, 0, 0 -26" transform="rotate(180,938,1042)"/><rect x="951" y="1029" width="26" height="26" transform="rotate(0,964,1042)"/><rect x="1055" y="1029" width="26" height="26" transform="rotate(0,1068,1042)"/><path d="M 1133 1029v 26h 13a 13 13, 0, 0, 0, 0 -26" transform="rotate(90,1146,1042)"/><circle cx="236" cy="1068" r="13" transform="rotate(0,236,1068)"/><path d="M 379 1055v 26h 26v -13a 13 13, 0, 0, 0, -13 -13" transform="rotate(-90,392,1068)"/><rect x="405" y="1055" width="26" height="26" transform="rotate(0,418,1068)"/><rect x="431" y="1055" width="26" height="26" transform="rotate(0,444,1068)"/><rect x="457" y="1055" width="26" height="26" transform="rotate(0,470,1068)"/><rect x="483" y="1055" width="26" height="26" transform="rotate(0,496,1068)"/><rect x="535" y="1055" width="26" height="26" transform="rotate(0,548,1068)"/><rect x="561" y="1055" width="26" height="26" transform="rotate(0,574,1068)"/><rect x="587" y="1055" width="26" height="26" transform="rotate(0,600,1068)"/><rect x="613" y="1055" width="26" height="26" transform="rotate(0,626,1068)"/><rect x="639" y="1055" width="26" height="26" transform="rotate(0,652,1068)"/><path d="M 665 1055v 26h 13a 13 13, 0, 0, 0, 0 -26" transform="rotate(0,678,1068)"/><circle cx="730" cy="1068" r="13" transform="rotate(0,730,1068)"/><rect x="847" y="1055" width="26" height="26" transform="rotate(0,860,1068)"/><rect x="873" y="1055" width="26" height="26" transform="rotate(0,886,1068)"/><path d="M 899 1055v 26h 13a 13 13, 0, 0, 0, 0 -26" transform="rotate(0,912,1068)"/><path d="M 951 1055v 26h 26v -13a 13 13, 0, 0, 0, -13 -13" transform="rotate(180,964,1068)"/><rect x="977" y="1055" width="26" height="26" transform="rotate(0,990,1068)"/><rect x="1003" y="1055" width="26" height="26" transform="rotate(0,1016,1068)"/><rect x="1029" y="1055" width="26" height="26" transform="rotate(0,1042,1068)"/><rect x="1055" y="1055" width="26" height="26" transform="rotate(0,1068,1068)"/><path d="M 1159 1055v 26h 13a 13 13, 0, 0, 0, 0 -26" transform="rotate(-90,1172,1068)"/><path d="M 275 1081v 26h 13a 13 13, 0, 0, 0, 0 -26" transform="rotate(180,288,1094)"/><rect x="301" y="1081" width="26" height="26" transform="rotate(0,314,1094)"/><path d="M 327 1081v 26h 26v -13a 13 13, 0, 0, 0, -13 -13" transform="rotate(0,340,1094)"/><rect x="379" y="1081" width="26" height="26" transform="rotate(0,392,1094)"/><path d="M 457 1081v 26h 26v -13a 13 13, 0, 0, 0, -13 -13" transform="rotate(180,470,1094)"/><rect x="483" y="1081" width="26" height="26" transform="rotate(0,496,1094)"/><path d="M 535 1081v 26h 26v -13a 13 13, 0, 0, 0, -13 -13" transform="rotate(180,548,1094)"/><path d="M 561 1081v 26h 26v -13a 13 13, 0, 0, 0, -13 -13" transform="rotate(90,574,1094)"/><circle cx="704" cy="1094" r="13" transform="rotate(0,704,1094)"/><path d="M 769 1081v 26h 26v -13a 13 13, 0, 0, 0, -13 -13" transform="rotate(-90,782,1094)"/><rect x="795" y="1081" width="26" height="26" transform="rotate(0,808,1094)"/><rect x="821" y="1081" width="26" height="26" transform="rotate(0,834,1094)"/><path d="M 847 1081v 26h 26v -13a 13 13, 0, 0, 0, -13 -13" transform="rotate(90,860,1094)"/><path d="M 977 1081v 26h 26v -13a 13 13, 0, 0, 0, -13 -13" transform="rotate(180,990,1094)"/><rect x="1003" y="1081" width="26" height="26" transform="rotate(0,1016,1094)"/><rect x="1029" y="1081" width="26" height="26" transform="rotate(0,1042,1094)"/><rect x="1055" y="1081" width="26" height="26" transform="rotate(0,1068,1094)"/><rect x="1081" y="1081" width="26" height="26" transform="rotate(0,1094,1094)"/><path d="M 1107 1081v 26h 13a 13 13, 0, 0, 0, 0 -26" transform="rotate(0,1120,1094)"/><path d="M 1159 1081v 26h 13a 13 13, 0, 0, 0, 0 -26" transform="rotate(90,1172,1094)"/><circle cx="262" cy="1120" r="13" transform="rotate(0,262,1120)"/><rect x="327" y="1107" width="26" height="26" transform="rotate(0,340,1120)"/><rect x="379" y="1107" width="26" height="26" transform="rotate(0,392,1120)"/><rect x="483" y="1107" width="26" height="26" transform="rotate(0,496,1120)"/><circle cx="678" cy="1120" r="13" transform="rotate(0,678,1120)"/><rect x="769" y="1107" width="26" height="26" transform="rotate(0,782,1120)"/><rect x="795" y="1107" width="26" height="26" transform="rotate(0,808,1120)"/><path d="M 821 1107v 26h 26v -13a 13 13, 0, 0, 0, -13 -13" transform="rotate(90,834,1120)"/><circle cx="886" cy="1120" r="13" transform="rotate(0,886,1120)"/><circle cx="938" cy="1120" r="13" transform="rotate(0,938,1120)"/><rect x="1055" y="1107" width="26" height="26" transform="rotate(0,1068,1120)"/><path d="M 1081 1107v 26h 26v -13a 13 13, 0, 0, 0, -13 -13" transform="rotate(90,1094,1120)"/><circle cx="1146" cy="1120" r="13" transform="rotate(0,1146,1120)"/><circle cx="236" cy="1146" r="13" transform="rotate(0,236,1146)"/><circle cx="288" cy="1146" r="13" transform="rotate(0,288,1146)"/><rect x="327" y="1133" width="26" height="26" transform="rotate(0,340,1146)"/><rect x="379" y="1133" width="26" height="26" transform="rotate(0,392,1146)"/><rect x="405" y="1133" width="26" height="26" transform="rotate(0,418,1146)"/><path d="M 431 1133v 26h 26v -13a 13 13, 0, 0, 0, -13 -13" transform="rotate(0,444,1146)"/><path d="M 483 1133v 26h 26v -13a 13 13, 0, 0, 0, -13 -13" transform="rotate(180,496,1146)"/><rect x="509" y="1133" width="26" height="26" transform="rotate(0,522,1146)"/><path d="M 535 1133v 26h 26v -13a 13 13, 0, 0, 0, -13 -13" transform="rotate(0,548,1146)"/><path d="M 587 1133v 26h 26v -13a 13 13, 0, 0, 0, -13 -13" transform="rotate(-90,600,1146)"/><path d="M 613 1133v 26h 26v -13a 13 13, 0, 0, 0, -13 -13" transform="rotate(0,626,1146)"/><path d="M 691 1133v 26h 13a 13 13, 0, 0, 0, 0 -26" transform="rotate(-90,704,1146)"/><path d="M 743 1133v 26h 13a 13 13, 0, 0, 0, 0 -26" transform="rotate(180,756,1146)"/><rect x="769" y="1133" width="26" height="26" transform="rotate(0,782,1146)"/><path d="M 847 1133v 26h 13a 13 13, 0, 0, 0, 0 -26" transform="rotate(-90,860,1146)"/><circle cx="990" cy="1146" r="13" transform="rotate(0,990,1146)"/><path d="M 1029 1133v 26h 26v -13a 13 13, 0, 0, 0, -13 -13" transform="rotate(-90,1042,1146)"/><path d="M 1055 1133v 26h 26v -13a 13 13, 0, 0, 0, -13 -13" transform="rotate(90,1068,1146)"/><path d="M 327 1159v 26h 13a 13 13, 0, 0, 0, 0 -26" transform="rotate(90,340,1172)"/><path d="M 379 1159v 26h 13a 13 13, 0, 0, 0, 0 -26" transform="rotate(90,392,1172)"/><path d="M 431 1159v 26h 26v -13a 13 13, 0, 0, 0, -13 -13" transform="rotate(180,444,1172)"/><path d="M 457 1159v 26h 13a 13 13, 0, 0, 0, 0 -26" transform="rotate(0,470,1172)"/><path d="M 509 1159v 26h 26v -13a 13 13, 0, 0, 0, -13 -13" transform="rotate(180,522,1172)"/><path d="M 535 1159v 26h 26v -13a 13 13, 0, 0, 0, -13 -13" transform="rotate(90,548,1172)"/><path d="M 587 1159v 26h 26v -13a 13 13, 0, 0, 0, -13 -13" transform="rotate(180,600,1172)"/><rect x="613" y="1159" width="26" height="26" transform="rotate(0,626,1172)"/><rect x="639" y="1159" width="26" height="26" transform="rotate(0,652,1172)"/><rect x="665" y="1159" width="26" height="26" transform="rotate(0,678,1172)"/><path d="M 691 1159v 26h 26v -13a 13 13, 0, 0, 0, -13 -13" transform="rotate(90,704,1172)"/><path d="M 769 1159v 26h 26v -13a 13 13, 0, 0, 0, -13 -13" transform="rotate(180,782,1172)"/><path d="M 795 1159v 26h 13a 13 13, 0, 0, 0, 0 -26" transform="rotate(0,808,1172)"/><path d="M 847 1159v 26h 26v -13a 13 13, 0, 0, 0, -13 -13" transform="rotate(180,860,1172)"/><rect x="873" y="1159" width="26" height="26" transform="rotate(0,886,1172)"/><path d="M 899 1159v 26h 13a 13 13, 0, 0, 0, 0 -26" transform="rotate(0,912,1172)"/><path d="M 1029 1159v 26h 13a 13 13, 0, 0, 0, 0 -26" transform="rotate(90,1042,1172)"/><circle cx="1172" cy="1172" r="13" transform="rotate(0,1172,1172)"/></clipPath><clipPath id="clip-path-corners-square-color-0-0-166"><path clip-rule="evenodd" d="M 15 80v 52a 65 65, 0, 0, 0, 65 65h 52a 65 65, 0, 0, 0, 65 -65v -52a 65 65, 0, 0, 0, -65 -65h -52a 65 65, 0, 0, 0, -65 65M 80 41h 52a 39 39, 0, 0, 1, 39 39v 52a 39 39, 0, 0, 1, -39 39h -52a 39 39, 0, 0, 1, -39 -39v -52a 39 39, 0, 0, 1, 39 -39" transform="rotate(0,106,106)"/></clipPath><clipPath id="clip-path-corners-dot-color-0-0-166"><circle cx="106" cy="106" r="39" transform="rotate(0,106,106)"/></clipPath><clipPath id="clip-path-corners-square-color-1-0-166"><path clip-rule="evenodd" d="M 1003 80v 52a 65 65, 0, 0, 0, 65 65h 52a 65 65, 0, 0, 0, 65 -65v -52a 65 65, 0, 0, 0, -65 -65h -52a 65 65, 0, 0, 0, -65 65M 1068 41h 52a 39 39, 0, 0, 1, 39 39v 52a 39 39, 0, 0, 1, -39 39h -52a 39 39, 0, 0, 1, -39 -39v -52a 39 39, 0, 0, 1, 39 -39" transform="rotate(90,1094,106)"/></clipPath><clipPath id="clip-path-corners-dot-color-1-0-166"><circle cx="1094" cy="106" r="39" transform="rotate(90,1094,106)"/></clipPath><clipPath id="clip-path-corners-square-color-0-1-166"><path clip-rule="evenodd" d="M 15 1068v 52a 65 65, 0, 0, 0, 65 65h 52a 65 65, 0, 0, 0, 65 -65v -52a 65 65, 0, 0, 0, -65 -65h -52a 65 65, 0, 0, 0, -65 65M 80 1029h 52a 39 39, 0, 0, 1, 39 39v 52a 39 39, 0, 0, 1, -39 39h -52a 39 39, 0, 0, 1, -39 -39v -52a 39 39, 0, 0, 1, 39 -39" transform="rotate(-90,106,1094)"/></clipPath><clipPath id="clip-path-corners-dot-color-0-1-166"><circle cx="106" cy="1094" r="39" transform="rotate(-90,106,1094)"/></clipPath></defs><rect x="0" y="0" height="1200" width="1200" clip-path="url('#clip-path-background-color-166')" fill="#ffffff"/><rect x="0" y="0" height="1200" width="1200" clip-path="url('#clip-path-dot-color-166')" fill="#000000"/><rect x="15" y="15" height="182" width="182" clip-path="url('#clip-path-corners-square-color-0-0-166')" fill="#000000"/><rect x="67" y="67" height="78" width="78" clip-path="url('#clip-path-corners-dot-color-0-0-166')" fill="#000000"/><rect x="1003" y="15" height="182" width="182" clip-path="url('#clip-path-corners-square-color-1-0-166')" fill="#000000"/><rect x="1055" y="67" height="78" width="78" clip-path="url('#clip-path-corners-dot-color-1-0-166')" fill="#000000"/><rect x="15" y="1003" height="182" width="182" clip-path="url('#clip-path-corners-square-color-0-1-166')" fill="#000000"/><rect x="67" y="1055" height="78" width="78" clip-path="url('#clip-path-corners-dot-color-0-1-166')" fill="#000000"/></svg>