<?xml version="1.0" standalone="no"?>
<svg xmlns="http://www.w3.org/2000/svg" width="1200" height="1200" xmlns:xlink="http://www.w3.org/1999/xlink" viewBox="0 0 1200 1200"><defs><clipPath id="clip-path-background-color-176"><rect x="0" y="0" width="1200" height="1200"/></clipPath><clipPath id="clip-path-dot-color-176"><path d="M 250 26v 28h 14a 14 14, 0, 0, 0, 0 -28" transform="rotate(180,264,40)"/><rect x="278" y="26" width="28" height="28" transform="rotate(0,292,40)"/><path d="M 306 26v 28h 28v -14a 14 14, 0, 0, 0, -14 -14" transform="rotate(0,320,40)"/><path d="M 390 26v 28h 14a 14 14, 0, 0, 0, 0 -28" transform="rotate(180,404,40)"/><path d="M 418 26v 28h 14a 14 14, 0, 0, 0, 0 -28" transform="rotate(0,432,40)"/><circle cx="488" cy="40" r="14" transform="rotate(0,488,40)"/><path d="M 530 26v 28h 28v -14a 14 14, 0, 0, 0, -14 -14" transform="rotate(-90,544,40)"/><rect x="558" y="26" width="28" height="28" transform="rotate(0,572,40)"/><path d="M 586 26v 28h 28v -14a 14 14, 0, 0, 0, -14 -14" transform="rotate(0,600,40)"/><path d="M 698 26v 28h 14a 14 14, 0, 0, 0, 0 -28" transform="rotate(-90,712,40)"/><path d="M 754 26v 28h 14a 14 14, 0, 0, 0, 0 -28" transform="rotate(180,768,40)"/><path d="M 782 26v 28h 28v -14a 14 14, 0, 0, 0, -14 -14" transform="rotate(0,796,40)"/><path d="M 866 26v 28h 28v -14a 14 14, 0, 0, 0, -14 -14" transform="rotate(-90,880,40)"/><rect x="894" y="26" width="28" height="28" transform="rotate(0,908,40)"/><path d="M 922 26v 28h 28v -14a 14 14, 0, 0, 0, -14 -14" transform="rotate(0,936,40)"/><rect x="278" y="54" width="28" height="28" transform="rotate(0,292,68)"/><rect x="306" y="54" width="28" height="28" transform="rotate(0,320,68)"/><rect x="334" y="54" width="28" height="28" transform="rotate(0,348,68)"/><path d="M 362 54v 28h 28v -14a 14 14, 0, 0, 0, -14 -14" transform="rotate(0,376,68)"/><path d="M 502 54v 28h 14a 14 14, 0, 0, 0, 0 -28" transform="rotate(180,516,68)"/><rect x="530" y="54" width="28" height="28" transform="rotate(0,544,68)"/><rect x="558" y="54" width="28" height="28" transform="rotate(0,572,68)"/><rect x="586" y="54" width="28" height="28" transform="rotate(0,600,68)"/><path d="M 642 54v 28h 28v -14a 14 14, 0, 0, 0, -14 -14" transform="rotate(-90,656,68)"/><rect x="670" y="54" width="28" height="28" transform="rotate(0,684,68)"/><path d="M 698 54v 28h 28v -14a 14 14, 0, 0, 0, -14 -14" transform="rotate(90,712,68)"/><rect x="782" y="54" width="28" height="28" transform="rotate(0,796,68)"/><rect x="810" y="54" width="28" height="28" transform="rotate(0,824,68)"/><rect x="838" y="54" width="28" height="28" transform="rotate(0,852,68)"/><rect x="866" y="54" width="28" height="28" transform="rotate(0,880,68)"/><rect x="922" y="54" width="28" height="28" transform="rotate(0,936,68)"/><path d="M 250 82v 28h 28v -14a 14 14, 0, 0, 0, -14 -14" transform="rotate(-90,264,96)"/><rect x="278" y="82" width="28" height="28" transform="rotate(0,292,96)"/><path d="M 306 82v 28h 28v -14a 14 14, 0, 0, 0, -14 -14" transform="rotate(90,320,96)"/><path d="M 362 82v 28h 14a 14 14, 0, 0, 0, 0 -28" transform="rotate(90,376,96)"/><path d="M 418 82v 28h 14a 14 14, 0, 0, 0, 0 -28" transform="rotate(180,432,96)"/><path d="M 446 82v 28h 28v -14a 14 14, 0, 0, 0, -14 -14" transform="rotate(0,460,96)"/><path d="M 530 82v 28h 28v -14a 14 14, 0, 0, 0, -14 -14" transform="rotate(180,544,96)"/><rect x="558" y="82" width="28" height="28" transform="rotate(0,572,96)"/><rect x="586" y="82" width="28" height="28" transform="rotate(0,600,96)"/><rect x="642" y="82" width="28" height="28" transform="rotate(0,656,96)"/><path d="M 754 82v 28h 14a 14 14, 0, 0, 0, 0 -28" transform="rotate(180,768,96)"/><path d="M 782 82v 28h 28v -14a 14 14, 0, 0, 0, -14 -14" transform="rotate(90,796,96)"/><path d="M 838 82v 28h 28v -14a 14 14, 0, 0, 0, -14 -14" transform="rotate(180,852,96)"/><rect x="866" y="82" width="28" height="28" transform="rotate(0,880,96)"/><rect x="922" y="82" width="28" height="28" transform="rotate(0,936,96)"/><path d="M 250 110v 28h 14a 14 14, 0, 0, 0, 0 -28" transform="rotate(90,264,124)"/><path d="M 446 110v 28h 14a 14 14, 0, 0, 0, 0 -28" transform="rotate(90,460,124)"/><path d="M 502 110v 28h 14a 14 14, 0, 0, 0, 0 -28" transform="rotate(-90,516,124)"/><rect x="586" y="110" width="28" height="28" transform="rotate(0,600,124)"/><path d="M 642 110v 28h 28v -14a 14 14, 0, 0, 0, -14 -14" transform="rotate(180,656,124)"/><path d="M 670 110v 28h 14a 14 14, 0, 0, 0, 0 -28" transform="rotate(0,684,124)"/><path d="M 726 110v 28h 14a 14 14, 0, 0, 0, 0 -28" transform="rotate(-90,740,124)"/><path d="M 866 110v 28h 28v -14a 14 14, 0, 0, 0, -14 -14" transform="rotate(180,880,124)"/><rect x="894" y="110" width="28" height="28" transform="rotate(0,908,124)"/><path d="M 922 110v 28h 28v -14a 14 14, 0, 0, 0, -14 -14" transform="rotate(90,936,124)"/><path d="M 306 138v 28h 28v -14a 14 14, 0, 0, 0, -14 -14" transform="rotate(-90,320,152)"/><rect x="334" y="138" width="28" height="28" transform="rotate(0,348,152)"/><rect x="362" y="138" width="28" height="28" transform="rotate(0,376,152)"/><rect x="390" y="138" width="28" height="28" transform="rotate(0,404,152)"/><path d="M 418 138v 28h 14a 14 14, 0, 0, 0, 0 -28" transform="rotate(0,432,152)"/><path d="M 474 138v 28h 14a 14 14, 0, 0, 0, 0 -28" transform="rotate(180,488,152)"/><path d="M 502 138v 28h 28v -14a 14 14, 0, 0, 0, -14 -14" transform="rotate(90,516,152)"/><path d="M 558 138v 28h 28v -14a 14 14, 0, 0, 0, -14 -14" transform="rotate(-90,572,152)"/><rect x="586" y="138" width="28" height="28" transform="rotate(0,600,152)"/><path d="M 614 138v 28h 28v -14a 14 14, 0, 0, 0, -14 -14" transform="rotate(0,628,152)"/><path d="M 726 138v 28h 14a 14 14, 0, 0, 0, 0 -28" transform="rotate(90,740,152)"/><path d="M 782 138v 28h 28v -14a 14 14, 0, 0, 0, -14 -14" transform="rotate(-90,796,152)"/><path d="M 810 138v 28h 14a 14 14, 0, 0, 0, 0 -28" transform="rotate(0,824,152)"/><path d="M 250 166v 28h 28v -14a 14 14, 0, 0, 0, -14 -14" transform="rotate(-90,264,180)"/><rect x="278" y="166" width="28" height="28" transform="rotate(0,292,180)"/><rect x="306" y="166" width="28" height="28" transform="rotate(0,320,180)"/><path d="M 390 166v 28h 14a 14 14, 0, 0, 0, 0 -28" transform="rotate(90,404,180)"/><path d="M 558 166v 28h 28v -14a 14 14, 0, 0, 0, -14 -14" transform="rotate(180,572,180)"/><rect x="586" y="166" width="28" height="28" transform="rotate(0,600,180)"/><rect x="614" y="166" width="28" height="28" transform="rotate(0,628,180)"/><path d="M 642 166v 28h 28v -14a 14 14, 0, 0, 0, -14 -14" transform="rotate(0,656,180)"/><path d="M 754 166v 28h 28v -14a 14 14, 0, 0, 0, -14 -14" transform="rotate(-90,768,180)"/><path d="M 782 166v 28h 28v -14a 14 14, 0, 0, 0, -14 -14" transform="rotate(90,796,180)"/><circle cx="852" cy="180" r="14" transform="rotate(0,852,180)"/><circle cx="908" cy="180" r="14" transform="rotate(0,908,180)"/><rect x="250" y="194" width="28" height="28" transform="rotate(0,264,208)"/><rect x="306" y="194" width="28" height="28" transform="rotate(0,320,208)"/><path d="M 362 194v 28h 14a 14 14, 0, 0, 0, 0 -28" transform="rotate(-90,376,208)"/><circle cx="432" cy="208" r="14" transform="rotate(0,432,208)"/><circle cx="488" cy="208" r="14" transform="rotate(0,488,208)"/><circle cx="544" cy="208" r="14" transform="rotate(0,544,208)"/><rect x="586" y="194" width="28" height="28" transform="rotate(0,600,208)"/><path d="M 642 194v 28h 14a 14 14, 0, 0, 0, 0 -28" transform="rotate(90,656,208)"/><path d="M 698 194v 28h 14a 14 14, 0, 0, 0, 0 -28" transform="rotate(-90,712,208)"/><path d="M 754 194v 28h 14a 14 14, 0, 0, 0, 0 -28" transform="rotate(90,768,208)"/><path d="M 810 194v 28h 14a 14 14, 0, 0, 0, 0 -28" transform="rotate(-90,824,208)"/><path d="M 866 194v 28h 14a 14 14, 0, 0, 0, 0 -28" transform="rotate(-90,880,208)"/><path d="M 922 194v 28h 14a 14 14, 0, 0, 0, 0 -28" transform="rotate(-90,936,208)"/><rect x="250" y="222" width="28" height="28" transform="rotate(0,264,236)"/><path d="M 306 222v 28h 28v -14a 14 14, 0, 0, 0, -14 -14" transform="rotate(180,320,236)"/><rect x="334" y="222" width="28" height="28" transform="rotate(0,348,236)"/><path d="M 362 222v 28h 28v -14a 14 14, 0, 0, 0, -14 -14" transform="rotate(90,376,236)"/><path d="M 502 222v 28h 14a 14 14, 0, 0, 0, 0 -28" transform="rotate(-90,516,236)"/><path d="M 558 222v 28h 14a 14 14, 0, 0, 0, 0 -28" transform="rotate(180,572,236)"/><rect x="586" y="222" width="28" height="28" transform="rotate(0,600,236)"/><rect x="698" y="222" width="28" height="28" transform="rotate(0,712,236)"/><path d="M 810 222v 28h 28v -14a 14 14, 0, 0, 0, -14 -14" transform="rotate(180,824,236)"/><rect x="838" y="222" width="28" height="28" transform="rotate(0,852,236)"/><path d="M 866 222v 28h 28v -14a 14 14, 0, 0, 0, -14 -14" transform="rotate(90,880,236)"/><path d="M 922 222v 28h 14a 14 14, 0, 0, 0, 0 -28" transform="rotate(90,936,236)"/><path d="M 54 250v 28h 14a 14 14, 0, 0, 0, 0 -28" transform="rotate(-90,68,264)"/><path d="M 110 250v 28h 14a 14 14, 0, 0, 0, 0 -28" transform="rotate(-90,124,264)"/><path d="M 166 250v 28h 28v -14a 14 14, 0, 0, 0, -14 -14" transform="rotate(-90,180,264)"/><rect x="194" y="250" width="28" height="28" transform="rotate(0,208,264)"/><rect x="222" y="250" width="28" height="28" transform="rotate(0,236,264)"/><rect x="250" y="250" width="28" height="28" transform="rotate(0,264,264)"/><path d="M 278 250v 28h 14a 14 14, 0, 0, 0, 0 -28" transform="rotate(0,292,264)"/><rect x="334" y="250" width="28" height="28" transform="rotate(0,348,264)"/><path d="M 390 250v 28h 28v -14a 14 14, 0, 0, 0, -14 -14" transform="rotate(-90,404,264)"/><rect x="418" y="250" width="28" height="28" transform="rotate(0,432,264)"/><path d="M 446 250v 28h 28v -14a 14 14, 0, 0, 0, -14 -14" transform="rotate(0,460,264)"/><rect x="502" y="250" width="28" height="28" transform="rotate(0,516,264)"/><rect x="586" y="250" width="28" height="28" transform="rotate(0,600,264)"/><path d="M 670 250v 28h 28v -14a 14 14, 0, 0, 0, -14 -14" transform="rotate(-90,684,264)"/><rect x="698" y="250" width="28" height="28" transform="rotate(0,712,264)"/><rect x="726" y="250" width="28" height="28" transform="rotate(0,740,264)"/><path d="M 754 250v 28h 14a 14 14, 0, 0, 0, 0 -28" transform="rotate(0,768,264)"/><path d="M 950 250v 28h 28v -14a 14 14, 0, 0, 0, -14 -14" transform="rotate(-90,964,264)"/><rect x="978" y="250" width="28" height="28" transform="rotate(0,992,264)"/><path d="M 1006 250v 28h 28v -14a 14 14, 0, 0, 0, -14 -14" transform="rotate(0,1020,264)"/><path d="M 1062 250v 28h 28v -14a 14 14, 0, 0, 0, -14 -14" transform="rotate(-90,1076,264)"/><path d="M 1090 250v 28h 28v -14a 14 14, 0, 0, 0, -14 -14" transform="rotate(0,1104,264)"/><path d="M 1146 250v 28h 14a 14 14, 0, 0, 0, 0 -28" transform="rotate(-90,1160,264)"/><path d="M 54 278v 28h 14a 14 14, 0, 0, 0, 0 -28" transform="rotate(90,68,292)"/><rect x="110" y="278" width="28" height="28" transform="rotate(0,124,292)"/><rect x="138" y="278" width="28" height="28" transform="rotate(0,152,292)"/><path d="M 166 278v 28h 28v -14a 14 14, 0, 0, 0, -14 -14" transform="rotate(90,180,292)"/><path d="M 222 278v 28h 14a 14 14, 0, 0, 0, 0 -28" transform="rotate(90,236,292)"/><path d="M 334 278v 28h 14a 14 14, 0, 0, 0, 0 -28" transform="rotate(90,348,292)"/><path d="M 390 278v 28h 14a 14 14, 0, 0, 0, 0 -28" transform="rotate(90,404,292)"/><path d="M 446 278v 28h 28v -14a 14 14, 0, 0, 0, -14 -14" transform="rotate(180,460,292)"/><rect x="474" y="278" width="28" height="28" transform="rotate(0,488,292)"/><path d="M 502 278v 28h 28v -14a 14 14, 0, 0, 0, -14 -14" transform="rotate(90,516,292)"/><path d="M 558 278v 28h 28v -14a 14 14, 0, 0, 0, -14 -14" transform="rotate(-90,572,292)"/><rect x="586" y="278" width="28" height="28" transform="rotate(0,600,292)"/><path d="M 670 278v 28h 28v -14a 14 14, 0, 0, 0, -14 -14" transform="rotate(180,684,292)"/><rect x="698" y="278" width="28" height="28" transform="rotate(0,712,292)"/><rect x="726" y="278" width="28" height="28" transform="rotate(0,740,292)"/><path d="M 810 278v 28h 28v -14a 14 14, 0, 0, 0, -14 -14" transform="rotate(-90,824,292)"/><rect x="838" y="278" width="28" height="28" transform="rotate(0,852,292)"/><path d="M 866 278v 28h 28v -14a 14 14, 0, 0, 0, -14 -14" transform="rotate(0,880,292)"/><path d="M 922 278v 28h 14a 14 14, 0, 0, 0, 0 -28" transform="rotate(180,936,292)"/><rect x="950" y="278" width="28" height="28" transform="rotate(0,964,292)"/><rect x="978" y="278" width="28" height="28" transform="rotate(0,992,292)"/><rect x="1006" y="278" width="28" height="28" transform="rotate(0,1020,292)"/><rect x="1062" y="278" width="28" height="28" transform="rotate(0,1076,292)"/><rect x="1090" y="278" width="28" height="28" transform="rotate(0,1104,292)"/><rect x="1118" y="278" width="28" height="28" transform="rotate(0,1132,292)"/><path d="M 1146 278v 28h 28v -14a 14 14, 0, 0, 0, -14 -14" transform="rotate(90,1160,292)"/><path d="M 26 306v 28h 14a 14 14, 0, 0, 0, 0 -28" transform="rotate(-90,40,320)"/><path d="M 82 306v 28h 28v -14a 14 14, 0, 0, 0, -14 -14" transform="rotate(-90,96,320)"/><rect x="110" y="306" width="28" height="28" transform="rotate(0,124,320)"/><path d="M 138 306v 28h 28v -14a 14 14, 0, 0, 0, -14 -14" transform="rotate(90,152,320)"/><circle cx="208" cy="320" r="14" transform="rotate(0,208,320)"/><path d="M 278 306v 28h 28v -14a 14 14, 0, 0, 0, -14 -14" transform="rotate(-90,292,320)"/><path d="M 306 306v 28h 14a 14 14, 0, 0, 0, 0 -28" transform="rotate(0,320,320)"/><path d="M 530 306v 28h 14a 14 14, 0, 0, 0, 0 -28" transform="rotate(180,544,320)"/><rect x="558" y="306" width="28" height="28" transform="rotate(0,572,320)"/><rect x="586" y="306" width="28" height="28" transform="rotate(0,600,320)"/><path d="M 614 306v 28h 28v -14a 14 14, 0, 0, 0, -14 -14" transform="rotate(0,628,320)"/><rect x="726" y="306" width="28" height="28" transform="rotate(0,740,320)"/><rect x="810" y="306" width="28" height="28" transform="rotate(0,824,320)"/><rect x="838" y="306" width="28" height="28" transform="rotate(0,852,320)"/><rect x="866" y="306" width="28" height="28" transform="rotate(0,880,320)"/><path d="M 894 306v 28h 14a 14 14, 0, 0, 0, 0 -28" transform="rotate(0,908,320)"/><path d="M 1006 306v 28h 14a 14 14, 0, 0, 0, 0 -28" transform="rotate(90,1020,320)"/><path d="M 1062 306v 28h 28v -14a 14 14, 0, 0, 0, -14 -14" transform="rotate(180,1076,320)"/><rect x="1090" y="306" width="28" height="28" transform="rotate(0,1104,320)"/><rect x="1118" y="306" width="28" height="28" transform="rotate(0,1132,320)"/><path d="M 26 334v 28h 14a 14 14, 0, 0, 0, 0 -28" transform="rotate(90,40,348)"/><path d="M 82 334v 28h 14a 14 14, 0, 0, 0, 0 -28" transform="rotate(90,96,348)"/><path d="M 166 334v 28h 14a 14 14, 0, 0, 0, 0 -28" transform="rotate(-90,180,348)"/><path d="M 250 334v 28h 14a 14 14, 0, 0, 0, 0 -28" transform="rotate(180,264,348)"/><rect x="278" y="334" width="28" height="28" transform="rotate(0,292,348)"/><path d="M 362 334v 28h 28v -14a 14 14, 0, 0, 0, -14 -14" transform="rotate(-90,376,348)"/><path d="M 390 334v 28h 28v -14a 14 14, 0, 0, 0, -14 -14" transform="rotate(0,404,348)"/><path d="M 446 334v 28h 14a 14 14, 0, 0, 0, 0 -28" transform="rotate(-90,460,348)"/><path d="M 502 334v 28h 14a 14 14, 0, 0, 0, 0 -28" transform="rotate(-90,516,348)"/><rect x="558" y="334" width="28" height="28" transform="rotate(0,572,348)"/><rect x="586" y="334" width="28" height="28" transform="rotate(0,600,348)"/><rect x="614" y="334" width="28" height="28" transform="rotate(0,628,348)"/><path d="M 642 334v 28h 28v -14a 14 14, 0, 0, 0, -14 -14" transform="rotate(0,656,348)"/><path d="M 698 334v 28h 14a 14 14, 0, 0, 0, 0 -28" transform="rotate(180,712,348)"/><rect x="726" y="334" width="28" height="28" transform="rotate(0,740,348)"/><rect x="754" y="334" width="28" height="28" transform="rotate(0,768,348)"/><rect x="782" y="334" width="28" height="28" transform="rotate(0,796,348)"/><rect x="810" y="334" width="28" height="28" transform="rotate(0,824,348)"/><path d="M 978 334v 28h 14a 14 14, 0, 0, 0, 0 -28" transform="rotate(-90,992,348)"/><path d="M 1090 334v 28h 28v -14a 14 14, 0, 0, 0, -14 -14" transform="rotate(180,1104,348)"/><rect x="1118" y="334" width="28" height="28" transform="rotate(0,1132,348)"/><path d="M 1146 334v 28h 28v -14a 14 14, 0, 0, 0, -14 -14" transform="rotate(0,1160,348)"/><circle cx="68" cy="376" r="14" transform="rotate(0,68,376)"/><path d="M 110 362v 28h 28v -14a 14 14, 0, 0, 0, -14 -14" transform="rotate(-90,124,376)"/><rect x="138" y="362" width="28" height="28" transform="rotate(0,152,376)"/><rect x="166" y="362" width="28" height="28" transform="rotate(0,180,376)"/><rect x="194" y="362" width="28" height="28" transform="rotate(0,208,376)"/><path d="M 222 362v 28h 28v -14a 14 14, 0, 0, 0, -14 -14" transform="rotate(0,236,376)"/><path d="M 278 362v 28h 28v -14a 14 14, 0, 0, 0, -14 -14" transform="rotate(180,292,376)"/><path d="M 306 362v 28h 14a 14 14, 0, 0, 0, 0 -28" transform="rotate(0,320,376)"/><path d="M 362 362v 28h 28v -14a 14 14, 0, 0, 0, -14 -14" transform="rotate(180,376,376)"/><rect x="390" y="362" width="28" height="28" transform="rotate(0,404,376)"/><rect x="418" y="362" width="28" height="28" transform="rotate(0,432,376)"/><rect x="446" y="362" width="28" height="28" transform="rotate(0,460,376)"/><rect x="474" y="362" width="28" height="28" transform="rotate(0,488,376)"/><path d="M 502 362v 28h 28v -14a 14 14, 0, 0, 0, -14 -14" transform="rotate(90,516,376)"/><rect x="558" y="362" width="28" height="28" transform="rotate(0,572,376)"/><rect x="586" y="362" width="28" height="28" transform="rotate(0,600,376)"/><path d="M 642 362v 28h 28v -14a 14 14, 0, 0, 0, -14 -14" transform="rotate(180,656,376)"/><path d="M 670 362v 28h 28v -14a 14 14, 0, 0, 0, -14 -14" transform="rotate(0,684,376)"/><path d="M 726 362v 28h 28v -14a 14 14, 0, 0, 0, -14 -14" transform="rotate(180,740,376)"/><path d="M 754 362v 28h 28v -14a 14 14, 0, 0, 0, -14 -14" transform="rotate(90,768,376)"/><path d="M 810 362v 28h 28v -14a 14 14, 0, 0, 0, -14 -14" transform="rotate(180,824,376)"/><path d="M 838 362v 28h 14a 14 14, 0, 0, 0, 0 -28" transform="rotate(0,852,376)"/><path d="M 894 362v 28h 14a 14 14, 0, 0, 0, 0 -28" transform="rotate(-90,908,376)"/><path d="M 950 362v 28h 14a 14 14, 0, 0, 0, 0 -28" transform="rotate(180,964,376)"/><path d="M 978 362v 28h 28v -14a 14 14, 0, 0, 0, -14 -14" transform="rotate(90,992,376)"/><circle cx="1076" cy="376" r="14" transform="rotate(0,1076,376)"/><path d="M 1146 362v 28h 14a 14 14, 0, 0, 0, 0 -28" transform="rotate(90,1160,376)"/><rect x="110" y="390" width="28" height="28" transform="rotate(0,124,404)"/><rect x="138" y="390" width="28" height="28" transform="rotate(0,152,404)"/><rect x="166" y="390" width="28" height="28" transform="rotate(0,180,404)"/><rect x="222" y="390" width="28" height="28" transform="rotate(0,236,404)"/><path d="M 250 390v 28h 28v -14a 14 14, 0, 0, 0, -14 -14" transform="rotate(0,264,404)"/><circle cx="348" cy="404" r="14" transform="rotate(0,348,404)"/><path d="M 446 390v 28h 14a 14 14, 0, 0, 0, 0 -28" transform="rotate(90,460,404)"/><path d="M 530 390v 28h 14a 14 14, 0, 0, 0, 0 -28" transform="rotate(180,544,404)"/><rect x="558" y="390" width="28" height="28" transform="rotate(0,572,404)"/><rect x="586" y="390" width="28" height="28" transform="rotate(0,600,404)"/><rect x="670" y="390" width="28" height="28" transform="rotate(0,684,404)"/><path d="M 782 390v 28h 14a 14 14, 0, 0, 0, 0 -28" transform="rotate(-90,796,404)"/><path d="M 866 390v 28h 14a 14 14, 0, 0, 0, 0 -28" transform="rotate(180,880,404)"/><rect x="894" y="390" width="28" height="28" transform="rotate(0,908,404)"/><path d="M 922 390v 28h 28v -14a 14 14, 0, 0, 0, -14 -14" transform="rotate(0,936,404)"/><path d="M 1118 390v 28h 14a 14 14, 0, 0, 0, 0 -28" transform="rotate(-90,1132,404)"/><path d="M 26 418v 28h 28v -14a 14 14, 0, 0, 0, -14 -14" transform="rotate(-90,40,432)"/><rect x="54" y="418" width="28" height="28" transform="rotate(0,68,432)"/><rect x="82" y="418" width="28" height="28" transform="rotate(0,96,432)"/><rect x="110" y="418" width="28" height="28" transform="rotate(0,124,432)"/><rect x="138" y="418" width="28" height="28" transform="rotate(0,152,432)"/><rect x="166" y="418" width="28" height="28" transform="rotate(0,180,432)"/><rect x="194" y="418" width="28" height="28" transform="rotate(0,208,432)"/><rect x="222" y="418" width="28" height="28" transform="rotate(0,236,432)"/><path d="M 250 418v 28h 28v -14a 14 14, 0, 0, 0, -14 -14" transform="rotate(90,264,432)"/><circle cx="376" cy="432" r="14" transform="rotate(0,376,432)"/><circle cx="432" cy="432" r="14" transform="rotate(0,432,432)"/><path d="M 558 418v 28h 28v -14a 14 14, 0, 0, 0, -14 -14" transform="rotate(180,572,432)"/><rect x="586" y="418" width="28" height="28" transform="rotate(0,600,432)"/><path d="M 614 418v 28h 28v -14a 14 14, 0, 0, 0, -14 -14" transform="rotate(0,628,432)"/><rect x="670" y="418" width="28" height="28" transform="rotate(0,684,432)"/><path d="M 726 418v 28h 14a 14 14, 0, 0, 0, 0 -28" transform="rotate(-90,740,432)"/><path d="M 782 418v 28h 28v -14a 14 14, 0, 0, 0, -14 -14" transform="rotate(180,796,432)"/><rect x="810" y="418" width="28" height="28" transform="rotate(0,824,432)"/><path d="M 838 418v 28h 28v -14a 14 14, 0, 0, 0, -14 -14" transform="rotate(0,852,432)"/><path d="M 922 418v 28h 14a 14 14, 0, 0, 0, 0 -28" transform="rotate(90,936,432)"/><path d="M 978 418v 28h 14a 14 14, 0, 0, 0, 0 -28" transform="rotate(-90,992,432)"/><path d="M 1062 418v 28h 14a 14 14, 0, 0, 0, 0 -28" transform="rotate(180,1076,432)"/><rect x="1090" y="418" width="28" height="28" transform="rotate(0,1104,432)"/><rect x="1118" y="418" width="28" height="28" transform="rotate(0,1132,432)"/><path d="M 1146 418v 28h 28v -14a 14 14, 0, 0, 0, -14 -14" transform="rotate(0,1160,432)"/><path d="M 26 446v 28h 14a 14 14, 0, 0, 0, 0 -28" transform="rotate(90,40,460)"/><rect x="82" y="446" width="28" height="28" transform="rotate(0,96,460)"/><rect x="166" y="446" width="28" height="28" transform="rotate(0,180,460)"/><rect x="222" y="446" width="28" height="28" transform="rotate(0,236,460)"/><circle cx="488" cy="460" r="14" transform="rotate(0,488,460)"/><path d="M 530 446v 28h 14a 14 14, 0, 0, 0, 0 -28" transform="rotate(-90,544,460)"/><path d="M 586 446v 28h 28v -14a 14 14, 0, 0, 0, -14 -14" transform="rotate(180,600,460)"/><rect x="614" y="446" width="28" height="28" transform="rotate(0,628,460)"/><rect x="642" y="446" width="28" height="28" transform="rotate(0,656,460)"/><path d="M 670 446v 28h 28v -14a 14 14, 0, 0, 0, -14 -14" transform="rotate(90,684,460)"/><path d="M 726 446v 28h 28v -14a 14 14, 0, 0, 0, -14 -14" transform="rotate(180,740,460)"/><path d="M 754 446v 28h 14a 14 14, 0, 0, 0, 0 -28" transform="rotate(0,768,460)"/><path d="M 810 446v 28h 28v -14a 14 14, 0, 0, 0, -14 -14" transform="rotate(180,824,460)"/><rect x="838" y="446" width="28" height="28" transform="rotate(0,852,460)"/><rect x="866" y="446" width="28" height="28" transform="rotate(0,880,460)"/><path d="M 894 446v 28h 28v -14a 14 14, 0, 0, 0, -14 -14" transform="rotate(0,908,460)"/><path d="M 978 446v 28h 14a 14 14, 0, 0, 0, 0 -28" transform="rotate(90,992,460)"/><circle cx="1048" cy="460" r="14" transform="rotate(0,1048,460)"/><path d="M 1146 446v 28h 14a 14 14, 0, 0, 0, 0 -28" transform="rotate(90,1160,460)"/><rect x="82" y="474" width="28" height="28" transform="rotate(0,96,488)"/><path d="M 138 474v 28h 28v -14a 14 14, 0, 0, 0, -14 -14" transform="rotate(-90,152,488)"/><rect x="166" y="474" width="28" height="28" transform="rotate(0,180,488)"/><rect x="194" y="474" width="28" height="28" transform="rotate(0,208,488)"/><rect x="222" y="474" width="28" height="28" transform="rotate(0,236,488)"/><rect x="250" y="474" width="28" height="28" transform="rotate(0,264,488)"/><path d="M 278 474v 28h 14a 14 14, 0, 0, 0, 0 -28" transform="rotate(0,292,488)"/><path d="M 334 474v 28h 14a 14 14, 0, 0, 0, 0 -28" transform="rotate(180,348,488)"/><rect x="362" y="474" width="28" height="28" transform="rotate(0,376,488)"/><rect x="390" y="474" width="28" height="28" transform="rotate(0,404,488)"/><rect x="418" y="474" width="28" height="28" transform="rotate(0,432,488)"/><path d="M 446 474v 28h 28v -14a 14 14, 0, 0, 0, -14 -14" transform="rotate(0,460,488)"/><path d="M 502 474v 28h 14a 14 14, 0, 0, 0, 0 -28" transform="rotate(180,516,488)"/><rect x="530" y="474" width="28" height="28" transform="rotate(0,544,488)"/><rect x="642" y="474" width="28" height="28" transform="rotate(0,656,488)"/><path d="M 698 474v 28h 14a 14 14, 0, 0, 0, 0 -28" transform="rotate(-90,712,488)"/><circle cx="796" cy="488" r="14" transform="rotate(0,796,488)"/><path d="M 838 474v 28h 14a 14 14, 0, 0, 0, 0 -28" transform="rotate(90,852,488)"/><path d="M 894 474v 28h 28v -14a 14 14, 0, 0, 0, -14 -14" transform="rotate(180,908,488)"/><path d="M 922 474v 28h 14a 14 14, 0, 0, 0, 0 -28" transform="rotate(0,936,488)"/><path d="M 1006 474v 28h 14a 14 14, 0, 0, 0, 0 -28" transform="rotate(-90,1020,488)"/><circle cx="1076" cy="488" r="14" transform="rotate(0,1076,488)"/><rect x="82" y="502" width="28" height="28" transform="rotate(0,96,516)"/><path d="M 138 502v 28h 28v -14a 14 14, 0, 0, 0, -14 -14" transform="rotate(180,152,516)"/><rect x="166" y="502" width="28" height="28" transform="rotate(0,180,516)"/><rect x="222" y="502" width="28" height="28" transform="rotate(0,236,516)"/><rect x="362" y="502" width="28" height="28" transform="rotate(0,376,516)"/><rect x="390" y="502" width="28" height="28" transform="rotate(0,404,516)"/><rect x="418" y="502" width="28" height="28" transform="rotate(0,432,516)"/><rect x="446" y="502" width="28" height="28" transform="rotate(0,460,516)"/><rect x="530" y="502" width="28" height="28" transform="rotate(0,544,516)"/><rect x="558" y="502" width="28" height="28" transform="rotate(0,572,516)"/><rect x="586" y="502" width="28" height="28" transform="rotate(0,600,516)"/><rect x="614" y="502" width="28" height="28" transform="rotate(0,628,516)"/><rect x="642" y="502" width="28" height="28" transform="rotate(0,656,516)"/><rect x="670" y="502" width="28" height="28" transform="rotate(0,684,516)"/><path d="M 698 502v 28h 28v -14a 14 14, 0, 0, 0, -14 -14" transform="rotate(90,712,516)"/><circle cx="768" cy="516" r="14" transform="rotate(0,768,516)"/><circle cx="824" cy="516" r="14" transform="rotate(0,824,516)"/><path d="M 978 502v 28h 14a 14 14, 0, 0, 0, 0 -28" transform="rotate(180,992,516)"/><path d="M 1006 502v 28h 28v -14a 14 14, 0, 0, 0, -14 -14" transform="rotate(90,1020,516)"/><path d="M 1090 502v 28h 28v -14a 14 14, 0, 0, 0, -14 -14" transform="rotate(-90,1104,516)"/><rect x="1118" y="502" width="28" height="28" transform="rotate(0,1132,516)"/><path d="M 1146 502v 28h 28v -14a 14 14, 0, 0, 0, -14 -14" transform="rotate(0,1160,516)"/><path d="M 26 530v 28h 14a 14 14, 0, 0, 0, 0 -28" transform="rotate(180,40,544)"/><rect x="54" y="530" width="28" height="28" transform="rotate(0,68,544)"/><path d="M 82 530v 28h 28v -14a 14 14, 0, 0, 0, -14 -14" transform="rotate(90,96,544)"/><rect x="166" y="530" width="28" height="28" transform="rotate(0,180,544)"/><rect x="194" y="530" width="28" height="28" transform="rotate(0,208,544)"/><rect x="222" y="530" width="28" height="28" transform="rotate(0,236,544)"/><rect x="250" y="530" width="28" height="28" transform="rotate(0,264,544)"/><path d="M 278 530v 28h 28v -14a 14 14, 0, 0, 0, -14 -14" transform="rotate(0,292,544)"/><path d="M 334 530v 28h 14a 14 14, 0, 0, 0, 0 -28" transform="rotate(180,348,544)"/><path d="M 362 530v 28h 28v -14a 14 14, 0, 0, 0, -14 -14" transform="rotate(90,376,544)"/><path d="M 446 530v 28h 28v -14a 14 14, 0, 0, 0, -14 -14" transform="rotate(180,460,544)"/><rect x="474" y="530" width="28" height="28" transform="rotate(0,488,544)"/><rect x="502" y="530" width="28" height="28" transform="rotate(0,516,544)"/><path d="M 530 530v 28h 28v -14a 14 14, 0, 0, 0, -14 -14" transform="rotate(90,544,544)"/><path d="M 586 530v 28h 28v -14a 14 14, 0, 0, 0, -14 -14" transform="rotate(180,600,544)"/><path d="M 614 530v 28h 28v -14a 14 14, 0, 0, 0, -14 -14" transform="rotate(90,628,544)"/><path d="M 726 530v 28h 14a 14 14, 0, 0, 0, 0 -28" transform="rotate(-90,740,544)"/><circle cx="936" cy="544" r="14" transform="rotate(0,936,544)"/><path d="M 1034 530v 28h 14a 14 14, 0, 0, 0, 0 -28" transform="rotate(180,1048,544)"/><rect x="1062" y="530" width="28" height="28" transform="rotate(0,1076,544)"/><rect x="1090" y="530" width="28" height="28" transform="rotate(0,1104,544)"/><rect x="1118" y="530" width="28" height="28" transform="rotate(0,1132,544)"/><path d="M 1146 530v 28h 28v -14a 14 14, 0, 0, 0, -14 -14" transform="rotate(90,1160,544)"/><rect x="54" y="558" width="28" height="28" transform="rotate(0,68,572)"/><rect x="166" y="558" width="28" height="28" transform="rotate(0,180,572)"/><path d="M 222 558v 28h 14a 14 14, 0, 0, 0, 0 -28" transform="rotate(90,236,572)"/><rect x="278" y="558" width="28" height="28" transform="rotate(0,292,572)"/><rect x="474" y="558" width="28" height="28" transform="rotate(0,488,572)"/><circle cx="572" cy="572" r="14" transform="rotate(0,572,572)"/><path d="M 726 558v 28h 14a 14 14, 0, 0, 0, 0 -28" transform="rotate(90,740,572)"/><path d="M 782 558v 28h 28v -14a 14 14, 0, 0, 0, -14 -14" transform="rotate(-90,796,572)"/><rect x="810" y="558" width="28" height="28" transform="rotate(0,824,572)"/><rect x="838" y="558" width="28" height="28" transform="rotate(0,852,572)"/><path d="M 866 558v 28h 14a 14 14, 0, 0, 0, 0 -28" transform="rotate(0,880,572)"/><path d="M 978 558v 28h 28v -14a 14 14, 0, 0, 0, -14 -14" transform="rotate(-90,992,572)"/><path d="M 1006 558v 28h 28v -14a 14 14, 0, 0, 0, -14 -14" transform="rotate(0,1020,572)"/><rect x="1062" y="558" width="28" height="28" transform="rotate(0,1076,572)"/><rect x="1118" y="558" width="28" height="28" transform="rotate(0,1132,572)"/><path d="M 26 586v 28h 28v -14a 14 14, 0, 0, 0, -14 -14" transform="rotate(-90,40,600)"/><rect x="54" y="586" width="28" height="28" transform="rotate(0,68,600)"/><circle cx="124" cy="600" r="14" transform="rotate(0,124,600)"/><path d="M 166 586v 28h 28v -14a 14 14, 0, 0, 0, -14 -14" transform="rotate(180,180,600)"/><path d="M 194 586v 28h 14a 14 14, 0, 0, 0, 0 -28" transform="rotate(0,208,600)"/><rect x="278" y="586" width="28" height="28" transform="rotate(0,292,600)"/><path d="M 362 586v 28h 28v -14a 14 14, 0, 0, 0, -14 -14" transform="rotate(-90,376,600)"/><path d="M 390 586v 28h 14a 14 14, 0, 0, 0, 0 -28" transform="rotate(0,404,600)"/><rect x="474" y="586" width="28" height="28" transform="rotate(0,488,600)"/><rect x="502" y="586" width="28" height="28" transform="rotate(0,516,600)"/><path d="M 530 586v 28h 14a 14 14, 0, 0, 0, 0 -28" transform="rotate(0,544,600)"/><path d="M 586 586v 28h 28v -14a 14 14, 0, 0, 0, -14 -14" transform="rotate(-90,600,600)"/><path d="M 614 586v 28h 28v -14a 14 14, 0, 0, 0, -14 -14" transform="rotate(0,628,600)"/><path d="M 670 586v 28h 14a 14 14, 0, 0, 0, 0 -28" transform="rotate(180,684,600)"/><path d="M 698 586v 28h 14a 14 14, 0, 0, 0, 0 -28" transform="rotate(0,712,600)"/><path d="M 754 586v 28h 14a 14 14, 0, 0, 0, 0 -28" transform="rotate(180,768,600)"/><path d="M 782 586v 28h 28v -14a 14 14, 0, 0, 0, -14 -14" transform="rotate(90,796,600)"/><circle cx="908" cy="600" r="14" transform="rotate(0,908,600)"/><path d="M 950 586v 28h 28v -14a 14 14, 0, 0, 0, -14 -14" transform="rotate(-90,964,600)"/><rect x="978" y="586" width="28" height="28" transform="rotate(0,992,600)"/><path d="M 1006 586v 28h 28v -14a 14 14, 0, 0, 0, -14 -14" transform="rotate(90,1020,600)"/><path d="M 1062 586v 28h 28v -14a 14 14, 0, 0, 0, -14 -14" transform="rotate(180,1076,600)"/><rect x="1090" y="586" width="28" height="28" transform="rotate(0,1104,600)"/><rect x="1118" y="586" width="28" height="28" transform="rotate(0,1132,600)"/><path d="M 26 614v 28h 28v -14a 14 14, 0, 0, 0, -14 -14" transform="rotate(180,40,628)"/><rect x="54" y="614" width="28" height="28" transform="rotate(0,68,628)"/><path d="M 82 614v 28h 28v -14a 14 14, 0, 0, 0, -14 -14" transform="rotate(0,96,628)"/><circle cx="236" cy="628" r="14" transform="rotate(0,236,628)"/><rect x="278" y="614" width="28" height="28" transform="rotate(0,292,628)"/><rect x="306" y="614" width="28" height="28" transform="rotate(0,320,628)"/><rect x="334" y="614" width="28" height="28" transform="rotate(0,348,628)"/><rect x="362" y="614" width="28" height="28" transform="rotate(0,376,628)"/><path d="M 446 614v 28h 28v -14a 14 14, 0, 0, 0, -14 -14" transform="rotate(-90,460,628)"/><rect x="474" y="614" width="28" height="28" transform="rotate(0,488,628)"/><path d="M 586 614v 28h 28v -14a 14 14, 0, 0, 0, -14 -14" transform="rotate(180,600,628)"/><rect x="614" y="614" width="28" height="28" transform="rotate(0,628,628)"/><path d="M 642 614v 28h 28v -14a 14 14, 0, 0, 0, -14 -14" transform="rotate(0,656,628)"/><path d="M 726 614v 28h 14a 14 14, 0, 0, 0, 0 -28" transform="rotate(-90,740,628)"/><path d="M 810 614v 28h 28v -14a 14 14, 0, 0, 0, -14 -14" transform="rotate(-90,824,628)"/><rect x="838" y="614" width="28" height="28" transform="rotate(0,852,628)"/><path d="M 866 614v 28h 14a 14 14, 0, 0, 0, 0 -28" transform="rotate(0,880,628)"/><path d="M 922 614v 28h 14a 14 14, 0, 0, 0, 0 -28" transform="rotate(180,936,628)"/><rect x="950" y="614" width="28" height="28" transform="rotate(0,964,628)"/><rect x="978" y="614" width="28" height="28" transform="rotate(0,992,628)"/><path d="M 1090 614v 28h 28v -14a 14 14, 0, 0, 0, -14 -14" transform="rotate(180,1104,628)"/><rect x="1118" y="614" width="28" height="28" transform="rotate(0,1132,628)"/><path d="M 1146 614v 28h 14a 14 14, 0, 0, 0, 0 -28" transform="rotate(0,1160,628)"/><path d="M 54 642v 28h 28v -14a 14 14, 0, 0, 0, -14 -14" transform="rotate(180,68,656)"/><rect x="82" y="642" width="28" height="28" transform="rotate(0,96,656)"/><circle cx="208" cy="656" r="14" transform="rotate(0,208,656)"/><path d="M 250 642v 28h 14a 14 14, 0, 0, 0, 0 -28" transform="rotate(180,264,656)"/><rect x="278" y="642" width="28" height="28" transform="rotate(0,292,656)"/><rect x="306" y="642" width="28" height="28" transform="rotate(0,320,656)"/><rect x="334" y="642" width="28" height="28" transform="rotate(0,348,656)"/><rect x="362" y="642" width="28" height="28" transform="rotate(0,376,656)"/><rect x="390" y="642" width="28" height="28" transform="rotate(0,404,656)"/><rect x="418" y="642" width="28" height="28" transform="rotate(0,432,656)"/><rect x="446" y="642" width="28" height="28" transform="rotate(0,460,656)"/><path d="M 474 642v 28h 28v -14a 14 14, 0, 0, 0, -14 -14" transform="rotate(90,488,656)"/><path d="M 530 642v 28h 14a 14 14, 0, 0, 0, 0 -28" transform="rotate(180,544,656)"/><path d="M 558 642v 28h 14a 14 14, 0, 0, 0, 0 -28" transform="rotate(0,572,656)"/><rect x="642" y="642" width="28" height="28" transform="rotate(0,656,656)"/><path d="M 698 642v 28h 14a 14 14, 0, 0, 0, 0 -28" transform="rotate(180,712,656)"/><rect x="726" y="642" width="28" height="28" transform="rotate(0,740,656)"/><path d="M 810 642v 28h 14a 14 14, 0, 0, 0, 0 -28" transform="rotate(90,824,656)"/><circle cx="908" cy="656" r="14" transform="rotate(0,908,656)"/><path d="M 950 642v 28h 28v -14a 14 14, 0, 0, 0, -14 -14" transform="rotate(180,964,656)"/><path d="M 978 642v 28h 28v -14a 14 14, 0, 0, 0, -14 -14" transform="rotate(90,992,656)"/><circle cx="1076" cy="656" r="14" transform="rotate(0,1076,656)"/><rect x="1118" y="642" width="28" height="28" transform="rotate(0,1132,656)"/><rect x="82" y="670" width="28" height="28" transform="rotate(0,96,684)"/><path d="M 138 670v 28h 14a 14 14, 0, 0, 0, 0 -28" transform="rotate(180,152,684)"/><path d="M 166 670v 28h 28v -14a 14 14, 0, 0, 0, -14 -14" transform="rotate(0,180,684)"/><rect x="278" y="670" width="28" height="28" transform="rotate(0,292,684)"/><rect x="306" y="670" width="28" height="28" transform="rotate(0,320,684)"/><path d="M 334 670v 28h 28v -14a 14 14, 0, 0, 0, -14 -14" transform="rotate(90,348,684)"/><path d="M 390 670v 28h 14a 14 14, 0, 0, 0, 0 -28" transform="rotate(90,404,684)"/><path d="M 586 670v 28h 14a 14 14, 0, 0, 0, 0 -28" transform="rotate(-90,600,684)"/><rect x="642" y="670" width="28" height="28" transform="rotate(0,656,684)"/><path d="M 670 670v 28h 14a 14 14, 0, 0, 0, 0 -28" transform="rotate(0,684,684)"/><rect x="726" y="670" width="28" height="28" transform="rotate(0,740,684)"/><circle cx="796" cy="684" r="14" transform="rotate(0,796,684)"/><circle cx="880" cy="684" r="14" transform="rotate(0,880,684)"/><path d="M 922 670v 28h 14a 14 14, 0, 0, 0, 0 -28" transform="rotate(-90,936,684)"/><path d="M 1090 670v 28h 14a 14 14, 0, 0, 0, 0 -28" transform="rotate(180,1104,684)"/><rect x="1118" y="670" width="28" height="28" transform="rotate(0,1132,684)"/><path d="M 26 698v 28h 28v -14a 14 14, 0, 0, 0, -14 -14" transform="rotate(-90,40,712)"/><rect x="54" y="698" width="28" height="28" transform="rotate(0,68,712)"/><path d="M 82 698v 28h 28v -14a 14 14, 0, 0, 0, -14 -14" transform="rotate(90,96,712)"/><rect x="166" y="698" width="28" height="28" transform="rotate(0,180,712)"/><rect x="194" y="698" width="28" height="28" transform="rotate(0,208,712)"/><rect x="222" y="698" width="28" height="28" transform="rotate(0,236,712)"/><rect x="250" y="698" width="28" height="28" transform="rotate(0,264,712)"/><rect x="278" y="698" width="28" height="28" transform="rotate(0,292,712)"/><rect x="306" y="698" width="28" height="28" transform="rotate(0,320,712)"/><path d="M 418 698v 28h 28v -14a 14 14, 0, 0, 0, -14 -14" transform="rotate(-90,432,712)"/><rect x="446" y="698" width="28" height="28" transform="rotate(0,460,712)"/><rect x="474" y="698" width="28" height="28" transform="rotate(0,488,712)"/><path d="M 502 698v 28h 14a 14 14, 0, 0, 0, 0 -28" transform="rotate(0,516,712)"/><path d="M 586 698v 28h 14a 14 14, 0, 0, 0, 0 -28" transform="rotate(90,600,712)"/><rect x="642" y="698" width="28" height="28" transform="rotate(0,656,712)"/><rect x="726" y="698" width="28" height="28" transform="rotate(0,740,712)"/><path d="M 838 698v 28h 14a 14 14, 0, 0, 0, 0 -28" transform="rotate(-90,852,712)"/><path d="M 922 698v 28h 28v -14a 14 14, 0, 0, 0, -14 -14" transform="rotate(180,936,712)"/><rect x="950" y="698" width="28" height="28" transform="rotate(0,964,712)"/><rect x="978" y="698" width="28" height="28" transform="rotate(0,992,712)"/><path d="M 1006 698v 28h 14a 14 14, 0, 0, 0, 0 -28" transform="rotate(0,1020,712)"/><path d="M 1118 698v 28h 28v -14a 14 14, 0, 0, 0, -14 -14" transform="rotate(180,1132,712)"/><path d="M 1146 698v 28h 14a 14 14, 0, 0, 0, 0 -28" transform="rotate(0,1160,712)"/><path d="M 26 726v 28h 28v -14a 14 14, 0, 0, 0, -14 -14" transform="rotate(180,40,740)"/><rect x="54" y="726" width="28" height="28" transform="rotate(0,68,740)"/><path d="M 110 726v 28h 14a 14 14, 0, 0, 0, 0 -28" transform="rotate(-90,124,740)"/><path d="M 166 726v 28h 14a 14 14, 0, 0, 0, 0 -28" transform="rotate(90,180,740)"/><path d="M 278 726v 28h 28v -14a 14 14, 0, 0, 0, -14 -14" transform="rotate(180,292,740)"/><rect x="306" y="726" width="28" height="28" transform="rotate(0,320,740)"/><rect x="334" y="726" width="28" height="28" transform="rotate(0,348,740)"/><rect x="362" y="726" width="28" height="28" transform="rotate(0,376,740)"/><rect x="390" y="726" width="28" height="28" transform="rotate(0,404,740)"/><path d="M 418 726v 28h 28v -14a 14 14, 0, 0, 0, -14 -14" transform="rotate(90,432,740)"/><path d="M 530 726v 28h 14a 14 14, 0, 0, 0, 0 -28" transform="rotate(180,544,740)"/><path d="M 558 726v 28h 14a 14 14, 0, 0, 0, 0 -28" transform="rotate(0,572,740)"/><path d="M 642 726v 28h 14a 14 14, 0, 0, 0, 0 -28" transform="rotate(90,656,740)"/><path d="M 698 726v 28h 28v -14a 14 14, 0, 0, 0, -14 -14" transform="rotate(-90,712,740)"/><path d="M 726 726v 28h 28v -14a 14 14, 0, 0, 0, -14 -14" transform="rotate(90,740,740)"/><rect x="838" y="726" width="28" height="28" transform="rotate(0,852,740)"/><circle cx="908" cy="740" r="14" transform="rotate(0,908,740)"/><circle cx="1076" cy="740" r="14" transform="rotate(0,1076,740)"/><rect x="54" y="754" width="28" height="28" transform="rotate(0,68,768)"/><rect x="110" y="754" width="28" height="28" transform="rotate(0,124,768)"/><path d="M 138 754v 28h 28v -14a 14 14, 0, 0, 0, -14 -14" transform="rotate(0,152,768)"/><circle cx="208" cy="768" r="14" transform="rotate(0,208,768)"/><circle cx="516" cy="768" r="14" transform="rotate(0,516,768)"/><circle cx="600" cy="768" r="14" transform="rotate(0,600,768)"/><path d="M 670 754v 28h 28v -14a 14 14, 0, 0, 0, -14 -14" transform="rotate(-90,684,768)"/><rect x="698" y="754" width="28" height="28" transform="rotate(0,712,768)"/><path d="M 754 754v 28h 14a 14 14, 0, 0, 0, 0 -28" transform="rotate(-90,768,768)"/><path d="M 810 754v 28h 28v -14a 14 14, 0, 0, 0, -14 -14" transform="rotate(-90,824,768)"/><rect x="838" y="754" width="28" height="28" transform="rotate(0,852,768)"/><path d="M 922 754v 28h 14a 14 14, 0, 0, 0, 0 -28" transform="rotate(-90,936,768)"/><path d="M 978 754v 28h 14a 14 14, 0, 0, 0, 0 -28" transform="rotate(-90,992,768)"/><path d="M 1118 754v 28h 14a 14 14, 0, 0, 0, 0 -28" transform="rotate(180,1132,768)"/><path d="M 1146 754v 28h 28v -14a 14 14, 0, 0, 0, -14 -14" transform="rotate(0,1160,768)"/><rect x="54" y="782" width="28" height="28" transform="rotate(0,68,796)"/><path d="M 110 782v 28h 28v -14a 14 14, 0, 0, 0, -14 -14" transform="rotate(180,124,796)"/><path d="M 138 782v 28h 28v -14a 14 14, 0, 0, 0, -14 -14" transform="rotate(90,152,796)"/><circle cx="264" cy="796" r="14" transform="rotate(0,264,796)"/><path d="M 306 782v 28h 28v -14a 14 14, 0, 0, 0, -14 -14" transform="rotate(-90,320,796)"/><path d="M 334 782v 28h 14a 14 14, 0, 0, 0, 0 -28" transform="rotate(0,348,796)"/><path d="M 418 782v 28h 28v -14a 14 14, 0, 0, 0, -14 -14" transform="rotate(-90,432,796)"/><rect x="446" y="782" width="28" height="28" transform="rotate(0,460,796)"/><path d="M 474 782v 28h 14a 14 14, 0, 0, 0, 0 -28" transform="rotate(0,488,796)"/><circle cx="544" cy="796" r="14" transform="rotate(0,544,796)"/><path d="M 642 782v 28h 14a 14 14, 0, 0, 0, 0 -28" transform="rotate(180,656,796)"/><rect x="670" y="782" width="28" height="28" transform="rotate(0,684,796)"/><rect x="698" y="782" width="28" height="28" transform="rotate(0,712,796)"/><rect x="726" y="782" width="28" height="28" transform="rotate(0,740,796)"/><rect x="754" y="782" width="28" height="28" transform="rotate(0,768,796)"/><rect x="782" y="782" width="28" height="28" transform="rotate(0,796,796)"/><rect x="810" y="782" width="28" height="28" transform="rotate(0,824,796)"/><rect x="838" y="782" width="28" height="28" transform="rotate(0,852,796)"/><rect x="922" y="782" width="28" height="28" transform="rotate(0,936,796)"/><rect x="950" y="782" width="28" height="28" transform="rotate(0,964,796)"/><rect x="978" y="782" width="28" height="28" transform="rotate(0,992,796)"/><path d="M 1006 782v 28h 14a 14 14, 0, 0, 0, 0 -28" transform="rotate(0,1020,796)"/><rect x="1146" y="782" width="28" height="28" transform="rotate(0,1160,796)"/><path d="M 26 810v 28h 14a 14 14, 0, 0, 0, 0 -28" transform="rotate(180,40,824)"/><rect x="54" y="810" width="28" height="28" transform="rotate(0,68,824)"/><path d="M 82 810v 28h 28v -14a 14 14, 0, 0, 0, -14 -14" transform="rotate(0,96,824)"/><path d="M 194 810v 28h 14a 14 14, 0, 0, 0, 0 -28" transform="rotate(180,208,824)"/><path d="M 222 810v 28h 28v -14a 14 14, 0, 0, 0, -14 -14" transform="rotate(0,236,824)"/><path d="M 278 810v 28h 14a 14 14, 0, 0, 0, 0 -28" transform="rotate(180,292,824)"/><rect x="306" y="810" width="28" height="28" transform="rotate(0,320,824)"/><path d="M 390 810v 28h 14a 14 14, 0, 0, 0, 0 -28" transform="rotate(180,404,824)"/><rect x="418" y="810" width="28" height="28" transform="rotate(0,432,824)"/><rect x="446" y="810" width="28" height="28" transform="rotate(0,460,824)"/><circle cx="628" cy="824" r="14" transform="rotate(0,628,824)"/><path d="M 670 810v 28h 28v -14a 14 14, 0, 0, 0, -14 -14" transform="rotate(180,684,824)"/><rect x="698" y="810" width="28" height="28" transform="rotate(0,712,824)"/><path d="M 838 810v 28h 14a 14 14, 0, 0, 0, 0 -28" transform="rotate(90,852,824)"/><path d="M 922 810v 28h 28v -14a 14 14, 0, 0, 0, -14 -14" transform="rotate(180,936,824)"/><rect x="950" y="810" width="28" height="28" transform="rotate(0,964,824)"/><path d="M 1118 810v 28h 14a 14 14, 0, 0, 0, 0 -28" transform="rotate(180,1132,824)"/><rect x="1146" y="810" width="28" height="28" transform="rotate(0,1160,824)"/><rect x="82" y="838" width="28" height="28" transform="rotate(0,96,852)"/><path d="M 110 838v 28h 28v -14a 14 14, 0, 0, 0, -14 -14" transform="rotate(0,124,852)"/><path d="M 166 838v 28h 14a 14 14, 0, 0, 0, 0 -28" transform="rotate(-90,180,852)"/><rect x="222" y="838" width="28" height="28" transform="rotate(0,236,852)"/><path d="M 306 838v 28h 28v -14a 14 14, 0, 0, 0, -14 -14" transform="rotate(180,320,852)"/><path d="M 334 838v 28h 28v -14a 14 14, 0, 0, 0, -14 -14" transform="rotate(0,348,852)"/><rect x="446" y="838" width="28" height="28" transform="rotate(0,460,852)"/><circle cx="544" cy="852" r="14" transform="rotate(0,544,852)"/><circle cx="600" cy="852" r="14" transform="rotate(0,600,852)"/><path d="M 642 838v 28h 14a 14 14, 0, 0, 0, 0 -28" transform="rotate(-90,656,852)"/><rect x="698" y="838" width="28" height="28" transform="rotate(0,712,852)"/><path d="M 754 838v 28h 28v -14a 14 14, 0, 0, 0, -14 -14" transform="rotate(-90,768,852)"/><path d="M 782 838v 28h 14a 14 14, 0, 0, 0, 0 -28" transform="rotate(0,796,852)"/><path d="M 950 838v 28h 28v -14a 14 14, 0, 0, 0, -14 -14" transform="rotate(180,964,852)"/><path d="M 978 838v 28h 14a 14 14, 0, 0, 0, 0 -28" transform="rotate(0,992,852)"/><rect x="1146" y="838" width="28" height="28" transform="rotate(0,1160,852)"/><circle cx="40" cy="880" r="14" transform="rotate(0,40,880)"/><rect x="82" y="866" width="28" height="28" transform="rotate(0,96,880)"/><rect x="110" y="866" width="28" height="28" transform="rotate(0,124,880)"/><rect x="138" y="866" width="28" height="28" transform="rotate(0,152,880)"/><rect x="166" y="866" width="28" height="28" transform="rotate(0,180,880)"/><rect x="194" y="866" width="28" height="28" transform="rotate(0,208,880)"/><rect x="222" y="866" width="28" height="28" transform="rotate(0,236,880)"/><rect x="250" y="866" width="28" height="28" transform="rotate(0,264,880)"/><path d="M 278 866v 28h 28v -14a 14 14, 0, 0, 0, -14 -14" transform="rotate(0,292,880)"/><rect x="334" y="866" width="28" height="28" transform="rotate(0,348,880)"/><path d="M 362 866v 28h 28v -14a 14 14, 0, 0, 0, -14 -14" transform="rotate(0,376,880)"/><path d="M 418 866v 28h 14a 14 14, 0, 0, 0, 0 -28" transform="rotate(180,432,880)"/><rect x="446" y="866" width="28" height="28" transform="rotate(0,460,880)"/><path d="M 474 866v 28h 28v -14a 14 14, 0, 0, 0, -14 -14" transform="rotate(0,488,880)"/><circle cx="572" cy="880" r="14" transform="rotate(0,572,880)"/><path d="M 614 866v 28h 28v -14a 14 14, 0, 0, 0, -14 -14" transform="rotate(-90,628,880)"/><rect x="642" y="866" width="28" height="28" transform="rotate(0,656,880)"/><rect x="670" y="866" width="28" height="28" transform="rotate(0,684,880)"/><rect x="698" y="866" width="28" height="28" transform="rotate(0,712,880)"/><path d="M 754 866v 28h 14a 14 14, 0, 0, 0, 0 -28" transform="rotate(90,768,880)"/><path d="M 838 866v 28h 14a 14 14, 0, 0, 0, 0 -28" transform="rotate(-90,852,880)"/><path d="M 1006 866v 28h 14a 14 14, 0, 0, 0, 0 -28" transform="rotate(180,1020,880)"/><rect x="1034" y="866" width="28" height="28" transform="rotate(0,1048,880)"/><path d="M 1062 866v 28h 28v -14a 14 14, 0, 0, 0, -14 -14" transform="rotate(0,1076,880)"/><path d="M 1118 866v 28h 14a 14 14, 0, 0, 0, 0 -28" transform="rotate(180,1132,880)"/><rect x="1146" y="866" width="28" height="28" transform="rotate(0,1160,880)"/><rect x="82" y="894" width="28" height="28" transform="rotate(0,96,908)"/><rect x="110" y="894" width="28" height="28" transform="rotate(0,124,908)"/><rect x="138" y="894" width="28" height="28" transform="rotate(0,152,908)"/><path d="M 166 894v 28h 28v -14a 14 14, 0, 0, 0, -14 -14" transform="rotate(90,180,908)"/><path d="M 222 894v 28h 28v -14a 14 14, 0, 0, 0, -14 -14" transform="rotate(180,236,908)"/><rect x="250" y="894" width="28" height="28" transform="rotate(0,264,908)"/><rect x="278" y="894" width="28" height="28" transform="rotate(0,292,908)"/><rect x="306" y="894" width="28" height="28" transform="rotate(0,320,908)"/><rect x="334" y="894" width="28" height="28" transform="rotate(0,348,908)"/><rect x="362" y="894" width="28" height="28" transform="rotate(0,376,908)"/><path d="M 390 894v 28h 14a 14 14, 0, 0, 0, 0 -28" transform="rotate(0,404,908)"/><path d="M 474 894v 28h 14a 14 14, 0, 0, 0, 0 -28" transform="rotate(90,488,908)"/><path d="M 586 894v 28h 14a 14 14, 0, 0, 0, 0 -28" transform="rotate(180,600,908)"/><path d="M 614 894v 28h 28v -14a 14 14, 0, 0, 0, -14 -14" transform="rotate(90,628,908)"/><rect x="698" y="894" width="28" height="28" transform="rotate(0,712,908)"/><circle cx="796" cy="908" r="14" transform="rotate(0,796,908)"/><path d="M 838 894v 28h 28v -14a 14 14, 0, 0, 0, -14 -14" transform="rotate(180,852,908)"/><path d="M 866 894v 28h 14a 14 14, 0, 0, 0, 0 -28" transform="rotate(0,880,908)"/><path d="M 922 894v 28h 28v -14a 14 14, 0, 0, 0, -14 -14" transform="rotate(-90,936,908)"/><path d="M 950 894v 28h 28v -14a 14 14, 0, 0, 0, -14 -14" transform="rotate(0,964,908)"/><rect x="1034" y="894" width="28" height="28" transform="rotate(0,1048,908)"/><path d="M 1062 894v 28h 28v -14a 14 14, 0, 0, 0, -14 -14" transform="rotate(90,1076,908)"/><path d="M 1146 894v 28h 14a 14 14, 0, 0, 0, 0 -28" transform="rotate(90,1160,908)"/><circle cx="40" cy="936" r="14" transform="rotate(0,40,936)"/><path d="M 82 922v 28h 28v -14a 14 14, 0, 0, 0, -14 -14" transform="rotate(180,96,936)"/><path d="M 110 922v 28h 28v -14a 14 14, 0, 0, 0, -14 -14" transform="rotate(90,124,936)"/><circle cx="208" cy="936" r="14" transform="rotate(0,208,936)"/><path d="M 418 922v 28h 28v -14a 14 14, 0, 0, 0, -14 -14" transform="rotate(-90,432,936)"/><path d="M 446 922v 28h 14a 14 14, 0, 0, 0, 0 -28" transform="rotate(0,460,936)"/><path d="M 502 922v 28h 14a 14 14, 0, 0, 0, 0 -28" transform="rotate(-90,516,936)"/><path d="M 558 922v 28h 14a 14 14, 0, 0, 0, 0 -28" transform="rotate(-90,572,936)"/><rect x="698" y="922" width="28" height="28" transform="rotate(0,712,936)"/><path d="M 726 922v 28h 28v -14a 14 14, 0, 0, 0, -14 -14" transform="rotate(0,740,936)"/><path d="M 810 922v 28h 14a 14 14, 0, 0, 0, 0 -28" transform="rotate(-90,824,936)"/><rect x="922" y="922" width="28" height="28" transform="rotate(0,936,936)"/><rect x="950" y="922" width="28" height="28" transform="rotate(0,964,936)"/><rect x="978" y="922" width="28" height="28" transform="rotate(0,992,936)"/><rect x="1006" y="922" width="28" height="28" transform="rotate(0,1020,936)"/><rect x="1034" y="922" width="28" height="28" transform="rotate(0,1048,936)"/><path d="M 1090 922v 28h 14a 14 14, 0, 0, 0, 0 -28" transform="rotate(180,1104,936)"/><path d="M 1118 922v 28h 28v -14a 14 14, 0, 0, 0, -14 -14" transform="rotate(0,1132,936)"/><path d="M 250 950v 28h 14a 14 14, 0, 0, 0, 0 -28" transform="rotate(-90,264,964)"/><path d="M 334 950v 28h 28v -14a 14 14, 0, 0, 0, -14 -14" transform="rotate(-90,348,964)"/><rect x="362" y="950" width="28" height="28" transform="rotate(0,376,964)"/><rect x="390" y="950" width="28" height="28" transform="rotate(0,404,964)"/><path d="M 418 950v 28h 28v -14a 14 14, 0, 0, 0, -14 -14" transform="rotate(90,432,964)"/><path d="M 474 950v 28h 14a 14 14, 0, 0, 0, 0 -28" transform="rotate(180,488,964)"/><path d="M 502 950v 28h 28v -14a 14 14, 0, 0, 0, -14 -14" transform="rotate(90,516,964)"/><path d="M 558 950v 28h 28v -14a 14 14, 0, 0, 0, -14 -14" transform="rotate(180,572,964)"/><path d="M 586 950v 28h 14a 14 14, 0, 0, 0, 0 -28" transform="rotate(0,600,964)"/><path d="M 698 950v 28h 28v -14a 14 14, 0, 0, 0, -14 -14" transform="rotate(180,712,964)"/><rect x="726" y="950" width="28" height="28" transform="rotate(0,740,964)"/><path d="M 810 950v 28h 28v -14a 14 14, 0, 0, 0, -14 -14" transform="rotate(180,824,964)"/><rect x="838" y="950" width="28" height="28" transform="rotate(0,852,964)"/><rect x="866" y="950" width="28" height="28" transform="rotate(0,880,964)"/><rect x="894" y="950" width="28" height="28" transform="rotate(0,908,964)"/><rect x="922" y="950" width="28" height="28" transform="rotate(0,936,964)"/><rect x="1034" y="950" width="28" height="28" transform="rotate(0,1048,964)"/><path d="M 1118 950v 28h 28v -14a 14 14, 0, 0, 0, -14 -14" transform="rotate(180,1132,964)"/><path d="M 1146 950v 28h 14a 14 14, 0, 0, 0, 0 -28" transform="rotate(0,1160,964)"/><rect x="250" y="978" width="28" height="28" transform="rotate(0,264,992)"/><path d="M 278 978v 28h 28v -14a 14 14, 0, 0, 0, -14 -14" transform="rotate(0,292,992)"/><path d="M 334 978v 28h 14a 14 14, 0, 0, 0, 0 -28" transform="rotate(90,348,992)"/><circle cx="460" cy="992" r="14" transform="rotate(0,460,992)"/><path d="M 614 978v 28h 14a 14 14, 0, 0, 0, 0 -28" transform="rotate(180,628,992)"/><path d="M 642 978v 28h 28v -14a 14 14, 0, 0, 0, -14 -14" transform="rotate(0,656,992)"/><rect x="726" y="978" width="28" height="28" transform="rotate(0,740,992)"/><path d="M 754 978v 28h 14a 14 14, 0, 0, 0, 0 -28" transform="rotate(0,768,992)"/><path d="M 838 978v 28h 28v -14a 14 14, 0, 0, 0, -14 -14" transform="rotate(180,852,992)"/><path d="M 866 978v 28h 28v -14a 14 14, 0, 0, 0, -14 -14" transform="rotate(90,880,992)"/><rect x="922" y="978" width="28" height="28" transform="rotate(0,936,992)"/><circle cx="992" cy="992" r="14" transform="rotate(0,992,992)"/><rect x="1034" y="978" width="28" height="28" transform="rotate(0,1048,992)"/><path d="M 1090 978v 28h 14a 14 14, 0, 0, 0, 0 -28" transform="rotate(-90,1104,992)"/><path d="M 250 1006v 28h 28v -14a 14 14, 0, 0, 0, -14 -14" transform="rotate(180,264,1020)"/><rect x="278" y="1006" width="28" height="28" transform="rotate(0,292,1020)"/><path d="M 306 1006v 28h 28v -14a 14 14, 0, 0, 0, -14 -14" transform="rotate(0,320,1020)"/><path d="M 362 1006v 28h 14a 14 14, 0, 0, 0, 0 -28" transform="rotate(180,376,1020)"/><rect x="390" y="1006" width="28" height="28" transform="rotate(0,404,1020)"/><path d="M 418 1006v 28h 28v -14a 14 14, 0, 0, 0, -14 -14" transform="rotate(0,432,1020)"/><path d="M 474 1006v 28h 14a 14 14, 0, 0, 0, 0 -28" transform="rotate(-90,488,1020)"/><path d="M 530 1006v 28h 14a 14 14, 0, 0, 0, 0 -28" transform="rotate(-90,544,1020)"/><path d="M 642 1006v 28h 14a 14 14, 0, 0, 0, 0 -28" transform="rotate(90,656,1020)"/><path d="M 698 1006v 28h 14a 14 14, 0, 0, 0, 0 -28" transform="rotate(180,712,1020)"/><path d="M 726 1006v 28h 28v -14a 14 14, 0, 0, 0, -14 -14" transform="rotate(90,740,1020)"/><rect x="922" y="1006" width="28" height="28" transform="rotate(0,936,1020)"/><rect x="1034" y="1006" width="28" height="28" transform="rotate(0,1048,1020)"/><path d="M 1090 1006v 28h 14a 14 14, 0, 0, 0, 0 -28" transform="rotate(90,1104,1020)"/><path d="M 306 1034v 28h 28v -14a 14 14, 0, 0, 0, -14 -14" transform="rotate(180,320,1048)"/><path d="M 334 1034v 28h 14a 14 14, 0, 0, 0, 0 -28" transform="rotate(0,348,1048)"/><rect x="390" y="1034" width="28" height="28" transform="rotate(0,404,1048)"/><rect x="418" y="1034" width="28" height="28" transform="rotate(0,432,1048)"/><rect x="474" y="1034" width="28" height="28" transform="rotate(0,488,1048)"/><path d="M 530 1034v 28h 28v -14a 14 14, 0, 0, 0, -14 -14" transform="rotate(180,544,1048)"/><path d="M 558 1034v 28h 14a 14 14, 0, 0, 0, 0 -28" transform="rotate(0,572,1048)"/><circle cx="684" cy="1048" r="14" transform="rotate(0,684,1048)"/><path d="M 754 1034v 28h 14a 14 14, 0, 0, 0, 0 -28" transform="rotate(-90,768,1048)"/><path d="M 810 1034v 28h 14a 14 14, 0, 0, 0, 0 -28" transform="rotate(180,824,1048)"/><path d="M 838 1034v 28h 14a 14 14, 0, 0, 0, 0 -28" transform="rotate(0,852,1048)"/><path d="M 922 1034v 28h 28v -14a 14 14, 0, 0, 0, -14 -14" transform="rotate(180,936,1048)"/><rect x="950" y="1034" width="28" height="28" transform="rotate(0,964,1048)"/><rect x="978" y="1034" width="28" height="28" transform="rotate(0,992,1048)"/><rect x="1006" y="1034" width="28" height="28" transform="rotate(0,1020,1048)"/><rect x="1034" y="1034" width="28" height="28" transform="rotate(0,1048,1048)"/><path d="M 1062 1034v 28h 28v -14a 14 14, 0, 0, 0, -14 -14" transform="rotate(0,1076,1048)"/><path d="M 250 1062v 28h 14a 14 14, 0, 0, 0, 0 -28" transform="rotate(180,264,1076)"/><path d="M 278 1062v 28h 28v -14a 14 14, 0, 0, 0, -14 -14" transform="rotate(0,292,1076)"/><path d="M 362 1062v 28h 28v -14a 14 14, 0, 0, 0, -14 -14" transform="rotate(-90,376,1076)"/><rect x="390" y="1062" width="28" height="28" transform="rotate(0,404,1076)"/><path d="M 418 1062v 28h 28v -14a 14 14, 0, 0, 0, -14 -14" transform="rotate(90,432,1076)"/><rect x="474" y="1062" width="28" height="28" transform="rotate(0,488,1076)"/><path d="M 586 1062v 28h 14a 14 14, 0, 0, 0, 0 -28" transform="rotate(-90,600,1076)"/><path d="M 642 1062v 28h 14a 14 14, 0, 0, 0, 0 -28" transform="rotate(-90,656,1076)"/><path d="M 698 1062v 28h 14a 14 14, 0, 0, 0, 0 -28" transform="rotate(-90,712,1076)"/><rect x="754" y="1062" width="28" height="28" transform="rotate(0,768,1076)"/><path d="M 950 1062v 28h 28v -14a 14 14, 0, 0, 0, -14 -14" transform="rotate(180,964,1076)"/><path d="M 978 1062v 28h 28v -14a 14 14, 0, 0, 0, -14 -14" transform="rotate(90,992,1076)"/><rect x="1034" y="1062" width="28" height="28" transform="rotate(0,1048,1076)"/><rect x="1062" y="1062" width="28" height="28" transform="rotate(0,1076,1076)"/><path d="M 1118 1062v 28h 28v -14a 14 14, 0, 0, 0, -14 -14" transform="rotate(-90,1132,1076)"/><path d="M 1146 1062v 28h 28v -14a 14 14, 0, 0, 0, -14 -14" transform="rotate(0,1160,1076)"/><rect x="278" y="1090" width="28" height="28" transform="rotate(0,292,1104)"/><path d="M 306 1090v 28h 28v -14a 14 14, 0, 0, 0, -14 -14" transform="rotate(0,320,1104)"/><path d="M 362 1090v 28h 28v -14a 14 14, 0, 0, 0, -14 -14" transform="rotate(180,376,1104)"/><path d="M 390 1090v 28h 28v -14a 14 14, 0, 0, 0, -14 -14" transform="rotate(90,404,1104)"/><rect x="474" y="1090" width="28" height="28" transform="rotate(0,488,1104)"/><path d="M 530 1090v 28h 28v -14a 14 14, 0, 0, 0, -14 -14" transform="rotate(-90,544,1104)"/><rect x="558" y="1090" width="28" height="28" transform="rotate(0,572,1104)"/><rect x="586" y="1090" width="28" height="28" transform="rotate(0,600,1104)"/><rect x="614" y="1090" width="28" height="28" transform="rotate(0,628,1104)"/><rect x="642" y="1090" width="28" height="28" transform="rotate(0,656,1104)"/><rect x="670" y="1090" width="28" height="28" transform="rotate(0,684,1104)"/><rect x="698" y="1090" width="28" height="28" transform="rotate(0,712,1104)"/><rect x="726" y="1090" width="28" height="28" transform="rotate(0,740,1104)"/><path d="M 754 1090v 28h 28v -14a 14 14, 0, 0, 0, -14 -14" transform="rotate(90,768,1104)"/><path d="M 838 1090v 28h 14a 14 14, 0, 0, 0, 0 -28" transform="rotate(-90,852,1104)"/><circle cx="908" cy="1104" r="14" transform="rotate(0,908,1104)"/><path d="M 1034 1090v 28h 28v -14a 14 14, 0, 0, 0, -14 -14" transform="rotate(180,1048,1104)"/><path d="M 1062 1090v 28h 28v -14a 14 14, 0, 0, 0, -14 -14" transform="rotate(90,1076,1104)"/><rect x="1118" y="1090" width="28" height="28" transform="rotate(0,1132,1104)"/><path d="M 1146 1090v 28h 28v -14a 14 14, 0, 0, 0, -14 -14" transform="rotate(90,1160,1104)"/><path d="M 250 1118v 28h 14a 14 14, 0, 0, 0, 0 -28" transform="rotate(180,264,1132)"/><rect x="278" y="1118" width="28" height="28" transform="rotate(0,292,1132)"/><rect x="306" y="1118" width="28" height="28" transform="rotate(0,320,1132)"/><path d="M 334 1118v 28h 28v -14a 14 14, 0, 0, 0, -14 -14" transform="rotate(0,348,1132)"/><path d="M 446 1118v 28h 14a 14 14, 0, 0, 0, 0 -28" transform="rotate(180,460,1132)"/><rect x="474" y="1118" width="28" height="28" transform="rotate(0,488,1132)"/><rect x="502" y="1118" width="28" height="28" transform="rotate(0,516,1132)"/><path d="M 530 1118v 28h 28v -14a 14 14, 0, 0, 0, -14 -14" transform="rotate(90,544,1132)"/><path d="M 642 1118v 28h 28v -14a 14 14, 0, 0, 0, -14 -14" transform="rotate(180,656,1132)"/><rect x="670" y="1118" width="28" height="28" transform="rotate(0,684,1132)"/><rect x="698" y="1118" width="28" height="28" transform="rotate(0,712,1132)"/><path d="M 726 1118v 28h 28v -14a 14 14, 0, 0, 0, -14 -14" transform="rotate(90,740,1132)"/><rect x="838" y="1118" width="28" height="28" transform="rotate(0,852,1132)"/><path d="M 922 1118v 28h 14a 14 14, 0, 0, 0, 0 -28" transform="rotate(-90,936,1132)"/><path d="M 978 1118v 28h 28v -14a 14 14, 0, 0, 0, -14 -14" transform="rotate(-90,992,1132)"/><path d="M 1006 1118v 28h 28v -14a 14 14, 0, 0, 0, -14 -14" transform="rotate(0,1020,1132)"/><rect x="1118" y="1118" width="28" height="28" transform="rotate(0,1132,1132)"/><path d="M 306 1146v 28h 28v -14a 14 14, 0, 0, 0, -14 -14" transform="rotate(180,320,1160)"/><rect x="334" y="1146" width="28" height="28" transform="rotate(0,348,1160)"/><rect x="362" y="1146" width="28" height="28" transform="rotate(0,376,1160)"/><path d="M 390 1146v 28h 14a 14 14, 0, 0, 0, 0 -28" transform="rotate(0,404,1160)"/><path d="M 474 1146v 28h 28v -14a 14 14, 0, 0, 0, -14 -14" transform="rotate(180,488,1160)"/><path d="M 502 1146v 28h 28v -14a 14 14, 0, 0, 0, -14 -14" transform="rotate(90,516,1160)"/><path d="M 558 1146v 28h 14a 14 14, 0, 0, 0, 0 -28" transform="rotate(180,572,1160)"/><path d="M 586 1146v 28h 14a 14 14, 0, 0, 0, 0 -28" transform="rotate(0,600,1160)"/><path d="M 698 1146v 28h 14a 14 14, 0, 0, 0, 0 -28" transform="rotate(90,712,1160)"/><path d="M 810 1146v 28h 14a 14 14, 0, 0, 0, 0 -28" transform="rotate(180,824,1160)"/><path d="M 838 1146v 28h 28v -14a 14 14, 0, 0, 0, -14 -14" transform="rotate(90,852,1160)"/><path d="M 922 1146v 28h 14a 14 14, 0, 0, 0, 0 -28" transform="rotate(90,936,1160)"/><path d="M 978 1146v 28h 28v -14a 14 14, 0, 0, 0, -14 -14" transform="rotate(180,992,1160)"/><rect x="1006" y="1146" width="28" height="28" transform="rotate(0,1020,1160)"/><path d="M 1034 1146v 28h 14a 14 14, 0, 0, 0, 0 -28" transform="rotate(0,1048,1160)"/><path d="M 1118 1146v 28h 14a 14 14, 0, 0, 0, 0 -28" transform="rotate(90,1132,1160)"/></clipPath><clipPath id="clip-path-corners-square-color-0-0-176"><path clip-rule="evenodd" d="M 26 96v 56a 70 70, 0, 0, 0, 70 70h 56a 70 70, 0, 0, 0, 70 -70v -56a 70 70, 0, 0, 0, -70 -70h -56a 70 70, 0, 0, 0, -70 70M 96 54h 56a 42 42, 0, 0, 1, 42 42v 56a 42 42, 0, 0, 1, -42 42h -56a 42 42, 0, 0, 1, -42 -42v -56a 42 42, 0, 0, 1, 42 -42" transform="rotate(0,124,124)"/></clipPath><clipPath id="clip-path-corners-dot-color-0-0-176"><circle cx="124" cy="124" r="42" transform="rotate(0,124,124)"/></clipPath><clipPath id="clip-path-corners-square-color-1-0-176"><path clip-rule="evenodd" d="M 978 96v 56a 70 70, 0, 0, 0, 70 70h 56a 70 70, 0, 0, 0, 70 -70v -56a 70 70, 0, 0, 0, -70 -70h -56a 70 70, 0, 0, 0, -70 70M 1048 54h 56a 42 42, 0, 0, 1, 42 42v 56a 42 42, 0, 0, 1, -42 42h -56a 42 42, 0, 0, 1, -42 -42v -56a 42 42, 0, 0, 1, 42 -42" transform="rotate(90,1076,124)"/></clipPath><clipPath id="clip-path-corners-dot-color-1-0-176"><circle cx="1076" cy="124" r="42" transform="rotate(90,1076,124)"/></clipPath><clipPath id="clip-path-corners-square-color-0-1-176"><path clip-rule="evenodd" d="M 26 1048v 56a 70 70, 0, 0, 0, 70 70h 56a 70 70, 0, 0, 0, 70 -70v -56a 70 70, 0, 0, 0, -70 -70h -56a 70 70, 0, 0, 0, -70 70M 96 1006h 56a 42 42, 0, 0, 1, 42 42v 56a 42 42, 0, 0, 1, -42 42h -56a 42 42, 0, 0, 1, -42 -42v -56a 42 42, 0, 0, 1, 42 -42" transform="rotate(-90,124,1076)"/></clipPath><clipPath id="clip-path-corners-dot-color-0-1-176"><circle cx="124" cy="1076" r="42" transform="rotate(-90,124,1076)"/></clipPath></defs><rect x="0" y="0" height="1200" width="1200" clip-path="url('#clip-path-background-color-176')" fill="#ffffff"/><rect x="0" y="0" height="1200" width="1200" clip-path="url('#clip-path-dot-color-176')" fill="#000000"/><rect x="26" y="26" height="196" width="196" clip-path="url('#clip-path-corners-square-color-0-0-176')" fill="#000000"/><rect x="82" y="82" height="84" width="84" clip-path="url('#clip-path-corners-dot-color-0-0-176')" fill="#000000"/><rect x="978" y="26" height="196" width="196" clip-path="url('#clip-path-corners-square-color-1-0-176')" fill="#000000"/><rect x="1034" y="82" height="84" width="84" clip-path="url('#clip-path-corners-dot-color-1-0-176')" fill="#000000"/><rect x="26" y="978" height="196" width="196" clip-path="url('#clip-path-corners-square-color-0-1-176')" fill="#000000"/><rect x="82" y="1034" height="84" width="84" clip-path="url('#clip-path-corners-dot-color-0-1-176')" fill="#000000"/></svg>