<?xml version="1.0" standalone="no"?>
<svg xmlns="http://www.w3.org/2000/svg" width="1200" height="1200" xmlns:xlink="http://www.w3.org/1999/xlink" viewBox="0 0 1200 1200"><defs><clipPath id="clip-path-background-color-230"><rect x="0" y="0" width="1200" height="1200"/></clipPath><clipPath id="clip-path-dot-color-230"><circle cx="264" cy="40" r="14" transform="rotate(0,264,40)"/><path d="M 334 26v 28h 28v -14a 14 14, 0, 0, 0, -14 -14" transform="rotate(-90,348,40)"/><rect x="362" y="26" width="28" height="28" transform="rotate(0,376,40)"/><path d="M 390 26v 28h 28v -14a 14 14, 0, 0, 0, -14 -14" transform="rotate(0,404,40)"/><path d="M 474 26v 28h 28v -14a 14 14, 0, 0, 0, -14 -14" transform="rotate(-90,488,40)"/><rect x="502" y="26" width="28" height="28" transform="rotate(0,516,40)"/><rect x="530" y="26" width="28" height="28" transform="rotate(0,544,40)"/><rect x="558" y="26" width="28" height="28" transform="rotate(0,572,40)"/><path d="M 586 26v 28h 28v -14a 14 14, 0, 0, 0, -14 -14" transform="rotate(0,600,40)"/><circle cx="656" cy="40" r="14" transform="rotate(0,656,40)"/><path d="M 726 26v 28h 14a 14 14, 0, 0, 0, 0 -28" transform="rotate(-90,740,40)"/><circle cx="824" cy="40" r="14" transform="rotate(0,824,40)"/><path d="M 866 26v 28h 28v -14a 14 14, 0, 0, 0, -14 -14" transform="rotate(-90,880,40)"/><rect x="894" y="26" width="28" height="28" transform="rotate(0,908,40)"/><path d="M 922 26v 28h 14a 14 14, 0, 0, 0, 0 -28" transform="rotate(0,936,40)"/><path d="M 278 54v 28h 28v -14a 14 14, 0, 0, 0, -14 -14" transform="rotate(-90,292,68)"/><rect x="306" y="54" width="28" height="28" transform="rotate(0,320,68)"/><rect x="334" y="54" width="28" height="28" transform="rotate(0,348,68)"/><rect x="362" y="54" width="28" height="28" transform="rotate(0,376,68)"/><rect x="390" y="54" width="28" height="28" transform="rotate(0,404,68)"/><rect x="418" y="54" width="28" height="28" transform="rotate(0,432,68)"/><rect x="446" y="54" width="28" height="28" transform="rotate(0,460,68)"/><rect x="474" y="54" width="28" height="28" transform="rotate(0,488,68)"/><rect x="502" y="54" width="28" height="28" transform="rotate(0,516,68)"/><path d="M 586 54v 28h 14a 14 14, 0, 0, 0, 0 -28" transform="rotate(90,600,68)"/><path d="M 670 54v 28h 14a 14 14, 0, 0, 0, 0 -28" transform="rotate(180,684,68)"/><rect x="698" y="54" width="28" height="28" transform="rotate(0,712,68)"/><rect x="726" y="54" width="28" height="28" transform="rotate(0,740,68)"/><rect x="754" y="54" width="28" height="28" transform="rotate(0,768,68)"/><path d="M 782 54v 28h 14a 14 14, 0, 0, 0, 0 -28" transform="rotate(0,796,68)"/><path d="M 866 54v 28h 14a 14 14, 0, 0, 0, 0 -28" transform="rotate(90,880,68)"/><rect x="278" y="82" width="28" height="28" transform="rotate(0,292,96)"/><path d="M 306 82v 28h 28v -14a 14 14, 0, 0, 0, -14 -14" transform="rotate(90,320,96)"/><rect x="362" y="82" width="28" height="28" transform="rotate(0,376,96)"/><rect x="390" y="82" width="28" height="28" transform="rotate(0,404,96)"/><rect x="418" y="82" width="28" height="28" transform="rotate(0,432,96)"/><rect x="446" y="82" width="28" height="28" transform="rotate(0,460,96)"/><rect x="502" y="82" width="28" height="28" transform="rotate(0,516,96)"/><circle cx="572" cy="96" r="14" transform="rotate(0,572,96)"/><path d="M 614 82v 28h 14a 14 14, 0, 0, 0, 0 -28" transform="rotate(-90,628,96)"/><rect x="698" y="82" width="28" height="28" transform="rotate(0,712,96)"/><path d="M 726 82v 28h 28v -14a 14 14, 0, 0, 0, -14 -14" transform="rotate(90,740,96)"/><circle cx="824" cy="96" r="14" transform="rotate(0,824,96)"/><path d="M 894 82v 28h 14a 14 14, 0, 0, 0, 0 -28" transform="rotate(180,908,96)"/><path d="M 922 82v 28h 28v -14a 14 14, 0, 0, 0, -14 -14" transform="rotate(0,936,96)"/><rect x="278" y="110" width="28" height="28" transform="rotate(0,292,124)"/><path d="M 334 110v 28h 14a 14 14, 0, 0, 0, 0 -28" transform="rotate(180,348,124)"/><rect x="362" y="110" width="28" height="28" transform="rotate(0,376,124)"/><path d="M 390 110v 28h 28v -14a 14 14, 0, 0, 0, -14 -14" transform="rotate(90,404,124)"/><path d="M 446 110v 28h 14a 14 14, 0, 0, 0, 0 -28" transform="rotate(90,460,124)"/><rect x="502" y="110" width="28" height="28" transform="rotate(0,516,124)"/><path d="M 530 110v 28h 14a 14 14, 0, 0, 0, 0 -28" transform="rotate(0,544,124)"/><path d="M 614 110v 28h 14a 14 14, 0, 0, 0, 0 -28" transform="rotate(90,628,124)"/><path d="M 670 110v 28h 14a 14 14, 0, 0, 0, 0 -28" transform="rotate(180,684,124)"/><rect x="698" y="110" width="28" height="28" transform="rotate(0,712,124)"/><path d="M 754 110v 28h 14a 14 14, 0, 0, 0, 0 -28" transform="rotate(180,768,124)"/><path d="M 782 110v 28h 14a 14 14, 0, 0, 0, 0 -28" transform="rotate(0,796,124)"/><circle cx="880" cy="124" r="14" transform="rotate(0,880,124)"/><rect x="922" y="110" width="28" height="28" transform="rotate(0,936,124)"/><path d="M 250 138v 28h 28v -14a 14 14, 0, 0, 0, -14 -14" transform="rotate(-90,264,152)"/><rect x="278" y="138" width="28" height="28" transform="rotate(0,292,152)"/><path d="M 502 138v 28h 14a 14 14, 0, 0, 0, 0 -28" transform="rotate(90,516,152)"/><circle cx="656" cy="152" r="14" transform="rotate(0,656,152)"/><path d="M 698 138v 28h 14a 14 14, 0, 0, 0, 0 -28" transform="rotate(90,712,152)"/><circle cx="824" cy="152" r="14" transform="rotate(0,824,152)"/><path d="M 894 138v 28h 14a 14 14, 0, 0, 0, 0 -28" transform="rotate(180,908,152)"/><rect x="922" y="138" width="28" height="28" transform="rotate(0,936,152)"/><rect x="250" y="166" width="28" height="28" transform="rotate(0,264,180)"/><rect x="278" y="166" width="28" height="28" transform="rotate(0,292,180)"/><path d="M 306 166v 28h 28v -14a 14 14, 0, 0, 0, -14 -14" transform="rotate(0,320,180)"/><path d="M 418 166v 28h 28v -14a 14 14, 0, 0, 0, -14 -14" transform="rotate(-90,432,180)"/><path d="M 446 166v 28h 14a 14 14, 0, 0, 0, 0 -28" transform="rotate(0,460,180)"/><circle cx="572" cy="180" r="14" transform="rotate(0,572,180)"/><circle cx="684" cy="180" r="14" transform="rotate(0,684,180)"/><circle cx="740" cy="180" r="14" transform="rotate(0,740,180)"/><circle cx="796" cy="180" r="14" transform="rotate(0,796,180)"/><path d="M 838 166v 28h 14a 14 14, 0, 0, 0, 0 -28" transform="rotate(180,852,180)"/><path d="M 866 166v 28h 28v -14a 14 14, 0, 0, 0, -14 -14" transform="rotate(0,880,180)"/><rect x="922" y="166" width="28" height="28" transform="rotate(0,936,180)"/><path d="M 250 194v 28h 14a 14 14, 0, 0, 0, 0 -28" transform="rotate(90,264,208)"/><path d="M 306 194v 28h 14a 14 14, 0, 0, 0, 0 -28" transform="rotate(90,320,208)"/><circle cx="376" cy="208" r="14" transform="rotate(0,376,208)"/><path d="M 418 194v 28h 14a 14 14, 0, 0, 0, 0 -28" transform="rotate(90,432,208)"/><path d="M 474 194v 28h 14a 14 14, 0, 0, 0, 0 -28" transform="rotate(-90,488,208)"/><circle cx="544" cy="208" r="14" transform="rotate(0,544,208)"/><path d="M 586 194v 28h 14a 14 14, 0, 0, 0, 0 -28" transform="rotate(-90,600,208)"/><circle cx="656" cy="208" r="14" transform="rotate(0,656,208)"/><path d="M 698 194v 28h 14a 14 14, 0, 0, 0, 0 -28" transform="rotate(-90,712,208)"/><circle cx="768" cy="208" r="14" transform="rotate(0,768,208)"/><circle cx="824" cy="208" r="14" transform="rotate(0,824,208)"/><path d="M 866 194v 28h 14a 14 14, 0, 0, 0, 0 -28" transform="rotate(90,880,208)"/><rect x="922" y="194" width="28" height="28" transform="rotate(0,936,208)"/><circle cx="404" cy="236" r="14" transform="rotate(0,404,236)"/><path d="M 446 222v 28h 14a 14 14, 0, 0, 0, 0 -28" transform="rotate(180,460,236)"/><rect x="474" y="222" width="28" height="28" transform="rotate(0,488,236)"/><path d="M 586 222v 28h 14a 14 14, 0, 0, 0, 0 -28" transform="rotate(90,600,236)"/><path d="M 670 222v 28h 14a 14 14, 0, 0, 0, 0 -28" transform="rotate(180,684,236)"/><path d="M 698 222v 28h 28v -14a 14 14, 0, 0, 0, -14 -14" transform="rotate(90,712,236)"/><path d="M 922 222v 28h 14a 14 14, 0, 0, 0, 0 -28" transform="rotate(90,936,236)"/><path d="M 54 250v 28h 28v -14a 14 14, 0, 0, 0, -14 -14" transform="rotate(-90,68,264)"/><rect x="82" y="250" width="28" height="28" transform="rotate(0,96,264)"/><rect x="110" y="250" width="28" height="28" transform="rotate(0,124,264)"/><rect x="138" y="250" width="28" height="28" transform="rotate(0,152,264)"/><rect x="166" y="250" width="28" height="28" transform="rotate(0,180,264)"/><rect x="194" y="250" width="28" height="28" transform="rotate(0,208,264)"/><path d="M 222 250v 28h 28v -14a 14 14, 0, 0, 0, -14 -14" transform="rotate(0,236,264)"/><path d="M 278 250v 28h 14a 14 14, 0, 0, 0, 0 -28" transform="rotate(-90,292,264)"/><path d="M 362 250v 28h 14a 14 14, 0, 0, 0, 0 -28" transform="rotate(-90,376,264)"/><rect x="474" y="250" width="28" height="28" transform="rotate(0,488,264)"/><path d="M 530 250v 28h 14a 14 14, 0, 0, 0, 0 -28" transform="rotate(180,544,264)"/><path d="M 558 250v 28h 14a 14 14, 0, 0, 0, 0 -28" transform="rotate(0,572,264)"/><path d="M 726 250v 28h 14a 14 14, 0, 0, 0, 0 -28" transform="rotate(180,740,264)"/><rect x="754" y="250" width="28" height="28" transform="rotate(0,768,264)"/><rect x="782" y="250" width="28" height="28" transform="rotate(0,796,264)"/><rect x="810" y="250" width="28" height="28" transform="rotate(0,824,264)"/><path d="M 838 250v 28h 14a 14 14, 0, 0, 0, 0 -28" transform="rotate(0,852,264)"/><path d="M 1006 250v 28h 28v -14a 14 14, 0, 0, 0, -14 -14" transform="rotate(-90,1020,264)"/><path d="M 1034 250v 28h 28v -14a 14 14, 0, 0, 0, -14 -14" transform="rotate(0,1048,264)"/><path d="M 1146 250v 28h 14a 14 14, 0, 0, 0, 0 -28" transform="rotate(-90,1160,264)"/><path d="M 26 278v 28h 14a 14 14, 0, 0, 0, 0 -28" transform="rotate(180,40,292)"/><path d="M 54 278v 28h 28v -14a 14 14, 0, 0, 0, -14 -14" transform="rotate(90,68,292)"/><rect x="110" y="278" width="28" height="28" transform="rotate(0,124,292)"/><path d="M 138 278v 28h 28v -14a 14 14, 0, 0, 0, -14 -14" transform="rotate(90,152,292)"/><rect x="222" y="278" width="28" height="28" transform="rotate(0,236,292)"/><rect x="250" y="278" width="28" height="28" transform="rotate(0,264,292)"/><rect x="278" y="278" width="28" height="28" transform="rotate(0,292,292)"/><rect x="362" y="278" width="28" height="28" transform="rotate(0,376,292)"/><path d="M 446 278v 28h 14a 14 14, 0, 0, 0, 0 -28" transform="rotate(180,460,292)"/><rect x="474" y="278" width="28" height="28" transform="rotate(0,488,292)"/><path d="M 502 278v 28h 28v -14a 14 14, 0, 0, 0, -14 -14" transform="rotate(0,516,292)"/><path d="M 586 278v 28h 14a 14 14, 0, 0, 0, 0 -28" transform="rotate(-90,600,292)"/><path d="M 642 278v 28h 14a 14 14, 0, 0, 0, 0 -28" transform="rotate(-90,656,292)"/><rect x="810" y="278" width="28" height="28" transform="rotate(0,824,292)"/><path d="M 894 278v 28h 14a 14 14, 0, 0, 0, 0 -28" transform="rotate(180,908,292)"/><path d="M 922 278v 28h 28v -14a 14 14, 0, 0, 0, -14 -14" transform="rotate(0,936,292)"/><path d="M 978 278v 28h 14a 14 14, 0, 0, 0, 0 -28" transform="rotate(180,992,292)"/><rect x="1006" y="278" width="28" height="28" transform="rotate(0,1020,292)"/><path d="M 1034 278v 28h 28v -14a 14 14, 0, 0, 0, -14 -14" transform="rotate(90,1048,292)"/><path d="M 1090 278v 28h 14a 14 14, 0, 0, 0, 0 -28" transform="rotate(180,1104,292)"/><rect x="1118" y="278" width="28" height="28" transform="rotate(0,1132,292)"/><path d="M 1146 278v 28h 28v -14a 14 14, 0, 0, 0, -14 -14" transform="rotate(90,1160,292)"/><rect x="110" y="306" width="28" height="28" transform="rotate(0,124,320)"/><path d="M 194 306v 28h 14a 14 14, 0, 0, 0, 0 -28" transform="rotate(180,208,320)"/><rect x="222" y="306" width="28" height="28" transform="rotate(0,236,320)"/><rect x="250" y="306" width="28" height="28" transform="rotate(0,264,320)"/><rect x="278" y="306" width="28" height="28" transform="rotate(0,292,320)"/><path d="M 306 306v 28h 28v -14a 14 14, 0, 0, 0, -14 -14" transform="rotate(0,320,320)"/><rect x="362" y="306" width="28" height="28" transform="rotate(0,376,320)"/><circle cx="432" cy="320" r="14" transform="rotate(0,432,320)"/><rect x="474" y="306" width="28" height="28" transform="rotate(0,488,320)"/><rect x="502" y="306" width="28" height="28" transform="rotate(0,516,320)"/><rect x="530" y="306" width="28" height="28" transform="rotate(0,544,320)"/><rect x="558" y="306" width="28" height="28" transform="rotate(0,572,320)"/><path d="M 586 306v 28h 28v -14a 14 14, 0, 0, 0, -14 -14" transform="rotate(90,600,320)"/><rect x="642" y="306" width="28" height="28" transform="rotate(0,656,320)"/><path d="M 698 306v 28h 14a 14 14, 0, 0, 0, 0 -28" transform="rotate(-90,712,320)"/><path d="M 754 306v 28h 14a 14 14, 0, 0, 0, 0 -28" transform="rotate(180,768,320)"/><rect x="782" y="306" width="28" height="28" transform="rotate(0,796,320)"/><rect x="810" y="306" width="28" height="28" transform="rotate(0,824,320)"/><rect x="838" y="306" width="28" height="28" transform="rotate(0,852,320)"/><path d="M 866 306v 28h 28v -14a 14 14, 0, 0, 0, -14 -14" transform="rotate(0,880,320)"/><rect x="922" y="306" width="28" height="28" transform="rotate(0,936,320)"/><rect x="1006" y="306" width="28" height="28" transform="rotate(0,1020,320)"/><path d="M 26 334v 28h 28v -14a 14 14, 0, 0, 0, -14 -14" transform="rotate(-90,40,348)"/><rect x="54" y="334" width="28" height="28" transform="rotate(0,68,348)"/><rect x="82" y="334" width="28" height="28" transform="rotate(0,96,348)"/><rect x="110" y="334" width="28" height="28" transform="rotate(0,124,348)"/><rect x="138" y="334" width="28" height="28" transform="rotate(0,152,348)"/><path d="M 166 334v 28h 28v -14a 14 14, 0, 0, 0, -14 -14" transform="rotate(0,180,348)"/><rect x="278" y="334" width="28" height="28" transform="rotate(0,292,348)"/><rect x="306" y="334" width="28" height="28" transform="rotate(0,320,348)"/><rect x="334" y="334" width="28" height="28" transform="rotate(0,348,348)"/><rect x="362" y="334" width="28" height="28" transform="rotate(0,376,348)"/><path d="M 390 334v 28h 28v -14a 14 14, 0, 0, 0, -14 -14" transform="rotate(0,404,348)"/><path d="M 446 334v 28h 28v -14a 14 14, 0, 0, 0, -14 -14" transform="rotate(-90,460,348)"/><path d="M 474 334v 28h 28v -14a 14 14, 0, 0, 0, -14 -14" transform="rotate(90,488,348)"/><rect x="530" y="334" width="28" height="28" transform="rotate(0,544,348)"/><rect x="642" y="334" width="28" height="28" transform="rotate(0,656,348)"/><rect x="670" y="334" width="28" height="28" transform="rotate(0,684,348)"/><rect x="698" y="334" width="28" height="28" transform="rotate(0,712,348)"/><rect x="782" y="334" width="28" height="28" transform="rotate(0,796,348)"/><rect x="810" y="334" width="28" height="28" transform="rotate(0,824,348)"/><path d="M 866 334v 28h 28v -14a 14 14, 0, 0, 0, -14 -14" transform="rotate(180,880,348)"/><rect x="894" y="334" width="28" height="28" transform="rotate(0,908,348)"/><path d="M 922 334v 28h 28v -14a 14 14, 0, 0, 0, -14 -14" transform="rotate(90,936,348)"/><path d="M 1006 334v 28h 28v -14a 14 14, 0, 0, 0, -14 -14" transform="rotate(180,1020,348)"/><rect x="1034" y="334" width="28" height="28" transform="rotate(0,1048,348)"/><path d="M 1062 334v 28h 28v -14a 14 14, 0, 0, 0, -14 -14" transform="rotate(0,1076,348)"/><path d="M 26 362v 28h 28v -14a 14 14, 0, 0, 0, -14 -14" transform="rotate(180,40,376)"/><rect x="54" y="362" width="28" height="28" transform="rotate(0,68,376)"/><path d="M 82 362v 28h 28v -14a 14 14, 0, 0, 0, -14 -14" transform="rotate(90,96,376)"/><path d="M 138 362v 28h 28v -14a 14 14, 0, 0, 0, -14 -14" transform="rotate(180,152,376)"/><rect x="166" y="362" width="28" height="28" transform="rotate(0,180,376)"/><rect x="194" y="362" width="28" height="28" transform="rotate(0,208,376)"/><rect x="222" y="362" width="28" height="28" transform="rotate(0,236,376)"/><rect x="250" y="362" width="28" height="28" transform="rotate(0,264,376)"/><path d="M 278 362v 28h 28v -14a 14 14, 0, 0, 0, -14 -14" transform="rotate(90,292,376)"/><rect x="390" y="362" width="28" height="28" transform="rotate(0,404,376)"/><rect x="418" y="362" width="28" height="28" transform="rotate(0,432,376)"/><rect x="446" y="362" width="28" height="28" transform="rotate(0,460,376)"/><path d="M 530 362v 28h 14a 14 14, 0, 0, 0, 0 -28" transform="rotate(90,544,376)"/><rect x="642" y="362" width="28" height="28" transform="rotate(0,656,376)"/><path d="M 698 362v 28h 28v -14a 14 14, 0, 0, 0, -14 -14" transform="rotate(180,712,376)"/><path d="M 726 362v 28h 28v -14a 14 14, 0, 0, 0, -14 -14" transform="rotate(0,740,376)"/><rect x="782" y="362" width="28" height="28" transform="rotate(0,796,376)"/><rect x="810" y="362" width="28" height="28" transform="rotate(0,824,376)"/><path d="M 838 362v 28h 28v -14a 14 14, 0, 0, 0, -14 -14" transform="rotate(0,852,376)"/><path d="M 894 362v 28h 14a 14 14, 0, 0, 0, 0 -28" transform="rotate(90,908,376)"/><path d="M 1062 362v 28h 28v -14a 14 14, 0, 0, 0, -14 -14" transform="rotate(180,1076,376)"/><path d="M 1090 362v 28h 14a 14 14, 0, 0, 0, 0 -28" transform="rotate(0,1104,376)"/><path d="M 1146 362v 28h 14a 14 14, 0, 0, 0, 0 -28" transform="rotate(-90,1160,376)"/><circle cx="124" cy="404" r="14" transform="rotate(0,124,404)"/><path d="M 362 390v 28h 14a 14 14, 0, 0, 0, 0 -28" transform="rotate(180,376,404)"/><rect x="390" y="390" width="28" height="28" transform="rotate(0,404,404)"/><rect x="418" y="390" width="28" height="28" transform="rotate(0,432,404)"/><rect x="446" y="390" width="28" height="28" transform="rotate(0,460,404)"/><path d="M 474 390v 28h 14a 14 14, 0, 0, 0, 0 -28" transform="rotate(0,488,404)"/><path d="M 586 390v 28h 28v -14a 14 14, 0, 0, 0, -14 -14" transform="rotate(-90,600,404)"/><rect x="614" y="390" width="28" height="28" transform="rotate(0,628,404)"/><rect x="642" y="390" width="28" height="28" transform="rotate(0,656,404)"/><path d="M 726 390v 28h 14a 14 14, 0, 0, 0, 0 -28" transform="rotate(90,740,404)"/><rect x="782" y="390" width="28" height="28" transform="rotate(0,796,404)"/><path d="M 838 390v 28h 14a 14 14, 0, 0, 0, 0 -28" transform="rotate(90,852,404)"/><circle cx="936" cy="404" r="14" transform="rotate(0,936,404)"/><path d="M 978 390v 28h 14a 14 14, 0, 0, 0, 0 -28" transform="rotate(180,992,404)"/><rect x="1006" y="390" width="28" height="28" transform="rotate(0,1020,404)"/><path d="M 1034 390v 28h 14a 14 14, 0, 0, 0, 0 -28" transform="rotate(0,1048,404)"/><path d="M 1118 390v 28h 14a 14 14, 0, 0, 0, 0 -28" transform="rotate(180,1132,404)"/><path d="M 1146 390v 28h 28v -14a 14 14, 0, 0, 0, -14 -14" transform="rotate(90,1160,404)"/><path d="M 54 418v 28h 14a 14 14, 0, 0, 0, 0 -28" transform="rotate(180,68,432)"/><path d="M 82 418v 28h 14a 14 14, 0, 0, 0, 0 -28" transform="rotate(0,96,432)"/><circle cx="208" cy="432" r="14" transform="rotate(0,208,432)"/><path d="M 278 418v 28h 14a 14 14, 0, 0, 0, 0 -28" transform="rotate(180,292,432)"/><rect x="306" y="418" width="28" height="28" transform="rotate(0,320,432)"/><path d="M 334 418v 28h 14a 14 14, 0, 0, 0, 0 -28" transform="rotate(0,348,432)"/><rect x="418" y="418" width="28" height="28" transform="rotate(0,432,432)"/><path d="M 530 418v 28h 14a 14 14, 0, 0, 0, 0 -28" transform="rotate(180,544,432)"/><rect x="558" y="418" width="28" height="28" transform="rotate(0,572,432)"/><rect x="586" y="418" width="28" height="28" transform="rotate(0,600,432)"/><rect x="642" y="418" width="28" height="28" transform="rotate(0,656,432)"/><rect x="670" y="418" width="28" height="28" transform="rotate(0,684,432)"/><path d="M 698 418v 28h 14a 14 14, 0, 0, 0, 0 -28" transform="rotate(0,712,432)"/><rect x="782" y="418" width="28" height="28" transform="rotate(0,796,432)"/><path d="M 810 418v 28h 14a 14 14, 0, 0, 0, 0 -28" transform="rotate(0,824,432)"/><path d="M 866 418v 28h 14a 14 14, 0, 0, 0, 0 -28" transform="rotate(180,880,432)"/><path d="M 894 418v 28h 28v -14a 14 14, 0, 0, 0, -14 -14" transform="rotate(0,908,432)"/><circle cx="964" cy="432" r="14" transform="rotate(0,964,432)"/><rect x="1006" y="418" width="28" height="28" transform="rotate(0,1020,432)"/><path d="M 1062 418v 28h 28v -14a 14 14, 0, 0, 0, -14 -14" transform="rotate(-90,1076,432)"/><path d="M 1090 418v 28h 14a 14 14, 0, 0, 0, 0 -28" transform="rotate(0,1104,432)"/><path d="M 26 446v 28h 14a 14 14, 0, 0, 0, 0 -28" transform="rotate(-90,40,460)"/><path d="M 110 446v 28h 14a 14 14, 0, 0, 0, 0 -28" transform="rotate(180,124,460)"/><rect x="138" y="446" width="28" height="28" transform="rotate(0,152,460)"/><path d="M 166 446v 28h 28v -14a 14 14, 0, 0, 0, -14 -14" transform="rotate(0,180,460)"/><path d="M 222 446v 28h 14a 14 14, 0, 0, 0, 0 -28" transform="rotate(180,236,460)"/><path d="M 250 446v 28h 28v -14a 14 14, 0, 0, 0, -14 -14" transform="rotate(0,264,460)"/><rect x="418" y="446" width="28" height="28" transform="rotate(0,432,460)"/><path d="M 474 446v 28h 14a 14 14, 0, 0, 0, 0 -28" transform="rotate(-90,488,460)"/><rect x="558" y="446" width="28" height="28" transform="rotate(0,572,460)"/><rect x="586" y="446" width="28" height="28" transform="rotate(0,600,460)"/><rect x="614" y="446" width="28" height="28" transform="rotate(0,628,460)"/><rect x="642" y="446" width="28" height="28" transform="rotate(0,656,460)"/><rect x="670" y="446" width="28" height="28" transform="rotate(0,684,460)"/><path d="M 754 446v 28h 28v -14a 14 14, 0, 0, 0, -14 -14" transform="rotate(-90,768,460)"/><rect x="782" y="446" width="28" height="28" transform="rotate(0,796,460)"/><rect x="894" y="446" width="28" height="28" transform="rotate(0,908,460)"/><path d="M 922 446v 28h 28v -14a 14 14, 0, 0, 0, -14 -14" transform="rotate(0,936,460)"/><path d="M 978 446v 28h 14a 14 14, 0, 0, 0, 0 -28" transform="rotate(180,992,460)"/><rect x="1006" y="446" width="28" height="28" transform="rotate(0,1020,460)"/><path d="M 1062 446v 28h 14a 14 14, 0, 0, 0, 0 -28" transform="rotate(90,1076,460)"/><path d="M 26 474v 28h 14a 14 14, 0, 0, 0, 0 -28" transform="rotate(90,40,488)"/><rect x="166" y="474" width="28" height="28" transform="rotate(0,180,488)"/><path d="M 194 474v 28h 14a 14 14, 0, 0, 0, 0 -28" transform="rotate(0,208,488)"/><rect x="250" y="474" width="28" height="28" transform="rotate(0,264,488)"/><circle cx="348" cy="488" r="14" transform="rotate(0,348,488)"/><path d="M 390 474v 28h 28v -14a 14 14, 0, 0, 0, -14 -14" transform="rotate(-90,404,488)"/><path d="M 418 474v 28h 28v -14a 14 14, 0, 0, 0, -14 -14" transform="rotate(90,432,488)"/><rect x="474" y="474" width="28" height="28" transform="rotate(0,488,488)"/><rect x="502" y="474" width="28" height="28" transform="rotate(0,516,488)"/><rect x="530" y="474" width="28" height="28" transform="rotate(0,544,488)"/><rect x="558" y="474" width="28" height="28" transform="rotate(0,572,488)"/><rect x="586" y="474" width="28" height="28" transform="rotate(0,600,488)"/><rect x="614" y="474" width="28" height="28" transform="rotate(0,628,488)"/><rect x="642" y="474" width="28" height="28" transform="rotate(0,656,488)"/><rect x="670" y="474" width="28" height="28" transform="rotate(0,684,488)"/><rect x="698" y="474" width="28" height="28" transform="rotate(0,712,488)"/><rect x="726" y="474" width="28" height="28" transform="rotate(0,740,488)"/><rect x="754" y="474" width="28" height="28" transform="rotate(0,768,488)"/><path d="M 782 474v 28h 28v -14a 14 14, 0, 0, 0, -14 -14" transform="rotate(90,796,488)"/><path d="M 838 474v 28h 14a 14 14, 0, 0, 0, 0 -28" transform="rotate(-90,852,488)"/><rect x="894" y="474" width="28" height="28" transform="rotate(0,908,488)"/><rect x="922" y="474" width="28" height="28" transform="rotate(0,936,488)"/><path d="M 950 474v 28h 14a 14 14, 0, 0, 0, 0 -28" transform="rotate(0,964,488)"/><rect x="1006" y="474" width="28" height="28" transform="rotate(0,1020,488)"/><path d="M 1090 474v 28h 28v -14a 14 14, 0, 0, 0, -14 -14" transform="rotate(-90,1104,488)"/><rect x="1118" y="474" width="28" height="28" transform="rotate(0,1132,488)"/><path d="M 1146 474v 28h 28v -14a 14 14, 0, 0, 0, -14 -14" transform="rotate(0,1160,488)"/><path d="M 54 502v 28h 14a 14 14, 0, 0, 0, 0 -28" transform="rotate(-90,68,516)"/><path d="M 110 502v 28h 14a 14 14, 0, 0, 0, 0 -28" transform="rotate(-90,124,516)"/><path d="M 166 502v 28h 14a 14 14, 0, 0, 0, 0 -28" transform="rotate(90,180,516)"/><path d="M 250 502v 28h 28v -14a 14 14, 0, 0, 0, -14 -14" transform="rotate(180,264,516)"/><rect x="278" y="502" width="28" height="28" transform="rotate(0,292,516)"/><path d="M 306 502v 28h 14a 14 14, 0, 0, 0, 0 -28" transform="rotate(0,320,516)"/><path d="M 390 502v 28h 14a 14 14, 0, 0, 0, 0 -28" transform="rotate(90,404,516)"/><rect x="474" y="502" width="28" height="28" transform="rotate(0,488,516)"/><path d="M 530 502v 28h 28v -14a 14 14, 0, 0, 0, -14 -14" transform="rotate(180,544,516)"/><rect x="558" y="502" width="28" height="28" transform="rotate(0,572,516)"/><rect x="614" y="502" width="28" height="28" transform="rotate(0,628,516)"/><path d="M 670 502v 28h 14a 14 14, 0, 0, 0, 0 -28" transform="rotate(90,684,516)"/><path d="M 810 502v 28h 14a 14 14, 0, 0, 0, 0 -28" transform="rotate(180,824,516)"/><rect x="838" y="502" width="28" height="28" transform="rotate(0,852,516)"/><rect x="866" y="502" width="28" height="28" transform="rotate(0,880,516)"/><rect x="894" y="502" width="28" height="28" transform="rotate(0,908,516)"/><rect x="922" y="502" width="28" height="28" transform="rotate(0,936,516)"/><path d="M 978 502v 28h 28v -14a 14 14, 0, 0, 0, -14 -14" transform="rotate(-90,992,516)"/><rect x="1006" y="502" width="28" height="28" transform="rotate(0,1020,516)"/><rect x="1034" y="502" width="28" height="28" transform="rotate(0,1048,516)"/><rect x="1062" y="502" width="28" height="28" transform="rotate(0,1076,516)"/><rect x="1090" y="502" width="28" height="28" transform="rotate(0,1104,516)"/><rect x="1118" y="502" width="28" height="28" transform="rotate(0,1132,516)"/><path d="M 1146 502v 28h 28v -14a 14 14, 0, 0, 0, -14 -14" transform="rotate(90,1160,516)"/><rect x="54" y="530" width="28" height="28" transform="rotate(0,68,544)"/><rect x="110" y="530" width="28" height="28" transform="rotate(0,124,544)"/><path d="M 194 530v 28h 14a 14 14, 0, 0, 0, 0 -28" transform="rotate(180,208,544)"/><path d="M 222 530v 28h 28v -14a 14 14, 0, 0, 0, -14 -14" transform="rotate(0,236,544)"/><rect x="278" y="530" width="28" height="28" transform="rotate(0,292,544)"/><circle cx="376" cy="544" r="14" transform="rotate(0,376,544)"/><path d="M 474 530v 28h 28v -14a 14 14, 0, 0, 0, -14 -14" transform="rotate(180,488,544)"/><path d="M 502 530v 28h 28v -14a 14 14, 0, 0, 0, -14 -14" transform="rotate(0,516,544)"/><path d="M 558 530v 28h 14a 14 14, 0, 0, 0, 0 -28" transform="rotate(90,572,544)"/><path d="M 614 530v 28h 14a 14 14, 0, 0, 0, 0 -28" transform="rotate(90,628,544)"/><path d="M 698 530v 28h 14a 14 14, 0, 0, 0, 0 -28" transform="rotate(-90,712,544)"/><path d="M 782 530v 28h 14a 14 14, 0, 0, 0, 0 -28" transform="rotate(-90,796,544)"/><rect x="838" y="530" width="28" height="28" transform="rotate(0,852,544)"/><rect x="922" y="530" width="28" height="28" transform="rotate(0,936,544)"/><rect x="950" y="530" width="28" height="28" transform="rotate(0,964,544)"/><path d="M 978 530v 28h 28v -14a 14 14, 0, 0, 0, -14 -14" transform="rotate(90,992,544)"/><rect x="1034" y="530" width="28" height="28" transform="rotate(0,1048,544)"/><path d="M 26 558v 28h 28v -14a 14 14, 0, 0, 0, -14 -14" transform="rotate(-90,40,572)"/><rect x="54" y="558" width="28" height="28" transform="rotate(0,68,572)"/><rect x="110" y="558" width="28" height="28" transform="rotate(0,124,572)"/><rect x="222" y="558" width="28" height="28" transform="rotate(0,236,572)"/><rect x="278" y="558" width="28" height="28" transform="rotate(0,292,572)"/><circle cx="404" cy="572" r="14" transform="rotate(0,404,572)"/><path d="M 502 558v 28h 14a 14 14, 0, 0, 0, 0 -28" transform="rotate(90,516,572)"/><path d="M 642 558v 28h 14a 14 14, 0, 0, 0, 0 -28" transform="rotate(180,656,572)"/><rect x="670" y="558" width="28" height="28" transform="rotate(0,684,572)"/><rect x="698" y="558" width="28" height="28" transform="rotate(0,712,572)"/><path d="M 754 558v 28h 14a 14 14, 0, 0, 0, 0 -28" transform="rotate(180,768,572)"/><rect x="782" y="558" width="28" height="28" transform="rotate(0,796,572)"/><rect x="810" y="558" width="28" height="28" transform="rotate(0,824,572)"/><rect x="838" y="558" width="28" height="28" transform="rotate(0,852,572)"/><path d="M 866 558v 28h 14a 14 14, 0, 0, 0, 0 -28" transform="rotate(0,880,572)"/><path d="M 922 558v 28h 14a 14 14, 0, 0, 0, 0 -28" transform="rotate(90,936,572)"/><path d="M 1034 558v 28h 28v -14a 14 14, 0, 0, 0, -14 -14" transform="rotate(180,1048,572)"/><path d="M 1062 558v 28h 28v -14a 14 14, 0, 0, 0, -14 -14" transform="rotate(0,1076,572)"/><path d="M 1118 558v 28h 14a 14 14, 0, 0, 0, 0 -28" transform="rotate(180,1132,572)"/><path d="M 1146 558v 28h 28v -14a 14 14, 0, 0, 0, -14 -14" transform="rotate(0,1160,572)"/><rect x="26" y="586" width="28" height="28" transform="rotate(0,40,600)"/><rect x="54" y="586" width="28" height="28" transform="rotate(0,68,600)"/><rect x="82" y="586" width="28" height="28" transform="rotate(0,96,600)"/><rect x="110" y="586" width="28" height="28" transform="rotate(0,124,600)"/><rect x="138" y="586" width="28" height="28" transform="rotate(0,152,600)"/><rect x="166" y="586" width="28" height="28" transform="rotate(0,180,600)"/><rect x="194" y="586" width="28" height="28" transform="rotate(0,208,600)"/><rect x="222" y="586" width="28" height="28" transform="rotate(0,236,600)"/><rect x="250" y="586" width="28" height="28" transform="rotate(0,264,600)"/><rect x="278" y="586" width="28" height="28" transform="rotate(0,292,600)"/><path d="M 306 586v 28h 28v -14a 14 14, 0, 0, 0, -14 -14" transform="rotate(0,320,600)"/><path d="M 362 586v 28h 14a 14 14, 0, 0, 0, 0 -28" transform="rotate(-90,376,600)"/><path d="M 418 586v 28h 14a 14 14, 0, 0, 0, 0 -28" transform="rotate(180,432,600)"/><path d="M 446 586v 28h 14a 14 14, 0, 0, 0, 0 -28" transform="rotate(0,460,600)"/><path d="M 530 586v 28h 14a 14 14, 0, 0, 0, 0 -28" transform="rotate(180,544,600)"/><rect x="558" y="586" width="28" height="28" transform="rotate(0,572,600)"/><path d="M 586 586v 28h 14a 14 14, 0, 0, 0, 0 -28" transform="rotate(0,600,600)"/><path d="M 698 586v 28h 14a 14 14, 0, 0, 0, 0 -28" transform="rotate(90,712,600)"/><rect x="810" y="586" width="28" height="28" transform="rotate(0,824,600)"/><path d="M 894 586v 28h 14a 14 14, 0, 0, 0, 0 -28" transform="rotate(-90,908,600)"/><path d="M 1006 586v 28h 14a 14 14, 0, 0, 0, 0 -28" transform="rotate(-90,1020,600)"/><rect x="1062" y="586" width="28" height="28" transform="rotate(0,1076,600)"/><path d="M 1090 586v 28h 14a 14 14, 0, 0, 0, 0 -28" transform="rotate(0,1104,600)"/><rect x="1146" y="586" width="28" height="28" transform="rotate(0,1160,600)"/><path d="M 26 614v 28h 28v -14a 14 14, 0, 0, 0, -14 -14" transform="rotate(180,40,628)"/><rect x="54" y="614" width="28" height="28" transform="rotate(0,68,628)"/><rect x="82" y="614" width="28" height="28" transform="rotate(0,96,628)"/><rect x="110" y="614" width="28" height="28" transform="rotate(0,124,628)"/><rect x="138" y="614" width="28" height="28" transform="rotate(0,152,628)"/><rect x="166" y="614" width="28" height="28" transform="rotate(0,180,628)"/><path d="M 222 614v 28h 28v -14a 14 14, 0, 0, 0, -14 -14" transform="rotate(180,236,628)"/><path d="M 250 614v 28h 28v -14a 14 14, 0, 0, 0, -14 -14" transform="rotate(90,264,628)"/><rect x="306" y="614" width="28" height="28" transform="rotate(0,320,628)"/><rect x="362" y="614" width="28" height="28" transform="rotate(0,376,628)"/><path d="M 390 614v 28h 28v -14a 14 14, 0, 0, 0, -14 -14" transform="rotate(0,404,628)"/><path d="M 614 614v 28h 28v -14a 14 14, 0, 0, 0, -14 -14" transform="rotate(-90,628,628)"/><rect x="642" y="614" width="28" height="28" transform="rotate(0,656,628)"/><path d="M 670 614v 28h 14a 14 14, 0, 0, 0, 0 -28" transform="rotate(0,684,628)"/><path d="M 754 614v 28h 14a 14 14, 0, 0, 0, 0 -28" transform="rotate(-90,768,628)"/><rect x="810" y="614" width="28" height="28" transform="rotate(0,824,628)"/><path d="M 866 614v 28h 14a 14 14, 0, 0, 0, 0 -28" transform="rotate(180,880,628)"/><rect x="894" y="614" width="28" height="28" transform="rotate(0,908,628)"/><rect x="922" y="614" width="28" height="28" transform="rotate(0,936,628)"/><rect x="950" y="614" width="28" height="28" transform="rotate(0,964,628)"/><rect x="978" y="614" width="28" height="28" transform="rotate(0,992,628)"/><rect x="1006" y="614" width="28" height="28" transform="rotate(0,1020,628)"/><rect x="1034" y="614" width="28" height="28" transform="rotate(0,1048,628)"/><path d="M 1062 614v 28h 28v -14a 14 14, 0, 0, 0, -14 -14" transform="rotate(90,1076,628)"/><path d="M 1118 614v 28h 14a 14 14, 0, 0, 0, 0 -28" transform="rotate(180,1132,628)"/><path d="M 1146 614v 28h 28v -14a 14 14, 0, 0, 0, -14 -14" transform="rotate(90,1160,628)"/><path d="M 54 642v 28h 14a 14 14, 0, 0, 0, 0 -28" transform="rotate(90,68,656)"/><path d="M 138 642v 28h 28v -14a 14 14, 0, 0, 0, -14 -14" transform="rotate(180,152,656)"/><rect x="166" y="642" width="28" height="28" transform="rotate(0,180,656)"/><path d="M 194 642v 28h 14a 14 14, 0, 0, 0, 0 -28" transform="rotate(0,208,656)"/><path d="M 278 642v 28h 14a 14 14, 0, 0, 0, 0 -28" transform="rotate(180,292,656)"/><rect x="306" y="642" width="28" height="28" transform="rotate(0,320,656)"/><rect x="334" y="642" width="28" height="28" transform="rotate(0,348,656)"/><rect x="362" y="642" width="28" height="28" transform="rotate(0,376,656)"/><rect x="390" y="642" width="28" height="28" transform="rotate(0,404,656)"/><rect x="418" y="642" width="28" height="28" transform="rotate(0,432,656)"/><path d="M 446 642v 28h 14a 14 14, 0, 0, 0, 0 -28" transform="rotate(0,460,656)"/><path d="M 530 642v 28h 14a 14 14, 0, 0, 0, 0 -28" transform="rotate(-90,544,656)"/><path d="M 586 642v 28h 28v -14a 14 14, 0, 0, 0, -14 -14" transform="rotate(-90,600,656)"/><rect x="614" y="642" width="28" height="28" transform="rotate(0,628,656)"/><rect x="754" y="642" width="28" height="28" transform="rotate(0,768,656)"/><rect x="782" y="642" width="28" height="28" transform="rotate(0,796,656)"/><path d="M 810 642v 28h 28v -14a 14 14, 0, 0, 0, -14 -14" transform="rotate(90,824,656)"/><path d="M 922 642v 28h 14a 14 14, 0, 0, 0, 0 -28" transform="rotate(90,936,656)"/><path d="M 1034 642v 28h 14a 14 14, 0, 0, 0, 0 -28" transform="rotate(90,1048,656)"/><path d="M 26 670v 28h 14a 14 14, 0, 0, 0, 0 -28" transform="rotate(-90,40,684)"/><circle cx="236" cy="684" r="14" transform="rotate(0,236,684)"/><path d="M 334 670v 28h 28v -14a 14 14, 0, 0, 0, -14 -14" transform="rotate(180,348,684)"/><rect x="362" y="670" width="28" height="28" transform="rotate(0,376,684)"/><path d="M 502 670v 28h 28v -14a 14 14, 0, 0, 0, -14 -14" transform="rotate(-90,516,684)"/><rect x="530" y="670" width="28" height="28" transform="rotate(0,544,684)"/><rect x="558" y="670" width="28" height="28" transform="rotate(0,572,684)"/><rect x="586" y="670" width="28" height="28" transform="rotate(0,600,684)"/><path d="M 614 670v 28h 28v -14a 14 14, 0, 0, 0, -14 -14" transform="rotate(90,628,684)"/><circle cx="712" cy="684" r="14" transform="rotate(0,712,684)"/><rect x="754" y="670" width="28" height="28" transform="rotate(0,768,684)"/><rect x="782" y="670" width="28" height="28" transform="rotate(0,796,684)"/><circle cx="908" cy="684" r="14" transform="rotate(0,908,684)"/><circle cx="1020" cy="684" r="14" transform="rotate(0,1020,684)"/><circle cx="1076" cy="684" r="14" transform="rotate(0,1076,684)"/><path d="M 1146 670v 28h 14a 14 14, 0, 0, 0, 0 -28" transform="rotate(-90,1160,684)"/><path d="M 26 698v 28h 28v -14a 14 14, 0, 0, 0, -14 -14" transform="rotate(180,40,712)"/><rect x="54" y="698" width="28" height="28" transform="rotate(0,68,712)"/><rect x="82" y="698" width="28" height="28" transform="rotate(0,96,712)"/><rect x="110" y="698" width="28" height="28" transform="rotate(0,124,712)"/><rect x="138" y="698" width="28" height="28" transform="rotate(0,152,712)"/><rect x="166" y="698" width="28" height="28" transform="rotate(0,180,712)"/><path d="M 194 698v 28h 14a 14 14, 0, 0, 0, 0 -28" transform="rotate(0,208,712)"/><path d="M 278 698v 28h 14a 14 14, 0, 0, 0, 0 -28" transform="rotate(180,292,712)"/><path d="M 306 698v 28h 28v -14a 14 14, 0, 0, 0, -14 -14" transform="rotate(0,320,712)"/><path d="M 362 698v 28h 28v -14a 14 14, 0, 0, 0, -14 -14" transform="rotate(180,376,712)"/><path d="M 390 698v 28h 28v -14a 14 14, 0, 0, 0, -14 -14" transform="rotate(0,404,712)"/><circle cx="460" cy="712" r="14" transform="rotate(0,460,712)"/><rect x="502" y="698" width="28" height="28" transform="rotate(0,516,712)"/><path d="M 642 698v 28h 14a 14 14, 0, 0, 0, 0 -28" transform="rotate(-90,656,712)"/><path d="M 726 698v 28h 28v -14a 14 14, 0, 0, 0, -14 -14" transform="rotate(-90,740,712)"/><rect x="754" y="698" width="28" height="28" transform="rotate(0,768,712)"/><rect x="782" y="698" width="28" height="28" transform="rotate(0,796,712)"/><rect x="810" y="698" width="28" height="28" transform="rotate(0,824,712)"/><path d="M 838 698v 28h 14a 14 14, 0, 0, 0, 0 -28" transform="rotate(0,852,712)"/><circle cx="1104" cy="712" r="14" transform="rotate(0,1104,712)"/><rect x="1146" y="698" width="28" height="28" transform="rotate(0,1160,712)"/><rect x="54" y="726" width="28" height="28" transform="rotate(0,68,740)"/><rect x="138" y="726" width="28" height="28" transform="rotate(0,152,740)"/><path d="M 222 726v 28h 28v -14a 14 14, 0, 0, 0, -14 -14" transform="rotate(-90,236,740)"/><path d="M 250 726v 28h 28v -14a 14 14, 0, 0, 0, -14 -14" transform="rotate(0,264,740)"/><rect x="306" y="726" width="28" height="28" transform="rotate(0,320,740)"/><path d="M 390 726v 28h 14a 14 14, 0, 0, 0, 0 -28" transform="rotate(90,404,740)"/><path d="M 502 726v 28h 28v -14a 14 14, 0, 0, 0, -14 -14" transform="rotate(180,516,740)"/><rect x="530" y="726" width="28" height="28" transform="rotate(0,544,740)"/><path d="M 558 726v 28h 14a 14 14, 0, 0, 0, 0 -28" transform="rotate(0,572,740)"/><path d="M 614 726v 28h 14a 14 14, 0, 0, 0, 0 -28" transform="rotate(180,628,740)"/><rect x="642" y="726" width="28" height="28" transform="rotate(0,656,740)"/><path d="M 670 726v 28h 14a 14 14, 0, 0, 0, 0 -28" transform="rotate(0,684,740)"/><path d="M 726 726v 28h 14a 14 14, 0, 0, 0, 0 -28" transform="rotate(90,740,740)"/><path d="M 810 726v 28h 14a 14 14, 0, 0, 0, 0 -28" transform="rotate(90,824,740)"/><path d="M 866 726v 28h 14a 14 14, 0, 0, 0, 0 -28" transform="rotate(180,880,740)"/><path d="M 894 726v 28h 14a 14 14, 0, 0, 0, 0 -28" transform="rotate(0,908,740)"/><path d="M 978 726v 28h 28v -14a 14 14, 0, 0, 0, -14 -14" transform="rotate(-90,992,740)"/><rect x="1006" y="726" width="28" height="28" transform="rotate(0,1020,740)"/><rect x="1034" y="726" width="28" height="28" transform="rotate(0,1048,740)"/><path d="M 1062 726v 28h 14a 14 14, 0, 0, 0, 0 -28" transform="rotate(0,1076,740)"/><path d="M 1118 726v 28h 28v -14a 14 14, 0, 0, 0, -14 -14" transform="rotate(-90,1132,740)"/><path d="M 1146 726v 28h 28v -14a 14 14, 0, 0, 0, -14 -14" transform="rotate(90,1160,740)"/><path d="M 26 754v 28h 28v -14a 14 14, 0, 0, 0, -14 -14" transform="rotate(-90,40,768)"/><rect x="54" y="754" width="28" height="28" transform="rotate(0,68,768)"/><path d="M 82 754v 28h 28v -14a 14 14, 0, 0, 0, -14 -14" transform="rotate(0,96,768)"/><rect x="138" y="754" width="28" height="28" transform="rotate(0,152,768)"/><path d="M 194 754v 28h 14a 14 14, 0, 0, 0, 0 -28" transform="rotate(180,208,768)"/><rect x="222" y="754" width="28" height="28" transform="rotate(0,236,768)"/><rect x="250" y="754" width="28" height="28" transform="rotate(0,264,768)"/><path d="M 306 754v 28h 14a 14 14, 0, 0, 0, 0 -28" transform="rotate(90,320,768)"/><path d="M 418 754v 28h 14a 14 14, 0, 0, 0, 0 -28" transform="rotate(-90,432,768)"/><path d="M 530 754v 28h 14a 14 14, 0, 0, 0, 0 -28" transform="rotate(90,544,768)"/><path d="M 642 754v 28h 14a 14 14, 0, 0, 0, 0 -28" transform="rotate(90,656,768)"/><circle cx="712" cy="768" r="14" transform="rotate(0,712,768)"/><path d="M 754 754v 28h 28v -14a 14 14, 0, 0, 0, -14 -14" transform="rotate(-90,768,768)"/><path d="M 782 754v 28h 28v -14a 14 14, 0, 0, 0, -14 -14" transform="rotate(0,796,768)"/><path d="M 922 754v 28h 28v -14a 14 14, 0, 0, 0, -14 -14" transform="rotate(-90,936,768)"/><rect x="950" y="754" width="28" height="28" transform="rotate(0,964,768)"/><rect x="978" y="754" width="28" height="28" transform="rotate(0,992,768)"/><rect x="1006" y="754" width="28" height="28" transform="rotate(0,1020,768)"/><path d="M 1034 754v 28h 28v -14a 14 14, 0, 0, 0, -14 -14" transform="rotate(90,1048,768)"/><path d="M 1118 754v 28h 14a 14 14, 0, 0, 0, 0 -28" transform="rotate(90,1132,768)"/><rect x="26" y="782" width="28" height="28" transform="rotate(0,40,796)"/><rect x="54" y="782" width="28" height="28" transform="rotate(0,68,796)"/><path d="M 82 782v 28h 28v -14a 14 14, 0, 0, 0, -14 -14" transform="rotate(90,96,796)"/><path d="M 138 782v 28h 14a 14 14, 0, 0, 0, 0 -28" transform="rotate(90,152,796)"/><path d="M 250 782v 28h 14a 14 14, 0, 0, 0, 0 -28" transform="rotate(90,264,796)"/><path d="M 390 782v 28h 28v -14a 14 14, 0, 0, 0, -14 -14" transform="rotate(-90,404,796)"/><rect x="418" y="782" width="28" height="28" transform="rotate(0,432,796)"/><rect x="446" y="782" width="28" height="28" transform="rotate(0,460,796)"/><path d="M 474 782v 28h 28v -14a 14 14, 0, 0, 0, -14 -14" transform="rotate(0,488,796)"/><rect x="754" y="782" width="28" height="28" transform="rotate(0,768,796)"/><rect x="782" y="782" width="28" height="28" transform="rotate(0,796,796)"/><path d="M 810 782v 28h 14a 14 14, 0, 0, 0, 0 -28" transform="rotate(0,824,796)"/><path d="M 866 782v 28h 14a 14 14, 0, 0, 0, 0 -28" transform="rotate(180,880,796)"/><rect x="894" y="782" width="28" height="28" transform="rotate(0,908,796)"/><rect x="922" y="782" width="28" height="28" transform="rotate(0,936,796)"/><path d="M 950 782v 28h 28v -14a 14 14, 0, 0, 0, -14 -14" transform="rotate(90,964,796)"/><path d="M 1006 782v 28h 14a 14 14, 0, 0, 0, 0 -28" transform="rotate(90,1020,796)"/><path d="M 1062 782v 28h 14a 14 14, 0, 0, 0, 0 -28" transform="rotate(-90,1076,796)"/><rect x="26" y="810" width="28" height="28" transform="rotate(0,40,824)"/><circle cx="124" cy="824" r="14" transform="rotate(0,124,824)"/><path d="M 166 810v 28h 28v -14a 14 14, 0, 0, 0, -14 -14" transform="rotate(-90,180,824)"/><rect x="194" y="810" width="28" height="28" transform="rotate(0,208,824)"/><path d="M 222 810v 28h 28v -14a 14 14, 0, 0, 0, -14 -14" transform="rotate(0,236,824)"/><path d="M 334 810v 28h 28v -14a 14 14, 0, 0, 0, -14 -14" transform="rotate(-90,348,824)"/><rect x="362" y="810" width="28" height="28" transform="rotate(0,376,824)"/><rect x="390" y="810" width="28" height="28" transform="rotate(0,404,824)"/><rect x="418" y="810" width="28" height="28" transform="rotate(0,432,824)"/><path d="M 474 810v 28h 14a 14 14, 0, 0, 0, 0 -28" transform="rotate(90,488,824)"/><circle cx="600" cy="824" r="14" transform="rotate(0,600,824)"/><path d="M 642 810v 28h 14a 14 14, 0, 0, 0, 0 -28" transform="rotate(180,656,824)"/><path d="M 670 810v 28h 14a 14 14, 0, 0, 0, 0 -28" transform="rotate(0,684,824)"/><path d="M 726 810v 28h 14a 14 14, 0, 0, 0, 0 -28" transform="rotate(180,740,824)"/><rect x="754" y="810" width="28" height="28" transform="rotate(0,768,824)"/><rect x="782" y="810" width="28" height="28" transform="rotate(0,796,824)"/><path d="M 838 810v 28h 14a 14 14, 0, 0, 0, 0 -28" transform="rotate(-90,852,824)"/><path d="M 894 810v 28h 14a 14 14, 0, 0, 0, 0 -28" transform="rotate(90,908,824)"/><rect x="1062" y="810" width="28" height="28" transform="rotate(0,1076,824)"/><path d="M 1090 810v 28h 28v -14a 14 14, 0, 0, 0, -14 -14" transform="rotate(0,1104,824)"/><rect x="26" y="838" width="28" height="28" transform="rotate(0,40,852)"/><circle cx="96" cy="852" r="14" transform="rotate(0,96,852)"/><path d="M 166 838v 28h 14a 14 14, 0, 0, 0, 0 -28" transform="rotate(90,180,852)"/><path d="M 222 838v 28h 14a 14 14, 0, 0, 0, 0 -28" transform="rotate(90,236,852)"/><path d="M 278 838v 28h 14a 14 14, 0, 0, 0, 0 -28" transform="rotate(180,292,852)"/><rect x="306" y="838" width="28" height="28" transform="rotate(0,320,852)"/><rect x="334" y="838" width="28" height="28" transform="rotate(0,348,852)"/><rect x="362" y="838" width="28" height="28" transform="rotate(0,376,852)"/><path d="M 418 838v 28h 14a 14 14, 0, 0, 0, 0 -28" transform="rotate(90,432,852)"/><path d="M 530 838v 28h 14a 14 14, 0, 0, 0, 0 -28" transform="rotate(180,544,852)"/><path d="M 558 838v 28h 28v -14a 14 14, 0, 0, 0, -14 -14" transform="rotate(0,572,852)"/><circle cx="712" cy="852" r="14" transform="rotate(0,712,852)"/><path d="M 782 838v 28h 28v -14a 14 14, 0, 0, 0, -14 -14" transform="rotate(180,796,852)"/><rect x="810" y="838" width="28" height="28" transform="rotate(0,824,852)"/><rect x="838" y="838" width="28" height="28" transform="rotate(0,852,852)"/><path d="M 866 838v 28h 14a 14 14, 0, 0, 0, 0 -28" transform="rotate(0,880,852)"/><path d="M 950 838v 28h 28v -14a 14 14, 0, 0, 0, -14 -14" transform="rotate(-90,964,852)"/><path d="M 978 838v 28h 28v -14a 14 14, 0, 0, 0, -14 -14" transform="rotate(0,992,852)"/><path d="M 1034 838v 28h 28v -14a 14 14, 0, 0, 0, -14 -14" transform="rotate(-90,1048,852)"/><rect x="1062" y="838" width="28" height="28" transform="rotate(0,1076,852)"/><rect x="1090" y="838" width="28" height="28" transform="rotate(0,1104,852)"/><rect x="1118" y="838" width="28" height="28" transform="rotate(0,1132,852)"/><path d="M 1146 838v 28h 14a 14 14, 0, 0, 0, 0 -28" transform="rotate(0,1160,852)"/><rect x="26" y="866" width="28" height="28" transform="rotate(0,40,880)"/><circle cx="208" cy="880" r="14" transform="rotate(0,208,880)"/><path d="M 362 866v 28h 14a 14 14, 0, 0, 0, 0 -28" transform="rotate(90,376,880)"/><circle cx="516" cy="880" r="14" transform="rotate(0,516,880)"/><path d="M 558 866v 28h 14a 14 14, 0, 0, 0, 0 -28" transform="rotate(90,572,880)"/><path d="M 614 866v 28h 28v -14a 14 14, 0, 0, 0, -14 -14" transform="rotate(-90,628,880)"/><path d="M 642 866v 28h 14a 14 14, 0, 0, 0, 0 -28" transform="rotate(0,656,880)"/><path d="M 726 866v 28h 14a 14 14, 0, 0, 0, 0 -28" transform="rotate(180,740,880)"/><path d="M 754 866v 28h 28v -14a 14 14, 0, 0, 0, -14 -14" transform="rotate(0,768,880)"/><path d="M 838 866v 28h 14a 14 14, 0, 0, 0, 0 -28" transform="rotate(90,852,880)"/><path d="M 922 866v 28h 28v -14a 14 14, 0, 0, 0, -14 -14" transform="rotate(-90,936,880)"/><rect x="950" y="866" width="28" height="28" transform="rotate(0,964,880)"/><rect x="978" y="866" width="28" height="28" transform="rotate(0,992,880)"/><rect x="1006" y="866" width="28" height="28" transform="rotate(0,1020,880)"/><rect x="1034" y="866" width="28" height="28" transform="rotate(0,1048,880)"/><rect x="1062" y="866" width="28" height="28" transform="rotate(0,1076,880)"/><path d="M 1090 866v 28h 28v -14a 14 14, 0, 0, 0, -14 -14" transform="rotate(90,1104,880)"/><rect x="26" y="894" width="28" height="28" transform="rotate(0,40,908)"/><path d="M 82 894v 28h 14a 14 14, 0, 0, 0, 0 -28" transform="rotate(-90,96,908)"/><path d="M 138 894v 28h 28v -14a 14 14, 0, 0, 0, -14 -14" transform="rotate(-90,152,908)"/><path d="M 166 894v 28h 14a 14 14, 0, 0, 0, 0 -28" transform="rotate(0,180,908)"/><path d="M 222 894v 28h 14a 14 14, 0, 0, 0, 0 -28" transform="rotate(180,236,908)"/><path d="M 250 894v 28h 14a 14 14, 0, 0, 0, 0 -28" transform="rotate(0,264,908)"/><path d="M 306 894v 28h 28v -14a 14 14, 0, 0, 0, -14 -14" transform="rotate(-90,320,908)"/><path d="M 334 894v 28h 14a 14 14, 0, 0, 0, 0 -28" transform="rotate(0,348,908)"/><path d="M 390 894v 28h 28v -14a 14 14, 0, 0, 0, -14 -14" transform="rotate(-90,404,908)"/><path d="M 418 894v 28h 28v -14a 14 14, 0, 0, 0, -14 -14" transform="rotate(0,432,908)"/><circle cx="488" cy="908" r="14" transform="rotate(0,488,908)"/><rect x="614" y="894" width="28" height="28" transform="rotate(0,628,908)"/><circle cx="712" cy="908" r="14" transform="rotate(0,712,908)"/><rect x="754" y="894" width="28" height="28" transform="rotate(0,768,908)"/><circle cx="824" cy="908" r="14" transform="rotate(0,824,908)"/><circle cx="880" cy="908" r="14" transform="rotate(0,880,908)"/><rect x="922" y="894" width="28" height="28" transform="rotate(0,936,908)"/><rect x="950" y="894" width="28" height="28" transform="rotate(0,964,908)"/><rect x="978" y="894" width="28" height="28" transform="rotate(0,992,908)"/><rect x="1006" y="894" width="28" height="28" transform="rotate(0,1020,908)"/><path d="M 1062 894v 28h 14a 14 14, 0, 0, 0, 0 -28" transform="rotate(90,1076,908)"/><path d="M 26 922v 28h 14a 14 14, 0, 0, 0, 0 -28" transform="rotate(90,40,936)"/><path d="M 82 922v 28h 14a 14 14, 0, 0, 0, 0 -28" transform="rotate(90,96,936)"/><path d="M 138 922v 28h 14a 14 14, 0, 0, 0, 0 -28" transform="rotate(90,152,936)"/><circle cx="208" cy="936" r="14" transform="rotate(0,208,936)"/><path d="M 306 922v 28h 14a 14 14, 0, 0, 0, 0 -28" transform="rotate(90,320,936)"/><path d="M 362 922v 28h 28v -14a 14 14, 0, 0, 0, -14 -14" transform="rotate(-90,376,936)"/><rect x="390" y="922" width="28" height="28" transform="rotate(0,404,936)"/><rect x="418" y="922" width="28" height="28" transform="rotate(0,432,936)"/><path d="M 502 922v 28h 14a 14 14, 0, 0, 0, 0 -28" transform="rotate(-90,516,936)"/><path d="M 586 922v 28h 14a 14 14, 0, 0, 0, 0 -28" transform="rotate(180,600,936)"/><rect x="614" y="922" width="28" height="28" transform="rotate(0,628,936)"/><path d="M 642 922v 28h 14a 14 14, 0, 0, 0, 0 -28" transform="rotate(0,656,936)"/><path d="M 726 922v 28h 28v -14a 14 14, 0, 0, 0, -14 -14" transform="rotate(-90,740,936)"/><rect x="754" y="922" width="28" height="28" transform="rotate(0,768,936)"/><circle cx="852" cy="936" r="14" transform="rotate(0,852,936)"/><rect x="922" y="922" width="28" height="28" transform="rotate(0,936,936)"/><rect x="950" y="922" width="28" height="28" transform="rotate(0,964,936)"/><rect x="978" y="922" width="28" height="28" transform="rotate(0,992,936)"/><rect x="1006" y="922" width="28" height="28" transform="rotate(0,1020,936)"/><path d="M 1034 922v 28h 28v -14a 14 14, 0, 0, 0, -14 -14" transform="rotate(0,1048,936)"/><path d="M 1090 922v 28h 14a 14 14, 0, 0, 0, 0 -28" transform="rotate(-90,1104,936)"/><path d="M 1146 922v 28h 14a 14 14, 0, 0, 0, 0 -28" transform="rotate(-90,1160,936)"/><path d="M 250 950v 28h 14a 14 14, 0, 0, 0, 0 -28" transform="rotate(-90,264,964)"/><rect x="362" y="950" width="28" height="28" transform="rotate(0,376,964)"/><rect x="418" y="950" width="28" height="28" transform="rotate(0,432,964)"/><rect x="446" y="950" width="28" height="28" transform="rotate(0,460,964)"/><rect x="474" y="950" width="28" height="28" transform="rotate(0,488,964)"/><rect x="502" y="950" width="28" height="28" transform="rotate(0,516,964)"/><rect x="530" y="950" width="28" height="28" transform="rotate(0,544,964)"/><path d="M 558 950v 28h 14a 14 14, 0, 0, 0, 0 -28" transform="rotate(0,572,964)"/><path d="M 614 950v 28h 14a 14 14, 0, 0, 0, 0 -28" transform="rotate(90,628,964)"/><circle cx="684" cy="964" r="14" transform="rotate(0,684,964)"/><rect x="726" y="950" width="28" height="28" transform="rotate(0,740,964)"/><rect x="754" y="950" width="28" height="28" transform="rotate(0,768,964)"/><path d="M 810 950v 28h 14a 14 14, 0, 0, 0, 0 -28" transform="rotate(-90,824,964)"/><rect x="922" y="950" width="28" height="28" transform="rotate(0,936,964)"/><rect x="1034" y="950" width="28" height="28" transform="rotate(0,1048,964)"/><path d="M 1090 950v 28h 28v -14a 14 14, 0, 0, 0, -14 -14" transform="rotate(180,1104,964)"/><rect x="1118" y="950" width="28" height="28" transform="rotate(0,1132,964)"/><path d="M 1146 950v 28h 28v -14a 14 14, 0, 0, 0, -14 -14" transform="rotate(90,1160,964)"/><rect x="250" y="978" width="28" height="28" transform="rotate(0,264,992)"/><path d="M 306 978v 28h 28v -14a 14 14, 0, 0, 0, -14 -14" transform="rotate(-90,320,992)"/><rect x="334" y="978" width="28" height="28" transform="rotate(0,348,992)"/><rect x="362" y="978" width="28" height="28" transform="rotate(0,376,992)"/><rect x="390" y="978" width="28" height="28" transform="rotate(0,404,992)"/><path d="M 418 978v 28h 28v -14a 14 14, 0, 0, 0, -14 -14" transform="rotate(90,432,992)"/><path d="M 474 978v 28h 14a 14 14, 0, 0, 0, 0 -28" transform="rotate(90,488,992)"/><circle cx="656" cy="992" r="14" transform="rotate(0,656,992)"/><rect x="726" y="978" width="28" height="28" transform="rotate(0,740,992)"/><rect x="754" y="978" width="28" height="28" transform="rotate(0,768,992)"/><rect x="782" y="978" width="28" height="28" transform="rotate(0,796,992)"/><path d="M 810 978v 28h 28v -14a 14 14, 0, 0, 0, -14 -14" transform="rotate(90,824,992)"/><path d="M 866 978v 28h 14a 14 14, 0, 0, 0, 0 -28" transform="rotate(180,880,992)"/><rect x="894" y="978" width="28" height="28" transform="rotate(0,908,992)"/><rect x="922" y="978" width="28" height="28" transform="rotate(0,936,992)"/><circle cx="992" cy="992" r="14" transform="rotate(0,992,992)"/><rect x="1034" y="978" width="28" height="28" transform="rotate(0,1048,992)"/><path d="M 1062 978v 28h 14a 14 14, 0, 0, 0, 0 -28" transform="rotate(0,1076,992)"/><path d="M 1118 978v 28h 14a 14 14, 0, 0, 0, 0 -28" transform="rotate(90,1132,992)"/><rect x="250" y="1006" width="28" height="28" transform="rotate(0,264,1020)"/><rect x="306" y="1006" width="28" height="28" transform="rotate(0,320,1020)"/><rect x="334" y="1006" width="28" height="28" transform="rotate(0,348,1020)"/><rect x="362" y="1006" width="28" height="28" transform="rotate(0,376,1020)"/><path d="M 530 1006v 28h 14a 14 14, 0, 0, 0, 0 -28" transform="rotate(180,544,1020)"/><path d="M 558 1006v 28h 28v -14a 14 14, 0, 0, 0, -14 -14" transform="rotate(0,572,1020)"/><path d="M 726 1006v 28h 14a 14 14, 0, 0, 0, 0 -28" transform="rotate(90,740,1020)"/><path d="M 782 1006v 28h 14a 14 14, 0, 0, 0, 0 -28" transform="rotate(90,796,1020)"/><rect x="922" y="1006" width="28" height="28" transform="rotate(0,936,1020)"/><rect x="1034" y="1006" width="28" height="28" transform="rotate(0,1048,1020)"/><rect x="250" y="1034" width="28" height="28" transform="rotate(0,264,1048)"/><path d="M 306 1034v 28h 28v -14a 14 14, 0, 0, 0, -14 -14" transform="rotate(180,320,1048)"/><rect x="334" y="1034" width="28" height="28" transform="rotate(0,348,1048)"/><path d="M 362 1034v 28h 28v -14a 14 14, 0, 0, 0, -14 -14" transform="rotate(90,376,1048)"/><path d="M 418 1034v 28h 28v -14a 14 14, 0, 0, 0, -14 -14" transform="rotate(-90,432,1048)"/><rect x="446" y="1034" width="28" height="28" transform="rotate(0,460,1048)"/><path d="M 474 1034v 28h 14a 14 14, 0, 0, 0, 0 -28" transform="rotate(0,488,1048)"/><rect x="558" y="1034" width="28" height="28" transform="rotate(0,572,1048)"/><path d="M 586 1034v 28h 14a 14 14, 0, 0, 0, 0 -28" transform="rotate(0,600,1048)"/><path d="M 642 1034v 28h 14a 14 14, 0, 0, 0, 0 -28" transform="rotate(-90,656,1048)"/><circle cx="712" cy="1048" r="14" transform="rotate(0,712,1048)"/><circle cx="768" cy="1048" r="14" transform="rotate(0,768,1048)"/><circle cx="880" cy="1048" r="14" transform="rotate(0,880,1048)"/><path d="M 922 1034v 28h 28v -14a 14 14, 0, 0, 0, -14 -14" transform="rotate(180,936,1048)"/><rect x="950" y="1034" width="28" height="28" transform="rotate(0,964,1048)"/><rect x="978" y="1034" width="28" height="28" transform="rotate(0,992,1048)"/><rect x="1006" y="1034" width="28" height="28" transform="rotate(0,1020,1048)"/><path d="M 1034 1034v 28h 28v -14a 14 14, 0, 0, 0, -14 -14" transform="rotate(90,1048,1048)"/><path d="M 1090 1034v 28h 14a 14 14, 0, 0, 0, 0 -28" transform="rotate(180,1104,1048)"/><rect x="1118" y="1034" width="28" height="28" transform="rotate(0,1132,1048)"/><path d="M 1146 1034v 28h 28v -14a 14 14, 0, 0, 0, -14 -14" transform="rotate(0,1160,1048)"/><rect x="250" y="1062" width="28" height="28" transform="rotate(0,264,1076)"/><path d="M 278 1062v 28h 28v -14a 14 14, 0, 0, 0, -14 -14" transform="rotate(0,292,1076)"/><path d="M 334 1062v 28h 14a 14 14, 0, 0, 0, 0 -28" transform="rotate(90,348,1076)"/><path d="M 418 1062v 28h 14a 14 14, 0, 0, 0, 0 -28" transform="rotate(90,432,1076)"/><circle cx="516" cy="1076" r="14" transform="rotate(0,516,1076)"/><path d="M 558 1062v 28h 14a 14 14, 0, 0, 0, 0 -28" transform="rotate(90,572,1076)"/><rect x="642" y="1062" width="28" height="28" transform="rotate(0,656,1076)"/><path d="M 670 1062v 28h 14a 14 14, 0, 0, 0, 0 -28" transform="rotate(0,684,1076)"/><path d="M 810 1062v 28h 28v -14a 14 14, 0, 0, 0, -14 -14" transform="rotate(-90,824,1076)"/><path d="M 838 1062v 28h 14a 14 14, 0, 0, 0, 0 -28" transform="rotate(0,852,1076)"/><circle cx="908" cy="1076" r="14" transform="rotate(0,908,1076)"/><rect x="950" y="1062" width="28" height="28" transform="rotate(0,964,1076)"/><rect x="1006" y="1062" width="28" height="28" transform="rotate(0,1020,1076)"/><path d="M 1062 1062v 28h 14a 14 14, 0, 0, 0, 0 -28" transform="rotate(-90,1076,1076)"/><path d="M 1146 1062v 28h 14a 14 14, 0, 0, 0, 0 -28" transform="rotate(90,1160,1076)"/><rect x="250" y="1090" width="28" height="28" transform="rotate(0,264,1104)"/><rect x="278" y="1090" width="28" height="28" transform="rotate(0,292,1104)"/><path d="M 362 1090v 28h 14a 14 14, 0, 0, 0, 0 -28" transform="rotate(180,376,1104)"/><path d="M 390 1090v 28h 14a 14 14, 0, 0, 0, 0 -28" transform="rotate(0,404,1104)"/><path d="M 474 1090v 28h 14a 14 14, 0, 0, 0, 0 -28" transform="rotate(-90,488,1104)"/><circle cx="600" cy="1104" r="14" transform="rotate(0,600,1104)"/><path d="M 642 1090v 28h 14a 14 14, 0, 0, 0, 0 -28" transform="rotate(90,656,1104)"/><path d="M 698 1090v 28h 14a 14 14, 0, 0, 0, 0 -28" transform="rotate(180,712,1104)"/><rect x="726" y="1090" width="28" height="28" transform="rotate(0,740,1104)"/><rect x="754" y="1090" width="28" height="28" transform="rotate(0,768,1104)"/><rect x="782" y="1090" width="28" height="28" transform="rotate(0,796,1104)"/><path d="M 810 1090v 28h 28v -14a 14 14, 0, 0, 0, -14 -14" transform="rotate(90,824,1104)"/><path d="M 922 1090v 28h 28v -14a 14 14, 0, 0, 0, -14 -14" transform="rotate(-90,936,1104)"/><rect x="950" y="1090" width="28" height="28" transform="rotate(0,964,1104)"/><rect x="978" y="1090" width="28" height="28" transform="rotate(0,992,1104)"/><rect x="1006" y="1090" width="28" height="28" transform="rotate(0,1020,1104)"/><rect x="1034" y="1090" width="28" height="28" transform="rotate(0,1048,1104)"/><rect x="1062" y="1090" width="28" height="28" transform="rotate(0,1076,1104)"/><path d="M 1118 1090v 28h 14a 14 14, 0, 0, 0, 0 -28" transform="rotate(-90,1132,1104)"/><path d="M 250 1118v 28h 28v -14a 14 14, 0, 0, 0, -14 -14" transform="rotate(180,264,1132)"/><rect x="278" y="1118" width="28" height="28" transform="rotate(0,292,1132)"/><path d="M 306 1118v 28h 14a 14 14, 0, 0, 0, 0 -28" transform="rotate(0,320,1132)"/><path d="M 446 1118v 28h 14a 14 14, 0, 0, 0, 0 -28" transform="rotate(180,460,1132)"/><rect x="474" y="1118" width="28" height="28" transform="rotate(0,488,1132)"/><path d="M 502 1118v 28h 28v -14a 14 14, 0, 0, 0, -14 -14" transform="rotate(0,516,1132)"/><path d="M 614 1118v 28h 14a 14 14, 0, 0, 0, 0 -28" transform="rotate(-90,628,1132)"/><circle cx="684" cy="1132" r="14" transform="rotate(0,684,1132)"/><path d="M 866 1118v 28h 14a 14 14, 0, 0, 0, 0 -28" transform="rotate(180,880,1132)"/><rect x="894" y="1118" width="28" height="28" transform="rotate(0,908,1132)"/><path d="M 922 1118v 28h 28v -14a 14 14, 0, 0, 0, -14 -14" transform="rotate(90,936,1132)"/><rect x="978" y="1118" width="28" height="28" transform="rotate(0,992,1132)"/><rect x="1034" y="1118" width="28" height="28" transform="rotate(0,1048,1132)"/><path d="M 1062 1118v 28h 28v -14a 14 14, 0, 0, 0, -14 -14" transform="rotate(90,1076,1132)"/><path d="M 1118 1118v 28h 14a 14 14, 0, 0, 0, 0 -28" transform="rotate(90,1132,1132)"/><path d="M 278 1146v 28h 14a 14 14, 0, 0, 0, 0 -28" transform="rotate(90,292,1160)"/><circle cx="348" cy="1160" r="14" transform="rotate(0,348,1160)"/><path d="M 390 1146v 28h 14a 14 14, 0, 0, 0, 0 -28" transform="rotate(180,404,1160)"/><path d="M 418 1146v 28h 14a 14 14, 0, 0, 0, 0 -28" transform="rotate(0,432,1160)"/><path d="M 502 1146v 28h 14a 14 14, 0, 0, 0, 0 -28" transform="rotate(90,516,1160)"/><path d="M 558 1146v 28h 14a 14 14, 0, 0, 0, 0 -28" transform="rotate(180,572,1160)"/><rect x="586" y="1146" width="28" height="28" transform="rotate(0,600,1160)"/><path d="M 614 1146v 28h 28v -14a 14 14, 0, 0, 0, -14 -14" transform="rotate(90,628,1160)"/><path d="M 698 1146v 28h 14a 14 14, 0, 0, 0, 0 -28" transform="rotate(180,712,1160)"/><rect x="726" y="1146" width="28" height="28" transform="rotate(0,740,1160)"/><rect x="754" y="1146" width="28" height="28" transform="rotate(0,768,1160)"/><rect x="782" y="1146" width="28" height="28" transform="rotate(0,796,1160)"/><rect x="810" y="1146" width="28" height="28" transform="rotate(0,824,1160)"/><path d="M 838 1146v 28h 14a 14 14, 0, 0, 0, 0 -28" transform="rotate(0,852,1160)"/><path d="M 894 1146v 28h 14a 14 14, 0, 0, 0, 0 -28" transform="rotate(90,908,1160)"/><path d="M 950 1146v 28h 14a 14 14, 0, 0, 0, 0 -28" transform="rotate(180,964,1160)"/><rect x="978" y="1146" width="28" height="28" transform="rotate(0,992,1160)"/><rect x="1006" y="1146" width="28" height="28" transform="rotate(0,1020,1160)"/><path d="M 1034 1146v 28h 28v -14a 14 14, 0, 0, 0, -14 -14" transform="rotate(90,1048,1160)"/><circle cx="1104" cy="1160" r="14" transform="rotate(0,1104,1160)"/></clipPath><clipPath id="clip-path-corners-square-color-0-0-230"><path clip-rule="evenodd" d="M 26 96v 56a 70 70, 0, 0, 0, 70 70h 56a 70 70, 0, 0, 0, 70 -70v -56a 70 70, 0, 0, 0, -70 -70h -56a 70 70, 0, 0, 0, -70 70M 96 54h 56a 42 42, 0, 0, 1, 42 42v 56a 42 42, 0, 0, 1, -42 42h -56a 42 42, 0, 0, 1, -42 -42v -56a 42 42, 0, 0, 1, 42 -42" transform="rotate(0,124,124)"/></clipPath><clipPath id="clip-path-corners-dot-color-0-0-230"><circle cx="124" cy="124" r="42" transform="rotate(0,124,124)"/></clipPath><clipPath id="clip-path-corners-square-color-1-0-230"><path clip-rule="evenodd" d="M 978 96v 56a 70 70, 0, 0, 0, 70 70h 56a 70 70, 0, 0, 0, 70 -70v -56a 70 70, 0, 0, 0, -70 -70h -56a 70 70, 0, 0, 0, -70 70M 1048 54h 56a 42 42, 0, 0, 1, 42 42v 56a 42 42, 0, 0, 1, -42 42h -56a 42 42, 0, 0, 1, -42 -42v -56a 42 42, 0, 0, 1, 42 -42" transform="rotate(90,1076,124)"/></clipPath><clipPath id="clip-path-corners-dot-color-1-0-230"><circle cx="1076" cy="124" r="42" transform="rotate(90,1076,124)"/></clipPath><clipPath id="clip-path-corners-square-color-0-1-230"><path clip-rule="evenodd" d="M 26 1048v 56a 70 70, 0, 0, 0, 70 70h 56a 70 70, 0, 0, 0, 70 -70v -56a 70 70, 0, 0, 0, -70 -70h -56a 70 70, 0, 0, 0, -70 70M 96 1006h 56a 42 42, 0, 0, 1, 42 42v 56a 42 42, 0, 0, 1, -42 42h -56a 42 42, 0, 0, 1, -42 -42v -56a 42 42, 0, 0, 1, 42 -42" transform="rotate(-90,124,1076)"/></clipPath><clipPath id="clip-path-corners-dot-color-0-1-230"><circle cx="124" cy="1076" r="42" transform="rotate(-90,124,1076)"/></clipPath></defs><rect x="0" y="0" height="1200" width="1200" clip-path="url('#clip-path-background-color-230')" fill="#ffffff"/><rect x="0" y="0" height="1200" width="1200" clip-path="url('#clip-path-dot-color-230')" fill="#000000"/><rect x="26" y="26" height="196" width="196" clip-path="url('#clip-path-corners-square-color-0-0-230')" fill="#000000"/><rect x="82" y="82" height="84" width="84" clip-path="url('#clip-path-corners-dot-color-0-0-230')" fill="#000000"/><rect x="978" y="26" height="196" width="196" clip-path="url('#clip-path-corners-square-color-1-0-230')" fill="#000000"/><rect x="1034" y="82" height="84" width="84" clip-path="url('#clip-path-corners-dot-color-1-0-230')" fill="#000000"/><rect x="26" y="978" height="196" width="196" clip-path="url('#clip-path-corners-square-color-0-1-230')" fill="#000000"/><rect x="82" y="1034" height="84" width="84" clip-path="url('#clip-path-corners-dot-color-0-1-230')" fill="#000000"/></svg>