<?xml version="1.0" standalone="no"?>
<svg xmlns="http://www.w3.org/2000/svg" width="1200" height="1200" xmlns:xlink="http://www.w3.org/1999/xlink" viewBox="0 0 1200 1200"><defs><clipPath id="clip-path-background-color-13"><rect x="0" y="0" width="1200" height="1200"/></clipPath><clipPath id="clip-path-dot-color-13"><path d="M 337 22v 35h 35v -17.5a 17.5 17.5, 0, 0, 0, -17.5 -17.5" transform="rotate(-90,354.5,39.5)"/><rect x="372" y="22" width="35" height="35" transform="rotate(0,389.5,39.5)"/><path d="M 407 22v 35h 17.5a 17.5 17.5, 0, 0, 0, 0 -35" transform="rotate(0,424.5,39.5)"/><path d="M 477 22v 35h 17.5a 17.5 17.5, 0, 0, 0, 0 -35" transform="rotate(180,494.5,39.5)"/><path d="M 512 22v 35h 17.5a 17.5 17.5, 0, 0, 0, 0 -35" transform="rotate(0,529.5,39.5)"/><path d="M 617 22v 35h 35v -17.5a 17.5 17.5, 0, 0, 0, -17.5 -17.5" transform="rotate(-90,634.5,39.5)"/><path d="M 652 22v 35h 17.5a 17.5 17.5, 0, 0, 0, 0 -35" transform="rotate(0,669.5,39.5)"/><path d="M 757 22v 35h 17.5a 17.5 17.5, 0, 0, 0, 0 -35" transform="rotate(180,774.5,39.5)"/><rect x="792" y="22" width="35" height="35" transform="rotate(0,809.5,39.5)"/><path d="M 827 22v 35h 17.5a 17.5 17.5, 0, 0, 0, 0 -35" transform="rotate(0,844.5,39.5)"/><path d="M 337 57v 35h 17.5a 17.5 17.5, 0, 0, 0, 0 -35" transform="rotate(90,354.5,74.5)"/><path d="M 547 57v 35h 35v -17.5a 17.5 17.5, 0, 0, 0, -17.5 -17.5" transform="rotate(-90,564.5,74.5)"/><rect x="582" y="57" width="35" height="35" transform="rotate(0,599.5,74.5)"/><path d="M 617 57v 35h 35v -17.5a 17.5 17.5, 0, 0, 0, -17.5 -17.5" transform="rotate(90,634.5,74.5)"/><path d="M 687 57v 35h 17.5a 17.5 17.5, 0, 0, 0, 0 -35" transform="rotate(-90,704.5,74.5)"/><path d="M 792 57v 35h 17.5a 17.5 17.5, 0, 0, 0, 0 -35" transform="rotate(90,809.5,74.5)"/><circle cx="319.5" cy="109.5" r="17.5" transform="rotate(0,319.5,109.5)"/><path d="M 407 92v 35h 17.5a 17.5 17.5, 0, 0, 0, 0 -35" transform="rotate(-90,424.5,109.5)"/><path d="M 477 92v 35h 17.5a 17.5 17.5, 0, 0, 0, 0 -35" transform="rotate(180,494.5,109.5)"/><rect x="512" y="92" width="35" height="35" transform="rotate(0,529.5,109.5)"/><rect x="547" y="92" width="35" height="35" transform="rotate(0,564.5,109.5)"/><rect x="582" y="92" width="35" height="35" transform="rotate(0,599.5,109.5)"/><rect x="687" y="92" width="35" height="35" transform="rotate(0,704.5,109.5)"/><rect x="722" y="92" width="35" height="35" transform="rotate(0,739.5,109.5)"/><path d="M 757 92v 35h 17.5a 17.5 17.5, 0, 0, 0, 0 -35" transform="rotate(0,774.5,109.5)"/><path d="M 827 92v 35h 35v -17.5a 17.5 17.5, 0, 0, 0, -17.5 -17.5" transform="rotate(-90,844.5,109.5)"/><path d="M 862 92v 35h 17.5a 17.5 17.5, 0, 0, 0, 0 -35" transform="rotate(0,879.5,109.5)"/><rect x="407" y="127" width="35" height="35" transform="rotate(0,424.5,144.5)"/><rect x="512" y="127" width="35" height="35" transform="rotate(0,529.5,144.5)"/><rect x="547" y="127" width="35" height="35" transform="rotate(0,564.5,144.5)"/><rect x="582" y="127" width="35" height="35" transform="rotate(0,599.5,144.5)"/><rect x="617" y="127" width="35" height="35" transform="rotate(0,634.5,144.5)"/><rect x="652" y="127" width="35" height="35" transform="rotate(0,669.5,144.5)"/><rect x="687" y="127" width="35" height="35" transform="rotate(0,704.5,144.5)"/><rect x="827" y="127" width="35" height="35" transform="rotate(0,844.5,144.5)"/><path d="M 302 162v 35h 35v -17.5a 17.5 17.5, 0, 0, 0, -17.5 -17.5" transform="rotate(-90,319.5,179.5)"/><rect x="337" y="162" width="35" height="35" transform="rotate(0,354.5,179.5)"/><rect x="372" y="162" width="35" height="35" transform="rotate(0,389.5,179.5)"/><path d="M 407 162v 35h 35v -17.5a 17.5 17.5, 0, 0, 0, -17.5 -17.5" transform="rotate(90,424.5,179.5)"/><path d="M 477 162v 35h 17.5a 17.5 17.5, 0, 0, 0, 0 -35" transform="rotate(180,494.5,179.5)"/><rect x="512" y="162" width="35" height="35" transform="rotate(0,529.5,179.5)"/><path d="M 617 162v 35h 35v -17.5a 17.5 17.5, 0, 0, 0, -17.5 -17.5" transform="rotate(180,634.5,179.5)"/><rect x="652" y="162" width="35" height="35" transform="rotate(0,669.5,179.5)"/><rect x="687" y="162" width="35" height="35" transform="rotate(0,704.5,179.5)"/><path d="M 722 162v 35h 17.5a 17.5 17.5, 0, 0, 0, 0 -35" transform="rotate(0,739.5,179.5)"/><path d="M 827 162v 35h 17.5a 17.5 17.5, 0, 0, 0, 0 -35" transform="rotate(90,844.5,179.5)"/><rect x="302" y="197" width="35" height="35" transform="rotate(0,319.5,214.5)"/><path d="M 442 197v 35h 17.5a 17.5 17.5, 0, 0, 0, 0 -35" transform="rotate(-90,459.5,214.5)"/><rect x="512" y="197" width="35" height="35" transform="rotate(0,529.5,214.5)"/><rect x="547" y="197" width="35" height="35" transform="rotate(0,564.5,214.5)"/><path d="M 582 197v 35h 35v -17.5a 17.5 17.5, 0, 0, 0, -17.5 -17.5" transform="rotate(0,599.5,214.5)"/><path d="M 687 197v 35h 17.5a 17.5 17.5, 0, 0, 0, 0 -35" transform="rotate(90,704.5,214.5)"/><circle cx="774.5" cy="214.5" r="17.5" transform="rotate(0,774.5,214.5)"/><path d="M 302 232v 35h 17.5a 17.5 17.5, 0, 0, 0, 0 -35" transform="rotate(90,319.5,249.5)"/><path d="M 372 232v 35h 17.5a 17.5 17.5, 0, 0, 0, 0 -35" transform="rotate(-90,389.5,249.5)"/><path d="M 442 232v 35h 17.5a 17.5 17.5, 0, 0, 0, 0 -35" transform="rotate(90,459.5,249.5)"/><path d="M 512 232v 35h 17.5a 17.5 17.5, 0, 0, 0, 0 -35" transform="rotate(90,529.5,249.5)"/><path d="M 582 232v 35h 17.5a 17.5 17.5, 0, 0, 0, 0 -35" transform="rotate(90,599.5,249.5)"/><path d="M 652 232v 35h 17.5a 17.5 17.5, 0, 0, 0, 0 -35" transform="rotate(-90,669.5,249.5)"/><circle cx="739.5" cy="249.5" r="17.5" transform="rotate(0,739.5,249.5)"/><path d="M 792 232v 35h 17.5a 17.5 17.5, 0, 0, 0, 0 -35" transform="rotate(-90,809.5,249.5)"/><circle cx="879.5" cy="249.5" r="17.5" transform="rotate(0,879.5,249.5)"/><path d="M 372 267v 35h 35v -17.5a 17.5 17.5, 0, 0, 0, -17.5 -17.5" transform="rotate(180,389.5,284.5)"/><path d="M 407 267v 35h 35v -17.5a 17.5 17.5, 0, 0, 0, -17.5 -17.5" transform="rotate(0,424.5,284.5)"/><path d="M 477 267v 35h 17.5a 17.5 17.5, 0, 0, 0, 0 -35" transform="rotate(-90,494.5,284.5)"/><path d="M 617 267v 35h 35v -17.5a 17.5 17.5, 0, 0, 0, -17.5 -17.5" transform="rotate(-90,634.5,284.5)"/><rect x="652" y="267" width="35" height="35" transform="rotate(0,669.5,284.5)"/><path d="M 757 267v 35h 35v -17.5a 17.5 17.5, 0, 0, 0, -17.5 -17.5" transform="rotate(-90,774.5,284.5)"/><rect x="792" y="267" width="35" height="35" transform="rotate(0,809.5,284.5)"/><path d="M 827 267v 35h 17.5a 17.5 17.5, 0, 0, 0, 0 -35" transform="rotate(0,844.5,284.5)"/><circle cx="74.5" cy="319.5" r="17.5" transform="rotate(0,74.5,319.5)"/><circle cx="179.5" cy="319.5" r="17.5" transform="rotate(0,179.5,319.5)"/><circle cx="249.5" cy="319.5" r="17.5" transform="rotate(0,249.5,319.5)"/><path d="M 302 302v 35h 35v -17.5a 17.5 17.5, 0, 0, 0, -17.5 -17.5" transform="rotate(-90,319.5,319.5)"/><path d="M 337 302v 35h 17.5a 17.5 17.5, 0, 0, 0, 0 -35" transform="rotate(0,354.5,319.5)"/><path d="M 407 302v 35h 35v -17.5a 17.5 17.5, 0, 0, 0, -17.5 -17.5" transform="rotate(180,424.5,319.5)"/><rect x="442" y="302" width="35" height="35" transform="rotate(0,459.5,319.5)"/><path d="M 477 302v 35h 35v -17.5a 17.5 17.5, 0, 0, 0, -17.5 -17.5" transform="rotate(90,494.5,319.5)"/><path d="M 617 302v 35h 35v -17.5a 17.5 17.5, 0, 0, 0, -17.5 -17.5" transform="rotate(180,634.5,319.5)"/><rect x="652" y="302" width="35" height="35" transform="rotate(0,669.5,319.5)"/><path d="M 722 302v 35h 17.5a 17.5 17.5, 0, 0, 0, 0 -35" transform="rotate(180,739.5,319.5)"/><rect x="757" y="302" width="35" height="35" transform="rotate(0,774.5,319.5)"/><path d="M 792 302v 35h 35v -17.5a 17.5 17.5, 0, 0, 0, -17.5 -17.5" transform="rotate(90,809.5,319.5)"/><path d="M 897 302v 35h 17.5a 17.5 17.5, 0, 0, 0, 0 -35" transform="rotate(-90,914.5,319.5)"/><path d="M 967 302v 35h 17.5a 17.5 17.5, 0, 0, 0, 0 -35" transform="rotate(180,984.5,319.5)"/><path d="M 1002 302v 35h 17.5a 17.5 17.5, 0, 0, 0, 0 -35" transform="rotate(0,1019.5,319.5)"/><path d="M 1072 302v 35h 17.5a 17.5 17.5, 0, 0, 0, 0 -35" transform="rotate(-90,1089.5,319.5)"/><path d="M 22 337v 35h 17.5a 17.5 17.5, 0, 0, 0, 0 -35" transform="rotate(-90,39.5,354.5)"/><path d="M 127 337v 35h 17.5a 17.5 17.5, 0, 0, 0, 0 -35" transform="rotate(-90,144.5,354.5)"/><path d="M 267 337v 35h 17.5a 17.5 17.5, 0, 0, 0, 0 -35" transform="rotate(180,284.5,354.5)"/><path d="M 302 337v 35h 35v -17.5a 17.5 17.5, 0, 0, 0, -17.5 -17.5" transform="rotate(90,319.5,354.5)"/><path d="M 547 337v 35h 17.5a 17.5 17.5, 0, 0, 0, 0 -35" transform="rotate(180,564.5,354.5)"/><path d="M 582 337v 35h 17.5a 17.5 17.5, 0, 0, 0, 0 -35" transform="rotate(0,599.5,354.5)"/><path d="M 652 337v 35h 17.5a 17.5 17.5, 0, 0, 0, 0 -35" transform="rotate(90,669.5,354.5)"/><rect x="757" y="337" width="35" height="35" transform="rotate(0,774.5,354.5)"/><path d="M 827 337v 35h 17.5a 17.5 17.5, 0, 0, 0, 0 -35" transform="rotate(-90,844.5,354.5)"/><path d="M 897 337v 35h 17.5a 17.5 17.5, 0, 0, 0, 0 -35" transform="rotate(90,914.5,354.5)"/><path d="M 1037 337v 35h 35v -17.5a 17.5 17.5, 0, 0, 0, -17.5 -17.5" transform="rotate(-90,1054.5,354.5)"/><path d="M 1072 337v 35h 35v -17.5a 17.5 17.5, 0, 0, 0, -17.5 -17.5" transform="rotate(90,1089.5,354.5)"/><path d="M 22 372v 35h 35v -17.5a 17.5 17.5, 0, 0, 0, -17.5 -17.5" transform="rotate(180,39.5,389.5)"/><path d="M 57 372v 35h 17.5a 17.5 17.5, 0, 0, 0, 0 -35" transform="rotate(0,74.5,389.5)"/><path d="M 127 372v 35h 17.5a 17.5 17.5, 0, 0, 0, 0 -35" transform="rotate(90,144.5,389.5)"/><circle cx="249.5" cy="389.5" r="17.5" transform="rotate(0,249.5,389.5)"/><path d="M 372 372v 35h 17.5a 17.5 17.5, 0, 0, 0, 0 -35" transform="rotate(180,389.5,389.5)"/><path d="M 407 372v 35h 35v -17.5a 17.5 17.5, 0, 0, 0, -17.5 -17.5" transform="rotate(0,424.5,389.5)"/><path d="M 512 372v 35h 17.5a 17.5 17.5, 0, 0, 0, 0 -35" transform="rotate(-90,529.5,389.5)"/><path d="M 617 372v 35h 17.5a 17.5 17.5, 0, 0, 0, 0 -35" transform="rotate(-90,634.5,389.5)"/><path d="M 722 372v 35h 17.5a 17.5 17.5, 0, 0, 0, 0 -35" transform="rotate(180,739.5,389.5)"/><rect x="757" y="372" width="35" height="35" transform="rotate(0,774.5,389.5)"/><rect x="792" y="372" width="35" height="35" transform="rotate(0,809.5,389.5)"/><rect x="827" y="372" width="35" height="35" transform="rotate(0,844.5,389.5)"/><path d="M 1037 372v 35h 17.5a 17.5 17.5, 0, 0, 0, 0 -35" transform="rotate(90,1054.5,389.5)"/><circle cx="1124.5" cy="389.5" r="17.5" transform="rotate(0,1124.5,389.5)"/><path d="M 92 407v 35h 17.5a 17.5 17.5, 0, 0, 0, 0 -35" transform="rotate(-90,109.5,424.5)"/><circle cx="214.5" cy="424.5" r="17.5" transform="rotate(0,214.5,424.5)"/><circle cx="284.5" cy="424.5" r="17.5" transform="rotate(0,284.5,424.5)"/><rect x="407" y="407" width="35" height="35" transform="rotate(0,424.5,424.5)"/><path d="M 442 407v 35h 35v -17.5a 17.5 17.5, 0, 0, 0, -17.5 -17.5" transform="rotate(0,459.5,424.5)"/><path d="M 512 407v 35h 17.5a 17.5 17.5, 0, 0, 0, 0 -35" transform="rotate(90,529.5,424.5)"/><path d="M 582 407v 35h 17.5a 17.5 17.5, 0, 0, 0, 0 -35" transform="rotate(180,599.5,424.5)"/><rect x="617" y="407" width="35" height="35" transform="rotate(0,634.5,424.5)"/><rect x="652" y="407" width="35" height="35" transform="rotate(0,669.5,424.5)"/><path d="M 687 407v 35h 35v -17.5a 17.5 17.5, 0, 0, 0, -17.5 -17.5" transform="rotate(0,704.5,424.5)"/><rect x="757" y="407" width="35" height="35" transform="rotate(0,774.5,424.5)"/><path d="M 827 407v 35h 35v -17.5a 17.5 17.5, 0, 0, 0, -17.5 -17.5" transform="rotate(180,844.5,424.5)"/><rect x="862" y="407" width="35" height="35" transform="rotate(0,879.5,424.5)"/><path d="M 897 407v 35h 17.5a 17.5 17.5, 0, 0, 0, 0 -35" transform="rotate(0,914.5,424.5)"/><circle cx="1159.5" cy="424.5" r="17.5" transform="rotate(0,1159.5,424.5)"/><path d="M 22 442v 35h 17.5a 17.5 17.5, 0, 0, 0, 0 -35" transform="rotate(180,39.5,459.5)"/><rect x="57" y="442" width="35" height="35" transform="rotate(0,74.5,459.5)"/><rect x="92" y="442" width="35" height="35" transform="rotate(0,109.5,459.5)"/><rect x="127" y="442" width="35" height="35" transform="rotate(0,144.5,459.5)"/><path d="M 162 442v 35h 35v -17.5a 17.5 17.5, 0, 0, 0, -17.5 -17.5" transform="rotate(0,179.5,459.5)"/><circle cx="249.5" cy="459.5" r="17.5" transform="rotate(0,249.5,459.5)"/><path d="M 302 442v 35h 35v -17.5a 17.5 17.5, 0, 0, 0, -17.5 -17.5" transform="rotate(-90,319.5,459.5)"/><rect x="337" y="442" width="35" height="35" transform="rotate(0,354.5,459.5)"/><rect x="372" y="442" width="35" height="35" transform="rotate(0,389.5,459.5)"/><rect x="407" y="442" width="35" height="35" transform="rotate(0,424.5,459.5)"/><rect x="442" y="442" width="35" height="35" transform="rotate(0,459.5,459.5)"/><circle cx="564.5" cy="459.5" r="17.5" transform="rotate(0,564.5,459.5)"/><path d="M 652 442v 35h 35v -17.5a 17.5 17.5, 0, 0, 0, -17.5 -17.5" transform="rotate(180,669.5,459.5)"/><path d="M 687 442v 35h 35v -17.5a 17.5 17.5, 0, 0, 0, -17.5 -17.5" transform="rotate(90,704.5,459.5)"/><path d="M 757 442v 35h 35v -17.5a 17.5 17.5, 0, 0, 0, -17.5 -17.5" transform="rotate(180,774.5,459.5)"/><path d="M 792 442v 35h 17.5a 17.5 17.5, 0, 0, 0, 0 -35" transform="rotate(0,809.5,459.5)"/><path d="M 862 442v 35h 17.5a 17.5 17.5, 0, 0, 0, 0 -35" transform="rotate(90,879.5,459.5)"/><circle cx="949.5" cy="459.5" r="17.5" transform="rotate(0,949.5,459.5)"/><path d="M 1002 442v 35h 17.5a 17.5 17.5, 0, 0, 0, 0 -35" transform="rotate(180,1019.5,459.5)"/><path d="M 1037 442v 35h 17.5a 17.5 17.5, 0, 0, 0, 0 -35" transform="rotate(0,1054.5,459.5)"/><rect x="92" y="477" width="35" height="35" transform="rotate(0,109.5,494.5)"/><rect x="127" y="477" width="35" height="35" transform="rotate(0,144.5,494.5)"/><rect x="162" y="477" width="35" height="35" transform="rotate(0,179.5,494.5)"/><path d="M 302 477v 35h 17.5a 17.5 17.5, 0, 0, 0, 0 -35" transform="rotate(90,319.5,494.5)"/><rect x="372" y="477" width="35" height="35" transform="rotate(0,389.5,494.5)"/><rect x="407" y="477" width="35" height="35" transform="rotate(0,424.5,494.5)"/><path d="M 442 477v 35h 35v -17.5a 17.5 17.5, 0, 0, 0, -17.5 -17.5" transform="rotate(90,459.5,494.5)"/><circle cx="529.5" cy="494.5" r="17.5" transform="rotate(0,529.5,494.5)"/><path d="M 582 477v 35h 35v -17.5a 17.5 17.5, 0, 0, 0, -17.5 -17.5" transform="rotate(-90,599.5,494.5)"/><path d="M 617 477v 35h 17.5a 17.5 17.5, 0, 0, 0, 0 -35" transform="rotate(0,634.5,494.5)"/><path d="M 827 477v 35h 17.5a 17.5 17.5, 0, 0, 0, 0 -35" transform="rotate(-90,844.5,494.5)"/><circle cx="984.5" cy="494.5" r="17.5" transform="rotate(0,984.5,494.5)"/><path d="M 1072 477v 35h 17.5a 17.5 17.5, 0, 0, 0, 0 -35" transform="rotate(-90,1089.5,494.5)"/><path d="M 57 512v 35h 17.5a 17.5 17.5, 0, 0, 0, 0 -35" transform="rotate(180,74.5,529.5)"/><rect x="92" y="512" width="35" height="35" transform="rotate(0,109.5,529.5)"/><rect x="127" y="512" width="35" height="35" transform="rotate(0,144.5,529.5)"/><path d="M 162 512v 35h 35v -17.5a 17.5 17.5, 0, 0, 0, -17.5 -17.5" transform="rotate(90,179.5,529.5)"/><path d="M 232 512v 35h 17.5a 17.5 17.5, 0, 0, 0, 0 -35" transform="rotate(180,249.5,529.5)"/><path d="M 267 512v 35h 35v -17.5a 17.5 17.5, 0, 0, 0, -17.5 -17.5" transform="rotate(0,284.5,529.5)"/><path d="M 337 512v 35h 17.5a 17.5 17.5, 0, 0, 0, 0 -35" transform="rotate(180,354.5,529.5)"/><path d="M 372 512v 35h 35v -17.5a 17.5 17.5, 0, 0, 0, -17.5 -17.5" transform="rotate(90,389.5,529.5)"/><path d="M 582 512v 35h 17.5a 17.5 17.5, 0, 0, 0, 0 -35" transform="rotate(90,599.5,529.5)"/><path d="M 722 512v 35h 35v -17.5a 17.5 17.5, 0, 0, 0, -17.5 -17.5" transform="rotate(-90,739.5,529.5)"/><path d="M 757 512v 35h 35v -17.5a 17.5 17.5, 0, 0, 0, -17.5 -17.5" transform="rotate(0,774.5,529.5)"/><path d="M 827 512v 35h 17.5a 17.5 17.5, 0, 0, 0, 0 -35" transform="rotate(90,844.5,529.5)"/><path d="M 897 512v 35h 35v -17.5a 17.5 17.5, 0, 0, 0, -17.5 -17.5" transform="rotate(-90,914.5,529.5)"/><path d="M 932 512v 35h 35v -17.5a 17.5 17.5, 0, 0, 0, -17.5 -17.5" transform="rotate(0,949.5,529.5)"/><path d="M 1072 512v 35h 35v -17.5a 17.5 17.5, 0, 0, 0, -17.5 -17.5" transform="rotate(180,1089.5,529.5)"/><path d="M 1107 512v 35h 17.5a 17.5 17.5, 0, 0, 0, 0 -35" transform="rotate(0,1124.5,529.5)"/><circle cx="39.5" cy="564.5" r="17.5" transform="rotate(0,39.5,564.5)"/><circle cx="214.5" cy="564.5" r="17.5" transform="rotate(0,214.5,564.5)"/><rect x="267" y="547" width="35" height="35" transform="rotate(0,284.5,564.5)"/><path d="M 302 547v 35h 35v -17.5a 17.5 17.5, 0, 0, 0, -17.5 -17.5" transform="rotate(0,319.5,564.5)"/><path d="M 407 547v 35h 17.5a 17.5 17.5, 0, 0, 0, 0 -35" transform="rotate(180,424.5,564.5)"/><path d="M 442 547v 35h 35v -17.5a 17.5 17.5, 0, 0, 0, -17.5 -17.5" transform="rotate(0,459.5,564.5)"/><path d="M 512 547v 35h 17.5a 17.5 17.5, 0, 0, 0, 0 -35" transform="rotate(180,529.5,564.5)"/><path d="M 547 547v 35h 17.5a 17.5 17.5, 0, 0, 0, 0 -35" transform="rotate(0,564.5,564.5)"/><path d="M 617 547v 35h 35v -17.5a 17.5 17.5, 0, 0, 0, -17.5 -17.5" transform="rotate(-90,634.5,564.5)"/><path d="M 652 547v 35h 17.5a 17.5 17.5, 0, 0, 0, 0 -35" transform="rotate(0,669.5,564.5)"/><rect x="722" y="547" width="35" height="35" transform="rotate(0,739.5,564.5)"/><rect x="757" y="547" width="35" height="35" transform="rotate(0,774.5,564.5)"/><path d="M 862 547v 35h 17.5a 17.5 17.5, 0, 0, 0, 0 -35" transform="rotate(180,879.5,564.5)"/><rect x="897" y="547" width="35" height="35" transform="rotate(0,914.5,564.5)"/><rect x="932" y="547" width="35" height="35" transform="rotate(0,949.5,564.5)"/><rect x="967" y="547" width="35" height="35" transform="rotate(0,984.5,564.5)"/><path d="M 1002 547v 35h 35v -17.5a 17.5 17.5, 0, 0, 0, -17.5 -17.5" transform="rotate(0,1019.5,564.5)"/><path d="M 57 582v 35h 35v -17.5a 17.5 17.5, 0, 0, 0, -17.5 -17.5" transform="rotate(-90,74.5,599.5)"/><path d="M 92 582v 35h 35v -17.5a 17.5 17.5, 0, 0, 0, -17.5 -17.5" transform="rotate(0,109.5,599.5)"/><circle cx="179.5" cy="599.5" r="17.5" transform="rotate(0,179.5,599.5)"/><path d="M 232 582v 35h 17.5a 17.5 17.5, 0, 0, 0, 0 -35" transform="rotate(180,249.5,599.5)"/><rect x="267" y="582" width="35" height="35" transform="rotate(0,284.5,599.5)"/><path d="M 302 582v 35h 35v -17.5a 17.5 17.5, 0, 0, 0, -17.5 -17.5" transform="rotate(90,319.5,599.5)"/><path d="M 372 582v 35h 17.5a 17.5 17.5, 0, 0, 0, 0 -35" transform="rotate(-90,389.5,599.5)"/><rect x="442" y="582" width="35" height="35" transform="rotate(0,459.5,599.5)"/><path d="M 582 582v 35h 35v -17.5a 17.5 17.5, 0, 0, 0, -17.5 -17.5" transform="rotate(-90,599.5,599.5)"/><path d="M 617 582v 35h 35v -17.5a 17.5 17.5, 0, 0, 0, -17.5 -17.5" transform="rotate(90,634.5,599.5)"/><path d="M 687 582v 35h 17.5a 17.5 17.5, 0, 0, 0, 0 -35" transform="rotate(180,704.5,599.5)"/><rect x="722" y="582" width="35" height="35" transform="rotate(0,739.5,599.5)"/><rect x="757" y="582" width="35" height="35" transform="rotate(0,774.5,599.5)"/><path d="M 792 582v 35h 17.5a 17.5 17.5, 0, 0, 0, 0 -35" transform="rotate(0,809.5,599.5)"/><path d="M 932 582v 35h 17.5a 17.5 17.5, 0, 0, 0, 0 -35" transform="rotate(90,949.5,599.5)"/><path d="M 1002 582v 35h 17.5a 17.5 17.5, 0, 0, 0, 0 -35" transform="rotate(90,1019.5,599.5)"/><path d="M 1107 582v 35h 17.5a 17.5 17.5, 0, 0, 0, 0 -35" transform="rotate(-90,1124.5,599.5)"/><path d="M 22 617v 35h 17.5a 17.5 17.5, 0, 0, 0, 0 -35" transform="rotate(180,39.5,634.5)"/><rect x="57" y="617" width="35" height="35" transform="rotate(0,74.5,634.5)"/><rect x="92" y="617" width="35" height="35" transform="rotate(0,109.5,634.5)"/><path d="M 127 617v 35h 35v -17.5a 17.5 17.5, 0, 0, 0, -17.5 -17.5" transform="rotate(0,144.5,634.5)"/><circle cx="214.5" cy="634.5" r="17.5" transform="rotate(0,214.5,634.5)"/><path d="M 267 617v 35h 17.5a 17.5 17.5, 0, 0, 0, 0 -35" transform="rotate(90,284.5,634.5)"/><rect x="372" y="617" width="35" height="35" transform="rotate(0,389.5,634.5)"/><rect x="407" y="617" width="35" height="35" transform="rotate(0,424.5,634.5)"/><rect x="442" y="617" width="35" height="35" transform="rotate(0,459.5,634.5)"/><path d="M 477 617v 35h 35v -17.5a 17.5 17.5, 0, 0, 0, -17.5 -17.5" transform="rotate(0,494.5,634.5)"/><path d="M 582 617v 35h 17.5a 17.5 17.5, 0, 0, 0, 0 -35" transform="rotate(90,599.5,634.5)"/><circle cx="669.5" cy="634.5" r="17.5" transform="rotate(0,669.5,634.5)"/><rect x="757" y="617" width="35" height="35" transform="rotate(0,774.5,634.5)"/><path d="M 827 617v 35h 17.5a 17.5 17.5, 0, 0, 0, 0 -35" transform="rotate(-90,844.5,634.5)"/><circle cx="914.5" cy="634.5" r="17.5" transform="rotate(0,914.5,634.5)"/><path d="M 1037 617v 35h 35v -17.5a 17.5 17.5, 0, 0, 0, -17.5 -17.5" transform="rotate(-90,1054.5,634.5)"/><rect x="1072" y="617" width="35" height="35" transform="rotate(0,1089.5,634.5)"/><rect x="1107" y="617" width="35" height="35" transform="rotate(0,1124.5,634.5)"/><rect x="127" y="652" width="35" height="35" transform="rotate(0,144.5,669.5)"/><circle cx="249.5" cy="669.5" r="17.5" transform="rotate(0,249.5,669.5)"/><circle cx="319.5" cy="669.5" r="17.5" transform="rotate(0,319.5,669.5)"/><path d="M 372 652v 35h 35v -17.5a 17.5 17.5, 0, 0, 0, -17.5 -17.5" transform="rotate(180,389.5,669.5)"/><path d="M 407 652v 35h 35v -17.5a 17.5 17.5, 0, 0, 0, -17.5 -17.5" transform="rotate(90,424.5,669.5)"/><rect x="477" y="652" width="35" height="35" transform="rotate(0,494.5,669.5)"/><path d="M 512 652v 35h 35v -17.5a 17.5 17.5, 0, 0, 0, -17.5 -17.5" transform="rotate(0,529.5,669.5)"/><rect x="757" y="652" width="35" height="35" transform="rotate(0,774.5,669.5)"/><rect x="827" y="652" width="35" height="35" transform="rotate(0,844.5,669.5)"/><path d="M 967 652v 35h 17.5a 17.5 17.5, 0, 0, 0, 0 -35" transform="rotate(-90,984.5,669.5)"/><path d="M 1037 652v 35h 17.5a 17.5 17.5, 0, 0, 0, 0 -35" transform="rotate(90,1054.5,669.5)"/><rect x="1107" y="652" width="35" height="35" transform="rotate(0,1124.5,669.5)"/><path d="M 22 687v 35h 17.5a 17.5 17.5, 0, 0, 0, 0 -35" transform="rotate(-90,39.5,704.5)"/><path d="M 92 687v 35h 17.5a 17.5 17.5, 0, 0, 0, 0 -35" transform="rotate(180,109.5,704.5)"/><rect x="127" y="687" width="35" height="35" transform="rotate(0,144.5,704.5)"/><rect x="162" y="687" width="35" height="35" transform="rotate(0,179.5,704.5)"/><path d="M 197 687v 35h 17.5a 17.5 17.5, 0, 0, 0, 0 -35" transform="rotate(0,214.5,704.5)"/><circle cx="284.5" cy="704.5" r="17.5" transform="rotate(0,284.5,704.5)"/><circle cx="354.5" cy="704.5" r="17.5" transform="rotate(0,354.5,704.5)"/><rect x="477" y="687" width="35" height="35" transform="rotate(0,494.5,704.5)"/><rect x="512" y="687" width="35" height="35" transform="rotate(0,529.5,704.5)"/><rect x="547" y="687" width="35" height="35" transform="rotate(0,564.5,704.5)"/><rect x="582" y="687" width="35" height="35" transform="rotate(0,599.5,704.5)"/><path d="M 617 687v 35h 17.5a 17.5 17.5, 0, 0, 0, 0 -35" transform="rotate(0,634.5,704.5)"/><path d="M 687 687v 35h 17.5a 17.5 17.5, 0, 0, 0, 0 -35" transform="rotate(180,704.5,704.5)"/><rect x="722" y="687" width="35" height="35" transform="rotate(0,739.5,704.5)"/><rect x="757" y="687" width="35" height="35" transform="rotate(0,774.5,704.5)"/><rect x="792" y="687" width="35" height="35" transform="rotate(0,809.5,704.5)"/><rect x="827" y="687" width="35" height="35" transform="rotate(0,844.5,704.5)"/><path d="M 862 687v 35h 35v -17.5a 17.5 17.5, 0, 0, 0, -17.5 -17.5" transform="rotate(0,879.5,704.5)"/><path d="M 932 687v 35h 35v -17.5a 17.5 17.5, 0, 0, 0, -17.5 -17.5" transform="rotate(-90,949.5,704.5)"/><path d="M 967 687v 35h 35v -17.5a 17.5 17.5, 0, 0, 0, -17.5 -17.5" transform="rotate(90,984.5,704.5)"/><rect x="1107" y="687" width="35" height="35" transform="rotate(0,1124.5,704.5)"/><rect x="22" y="722" width="35" height="35" transform="rotate(0,39.5,739.5)"/><path d="M 57 722v 35h 35v -17.5a 17.5 17.5, 0, 0, 0, -17.5 -17.5" transform="rotate(0,74.5,739.5)"/><circle cx="249.5" cy="739.5" r="17.5" transform="rotate(0,249.5,739.5)"/><circle cx="389.5" cy="739.5" r="17.5" transform="rotate(0,389.5,739.5)"/><rect x="477" y="722" width="35" height="35" transform="rotate(0,494.5,739.5)"/><rect x="512" y="722" width="35" height="35" transform="rotate(0,529.5,739.5)"/><path d="M 582 722v 35h 17.5a 17.5 17.5, 0, 0, 0, 0 -35" transform="rotate(90,599.5,739.5)"/><path d="M 757 722v 35h 35v -17.5a 17.5 17.5, 0, 0, 0, -17.5 -17.5" transform="rotate(180,774.5,739.5)"/><rect x="792" y="722" width="35" height="35" transform="rotate(0,809.5,739.5)"/><rect x="827" y="722" width="35" height="35" transform="rotate(0,844.5,739.5)"/><path d="M 862 722v 35h 35v -17.5a 17.5 17.5, 0, 0, 0, -17.5 -17.5" transform="rotate(90,879.5,739.5)"/><path d="M 932 722v 35h 17.5a 17.5 17.5, 0, 0, 0, 0 -35" transform="rotate(90,949.5,739.5)"/><path d="M 1002 722v 35h 17.5a 17.5 17.5, 0, 0, 0, 0 -35" transform="rotate(180,1019.5,739.5)"/><path d="M 1037 722v 35h 35v -17.5a 17.5 17.5, 0, 0, 0, -17.5 -17.5" transform="rotate(0,1054.5,739.5)"/><rect x="1107" y="722" width="35" height="35" transform="rotate(0,1124.5,739.5)"/><path d="M 22 757v 35h 35v -17.5a 17.5 17.5, 0, 0, 0, -17.5 -17.5" transform="rotate(180,39.5,774.5)"/><path d="M 57 757v 35h 35v -17.5a 17.5 17.5, 0, 0, 0, -17.5 -17.5" transform="rotate(90,74.5,774.5)"/><path d="M 127 757v 35h 17.5a 17.5 17.5, 0, 0, 0, 0 -35" transform="rotate(-90,144.5,774.5)"/><circle cx="214.5" cy="774.5" r="17.5" transform="rotate(0,214.5,774.5)"/><path d="M 267 757v 35h 35v -17.5a 17.5 17.5, 0, 0, 0, -17.5 -17.5" transform="rotate(-90,284.5,774.5)"/><rect x="302" y="757" width="35" height="35" transform="rotate(0,319.5,774.5)"/><path d="M 337 757v 35h 17.5a 17.5 17.5, 0, 0, 0, 0 -35" transform="rotate(0,354.5,774.5)"/><path d="M 477 757v 35h 35v -17.5a 17.5 17.5, 0, 0, 0, -17.5 -17.5" transform="rotate(180,494.5,774.5)"/><rect x="512" y="757" width="35" height="35" transform="rotate(0,529.5,774.5)"/><path d="M 547 757v 35h 17.5a 17.5 17.5, 0, 0, 0, 0 -35" transform="rotate(0,564.5,774.5)"/><circle cx="669.5" cy="774.5" r="17.5" transform="rotate(0,669.5,774.5)"/><path d="M 792 757v 35h 35v -17.5a 17.5 17.5, 0, 0, 0, -17.5 -17.5" transform="rotate(180,809.5,774.5)"/><rect x="827" y="757" width="35" height="35" transform="rotate(0,844.5,774.5)"/><circle cx="914.5" cy="774.5" r="17.5" transform="rotate(0,914.5,774.5)"/><path d="M 967 757v 35h 17.5a 17.5 17.5, 0, 0, 0, 0 -35" transform="rotate(-90,984.5,774.5)"/><path d="M 1037 757v 35h 35v -17.5a 17.5 17.5, 0, 0, 0, -17.5 -17.5" transform="rotate(180,1054.5,774.5)"/><rect x="1072" y="757" width="35" height="35" transform="rotate(0,1089.5,774.5)"/><rect x="1107" y="757" width="35" height="35" transform="rotate(0,1124.5,774.5)"/><path d="M 92 792v 35h 17.5a 17.5 17.5, 0, 0, 0, 0 -35" transform="rotate(180,109.5,809.5)"/><path d="M 127 792v 35h 35v -17.5a 17.5 17.5, 0, 0, 0, -17.5 -17.5" transform="rotate(90,144.5,809.5)"/><path d="M 232 792v 35h 17.5a 17.5 17.5, 0, 0, 0, 0 -35" transform="rotate(180,249.5,809.5)"/><rect x="267" y="792" width="35" height="35" transform="rotate(0,284.5,809.5)"/><rect x="302" y="792" width="35" height="35" transform="rotate(0,319.5,809.5)"/><path d="M 442 792v 35h 17.5a 17.5 17.5, 0, 0, 0, 0 -35" transform="rotate(-90,459.5,809.5)"/><path d="M 582 792v 35h 17.5a 17.5 17.5, 0, 0, 0, 0 -35" transform="rotate(-90,599.5,809.5)"/><path d="M 722 792v 35h 17.5a 17.5 17.5, 0, 0, 0, 0 -35" transform="rotate(-90,739.5,809.5)"/><rect x="827" y="792" width="35" height="35" transform="rotate(0,844.5,809.5)"/><path d="M 862 792v 35h 35v -17.5a 17.5 17.5, 0, 0, 0, -17.5 -17.5" transform="rotate(0,879.5,809.5)"/><path d="M 967 792v 35h 35v -17.5a 17.5 17.5, 0, 0, 0, -17.5 -17.5" transform="rotate(180,984.5,809.5)"/><path d="M 1002 792v 35h 35v -17.5a 17.5 17.5, 0, 0, 0, -17.5 -17.5" transform="rotate(0,1019.5,809.5)"/><path d="M 1107 792v 35h 17.5a 17.5 17.5, 0, 0, 0, 0 -35" transform="rotate(90,1124.5,809.5)"/><path d="M 162 827v 35h 35v -17.5a 17.5 17.5, 0, 0, 0, -17.5 -17.5" transform="rotate(-90,179.5,844.5)"/><path d="M 197 827v 35h 17.5a 17.5 17.5, 0, 0, 0, 0 -35" transform="rotate(0,214.5,844.5)"/><path d="M 302 827v 35h 35v -17.5a 17.5 17.5, 0, 0, 0, -17.5 -17.5" transform="rotate(180,319.5,844.5)"/><rect x="337" y="827" width="35" height="35" transform="rotate(0,354.5,844.5)"/><rect x="372" y="827" width="35" height="35" transform="rotate(0,389.5,844.5)"/><rect x="407" y="827" width="35" height="35" transform="rotate(0,424.5,844.5)"/><rect x="442" y="827" width="35" height="35" transform="rotate(0,459.5,844.5)"/><rect x="477" y="827" width="35" height="35" transform="rotate(0,494.5,844.5)"/><rect x="512" y="827" width="35" height="35" transform="rotate(0,529.5,844.5)"/><rect x="547" y="827" width="35" height="35" transform="rotate(0,564.5,844.5)"/><path d="M 582 827v 35h 35v -17.5a 17.5 17.5, 0, 0, 0, -17.5 -17.5" transform="rotate(90,599.5,844.5)"/><path d="M 687 827v 35h 35v -17.5a 17.5 17.5, 0, 0, 0, -17.5 -17.5" transform="rotate(-90,704.5,844.5)"/><rect x="722" y="827" width="35" height="35" transform="rotate(0,739.5,844.5)"/><rect x="757" y="827" width="35" height="35" transform="rotate(0,774.5,844.5)"/><rect x="792" y="827" width="35" height="35" transform="rotate(0,809.5,844.5)"/><rect x="827" y="827" width="35" height="35" transform="rotate(0,844.5,844.5)"/><rect x="862" y="827" width="35" height="35" transform="rotate(0,879.5,844.5)"/><rect x="897" y="827" width="35" height="35" transform="rotate(0,914.5,844.5)"/><path d="M 932 827v 35h 35v -17.5a 17.5 17.5, 0, 0, 0, -17.5 -17.5" transform="rotate(0,949.5,844.5)"/><rect x="1002" y="827" width="35" height="35" transform="rotate(0,1019.5,844.5)"/><path d="M 22 862v 35h 17.5a 17.5 17.5, 0, 0, 0, 0 -35" transform="rotate(180,39.5,879.5)"/><path d="M 57 862v 35h 17.5a 17.5 17.5, 0, 0, 0, 0 -35" transform="rotate(0,74.5,879.5)"/><path d="M 127 862v 35h 17.5a 17.5 17.5, 0, 0, 0, 0 -35" transform="rotate(180,144.5,879.5)"/><path d="M 162 862v 35h 35v -17.5a 17.5 17.5, 0, 0, 0, -17.5 -17.5" transform="rotate(90,179.5,879.5)"/><path d="M 232 862v 35h 17.5a 17.5 17.5, 0, 0, 0, 0 -35" transform="rotate(180,249.5,879.5)"/><path d="M 267 862v 35h 17.5a 17.5 17.5, 0, 0, 0, 0 -35" transform="rotate(0,284.5,879.5)"/><rect x="337" y="862" width="35" height="35" transform="rotate(0,354.5,879.5)"/><rect x="477" y="862" width="35" height="35" transform="rotate(0,494.5,879.5)"/><rect x="512" y="862" width="35" height="35" transform="rotate(0,529.5,879.5)"/><path d="M 547 862v 35h 35v -17.5a 17.5 17.5, 0, 0, 0, -17.5 -17.5" transform="rotate(90,564.5,879.5)"/><path d="M 652 862v 35h 17.5a 17.5 17.5, 0, 0, 0, 0 -35" transform="rotate(180,669.5,879.5)"/><rect x="687" y="862" width="35" height="35" transform="rotate(0,704.5,879.5)"/><rect x="722" y="862" width="35" height="35" transform="rotate(0,739.5,879.5)"/><rect x="757" y="862" width="35" height="35" transform="rotate(0,774.5,879.5)"/><rect x="792" y="862" width="35" height="35" transform="rotate(0,809.5,879.5)"/><rect x="827" y="862" width="35" height="35" transform="rotate(0,844.5,879.5)"/><rect x="862" y="862" width="35" height="35" transform="rotate(0,879.5,879.5)"/><rect x="897" y="862" width="35" height="35" transform="rotate(0,914.5,879.5)"/><rect x="932" y="862" width="35" height="35" transform="rotate(0,949.5,879.5)"/><rect x="967" y="862" width="35" height="35" transform="rotate(0,984.5,879.5)"/><rect x="1002" y="862" width="35" height="35" transform="rotate(0,1019.5,879.5)"/><path d="M 1037 862v 35h 17.5a 17.5 17.5, 0, 0, 0, 0 -35" transform="rotate(0,1054.5,879.5)"/><path d="M 302 897v 35h 17.5a 17.5 17.5, 0, 0, 0, 0 -35" transform="rotate(180,319.5,914.5)"/><path d="M 337 897v 35h 35v -17.5a 17.5 17.5, 0, 0, 0, -17.5 -17.5" transform="rotate(90,354.5,914.5)"/><path d="M 407 897v 35h 17.5a 17.5 17.5, 0, 0, 0, 0 -35" transform="rotate(180,424.5,914.5)"/><rect x="442" y="897" width="35" height="35" transform="rotate(0,459.5,914.5)"/><rect x="477" y="897" width="35" height="35" transform="rotate(0,494.5,914.5)"/><path d="M 582 897v 35h 17.5a 17.5 17.5, 0, 0, 0, 0 -35" transform="rotate(180,599.5,914.5)"/><path d="M 617 897v 35h 35v -17.5a 17.5 17.5, 0, 0, 0, -17.5 -17.5" transform="rotate(0,634.5,914.5)"/><rect x="722" y="897" width="35" height="35" transform="rotate(0,739.5,914.5)"/><rect x="757" y="897" width="35" height="35" transform="rotate(0,774.5,914.5)"/><rect x="862" y="897" width="35" height="35" transform="rotate(0,879.5,914.5)"/><rect x="1002" y="897" width="35" height="35" transform="rotate(0,1019.5,914.5)"/><path d="M 1072 897v 35h 17.5a 17.5 17.5, 0, 0, 0, 0 -35" transform="rotate(180,1089.5,914.5)"/><path d="M 1107 897v 35h 35v -17.5a 17.5 17.5, 0, 0, 0, -17.5 -17.5" transform="rotate(0,1124.5,914.5)"/><rect x="442" y="932" width="35" height="35" transform="rotate(0,459.5,949.5)"/><rect x="477" y="932" width="35" height="35" transform="rotate(0,494.5,949.5)"/><rect x="617" y="932" width="35" height="35" transform="rotate(0,634.5,949.5)"/><path d="M 652 932v 35h 35v -17.5a 17.5 17.5, 0, 0, 0, -17.5 -17.5" transform="rotate(0,669.5,949.5)"/><path d="M 722 932v 35h 35v -17.5a 17.5 17.5, 0, 0, 0, -17.5 -17.5" transform="rotate(180,739.5,949.5)"/><rect x="757" y="932" width="35" height="35" transform="rotate(0,774.5,949.5)"/><path d="M 792 932v 35h 17.5a 17.5 17.5, 0, 0, 0, 0 -35" transform="rotate(0,809.5,949.5)"/><rect x="862" y="932" width="35" height="35" transform="rotate(0,879.5,949.5)"/><circle cx="949.5" cy="949.5" r="17.5" transform="rotate(0,949.5,949.5)"/><rect x="1002" y="932" width="35" height="35" transform="rotate(0,1019.5,949.5)"/><path d="M 1037 932v 35h 17.5a 17.5 17.5, 0, 0, 0, 0 -35" transform="rotate(0,1054.5,949.5)"/><rect x="1107" y="932" width="35" height="35" transform="rotate(0,1124.5,949.5)"/><path d="M 407 967v 35h 35v -17.5a 17.5 17.5, 0, 0, 0, -17.5 -17.5" transform="rotate(-90,424.5,984.5)"/><rect x="442" y="967" width="35" height="35" transform="rotate(0,459.5,984.5)"/><rect x="477" y="967" width="35" height="35" transform="rotate(0,494.5,984.5)"/><rect x="512" y="967" width="35" height="35" transform="rotate(0,529.5,984.5)"/><path d="M 547 967v 35h 35v -17.5a 17.5 17.5, 0, 0, 0, -17.5 -17.5" transform="rotate(0,564.5,984.5)"/><path d="M 617 967v 35h 35v -17.5a 17.5 17.5, 0, 0, 0, -17.5 -17.5" transform="rotate(180,634.5,984.5)"/><rect x="652" y="967" width="35" height="35" transform="rotate(0,669.5,984.5)"/><rect x="757" y="967" width="35" height="35" transform="rotate(0,774.5,984.5)"/><rect x="862" y="967" width="35" height="35" transform="rotate(0,879.5,984.5)"/><rect x="1002" y="967" width="35" height="35" transform="rotate(0,1019.5,984.5)"/><path d="M 1107 967v 35h 35v -17.5a 17.5 17.5, 0, 0, 0, -17.5 -17.5" transform="rotate(180,1124.5,984.5)"/><path d="M 1142 967v 35h 17.5a 17.5 17.5, 0, 0, 0, 0 -35" transform="rotate(0,1159.5,984.5)"/><path d="M 302 1002v 35h 17.5a 17.5 17.5, 0, 0, 0, 0 -35" transform="rotate(180,319.5,1019.5)"/><rect x="337" y="1002" width="35" height="35" transform="rotate(0,354.5,1019.5)"/><rect x="372" y="1002" width="35" height="35" transform="rotate(0,389.5,1019.5)"/><rect x="407" y="1002" width="35" height="35" transform="rotate(0,424.5,1019.5)"/><rect x="442" y="1002" width="35" height="35" transform="rotate(0,459.5,1019.5)"/><rect x="547" y="1002" width="35" height="35" transform="rotate(0,564.5,1019.5)"/><path d="M 652 1002v 35h 17.5a 17.5 17.5, 0, 0, 0, 0 -35" transform="rotate(90,669.5,1019.5)"/><path d="M 722 1002v 35h 17.5a 17.5 17.5, 0, 0, 0, 0 -35" transform="rotate(180,739.5,1019.5)"/><rect x="757" y="1002" width="35" height="35" transform="rotate(0,774.5,1019.5)"/><rect x="862" y="1002" width="35" height="35" transform="rotate(0,879.5,1019.5)"/><rect x="897" y="1002" width="35" height="35" transform="rotate(0,914.5,1019.5)"/><rect x="932" y="1002" width="35" height="35" transform="rotate(0,949.5,1019.5)"/><rect x="967" y="1002" width="35" height="35" transform="rotate(0,984.5,1019.5)"/><rect x="1002" y="1002" width="35" height="35" transform="rotate(0,1019.5,1019.5)"/><path d="M 1037 1002v 35h 17.5a 17.5 17.5, 0, 0, 0, 0 -35" transform="rotate(0,1054.5,1019.5)"/><rect x="337" y="1037" width="35" height="35" transform="rotate(0,354.5,1054.5)"/><rect x="372" y="1037" width="35" height="35" transform="rotate(0,389.5,1054.5)"/><rect x="407" y="1037" width="35" height="35" transform="rotate(0,424.5,1054.5)"/><path d="M 442 1037v 35h 35v -17.5a 17.5 17.5, 0, 0, 0, -17.5 -17.5" transform="rotate(90,459.5,1054.5)"/><path d="M 512 1037v 35h 17.5a 17.5 17.5, 0, 0, 0, 0 -35" transform="rotate(180,529.5,1054.5)"/><rect x="547" y="1037" width="35" height="35" transform="rotate(0,564.5,1054.5)"/><path d="M 582 1037v 35h 35v -17.5a 17.5 17.5, 0, 0, 0, -17.5 -17.5" transform="rotate(0,599.5,1054.5)"/><rect x="757" y="1037" width="35" height="35" transform="rotate(0,774.5,1054.5)"/><path d="M 827 1037v 35h 17.5a 17.5 17.5, 0, 0, 0, 0 -35" transform="rotate(180,844.5,1054.5)"/><path d="M 862 1037v 35h 35v -17.5a 17.5 17.5, 0, 0, 0, -17.5 -17.5" transform="rotate(90,879.5,1054.5)"/><rect x="932" y="1037" width="35" height="35" transform="rotate(0,949.5,1054.5)"/><rect x="967" y="1037" width="35" height="35" transform="rotate(0,984.5,1054.5)"/><rect x="1002" y="1037" width="35" height="35" transform="rotate(0,1019.5,1054.5)"/><path d="M 1072 1037v 35h 35v -17.5a 17.5 17.5, 0, 0, 0, -17.5 -17.5" transform="rotate(-90,1089.5,1054.5)"/><path d="M 1107 1037v 35h 17.5a 17.5 17.5, 0, 0, 0, 0 -35" transform="rotate(0,1124.5,1054.5)"/><rect x="337" y="1072" width="35" height="35" transform="rotate(0,354.5,1089.5)"/><rect x="372" y="1072" width="35" height="35" transform="rotate(0,389.5,1089.5)"/><rect x="407" y="1072" width="35" height="35" transform="rotate(0,424.5,1089.5)"/><path d="M 477 1072v 35h 17.5a 17.5 17.5, 0, 0, 0, 0 -35" transform="rotate(-90,494.5,1089.5)"/><rect x="547" y="1072" width="35" height="35" transform="rotate(0,564.5,1089.5)"/><rect x="582" y="1072" width="35" height="35" transform="rotate(0,599.5,1089.5)"/><path d="M 617 1072v 35h 17.5a 17.5 17.5, 0, 0, 0, 0 -35" transform="rotate(0,634.5,1089.5)"/><path d="M 722 1072v 35h 35v -17.5a 17.5 17.5, 0, 0, 0, -17.5 -17.5" transform="rotate(-90,739.5,1089.5)"/><rect x="757" y="1072" width="35" height="35" transform="rotate(0,774.5,1089.5)"/><path d="M 897 1072v 35h 35v -17.5a 17.5 17.5, 0, 0, 0, -17.5 -17.5" transform="rotate(-90,914.5,1089.5)"/><rect x="932" y="1072" width="35" height="35" transform="rotate(0,949.5,1089.5)"/><rect x="967" y="1072" width="35" height="35" transform="rotate(0,984.5,1089.5)"/><rect x="1002" y="1072" width="35" height="35" transform="rotate(0,1019.5,1089.5)"/><rect x="1037" y="1072" width="35" height="35" transform="rotate(0,1054.5,1089.5)"/><path d="M 1072 1072v 35h 35v -17.5a 17.5 17.5, 0, 0, 0, -17.5 -17.5" transform="rotate(90,1089.5,1089.5)"/><path d="M 302 1107v 35h 17.5a 17.5 17.5, 0, 0, 0, 0 -35" transform="rotate(180,319.5,1124.5)"/><rect x="337" y="1107" width="35" height="35" transform="rotate(0,354.5,1124.5)"/><rect x="372" y="1107" width="35" height="35" transform="rotate(0,389.5,1124.5)"/><path d="M 407 1107v 35h 35v -17.5a 17.5 17.5, 0, 0, 0, -17.5 -17.5" transform="rotate(90,424.5,1124.5)"/><rect x="477" y="1107" width="35" height="35" transform="rotate(0,494.5,1124.5)"/><rect x="512" y="1107" width="35" height="35" transform="rotate(0,529.5,1124.5)"/><path d="M 547 1107v 35h 35v -17.5a 17.5 17.5, 0, 0, 0, -17.5 -17.5" transform="rotate(90,564.5,1124.5)"/><circle cx="669.5" cy="1124.5" r="17.5" transform="rotate(0,669.5,1124.5)"/><path d="M 722 1107v 35h 35v -17.5a 17.5 17.5, 0, 0, 0, -17.5 -17.5" transform="rotate(180,739.5,1124.5)"/><rect x="757" y="1107" width="35" height="35" transform="rotate(0,774.5,1124.5)"/><rect x="792" y="1107" width="35" height="35" transform="rotate(0,809.5,1124.5)"/><rect x="827" y="1107" width="35" height="35" transform="rotate(0,844.5,1124.5)"/><rect x="862" y="1107" width="35" height="35" transform="rotate(0,879.5,1124.5)"/><rect x="897" y="1107" width="35" height="35" transform="rotate(0,914.5,1124.5)"/><path d="M 337 1142v 35h 17.5a 17.5 17.5, 0, 0, 0, 0 -35" transform="rotate(90,354.5,1159.5)"/><path d="M 477 1142v 35h 17.5a 17.5 17.5, 0, 0, 0, 0 -35" transform="rotate(90,494.5,1159.5)"/><path d="M 582 1142v 35h 17.5a 17.5 17.5, 0, 0, 0, 0 -35" transform="rotate(180,599.5,1159.5)"/><path d="M 617 1142v 35h 17.5a 17.5 17.5, 0, 0, 0, 0 -35" transform="rotate(0,634.5,1159.5)"/><path d="M 757 1142v 35h 35v -17.5a 17.5 17.5, 0, 0, 0, -17.5 -17.5" transform="rotate(180,774.5,1159.5)"/><path d="M 792 1142v 35h 35v -17.5a 17.5 17.5, 0, 0, 0, -17.5 -17.5" transform="rotate(90,809.5,1159.5)"/><path d="M 862 1142v 35h 35v -17.5a 17.5 17.5, 0, 0, 0, -17.5 -17.5" transform="rotate(180,879.5,1159.5)"/><rect x="897" y="1142" width="35" height="35" transform="rotate(0,914.5,1159.5)"/><path d="M 932 1142v 35h 17.5a 17.5 17.5, 0, 0, 0, 0 -35" transform="rotate(0,949.5,1159.5)"/><circle cx="1054.5" cy="1159.5" r="17.5" transform="rotate(0,1054.5,1159.5)"/><circle cx="1159.5" cy="1159.5" r="17.5" transform="rotate(0,1159.5,1159.5)"/></clipPath><clipPath id="clip-path-corners-square-color-0-0-13"><path clip-rule="evenodd" d="M 22 109.5v 70a 87.5 87.5, 0, 0, 0, 87.5 87.5h 70a 87.5 87.5, 0, 0, 0, 87.5 -87.5v -70a 87.5 87.5, 0, 0, 0, -87.5 -87.5h -70a 87.5 87.5, 0, 0, 0, -87.5 87.5M 109.5 57h 70a 52.5 52.5, 0, 0, 1, 52.5 52.5v 70a 52.5 52.5, 0, 0, 1, -52.5 52.5h -70a 52.5 52.5, 0, 0, 1, -52.5 -52.5v -70a 52.5 52.5, 0, 0, 1, 52.5 -52.5" transform="rotate(0,144.5,144.5)"/></clipPath><clipPath id="clip-path-corners-dot-color-0-0-13"><circle cx="144.5" cy="144.5" r="52.5" transform="rotate(0,144.5,144.5)"/></clipPath><clipPath id="clip-path-corners-square-color-1-0-13"><path clip-rule="evenodd" d="M 932 109.5v 70a 87.5 87.5, 0, 0, 0, 87.5 87.5h 70a 87.5 87.5, 0, 0, 0, 87.5 -87.5v -70a 87.5 87.5, 0, 0, 0, -87.5 -87.5h -70a 87.5 87.5, 0, 0, 0, -87.5 87.5M 1019.5 57h 70a 52.5 52.5, 0, 0, 1, 52.5 52.5v 70a 52.5 52.5, 0, 0, 1, -52.5 52.5h -70a 52.5 52.5, 0, 0, 1, -52.5 -52.5v -70a 52.5 52.5, 0, 0, 1, 52.5 -52.5" transform="rotate(90,1054.5,144.5)"/></clipPath><clipPath id="clip-path-corners-dot-color-1-0-13"><circle cx="1054.5" cy="144.5" r="52.5" transform="rotate(90,1054.5,144.5)"/></clipPath><clipPath id="clip-path-corners-square-color-0-1-13"><path clip-rule="evenodd" d="M 22 1019.5v 70a 87.5 87.5, 0, 0, 0, 87.5 87.5h 70a 87.5 87.5, 0, 0, 0, 87.5 -87.5v -70a 87.5 87.5, 0, 0, 0, -87.5 -87.5h -70a 87.5 87.5, 0, 0, 0, -87.5 87.5M 109.5 967h 70a 52.5 52.5, 0, 0, 1, 52.5 52.5v 70a 52.5 52.5, 0, 0, 1, -52.5 52.5h -70a 52.5 52.5, 0, 0, 1, -52.5 -52.5v -70a 52.5 52.5, 0, 0, 1, 52.5 -52.5" transform="rotate(-90,144.5,1054.5)"/></clipPath><clipPath id="clip-path-corners-dot-color-0-1-13"><circle cx="144.5" cy="1054.5" r="52.5" transform="rotate(-90,144.5,1054.5)"/></clipPath></defs><rect x="0" y="0" height="1200" width="1200" clip-path="url('#clip-path-background-color-13')" fill="#ffffff"/><rect x="0" y="0" height="1200" width="1200" clip-path="url('#clip-path-dot-color-13')" fill="#000000"/><rect x="22" y="22" height="245" width="245" clip-path="url('#clip-path-corners-square-color-0-0-13')" fill="#000000"/><rect x="92" y="92" height="105" width="105" clip-path="url('#clip-path-corners-dot-color-0-0-13')" fill="#000000"/><rect x="932" y="22" height="245" width="245" clip-path="url('#clip-path-corners-square-color-1-0-13')" fill="#000000"/><rect x="1002" y="92" height="105" width="105" clip-path="url('#clip-path-corners-dot-color-1-0-13')" fill="#000000"/><rect x="22" y="932" height="245" width="245" clip-path="url('#clip-path-corners-square-color-0-1-13')" fill="#000000"/><rect x="92" y="1002" height="105" width="105" clip-path="url('#clip-path-corners-dot-color-0-1-13')" fill="#000000"/></svg>