<?xml version="1.0" standalone="no"?>
<svg xmlns="http://www.w3.org/2000/svg" width="1200" height="1200" xmlns:xlink="http://www.w3.org/1999/xlink" viewBox="0 0 1200 1200"><defs><clipPath id="clip-path-background-color-13"><rect x="0" y="0" width="1200" height="1200"/></clipPath><clipPath id="clip-path-dot-color-13"><path d="M 306 26v 28h 14a 14 14, 0, 0, 0, 0 -28" transform="rotate(-90,320,40)"/><path d="M 418 26v 28h 14a 14 14, 0, 0, 0, 0 -28" transform="rotate(-90,432,40)"/><circle cx="516" cy="40" r="14" transform="rotate(0,516,40)"/><path d="M 642 26v 28h 14a 14 14, 0, 0, 0, 0 -28" transform="rotate(-90,656,40)"/><path d="M 782 26v 28h 14a 14 14, 0, 0, 0, 0 -28" transform="rotate(180,796,40)"/><rect x="810" y="26" width="28" height="28" transform="rotate(0,824,40)"/><rect x="838" y="26" width="28" height="28" transform="rotate(0,852,40)"/><path d="M 866 26v 28h 28v -14a 14 14, 0, 0, 0, -14 -14" transform="rotate(0,880,40)"/><path d="M 306 54v 28h 28v -14a 14 14, 0, 0, 0, -14 -14" transform="rotate(180,320,68)"/><path d="M 334 54v 28h 28v -14a 14 14, 0, 0, 0, -14 -14" transform="rotate(0,348,68)"/><path d="M 390 54v 28h 28v -14a 14 14, 0, 0, 0, -14 -14" transform="rotate(-90,404,68)"/><rect x="418" y="54" width="28" height="28" transform="rotate(0,432,68)"/><rect x="446" y="54" width="28" height="28" transform="rotate(0,460,68)"/><path d="M 474 54v 28h 28v -14a 14 14, 0, 0, 0, -14 -14" transform="rotate(0,488,68)"/><path d="M 614 54v 28h 28v -14a 14 14, 0, 0, 0, -14 -14" transform="rotate(-90,628,68)"/><rect x="642" y="54" width="28" height="28" transform="rotate(0,656,68)"/><rect x="670" y="54" width="28" height="28" transform="rotate(0,684,68)"/><path d="M 698 54v 28h 28v -14a 14 14, 0, 0, 0, -14 -14" transform="rotate(0,712,68)"/><path d="M 810 54v 28h 14a 14 14, 0, 0, 0, 0 -28" transform="rotate(90,824,68)"/><rect x="866" y="54" width="28" height="28" transform="rotate(0,880,68)"/><path d="M 894 54v 28h 14a 14 14, 0, 0, 0, 0 -28" transform="rotate(0,908,68)"/><circle cx="264" cy="96" r="14" transform="rotate(0,264,96)"/><path d="M 334 82v 28h 14a 14 14, 0, 0, 0, 0 -28" transform="rotate(90,348,96)"/><path d="M 390 82v 28h 28v -14a 14 14, 0, 0, 0, -14 -14" transform="rotate(180,404,96)"/><rect x="418" y="82" width="28" height="28" transform="rotate(0,432,96)"/><rect x="446" y="82" width="28" height="28" transform="rotate(0,460,96)"/><rect x="474" y="82" width="28" height="28" transform="rotate(0,488,96)"/><rect x="502" y="82" width="28" height="28" transform="rotate(0,516,96)"/><path d="M 530 82v 28h 14a 14 14, 0, 0, 0, 0 -28" transform="rotate(0,544,96)"/><path d="M 586 82v 28h 14a 14 14, 0, 0, 0, 0 -28" transform="rotate(180,600,96)"/><rect x="614" y="82" width="28" height="28" transform="rotate(0,628,96)"/><path d="M 698 82v 28h 28v -14a 14 14, 0, 0, 0, -14 -14" transform="rotate(180,712,96)"/><path d="M 726 82v 28h 14a 14 14, 0, 0, 0, 0 -28" transform="rotate(0,740,96)"/><path d="M 782 82v 28h 14a 14 14, 0, 0, 0, 0 -28" transform="rotate(-90,796,96)"/><path d="M 838 82v 28h 28v -14a 14 14, 0, 0, 0, -14 -14" transform="rotate(-90,852,96)"/><path d="M 866 82v 28h 28v -14a 14 14, 0, 0, 0, -14 -14" transform="rotate(90,880,96)"/><path d="M 306 110v 28h 14a 14 14, 0, 0, 0, 0 -28" transform="rotate(-90,320,124)"/><path d="M 418 110v 28h 28v -14a 14 14, 0, 0, 0, -14 -14" transform="rotate(180,432,124)"/><rect x="446" y="110" width="28" height="28" transform="rotate(0,460,124)"/><rect x="474" y="110" width="28" height="28" transform="rotate(0,488,124)"/><rect x="502" y="110" width="28" height="28" transform="rotate(0,516,124)"/><rect x="614" y="110" width="28" height="28" transform="rotate(0,628,124)"/><path d="M 670 110v 28h 14a 14 14, 0, 0, 0, 0 -28" transform="rotate(-90,684,124)"/><path d="M 754 110v 28h 28v -14a 14 14, 0, 0, 0, -14 -14" transform="rotate(-90,768,124)"/><rect x="782" y="110" width="28" height="28" transform="rotate(0,796,124)"/><rect x="810" y="110" width="28" height="28" transform="rotate(0,824,124)"/><path d="M 838 110v 28h 28v -14a 14 14, 0, 0, 0, -14 -14" transform="rotate(90,852,124)"/><path d="M 894 110v 28h 14a 14 14, 0, 0, 0, 0 -28" transform="rotate(180,908,124)"/><path d="M 922 110v 28h 14a 14 14, 0, 0, 0, 0 -28" transform="rotate(0,936,124)"/><path d="M 250 138v 28h 14a 14 14, 0, 0, 0, 0 -28" transform="rotate(-90,264,152)"/><path d="M 306 138v 28h 28v -14a 14 14, 0, 0, 0, -14 -14" transform="rotate(180,320,152)"/><rect x="334" y="138" width="28" height="28" transform="rotate(0,348,152)"/><path d="M 362 138v 28h 14a 14 14, 0, 0, 0, 0 -28" transform="rotate(0,376,152)"/><path d="M 502 138v 28h 28v -14a 14 14, 0, 0, 0, -14 -14" transform="rotate(180,516,152)"/><path d="M 530 138v 28h 28v -14a 14 14, 0, 0, 0, -14 -14" transform="rotate(0,544,152)"/><path d="M 614 138v 28h 28v -14a 14 14, 0, 0, 0, -14 -14" transform="rotate(180,628,152)"/><rect x="642" y="138" width="28" height="28" transform="rotate(0,656,152)"/><path d="M 670 138v 28h 28v -14a 14 14, 0, 0, 0, -14 -14" transform="rotate(90,684,152)"/><path d="M 726 138v 28h 14a 14 14, 0, 0, 0, 0 -28" transform="rotate(180,740,152)"/><rect x="754" y="138" width="28" height="28" transform="rotate(0,768,152)"/><rect x="782" y="138" width="28" height="28" transform="rotate(0,796,152)"/><path d="M 810 138v 28h 28v -14a 14 14, 0, 0, 0, -14 -14" transform="rotate(90,824,152)"/><path d="M 866 138v 28h 14a 14 14, 0, 0, 0, 0 -28" transform="rotate(-90,880,152)"/><rect x="250" y="166" width="28" height="28" transform="rotate(0,264,180)"/><path d="M 278 166v 28h 14a 14 14, 0, 0, 0, 0 -28" transform="rotate(0,292,180)"/><circle cx="404" cy="180" r="14" transform="rotate(0,404,180)"/><path d="M 474 166v 28h 14a 14 14, 0, 0, 0, 0 -28" transform="rotate(-90,488,180)"/><rect x="530" y="166" width="28" height="28" transform="rotate(0,544,180)"/><path d="M 586 166v 28h 14a 14 14, 0, 0, 0, 0 -28" transform="rotate(-90,600,180)"/><path d="M 698 166v 28h 14a 14 14, 0, 0, 0, 0 -28" transform="rotate(-90,712,180)"/><rect x="754" y="166" width="28" height="28" transform="rotate(0,768,180)"/><path d="M 838 166v 28h 14a 14 14, 0, 0, 0, 0 -28" transform="rotate(180,852,180)"/><rect x="866" y="166" width="28" height="28" transform="rotate(0,880,180)"/><path d="M 894 166v 28h 14a 14 14, 0, 0, 0, 0 -28" transform="rotate(0,908,180)"/><path d="M 250 194v 28h 14a 14 14, 0, 0, 0, 0 -28" transform="rotate(90,264,208)"/><circle cx="320" cy="208" r="14" transform="rotate(0,320,208)"/><path d="M 362 194v 28h 14a 14 14, 0, 0, 0, 0 -28" transform="rotate(-90,376,208)"/><path d="M 418 194v 28h 14a 14 14, 0, 0, 0, 0 -28" transform="rotate(-90,432,208)"/><path d="M 474 194v 28h 14a 14 14, 0, 0, 0, 0 -28" transform="rotate(90,488,208)"/><path d="M 530 194v 28h 14a 14 14, 0, 0, 0, 0 -28" transform="rotate(90,544,208)"/><rect x="586" y="194" width="28" height="28" transform="rotate(0,600,208)"/><path d="M 642 194v 28h 14a 14 14, 0, 0, 0, 0 -28" transform="rotate(-90,656,208)"/><rect x="698" y="194" width="28" height="28" transform="rotate(0,712,208)"/><path d="M 754 194v 28h 14a 14 14, 0, 0, 0, 0 -28" transform="rotate(90,768,208)"/><path d="M 810 194v 28h 14a 14 14, 0, 0, 0, 0 -28" transform="rotate(-90,824,208)"/><rect x="866" y="194" width="28" height="28" transform="rotate(0,880,208)"/><path d="M 922 194v 28h 14a 14 14, 0, 0, 0, 0 -28" transform="rotate(-90,936,208)"/><circle cx="292" cy="236" r="14" transform="rotate(0,292,236)"/><path d="M 362 222v 28h 14a 14 14, 0, 0, 0, 0 -28" transform="rotate(90,376,236)"/><path d="M 418 222v 28h 14a 14 14, 0, 0, 0, 0 -28" transform="rotate(90,432,236)"/><path d="M 558 222v 28h 14a 14 14, 0, 0, 0, 0 -28" transform="rotate(180,572,236)"/><path d="M 586 222v 28h 28v -14a 14 14, 0, 0, 0, -14 -14" transform="rotate(90,600,236)"/><rect x="642" y="222" width="28" height="28" transform="rotate(0,656,236)"/><rect x="670" y="222" width="28" height="28" transform="rotate(0,684,236)"/><rect x="698" y="222" width="28" height="28" transform="rotate(0,712,236)"/><rect x="810" y="222" width="28" height="28" transform="rotate(0,824,236)"/><rect x="838" y="222" width="28" height="28" transform="rotate(0,852,236)"/><path d="M 866 222v 28h 28v -14a 14 14, 0, 0, 0, -14 -14" transform="rotate(90,880,236)"/><rect x="922" y="222" width="28" height="28" transform="rotate(0,936,236)"/><path d="M 54 250v 28h 14a 14 14, 0, 0, 0, 0 -28" transform="rotate(-90,68,264)"/><path d="M 138 250v 28h 14a 14 14, 0, 0, 0, 0 -28" transform="rotate(-90,152,264)"/><circle cx="208" cy="264" r="14" transform="rotate(0,208,264)"/><path d="M 250 250v 28h 14a 14 14, 0, 0, 0, 0 -28" transform="rotate(-90,264,264)"/><path d="M 306 250v 28h 28v -14a 14 14, 0, 0, 0, -14 -14" transform="rotate(-90,320,264)"/><path d="M 334 250v 28h 28v -14a 14 14, 0, 0, 0, -14 -14" transform="rotate(0,348,264)"/><path d="M 446 250v 28h 28v -14a 14 14, 0, 0, 0, -14 -14" transform="rotate(-90,460,264)"/><rect x="474" y="250" width="28" height="28" transform="rotate(0,488,264)"/><path d="M 502 250v 28h 28v -14a 14 14, 0, 0, 0, -14 -14" transform="rotate(0,516,264)"/><rect x="642" y="250" width="28" height="28" transform="rotate(0,656,264)"/><rect x="698" y="250" width="28" height="28" transform="rotate(0,712,264)"/><rect x="810" y="250" width="28" height="28" transform="rotate(0,824,264)"/><path d="M 838 250v 28h 28v -14a 14 14, 0, 0, 0, -14 -14" transform="rotate(90,852,264)"/><path d="M 894 250v 28h 14a 14 14, 0, 0, 0, 0 -28" transform="rotate(180,908,264)"/><rect x="922" y="250" width="28" height="28" transform="rotate(0,936,264)"/><path d="M 950 250v 28h 28v -14a 14 14, 0, 0, 0, -14 -14" transform="rotate(0,964,264)"/><path d="M 1006 250v 28h 28v -14a 14 14, 0, 0, 0, -14 -14" transform="rotate(-90,1020,264)"/><path d="M 1034 250v 28h 28v -14a 14 14, 0, 0, 0, -14 -14" transform="rotate(0,1048,264)"/><circle cx="1104" cy="264" r="14" transform="rotate(0,1104,264)"/><path d="M 26 278v 28h 28v -14a 14 14, 0, 0, 0, -14 -14" transform="rotate(-90,40,292)"/><rect x="54" y="278" width="28" height="28" transform="rotate(0,68,292)"/><rect x="82" y="278" width="28" height="28" transform="rotate(0,96,292)"/><rect x="110" y="278" width="28" height="28" transform="rotate(0,124,292)"/><rect x="138" y="278" width="28" height="28" transform="rotate(0,152,292)"/><rect x="250" y="278" width="28" height="28" transform="rotate(0,264,292)"/><path d="M 306 278v 28h 28v -14a 14 14, 0, 0, 0, -14 -14" transform="rotate(180,320,292)"/><rect x="334" y="278" width="28" height="28" transform="rotate(0,348,292)"/><rect x="362" y="278" width="28" height="28" transform="rotate(0,376,292)"/><rect x="390" y="278" width="28" height="28" transform="rotate(0,404,292)"/><rect x="418" y="278" width="28" height="28" transform="rotate(0,432,292)"/><rect x="446" y="278" width="28" height="28" transform="rotate(0,460,292)"/><rect x="474" y="278" width="28" height="28" transform="rotate(0,488,292)"/><path d="M 502 278v 28h 28v -14a 14 14, 0, 0, 0, -14 -14" transform="rotate(90,516,292)"/><path d="M 558 278v 28h 14a 14 14, 0, 0, 0, 0 -28" transform="rotate(-90,572,292)"/><path d="M 614 278v 28h 14a 14 14, 0, 0, 0, 0 -28" transform="rotate(180,628,292)"/><path d="M 642 278v 28h 28v -14a 14 14, 0, 0, 0, -14 -14" transform="rotate(90,656,292)"/><path d="M 698 278v 28h 28v -14a 14 14, 0, 0, 0, -14 -14" transform="rotate(180,712,292)"/><rect x="726" y="278" width="28" height="28" transform="rotate(0,740,292)"/><rect x="754" y="278" width="28" height="28" transform="rotate(0,768,292)"/><rect x="782" y="278" width="28" height="28" transform="rotate(0,796,292)"/><path d="M 810 278v 28h 28v -14a 14 14, 0, 0, 0, -14 -14" transform="rotate(90,824,292)"/><rect x="950" y="278" width="28" height="28" transform="rotate(0,964,292)"/><rect x="978" y="278" width="28" height="28" transform="rotate(0,992,292)"/><rect x="1006" y="278" width="28" height="28" transform="rotate(0,1020,292)"/><rect x="1034" y="278" width="28" height="28" transform="rotate(0,1048,292)"/><path d="M 1062 278v 28h 14a 14 14, 0, 0, 0, 0 -28" transform="rotate(0,1076,292)"/><path d="M 1118 278v 28h 14a 14 14, 0, 0, 0, 0 -28" transform="rotate(180,1132,292)"/><path d="M 1146 278v 28h 28v -14a 14 14, 0, 0, 0, -14 -14" transform="rotate(0,1160,292)"/><rect x="26" y="306" width="28" height="28" transform="rotate(0,40,320)"/><rect x="110" y="306" width="28" height="28" transform="rotate(0,124,320)"/><rect x="138" y="306" width="28" height="28" transform="rotate(0,152,320)"/><circle cx="208" cy="320" r="14" transform="rotate(0,208,320)"/><path d="M 250 306v 28h 28v -14a 14 14, 0, 0, 0, -14 -14" transform="rotate(180,264,320)"/><path d="M 278 306v 28h 14a 14 14, 0, 0, 0, 0 -28" transform="rotate(0,292,320)"/><rect x="362" y="306" width="28" height="28" transform="rotate(0,376,320)"/><path d="M 446 306v 28h 28v -14a 14 14, 0, 0, 0, -14 -14" transform="rotate(180,460,320)"/><path d="M 474 306v 28h 28v -14a 14 14, 0, 0, 0, -14 -14" transform="rotate(90,488,320)"/><path d="M 530 306v 28h 28v -14a 14 14, 0, 0, 0, -14 -14" transform="rotate(-90,544,320)"/><rect x="558" y="306" width="28" height="28" transform="rotate(0,572,320)"/><path d="M 586 306v 28h 28v -14a 14 14, 0, 0, 0, -14 -14" transform="rotate(0,600,320)"/><path d="M 670 306v 28h 14a 14 14, 0, 0, 0, 0 -28" transform="rotate(-90,684,320)"/><path d="M 754 306v 28h 28v -14a 14 14, 0, 0, 0, -14 -14" transform="rotate(180,768,320)"/><rect x="782" y="306" width="28" height="28" transform="rotate(0,796,320)"/><path d="M 922 306v 28h 28v -14a 14 14, 0, 0, 0, -14 -14" transform="rotate(-90,936,320)"/><path d="M 950 306v 28h 28v -14a 14 14, 0, 0, 0, -14 -14" transform="rotate(90,964,320)"/><path d="M 1146 306v 28h 14a 14 14, 0, 0, 0, 0 -28" transform="rotate(90,1160,320)"/><rect x="26" y="334" width="28" height="28" transform="rotate(0,40,348)"/><path d="M 110 334v 28h 28v -14a 14 14, 0, 0, 0, -14 -14" transform="rotate(180,124,348)"/><rect x="138" y="334" width="28" height="28" transform="rotate(0,152,348)"/><path d="M 166 334v 28h 14a 14 14, 0, 0, 0, 0 -28" transform="rotate(0,180,348)"/><path d="M 306 334v 28h 28v -14a 14 14, 0, 0, 0, -14 -14" transform="rotate(-90,320,348)"/><rect x="334" y="334" width="28" height="28" transform="rotate(0,348,348)"/><rect x="362" y="334" width="28" height="28" transform="rotate(0,376,348)"/><rect x="390" y="334" width="28" height="28" transform="rotate(0,404,348)"/><path d="M 418 334v 28h 14a 14 14, 0, 0, 0, 0 -28" transform="rotate(0,432,348)"/><path d="M 502 334v 28h 14a 14 14, 0, 0, 0, 0 -28" transform="rotate(180,516,348)"/><rect x="530" y="334" width="28" height="28" transform="rotate(0,544,348)"/><rect x="586" y="334" width="28" height="28" transform="rotate(0,600,348)"/><path d="M 614 334v 28h 28v -14a 14 14, 0, 0, 0, -14 -14" transform="rotate(0,628,348)"/><rect x="670" y="334" width="28" height="28" transform="rotate(0,684,348)"/><path d="M 782 334v 28h 14a 14 14, 0, 0, 0, 0 -28" transform="rotate(90,796,348)"/><path d="M 838 334v 28h 14a 14 14, 0, 0, 0, 0 -28" transform="rotate(-90,852,348)"/><path d="M 894 334v 28h 14a 14 14, 0, 0, 0, 0 -28" transform="rotate(180,908,348)"/><rect x="922" y="334" width="28" height="28" transform="rotate(0,936,348)"/><circle cx="992" cy="348" r="14" transform="rotate(0,992,348)"/><path d="M 1034 334v 28h 14a 14 14, 0, 0, 0, 0 -28" transform="rotate(180,1048,348)"/><path d="M 1062 334v 28h 14a 14 14, 0, 0, 0, 0 -28" transform="rotate(0,1076,348)"/><path d="M 26 362v 28h 28v -14a 14 14, 0, 0, 0, -14 -14" transform="rotate(180,40,376)"/><rect x="54" y="362" width="28" height="28" transform="rotate(0,68,376)"/><path d="M 82 362v 28h 14a 14 14, 0, 0, 0, 0 -28" transform="rotate(0,96,376)"/><path d="M 194 362v 28h 14a 14 14, 0, 0, 0, 0 -28" transform="rotate(180,208,376)"/><rect x="222" y="362" width="28" height="28" transform="rotate(0,236,376)"/><path d="M 250 362v 28h 28v -14a 14 14, 0, 0, 0, -14 -14" transform="rotate(0,264,376)"/><path d="M 306 362v 28h 28v -14a 14 14, 0, 0, 0, -14 -14" transform="rotate(180,320,376)"/><rect x="334" y="362" width="28" height="28" transform="rotate(0,348,376)"/><path d="M 362 362v 28h 28v -14a 14 14, 0, 0, 0, -14 -14" transform="rotate(90,376,376)"/><path d="M 530 362v 28h 14a 14 14, 0, 0, 0, 0 -28" transform="rotate(90,544,376)"/><path d="M 586 362v 28h 28v -14a 14 14, 0, 0, 0, -14 -14" transform="rotate(180,600,376)"/><rect x="614" y="362" width="28" height="28" transform="rotate(0,628,376)"/><rect x="642" y="362" width="28" height="28" transform="rotate(0,656,376)"/><rect x="670" y="362" width="28" height="28" transform="rotate(0,684,376)"/><path d="M 698 362v 28h 14a 14 14, 0, 0, 0, 0 -28" transform="rotate(0,712,376)"/><path d="M 754 362v 28h 14a 14 14, 0, 0, 0, 0 -28" transform="rotate(-90,768,376)"/><path d="M 810 362v 28h 14a 14 14, 0, 0, 0, 0 -28" transform="rotate(180,824,376)"/><rect x="838" y="362" width="28" height="28" transform="rotate(0,852,376)"/><path d="M 922 362v 28h 28v -14a 14 14, 0, 0, 0, -14 -14" transform="rotate(180,936,376)"/><path d="M 950 362v 28h 14a 14 14, 0, 0, 0, 0 -28" transform="rotate(0,964,376)"/><rect x="54" y="390" width="28" height="28" transform="rotate(0,68,404)"/><path d="M 110 390v 28h 28v -14a 14 14, 0, 0, 0, -14 -14" transform="rotate(-90,124,404)"/><rect x="138" y="390" width="28" height="28" transform="rotate(0,152,404)"/><path d="M 166 390v 28h 28v -14a 14 14, 0, 0, 0, -14 -14" transform="rotate(0,180,404)"/><path d="M 222 390v 28h 28v -14a 14 14, 0, 0, 0, -14 -14" transform="rotate(180,236,404)"/><rect x="250" y="390" width="28" height="28" transform="rotate(0,264,404)"/><path d="M 390 390v 28h 14a 14 14, 0, 0, 0, 0 -28" transform="rotate(180,404,404)"/><rect x="418" y="390" width="28" height="28" transform="rotate(0,432,404)"/><rect x="446" y="390" width="28" height="28" transform="rotate(0,460,404)"/><rect x="474" y="390" width="28" height="28" transform="rotate(0,488,404)"/><path d="M 502 390v 28h 28v -14a 14 14, 0, 0, 0, -14 -14" transform="rotate(0,516,404)"/><circle cx="572" cy="404" r="14" transform="rotate(0,572,404)"/><path d="M 614 390v 28h 28v -14a 14 14, 0, 0, 0, -14 -14" transform="rotate(180,628,404)"/><rect x="642" y="390" width="28" height="28" transform="rotate(0,656,404)"/><path d="M 726 390v 28h 28v -14a 14 14, 0, 0, 0, -14 -14" transform="rotate(-90,740,404)"/><path d="M 754 390v 28h 28v -14a 14 14, 0, 0, 0, -14 -14" transform="rotate(90,768,404)"/><rect x="838" y="390" width="28" height="28" transform="rotate(0,852,404)"/><path d="M 978 390v 28h 28v -14a 14 14, 0, 0, 0, -14 -14" transform="rotate(-90,992,404)"/><rect x="1006" y="390" width="28" height="28" transform="rotate(0,1020,404)"/><rect x="1034" y="390" width="28" height="28" transform="rotate(0,1048,404)"/><rect x="1062" y="390" width="28" height="28" transform="rotate(0,1076,404)"/><rect x="1090" y="390" width="28" height="28" transform="rotate(0,1104,404)"/><rect x="1118" y="390" width="28" height="28" transform="rotate(0,1132,404)"/><path d="M 1146 390v 28h 28v -14a 14 14, 0, 0, 0, -14 -14" transform="rotate(0,1160,404)"/><rect x="54" y="418" width="28" height="28" transform="rotate(0,68,432)"/><rect x="82" y="418" width="28" height="28" transform="rotate(0,96,432)"/><path d="M 110 418v 28h 28v -14a 14 14, 0, 0, 0, -14 -14" transform="rotate(90,124,432)"/><path d="M 166 418v 28h 28v -14a 14 14, 0, 0, 0, -14 -14" transform="rotate(180,180,432)"/><path d="M 194 418v 28h 14a 14 14, 0, 0, 0, 0 -28" transform="rotate(0,208,432)"/><path d="M 250 418v 28h 14a 14 14, 0, 0, 0, 0 -28" transform="rotate(90,264,432)"/><path d="M 306 418v 28h 14a 14 14, 0, 0, 0, 0 -28" transform="rotate(180,320,432)"/><path d="M 334 418v 28h 28v -14a 14 14, 0, 0, 0, -14 -14" transform="rotate(0,348,432)"/><path d="M 418 418v 28h 14a 14 14, 0, 0, 0, 0 -28" transform="rotate(90,432,432)"/><rect x="502" y="418" width="28" height="28" transform="rotate(0,516,432)"/><path d="M 530 418v 28h 14a 14 14, 0, 0, 0, 0 -28" transform="rotate(0,544,432)"/><path d="M 586 418v 28h 14a 14 14, 0, 0, 0, 0 -28" transform="rotate(-90,600,432)"/><path d="M 642 418v 28h 14a 14 14, 0, 0, 0, 0 -28" transform="rotate(90,656,432)"/><path d="M 726 418v 28h 14a 14 14, 0, 0, 0, 0 -28" transform="rotate(90,740,432)"/><path d="M 782 418v 28h 14a 14 14, 0, 0, 0, 0 -28" transform="rotate(-90,796,432)"/><rect x="838" y="418" width="28" height="28" transform="rotate(0,852,432)"/><path d="M 866 418v 28h 14a 14 14, 0, 0, 0, 0 -28" transform="rotate(0,880,432)"/><path d="M 950 418v 28h 14a 14 14, 0, 0, 0, 0 -28" transform="rotate(180,964,432)"/><path d="M 978 418v 28h 28v -14a 14 14, 0, 0, 0, -14 -14" transform="rotate(90,992,432)"/><rect x="1034" y="418" width="28" height="28" transform="rotate(0,1048,432)"/><rect x="1062" y="418" width="28" height="28" transform="rotate(0,1076,432)"/><path d="M 1090 418v 28h 28v -14a 14 14, 0, 0, 0, -14 -14" transform="rotate(90,1104,432)"/><rect x="1146" y="418" width="28" height="28" transform="rotate(0,1160,432)"/><path d="M 26 446v 28h 28v -14a 14 14, 0, 0, 0, -14 -14" transform="rotate(-90,40,460)"/><path d="M 54 446v 28h 28v -14a 14 14, 0, 0, 0, -14 -14" transform="rotate(90,68,460)"/><path d="M 138 446v 28h 14a 14 14, 0, 0, 0, 0 -28" transform="rotate(-90,152,460)"/><path d="M 278 446v 28h 14a 14 14, 0, 0, 0, 0 -28" transform="rotate(-90,292,460)"/><rect x="334" y="446" width="28" height="28" transform="rotate(0,348,460)"/><path d="M 362 446v 28h 14a 14 14, 0, 0, 0, 0 -28" transform="rotate(0,376,460)"/><path d="M 474 446v 28h 14a 14 14, 0, 0, 0, 0 -28" transform="rotate(180,488,460)"/><rect x="502" y="446" width="28" height="28" transform="rotate(0,516,460)"/><path d="M 558 446v 28h 14a 14 14, 0, 0, 0, 0 -28" transform="rotate(180,572,460)"/><rect x="586" y="446" width="28" height="28" transform="rotate(0,600,460)"/><path d="M 614 446v 28h 28v -14a 14 14, 0, 0, 0, -14 -14" transform="rotate(0,628,460)"/><circle cx="712" cy="460" r="14" transform="rotate(0,712,460)"/><path d="M 782 446v 28h 28v -14a 14 14, 0, 0, 0, -14 -14" transform="rotate(180,796,460)"/><rect x="810" y="446" width="28" height="28" transform="rotate(0,824,460)"/><rect x="838" y="446" width="28" height="28" transform="rotate(0,852,460)"/><path d="M 894 446v 28h 14a 14 14, 0, 0, 0, 0 -28" transform="rotate(180,908,460)"/><path d="M 922 446v 28h 14a 14 14, 0, 0, 0, 0 -28" transform="rotate(0,936,460)"/><path d="M 1034 446v 28h 28v -14a 14 14, 0, 0, 0, -14 -14" transform="rotate(180,1048,460)"/><rect x="1062" y="446" width="28" height="28" transform="rotate(0,1076,460)"/><path d="M 1146 446v 28h 14a 14 14, 0, 0, 0, 0 -28" transform="rotate(90,1160,460)"/><rect x="26" y="474" width="28" height="28" transform="rotate(0,40,488)"/><circle cx="96" cy="488" r="14" transform="rotate(0,96,488)"/><path d="M 138 474v 28h 14a 14 14, 0, 0, 0, 0 -28" transform="rotate(90,152,488)"/><circle cx="208" cy="488" r="14" transform="rotate(0,208,488)"/><path d="M 250 474v 28h 14a 14 14, 0, 0, 0, 0 -28" transform="rotate(180,264,488)"/><path d="M 278 474v 28h 28v -14a 14 14, 0, 0, 0, -14 -14" transform="rotate(90,292,488)"/><rect x="334" y="474" width="28" height="28" transform="rotate(0,348,488)"/><rect x="502" y="474" width="28" height="28" transform="rotate(0,516,488)"/><path d="M 530 474v 28h 14a 14 14, 0, 0, 0, 0 -28" transform="rotate(0,544,488)"/><rect x="614" y="474" width="28" height="28" transform="rotate(0,628,488)"/><path d="M 670 474v 28h 14a 14 14, 0, 0, 0, 0 -28" transform="rotate(-90,684,488)"/><rect x="810" y="474" width="28" height="28" transform="rotate(0,824,488)"/><rect x="838" y="474" width="28" height="28" transform="rotate(0,852,488)"/><path d="M 1006 474v 28h 14a 14 14, 0, 0, 0, 0 -28" transform="rotate(-90,1020,488)"/><rect x="1062" y="474" width="28" height="28" transform="rotate(0,1076,488)"/><circle cx="1132" cy="488" r="14" transform="rotate(0,1132,488)"/><rect x="26" y="502" width="28" height="28" transform="rotate(0,40,516)"/><path d="M 54 502v 28h 28v -14a 14 14, 0, 0, 0, -14 -14" transform="rotate(0,68,516)"/><circle cx="124" cy="516" r="14" transform="rotate(0,124,516)"/><rect x="334" y="502" width="28" height="28" transform="rotate(0,348,516)"/><rect x="362" y="502" width="28" height="28" transform="rotate(0,376,516)"/><path d="M 390 502v 28h 28v -14a 14 14, 0, 0, 0, -14 -14" transform="rotate(0,404,516)"/><rect x="502" y="502" width="28" height="28" transform="rotate(0,516,516)"/><circle cx="572" cy="516" r="14" transform="rotate(0,572,516)"/><rect x="614" y="502" width="28" height="28" transform="rotate(0,628,516)"/><rect x="670" y="502" width="28" height="28" transform="rotate(0,684,516)"/><path d="M 726 502v 28h 14a 14 14, 0, 0, 0, 0 -28" transform="rotate(180,740,516)"/><rect x="754" y="502" width="28" height="28" transform="rotate(0,768,516)"/><rect x="782" y="502" width="28" height="28" transform="rotate(0,796,516)"/><rect x="810" y="502" width="28" height="28" transform="rotate(0,824,516)"/><rect x="838" y="502" width="28" height="28" transform="rotate(0,852,516)"/><path d="M 866 502v 28h 28v -14a 14 14, 0, 0, 0, -14 -14" transform="rotate(0,880,516)"/><path d="M 950 502v 28h 28v -14a 14 14, 0, 0, 0, -14 -14" transform="rotate(-90,964,516)"/><rect x="978" y="502" width="28" height="28" transform="rotate(0,992,516)"/><rect x="1006" y="502" width="28" height="28" transform="rotate(0,1020,516)"/><rect x="1034" y="502" width="28" height="28" transform="rotate(0,1048,516)"/><rect x="1062" y="502" width="28" height="28" transform="rotate(0,1076,516)"/><path d="M 1090 502v 28h 28v -14a 14 14, 0, 0, 0, -14 -14" transform="rotate(0,1104,516)"/><path d="M 1146 502v 28h 14a 14 14, 0, 0, 0, 0 -28" transform="rotate(-90,1160,516)"/><path d="M 26 530v 28h 28v -14a 14 14, 0, 0, 0, -14 -14" transform="rotate(180,40,544)"/><rect x="54" y="530" width="28" height="28" transform="rotate(0,68,544)"/><path d="M 138 530v 28h 14a 14 14, 0, 0, 0, 0 -28" transform="rotate(180,152,544)"/><rect x="166" y="530" width="28" height="28" transform="rotate(0,180,544)"/><rect x="194" y="530" width="28" height="28" transform="rotate(0,208,544)"/><rect x="222" y="530" width="28" height="28" transform="rotate(0,236,544)"/><rect x="250" y="530" width="28" height="28" transform="rotate(0,264,544)"/><rect x="278" y="530" width="28" height="28" transform="rotate(0,292,544)"/><rect x="306" y="530" width="28" height="28" transform="rotate(0,320,544)"/><rect x="334" y="530" width="28" height="28" transform="rotate(0,348,544)"/><path d="M 390 530v 28h 14a 14 14, 0, 0, 0, 0 -28" transform="rotate(90,404,544)"/><path d="M 446 530v 28h 28v -14a 14 14, 0, 0, 0, -14 -14" transform="rotate(-90,460,544)"/><rect x="474" y="530" width="28" height="28" transform="rotate(0,488,544)"/><rect x="502" y="530" width="28" height="28" transform="rotate(0,516,544)"/><rect x="614" y="530" width="28" height="28" transform="rotate(0,628,544)"/><rect x="670" y="530" width="28" height="28" transform="rotate(0,684,544)"/><path d="M 698 530v 28h 28v -14a 14 14, 0, 0, 0, -14 -14" transform="rotate(0,712,544)"/><path d="M 782 530v 28h 14a 14 14, 0, 0, 0, 0 -28" transform="rotate(90,796,544)"/><path d="M 866 530v 28h 14a 14 14, 0, 0, 0, 0 -28" transform="rotate(90,880,544)"/><path d="M 950 530v 28h 14a 14 14, 0, 0, 0, 0 -28" transform="rotate(90,964,544)"/><rect x="1006" y="530" width="28" height="28" transform="rotate(0,1020,544)"/><path d="M 1090 530v 28h 14a 14 14, 0, 0, 0, 0 -28" transform="rotate(90,1104,544)"/><path d="M 1146 530v 28h 14a 14 14, 0, 0, 0, 0 -28" transform="rotate(90,1160,544)"/><path d="M 54 558v 28h 28v -14a 14 14, 0, 0, 0, -14 -14" transform="rotate(180,68,572)"/><rect x="82" y="558" width="28" height="28" transform="rotate(0,96,572)"/><path d="M 110 558v 28h 14a 14 14, 0, 0, 0, 0 -28" transform="rotate(0,124,572)"/><rect x="222" y="558" width="28" height="28" transform="rotate(0,236,572)"/><path d="M 278 558v 28h 28v -14a 14 14, 0, 0, 0, -14 -14" transform="rotate(180,292,572)"/><rect x="306" y="558" width="28" height="28" transform="rotate(0,320,572)"/><path d="M 334 558v 28h 28v -14a 14 14, 0, 0, 0, -14 -14" transform="rotate(90,348,572)"/><path d="M 418 558v 28h 28v -14a 14 14, 0, 0, 0, -14 -14" transform="rotate(-90,432,572)"/><rect x="446" y="558" width="28" height="28" transform="rotate(0,460,572)"/><path d="M 502 558v 28h 28v -14a 14 14, 0, 0, 0, -14 -14" transform="rotate(180,516,572)"/><path d="M 530 558v 28h 28v -14a 14 14, 0, 0, 0, -14 -14" transform="rotate(0,544,572)"/><path d="M 614 558v 28h 28v -14a 14 14, 0, 0, 0, -14 -14" transform="rotate(180,628,572)"/><rect x="642" y="558" width="28" height="28" transform="rotate(0,656,572)"/><rect x="670" y="558" width="28" height="28" transform="rotate(0,684,572)"/><rect x="698" y="558" width="28" height="28" transform="rotate(0,712,572)"/><path d="M 754 558v 28h 14a 14 14, 0, 0, 0, 0 -28" transform="rotate(-90,768,572)"/><path d="M 894 558v 28h 14a 14 14, 0, 0, 0, 0 -28" transform="rotate(180,908,572)"/><path d="M 922 558v 28h 28v -14a 14 14, 0, 0, 0, -14 -14" transform="rotate(0,936,572)"/><path d="M 978 558v 28h 14a 14 14, 0, 0, 0, 0 -28" transform="rotate(180,992,572)"/><rect x="1006" y="558" width="28" height="28" transform="rotate(0,1020,572)"/><path d="M 1062 558v 28h 14a 14 14, 0, 0, 0, 0 -28" transform="rotate(-90,1076,572)"/><path d="M 1118 558v 28h 14a 14 14, 0, 0, 0, 0 -28" transform="rotate(-90,1132,572)"/><path d="M 138 586v 28h 28v -14a 14 14, 0, 0, 0, -14 -14" transform="rotate(-90,152,600)"/><rect x="166" y="586" width="28" height="28" transform="rotate(0,180,600)"/><rect x="194" y="586" width="28" height="28" transform="rotate(0,208,600)"/><rect x="222" y="586" width="28" height="28" transform="rotate(0,236,600)"/><path d="M 250 586v 28h 14a 14 14, 0, 0, 0, 0 -28" transform="rotate(0,264,600)"/><path d="M 306 586v 28h 14a 14 14, 0, 0, 0, 0 -28" transform="rotate(90,320,600)"/><path d="M 362 586v 28h 28v -14a 14 14, 0, 0, 0, -14 -14" transform="rotate(-90,376,600)"/><rect x="390" y="586" width="28" height="28" transform="rotate(0,404,600)"/><rect x="418" y="586" width="28" height="28" transform="rotate(0,432,600)"/><rect x="446" y="586" width="28" height="28" transform="rotate(0,460,600)"/><path d="M 474 586v 28h 28v -14a 14 14, 0, 0, 0, -14 -14" transform="rotate(0,488,600)"/><path d="M 530 586v 28h 28v -14a 14 14, 0, 0, 0, -14 -14" transform="rotate(180,544,600)"/><path d="M 558 586v 28h 14a 14 14, 0, 0, 0, 0 -28" transform="rotate(0,572,600)"/><rect x="642" y="586" width="28" height="28" transform="rotate(0,656,600)"/><rect x="670" y="586" width="28" height="28" transform="rotate(0,684,600)"/><rect x="698" y="586" width="28" height="28" transform="rotate(0,712,600)"/><rect x="726" y="586" width="28" height="28" transform="rotate(0,740,600)"/><path d="M 754 586v 28h 28v -14a 14 14, 0, 0, 0, -14 -14" transform="rotate(90,768,600)"/><path d="M 810 586v 28h 14a 14 14, 0, 0, 0, 0 -28" transform="rotate(-90,824,600)"/><path d="M 922 586v 28h 28v -14a 14 14, 0, 0, 0, -14 -14" transform="rotate(180,936,600)"/><path d="M 950 586v 28h 14a 14 14, 0, 0, 0, 0 -28" transform="rotate(0,964,600)"/><rect x="1006" y="586" width="28" height="28" transform="rotate(0,1020,600)"/><path d="M 1062 586v 28h 14a 14 14, 0, 0, 0, 0 -28" transform="rotate(90,1076,600)"/><path d="M 1118 586v 28h 28v -14a 14 14, 0, 0, 0, -14 -14" transform="rotate(180,1132,600)"/><path d="M 1146 586v 28h 28v -14a 14 14, 0, 0, 0, -14 -14" transform="rotate(0,1160,600)"/><circle cx="40" cy="628" r="14" transform="rotate(0,40,628)"/><circle cx="96" cy="628" r="14" transform="rotate(0,96,628)"/><path d="M 138 614v 28h 14a 14 14, 0, 0, 0, 0 -28" transform="rotate(90,152,628)"/><circle cx="292" cy="628" r="14" transform="rotate(0,292,628)"/><path d="M 334 614v 28h 14a 14 14, 0, 0, 0, 0 -28" transform="rotate(180,348,628)"/><rect x="362" y="614" width="28" height="28" transform="rotate(0,376,628)"/><path d="M 390 614v 28h 28v -14a 14 14, 0, 0, 0, -14 -14" transform="rotate(90,404,628)"/><rect x="474" y="614" width="28" height="28" transform="rotate(0,488,628)"/><path d="M 502 614v 28h 28v -14a 14 14, 0, 0, 0, -14 -14" transform="rotate(0,516,628)"/><path d="M 586 614v 28h 14a 14 14, 0, 0, 0, 0 -28" transform="rotate(180,600,628)"/><rect x="614" y="614" width="28" height="28" transform="rotate(0,628,628)"/><rect x="642" y="614" width="28" height="28" transform="rotate(0,656,628)"/><rect x="670" y="614" width="28" height="28" transform="rotate(0,684,628)"/><path d="M 726 614v 28h 14a 14 14, 0, 0, 0, 0 -28" transform="rotate(90,740,628)"/><path d="M 782 614v 28h 28v -14a 14 14, 0, 0, 0, -14 -14" transform="rotate(-90,796,628)"/><path d="M 810 614v 28h 28v -14a 14 14, 0, 0, 0, -14 -14" transform="rotate(90,824,628)"/><path d="M 866 614v 28h 14a 14 14, 0, 0, 0, 0 -28" transform="rotate(-90,880,628)"/><path d="M 978 614v 28h 28v -14a 14 14, 0, 0, 0, -14 -14" transform="rotate(-90,992,628)"/><rect x="1006" y="614" width="28" height="28" transform="rotate(0,1020,628)"/><path d="M 1034 614v 28h 28v -14a 14 14, 0, 0, 0, -14 -14" transform="rotate(0,1048,628)"/><circle cx="1104" cy="628" r="14" transform="rotate(0,1104,628)"/><rect x="1146" y="614" width="28" height="28" transform="rotate(0,1160,628)"/><path d="M 166 642v 28h 14a 14 14, 0, 0, 0, 0 -28" transform="rotate(180,180,656)"/><rect x="194" y="642" width="28" height="28" transform="rotate(0,208,656)"/><rect x="222" y="642" width="28" height="28" transform="rotate(0,236,656)"/><path d="M 250 642v 28h 14a 14 14, 0, 0, 0, 0 -28" transform="rotate(0,264,656)"/><path d="M 306 642v 28h 14a 14 14, 0, 0, 0, 0 -28" transform="rotate(-90,320,656)"/><rect x="474" y="642" width="28" height="28" transform="rotate(0,488,656)"/><path d="M 502 642v 28h 28v -14a 14 14, 0, 0, 0, -14 -14" transform="rotate(90,516,656)"/><circle cx="572" cy="656" r="14" transform="rotate(0,572,656)"/><rect x="670" y="642" width="28" height="28" transform="rotate(0,684,656)"/><path d="M 698 642v 28h 28v -14a 14 14, 0, 0, 0, -14 -14" transform="rotate(0,712,656)"/><path d="M 754 642v 28h 28v -14a 14 14, 0, 0, 0, -14 -14" transform="rotate(-90,768,656)"/><rect x="782" y="642" width="28" height="28" transform="rotate(0,796,656)"/><path d="M 838 642v 28h 28v -14a 14 14, 0, 0, 0, -14 -14" transform="rotate(-90,852,656)"/><rect x="866" y="642" width="28" height="28" transform="rotate(0,880,656)"/><circle cx="936" cy="656" r="14" transform="rotate(0,936,656)"/><path d="M 978 642v 28h 28v -14a 14 14, 0, 0, 0, -14 -14" transform="rotate(180,992,656)"/><rect x="1006" y="642" width="28" height="28" transform="rotate(0,1020,656)"/><path d="M 1034 642v 28h 28v -14a 14 14, 0, 0, 0, -14 -14" transform="rotate(90,1048,656)"/><rect x="1146" y="642" width="28" height="28" transform="rotate(0,1160,656)"/><path d="M 54 670v 28h 14a 14 14, 0, 0, 0, 0 -28" transform="rotate(180,68,684)"/><rect x="82" y="670" width="28" height="28" transform="rotate(0,96,684)"/><rect x="110" y="670" width="28" height="28" transform="rotate(0,124,684)"/><path d="M 138 670v 28h 14a 14 14, 0, 0, 0, 0 -28" transform="rotate(0,152,684)"/><path d="M 278 670v 28h 14a 14 14, 0, 0, 0, 0 -28" transform="rotate(180,292,684)"/><rect x="306" y="670" width="28" height="28" transform="rotate(0,320,684)"/><path d="M 334 670v 28h 14a 14 14, 0, 0, 0, 0 -28" transform="rotate(0,348,684)"/><path d="M 418 670v 28h 14a 14 14, 0, 0, 0, 0 -28" transform="rotate(180,432,684)"/><rect x="446" y="670" width="28" height="28" transform="rotate(0,460,684)"/><path d="M 474 670v 28h 28v -14a 14 14, 0, 0, 0, -14 -14" transform="rotate(90,488,684)"/><path d="M 586 670v 28h 14a 14 14, 0, 0, 0, 0 -28" transform="rotate(180,600,684)"/><path d="M 614 670v 28h 28v -14a 14 14, 0, 0, 0, -14 -14" transform="rotate(0,628,684)"/><path d="M 670 670v 28h 28v -14a 14 14, 0, 0, 0, -14 -14" transform="rotate(180,684,684)"/><path d="M 698 670v 28h 28v -14a 14 14, 0, 0, 0, -14 -14" transform="rotate(90,712,684)"/><path d="M 754 670v 28h 28v -14a 14 14, 0, 0, 0, -14 -14" transform="rotate(180,768,684)"/><rect x="782" y="670" width="28" height="28" transform="rotate(0,796,684)"/><rect x="810" y="670" width="28" height="28" transform="rotate(0,824,684)"/><rect x="838" y="670" width="28" height="28" transform="rotate(0,852,684)"/><rect x="866" y="670" width="28" height="28" transform="rotate(0,880,684)"/><path d="M 894 670v 28h 28v -14a 14 14, 0, 0, 0, -14 -14" transform="rotate(0,908,684)"/><path d="M 950 670v 28h 14a 14 14, 0, 0, 0, 0 -28" transform="rotate(-90,964,684)"/><path d="M 1006 670v 28h 14a 14 14, 0, 0, 0, 0 -28" transform="rotate(90,1020,684)"/><path d="M 1062 670v 28h 14a 14 14, 0, 0, 0, 0 -28" transform="rotate(-90,1076,684)"/><path d="M 1146 670v 28h 14a 14 14, 0, 0, 0, 0 -28" transform="rotate(90,1160,684)"/><path d="M 82 698v 28h 14a 14 14, 0, 0, 0, 0 -28" transform="rotate(90,96,712)"/><path d="M 194 698v 28h 14a 14 14, 0, 0, 0, 0 -28" transform="rotate(180,208,712)"/><path d="M 222 698v 28h 14a 14 14, 0, 0, 0, 0 -28" transform="rotate(0,236,712)"/><circle cx="376" cy="712" r="14" transform="rotate(0,376,712)"/><circle cx="544" cy="712" r="14" transform="rotate(0,544,712)"/><path d="M 614 698v 28h 28v -14a 14 14, 0, 0, 0, -14 -14" transform="rotate(180,628,712)"/><path d="M 642 698v 28h 14a 14 14, 0, 0, 0, 0 -28" transform="rotate(0,656,712)"/><rect x="810" y="698" width="28" height="28" transform="rotate(0,824,712)"/><path d="M 838 698v 28h 28v -14a 14 14, 0, 0, 0, -14 -14" transform="rotate(90,852,712)"/><path d="M 894 698v 28h 28v -14a 14 14, 0, 0, 0, -14 -14" transform="rotate(180,908,712)"/><rect x="922" y="698" width="28" height="28" transform="rotate(0,936,712)"/><path d="M 950 698v 28h 28v -14a 14 14, 0, 0, 0, -14 -14" transform="rotate(90,964,712)"/><path d="M 1062 698v 28h 14a 14 14, 0, 0, 0, 0 -28" transform="rotate(90,1076,712)"/><path d="M 138 726v 28h 14a 14 14, 0, 0, 0, 0 -28" transform="rotate(-90,152,740)"/><circle cx="264" cy="740" r="14" transform="rotate(0,264,740)"/><path d="M 306 726v 28h 14a 14 14, 0, 0, 0, 0 -28" transform="rotate(-90,320,740)"/><path d="M 446 726v 28h 14a 14 14, 0, 0, 0, 0 -28" transform="rotate(180,460,740)"/><path d="M 474 726v 28h 14a 14 14, 0, 0, 0, 0 -28" transform="rotate(0,488,740)"/><path d="M 670 726v 28h 14a 14 14, 0, 0, 0, 0 -28" transform="rotate(-90,684,740)"/><path d="M 754 726v 28h 28v -14a 14 14, 0, 0, 0, -14 -14" transform="rotate(-90,768,740)"/><rect x="782" y="726" width="28" height="28" transform="rotate(0,796,740)"/><rect x="810" y="726" width="28" height="28" transform="rotate(0,824,740)"/><path d="M 866 726v 28h 14a 14 14, 0, 0, 0, 0 -28" transform="rotate(-90,880,740)"/><rect x="922" y="726" width="28" height="28" transform="rotate(0,936,740)"/><circle cx="992" cy="740" r="14" transform="rotate(0,992,740)"/><path d="M 1034 726v 28h 14a 14 14, 0, 0, 0, 0 -28" transform="rotate(-90,1048,740)"/><path d="M 1090 726v 28h 14a 14 14, 0, 0, 0, 0 -28" transform="rotate(180,1104,740)"/><rect x="1118" y="726" width="28" height="28" transform="rotate(0,1132,740)"/><path d="M 1146 726v 28h 28v -14a 14 14, 0, 0, 0, -14 -14" transform="rotate(0,1160,740)"/><path d="M 26 754v 28h 28v -14a 14 14, 0, 0, 0, -14 -14" transform="rotate(-90,40,768)"/><rect x="54" y="754" width="28" height="28" transform="rotate(0,68,768)"/><path d="M 82 754v 28h 28v -14a 14 14, 0, 0, 0, -14 -14" transform="rotate(0,96,768)"/><rect x="138" y="754" width="28" height="28" transform="rotate(0,152,768)"/><rect x="166" y="754" width="28" height="28" transform="rotate(0,180,768)"/><path d="M 194 754v 28h 14a 14 14, 0, 0, 0, 0 -28" transform="rotate(0,208,768)"/><rect x="306" y="754" width="28" height="28" transform="rotate(0,320,768)"/><path d="M 390 754v 28h 28v -14a 14 14, 0, 0, 0, -14 -14" transform="rotate(-90,404,768)"/><path d="M 418 754v 28h 28v -14a 14 14, 0, 0, 0, -14 -14" transform="rotate(0,432,768)"/><path d="M 502 754v 28h 28v -14a 14 14, 0, 0, 0, -14 -14" transform="rotate(-90,516,768)"/><rect x="530" y="754" width="28" height="28" transform="rotate(0,544,768)"/><path d="M 558 754v 28h 14a 14 14, 0, 0, 0, 0 -28" transform="rotate(0,572,768)"/><rect x="670" y="754" width="28" height="28" transform="rotate(0,684,768)"/><rect x="754" y="754" width="28" height="28" transform="rotate(0,768,768)"/><rect x="782" y="754" width="28" height="28" transform="rotate(0,796,768)"/><rect x="810" y="754" width="28" height="28" transform="rotate(0,824,768)"/><rect x="838" y="754" width="28" height="28" transform="rotate(0,852,768)"/><path d="M 866 754v 28h 28v -14a 14 14, 0, 0, 0, -14 -14" transform="rotate(90,880,768)"/><rect x="922" y="754" width="28" height="28" transform="rotate(0,936,768)"/><path d="M 1034 754v 28h 14a 14 14, 0, 0, 0, 0 -28" transform="rotate(90,1048,768)"/><rect x="1146" y="754" width="28" height="28" transform="rotate(0,1160,768)"/><rect x="26" y="782" width="28" height="28" transform="rotate(0,40,796)"/><path d="M 82 782v 28h 14a 14 14, 0, 0, 0, 0 -28" transform="rotate(90,96,796)"/><rect x="138" y="782" width="28" height="28" transform="rotate(0,152,796)"/><path d="M 166 782v 28h 28v -14a 14 14, 0, 0, 0, -14 -14" transform="rotate(90,180,796)"/><path d="M 250 782v 28h 14a 14 14, 0, 0, 0, 0 -28" transform="rotate(-90,264,796)"/><rect x="306" y="782" width="28" height="28" transform="rotate(0,320,796)"/><path d="M 334 782v 28h 14a 14 14, 0, 0, 0, 0 -28" transform="rotate(0,348,796)"/><path d="M 390 782v 28h 28v -14a 14 14, 0, 0, 0, -14 -14" transform="rotate(180,404,796)"/><rect x="418" y="782" width="28" height="28" transform="rotate(0,432,796)"/><rect x="446" y="782" width="28" height="28" transform="rotate(0,460,796)"/><rect x="474" y="782" width="28" height="28" transform="rotate(0,488,796)"/><rect x="502" y="782" width="28" height="28" transform="rotate(0,516,796)"/><path d="M 586 782v 28h 28v -14a 14 14, 0, 0, 0, -14 -14" transform="rotate(-90,600,796)"/><path d="M 614 782v 28h 14a 14 14, 0, 0, 0, 0 -28" transform="rotate(0,628,796)"/><rect x="670" y="782" width="28" height="28" transform="rotate(0,684,796)"/><path d="M 698 782v 28h 14a 14 14, 0, 0, 0, 0 -28" transform="rotate(0,712,796)"/><path d="M 754 782v 28h 28v -14a 14 14, 0, 0, 0, -14 -14" transform="rotate(180,768,796)"/><path d="M 782 782v 28h 28v -14a 14 14, 0, 0, 0, -14 -14" transform="rotate(90,796,796)"/><rect x="838" y="782" width="28" height="28" transform="rotate(0,852,796)"/><path d="M 894 782v 28h 14a 14 14, 0, 0, 0, 0 -28" transform="rotate(180,908,796)"/><rect x="922" y="782" width="28" height="28" transform="rotate(0,936,796)"/><path d="M 978 782v 28h 14a 14 14, 0, 0, 0, 0 -28" transform="rotate(180,992,796)"/><path d="M 1006 782v 28h 14a 14 14, 0, 0, 0, 0 -28" transform="rotate(0,1020,796)"/><circle cx="1076" cy="796" r="14" transform="rotate(0,1076,796)"/><rect x="1146" y="782" width="28" height="28" transform="rotate(0,1160,796)"/><rect x="26" y="810" width="28" height="28" transform="rotate(0,40,824)"/><rect x="138" y="810" width="28" height="28" transform="rotate(0,152,824)"/><path d="M 194 810v 28h 14a 14 14, 0, 0, 0, 0 -28" transform="rotate(180,208,824)"/><rect x="222" y="810" width="28" height="28" transform="rotate(0,236,824)"/><rect x="250" y="810" width="28" height="28" transform="rotate(0,264,824)"/><rect x="278" y="810" width="28" height="28" transform="rotate(0,292,824)"/><path d="M 306 810v 28h 28v -14a 14 14, 0, 0, 0, -14 -14" transform="rotate(90,320,824)"/><path d="M 418 810v 28h 28v -14a 14 14, 0, 0, 0, -14 -14" transform="rotate(180,432,824)"/><rect x="446" y="810" width="28" height="28" transform="rotate(0,460,824)"/><rect x="474" y="810" width="28" height="28" transform="rotate(0,488,824)"/><rect x="502" y="810" width="28" height="28" transform="rotate(0,516,824)"/><path d="M 530 810v 28h 28v -14a 14 14, 0, 0, 0, -14 -14" transform="rotate(0,544,824)"/><rect x="586" y="810" width="28" height="28" transform="rotate(0,600,824)"/><path d="M 670 810v 28h 14a 14 14, 0, 0, 0, 0 -28" transform="rotate(90,684,824)"/><path d="M 838 810v 28h 14a 14 14, 0, 0, 0, 0 -28" transform="rotate(90,852,824)"/><path d="M 922 810v 28h 28v -14a 14 14, 0, 0, 0, -14 -14" transform="rotate(180,936,824)"/><path d="M 950 810v 28h 14a 14 14, 0, 0, 0, 0 -28" transform="rotate(0,964,824)"/><rect x="1146" y="810" width="28" height="28" transform="rotate(0,1160,824)"/><path d="M 26 838v 28h 28v -14a 14 14, 0, 0, 0, -14 -14" transform="rotate(180,40,852)"/><path d="M 54 838v 28h 14a 14 14, 0, 0, 0, 0 -28" transform="rotate(0,68,852)"/><path d="M 110 838v 28h 28v -14a 14 14, 0, 0, 0, -14 -14" transform="rotate(-90,124,852)"/><rect x="138" y="838" width="28" height="28" transform="rotate(0,152,852)"/><path d="M 166 838v 28h 14a 14 14, 0, 0, 0, 0 -28" transform="rotate(0,180,852)"/><path d="M 278 838v 28h 14a 14 14, 0, 0, 0, 0 -28" transform="rotate(90,292,852)"/><path d="M 334 838v 28h 14a 14 14, 0, 0, 0, 0 -28" transform="rotate(180,348,852)"/><path d="M 362 838v 28h 14a 14 14, 0, 0, 0, 0 -28" transform="rotate(0,376,852)"/><path d="M 502 838v 28h 28v -14a 14 14, 0, 0, 0, -14 -14" transform="rotate(180,516,852)"/><rect x="530" y="838" width="28" height="28" transform="rotate(0,544,852)"/><rect x="558" y="838" width="28" height="28" transform="rotate(0,572,852)"/><rect x="586" y="838" width="28" height="28" transform="rotate(0,600,852)"/><path d="M 698 838v 28h 28v -14a 14 14, 0, 0, 0, -14 -14" transform="rotate(-90,712,852)"/><rect x="726" y="838" width="28" height="28" transform="rotate(0,740,852)"/><path d="M 754 838v 28h 28v -14a 14 14, 0, 0, 0, -14 -14" transform="rotate(0,768,852)"/><path d="M 810 838v 28h 14a 14 14, 0, 0, 0, 0 -28" transform="rotate(-90,824,852)"/><path d="M 866 838v 28h 14a 14 14, 0, 0, 0, 0 -28" transform="rotate(-90,880,852)"/><circle cx="992" cy="852" r="14" transform="rotate(0,992,852)"/><circle cx="1048" cy="852" r="14" transform="rotate(0,1048,852)"/><rect x="1146" y="838" width="28" height="28" transform="rotate(0,1160,852)"/><path d="M 82 866v 28h 14a 14 14, 0, 0, 0, 0 -28" transform="rotate(180,96,880)"/><rect x="110" y="866" width="28" height="28" transform="rotate(0,124,880)"/><rect x="138" y="866" width="28" height="28" transform="rotate(0,152,880)"/><path d="M 194 866v 28h 14a 14 14, 0, 0, 0, 0 -28" transform="rotate(180,208,880)"/><path d="M 222 866v 28h 14a 14 14, 0, 0, 0, 0 -28" transform="rotate(0,236,880)"/><path d="M 306 866v 28h 14a 14 14, 0, 0, 0, 0 -28" transform="rotate(-90,320,880)"/><circle cx="404" cy="880" r="14" transform="rotate(0,404,880)"/><path d="M 530 866v 28h 14a 14 14, 0, 0, 0, 0 -28" transform="rotate(90,544,880)"/><rect x="586" y="866" width="28" height="28" transform="rotate(0,600,880)"/><path d="M 670 866v 28h 28v -14a 14 14, 0, 0, 0, -14 -14" transform="rotate(-90,684,880)"/><path d="M 698 866v 28h 28v -14a 14 14, 0, 0, 0, -14 -14" transform="rotate(90,712,880)"/><rect x="754" y="866" width="28" height="28" transform="rotate(0,768,880)"/><path d="M 810 866v 28h 14a 14 14, 0, 0, 0, 0 -28" transform="rotate(90,824,880)"/><path d="M 866 866v 28h 14a 14 14, 0, 0, 0, 0 -28" transform="rotate(90,880,880)"/><path d="M 922 866v 28h 14a 14 14, 0, 0, 0, 0 -28" transform="rotate(180,936,880)"/><path d="M 950 866v 28h 28v -14a 14 14, 0, 0, 0, -14 -14" transform="rotate(0,964,880)"/><path d="M 1062 866v 28h 28v -14a 14 14, 0, 0, 0, -14 -14" transform="rotate(-90,1076,880)"/><path d="M 1090 866v 28h 14a 14 14, 0, 0, 0, 0 -28" transform="rotate(0,1104,880)"/><path d="M 1146 866v 28h 14a 14 14, 0, 0, 0, 0 -28" transform="rotate(90,1160,880)"/><path d="M 138 894v 28h 28v -14a 14 14, 0, 0, 0, -14 -14" transform="rotate(180,152,908)"/><path d="M 166 894v 28h 14a 14 14, 0, 0, 0, 0 -28" transform="rotate(0,180,908)"/><path d="M 278 894v 28h 28v -14a 14 14, 0, 0, 0, -14 -14" transform="rotate(-90,292,908)"/><rect x="306" y="894" width="28" height="28" transform="rotate(0,320,908)"/><circle cx="376" cy="908" r="14" transform="rotate(0,376,908)"/><path d="M 418 894v 28h 14a 14 14, 0, 0, 0, 0 -28" transform="rotate(180,432,908)"/><rect x="446" y="894" width="28" height="28" transform="rotate(0,460,908)"/><rect x="474" y="894" width="28" height="28" transform="rotate(0,488,908)"/><path d="M 502 894v 28h 28v -14a 14 14, 0, 0, 0, -14 -14" transform="rotate(0,516,908)"/><path d="M 558 894v 28h 28v -14a 14 14, 0, 0, 0, -14 -14" transform="rotate(-90,572,908)"/><rect x="586" y="894" width="28" height="28" transform="rotate(0,600,908)"/><rect x="614" y="894" width="28" height="28" transform="rotate(0,628,908)"/><rect x="642" y="894" width="28" height="28" transform="rotate(0,656,908)"/><path d="M 670 894v 28h 28v -14a 14 14, 0, 0, 0, -14 -14" transform="rotate(90,684,908)"/><rect x="754" y="894" width="28" height="28" transform="rotate(0,768,908)"/><path d="M 838 894v 28h 14a 14 14, 0, 0, 0, 0 -28" transform="rotate(-90,852,908)"/><rect x="950" y="894" width="28" height="28" transform="rotate(0,964,908)"/><path d="M 1034 894v 28h 28v -14a 14 14, 0, 0, 0, -14 -14" transform="rotate(-90,1048,908)"/><rect x="1062" y="894" width="28" height="28" transform="rotate(0,1076,908)"/><path d="M 1118 894v 28h 14a 14 14, 0, 0, 0, 0 -28" transform="rotate(-90,1132,908)"/><path d="M 26 922v 28h 14a 14 14, 0, 0, 0, 0 -28" transform="rotate(180,40,936)"/><path d="M 54 922v 28h 14a 14 14, 0, 0, 0, 0 -28" transform="rotate(0,68,936)"/><circle cx="124" cy="936" r="14" transform="rotate(0,124,936)"/><circle cx="208" cy="936" r="14" transform="rotate(0,208,936)"/><rect x="278" y="922" width="28" height="28" transform="rotate(0,292,936)"/><rect x="306" y="922" width="28" height="28" transform="rotate(0,320,936)"/><path d="M 334 922v 28h 14a 14 14, 0, 0, 0, 0 -28" transform="rotate(0,348,936)"/><circle cx="404" cy="936" r="14" transform="rotate(0,404,936)"/><path d="M 446 922v 28h 28v -14a 14 14, 0, 0, 0, -14 -14" transform="rotate(180,460,936)"/><rect x="474" y="922" width="28" height="28" transform="rotate(0,488,936)"/><rect x="502" y="922" width="28" height="28" transform="rotate(0,516,936)"/><rect x="558" y="922" width="28" height="28" transform="rotate(0,572,936)"/><rect x="614" y="922" width="28" height="28" transform="rotate(0,628,936)"/><circle cx="712" cy="936" r="14" transform="rotate(0,712,936)"/><rect x="754" y="922" width="28" height="28" transform="rotate(0,768,936)"/><path d="M 782 922v 28h 28v -14a 14 14, 0, 0, 0, -14 -14" transform="rotate(0,796,936)"/><path d="M 838 922v 28h 14a 14 14, 0, 0, 0, 0 -28" transform="rotate(90,852,936)"/><path d="M 922 922v 28h 28v -14a 14 14, 0, 0, 0, -14 -14" transform="rotate(-90,936,936)"/><rect x="950" y="922" width="28" height="28" transform="rotate(0,964,936)"/><rect x="978" y="922" width="28" height="28" transform="rotate(0,992,936)"/><rect x="1006" y="922" width="28" height="28" transform="rotate(0,1020,936)"/><rect x="1034" y="922" width="28" height="28" transform="rotate(0,1048,936)"/><rect x="1062" y="922" width="28" height="28" transform="rotate(0,1076,936)"/><path d="M 1118 922v 28h 28v -14a 14 14, 0, 0, 0, -14 -14" transform="rotate(180,1132,936)"/><path d="M 1146 922v 28h 28v -14a 14 14, 0, 0, 0, -14 -14" transform="rotate(0,1160,936)"/><path d="M 250 950v 28h 14a 14 14, 0, 0, 0, 0 -28" transform="rotate(180,264,964)"/><rect x="278" y="950" width="28" height="28" transform="rotate(0,292,964)"/><path d="M 306 950v 28h 28v -14a 14 14, 0, 0, 0, -14 -14" transform="rotate(90,320,964)"/><path d="M 362 950v 28h 14a 14 14, 0, 0, 0, 0 -28" transform="rotate(-90,376,964)"/><circle cx="432" cy="964" r="14" transform="rotate(0,432,964)"/><path d="M 502 950v 28h 14a 14 14, 0, 0, 0, 0 -28" transform="rotate(90,516,964)"/><rect x="558" y="950" width="28" height="28" transform="rotate(0,572,964)"/><rect x="614" y="950" width="28" height="28" transform="rotate(0,628,964)"/><path d="M 670 950v 28h 14a 14 14, 0, 0, 0, 0 -28" transform="rotate(-90,684,964)"/><rect x="754" y="950" width="28" height="28" transform="rotate(0,768,964)"/><rect x="782" y="950" width="28" height="28" transform="rotate(0,796,964)"/><path d="M 810 950v 28h 14a 14 14, 0, 0, 0, 0 -28" transform="rotate(0,824,964)"/><path d="M 866 950v 28h 14a 14 14, 0, 0, 0, 0 -28" transform="rotate(180,880,964)"/><rect x="894" y="950" width="28" height="28" transform="rotate(0,908,964)"/><rect x="922" y="950" width="28" height="28" transform="rotate(0,936,964)"/><rect x="1034" y="950" width="28" height="28" transform="rotate(0,1048,964)"/><rect x="1062" y="950" width="28" height="28" transform="rotate(0,1076,964)"/><rect x="1146" y="950" width="28" height="28" transform="rotate(0,1160,964)"/><path d="M 334 978v 28h 14a 14 14, 0, 0, 0, 0 -28" transform="rotate(180,348,992)"/><rect x="362" y="978" width="28" height="28" transform="rotate(0,376,992)"/><path d="M 390 978v 28h 14a 14 14, 0, 0, 0, 0 -28" transform="rotate(0,404,992)"/><circle cx="460" cy="992" r="14" transform="rotate(0,460,992)"/><path d="M 530 978v 28h 14a 14 14, 0, 0, 0, 0 -28" transform="rotate(180,544,992)"/><rect x="558" y="978" width="28" height="28" transform="rotate(0,572,992)"/><rect x="614" y="978" width="28" height="28" transform="rotate(0,628,992)"/><rect x="670" y="978" width="28" height="28" transform="rotate(0,684,992)"/><rect x="698" y="978" width="28" height="28" transform="rotate(0,712,992)"/><rect x="726" y="978" width="28" height="28" transform="rotate(0,740,992)"/><rect x="754" y="978" width="28" height="28" transform="rotate(0,768,992)"/><rect x="782" y="978" width="28" height="28" transform="rotate(0,796,992)"/><path d="M 838 978v 28h 14a 14 14, 0, 0, 0, 0 -28" transform="rotate(-90,852,992)"/><rect x="894" y="978" width="28" height="28" transform="rotate(0,908,992)"/><rect x="922" y="978" width="28" height="28" transform="rotate(0,936,992)"/><circle cx="992" cy="992" r="14" transform="rotate(0,992,992)"/><rect x="1034" y="978" width="28" height="28" transform="rotate(0,1048,992)"/><rect x="1062" y="978" width="28" height="28" transform="rotate(0,1076,992)"/><path d="M 1118 978v 28h 14a 14 14, 0, 0, 0, 0 -28" transform="rotate(180,1132,992)"/><rect x="1146" y="978" width="28" height="28" transform="rotate(0,1160,992)"/><circle cx="292" cy="1020" r="14" transform="rotate(0,292,1020)"/><circle cx="432" cy="1020" r="14" transform="rotate(0,432,1020)"/><rect x="558" y="1006" width="28" height="28" transform="rotate(0,572,1020)"/><rect x="614" y="1006" width="28" height="28" transform="rotate(0,628,1020)"/><rect x="670" y="1006" width="28" height="28" transform="rotate(0,684,1020)"/><rect x="698" y="1006" width="28" height="28" transform="rotate(0,712,1020)"/><rect x="726" y="1006" width="28" height="28" transform="rotate(0,740,1020)"/><rect x="782" y="1006" width="28" height="28" transform="rotate(0,796,1020)"/><rect x="810" y="1006" width="28" height="28" transform="rotate(0,824,1020)"/><rect x="838" y="1006" width="28" height="28" transform="rotate(0,852,1020)"/><rect x="866" y="1006" width="28" height="28" transform="rotate(0,880,1020)"/><rect x="894" y="1006" width="28" height="28" transform="rotate(0,908,1020)"/><rect x="922" y="1006" width="28" height="28" transform="rotate(0,936,1020)"/><rect x="1034" y="1006" width="28" height="28" transform="rotate(0,1048,1020)"/><rect x="1062" y="1006" width="28" height="28" transform="rotate(0,1076,1020)"/><rect x="1146" y="1006" width="28" height="28" transform="rotate(0,1160,1020)"/><circle cx="264" cy="1048" r="14" transform="rotate(0,264,1048)"/><circle cx="320" cy="1048" r="14" transform="rotate(0,320,1048)"/><path d="M 446 1034v 28h 14a 14 14, 0, 0, 0, 0 -28" transform="rotate(180,460,1048)"/><path d="M 474 1034v 28h 14a 14 14, 0, 0, 0, 0 -28" transform="rotate(0,488,1048)"/><path d="M 558 1034v 28h 28v -14a 14 14, 0, 0, 0, -14 -14" transform="rotate(180,572,1048)"/><rect x="586" y="1034" width="28" height="28" transform="rotate(0,600,1048)"/><path d="M 614 1034v 28h 28v -14a 14 14, 0, 0, 0, -14 -14" transform="rotate(90,628,1048)"/><rect x="670" y="1034" width="28" height="28" transform="rotate(0,684,1048)"/><rect x="698" y="1034" width="28" height="28" transform="rotate(0,712,1048)"/><rect x="726" y="1034" width="28" height="28" transform="rotate(0,740,1048)"/><rect x="782" y="1034" width="28" height="28" transform="rotate(0,796,1048)"/><path d="M 866 1034v 28h 28v -14a 14 14, 0, 0, 0, -14 -14" transform="rotate(180,880,1048)"/><rect x="894" y="1034" width="28" height="28" transform="rotate(0,908,1048)"/><rect x="922" y="1034" width="28" height="28" transform="rotate(0,936,1048)"/><rect x="950" y="1034" width="28" height="28" transform="rotate(0,964,1048)"/><rect x="978" y="1034" width="28" height="28" transform="rotate(0,992,1048)"/><rect x="1006" y="1034" width="28" height="28" transform="rotate(0,1020,1048)"/><rect x="1034" y="1034" width="28" height="28" transform="rotate(0,1048,1048)"/><path d="M 1062 1034v 28h 28v -14a 14 14, 0, 0, 0, -14 -14" transform="rotate(90,1076,1048)"/><path d="M 1146 1034v 28h 14a 14 14, 0, 0, 0, 0 -28" transform="rotate(90,1160,1048)"/><path d="M 334 1062v 28h 14a 14 14, 0, 0, 0, 0 -28" transform="rotate(180,348,1076)"/><rect x="362" y="1062" width="28" height="28" transform="rotate(0,376,1076)"/><path d="M 390 1062v 28h 28v -14a 14 14, 0, 0, 0, -14 -14" transform="rotate(0,404,1076)"/><path d="M 502 1062v 28h 14a 14 14, 0, 0, 0, 0 -28" transform="rotate(180,516,1076)"/><path d="M 530 1062v 28h 28v -14a 14 14, 0, 0, 0, -14 -14" transform="rotate(0,544,1076)"/><path d="M 586 1062v 28h 14a 14 14, 0, 0, 0, 0 -28" transform="rotate(90,600,1076)"/><path d="M 642 1062v 28h 14a 14 14, 0, 0, 0, 0 -28" transform="rotate(180,656,1076)"/><rect x="670" y="1062" width="28" height="28" transform="rotate(0,684,1076)"/><rect x="726" y="1062" width="28" height="28" transform="rotate(0,740,1076)"/><rect x="754" y="1062" width="28" height="28" transform="rotate(0,768,1076)"/><rect x="782" y="1062" width="28" height="28" transform="rotate(0,796,1076)"/><rect x="810" y="1062" width="28" height="28" transform="rotate(0,824,1076)"/><path d="M 838 1062v 28h 28v -14a 14 14, 0, 0, 0, -14 -14" transform="rotate(0,852,1076)"/><rect x="922" y="1062" width="28" height="28" transform="rotate(0,936,1076)"/><path d="M 1006 1062v 28h 14a 14 14, 0, 0, 0, 0 -28" transform="rotate(90,1020,1076)"/><circle cx="1104" cy="1076" r="14" transform="rotate(0,1104,1076)"/><path d="M 306 1090v 28h 14a 14 14, 0, 0, 0, 0 -28" transform="rotate(-90,320,1104)"/><path d="M 362 1090v 28h 28v -14a 14 14, 0, 0, 0, -14 -14" transform="rotate(180,376,1104)"/><path d="M 390 1090v 28h 28v -14a 14 14, 0, 0, 0, -14 -14" transform="rotate(90,404,1104)"/><path d="M 446 1090v 28h 28v -14a 14 14, 0, 0, 0, -14 -14" transform="rotate(-90,460,1104)"/><path d="M 474 1090v 28h 14a 14 14, 0, 0, 0, 0 -28" transform="rotate(0,488,1104)"/><path d="M 530 1090v 28h 28v -14a 14 14, 0, 0, 0, -14 -14" transform="rotate(180,544,1104)"/><path d="M 558 1090v 28h 28v -14a 14 14, 0, 0, 0, -14 -14" transform="rotate(0,572,1104)"/><path d="M 670 1090v 28h 28v -14a 14 14, 0, 0, 0, -14 -14" transform="rotate(180,684,1104)"/><rect x="698" y="1090" width="28" height="28" transform="rotate(0,712,1104)"/><rect x="726" y="1090" width="28" height="28" transform="rotate(0,740,1104)"/><rect x="754" y="1090" width="28" height="28" transform="rotate(0,768,1104)"/><path d="M 782 1090v 28h 28v -14a 14 14, 0, 0, 0, -14 -14" transform="rotate(90,796,1104)"/><rect x="838" y="1090" width="28" height="28" transform="rotate(0,852,1104)"/><path d="M 866 1090v 28h 14a 14 14, 0, 0, 0, 0 -28" transform="rotate(0,880,1104)"/><rect x="922" y="1090" width="28" height="28" transform="rotate(0,936,1104)"/><path d="M 950 1090v 28h 14a 14 14, 0, 0, 0, 0 -28" transform="rotate(0,964,1104)"/><path d="M 1062 1090v 28h 14a 14 14, 0, 0, 0, 0 -28" transform="rotate(-90,1076,1104)"/><path d="M 1146 1090v 28h 14a 14 14, 0, 0, 0, 0 -28" transform="rotate(-90,1160,1104)"/><circle cx="264" cy="1132" r="14" transform="rotate(0,264,1132)"/><path d="M 306 1118v 28h 28v -14a 14 14, 0, 0, 0, -14 -14" transform="rotate(180,320,1132)"/><path d="M 334 1118v 28h 14a 14 14, 0, 0, 0, 0 -28" transform="rotate(0,348,1132)"/><path d="M 446 1118v 28h 14a 14 14, 0, 0, 0, 0 -28" transform="rotate(90,460,1132)"/><rect x="558" y="1118" width="28" height="28" transform="rotate(0,572,1132)"/><circle cx="628" cy="1132" r="14" transform="rotate(0,628,1132)"/><rect x="698" y="1118" width="28" height="28" transform="rotate(0,712,1132)"/><path d="M 810 1118v 28h 28v -14a 14 14, 0, 0, 0, -14 -14" transform="rotate(-90,824,1132)"/><rect x="838" y="1118" width="28" height="28" transform="rotate(0,852,1132)"/><path d="M 894 1118v 28h 14a 14 14, 0, 0, 0, 0 -28" transform="rotate(180,908,1132)"/><rect x="922" y="1118" width="28" height="28" transform="rotate(0,936,1132)"/><path d="M 1006 1118v 28h 14a 14 14, 0, 0, 0, 0 -28" transform="rotate(-90,1020,1132)"/><path d="M 1062 1118v 28h 14a 14 14, 0, 0, 0, 0 -28" transform="rotate(90,1076,1132)"/><path d="M 1118 1118v 28h 28v -14a 14 14, 0, 0, 0, -14 -14" transform="rotate(-90,1132,1132)"/><path d="M 1146 1118v 28h 28v -14a 14 14, 0, 0, 0, -14 -14" transform="rotate(90,1160,1132)"/><circle cx="292" cy="1160" r="14" transform="rotate(0,292,1160)"/><circle cx="432" cy="1160" r="14" transform="rotate(0,432,1160)"/><circle cx="516" cy="1160" r="14" transform="rotate(0,516,1160)"/><path d="M 558 1146v 28h 14a 14 14, 0, 0, 0, 0 -28" transform="rotate(90,572,1160)"/><circle cx="656" cy="1160" r="14" transform="rotate(0,656,1160)"/><path d="M 698 1146v 28h 14a 14 14, 0, 0, 0, 0 -28" transform="rotate(90,712,1160)"/><path d="M 810 1146v 28h 28v -14a 14 14, 0, 0, 0, -14 -14" transform="rotate(180,824,1160)"/><path d="M 838 1146v 28h 28v -14a 14 14, 0, 0, 0, -14 -14" transform="rotate(90,852,1160)"/><path d="M 922 1146v 28h 14a 14 14, 0, 0, 0, 0 -28" transform="rotate(90,936,1160)"/><path d="M 978 1146v 28h 14a 14 14, 0, 0, 0, 0 -28" transform="rotate(180,992,1160)"/><rect x="1006" y="1146" width="28" height="28" transform="rotate(0,1020,1160)"/><path d="M 1034 1146v 28h 14a 14 14, 0, 0, 0, 0 -28" transform="rotate(0,1048,1160)"/><path d="M 1118 1146v 28h 14a 14 14, 0, 0, 0, 0 -28" transform="rotate(90,1132,1160)"/></clipPath><clipPath id="clip-path-corners-square-color-0-0-13"><path clip-rule="evenodd" d="M 26 96v 56a 70 70, 0, 0, 0, 70 70h 56a 70 70, 0, 0, 0, 70 -70v -56a 70 70, 0, 0, 0, -70 -70h -56a 70 70, 0, 0, 0, -70 70M 96 54h 56a 42 42, 0, 0, 1, 42 42v 56a 42 42, 0, 0, 1, -42 42h -56a 42 42, 0, 0, 1, -42 -42v -56a 42 42, 0, 0, 1, 42 -42" transform="rotate(0,124,124)"/></clipPath><clipPath id="clip-path-corners-dot-color-0-0-13"><circle cx="124" cy="124" r="42" transform="rotate(0,124,124)"/></clipPath><clipPath id="clip-path-corners-square-color-1-0-13"><path clip-rule="evenodd" d="M 978 96v 56a 70 70, 0, 0, 0, 70 70h 56a 70 70, 0, 0, 0, 70 -70v -56a 70 70, 0, 0, 0, -70 -70h -56a 70 70, 0, 0, 0, -70 70M 1048 54h 56a 42 42, 0, 0, 1, 42 42v 56a 42 42, 0, 0, 1, -42 42h -56a 42 42, 0, 0, 1, -42 -42v -56a 42 42, 0, 0, 1, 42 -42" transform="rotate(90,1076,124)"/></clipPath><clipPath id="clip-path-corners-dot-color-1-0-13"><circle cx="1076" cy="124" r="42" transform="rotate(90,1076,124)"/></clipPath><clipPath id="clip-path-corners-square-color-0-1-13"><path clip-rule="evenodd" d="M 26 1048v 56a 70 70, 0, 0, 0, 70 70h 56a 70 70, 0, 0, 0, 70 -70v -56a 70 70, 0, 0, 0, -70 -70h -56a 70 70, 0, 0, 0, -70 70M 96 1006h 56a 42 42, 0, 0, 1, 42 42v 56a 42 42, 0, 0, 1, -42 42h -56a 42 42, 0, 0, 1, -42 -42v -56a 42 42, 0, 0, 1, 42 -42" transform="rotate(-90,124,1076)"/></clipPath><clipPath id="clip-path-corners-dot-color-0-1-13"><circle cx="124" cy="1076" r="42" transform="rotate(-90,124,1076)"/></clipPath></defs><rect x="0" y="0" height="1200" width="1200" clip-path="url('#clip-path-background-color-13')" fill="#ffffff"/><rect x="0" y="0" height="1200" width="1200" clip-path="url('#clip-path-dot-color-13')" fill="#000000"/><rect x="26" y="26" height="196" width="196" clip-path="url('#clip-path-corners-square-color-0-0-13')" fill="#000000"/><rect x="82" y="82" height="84" width="84" clip-path="url('#clip-path-corners-dot-color-0-0-13')" fill="#000000"/><rect x="978" y="26" height="196" width="196" clip-path="url('#clip-path-corners-square-color-1-0-13')" fill="#000000"/><rect x="1034" y="82" height="84" width="84" clip-path="url('#clip-path-corners-dot-color-1-0-13')" fill="#000000"/><rect x="26" y="978" height="196" width="196" clip-path="url('#clip-path-corners-square-color-0-1-13')" fill="#000000"/><rect x="82" y="1034" height="84" width="84" clip-path="url('#clip-path-corners-dot-color-0-1-13')" fill="#000000"/></svg>