<?xml version="1.0" standalone="no"?>
<svg xmlns="http://www.w3.org/2000/svg" width="1200" height="1200" xmlns:xlink="http://www.w3.org/1999/xlink" viewBox="0 0 1200 1200"><defs><clipPath id="clip-path-background-color-293"><rect x="0" y="0" width="1200" height="1200"/></clipPath><clipPath id="clip-path-dot-color-293"><path d="M 264 8v 32h 16a 16 16, 0, 0, 0, 0 -32" transform="rotate(180,280,24)"/><rect x="296" y="8" width="32" height="32" transform="rotate(0,312,24)"/><path d="M 328 8v 32h 32v -16a 16 16, 0, 0, 0, -16 -16" transform="rotate(0,344,24)"/><path d="M 424 8v 32h 16a 16 16, 0, 0, 0, 0 -32" transform="rotate(-90,440,24)"/><circle cx="504" cy="24" r="16" transform="rotate(0,504,24)"/><path d="M 616 8v 32h 32v -16a 16 16, 0, 0, 0, -16 -16" transform="rotate(-90,632,24)"/><path d="M 648 8v 32h 32v -16a 16 16, 0, 0, 0, -16 -16" transform="rotate(0,664,24)"/><circle cx="728" cy="24" r="16" transform="rotate(0,728,24)"/><path d="M 776 8v 32h 32v -16a 16 16, 0, 0, 0, -16 -16" transform="rotate(-90,792,24)"/><rect x="808" y="8" width="32" height="32" transform="rotate(0,824,24)"/><rect x="840" y="8" width="32" height="32" transform="rotate(0,856,24)"/><rect x="872" y="8" width="32" height="32" transform="rotate(0,888,24)"/><path d="M 904 8v 32h 16a 16 16, 0, 0, 0, 0 -32" transform="rotate(0,920,24)"/><rect x="328" y="40" width="32" height="32" transform="rotate(0,344,56)"/><path d="M 424 40v 32h 32v -16a 16 16, 0, 0, 0, -16 -16" transform="rotate(180,440,56)"/><path d="M 456 40v 32h 16a 16 16, 0, 0, 0, 0 -32" transform="rotate(0,472,56)"/><path d="M 520 40v 32h 32v -16a 16 16, 0, 0, 0, -16 -16" transform="rotate(-90,536,56)"/><path d="M 552 40v 32h 32v -16a 16 16, 0, 0, 0, -16 -16" transform="rotate(0,568,56)"/><path d="M 616 40v 32h 32v -16a 16 16, 0, 0, 0, -16 -16" transform="rotate(180,632,56)"/><rect x="648" y="40" width="32" height="32" transform="rotate(0,664,56)"/><path d="M 680 40v 32h 16a 16 16, 0, 0, 0, 0 -32" transform="rotate(0,696,56)"/><path d="M 744 40v 32h 32v -16a 16 16, 0, 0, 0, -16 -16" transform="rotate(-90,760,56)"/><path d="M 776 40v 32h 32v -16a 16 16, 0, 0, 0, -16 -16" transform="rotate(90,792,56)"/><path d="M 840 40v 32h 32v -16a 16 16, 0, 0, 0, -16 -16" transform="rotate(180,856,56)"/><path d="M 872 40v 32h 32v -16a 16 16, 0, 0, 0, -16 -16" transform="rotate(90,888,56)"/><path d="M 264 72v 32h 32v -16a 16 16, 0, 0, 0, -16 -16" transform="rotate(-90,280,88)"/><rect x="296" y="72" width="32" height="32" transform="rotate(0,312,88)"/><rect x="328" y="72" width="32" height="32" transform="rotate(0,344,88)"/><rect x="360" y="72" width="32" height="32" transform="rotate(0,376,88)"/><path d="M 392 72v 32h 32v -16a 16 16, 0, 0, 0, -16 -16" transform="rotate(0,408,88)"/><path d="M 520 72v 32h 32v -16a 16 16, 0, 0, 0, -16 -16" transform="rotate(180,536,88)"/><path d="M 552 72v 32h 32v -16a 16 16, 0, 0, 0, -16 -16" transform="rotate(90,568,88)"/><path d="M 712 72v 32h 32v -16a 16 16, 0, 0, 0, -16 -16" transform="rotate(-90,728,88)"/><rect x="744" y="72" width="32" height="32" transform="rotate(0,760,88)"/><path d="M 264 104v 32h 32v -16a 16 16, 0, 0, 0, -16 -16" transform="rotate(180,280,120)"/><rect x="296" y="104" width="32" height="32" transform="rotate(0,312,120)"/><rect x="360" y="104" width="32" height="32" transform="rotate(0,376,120)"/><rect x="392" y="104" width="32" height="32" transform="rotate(0,408,120)"/><path d="M 424 104v 32h 32v -16a 16 16, 0, 0, 0, -16 -16" transform="rotate(0,440,120)"/><circle cx="664" cy="120" r="16" transform="rotate(0,664,120)"/><rect x="712" y="104" width="32" height="32" transform="rotate(0,728,120)"/><rect x="744" y="104" width="32" height="32" transform="rotate(0,760,120)"/><path d="M 840 104v 32h 16a 16 16, 0, 0, 0, 0 -32" transform="rotate(-90,856,120)"/><path d="M 296 136v 32h 32v -16a 16 16, 0, 0, 0, -16 -16" transform="rotate(180,312,152)"/><rect x="328" y="136" width="32" height="32" transform="rotate(0,344,152)"/><rect x="360" y="136" width="32" height="32" transform="rotate(0,376,152)"/><rect x="392" y="136" width="32" height="32" transform="rotate(0,408,152)"/><rect x="424" y="136" width="32" height="32" transform="rotate(0,440,152)"/><path d="M 456 136v 32h 16a 16 16, 0, 0, 0, 0 -32" transform="rotate(0,472,152)"/><path d="M 520 136v 32h 16a 16 16, 0, 0, 0, 0 -32" transform="rotate(180,536,152)"/><path d="M 552 136v 32h 32v -16a 16 16, 0, 0, 0, -16 -16" transform="rotate(0,568,152)"/><rect x="712" y="136" width="32" height="32" transform="rotate(0,728,152)"/><path d="M 744 136v 32h 32v -16a 16 16, 0, 0, 0, -16 -16" transform="rotate(90,760,152)"/><rect x="840" y="136" width="32" height="32" transform="rotate(0,856,152)"/><path d="M 872 136v 32h 32v -16a 16 16, 0, 0, 0, -16 -16" transform="rotate(0,888,152)"/><path d="M 264 168v 32h 16a 16 16, 0, 0, 0, 0 -32" transform="rotate(-90,280,184)"/><path d="M 360 168v 32h 32v -16a 16 16, 0, 0, 0, -16 -16" transform="rotate(180,376,184)"/><rect x="392" y="168" width="32" height="32" transform="rotate(0,408,184)"/><path d="M 424 168v 32h 32v -16a 16 16, 0, 0, 0, -16 -16" transform="rotate(90,440,184)"/><circle cx="504" cy="184" r="16" transform="rotate(0,504,184)"/><path d="M 552 168v 32h 16a 16 16, 0, 0, 0, 0 -32" transform="rotate(90,568,184)"/><path d="M 680 168v 32h 16a 16 16, 0, 0, 0, 0 -32" transform="rotate(180,696,184)"/><rect x="712" y="168" width="32" height="32" transform="rotate(0,728,184)"/><path d="M 776 168v 32h 32v -16a 16 16, 0, 0, 0, -16 -16" transform="rotate(-90,792,184)"/><rect x="808" y="168" width="32" height="32" transform="rotate(0,824,184)"/><rect x="840" y="168" width="32" height="32" transform="rotate(0,856,184)"/><rect x="872" y="168" width="32" height="32" transform="rotate(0,888,184)"/><path d="M 904 168v 32h 32v -16a 16 16, 0, 0, 0, -16 -16" transform="rotate(0,920,184)"/><rect x="264" y="200" width="32" height="32" transform="rotate(0,280,216)"/><path d="M 328 200v 32h 16a 16 16, 0, 0, 0, 0 -32" transform="rotate(-90,344,216)"/><rect x="392" y="200" width="32" height="32" transform="rotate(0,408,216)"/><circle cx="472" cy="216" r="16" transform="rotate(0,472,216)"/><circle cx="536" cy="216" r="16" transform="rotate(0,536,216)"/><circle cx="600" cy="216" r="16" transform="rotate(0,600,216)"/><path d="M 648 200v 32h 16a 16 16, 0, 0, 0, 0 -32" transform="rotate(-90,664,216)"/><path d="M 712 200v 32h 16a 16 16, 0, 0, 0, 0 -32" transform="rotate(90,728,216)"/><rect x="776" y="200" width="32" height="32" transform="rotate(0,792,216)"/><rect x="840" y="200" width="32" height="32" transform="rotate(0,856,216)"/><path d="M 904 200v 32h 16a 16 16, 0, 0, 0, 0 -32" transform="rotate(90,920,216)"/><rect x="264" y="232" width="32" height="32" transform="rotate(0,280,248)"/><rect x="296" y="232" width="32" height="32" transform="rotate(0,312,248)"/><rect x="328" y="232" width="32" height="32" transform="rotate(0,344,248)"/><rect x="392" y="232" width="32" height="32" transform="rotate(0,408,248)"/><path d="M 424 232v 32h 32v -16a 16 16, 0, 0, 0, -16 -16" transform="rotate(0,440,248)"/><circle cx="568" cy="248" r="16" transform="rotate(0,568,248)"/><path d="M 616 232v 32h 32v -16a 16 16, 0, 0, 0, -16 -16" transform="rotate(-90,632,248)"/><rect x="648" y="232" width="32" height="32" transform="rotate(0,664,248)"/><path d="M 680 232v 32h 32v -16a 16 16, 0, 0, 0, -16 -16" transform="rotate(0,696,248)"/><path d="M 744 232v 32h 32v -16a 16 16, 0, 0, 0, -16 -16" transform="rotate(-90,760,248)"/><rect x="776" y="232" width="32" height="32" transform="rotate(0,792,248)"/><rect x="840" y="232" width="32" height="32" transform="rotate(0,856,248)"/><path d="M 40 264v 32h 16a 16 16, 0, 0, 0, 0 -32" transform="rotate(-90,56,280)"/><path d="M 104 264v 32h 16a 16 16, 0, 0, 0, 0 -32" transform="rotate(-90,120,280)"/><path d="M 168 264v 32h 32v -16a 16 16, 0, 0, 0, -16 -16" transform="rotate(-90,184,280)"/><rect x="200" y="264" width="32" height="32" transform="rotate(0,216,280)"/><rect x="232" y="264" width="32" height="32" transform="rotate(0,248,280)"/><rect x="264" y="264" width="32" height="32" transform="rotate(0,280,280)"/><rect x="296" y="264" width="32" height="32" transform="rotate(0,312,280)"/><rect x="328" y="264" width="32" height="32" transform="rotate(0,344,280)"/><rect x="392" y="264" width="32" height="32" transform="rotate(0,408,280)"/><path d="M 424 264v 32h 32v -16a 16 16, 0, 0, 0, -16 -16" transform="rotate(90,440,280)"/><circle cx="504" cy="280" r="16" transform="rotate(0,504,280)"/><path d="M 584 264v 32h 32v -16a 16 16, 0, 0, 0, -16 -16" transform="rotate(-90,600,280)"/><rect x="616" y="264" width="32" height="32" transform="rotate(0,632,280)"/><rect x="648" y="264" width="32" height="32" transform="rotate(0,664,280)"/><rect x="680" y="264" width="32" height="32" transform="rotate(0,696,280)"/><path d="M 744 264v 32h 32v -16a 16 16, 0, 0, 0, -16 -16" transform="rotate(180,760,280)"/><rect x="776" y="264" width="32" height="32" transform="rotate(0,792,280)"/><rect x="808" y="264" width="32" height="32" transform="rotate(0,824,280)"/><rect x="840" y="264" width="32" height="32" transform="rotate(0,856,280)"/><rect x="872" y="264" width="32" height="32" transform="rotate(0,888,280)"/><rect x="904" y="264" width="32" height="32" transform="rotate(0,920,280)"/><rect x="936" y="264" width="32" height="32" transform="rotate(0,952,280)"/><rect x="968" y="264" width="32" height="32" transform="rotate(0,984,280)"/><path d="M 1000 264v 32h 16a 16 16, 0, 0, 0, 0 -32" transform="rotate(0,1016,280)"/><path d="M 1064 264v 32h 16a 16 16, 0, 0, 0, 0 -32" transform="rotate(180,1080,280)"/><path d="M 1096 264v 32h 32v -16a 16 16, 0, 0, 0, -16 -16" transform="rotate(0,1112,280)"/><path d="M 1160 264v 32h 16a 16 16, 0, 0, 0, 0 -32" transform="rotate(-90,1176,280)"/><path d="M 8 296v 32h 32v -16a 16 16, 0, 0, 0, -16 -16" transform="rotate(-90,24,312)"/><rect x="40" y="296" width="32" height="32" transform="rotate(0,56,312)"/><rect x="72" y="296" width="32" height="32" transform="rotate(0,88,312)"/><rect x="104" y="296" width="32" height="32" transform="rotate(0,120,312)"/><rect x="136" y="296" width="32" height="32" transform="rotate(0,152,312)"/><path d="M 168 296v 32h 32v -16a 16 16, 0, 0, 0, -16 -16" transform="rotate(90,184,312)"/><path d="M 264 296v 32h 32v -16a 16 16, 0, 0, 0, -16 -16" transform="rotate(180,280,312)"/><rect x="296" y="296" width="32" height="32" transform="rotate(0,312,312)"/><rect x="328" y="296" width="32" height="32" transform="rotate(0,344,312)"/><path d="M 392 296v 32h 16a 16 16, 0, 0, 0, 0 -32" transform="rotate(90,408,312)"/><path d="M 456 296v 32h 16a 16 16, 0, 0, 0, 0 -32" transform="rotate(-90,472,312)"/><path d="M 552 296v 32h 16a 16 16, 0, 0, 0, 0 -32" transform="rotate(180,568,312)"/><path d="M 584 296v 32h 32v -16a 16 16, 0, 0, 0, -16 -16" transform="rotate(90,600,312)"/><path d="M 680 296v 32h 32v -16a 16 16, 0, 0, 0, -16 -16" transform="rotate(180,696,312)"/><path d="M 712 296v 32h 32v -16a 16 16, 0, 0, 0, -16 -16" transform="rotate(0,728,312)"/><path d="M 776 296v 32h 16a 16 16, 0, 0, 0, 0 -32" transform="rotate(90,792,312)"/><path d="M 904 296v 32h 16a 16 16, 0, 0, 0, 0 -32" transform="rotate(90,920,312)"/><rect x="968" y="296" width="32" height="32" transform="rotate(0,984,312)"/><path d="M 1096 296v 32h 32v -16a 16 16, 0, 0, 0, -16 -16" transform="rotate(180,1112,312)"/><rect x="1128" y="296" width="32" height="32" transform="rotate(0,1144,312)"/><rect x="1160" y="296" width="32" height="32" transform="rotate(0,1176,312)"/><rect x="8" y="328" width="32" height="32" transform="rotate(0,24,344)"/><path d="M 40 328v 32h 32v -16a 16 16, 0, 0, 0, -16 -16" transform="rotate(90,56,344)"/><path d="M 136 328v 32h 16a 16 16, 0, 0, 0, 0 -32" transform="rotate(90,152,344)"/><path d="M 200 328v 32h 16a 16 16, 0, 0, 0, 0 -32" transform="rotate(180,216,344)"/><path d="M 232 328v 32h 32v -16a 16 16, 0, 0, 0, -16 -16" transform="rotate(0,248,344)"/><rect x="328" y="328" width="32" height="32" transform="rotate(0,344,344)"/><path d="M 456 328v 32h 32v -16a 16 16, 0, 0, 0, -16 -16" transform="rotate(180,472,344)"/><rect x="488" y="328" width="32" height="32" transform="rotate(0,504,344)"/><path d="M 520 328v 32h 32v -16a 16 16, 0, 0, 0, -16 -16" transform="rotate(0,536,344)"/><rect x="712" y="328" width="32" height="32" transform="rotate(0,728,344)"/><path d="M 968 328v 32h 32v -16a 16 16, 0, 0, 0, -16 -16" transform="rotate(180,984,344)"/><path d="M 1000 328v 32h 16a 16 16, 0, 0, 0, 0 -32" transform="rotate(0,1016,344)"/><circle cx="1080" cy="344" r="16" transform="rotate(0,1080,344)"/><rect x="1128" y="328" width="32" height="32" transform="rotate(0,1144,344)"/><rect x="1160" y="328" width="32" height="32" transform="rotate(0,1176,344)"/><rect x="8" y="360" width="32" height="32" transform="rotate(0,24,376)"/><path d="M 72 360v 32h 32v -16a 16 16, 0, 0, 0, -16 -16" transform="rotate(-90,88,376)"/><path d="M 104 360v 32h 32v -16a 16 16, 0, 0, 0, -16 -16" transform="rotate(0,120,376)"/><circle cx="184" cy="376" r="16" transform="rotate(0,184,376)"/><path d="M 232 360v 32h 16a 16 16, 0, 0, 0, 0 -32" transform="rotate(90,248,376)"/><rect x="328" y="360" width="32" height="32" transform="rotate(0,344,376)"/><rect x="520" y="360" width="32" height="32" transform="rotate(0,536,376)"/><path d="M 584 360v 32h 16a 16 16, 0, 0, 0, 0 -32" transform="rotate(180,600,376)"/><path d="M 616 360v 32h 16a 16 16, 0, 0, 0, 0 -32" transform="rotate(0,632,376)"/><path d="M 680 360v 32h 32v -16a 16 16, 0, 0, 0, -16 -16" transform="rotate(-90,696,376)"/><rect x="712" y="360" width="32" height="32" transform="rotate(0,728,376)"/><path d="M 744 360v 32h 16a 16 16, 0, 0, 0, 0 -32" transform="rotate(0,760,376)"/><path d="M 808 360v 32h 16a 16 16, 0, 0, 0, 0 -32" transform="rotate(-90,824,376)"/><path d="M 904 360v 32h 16a 16 16, 0, 0, 0, 0 -32" transform="rotate(-90,920,376)"/><path d="M 1128 360v 32h 32v -16a 16 16, 0, 0, 0, -16 -16" transform="rotate(180,1144,376)"/><rect x="1160" y="360" width="32" height="32" transform="rotate(0,1176,376)"/><rect x="8" y="392" width="32" height="32" transform="rotate(0,24,408)"/><rect x="40" y="392" width="32" height="32" transform="rotate(0,56,408)"/><rect x="72" y="392" width="32" height="32" transform="rotate(0,88,408)"/><rect x="104" y="392" width="32" height="32" transform="rotate(0,120,408)"/><circle cx="216" cy="408" r="16" transform="rotate(0,216,408)"/><rect x="328" y="392" width="32" height="32" transform="rotate(0,344,408)"/><rect x="360" y="392" width="32" height="32" transform="rotate(0,376,408)"/><path d="M 392 392v 32h 32v -16a 16 16, 0, 0, 0, -16 -16" transform="rotate(0,408,408)"/><path d="M 488 392v 32h 32v -16a 16 16, 0, 0, 0, -16 -16" transform="rotate(-90,504,408)"/><path d="M 520 392v 32h 32v -16a 16 16, 0, 0, 0, -16 -16" transform="rotate(90,536,408)"/><path d="M 680 392v 32h 16a 16 16, 0, 0, 0, 0 -32" transform="rotate(90,696,408)"/><rect x="808" y="392" width="32" height="32" transform="rotate(0,824,408)"/><path d="M 904 392v 32h 32v -16a 16 16, 0, 0, 0, -16 -16" transform="rotate(180,920,408)"/><rect x="936" y="392" width="32" height="32" transform="rotate(0,952,408)"/><path d="M 968 392v 32h 32v -16a 16 16, 0, 0, 0, -16 -16" transform="rotate(0,984,408)"/><path d="M 1064 392v 32h 16a 16 16, 0, 0, 0, 0 -32" transform="rotate(-90,1080,408)"/><rect x="1160" y="392" width="32" height="32" transform="rotate(0,1176,408)"/><rect x="8" y="424" width="32" height="32" transform="rotate(0,24,440)"/><path d="M 40 424v 32h 32v -16a 16 16, 0, 0, 0, -16 -16" transform="rotate(90,56,440)"/><path d="M 104 424v 32h 32v -16a 16 16, 0, 0, 0, -16 -16" transform="rotate(180,120,440)"/><rect x="136" y="424" width="32" height="32" transform="rotate(0,152,440)"/><path d="M 168 424v 32h 32v -16a 16 16, 0, 0, 0, -16 -16" transform="rotate(0,184,440)"/><path d="M 328 424v 32h 32v -16a 16 16, 0, 0, 0, -16 -16" transform="rotate(180,344,440)"/><rect x="360" y="424" width="32" height="32" transform="rotate(0,376,440)"/><path d="M 392 424v 32h 32v -16a 16 16, 0, 0, 0, -16 -16" transform="rotate(90,408,440)"/><path d="M 488 424v 32h 16a 16 16, 0, 0, 0, 0 -32" transform="rotate(90,504,440)"/><circle cx="568" cy="440" r="16" transform="rotate(0,568,440)"/><path d="M 616 424v 32h 32v -16a 16 16, 0, 0, 0, -16 -16" transform="rotate(-90,632,440)"/><path d="M 648 424v 32h 16a 16 16, 0, 0, 0, 0 -32" transform="rotate(0,664,440)"/><circle cx="728" cy="440" r="16" transform="rotate(0,728,440)"/><path d="M 776 424v 32h 32v -16a 16 16, 0, 0, 0, -16 -16" transform="rotate(-90,792,440)"/><rect x="808" y="424" width="32" height="32" transform="rotate(0,824,440)"/><path d="M 968 424v 32h 16a 16 16, 0, 0, 0, 0 -32" transform="rotate(90,984,440)"/><path d="M 1064 424v 32h 16a 16 16, 0, 0, 0, 0 -32" transform="rotate(90,1080,440)"/><path d="M 1128 424v 32h 16a 16 16, 0, 0, 0, 0 -32" transform="rotate(180,1144,440)"/><rect x="1160" y="424" width="32" height="32" transform="rotate(0,1176,440)"/><rect x="8" y="456" width="32" height="32" transform="rotate(0,24,472)"/><rect x="136" y="456" width="32" height="32" transform="rotate(0,152,472)"/><rect x="168" y="456" width="32" height="32" transform="rotate(0,184,472)"/><path d="M 200 456v 32h 16a 16 16, 0, 0, 0, 0 -32" transform="rotate(0,216,472)"/><path d="M 264 456v 32h 16a 16 16, 0, 0, 0, 0 -32" transform="rotate(-90,280,472)"/><path d="M 456 456v 32h 16a 16 16, 0, 0, 0, 0 -32" transform="rotate(-90,472,472)"/><rect x="616" y="456" width="32" height="32" transform="rotate(0,632,472)"/><circle cx="696" cy="472" r="16" transform="rotate(0,696,472)"/><path d="M 744 456v 32h 32v -16a 16 16, 0, 0, 0, -16 -16" transform="rotate(-90,760,472)"/><rect x="776" y="456" width="32" height="32" transform="rotate(0,792,472)"/><rect x="808" y="456" width="32" height="32" transform="rotate(0,824,472)"/><path d="M 840 456v 32h 32v -16a 16 16, 0, 0, 0, -16 -16" transform="rotate(0,856,472)"/><circle cx="1112" cy="472" r="16" transform="rotate(0,1112,472)"/><path d="M 1160 456v 32h 16a 16 16, 0, 0, 0, 0 -32" transform="rotate(90,1176,472)"/><path d="M 8 488v 32h 32v -16a 16 16, 0, 0, 0, -16 -16" transform="rotate(180,24,504)"/><path d="M 40 488v 32h 32v -16a 16 16, 0, 0, 0, -16 -16" transform="rotate(0,56,504)"/><path d="M 136 488v 32h 16a 16 16, 0, 0, 0, 0 -32" transform="rotate(90,152,504)"/><path d="M 264 488v 32h 32v -16a 16 16, 0, 0, 0, -16 -16" transform="rotate(180,280,504)"/><path d="M 296 488v 32h 16a 16 16, 0, 0, 0, 0 -32" transform="rotate(0,312,504)"/><path d="M 392 488v 32h 16a 16 16, 0, 0, 0, 0 -32" transform="rotate(180,408,504)"/><rect x="424" y="488" width="32" height="32" transform="rotate(0,440,504)"/><path d="M 456 488v 32h 32v -16a 16 16, 0, 0, 0, -16 -16" transform="rotate(90,472,504)"/><path d="M 584 488v 32h 32v -16a 16 16, 0, 0, 0, -16 -16" transform="rotate(-90,600,504)"/><rect x="616" y="488" width="32" height="32" transform="rotate(0,632,504)"/><path d="M 648 488v 32h 32v -16a 16 16, 0, 0, 0, -16 -16" transform="rotate(0,664,504)"/><rect x="744" y="488" width="32" height="32" transform="rotate(0,760,504)"/><rect x="776" y="488" width="32" height="32" transform="rotate(0,792,504)"/><rect x="808" y="488" width="32" height="32" transform="rotate(0,824,504)"/><rect x="840" y="488" width="32" height="32" transform="rotate(0,856,504)"/><path d="M 872 488v 32h 16a 16 16, 0, 0, 0, 0 -32" transform="rotate(0,888,504)"/><path d="M 936 488v 32h 32v -16a 16 16, 0, 0, 0, -16 -16" transform="rotate(-90,952,504)"/><path d="M 968 488v 32h 32v -16a 16 16, 0, 0, 0, -16 -16" transform="rotate(0,984,504)"/><rect x="40" y="520" width="32" height="32" transform="rotate(0,56,536)"/><rect x="72" y="520" width="32" height="32" transform="rotate(0,88,536)"/><path d="M 104 520v 32h 16a 16 16, 0, 0, 0, 0 -32" transform="rotate(0,120,536)"/><path d="M 168 520v 32h 32v -16a 16 16, 0, 0, 0, -16 -16" transform="rotate(-90,184,536)"/><rect x="200" y="520" width="32" height="32" transform="rotate(0,216,536)"/><path d="M 232 520v 32h 32v -16a 16 16, 0, 0, 0, -16 -16" transform="rotate(0,248,536)"/><circle cx="376" cy="536" r="16" transform="rotate(0,376,536)"/><rect x="424" y="520" width="32" height="32" transform="rotate(0,440,536)"/><circle cx="504" cy="536" r="16" transform="rotate(0,504,536)"/><path d="M 584 520v 32h 16a 16 16, 0, 0, 0, 0 -32" transform="rotate(90,600,536)"/><rect x="648" y="520" width="32" height="32" transform="rotate(0,664,536)"/><path d="M 712 520v 32h 16a 16 16, 0, 0, 0, 0 -32" transform="rotate(180,728,536)"/><rect x="744" y="520" width="32" height="32" transform="rotate(0,760,536)"/><rect x="776" y="520" width="32" height="32" transform="rotate(0,792,536)"/><path d="M 936 520v 32h 32v -16a 16 16, 0, 0, 0, -16 -16" transform="rotate(180,952,536)"/><rect x="968" y="520" width="32" height="32" transform="rotate(0,984,536)"/><path d="M 1000 520v 32h 32v -16a 16 16, 0, 0, 0, -16 -16" transform="rotate(0,1016,536)"/><path d="M 1064 520v 32h 16a 16 16, 0, 0, 0, 0 -32" transform="rotate(180,1080,536)"/><rect x="1096" y="520" width="32" height="32" transform="rotate(0,1112,536)"/><rect x="1128" y="520" width="32" height="32" transform="rotate(0,1144,536)"/><path d="M 1160 520v 32h 32v -16a 16 16, 0, 0, 0, -16 -16" transform="rotate(0,1176,536)"/><path d="M 8 552v 32h 16a 16 16, 0, 0, 0, 0 -32" transform="rotate(180,24,568)"/><rect x="40" y="552" width="32" height="32" transform="rotate(0,56,568)"/><path d="M 136 552v 32h 32v -16a 16 16, 0, 0, 0, -16 -16" transform="rotate(-90,152,568)"/><path d="M 168 552v 32h 32v -16a 16 16, 0, 0, 0, -16 -16" transform="rotate(90,184,568)"/><path d="M 232 552v 32h 16a 16 16, 0, 0, 0, 0 -32" transform="rotate(90,248,568)"/><path d="M 296 552v 32h 16a 16 16, 0, 0, 0, 0 -32" transform="rotate(-90,312,568)"/><path d="M 424 552v 32h 32v -16a 16 16, 0, 0, 0, -16 -16" transform="rotate(180,440,568)"/><path d="M 456 552v 32h 32v -16a 16 16, 0, 0, 0, -16 -16" transform="rotate(0,472,568)"/><path d="M 648 552v 32h 32v -16a 16 16, 0, 0, 0, -16 -16" transform="rotate(180,664,568)"/><path d="M 680 552v 32h 16a 16 16, 0, 0, 0, 0 -32" transform="rotate(0,696,568)"/><path d="M 744 552v 32h 32v -16a 16 16, 0, 0, 0, -16 -16" transform="rotate(180,760,568)"/><rect x="776" y="552" width="32" height="32" transform="rotate(0,792,568)"/><circle cx="856" cy="568" r="16" transform="rotate(0,856,568)"/><circle cx="920" cy="568" r="16" transform="rotate(0,920,568)"/><path d="M 968 552v 32h 32v -16a 16 16, 0, 0, 0, -16 -16" transform="rotate(180,984,568)"/><rect x="1000" y="552" width="32" height="32" transform="rotate(0,1016,568)"/><path d="M 1032 552v 32h 32v -16a 16 16, 0, 0, 0, -16 -16" transform="rotate(0,1048,568)"/><rect x="1160" y="552" width="32" height="32" transform="rotate(0,1176,568)"/><rect x="40" y="584" width="32" height="32" transform="rotate(0,56,600)"/><path d="M 104 584v 32h 16a 16 16, 0, 0, 0, 0 -32" transform="rotate(180,120,600)"/><path d="M 136 584v 32h 32v -16a 16 16, 0, 0, 0, -16 -16" transform="rotate(90,152,600)"/><circle cx="216" cy="600" r="16" transform="rotate(0,216,600)"/><rect x="296" y="584" width="32" height="32" transform="rotate(0,312,600)"/><path d="M 456 584v 32h 16a 16 16, 0, 0, 0, 0 -32" transform="rotate(90,472,600)"/><circle cx="568" cy="600" r="16" transform="rotate(0,568,600)"/><path d="M 776 584v 32h 16a 16 16, 0, 0, 0, 0 -32" transform="rotate(90,792,600)"/><circle cx="952" cy="600" r="16" transform="rotate(0,952,600)"/><path d="M 1000 584v 32h 32v -16a 16 16, 0, 0, 0, -16 -16" transform="rotate(180,1016,600)"/><rect x="1032" y="584" width="32" height="32" transform="rotate(0,1048,600)"/><path d="M 1128 584v 32h 16a 16 16, 0, 0, 0, 0 -32" transform="rotate(180,1144,600)"/><path d="M 1160 584v 32h 32v -16a 16 16, 0, 0, 0, -16 -16" transform="rotate(90,1176,600)"/><path d="M 8 616v 32h 32v -16a 16 16, 0, 0, 0, -16 -16" transform="rotate(-90,24,632)"/><rect x="40" y="616" width="32" height="32" transform="rotate(0,56,632)"/><path d="M 72 616v 32h 16a 16 16, 0, 0, 0, 0 -32" transform="rotate(0,88,632)"/><path d="M 232 616v 32h 16a 16 16, 0, 0, 0, 0 -32" transform="rotate(180,248,632)"/><rect x="264" y="616" width="32" height="32" transform="rotate(0,280,632)"/><rect x="296" y="616" width="32" height="32" transform="rotate(0,312,632)"/><rect x="328" y="616" width="32" height="32" transform="rotate(0,344,632)"/><path d="M 360 616v 32h 32v -16a 16 16, 0, 0, 0, -16 -16" transform="rotate(0,376,632)"/><circle cx="504" cy="632" r="16" transform="rotate(0,504,632)"/><path d="M 616 616v 32h 16a 16 16, 0, 0, 0, 0 -32" transform="rotate(180,632,632)"/><rect x="648" y="616" width="32" height="32" transform="rotate(0,664,632)"/><path d="M 680 616v 32h 32v -16a 16 16, 0, 0, 0, -16 -16" transform="rotate(0,696,632)"/><rect x="1032" y="616" width="32" height="32" transform="rotate(0,1048,632)"/><circle cx="1112" cy="632" r="16" transform="rotate(0,1112,632)"/><path d="M 8 648v 32h 32v -16a 16 16, 0, 0, 0, -16 -16" transform="rotate(180,24,664)"/><rect x="40" y="648" width="32" height="32" transform="rotate(0,56,664)"/><circle cx="120" cy="664" r="16" transform="rotate(0,120,664)"/><circle cx="216" cy="664" r="16" transform="rotate(0,216,664)"/><rect x="360" y="648" width="32" height="32" transform="rotate(0,376,664)"/><circle cx="440" cy="664" r="16" transform="rotate(0,440,664)"/><circle cx="536" cy="664" r="16" transform="rotate(0,536,664)"/><circle cx="600" cy="664" r="16" transform="rotate(0,600,664)"/><rect x="680" y="648" width="32" height="32" transform="rotate(0,696,664)"/><path d="M 744 648v 32h 16a 16 16, 0, 0, 0, 0 -32" transform="rotate(180,760,664)"/><rect x="776" y="648" width="32" height="32" transform="rotate(0,792,664)"/><rect x="808" y="648" width="32" height="32" transform="rotate(0,824,664)"/><rect x="840" y="648" width="32" height="32" transform="rotate(0,856,664)"/><rect x="872" y="648" width="32" height="32" transform="rotate(0,888,664)"/><path d="M 904 648v 32h 16a 16 16, 0, 0, 0, 0 -32" transform="rotate(0,920,664)"/><path d="M 968 648v 32h 32v -16a 16 16, 0, 0, 0, -16 -16" transform="rotate(-90,984,664)"/><rect x="1000" y="648" width="32" height="32" transform="rotate(0,1016,664)"/><path d="M 1032 648v 32h 32v -16a 16 16, 0, 0, 0, -16 -16" transform="rotate(90,1048,664)"/><path d="M 1128 648v 32h 16a 16 16, 0, 0, 0, 0 -32" transform="rotate(-90,1144,664)"/><rect x="40" y="680" width="32" height="32" transform="rotate(0,56,696)"/><path d="M 136 680v 32h 32v -16a 16 16, 0, 0, 0, -16 -16" transform="rotate(-90,152,696)"/><path d="M 168 680v 32h 16a 16 16, 0, 0, 0, 0 -32" transform="rotate(0,184,696)"/><path d="M 232 680v 32h 16a 16 16, 0, 0, 0, 0 -32" transform="rotate(-90,248,696)"/><circle cx="312" cy="696" r="16" transform="rotate(0,312,696)"/><rect x="360" y="680" width="32" height="32" transform="rotate(0,376,696)"/><path d="M 648 680v 32h 16a 16 16, 0, 0, 0, 0 -32" transform="rotate(180,664,696)"/><rect x="680" y="680" width="32" height="32" transform="rotate(0,696,696)"/><path d="M 712 680v 32h 16a 16 16, 0, 0, 0, 0 -32" transform="rotate(0,728,696)"/><path d="M 776 680v 32h 32v -16a 16 16, 0, 0, 0, -16 -16" transform="rotate(180,792,696)"/><path d="M 808 680v 32h 32v -16a 16 16, 0, 0, 0, -16 -16" transform="rotate(90,824,696)"/><path d="M 936 680v 32h 16a 16 16, 0, 0, 0, 0 -32" transform="rotate(180,952,696)"/><path d="M 968 680v 32h 32v -16a 16 16, 0, 0, 0, -16 -16" transform="rotate(90,984,696)"/><path d="M 1064 680v 32h 16a 16 16, 0, 0, 0, 0 -32" transform="rotate(-90,1080,696)"/><path d="M 1128 680v 32h 32v -16a 16 16, 0, 0, 0, -16 -16" transform="rotate(180,1144,696)"/><path d="M 1160 680v 32h 32v -16a 16 16, 0, 0, 0, -16 -16" transform="rotate(0,1176,696)"/><path d="M 8 712v 32h 16a 16 16, 0, 0, 0, 0 -32" transform="rotate(180,24,728)"/><rect x="40" y="712" width="32" height="32" transform="rotate(0,56,728)"/><rect x="72" y="712" width="32" height="32" transform="rotate(0,88,728)"/><rect x="104" y="712" width="32" height="32" transform="rotate(0,120,728)"/><rect x="136" y="712" width="32" height="32" transform="rotate(0,152,728)"/><path d="M 200 712v 32h 16a 16 16, 0, 0, 0, 0 -32" transform="rotate(180,216,728)"/><rect x="232" y="712" width="32" height="32" transform="rotate(0,248,728)"/><path d="M 360 712v 32h 16a 16 16, 0, 0, 0, 0 -32" transform="rotate(90,376,728)"/><path d="M 456 712v 32h 16a 16 16, 0, 0, 0, 0 -32" transform="rotate(-90,472,728)"/><path d="M 520 712v 32h 16a 16 16, 0, 0, 0, 0 -32" transform="rotate(-90,536,728)"/><path d="M 616 712v 32h 16a 16 16, 0, 0, 0, 0 -32" transform="rotate(-90,632,728)"/><rect x="680" y="712" width="32" height="32" transform="rotate(0,696,728)"/><path d="M 1000 712v 32h 16a 16 16, 0, 0, 0, 0 -32" transform="rotate(180,1016,728)"/><rect x="1032" y="712" width="32" height="32" transform="rotate(0,1048,728)"/><path d="M 1064 712v 32h 32v -16a 16 16, 0, 0, 0, -16 -16" transform="rotate(90,1080,728)"/><rect x="1160" y="712" width="32" height="32" transform="rotate(0,1176,728)"/><path d="M 104 744v 32h 32v -16a 16 16, 0, 0, 0, -16 -16" transform="rotate(180,120,760)"/><rect x="136" y="744" width="32" height="32" transform="rotate(0,152,760)"/><path d="M 168 744v 32h 32v -16a 16 16, 0, 0, 0, -16 -16" transform="rotate(0,184,760)"/><rect x="232" y="744" width="32" height="32" transform="rotate(0,248,760)"/><path d="M 264 744v 32h 32v -16a 16 16, 0, 0, 0, -16 -16" transform="rotate(0,280,760)"/><path d="M 328 744v 32h 16a 16 16, 0, 0, 0, 0 -32" transform="rotate(-90,344,760)"/><circle cx="408" cy="760" r="16" transform="rotate(0,408,760)"/><rect x="456" y="744" width="32" height="32" transform="rotate(0,472,760)"/><rect x="520" y="744" width="32" height="32" transform="rotate(0,536,760)"/><path d="M 584 744v 32h 32v -16a 16 16, 0, 0, 0, -16 -16" transform="rotate(-90,600,760)"/><path d="M 616 744v 32h 32v -16a 16 16, 0, 0, 0, -16 -16" transform="rotate(90,632,760)"/><rect x="680" y="744" width="32" height="32" transform="rotate(0,696,760)"/><path d="M 744 744v 32h 16a 16 16, 0, 0, 0, 0 -32" transform="rotate(180,760,760)"/><rect x="776" y="744" width="32" height="32" transform="rotate(0,792,760)"/><path d="M 808 744v 32h 32v -16a 16 16, 0, 0, 0, -16 -16" transform="rotate(0,824,760)"/><path d="M 936 744v 32h 16a 16 16, 0, 0, 0, 0 -32" transform="rotate(-90,952,760)"/><path d="M 1032 744v 32h 16a 16 16, 0, 0, 0, 0 -32" transform="rotate(90,1048,760)"/><rect x="1160" y="744" width="32" height="32" transform="rotate(0,1176,760)"/><circle cx="24" cy="792" r="16" transform="rotate(0,24,792)"/><path d="M 136 776v 32h 32v -16a 16 16, 0, 0, 0, -16 -16" transform="rotate(180,152,792)"/><rect x="168" y="776" width="32" height="32" transform="rotate(0,184,792)"/><rect x="200" y="776" width="32" height="32" transform="rotate(0,216,792)"/><rect x="232" y="776" width="32" height="32" transform="rotate(0,248,792)"/><path d="M 264 776v 32h 32v -16a 16 16, 0, 0, 0, -16 -16" transform="rotate(90,280,792)"/><rect x="328" y="776" width="32" height="32" transform="rotate(0,344,792)"/><path d="M 424 776v 32h 16a 16 16, 0, 0, 0, 0 -32" transform="rotate(180,440,792)"/><rect x="456" y="776" width="32" height="32" transform="rotate(0,472,792)"/><rect x="488" y="776" width="32" height="32" transform="rotate(0,504,792)"/><rect x="520" y="776" width="32" height="32" transform="rotate(0,536,792)"/><rect x="552" y="776" width="32" height="32" transform="rotate(0,568,792)"/><path d="M 584 776v 32h 32v -16a 16 16, 0, 0, 0, -16 -16" transform="rotate(90,600,792)"/><path d="M 648 776v 32h 16a 16 16, 0, 0, 0, 0 -32" transform="rotate(180,664,792)"/><path d="M 680 776v 32h 32v -16a 16 16, 0, 0, 0, -16 -16" transform="rotate(90,696,792)"/><path d="M 808 776v 32h 16a 16 16, 0, 0, 0, 0 -32" transform="rotate(90,824,792)"/><path d="M 872 776v 32h 16a 16 16, 0, 0, 0, 0 -32" transform="rotate(180,888,792)"/><rect x="904" y="776" width="32" height="32" transform="rotate(0,920,792)"/><rect x="936" y="776" width="32" height="32" transform="rotate(0,952,792)"/><path d="M 968 776v 32h 32v -16a 16 16, 0, 0, 0, -16 -16" transform="rotate(0,984,792)"/><circle cx="1080" cy="792" r="16" transform="rotate(0,1080,792)"/><path d="M 1128 776v 32h 32v -16a 16 16, 0, 0, 0, -16 -16" transform="rotate(-90,1144,792)"/><rect x="1160" y="776" width="32" height="32" transform="rotate(0,1176,792)"/><path d="M 40 808v 32h 16a 16 16, 0, 0, 0, 0 -32" transform="rotate(180,56,824)"/><rect x="72" y="808" width="32" height="32" transform="rotate(0,88,824)"/><path d="M 104 808v 32h 32v -16a 16 16, 0, 0, 0, -16 -16" transform="rotate(0,120,824)"/><path d="M 168 808v 32h 16a 16 16, 0, 0, 0, 0 -32" transform="rotate(90,184,824)"/><path d="M 296 808v 32h 16a 16 16, 0, 0, 0, 0 -32" transform="rotate(180,312,824)"/><rect x="328" y="808" width="32" height="32" transform="rotate(0,344,824)"/><circle cx="408" cy="824" r="16" transform="rotate(0,408,824)"/><path d="M 456 808v 32h 16a 16 16, 0, 0, 0, 0 -32" transform="rotate(90,472,824)"/><rect x="552" y="808" width="32" height="32" transform="rotate(0,568,824)"/><path d="M 616 808v 32h 16a 16 16, 0, 0, 0, 0 -32" transform="rotate(-90,632,824)"/><path d="M 776 808v 32h 16a 16 16, 0, 0, 0, 0 -32" transform="rotate(-90,792,824)"/><circle cx="856" cy="824" r="16" transform="rotate(0,856,824)"/><rect x="936" y="808" width="32" height="32" transform="rotate(0,952,824)"/><rect x="968" y="808" width="32" height="32" transform="rotate(0,984,824)"/><path d="M 1000 808v 32h 32v -16a 16 16, 0, 0, 0, -16 -16" transform="rotate(0,1016,824)"/><path d="M 1096 808v 32h 16a 16 16, 0, 0, 0, 0 -32" transform="rotate(180,1112,824)"/><rect x="1128" y="808" width="32" height="32" transform="rotate(0,1144,824)"/><rect x="1160" y="808" width="32" height="32" transform="rotate(0,1176,824)"/><circle cx="24" cy="856" r="16" transform="rotate(0,24,856)"/><path d="M 104 840v 32h 16a 16 16, 0, 0, 0, 0 -32" transform="rotate(90,120,856)"/><circle cx="216" cy="856" r="16" transform="rotate(0,216,856)"/><rect x="328" y="840" width="32" height="32" transform="rotate(0,344,856)"/><circle cx="440" cy="856" r="16" transform="rotate(0,440,856)"/><rect x="552" y="840" width="32" height="32" transform="rotate(0,568,856)"/><rect x="584" y="840" width="32" height="32" transform="rotate(0,600,856)"/><path d="M 616 840v 32h 32v -16a 16 16, 0, 0, 0, -16 -16" transform="rotate(90,632,856)"/><path d="M 680 840v 32h 16a 16 16, 0, 0, 0, 0 -32" transform="rotate(-90,696,856)"/><path d="M 744 840v 32h 16a 16 16, 0, 0, 0, 0 -32" transform="rotate(180,760,856)"/><rect x="776" y="840" width="32" height="32" transform="rotate(0,792,856)"/><path d="M 808 840v 32h 32v -16a 16 16, 0, 0, 0, -16 -16" transform="rotate(0,824,856)"/><path d="M 904 840v 32h 32v -16a 16 16, 0, 0, 0, -16 -16" transform="rotate(-90,920,856)"/><rect x="936" y="840" width="32" height="32" transform="rotate(0,952,856)"/><rect x="968" y="840" width="32" height="32" transform="rotate(0,984,856)"/><rect x="1000" y="840" width="32" height="32" transform="rotate(0,1016,856)"/><path d="M 1160 840v 32h 16a 16 16, 0, 0, 0, 0 -32" transform="rotate(90,1176,856)"/><path d="M 40 872v 32h 16a 16 16, 0, 0, 0, 0 -32" transform="rotate(-90,56,888)"/><path d="M 136 872v 32h 16a 16 16, 0, 0, 0, 0 -32" transform="rotate(180,152,888)"/><path d="M 168 872v 32h 16a 16 16, 0, 0, 0, 0 -32" transform="rotate(0,184,888)"/><path d="M 264 872v 32h 32v -16a 16 16, 0, 0, 0, -16 -16" transform="rotate(-90,280,888)"/><rect x="296" y="872" width="32" height="32" transform="rotate(0,312,888)"/><rect x="328" y="872" width="32" height="32" transform="rotate(0,344,888)"/><path d="M 360 872v 32h 32v -16a 16 16, 0, 0, 0, -16 -16" transform="rotate(0,376,888)"/><path d="M 488 872v 32h 16a 16 16, 0, 0, 0, 0 -32" transform="rotate(-90,504,888)"/><path d="M 552 872v 32h 32v -16a 16 16, 0, 0, 0, -16 -16" transform="rotate(180,568,888)"/><path d="M 584 872v 32h 32v -16a 16 16, 0, 0, 0, -16 -16" transform="rotate(90,600,888)"/><rect x="680" y="872" width="32" height="32" transform="rotate(0,696,888)"/><rect x="776" y="872" width="32" height="32" transform="rotate(0,792,888)"/><rect x="808" y="872" width="32" height="32" transform="rotate(0,824,888)"/><rect x="840" y="872" width="32" height="32" transform="rotate(0,856,888)"/><rect x="872" y="872" width="32" height="32" transform="rotate(0,888,888)"/><rect x="904" y="872" width="32" height="32" transform="rotate(0,920,888)"/><rect x="968" y="872" width="32" height="32" transform="rotate(0,984,888)"/><rect x="1000" y="872" width="32" height="32" transform="rotate(0,1016,888)"/><path d="M 1032 872v 32h 32v -16a 16 16, 0, 0, 0, -16 -16" transform="rotate(0,1048,888)"/><path d="M 1128 872v 32h 16a 16 16, 0, 0, 0, 0 -32" transform="rotate(-90,1144,888)"/><path d="M 8 904v 32h 16a 16 16, 0, 0, 0, 0 -32" transform="rotate(180,24,920)"/><path d="M 40 904v 32h 32v -16a 16 16, 0, 0, 0, -16 -16" transform="rotate(90,56,920)"/><circle cx="120" cy="920" r="16" transform="rotate(0,120,920)"/><circle cx="216" cy="920" r="16" transform="rotate(0,216,920)"/><rect x="264" y="904" width="32" height="32" transform="rotate(0,280,920)"/><rect x="296" y="904" width="32" height="32" transform="rotate(0,312,920)"/><rect x="328" y="904" width="32" height="32" transform="rotate(0,344,920)"/><path d="M 360 904v 32h 32v -16a 16 16, 0, 0, 0, -16 -16" transform="rotate(90,376,920)"/><path d="M 456 904v 32h 32v -16a 16 16, 0, 0, 0, -16 -16" transform="rotate(-90,472,920)"/><path d="M 488 904v 32h 32v -16a 16 16, 0, 0, 0, -16 -16" transform="rotate(90,504,920)"/><path d="M 616 904v 32h 16a 16 16, 0, 0, 0, 0 -32" transform="rotate(180,632,920)"/><rect x="648" y="904" width="32" height="32" transform="rotate(0,664,920)"/><rect x="680" y="904" width="32" height="32" transform="rotate(0,696,920)"/><path d="M 744 904v 32h 32v -16a 16 16, 0, 0, 0, -16 -16" transform="rotate(-90,760,920)"/><rect x="776" y="904" width="32" height="32" transform="rotate(0,792,920)"/><rect x="872" y="904" width="32" height="32" transform="rotate(0,888,920)"/><rect x="904" y="904" width="32" height="32" transform="rotate(0,920,920)"/><rect x="936" y="904" width="32" height="32" transform="rotate(0,952,920)"/><rect x="968" y="904" width="32" height="32" transform="rotate(0,984,920)"/><rect x="1000" y="904" width="32" height="32" transform="rotate(0,1016,920)"/><rect x="1032" y="904" width="32" height="32" transform="rotate(0,1048,920)"/><path d="M 1096 904v 32h 16a 16 16, 0, 0, 0, 0 -32" transform="rotate(180,1112,920)"/><rect x="1128" y="904" width="32" height="32" transform="rotate(0,1144,920)"/><path d="M 1160 904v 32h 32v -16a 16 16, 0, 0, 0, -16 -16" transform="rotate(0,1176,920)"/><rect x="264" y="936" width="32" height="32" transform="rotate(0,280,952)"/><rect x="296" y="936" width="32" height="32" transform="rotate(0,312,952)"/><path d="M 424 936v 32h 16a 16 16, 0, 0, 0, 0 -32" transform="rotate(180,440,952)"/><path d="M 456 936v 32h 32v -16a 16 16, 0, 0, 0, -16 -16" transform="rotate(90,472,952)"/><path d="M 648 936v 32h 32v -16a 16 16, 0, 0, 0, -16 -16" transform="rotate(180,664,952)"/><path d="M 680 936v 32h 32v -16a 16 16, 0, 0, 0, -16 -16" transform="rotate(90,696,952)"/><path d="M 744 936v 32h 32v -16a 16 16, 0, 0, 0, -16 -16" transform="rotate(180,760,952)"/><path d="M 776 936v 32h 32v -16a 16 16, 0, 0, 0, -16 -16" transform="rotate(90,792,952)"/><rect x="872" y="936" width="32" height="32" transform="rotate(0,888,952)"/><rect x="904" y="936" width="32" height="32" transform="rotate(0,920,952)"/><rect x="1032" y="936" width="32" height="32" transform="rotate(0,1048,952)"/><rect x="1160" y="936" width="32" height="32" transform="rotate(0,1176,952)"/><rect x="264" y="968" width="32" height="32" transform="rotate(0,280,984)"/><rect x="296" y="968" width="32" height="32" transform="rotate(0,312,984)"/><circle cx="408" cy="984" r="16" transform="rotate(0,408,984)"/><circle cx="504" cy="984" r="16" transform="rotate(0,504,984)"/><circle cx="568" cy="984" r="16" transform="rotate(0,568,984)"/><circle cx="728" cy="984" r="16" transform="rotate(0,728,984)"/><path d="M 840 968v 32h 32v -16a 16 16, 0, 0, 0, -16 -16" transform="rotate(-90,856,984)"/><rect x="872" y="968" width="32" height="32" transform="rotate(0,888,984)"/><rect x="904" y="968" width="32" height="32" transform="rotate(0,920,984)"/><circle cx="984" cy="984" r="16" transform="rotate(0,984,984)"/><rect x="1032" y="968" width="32" height="32" transform="rotate(0,1048,984)"/><path d="M 1096 968v 32h 32v -16a 16 16, 0, 0, 0, -16 -16" transform="rotate(-90,1112,984)"/><rect x="1128" y="968" width="32" height="32" transform="rotate(0,1144,984)"/><rect x="1160" y="968" width="32" height="32" transform="rotate(0,1176,984)"/><path d="M 264 1000v 32h 32v -16a 16 16, 0, 0, 0, -16 -16" transform="rotate(180,280,1016)"/><path d="M 296 1000v 32h 32v -16a 16 16, 0, 0, 0, -16 -16" transform="rotate(90,312,1016)"/><path d="M 360 1000v 32h 16a 16 16, 0, 0, 0, 0 -32" transform="rotate(-90,376,1016)"/><path d="M 424 1000v 32h 16a 16 16, 0, 0, 0, 0 -32" transform="rotate(180,440,1016)"/><path d="M 456 1000v 32h 16a 16 16, 0, 0, 0, 0 -32" transform="rotate(0,472,1016)"/><circle cx="696" cy="1016" r="16" transform="rotate(0,696,1016)"/><path d="M 744 1000v 32h 32v -16a 16 16, 0, 0, 0, -16 -16" transform="rotate(-90,760,1016)"/><path d="M 776 1000v 32h 16a 16 16, 0, 0, 0, 0 -32" transform="rotate(0,792,1016)"/><rect x="840" y="1000" width="32" height="32" transform="rotate(0,856,1016)"/><rect x="904" y="1000" width="32" height="32" transform="rotate(0,920,1016)"/><rect x="1032" y="1000" width="32" height="32" transform="rotate(0,1048,1016)"/><path d="M 1096 1000v 32h 32v -16a 16 16, 0, 0, 0, -16 -16" transform="rotate(180,1112,1016)"/><rect x="1128" y="1000" width="32" height="32" transform="rotate(0,1144,1016)"/><rect x="1160" y="1000" width="32" height="32" transform="rotate(0,1176,1016)"/><path d="M 328 1032v 32h 16a 16 16, 0, 0, 0, 0 -32" transform="rotate(180,344,1048)"/><rect x="360" y="1032" width="32" height="32" transform="rotate(0,376,1048)"/><path d="M 488 1032v 32h 16a 16 16, 0, 0, 0, 0 -32" transform="rotate(180,504,1048)"/><rect x="520" y="1032" width="32" height="32" transform="rotate(0,536,1048)"/><path d="M 552 1032v 32h 16a 16 16, 0, 0, 0, 0 -32" transform="rotate(0,568,1048)"/><path d="M 712 1032v 32h 32v -16a 16 16, 0, 0, 0, -16 -16" transform="rotate(-90,728,1048)"/><path d="M 744 1032v 32h 32v -16a 16 16, 0, 0, 0, -16 -16" transform="rotate(90,760,1048)"/><path d="M 808 1032v 32h 16a 16 16, 0, 0, 0, 0 -32" transform="rotate(180,824,1048)"/><path d="M 840 1032v 32h 32v -16a 16 16, 0, 0, 0, -16 -16" transform="rotate(90,856,1048)"/><path d="M 904 1032v 32h 32v -16a 16 16, 0, 0, 0, -16 -16" transform="rotate(180,920,1048)"/><rect x="936" y="1032" width="32" height="32" transform="rotate(0,952,1048)"/><rect x="968" y="1032" width="32" height="32" transform="rotate(0,984,1048)"/><rect x="1000" y="1032" width="32" height="32" transform="rotate(0,1016,1048)"/><rect x="1032" y="1032" width="32" height="32" transform="rotate(0,1048,1048)"/><path d="M 1064 1032v 32h 16a 16 16, 0, 0, 0, 0 -32" transform="rotate(0,1080,1048)"/><path d="M 1128 1032v 32h 32v -16a 16 16, 0, 0, 0, -16 -16" transform="rotate(180,1144,1048)"/><rect x="1160" y="1032" width="32" height="32" transform="rotate(0,1176,1048)"/><path d="M 264 1064v 32h 16a 16 16, 0, 0, 0, 0 -32" transform="rotate(180,280,1080)"/><path d="M 296 1064v 32h 32v -16a 16 16, 0, 0, 0, -16 -16" transform="rotate(0,312,1080)"/><rect x="360" y="1064" width="32" height="32" transform="rotate(0,376,1080)"/><circle cx="440" cy="1080" r="16" transform="rotate(0,440,1080)"/><path d="M 616 1064v 32h 16a 16 16, 0, 0, 0, 0 -32" transform="rotate(180,632,1080)"/><path d="M 648 1064v 32h 32v -16a 16 16, 0, 0, 0, -16 -16" transform="rotate(0,664,1080)"/><rect x="712" y="1064" width="32" height="32" transform="rotate(0,728,1080)"/><circle cx="792" cy="1080" r="16" transform="rotate(0,792,1080)"/><circle cx="888" cy="1080" r="16" transform="rotate(0,888,1080)"/><rect x="936" y="1064" width="32" height="32" transform="rotate(0,952,1080)"/><path d="M 1000 1064v 32h 32v -16a 16 16, 0, 0, 0, -16 -16" transform="rotate(180,1016,1080)"/><rect x="1032" y="1064" width="32" height="32" transform="rotate(0,1048,1080)"/><circle cx="1112" cy="1080" r="16" transform="rotate(0,1112,1080)"/><rect x="1160" y="1064" width="32" height="32" transform="rotate(0,1176,1080)"/><rect x="296" y="1096" width="32" height="32" transform="rotate(0,312,1112)"/><rect x="328" y="1096" width="32" height="32" transform="rotate(0,344,1112)"/><rect x="360" y="1096" width="32" height="32" transform="rotate(0,376,1112)"/><path d="M 456 1096v 32h 32v -16a 16 16, 0, 0, 0, -16 -16" transform="rotate(-90,472,1112)"/><path d="M 488 1096v 32h 16a 16 16, 0, 0, 0, 0 -32" transform="rotate(0,504,1112)"/><path d="M 648 1096v 32h 16a 16 16, 0, 0, 0, 0 -32" transform="rotate(90,664,1112)"/><rect x="712" y="1096" width="32" height="32" transform="rotate(0,728,1112)"/><path d="M 904 1096v 32h 32v -16a 16 16, 0, 0, 0, -16 -16" transform="rotate(-90,920,1112)"/><path d="M 936 1096v 32h 32v -16a 16 16, 0, 0, 0, -16 -16" transform="rotate(90,952,1112)"/><path d="M 1032 1096v 32h 16a 16 16, 0, 0, 0, 0 -32" transform="rotate(90,1048,1112)"/><path d="M 1160 1096v 32h 16a 16 16, 0, 0, 0, 0 -32" transform="rotate(90,1176,1112)"/><path d="M 264 1128v 32h 16a 16 16, 0, 0, 0, 0 -32" transform="rotate(180,280,1144)"/><path d="M 296 1128v 32h 32v -16a 16 16, 0, 0, 0, -16 -16" transform="rotate(90,312,1144)"/><path d="M 360 1128v 32h 16a 16 16, 0, 0, 0, 0 -32" transform="rotate(90,376,1144)"/><rect x="456" y="1128" width="32" height="32" transform="rotate(0,472,1144)"/><circle cx="536" cy="1144" r="16" transform="rotate(0,536,1144)"/><path d="M 680 1128v 32h 32v -16a 16 16, 0, 0, 0, -16 -16" transform="rotate(-90,696,1144)"/><rect x="712" y="1128" width="32" height="32" transform="rotate(0,728,1144)"/><path d="M 776 1128v 32h 16a 16 16, 0, 0, 0, 0 -32" transform="rotate(180,792,1144)"/><path d="M 808 1128v 32h 32v -16a 16 16, 0, 0, 0, -16 -16" transform="rotate(0,824,1144)"/><path d="M 872 1128v 32h 32v -16a 16 16, 0, 0, 0, -16 -16" transform="rotate(-90,888,1144)"/><rect x="904" y="1128" width="32" height="32" transform="rotate(0,920,1144)"/><circle cx="1016" cy="1144" r="16" transform="rotate(0,1016,1144)"/><circle cx="344" cy="1176" r="16" transform="rotate(0,344,1176)"/><path d="M 392 1160v 32h 16a 16 16, 0, 0, 0, 0 -32" transform="rotate(180,408,1176)"/><rect x="424" y="1160" width="32" height="32" transform="rotate(0,440,1176)"/><rect x="456" y="1160" width="32" height="32" transform="rotate(0,472,1176)"/><path d="M 488 1160v 32h 16a 16 16, 0, 0, 0, 0 -32" transform="rotate(0,504,1176)"/><circle cx="632" cy="1176" r="16" transform="rotate(0,632,1176)"/><path d="M 680 1160v 32h 32v -16a 16 16, 0, 0, 0, -16 -16" transform="rotate(180,696,1176)"/><path d="M 712 1160v 32h 32v -16a 16 16, 0, 0, 0, -16 -16" transform="rotate(90,728,1176)"/><path d="M 808 1160v 32h 16a 16 16, 0, 0, 0, 0 -32" transform="rotate(90,824,1176)"/><path d="M 872 1160v 32h 32v -16a 16 16, 0, 0, 0, -16 -16" transform="rotate(180,888,1176)"/><rect x="904" y="1160" width="32" height="32" transform="rotate(0,920,1176)"/><path d="M 936 1160v 32h 16a 16 16, 0, 0, 0, 0 -32" transform="rotate(0,952,1176)"/><path d="M 1032 1160v 32h 16a 16 16, 0, 0, 0, 0 -32" transform="rotate(180,1048,1176)"/><path d="M 1064 1160v 32h 16a 16 16, 0, 0, 0, 0 -32" transform="rotate(0,1080,1176)"/><path d="M 1128 1160v 32h 16a 16 16, 0, 0, 0, 0 -32" transform="rotate(180,1144,1176)"/><path d="M 1160 1160v 32h 16a 16 16, 0, 0, 0, 0 -32" transform="rotate(0,1176,1176)"/></clipPath><clipPath id="clip-path-corners-square-color-0-0-293"><path clip-rule="evenodd" d="M 8 88v 64a 80 80, 0, 0, 0, 80 80h 64a 80 80, 0, 0, 0, 80 -80v -64a 80 80, 0, 0, 0, -80 -80h -64a 80 80, 0, 0, 0, -80 80M 88 40h 64a 48 48, 0, 0, 1, 48 48v 64a 48 48, 0, 0, 1, -48 48h -64a 48 48, 0, 0, 1, -48 -48v -64a 48 48, 0, 0, 1, 48 -48" transform="rotate(0,120,120)"/></clipPath><clipPath id="clip-path-corners-dot-color-0-0-293"><circle cx="120" cy="120" r="48" transform="rotate(0,120,120)"/></clipPath><clipPath id="clip-path-corners-square-color-1-0-293"><path clip-rule="evenodd" d="M 968 88v 64a 80 80, 0, 0, 0, 80 80h 64a 80 80, 0, 0, 0, 80 -80v -64a 80 80, 0, 0, 0, -80 -80h -64a 80 80, 0, 0, 0, -80 80M 1048 40h 64a 48 48, 0, 0, 1, 48 48v 64a 48 48, 0, 0, 1, -48 48h -64a 48 48, 0, 0, 1, -48 -48v -64a 48 48, 0, 0, 1, 48 -48" transform="rotate(90,1080,120)"/></clipPath><clipPath id="clip-path-corners-dot-color-1-0-293"><circle cx="1080" cy="120" r="48" transform="rotate(90,1080,120)"/></clipPath><clipPath id="clip-path-corners-square-color-0-1-293"><path clip-rule="evenodd" d="M 8 1048v 64a 80 80, 0, 0, 0, 80 80h 64a 80 80, 0, 0, 0, 80 -80v -64a 80 80, 0, 0, 0, -80 -80h -64a 80 80, 0, 0, 0, -80 80M 88 1000h 64a 48 48, 0, 0, 1, 48 48v 64a 48 48, 0, 0, 1, -48 48h -64a 48 48, 0, 0, 1, -48 -48v -64a 48 48, 0, 0, 1, 48 -48" transform="rotate(-90,120,1080)"/></clipPath><clipPath id="clip-path-corners-dot-color-0-1-293"><circle cx="120" cy="1080" r="48" transform="rotate(-90,120,1080)"/></clipPath></defs><rect x="0" y="0" height="1200" width="1200" clip-path="url('#clip-path-background-color-293')" fill="#ffffff"/><rect x="0" y="0" height="1200" width="1200" clip-path="url('#clip-path-dot-color-293')" fill="#000000"/><rect x="8" y="8" height="224" width="224" clip-path="url('#clip-path-corners-square-color-0-0-293')" fill="#000000"/><rect x="72" y="72" height="96" width="96" clip-path="url('#clip-path-corners-dot-color-0-0-293')" fill="#000000"/><rect x="968" y="8" height="224" width="224" clip-path="url('#clip-path-corners-square-color-1-0-293')" fill="#000000"/><rect x="1032" y="72" height="96" width="96" clip-path="url('#clip-path-corners-dot-color-1-0-293')" fill="#000000"/><rect x="8" y="968" height="224" width="224" clip-path="url('#clip-path-corners-square-color-0-1-293')" fill="#000000"/><rect x="72" y="1032" height="96" width="96" clip-path="url('#clip-path-corners-dot-color-0-1-293')" fill="#000000"/></svg>