<?xml version="1.0" standalone="no"?>
<svg xmlns="http://www.w3.org/2000/svg" width="1200" height="1200" xmlns:xlink="http://www.w3.org/1999/xlink" viewBox="0 0 1200 1200"><defs><clipPath id="clip-path-background-color-322"><rect x="0" y="0" width="1200" height="1200"/></clipPath><clipPath id="clip-path-dot-color-322"><path d="M 328 8v 32h 16a 16 16, 0, 0, 0, 0 -32" transform="rotate(-90,344,24)"/><path d="M 392 8v 32h 16a 16 16, 0, 0, 0, 0 -32" transform="rotate(180,408,24)"/><path d="M 424 8v 32h 32v -16a 16 16, 0, 0, 0, -16 -16" transform="rotate(0,440,24)"/><path d="M 584 8v 32h 32v -16a 16 16, 0, 0, 0, -16 -16" transform="rotate(-90,600,24)"/><path d="M 616 8v 32h 32v -16a 16 16, 0, 0, 0, -16 -16" transform="rotate(0,632,24)"/><circle cx="696" cy="24" r="16" transform="rotate(0,696,24)"/><path d="M 744 8v 32h 16a 16 16, 0, 0, 0, 0 -32" transform="rotate(180,760,24)"/><rect x="776" y="8" width="32" height="32" transform="rotate(0,792,24)"/><rect x="808" y="8" width="32" height="32" transform="rotate(0,824,24)"/><path d="M 840 8v 32h 16a 16 16, 0, 0, 0, 0 -32" transform="rotate(0,856,24)"/><path d="M 904 8v 32h 16a 16 16, 0, 0, 0, 0 -32" transform="rotate(-90,920,24)"/><path d="M 296 40v 32h 32v -16a 16 16, 0, 0, 0, -16 -16" transform="rotate(-90,312,56)"/><rect x="328" y="40" width="32" height="32" transform="rotate(0,344,56)"/><path d="M 360 40v 32h 32v -16a 16 16, 0, 0, 0, -16 -16" transform="rotate(0,376,56)"/><path d="M 424 40v 32h 16a 16 16, 0, 0, 0, 0 -32" transform="rotate(90,440,56)"/><path d="M 488 40v 32h 16a 16 16, 0, 0, 0, 0 -32" transform="rotate(-90,504,56)"/><path d="M 552 40v 32h 32v -16a 16 16, 0, 0, 0, -16 -16" transform="rotate(-90,568,56)"/><rect x="584" y="40" width="32" height="32" transform="rotate(0,600,56)"/><rect x="616" y="40" width="32" height="32" transform="rotate(0,632,56)"/><path d="M 648 40v 32h 32v -16a 16 16, 0, 0, 0, -16 -16" transform="rotate(0,664,56)"/><path d="M 712 40v 32h 16a 16 16, 0, 0, 0, 0 -32" transform="rotate(-90,728,56)"/><rect x="776" y="40" width="32" height="32" transform="rotate(0,792,56)"/><rect x="808" y="40" width="32" height="32" transform="rotate(0,824,56)"/><path d="M 904 40v 32h 16a 16 16, 0, 0, 0, 0 -32" transform="rotate(90,920,56)"/><path d="M 296 72v 32h 32v -16a 16 16, 0, 0, 0, -16 -16" transform="rotate(180,312,88)"/><rect x="328" y="72" width="32" height="32" transform="rotate(0,344,88)"/><rect x="360" y="72" width="32" height="32" transform="rotate(0,376,88)"/><rect x="488" y="72" width="32" height="32" transform="rotate(0,504,88)"/><rect x="520" y="72" width="32" height="32" transform="rotate(0,536,88)"/><rect x="552" y="72" width="32" height="32" transform="rotate(0,568,88)"/><path d="M 584 72v 32h 32v -16a 16 16, 0, 0, 0, -16 -16" transform="rotate(90,600,88)"/><rect x="648" y="72" width="32" height="32" transform="rotate(0,664,88)"/><rect x="680" y="72" width="32" height="32" transform="rotate(0,696,88)"/><rect x="712" y="72" width="32" height="32" transform="rotate(0,728,88)"/><rect x="744" y="72" width="32" height="32" transform="rotate(0,760,88)"/><rect x="776" y="72" width="32" height="32" transform="rotate(0,792,88)"/><rect x="808" y="72" width="32" height="32" transform="rotate(0,824,88)"/><rect x="840" y="72" width="32" height="32" transform="rotate(0,856,88)"/><path d="M 872 72v 32h 32v -16a 16 16, 0, 0, 0, -16 -16" transform="rotate(0,888,88)"/><circle cx="280" cy="120" r="16" transform="rotate(0,280,120)"/><path d="M 328 104v 32h 32v -16a 16 16, 0, 0, 0, -16 -16" transform="rotate(180,344,120)"/><rect x="360" y="104" width="32" height="32" transform="rotate(0,376,120)"/><path d="M 392 104v 32h 32v -16a 16 16, 0, 0, 0, -16 -16" transform="rotate(0,408,120)"/><path d="M 456 104v 32h 16a 16 16, 0, 0, 0, 0 -32" transform="rotate(180,472,120)"/><rect x="488" y="104" width="32" height="32" transform="rotate(0,504,120)"/><rect x="520" y="104" width="32" height="32" transform="rotate(0,536,120)"/><path d="M 616 104v 32h 16a 16 16, 0, 0, 0, 0 -32" transform="rotate(180,632,120)"/><rect x="648" y="104" width="32" height="32" transform="rotate(0,664,120)"/><rect x="680" y="104" width="32" height="32" transform="rotate(0,696,120)"/><path d="M 712 104v 32h 32v -16a 16 16, 0, 0, 0, -16 -16" transform="rotate(90,728,120)"/><rect x="808" y="104" width="32" height="32" transform="rotate(0,824,120)"/><rect x="840" y="104" width="32" height="32" transform="rotate(0,856,120)"/><path d="M 872 104v 32h 32v -16a 16 16, 0, 0, 0, -16 -16" transform="rotate(90,888,120)"/><rect x="360" y="136" width="32" height="32" transform="rotate(0,376,152)"/><rect x="392" y="136" width="32" height="32" transform="rotate(0,408,152)"/><path d="M 424 136v 32h 16a 16 16, 0, 0, 0, 0 -32" transform="rotate(0,440,152)"/><rect x="520" y="136" width="32" height="32" transform="rotate(0,536,152)"/><circle cx="600" cy="152" r="16" transform="rotate(0,600,152)"/><path d="M 648 136v 32h 32v -16a 16 16, 0, 0, 0, -16 -16" transform="rotate(180,664,152)"/><path d="M 680 136v 32h 32v -16a 16 16, 0, 0, 0, -16 -16" transform="rotate(90,696,152)"/><rect x="808" y="136" width="32" height="32" transform="rotate(0,824,152)"/><path d="M 904 136v 32h 16a 16 16, 0, 0, 0, 0 -32" transform="rotate(-90,920,152)"/><path d="M 264 168v 32h 32v -16a 16 16, 0, 0, 0, -16 -16" transform="rotate(-90,280,184)"/><path d="M 296 168v 32h 16a 16 16, 0, 0, 0, 0 -32" transform="rotate(0,312,184)"/><path d="M 360 168v 32h 16a 16 16, 0, 0, 0, 0 -32" transform="rotate(90,376,184)"/><path d="M 456 168v 32h 16a 16 16, 0, 0, 0, 0 -32" transform="rotate(-90,472,184)"/><rect x="520" y="168" width="32" height="32" transform="rotate(0,536,184)"/><path d="M 552 168v 32h 16a 16 16, 0, 0, 0, 0 -32" transform="rotate(0,568,184)"/><path d="M 712 168v 32h 16a 16 16, 0, 0, 0, 0 -32" transform="rotate(-90,728,184)"/><path d="M 808 168v 32h 16a 16 16, 0, 0, 0, 0 -32" transform="rotate(90,824,184)"/><rect x="904" y="168" width="32" height="32" transform="rotate(0,920,184)"/><rect x="264" y="200" width="32" height="32" transform="rotate(0,280,216)"/><circle cx="344" cy="216" r="16" transform="rotate(0,344,216)"/><path d="M 392 200v 32h 16a 16 16, 0, 0, 0, 0 -32" transform="rotate(-90,408,216)"/><path d="M 456 200v 32h 16a 16 16, 0, 0, 0, 0 -32" transform="rotate(90,472,216)"/><rect x="520" y="200" width="32" height="32" transform="rotate(0,536,216)"/><circle cx="600" cy="216" r="16" transform="rotate(0,600,216)"/><circle cx="664" cy="216" r="16" transform="rotate(0,664,216)"/><rect x="712" y="200" width="32" height="32" transform="rotate(0,728,216)"/><circle cx="792" cy="216" r="16" transform="rotate(0,792,216)"/><path d="M 840 200v 32h 16a 16 16, 0, 0, 0, 0 -32" transform="rotate(-90,856,216)"/><rect x="904" y="200" width="32" height="32" transform="rotate(0,920,216)"/><path d="M 264 232v 32h 16a 16 16, 0, 0, 0, 0 -32" transform="rotate(90,280,248)"/><path d="M 360 232v 32h 16a 16 16, 0, 0, 0, 0 -32" transform="rotate(180,376,248)"/><rect x="392" y="232" width="32" height="32" transform="rotate(0,408,248)"/><path d="M 520 232v 32h 16a 16 16, 0, 0, 0, 0 -32" transform="rotate(90,536,248)"/><path d="M 712 232v 32h 16a 16 16, 0, 0, 0, 0 -32" transform="rotate(90,728,248)"/><rect x="840" y="232" width="32" height="32" transform="rotate(0,856,248)"/><rect x="872" y="232" width="32" height="32" transform="rotate(0,888,248)"/><path d="M 904 232v 32h 32v -16a 16 16, 0, 0, 0, -16 -16" transform="rotate(90,920,248)"/><path d="M 40 264v 32h 16a 16 16, 0, 0, 0, 0 -32" transform="rotate(180,56,280)"/><path d="M 72 264v 32h 32v -16a 16 16, 0, 0, 0, -16 -16" transform="rotate(0,88,280)"/><circle cx="216" cy="280" r="16" transform="rotate(0,216,280)"/><path d="M 328 264v 32h 16a 16 16, 0, 0, 0, 0 -32" transform="rotate(-90,344,280)"/><rect x="392" y="264" width="32" height="32" transform="rotate(0,408,280)"/><path d="M 424 264v 32h 32v -16a 16 16, 0, 0, 0, -16 -16" transform="rotate(0,440,280)"/><path d="M 584 264v 32h 32v -16a 16 16, 0, 0, 0, -16 -16" transform="rotate(-90,600,280)"/><path d="M 616 264v 32h 32v -16a 16 16, 0, 0, 0, -16 -16" transform="rotate(0,632,280)"/><path d="M 744 264v 32h 32v -16a 16 16, 0, 0, 0, -16 -16" transform="rotate(-90,760,280)"/><rect x="776" y="264" width="32" height="32" transform="rotate(0,792,280)"/><rect x="808" y="264" width="32" height="32" transform="rotate(0,824,280)"/><path d="M 840 264v 32h 32v -16a 16 16, 0, 0, 0, -16 -16" transform="rotate(90,856,280)"/><path d="M 968 264v 32h 32v -16a 16 16, 0, 0, 0, -16 -16" transform="rotate(-90,984,280)"/><path d="M 1000 264v 32h 32v -16a 16 16, 0, 0, 0, -16 -16" transform="rotate(0,1016,280)"/><circle cx="1080" cy="280" r="16" transform="rotate(0,1080,280)"/><rect x="72" y="296" width="32" height="32" transform="rotate(0,88,312)"/><rect x="104" y="296" width="32" height="32" transform="rotate(0,120,312)"/><path d="M 136 296v 32h 16a 16 16, 0, 0, 0, 0 -32" transform="rotate(0,152,312)"/><path d="M 232 296v 32h 32v -16a 16 16, 0, 0, 0, -16 -16" transform="rotate(-90,248,312)"/><rect x="264" y="296" width="32" height="32" transform="rotate(0,280,312)"/><rect x="296" y="296" width="32" height="32" transform="rotate(0,312,312)"/><rect x="328" y="296" width="32" height="32" transform="rotate(0,344,312)"/><rect x="360" y="296" width="32" height="32" transform="rotate(0,376,312)"/><rect x="392" y="296" width="32" height="32" transform="rotate(0,408,312)"/><path d="M 424 296v 32h 32v -16a 16 16, 0, 0, 0, -16 -16" transform="rotate(90,440,312)"/><circle cx="504" cy="312" r="16" transform="rotate(0,504,312)"/><rect x="584" y="296" width="32" height="32" transform="rotate(0,600,312)"/><path d="M 616 296v 32h 32v -16a 16 16, 0, 0, 0, -16 -16" transform="rotate(90,632,312)"/><path d="M 680 296v 32h 16a 16 16, 0, 0, 0, 0 -32" transform="rotate(180,696,312)"/><rect x="712" y="296" width="32" height="32" transform="rotate(0,728,312)"/><rect x="744" y="296" width="32" height="32" transform="rotate(0,760,312)"/><rect x="776" y="296" width="32" height="32" transform="rotate(0,792,312)"/><path d="M 808 296v 32h 32v -16a 16 16, 0, 0, 0, -16 -16" transform="rotate(90,824,312)"/><path d="M 872 296v 32h 32v -16a 16 16, 0, 0, 0, -16 -16" transform="rotate(-90,888,312)"/><rect x="904" y="296" width="32" height="32" transform="rotate(0,920,312)"/><rect x="936" y="296" width="32" height="32" transform="rotate(0,952,312)"/><rect x="968" y="296" width="32" height="32" transform="rotate(0,984,312)"/><path d="M 1000 296v 32h 32v -16a 16 16, 0, 0, 0, -16 -16" transform="rotate(90,1016,312)"/><path d="M 1160 296v 32h 16a 16 16, 0, 0, 0, 0 -32" transform="rotate(-90,1176,312)"/><circle cx="24" cy="344" r="16" transform="rotate(0,24,344)"/><rect x="72" y="328" width="32" height="32" transform="rotate(0,88,344)"/><path d="M 200 328v 32h 16a 16 16, 0, 0, 0, 0 -32" transform="rotate(180,216,344)"/><path d="M 232 328v 32h 32v -16a 16 16, 0, 0, 0, -16 -16" transform="rotate(90,248,344)"/><path d="M 296 328v 32h 16a 16 16, 0, 0, 0, 0 -32" transform="rotate(90,312,344)"/><path d="M 360 328v 32h 16a 16 16, 0, 0, 0, 0 -32" transform="rotate(90,376,344)"/><path d="M 520 328v 32h 16a 16 16, 0, 0, 0, 0 -32" transform="rotate(-90,536,344)"/><rect x="584" y="328" width="32" height="32" transform="rotate(0,600,344)"/><rect x="744" y="328" width="32" height="32" transform="rotate(0,760,344)"/><path d="M 872 328v 32h 16a 16 16, 0, 0, 0, 0 -32" transform="rotate(90,888,344)"/><path d="M 936 328v 32h 32v -16a 16 16, 0, 0, 0, -16 -16" transform="rotate(180,952,344)"/><path d="M 968 328v 32h 32v -16a 16 16, 0, 0, 0, -16 -16" transform="rotate(90,984,344)"/><path d="M 1032 328v 32h 16a 16 16, 0, 0, 0, 0 -32" transform="rotate(180,1048,344)"/><path d="M 1064 328v 32h 16a 16 16, 0, 0, 0, 0 -32" transform="rotate(0,1080,344)"/><rect x="1160" y="328" width="32" height="32" transform="rotate(0,1176,344)"/><rect x="72" y="360" width="32" height="32" transform="rotate(0,88,376)"/><rect x="104" y="360" width="32" height="32" transform="rotate(0,120,376)"/><rect x="136" y="360" width="32" height="32" transform="rotate(0,152,376)"/><path d="M 168 360v 32h 32v -16a 16 16, 0, 0, 0, -16 -16" transform="rotate(0,184,376)"/><path d="M 264 360v 32h 16a 16 16, 0, 0, 0, 0 -32" transform="rotate(-90,280,376)"/><circle cx="344" cy="376" r="16" transform="rotate(0,344,376)"/><path d="M 424 360v 32h 32v -16a 16 16, 0, 0, 0, -16 -16" transform="rotate(-90,440,376)"/><path d="M 456 360v 32h 32v -16a 16 16, 0, 0, 0, -16 -16" transform="rotate(0,472,376)"/><path d="M 520 360v 32h 32v -16a 16 16, 0, 0, 0, -16 -16" transform="rotate(180,536,376)"/><rect x="552" y="360" width="32" height="32" transform="rotate(0,568,376)"/><path d="M 584 360v 32h 32v -16a 16 16, 0, 0, 0, -16 -16" transform="rotate(90,600,376)"/><path d="M 648 360v 32h 16a 16 16, 0, 0, 0, 0 -32" transform="rotate(-90,664,376)"/><path d="M 712 360v 32h 16a 16 16, 0, 0, 0, 0 -32" transform="rotate(180,728,376)"/><rect x="744" y="360" width="32" height="32" transform="rotate(0,760,376)"/><circle cx="856" cy="376" r="16" transform="rotate(0,856,376)"/><circle cx="920" cy="376" r="16" transform="rotate(0,920,376)"/><path d="M 1000 360v 32h 16a 16 16, 0, 0, 0, 0 -32" transform="rotate(-90,1016,376)"/><path d="M 1128 360v 32h 32v -16a 16 16, 0, 0, 0, -16 -16" transform="rotate(-90,1144,376)"/><rect x="1160" y="360" width="32" height="32" transform="rotate(0,1176,376)"/><path d="M 40 392v 32h 16a 16 16, 0, 0, 0, 0 -32" transform="rotate(180,56,408)"/><rect x="72" y="392" width="32" height="32" transform="rotate(0,88,408)"/><path d="M 168 392v 32h 32v -16a 16 16, 0, 0, 0, -16 -16" transform="rotate(180,184,408)"/><rect x="200" y="392" width="32" height="32" transform="rotate(0,216,408)"/><rect x="232" y="392" width="32" height="32" transform="rotate(0,248,408)"/><rect x="264" y="392" width="32" height="32" transform="rotate(0,280,408)"/><path d="M 296 392v 32h 32v -16a 16 16, 0, 0, 0, -16 -16" transform="rotate(0,312,408)"/><path d="M 392 392v 32h 16a 16 16, 0, 0, 0, 0 -32" transform="rotate(180,408,408)"/><rect x="424" y="392" width="32" height="32" transform="rotate(0,440,408)"/><rect x="456" y="392" width="32" height="32" transform="rotate(0,472,408)"/><path d="M 488 392v 32h 16a 16 16, 0, 0, 0, 0 -32" transform="rotate(0,504,408)"/><path d="M 616 392v 32h 16a 16 16, 0, 0, 0, 0 -32" transform="rotate(180,632,408)"/><rect x="648" y="392" width="32" height="32" transform="rotate(0,664,408)"/><rect x="744" y="392" width="32" height="32" transform="rotate(0,760,408)"/><path d="M 872 392v 32h 16a 16 16, 0, 0, 0, 0 -32" transform="rotate(-90,888,408)"/><path d="M 968 392v 32h 32v -16a 16 16, 0, 0, 0, -16 -16" transform="rotate(-90,984,408)"/><path d="M 1000 392v 32h 32v -16a 16 16, 0, 0, 0, -16 -16" transform="rotate(90,1016,408)"/><circle cx="1080" cy="408" r="16" transform="rotate(0,1080,408)"/><path d="M 1128 392v 32h 32v -16a 16 16, 0, 0, 0, -16 -16" transform="rotate(180,1144,408)"/><rect x="1160" y="392" width="32" height="32" transform="rotate(0,1176,408)"/><path d="M 8 424v 32h 16a 16 16, 0, 0, 0, 0 -32" transform="rotate(-90,24,440)"/><path d="M 72 424v 32h 32v -16a 16 16, 0, 0, 0, -16 -16" transform="rotate(180,88,440)"/><path d="M 104 424v 32h 32v -16a 16 16, 0, 0, 0, -16 -16" transform="rotate(0,120,440)"/><path d="M 232 424v 32h 32v -16a 16 16, 0, 0, 0, -16 -16" transform="rotate(180,248,440)"/><rect x="264" y="424" width="32" height="32" transform="rotate(0,280,440)"/><path d="M 296 424v 32h 32v -16a 16 16, 0, 0, 0, -16 -16" transform="rotate(90,312,440)"/><path d="M 552 424v 32h 16a 16 16, 0, 0, 0, 0 -32" transform="rotate(180,568,440)"/><path d="M 584 424v 32h 32v -16a 16 16, 0, 0, 0, -16 -16" transform="rotate(0,600,440)"/><path d="M 648 424v 32h 32v -16a 16 16, 0, 0, 0, -16 -16" transform="rotate(180,664,440)"/><rect x="680" y="424" width="32" height="32" transform="rotate(0,696,440)"/><rect x="712" y="424" width="32" height="32" transform="rotate(0,728,440)"/><rect x="744" y="424" width="32" height="32" transform="rotate(0,760,440)"/><rect x="776" y="424" width="32" height="32" transform="rotate(0,792,440)"/><path d="M 808 424v 32h 16a 16 16, 0, 0, 0, 0 -32" transform="rotate(0,824,440)"/><rect x="872" y="424" width="32" height="32" transform="rotate(0,888,440)"/><rect x="904" y="424" width="32" height="32" transform="rotate(0,920,440)"/><rect x="936" y="424" width="32" height="32" transform="rotate(0,952,440)"/><path d="M 968 424v 32h 32v -16a 16 16, 0, 0, 0, -16 -16" transform="rotate(90,984,440)"/><path d="M 1096 424v 32h 16a 16 16, 0, 0, 0, 0 -32" transform="rotate(-90,1112,440)"/><rect x="1160" y="424" width="32" height="32" transform="rotate(0,1176,440)"/><rect x="8" y="456" width="32" height="32" transform="rotate(0,24,472)"/><path d="M 40 456v 32h 16a 16 16, 0, 0, 0, 0 -32" transform="rotate(0,56,472)"/><rect x="104" y="456" width="32" height="32" transform="rotate(0,120,472)"/><path d="M 168 456v 32h 32v -16a 16 16, 0, 0, 0, -16 -16" transform="rotate(-90,184,472)"/><path d="M 200 456v 32h 16a 16 16, 0, 0, 0, 0 -32" transform="rotate(0,216,472)"/><circle cx="344" cy="472" r="16" transform="rotate(0,344,472)"/><circle cx="440" cy="472" r="16" transform="rotate(0,440,472)"/><path d="M 488 456v 32h 32v -16a 16 16, 0, 0, 0, -16 -16" transform="rotate(-90,504,472)"/><path d="M 520 456v 32h 32v -16a 16 16, 0, 0, 0, -16 -16" transform="rotate(0,536,472)"/><path d="M 584 456v 32h 32v -16a 16 16, 0, 0, 0, -16 -16" transform="rotate(180,600,472)"/><path d="M 616 456v 32h 16a 16 16, 0, 0, 0, 0 -32" transform="rotate(0,632,472)"/><path d="M 744 456v 32h 32v -16a 16 16, 0, 0, 0, -16 -16" transform="rotate(180,760,472)"/><rect x="776" y="456" width="32" height="32" transform="rotate(0,792,472)"/><path d="M 872 456v 32h 16a 16 16, 0, 0, 0, 0 -32" transform="rotate(90,888,472)"/><path d="M 1000 456v 32h 32v -16a 16 16, 0, 0, 0, -16 -16" transform="rotate(-90,1016,472)"/><rect x="1032" y="456" width="32" height="32" transform="rotate(0,1048,472)"/><rect x="1064" y="456" width="32" height="32" transform="rotate(0,1080,472)"/><path d="M 1096 456v 32h 32v -16a 16 16, 0, 0, 0, -16 -16" transform="rotate(90,1112,472)"/><path d="M 1160 456v 32h 16a 16 16, 0, 0, 0, 0 -32" transform="rotate(90,1176,472)"/><path d="M 8 488v 32h 16a 16 16, 0, 0, 0, 0 -32" transform="rotate(90,24,504)"/><path d="M 72 488v 32h 32v -16a 16 16, 0, 0, 0, -16 -16" transform="rotate(-90,88,504)"/><path d="M 104 488v 32h 32v -16a 16 16, 0, 0, 0, -16 -16" transform="rotate(90,120,504)"/><rect x="168" y="488" width="32" height="32" transform="rotate(0,184,504)"/><path d="M 264 488v 32h 32v -16a 16 16, 0, 0, 0, -16 -16" transform="rotate(-90,280,504)"/><path d="M 296 488v 32h 16a 16 16, 0, 0, 0, 0 -32" transform="rotate(0,312,504)"/><path d="M 360 488v 32h 32v -16a 16 16, 0, 0, 0, -16 -16" transform="rotate(-90,376,504)"/><path d="M 392 488v 32h 16a 16 16, 0, 0, 0, 0 -32" transform="rotate(0,408,504)"/><path d="M 456 488v 32h 16a 16 16, 0, 0, 0, 0 -32" transform="rotate(180,472,504)"/><rect x="488" y="488" width="32" height="32" transform="rotate(0,504,504)"/><rect x="520" y="488" width="32" height="32" transform="rotate(0,536,504)"/><path d="M 648 488v 32h 32v -16a 16 16, 0, 0, 0, -16 -16" transform="rotate(-90,664,504)"/><path d="M 680 488v 32h 32v -16a 16 16, 0, 0, 0, -16 -16" transform="rotate(0,696,504)"/><rect x="776" y="488" width="32" height="32" transform="rotate(0,792,504)"/><circle cx="856" cy="504" r="16" transform="rotate(0,856,504)"/><path d="M 968 488v 32h 32v -16a 16 16, 0, 0, 0, -16 -16" transform="rotate(-90,984,504)"/><rect x="1000" y="488" width="32" height="32" transform="rotate(0,1016,504)"/><path d="M 1064 488v 32h 16a 16 16, 0, 0, 0, 0 -32" transform="rotate(90,1080,504)"/><circle cx="1144" cy="504" r="16" transform="rotate(0,1144,504)"/><path d="M 40 520v 32h 16a 16 16, 0, 0, 0, 0 -32" transform="rotate(180,56,536)"/><rect x="72" y="520" width="32" height="32" transform="rotate(0,88,536)"/><path d="M 136 520v 32h 16a 16 16, 0, 0, 0, 0 -32" transform="rotate(180,152,536)"/><rect x="168" y="520" width="32" height="32" transform="rotate(0,184,536)"/><path d="M 200 520v 32h 16a 16 16, 0, 0, 0, 0 -32" transform="rotate(0,216,536)"/><rect x="264" y="520" width="32" height="32" transform="rotate(0,280,536)"/><rect x="360" y="520" width="32" height="32" transform="rotate(0,376,536)"/><path d="M 424 520v 32h 16a 16 16, 0, 0, 0, 0 -32" transform="rotate(-90,440,536)"/><rect x="488" y="520" width="32" height="32" transform="rotate(0,504,536)"/><rect x="520" y="520" width="32" height="32" transform="rotate(0,536,536)"/><path d="M 552 520v 32h 32v -16a 16 16, 0, 0, 0, -16 -16" transform="rotate(0,568,536)"/><path d="M 648 520v 32h 32v -16a 16 16, 0, 0, 0, -16 -16" transform="rotate(180,664,536)"/><path d="M 680 520v 32h 32v -16a 16 16, 0, 0, 0, -16 -16" transform="rotate(90,696,536)"/><rect x="776" y="520" width="32" height="32" transform="rotate(0,792,536)"/><path d="M 872 520v 32h 32v -16a 16 16, 0, 0, 0, -16 -16" transform="rotate(-90,888,536)"/><path d="M 904 520v 32h 32v -16a 16 16, 0, 0, 0, -16 -16" transform="rotate(0,920,536)"/><rect x="968" y="520" width="32" height="32" transform="rotate(0,984,536)"/><path d="M 1000 520v 32h 32v -16a 16 16, 0, 0, 0, -16 -16" transform="rotate(90,1016,536)"/><path d="M 1160 520v 32h 16a 16 16, 0, 0, 0, 0 -32" transform="rotate(-90,1176,536)"/><path d="M 8 552v 32h 16a 16 16, 0, 0, 0, 0 -32" transform="rotate(-90,24,568)"/><path d="M 72 552v 32h 32v -16a 16 16, 0, 0, 0, -16 -16" transform="rotate(180,88,568)"/><path d="M 104 552v 32h 16a 16 16, 0, 0, 0, 0 -32" transform="rotate(0,120,568)"/><rect x="264" y="552" width="32" height="32" transform="rotate(0,280,568)"/><rect x="360" y="552" width="32" height="32" transform="rotate(0,376,568)"/><rect x="392" y="552" width="32" height="32" transform="rotate(0,408,568)"/><path d="M 424 552v 32h 32v -16a 16 16, 0, 0, 0, -16 -16" transform="rotate(90,440,568)"/><rect x="488" y="552" width="32" height="32" transform="rotate(0,504,568)"/><path d="M 552 552v 32h 16a 16 16, 0, 0, 0, 0 -32" transform="rotate(90,568,568)"/><rect x="776" y="552" width="32" height="32" transform="rotate(0,792,568)"/><rect x="872" y="552" width="32" height="32" transform="rotate(0,888,568)"/><path d="M 904 552v 32h 32v -16a 16 16, 0, 0, 0, -16 -16" transform="rotate(90,920,568)"/><path d="M 968 552v 32h 16a 16 16, 0, 0, 0, 0 -32" transform="rotate(90,984,568)"/><path d="M 1064 552v 32h 16a 16 16, 0, 0, 0, 0 -32" transform="rotate(-90,1080,568)"/><rect x="1160" y="552" width="32" height="32" transform="rotate(0,1176,568)"/><rect x="8" y="584" width="32" height="32" transform="rotate(0,24,600)"/><path d="M 136 584v 32h 16a 16 16, 0, 0, 0, 0 -32" transform="rotate(-90,152,600)"/><circle cx="216" cy="600" r="16" transform="rotate(0,216,600)"/><rect x="264" y="584" width="32" height="32" transform="rotate(0,280,600)"/><path d="M 328 584v 32h 32v -16a 16 16, 0, 0, 0, -16 -16" transform="rotate(-90,344,600)"/><path d="M 360 584v 32h 32v -16a 16 16, 0, 0, 0, -16 -16" transform="rotate(90,376,600)"/><path d="M 488 584v 32h 16a 16 16, 0, 0, 0, 0 -32" transform="rotate(90,504,600)"/><circle cx="600" cy="600" r="16" transform="rotate(0,600,600)"/><path d="M 648 584v 32h 16a 16 16, 0, 0, 0, 0 -32" transform="rotate(180,664,600)"/><path d="M 680 584v 32h 16a 16 16, 0, 0, 0, 0 -32" transform="rotate(0,696,600)"/><rect x="776" y="584" width="32" height="32" transform="rotate(0,792,600)"/><path d="M 840 584v 32h 16a 16 16, 0, 0, 0, 0 -32" transform="rotate(180,856,600)"/><rect x="872" y="584" width="32" height="32" transform="rotate(0,888,600)"/><path d="M 1032 584v 32h 32v -16a 16 16, 0, 0, 0, -16 -16" transform="rotate(-90,1048,600)"/><rect x="1064" y="584" width="32" height="32" transform="rotate(0,1080,600)"/><path d="M 1160 584v 32h 16a 16 16, 0, 0, 0, 0 -32" transform="rotate(90,1176,600)"/><path d="M 8 616v 32h 32v -16a 16 16, 0, 0, 0, -16 -16" transform="rotate(180,24,632)"/><rect x="40" y="616" width="32" height="32" transform="rotate(0,56,632)"/><rect x="72" y="616" width="32" height="32" transform="rotate(0,88,632)"/><rect x="104" y="616" width="32" height="32" transform="rotate(0,120,632)"/><rect x="136" y="616" width="32" height="32" transform="rotate(0,152,632)"/><path d="M 264 616v 32h 16a 16 16, 0, 0, 0, 0 -32" transform="rotate(90,280,632)"/><rect x="328" y="616" width="32" height="32" transform="rotate(0,344,632)"/><path d="M 424 616v 32h 16a 16 16, 0, 0, 0, 0 -32" transform="rotate(-90,440,632)"/><path d="M 520 616v 32h 16a 16 16, 0, 0, 0, 0 -32" transform="rotate(180,536,632)"/><path d="M 552 616v 32h 16a 16 16, 0, 0, 0, 0 -32" transform="rotate(0,568,632)"/><circle cx="632" cy="632" r="16" transform="rotate(0,632,632)"/><path d="M 712 616v 32h 16a 16 16, 0, 0, 0, 0 -32" transform="rotate(180,728,632)"/><rect x="744" y="616" width="32" height="32" transform="rotate(0,760,632)"/><path d="M 776 616v 32h 32v -16a 16 16, 0, 0, 0, -16 -16" transform="rotate(90,792,632)"/><path d="M 872 616v 32h 32v -16a 16 16, 0, 0, 0, -16 -16" transform="rotate(180,888,632)"/><rect x="904" y="616" width="32" height="32" transform="rotate(0,920,632)"/><path d="M 936 616v 32h 16a 16 16, 0, 0, 0, 0 -32" transform="rotate(0,952,632)"/><path d="M 1032 616v 32h 32v -16a 16 16, 0, 0, 0, -16 -16" transform="rotate(180,1048,632)"/><rect x="1064" y="616" width="32" height="32" transform="rotate(0,1080,632)"/><circle cx="1144" cy="632" r="16" transform="rotate(0,1144,632)"/><path d="M 40 648v 32h 32v -16a 16 16, 0, 0, 0, -16 -16" transform="rotate(180,56,664)"/><rect x="72" y="648" width="32" height="32" transform="rotate(0,88,664)"/><rect x="136" y="648" width="32" height="32" transform="rotate(0,152,664)"/><path d="M 200 648v 32h 16a 16 16, 0, 0, 0, 0 -32" transform="rotate(180,216,664)"/><path d="M 232 648v 32h 32v -16a 16 16, 0, 0, 0, -16 -16" transform="rotate(0,248,664)"/><path d="M 296 648v 32h 16a 16 16, 0, 0, 0, 0 -32" transform="rotate(180,312,664)"/><rect x="328" y="648" width="32" height="32" transform="rotate(0,344,664)"/><path d="M 424 648v 32h 16a 16 16, 0, 0, 0, 0 -32" transform="rotate(90,440,664)"/><path d="M 488 648v 32h 16a 16 16, 0, 0, 0, 0 -32" transform="rotate(-90,504,664)"/><path d="M 904 648v 32h 16a 16 16, 0, 0, 0, 0 -32" transform="rotate(90,920,664)"/><path d="M 968 648v 32h 16a 16 16, 0, 0, 0, 0 -32" transform="rotate(-90,984,664)"/><path d="M 1064 648v 32h 16a 16 16, 0, 0, 0, 0 -32" transform="rotate(90,1080,664)"/><path d="M 1160 648v 32h 16a 16 16, 0, 0, 0, 0 -32" transform="rotate(-90,1176,664)"/><circle cx="24" cy="696" r="16" transform="rotate(0,24,696)"/><rect x="72" y="680" width="32" height="32" transform="rotate(0,88,696)"/><rect x="104" y="680" width="32" height="32" transform="rotate(0,120,696)"/><path d="M 136 680v 32h 32v -16a 16 16, 0, 0, 0, -16 -16" transform="rotate(90,152,696)"/><rect x="232" y="680" width="32" height="32" transform="rotate(0,248,696)"/><path d="M 264 680v 32h 16a 16 16, 0, 0, 0, 0 -32" transform="rotate(0,280,696)"/><rect x="328" y="680" width="32" height="32" transform="rotate(0,344,696)"/><path d="M 360 680v 32h 32v -16a 16 16, 0, 0, 0, -16 -16" transform="rotate(0,376,696)"/><path d="M 488 680v 32h 16a 16 16, 0, 0, 0, 0 -32" transform="rotate(90,504,696)"/><path d="M 552 680v 32h 32v -16a 16 16, 0, 0, 0, -16 -16" transform="rotate(-90,568,696)"/><path d="M 584 680v 32h 16a 16 16, 0, 0, 0, 0 -32" transform="rotate(0,600,696)"/><circle cx="664" cy="696" r="16" transform="rotate(0,664,696)"/><path d="M 712 680v 32h 32v -16a 16 16, 0, 0, 0, -16 -16" transform="rotate(-90,728,696)"/><rect x="744" y="680" width="32" height="32" transform="rotate(0,760,696)"/><rect x="776" y="680" width="32" height="32" transform="rotate(0,792,696)"/><rect x="808" y="680" width="32" height="32" transform="rotate(0,824,696)"/><rect x="840" y="680" width="32" height="32" transform="rotate(0,856,696)"/><path d="M 872 680v 32h 32v -16a 16 16, 0, 0, 0, -16 -16" transform="rotate(0,888,696)"/><rect x="968" y="680" width="32" height="32" transform="rotate(0,984,696)"/><path d="M 1000 680v 32h 32v -16a 16 16, 0, 0, 0, -16 -16" transform="rotate(0,1016,696)"/><path d="M 1128 680v 32h 16a 16 16, 0, 0, 0, 0 -32" transform="rotate(180,1144,696)"/><rect x="1160" y="680" width="32" height="32" transform="rotate(0,1176,696)"/><path d="M 40 712v 32h 32v -16a 16 16, 0, 0, 0, -16 -16" transform="rotate(-90,56,728)"/><path d="M 72 712v 32h 32v -16a 16 16, 0, 0, 0, -16 -16" transform="rotate(90,88,728)"/><path d="M 168 712v 32h 32v -16a 16 16, 0, 0, 0, -16 -16" transform="rotate(-90,184,728)"/><rect x="200" y="712" width="32" height="32" transform="rotate(0,216,728)"/><rect x="232" y="712" width="32" height="32" transform="rotate(0,248,728)"/><path d="M 296 712v 32h 32v -16a 16 16, 0, 0, 0, -16 -16" transform="rotate(-90,312,728)"/><rect x="328" y="712" width="32" height="32" transform="rotate(0,344,728)"/><path d="M 360 712v 32h 32v -16a 16 16, 0, 0, 0, -16 -16" transform="rotate(90,376,728)"/><path d="M 456 712v 32h 16a 16 16, 0, 0, 0, 0 -32" transform="rotate(-90,472,728)"/><path d="M 520 712v 32h 32v -16a 16 16, 0, 0, 0, -16 -16" transform="rotate(-90,536,728)"/><path d="M 552 712v 32h 32v -16a 16 16, 0, 0, 0, -16 -16" transform="rotate(90,568,728)"/><path d="M 712 712v 32h 32v -16a 16 16, 0, 0, 0, -16 -16" transform="rotate(180,728,728)"/><path d="M 744 712v 32h 32v -16a 16 16, 0, 0, 0, -16 -16" transform="rotate(90,760,728)"/><rect x="872" y="712" width="32" height="32" transform="rotate(0,888,728)"/><rect x="904" y="712" width="32" height="32" transform="rotate(0,920,728)"/><rect x="936" y="712" width="32" height="32" transform="rotate(0,952,728)"/><rect x="968" y="712" width="32" height="32" transform="rotate(0,984,728)"/><rect x="1000" y="712" width="32" height="32" transform="rotate(0,1016,728)"/><path d="M 1032 712v 32h 16a 16 16, 0, 0, 0, 0 -32" transform="rotate(0,1048,728)"/><circle cx="1112" cy="728" r="16" transform="rotate(0,1112,728)"/><path d="M 1160 712v 32h 16a 16 16, 0, 0, 0, 0 -32" transform="rotate(90,1176,728)"/><rect x="40" y="744" width="32" height="32" transform="rotate(0,56,760)"/><path d="M 104 744v 32h 16a 16 16, 0, 0, 0, 0 -32" transform="rotate(180,120,760)"/><rect x="136" y="744" width="32" height="32" transform="rotate(0,152,760)"/><path d="M 168 744v 32h 32v -16a 16 16, 0, 0, 0, -16 -16" transform="rotate(90,184,760)"/><rect x="232" y="744" width="32" height="32" transform="rotate(0,248,760)"/><rect x="264" y="744" width="32" height="32" transform="rotate(0,280,760)"/><rect x="296" y="744" width="32" height="32" transform="rotate(0,312,760)"/><rect x="328" y="744" width="32" height="32" transform="rotate(0,344,760)"/><path d="M 392 744v 32h 16a 16 16, 0, 0, 0, 0 -32" transform="rotate(180,408,760)"/><rect x="424" y="744" width="32" height="32" transform="rotate(0,440,760)"/><rect x="456" y="744" width="32" height="32" transform="rotate(0,472,760)"/><rect x="488" y="744" width="32" height="32" transform="rotate(0,504,760)"/><path d="M 520 744v 32h 32v -16a 16 16, 0, 0, 0, -16 -16" transform="rotate(90,536,760)"/><path d="M 584 744v 32h 16a 16 16, 0, 0, 0, 0 -32" transform="rotate(-90,600,760)"/><path d="M 648 744v 32h 16a 16 16, 0, 0, 0, 0 -32" transform="rotate(-90,664,760)"/><path d="M 776 744v 32h 16a 16 16, 0, 0, 0, 0 -32" transform="rotate(180,792,760)"/><path d="M 808 744v 32h 32v -16a 16 16, 0, 0, 0, -16 -16" transform="rotate(0,824,760)"/><path d="M 872 744v 32h 16a 16 16, 0, 0, 0, 0 -32" transform="rotate(90,888,760)"/><rect x="968" y="744" width="32" height="32" transform="rotate(0,984,760)"/><rect x="1000" y="744" width="32" height="32" transform="rotate(0,1016,760)"/><circle cx="1080" cy="760" r="16" transform="rotate(0,1080,760)"/><circle cx="1144" cy="760" r="16" transform="rotate(0,1144,760)"/><path d="M 8 776v 32h 16a 16 16, 0, 0, 0, 0 -32" transform="rotate(180,24,792)"/><rect x="40" y="776" width="32" height="32" transform="rotate(0,56,792)"/><path d="M 72 776v 32h 32v -16a 16 16, 0, 0, 0, -16 -16" transform="rotate(0,88,792)"/><path d="M 136 776v 32h 16a 16 16, 0, 0, 0, 0 -32" transform="rotate(90,152,792)"/><path d="M 200 776v 32h 16a 16 16, 0, 0, 0, 0 -32" transform="rotate(180,216,792)"/><rect x="232" y="776" width="32" height="32" transform="rotate(0,248,792)"/><rect x="264" y="776" width="32" height="32" transform="rotate(0,280,792)"/><rect x="296" y="776" width="32" height="32" transform="rotate(0,312,792)"/><path d="M 328 776v 32h 32v -16a 16 16, 0, 0, 0, -16 -16" transform="rotate(90,344,792)"/><rect x="424" y="776" width="32" height="32" transform="rotate(0,440,792)"/><path d="M 456 776v 32h 32v -16a 16 16, 0, 0, 0, -16 -16" transform="rotate(90,472,792)"/><path d="M 584 776v 32h 16a 16 16, 0, 0, 0, 0 -32" transform="rotate(90,600,792)"/><path d="M 648 776v 32h 16a 16 16, 0, 0, 0, 0 -32" transform="rotate(90,664,792)"/><path d="M 808 776v 32h 16a 16 16, 0, 0, 0, 0 -32" transform="rotate(90,824,792)"/><rect x="968" y="776" width="32" height="32" transform="rotate(0,984,792)"/><rect x="1000" y="776" width="32" height="32" transform="rotate(0,1016,792)"/><path d="M 1160 776v 32h 16a 16 16, 0, 0, 0, 0 -32" transform="rotate(-90,1176,792)"/><rect x="40" y="808" width="32" height="32" transform="rotate(0,56,824)"/><path d="M 72 808v 32h 32v -16a 16 16, 0, 0, 0, -16 -16" transform="rotate(90,88,824)"/><path d="M 296 808v 32h 16a 16 16, 0, 0, 0, 0 -32" transform="rotate(90,312,824)"/><path d="M 360 808v 32h 16a 16 16, 0, 0, 0, 0 -32" transform="rotate(180,376,824)"/><rect x="392" y="808" width="32" height="32" transform="rotate(0,408,824)"/><path d="M 424 808v 32h 32v -16a 16 16, 0, 0, 0, -16 -16" transform="rotate(90,440,824)"/><circle cx="632" cy="824" r="16" transform="rotate(0,632,824)"/><path d="M 712 808v 32h 16a 16 16, 0, 0, 0, 0 -32" transform="rotate(180,728,824)"/><rect x="744" y="808" width="32" height="32" transform="rotate(0,760,824)"/><path d="M 776 808v 32h 32v -16a 16 16, 0, 0, 0, -16 -16" transform="rotate(0,792,824)"/><path d="M 872 808v 32h 32v -16a 16 16, 0, 0, 0, -16 -16" transform="rotate(-90,888,824)"/><rect x="904" y="808" width="32" height="32" transform="rotate(0,920,824)"/><rect x="936" y="808" width="32" height="32" transform="rotate(0,952,824)"/><rect x="968" y="808" width="32" height="32" transform="rotate(0,984,824)"/><rect x="1000" y="808" width="32" height="32" transform="rotate(0,1016,824)"/><path d="M 1064 808v 32h 16a 16 16, 0, 0, 0, 0 -32" transform="rotate(180,1080,824)"/><path d="M 1096 808v 32h 32v -16a 16 16, 0, 0, 0, -16 -16" transform="rotate(0,1112,824)"/><rect x="1160" y="808" width="32" height="32" transform="rotate(0,1176,824)"/><path d="M 8 840v 32h 16a 16 16, 0, 0, 0, 0 -32" transform="rotate(180,24,856)"/><path d="M 40 840v 32h 32v -16a 16 16, 0, 0, 0, -16 -16" transform="rotate(90,56,856)"/><path d="M 104 840v 32h 32v -16a 16 16, 0, 0, 0, -16 -16" transform="rotate(-90,120,856)"/><rect x="136" y="840" width="32" height="32" transform="rotate(0,152,856)"/><rect x="168" y="840" width="32" height="32" transform="rotate(0,184,856)"/><rect x="200" y="840" width="32" height="32" transform="rotate(0,216,856)"/><rect x="232" y="840" width="32" height="32" transform="rotate(0,248,856)"/><path d="M 264 840v 32h 32v -16a 16 16, 0, 0, 0, -16 -16" transform="rotate(0,280,856)"/><path d="M 328 840v 32h 16a 16 16, 0, 0, 0, 0 -32" transform="rotate(-90,344,856)"/><path d="M 488 840v 32h 16a 16 16, 0, 0, 0, 0 -32" transform="rotate(180,504,856)"/><rect x="520" y="840" width="32" height="32" transform="rotate(0,536,856)"/><path d="M 552 840v 32h 32v -16a 16 16, 0, 0, 0, -16 -16" transform="rotate(0,568,856)"/><path d="M 648 840v 32h 16a 16 16, 0, 0, 0, 0 -32" transform="rotate(180,664,856)"/><path d="M 680 840v 32h 16a 16 16, 0, 0, 0, 0 -32" transform="rotate(0,696,856)"/><rect x="744" y="840" width="32" height="32" transform="rotate(0,760,856)"/><rect x="776" y="840" width="32" height="32" transform="rotate(0,792,856)"/><path d="M 840 840v 32h 32v -16a 16 16, 0, 0, 0, -16 -16" transform="rotate(-90,856,856)"/><rect x="872" y="840" width="32" height="32" transform="rotate(0,888,856)"/><rect x="936" y="840" width="32" height="32" transform="rotate(0,952,856)"/><rect x="968" y="840" width="32" height="32" transform="rotate(0,984,856)"/><rect x="1000" y="840" width="32" height="32" transform="rotate(0,1016,856)"/><path d="M 1096 840v 32h 16a 16 16, 0, 0, 0, 0 -32" transform="rotate(90,1112,856)"/><path d="M 1160 840v 32h 16a 16 16, 0, 0, 0, 0 -32" transform="rotate(90,1176,856)"/><rect x="104" y="872" width="32" height="32" transform="rotate(0,120,888)"/><rect x="136" y="872" width="32" height="32" transform="rotate(0,152,888)"/><rect x="168" y="872" width="32" height="32" transform="rotate(0,184,888)"/><path d="M 232 872v 32h 32v -16a 16 16, 0, 0, 0, -16 -16" transform="rotate(180,248,888)"/><rect x="264" y="872" width="32" height="32" transform="rotate(0,280,888)"/><path d="M 328 872v 32h 16a 16 16, 0, 0, 0, 0 -32" transform="rotate(90,344,888)"/><path d="M 424 872v 32h 16a 16 16, 0, 0, 0, 0 -32" transform="rotate(-90,440,888)"/><path d="M 552 872v 32h 16a 16 16, 0, 0, 0, 0 -32" transform="rotate(90,568,888)"/><path d="M 616 872v 32h 16a 16 16, 0, 0, 0, 0 -32" transform="rotate(-90,632,888)"/><path d="M 744 872v 32h 32v -16a 16 16, 0, 0, 0, -16 -16" transform="rotate(180,760,888)"/><rect x="776" y="872" width="32" height="32" transform="rotate(0,792,888)"/><path d="M 840 872v 32h 32v -16a 16 16, 0, 0, 0, -16 -16" transform="rotate(180,856,888)"/><rect x="872" y="872" width="32" height="32" transform="rotate(0,888,888)"/><rect x="936" y="872" width="32" height="32" transform="rotate(0,952,888)"/><rect x="968" y="872" width="32" height="32" transform="rotate(0,984,888)"/><rect x="1000" y="872" width="32" height="32" transform="rotate(0,1016,888)"/><circle cx="1080" cy="888" r="16" transform="rotate(0,1080,888)"/><path d="M 8 904v 32h 16a 16 16, 0, 0, 0, 0 -32" transform="rotate(180,24,920)"/><rect x="40" y="904" width="32" height="32" transform="rotate(0,56,920)"/><rect x="72" y="904" width="32" height="32" transform="rotate(0,88,920)"/><path d="M 104 904v 32h 32v -16a 16 16, 0, 0, 0, -16 -16" transform="rotate(90,120,920)"/><path d="M 168 904v 32h 32v -16a 16 16, 0, 0, 0, -16 -16" transform="rotate(180,184,920)"/><path d="M 200 904v 32h 16a 16 16, 0, 0, 0, 0 -32" transform="rotate(0,216,920)"/><rect x="264" y="904" width="32" height="32" transform="rotate(0,280,920)"/><path d="M 424 904v 32h 32v -16a 16 16, 0, 0, 0, -16 -16" transform="rotate(180,440,920)"/><rect x="456" y="904" width="32" height="32" transform="rotate(0,472,920)"/><path d="M 488 904v 32h 32v -16a 16 16, 0, 0, 0, -16 -16" transform="rotate(0,504,920)"/><path d="M 584 904v 32h 32v -16a 16 16, 0, 0, 0, -16 -16" transform="rotate(-90,600,920)"/><path d="M 616 904v 32h 32v -16a 16 16, 0, 0, 0, -16 -16" transform="rotate(90,632,920)"/><rect x="776" y="904" width="32" height="32" transform="rotate(0,792,920)"/><path d="M 872 904v 32h 32v -16a 16 16, 0, 0, 0, -16 -16" transform="rotate(180,888,920)"/><rect x="904" y="904" width="32" height="32" transform="rotate(0,920,920)"/><rect x="936" y="904" width="32" height="32" transform="rotate(0,952,920)"/><rect x="968" y="904" width="32" height="32" transform="rotate(0,984,920)"/><rect x="1000" y="904" width="32" height="32" transform="rotate(0,1016,920)"/><path d="M 1032 904v 32h 32v -16a 16 16, 0, 0, 0, -16 -16" transform="rotate(0,1048,920)"/><path d="M 1160 904v 32h 16a 16 16, 0, 0, 0, 0 -32" transform="rotate(-90,1176,920)"/><path d="M 264 936v 32h 16a 16 16, 0, 0, 0, 0 -32" transform="rotate(90,280,952)"/><circle cx="376" cy="952" r="16" transform="rotate(0,376,952)"/><path d="M 456 936v 32h 32v -16a 16 16, 0, 0, 0, -16 -16" transform="rotate(180,472,952)"/><rect x="488" y="936" width="32" height="32" transform="rotate(0,504,952)"/><rect x="520" y="936" width="32" height="32" transform="rotate(0,536,952)"/><rect x="552" y="936" width="32" height="32" transform="rotate(0,568,952)"/><rect x="584" y="936" width="32" height="32" transform="rotate(0,600,952)"/><circle cx="664" cy="952" r="16" transform="rotate(0,664,952)"/><path d="M 712 936v 32h 32v -16a 16 16, 0, 0, 0, -16 -16" transform="rotate(-90,728,952)"/><rect x="744" y="936" width="32" height="32" transform="rotate(0,760,952)"/><rect x="776" y="936" width="32" height="32" transform="rotate(0,792,952)"/><rect x="808" y="936" width="32" height="32" transform="rotate(0,824,952)"/><path d="M 840 936v 32h 32v -16a 16 16, 0, 0, 0, -16 -16" transform="rotate(0,856,952)"/><rect x="904" y="936" width="32" height="32" transform="rotate(0,920,952)"/><rect x="1032" y="936" width="32" height="32" transform="rotate(0,1048,952)"/><path d="M 1064 936v 32h 32v -16a 16 16, 0, 0, 0, -16 -16" transform="rotate(0,1080,952)"/><rect x="1160" y="936" width="32" height="32" transform="rotate(0,1176,952)"/><path d="M 296 968v 32h 32v -16a 16 16, 0, 0, 0, -16 -16" transform="rotate(-90,312,984)"/><path d="M 328 968v 32h 32v -16a 16 16, 0, 0, 0, -16 -16" transform="rotate(0,344,984)"/><path d="M 424 968v 32h 16a 16 16, 0, 0, 0, 0 -32" transform="rotate(-90,440,984)"/><path d="M 584 968v 32h 32v -16a 16 16, 0, 0, 0, -16 -16" transform="rotate(180,600,984)"/><path d="M 616 968v 32h 16a 16 16, 0, 0, 0, 0 -32" transform="rotate(0,632,984)"/><path d="M 680 968v 32h 16a 16 16, 0, 0, 0, 0 -32" transform="rotate(180,696,984)"/><rect x="712" y="968" width="32" height="32" transform="rotate(0,728,984)"/><path d="M 744 968v 32h 32v -16a 16 16, 0, 0, 0, -16 -16" transform="rotate(90,760,984)"/><path d="M 808 968v 32h 32v -16a 16 16, 0, 0, 0, -16 -16" transform="rotate(180,824,984)"/><rect x="840" y="968" width="32" height="32" transform="rotate(0,856,984)"/><rect x="904" y="968" width="32" height="32" transform="rotate(0,920,984)"/><circle cx="984" cy="984" r="16" transform="rotate(0,984,984)"/><rect x="1032" y="968" width="32" height="32" transform="rotate(0,1048,984)"/><rect x="1064" y="968" width="32" height="32" transform="rotate(0,1080,984)"/><path d="M 1096 968v 32h 16a 16 16, 0, 0, 0, 0 -32" transform="rotate(0,1112,984)"/><rect x="1160" y="968" width="32" height="32" transform="rotate(0,1176,984)"/><rect x="296" y="1000" width="32" height="32" transform="rotate(0,312,1016)"/><rect x="328" y="1000" width="32" height="32" transform="rotate(0,344,1016)"/><path d="M 360 1000v 32h 32v -16a 16 16, 0, 0, 0, -16 -16" transform="rotate(0,376,1016)"/><rect x="424" y="1000" width="32" height="32" transform="rotate(0,440,1016)"/><rect x="456" y="1000" width="32" height="32" transform="rotate(0,472,1016)"/><path d="M 488 1000v 32h 32v -16a 16 16, 0, 0, 0, -16 -16" transform="rotate(0,504,1016)"/><rect x="712" y="1000" width="32" height="32" transform="rotate(0,728,1016)"/><circle cx="792" cy="1016" r="16" transform="rotate(0,792,1016)"/><path d="M 840 1000v 32h 32v -16a 16 16, 0, 0, 0, -16 -16" transform="rotate(180,856,1016)"/><rect x="872" y="1000" width="32" height="32" transform="rotate(0,888,1016)"/><rect x="904" y="1000" width="32" height="32" transform="rotate(0,920,1016)"/><rect x="1032" y="1000" width="32" height="32" transform="rotate(0,1048,1016)"/><path d="M 1064 1000v 32h 32v -16a 16 16, 0, 0, 0, -16 -16" transform="rotate(90,1080,1016)"/><rect x="1160" y="1000" width="32" height="32" transform="rotate(0,1176,1016)"/><rect x="296" y="1032" width="32" height="32" transform="rotate(0,312,1048)"/><rect x="328" y="1032" width="32" height="32" transform="rotate(0,344,1048)"/><rect x="360" y="1032" width="32" height="32" transform="rotate(0,376,1048)"/><rect x="392" y="1032" width="32" height="32" transform="rotate(0,408,1048)"/><rect x="424" y="1032" width="32" height="32" transform="rotate(0,440,1048)"/><rect x="456" y="1032" width="32" height="32" transform="rotate(0,472,1048)"/><rect x="488" y="1032" width="32" height="32" transform="rotate(0,504,1048)"/><path d="M 520 1032v 32h 16a 16 16, 0, 0, 0, 0 -32" transform="rotate(0,536,1048)"/><path d="M 584 1032v 32h 16a 16 16, 0, 0, 0, 0 -32" transform="rotate(-90,600,1048)"/><path d="M 648 1032v 32h 32v -16a 16 16, 0, 0, 0, -16 -16" transform="rotate(-90,664,1048)"/><rect x="680" y="1032" width="32" height="32" transform="rotate(0,696,1048)"/><rect x="712" y="1032" width="32" height="32" transform="rotate(0,728,1048)"/><path d="M 744 1032v 32h 16a 16 16, 0, 0, 0, 0 -32" transform="rotate(0,760,1048)"/><path d="M 872 1032v 32h 32v -16a 16 16, 0, 0, 0, -16 -16" transform="rotate(180,888,1048)"/><rect x="904" y="1032" width="32" height="32" transform="rotate(0,920,1048)"/><rect x="936" y="1032" width="32" height="32" transform="rotate(0,952,1048)"/><rect x="968" y="1032" width="32" height="32" transform="rotate(0,984,1048)"/><rect x="1000" y="1032" width="32" height="32" transform="rotate(0,1016,1048)"/><rect x="1032" y="1032" width="32" height="32" transform="rotate(0,1048,1048)"/><path d="M 1128 1032v 32h 32v -16a 16 16, 0, 0, 0, -16 -16" transform="rotate(-90,1144,1048)"/><rect x="1160" y="1032" width="32" height="32" transform="rotate(0,1176,1048)"/><path d="M 296 1064v 32h 32v -16a 16 16, 0, 0, 0, -16 -16" transform="rotate(180,312,1080)"/><rect x="328" y="1064" width="32" height="32" transform="rotate(0,344,1080)"/><path d="M 360 1064v 32h 32v -16a 16 16, 0, 0, 0, -16 -16" transform="rotate(90,376,1080)"/><path d="M 424 1064v 32h 16a 16 16, 0, 0, 0, 0 -32" transform="rotate(90,440,1080)"/><path d="M 488 1064v 32h 16a 16 16, 0, 0, 0, 0 -32" transform="rotate(90,504,1080)"/><rect x="584" y="1064" width="32" height="32" transform="rotate(0,600,1080)"/><rect x="648" y="1064" width="32" height="32" transform="rotate(0,664,1080)"/><path d="M 712 1064v 32h 16a 16 16, 0, 0, 0, 0 -32" transform="rotate(90,728,1080)"/><path d="M 808 1064v 32h 16a 16 16, 0, 0, 0, 0 -32" transform="rotate(-90,824,1080)"/><rect x="1032" y="1064" width="32" height="32" transform="rotate(0,1048,1080)"/><rect x="1064" y="1064" width="32" height="32" transform="rotate(0,1080,1080)"/><rect x="1096" y="1064" width="32" height="32" transform="rotate(0,1112,1080)"/><rect x="1128" y="1064" width="32" height="32" transform="rotate(0,1144,1080)"/><rect x="1160" y="1064" width="32" height="32" transform="rotate(0,1176,1080)"/><path d="M 264 1096v 32h 16a 16 16, 0, 0, 0, 0 -32" transform="rotate(-90,280,1112)"/><rect x="328" y="1096" width="32" height="32" transform="rotate(0,344,1112)"/><path d="M 392 1096v 32h 16a 16 16, 0, 0, 0, 0 -32" transform="rotate(-90,408,1112)"/><circle cx="472" cy="1112" r="16" transform="rotate(0,472,1112)"/><path d="M 520 1096v 32h 16a 16 16, 0, 0, 0, 0 -32" transform="rotate(-90,536,1112)"/><rect x="584" y="1096" width="32" height="32" transform="rotate(0,600,1112)"/><rect x="648" y="1096" width="32" height="32" transform="rotate(0,664,1112)"/><path d="M 680 1096v 32h 16a 16 16, 0, 0, 0, 0 -32" transform="rotate(0,696,1112)"/><circle cx="760" cy="1112" r="16" transform="rotate(0,760,1112)"/><path d="M 808 1096v 32h 32v -16a 16 16, 0, 0, 0, -16 -16" transform="rotate(180,824,1112)"/><rect x="840" y="1096" width="32" height="32" transform="rotate(0,856,1112)"/><path d="M 872 1096v 32h 16a 16 16, 0, 0, 0, 0 -32" transform="rotate(0,888,1112)"/><rect x="1032" y="1096" width="32" height="32" transform="rotate(0,1048,1112)"/><rect x="1064" y="1096" width="32" height="32" transform="rotate(0,1080,1112)"/><rect x="1096" y="1096" width="32" height="32" transform="rotate(0,1112,1112)"/><rect x="1128" y="1096" width="32" height="32" transform="rotate(0,1144,1112)"/><path d="M 1160 1096v 32h 32v -16a 16 16, 0, 0, 0, -16 -16" transform="rotate(90,1176,1112)"/><path d="M 264 1128v 32h 16a 16 16, 0, 0, 0, 0 -32" transform="rotate(90,280,1144)"/><path d="M 328 1128v 32h 16a 16 16, 0, 0, 0, 0 -32" transform="rotate(90,344,1144)"/><rect x="392" y="1128" width="32" height="32" transform="rotate(0,408,1144)"/><path d="M 424 1128v 32h 16a 16 16, 0, 0, 0, 0 -32" transform="rotate(0,440,1144)"/><path d="M 488 1128v 32h 16a 16 16, 0, 0, 0, 0 -32" transform="rotate(180,504,1144)"/><path d="M 520 1128v 32h 32v -16a 16 16, 0, 0, 0, -16 -16" transform="rotate(90,536,1144)"/><path d="M 584 1128v 32h 32v -16a 16 16, 0, 0, 0, -16 -16" transform="rotate(180,600,1144)"/><rect x="616" y="1128" width="32" height="32" transform="rotate(0,632,1144)"/><rect x="648" y="1128" width="32" height="32" transform="rotate(0,664,1144)"/><rect x="840" y="1128" width="32" height="32" transform="rotate(0,856,1144)"/><path d="M 904 1128v 32h 16a 16 16, 0, 0, 0, 0 -32" transform="rotate(-90,920,1144)"/><rect x="1032" y="1128" width="32" height="32" transform="rotate(0,1048,1144)"/><path d="M 1064 1128v 32h 32v -16a 16 16, 0, 0, 0, -16 -16" transform="rotate(90,1080,1144)"/><circle cx="312" cy="1176" r="16" transform="rotate(0,312,1176)"/><path d="M 392 1160v 32h 16a 16 16, 0, 0, 0, 0 -32" transform="rotate(90,408,1176)"/><circle cx="568" cy="1176" r="16" transform="rotate(0,568,1176)"/><path d="M 648 1160v 32h 16a 16 16, 0, 0, 0, 0 -32" transform="rotate(90,664,1176)"/><path d="M 744 1160v 32h 16a 16 16, 0, 0, 0, 0 -32" transform="rotate(180,760,1176)"/><path d="M 776 1160v 32h 16a 16 16, 0, 0, 0, 0 -32" transform="rotate(0,792,1176)"/><path d="M 840 1160v 32h 16a 16 16, 0, 0, 0, 0 -32" transform="rotate(90,856,1176)"/><path d="M 904 1160v 32h 16a 16 16, 0, 0, 0, 0 -32" transform="rotate(90,920,1176)"/><path d="M 1000 1160v 32h 16a 16 16, 0, 0, 0, 0 -32" transform="rotate(180,1016,1176)"/><path d="M 1032 1160v 32h 32v -16a 16 16, 0, 0, 0, -16 -16" transform="rotate(90,1048,1176)"/><circle cx="1176" cy="1176" r="16" transform="rotate(0,1176,1176)"/></clipPath><clipPath id="clip-path-corners-square-color-0-0-322"><path clip-rule="evenodd" d="M 8 88v 64a 80 80, 0, 0, 0, 80 80h 64a 80 80, 0, 0, 0, 80 -80v -64a 80 80, 0, 0, 0, -80 -80h -64a 80 80, 0, 0, 0, -80 80M 88 40h 64a 48 48, 0, 0, 1, 48 48v 64a 48 48, 0, 0, 1, -48 48h -64a 48 48, 0, 0, 1, -48 -48v -64a 48 48, 0, 0, 1, 48 -48" transform="rotate(0,120,120)"/></clipPath><clipPath id="clip-path-corners-dot-color-0-0-322"><circle cx="120" cy="120" r="48" transform="rotate(0,120,120)"/></clipPath><clipPath id="clip-path-corners-square-color-1-0-322"><path clip-rule="evenodd" d="M 968 88v 64a 80 80, 0, 0, 0, 80 80h 64a 80 80, 0, 0, 0, 80 -80v -64a 80 80, 0, 0, 0, -80 -80h -64a 80 80, 0, 0, 0, -80 80M 1048 40h 64a 48 48, 0, 0, 1, 48 48v 64a 48 48, 0, 0, 1, -48 48h -64a 48 48, 0, 0, 1, -48 -48v -64a 48 48, 0, 0, 1, 48 -48" transform="rotate(90,1080,120)"/></clipPath><clipPath id="clip-path-corners-dot-color-1-0-322"><circle cx="1080" cy="120" r="48" transform="rotate(90,1080,120)"/></clipPath><clipPath id="clip-path-corners-square-color-0-1-322"><path clip-rule="evenodd" d="M 8 1048v 64a 80 80, 0, 0, 0, 80 80h 64a 80 80, 0, 0, 0, 80 -80v -64a 80 80, 0, 0, 0, -80 -80h -64a 80 80, 0, 0, 0, -80 80M 88 1000h 64a 48 48, 0, 0, 1, 48 48v 64a 48 48, 0, 0, 1, -48 48h -64a 48 48, 0, 0, 1, -48 -48v -64a 48 48, 0, 0, 1, 48 -48" transform="rotate(-90,120,1080)"/></clipPath><clipPath id="clip-path-corners-dot-color-0-1-322"><circle cx="120" cy="1080" r="48" transform="rotate(-90,120,1080)"/></clipPath></defs><rect x="0" y="0" height="1200" width="1200" clip-path="url('#clip-path-background-color-322')" fill="#ffffff"/><rect x="0" y="0" height="1200" width="1200" clip-path="url('#clip-path-dot-color-322')" fill="#000000"/><rect x="8" y="8" height="224" width="224" clip-path="url('#clip-path-corners-square-color-0-0-322')" fill="#000000"/><rect x="72" y="72" height="96" width="96" clip-path="url('#clip-path-corners-dot-color-0-0-322')" fill="#000000"/><rect x="968" y="8" height="224" width="224" clip-path="url('#clip-path-corners-square-color-1-0-322')" fill="#000000"/><rect x="1032" y="72" height="96" width="96" clip-path="url('#clip-path-corners-dot-color-1-0-322')" fill="#000000"/><rect x="8" y="968" height="224" width="224" clip-path="url('#clip-path-corners-square-color-0-1-322')" fill="#000000"/><rect x="72" y="1032" height="96" width="96" clip-path="url('#clip-path-corners-dot-color-0-1-322')" fill="#000000"/></svg>