<?xml version="1.0" standalone="no"?>
<svg xmlns="http://www.w3.org/2000/svg" width="1200" height="1200" xmlns:xlink="http://www.w3.org/1999/xlink" viewBox="0 0 1200 1200"><defs><clipPath id="clip-path-background-color-339"><rect x="0" y="0" width="1200" height="1200"/></clipPath><clipPath id="clip-path-dot-color-339"><path d="M 306 26v 28h 14a 14 14, 0, 0, 0, 0 -28" transform="rotate(180,320,40)"/><path d="M 334 26v 28h 28v -14a 14 14, 0, 0, 0, -14 -14" transform="rotate(0,348,40)"/><circle cx="404" cy="40" r="14" transform="rotate(0,404,40)"/><path d="M 530 26v 28h 28v -14a 14 14, 0, 0, 0, -14 -14" transform="rotate(-90,544,40)"/><rect x="558" y="26" width="28" height="28" transform="rotate(0,572,40)"/><path d="M 586 26v 28h 28v -14a 14 14, 0, 0, 0, -14 -14" transform="rotate(0,600,40)"/><path d="M 698 26v 28h 14a 14 14, 0, 0, 0, 0 -28" transform="rotate(-90,712,40)"/><path d="M 754 26v 28h 14a 14 14, 0, 0, 0, 0 -28" transform="rotate(180,768,40)"/><path d="M 782 26v 28h 14a 14 14, 0, 0, 0, 0 -28" transform="rotate(0,796,40)"/><path d="M 866 26v 28h 14a 14 14, 0, 0, 0, 0 -28" transform="rotate(-90,880,40)"/><path d="M 922 26v 28h 14a 14 14, 0, 0, 0, 0 -28" transform="rotate(-90,936,40)"/><circle cx="292" cy="68" r="14" transform="rotate(0,292,68)"/><rect x="334" y="54" width="28" height="28" transform="rotate(0,348,68)"/><path d="M 502 54v 28h 28v -14a 14 14, 0, 0, 0, -14 -14" transform="rotate(-90,516,68)"/><rect x="530" y="54" width="28" height="28" transform="rotate(0,544,68)"/><rect x="558" y="54" width="28" height="28" transform="rotate(0,572,68)"/><path d="M 586 54v 28h 28v -14a 14 14, 0, 0, 0, -14 -14" transform="rotate(90,600,68)"/><path d="M 670 54v 28h 14a 14 14, 0, 0, 0, 0 -28" transform="rotate(180,684,68)"/><path d="M 698 54v 28h 28v -14a 14 14, 0, 0, 0, -14 -14" transform="rotate(90,712,68)"/><path d="M 838 54v 28h 28v -14a 14 14, 0, 0, 0, -14 -14" transform="rotate(-90,852,68)"/><rect x="866" y="54" width="28" height="28" transform="rotate(0,880,68)"/><rect x="894" y="54" width="28" height="28" transform="rotate(0,908,68)"/><rect x="922" y="54" width="28" height="28" transform="rotate(0,936,68)"/><circle cx="264" cy="96" r="14" transform="rotate(0,264,96)"/><rect x="334" y="82" width="28" height="28" transform="rotate(0,348,96)"/><path d="M 418 82v 28h 14a 14 14, 0, 0, 0, 0 -28" transform="rotate(180,432,96)"/><path d="M 446 82v 28h 28v -14a 14 14, 0, 0, 0, -14 -14" transform="rotate(0,460,96)"/><rect x="502" y="82" width="28" height="28" transform="rotate(0,516,96)"/><circle cx="740" cy="96" r="14" transform="rotate(0,740,96)"/><path d="M 810 82v 28h 28v -14a 14 14, 0, 0, 0, -14 -14" transform="rotate(-90,824,96)"/><rect x="838" y="82" width="28" height="28" transform="rotate(0,852,96)"/><rect x="866" y="82" width="28" height="28" transform="rotate(0,880,96)"/><rect x="894" y="82" width="28" height="28" transform="rotate(0,908,96)"/><rect x="922" y="82" width="28" height="28" transform="rotate(0,936,96)"/><rect x="334" y="110" width="28" height="28" transform="rotate(0,348,124)"/><path d="M 446 110v 28h 28v -14a 14 14, 0, 0, 0, -14 -14" transform="rotate(180,460,124)"/><rect x="474" y="110" width="28" height="28" transform="rotate(0,488,124)"/><rect x="502" y="110" width="28" height="28" transform="rotate(0,516,124)"/><rect x="530" y="110" width="28" height="28" transform="rotate(0,544,124)"/><path d="M 558 110v 28h 28v -14a 14 14, 0, 0, 0, -14 -14" transform="rotate(0,572,124)"/><path d="M 614 110v 28h 14a 14 14, 0, 0, 0, 0 -28" transform="rotate(-90,628,124)"/><circle cx="684" cy="124" r="14" transform="rotate(0,684,124)"/><path d="M 754 110v 28h 28v -14a 14 14, 0, 0, 0, -14 -14" transform="rotate(-90,768,124)"/><rect x="782" y="110" width="28" height="28" transform="rotate(0,796,124)"/><rect x="810" y="110" width="28" height="28" transform="rotate(0,824,124)"/><path d="M 838 110v 28h 28v -14a 14 14, 0, 0, 0, -14 -14" transform="rotate(90,852,124)"/><path d="M 894 110v 28h 28v -14a 14 14, 0, 0, 0, -14 -14" transform="rotate(180,908,124)"/><path d="M 922 110v 28h 28v -14a 14 14, 0, 0, 0, -14 -14" transform="rotate(90,936,124)"/><path d="M 250 138v 28h 14a 14 14, 0, 0, 0, 0 -28" transform="rotate(-90,264,152)"/><path d="M 334 138v 28h 14a 14 14, 0, 0, 0, 0 -28" transform="rotate(90,348,152)"/><circle cx="432" cy="152" r="14" transform="rotate(0,432,152)"/><path d="M 502 138v 28h 14a 14 14, 0, 0, 0, 0 -28" transform="rotate(90,516,152)"/><rect x="558" y="138" width="28" height="28" transform="rotate(0,572,152)"/><rect x="586" y="138" width="28" height="28" transform="rotate(0,600,152)"/><rect x="614" y="138" width="28" height="28" transform="rotate(0,628,152)"/><path d="M 642 138v 28h 14a 14 14, 0, 0, 0, 0 -28" transform="rotate(0,656,152)"/><path d="M 726 138v 28h 14a 14 14, 0, 0, 0, 0 -28" transform="rotate(180,740,152)"/><rect x="754" y="138" width="28" height="28" transform="rotate(0,768,152)"/><rect x="782" y="138" width="28" height="28" transform="rotate(0,796,152)"/><path d="M 810 138v 28h 28v -14a 14 14, 0, 0, 0, -14 -14" transform="rotate(90,824,152)"/><path d="M 866 138v 28h 14a 14 14, 0, 0, 0, 0 -28" transform="rotate(-90,880,152)"/><rect x="250" y="166" width="28" height="28" transform="rotate(0,264,180)"/><path d="M 278 166v 28h 14a 14 14, 0, 0, 0, 0 -28" transform="rotate(0,292,180)"/><circle cx="404" cy="180" r="14" transform="rotate(0,404,180)"/><path d="M 446 166v 28h 14a 14 14, 0, 0, 0, 0 -28" transform="rotate(180,460,180)"/><path d="M 474 166v 28h 28v -14a 14 14, 0, 0, 0, -14 -14" transform="rotate(0,488,180)"/><path d="M 530 166v 28h 28v -14a 14 14, 0, 0, 0, -14 -14" transform="rotate(-90,544,180)"/><rect x="558" y="166" width="28" height="28" transform="rotate(0,572,180)"/><rect x="586" y="166" width="28" height="28" transform="rotate(0,600,180)"/><circle cx="684" cy="180" r="14" transform="rotate(0,684,180)"/><rect x="754" y="166" width="28" height="28" transform="rotate(0,768,180)"/><path d="M 838 166v 28h 14a 14 14, 0, 0, 0, 0 -28" transform="rotate(180,852,180)"/><rect x="866" y="166" width="28" height="28" transform="rotate(0,880,180)"/><path d="M 894 166v 28h 14a 14 14, 0, 0, 0, 0 -28" transform="rotate(0,908,180)"/><path d="M 250 194v 28h 14a 14 14, 0, 0, 0, 0 -28" transform="rotate(90,264,208)"/><circle cx="320" cy="208" r="14" transform="rotate(0,320,208)"/><circle cx="376" cy="208" r="14" transform="rotate(0,376,208)"/><path d="M 418 194v 28h 14a 14 14, 0, 0, 0, 0 -28" transform="rotate(-90,432,208)"/><path d="M 474 194v 28h 14a 14 14, 0, 0, 0, 0 -28" transform="rotate(90,488,208)"/><path d="M 530 194v 28h 14a 14 14, 0, 0, 0, 0 -28" transform="rotate(90,544,208)"/><path d="M 586 194v 28h 14a 14 14, 0, 0, 0, 0 -28" transform="rotate(90,600,208)"/><path d="M 642 194v 28h 14a 14 14, 0, 0, 0, 0 -28" transform="rotate(-90,656,208)"/><circle cx="712" cy="208" r="14" transform="rotate(0,712,208)"/><path d="M 754 194v 28h 14a 14 14, 0, 0, 0, 0 -28" transform="rotate(90,768,208)"/><path d="M 810 194v 28h 14a 14 14, 0, 0, 0, 0 -28" transform="rotate(-90,824,208)"/><rect x="866" y="194" width="28" height="28" transform="rotate(0,880,208)"/><path d="M 922 194v 28h 14a 14 14, 0, 0, 0, 0 -28" transform="rotate(-90,936,208)"/><circle cx="292" cy="236" r="14" transform="rotate(0,292,236)"/><circle cx="348" cy="236" r="14" transform="rotate(0,348,236)"/><path d="M 418 222v 28h 14a 14 14, 0, 0, 0, 0 -28" transform="rotate(90,432,236)"/><circle cx="572" cy="236" r="14" transform="rotate(0,572,236)"/><rect x="642" y="222" width="28" height="28" transform="rotate(0,656,236)"/><path d="M 670 222v 28h 14a 14 14, 0, 0, 0, 0 -28" transform="rotate(0,684,236)"/><rect x="810" y="222" width="28" height="28" transform="rotate(0,824,236)"/><rect x="838" y="222" width="28" height="28" transform="rotate(0,852,236)"/><path d="M 866 222v 28h 28v -14a 14 14, 0, 0, 0, -14 -14" transform="rotate(90,880,236)"/><rect x="922" y="222" width="28" height="28" transform="rotate(0,936,236)"/><circle cx="68" cy="264" r="14" transform="rotate(0,68,264)"/><circle cx="152" cy="264" r="14" transform="rotate(0,152,264)"/><circle cx="208" cy="264" r="14" transform="rotate(0,208,264)"/><path d="M 250 250v 28h 14a 14 14, 0, 0, 0, 0 -28" transform="rotate(-90,264,264)"/><path d="M 306 250v 28h 14a 14 14, 0, 0, 0, 0 -28" transform="rotate(-90,320,264)"/><path d="M 474 250v 28h 28v -14a 14 14, 0, 0, 0, -14 -14" transform="rotate(-90,488,264)"/><path d="M 502 250v 28h 14a 14 14, 0, 0, 0, 0 -28" transform="rotate(0,516,264)"/><rect x="642" y="250" width="28" height="28" transform="rotate(0,656,264)"/><path d="M 698 250v 28h 14a 14 14, 0, 0, 0, 0 -28" transform="rotate(-90,712,264)"/><rect x="810" y="250" width="28" height="28" transform="rotate(0,824,264)"/><path d="M 838 250v 28h 28v -14a 14 14, 0, 0, 0, -14 -14" transform="rotate(90,852,264)"/><path d="M 894 250v 28h 14a 14 14, 0, 0, 0, 0 -28" transform="rotate(180,908,264)"/><rect x="922" y="250" width="28" height="28" transform="rotate(0,936,264)"/><path d="M 950 250v 28h 28v -14a 14 14, 0, 0, 0, -14 -14" transform="rotate(0,964,264)"/><path d="M 1006 250v 28h 28v -14a 14 14, 0, 0, 0, -14 -14" transform="rotate(-90,1020,264)"/><path d="M 1034 250v 28h 28v -14a 14 14, 0, 0, 0, -14 -14" transform="rotate(0,1048,264)"/><circle cx="1104" cy="264" r="14" transform="rotate(0,1104,264)"/><circle cx="124" cy="292" r="14" transform="rotate(0,124,292)"/><path d="M 250 278v 28h 28v -14a 14 14, 0, 0, 0, -14 -14" transform="rotate(180,264,292)"/><rect x="278" y="278" width="28" height="28" transform="rotate(0,292,292)"/><rect x="306" y="278" width="28" height="28" transform="rotate(0,320,292)"/><rect x="334" y="278" width="28" height="28" transform="rotate(0,348,292)"/><rect x="362" y="278" width="28" height="28" transform="rotate(0,376,292)"/><rect x="390" y="278" width="28" height="28" transform="rotate(0,404,292)"/><rect x="418" y="278" width="28" height="28" transform="rotate(0,432,292)"/><rect x="446" y="278" width="28" height="28" transform="rotate(0,460,292)"/><rect x="474" y="278" width="28" height="28" transform="rotate(0,488,292)"/><path d="M 558 278v 28h 14a 14 14, 0, 0, 0, 0 -28" transform="rotate(-90,572,292)"/><path d="M 642 278v 28h 14a 14 14, 0, 0, 0, 0 -28" transform="rotate(90,656,292)"/><path d="M 698 278v 28h 28v -14a 14 14, 0, 0, 0, -14 -14" transform="rotate(180,712,292)"/><rect x="726" y="278" width="28" height="28" transform="rotate(0,740,292)"/><rect x="754" y="278" width="28" height="28" transform="rotate(0,768,292)"/><rect x="782" y="278" width="28" height="28" transform="rotate(0,796,292)"/><path d="M 810 278v 28h 28v -14a 14 14, 0, 0, 0, -14 -14" transform="rotate(90,824,292)"/><path d="M 950 278v 28h 28v -14a 14 14, 0, 0, 0, -14 -14" transform="rotate(180,964,292)"/><rect x="978" y="278" width="28" height="28" transform="rotate(0,992,292)"/><rect x="1006" y="278" width="28" height="28" transform="rotate(0,1020,292)"/><rect x="1034" y="278" width="28" height="28" transform="rotate(0,1048,292)"/><path d="M 1062 278v 28h 14a 14 14, 0, 0, 0, 0 -28" transform="rotate(0,1076,292)"/><path d="M 1146 278v 28h 14a 14 14, 0, 0, 0, 0 -28" transform="rotate(-90,1160,292)"/><path d="M 54 306v 28h 28v -14a 14 14, 0, 0, 0, -14 -14" transform="rotate(-90,68,320)"/><path d="M 82 306v 28h 28v -14a 14 14, 0, 0, 0, -14 -14" transform="rotate(0,96,320)"/><path d="M 166 306v 28h 14a 14 14, 0, 0, 0, 0 -28" transform="rotate(180,180,320)"/><rect x="194" y="306" width="28" height="28" transform="rotate(0,208,320)"/><path d="M 222 306v 28h 14a 14 14, 0, 0, 0, 0 -28" transform="rotate(0,236,320)"/><path d="M 278 306v 28h 28v -14a 14 14, 0, 0, 0, -14 -14" transform="rotate(180,292,320)"/><rect x="306" y="306" width="28" height="28" transform="rotate(0,320,320)"/><rect x="362" y="306" width="28" height="28" transform="rotate(0,376,320)"/><path d="M 446 306v 28h 28v -14a 14 14, 0, 0, 0, -14 -14" transform="rotate(180,460,320)"/><rect x="474" y="306" width="28" height="28" transform="rotate(0,488,320)"/><path d="M 502 306v 28h 14a 14 14, 0, 0, 0, 0 -28" transform="rotate(0,516,320)"/><path d="M 558 306v 28h 28v -14a 14 14, 0, 0, 0, -14 -14" transform="rotate(180,572,320)"/><path d="M 586 306v 28h 28v -14a 14 14, 0, 0, 0, -14 -14" transform="rotate(0,600,320)"/><path d="M 670 306v 28h 14a 14 14, 0, 0, 0, 0 -28" transform="rotate(-90,684,320)"/><path d="M 754 306v 28h 28v -14a 14 14, 0, 0, 0, -14 -14" transform="rotate(180,768,320)"/><rect x="782" y="306" width="28" height="28" transform="rotate(0,796,320)"/><path d="M 922 306v 28h 14a 14 14, 0, 0, 0, 0 -28" transform="rotate(-90,936,320)"/><rect x="978" y="306" width="28" height="28" transform="rotate(0,992,320)"/><path d="M 1006 306v 28h 28v -14a 14 14, 0, 0, 0, -14 -14" transform="rotate(90,1020,320)"/><path d="M 1146 306v 28h 14a 14 14, 0, 0, 0, 0 -28" transform="rotate(90,1160,320)"/><path d="M 54 334v 28h 28v -14a 14 14, 0, 0, 0, -14 -14" transform="rotate(180,68,348)"/><rect x="82" y="334" width="28" height="28" transform="rotate(0,96,348)"/><rect x="110" y="334" width="28" height="28" transform="rotate(0,124,348)"/><path d="M 138 334v 28h 14a 14 14, 0, 0, 0, 0 -28" transform="rotate(0,152,348)"/><circle cx="264" cy="348" r="14" transform="rotate(0,264,348)"/><path d="M 306 334v 28h 28v -14a 14 14, 0, 0, 0, -14 -14" transform="rotate(180,320,348)"/><rect x="334" y="334" width="28" height="28" transform="rotate(0,348,348)"/><rect x="362" y="334" width="28" height="28" transform="rotate(0,376,348)"/><rect x="390" y="334" width="28" height="28" transform="rotate(0,404,348)"/><path d="M 418 334v 28h 28v -14a 14 14, 0, 0, 0, -14 -14" transform="rotate(0,432,348)"/><rect x="586" y="334" width="28" height="28" transform="rotate(0,600,348)"/><path d="M 642 334v 28h 14a 14 14, 0, 0, 0, 0 -28" transform="rotate(180,656,348)"/><rect x="670" y="334" width="28" height="28" transform="rotate(0,684,348)"/><path d="M 782 334v 28h 14a 14 14, 0, 0, 0, 0 -28" transform="rotate(90,796,348)"/><path d="M 838 334v 28h 14a 14 14, 0, 0, 0, 0 -28" transform="rotate(-90,852,348)"/><path d="M 894 334v 28h 14a 14 14, 0, 0, 0, 0 -28" transform="rotate(180,908,348)"/><path d="M 922 334v 28h 28v -14a 14 14, 0, 0, 0, -14 -14" transform="rotate(90,936,348)"/><path d="M 978 334v 28h 14a 14 14, 0, 0, 0, 0 -28" transform="rotate(90,992,348)"/><circle cx="1076" cy="348" r="14" transform="rotate(0,1076,348)"/><path d="M 166 362v 28h 28v -14a 14 14, 0, 0, 0, -14 -14" transform="rotate(-90,180,376)"/><rect x="194" y="362" width="28" height="28" transform="rotate(0,208,376)"/><path d="M 222 362v 28h 28v -14a 14 14, 0, 0, 0, -14 -14" transform="rotate(0,236,376)"/><path d="M 278 362v 28h 14a 14 14, 0, 0, 0, 0 -28" transform="rotate(-90,292,376)"/><path d="M 334 362v 28h 28v -14a 14 14, 0, 0, 0, -14 -14" transform="rotate(180,348,376)"/><rect x="362" y="362" width="28" height="28" transform="rotate(0,376,376)"/><rect x="418" y="362" width="28" height="28" transform="rotate(0,432,376)"/><path d="M 530 362v 28h 14a 14 14, 0, 0, 0, 0 -28" transform="rotate(-90,544,376)"/><path d="M 586 362v 28h 28v -14a 14 14, 0, 0, 0, -14 -14" transform="rotate(180,600,376)"/><path d="M 614 362v 28h 28v -14a 14 14, 0, 0, 0, -14 -14" transform="rotate(0,628,376)"/><path d="M 670 362v 28h 28v -14a 14 14, 0, 0, 0, -14 -14" transform="rotate(180,684,376)"/><path d="M 698 362v 28h 14a 14 14, 0, 0, 0, 0 -28" transform="rotate(0,712,376)"/><path d="M 754 362v 28h 14a 14 14, 0, 0, 0, 0 -28" transform="rotate(-90,768,376)"/><path d="M 810 362v 28h 14a 14 14, 0, 0, 0, 0 -28" transform="rotate(180,824,376)"/><rect x="838" y="362" width="28" height="28" transform="rotate(0,852,376)"/><path d="M 950 362v 28h 14a 14 14, 0, 0, 0, 0 -28" transform="rotate(-90,964,376)"/><path d="M 1118 362v 28h 28v -14a 14 14, 0, 0, 0, -14 -14" transform="rotate(-90,1132,376)"/><path d="M 1146 362v 28h 28v -14a 14 14, 0, 0, 0, -14 -14" transform="rotate(0,1160,376)"/><circle cx="96" cy="404" r="14" transform="rotate(0,96,404)"/><path d="M 138 390v 28h 14a 14 14, 0, 0, 0, 0 -28" transform="rotate(180,152,404)"/><rect x="166" y="390" width="28" height="28" transform="rotate(0,180,404)"/><path d="M 222 390v 28h 14a 14 14, 0, 0, 0, 0 -28" transform="rotate(90,236,404)"/><path d="M 278 390v 28h 28v -14a 14 14, 0, 0, 0, -14 -14" transform="rotate(180,292,404)"/><path d="M 306 390v 28h 14a 14 14, 0, 0, 0, 0 -28" transform="rotate(0,320,404)"/><rect x="362" y="390" width="28" height="28" transform="rotate(0,376,404)"/><path d="M 418 390v 28h 28v -14a 14 14, 0, 0, 0, -14 -14" transform="rotate(180,432,404)"/><path d="M 446 390v 28h 28v -14a 14 14, 0, 0, 0, -14 -14" transform="rotate(0,460,404)"/><path d="M 502 390v 28h 28v -14a 14 14, 0, 0, 0, -14 -14" transform="rotate(-90,516,404)"/><rect x="530" y="390" width="28" height="28" transform="rotate(0,544,404)"/><path d="M 558 390v 28h 14a 14 14, 0, 0, 0, 0 -28" transform="rotate(0,572,404)"/><rect x="614" y="390" width="28" height="28" transform="rotate(0,628,404)"/><rect x="754" y="390" width="28" height="28" transform="rotate(0,768,404)"/><rect x="838" y="390" width="28" height="28" transform="rotate(0,852,404)"/><rect x="950" y="390" width="28" height="28" transform="rotate(0,964,404)"/><rect x="978" y="390" width="28" height="28" transform="rotate(0,992,404)"/><rect x="1006" y="390" width="28" height="28" transform="rotate(0,1020,404)"/><rect x="1034" y="390" width="28" height="28" transform="rotate(0,1048,404)"/><rect x="1062" y="390" width="28" height="28" transform="rotate(0,1076,404)"/><rect x="1090" y="390" width="28" height="28" transform="rotate(0,1104,404)"/><rect x="1118" y="390" width="28" height="28" transform="rotate(0,1132,404)"/><rect x="1146" y="390" width="28" height="28" transform="rotate(0,1160,404)"/><path d="M 54 418v 28h 14a 14 14, 0, 0, 0, 0 -28" transform="rotate(-90,68,432)"/><circle cx="124" cy="432" r="14" transform="rotate(0,124,432)"/><path d="M 166 418v 28h 28v -14a 14 14, 0, 0, 0, -14 -14" transform="rotate(180,180,432)"/><path d="M 194 418v 28h 14a 14 14, 0, 0, 0, 0 -28" transform="rotate(0,208,432)"/><path d="M 334 418v 28h 14a 14 14, 0, 0, 0, 0 -28" transform="rotate(180,348,432)"/><rect x="362" y="418" width="28" height="28" transform="rotate(0,376,432)"/><path d="M 390 418v 28h 28v -14a 14 14, 0, 0, 0, -14 -14" transform="rotate(0,404,432)"/><rect x="446" y="418" width="28" height="28" transform="rotate(0,460,432)"/><rect x="502" y="418" width="28" height="28" transform="rotate(0,516,432)"/><path d="M 614 418v 28h 14a 14 14, 0, 0, 0, 0 -28" transform="rotate(90,628,432)"/><rect x="754" y="418" width="28" height="28" transform="rotate(0,768,432)"/><path d="M 782 418v 28h 28v -14a 14 14, 0, 0, 0, -14 -14" transform="rotate(0,796,432)"/><rect x="838" y="418" width="28" height="28" transform="rotate(0,852,432)"/><path d="M 866 418v 28h 28v -14a 14 14, 0, 0, 0, -14 -14" transform="rotate(0,880,432)"/><path d="M 922 418v 28h 28v -14a 14 14, 0, 0, 0, -14 -14" transform="rotate(-90,936,432)"/><rect x="950" y="418" width="28" height="28" transform="rotate(0,964,432)"/><path d="M 978 418v 28h 28v -14a 14 14, 0, 0, 0, -14 -14" transform="rotate(90,992,432)"/><rect x="1034" y="418" width="28" height="28" transform="rotate(0,1048,432)"/><rect x="1062" y="418" width="28" height="28" transform="rotate(0,1076,432)"/><path d="M 1090 418v 28h 28v -14a 14 14, 0, 0, 0, -14 -14" transform="rotate(90,1104,432)"/><rect x="1146" y="418" width="28" height="28" transform="rotate(0,1160,432)"/><path d="M 26 446v 28h 28v -14a 14 14, 0, 0, 0, -14 -14" transform="rotate(-90,40,460)"/><path d="M 54 446v 28h 28v -14a 14 14, 0, 0, 0, -14 -14" transform="rotate(90,68,460)"/><path d="M 138 446v 28h 14a 14 14, 0, 0, 0, 0 -28" transform="rotate(-90,152,460)"/><circle cx="236" cy="460" r="14" transform="rotate(0,236,460)"/><path d="M 278 446v 28h 14a 14 14, 0, 0, 0, 0 -28" transform="rotate(-90,292,460)"/><path d="M 390 446v 28h 28v -14a 14 14, 0, 0, 0, -14 -14" transform="rotate(180,404,460)"/><rect x="418" y="446" width="28" height="28" transform="rotate(0,432,460)"/><path d="M 446 446v 28h 28v -14a 14 14, 0, 0, 0, -14 -14" transform="rotate(90,460,460)"/><rect x="502" y="446" width="28" height="28" transform="rotate(0,516,460)"/><rect x="530" y="446" width="28" height="28" transform="rotate(0,544,460)"/><rect x="558" y="446" width="28" height="28" transform="rotate(0,572,460)"/><path d="M 586 446v 28h 14a 14 14, 0, 0, 0, 0 -28" transform="rotate(0,600,460)"/><path d="M 642 446v 28h 14a 14 14, 0, 0, 0, 0 -28" transform="rotate(-90,656,460)"/><path d="M 698 446v 28h 14a 14 14, 0, 0, 0, 0 -28" transform="rotate(-90,712,460)"/><path d="M 754 446v 28h 28v -14a 14 14, 0, 0, 0, -14 -14" transform="rotate(180,768,460)"/><rect x="782" y="446" width="28" height="28" transform="rotate(0,796,460)"/><rect x="810" y="446" width="28" height="28" transform="rotate(0,824,460)"/><rect x="838" y="446" width="28" height="28" transform="rotate(0,852,460)"/><path d="M 866 446v 28h 28v -14a 14 14, 0, 0, 0, -14 -14" transform="rotate(90,880,460)"/><rect x="922" y="446" width="28" height="28" transform="rotate(0,936,460)"/><path d="M 1034 446v 28h 28v -14a 14 14, 0, 0, 0, -14 -14" transform="rotate(180,1048,460)"/><rect x="1062" y="446" width="28" height="28" transform="rotate(0,1076,460)"/><rect x="1146" y="446" width="28" height="28" transform="rotate(0,1160,460)"/><path d="M 26 474v 28h 14a 14 14, 0, 0, 0, 0 -28" transform="rotate(90,40,488)"/><path d="M 138 474v 28h 14a 14 14, 0, 0, 0, 0 -28" transform="rotate(90,152,488)"/><circle cx="208" cy="488" r="14" transform="rotate(0,208,488)"/><path d="M 250 474v 28h 14a 14 14, 0, 0, 0, 0 -28" transform="rotate(180,264,488)"/><path d="M 278 474v 28h 28v -14a 14 14, 0, 0, 0, -14 -14" transform="rotate(90,292,488)"/><path d="M 334 474v 28h 14a 14 14, 0, 0, 0, 0 -28" transform="rotate(-90,348,488)"/><rect x="502" y="474" width="28" height="28" transform="rotate(0,516,488)"/><path d="M 530 474v 28h 28v -14a 14 14, 0, 0, 0, -14 -14" transform="rotate(90,544,488)"/><path d="M 642 474v 28h 28v -14a 14 14, 0, 0, 0, -14 -14" transform="rotate(180,656,488)"/><rect x="670" y="474" width="28" height="28" transform="rotate(0,684,488)"/><path d="M 698 474v 28h 28v -14a 14 14, 0, 0, 0, -14 -14" transform="rotate(90,712,488)"/><rect x="810" y="474" width="28" height="28" transform="rotate(0,824,488)"/><rect x="838" y="474" width="28" height="28" transform="rotate(0,852,488)"/><path d="M 894 474v 28h 14a 14 14, 0, 0, 0, 0 -28" transform="rotate(180,908,488)"/><path d="M 922 474v 28h 28v -14a 14 14, 0, 0, 0, -14 -14" transform="rotate(90,936,488)"/><path d="M 1006 474v 28h 14a 14 14, 0, 0, 0, 0 -28" transform="rotate(-90,1020,488)"/><path d="M 1062 474v 28h 14a 14 14, 0, 0, 0, 0 -28" transform="rotate(90,1076,488)"/><path d="M 1118 474v 28h 14a 14 14, 0, 0, 0, 0 -28" transform="rotate(180,1132,488)"/><rect x="1146" y="474" width="28" height="28" transform="rotate(0,1160,488)"/><circle cx="68" cy="516" r="14" transform="rotate(0,68,516)"/><circle cx="124" cy="516" r="14" transform="rotate(0,124,516)"/><path d="M 306 502v 28h 14a 14 14, 0, 0, 0, 0 -28" transform="rotate(180,320,516)"/><rect x="334" y="502" width="28" height="28" transform="rotate(0,348,516)"/><rect x="362" y="502" width="28" height="28" transform="rotate(0,376,516)"/><rect x="390" y="502" width="28" height="28" transform="rotate(0,404,516)"/><rect x="418" y="502" width="28" height="28" transform="rotate(0,432,516)"/><rect x="446" y="502" width="28" height="28" transform="rotate(0,460,516)"/><rect x="474" y="502" width="28" height="28" transform="rotate(0,488,516)"/><path d="M 502 502v 28h 28v -14a 14 14, 0, 0, 0, -14 -14" transform="rotate(90,516,516)"/><circle cx="572" cy="516" r="14" transform="rotate(0,572,516)"/><rect x="670" y="502" width="28" height="28" transform="rotate(0,684,516)"/><path d="M 726 502v 28h 14a 14 14, 0, 0, 0, 0 -28" transform="rotate(180,740,516)"/><rect x="754" y="502" width="28" height="28" transform="rotate(0,768,516)"/><rect x="782" y="502" width="28" height="28" transform="rotate(0,796,516)"/><rect x="810" y="502" width="28" height="28" transform="rotate(0,824,516)"/><path d="M 838 502v 28h 28v -14a 14 14, 0, 0, 0, -14 -14" transform="rotate(90,852,516)"/><path d="M 950 502v 28h 28v -14a 14 14, 0, 0, 0, -14 -14" transform="rotate(-90,964,516)"/><rect x="978" y="502" width="28" height="28" transform="rotate(0,992,516)"/><rect x="1006" y="502" width="28" height="28" transform="rotate(0,1020,516)"/><path d="M 1034 502v 28h 14a 14 14, 0, 0, 0, 0 -28" transform="rotate(0,1048,516)"/><circle cx="1104" cy="516" r="14" transform="rotate(0,1104,516)"/><rect x="1146" y="502" width="28" height="28" transform="rotate(0,1160,516)"/><path d="M 166 530v 28h 14a 14 14, 0, 0, 0, 0 -28" transform="rotate(180,180,544)"/><rect x="194" y="530" width="28" height="28" transform="rotate(0,208,544)"/><rect x="222" y="530" width="28" height="28" transform="rotate(0,236,544)"/><path d="M 250 530v 28h 14a 14 14, 0, 0, 0, 0 -28" transform="rotate(0,264,544)"/><path d="M 418 530v 28h 14a 14 14, 0, 0, 0, 0 -28" transform="rotate(90,432,544)"/><path d="M 474 530v 28h 14a 14 14, 0, 0, 0, 0 -28" transform="rotate(90,488,544)"/><path d="M 586 530v 28h 28v -14a 14 14, 0, 0, 0, -14 -14" transform="rotate(-90,600,544)"/><rect x="614" y="530" width="28" height="28" transform="rotate(0,628,544)"/><rect x="642" y="530" width="28" height="28" transform="rotate(0,656,544)"/><rect x="670" y="530" width="28" height="28" transform="rotate(0,684,544)"/><path d="M 698 530v 28h 14a 14 14, 0, 0, 0, 0 -28" transform="rotate(0,712,544)"/><rect x="782" y="530" width="28" height="28" transform="rotate(0,796,544)"/><circle cx="880" cy="544" r="14" transform="rotate(0,880,544)"/><path d="M 922 530v 28h 14a 14 14, 0, 0, 0, 0 -28" transform="rotate(180,936,544)"/><path d="M 950 530v 28h 28v -14a 14 14, 0, 0, 0, -14 -14" transform="rotate(90,964,544)"/><rect x="1006" y="530" width="28" height="28" transform="rotate(0,1020,544)"/><path d="M 1146 530v 28h 14a 14 14, 0, 0, 0, 0 -28" transform="rotate(90,1160,544)"/><path d="M 54 558v 28h 14a 14 14, 0, 0, 0, 0 -28" transform="rotate(180,68,572)"/><rect x="82" y="558" width="28" height="28" transform="rotate(0,96,572)"/><rect x="110" y="558" width="28" height="28" transform="rotate(0,124,572)"/><path d="M 138 558v 28h 14a 14 14, 0, 0, 0, 0 -28" transform="rotate(0,152,572)"/><rect x="222" y="558" width="28" height="28" transform="rotate(0,236,572)"/><circle cx="292" cy="572" r="14" transform="rotate(0,292,572)"/><circle cx="348" cy="572" r="14" transform="rotate(0,348,572)"/><path d="M 390 558v 28h 14a 14 14, 0, 0, 0, 0 -28" transform="rotate(-90,404,572)"/><circle cx="460" cy="572" r="14" transform="rotate(0,460,572)"/><path d="M 558 558v 28h 14a 14 14, 0, 0, 0, 0 -28" transform="rotate(180,572,572)"/><path d="M 586 558v 28h 28v -14a 14 14, 0, 0, 0, -14 -14" transform="rotate(90,600,572)"/><rect x="642" y="558" width="28" height="28" transform="rotate(0,656,572)"/><path d="M 670 558v 28h 28v -14a 14 14, 0, 0, 0, -14 -14" transform="rotate(90,684,572)"/><path d="M 754 558v 28h 28v -14a 14 14, 0, 0, 0, -14 -14" transform="rotate(-90,768,572)"/><path d="M 782 558v 28h 28v -14a 14 14, 0, 0, 0, -14 -14" transform="rotate(90,796,572)"/><path d="M 978 558v 28h 14a 14 14, 0, 0, 0, 0 -28" transform="rotate(180,992,572)"/><path d="M 1006 558v 28h 28v -14a 14 14, 0, 0, 0, -14 -14" transform="rotate(90,1020,572)"/><path d="M 1062 558v 28h 14a 14 14, 0, 0, 0, 0 -28" transform="rotate(-90,1076,572)"/><path d="M 1118 558v 28h 14a 14 14, 0, 0, 0, 0 -28" transform="rotate(-90,1132,572)"/><circle cx="40" cy="600" r="14" transform="rotate(0,40,600)"/><path d="M 110 586v 28h 14a 14 14, 0, 0, 0, 0 -28" transform="rotate(90,124,600)"/><path d="M 194 586v 28h 14a 14 14, 0, 0, 0, 0 -28" transform="rotate(180,208,600)"/><path d="M 222 586v 28h 28v -14a 14 14, 0, 0, 0, -14 -14" transform="rotate(90,236,600)"/><path d="M 306 586v 28h 14a 14 14, 0, 0, 0, 0 -28" transform="rotate(-90,320,600)"/><path d="M 362 586v 28h 14a 14 14, 0, 0, 0, 0 -28" transform="rotate(180,376,600)"/><rect x="390" y="586" width="28" height="28" transform="rotate(0,404,600)"/><path d="M 418 586v 28h 14a 14 14, 0, 0, 0, 0 -28" transform="rotate(0,432,600)"/><path d="M 502 586v 28h 28v -14a 14 14, 0, 0, 0, -14 -14" transform="rotate(-90,516,600)"/><path d="M 530 586v 28h 28v -14a 14 14, 0, 0, 0, -14 -14" transform="rotate(0,544,600)"/><rect x="642" y="586" width="28" height="28" transform="rotate(0,656,600)"/><path d="M 726 586v 28h 28v -14a 14 14, 0, 0, 0, -14 -14" transform="rotate(-90,740,600)"/><path d="M 754 586v 28h 28v -14a 14 14, 0, 0, 0, -14 -14" transform="rotate(90,768,600)"/><path d="M 810 586v 28h 14a 14 14, 0, 0, 0, 0 -28" transform="rotate(-90,824,600)"/><path d="M 922 586v 28h 14a 14 14, 0, 0, 0, 0 -28" transform="rotate(180,936,600)"/><path d="M 950 586v 28h 14a 14 14, 0, 0, 0, 0 -28" transform="rotate(0,964,600)"/><path d="M 1062 586v 28h 14a 14 14, 0, 0, 0, 0 -28" transform="rotate(90,1076,600)"/><path d="M 1118 586v 28h 28v -14a 14 14, 0, 0, 0, -14 -14" transform="rotate(180,1132,600)"/><path d="M 1146 586v 28h 28v -14a 14 14, 0, 0, 0, -14 -14" transform="rotate(0,1160,600)"/><path d="M 138 614v 28h 14a 14 14, 0, 0, 0, 0 -28" transform="rotate(-90,152,628)"/><path d="M 278 614v 28h 14a 14 14, 0, 0, 0, 0 -28" transform="rotate(180,292,628)"/><rect x="306" y="614" width="28" height="28" transform="rotate(0,320,628)"/><path d="M 390 614v 28h 14a 14 14, 0, 0, 0, 0 -28" transform="rotate(90,404,628)"/><rect x="502" y="614" width="28" height="28" transform="rotate(0,516,628)"/><path d="M 530 614v 28h 28v -14a 14 14, 0, 0, 0, -14 -14" transform="rotate(90,544,628)"/><path d="M 586 614v 28h 14a 14 14, 0, 0, 0, 0 -28" transform="rotate(180,600,628)"/><rect x="614" y="614" width="28" height="28" transform="rotate(0,628,628)"/><rect x="642" y="614" width="28" height="28" transform="rotate(0,656,628)"/><path d="M 670 614v 28h 28v -14a 14 14, 0, 0, 0, -14 -14" transform="rotate(0,684,628)"/><path d="M 726 614v 28h 14a 14 14, 0, 0, 0, 0 -28" transform="rotate(90,740,628)"/><path d="M 782 614v 28h 28v -14a 14 14, 0, 0, 0, -14 -14" transform="rotate(-90,796,628)"/><path d="M 810 614v 28h 28v -14a 14 14, 0, 0, 0, -14 -14" transform="rotate(90,824,628)"/><path d="M 866 614v 28h 14a 14 14, 0, 0, 0, 0 -28" transform="rotate(-90,880,628)"/><path d="M 978 614v 28h 28v -14a 14 14, 0, 0, 0, -14 -14" transform="rotate(-90,992,628)"/><rect x="1006" y="614" width="28" height="28" transform="rotate(0,1020,628)"/><path d="M 1034 614v 28h 28v -14a 14 14, 0, 0, 0, -14 -14" transform="rotate(0,1048,628)"/><rect x="1146" y="614" width="28" height="28" transform="rotate(0,1160,628)"/><path d="M 82 642v 28h 14a 14 14, 0, 0, 0, 0 -28" transform="rotate(180,96,656)"/><rect x="110" y="642" width="28" height="28" transform="rotate(0,124,656)"/><rect x="138" y="642" width="28" height="28" transform="rotate(0,152,656)"/><rect x="166" y="642" width="28" height="28" transform="rotate(0,180,656)"/><rect x="194" y="642" width="28" height="28" transform="rotate(0,208,656)"/><path d="M 222 642v 28h 14a 14 14, 0, 0, 0, 0 -28" transform="rotate(0,236,656)"/><rect x="306" y="642" width="28" height="28" transform="rotate(0,320,656)"/><circle cx="376" cy="656" r="14" transform="rotate(0,376,656)"/><path d="M 502 642v 28h 14a 14 14, 0, 0, 0, 0 -28" transform="rotate(90,516,656)"/><path d="M 670 642v 28h 28v -14a 14 14, 0, 0, 0, -14 -14" transform="rotate(180,684,656)"/><path d="M 698 642v 28h 28v -14a 14 14, 0, 0, 0, -14 -14" transform="rotate(0,712,656)"/><path d="M 754 642v 28h 28v -14a 14 14, 0, 0, 0, -14 -14" transform="rotate(-90,768,656)"/><rect x="782" y="642" width="28" height="28" transform="rotate(0,796,656)"/><path d="M 838 642v 28h 28v -14a 14 14, 0, 0, 0, -14 -14" transform="rotate(-90,852,656)"/><rect x="866" y="642" width="28" height="28" transform="rotate(0,880,656)"/><path d="M 922 642v 28h 14a 14 14, 0, 0, 0, 0 -28" transform="rotate(180,936,656)"/><rect x="950" y="642" width="28" height="28" transform="rotate(0,964,656)"/><rect x="978" y="642" width="28" height="28" transform="rotate(0,992,656)"/><rect x="1006" y="642" width="28" height="28" transform="rotate(0,1020,656)"/><path d="M 1034 642v 28h 28v -14a 14 14, 0, 0, 0, -14 -14" transform="rotate(90,1048,656)"/><circle cx="1104" cy="656" r="14" transform="rotate(0,1104,656)"/><rect x="1146" y="642" width="28" height="28" transform="rotate(0,1160,656)"/><path d="M 166 670v 28h 14a 14 14, 0, 0, 0, 0 -28" transform="rotate(90,180,684)"/><path d="M 278 670v 28h 14a 14 14, 0, 0, 0, 0 -28" transform="rotate(180,292,684)"/><rect x="306" y="670" width="28" height="28" transform="rotate(0,320,684)"/><path d="M 334 670v 28h 28v -14a 14 14, 0, 0, 0, -14 -14" transform="rotate(0,348,684)"/><path d="M 418 670v 28h 14a 14 14, 0, 0, 0, 0 -28" transform="rotate(180,432,684)"/><rect x="446" y="670" width="28" height="28" transform="rotate(0,460,684)"/><path d="M 474 670v 28h 14a 14 14, 0, 0, 0, 0 -28" transform="rotate(0,488,684)"/><path d="M 558 670v 28h 28v -14a 14 14, 0, 0, 0, -14 -14" transform="rotate(-90,572,684)"/><rect x="586" y="670" width="28" height="28" transform="rotate(0,600,684)"/><path d="M 614 670v 28h 28v -14a 14 14, 0, 0, 0, -14 -14" transform="rotate(0,628,684)"/><path d="M 698 670v 28h 14a 14 14, 0, 0, 0, 0 -28" transform="rotate(90,712,684)"/><path d="M 754 670v 28h 28v -14a 14 14, 0, 0, 0, -14 -14" transform="rotate(180,768,684)"/><rect x="782" y="670" width="28" height="28" transform="rotate(0,796,684)"/><rect x="810" y="670" width="28" height="28" transform="rotate(0,824,684)"/><rect x="838" y="670" width="28" height="28" transform="rotate(0,852,684)"/><rect x="866" y="670" width="28" height="28" transform="rotate(0,880,684)"/><path d="M 894 670v 28h 28v -14a 14 14, 0, 0, 0, -14 -14" transform="rotate(0,908,684)"/><rect x="950" y="670" width="28" height="28" transform="rotate(0,964,684)"/><path d="M 1146 670v 28h 14a 14 14, 0, 0, 0, 0 -28" transform="rotate(90,1160,684)"/><path d="M 54 698v 28h 14a 14 14, 0, 0, 0, 0 -28" transform="rotate(-90,68,712)"/><circle cx="208" cy="712" r="14" transform="rotate(0,208,712)"/><path d="M 250 698v 28h 14a 14 14, 0, 0, 0, 0 -28" transform="rotate(-90,264,712)"/><path d="M 334 698v 28h 28v -14a 14 14, 0, 0, 0, -14 -14" transform="rotate(180,348,712)"/><path d="M 362 698v 28h 14a 14 14, 0, 0, 0, 0 -28" transform="rotate(0,376,712)"/><rect x="446" y="698" width="28" height="28" transform="rotate(0,460,712)"/><path d="M 530 698v 28h 14a 14 14, 0, 0, 0, 0 -28" transform="rotate(180,544,712)"/><path d="M 558 698v 28h 28v -14a 14 14, 0, 0, 0, -14 -14" transform="rotate(90,572,712)"/><path d="M 614 698v 28h 28v -14a 14 14, 0, 0, 0, -14 -14" transform="rotate(180,628,712)"/><rect x="642" y="698" width="28" height="28" transform="rotate(0,656,712)"/><path d="M 670 698v 28h 28v -14a 14 14, 0, 0, 0, -14 -14" transform="rotate(0,684,712)"/><rect x="810" y="698" width="28" height="28" transform="rotate(0,824,712)"/><path d="M 838 698v 28h 28v -14a 14 14, 0, 0, 0, -14 -14" transform="rotate(90,852,712)"/><path d="M 894 698v 28h 28v -14a 14 14, 0, 0, 0, -14 -14" transform="rotate(180,908,712)"/><rect x="922" y="698" width="28" height="28" transform="rotate(0,936,712)"/><path d="M 950 698v 28h 28v -14a 14 14, 0, 0, 0, -14 -14" transform="rotate(90,964,712)"/><path d="M 1006 698v 28h 14a 14 14, 0, 0, 0, 0 -28" transform="rotate(-90,1020,712)"/><circle cx="1076" cy="712" r="14" transform="rotate(0,1076,712)"/><rect x="54" y="726" width="28" height="28" transform="rotate(0,68,740)"/><path d="M 82 726v 28h 28v -14a 14 14, 0, 0, 0, -14 -14" transform="rotate(0,96,740)"/><circle cx="180" cy="740" r="14" transform="rotate(0,180,740)"/><path d="M 250 726v 28h 14a 14 14, 0, 0, 0, 0 -28" transform="rotate(90,264,740)"/><circle cx="320" cy="740" r="14" transform="rotate(0,320,740)"/><circle cx="404" cy="740" r="14" transform="rotate(0,404,740)"/><path d="M 446 726v 28h 28v -14a 14 14, 0, 0, 0, -14 -14" transform="rotate(180,460,740)"/><path d="M 474 726v 28h 14a 14 14, 0, 0, 0, 0 -28" transform="rotate(0,488,740)"/><rect x="670" y="726" width="28" height="28" transform="rotate(0,684,740)"/><path d="M 754 726v 28h 28v -14a 14 14, 0, 0, 0, -14 -14" transform="rotate(-90,768,740)"/><rect x="782" y="726" width="28" height="28" transform="rotate(0,796,740)"/><rect x="810" y="726" width="28" height="28" transform="rotate(0,824,740)"/><path d="M 866 726v 28h 14a 14 14, 0, 0, 0, 0 -28" transform="rotate(-90,880,740)"/><rect x="922" y="726" width="28" height="28" transform="rotate(0,936,740)"/><path d="M 978 726v 28h 28v -14a 14 14, 0, 0, 0, -14 -14" transform="rotate(-90,992,740)"/><rect x="1006" y="726" width="28" height="28" transform="rotate(0,1020,740)"/><path d="M 1034 726v 28h 14a 14 14, 0, 0, 0, 0 -28" transform="rotate(0,1048,740)"/><circle cx="1104" cy="740" r="14" transform="rotate(0,1104,740)"/><path d="M 1146 726v 28h 14a 14 14, 0, 0, 0, 0 -28" transform="rotate(-90,1160,740)"/><rect x="54" y="754" width="28" height="28" transform="rotate(0,68,768)"/><path d="M 82 754v 28h 28v -14a 14 14, 0, 0, 0, -14 -14" transform="rotate(90,96,768)"/><path d="M 138 754v 28h 14a 14 14, 0, 0, 0, 0 -28" transform="rotate(-90,152,768)"/><circle cx="208" cy="768" r="14" transform="rotate(0,208,768)"/><path d="M 502 754v 28h 28v -14a 14 14, 0, 0, 0, -14 -14" transform="rotate(-90,516,768)"/><rect x="530" y="754" width="28" height="28" transform="rotate(0,544,768)"/><path d="M 558 754v 28h 14a 14 14, 0, 0, 0, 0 -28" transform="rotate(0,572,768)"/><path d="M 614 754v 28h 14a 14 14, 0, 0, 0, 0 -28" transform="rotate(180,628,768)"/><rect x="642" y="754" width="28" height="28" transform="rotate(0,656,768)"/><rect x="670" y="754" width="28" height="28" transform="rotate(0,684,768)"/><rect x="754" y="754" width="28" height="28" transform="rotate(0,768,768)"/><rect x="782" y="754" width="28" height="28" transform="rotate(0,796,768)"/><rect x="810" y="754" width="28" height="28" transform="rotate(0,824,768)"/><rect x="838" y="754" width="28" height="28" transform="rotate(0,852,768)"/><path d="M 866 754v 28h 28v -14a 14 14, 0, 0, 0, -14 -14" transform="rotate(90,880,768)"/><rect x="922" y="754" width="28" height="28" transform="rotate(0,936,768)"/><rect x="950" y="754" width="28" height="28" transform="rotate(0,964,768)"/><path d="M 978 754v 28h 28v -14a 14 14, 0, 0, 0, -14 -14" transform="rotate(90,992,768)"/><path d="M 1146 754v 28h 14a 14 14, 0, 0, 0, 0 -28" transform="rotate(90,1160,768)"/><path d="M 26 782v 28h 28v -14a 14 14, 0, 0, 0, -14 -14" transform="rotate(-90,40,796)"/><path d="M 54 782v 28h 28v -14a 14 14, 0, 0, 0, -14 -14" transform="rotate(90,68,796)"/><rect x="138" y="782" width="28" height="28" transform="rotate(0,152,796)"/><path d="M 222 782v 28h 14a 14 14, 0, 0, 0, 0 -28" transform="rotate(-90,236,796)"/><path d="M 306 782v 28h 28v -14a 14 14, 0, 0, 0, -14 -14" transform="rotate(-90,320,796)"/><path d="M 334 782v 28h 14a 14 14, 0, 0, 0, 0 -28" transform="rotate(0,348,796)"/><path d="M 418 782v 28h 14a 14 14, 0, 0, 0, 0 -28" transform="rotate(180,432,796)"/><rect x="446" y="782" width="28" height="28" transform="rotate(0,460,796)"/><rect x="474" y="782" width="28" height="28" transform="rotate(0,488,796)"/><rect x="502" y="782" width="28" height="28" transform="rotate(0,516,796)"/><path d="M 530 782v 28h 28v -14a 14 14, 0, 0, 0, -14 -14" transform="rotate(90,544,796)"/><circle cx="600" cy="796" r="14" transform="rotate(0,600,796)"/><rect x="670" y="782" width="28" height="28" transform="rotate(0,684,796)"/><path d="M 698 782v 28h 14a 14 14, 0, 0, 0, 0 -28" transform="rotate(0,712,796)"/><path d="M 754 782v 28h 28v -14a 14 14, 0, 0, 0, -14 -14" transform="rotate(180,768,796)"/><path d="M 782 782v 28h 28v -14a 14 14, 0, 0, 0, -14 -14" transform="rotate(90,796,796)"/><rect x="838" y="782" width="28" height="28" transform="rotate(0,852,796)"/><path d="M 894 782v 28h 14a 14 14, 0, 0, 0, 0 -28" transform="rotate(180,908,796)"/><rect x="922" y="782" width="28" height="28" transform="rotate(0,936,796)"/><rect x="950" y="782" width="28" height="28" transform="rotate(0,964,796)"/><path d="M 1034 782v 28h 14a 14 14, 0, 0, 0, 0 -28" transform="rotate(180,1048,796)"/><path d="M 1062 782v 28h 14a 14 14, 0, 0, 0, 0 -28" transform="rotate(0,1076,796)"/><rect x="26" y="810" width="28" height="28" transform="rotate(0,40,824)"/><path d="M 110 810v 28h 14a 14 14, 0, 0, 0, 0 -28" transform="rotate(180,124,824)"/><rect x="138" y="810" width="28" height="28" transform="rotate(0,152,824)"/><rect x="166" y="810" width="28" height="28" transform="rotate(0,180,824)"/><rect x="194" y="810" width="28" height="28" transform="rotate(0,208,824)"/><rect x="222" y="810" width="28" height="28" transform="rotate(0,236,824)"/><rect x="250" y="810" width="28" height="28" transform="rotate(0,264,824)"/><rect x="278" y="810" width="28" height="28" transform="rotate(0,292,824)"/><rect x="306" y="810" width="28" height="28" transform="rotate(0,320,824)"/><rect x="446" y="810" width="28" height="28" transform="rotate(0,460,824)"/><rect x="474" y="810" width="28" height="28" transform="rotate(0,488,824)"/><path d="M 614 810v 28h 28v -14a 14 14, 0, 0, 0, -14 -14" transform="rotate(-90,628,824)"/><rect x="642" y="810" width="28" height="28" transform="rotate(0,656,824)"/><path d="M 670 810v 28h 28v -14a 14 14, 0, 0, 0, -14 -14" transform="rotate(90,684,824)"/><rect x="838" y="810" width="28" height="28" transform="rotate(0,852,824)"/><rect x="950" y="810" width="28" height="28" transform="rotate(0,964,824)"/><circle cx="1132" cy="824" r="14" transform="rotate(0,1132,824)"/><path d="M 26 838v 28h 14a 14 14, 0, 0, 0, 0 -28" transform="rotate(90,40,852)"/><rect x="138" y="838" width="28" height="28" transform="rotate(0,152,852)"/><rect x="250" y="838" width="28" height="28" transform="rotate(0,264,852)"/><rect x="278" y="838" width="28" height="28" transform="rotate(0,292,852)"/><rect x="306" y="838" width="28" height="28" transform="rotate(0,320,852)"/><path d="M 334 838v 28h 28v -14a 14 14, 0, 0, 0, -14 -14" transform="rotate(0,348,852)"/><path d="M 390 838v 28h 28v -14a 14 14, 0, 0, 0, -14 -14" transform="rotate(-90,404,852)"/><rect x="418" y="838" width="28" height="28" transform="rotate(0,432,852)"/><rect x="446" y="838" width="28" height="28" transform="rotate(0,460,852)"/><rect x="474" y="838" width="28" height="28" transform="rotate(0,488,852)"/><path d="M 502 838v 28h 28v -14a 14 14, 0, 0, 0, -14 -14" transform="rotate(0,516,852)"/><circle cx="572" cy="852" r="14" transform="rotate(0,572,852)"/><rect x="614" y="838" width="28" height="28" transform="rotate(0,628,852)"/><path d="M 698 838v 28h 28v -14a 14 14, 0, 0, 0, -14 -14" transform="rotate(-90,712,852)"/><rect x="726" y="838" width="28" height="28" transform="rotate(0,740,852)"/><path d="M 754 838v 28h 28v -14a 14 14, 0, 0, 0, -14 -14" transform="rotate(0,768,852)"/><path d="M 810 838v 28h 28v -14a 14 14, 0, 0, 0, -14 -14" transform="rotate(-90,824,852)"/><rect x="838" y="838" width="28" height="28" transform="rotate(0,852,852)"/><path d="M 866 838v 28h 14a 14 14, 0, 0, 0, 0 -28" transform="rotate(0,880,852)"/><rect x="950" y="838" width="28" height="28" transform="rotate(0,964,852)"/><path d="M 978 838v 28h 14a 14 14, 0, 0, 0, 0 -28" transform="rotate(0,992,852)"/><circle cx="1048" cy="852" r="14" transform="rotate(0,1048,852)"/><path d="M 1146 838v 28h 14a 14 14, 0, 0, 0, 0 -28" transform="rotate(-90,1160,852)"/><rect x="138" y="866" width="28" height="28" transform="rotate(0,152,880)"/><circle cx="208" cy="880" r="14" transform="rotate(0,208,880)"/><path d="M 250 866v 28h 28v -14a 14 14, 0, 0, 0, -14 -14" transform="rotate(180,264,880)"/><path d="M 278 866v 28h 28v -14a 14 14, 0, 0, 0, -14 -14" transform="rotate(90,292,880)"/><rect x="334" y="866" width="28" height="28" transform="rotate(0,348,880)"/><path d="M 390 866v 28h 28v -14a 14 14, 0, 0, 0, -14 -14" transform="rotate(180,404,880)"/><path d="M 418 866v 28h 28v -14a 14 14, 0, 0, 0, -14 -14" transform="rotate(90,432,880)"/><rect x="502" y="866" width="28" height="28" transform="rotate(0,516,880)"/><path d="M 530 866v 28h 14a 14 14, 0, 0, 0, 0 -28" transform="rotate(0,544,880)"/><path d="M 586 866v 28h 28v -14a 14 14, 0, 0, 0, -14 -14" transform="rotate(-90,600,880)"/><rect x="614" y="866" width="28" height="28" transform="rotate(0,628,880)"/><path d="M 670 866v 28h 28v -14a 14 14, 0, 0, 0, -14 -14" transform="rotate(-90,684,880)"/><path d="M 698 866v 28h 28v -14a 14 14, 0, 0, 0, -14 -14" transform="rotate(90,712,880)"/><path d="M 754 866v 28h 14a 14 14, 0, 0, 0, 0 -28" transform="rotate(90,768,880)"/><path d="M 810 866v 28h 28v -14a 14 14, 0, 0, 0, -14 -14" transform="rotate(180,824,880)"/><rect x="838" y="866" width="28" height="28" transform="rotate(0,852,880)"/><path d="M 922 866v 28h 14a 14 14, 0, 0, 0, 0 -28" transform="rotate(180,936,880)"/><rect x="950" y="866" width="28" height="28" transform="rotate(0,964,880)"/><path d="M 1062 866v 28h 28v -14a 14 14, 0, 0, 0, -14 -14" transform="rotate(-90,1076,880)"/><rect x="1090" y="866" width="28" height="28" transform="rotate(0,1104,880)"/><rect x="1118" y="866" width="28" height="28" transform="rotate(0,1132,880)"/><path d="M 1146 866v 28h 28v -14a 14 14, 0, 0, 0, -14 -14" transform="rotate(90,1160,880)"/><path d="M 110 894v 28h 28v -14a 14 14, 0, 0, 0, -14 -14" transform="rotate(-90,124,908)"/><rect x="138" y="894" width="28" height="28" transform="rotate(0,152,908)"/><path d="M 166 894v 28h 14a 14 14, 0, 0, 0, 0 -28" transform="rotate(0,180,908)"/><rect x="334" y="894" width="28" height="28" transform="rotate(0,348,908)"/><path d="M 446 894v 28h 28v -14a 14 14, 0, 0, 0, -14 -14" transform="rotate(-90,460,908)"/><rect x="474" y="894" width="28" height="28" transform="rotate(0,488,908)"/><rect x="502" y="894" width="28" height="28" transform="rotate(0,516,908)"/><rect x="586" y="894" width="28" height="28" transform="rotate(0,600,908)"/><rect x="614" y="894" width="28" height="28" transform="rotate(0,628,908)"/><rect x="642" y="894" width="28" height="28" transform="rotate(0,656,908)"/><path d="M 670 894v 28h 28v -14a 14 14, 0, 0, 0, -14 -14" transform="rotate(90,684,908)"/><rect x="838" y="894" width="28" height="28" transform="rotate(0,852,908)"/><rect x="866" y="894" width="28" height="28" transform="rotate(0,880,908)"/><path d="M 894 894v 28h 28v -14a 14 14, 0, 0, 0, -14 -14" transform="rotate(0,908,908)"/><rect x="950" y="894" width="28" height="28" transform="rotate(0,964,908)"/><path d="M 1034 894v 28h 28v -14a 14 14, 0, 0, 0, -14 -14" transform="rotate(-90,1048,908)"/><rect x="1062" y="894" width="28" height="28" transform="rotate(0,1076,908)"/><path d="M 26 922v 28h 14a 14 14, 0, 0, 0, 0 -28" transform="rotate(180,40,936)"/><rect x="54" y="922" width="28" height="28" transform="rotate(0,68,936)"/><rect x="82" y="922" width="28" height="28" transform="rotate(0,96,936)"/><path d="M 110 922v 28h 28v -14a 14 14, 0, 0, 0, -14 -14" transform="rotate(90,124,936)"/><circle cx="208" cy="936" r="14" transform="rotate(0,208,936)"/><circle cx="292" cy="936" r="14" transform="rotate(0,292,936)"/><path d="M 334 922v 28h 28v -14a 14 14, 0, 0, 0, -14 -14" transform="rotate(180,348,936)"/><rect x="362" y="922" width="28" height="28" transform="rotate(0,376,936)"/><rect x="390" y="922" width="28" height="28" transform="rotate(0,404,936)"/><rect x="418" y="922" width="28" height="28" transform="rotate(0,432,936)"/><path d="M 446 922v 28h 28v -14a 14 14, 0, 0, 0, -14 -14" transform="rotate(90,460,936)"/><path d="M 502 922v 28h 28v -14a 14 14, 0, 0, 0, -14 -14" transform="rotate(180,516,936)"/><path d="M 530 922v 28h 14a 14 14, 0, 0, 0, 0 -28" transform="rotate(0,544,936)"/><rect x="586" y="922" width="28" height="28" transform="rotate(0,600,936)"/><path d="M 642 922v 28h 14a 14 14, 0, 0, 0, 0 -28" transform="rotate(90,656,936)"/><circle cx="712" cy="936" r="14" transform="rotate(0,712,936)"/><path d="M 782 922v 28h 28v -14a 14 14, 0, 0, 0, -14 -14" transform="rotate(-90,796,936)"/><rect x="810" y="922" width="28" height="28" transform="rotate(0,824,936)"/><path d="M 838 922v 28h 28v -14a 14 14, 0, 0, 0, -14 -14" transform="rotate(90,852,936)"/><rect x="894" y="922" width="28" height="28" transform="rotate(0,908,936)"/><rect x="922" y="922" width="28" height="28" transform="rotate(0,936,936)"/><rect x="950" y="922" width="28" height="28" transform="rotate(0,964,936)"/><rect x="978" y="922" width="28" height="28" transform="rotate(0,992,936)"/><rect x="1006" y="922" width="28" height="28" transform="rotate(0,1020,936)"/><rect x="1034" y="922" width="28" height="28" transform="rotate(0,1048,936)"/><path d="M 1062 922v 28h 28v -14a 14 14, 0, 0, 0, -14 -14" transform="rotate(90,1076,936)"/><circle cx="1132" cy="936" r="14" transform="rotate(0,1132,936)"/><circle cx="264" cy="964" r="14" transform="rotate(0,264,964)"/><path d="M 306 950v 28h 14a 14 14, 0, 0, 0, 0 -28" transform="rotate(-90,320,964)"/><path d="M 362 950v 28h 14a 14 14, 0, 0, 0, 0 -28" transform="rotate(90,376,964)"/><rect x="586" y="950" width="28" height="28" transform="rotate(0,600,964)"/><path d="M 614 950v 28h 14a 14 14, 0, 0, 0, 0 -28" transform="rotate(0,628,964)"/><path d="M 670 950v 28h 14a 14 14, 0, 0, 0, 0 -28" transform="rotate(-90,684,964)"/><rect x="782" y="950" width="28" height="28" transform="rotate(0,796,964)"/><path d="M 810 950v 28h 28v -14a 14 14, 0, 0, 0, -14 -14" transform="rotate(90,824,964)"/><path d="M 866 950v 28h 14a 14 14, 0, 0, 0, 0 -28" transform="rotate(180,880,964)"/><rect x="894" y="950" width="28" height="28" transform="rotate(0,908,964)"/><rect x="922" y="950" width="28" height="28" transform="rotate(0,936,964)"/><rect x="1034" y="950" width="28" height="28" transform="rotate(0,1048,964)"/><path d="M 1146 950v 28h 14a 14 14, 0, 0, 0, 0 -28" transform="rotate(-90,1160,964)"/><path d="M 278 978v 28h 28v -14a 14 14, 0, 0, 0, -14 -14" transform="rotate(-90,292,992)"/><rect x="306" y="978" width="28" height="28" transform="rotate(0,320,992)"/><circle cx="404" cy="992" r="14" transform="rotate(0,404,992)"/><path d="M 446 978v 28h 14a 14 14, 0, 0, 0, 0 -28" transform="rotate(-90,460,992)"/><circle cx="516" cy="992" r="14" transform="rotate(0,516,992)"/><path d="M 586 978v 28h 14a 14 14, 0, 0, 0, 0 -28" transform="rotate(90,600,992)"/><path d="M 642 978v 28h 28v -14a 14 14, 0, 0, 0, -14 -14" transform="rotate(-90,656,992)"/><path d="M 670 978v 28h 28v -14a 14 14, 0, 0, 0, -14 -14" transform="rotate(90,684,992)"/><path d="M 726 978v 28h 28v -14a 14 14, 0, 0, 0, -14 -14" transform="rotate(-90,740,992)"/><rect x="754" y="978" width="28" height="28" transform="rotate(0,768,992)"/><path d="M 782 978v 28h 28v -14a 14 14, 0, 0, 0, -14 -14" transform="rotate(90,796,992)"/><path d="M 838 978v 28h 14a 14 14, 0, 0, 0, 0 -28" transform="rotate(-90,852,992)"/><rect x="894" y="978" width="28" height="28" transform="rotate(0,908,992)"/><rect x="922" y="978" width="28" height="28" transform="rotate(0,936,992)"/><circle cx="992" cy="992" r="14" transform="rotate(0,992,992)"/><rect x="1034" y="978" width="28" height="28" transform="rotate(0,1048,992)"/><rect x="1062" y="978" width="28" height="28" transform="rotate(0,1076,992)"/><rect x="1090" y="978" width="28" height="28" transform="rotate(0,1104,992)"/><rect x="1118" y="978" width="28" height="28" transform="rotate(0,1132,992)"/><rect x="1146" y="978" width="28" height="28" transform="rotate(0,1160,992)"/><rect x="278" y="1006" width="28" height="28" transform="rotate(0,292,1020)"/><rect x="306" y="1006" width="28" height="28" transform="rotate(0,320,1020)"/><path d="M 334 1006v 28h 28v -14a 14 14, 0, 0, 0, -14 -14" transform="rotate(0,348,1020)"/><path d="M 446 1006v 28h 14a 14 14, 0, 0, 0, 0 -28" transform="rotate(90,460,1020)"/><path d="M 530 1006v 28h 14a 14 14, 0, 0, 0, 0 -28" transform="rotate(-90,544,1020)"/><rect x="642" y="1006" width="28" height="28" transform="rotate(0,656,1020)"/><rect x="726" y="1006" width="28" height="28" transform="rotate(0,740,1020)"/><path d="M 838 1006v 28h 28v -14a 14 14, 0, 0, 0, -14 -14" transform="rotate(180,852,1020)"/><rect x="866" y="1006" width="28" height="28" transform="rotate(0,880,1020)"/><rect x="894" y="1006" width="28" height="28" transform="rotate(0,908,1020)"/><rect x="922" y="1006" width="28" height="28" transform="rotate(0,936,1020)"/><rect x="1034" y="1006" width="28" height="28" transform="rotate(0,1048,1020)"/><rect x="1146" y="1006" width="28" height="28" transform="rotate(0,1160,1020)"/><path d="M 250 1034v 28h 14a 14 14, 0, 0, 0, 0 -28" transform="rotate(180,264,1048)"/><path d="M 278 1034v 28h 28v -14a 14 14, 0, 0, 0, -14 -14" transform="rotate(90,292,1048)"/><rect x="334" y="1034" width="28" height="28" transform="rotate(0,348,1048)"/><rect x="362" y="1034" width="28" height="28" transform="rotate(0,376,1048)"/><rect x="390" y="1034" width="28" height="28" transform="rotate(0,404,1048)"/><path d="M 418 1034v 28h 28v -14a 14 14, 0, 0, 0, -14 -14" transform="rotate(0,432,1048)"/><rect x="530" y="1034" width="28" height="28" transform="rotate(0,544,1048)"/><path d="M 586 1034v 28h 28v -14a 14 14, 0, 0, 0, -14 -14" transform="rotate(-90,600,1048)"/><rect x="614" y="1034" width="28" height="28" transform="rotate(0,628,1048)"/><rect x="642" y="1034" width="28" height="28" transform="rotate(0,656,1048)"/><path d="M 698 1034v 28h 14a 14 14, 0, 0, 0, 0 -28" transform="rotate(180,712,1048)"/><rect x="726" y="1034" width="28" height="28" transform="rotate(0,740,1048)"/><path d="M 782 1034v 28h 14a 14 14, 0, 0, 0, 0 -28" transform="rotate(-90,796,1048)"/><path d="M 866 1034v 28h 28v -14a 14 14, 0, 0, 0, -14 -14" transform="rotate(180,880,1048)"/><rect x="894" y="1034" width="28" height="28" transform="rotate(0,908,1048)"/><rect x="922" y="1034" width="28" height="28" transform="rotate(0,936,1048)"/><rect x="950" y="1034" width="28" height="28" transform="rotate(0,964,1048)"/><rect x="978" y="1034" width="28" height="28" transform="rotate(0,992,1048)"/><rect x="1006" y="1034" width="28" height="28" transform="rotate(0,1020,1048)"/><rect x="1034" y="1034" width="28" height="28" transform="rotate(0,1048,1048)"/><path d="M 1062 1034v 28h 14a 14 14, 0, 0, 0, 0 -28" transform="rotate(0,1076,1048)"/><path d="M 1146 1034v 28h 14a 14 14, 0, 0, 0, 0 -28" transform="rotate(90,1160,1048)"/><path d="M 306 1062v 28h 28v -14a 14 14, 0, 0, 0, -14 -14" transform="rotate(-90,320,1076)"/><path d="M 334 1062v 28h 28v -14a 14 14, 0, 0, 0, -14 -14" transform="rotate(90,348,1076)"/><rect x="390" y="1062" width="28" height="28" transform="rotate(0,404,1076)"/><rect x="418" y="1062" width="28" height="28" transform="rotate(0,432,1076)"/><path d="M 446 1062v 28h 28v -14a 14 14, 0, 0, 0, -14 -14" transform="rotate(0,460,1076)"/><path d="M 502 1062v 28h 14a 14 14, 0, 0, 0, 0 -28" transform="rotate(180,516,1076)"/><rect x="530" y="1062" width="28" height="28" transform="rotate(0,544,1076)"/><rect x="586" y="1062" width="28" height="28" transform="rotate(0,600,1076)"/><path d="M 642 1062v 28h 28v -14a 14 14, 0, 0, 0, -14 -14" transform="rotate(180,656,1076)"/><path d="M 670 1062v 28h 28v -14a 14 14, 0, 0, 0, -14 -14" transform="rotate(0,684,1076)"/><rect x="726" y="1062" width="28" height="28" transform="rotate(0,740,1076)"/><rect x="754" y="1062" width="28" height="28" transform="rotate(0,768,1076)"/><rect x="782" y="1062" width="28" height="28" transform="rotate(0,796,1076)"/><rect x="810" y="1062" width="28" height="28" transform="rotate(0,824,1076)"/><path d="M 838 1062v 28h 28v -14a 14 14, 0, 0, 0, -14 -14" transform="rotate(0,852,1076)"/><path d="M 922 1062v 28h 14a 14 14, 0, 0, 0, 0 -28" transform="rotate(90,936,1076)"/><path d="M 1006 1062v 28h 14a 14 14, 0, 0, 0, 0 -28" transform="rotate(90,1020,1076)"/><rect x="306" y="1090" width="28" height="28" transform="rotate(0,320,1104)"/><path d="M 390 1090v 28h 14a 14 14, 0, 0, 0, 0 -28" transform="rotate(90,404,1104)"/><path d="M 446 1090v 28h 28v -14a 14 14, 0, 0, 0, -14 -14" transform="rotate(180,460,1104)"/><path d="M 474 1090v 28h 28v -14a 14 14, 0, 0, 0, -14 -14" transform="rotate(0,488,1104)"/><path d="M 530 1090v 28h 28v -14a 14 14, 0, 0, 0, -14 -14" transform="rotate(180,544,1104)"/><rect x="558" y="1090" width="28" height="28" transform="rotate(0,572,1104)"/><rect x="586" y="1090" width="28" height="28" transform="rotate(0,600,1104)"/><rect x="670" y="1090" width="28" height="28" transform="rotate(0,684,1104)"/><path d="M 726 1090v 28h 28v -14a 14 14, 0, 0, 0, -14 -14" transform="rotate(180,740,1104)"/><rect x="754" y="1090" width="28" height="28" transform="rotate(0,768,1104)"/><path d="M 782 1090v 28h 28v -14a 14 14, 0, 0, 0, -14 -14" transform="rotate(90,796,1104)"/><rect x="838" y="1090" width="28" height="28" transform="rotate(0,852,1104)"/><path d="M 866 1090v 28h 14a 14 14, 0, 0, 0, 0 -28" transform="rotate(0,880,1104)"/><circle cx="964" cy="1104" r="14" transform="rotate(0,964,1104)"/><path d="M 1062 1090v 28h 14a 14 14, 0, 0, 0, 0 -28" transform="rotate(-90,1076,1104)"/><path d="M 1146 1090v 28h 14a 14 14, 0, 0, 0, 0 -28" transform="rotate(-90,1160,1104)"/><circle cx="264" cy="1132" r="14" transform="rotate(0,264,1132)"/><path d="M 306 1118v 28h 28v -14a 14 14, 0, 0, 0, -14 -14" transform="rotate(180,320,1132)"/><rect x="334" y="1118" width="28" height="28" transform="rotate(0,348,1132)"/><path d="M 362 1118v 28h 14a 14 14, 0, 0, 0, 0 -28" transform="rotate(0,376,1132)"/><path d="M 474 1118v 28h 14a 14 14, 0, 0, 0, 0 -28" transform="rotate(90,488,1132)"/><path d="M 586 1118v 28h 28v -14a 14 14, 0, 0, 0, -14 -14" transform="rotate(180,600,1132)"/><path d="M 614 1118v 28h 14a 14 14, 0, 0, 0, 0 -28" transform="rotate(0,628,1132)"/><rect x="670" y="1118" width="28" height="28" transform="rotate(0,684,1132)"/><path d="M 810 1118v 28h 28v -14a 14 14, 0, 0, 0, -14 -14" transform="rotate(-90,824,1132)"/><rect x="838" y="1118" width="28" height="28" transform="rotate(0,852,1132)"/><path d="M 894 1118v 28h 14a 14 14, 0, 0, 0, 0 -28" transform="rotate(180,908,1132)"/><path d="M 922 1118v 28h 28v -14a 14 14, 0, 0, 0, -14 -14" transform="rotate(0,936,1132)"/><path d="M 1006 1118v 28h 14a 14 14, 0, 0, 0, 0 -28" transform="rotate(-90,1020,1132)"/><path d="M 1062 1118v 28h 14a 14 14, 0, 0, 0, 0 -28" transform="rotate(90,1076,1132)"/><path d="M 1118 1118v 28h 28v -14a 14 14, 0, 0, 0, -14 -14" transform="rotate(-90,1132,1132)"/><path d="M 1146 1118v 28h 28v -14a 14 14, 0, 0, 0, -14 -14" transform="rotate(90,1160,1132)"/><circle cx="292" cy="1160" r="14" transform="rotate(0,292,1160)"/><path d="M 334 1146v 28h 14a 14 14, 0, 0, 0, 0 -28" transform="rotate(90,348,1160)"/><path d="M 418 1146v 28h 14a 14 14, 0, 0, 0, 0 -28" transform="rotate(180,432,1160)"/><path d="M 446 1146v 28h 14a 14 14, 0, 0, 0, 0 -28" transform="rotate(0,460,1160)"/><circle cx="516" cy="1160" r="14" transform="rotate(0,516,1160)"/><circle cx="572" cy="1160" r="14" transform="rotate(0,572,1160)"/><path d="M 642 1146v 28h 14a 14 14, 0, 0, 0, 0 -28" transform="rotate(180,656,1160)"/><rect x="670" y="1146" width="28" height="28" transform="rotate(0,684,1160)"/><path d="M 698 1146v 28h 14a 14 14, 0, 0, 0, 0 -28" transform="rotate(0,712,1160)"/><path d="M 810 1146v 28h 28v -14a 14 14, 0, 0, 0, -14 -14" transform="rotate(180,824,1160)"/><path d="M 838 1146v 28h 28v -14a 14 14, 0, 0, 0, -14 -14" transform="rotate(90,852,1160)"/><path d="M 922 1146v 28h 14a 14 14, 0, 0, 0, 0 -28" transform="rotate(90,936,1160)"/><path d="M 978 1146v 28h 14a 14 14, 0, 0, 0, 0 -28" transform="rotate(180,992,1160)"/><rect x="1006" y="1146" width="28" height="28" transform="rotate(0,1020,1160)"/><path d="M 1034 1146v 28h 14a 14 14, 0, 0, 0, 0 -28" transform="rotate(0,1048,1160)"/><path d="M 1118 1146v 28h 14a 14 14, 0, 0, 0, 0 -28" transform="rotate(90,1132,1160)"/></clipPath><clipPath id="clip-path-corners-square-color-0-0-339"><path clip-rule="evenodd" d="M 26 96v 56a 70 70, 0, 0, 0, 70 70h 56a 70 70, 0, 0, 0, 70 -70v -56a 70 70, 0, 0, 0, -70 -70h -56a 70 70, 0, 0, 0, -70 70M 96 54h 56a 42 42, 0, 0, 1, 42 42v 56a 42 42, 0, 0, 1, -42 42h -56a 42 42, 0, 0, 1, -42 -42v -56a 42 42, 0, 0, 1, 42 -42" transform="rotate(0,124,124)"/></clipPath><clipPath id="clip-path-corners-dot-color-0-0-339"><circle cx="124" cy="124" r="42" transform="rotate(0,124,124)"/></clipPath><clipPath id="clip-path-corners-square-color-1-0-339"><path clip-rule="evenodd" d="M 978 96v 56a 70 70, 0, 0, 0, 70 70h 56a 70 70, 0, 0, 0, 70 -70v -56a 70 70, 0, 0, 0, -70 -70h -56a 70 70, 0, 0, 0, -70 70M 1048 54h 56a 42 42, 0, 0, 1, 42 42v 56a 42 42, 0, 0, 1, -42 42h -56a 42 42, 0, 0, 1, -42 -42v -56a 42 42, 0, 0, 1, 42 -42" transform="rotate(90,1076,124)"/></clipPath><clipPath id="clip-path-corners-dot-color-1-0-339"><circle cx="1076" cy="124" r="42" transform="rotate(90,1076,124)"/></clipPath><clipPath id="clip-path-corners-square-color-0-1-339"><path clip-rule="evenodd" d="M 26 1048v 56a 70 70, 0, 0, 0, 70 70h 56a 70 70, 0, 0, 0, 70 -70v -56a 70 70, 0, 0, 0, -70 -70h -56a 70 70, 0, 0, 0, -70 70M 96 1006h 56a 42 42, 0, 0, 1, 42 42v 56a 42 42, 0, 0, 1, -42 42h -56a 42 42, 0, 0, 1, -42 -42v -56a 42 42, 0, 0, 1, 42 -42" transform="rotate(-90,124,1076)"/></clipPath><clipPath id="clip-path-corners-dot-color-0-1-339"><circle cx="124" cy="1076" r="42" transform="rotate(-90,124,1076)"/></clipPath></defs><rect x="0" y="0" height="1200" width="1200" clip-path="url('#clip-path-background-color-339')" fill="#ffffff"/><rect x="0" y="0" height="1200" width="1200" clip-path="url('#clip-path-dot-color-339')" fill="#000000"/><rect x="26" y="26" height="196" width="196" clip-path="url('#clip-path-corners-square-color-0-0-339')" fill="#000000"/><rect x="82" y="82" height="84" width="84" clip-path="url('#clip-path-corners-dot-color-0-0-339')" fill="#000000"/><rect x="978" y="26" height="196" width="196" clip-path="url('#clip-path-corners-square-color-1-0-339')" fill="#000000"/><rect x="1034" y="82" height="84" width="84" clip-path="url('#clip-path-corners-dot-color-1-0-339')" fill="#000000"/><rect x="26" y="978" height="196" width="196" clip-path="url('#clip-path-corners-square-color-0-1-339')" fill="#000000"/><rect x="82" y="1034" height="84" width="84" clip-path="url('#clip-path-corners-dot-color-0-1-339')" fill="#000000"/></svg>