<?xml version="1.0" standalone="no"?>
<svg xmlns="http://www.w3.org/2000/svg" width="1200" height="1200" xmlns:xlink="http://www.w3.org/1999/xlink" viewBox="0 0 1200 1200"><defs><clipPath id="clip-path-background-color-328"><rect x="0" y="0" width="1200" height="1200"/></clipPath><clipPath id="clip-path-dot-color-328"><circle cx="292" cy="40" r="14" transform="rotate(0,292,40)"/><path d="M 390 26v 28h 14a 14 14, 0, 0, 0, 0 -28" transform="rotate(-90,404,40)"/><path d="M 446 26v 28h 14a 14 14, 0, 0, 0, 0 -28" transform="rotate(180,460,40)"/><rect x="474" y="26" width="28" height="28" transform="rotate(0,488,40)"/><rect x="502" y="26" width="28" height="28" transform="rotate(0,516,40)"/><rect x="530" y="26" width="28" height="28" transform="rotate(0,544,40)"/><rect x="558" y="26" width="28" height="28" transform="rotate(0,572,40)"/><rect x="586" y="26" width="28" height="28" transform="rotate(0,600,40)"/><rect x="614" y="26" width="28" height="28" transform="rotate(0,628,40)"/><rect x="642" y="26" width="28" height="28" transform="rotate(0,656,40)"/><rect x="670" y="26" width="28" height="28" transform="rotate(0,684,40)"/><path d="M 698 26v 28h 28v -14a 14 14, 0, 0, 0, -14 -14" transform="rotate(0,712,40)"/><circle cx="768" cy="40" r="14" transform="rotate(0,768,40)"/><path d="M 810 26v 28h 14a 14 14, 0, 0, 0, 0 -28" transform="rotate(180,824,40)"/><rect x="838" y="26" width="28" height="28" transform="rotate(0,852,40)"/><path d="M 866 26v 28h 14a 14 14, 0, 0, 0, 0 -28" transform="rotate(0,880,40)"/><path d="M 922 26v 28h 14a 14 14, 0, 0, 0, 0 -28" transform="rotate(-90,936,40)"/><circle cx="264" cy="68" r="14" transform="rotate(0,264,68)"/><path d="M 306 54v 28h 14a 14 14, 0, 0, 0, 0 -28" transform="rotate(180,320,68)"/><path d="M 334 54v 28h 14a 14 14, 0, 0, 0, 0 -28" transform="rotate(0,348,68)"/><path d="M 390 54v 28h 28v -14a 14 14, 0, 0, 0, -14 -14" transform="rotate(180,404,68)"/><path d="M 418 54v 28h 28v -14a 14 14, 0, 0, 0, -14 -14" transform="rotate(0,432,68)"/><rect x="502" y="54" width="28" height="28" transform="rotate(0,516,68)"/><rect x="558" y="54" width="28" height="28" transform="rotate(0,572,68)"/><rect x="586" y="54" width="28" height="28" transform="rotate(0,600,68)"/><rect x="614" y="54" width="28" height="28" transform="rotate(0,628,68)"/><rect x="642" y="54" width="28" height="28" transform="rotate(0,656,68)"/><rect x="670" y="54" width="28" height="28" transform="rotate(0,684,68)"/><rect x="698" y="54" width="28" height="28" transform="rotate(0,712,68)"/><path d="M 894 54v 28h 14a 14 14, 0, 0, 0, 0 -28" transform="rotate(180,908,68)"/><rect x="922" y="54" width="28" height="28" transform="rotate(0,936,68)"/><path d="M 278 82v 28h 14a 14 14, 0, 0, 0, 0 -28" transform="rotate(-90,292,96)"/><path d="M 362 82v 28h 14a 14 14, 0, 0, 0, 0 -28" transform="rotate(-90,376,96)"/><path d="M 418 82v 28h 28v -14a 14 14, 0, 0, 0, -14 -14" transform="rotate(180,432,96)"/><path d="M 446 82v 28h 14a 14 14, 0, 0, 0, 0 -28" transform="rotate(0,460,96)"/><rect x="502" y="82" width="28" height="28" transform="rotate(0,516,96)"/><rect x="530" y="82" width="28" height="28" transform="rotate(0,544,96)"/><rect x="558" y="82" width="28" height="28" transform="rotate(0,572,96)"/><path d="M 670 82v 28h 28v -14a 14 14, 0, 0, 0, -14 -14" transform="rotate(180,684,96)"/><rect x="698" y="82" width="28" height="28" transform="rotate(0,712,96)"/><path d="M 810 82v 28h 14a 14 14, 0, 0, 0, 0 -28" transform="rotate(-90,824,96)"/><path d="M 922 82v 28h 14a 14 14, 0, 0, 0, 0 -28" transform="rotate(90,936,96)"/><path d="M 250 110v 28h 28v -14a 14 14, 0, 0, 0, -14 -14" transform="rotate(-90,264,124)"/><path d="M 278 110v 28h 28v -14a 14 14, 0, 0, 0, -14 -14" transform="rotate(90,292,124)"/><path d="M 362 110v 28h 14a 14 14, 0, 0, 0, 0 -28" transform="rotate(90,376,124)"/><path d="M 474 110v 28h 14a 14 14, 0, 0, 0, 0 -28" transform="rotate(180,488,124)"/><rect x="502" y="110" width="28" height="28" transform="rotate(0,516,124)"/><rect x="530" y="110" width="28" height="28" transform="rotate(0,544,124)"/><rect x="558" y="110" width="28" height="28" transform="rotate(0,572,124)"/><path d="M 586 110v 28h 28v -14a 14 14, 0, 0, 0, -14 -14" transform="rotate(0,600,124)"/><circle cx="656" cy="124" r="14" transform="rotate(0,656,124)"/><path d="M 698 110v 28h 14a 14 14, 0, 0, 0, 0 -28" transform="rotate(90,712,124)"/><rect x="810" y="110" width="28" height="28" transform="rotate(0,824,124)"/><path d="M 838 110v 28h 28v -14a 14 14, 0, 0, 0, -14 -14" transform="rotate(0,852,124)"/><path d="M 894 110v 28h 14a 14 14, 0, 0, 0, 0 -28" transform="rotate(-90,908,124)"/><path d="M 250 138v 28h 14a 14 14, 0, 0, 0, 0 -28" transform="rotate(90,264,152)"/><path d="M 306 138v 28h 14a 14 14, 0, 0, 0, 0 -28" transform="rotate(-90,320,152)"/><path d="M 390 138v 28h 14a 14 14, 0, 0, 0, 0 -28" transform="rotate(180,404,152)"/><rect x="418" y="138" width="28" height="28" transform="rotate(0,432,152)"/><path d="M 446 138v 28h 28v -14a 14 14, 0, 0, 0, -14 -14" transform="rotate(0,460,152)"/><path d="M 502 138v 28h 14a 14 14, 0, 0, 0, 0 -28" transform="rotate(90,516,152)"/><path d="M 586 138v 28h 28v -14a 14 14, 0, 0, 0, -14 -14" transform="rotate(180,600,152)"/><path d="M 614 138v 28h 28v -14a 14 14, 0, 0, 0, -14 -14" transform="rotate(0,628,152)"/><circle cx="684" cy="152" r="14" transform="rotate(0,684,152)"/><circle cx="768" cy="152" r="14" transform="rotate(0,768,152)"/><rect x="810" y="138" width="28" height="28" transform="rotate(0,824,152)"/><rect x="838" y="138" width="28" height="28" transform="rotate(0,852,152)"/><rect x="866" y="138" width="28" height="28" transform="rotate(0,880,152)"/><path d="M 894 138v 28h 28v -14a 14 14, 0, 0, 0, -14 -14" transform="rotate(90,908,152)"/><path d="M 278 166v 28h 14a 14 14, 0, 0, 0, 0 -28" transform="rotate(180,292,180)"/><rect x="306" y="166" width="28" height="28" transform="rotate(0,320,180)"/><path d="M 334 166v 28h 14a 14 14, 0, 0, 0, 0 -28" transform="rotate(0,348,180)"/><path d="M 446 166v 28h 14a 14 14, 0, 0, 0, 0 -28" transform="rotate(90,460,180)"/><path d="M 530 166v 28h 14a 14 14, 0, 0, 0, 0 -28" transform="rotate(-90,544,180)"/><path d="M 614 166v 28h 14a 14 14, 0, 0, 0, 0 -28" transform="rotate(90,628,180)"/><circle cx="740" cy="180" r="14" transform="rotate(0,740,180)"/><rect x="810" y="166" width="28" height="28" transform="rotate(0,824,180)"/><rect x="866" y="166" width="28" height="28" transform="rotate(0,880,180)"/><path d="M 922 166v 28h 14a 14 14, 0, 0, 0, 0 -28" transform="rotate(-90,936,180)"/><path d="M 250 194v 28h 14a 14 14, 0, 0, 0, 0 -28" transform="rotate(-90,264,208)"/><path d="M 306 194v 28h 14a 14 14, 0, 0, 0, 0 -28" transform="rotate(90,320,208)"/><path d="M 362 194v 28h 14a 14 14, 0, 0, 0, 0 -28" transform="rotate(-90,376,208)"/><circle cx="432" cy="208" r="14" transform="rotate(0,432,208)"/><path d="M 474 194v 28h 14a 14 14, 0, 0, 0, 0 -28" transform="rotate(-90,488,208)"/><rect x="530" y="194" width="28" height="28" transform="rotate(0,544,208)"/><path d="M 586 194v 28h 14a 14 14, 0, 0, 0, 0 -28" transform="rotate(-90,600,208)"/><circle cx="656" cy="208" r="14" transform="rotate(0,656,208)"/><path d="M 698 194v 28h 14a 14 14, 0, 0, 0, 0 -28" transform="rotate(-90,712,208)"/><path d="M 754 194v 28h 14a 14 14, 0, 0, 0, 0 -28" transform="rotate(-90,768,208)"/><path d="M 810 194v 28h 14a 14 14, 0, 0, 0, 0 -28" transform="rotate(90,824,208)"/><path d="M 866 194v 28h 14a 14 14, 0, 0, 0, 0 -28" transform="rotate(90,880,208)"/><path d="M 922 194v 28h 14a 14 14, 0, 0, 0, 0 -28" transform="rotate(90,936,208)"/><rect x="250" y="222" width="28" height="28" transform="rotate(0,264,236)"/><rect x="362" y="222" width="28" height="28" transform="rotate(0,376,236)"/><path d="M 446 222v 28h 28v -14a 14 14, 0, 0, 0, -14 -14" transform="rotate(-90,460,236)"/><rect x="474" y="222" width="28" height="28" transform="rotate(0,488,236)"/><rect x="530" y="222" width="28" height="28" transform="rotate(0,544,236)"/><path d="M 586 222v 28h 28v -14a 14 14, 0, 0, 0, -14 -14" transform="rotate(180,600,236)"/><path d="M 614 222v 28h 14a 14 14, 0, 0, 0, 0 -28" transform="rotate(0,628,236)"/><rect x="698" y="222" width="28" height="28" transform="rotate(0,712,236)"/><rect x="726" y="222" width="28" height="28" transform="rotate(0,740,236)"/><rect x="754" y="222" width="28" height="28" transform="rotate(0,768,236)"/><path d="M 782 222v 28h 28v -14a 14 14, 0, 0, 0, -14 -14" transform="rotate(0,796,236)"/><path d="M 894 222v 28h 14a 14 14, 0, 0, 0, 0 -28" transform="rotate(-90,908,236)"/><path d="M 54 250v 28h 14a 14 14, 0, 0, 0, 0 -28" transform="rotate(-90,68,264)"/><path d="M 110 250v 28h 28v -14a 14 14, 0, 0, 0, -14 -14" transform="rotate(-90,124,264)"/><rect x="138" y="250" width="28" height="28" transform="rotate(0,152,264)"/><rect x="166" y="250" width="28" height="28" transform="rotate(0,180,264)"/><path d="M 194 250v 28h 14a 14 14, 0, 0, 0, 0 -28" transform="rotate(0,208,264)"/><rect x="250" y="250" width="28" height="28" transform="rotate(0,264,264)"/><path d="M 306 250v 28h 14a 14 14, 0, 0, 0, 0 -28" transform="rotate(-90,320,264)"/><rect x="362" y="250" width="28" height="28" transform="rotate(0,376,264)"/><rect x="390" y="250" width="28" height="28" transform="rotate(0,404,264)"/><rect x="418" y="250" width="28" height="28" transform="rotate(0,432,264)"/><rect x="446" y="250" width="28" height="28" transform="rotate(0,460,264)"/><path d="M 474 250v 28h 28v -14a 14 14, 0, 0, 0, -14 -14" transform="rotate(90,488,264)"/><path d="M 530 250v 28h 14a 14 14, 0, 0, 0, 0 -28" transform="rotate(90,544,264)"/><circle cx="656" cy="264" r="14" transform="rotate(0,656,264)"/><rect x="698" y="250" width="28" height="28" transform="rotate(0,712,264)"/><rect x="754" y="250" width="28" height="28" transform="rotate(0,768,264)"/><rect x="782" y="250" width="28" height="28" transform="rotate(0,796,264)"/><circle cx="852" cy="264" r="14" transform="rotate(0,852,264)"/><rect x="894" y="250" width="28" height="28" transform="rotate(0,908,264)"/><path d="M 950 250v 28h 28v -14a 14 14, 0, 0, 0, -14 -14" transform="rotate(-90,964,264)"/><path d="M 978 250v 28h 14a 14 14, 0, 0, 0, 0 -28" transform="rotate(0,992,264)"/><path d="M 1034 250v 28h 28v -14a 14 14, 0, 0, 0, -14 -14" transform="rotate(-90,1048,264)"/><path d="M 1062 250v 28h 14a 14 14, 0, 0, 0, 0 -28" transform="rotate(0,1076,264)"/><circle cx="1132" cy="264" r="14" transform="rotate(0,1132,264)"/><path d="M 26 278v 28h 14a 14 14, 0, 0, 0, 0 -28" transform="rotate(180,40,292)"/><path d="M 54 278v 28h 28v -14a 14 14, 0, 0, 0, -14 -14" transform="rotate(90,68,292)"/><path d="M 110 278v 28h 14a 14 14, 0, 0, 0, 0 -28" transform="rotate(90,124,292)"/><path d="M 222 278v 28h 28v -14a 14 14, 0, 0, 0, -14 -14" transform="rotate(-90,236,292)"/><rect x="250" y="278" width="28" height="28" transform="rotate(0,264,292)"/><rect x="278" y="278" width="28" height="28" transform="rotate(0,292,292)"/><rect x="306" y="278" width="28" height="28" transform="rotate(0,320,292)"/><rect x="334" y="278" width="28" height="28" transform="rotate(0,348,292)"/><rect x="362" y="278" width="28" height="28" transform="rotate(0,376,292)"/><path d="M 670 278v 28h 28v -14a 14 14, 0, 0, 0, -14 -14" transform="rotate(-90,684,292)"/><rect x="698" y="278" width="28" height="28" transform="rotate(0,712,292)"/><path d="M 754 278v 28h 28v -14a 14 14, 0, 0, 0, -14 -14" transform="rotate(180,768,292)"/><rect x="782" y="278" width="28" height="28" transform="rotate(0,796,292)"/><path d="M 894 278v 28h 14a 14 14, 0, 0, 0, 0 -28" transform="rotate(90,908,292)"/><path d="M 950 278v 28h 14a 14 14, 0, 0, 0, 0 -28" transform="rotate(90,964,292)"/><path d="M 1006 278v 28h 28v -14a 14 14, 0, 0, 0, -14 -14" transform="rotate(-90,1020,292)"/><rect x="1034" y="278" width="28" height="28" transform="rotate(0,1048,292)"/><path d="M 138 306v 28h 14a 14 14, 0, 0, 0, 0 -28" transform="rotate(180,152,320)"/><rect x="166" y="306" width="28" height="28" transform="rotate(0,180,320)"/><rect x="194" y="306" width="28" height="28" transform="rotate(0,208,320)"/><rect x="222" y="306" width="28" height="28" transform="rotate(0,236,320)"/><rect x="250" y="306" width="28" height="28" transform="rotate(0,264,320)"/><rect x="278" y="306" width="28" height="28" transform="rotate(0,292,320)"/><rect x="362" y="306" width="28" height="28" transform="rotate(0,376,320)"/><path d="M 418 306v 28h 28v -14a 14 14, 0, 0, 0, -14 -14" transform="rotate(-90,432,320)"/><path d="M 446 306v 28h 14a 14 14, 0, 0, 0, 0 -28" transform="rotate(0,460,320)"/><path d="M 502 306v 28h 14a 14 14, 0, 0, 0, 0 -28" transform="rotate(180,516,320)"/><path d="M 530 306v 28h 28v -14a 14 14, 0, 0, 0, -14 -14" transform="rotate(0,544,320)"/><path d="M 586 306v 28h 14a 14 14, 0, 0, 0, 0 -28" transform="rotate(-90,600,320)"/><path d="M 642 306v 28h 28v -14a 14 14, 0, 0, 0, -14 -14" transform="rotate(-90,656,320)"/><rect x="670" y="306" width="28" height="28" transform="rotate(0,684,320)"/><path d="M 698 306v 28h 28v -14a 14 14, 0, 0, 0, -14 -14" transform="rotate(90,712,320)"/><path d="M 782 306v 28h 28v -14a 14 14, 0, 0, 0, -14 -14" transform="rotate(180,796,320)"/><path d="M 810 306v 28h 14a 14 14, 0, 0, 0, 0 -28" transform="rotate(0,824,320)"/><path d="M 866 306v 28h 14a 14 14, 0, 0, 0, 0 -28" transform="rotate(-90,880,320)"/><path d="M 978 306v 28h 14a 14 14, 0, 0, 0, 0 -28" transform="rotate(180,992,320)"/><rect x="1006" y="306" width="28" height="28" transform="rotate(0,1020,320)"/><rect x="1034" y="306" width="28" height="28" transform="rotate(0,1048,320)"/><circle cx="1104" cy="320" r="14" transform="rotate(0,1104,320)"/><circle cx="96" cy="348" r="14" transform="rotate(0,96,348)"/><path d="M 250 334v 28h 28v -14a 14 14, 0, 0, 0, -14 -14" transform="rotate(180,264,348)"/><rect x="278" y="334" width="28" height="28" transform="rotate(0,292,348)"/><path d="M 306 334v 28h 28v -14a 14 14, 0, 0, 0, -14 -14" transform="rotate(0,320,348)"/><path d="M 362 334v 28h 28v -14a 14 14, 0, 0, 0, -14 -14" transform="rotate(180,376,348)"/><rect x="390" y="334" width="28" height="28" transform="rotate(0,404,348)"/><rect x="418" y="334" width="28" height="28" transform="rotate(0,432,348)"/><rect x="530" y="334" width="28" height="28" transform="rotate(0,544,348)"/><rect x="586" y="334" width="28" height="28" transform="rotate(0,600,348)"/><rect x="614" y="334" width="28" height="28" transform="rotate(0,628,348)"/><rect x="642" y="334" width="28" height="28" transform="rotate(0,656,348)"/><path d="M 838 334v 28h 14a 14 14, 0, 0, 0, 0 -28" transform="rotate(180,852,348)"/><rect x="866" y="334" width="28" height="28" transform="rotate(0,880,348)"/><rect x="894" y="334" width="28" height="28" transform="rotate(0,908,348)"/><rect x="922" y="334" width="28" height="28" transform="rotate(0,936,348)"/><path d="M 950 334v 28h 14a 14 14, 0, 0, 0, 0 -28" transform="rotate(0,964,348)"/><path d="M 1034 334v 28h 28v -14a 14 14, 0, 0, 0, -14 -14" transform="rotate(180,1048,348)"/><path d="M 1062 334v 28h 14a 14 14, 0, 0, 0, 0 -28" transform="rotate(0,1076,348)"/><circle cx="1132" cy="348" r="14" transform="rotate(0,1132,348)"/><path d="M 110 362v 28h 14a 14 14, 0, 0, 0, 0 -28" transform="rotate(180,124,376)"/><path d="M 138 362v 28h 28v -14a 14 14, 0, 0, 0, -14 -14" transform="rotate(0,152,376)"/><path d="M 194 362v 28h 14a 14 14, 0, 0, 0, 0 -28" transform="rotate(180,208,376)"/><path d="M 222 362v 28h 28v -14a 14 14, 0, 0, 0, -14 -14" transform="rotate(0,236,376)"/><rect x="306" y="362" width="28" height="28" transform="rotate(0,320,376)"/><path d="M 334 362v 28h 28v -14a 14 14, 0, 0, 0, -14 -14" transform="rotate(0,348,376)"/><rect x="418" y="362" width="28" height="28" transform="rotate(0,432,376)"/><rect x="446" y="362" width="28" height="28" transform="rotate(0,460,376)"/><rect x="474" y="362" width="28" height="28" transform="rotate(0,488,376)"/><rect x="502" y="362" width="28" height="28" transform="rotate(0,516,376)"/><rect x="530" y="362" width="28" height="28" transform="rotate(0,544,376)"/><rect x="586" y="362" width="28" height="28" transform="rotate(0,600,376)"/><path d="M 642 362v 28h 28v -14a 14 14, 0, 0, 0, -14 -14" transform="rotate(180,656,376)"/><rect x="670" y="362" width="28" height="28" transform="rotate(0,684,376)"/><path d="M 698 362v 28h 14a 14 14, 0, 0, 0, 0 -28" transform="rotate(0,712,376)"/><path d="M 754 362v 28h 28v -14a 14 14, 0, 0, 0, -14 -14" transform="rotate(-90,768,376)"/><rect x="782" y="362" width="28" height="28" transform="rotate(0,796,376)"/><path d="M 810 362v 28h 14a 14 14, 0, 0, 0, 0 -28" transform="rotate(0,824,376)"/><path d="M 922 362v 28h 14a 14 14, 0, 0, 0, 0 -28" transform="rotate(90,936,376)"/><path d="M 978 362v 28h 28v -14a 14 14, 0, 0, 0, -14 -14" transform="rotate(-90,992,376)"/><path d="M 1006 362v 28h 28v -14a 14 14, 0, 0, 0, -14 -14" transform="rotate(0,1020,376)"/><path d="M 54 390v 28h 14a 14 14, 0, 0, 0, 0 -28" transform="rotate(180,68,404)"/><path d="M 82 390v 28h 14a 14 14, 0, 0, 0, 0 -28" transform="rotate(0,96,404)"/><rect x="138" y="390" width="28" height="28" transform="rotate(0,152,404)"/><path d="M 166 390v 28h 14a 14 14, 0, 0, 0, 0 -28" transform="rotate(0,180,404)"/><rect x="222" y="390" width="28" height="28" transform="rotate(0,236,404)"/><path d="M 278 390v 28h 14a 14 14, 0, 0, 0, 0 -28" transform="rotate(180,292,404)"/><rect x="306" y="390" width="28" height="28" transform="rotate(0,320,404)"/><rect x="334" y="390" width="28" height="28" transform="rotate(0,348,404)"/><path d="M 362 390v 28h 14a 14 14, 0, 0, 0, 0 -28" transform="rotate(0,376,404)"/><path d="M 418 390v 28h 14a 14 14, 0, 0, 0, 0 -28" transform="rotate(90,432,404)"/><rect x="474" y="390" width="28" height="28" transform="rotate(0,488,404)"/><rect x="502" y="390" width="28" height="28" transform="rotate(0,516,404)"/><rect x="530" y="390" width="28" height="28" transform="rotate(0,544,404)"/><rect x="558" y="390" width="28" height="28" transform="rotate(0,572,404)"/><rect x="586" y="390" width="28" height="28" transform="rotate(0,600,404)"/><path d="M 614 390v 28h 28v -14a 14 14, 0, 0, 0, -14 -14" transform="rotate(0,628,404)"/><rect x="754" y="390" width="28" height="28" transform="rotate(0,768,404)"/><circle cx="852" cy="404" r="14" transform="rotate(0,852,404)"/><rect x="978" y="390" width="28" height="28" transform="rotate(0,992,404)"/><rect x="1006" y="390" width="28" height="28" transform="rotate(0,1020,404)"/><rect x="1034" y="390" width="28" height="28" transform="rotate(0,1048,404)"/><rect x="1062" y="390" width="28" height="28" transform="rotate(0,1076,404)"/><rect x="1090" y="390" width="28" height="28" transform="rotate(0,1104,404)"/><rect x="1118" y="390" width="28" height="28" transform="rotate(0,1132,404)"/><path d="M 1146 390v 28h 28v -14a 14 14, 0, 0, 0, -14 -14" transform="rotate(0,1160,404)"/><path d="M 26 418v 28h 14a 14 14, 0, 0, 0, 0 -28" transform="rotate(-90,40,432)"/><path d="M 110 418v 28h 28v -14a 14 14, 0, 0, 0, -14 -14" transform="rotate(-90,124,432)"/><rect x="138" y="418" width="28" height="28" transform="rotate(0,152,432)"/><path d="M 194 418v 28h 14a 14 14, 0, 0, 0, 0 -28" transform="rotate(180,208,432)"/><rect x="222" y="418" width="28" height="28" transform="rotate(0,236,432)"/><path d="M 446 418v 28h 14a 14 14, 0, 0, 0, 0 -28" transform="rotate(180,460,432)"/><rect x="474" y="418" width="28" height="28" transform="rotate(0,488,432)"/><path d="M 530 418v 28h 28v -14a 14 14, 0, 0, 0, -14 -14" transform="rotate(180,544,432)"/><path d="M 558 418v 28h 28v -14a 14 14, 0, 0, 0, -14 -14" transform="rotate(90,572,432)"/><rect x="614" y="418" width="28" height="28" transform="rotate(0,628,432)"/><path d="M 670 418v 28h 28v -14a 14 14, 0, 0, 0, -14 -14" transform="rotate(-90,684,432)"/><rect x="698" y="418" width="28" height="28" transform="rotate(0,712,432)"/><rect x="726" y="418" width="28" height="28" transform="rotate(0,740,432)"/><rect x="754" y="418" width="28" height="28" transform="rotate(0,768,432)"/><rect x="782" y="418" width="28" height="28" transform="rotate(0,796,432)"/><path d="M 810 418v 28h 14a 14 14, 0, 0, 0, 0 -28" transform="rotate(0,824,432)"/><circle cx="908" cy="432" r="14" transform="rotate(0,908,432)"/><path d="M 950 418v 28h 28v -14a 14 14, 0, 0, 0, -14 -14" transform="rotate(-90,964,432)"/><rect x="978" y="418" width="28" height="28" transform="rotate(0,992,432)"/><rect x="1006" y="418" width="28" height="28" transform="rotate(0,1020,432)"/><rect x="1090" y="418" width="28" height="28" transform="rotate(0,1104,432)"/><rect x="1146" y="418" width="28" height="28" transform="rotate(0,1160,432)"/><path d="M 26 446v 28h 28v -14a 14 14, 0, 0, 0, -14 -14" transform="rotate(180,40,460)"/><rect x="54" y="446" width="28" height="28" transform="rotate(0,68,460)"/><rect x="82" y="446" width="28" height="28" transform="rotate(0,96,460)"/><rect x="110" y="446" width="28" height="28" transform="rotate(0,124,460)"/><path d="M 138 446v 28h 28v -14a 14 14, 0, 0, 0, -14 -14" transform="rotate(90,152,460)"/><rect x="222" y="446" width="28" height="28" transform="rotate(0,236,460)"/><path d="M 250 446v 28h 14a 14 14, 0, 0, 0, 0 -28" transform="rotate(0,264,460)"/><path d="M 334 446v 28h 14a 14 14, 0, 0, 0, 0 -28" transform="rotate(180,348,460)"/><rect x="362" y="446" width="28" height="28" transform="rotate(0,376,460)"/><path d="M 390 446v 28h 28v -14a 14 14, 0, 0, 0, -14 -14" transform="rotate(0,404,460)"/><path d="M 474 446v 28h 14a 14 14, 0, 0, 0, 0 -28" transform="rotate(90,488,460)"/><rect x="614" y="446" width="28" height="28" transform="rotate(0,628,460)"/><rect x="642" y="446" width="28" height="28" transform="rotate(0,656,460)"/><path d="M 670 446v 28h 28v -14a 14 14, 0, 0, 0, -14 -14" transform="rotate(90,684,460)"/><rect x="950" y="446" width="28" height="28" transform="rotate(0,964,460)"/><path d="M 1006 446v 28h 14a 14 14, 0, 0, 0, 0 -28" transform="rotate(90,1020,460)"/><path d="M 1062 446v 28h 14a 14 14, 0, 0, 0, 0 -28" transform="rotate(180,1076,460)"/><rect x="1090" y="446" width="28" height="28" transform="rotate(0,1104,460)"/><rect x="1118" y="446" width="28" height="28" transform="rotate(0,1132,460)"/><rect x="1146" y="446" width="28" height="28" transform="rotate(0,1160,460)"/><path d="M 194 474v 28h 14a 14 14, 0, 0, 0, 0 -28" transform="rotate(180,208,488)"/><path d="M 222 474v 28h 28v -14a 14 14, 0, 0, 0, -14 -14" transform="rotate(90,236,488)"/><rect x="390" y="474" width="28" height="28" transform="rotate(0,404,488)"/><path d="M 530 474v 28h 14a 14 14, 0, 0, 0, 0 -28" transform="rotate(180,544,488)"/><path d="M 558 474v 28h 14a 14 14, 0, 0, 0, 0 -28" transform="rotate(0,572,488)"/><rect x="614" y="474" width="28" height="28" transform="rotate(0,628,488)"/><rect x="642" y="474" width="28" height="28" transform="rotate(0,656,488)"/><path d="M 698 474v 28h 14a 14 14, 0, 0, 0, 0 -28" transform="rotate(180,712,488)"/><path d="M 726 474v 28h 14a 14 14, 0, 0, 0, 0 -28" transform="rotate(0,740,488)"/><path d="M 782 474v 28h 28v -14a 14 14, 0, 0, 0, -14 -14" transform="rotate(-90,796,488)"/><path d="M 810 474v 28h 14a 14 14, 0, 0, 0, 0 -28" transform="rotate(0,824,488)"/><path d="M 894 474v 28h 28v -14a 14 14, 0, 0, 0, -14 -14" transform="rotate(-90,908,488)"/><rect x="922" y="474" width="28" height="28" transform="rotate(0,936,488)"/><rect x="950" y="474" width="28" height="28" transform="rotate(0,964,488)"/><path d="M 1146 474v 28h 14a 14 14, 0, 0, 0, 0 -28" transform="rotate(90,1160,488)"/><path d="M 82 502v 28h 28v -14a 14 14, 0, 0, 0, -14 -14" transform="rotate(-90,96,516)"/><rect x="110" y="502" width="28" height="28" transform="rotate(0,124,516)"/><rect x="138" y="502" width="28" height="28" transform="rotate(0,152,516)"/><path d="M 166 502v 28h 28v -14a 14 14, 0, 0, 0, -14 -14" transform="rotate(0,180,516)"/><circle cx="264" cy="516" r="14" transform="rotate(0,264,516)"/><path d="M 362 502v 28h 28v -14a 14 14, 0, 0, 0, -14 -14" transform="rotate(-90,376,516)"/><rect x="390" y="502" width="28" height="28" transform="rotate(0,404,516)"/><circle cx="460" cy="516" r="14" transform="rotate(0,460,516)"/><path d="M 586 502v 28h 14a 14 14, 0, 0, 0, 0 -28" transform="rotate(180,600,516)"/><rect x="614" y="502" width="28" height="28" transform="rotate(0,628,516)"/><rect x="642" y="502" width="28" height="28" transform="rotate(0,656,516)"/><rect x="782" y="502" width="28" height="28" transform="rotate(0,796,516)"/><rect x="894" y="502" width="28" height="28" transform="rotate(0,908,516)"/><rect x="922" y="502" width="28" height="28" transform="rotate(0,936,516)"/><rect x="950" y="502" width="28" height="28" transform="rotate(0,964,516)"/><path d="M 1034 502v 28h 28v -14a 14 14, 0, 0, 0, -14 -14" transform="rotate(-90,1048,516)"/><path d="M 1062 502v 28h 28v -14a 14 14, 0, 0, 0, -14 -14" transform="rotate(0,1076,516)"/><path d="M 26 530v 28h 28v -14a 14 14, 0, 0, 0, -14 -14" transform="rotate(-90,40,544)"/><rect x="54" y="530" width="28" height="28" transform="rotate(0,68,544)"/><rect x="82" y="530" width="28" height="28" transform="rotate(0,96,544)"/><path d="M 110 530v 28h 28v -14a 14 14, 0, 0, 0, -14 -14" transform="rotate(90,124,544)"/><rect x="166" y="530" width="28" height="28" transform="rotate(0,180,544)"/><path d="M 194 530v 28h 14a 14 14, 0, 0, 0, 0 -28" transform="rotate(0,208,544)"/><path d="M 278 530v 28h 28v -14a 14 14, 0, 0, 0, -14 -14" transform="rotate(-90,292,544)"/><path d="M 306 530v 28h 28v -14a 14 14, 0, 0, 0, -14 -14" transform="rotate(0,320,544)"/><rect x="362" y="530" width="28" height="28" transform="rotate(0,376,544)"/><rect x="390" y="530" width="28" height="28" transform="rotate(0,404,544)"/><path d="M 474 530v 28h 28v -14a 14 14, 0, 0, 0, -14 -14" transform="rotate(-90,488,544)"/><path d="M 502 530v 28h 28v -14a 14 14, 0, 0, 0, -14 -14" transform="rotate(0,516,544)"/><circle cx="572" cy="544" r="14" transform="rotate(0,572,544)"/><path d="M 642 530v 28h 28v -14a 14 14, 0, 0, 0, -14 -14" transform="rotate(180,656,544)"/><path d="M 670 530v 28h 14a 14 14, 0, 0, 0, 0 -28" transform="rotate(0,684,544)"/><path d="M 726 530v 28h 28v -14a 14 14, 0, 0, 0, -14 -14" transform="rotate(-90,740,544)"/><rect x="754" y="530" width="28" height="28" transform="rotate(0,768,544)"/><path d="M 782 530v 28h 28v -14a 14 14, 0, 0, 0, -14 -14" transform="rotate(90,796,544)"/><path d="M 838 530v 28h 14a 14 14, 0, 0, 0, 0 -28" transform="rotate(180,852,544)"/><rect x="866" y="530" width="28" height="28" transform="rotate(0,880,544)"/><rect x="894" y="530" width="28" height="28" transform="rotate(0,908,544)"/><rect x="950" y="530" width="28" height="28" transform="rotate(0,964,544)"/><path d="M 1006 530v 28h 14a 14 14, 0, 0, 0, 0 -28" transform="rotate(180,1020,544)"/><rect x="1034" y="530" width="28" height="28" transform="rotate(0,1048,544)"/><rect x="1062" y="530" width="28" height="28" transform="rotate(0,1076,544)"/><path d="M 1090 530v 28h 28v -14a 14 14, 0, 0, 0, -14 -14" transform="rotate(0,1104,544)"/><path d="M 1146 530v 28h 14a 14 14, 0, 0, 0, 0 -28" transform="rotate(-90,1160,544)"/><rect x="26" y="558" width="28" height="28" transform="rotate(0,40,572)"/><path d="M 166 558v 28h 14a 14 14, 0, 0, 0, 0 -28" transform="rotate(90,180,572)"/><circle cx="236" cy="572" r="14" transform="rotate(0,236,572)"/><rect x="278" y="558" width="28" height="28" transform="rotate(0,292,572)"/><rect x="306" y="558" width="28" height="28" transform="rotate(0,320,572)"/><rect x="362" y="558" width="28" height="28" transform="rotate(0,376,572)"/><rect x="390" y="558" width="28" height="28" transform="rotate(0,404,572)"/><path d="M 418 558v 28h 14a 14 14, 0, 0, 0, 0 -28" transform="rotate(0,432,572)"/><rect x="474" y="558" width="28" height="28" transform="rotate(0,488,572)"/><rect x="502" y="558" width="28" height="28" transform="rotate(0,516,572)"/><circle cx="628" cy="572" r="14" transform="rotate(0,628,572)"/><path d="M 698 558v 28h 14a 14 14, 0, 0, 0, 0 -28" transform="rotate(180,712,572)"/><rect x="726" y="558" width="28" height="28" transform="rotate(0,740,572)"/><circle cx="824" cy="572" r="14" transform="rotate(0,824,572)"/><path d="M 866 558v 28h 28v -14a 14 14, 0, 0, 0, -14 -14" transform="rotate(180,880,572)"/><rect x="894" y="558" width="28" height="28" transform="rotate(0,908,572)"/><rect x="922" y="558" width="28" height="28" transform="rotate(0,936,572)"/><path d="M 950 558v 28h 28v -14a 14 14, 0, 0, 0, -14 -14" transform="rotate(90,964,572)"/><path d="M 1034 558v 28h 14a 14 14, 0, 0, 0, 0 -28" transform="rotate(90,1048,572)"/><rect x="1090" y="558" width="28" height="28" transform="rotate(0,1104,572)"/><path d="M 1146 558v 28h 14a 14 14, 0, 0, 0, 0 -28" transform="rotate(90,1160,572)"/><path d="M 26 586v 28h 14a 14 14, 0, 0, 0, 0 -28" transform="rotate(90,40,600)"/><circle cx="152" cy="600" r="14" transform="rotate(0,152,600)"/><circle cx="208" cy="600" r="14" transform="rotate(0,208,600)"/><path d="M 250 586v 28h 28v -14a 14 14, 0, 0, 0, -14 -14" transform="rotate(-90,264,600)"/><rect x="278" y="586" width="28" height="28" transform="rotate(0,292,600)"/><rect x="306" y="586" width="28" height="28" transform="rotate(0,320,600)"/><path d="M 362 586v 28h 28v -14a 14 14, 0, 0, 0, -14 -14" transform="rotate(180,376,600)"/><path d="M 390 586v 28h 28v -14a 14 14, 0, 0, 0, -14 -14" transform="rotate(90,404,600)"/><path d="M 446 586v 28h 14a 14 14, 0, 0, 0, 0 -28" transform="rotate(180,460,600)"/><rect x="474" y="586" width="28" height="28" transform="rotate(0,488,600)"/><path d="M 502 586v 28h 28v -14a 14 14, 0, 0, 0, -14 -14" transform="rotate(90,516,600)"/><path d="M 586 586v 28h 14a 14 14, 0, 0, 0, 0 -28" transform="rotate(-90,600,600)"/><path d="M 726 586v 28h 14a 14 14, 0, 0, 0, 0 -28" transform="rotate(90,740,600)"/><path d="M 782 586v 28h 14a 14 14, 0, 0, 0, 0 -28" transform="rotate(-90,796,600)"/><circle cx="852" cy="600" r="14" transform="rotate(0,852,600)"/><circle cx="992" cy="600" r="14" transform="rotate(0,992,600)"/><path d="M 1062 586v 28h 28v -14a 14 14, 0, 0, 0, -14 -14" transform="rotate(-90,1076,600)"/><path d="M 1090 586v 28h 28v -14a 14 14, 0, 0, 0, -14 -14" transform="rotate(90,1104,600)"/><path d="M 54 614v 28h 14a 14 14, 0, 0, 0, 0 -28" transform="rotate(180,68,628)"/><path d="M 82 614v 28h 28v -14a 14 14, 0, 0, 0, -14 -14" transform="rotate(0,96,628)"/><path d="M 250 614v 28h 28v -14a 14 14, 0, 0, 0, -14 -14" transform="rotate(180,264,628)"/><rect x="278" y="614" width="28" height="28" transform="rotate(0,292,628)"/><rect x="306" y="614" width="28" height="28" transform="rotate(0,320,628)"/><rect x="474" y="614" width="28" height="28" transform="rotate(0,488,628)"/><path d="M 558 614v 28h 14a 14 14, 0, 0, 0, 0 -28" transform="rotate(180,572,628)"/><rect x="586" y="614" width="28" height="28" transform="rotate(0,600,628)"/><path d="M 614 614v 28h 28v -14a 14 14, 0, 0, 0, -14 -14" transform="rotate(0,628,628)"/><path d="M 670 614v 28h 14a 14 14, 0, 0, 0, 0 -28" transform="rotate(-90,684,628)"/><rect x="782" y="614" width="28" height="28" transform="rotate(0,796,628)"/><path d="M 866 614v 28h 14a 14 14, 0, 0, 0, 0 -28" transform="rotate(180,880,628)"/><path d="M 894 614v 28h 14a 14 14, 0, 0, 0, 0 -28" transform="rotate(0,908,628)"/><path d="M 1006 614v 28h 28v -14a 14 14, 0, 0, 0, -14 -14" transform="rotate(-90,1020,628)"/><rect x="1034" y="614" width="28" height="28" transform="rotate(0,1048,628)"/><path d="M 1062 614v 28h 28v -14a 14 14, 0, 0, 0, -14 -14" transform="rotate(90,1076,628)"/><path d="M 26 642v 28h 14a 14 14, 0, 0, 0, 0 -28" transform="rotate(-90,40,656)"/><rect x="82" y="642" width="28" height="28" transform="rotate(0,96,656)"/><path d="M 110 642v 28h 28v -14a 14 14, 0, 0, 0, -14 -14" transform="rotate(0,124,656)"/><path d="M 166 642v 28h 28v -14a 14 14, 0, 0, 0, -14 -14" transform="rotate(-90,180,656)"/><rect x="194" y="642" width="28" height="28" transform="rotate(0,208,656)"/><path d="M 222 642v 28h 14a 14 14, 0, 0, 0, 0 -28" transform="rotate(0,236,656)"/><rect x="306" y="642" width="28" height="28" transform="rotate(0,320,656)"/><path d="M 418 642v 28h 14a 14 14, 0, 0, 0, 0 -28" transform="rotate(-90,432,656)"/><rect x="474" y="642" width="28" height="28" transform="rotate(0,488,656)"/><path d="M 530 642v 28h 14a 14 14, 0, 0, 0, 0 -28" transform="rotate(-90,544,656)"/><rect x="586" y="642" width="28" height="28" transform="rotate(0,600,656)"/><rect x="614" y="642" width="28" height="28" transform="rotate(0,628,656)"/><rect x="642" y="642" width="28" height="28" transform="rotate(0,656,656)"/><path d="M 670 642v 28h 28v -14a 14 14, 0, 0, 0, -14 -14" transform="rotate(90,684,656)"/><path d="M 782 642v 28h 28v -14a 14 14, 0, 0, 0, -14 -14" transform="rotate(180,796,656)"/><rect x="810" y="642" width="28" height="28" transform="rotate(0,824,656)"/><path d="M 838 642v 28h 28v -14a 14 14, 0, 0, 0, -14 -14" transform="rotate(0,852,656)"/><circle cx="964" cy="656" r="14" transform="rotate(0,964,656)"/><rect x="1006" y="642" width="28" height="28" transform="rotate(0,1020,656)"/><path d="M 26 670v 28h 14a 14 14, 0, 0, 0, 0 -28" transform="rotate(90,40,684)"/><rect x="82" y="670" width="28" height="28" transform="rotate(0,96,684)"/><rect x="110" y="670" width="28" height="28" transform="rotate(0,124,684)"/><rect x="166" y="670" width="28" height="28" transform="rotate(0,180,684)"/><path d="M 278 670v 28h 14a 14 14, 0, 0, 0, 0 -28" transform="rotate(180,292,684)"/><rect x="306" y="670" width="28" height="28" transform="rotate(0,320,684)"/><rect x="334" y="670" width="28" height="28" transform="rotate(0,348,684)"/><rect x="362" y="670" width="28" height="28" transform="rotate(0,376,684)"/><rect x="390" y="670" width="28" height="28" transform="rotate(0,404,684)"/><path d="M 418 670v 28h 28v -14a 14 14, 0, 0, 0, -14 -14" transform="rotate(90,432,684)"/><path d="M 474 670v 28h 28v -14a 14 14, 0, 0, 0, -14 -14" transform="rotate(180,488,684)"/><rect x="502" y="670" width="28" height="28" transform="rotate(0,516,684)"/><rect x="530" y="670" width="28" height="28" transform="rotate(0,544,684)"/><rect x="558" y="670" width="28" height="28" transform="rotate(0,572,684)"/><rect x="586" y="670" width="28" height="28" transform="rotate(0,600,684)"/><rect x="614" y="670" width="28" height="28" transform="rotate(0,628,684)"/><circle cx="768" cy="684" r="14" transform="rotate(0,768,684)"/><path d="M 810 670v 28h 28v -14a 14 14, 0, 0, 0, -14 -14" transform="rotate(180,824,684)"/><path d="M 838 670v 28h 28v -14a 14 14, 0, 0, 0, -14 -14" transform="rotate(90,852,684)"/><path d="M 894 670v 28h 14a 14 14, 0, 0, 0, 0 -28" transform="rotate(-90,908,684)"/><path d="M 1006 670v 28h 28v -14a 14 14, 0, 0, 0, -14 -14" transform="rotate(180,1020,684)"/><path d="M 1034 670v 28h 14a 14 14, 0, 0, 0, 0 -28" transform="rotate(0,1048,684)"/><path d="M 1118 670v 28h 14a 14 14, 0, 0, 0, 0 -28" transform="rotate(180,1132,684)"/><path d="M 1146 670v 28h 28v -14a 14 14, 0, 0, 0, -14 -14" transform="rotate(0,1160,684)"/><path d="M 54 698v 28h 28v -14a 14 14, 0, 0, 0, -14 -14" transform="rotate(-90,68,712)"/><rect x="82" y="698" width="28" height="28" transform="rotate(0,96,712)"/><rect x="110" y="698" width="28" height="28" transform="rotate(0,124,712)"/><rect x="138" y="698" width="28" height="28" transform="rotate(0,152,712)"/><rect x="166" y="698" width="28" height="28" transform="rotate(0,180,712)"/><path d="M 194 698v 28h 14a 14 14, 0, 0, 0, 0 -28" transform="rotate(0,208,712)"/><path d="M 250 698v 28h 14a 14 14, 0, 0, 0, 0 -28" transform="rotate(-90,264,712)"/><rect x="362" y="698" width="28" height="28" transform="rotate(0,376,712)"/><rect x="390" y="698" width="28" height="28" transform="rotate(0,404,712)"/><path d="M 530 698v 28h 28v -14a 14 14, 0, 0, 0, -14 -14" transform="rotate(180,544,712)"/><path d="M 558 698v 28h 28v -14a 14 14, 0, 0, 0, -14 -14" transform="rotate(90,572,712)"/><path d="M 614 698v 28h 14a 14 14, 0, 0, 0, 0 -28" transform="rotate(90,628,712)"/><path d="M 782 698v 28h 14a 14 14, 0, 0, 0, 0 -28" transform="rotate(-90,796,712)"/><path d="M 894 698v 28h 28v -14a 14 14, 0, 0, 0, -14 -14" transform="rotate(180,908,712)"/><path d="M 922 698v 28h 28v -14a 14 14, 0, 0, 0, -14 -14" transform="rotate(0,936,712)"/><path d="M 978 698v 28h 14a 14 14, 0, 0, 0, 0 -28" transform="rotate(-90,992,712)"/><circle cx="1076" cy="712" r="14" transform="rotate(0,1076,712)"/><rect x="1146" y="698" width="28" height="28" transform="rotate(0,1160,712)"/><path d="M 26 726v 28h 14a 14 14, 0, 0, 0, 0 -28" transform="rotate(180,40,740)"/><rect x="54" y="726" width="28" height="28" transform="rotate(0,68,740)"/><rect x="82" y="726" width="28" height="28" transform="rotate(0,96,740)"/><path d="M 138 726v 28h 28v -14a 14 14, 0, 0, 0, -14 -14" transform="rotate(180,152,740)"/><path d="M 166 726v 28h 28v -14a 14 14, 0, 0, 0, -14 -14" transform="rotate(90,180,740)"/><path d="M 250 726v 28h 14a 14 14, 0, 0, 0, 0 -28" transform="rotate(90,264,740)"/><circle cx="320" cy="740" r="14" transform="rotate(0,320,740)"/><path d="M 362 726v 28h 28v -14a 14 14, 0, 0, 0, -14 -14" transform="rotate(180,376,740)"/><rect x="390" y="726" width="28" height="28" transform="rotate(0,404,740)"/><circle cx="488" cy="740" r="14" transform="rotate(0,488,740)"/><circle cx="600" cy="740" r="14" transform="rotate(0,600,740)"/><circle cx="684" cy="740" r="14" transform="rotate(0,684,740)"/><path d="M 754 726v 28h 28v -14a 14 14, 0, 0, 0, -14 -14" transform="rotate(-90,768,740)"/><rect x="782" y="726" width="28" height="28" transform="rotate(0,796,740)"/><path d="M 810 726v 28h 28v -14a 14 14, 0, 0, 0, -14 -14" transform="rotate(0,824,740)"/><circle cx="880" cy="740" r="14" transform="rotate(0,880,740)"/><rect x="922" y="726" width="28" height="28" transform="rotate(0,936,740)"/><rect x="978" y="726" width="28" height="28" transform="rotate(0,992,740)"/><rect x="1006" y="726" width="28" height="28" transform="rotate(0,1020,740)"/><path d="M 1034 726v 28h 28v -14a 14 14, 0, 0, 0, -14 -14" transform="rotate(0,1048,740)"/><circle cx="1104" cy="740" r="14" transform="rotate(0,1104,740)"/><rect x="1146" y="726" width="28" height="28" transform="rotate(0,1160,740)"/><path d="M 54 754v 28h 28v -14a 14 14, 0, 0, 0, -14 -14" transform="rotate(180,68,768)"/><rect x="82" y="754" width="28" height="28" transform="rotate(0,96,768)"/><path d="M 194 754v 28h 14a 14 14, 0, 0, 0, 0 -28" transform="rotate(180,208,768)"/><path d="M 222 754v 28h 28v -14a 14 14, 0, 0, 0, -14 -14" transform="rotate(0,236,768)"/><circle cx="348" cy="768" r="14" transform="rotate(0,348,768)"/><path d="M 390 754v 28h 14a 14 14, 0, 0, 0, 0 -28" transform="rotate(90,404,768)"/><path d="M 446 754v 28h 14a 14 14, 0, 0, 0, 0 -28" transform="rotate(-90,460,768)"/><path d="M 614 754v 28h 28v -14a 14 14, 0, 0, 0, -14 -14" transform="rotate(-90,628,768)"/><path d="M 642 754v 28h 14a 14 14, 0, 0, 0, 0 -28" transform="rotate(0,656,768)"/><path d="M 698 754v 28h 14a 14 14, 0, 0, 0, 0 -28" transform="rotate(180,712,768)"/><rect x="726" y="754" width="28" height="28" transform="rotate(0,740,768)"/><rect x="754" y="754" width="28" height="28" transform="rotate(0,768,768)"/><rect x="782" y="754" width="28" height="28" transform="rotate(0,796,768)"/><path d="M 810 754v 28h 28v -14a 14 14, 0, 0, 0, -14 -14" transform="rotate(90,824,768)"/><path d="M 894 754v 28h 28v -14a 14 14, 0, 0, 0, -14 -14" transform="rotate(-90,908,768)"/><rect x="922" y="754" width="28" height="28" transform="rotate(0,936,768)"/><rect x="950" y="754" width="28" height="28" transform="rotate(0,964,768)"/><rect x="978" y="754" width="28" height="28" transform="rotate(0,992,768)"/><rect x="1006" y="754" width="28" height="28" transform="rotate(0,1020,768)"/><rect x="1034" y="754" width="28" height="28" transform="rotate(0,1048,768)"/><path d="M 1062 754v 28h 28v -14a 14 14, 0, 0, 0, -14 -14" transform="rotate(0,1076,768)"/><path d="M 1146 754v 28h 14a 14 14, 0, 0, 0, 0 -28" transform="rotate(90,1160,768)"/><path d="M 82 782v 28h 28v -14a 14 14, 0, 0, 0, -14 -14" transform="rotate(180,96,796)"/><rect x="110" y="782" width="28" height="28" transform="rotate(0,124,796)"/><rect x="138" y="782" width="28" height="28" transform="rotate(0,152,796)"/><path d="M 166 782v 28h 14a 14 14, 0, 0, 0, 0 -28" transform="rotate(0,180,796)"/><path d="M 222 782v 28h 28v -14a 14 14, 0, 0, 0, -14 -14" transform="rotate(180,236,796)"/><rect x="250" y="782" width="28" height="28" transform="rotate(0,264,796)"/><rect x="278" y="782" width="28" height="28" transform="rotate(0,292,796)"/><path d="M 306 782v 28h 28v -14a 14 14, 0, 0, 0, -14 -14" transform="rotate(0,320,796)"/><path d="M 362 782v 28h 14a 14 14, 0, 0, 0, 0 -28" transform="rotate(-90,376,796)"/><rect x="446" y="782" width="28" height="28" transform="rotate(0,460,796)"/><path d="M 474 782v 28h 14a 14 14, 0, 0, 0, 0 -28" transform="rotate(0,488,796)"/><path d="M 558 782v 28h 28v -14a 14 14, 0, 0, 0, -14 -14" transform="rotate(-90,572,796)"/><rect x="586" y="782" width="28" height="28" transform="rotate(0,600,796)"/><path d="M 614 782v 28h 28v -14a 14 14, 0, 0, 0, -14 -14" transform="rotate(90,628,796)"/><path d="M 866 782v 28h 14a 14 14, 0, 0, 0, 0 -28" transform="rotate(180,880,796)"/><rect x="894" y="782" width="28" height="28" transform="rotate(0,908,796)"/><rect x="1006" y="782" width="28" height="28" transform="rotate(0,1020,796)"/><rect x="1062" y="782" width="28" height="28" transform="rotate(0,1076,796)"/><rect x="1090" y="782" width="28" height="28" transform="rotate(0,1104,796)"/><path d="M 1118 782v 28h 14a 14 14, 0, 0, 0, 0 -28" transform="rotate(0,1132,796)"/><path d="M 26 810v 28h 28v -14a 14 14, 0, 0, 0, -14 -14" transform="rotate(-90,40,824)"/><path d="M 54 810v 28h 14a 14 14, 0, 0, 0, 0 -28" transform="rotate(0,68,824)"/><path d="M 138 810v 28h 14a 14 14, 0, 0, 0, 0 -28" transform="rotate(90,152,824)"/><circle cx="208" cy="824" r="14" transform="rotate(0,208,824)"/><path d="M 250 810v 28h 14a 14 14, 0, 0, 0, 0 -28" transform="rotate(90,264,824)"/><path d="M 306 810v 28h 28v -14a 14 14, 0, 0, 0, -14 -14" transform="rotate(180,320,824)"/><rect x="334" y="810" width="28" height="28" transform="rotate(0,348,824)"/><rect x="362" y="810" width="28" height="28" transform="rotate(0,376,824)"/><path d="M 390 810v 28h 14a 14 14, 0, 0, 0, 0 -28" transform="rotate(0,404,824)"/><path d="M 446 810v 28h 14a 14 14, 0, 0, 0, 0 -28" transform="rotate(90,460,824)"/><circle cx="516" cy="824" r="14" transform="rotate(0,516,824)"/><rect x="558" y="810" width="28" height="28" transform="rotate(0,572,824)"/><path d="M 642 810v 28h 14a 14 14, 0, 0, 0, 0 -28" transform="rotate(-90,656,824)"/><circle cx="740" cy="824" r="14" transform="rotate(0,740,824)"/><path d="M 782 810v 28h 14a 14 14, 0, 0, 0, 0 -28" transform="rotate(-90,796,824)"/><rect x="894" y="810" width="28" height="28" transform="rotate(0,908,824)"/><path d="M 922 810v 28h 28v -14a 14 14, 0, 0, 0, -14 -14" transform="rotate(0,936,824)"/><rect x="1006" y="810" width="28" height="28" transform="rotate(0,1020,824)"/><rect x="1062" y="810" width="28" height="28" transform="rotate(0,1076,824)"/><rect x="26" y="838" width="28" height="28" transform="rotate(0,40,852)"/><path d="M 82 838v 28h 14a 14 14, 0, 0, 0, 0 -28" transform="rotate(-90,96,852)"/><circle cx="180" cy="852" r="14" transform="rotate(0,180,852)"/><path d="M 222 838v 28h 14a 14 14, 0, 0, 0, 0 -28" transform="rotate(-90,236,852)"/><path d="M 278 838v 28h 14a 14 14, 0, 0, 0, 0 -28" transform="rotate(-90,292,852)"/><path d="M 334 838v 28h 28v -14a 14 14, 0, 0, 0, -14 -14" transform="rotate(180,348,852)"/><rect x="362" y="838" width="28" height="28" transform="rotate(0,376,852)"/><path d="M 474 838v 28h 14a 14 14, 0, 0, 0, 0 -28" transform="rotate(-90,488,852)"/><rect x="558" y="838" width="28" height="28" transform="rotate(0,572,852)"/><rect x="586" y="838" width="28" height="28" transform="rotate(0,600,852)"/><rect x="614" y="838" width="28" height="28" transform="rotate(0,628,852)"/><rect x="642" y="838" width="28" height="28" transform="rotate(0,656,852)"/><rect x="670" y="838" width="28" height="28" transform="rotate(0,684,852)"/><path d="M 698 838v 28h 14a 14 14, 0, 0, 0, 0 -28" transform="rotate(0,712,852)"/><rect x="782" y="838" width="28" height="28" transform="rotate(0,796,852)"/><path d="M 866 838v 28h 28v -14a 14 14, 0, 0, 0, -14 -14" transform="rotate(-90,880,852)"/><rect x="894" y="838" width="28" height="28" transform="rotate(0,908,852)"/><rect x="922" y="838" width="28" height="28" transform="rotate(0,936,852)"/><path d="M 1006 838v 28h 28v -14a 14 14, 0, 0, 0, -14 -14" transform="rotate(180,1020,852)"/><rect x="1034" y="838" width="28" height="28" transform="rotate(0,1048,852)"/><rect x="1062" y="838" width="28" height="28" transform="rotate(0,1076,852)"/><path d="M 1090 838v 28h 14a 14 14, 0, 0, 0, 0 -28" transform="rotate(0,1104,852)"/><rect x="26" y="866" width="28" height="28" transform="rotate(0,40,880)"/><rect x="54" y="866" width="28" height="28" transform="rotate(0,68,880)"/><rect x="82" y="866" width="28" height="28" transform="rotate(0,96,880)"/><path d="M 138 866v 28h 14a 14 14, 0, 0, 0, 0 -28" transform="rotate(-90,152,880)"/><path d="M 194 866v 28h 14a 14 14, 0, 0, 0, 0 -28" transform="rotate(180,208,880)"/><rect x="222" y="866" width="28" height="28" transform="rotate(0,236,880)"/><rect x="278" y="866" width="28" height="28" transform="rotate(0,292,880)"/><path d="M 362 866v 28h 14a 14 14, 0, 0, 0, 0 -28" transform="rotate(90,376,880)"/><path d="M 446 866v 28h 28v -14a 14 14, 0, 0, 0, -14 -14" transform="rotate(-90,460,880)"/><rect x="474" y="866" width="28" height="28" transform="rotate(0,488,880)"/><path d="M 502 866v 28h 14a 14 14, 0, 0, 0, 0 -28" transform="rotate(0,516,880)"/><rect x="558" y="866" width="28" height="28" transform="rotate(0,572,880)"/><path d="M 614 866v 28h 14a 14 14, 0, 0, 0, 0 -28" transform="rotate(90,628,880)"/><path d="M 670 866v 28h 14a 14 14, 0, 0, 0, 0 -28" transform="rotate(90,684,880)"/><path d="M 726 866v 28h 14a 14 14, 0, 0, 0, 0 -28" transform="rotate(-90,740,880)"/><path d="M 782 866v 28h 14a 14 14, 0, 0, 0, 0 -28" transform="rotate(90,796,880)"/><path d="M 838 866v 28h 14a 14 14, 0, 0, 0, 0 -28" transform="rotate(180,852,880)"/><rect x="866" y="866" width="28" height="28" transform="rotate(0,880,880)"/><rect x="894" y="866" width="28" height="28" transform="rotate(0,908,880)"/><rect x="922" y="866" width="28" height="28" transform="rotate(0,936,880)"/><path d="M 950 866v 28h 14a 14 14, 0, 0, 0, 0 -28" transform="rotate(0,964,880)"/><path d="M 1034 866v 28h 14a 14 14, 0, 0, 0, 0 -28" transform="rotate(90,1048,880)"/><path d="M 1118 866v 28h 28v -14a 14 14, 0, 0, 0, -14 -14" transform="rotate(-90,1132,880)"/><path d="M 1146 866v 28h 28v -14a 14 14, 0, 0, 0, -14 -14" transform="rotate(0,1160,880)"/><rect x="26" y="894" width="28" height="28" transform="rotate(0,40,908)"/><rect x="54" y="894" width="28" height="28" transform="rotate(0,68,908)"/><path d="M 82 894v 28h 28v -14a 14 14, 0, 0, 0, -14 -14" transform="rotate(90,96,908)"/><path d="M 138 894v 28h 14a 14 14, 0, 0, 0, 0 -28" transform="rotate(90,152,908)"/><path d="M 222 894v 28h 28v -14a 14 14, 0, 0, 0, -14 -14" transform="rotate(180,236,908)"/><rect x="250" y="894" width="28" height="28" transform="rotate(0,264,908)"/><rect x="278" y="894" width="28" height="28" transform="rotate(0,292,908)"/><path d="M 306 894v 28h 28v -14a 14 14, 0, 0, 0, -14 -14" transform="rotate(0,320,908)"/><path d="M 390 894v 28h 28v -14a 14 14, 0, 0, 0, -14 -14" transform="rotate(-90,404,908)"/><rect x="418" y="894" width="28" height="28" transform="rotate(0,432,908)"/><rect x="446" y="894" width="28" height="28" transform="rotate(0,460,908)"/><path d="M 530 894v 28h 28v -14a 14 14, 0, 0, 0, -14 -14" transform="rotate(-90,544,908)"/><rect x="558" y="894" width="28" height="28" transform="rotate(0,572,908)"/><path d="M 586 894v 28h 14a 14 14, 0, 0, 0, 0 -28" transform="rotate(0,600,908)"/><path d="M 698 894v 28h 28v -14a 14 14, 0, 0, 0, -14 -14" transform="rotate(-90,712,908)"/><rect x="726" y="894" width="28" height="28" transform="rotate(0,740,908)"/><path d="M 754 894v 28h 28v -14a 14 14, 0, 0, 0, -14 -14" transform="rotate(0,768,908)"/><rect x="922" y="894" width="28" height="28" transform="rotate(0,936,908)"/><path d="M 978 894v 28h 28v -14a 14 14, 0, 0, 0, -14 -14" transform="rotate(-90,992,908)"/><path d="M 1006 894v 28h 28v -14a 14 14, 0, 0, 0, -14 -14" transform="rotate(0,1020,908)"/><path d="M 1090 894v 28h 28v -14a 14 14, 0, 0, 0, -14 -14" transform="rotate(-90,1104,908)"/><rect x="1118" y="894" width="28" height="28" transform="rotate(0,1132,908)"/><rect x="1146" y="894" width="28" height="28" transform="rotate(0,1160,908)"/><path d="M 26 922v 28h 28v -14a 14 14, 0, 0, 0, -14 -14" transform="rotate(180,40,936)"/><path d="M 54 922v 28h 28v -14a 14 14, 0, 0, 0, -14 -14" transform="rotate(90,68,936)"/><circle cx="208" cy="936" r="14" transform="rotate(0,208,936)"/><rect x="250" y="922" width="28" height="28" transform="rotate(0,264,936)"/><path d="M 306 922v 28h 28v -14a 14 14, 0, 0, 0, -14 -14" transform="rotate(180,320,936)"/><rect x="334" y="922" width="28" height="28" transform="rotate(0,348,936)"/><rect x="362" y="922" width="28" height="28" transform="rotate(0,376,936)"/><rect x="390" y="922" width="28" height="28" transform="rotate(0,404,936)"/><path d="M 446 922v 28h 28v -14a 14 14, 0, 0, 0, -14 -14" transform="rotate(180,460,936)"/><rect x="474" y="922" width="28" height="28" transform="rotate(0,488,936)"/><rect x="502" y="922" width="28" height="28" transform="rotate(0,516,936)"/><path d="M 530 922v 28h 28v -14a 14 14, 0, 0, 0, -14 -14" transform="rotate(90,544,936)"/><path d="M 614 922v 28h 14a 14 14, 0, 0, 0, 0 -28" transform="rotate(-90,628,936)"/><path d="M 698 922v 28h 14a 14 14, 0, 0, 0, 0 -28" transform="rotate(90,712,936)"/><path d="M 754 922v 28h 28v -14a 14 14, 0, 0, 0, -14 -14" transform="rotate(180,768,936)"/><path d="M 782 922v 28h 28v -14a 14 14, 0, 0, 0, -14 -14" transform="rotate(0,796,936)"/><circle cx="852" cy="936" r="14" transform="rotate(0,852,936)"/><path d="M 894 922v 28h 14a 14 14, 0, 0, 0, 0 -28" transform="rotate(180,908,936)"/><rect x="922" y="922" width="28" height="28" transform="rotate(0,936,936)"/><rect x="950" y="922" width="28" height="28" transform="rotate(0,964,936)"/><rect x="978" y="922" width="28" height="28" transform="rotate(0,992,936)"/><rect x="1006" y="922" width="28" height="28" transform="rotate(0,1020,936)"/><rect x="1034" y="922" width="28" height="28" transform="rotate(0,1048,936)"/><rect x="1062" y="922" width="28" height="28" transform="rotate(0,1076,936)"/><path d="M 1090 922v 28h 28v -14a 14 14, 0, 0, 0, -14 -14" transform="rotate(90,1104,936)"/><path d="M 1146 922v 28h 14a 14 14, 0, 0, 0, 0 -28" transform="rotate(90,1160,936)"/><path d="M 250 950v 28h 28v -14a 14 14, 0, 0, 0, -14 -14" transform="rotate(180,264,964)"/><path d="M 278 950v 28h 14a 14 14, 0, 0, 0, 0 -28" transform="rotate(0,292,964)"/><rect x="362" y="950" width="28" height="28" transform="rotate(0,376,964)"/><path d="M 390 950v 28h 28v -14a 14 14, 0, 0, 0, -14 -14" transform="rotate(90,404,964)"/><rect x="474" y="950" width="28" height="28" transform="rotate(0,488,964)"/><rect x="502" y="950" width="28" height="28" transform="rotate(0,516,964)"/><path d="M 558 950v 28h 14a 14 14, 0, 0, 0, 0 -28" transform="rotate(180,572,964)"/><rect x="586" y="950" width="28" height="28" transform="rotate(0,600,964)"/><rect x="614" y="950" width="28" height="28" transform="rotate(0,628,964)"/><rect x="642" y="950" width="28" height="28" transform="rotate(0,656,964)"/><path d="M 670 950v 28h 28v -14a 14 14, 0, 0, 0, -14 -14" transform="rotate(0,684,964)"/><path d="M 726 950v 28h 14a 14 14, 0, 0, 0, 0 -28" transform="rotate(-90,740,964)"/><rect x="782" y="950" width="28" height="28" transform="rotate(0,796,964)"/><circle cx="880" cy="964" r="14" transform="rotate(0,880,964)"/><rect x="922" y="950" width="28" height="28" transform="rotate(0,936,964)"/><rect x="1034" y="950" width="28" height="28" transform="rotate(0,1048,964)"/><rect x="1062" y="950" width="28" height="28" transform="rotate(0,1076,964)"/><circle cx="320" cy="992" r="14" transform="rotate(0,320,992)"/><rect x="362" y="978" width="28" height="28" transform="rotate(0,376,992)"/><path d="M 418 978v 28h 14a 14 14, 0, 0, 0, 0 -28" transform="rotate(180,432,992)"/><rect x="446" y="978" width="28" height="28" transform="rotate(0,460,992)"/><rect x="474" y="978" width="28" height="28" transform="rotate(0,488,992)"/><rect x="502" y="978" width="28" height="28" transform="rotate(0,516,992)"/><path d="M 670 978v 28h 28v -14a 14 14, 0, 0, 0, -14 -14" transform="rotate(180,684,992)"/><rect x="698" y="978" width="28" height="28" transform="rotate(0,712,992)"/><rect x="726" y="978" width="28" height="28" transform="rotate(0,740,992)"/><rect x="782" y="978" width="28" height="28" transform="rotate(0,796,992)"/><rect x="810" y="978" width="28" height="28" transform="rotate(0,824,992)"/><path d="M 838 978v 28h 28v -14a 14 14, 0, 0, 0, -14 -14" transform="rotate(0,852,992)"/><path d="M 894 978v 28h 28v -14a 14 14, 0, 0, 0, -14 -14" transform="rotate(-90,908,992)"/><rect x="922" y="978" width="28" height="28" transform="rotate(0,936,992)"/><circle cx="992" cy="992" r="14" transform="rotate(0,992,992)"/><rect x="1034" y="978" width="28" height="28" transform="rotate(0,1048,992)"/><path d="M 1062 978v 28h 28v -14a 14 14, 0, 0, 0, -14 -14" transform="rotate(90,1076,992)"/><path d="M 1118 978v 28h 14a 14 14, 0, 0, 0, 0 -28" transform="rotate(-90,1132,992)"/><path d="M 250 1006v 28h 14a 14 14, 0, 0, 0, 0 -28" transform="rotate(-90,264,1020)"/><path d="M 334 1006v 28h 14a 14 14, 0, 0, 0, 0 -28" transform="rotate(180,348,1020)"/><rect x="362" y="1006" width="28" height="28" transform="rotate(0,376,1020)"/><path d="M 502 1006v 28h 28v -14a 14 14, 0, 0, 0, -14 -14" transform="rotate(180,516,1020)"/><path d="M 530 1006v 28h 14a 14 14, 0, 0, 0, 0 -28" transform="rotate(0,544,1020)"/><circle cx="656" cy="1020" r="14" transform="rotate(0,656,1020)"/><rect x="698" y="1006" width="28" height="28" transform="rotate(0,712,1020)"/><rect x="726" y="1006" width="28" height="28" transform="rotate(0,740,1020)"/><path d="M 782 1006v 28h 14a 14 14, 0, 0, 0, 0 -28" transform="rotate(90,796,1020)"/><path d="M 838 1006v 28h 14a 14 14, 0, 0, 0, 0 -28" transform="rotate(90,852,1020)"/><rect x="894" y="1006" width="28" height="28" transform="rotate(0,908,1020)"/><rect x="922" y="1006" width="28" height="28" transform="rotate(0,936,1020)"/><rect x="1034" y="1006" width="28" height="28" transform="rotate(0,1048,1020)"/><rect x="1118" y="1006" width="28" height="28" transform="rotate(0,1132,1020)"/><path d="M 1146 1006v 28h 14a 14 14, 0, 0, 0, 0 -28" transform="rotate(0,1160,1020)"/><rect x="250" y="1034" width="28" height="28" transform="rotate(0,264,1048)"/><path d="M 362 1034v 28h 28v -14a 14 14, 0, 0, 0, -14 -14" transform="rotate(180,376,1048)"/><rect x="390" y="1034" width="28" height="28" transform="rotate(0,404,1048)"/><rect x="418" y="1034" width="28" height="28" transform="rotate(0,432,1048)"/><rect x="446" y="1034" width="28" height="28" transform="rotate(0,460,1048)"/><path d="M 474 1034v 28h 14a 14 14, 0, 0, 0, 0 -28" transform="rotate(0,488,1048)"/><path d="M 586 1034v 28h 14a 14 14, 0, 0, 0, 0 -28" transform="rotate(-90,600,1048)"/><path d="M 670 1034v 28h 28v -14a 14 14, 0, 0, 0, -14 -14" transform="rotate(-90,684,1048)"/><rect x="698" y="1034" width="28" height="28" transform="rotate(0,712,1048)"/><rect x="726" y="1034" width="28" height="28" transform="rotate(0,740,1048)"/><path d="M 810 1034v 28h 14a 14 14, 0, 0, 0, 0 -28" transform="rotate(-90,824,1048)"/><path d="M 894 1034v 28h 28v -14a 14 14, 0, 0, 0, -14 -14" transform="rotate(180,908,1048)"/><rect x="922" y="1034" width="28" height="28" transform="rotate(0,936,1048)"/><rect x="950" y="1034" width="28" height="28" transform="rotate(0,964,1048)"/><rect x="978" y="1034" width="28" height="28" transform="rotate(0,992,1048)"/><rect x="1006" y="1034" width="28" height="28" transform="rotate(0,1020,1048)"/><rect x="1034" y="1034" width="28" height="28" transform="rotate(0,1048,1048)"/><path d="M 1062 1034v 28h 14a 14 14, 0, 0, 0, 0 -28" transform="rotate(0,1076,1048)"/><path d="M 1118 1034v 28h 14a 14 14, 0, 0, 0, 0 -28" transform="rotate(90,1132,1048)"/><path d="M 250 1062v 28h 28v -14a 14 14, 0, 0, 0, -14 -14" transform="rotate(180,264,1076)"/><path d="M 278 1062v 28h 28v -14a 14 14, 0, 0, 0, -14 -14" transform="rotate(0,292,1076)"/><path d="M 334 1062v 28h 14a 14 14, 0, 0, 0, 0 -28" transform="rotate(-90,348,1076)"/><rect x="446" y="1062" width="28" height="28" transform="rotate(0,460,1076)"/><rect x="586" y="1062" width="28" height="28" transform="rotate(0,600,1076)"/><path d="M 670 1062v 28h 14a 14 14, 0, 0, 0, 0 -28" transform="rotate(90,684,1076)"/><path d="M 726 1062v 28h 28v -14a 14 14, 0, 0, 0, -14 -14" transform="rotate(180,740,1076)"/><rect x="754" y="1062" width="28" height="28" transform="rotate(0,768,1076)"/><rect x="782" y="1062" width="28" height="28" transform="rotate(0,796,1076)"/><rect x="810" y="1062" width="28" height="28" transform="rotate(0,824,1076)"/><rect x="838" y="1062" width="28" height="28" transform="rotate(0,852,1076)"/><path d="M 866 1062v 28h 14a 14 14, 0, 0, 0, 0 -28" transform="rotate(0,880,1076)"/><path d="M 922 1062v 28h 14a 14 14, 0, 0, 0, 0 -28" transform="rotate(90,936,1076)"/><rect x="1006" y="1062" width="28" height="28" transform="rotate(0,1020,1076)"/><path d="M 278 1090v 28h 28v -14a 14 14, 0, 0, 0, -14 -14" transform="rotate(180,292,1104)"/><rect x="306" y="1090" width="28" height="28" transform="rotate(0,320,1104)"/><rect x="334" y="1090" width="28" height="28" transform="rotate(0,348,1104)"/><rect x="362" y="1090" width="28" height="28" transform="rotate(0,376,1104)"/><rect x="390" y="1090" width="28" height="28" transform="rotate(0,404,1104)"/><rect x="418" y="1090" width="28" height="28" transform="rotate(0,432,1104)"/><rect x="446" y="1090" width="28" height="28" transform="rotate(0,460,1104)"/><path d="M 474 1090v 28h 28v -14a 14 14, 0, 0, 0, -14 -14" transform="rotate(0,488,1104)"/><path d="M 586 1090v 28h 14a 14 14, 0, 0, 0, 0 -28" transform="rotate(90,600,1104)"/><path d="M 642 1090v 28h 14a 14 14, 0, 0, 0, 0 -28" transform="rotate(-90,656,1104)"/><path d="M 698 1090v 28h 14a 14 14, 0, 0, 0, 0 -28" transform="rotate(-90,712,1104)"/><rect x="754" y="1090" width="28" height="28" transform="rotate(0,768,1104)"/><rect x="782" y="1090" width="28" height="28" transform="rotate(0,796,1104)"/><path d="M 894 1090v 28h 14a 14 14, 0, 0, 0, 0 -28" transform="rotate(-90,908,1104)"/><path d="M 950 1090v 28h 14a 14 14, 0, 0, 0, 0 -28" transform="rotate(-90,964,1104)"/><path d="M 1006 1090v 28h 28v -14a 14 14, 0, 0, 0, -14 -14" transform="rotate(180,1020,1104)"/><path d="M 1034 1090v 28h 28v -14a 14 14, 0, 0, 0, -14 -14" transform="rotate(0,1048,1104)"/><path d="M 1146 1090v 28h 14a 14 14, 0, 0, 0, 0 -28" transform="rotate(-90,1160,1104)"/><circle cx="264" cy="1132" r="14" transform="rotate(0,264,1132)"/><path d="M 446 1118v 28h 28v -14a 14 14, 0, 0, 0, -14 -14" transform="rotate(180,460,1132)"/><rect x="474" y="1118" width="28" height="28" transform="rotate(0,488,1132)"/><path d="M 642 1118v 28h 14a 14 14, 0, 0, 0, 0 -28" transform="rotate(90,656,1132)"/><rect x="698" y="1118" width="28" height="28" transform="rotate(0,712,1132)"/><path d="M 754 1118v 28h 28v -14a 14 14, 0, 0, 0, -14 -14" transform="rotate(180,768,1132)"/><rect x="782" y="1118" width="28" height="28" transform="rotate(0,796,1132)"/><path d="M 810 1118v 28h 28v -14a 14 14, 0, 0, 0, -14 -14" transform="rotate(0,824,1132)"/><path d="M 866 1118v 28h 14a 14 14, 0, 0, 0, 0 -28" transform="rotate(180,880,1132)"/><rect x="894" y="1118" width="28" height="28" transform="rotate(0,908,1132)"/><rect x="950" y="1118" width="28" height="28" transform="rotate(0,964,1132)"/><rect x="1034" y="1118" width="28" height="28" transform="rotate(0,1048,1132)"/><rect x="1062" y="1118" width="28" height="28" transform="rotate(0,1076,1132)"/><path d="M 1090 1118v 28h 14a 14 14, 0, 0, 0, 0 -28" transform="rotate(0,1104,1132)"/><path d="M 1146 1118v 28h 14a 14 14, 0, 0, 0, 0 -28" transform="rotate(90,1160,1132)"/><path d="M 278 1146v 28h 14a 14 14, 0, 0, 0, 0 -28" transform="rotate(180,292,1160)"/><path d="M 306 1146v 28h 14a 14 14, 0, 0, 0, 0 -28" transform="rotate(0,320,1160)"/><path d="M 362 1146v 28h 14a 14 14, 0, 0, 0, 0 -28" transform="rotate(180,376,1160)"/><path d="M 390 1146v 28h 14a 14 14, 0, 0, 0, 0 -28" transform="rotate(0,404,1160)"/><path d="M 474 1146v 28h 28v -14a 14 14, 0, 0, 0, -14 -14" transform="rotate(180,488,1160)"/><rect x="502" y="1146" width="28" height="28" transform="rotate(0,516,1160)"/><path d="M 530 1146v 28h 14a 14 14, 0, 0, 0, 0 -28" transform="rotate(0,544,1160)"/><path d="M 698 1146v 28h 28v -14a 14 14, 0, 0, 0, -14 -14" transform="rotate(180,712,1160)"/><path d="M 726 1146v 28h 14a 14 14, 0, 0, 0, 0 -28" transform="rotate(0,740,1160)"/><path d="M 782 1146v 28h 28v -14a 14 14, 0, 0, 0, -14 -14" transform="rotate(180,796,1160)"/><path d="M 810 1146v 28h 28v -14a 14 14, 0, 0, 0, -14 -14" transform="rotate(90,824,1160)"/><path d="M 894 1146v 28h 28v -14a 14 14, 0, 0, 0, -14 -14" transform="rotate(180,908,1160)"/><rect x="922" y="1146" width="28" height="28" transform="rotate(0,936,1160)"/><rect x="950" y="1146" width="28" height="28" transform="rotate(0,964,1160)"/><path d="M 978 1146v 28h 14a 14 14, 0, 0, 0, 0 -28" transform="rotate(0,992,1160)"/><path d="M 1034 1146v 28h 14a 14 14, 0, 0, 0, 0 -28" transform="rotate(90,1048,1160)"/></clipPath><clipPath id="clip-path-corners-square-color-0-0-328"><path clip-rule="evenodd" d="M 26 96v 56a 70 70, 0, 0, 0, 70 70h 56a 70 70, 0, 0, 0, 70 -70v -56a 70 70, 0, 0, 0, -70 -70h -56a 70 70, 0, 0, 0, -70 70M 96 54h 56a 42 42, 0, 0, 1, 42 42v 56a 42 42, 0, 0, 1, -42 42h -56a 42 42, 0, 0, 1, -42 -42v -56a 42 42, 0, 0, 1, 42 -42" transform="rotate(0,124,124)"/></clipPath><clipPath id="clip-path-corners-dot-color-0-0-328"><circle cx="124" cy="124" r="42" transform="rotate(0,124,124)"/></clipPath><clipPath id="clip-path-corners-square-color-1-0-328"><path clip-rule="evenodd" d="M 978 96v 56a 70 70, 0, 0, 0, 70 70h 56a 70 70, 0, 0, 0, 70 -70v -56a 70 70, 0, 0, 0, -70 -70h -56a 70 70, 0, 0, 0, -70 70M 1048 54h 56a 42 42, 0, 0, 1, 42 42v 56a 42 42, 0, 0, 1, -42 42h -56a 42 42, 0, 0, 1, -42 -42v -56a 42 42, 0, 0, 1, 42 -42" transform="rotate(90,1076,124)"/></clipPath><clipPath id="clip-path-corners-dot-color-1-0-328"><circle cx="1076" cy="124" r="42" transform="rotate(90,1076,124)"/></clipPath><clipPath id="clip-path-corners-square-color-0-1-328"><path clip-rule="evenodd" d="M 26 1048v 56a 70 70, 0, 0, 0, 70 70h 56a 70 70, 0, 0, 0, 70 -70v -56a 70 70, 0, 0, 0, -70 -70h -56a 70 70, 0, 0, 0, -70 70M 96 1006h 56a 42 42, 0, 0, 1, 42 42v 56a 42 42, 0, 0, 1, -42 42h -56a 42 42, 0, 0, 1, -42 -42v -56a 42 42, 0, 0, 1, 42 -42" transform="rotate(-90,124,1076)"/></clipPath><clipPath id="clip-path-corners-dot-color-0-1-328"><circle cx="124" cy="1076" r="42" transform="rotate(-90,124,1076)"/></clipPath></defs><rect x="0" y="0" height="1200" width="1200" clip-path="url('#clip-path-background-color-328')" fill="#ffffff"/><rect x="0" y="0" height="1200" width="1200" clip-path="url('#clip-path-dot-color-328')" fill="#000000"/><rect x="26" y="26" height="196" width="196" clip-path="url('#clip-path-corners-square-color-0-0-328')" fill="#000000"/><rect x="82" y="82" height="84" width="84" clip-path="url('#clip-path-corners-dot-color-0-0-328')" fill="#000000"/><rect x="978" y="26" height="196" width="196" clip-path="url('#clip-path-corners-square-color-1-0-328')" fill="#000000"/><rect x="1034" y="82" height="84" width="84" clip-path="url('#clip-path-corners-dot-color-1-0-328')" fill="#000000"/><rect x="26" y="978" height="196" width="196" clip-path="url('#clip-path-corners-square-color-0-1-328')" fill="#000000"/><rect x="82" y="1034" height="84" width="84" clip-path="url('#clip-path-corners-dot-color-0-1-328')" fill="#000000"/></svg>