<?xml version="1.0" standalone="no"?>
<svg xmlns="http://www.w3.org/2000/svg" width="1200" height="1200" xmlns:xlink="http://www.w3.org/1999/xlink" viewBox="0 0 1200 1200"><defs><clipPath id="clip-path-background-color-383"><rect x="0" y="0" width="1200" height="1200"/></clipPath><clipPath id="clip-path-dot-color-383"><path d="M 306 26v 28h 28v -14a 14 14, 0, 0, 0, -14 -14" transform="rotate(-90,320,40)"/><path d="M 334 26v 28h 28v -14a 14 14, 0, 0, 0, -14 -14" transform="rotate(0,348,40)"/><path d="M 390 26v 28h 14a 14 14, 0, 0, 0, 0 -28" transform="rotate(-90,404,40)"/><circle cx="572" cy="40" r="14" transform="rotate(0,572,40)"/><path d="M 614 26v 28h 14a 14 14, 0, 0, 0, 0 -28" transform="rotate(180,628,40)"/><path d="M 642 26v 28h 14a 14 14, 0, 0, 0, 0 -28" transform="rotate(0,656,40)"/><circle cx="768" cy="40" r="14" transform="rotate(0,768,40)"/><path d="M 838 26v 28h 14a 14 14, 0, 0, 0, 0 -28" transform="rotate(180,852,40)"/><path d="M 866 26v 28h 14a 14 14, 0, 0, 0, 0 -28" transform="rotate(0,880,40)"/><path d="M 250 54v 28h 14a 14 14, 0, 0, 0, 0 -28" transform="rotate(180,264,68)"/><rect x="278" y="54" width="28" height="28" transform="rotate(0,292,68)"/><rect x="306" y="54" width="28" height="28" transform="rotate(0,320,68)"/><rect x="334" y="54" width="28" height="28" transform="rotate(0,348,68)"/><rect x="390" y="54" width="28" height="28" transform="rotate(0,404,68)"/><path d="M 446 54v 28h 28v -14a 14 14, 0, 0, 0, -14 -14" transform="rotate(-90,460,68)"/><rect x="474" y="54" width="28" height="28" transform="rotate(0,488,68)"/><path d="M 502 54v 28h 14a 14 14, 0, 0, 0, 0 -28" transform="rotate(0,516,68)"/><path d="M 586 54v 28h 14a 14 14, 0, 0, 0, 0 -28" transform="rotate(-90,600,68)"/><path d="M 810 54v 28h 14a 14 14, 0, 0, 0, 0 -28" transform="rotate(-90,824,68)"/><circle cx="908" cy="68" r="14" transform="rotate(0,908,68)"/><rect x="334" y="82" width="28" height="28" transform="rotate(0,348,96)"/><rect x="362" y="82" width="28" height="28" transform="rotate(0,376,96)"/><rect x="390" y="82" width="28" height="28" transform="rotate(0,404,96)"/><rect x="418" y="82" width="28" height="28" transform="rotate(0,432,96)"/><rect x="446" y="82" width="28" height="28" transform="rotate(0,460,96)"/><path d="M 530 82v 28h 14a 14 14, 0, 0, 0, 0 -28" transform="rotate(180,544,96)"/><rect x="558" y="82" width="28" height="28" transform="rotate(0,572,96)"/><rect x="586" y="82" width="28" height="28" transform="rotate(0,600,96)"/><circle cx="656" cy="96" r="14" transform="rotate(0,656,96)"/><circle cx="712" cy="96" r="14" transform="rotate(0,712,96)"/><path d="M 782 82v 28h 28v -14a 14 14, 0, 0, 0, -14 -14" transform="rotate(-90,796,96)"/><rect x="810" y="82" width="28" height="28" transform="rotate(0,824,96)"/><path d="M 250 110v 28h 14a 14 14, 0, 0, 0, 0 -28" transform="rotate(-90,264,124)"/><path d="M 306 110v 28h 14a 14 14, 0, 0, 0, 0 -28" transform="rotate(180,320,124)"/><rect x="334" y="110" width="28" height="28" transform="rotate(0,348,124)"/><path d="M 390 110v 28h 14a 14 14, 0, 0, 0, 0 -28" transform="rotate(90,404,124)"/><rect x="446" y="110" width="28" height="28" transform="rotate(0,460,124)"/><rect x="558" y="110" width="28" height="28" transform="rotate(0,572,124)"/><path d="M 586 110v 28h 28v -14a 14 14, 0, 0, 0, -14 -14" transform="rotate(90,600,124)"/><path d="M 782 110v 28h 28v -14a 14 14, 0, 0, 0, -14 -14" transform="rotate(180,796,124)"/><rect x="810" y="110" width="28" height="28" transform="rotate(0,824,124)"/><path d="M 838 110v 28h 28v -14a 14 14, 0, 0, 0, -14 -14" transform="rotate(0,852,124)"/><path d="M 250 138v 28h 14a 14 14, 0, 0, 0, 0 -28" transform="rotate(90,264,152)"/><path d="M 334 138v 28h 28v -14a 14 14, 0, 0, 0, -14 -14" transform="rotate(180,348,152)"/><path d="M 362 138v 28h 28v -14a 14 14, 0, 0, 0, -14 -14" transform="rotate(0,376,152)"/><path d="M 446 138v 28h 28v -14a 14 14, 0, 0, 0, -14 -14" transform="rotate(180,460,152)"/><path d="M 474 138v 28h 14a 14 14, 0, 0, 0, 0 -28" transform="rotate(0,488,152)"/><path d="M 558 138v 28h 14a 14 14, 0, 0, 0, 0 -28" transform="rotate(90,572,152)"/><circle cx="768" cy="152" r="14" transform="rotate(0,768,152)"/><rect x="810" y="138" width="28" height="28" transform="rotate(0,824,152)"/><path d="M 838 138v 28h 28v -14a 14 14, 0, 0, 0, -14 -14" transform="rotate(90,852,152)"/><circle cx="908" cy="152" r="14" transform="rotate(0,908,152)"/><circle cx="292" cy="180" r="14" transform="rotate(0,292,180)"/><rect x="362" y="166" width="28" height="28" transform="rotate(0,376,180)"/><rect x="390" y="166" width="28" height="28" transform="rotate(0,404,180)"/><path d="M 418 166v 28h 28v -14a 14 14, 0, 0, 0, -14 -14" transform="rotate(0,432,180)"/><circle cx="516" cy="180" r="14" transform="rotate(0,516,180)"/><path d="M 586 166v 28h 28v -14a 14 14, 0, 0, 0, -14 -14" transform="rotate(-90,600,180)"/><path d="M 614 166v 28h 14a 14 14, 0, 0, 0, 0 -28" transform="rotate(0,628,180)"/><circle cx="684" cy="180" r="14" transform="rotate(0,684,180)"/><circle cx="740" cy="180" r="14" transform="rotate(0,740,180)"/><rect x="810" y="166" width="28" height="28" transform="rotate(0,824,180)"/><path d="M 866 166v 28h 14a 14 14, 0, 0, 0, 0 -28" transform="rotate(-90,880,180)"/><path d="M 922 166v 28h 14a 14 14, 0, 0, 0, 0 -28" transform="rotate(-90,936,180)"/><path d="M 250 194v 28h 14a 14 14, 0, 0, 0, 0 -28" transform="rotate(-90,264,208)"/><path d="M 306 194v 28h 14a 14 14, 0, 0, 0, 0 -28" transform="rotate(-90,320,208)"/><rect x="362" y="194" width="28" height="28" transform="rotate(0,376,208)"/><path d="M 418 194v 28h 14a 14 14, 0, 0, 0, 0 -28" transform="rotate(90,432,208)"/><circle cx="488" cy="208" r="14" transform="rotate(0,488,208)"/><circle cx="544" cy="208" r="14" transform="rotate(0,544,208)"/><rect x="586" y="194" width="28" height="28" transform="rotate(0,600,208)"/><path d="M 642 194v 28h 14a 14 14, 0, 0, 0, 0 -28" transform="rotate(-90,656,208)"/><circle cx="712" cy="208" r="14" transform="rotate(0,712,208)"/><path d="M 754 194v 28h 14a 14 14, 0, 0, 0, 0 -28" transform="rotate(-90,768,208)"/><path d="M 810 194v 28h 14a 14 14, 0, 0, 0, 0 -28" transform="rotate(90,824,208)"/><path d="M 866 194v 28h 14a 14 14, 0, 0, 0, 0 -28" transform="rotate(90,880,208)"/><path d="M 922 194v 28h 14a 14 14, 0, 0, 0, 0 -28" transform="rotate(90,936,208)"/><rect x="250" y="222" width="28" height="28" transform="rotate(0,264,236)"/><rect x="306" y="222" width="28" height="28" transform="rotate(0,320,236)"/><rect x="334" y="222" width="28" height="28" transform="rotate(0,348,236)"/><path d="M 362 222v 28h 28v -14a 14 14, 0, 0, 0, -14 -14" transform="rotate(90,376,236)"/><circle cx="516" cy="236" r="14" transform="rotate(0,516,236)"/><path d="M 558 222v 28h 14a 14 14, 0, 0, 0, 0 -28" transform="rotate(180,572,236)"/><rect x="586" y="222" width="28" height="28" transform="rotate(0,600,236)"/><rect x="614" y="222" width="28" height="28" transform="rotate(0,628,236)"/><rect x="642" y="222" width="28" height="28" transform="rotate(0,656,236)"/><path d="M 670 222v 28h 28v -14a 14 14, 0, 0, 0, -14 -14" transform="rotate(0,684,236)"/><path d="M 726 222v 28h 14a 14 14, 0, 0, 0, 0 -28" transform="rotate(180,740,236)"/><rect x="754" y="222" width="28" height="28" transform="rotate(0,768,236)"/><path d="M 782 222v 28h 28v -14a 14 14, 0, 0, 0, -14 -14" transform="rotate(0,796,236)"/><path d="M 894 222v 28h 14a 14 14, 0, 0, 0, 0 -28" transform="rotate(-90,908,236)"/><path d="M 54 250v 28h 14a 14 14, 0, 0, 0, 0 -28" transform="rotate(-90,68,264)"/><path d="M 110 250v 28h 28v -14a 14 14, 0, 0, 0, -14 -14" transform="rotate(-90,124,264)"/><rect x="138" y="250" width="28" height="28" transform="rotate(0,152,264)"/><rect x="166" y="250" width="28" height="28" transform="rotate(0,180,264)"/><path d="M 194 250v 28h 14a 14 14, 0, 0, 0, 0 -28" transform="rotate(0,208,264)"/><path d="M 250 250v 28h 28v -14a 14 14, 0, 0, 0, -14 -14" transform="rotate(180,264,264)"/><rect x="278" y="250" width="28" height="28" transform="rotate(0,292,264)"/><rect x="306" y="250" width="28" height="28" transform="rotate(0,320,264)"/><path d="M 390 250v 28h 28v -14a 14 14, 0, 0, 0, -14 -14" transform="rotate(-90,404,264)"/><rect x="418" y="250" width="28" height="28" transform="rotate(0,432,264)"/><rect x="446" y="250" width="28" height="28" transform="rotate(0,460,264)"/><path d="M 474 250v 28h 28v -14a 14 14, 0, 0, 0, -14 -14" transform="rotate(0,488,264)"/><path d="M 530 250v 28h 14a 14 14, 0, 0, 0, 0 -28" transform="rotate(-90,544,264)"/><path d="M 586 250v 28h 14a 14 14, 0, 0, 0, 0 -28" transform="rotate(90,600,264)"/><path d="M 670 250v 28h 14a 14 14, 0, 0, 0, 0 -28" transform="rotate(90,684,264)"/><rect x="754" y="250" width="28" height="28" transform="rotate(0,768,264)"/><rect x="782" y="250" width="28" height="28" transform="rotate(0,796,264)"/><circle cx="852" cy="264" r="14" transform="rotate(0,852,264)"/><rect x="894" y="250" width="28" height="28" transform="rotate(0,908,264)"/><path d="M 950 250v 28h 14a 14 14, 0, 0, 0, 0 -28" transform="rotate(180,964,264)"/><path d="M 978 250v 28h 14a 14 14, 0, 0, 0, 0 -28" transform="rotate(0,992,264)"/><path d="M 1034 250v 28h 28v -14a 14 14, 0, 0, 0, -14 -14" transform="rotate(-90,1048,264)"/><path d="M 1062 250v 28h 14a 14 14, 0, 0, 0, 0 -28" transform="rotate(0,1076,264)"/><path d="M 1118 250v 28h 14a 14 14, 0, 0, 0, 0 -28" transform="rotate(-90,1132,264)"/><path d="M 26 278v 28h 14a 14 14, 0, 0, 0, 0 -28" transform="rotate(180,40,292)"/><rect x="54" y="278" width="28" height="28" transform="rotate(0,68,292)"/><rect x="82" y="278" width="28" height="28" transform="rotate(0,96,292)"/><path d="M 110 278v 28h 28v -14a 14 14, 0, 0, 0, -14 -14" transform="rotate(90,124,292)"/><path d="M 166 278v 28h 14a 14 14, 0, 0, 0, 0 -28" transform="rotate(90,180,292)"/><circle cx="236" cy="292" r="14" transform="rotate(0,236,292)"/><rect x="306" y="278" width="28" height="28" transform="rotate(0,320,292)"/><path d="M 390 278v 28h 14a 14 14, 0, 0, 0, 0 -28" transform="rotate(90,404,292)"/><rect x="474" y="278" width="28" height="28" transform="rotate(0,488,292)"/><rect x="530" y="278" width="28" height="28" transform="rotate(0,544,292)"/><path d="M 558 278v 28h 28v -14a 14 14, 0, 0, 0, -14 -14" transform="rotate(0,572,292)"/><circle cx="656" cy="292" r="14" transform="rotate(0,656,292)"/><circle cx="712" cy="292" r="14" transform="rotate(0,712,292)"/><path d="M 754 278v 28h 28v -14a 14 14, 0, 0, 0, -14 -14" transform="rotate(180,768,292)"/><rect x="782" y="278" width="28" height="28" transform="rotate(0,796,292)"/><path d="M 894 278v 28h 14a 14 14, 0, 0, 0, 0 -28" transform="rotate(90,908,292)"/><path d="M 1006 278v 28h 14a 14 14, 0, 0, 0, 0 -28" transform="rotate(180,1020,292)"/><rect x="1034" y="278" width="28" height="28" transform="rotate(0,1048,292)"/><path d="M 1118 278v 28h 14a 14 14, 0, 0, 0, 0 -28" transform="rotate(90,1132,292)"/><circle cx="152" cy="320" r="14" transform="rotate(0,152,320)"/><circle cx="208" cy="320" r="14" transform="rotate(0,208,320)"/><path d="M 250 306v 28h 28v -14a 14 14, 0, 0, 0, -14 -14" transform="rotate(-90,264,320)"/><rect x="278" y="306" width="28" height="28" transform="rotate(0,292,320)"/><path d="M 306 306v 28h 28v -14a 14 14, 0, 0, 0, -14 -14" transform="rotate(90,320,320)"/><path d="M 362 306v 28h 14a 14 14, 0, 0, 0, 0 -28" transform="rotate(-90,376,320)"/><path d="M 474 306v 28h 14a 14 14, 0, 0, 0, 0 -28" transform="rotate(90,488,320)"/><path d="M 530 306v 28h 28v -14a 14 14, 0, 0, 0, -14 -14" transform="rotate(180,544,320)"/><path d="M 558 306v 28h 28v -14a 14 14, 0, 0, 0, -14 -14" transform="rotate(90,572,320)"/><circle cx="684" cy="320" r="14" transform="rotate(0,684,320)"/><path d="M 782 306v 28h 28v -14a 14 14, 0, 0, 0, -14 -14" transform="rotate(180,796,320)"/><path d="M 810 306v 28h 14a 14 14, 0, 0, 0, 0 -28" transform="rotate(0,824,320)"/><path d="M 866 306v 28h 14a 14 14, 0, 0, 0, 0 -28" transform="rotate(-90,880,320)"/><path d="M 978 306v 28h 14a 14 14, 0, 0, 0, 0 -28" transform="rotate(-90,992,320)"/><path d="M 1034 306v 28h 14a 14 14, 0, 0, 0, 0 -28" transform="rotate(90,1048,320)"/><circle cx="1104" cy="320" r="14" transform="rotate(0,1104,320)"/><path d="M 54 334v 28h 14a 14 14, 0, 0, 0, 0 -28" transform="rotate(180,68,348)"/><path d="M 82 334v 28h 14a 14 14, 0, 0, 0, 0 -28" transform="rotate(0,96,348)"/><path d="M 166 334v 28h 14a 14 14, 0, 0, 0, 0 -28" transform="rotate(-90,180,348)"/><path d="M 222 334v 28h 14a 14 14, 0, 0, 0, 0 -28" transform="rotate(180,236,348)"/><rect x="250" y="334" width="28" height="28" transform="rotate(0,264,348)"/><rect x="362" y="334" width="28" height="28" transform="rotate(0,376,348)"/><circle cx="460" cy="348" r="14" transform="rotate(0,460,348)"/><path d="M 502 334v 28h 14a 14 14, 0, 0, 0, 0 -28" transform="rotate(-90,516,348)"/><path d="M 586 334v 28h 14a 14 14, 0, 0, 0, 0 -28" transform="rotate(-90,600,348)"/><path d="M 642 334v 28h 14a 14 14, 0, 0, 0, 0 -28" transform="rotate(-90,656,348)"/><path d="M 838 334v 28h 14a 14 14, 0, 0, 0, 0 -28" transform="rotate(180,852,348)"/><rect x="866" y="334" width="28" height="28" transform="rotate(0,880,348)"/><rect x="894" y="334" width="28" height="28" transform="rotate(0,908,348)"/><rect x="922" y="334" width="28" height="28" transform="rotate(0,936,348)"/><rect x="950" y="334" width="28" height="28" transform="rotate(0,964,348)"/><rect x="978" y="334" width="28" height="28" transform="rotate(0,992,348)"/><circle cx="1076" cy="348" r="14" transform="rotate(0,1076,348)"/><circle cx="1132" cy="348" r="14" transform="rotate(0,1132,348)"/><path d="M 110 362v 28h 14a 14 14, 0, 0, 0, 0 -28" transform="rotate(-90,124,376)"/><rect x="166" y="362" width="28" height="28" transform="rotate(0,180,376)"/><path d="M 194 362v 28h 14a 14 14, 0, 0, 0, 0 -28" transform="rotate(0,208,376)"/><rect x="250" y="362" width="28" height="28" transform="rotate(0,264,376)"/><path d="M 306 362v 28h 14a 14 14, 0, 0, 0, 0 -28" transform="rotate(180,320,376)"/><rect x="334" y="362" width="28" height="28" transform="rotate(0,348,376)"/><rect x="362" y="362" width="28" height="28" transform="rotate(0,376,376)"/><rect x="390" y="362" width="28" height="28" transform="rotate(0,404,376)"/><path d="M 418 362v 28h 28v -14a 14 14, 0, 0, 0, -14 -14" transform="rotate(0,432,376)"/><path d="M 474 362v 28h 28v -14a 14 14, 0, 0, 0, -14 -14" transform="rotate(-90,488,376)"/><rect x="502" y="362" width="28" height="28" transform="rotate(0,516,376)"/><rect x="530" y="362" width="28" height="28" transform="rotate(0,544,376)"/><rect x="558" y="362" width="28" height="28" transform="rotate(0,572,376)"/><rect x="586" y="362" width="28" height="28" transform="rotate(0,600,376)"/><rect x="614" y="362" width="28" height="28" transform="rotate(0,628,376)"/><rect x="642" y="362" width="28" height="28" transform="rotate(0,656,376)"/><circle cx="712" cy="376" r="14" transform="rotate(0,712,376)"/><path d="M 754 362v 28h 28v -14a 14 14, 0, 0, 0, -14 -14" transform="rotate(-90,768,376)"/><path d="M 782 362v 28h 14a 14 14, 0, 0, 0, 0 -28" transform="rotate(0,796,376)"/><rect x="978" y="362" width="28" height="28" transform="rotate(0,992,376)"/><path d="M 1006 362v 28h 28v -14a 14 14, 0, 0, 0, -14 -14" transform="rotate(0,1020,376)"/><path d="M 1146 362v 28h 14a 14 14, 0, 0, 0, 0 -28" transform="rotate(-90,1160,376)"/><path d="M 54 390v 28h 14a 14 14, 0, 0, 0, 0 -28" transform="rotate(180,68,404)"/><rect x="82" y="390" width="28" height="28" transform="rotate(0,96,404)"/><rect x="110" y="390" width="28" height="28" transform="rotate(0,124,404)"/><rect x="138" y="390" width="28" height="28" transform="rotate(0,152,404)"/><path d="M 166 390v 28h 28v -14a 14 14, 0, 0, 0, -14 -14" transform="rotate(90,180,404)"/><path d="M 250 390v 28h 28v -14a 14 14, 0, 0, 0, -14 -14" transform="rotate(180,264,404)"/><path d="M 278 390v 28h 28v -14a 14 14, 0, 0, 0, -14 -14" transform="rotate(0,292,404)"/><path d="M 334 390v 28h 14a 14 14, 0, 0, 0, 0 -28" transform="rotate(90,348,404)"/><path d="M 418 390v 28h 14a 14 14, 0, 0, 0, 0 -28" transform="rotate(90,432,404)"/><path d="M 474 390v 28h 28v -14a 14 14, 0, 0, 0, -14 -14" transform="rotate(180,488,404)"/><rect x="502" y="390" width="28" height="28" transform="rotate(0,516,404)"/><rect x="530" y="390" width="28" height="28" transform="rotate(0,544,404)"/><rect x="558" y="390" width="28" height="28" transform="rotate(0,572,404)"/><rect x="586" y="390" width="28" height="28" transform="rotate(0,600,404)"/><rect x="614" y="390" width="28" height="28" transform="rotate(0,628,404)"/><path d="M 642 390v 28h 28v -14a 14 14, 0, 0, 0, -14 -14" transform="rotate(90,656,404)"/><rect x="754" y="390" width="28" height="28" transform="rotate(0,768,404)"/><rect x="978" y="390" width="28" height="28" transform="rotate(0,992,404)"/><rect x="1006" y="390" width="28" height="28" transform="rotate(0,1020,404)"/><rect x="1034" y="390" width="28" height="28" transform="rotate(0,1048,404)"/><rect x="1062" y="390" width="28" height="28" transform="rotate(0,1076,404)"/><rect x="1090" y="390" width="28" height="28" transform="rotate(0,1104,404)"/><rect x="1118" y="390" width="28" height="28" transform="rotate(0,1132,404)"/><rect x="1146" y="390" width="28" height="28" transform="rotate(0,1160,404)"/><circle cx="40" cy="432" r="14" transform="rotate(0,40,432)"/><rect x="110" y="418" width="28" height="28" transform="rotate(0,124,432)"/><circle cx="208" cy="432" r="14" transform="rotate(0,208,432)"/><path d="M 278 418v 28h 28v -14a 14 14, 0, 0, 0, -14 -14" transform="rotate(180,292,432)"/><path d="M 306 418v 28h 14a 14 14, 0, 0, 0, 0 -28" transform="rotate(0,320,432)"/><path d="M 390 418v 28h 14a 14 14, 0, 0, 0, 0 -28" transform="rotate(-90,404,432)"/><rect x="502" y="418" width="28" height="28" transform="rotate(0,516,432)"/><rect x="586" y="418" width="28" height="28" transform="rotate(0,600,432)"/><path d="M 670 418v 28h 28v -14a 14 14, 0, 0, 0, -14 -14" transform="rotate(-90,684,432)"/><path d="M 698 418v 28h 14a 14 14, 0, 0, 0, 0 -28" transform="rotate(0,712,432)"/><rect x="754" y="418" width="28" height="28" transform="rotate(0,768,432)"/><path d="M 782 418v 28h 14a 14 14, 0, 0, 0, 0 -28" transform="rotate(0,796,432)"/><circle cx="908" cy="432" r="14" transform="rotate(0,908,432)"/><path d="M 950 418v 28h 28v -14a 14 14, 0, 0, 0, -14 -14" transform="rotate(-90,964,432)"/><rect x="978" y="418" width="28" height="28" transform="rotate(0,992,432)"/><rect x="1006" y="418" width="28" height="28" transform="rotate(0,1020,432)"/><rect x="1090" y="418" width="28" height="28" transform="rotate(0,1104,432)"/><rect x="1146" y="418" width="28" height="28" transform="rotate(0,1160,432)"/><path d="M 54 446v 28h 14a 14 14, 0, 0, 0, 0 -28" transform="rotate(180,68,460)"/><rect x="82" y="446" width="28" height="28" transform="rotate(0,96,460)"/><rect x="110" y="446" width="28" height="28" transform="rotate(0,124,460)"/><circle cx="264" cy="460" r="14" transform="rotate(0,264,460)"/><path d="M 362 446v 28h 14a 14 14, 0, 0, 0, 0 -28" transform="rotate(180,376,460)"/><rect x="390" y="446" width="28" height="28" transform="rotate(0,404,460)"/><path d="M 418 446v 28h 14a 14 14, 0, 0, 0, 0 -28" transform="rotate(0,432,460)"/><path d="M 474 446v 28h 14a 14 14, 0, 0, 0, 0 -28" transform="rotate(180,488,460)"/><rect x="502" y="446" width="28" height="28" transform="rotate(0,516,460)"/><rect x="530" y="446" width="28" height="28" transform="rotate(0,544,460)"/><rect x="558" y="446" width="28" height="28" transform="rotate(0,572,460)"/><rect x="586" y="446" width="28" height="28" transform="rotate(0,600,460)"/><rect x="614" y="446" width="28" height="28" transform="rotate(0,628,460)"/><rect x="642" y="446" width="28" height="28" transform="rotate(0,656,460)"/><path d="M 670 446v 28h 28v -14a 14 14, 0, 0, 0, -14 -14" transform="rotate(90,684,460)"/><path d="M 754 446v 28h 14a 14 14, 0, 0, 0, 0 -28" transform="rotate(90,768,460)"/><circle cx="824" cy="460" r="14" transform="rotate(0,824,460)"/><rect x="950" y="446" width="28" height="28" transform="rotate(0,964,460)"/><path d="M 1006 446v 28h 14a 14 14, 0, 0, 0, 0 -28" transform="rotate(90,1020,460)"/><path d="M 1062 446v 28h 14a 14 14, 0, 0, 0, 0 -28" transform="rotate(180,1076,460)"/><rect x="1090" y="446" width="28" height="28" transform="rotate(0,1104,460)"/><rect x="1118" y="446" width="28" height="28" transform="rotate(0,1132,460)"/><path d="M 1146 446v 28h 28v -14a 14 14, 0, 0, 0, -14 -14" transform="rotate(90,1160,460)"/><path d="M 82 474v 28h 28v -14a 14 14, 0, 0, 0, -14 -14" transform="rotate(180,96,488)"/><path d="M 110 474v 28h 28v -14a 14 14, 0, 0, 0, -14 -14" transform="rotate(90,124,488)"/><path d="M 166 474v 28h 14a 14 14, 0, 0, 0, 0 -28" transform="rotate(180,180,488)"/><path d="M 194 474v 28h 14a 14 14, 0, 0, 0, 0 -28" transform="rotate(0,208,488)"/><circle cx="320" cy="488" r="14" transform="rotate(0,320,488)"/><circle cx="460" cy="488" r="14" transform="rotate(0,460,488)"/><path d="M 502 474v 28h 14a 14 14, 0, 0, 0, 0 -28" transform="rotate(90,516,488)"/><rect x="558" y="474" width="28" height="28" transform="rotate(0,572,488)"/><path d="M 698 474v 28h 14a 14 14, 0, 0, 0, 0 -28" transform="rotate(180,712,488)"/><path d="M 726 474v 28h 14a 14 14, 0, 0, 0, 0 -28" transform="rotate(0,740,488)"/><path d="M 782 474v 28h 14a 14 14, 0, 0, 0, 0 -28" transform="rotate(-90,796,488)"/><path d="M 894 474v 28h 14a 14 14, 0, 0, 0, 0 -28" transform="rotate(-90,908,488)"/><rect x="950" y="474" width="28" height="28" transform="rotate(0,964,488)"/><path d="M 54 502v 28h 14a 14 14, 0, 0, 0, 0 -28" transform="rotate(-90,68,516)"/><path d="M 390 502v 28h 14a 14 14, 0, 0, 0, 0 -28" transform="rotate(-90,404,516)"/><circle cx="488" cy="516" r="14" transform="rotate(0,488,516)"/><path d="M 530 502v 28h 14a 14 14, 0, 0, 0, 0 -28" transform="rotate(180,544,516)"/><path d="M 558 502v 28h 28v -14a 14 14, 0, 0, 0, -14 -14" transform="rotate(90,572,516)"/><path d="M 754 502v 28h 28v -14a 14 14, 0, 0, 0, -14 -14" transform="rotate(-90,768,516)"/><rect x="782" y="502" width="28" height="28" transform="rotate(0,796,516)"/><path d="M 866 502v 28h 28v -14a 14 14, 0, 0, 0, -14 -14" transform="rotate(-90,880,516)"/><rect x="894" y="502" width="28" height="28" transform="rotate(0,908,516)"/><rect x="922" y="502" width="28" height="28" transform="rotate(0,936,516)"/><rect x="950" y="502" width="28" height="28" transform="rotate(0,964,516)"/><path d="M 1034 502v 28h 28v -14a 14 14, 0, 0, 0, -14 -14" transform="rotate(-90,1048,516)"/><path d="M 1062 502v 28h 28v -14a 14 14, 0, 0, 0, -14 -14" transform="rotate(0,1076,516)"/><path d="M 26 530v 28h 28v -14a 14 14, 0, 0, 0, -14 -14" transform="rotate(-90,40,544)"/><rect x="54" y="530" width="28" height="28" transform="rotate(0,68,544)"/><path d="M 82 530v 28h 14a 14 14, 0, 0, 0, 0 -28" transform="rotate(0,96,544)"/><path d="M 138 530v 28h 14a 14 14, 0, 0, 0, 0 -28" transform="rotate(180,152,544)"/><rect x="166" y="530" width="28" height="28" transform="rotate(0,180,544)"/><rect x="194" y="530" width="28" height="28" transform="rotate(0,208,544)"/><rect x="222" y="530" width="28" height="28" transform="rotate(0,236,544)"/><rect x="250" y="530" width="28" height="28" transform="rotate(0,264,544)"/><path d="M 278 530v 28h 28v -14a 14 14, 0, 0, 0, -14 -14" transform="rotate(0,292,544)"/><path d="M 334 530v 28h 14a 14 14, 0, 0, 0, 0 -28" transform="rotate(-90,348,544)"/><path d="M 390 530v 28h 14a 14 14, 0, 0, 0, 0 -28" transform="rotate(90,404,544)"/><circle cx="516" cy="544" r="14" transform="rotate(0,516,544)"/><path d="M 586 530v 28h 14a 14 14, 0, 0, 0, 0 -28" transform="rotate(180,600,544)"/><path d="M 614 530v 28h 28v -14a 14 14, 0, 0, 0, -14 -14" transform="rotate(0,628,544)"/><path d="M 670 530v 28h 28v -14a 14 14, 0, 0, 0, -14 -14" transform="rotate(-90,684,544)"/><rect x="698" y="530" width="28" height="28" transform="rotate(0,712,544)"/><rect x="726" y="530" width="28" height="28" transform="rotate(0,740,544)"/><rect x="754" y="530" width="28" height="28" transform="rotate(0,768,544)"/><rect x="782" y="530" width="28" height="28" transform="rotate(0,796,544)"/><rect x="810" y="530" width="28" height="28" transform="rotate(0,824,544)"/><rect x="838" y="530" width="28" height="28" transform="rotate(0,852,544)"/><rect x="866" y="530" width="28" height="28" transform="rotate(0,880,544)"/><rect x="894" y="530" width="28" height="28" transform="rotate(0,908,544)"/><rect x="950" y="530" width="28" height="28" transform="rotate(0,964,544)"/><path d="M 1006 530v 28h 14a 14 14, 0, 0, 0, 0 -28" transform="rotate(180,1020,544)"/><rect x="1034" y="530" width="28" height="28" transform="rotate(0,1048,544)"/><rect x="1062" y="530" width="28" height="28" transform="rotate(0,1076,544)"/><path d="M 1090 530v 28h 28v -14a 14 14, 0, 0, 0, -14 -14" transform="rotate(0,1104,544)"/><path d="M 1146 530v 28h 14a 14 14, 0, 0, 0, 0 -28" transform="rotate(-90,1160,544)"/><path d="M 26 558v 28h 14a 14 14, 0, 0, 0, 0 -28" transform="rotate(90,40,572)"/><circle cx="124" cy="572" r="14" transform="rotate(0,124,572)"/><path d="M 166 558v 28h 14a 14 14, 0, 0, 0, 0 -28" transform="rotate(90,180,572)"/><path d="M 222 558v 28h 14a 14 14, 0, 0, 0, 0 -28" transform="rotate(90,236,572)"/><path d="M 278 558v 28h 28v -14a 14 14, 0, 0, 0, -14 -14" transform="rotate(180,292,572)"/><rect x="306" y="558" width="28" height="28" transform="rotate(0,320,572)"/><rect x="334" y="558" width="28" height="28" transform="rotate(0,348,572)"/><path d="M 362 558v 28h 14a 14 14, 0, 0, 0, 0 -28" transform="rotate(0,376,572)"/><path d="M 418 558v 28h 14a 14 14, 0, 0, 0, 0 -28" transform="rotate(180,432,572)"/><rect x="446" y="558" width="28" height="28" transform="rotate(0,460,572)"/><path d="M 474 558v 28h 14a 14 14, 0, 0, 0, 0 -28" transform="rotate(0,488,572)"/><circle cx="544" cy="572" r="14" transform="rotate(0,544,572)"/><path d="M 614 558v 28h 14a 14 14, 0, 0, 0, 0 -28" transform="rotate(90,628,572)"/><path d="M 670 558v 28h 14a 14 14, 0, 0, 0, 0 -28" transform="rotate(90,684,572)"/><rect x="726" y="558" width="28" height="28" transform="rotate(0,740,572)"/><rect x="782" y="558" width="28" height="28" transform="rotate(0,796,572)"/><path d="M 810 558v 28h 28v -14a 14 14, 0, 0, 0, -14 -14" transform="rotate(90,824,572)"/><path d="M 866 558v 28h 28v -14a 14 14, 0, 0, 0, -14 -14" transform="rotate(180,880,572)"/><rect x="894" y="558" width="28" height="28" transform="rotate(0,908,572)"/><rect x="922" y="558" width="28" height="28" transform="rotate(0,936,572)"/><path d="M 950 558v 28h 28v -14a 14 14, 0, 0, 0, -14 -14" transform="rotate(90,964,572)"/><path d="M 1034 558v 28h 14a 14 14, 0, 0, 0, 0 -28" transform="rotate(90,1048,572)"/><rect x="1090" y="558" width="28" height="28" transform="rotate(0,1104,572)"/><path d="M 1146 558v 28h 14a 14 14, 0, 0, 0, 0 -28" transform="rotate(90,1160,572)"/><path d="M 54 586v 28h 14a 14 14, 0, 0, 0, 0 -28" transform="rotate(-90,68,600)"/><circle cx="152" cy="600" r="14" transform="rotate(0,152,600)"/><circle cx="208" cy="600" r="14" transform="rotate(0,208,600)"/><path d="M 334 586v 28h 14a 14 14, 0, 0, 0, 0 -28" transform="rotate(90,348,600)"/><circle cx="404" cy="600" r="14" transform="rotate(0,404,600)"/><rect x="446" y="586" width="28" height="28" transform="rotate(0,460,600)"/><path d="M 586 586v 28h 14a 14 14, 0, 0, 0, 0 -28" transform="rotate(-90,600,600)"/><path d="M 642 586v 28h 14a 14 14, 0, 0, 0, 0 -28" transform="rotate(-90,656,600)"/><path d="M 698 586v 28h 14a 14 14, 0, 0, 0, 0 -28" transform="rotate(180,712,600)"/><path d="M 726 586v 28h 28v -14a 14 14, 0, 0, 0, -14 -14" transform="rotate(90,740,600)"/><rect x="782" y="586" width="28" height="28" transform="rotate(0,796,600)"/><circle cx="852" cy="600" r="14" transform="rotate(0,852,600)"/><circle cx="992" cy="600" r="14" transform="rotate(0,992,600)"/><rect x="1090" y="586" width="28" height="28" transform="rotate(0,1104,600)"/><path d="M 54 614v 28h 28v -14a 14 14, 0, 0, 0, -14 -14" transform="rotate(180,68,628)"/><path d="M 82 614v 28h 14a 14 14, 0, 0, 0, 0 -28" transform="rotate(0,96,628)"/><circle cx="236" cy="628" r="14" transform="rotate(0,236,628)"/><path d="M 278 614v 28h 14a 14 14, 0, 0, 0, 0 -28" transform="rotate(-90,292,628)"/><path d="M 446 614v 28h 28v -14a 14 14, 0, 0, 0, -14 -14" transform="rotate(180,460,628)"/><rect x="474" y="614" width="28" height="28" transform="rotate(0,488,628)"/><path d="M 502 614v 28h 28v -14a 14 14, 0, 0, 0, -14 -14" transform="rotate(0,516,628)"/><rect x="586" y="614" width="28" height="28" transform="rotate(0,600,628)"/><rect x="614" y="614" width="28" height="28" transform="rotate(0,628,628)"/><rect x="642" y="614" width="28" height="28" transform="rotate(0,656,628)"/><path d="M 670 614v 28h 28v -14a 14 14, 0, 0, 0, -14 -14" transform="rotate(0,684,628)"/><rect x="782" y="614" width="28" height="28" transform="rotate(0,796,628)"/><path d="M 866 614v 28h 14a 14 14, 0, 0, 0, 0 -28" transform="rotate(180,880,628)"/><path d="M 894 614v 28h 14a 14 14, 0, 0, 0, 0 -28" transform="rotate(0,908,628)"/><path d="M 1034 614v 28h 28v -14a 14 14, 0, 0, 0, -14 -14" transform="rotate(-90,1048,628)"/><rect x="1062" y="614" width="28" height="28" transform="rotate(0,1076,628)"/><rect x="1090" y="614" width="28" height="28" transform="rotate(0,1104,628)"/><path d="M 138 642v 28h 28v -14a 14 14, 0, 0, 0, -14 -14" transform="rotate(-90,152,656)"/><rect x="166" y="642" width="28" height="28" transform="rotate(0,180,656)"/><path d="M 194 642v 28h 14a 14 14, 0, 0, 0, 0 -28" transform="rotate(0,208,656)"/><path d="M 250 642v 28h 28v -14a 14 14, 0, 0, 0, -14 -14" transform="rotate(-90,264,656)"/><path d="M 278 642v 28h 28v -14a 14 14, 0, 0, 0, -14 -14" transform="rotate(90,292,656)"/><circle cx="376" cy="656" r="14" transform="rotate(0,376,656)"/><path d="M 418 642v 28h 14a 14 14, 0, 0, 0, 0 -28" transform="rotate(-90,432,656)"/><rect x="474" y="642" width="28" height="28" transform="rotate(0,488,656)"/><path d="M 502 642v 28h 28v -14a 14 14, 0, 0, 0, -14 -14" transform="rotate(90,516,656)"/><path d="M 586 642v 28h 14a 14 14, 0, 0, 0, 0 -28" transform="rotate(90,600,656)"/><rect x="642" y="642" width="28" height="28" transform="rotate(0,656,656)"/><rect x="670" y="642" width="28" height="28" transform="rotate(0,684,656)"/><path d="M 782 642v 28h 28v -14a 14 14, 0, 0, 0, -14 -14" transform="rotate(180,796,656)"/><rect x="810" y="642" width="28" height="28" transform="rotate(0,824,656)"/><path d="M 838 642v 28h 28v -14a 14 14, 0, 0, 0, -14 -14" transform="rotate(0,852,656)"/><path d="M 950 642v 28h 28v -14a 14 14, 0, 0, 0, -14 -14" transform="rotate(-90,964,656)"/><path d="M 978 642v 28h 14a 14 14, 0, 0, 0, 0 -28" transform="rotate(0,992,656)"/><rect x="1034" y="642" width="28" height="28" transform="rotate(0,1048,656)"/><rect x="1062" y="642" width="28" height="28" transform="rotate(0,1076,656)"/><path d="M 1090 642v 28h 28v -14a 14 14, 0, 0, 0, -14 -14" transform="rotate(90,1104,656)"/><path d="M 26 670v 28h 28v -14a 14 14, 0, 0, 0, -14 -14" transform="rotate(-90,40,684)"/><rect x="54" y="670" width="28" height="28" transform="rotate(0,68,684)"/><rect x="82" y="670" width="28" height="28" transform="rotate(0,96,684)"/><rect x="110" y="670" width="28" height="28" transform="rotate(0,124,684)"/><rect x="138" y="670" width="28" height="28" transform="rotate(0,152,684)"/><rect x="166" y="670" width="28" height="28" transform="rotate(0,180,684)"/><rect x="250" y="670" width="28" height="28" transform="rotate(0,264,684)"/><path d="M 306 670v 28h 14a 14 14, 0, 0, 0, 0 -28" transform="rotate(180,320,684)"/><path d="M 334 670v 28h 28v -14a 14 14, 0, 0, 0, -14 -14" transform="rotate(0,348,684)"/><rect x="418" y="670" width="28" height="28" transform="rotate(0,432,684)"/><rect x="446" y="670" width="28" height="28" transform="rotate(0,460,684)"/><path d="M 474 670v 28h 28v -14a 14 14, 0, 0, 0, -14 -14" transform="rotate(90,488,684)"/><circle cx="572" cy="684" r="14" transform="rotate(0,572,684)"/><rect x="642" y="670" width="28" height="28" transform="rotate(0,656,684)"/><rect x="670" y="670" width="28" height="28" transform="rotate(0,684,684)"/><circle cx="768" cy="684" r="14" transform="rotate(0,768,684)"/><path d="M 810 670v 28h 28v -14a 14 14, 0, 0, 0, -14 -14" transform="rotate(180,824,684)"/><path d="M 838 670v 28h 28v -14a 14 14, 0, 0, 0, -14 -14" transform="rotate(90,852,684)"/><path d="M 894 670v 28h 14a 14 14, 0, 0, 0, 0 -28" transform="rotate(-90,908,684)"/><path d="M 950 670v 28h 14a 14 14, 0, 0, 0, 0 -28" transform="rotate(90,964,684)"/><path d="M 1034 670v 28h 28v -14a 14 14, 0, 0, 0, -14 -14" transform="rotate(180,1048,684)"/><path d="M 1062 670v 28h 28v -14a 14 14, 0, 0, 0, -14 -14" transform="rotate(90,1076,684)"/><path d="M 1118 670v 28h 14a 14 14, 0, 0, 0, 0 -28" transform="rotate(-90,1132,684)"/><rect x="26" y="698" width="28" height="28" transform="rotate(0,40,712)"/><rect x="54" y="698" width="28" height="28" transform="rotate(0,68,712)"/><rect x="82" y="698" width="28" height="28" transform="rotate(0,96,712)"/><rect x="138" y="698" width="28" height="28" transform="rotate(0,152,712)"/><rect x="166" y="698" width="28" height="28" transform="rotate(0,180,712)"/><path d="M 194 698v 28h 14a 14 14, 0, 0, 0, 0 -28" transform="rotate(0,208,712)"/><rect x="250" y="698" width="28" height="28" transform="rotate(0,264,712)"/><rect x="334" y="698" width="28" height="28" transform="rotate(0,348,712)"/><path d="M 362 698v 28h 14a 14 14, 0, 0, 0, 0 -28" transform="rotate(0,376,712)"/><rect x="418" y="698" width="28" height="28" transform="rotate(0,432,712)"/><path d="M 502 698v 28h 14a 14 14, 0, 0, 0, 0 -28" transform="rotate(-90,516,712)"/><rect x="642" y="698" width="28" height="28" transform="rotate(0,656,712)"/><rect x="670" y="698" width="28" height="28" transform="rotate(0,684,712)"/><path d="M 782 698v 28h 14a 14 14, 0, 0, 0, 0 -28" transform="rotate(-90,796,712)"/><path d="M 894 698v 28h 28v -14a 14 14, 0, 0, 0, -14 -14" transform="rotate(180,908,712)"/><path d="M 922 698v 28h 28v -14a 14 14, 0, 0, 0, -14 -14" transform="rotate(0,936,712)"/><path d="M 978 698v 28h 28v -14a 14 14, 0, 0, 0, -14 -14" transform="rotate(-90,992,712)"/><path d="M 1006 698v 28h 14a 14 14, 0, 0, 0, 0 -28" transform="rotate(0,1020,712)"/><path d="M 1118 698v 28h 28v -14a 14 14, 0, 0, 0, -14 -14" transform="rotate(180,1132,712)"/><path d="M 1146 698v 28h 28v -14a 14 14, 0, 0, 0, -14 -14" transform="rotate(0,1160,712)"/><path d="M 26 726v 28h 14a 14 14, 0, 0, 0, 0 -28" transform="rotate(90,40,740)"/><rect x="82" y="726" width="28" height="28" transform="rotate(0,96,740)"/><path d="M 138 726v 28h 14a 14 14, 0, 0, 0, 0 -28" transform="rotate(90,152,740)"/><path d="M 222 726v 28h 14a 14 14, 0, 0, 0, 0 -28" transform="rotate(180,236,740)"/><rect x="250" y="726" width="28" height="28" transform="rotate(0,264,740)"/><path d="M 334 726v 28h 14a 14 14, 0, 0, 0, 0 -28" transform="rotate(90,348,740)"/><path d="M 390 726v 28h 14a 14 14, 0, 0, 0, 0 -28" transform="rotate(180,404,740)"/><path d="M 418 726v 28h 28v -14a 14 14, 0, 0, 0, -14 -14" transform="rotate(90,432,740)"/><path d="M 474 726v 28h 28v -14a 14 14, 0, 0, 0, -14 -14" transform="rotate(-90,488,740)"/><rect x="502" y="726" width="28" height="28" transform="rotate(0,516,740)"/><rect x="530" y="726" width="28" height="28" transform="rotate(0,544,740)"/><path d="M 558 726v 28h 14a 14 14, 0, 0, 0, 0 -28" transform="rotate(0,572,740)"/><path d="M 614 726v 28h 14a 14 14, 0, 0, 0, 0 -28" transform="rotate(180,628,740)"/><rect x="642" y="726" width="28" height="28" transform="rotate(0,656,740)"/><path d="M 670 726v 28h 28v -14a 14 14, 0, 0, 0, -14 -14" transform="rotate(90,684,740)"/><path d="M 754 726v 28h 28v -14a 14 14, 0, 0, 0, -14 -14" transform="rotate(-90,768,740)"/><rect x="782" y="726" width="28" height="28" transform="rotate(0,796,740)"/><path d="M 810 726v 28h 28v -14a 14 14, 0, 0, 0, -14 -14" transform="rotate(0,824,740)"/><circle cx="880" cy="740" r="14" transform="rotate(0,880,740)"/><rect x="922" y="726" width="28" height="28" transform="rotate(0,936,740)"/><rect x="978" y="726" width="28" height="28" transform="rotate(0,992,740)"/><path d="M 1034 726v 28h 14a 14 14, 0, 0, 0, 0 -28" transform="rotate(-90,1048,740)"/><circle cx="1104" cy="740" r="14" transform="rotate(0,1104,740)"/><rect x="1146" y="726" width="28" height="28" transform="rotate(0,1160,740)"/><path d="M 82 754v 28h 28v -14a 14 14, 0, 0, 0, -14 -14" transform="rotate(180,96,768)"/><path d="M 110 754v 28h 28v -14a 14 14, 0, 0, 0, -14 -14" transform="rotate(0,124,768)"/><circle cx="208" cy="768" r="14" transform="rotate(0,208,768)"/><path d="M 250 754v 28h 28v -14a 14 14, 0, 0, 0, -14 -14" transform="rotate(180,264,768)"/><path d="M 278 754v 28h 28v -14a 14 14, 0, 0, 0, -14 -14" transform="rotate(0,292,768)"/><path d="M 362 754v 28h 14a 14 14, 0, 0, 0, 0 -28" transform="rotate(-90,376,768)"/><path d="M 446 754v 28h 14a 14 14, 0, 0, 0, 0 -28" transform="rotate(180,460,768)"/><rect x="474" y="754" width="28" height="28" transform="rotate(0,488,768)"/><rect x="502" y="754" width="28" height="28" transform="rotate(0,516,768)"/><path d="M 530 754v 28h 28v -14a 14 14, 0, 0, 0, -14 -14" transform="rotate(90,544,768)"/><circle cx="600" cy="768" r="14" transform="rotate(0,600,768)"/><path d="M 698 754v 28h 14a 14 14, 0, 0, 0, 0 -28" transform="rotate(180,712,768)"/><rect x="726" y="754" width="28" height="28" transform="rotate(0,740,768)"/><rect x="754" y="754" width="28" height="28" transform="rotate(0,768,768)"/><rect x="782" y="754" width="28" height="28" transform="rotate(0,796,768)"/><path d="M 810 754v 28h 28v -14a 14 14, 0, 0, 0, -14 -14" transform="rotate(90,824,768)"/><path d="M 894 754v 28h 28v -14a 14 14, 0, 0, 0, -14 -14" transform="rotate(-90,908,768)"/><path d="M 922 754v 28h 28v -14a 14 14, 0, 0, 0, -14 -14" transform="rotate(90,936,768)"/><rect x="978" y="754" width="28" height="28" transform="rotate(0,992,768)"/><rect x="1006" y="754" width="28" height="28" transform="rotate(0,1020,768)"/><rect x="1034" y="754" width="28" height="28" transform="rotate(0,1048,768)"/><path d="M 1062 754v 28h 28v -14a 14 14, 0, 0, 0, -14 -14" transform="rotate(0,1076,768)"/><rect x="1146" y="754" width="28" height="28" transform="rotate(0,1160,768)"/><path d="M 26 782v 28h 14a 14 14, 0, 0, 0, 0 -28" transform="rotate(180,40,796)"/><path d="M 54 782v 28h 28v -14a 14 14, 0, 0, 0, -14 -14" transform="rotate(0,68,796)"/><rect x="110" y="782" width="28" height="28" transform="rotate(0,124,796)"/><rect x="138" y="782" width="28" height="28" transform="rotate(0,152,796)"/><path d="M 166 782v 28h 14a 14 14, 0, 0, 0, 0 -28" transform="rotate(0,180,796)"/><path d="M 278 782v 28h 28v -14a 14 14, 0, 0, 0, -14 -14" transform="rotate(180,292,796)"/><path d="M 306 782v 28h 28v -14a 14 14, 0, 0, 0, -14 -14" transform="rotate(0,320,796)"/><rect x="362" y="782" width="28" height="28" transform="rotate(0,376,796)"/><circle cx="432" cy="796" r="14" transform="rotate(0,432,796)"/><rect x="502" y="782" width="28" height="28" transform="rotate(0,516,796)"/><path d="M 558 782v 28h 14a 14 14, 0, 0, 0, 0 -28" transform="rotate(-90,572,796)"/><path d="M 866 782v 28h 14a 14 14, 0, 0, 0, 0 -28" transform="rotate(180,880,796)"/><rect x="894" y="782" width="28" height="28" transform="rotate(0,908,796)"/><path d="M 978 782v 28h 28v -14a 14 14, 0, 0, 0, -14 -14" transform="rotate(180,992,796)"/><rect x="1006" y="782" width="28" height="28" transform="rotate(0,1020,796)"/><rect x="1034" y="782" width="28" height="28" transform="rotate(0,1048,796)"/><rect x="1062" y="782" width="28" height="28" transform="rotate(0,1076,796)"/><rect x="1090" y="782" width="28" height="28" transform="rotate(0,1104,796)"/><rect x="1118" y="782" width="28" height="28" transform="rotate(0,1132,796)"/><rect x="1146" y="782" width="28" height="28" transform="rotate(0,1160,796)"/><path d="M 54 810v 28h 14a 14 14, 0, 0, 0, 0 -28" transform="rotate(90,68,824)"/><rect x="110" y="810" width="28" height="28" transform="rotate(0,124,824)"/><circle cx="208" cy="824" r="14" transform="rotate(0,208,824)"/><circle cx="264" cy="824" r="14" transform="rotate(0,264,824)"/><rect x="306" y="810" width="28" height="28" transform="rotate(0,320,824)"/><rect x="334" y="810" width="28" height="28" transform="rotate(0,348,824)"/><rect x="362" y="810" width="28" height="28" transform="rotate(0,376,824)"/><path d="M 390 810v 28h 28v -14a 14 14, 0, 0, 0, -14 -14" transform="rotate(0,404,824)"/><path d="M 446 810v 28h 28v -14a 14 14, 0, 0, 0, -14 -14" transform="rotate(-90,460,824)"/><rect x="474" y="810" width="28" height="28" transform="rotate(0,488,824)"/><rect x="502" y="810" width="28" height="28" transform="rotate(0,516,824)"/><path d="M 558 810v 28h 14a 14 14, 0, 0, 0, 0 -28" transform="rotate(90,572,824)"/><path d="M 614 810v 28h 14a 14 14, 0, 0, 0, 0 -28" transform="rotate(180,628,824)"/><path d="M 642 810v 28h 28v -14a 14 14, 0, 0, 0, -14 -14" transform="rotate(0,656,824)"/><path d="M 726 810v 28h 14a 14 14, 0, 0, 0, 0 -28" transform="rotate(-90,740,824)"/><circle cx="796" cy="824" r="14" transform="rotate(0,796,824)"/><rect x="894" y="810" width="28" height="28" transform="rotate(0,908,824)"/><path d="M 922 810v 28h 28v -14a 14 14, 0, 0, 0, -14 -14" transform="rotate(0,936,824)"/><rect x="1006" y="810" width="28" height="28" transform="rotate(0,1020,824)"/><rect x="1062" y="810" width="28" height="28" transform="rotate(0,1076,824)"/><rect x="1118" y="810" width="28" height="28" transform="rotate(0,1132,824)"/><path d="M 1146 810v 28h 28v -14a 14 14, 0, 0, 0, -14 -14" transform="rotate(90,1160,824)"/><path d="M 26 838v 28h 14a 14 14, 0, 0, 0, 0 -28" transform="rotate(-90,40,852)"/><path d="M 82 838v 28h 28v -14a 14 14, 0, 0, 0, -14 -14" transform="rotate(-90,96,852)"/><path d="M 110 838v 28h 28v -14a 14 14, 0, 0, 0, -14 -14" transform="rotate(90,124,852)"/><path d="M 222 838v 28h 14a 14 14, 0, 0, 0, 0 -28" transform="rotate(-90,236,852)"/><rect x="306" y="838" width="28" height="28" transform="rotate(0,320,852)"/><path d="M 362 838v 28h 28v -14a 14 14, 0, 0, 0, -14 -14" transform="rotate(180,376,852)"/><rect x="390" y="838" width="28" height="28" transform="rotate(0,404,852)"/><rect x="446" y="838" width="28" height="28" transform="rotate(0,460,852)"/><rect x="502" y="838" width="28" height="28" transform="rotate(0,516,852)"/><path d="M 530 838v 28h 28v -14a 14 14, 0, 0, 0, -14 -14" transform="rotate(0,544,852)"/><path d="M 642 838v 28h 28v -14a 14 14, 0, 0, 0, -14 -14" transform="rotate(180,656,852)"/><rect x="670" y="838" width="28" height="28" transform="rotate(0,684,852)"/><rect x="698" y="838" width="28" height="28" transform="rotate(0,712,852)"/><rect x="726" y="838" width="28" height="28" transform="rotate(0,740,852)"/><path d="M 866 838v 28h 14a 14 14, 0, 0, 0, 0 -28" transform="rotate(180,880,852)"/><rect x="894" y="838" width="28" height="28" transform="rotate(0,908,852)"/><path d="M 922 838v 28h 28v -14a 14 14, 0, 0, 0, -14 -14" transform="rotate(90,936,852)"/><path d="M 1006 838v 28h 28v -14a 14 14, 0, 0, 0, -14 -14" transform="rotate(180,1020,852)"/><rect x="1034" y="838" width="28" height="28" transform="rotate(0,1048,852)"/><rect x="1062" y="838" width="28" height="28" transform="rotate(0,1076,852)"/><rect x="1090" y="838" width="28" height="28" transform="rotate(0,1104,852)"/><path d="M 1118 838v 28h 28v -14a 14 14, 0, 0, 0, -14 -14" transform="rotate(90,1132,852)"/><rect x="26" y="866" width="28" height="28" transform="rotate(0,40,880)"/><rect x="54" y="866" width="28" height="28" transform="rotate(0,68,880)"/><rect x="82" y="866" width="28" height="28" transform="rotate(0,96,880)"/><circle cx="152" cy="880" r="14" transform="rotate(0,152,880)"/><path d="M 194 866v 28h 14a 14 14, 0, 0, 0, 0 -28" transform="rotate(180,208,880)"/><rect x="222" y="866" width="28" height="28" transform="rotate(0,236,880)"/><rect x="250" y="866" width="28" height="28" transform="rotate(0,264,880)"/><rect x="278" y="866" width="28" height="28" transform="rotate(0,292,880)"/><rect x="306" y="866" width="28" height="28" transform="rotate(0,320,880)"/><rect x="390" y="866" width="28" height="28" transform="rotate(0,404,880)"/><rect x="418" y="866" width="28" height="28" transform="rotate(0,432,880)"/><rect x="446" y="866" width="28" height="28" transform="rotate(0,460,880)"/><rect x="474" y="866" width="28" height="28" transform="rotate(0,488,880)"/><rect x="502" y="866" width="28" height="28" transform="rotate(0,516,880)"/><rect x="530" y="866" width="28" height="28" transform="rotate(0,544,880)"/><rect x="558" y="866" width="28" height="28" transform="rotate(0,572,880)"/><path d="M 586 866v 28h 28v -14a 14 14, 0, 0, 0, -14 -14" transform="rotate(0,600,880)"/><path d="M 670 866v 28h 14a 14 14, 0, 0, 0, 0 -28" transform="rotate(90,684,880)"/><rect x="726" y="866" width="28" height="28" transform="rotate(0,740,880)"/><path d="M 754 866v 28h 14a 14 14, 0, 0, 0, 0 -28" transform="rotate(0,768,880)"/><path d="M 810 866v 28h 14a 14 14, 0, 0, 0, 0 -28" transform="rotate(-90,824,880)"/><rect x="894" y="866" width="28" height="28" transform="rotate(0,908,880)"/><circle cx="964" cy="880" r="14" transform="rotate(0,964,880)"/><path d="M 1034 866v 28h 14a 14 14, 0, 0, 0, 0 -28" transform="rotate(90,1048,880)"/><path d="M 1146 866v 28h 14a 14 14, 0, 0, 0, 0 -28" transform="rotate(-90,1160,880)"/><rect x="26" y="894" width="28" height="28" transform="rotate(0,40,908)"/><rect x="54" y="894" width="28" height="28" transform="rotate(0,68,908)"/><rect x="82" y="894" width="28" height="28" transform="rotate(0,96,908)"/><path d="M 110 894v 28h 28v -14a 14 14, 0, 0, 0, -14 -14" transform="rotate(0,124,908)"/><rect x="222" y="894" width="28" height="28" transform="rotate(0,236,908)"/><path d="M 250 894v 28h 28v -14a 14 14, 0, 0, 0, -14 -14" transform="rotate(90,264,908)"/><rect x="306" y="894" width="28" height="28" transform="rotate(0,320,908)"/><path d="M 334 894v 28h 28v -14a 14 14, 0, 0, 0, -14 -14" transform="rotate(0,348,908)"/><path d="M 390 894v 28h 14a 14 14, 0, 0, 0, 0 -28" transform="rotate(90,404,908)"/><path d="M 446 894v 28h 28v -14a 14 14, 0, 0, 0, -14 -14" transform="rotate(180,460,908)"/><rect x="474" y="894" width="28" height="28" transform="rotate(0,488,908)"/><rect x="502" y="894" width="28" height="28" transform="rotate(0,516,908)"/><rect x="530" y="894" width="28" height="28" transform="rotate(0,544,908)"/><rect x="558" y="894" width="28" height="28" transform="rotate(0,572,908)"/><rect x="586" y="894" width="28" height="28" transform="rotate(0,600,908)"/><circle cx="656" cy="908" r="14" transform="rotate(0,656,908)"/><path d="M 698 894v 28h 28v -14a 14 14, 0, 0, 0, -14 -14" transform="rotate(-90,712,908)"/><path d="M 726 894v 28h 28v -14a 14 14, 0, 0, 0, -14 -14" transform="rotate(90,740,908)"/><path d="M 782 894v 28h 14a 14 14, 0, 0, 0, 0 -28" transform="rotate(180,796,908)"/><path d="M 810 894v 28h 28v -14a 14 14, 0, 0, 0, -14 -14" transform="rotate(90,824,908)"/><path d="M 866 894v 28h 28v -14a 14 14, 0, 0, 0, -14 -14" transform="rotate(-90,880,908)"/><rect x="894" y="894" width="28" height="28" transform="rotate(0,908,908)"/><path d="M 978 894v 28h 28v -14a 14 14, 0, 0, 0, -14 -14" transform="rotate(-90,992,908)"/><path d="M 1006 894v 28h 28v -14a 14 14, 0, 0, 0, -14 -14" transform="rotate(0,1020,908)"/><path d="M 1090 894v 28h 14a 14 14, 0, 0, 0, 0 -28" transform="rotate(-90,1104,908)"/><path d="M 1146 894v 28h 14a 14 14, 0, 0, 0, 0 -28" transform="rotate(90,1160,908)"/><path d="M 26 922v 28h 28v -14a 14 14, 0, 0, 0, -14 -14" transform="rotate(180,40,936)"/><path d="M 54 922v 28h 28v -14a 14 14, 0, 0, 0, -14 -14" transform="rotate(90,68,936)"/><path d="M 110 922v 28h 28v -14a 14 14, 0, 0, 0, -14 -14" transform="rotate(180,124,936)"/><rect x="138" y="922" width="28" height="28" transform="rotate(0,152,936)"/><rect x="166" y="922" width="28" height="28" transform="rotate(0,180,936)"/><rect x="194" y="922" width="28" height="28" transform="rotate(0,208,936)"/><path d="M 222 922v 28h 28v -14a 14 14, 0, 0, 0, -14 -14" transform="rotate(90,236,936)"/><path d="M 278 922v 28h 14a 14 14, 0, 0, 0, 0 -28" transform="rotate(180,292,936)"/><rect x="306" y="922" width="28" height="28" transform="rotate(0,320,936)"/><rect x="334" y="922" width="28" height="28" transform="rotate(0,348,936)"/><rect x="474" y="922" width="28" height="28" transform="rotate(0,488,936)"/><path d="M 586 922v 28h 14a 14 14, 0, 0, 0, 0 -28" transform="rotate(90,600,936)"/><path d="M 698 922v 28h 14a 14 14, 0, 0, 0, 0 -28" transform="rotate(90,712,936)"/><path d="M 754 922v 28h 14a 14 14, 0, 0, 0, 0 -28" transform="rotate(-90,768,936)"/><path d="M 838 922v 28h 14a 14 14, 0, 0, 0, 0 -28" transform="rotate(180,852,936)"/><rect x="866" y="922" width="28" height="28" transform="rotate(0,880,936)"/><rect x="894" y="922" width="28" height="28" transform="rotate(0,908,936)"/><rect x="922" y="922" width="28" height="28" transform="rotate(0,936,936)"/><rect x="950" y="922" width="28" height="28" transform="rotate(0,964,936)"/><rect x="978" y="922" width="28" height="28" transform="rotate(0,992,936)"/><rect x="1006" y="922" width="28" height="28" transform="rotate(0,1020,936)"/><rect x="1034" y="922" width="28" height="28" transform="rotate(0,1048,936)"/><rect x="1062" y="922" width="28" height="28" transform="rotate(0,1076,936)"/><rect x="1090" y="922" width="28" height="28" transform="rotate(0,1104,936)"/><path d="M 1118 922v 28h 14a 14 14, 0, 0, 0, 0 -28" transform="rotate(0,1132,936)"/><circle cx="264" cy="964" r="14" transform="rotate(0,264,964)"/><path d="M 334 950v 28h 28v -14a 14 14, 0, 0, 0, -14 -14" transform="rotate(180,348,964)"/><rect x="362" y="950" width="28" height="28" transform="rotate(0,376,964)"/><path d="M 390 950v 28h 14a 14 14, 0, 0, 0, 0 -28" transform="rotate(0,404,964)"/><path d="M 446 950v 28h 28v -14a 14 14, 0, 0, 0, -14 -14" transform="rotate(-90,460,964)"/><rect x="474" y="950" width="28" height="28" transform="rotate(0,488,964)"/><circle cx="544" cy="964" r="14" transform="rotate(0,544,964)"/><path d="M 614 950v 28h 14a 14 14, 0, 0, 0, 0 -28" transform="rotate(-90,628,964)"/><path d="M 670 950v 28h 14a 14 14, 0, 0, 0, 0 -28" transform="rotate(-90,684,964)"/><path d="M 726 950v 28h 28v -14a 14 14, 0, 0, 0, -14 -14" transform="rotate(-90,740,964)"/><rect x="754" y="950" width="28" height="28" transform="rotate(0,768,964)"/><path d="M 782 950v 28h 28v -14a 14 14, 0, 0, 0, -14 -14" transform="rotate(0,796,964)"/><path d="M 866 950v 28h 14a 14 14, 0, 0, 0, 0 -28" transform="rotate(90,880,964)"/><rect x="922" y="950" width="28" height="28" transform="rotate(0,936,964)"/><rect x="1034" y="950" width="28" height="28" transform="rotate(0,1048,964)"/><path d="M 1090 950v 28h 14a 14 14, 0, 0, 0, 0 -28" transform="rotate(90,1104,964)"/><path d="M 306 978v 28h 14a 14 14, 0, 0, 0, 0 -28" transform="rotate(-90,320,992)"/><path d="M 418 978v 28h 28v -14a 14 14, 0, 0, 0, -14 -14" transform="rotate(-90,432,992)"/><rect x="446" y="978" width="28" height="28" transform="rotate(0,460,992)"/><rect x="474" y="978" width="28" height="28" transform="rotate(0,488,992)"/><path d="M 558 978v 28h 28v -14a 14 14, 0, 0, 0, -14 -14" transform="rotate(-90,572,992)"/><rect x="586" y="978" width="28" height="28" transform="rotate(0,600,992)"/><path d="M 614 978v 28h 28v -14a 14 14, 0, 0, 0, -14 -14" transform="rotate(90,628,992)"/><rect x="670" y="978" width="28" height="28" transform="rotate(0,684,992)"/><rect x="698" y="978" width="28" height="28" transform="rotate(0,712,992)"/><rect x="726" y="978" width="28" height="28" transform="rotate(0,740,992)"/><path d="M 782 978v 28h 28v -14a 14 14, 0, 0, 0, -14 -14" transform="rotate(180,796,992)"/><rect x="810" y="978" width="28" height="28" transform="rotate(0,824,992)"/><path d="M 838 978v 28h 28v -14a 14 14, 0, 0, 0, -14 -14" transform="rotate(0,852,992)"/><path d="M 894 978v 28h 28v -14a 14 14, 0, 0, 0, -14 -14" transform="rotate(-90,908,992)"/><rect x="922" y="978" width="28" height="28" transform="rotate(0,936,992)"/><circle cx="992" cy="992" r="14" transform="rotate(0,992,992)"/><rect x="1034" y="978" width="28" height="28" transform="rotate(0,1048,992)"/><path d="M 1062 978v 28h 28v -14a 14 14, 0, 0, 0, -14 -14" transform="rotate(0,1076,992)"/><path d="M 1118 978v 28h 14a 14 14, 0, 0, 0, 0 -28" transform="rotate(-90,1132,992)"/><path d="M 250 1006v 28h 28v -14a 14 14, 0, 0, 0, -14 -14" transform="rotate(-90,264,1020)"/><rect x="278" y="1006" width="28" height="28" transform="rotate(0,292,1020)"/><rect x="306" y="1006" width="28" height="28" transform="rotate(0,320,1020)"/><path d="M 362 1006v 28h 14a 14 14, 0, 0, 0, 0 -28" transform="rotate(180,376,1020)"/><rect x="390" y="1006" width="28" height="28" transform="rotate(0,404,1020)"/><rect x="418" y="1006" width="28" height="28" transform="rotate(0,432,1020)"/><path d="M 474 1006v 28h 14a 14 14, 0, 0, 0, 0 -28" transform="rotate(90,488,1020)"/><path d="M 530 1006v 28h 28v -14a 14 14, 0, 0, 0, -14 -14" transform="rotate(-90,544,1020)"/><rect x="558" y="1006" width="28" height="28" transform="rotate(0,572,1020)"/><path d="M 586 1006v 28h 28v -14a 14 14, 0, 0, 0, -14 -14" transform="rotate(90,600,1020)"/><path d="M 670 1006v 28h 14a 14 14, 0, 0, 0, 0 -28" transform="rotate(90,684,1020)"/><rect x="726" y="1006" width="28" height="28" transform="rotate(0,740,1020)"/><rect x="838" y="1006" width="28" height="28" transform="rotate(0,852,1020)"/><rect x="894" y="1006" width="28" height="28" transform="rotate(0,908,1020)"/><rect x="922" y="1006" width="28" height="28" transform="rotate(0,936,1020)"/><rect x="1034" y="1006" width="28" height="28" transform="rotate(0,1048,1020)"/><path d="M 1062 1006v 28h 28v -14a 14 14, 0, 0, 0, -14 -14" transform="rotate(90,1076,1020)"/><rect x="1118" y="1006" width="28" height="28" transform="rotate(0,1132,1020)"/><path d="M 1146 1006v 28h 14a 14 14, 0, 0, 0, 0 -28" transform="rotate(0,1160,1020)"/><rect x="250" y="1034" width="28" height="28" transform="rotate(0,264,1048)"/><rect x="278" y="1034" width="28" height="28" transform="rotate(0,292,1048)"/><rect x="306" y="1034" width="28" height="28" transform="rotate(0,320,1048)"/><path d="M 418 1034v 28h 14a 14 14, 0, 0, 0, 0 -28" transform="rotate(90,432,1048)"/><rect x="530" y="1034" width="28" height="28" transform="rotate(0,544,1048)"/><path d="M 642 1034v 28h 14a 14 14, 0, 0, 0, 0 -28" transform="rotate(-90,656,1048)"/><rect x="726" y="1034" width="28" height="28" transform="rotate(0,740,1048)"/><path d="M 810 1034v 28h 28v -14a 14 14, 0, 0, 0, -14 -14" transform="rotate(-90,824,1048)"/><rect x="838" y="1034" width="28" height="28" transform="rotate(0,852,1048)"/><rect x="866" y="1034" width="28" height="28" transform="rotate(0,880,1048)"/><rect x="894" y="1034" width="28" height="28" transform="rotate(0,908,1048)"/><rect x="922" y="1034" width="28" height="28" transform="rotate(0,936,1048)"/><rect x="950" y="1034" width="28" height="28" transform="rotate(0,964,1048)"/><rect x="978" y="1034" width="28" height="28" transform="rotate(0,992,1048)"/><rect x="1006" y="1034" width="28" height="28" transform="rotate(0,1020,1048)"/><path d="M 1034 1034v 28h 28v -14a 14 14, 0, 0, 0, -14 -14" transform="rotate(90,1048,1048)"/><path d="M 1118 1034v 28h 14a 14 14, 0, 0, 0, 0 -28" transform="rotate(90,1132,1048)"/><path d="M 250 1062v 28h 14a 14 14, 0, 0, 0, 0 -28" transform="rotate(90,264,1076)"/><path d="M 306 1062v 28h 14a 14 14, 0, 0, 0, 0 -28" transform="rotate(90,320,1076)"/><path d="M 474 1062v 28h 14a 14 14, 0, 0, 0, 0 -28" transform="rotate(-90,488,1076)"/><rect x="530" y="1062" width="28" height="28" transform="rotate(0,544,1076)"/><circle cx="600" cy="1076" r="14" transform="rotate(0,600,1076)"/><path d="M 642 1062v 28h 28v -14a 14 14, 0, 0, 0, -14 -14" transform="rotate(180,656,1076)"/><path d="M 670 1062v 28h 14a 14 14, 0, 0, 0, 0 -28" transform="rotate(0,684,1076)"/><path d="M 726 1062v 28h 28v -14a 14 14, 0, 0, 0, -14 -14" transform="rotate(180,740,1076)"/><rect x="754" y="1062" width="28" height="28" transform="rotate(0,768,1076)"/><rect x="782" y="1062" width="28" height="28" transform="rotate(0,796,1076)"/><rect x="810" y="1062" width="28" height="28" transform="rotate(0,824,1076)"/><rect x="838" y="1062" width="28" height="28" transform="rotate(0,852,1076)"/><path d="M 866 1062v 28h 28v -14a 14 14, 0, 0, 0, -14 -14" transform="rotate(90,880,1076)"/><path d="M 922 1062v 28h 14a 14 14, 0, 0, 0, 0 -28" transform="rotate(90,936,1076)"/><rect x="1006" y="1062" width="28" height="28" transform="rotate(0,1020,1076)"/><path d="M 1062 1062v 28h 28v -14a 14 14, 0, 0, 0, -14 -14" transform="rotate(-90,1076,1076)"/><path d="M 1090 1062v 28h 28v -14a 14 14, 0, 0, 0, -14 -14" transform="rotate(0,1104,1076)"/><path d="M 390 1090v 28h 14a 14 14, 0, 0, 0, 0 -28" transform="rotate(180,404,1104)"/><rect x="418" y="1090" width="28" height="28" transform="rotate(0,432,1104)"/><rect x="446" y="1090" width="28" height="28" transform="rotate(0,460,1104)"/><rect x="474" y="1090" width="28" height="28" transform="rotate(0,488,1104)"/><rect x="502" y="1090" width="28" height="28" transform="rotate(0,516,1104)"/><rect x="530" y="1090" width="28" height="28" transform="rotate(0,544,1104)"/><path d="M 558 1090v 28h 14a 14 14, 0, 0, 0, 0 -28" transform="rotate(0,572,1104)"/><path d="M 614 1090v 28h 14a 14 14, 0, 0, 0, 0 -28" transform="rotate(-90,628,1104)"/><path d="M 698 1090v 28h 14a 14 14, 0, 0, 0, 0 -28" transform="rotate(-90,712,1104)"/><rect x="754" y="1090" width="28" height="28" transform="rotate(0,768,1104)"/><rect x="782" y="1090" width="28" height="28" transform="rotate(0,796,1104)"/><path d="M 894 1090v 28h 14a 14 14, 0, 0, 0, 0 -28" transform="rotate(-90,908,1104)"/><path d="M 950 1090v 28h 14a 14 14, 0, 0, 0, 0 -28" transform="rotate(-90,964,1104)"/><path d="M 1006 1090v 28h 28v -14a 14 14, 0, 0, 0, -14 -14" transform="rotate(180,1020,1104)"/><rect x="1034" y="1090" width="28" height="28" transform="rotate(0,1048,1104)"/><rect x="1062" y="1090" width="28" height="28" transform="rotate(0,1076,1104)"/><rect x="1090" y="1090" width="28" height="28" transform="rotate(0,1104,1104)"/><path d="M 1146 1090v 28h 14a 14 14, 0, 0, 0, 0 -28" transform="rotate(-90,1160,1104)"/><circle cx="264" cy="1132" r="14" transform="rotate(0,264,1132)"/><circle cx="348" cy="1132" r="14" transform="rotate(0,348,1132)"/><path d="M 502 1118v 28h 14a 14 14, 0, 0, 0, 0 -28" transform="rotate(90,516,1132)"/><path d="M 586 1118v 28h 28v -14a 14 14, 0, 0, 0, -14 -14" transform="rotate(-90,600,1132)"/><path d="M 614 1118v 28h 28v -14a 14 14, 0, 0, 0, -14 -14" transform="rotate(90,628,1132)"/><path d="M 670 1118v 28h 14a 14 14, 0, 0, 0, 0 -28" transform="rotate(180,684,1132)"/><rect x="698" y="1118" width="28" height="28" transform="rotate(0,712,1132)"/><path d="M 754 1118v 28h 28v -14a 14 14, 0, 0, 0, -14 -14" transform="rotate(180,768,1132)"/><rect x="782" y="1118" width="28" height="28" transform="rotate(0,796,1132)"/><path d="M 810 1118v 28h 28v -14a 14 14, 0, 0, 0, -14 -14" transform="rotate(0,824,1132)"/><path d="M 866 1118v 28h 14a 14 14, 0, 0, 0, 0 -28" transform="rotate(180,880,1132)"/><rect x="894" y="1118" width="28" height="28" transform="rotate(0,908,1132)"/><rect x="950" y="1118" width="28" height="28" transform="rotate(0,964,1132)"/><rect x="1034" y="1118" width="28" height="28" transform="rotate(0,1048,1132)"/><rect x="1062" y="1118" width="28" height="28" transform="rotate(0,1076,1132)"/><path d="M 1090 1118v 28h 28v -14a 14 14, 0, 0, 0, -14 -14" transform="rotate(90,1104,1132)"/><path d="M 1146 1118v 28h 14a 14 14, 0, 0, 0, 0 -28" transform="rotate(90,1160,1132)"/><path d="M 278 1146v 28h 14a 14 14, 0, 0, 0, 0 -28" transform="rotate(180,292,1160)"/><path d="M 306 1146v 28h 14a 14 14, 0, 0, 0, 0 -28" transform="rotate(0,320,1160)"/><circle cx="404" cy="1160" r="14" transform="rotate(0,404,1160)"/><circle cx="488" cy="1160" r="14" transform="rotate(0,488,1160)"/><path d="M 586 1146v 28h 14a 14 14, 0, 0, 0, 0 -28" transform="rotate(90,600,1160)"/><circle cx="656" cy="1160" r="14" transform="rotate(0,656,1160)"/><path d="M 698 1146v 28h 28v -14a 14 14, 0, 0, 0, -14 -14" transform="rotate(180,712,1160)"/><path d="M 726 1146v 28h 14a 14 14, 0, 0, 0, 0 -28" transform="rotate(0,740,1160)"/><path d="M 782 1146v 28h 28v -14a 14 14, 0, 0, 0, -14 -14" transform="rotate(180,796,1160)"/><path d="M 810 1146v 28h 28v -14a 14 14, 0, 0, 0, -14 -14" transform="rotate(90,824,1160)"/><path d="M 894 1146v 28h 28v -14a 14 14, 0, 0, 0, -14 -14" transform="rotate(180,908,1160)"/><rect x="922" y="1146" width="28" height="28" transform="rotate(0,936,1160)"/><rect x="950" y="1146" width="28" height="28" transform="rotate(0,964,1160)"/><path d="M 978 1146v 28h 14a 14 14, 0, 0, 0, 0 -28" transform="rotate(0,992,1160)"/><path d="M 1034 1146v 28h 14a 14 14, 0, 0, 0, 0 -28" transform="rotate(90,1048,1160)"/></clipPath><clipPath id="clip-path-corners-square-color-0-0-383"><path clip-rule="evenodd" d="M 26 96v 56a 70 70, 0, 0, 0, 70 70h 56a 70 70, 0, 0, 0, 70 -70v -56a 70 70, 0, 0, 0, -70 -70h -56a 70 70, 0, 0, 0, -70 70M 96 54h 56a 42 42, 0, 0, 1, 42 42v 56a 42 42, 0, 0, 1, -42 42h -56a 42 42, 0, 0, 1, -42 -42v -56a 42 42, 0, 0, 1, 42 -42" transform="rotate(0,124,124)"/></clipPath><clipPath id="clip-path-corners-dot-color-0-0-383"><circle cx="124" cy="124" r="42" transform="rotate(0,124,124)"/></clipPath><clipPath id="clip-path-corners-square-color-1-0-383"><path clip-rule="evenodd" d="M 978 96v 56a 70 70, 0, 0, 0, 70 70h 56a 70 70, 0, 0, 0, 70 -70v -56a 70 70, 0, 0, 0, -70 -70h -56a 70 70, 0, 0, 0, -70 70M 1048 54h 56a 42 42, 0, 0, 1, 42 42v 56a 42 42, 0, 0, 1, -42 42h -56a 42 42, 0, 0, 1, -42 -42v -56a 42 42, 0, 0, 1, 42 -42" transform="rotate(90,1076,124)"/></clipPath><clipPath id="clip-path-corners-dot-color-1-0-383"><circle cx="1076" cy="124" r="42" transform="rotate(90,1076,124)"/></clipPath><clipPath id="clip-path-corners-square-color-0-1-383"><path clip-rule="evenodd" d="M 26 1048v 56a 70 70, 0, 0, 0, 70 70h 56a 70 70, 0, 0, 0, 70 -70v -56a 70 70, 0, 0, 0, -70 -70h -56a 70 70, 0, 0, 0, -70 70M 96 1006h 56a 42 42, 0, 0, 1, 42 42v 56a 42 42, 0, 0, 1, -42 42h -56a 42 42, 0, 0, 1, -42 -42v -56a 42 42, 0, 0, 1, 42 -42" transform="rotate(-90,124,1076)"/></clipPath><clipPath id="clip-path-corners-dot-color-0-1-383"><circle cx="124" cy="1076" r="42" transform="rotate(-90,124,1076)"/></clipPath></defs><rect x="0" y="0" height="1200" width="1200" clip-path="url('#clip-path-background-color-383')" fill="#ffffff"/><rect x="0" y="0" height="1200" width="1200" clip-path="url('#clip-path-dot-color-383')" fill="#000000"/><rect x="26" y="26" height="196" width="196" clip-path="url('#clip-path-corners-square-color-0-0-383')" fill="#000000"/><rect x="82" y="82" height="84" width="84" clip-path="url('#clip-path-corners-dot-color-0-0-383')" fill="#000000"/><rect x="978" y="26" height="196" width="196" clip-path="url('#clip-path-corners-square-color-1-0-383')" fill="#000000"/><rect x="1034" y="82" height="84" width="84" clip-path="url('#clip-path-corners-dot-color-1-0-383')" fill="#000000"/><rect x="26" y="978" height="196" width="196" clip-path="url('#clip-path-corners-square-color-0-1-383')" fill="#000000"/><rect x="82" y="1034" height="84" width="84" clip-path="url('#clip-path-corners-dot-color-0-1-383')" fill="#000000"/></svg>