<?xml version="1.0" standalone="no"?>
<svg xmlns="http://www.w3.org/2000/svg" width="1200" height="1200" xmlns:xlink="http://www.w3.org/1999/xlink" viewBox="0 0 1200 1200"><defs><clipPath id="clip-path-background-color-407"><rect x="0" y="0" width="1200" height="1200"/></clipPath><clipPath id="clip-path-dot-color-407"><circle cx="312" cy="24" r="16" transform="rotate(0,312,24)"/><path d="M 552 8v 32h 16a 16 16, 0, 0, 0, 0 -32" transform="rotate(180,568,24)"/><path d="M 584 8v 32h 16a 16 16, 0, 0, 0, 0 -32" transform="rotate(0,600,24)"/><path d="M 680 8v 32h 16a 16 16, 0, 0, 0, 0 -32" transform="rotate(180,696,24)"/><rect x="712" y="8" width="32" height="32" transform="rotate(0,728,24)"/><path d="M 744 8v 32h 32v -16a 16 16, 0, 0, 0, -16 -16" transform="rotate(0,760,24)"/><circle cx="856" cy="24" r="16" transform="rotate(0,856,24)"/><path d="M 904 8v 32h 16a 16 16, 0, 0, 0, 0 -32" transform="rotate(-90,920,24)"/><circle cx="280" cy="56" r="16" transform="rotate(0,280,56)"/><path d="M 328 40v 32h 16a 16 16, 0, 0, 0, 0 -32" transform="rotate(180,344,56)"/><rect x="360" y="40" width="32" height="32" transform="rotate(0,376,56)"/><path d="M 392 40v 32h 16a 16 16, 0, 0, 0, 0 -32" transform="rotate(0,408,56)"/><path d="M 488 40v 32h 16a 16 16, 0, 0, 0, 0 -32" transform="rotate(-90,504,56)"/><circle cx="664" cy="56" r="16" transform="rotate(0,664,56)"/><rect x="712" y="40" width="32" height="32" transform="rotate(0,728,56)"/><rect x="744" y="40" width="32" height="32" transform="rotate(0,760,56)"/><rect x="776" y="40" width="32" height="32" transform="rotate(0,792,56)"/><path d="M 808 40v 32h 32v -16a 16 16, 0, 0, 0, -16 -16" transform="rotate(0,824,56)"/><path d="M 904 40v 32h 16a 16 16, 0, 0, 0, 0 -32" transform="rotate(90,920,56)"/><path d="M 296 72v 32h 16a 16 16, 0, 0, 0, 0 -32" transform="rotate(-90,312,88)"/><path d="M 424 72v 32h 32v -16a 16 16, 0, 0, 0, -16 -16" transform="rotate(-90,440,88)"/><rect x="456" y="72" width="32" height="32" transform="rotate(0,472,88)"/><rect x="488" y="72" width="32" height="32" transform="rotate(0,504,88)"/><path d="M 520 72v 32h 16a 16 16, 0, 0, 0, 0 -32" transform="rotate(0,536,88)"/><path d="M 584 72v 32h 16a 16 16, 0, 0, 0, 0 -32" transform="rotate(-90,600,88)"/><path d="M 680 72v 32h 32v -16a 16 16, 0, 0, 0, -16 -16" transform="rotate(-90,696,88)"/><rect x="712" y="72" width="32" height="32" transform="rotate(0,728,88)"/><rect x="744" y="72" width="32" height="32" transform="rotate(0,760,88)"/><rect x="808" y="72" width="32" height="32" transform="rotate(0,824,88)"/><path d="M 872 72v 32h 16a 16 16, 0, 0, 0, 0 -32" transform="rotate(-90,888,88)"/><path d="M 264 104v 32h 32v -16a 16 16, 0, 0, 0, -16 -16" transform="rotate(-90,280,120)"/><rect x="296" y="104" width="32" height="32" transform="rotate(0,312,120)"/><path d="M 328 104v 32h 32v -16a 16 16, 0, 0, 0, -16 -16" transform="rotate(0,344,120)"/><path d="M 424 104v 32h 32v -16a 16 16, 0, 0, 0, -16 -16" transform="rotate(180,440,120)"/><rect x="456" y="104" width="32" height="32" transform="rotate(0,472,120)"/><path d="M 488 104v 32h 32v -16a 16 16, 0, 0, 0, -16 -16" transform="rotate(90,504,120)"/><rect x="584" y="104" width="32" height="32" transform="rotate(0,600,120)"/><rect x="616" y="104" width="32" height="32" transform="rotate(0,632,120)"/><rect x="648" y="104" width="32" height="32" transform="rotate(0,664,120)"/><rect x="680" y="104" width="32" height="32" transform="rotate(0,696,120)"/><path d="M 744 104v 32h 32v -16a 16 16, 0, 0, 0, -16 -16" transform="rotate(180,760,120)"/><rect x="776" y="104" width="32" height="32" transform="rotate(0,792,120)"/><path d="M 808 104v 32h 32v -16a 16 16, 0, 0, 0, -16 -16" transform="rotate(90,824,120)"/><path d="M 872 104v 32h 32v -16a 16 16, 0, 0, 0, -16 -16" transform="rotate(180,888,120)"/><path d="M 904 104v 32h 16a 16 16, 0, 0, 0, 0 -32" transform="rotate(0,920,120)"/><path d="M 264 136v 32h 16a 16 16, 0, 0, 0, 0 -32" transform="rotate(90,280,152)"/><rect x="328" y="136" width="32" height="32" transform="rotate(0,344,152)"/><path d="M 360 136v 32h 32v -16a 16 16, 0, 0, 0, -16 -16" transform="rotate(0,376,152)"/><rect x="584" y="136" width="32" height="32" transform="rotate(0,600,152)"/><rect x="616" y="136" width="32" height="32" transform="rotate(0,632,152)"/><rect x="648" y="136" width="32" height="32" transform="rotate(0,664,152)"/><rect x="680" y="136" width="32" height="32" transform="rotate(0,696,152)"/><path d="M 712 136v 32h 16a 16 16, 0, 0, 0, 0 -32" transform="rotate(0,728,152)"/><circle cx="856" cy="152" r="16" transform="rotate(0,856,152)"/><path d="M 296 168v 32h 16a 16 16, 0, 0, 0, 0 -32" transform="rotate(180,312,184)"/><rect x="328" y="168" width="32" height="32" transform="rotate(0,344,184)"/><path d="M 360 168v 32h 32v -16a 16 16, 0, 0, 0, -16 -16" transform="rotate(90,376,184)"/><rect x="584" y="168" width="32" height="32" transform="rotate(0,600,184)"/><rect x="648" y="168" width="32" height="32" transform="rotate(0,664,184)"/><path d="M 744 168v 32h 16a 16 16, 0, 0, 0, 0 -32" transform="rotate(180,760,184)"/><rect x="776" y="168" width="32" height="32" transform="rotate(0,792,184)"/><path d="M 808 168v 32h 16a 16 16, 0, 0, 0, 0 -32" transform="rotate(0,824,184)"/><path d="M 264 200v 32h 16a 16 16, 0, 0, 0, 0 -32" transform="rotate(-90,280,216)"/><path d="M 328 200v 32h 16a 16 16, 0, 0, 0, 0 -32" transform="rotate(90,344,216)"/><circle cx="408" cy="216" r="16" transform="rotate(0,408,216)"/><path d="M 456 200v 32h 16a 16 16, 0, 0, 0, 0 -32" transform="rotate(-90,472,216)"/><path d="M 520 200v 32h 16a 16 16, 0, 0, 0, 0 -32" transform="rotate(-90,536,216)"/><rect x="584" y="200" width="32" height="32" transform="rotate(0,600,216)"/><rect x="648" y="200" width="32" height="32" transform="rotate(0,664,216)"/><path d="M 712 200v 32h 16a 16 16, 0, 0, 0, 0 -32" transform="rotate(-90,728,216)"/><path d="M 776 200v 32h 16a 16 16, 0, 0, 0, 0 -32" transform="rotate(90,792,216)"/><path d="M 840 200v 32h 16a 16 16, 0, 0, 0, 0 -32" transform="rotate(-90,856,216)"/><path d="M 904 200v 32h 16a 16 16, 0, 0, 0, 0 -32" transform="rotate(-90,920,216)"/><rect x="264" y="232" width="32" height="32" transform="rotate(0,280,248)"/><circle cx="376" cy="248" r="16" transform="rotate(0,376,248)"/><path d="M 456 232v 32h 16a 16 16, 0, 0, 0, 0 -32" transform="rotate(90,472,248)"/><rect x="520" y="232" width="32" height="32" transform="rotate(0,536,248)"/><rect x="584" y="232" width="32" height="32" transform="rotate(0,600,248)"/><rect x="648" y="232" width="32" height="32" transform="rotate(0,664,248)"/><path d="M 712 232v 32h 32v -16a 16 16, 0, 0, 0, -16 -16" transform="rotate(180,728,248)"/><path d="M 744 232v 32h 32v -16a 16 16, 0, 0, 0, -16 -16" transform="rotate(0,760,248)"/><path d="M 808 232v 32h 16a 16 16, 0, 0, 0, 0 -32" transform="rotate(180,824,248)"/><rect x="840" y="232" width="32" height="32" transform="rotate(0,856,248)"/><rect x="872" y="232" width="32" height="32" transform="rotate(0,888,248)"/><path d="M 904 232v 32h 32v -16a 16 16, 0, 0, 0, -16 -16" transform="rotate(90,920,248)"/><path d="M 40 264v 32h 16a 16 16, 0, 0, 0, 0 -32" transform="rotate(-90,56,280)"/><path d="M 104 264v 32h 32v -16a 16 16, 0, 0, 0, -16 -16" transform="rotate(-90,120,280)"/><rect x="136" y="264" width="32" height="32" transform="rotate(0,152,280)"/><rect x="168" y="264" width="32" height="32" transform="rotate(0,184,280)"/><path d="M 200 264v 32h 16a 16 16, 0, 0, 0, 0 -32" transform="rotate(0,216,280)"/><path d="M 264 264v 32h 16a 16 16, 0, 0, 0, 0 -32" transform="rotate(90,280,280)"/><circle cx="344" cy="280" r="16" transform="rotate(0,344,280)"/><path d="M 392 264v 32h 16a 16 16, 0, 0, 0, 0 -32" transform="rotate(180,408,280)"/><path d="M 424 264v 32h 32v -16a 16 16, 0, 0, 0, -16 -16" transform="rotate(0,440,280)"/><path d="M 488 264v 32h 32v -16a 16 16, 0, 0, 0, -16 -16" transform="rotate(-90,504,280)"/><rect x="520" y="264" width="32" height="32" transform="rotate(0,536,280)"/><rect x="552" y="264" width="32" height="32" transform="rotate(0,568,280)"/><path d="M 584 264v 32h 32v -16a 16 16, 0, 0, 0, -16 -16" transform="rotate(90,600,280)"/><rect x="648" y="264" width="32" height="32" transform="rotate(0,664,280)"/><rect x="744" y="264" width="32" height="32" transform="rotate(0,760,280)"/><path d="M 776 264v 32h 16a 16 16, 0, 0, 0, 0 -32" transform="rotate(0,792,280)"/><path d="M 840 264v 32h 16a 16 16, 0, 0, 0, 0 -32" transform="rotate(90,856,280)"/><path d="M 936 264v 32h 16a 16 16, 0, 0, 0, 0 -32" transform="rotate(180,952,280)"/><path d="M 968 264v 32h 16a 16 16, 0, 0, 0, 0 -32" transform="rotate(0,984,280)"/><path d="M 1032 264v 32h 32v -16a 16 16, 0, 0, 0, -16 -16" transform="rotate(-90,1048,280)"/><path d="M 1064 264v 32h 16a 16 16, 0, 0, 0, 0 -32" transform="rotate(0,1080,280)"/><circle cx="1144" cy="280" r="16" transform="rotate(0,1144,280)"/><path d="M 8 296v 32h 16a 16 16, 0, 0, 0, 0 -32" transform="rotate(180,24,312)"/><path d="M 40 296v 32h 32v -16a 16 16, 0, 0, 0, -16 -16" transform="rotate(90,56,312)"/><rect x="104" y="296" width="32" height="32" transform="rotate(0,120,312)"/><circle cx="248" cy="312" r="16" transform="rotate(0,248,312)"/><path d="M 296 296v 32h 16a 16 16, 0, 0, 0, 0 -32" transform="rotate(-90,312,312)"/><path d="M 360 296v 32h 16a 16 16, 0, 0, 0, 0 -32" transform="rotate(-90,376,312)"/><rect x="424" y="296" width="32" height="32" transform="rotate(0,440,312)"/><rect x="456" y="296" width="32" height="32" transform="rotate(0,472,312)"/><path d="M 488 296v 32h 32v -16a 16 16, 0, 0, 0, -16 -16" transform="rotate(90,504,312)"/><path d="M 616 296v 32h 32v -16a 16 16, 0, 0, 0, -16 -16" transform="rotate(-90,632,312)"/><path d="M 648 296v 32h 32v -16a 16 16, 0, 0, 0, -16 -16" transform="rotate(90,664,312)"/><rect x="744" y="296" width="32" height="32" transform="rotate(0,760,312)"/><path d="M 808 296v 32h 16a 16 16, 0, 0, 0, 0 -32" transform="rotate(-90,824,312)"/><path d="M 872 296v 32h 16a 16 16, 0, 0, 0, 0 -32" transform="rotate(-90,888,312)"/><rect x="1032" y="296" width="32" height="32" transform="rotate(0,1048,312)"/><path d="M 104 328v 32h 16a 16 16, 0, 0, 0, 0 -32" transform="rotate(90,120,344)"/><circle cx="216" cy="344" r="16" transform="rotate(0,216,344)"/><path d="M 296 328v 32h 16a 16 16, 0, 0, 0, 0 -32" transform="rotate(90,312,344)"/><rect x="360" y="328" width="32" height="32" transform="rotate(0,376,344)"/><path d="M 424 328v 32h 32v -16a 16 16, 0, 0, 0, -16 -16" transform="rotate(180,440,344)"/><rect x="456" y="328" width="32" height="32" transform="rotate(0,472,344)"/><circle cx="568" cy="344" r="16" transform="rotate(0,568,344)"/><path d="M 616 328v 32h 16a 16 16, 0, 0, 0, 0 -32" transform="rotate(90,632,344)"/><path d="M 680 328v 32h 16a 16 16, 0, 0, 0, 0 -32" transform="rotate(180,696,344)"/><rect x="712" y="328" width="32" height="32" transform="rotate(0,728,344)"/><path d="M 744 328v 32h 32v -16a 16 16, 0, 0, 0, -16 -16" transform="rotate(90,760,344)"/><path d="M 808 328v 32h 16a 16 16, 0, 0, 0, 0 -32" transform="rotate(90,824,344)"/><path d="M 872 328v 32h 32v -16a 16 16, 0, 0, 0, -16 -16" transform="rotate(180,888,344)"/><rect x="904" y="328" width="32" height="32" transform="rotate(0,920,344)"/><rect x="936" y="328" width="32" height="32" transform="rotate(0,952,344)"/><path d="M 968 328v 32h 32v -16a 16 16, 0, 0, 0, -16 -16" transform="rotate(0,984,344)"/><rect x="1032" y="328" width="32" height="32" transform="rotate(0,1048,344)"/><circle cx="1176" cy="344" r="16" transform="rotate(0,1176,344)"/><path d="M 40 360v 32h 16a 16 16, 0, 0, 0, 0 -32" transform="rotate(180,56,376)"/><path d="M 72 360v 32h 16a 16 16, 0, 0, 0, 0 -32" transform="rotate(0,88,376)"/><path d="M 136 360v 32h 32v -16a 16 16, 0, 0, 0, -16 -16" transform="rotate(-90,152,376)"/><path d="M 168 360v 32h 32v -16a 16 16, 0, 0, 0, -16 -16" transform="rotate(0,184,376)"/><circle cx="280" cy="376" r="16" transform="rotate(0,280,376)"/><path d="M 360 360v 32h 32v -16a 16 16, 0, 0, 0, -16 -16" transform="rotate(180,376,376)"/><path d="M 392 360v 32h 16a 16 16, 0, 0, 0, 0 -32" transform="rotate(0,408,376)"/><rect x="456" y="360" width="32" height="32" transform="rotate(0,472,376)"/><path d="M 584 360v 32h 16a 16 16, 0, 0, 0, 0 -32" transform="rotate(-90,600,376)"/><path d="M 648 360v 32h 16a 16 16, 0, 0, 0, 0 -32" transform="rotate(-90,664,376)"/><rect x="712" y="360" width="32" height="32" transform="rotate(0,728,376)"/><circle cx="792" cy="376" r="16" transform="rotate(0,792,376)"/><circle cx="856" cy="376" r="16" transform="rotate(0,856,376)"/><path d="M 936 360v 32h 32v -16a 16 16, 0, 0, 0, -16 -16" transform="rotate(180,952,376)"/><rect x="968" y="360" width="32" height="32" transform="rotate(0,984,376)"/><path d="M 1032 360v 32h 32v -16a 16 16, 0, 0, 0, -16 -16" transform="rotate(180,1048,376)"/><rect x="1064" y="360" width="32" height="32" transform="rotate(0,1080,376)"/><path d="M 1096 360v 32h 16a 16 16, 0, 0, 0, 0 -32" transform="rotate(0,1112,376)"/><circle cx="24" cy="408" r="16" transform="rotate(0,24,408)"/><path d="M 104 392v 32h 16a 16 16, 0, 0, 0, 0 -32" transform="rotate(180,120,408)"/><rect x="136" y="392" width="32" height="32" transform="rotate(0,152,408)"/><rect x="168" y="392" width="32" height="32" transform="rotate(0,184,408)"/><rect x="200" y="392" width="32" height="32" transform="rotate(0,216,408)"/><path d="M 232 392v 32h 16a 16 16, 0, 0, 0, 0 -32" transform="rotate(0,248,408)"/><path d="M 456 392v 32h 16a 16 16, 0, 0, 0, 0 -32" transform="rotate(90,472,408)"/><path d="M 520 392v 32h 16a 16 16, 0, 0, 0, 0 -32" transform="rotate(180,536,408)"/><rect x="552" y="392" width="32" height="32" transform="rotate(0,568,408)"/><rect x="584" y="392" width="32" height="32" transform="rotate(0,600,408)"/><rect x="616" y="392" width="32" height="32" transform="rotate(0,632,408)"/><rect x="648" y="392" width="32" height="32" transform="rotate(0,664,408)"/><path d="M 712 392v 32h 32v -16a 16 16, 0, 0, 0, -16 -16" transform="rotate(180,728,408)"/><path d="M 744 392v 32h 32v -16a 16 16, 0, 0, 0, -16 -16" transform="rotate(0,760,408)"/><path d="M 872 392v 32h 32v -16a 16 16, 0, 0, 0, -16 -16" transform="rotate(-90,888,408)"/><path d="M 904 392v 32h 32v -16a 16 16, 0, 0, 0, -16 -16" transform="rotate(0,920,408)"/><path d="M 968 392v 32h 32v -16a 16 16, 0, 0, 0, -16 -16" transform="rotate(180,984,408)"/><path d="M 1000 392v 32h 32v -16a 16 16, 0, 0, 0, -16 -16" transform="rotate(0,1016,408)"/><path d="M 1128 392v 32h 16a 16 16, 0, 0, 0, 0 -32" transform="rotate(180,1144,408)"/><path d="M 1160 392v 32h 16a 16 16, 0, 0, 0, 0 -32" transform="rotate(0,1176,408)"/><path d="M 40 424v 32h 32v -16a 16 16, 0, 0, 0, -16 -16" transform="rotate(-90,56,440)"/><path d="M 72 424v 32h 32v -16a 16 16, 0, 0, 0, -16 -16" transform="rotate(0,88,440)"/><path d="M 328 424v 32h 16a 16 16, 0, 0, 0, 0 -32" transform="rotate(180,344,440)"/><rect x="360" y="424" width="32" height="32" transform="rotate(0,376,440)"/><rect x="392" y="424" width="32" height="32" transform="rotate(0,408,440)"/><path d="M 424 424v 32h 32v -16a 16 16, 0, 0, 0, -16 -16" transform="rotate(0,440,440)"/><circle cx="504" cy="440" r="16" transform="rotate(0,504,440)"/><path d="M 584 424v 32h 16a 16 16, 0, 0, 0, 0 -32" transform="rotate(90,600,440)"/><path d="M 648 424v 32h 16a 16 16, 0, 0, 0, 0 -32" transform="rotate(90,664,440)"/><path d="M 744 424v 32h 16a 16 16, 0, 0, 0, 0 -32" transform="rotate(90,760,440)"/><path d="M 840 424v 32h 32v -16a 16 16, 0, 0, 0, -16 -16" transform="rotate(-90,856,440)"/><rect x="872" y="424" width="32" height="32" transform="rotate(0,888,440)"/><rect x="904" y="424" width="32" height="32" transform="rotate(0,920,440)"/><path d="M 936 424v 32h 32v -16a 16 16, 0, 0, 0, -16 -16" transform="rotate(0,952,440)"/><rect x="1000" y="424" width="32" height="32" transform="rotate(0,1016,440)"/><path d="M 1032 424v 32h 16a 16 16, 0, 0, 0, 0 -32" transform="rotate(0,1048,440)"/><path d="M 1096 424v 32h 16a 16 16, 0, 0, 0, 0 -32" transform="rotate(-90,1112,440)"/><path d="M 8 456v 32h 16a 16 16, 0, 0, 0, 0 -32" transform="rotate(180,24,472)"/><rect x="40" y="456" width="32" height="32" transform="rotate(0,56,472)"/><path d="M 72 456v 32h 32v -16a 16 16, 0, 0, 0, -16 -16" transform="rotate(90,88,472)"/><path d="M 136 456v 32h 32v -16a 16 16, 0, 0, 0, -16 -16" transform="rotate(-90,152,472)"/><rect x="168" y="456" width="32" height="32" transform="rotate(0,184,472)"/><path d="M 200 456v 32h 16a 16 16, 0, 0, 0, 0 -32" transform="rotate(0,216,472)"/><circle cx="312" cy="472" r="16" transform="rotate(0,312,472)"/><path d="M 392 456v 32h 32v -16a 16 16, 0, 0, 0, -16 -16" transform="rotate(180,408,472)"/><rect x="424" y="456" width="32" height="32" transform="rotate(0,440,472)"/><path d="M 456 456v 32h 16a 16 16, 0, 0, 0, 0 -32" transform="rotate(0,472,472)"/><circle cx="536" cy="472" r="16" transform="rotate(0,536,472)"/><path d="M 680 456v 32h 16a 16 16, 0, 0, 0, 0 -32" transform="rotate(180,696,472)"/><path d="M 712 456v 32h 16a 16 16, 0, 0, 0, 0 -32" transform="rotate(0,728,472)"/><circle cx="792" cy="472" r="16" transform="rotate(0,792,472)"/><path d="M 840 456v 32h 32v -16a 16 16, 0, 0, 0, -16 -16" transform="rotate(180,856,472)"/><path d="M 872 456v 32h 32v -16a 16 16, 0, 0, 0, -16 -16" transform="rotate(90,888,472)"/><path d="M 936 456v 32h 16a 16 16, 0, 0, 0, 0 -32" transform="rotate(90,952,472)"/><rect x="1000" y="456" width="32" height="32" transform="rotate(0,1016,472)"/><path d="M 1064 456v 32h 32v -16a 16 16, 0, 0, 0, -16 -16" transform="rotate(-90,1080,472)"/><rect x="1096" y="456" width="32" height="32" transform="rotate(0,1112,472)"/><rect x="1128" y="456" width="32" height="32" transform="rotate(0,1144,472)"/><path d="M 1160 456v 32h 32v -16a 16 16, 0, 0, 0, -16 -16" transform="rotate(0,1176,472)"/><rect x="136" y="488" width="32" height="32" transform="rotate(0,152,504)"/><rect x="168" y="488" width="32" height="32" transform="rotate(0,184,504)"/><path d="M 232 488v 32h 16a 16 16, 0, 0, 0, 0 -32" transform="rotate(180,248,504)"/><path d="M 264 488v 32h 16a 16 16, 0, 0, 0, 0 -32" transform="rotate(0,280,504)"/><circle cx="376" cy="504" r="16" transform="rotate(0,376,504)"/><circle cx="504" cy="504" r="16" transform="rotate(0,504,504)"/><path d="M 584 488v 32h 16a 16 16, 0, 0, 0, 0 -32" transform="rotate(-90,600,504)"/><path d="M 648 488v 32h 16a 16 16, 0, 0, 0, 0 -32" transform="rotate(-90,664,504)"/><circle cx="920" cy="504" r="16" transform="rotate(0,920,504)"/><path d="M 1000 488v 32h 32v -16a 16 16, 0, 0, 0, -16 -16" transform="rotate(180,1016,504)"/><rect x="1032" y="488" width="32" height="32" transform="rotate(0,1048,504)"/><rect x="1064" y="488" width="32" height="32" transform="rotate(0,1080,504)"/><rect x="1096" y="488" width="32" height="32" transform="rotate(0,1112,504)"/><rect x="1128" y="488" width="32" height="32" transform="rotate(0,1144,504)"/><rect x="1160" y="488" width="32" height="32" transform="rotate(0,1176,504)"/><path d="M 72 520v 32h 16a 16 16, 0, 0, 0, 0 -32" transform="rotate(-90,88,536)"/><rect x="136" y="520" width="32" height="32" transform="rotate(0,152,536)"/><rect x="168" y="520" width="32" height="32" transform="rotate(0,184,536)"/><path d="M 200 520v 32h 16a 16 16, 0, 0, 0, 0 -32" transform="rotate(0,216,536)"/><path d="M 328 520v 32h 16a 16 16, 0, 0, 0, 0 -32" transform="rotate(-90,344,536)"/><path d="M 392 520v 32h 16a 16 16, 0, 0, 0, 0 -32" transform="rotate(-90,408,536)"/><path d="M 552 520v 32h 16a 16 16, 0, 0, 0, 0 -32" transform="rotate(180,568,536)"/><rect x="584" y="520" width="32" height="32" transform="rotate(0,600,536)"/><rect x="616" y="520" width="32" height="32" transform="rotate(0,632,536)"/><rect x="648" y="520" width="32" height="32" transform="rotate(0,664,536)"/><path d="M 680 520v 32h 16a 16 16, 0, 0, 0, 0 -32" transform="rotate(0,696,536)"/><path d="M 776 520v 32h 32v -16a 16 16, 0, 0, 0, -16 -16" transform="rotate(-90,792,536)"/><path d="M 808 520v 32h 32v -16a 16 16, 0, 0, 0, -16 -16" transform="rotate(0,824,536)"/><circle cx="984" cy="536" r="16" transform="rotate(0,984,536)"/><rect x="1096" y="520" width="32" height="32" transform="rotate(0,1112,536)"/><path d="M 1160 520v 32h 16a 16 16, 0, 0, 0, 0 -32" transform="rotate(90,1176,536)"/><circle cx="24" cy="568" r="16" transform="rotate(0,24,568)"/><path d="M 72 552v 32h 32v -16a 16 16, 0, 0, 0, -16 -16" transform="rotate(180,88,568)"/><rect x="104" y="552" width="32" height="32" transform="rotate(0,120,568)"/><rect x="136" y="552" width="32" height="32" transform="rotate(0,152,568)"/><path d="M 296 552v 32h 16a 16 16, 0, 0, 0, 0 -32" transform="rotate(180,312,568)"/><rect x="328" y="552" width="32" height="32" transform="rotate(0,344,568)"/><rect x="360" y="552" width="32" height="32" transform="rotate(0,376,568)"/><rect x="392" y="552" width="32" height="32" transform="rotate(0,408,568)"/><path d="M 424 552v 32h 32v -16a 16 16, 0, 0, 0, -16 -16" transform="rotate(0,440,568)"/><path d="M 488 552v 32h 32v -16a 16 16, 0, 0, 0, -16 -16" transform="rotate(-90,504,568)"/><path d="M 520 552v 32h 16a 16 16, 0, 0, 0, 0 -32" transform="rotate(0,536,568)"/><rect x="584" y="552" width="32" height="32" transform="rotate(0,600,568)"/><rect x="616" y="552" width="32" height="32" transform="rotate(0,632,568)"/><path d="M 744 552v 32h 32v -16a 16 16, 0, 0, 0, -16 -16" transform="rotate(-90,760,568)"/><rect x="776" y="552" width="32" height="32" transform="rotate(0,792,568)"/><path d="M 808 552v 32h 32v -16a 16 16, 0, 0, 0, -16 -16" transform="rotate(90,824,568)"/><path d="M 872 552v 32h 16a 16 16, 0, 0, 0, 0 -32" transform="rotate(-90,888,568)"/><circle cx="952" cy="568" r="16" transform="rotate(0,952,568)"/><path d="M 1064 552v 32h 32v -16a 16 16, 0, 0, 0, -16 -16" transform="rotate(-90,1080,568)"/><rect x="1096" y="552" width="32" height="32" transform="rotate(0,1112,568)"/><path d="M 1128 552v 32h 16a 16 16, 0, 0, 0, 0 -32" transform="rotate(0,1144,568)"/><path d="M 136 584v 32h 32v -16a 16 16, 0, 0, 0, -16 -16" transform="rotate(180,152,600)"/><rect x="168" y="584" width="32" height="32" transform="rotate(0,184,600)"/><path d="M 200 584v 32h 16a 16 16, 0, 0, 0, 0 -32" transform="rotate(0,216,600)"/><path d="M 328 584v 32h 16a 16 16, 0, 0, 0, 0 -32" transform="rotate(90,344,600)"/><path d="M 424 584v 32h 32v -16a 16 16, 0, 0, 0, -16 -16" transform="rotate(180,440,600)"/><rect x="456" y="584" width="32" height="32" transform="rotate(0,472,600)"/><path d="M 488 584v 32h 32v -16a 16 16, 0, 0, 0, -16 -16" transform="rotate(90,504,600)"/><path d="M 584 584v 32h 32v -16a 16 16, 0, 0, 0, -16 -16" transform="rotate(180,600,600)"/><path d="M 616 584v 32h 32v -16a 16 16, 0, 0, 0, -16 -16" transform="rotate(90,632,600)"/><circle cx="696" cy="600" r="16" transform="rotate(0,696,600)"/><rect x="744" y="584" width="32" height="32" transform="rotate(0,760,600)"/><rect x="872" y="584" width="32" height="32" transform="rotate(0,888,600)"/><path d="M 1032 584v 32h 16a 16 16, 0, 0, 0, 0 -32" transform="rotate(180,1048,600)"/><rect x="1064" y="584" width="32" height="32" transform="rotate(0,1080,600)"/><path d="M 1160 584v 32h 16a 16 16, 0, 0, 0, 0 -32" transform="rotate(-90,1176,600)"/><path d="M 40 616v 32h 16a 16 16, 0, 0, 0, 0 -32" transform="rotate(-90,56,632)"/><path d="M 104 616v 32h 16a 16 16, 0, 0, 0, 0 -32" transform="rotate(-90,120,632)"/><path d="M 360 616v 32h 32v -16a 16 16, 0, 0, 0, -16 -16" transform="rotate(-90,376,632)"/><path d="M 392 616v 32h 32v -16a 16 16, 0, 0, 0, -16 -16" transform="rotate(0,408,632)"/><circle cx="536" cy="632" r="16" transform="rotate(0,536,632)"/><path d="M 712 616v 32h 16a 16 16, 0, 0, 0, 0 -32" transform="rotate(180,728,632)"/><rect x="744" y="616" width="32" height="32" transform="rotate(0,760,632)"/><rect x="776" y="616" width="32" height="32" transform="rotate(0,792,632)"/><path d="M 808 616v 32h 16a 16 16, 0, 0, 0, 0 -32" transform="rotate(0,824,632)"/><path d="M 872 616v 32h 32v -16a 16 16, 0, 0, 0, -16 -16" transform="rotate(180,888,632)"/><rect x="904" y="616" width="32" height="32" transform="rotate(0,920,632)"/><rect x="936" y="616" width="32" height="32" transform="rotate(0,952,632)"/><rect x="968" y="616" width="32" height="32" transform="rotate(0,984,632)"/><path d="M 1000 616v 32h 16a 16 16, 0, 0, 0, 0 -32" transform="rotate(0,1016,632)"/><rect x="1064" y="616" width="32" height="32" transform="rotate(0,1080,632)"/><path d="M 1160 616v 32h 16a 16 16, 0, 0, 0, 0 -32" transform="rotate(90,1176,632)"/><rect x="40" y="648" width="32" height="32" transform="rotate(0,56,664)"/><rect x="104" y="648" width="32" height="32" transform="rotate(0,120,664)"/><circle cx="216" cy="664" r="16" transform="rotate(0,216,664)"/><path d="M 296 648v 32h 16a 16 16, 0, 0, 0, 0 -32" transform="rotate(180,312,664)"/><rect x="328" y="648" width="32" height="32" transform="rotate(0,344,664)"/><rect x="360" y="648" width="32" height="32" transform="rotate(0,376,664)"/><path d="M 392 648v 32h 32v -16a 16 16, 0, 0, 0, -16 -16" transform="rotate(90,408,664)"/><circle cx="504" cy="664" r="16" transform="rotate(0,504,664)"/><path d="M 552 648v 32h 32v -16a 16 16, 0, 0, 0, -16 -16" transform="rotate(-90,568,664)"/><path d="M 584 648v 32h 16a 16 16, 0, 0, 0, 0 -32" transform="rotate(0,600,664)"/><circle cx="664" cy="664" r="16" transform="rotate(0,664,664)"/><path d="M 776 648v 32h 16a 16 16, 0, 0, 0, 0 -32" transform="rotate(90,792,664)"/><rect x="904" y="648" width="32" height="32" transform="rotate(0,920,664)"/><rect x="936" y="648" width="32" height="32" transform="rotate(0,952,664)"/><path d="M 968 648v 32h 32v -16a 16 16, 0, 0, 0, -16 -16" transform="rotate(90,984,664)"/><path d="M 1032 648v 32h 32v -16a 16 16, 0, 0, 0, -16 -16" transform="rotate(-90,1048,664)"/><path d="M 1064 648v 32h 32v -16a 16 16, 0, 0, 0, -16 -16" transform="rotate(90,1080,664)"/><path d="M 40 680v 32h 32v -16a 16 16, 0, 0, 0, -16 -16" transform="rotate(180,56,696)"/><rect x="72" y="680" width="32" height="32" transform="rotate(0,88,696)"/><rect x="104" y="680" width="32" height="32" transform="rotate(0,120,696)"/><path d="M 168 680v 32h 16a 16 16, 0, 0, 0, 0 -32" transform="rotate(-90,184,696)"/><path d="M 232 680v 32h 16a 16 16, 0, 0, 0, 0 -32" transform="rotate(180,248,696)"/><path d="M 264 680v 32h 16a 16 16, 0, 0, 0, 0 -32" transform="rotate(0,280,696)"/><circle cx="440" cy="696" r="16" transform="rotate(0,440,696)"/><rect x="552" y="680" width="32" height="32" transform="rotate(0,568,696)"/><path d="M 744 680v 32h 16a 16 16, 0, 0, 0, 0 -32" transform="rotate(-90,760,696)"/><path d="M 840 680v 32h 32v -16a 16 16, 0, 0, 0, -16 -16" transform="rotate(-90,856,696)"/><rect x="872" y="680" width="32" height="32" transform="rotate(0,888,696)"/><path d="M 904 680v 32h 32v -16a 16 16, 0, 0, 0, -16 -16" transform="rotate(90,920,696)"/><path d="M 1000 680v 32h 16a 16 16, 0, 0, 0, 0 -32" transform="rotate(180,1016,696)"/><rect x="1032" y="680" width="32" height="32" transform="rotate(0,1048,696)"/><circle cx="1112" cy="696" r="16" transform="rotate(0,1112,696)"/><path d="M 104 712v 32h 32v -16a 16 16, 0, 0, 0, -16 -16" transform="rotate(180,120,728)"/><rect x="136" y="712" width="32" height="32" transform="rotate(0,152,728)"/><rect x="168" y="712" width="32" height="32" transform="rotate(0,184,728)"/><path d="M 200 712v 32h 16a 16 16, 0, 0, 0, 0 -32" transform="rotate(0,216,728)"/><path d="M 296 712v 32h 16a 16 16, 0, 0, 0, 0 -32" transform="rotate(-90,312,728)"/><rect x="552" y="712" width="32" height="32" transform="rotate(0,568,728)"/><path d="M 616 712v 32h 16a 16 16, 0, 0, 0, 0 -32" transform="rotate(180,632,728)"/><path d="M 648 712v 32h 16a 16 16, 0, 0, 0, 0 -32" transform="rotate(0,664,728)"/><rect x="744" y="712" width="32" height="32" transform="rotate(0,760,728)"/><path d="M 808 712v 32h 16a 16 16, 0, 0, 0, 0 -32" transform="rotate(180,824,728)"/><rect x="840" y="712" width="32" height="32" transform="rotate(0,856,728)"/><rect x="872" y="712" width="32" height="32" transform="rotate(0,888,728)"/><path d="M 1032 712v 32h 16a 16 16, 0, 0, 0, 0 -32" transform="rotate(90,1048,728)"/><path d="M 1160 712v 32h 16a 16 16, 0, 0, 0, 0 -32" transform="rotate(-90,1176,728)"/><path d="M 40 744v 32h 16a 16 16, 0, 0, 0, 0 -32" transform="rotate(180,56,760)"/><path d="M 72 744v 32h 32v -16a 16 16, 0, 0, 0, -16 -16" transform="rotate(0,88,760)"/><rect x="296" y="744" width="32" height="32" transform="rotate(0,312,760)"/><circle cx="408" cy="760" r="16" transform="rotate(0,408,760)"/><path d="M 456 744v 32h 16a 16 16, 0, 0, 0, 0 -32" transform="rotate(-90,472,760)"/><path d="M 552 744v 32h 16a 16 16, 0, 0, 0, 0 -32" transform="rotate(90,568,760)"/><path d="M 712 744v 32h 16a 16 16, 0, 0, 0, 0 -32" transform="rotate(180,728,760)"/><rect x="744" y="744" width="32" height="32" transform="rotate(0,760,760)"/><path d="M 776 744v 32h 16a 16 16, 0, 0, 0, 0 -32" transform="rotate(0,792,760)"/><path d="M 840 744v 32h 32v -16a 16 16, 0, 0, 0, -16 -16" transform="rotate(180,856,760)"/><rect x="872" y="744" width="32" height="32" transform="rotate(0,888,760)"/><path d="M 904 744v 32h 32v -16a 16 16, 0, 0, 0, -16 -16" transform="rotate(0,920,760)"/><path d="M 968 744v 32h 32v -16a 16 16, 0, 0, 0, -16 -16" transform="rotate(-90,984,760)"/><path d="M 1000 744v 32h 32v -16a 16 16, 0, 0, 0, -16 -16" transform="rotate(0,1016,760)"/><path d="M 1064 744v 32h 16a 16 16, 0, 0, 0, 0 -32" transform="rotate(180,1080,760)"/><rect x="1096" y="744" width="32" height="32" transform="rotate(0,1112,760)"/><rect x="1128" y="744" width="32" height="32" transform="rotate(0,1144,760)"/><rect x="1160" y="744" width="32" height="32" transform="rotate(0,1176,760)"/><path d="M 8 776v 32h 16a 16 16, 0, 0, 0, 0 -32" transform="rotate(-90,24,792)"/><rect x="72" y="776" width="32" height="32" transform="rotate(0,88,792)"/><rect x="104" y="776" width="32" height="32" transform="rotate(0,120,792)"/><path d="M 136 776v 32h 32v -16a 16 16, 0, 0, 0, -16 -16" transform="rotate(0,152,792)"/><circle cx="216" cy="792" r="16" transform="rotate(0,216,792)"/><path d="M 264 776v 32h 32v -16a 16 16, 0, 0, 0, -16 -16" transform="rotate(-90,280,792)"/><rect x="296" y="776" width="32" height="32" transform="rotate(0,312,792)"/><path d="M 328 776v 32h 16a 16 16, 0, 0, 0, 0 -32" transform="rotate(0,344,792)"/><path d="M 424 776v 32h 32v -16a 16 16, 0, 0, 0, -16 -16" transform="rotate(-90,440,792)"/><rect x="456" y="776" width="32" height="32" transform="rotate(0,472,792)"/><circle cx="536" cy="792" r="16" transform="rotate(0,536,792)"/><path d="M 584 776v 32h 16a 16 16, 0, 0, 0, 0 -32" transform="rotate(-90,600,792)"/><path d="M 648 776v 32h 16a 16 16, 0, 0, 0, 0 -32" transform="rotate(-90,664,792)"/><rect x="744" y="776" width="32" height="32" transform="rotate(0,760,792)"/><rect x="904" y="776" width="32" height="32" transform="rotate(0,920,792)"/><path d="M 968 776v 32h 32v -16a 16 16, 0, 0, 0, -16 -16" transform="rotate(180,984,792)"/><path d="M 1000 776v 32h 32v -16a 16 16, 0, 0, 0, -16 -16" transform="rotate(90,1016,792)"/><path d="M 1160 776v 32h 16a 16 16, 0, 0, 0, 0 -32" transform="rotate(90,1176,792)"/><rect x="8" y="808" width="32" height="32" transform="rotate(0,24,824)"/><rect x="72" y="808" width="32" height="32" transform="rotate(0,88,824)"/><path d="M 136 808v 32h 16a 16 16, 0, 0, 0, 0 -32" transform="rotate(90,152,824)"/><path d="M 232 808v 32h 32v -16a 16 16, 0, 0, 0, -16 -16" transform="rotate(-90,248,824)"/><rect x="264" y="808" width="32" height="32" transform="rotate(0,280,824)"/><path d="M 296 808v 32h 32v -16a 16 16, 0, 0, 0, -16 -16" transform="rotate(90,312,824)"/><path d="M 360 808v 32h 16a 16 16, 0, 0, 0, 0 -32" transform="rotate(-90,376,824)"/><path d="M 424 808v 32h 32v -16a 16 16, 0, 0, 0, -16 -16" transform="rotate(180,440,824)"/><rect x="456" y="808" width="32" height="32" transform="rotate(0,472,824)"/><path d="M 552 808v 32h 16a 16 16, 0, 0, 0, 0 -32" transform="rotate(180,568,824)"/><rect x="584" y="808" width="32" height="32" transform="rotate(0,600,824)"/><path d="M 648 808v 32h 32v -16a 16 16, 0, 0, 0, -16 -16" transform="rotate(180,664,824)"/><rect x="680" y="808" width="32" height="32" transform="rotate(0,696,824)"/><rect x="712" y="808" width="32" height="32" transform="rotate(0,728,824)"/><path d="M 744 808v 32h 32v -16a 16 16, 0, 0, 0, -16 -16" transform="rotate(90,760,824)"/><circle cx="824" cy="824" r="16" transform="rotate(0,824,824)"/><path d="M 872 808v 32h 32v -16a 16 16, 0, 0, 0, -16 -16" transform="rotate(-90,888,824)"/><rect x="904" y="808" width="32" height="32" transform="rotate(0,920,824)"/><path d="M 936 808v 32h 16a 16 16, 0, 0, 0, 0 -32" transform="rotate(0,952,824)"/><path d="M 1032 808v 32h 32v -16a 16 16, 0, 0, 0, -16 -16" transform="rotate(-90,1048,824)"/><path d="M 1064 808v 32h 32v -16a 16 16, 0, 0, 0, -16 -16" transform="rotate(0,1080,824)"/><rect x="8" y="840" width="32" height="32" transform="rotate(0,24,856)"/><rect x="40" y="840" width="32" height="32" transform="rotate(0,56,856)"/><path d="M 72 840v 32h 32v -16a 16 16, 0, 0, 0, -16 -16" transform="rotate(90,88,856)"/><path d="M 168 840v 32h 16a 16 16, 0, 0, 0, 0 -32" transform="rotate(180,184,856)"/><rect x="200" y="840" width="32" height="32" transform="rotate(0,216,856)"/><rect x="232" y="840" width="32" height="32" transform="rotate(0,248,856)"/><path d="M 360 840v 32h 16a 16 16, 0, 0, 0, 0 -32" transform="rotate(90,376,856)"/><path d="M 456 840v 32h 16a 16 16, 0, 0, 0, 0 -32" transform="rotate(90,472,856)"/><path d="M 584 840v 32h 16a 16 16, 0, 0, 0, 0 -32" transform="rotate(90,600,856)"/><path d="M 680 840v 32h 16a 16 16, 0, 0, 0, 0 -32" transform="rotate(90,696,856)"/><circle cx="792" cy="856" r="16" transform="rotate(0,792,856)"/><rect x="872" y="840" width="32" height="32" transform="rotate(0,888,856)"/><path d="M 904 840v 32h 32v -16a 16 16, 0, 0, 0, -16 -16" transform="rotate(90,920,856)"/><circle cx="984" cy="856" r="16" transform="rotate(0,984,856)"/><rect x="1032" y="840" width="32" height="32" transform="rotate(0,1048,856)"/><rect x="1064" y="840" width="32" height="32" transform="rotate(0,1080,856)"/><rect x="1096" y="840" width="32" height="32" transform="rotate(0,1112,856)"/><rect x="1128" y="840" width="32" height="32" transform="rotate(0,1144,856)"/><path d="M 1160 840v 32h 32v -16a 16 16, 0, 0, 0, -16 -16" transform="rotate(0,1176,856)"/><rect x="8" y="872" width="32" height="32" transform="rotate(0,24,888)"/><rect x="232" y="872" width="32" height="32" transform="rotate(0,248,888)"/><path d="M 296 872v 32h 32v -16a 16 16, 0, 0, 0, -16 -16" transform="rotate(-90,312,888)"/><path d="M 328 872v 32h 16a 16 16, 0, 0, 0, 0 -32" transform="rotate(0,344,888)"/><path d="M 392 872v 32h 32v -16a 16 16, 0, 0, 0, -16 -16" transform="rotate(-90,408,888)"/><path d="M 424 872v 32h 16a 16 16, 0, 0, 0, 0 -32" transform="rotate(0,440,888)"/><path d="M 552 872v 32h 16a 16 16, 0, 0, 0, 0 -32" transform="rotate(-90,568,888)"/><path d="M 616 872v 32h 16a 16 16, 0, 0, 0, 0 -32" transform="rotate(180,632,888)"/><path d="M 648 872v 32h 32v -16a 16 16, 0, 0, 0, -16 -16" transform="rotate(0,664,888)"/><circle cx="760" cy="888" r="16" transform="rotate(0,760,888)"/><rect x="872" y="872" width="32" height="32" transform="rotate(0,888,888)"/><path d="M 936 872v 32h 16a 16 16, 0, 0, 0, 0 -32" transform="rotate(-90,952,888)"/><rect x="1032" y="872" width="32" height="32" transform="rotate(0,1048,888)"/><rect x="1064" y="872" width="32" height="32" transform="rotate(0,1080,888)"/><rect x="1096" y="872" width="32" height="32" transform="rotate(0,1112,888)"/><rect x="1160" y="872" width="32" height="32" transform="rotate(0,1176,888)"/><path d="M 8 904v 32h 16a 16 16, 0, 0, 0, 0 -32" transform="rotate(90,24,920)"/><circle cx="120" cy="920" r="16" transform="rotate(0,120,920)"/><path d="M 168 904v 32h 16a 16 16, 0, 0, 0, 0 -32" transform="rotate(180,184,920)"/><rect x="200" y="904" width="32" height="32" transform="rotate(0,216,920)"/><path d="M 232 904v 32h 32v -16a 16 16, 0, 0, 0, -16 -16" transform="rotate(90,248,920)"/><path d="M 296 904v 32h 16a 16 16, 0, 0, 0, 0 -32" transform="rotate(90,312,920)"/><rect x="392" y="904" width="32" height="32" transform="rotate(0,408,920)"/><path d="M 552 904v 32h 32v -16a 16 16, 0, 0, 0, -16 -16" transform="rotate(180,568,920)"/><path d="M 584 904v 32h 32v -16a 16 16, 0, 0, 0, -16 -16" transform="rotate(0,600,920)"/><path d="M 648 904v 32h 16a 16 16, 0, 0, 0, 0 -32" transform="rotate(90,664,920)"/><circle cx="728" cy="920" r="16" transform="rotate(0,728,920)"/><path d="M 776 904v 32h 16a 16 16, 0, 0, 0, 0 -32" transform="rotate(180,792,920)"/><path d="M 808 904v 32h 32v -16a 16 16, 0, 0, 0, -16 -16" transform="rotate(0,824,920)"/><path d="M 872 904v 32h 32v -16a 16 16, 0, 0, 0, -16 -16" transform="rotate(180,888,920)"/><rect x="904" y="904" width="32" height="32" transform="rotate(0,920,920)"/><rect x="936" y="904" width="32" height="32" transform="rotate(0,952,920)"/><rect x="968" y="904" width="32" height="32" transform="rotate(0,984,920)"/><rect x="1000" y="904" width="32" height="32" transform="rotate(0,1016,920)"/><rect x="1032" y="904" width="32" height="32" transform="rotate(0,1048,920)"/><rect x="1064" y="904" width="32" height="32" transform="rotate(0,1080,920)"/><rect x="1096" y="904" width="32" height="32" transform="rotate(0,1112,920)"/><path d="M 1160 904v 32h 16a 16 16, 0, 0, 0, 0 -32" transform="rotate(90,1176,920)"/><circle cx="280" cy="952" r="16" transform="rotate(0,280,952)"/><rect x="392" y="936" width="32" height="32" transform="rotate(0,408,952)"/><path d="M 456 936v 32h 16a 16 16, 0, 0, 0, 0 -32" transform="rotate(180,472,952)"/><path d="M 488 936v 32h 16a 16 16, 0, 0, 0, 0 -32" transform="rotate(0,504,952)"/><rect x="584" y="936" width="32" height="32" transform="rotate(0,600,952)"/><path d="M 616 936v 32h 16a 16 16, 0, 0, 0, 0 -32" transform="rotate(0,632,952)"/><circle cx="696" cy="952" r="16" transform="rotate(0,696,952)"/><rect x="808" y="936" width="32" height="32" transform="rotate(0,824,952)"/><path d="M 840 936v 32h 32v -16a 16 16, 0, 0, 0, -16 -16" transform="rotate(0,856,952)"/><rect x="904" y="936" width="32" height="32" transform="rotate(0,920,952)"/><rect x="1032" y="936" width="32" height="32" transform="rotate(0,1048,952)"/><rect x="1064" y="936" width="32" height="32" transform="rotate(0,1080,952)"/><rect x="1096" y="936" width="32" height="32" transform="rotate(0,1112,952)"/><path d="M 1128 936v 32h 16a 16 16, 0, 0, 0, 0 -32" transform="rotate(0,1144,952)"/><rect x="392" y="968" width="32" height="32" transform="rotate(0,408,984)"/><path d="M 424 968v 32h 16a 16 16, 0, 0, 0, 0 -32" transform="rotate(0,440,984)"/><path d="M 520 968v 32h 16a 16 16, 0, 0, 0, 0 -32" transform="rotate(-90,536,984)"/><path d="M 584 968v 32h 16a 16 16, 0, 0, 0, 0 -32" transform="rotate(90,600,984)"/><circle cx="664" cy="984" r="16" transform="rotate(0,664,984)"/><circle cx="760" cy="984" r="16" transform="rotate(0,760,984)"/><rect x="808" y="968" width="32" height="32" transform="rotate(0,824,984)"/><path d="M 840 968v 32h 32v -16a 16 16, 0, 0, 0, -16 -16" transform="rotate(90,856,984)"/><rect x="904" y="968" width="32" height="32" transform="rotate(0,920,984)"/><circle cx="984" cy="984" r="16" transform="rotate(0,984,984)"/><rect x="1032" y="968" width="32" height="32" transform="rotate(0,1048,984)"/><rect x="1064" y="968" width="32" height="32" transform="rotate(0,1080,984)"/><path d="M 1096 968v 32h 32v -16a 16 16, 0, 0, 0, -16 -16" transform="rotate(90,1112,984)"/><circle cx="1176" cy="984" r="16" transform="rotate(0,1176,984)"/><path d="M 264 1000v 32h 16a 16 16, 0, 0, 0, 0 -32" transform="rotate(-90,280,1016)"/><path d="M 392 1000v 32h 16a 16 16, 0, 0, 0, 0 -32" transform="rotate(90,408,1016)"/><path d="M 488 1000v 32h 32v -16a 16 16, 0, 0, 0, -16 -16" transform="rotate(-90,504,1016)"/><rect x="520" y="1000" width="32" height="32" transform="rotate(0,536,1016)"/><path d="M 552 1000v 32h 16a 16 16, 0, 0, 0, 0 -32" transform="rotate(0,568,1016)"/><path d="M 616 1000v 32h 16a 16 16, 0, 0, 0, 0 -32" transform="rotate(-90,632,1016)"/><path d="M 680 1000v 32h 16a 16 16, 0, 0, 0, 0 -32" transform="rotate(-90,696,1016)"/><path d="M 808 1000v 32h 16a 16 16, 0, 0, 0, 0 -32" transform="rotate(90,824,1016)"/><path d="M 872 1000v 32h 32v -16a 16 16, 0, 0, 0, -16 -16" transform="rotate(-90,888,1016)"/><rect x="904" y="1000" width="32" height="32" transform="rotate(0,920,1016)"/><rect x="1032" y="1000" width="32" height="32" transform="rotate(0,1048,1016)"/><path d="M 1064 1000v 32h 32v -16a 16 16, 0, 0, 0, -16 -16" transform="rotate(90,1080,1016)"/><rect x="264" y="1032" width="32" height="32" transform="rotate(0,280,1048)"/><path d="M 328 1032v 32h 32v -16a 16 16, 0, 0, 0, -16 -16" transform="rotate(-90,344,1048)"/><path d="M 360 1032v 32h 32v -16a 16 16, 0, 0, 0, -16 -16" transform="rotate(0,376,1048)"/><circle cx="440" cy="1048" r="16" transform="rotate(0,440,1048)"/><rect x="488" y="1032" width="32" height="32" transform="rotate(0,504,1048)"/><rect x="520" y="1032" width="32" height="32" transform="rotate(0,536,1048)"/><path d="M 616 1032v 32h 32v -16a 16 16, 0, 0, 0, -16 -16" transform="rotate(180,632,1048)"/><rect x="648" y="1032" width="32" height="32" transform="rotate(0,664,1048)"/><path d="M 680 1032v 32h 32v -16a 16 16, 0, 0, 0, -16 -16" transform="rotate(90,696,1048)"/><path d="M 840 1032v 32h 32v -16a 16 16, 0, 0, 0, -16 -16" transform="rotate(-90,856,1048)"/><rect x="872" y="1032" width="32" height="32" transform="rotate(0,888,1048)"/><rect x="904" y="1032" width="32" height="32" transform="rotate(0,920,1048)"/><rect x="936" y="1032" width="32" height="32" transform="rotate(0,952,1048)"/><rect x="968" y="1032" width="32" height="32" transform="rotate(0,984,1048)"/><rect x="1000" y="1032" width="32" height="32" transform="rotate(0,1016,1048)"/><path d="M 1032 1032v 32h 32v -16a 16 16, 0, 0, 0, -16 -16" transform="rotate(90,1048,1048)"/><circle cx="1176" cy="1048" r="16" transform="rotate(0,1176,1048)"/><path d="M 264 1064v 32h 16a 16 16, 0, 0, 0, 0 -32" transform="rotate(90,280,1080)"/><rect x="328" y="1064" width="32" height="32" transform="rotate(0,344,1080)"/><path d="M 360 1064v 32h 32v -16a 16 16, 0, 0, 0, -16 -16" transform="rotate(90,376,1080)"/><path d="M 456 1064v 32h 16a 16 16, 0, 0, 0, 0 -32" transform="rotate(180,472,1080)"/><rect x="488" y="1064" width="32" height="32" transform="rotate(0,504,1080)"/><rect x="520" y="1064" width="32" height="32" transform="rotate(0,536,1080)"/><rect x="552" y="1064" width="32" height="32" transform="rotate(0,568,1080)"/><path d="M 584 1064v 32h 16a 16 16, 0, 0, 0, 0 -32" transform="rotate(0,600,1080)"/><path d="M 648 1064v 32h 16a 16 16, 0, 0, 0, 0 -32" transform="rotate(90,664,1080)"/><path d="M 712 1064v 32h 16a 16 16, 0, 0, 0, 0 -32" transform="rotate(180,728,1080)"/><path d="M 744 1064v 32h 32v -16a 16 16, 0, 0, 0, -16 -16" transform="rotate(0,760,1080)"/><path d="M 808 1064v 32h 16a 16 16, 0, 0, 0, 0 -32" transform="rotate(180,824,1080)"/><path d="M 840 1064v 32h 32v -16a 16 16, 0, 0, 0, -16 -16" transform="rotate(90,856,1080)"/><rect x="904" y="1064" width="32" height="32" transform="rotate(0,920,1080)"/><path d="M 968 1064v 32h 16a 16 16, 0, 0, 0, 0 -32" transform="rotate(90,984,1080)"/><path d="M 1064 1064v 32h 16a 16 16, 0, 0, 0, 0 -32" transform="rotate(-90,1080,1080)"/><path d="M 1128 1064v 32h 16a 16 16, 0, 0, 0, 0 -32" transform="rotate(-90,1144,1080)"/><path d="M 328 1096v 32h 16a 16 16, 0, 0, 0, 0 -32" transform="rotate(90,344,1112)"/><path d="M 424 1096v 32h 16a 16 16, 0, 0, 0, 0 -32" transform="rotate(-90,440,1112)"/><rect x="552" y="1096" width="32" height="32" transform="rotate(0,568,1112)"/><rect x="744" y="1096" width="32" height="32" transform="rotate(0,760,1112)"/><path d="M 904 1096v 32h 16a 16 16, 0, 0, 0, 0 -32" transform="rotate(90,920,1112)"/><path d="M 1000 1096v 32h 16a 16 16, 0, 0, 0, 0 -32" transform="rotate(180,1016,1112)"/><rect x="1032" y="1096" width="32" height="32" transform="rotate(0,1048,1112)"/><rect x="1064" y="1096" width="32" height="32" transform="rotate(0,1080,1112)"/><rect x="1128" y="1096" width="32" height="32" transform="rotate(0,1144,1112)"/><path d="M 1160 1096v 32h 32v -16a 16 16, 0, 0, 0, -16 -16" transform="rotate(0,1176,1112)"/><circle cx="280" cy="1144" r="16" transform="rotate(0,280,1144)"/><path d="M 360 1128v 32h 32v -16a 16 16, 0, 0, 0, -16 -16" transform="rotate(-90,376,1144)"/><rect x="392" y="1128" width="32" height="32" transform="rotate(0,408,1144)"/><rect x="424" y="1128" width="32" height="32" transform="rotate(0,440,1144)"/><circle cx="504" cy="1144" r="16" transform="rotate(0,504,1144)"/><rect x="552" y="1128" width="32" height="32" transform="rotate(0,568,1144)"/><rect x="744" y="1128" width="32" height="32" transform="rotate(0,760,1144)"/><circle cx="856" cy="1144" r="16" transform="rotate(0,856,1144)"/><path d="M 936 1128v 32h 16a 16 16, 0, 0, 0, 0 -32" transform="rotate(180,952,1144)"/><path d="M 968 1128v 32h 16a 16 16, 0, 0, 0, 0 -32" transform="rotate(0,984,1144)"/><rect x="1032" y="1128" width="32" height="32" transform="rotate(0,1048,1144)"/><rect x="1064" y="1128" width="32" height="32" transform="rotate(0,1080,1144)"/><rect x="1096" y="1128" width="32" height="32" transform="rotate(0,1112,1144)"/><rect x="1128" y="1128" width="32" height="32" transform="rotate(0,1144,1144)"/><rect x="1160" y="1128" width="32" height="32" transform="rotate(0,1176,1144)"/><path d="M 328 1160v 32h 16a 16 16, 0, 0, 0, 0 -32" transform="rotate(180,344,1176)"/><rect x="360" y="1160" width="32" height="32" transform="rotate(0,376,1176)"/><rect x="392" y="1160" width="32" height="32" transform="rotate(0,408,1176)"/><rect x="424" y="1160" width="32" height="32" transform="rotate(0,440,1176)"/><path d="M 456 1160v 32h 16a 16 16, 0, 0, 0, 0 -32" transform="rotate(0,472,1176)"/><path d="M 552 1160v 32h 32v -16a 16 16, 0, 0, 0, -16 -16" transform="rotate(180,568,1176)"/><rect x="584" y="1160" width="32" height="32" transform="rotate(0,600,1176)"/><path d="M 616 1160v 32h 16a 16 16, 0, 0, 0, 0 -32" transform="rotate(0,632,1176)"/><path d="M 744 1160v 32h 32v -16a 16 16, 0, 0, 0, -16 -16" transform="rotate(180,760,1176)"/><path d="M 776 1160v 32h 16a 16 16, 0, 0, 0, 0 -32" transform="rotate(0,792,1176)"/><circle cx="920" cy="1176" r="16" transform="rotate(0,920,1176)"/><path d="M 1000 1160v 32h 16a 16 16, 0, 0, 0, 0 -32" transform="rotate(180,1016,1176)"/><path d="M 1032 1160v 32h 32v -16a 16 16, 0, 0, 0, -16 -16" transform="rotate(90,1048,1176)"/><path d="M 1160 1160v 32h 16a 16 16, 0, 0, 0, 0 -32" transform="rotate(90,1176,1176)"/></clipPath><clipPath id="clip-path-corners-square-color-0-0-407"><path clip-rule="evenodd" d="M 8 88v 64a 80 80, 0, 0, 0, 80 80h 64a 80 80, 0, 0, 0, 80 -80v -64a 80 80, 0, 0, 0, -80 -80h -64a 80 80, 0, 0, 0, -80 80M 88 40h 64a 48 48, 0, 0, 1, 48 48v 64a 48 48, 0, 0, 1, -48 48h -64a 48 48, 0, 0, 1, -48 -48v -64a 48 48, 0, 0, 1, 48 -48" transform="rotate(0,120,120)"/></clipPath><clipPath id="clip-path-corners-dot-color-0-0-407"><circle cx="120" cy="120" r="48" transform="rotate(0,120,120)"/></clipPath><clipPath id="clip-path-corners-square-color-1-0-407"><path clip-rule="evenodd" d="M 968 88v 64a 80 80, 0, 0, 0, 80 80h 64a 80 80, 0, 0, 0, 80 -80v -64a 80 80, 0, 0, 0, -80 -80h -64a 80 80, 0, 0, 0, -80 80M 1048 40h 64a 48 48, 0, 0, 1, 48 48v 64a 48 48, 0, 0, 1, -48 48h -64a 48 48, 0, 0, 1, -48 -48v -64a 48 48, 0, 0, 1, 48 -48" transform="rotate(90,1080,120)"/></clipPath><clipPath id="clip-path-corners-dot-color-1-0-407"><circle cx="1080" cy="120" r="48" transform="rotate(90,1080,120)"/></clipPath><clipPath id="clip-path-corners-square-color-0-1-407"><path clip-rule="evenodd" d="M 8 1048v 64a 80 80, 0, 0, 0, 80 80h 64a 80 80, 0, 0, 0, 80 -80v -64a 80 80, 0, 0, 0, -80 -80h -64a 80 80, 0, 0, 0, -80 80M 88 1000h 64a 48 48, 0, 0, 1, 48 48v 64a 48 48, 0, 0, 1, -48 48h -64a 48 48, 0, 0, 1, -48 -48v -64a 48 48, 0, 0, 1, 48 -48" transform="rotate(-90,120,1080)"/></clipPath><clipPath id="clip-path-corners-dot-color-0-1-407"><circle cx="120" cy="1080" r="48" transform="rotate(-90,120,1080)"/></clipPath></defs><rect x="0" y="0" height="1200" width="1200" clip-path="url('#clip-path-background-color-407')" fill="#ffffff"/><rect x="0" y="0" height="1200" width="1200" clip-path="url('#clip-path-dot-color-407')" fill="#000000"/><rect x="8" y="8" height="224" width="224" clip-path="url('#clip-path-corners-square-color-0-0-407')" fill="#000000"/><rect x="72" y="72" height="96" width="96" clip-path="url('#clip-path-corners-dot-color-0-0-407')" fill="#000000"/><rect x="968" y="8" height="224" width="224" clip-path="url('#clip-path-corners-square-color-1-0-407')" fill="#000000"/><rect x="1032" y="72" height="96" width="96" clip-path="url('#clip-path-corners-dot-color-1-0-407')" fill="#000000"/><rect x="8" y="968" height="224" width="224" clip-path="url('#clip-path-corners-square-color-0-1-407')" fill="#000000"/><rect x="72" y="1032" height="96" width="96" clip-path="url('#clip-path-corners-dot-color-0-1-407')" fill="#000000"/></svg>