<?xml version="1.0" standalone="no"?>
<svg xmlns="http://www.w3.org/2000/svg" width="1200" height="1200" xmlns:xlink="http://www.w3.org/1999/xlink" viewBox="0 0 1200 1200"><defs><clipPath id="clip-path-background-color-397"><rect x="0" y="0" width="1200" height="1200"/></clipPath><clipPath id="clip-path-dot-color-397"><circle cx="264" cy="40" r="14" transform="rotate(0,264,40)"/><path d="M 306 26v 28h 28v -14a 14 14, 0, 0, 0, -14 -14" transform="rotate(-90,320,40)"/><rect x="334" y="26" width="28" height="28" transform="rotate(0,348,40)"/><rect x="362" y="26" width="28" height="28" transform="rotate(0,376,40)"/><rect x="390" y="26" width="28" height="28" transform="rotate(0,404,40)"/><path d="M 418 26v 28h 14a 14 14, 0, 0, 0, 0 -28" transform="rotate(0,432,40)"/><path d="M 474 26v 28h 28v -14a 14 14, 0, 0, 0, -14 -14" transform="rotate(-90,488,40)"/><path d="M 502 26v 28h 28v -14a 14 14, 0, 0, 0, -14 -14" transform="rotate(0,516,40)"/><circle cx="600" cy="40" r="14" transform="rotate(0,600,40)"/><path d="M 810 26v 28h 28v -14a 14 14, 0, 0, 0, -14 -14" transform="rotate(-90,824,40)"/><path d="M 838 26v 28h 28v -14a 14 14, 0, 0, 0, -14 -14" transform="rotate(0,852,40)"/><path d="M 894 26v 28h 14a 14 14, 0, 0, 0, 0 -28" transform="rotate(180,908,40)"/><path d="M 922 26v 28h 28v -14a 14 14, 0, 0, 0, -14 -14" transform="rotate(0,936,40)"/><path d="M 306 54v 28h 28v -14a 14 14, 0, 0, 0, -14 -14" transform="rotate(180,320,68)"/><path d="M 334 54v 28h 28v -14a 14 14, 0, 0, 0, -14 -14" transform="rotate(90,348,68)"/><path d="M 390 54v 28h 14a 14 14, 0, 0, 0, 0 -28" transform="rotate(90,404,68)"/><path d="M 446 54v 28h 14a 14 14, 0, 0, 0, 0 -28" transform="rotate(180,460,68)"/><rect x="474" y="54" width="28" height="28" transform="rotate(0,488,68)"/><rect x="502" y="54" width="28" height="28" transform="rotate(0,516,68)"/><rect x="530" y="54" width="28" height="28" transform="rotate(0,544,68)"/><path d="M 558 54v 28h 28v -14a 14 14, 0, 0, 0, -14 -14" transform="rotate(0,572,68)"/><circle cx="628" cy="68" r="14" transform="rotate(0,628,68)"/><path d="M 670 54v 28h 28v -14a 14 14, 0, 0, 0, -14 -14" transform="rotate(-90,684,68)"/><path d="M 698 54v 28h 28v -14a 14 14, 0, 0, 0, -14 -14" transform="rotate(0,712,68)"/><path d="M 782 54v 28h 14a 14 14, 0, 0, 0, 0 -28" transform="rotate(180,796,68)"/><rect x="810" y="54" width="28" height="28" transform="rotate(0,824,68)"/><rect x="838" y="54" width="28" height="28" transform="rotate(0,852,68)"/><path d="M 922 54v 28h 14a 14 14, 0, 0, 0, 0 -28" transform="rotate(90,936,68)"/><path d="M 362 82v 28h 14a 14 14, 0, 0, 0, 0 -28" transform="rotate(-90,376,96)"/><path d="M 418 82v 28h 14a 14 14, 0, 0, 0, 0 -28" transform="rotate(-90,432,96)"/><path d="M 558 82v 28h 14a 14 14, 0, 0, 0, 0 -28" transform="rotate(90,572,96)"/><path d="M 642 82v 28h 14a 14 14, 0, 0, 0, 0 -28" transform="rotate(180,656,96)"/><rect x="670" y="82" width="28" height="28" transform="rotate(0,684,96)"/><rect x="698" y="82" width="28" height="28" transform="rotate(0,712,96)"/><circle cx="768" cy="96" r="14" transform="rotate(0,768,96)"/><path d="M 838 82v 28h 28v -14a 14 14, 0, 0, 0, -14 -14" transform="rotate(180,852,96)"/><path d="M 866 82v 28h 14a 14 14, 0, 0, 0, 0 -28" transform="rotate(0,880,96)"/><path d="M 306 110v 28h 28v -14a 14 14, 0, 0, 0, -14 -14" transform="rotate(-90,320,124)"/><rect x="334" y="110" width="28" height="28" transform="rotate(0,348,124)"/><rect x="362" y="110" width="28" height="28" transform="rotate(0,376,124)"/><rect x="390" y="110" width="28" height="28" transform="rotate(0,404,124)"/><rect x="418" y="110" width="28" height="28" transform="rotate(0,432,124)"/><path d="M 446 110v 28h 28v -14a 14 14, 0, 0, 0, -14 -14" transform="rotate(0,460,124)"/><path d="M 586 110v 28h 14a 14 14, 0, 0, 0, 0 -28" transform="rotate(-90,600,124)"/><rect x="698" y="110" width="28" height="28" transform="rotate(0,712,124)"/><circle cx="796" cy="124" r="14" transform="rotate(0,796,124)"/><path d="M 894 110v 28h 28v -14a 14 14, 0, 0, 0, -14 -14" transform="rotate(-90,908,124)"/><path d="M 922 110v 28h 28v -14a 14 14, 0, 0, 0, -14 -14" transform="rotate(0,936,124)"/><path d="M 250 138v 28h 14a 14 14, 0, 0, 0, 0 -28" transform="rotate(-90,264,152)"/><rect x="306" y="138" width="28" height="28" transform="rotate(0,320,152)"/><rect x="446" y="138" width="28" height="28" transform="rotate(0,460,152)"/><path d="M 530 138v 28h 28v -14a 14 14, 0, 0, 0, -14 -14" transform="rotate(-90,544,152)"/><rect x="558" y="138" width="28" height="28" transform="rotate(0,572,152)"/><rect x="586" y="138" width="28" height="28" transform="rotate(0,600,152)"/><path d="M 614 138v 28h 14a 14 14, 0, 0, 0, 0 -28" transform="rotate(0,628,152)"/><path d="M 698 138v 28h 14a 14 14, 0, 0, 0, 0 -28" transform="rotate(90,712,152)"/><circle cx="768" cy="152" r="14" transform="rotate(0,768,152)"/><circle cx="824" cy="152" r="14" transform="rotate(0,824,152)"/><path d="M 866 138v 28h 28v -14a 14 14, 0, 0, 0, -14 -14" transform="rotate(-90,880,152)"/><rect x="894" y="138" width="28" height="28" transform="rotate(0,908,152)"/><rect x="922" y="138" width="28" height="28" transform="rotate(0,936,152)"/><rect x="250" y="166" width="28" height="28" transform="rotate(0,264,180)"/><rect x="278" y="166" width="28" height="28" transform="rotate(0,292,180)"/><rect x="306" y="166" width="28" height="28" transform="rotate(0,320,180)"/><rect x="334" y="166" width="28" height="28" transform="rotate(0,348,180)"/><path d="M 362 166v 28h 28v -14a 14 14, 0, 0, 0, -14 -14" transform="rotate(0,376,180)"/><path d="M 446 166v 28h 14a 14 14, 0, 0, 0, 0 -28" transform="rotate(90,460,180)"/><path d="M 502 166v 28h 14a 14 14, 0, 0, 0, 0 -28" transform="rotate(180,516,180)"/><rect x="530" y="166" width="28" height="28" transform="rotate(0,544,180)"/><path d="M 558 166v 28h 28v -14a 14 14, 0, 0, 0, -14 -14" transform="rotate(90,572,180)"/><circle cx="684" cy="180" r="14" transform="rotate(0,684,180)"/><circle cx="740" cy="180" r="14" transform="rotate(0,740,180)"/><circle cx="796" cy="180" r="14" transform="rotate(0,796,180)"/><path d="M 838 166v 28h 14a 14 14, 0, 0, 0, 0 -28" transform="rotate(180,852,180)"/><rect x="866" y="166" width="28" height="28" transform="rotate(0,880,180)"/><rect x="922" y="166" width="28" height="28" transform="rotate(0,936,180)"/><path d="M 250 194v 28h 14a 14 14, 0, 0, 0, 0 -28" transform="rotate(90,264,208)"/><rect x="306" y="194" width="28" height="28" transform="rotate(0,320,208)"/><path d="M 362 194v 28h 14a 14 14, 0, 0, 0, 0 -28" transform="rotate(90,376,208)"/><circle cx="432" cy="208" r="14" transform="rotate(0,432,208)"/><circle cx="488" cy="208" r="14" transform="rotate(0,488,208)"/><rect x="530" y="194" width="28" height="28" transform="rotate(0,544,208)"/><path d="M 586 194v 28h 14a 14 14, 0, 0, 0, 0 -28" transform="rotate(-90,600,208)"/><path d="M 642 194v 28h 14a 14 14, 0, 0, 0, 0 -28" transform="rotate(-90,656,208)"/><path d="M 698 194v 28h 14a 14 14, 0, 0, 0, 0 -28" transform="rotate(-90,712,208)"/><circle cx="768" cy="208" r="14" transform="rotate(0,768,208)"/><circle cx="824" cy="208" r="14" transform="rotate(0,824,208)"/><path d="M 866 194v 28h 14a 14 14, 0, 0, 0, 0 -28" transform="rotate(90,880,208)"/><rect x="922" y="194" width="28" height="28" transform="rotate(0,936,208)"/><path d="M 306 222v 28h 14a 14 14, 0, 0, 0, 0 -28" transform="rotate(90,320,236)"/><circle cx="404" cy="236" r="14" transform="rotate(0,404,236)"/><circle cx="460" cy="236" r="14" transform="rotate(0,460,236)"/><path d="M 502 222v 28h 28v -14a 14 14, 0, 0, 0, -14 -14" transform="rotate(-90,516,236)"/><rect x="530" y="222" width="28" height="28" transform="rotate(0,544,236)"/><path d="M 586 222v 28h 14a 14 14, 0, 0, 0, 0 -28" transform="rotate(90,600,236)"/><path d="M 642 222v 28h 14a 14 14, 0, 0, 0, 0 -28" transform="rotate(90,656,236)"/><rect x="698" y="222" width="28" height="28" transform="rotate(0,712,236)"/><path d="M 922 222v 28h 14a 14 14, 0, 0, 0, 0 -28" transform="rotate(90,936,236)"/><path d="M 54 250v 28h 28v -14a 14 14, 0, 0, 0, -14 -14" transform="rotate(-90,68,264)"/><rect x="82" y="250" width="28" height="28" transform="rotate(0,96,264)"/><rect x="110" y="250" width="28" height="28" transform="rotate(0,124,264)"/><rect x="138" y="250" width="28" height="28" transform="rotate(0,152,264)"/><rect x="166" y="250" width="28" height="28" transform="rotate(0,180,264)"/><rect x="194" y="250" width="28" height="28" transform="rotate(0,208,264)"/><path d="M 222 250v 28h 28v -14a 14 14, 0, 0, 0, -14 -14" transform="rotate(0,236,264)"/><circle cx="292" cy="264" r="14" transform="rotate(0,292,264)"/><path d="M 334 250v 28h 14a 14 14, 0, 0, 0, 0 -28" transform="rotate(180,348,264)"/><path d="M 362 250v 28h 28v -14a 14 14, 0, 0, 0, -14 -14" transform="rotate(0,376,264)"/><path d="M 418 250v 28h 14a 14 14, 0, 0, 0, 0 -28" transform="rotate(-90,432,264)"/><rect x="502" y="250" width="28" height="28" transform="rotate(0,516,264)"/><rect x="530" y="250" width="28" height="28" transform="rotate(0,544,264)"/><path d="M 558 250v 28h 14a 14 14, 0, 0, 0, 0 -28" transform="rotate(0,572,264)"/><path d="M 698 250v 28h 28v -14a 14 14, 0, 0, 0, -14 -14" transform="rotate(180,712,264)"/><rect x="726" y="250" width="28" height="28" transform="rotate(0,740,264)"/><rect x="754" y="250" width="28" height="28" transform="rotate(0,768,264)"/><rect x="782" y="250" width="28" height="28" transform="rotate(0,796,264)"/><rect x="810" y="250" width="28" height="28" transform="rotate(0,824,264)"/><path d="M 838 250v 28h 14a 14 14, 0, 0, 0, 0 -28" transform="rotate(0,852,264)"/><path d="M 1006 250v 28h 14a 14 14, 0, 0, 0, 0 -28" transform="rotate(180,1020,264)"/><path d="M 1034 250v 28h 28v -14a 14 14, 0, 0, 0, -14 -14" transform="rotate(0,1048,264)"/><path d="M 1146 250v 28h 14a 14 14, 0, 0, 0, 0 -28" transform="rotate(-90,1160,264)"/><path d="M 26 278v 28h 14a 14 14, 0, 0, 0, 0 -28" transform="rotate(180,40,292)"/><rect x="54" y="278" width="28" height="28" transform="rotate(0,68,292)"/><rect x="82" y="278" width="28" height="28" transform="rotate(0,96,292)"/><rect x="110" y="278" width="28" height="28" transform="rotate(0,124,292)"/><path d="M 222 278v 28h 28v -14a 14 14, 0, 0, 0, -14 -14" transform="rotate(180,236,292)"/><path d="M 250 278v 28h 28v -14a 14 14, 0, 0, 0, -14 -14" transform="rotate(0,264,292)"/><circle cx="320" cy="292" r="14" transform="rotate(0,320,292)"/><rect x="362" y="278" width="28" height="28" transform="rotate(0,376,292)"/><rect x="390" y="278" width="28" height="28" transform="rotate(0,404,292)"/><path d="M 418 278v 28h 28v -14a 14 14, 0, 0, 0, -14 -14" transform="rotate(90,432,292)"/><path d="M 474 278v 28h 14a 14 14, 0, 0, 0, 0 -28" transform="rotate(180,488,292)"/><rect x="502" y="278" width="28" height="28" transform="rotate(0,516,292)"/><rect x="530" y="278" width="28" height="28" transform="rotate(0,544,292)"/><path d="M 586 278v 28h 14a 14 14, 0, 0, 0, 0 -28" transform="rotate(-90,600,292)"/><circle cx="684" cy="292" r="14" transform="rotate(0,684,292)"/><rect x="810" y="278" width="28" height="28" transform="rotate(0,824,292)"/><path d="M 894 278v 28h 14a 14 14, 0, 0, 0, 0 -28" transform="rotate(180,908,292)"/><rect x="922" y="278" width="28" height="28" transform="rotate(0,936,292)"/><rect x="950" y="278" width="28" height="28" transform="rotate(0,964,292)"/><path d="M 978 278v 28h 14a 14 14, 0, 0, 0, 0 -28" transform="rotate(0,992,292)"/><rect x="1034" y="278" width="28" height="28" transform="rotate(0,1048,292)"/><circle cx="1104" cy="292" r="14" transform="rotate(0,1104,292)"/><path d="M 1146 278v 28h 14a 14 14, 0, 0, 0, 0 -28" transform="rotate(90,1160,292)"/><rect x="82" y="306" width="28" height="28" transform="rotate(0,96,320)"/><rect x="110" y="306" width="28" height="28" transform="rotate(0,124,320)"/><rect x="138" y="306" width="28" height="28" transform="rotate(0,152,320)"/><rect x="166" y="306" width="28" height="28" transform="rotate(0,180,320)"/><path d="M 194 306v 28h 14a 14 14, 0, 0, 0, 0 -28" transform="rotate(0,208,320)"/><path d="M 250 306v 28h 14a 14 14, 0, 0, 0, 0 -28" transform="rotate(90,264,320)"/><rect x="362" y="306" width="28" height="28" transform="rotate(0,376,320)"/><circle cx="460" cy="320" r="14" transform="rotate(0,460,320)"/><path d="M 530 306v 28h 28v -14a 14 14, 0, 0, 0, -14 -14" transform="rotate(180,544,320)"/><rect x="558" y="306" width="28" height="28" transform="rotate(0,572,320)"/><rect x="586" y="306" width="28" height="28" transform="rotate(0,600,320)"/><path d="M 614 306v 28h 28v -14a 14 14, 0, 0, 0, -14 -14" transform="rotate(0,628,320)"/><path d="M 754 306v 28h 14a 14 14, 0, 0, 0, 0 -28" transform="rotate(180,768,320)"/><rect x="782" y="306" width="28" height="28" transform="rotate(0,796,320)"/><rect x="810" y="306" width="28" height="28" transform="rotate(0,824,320)"/><rect x="838" y="306" width="28" height="28" transform="rotate(0,852,320)"/><path d="M 866 306v 28h 28v -14a 14 14, 0, 0, 0, -14 -14" transform="rotate(0,880,320)"/><rect x="922" y="306" width="28" height="28" transform="rotate(0,936,320)"/><rect x="1034" y="306" width="28" height="28" transform="rotate(0,1048,320)"/><path d="M 54 334v 28h 14a 14 14, 0, 0, 0, 0 -28" transform="rotate(180,68,348)"/><rect x="82" y="334" width="28" height="28" transform="rotate(0,96,348)"/><rect x="110" y="334" width="28" height="28" transform="rotate(0,124,348)"/><path d="M 166 334v 28h 14a 14 14, 0, 0, 0, 0 -28" transform="rotate(90,180,348)"/><path d="M 278 334v 28h 14a 14 14, 0, 0, 0, 0 -28" transform="rotate(180,292,348)"/><rect x="306" y="334" width="28" height="28" transform="rotate(0,320,348)"/><rect x="334" y="334" width="28" height="28" transform="rotate(0,348,348)"/><rect x="362" y="334" width="28" height="28" transform="rotate(0,376,348)"/><path d="M 390 334v 28h 28v -14a 14 14, 0, 0, 0, -14 -14" transform="rotate(0,404,348)"/><path d="M 502 334v 28h 14a 14 14, 0, 0, 0, 0 -28" transform="rotate(-90,516,348)"/><rect x="614" y="334" width="28" height="28" transform="rotate(0,628,348)"/><path d="M 670 334v 28h 14a 14 14, 0, 0, 0, 0 -28" transform="rotate(180,684,348)"/><path d="M 698 334v 28h 14a 14 14, 0, 0, 0, 0 -28" transform="rotate(0,712,348)"/><rect x="782" y="334" width="28" height="28" transform="rotate(0,796,348)"/><path d="M 810 334v 28h 28v -14a 14 14, 0, 0, 0, -14 -14" transform="rotate(90,824,348)"/><path d="M 866 334v 28h 28v -14a 14 14, 0, 0, 0, -14 -14" transform="rotate(180,880,348)"/><rect x="894" y="334" width="28" height="28" transform="rotate(0,908,348)"/><rect x="922" y="334" width="28" height="28" transform="rotate(0,936,348)"/><path d="M 950 334v 28h 14a 14 14, 0, 0, 0, 0 -28" transform="rotate(0,964,348)"/><path d="M 1006 334v 28h 14a 14 14, 0, 0, 0, 0 -28" transform="rotate(180,1020,348)"/><rect x="1034" y="334" width="28" height="28" transform="rotate(0,1048,348)"/><path d="M 1062 334v 28h 28v -14a 14 14, 0, 0, 0, -14 -14" transform="rotate(0,1076,348)"/><circle cx="1160" cy="348" r="14" transform="rotate(0,1160,348)"/><path d="M 26 362v 28h 14a 14 14, 0, 0, 0, 0 -28" transform="rotate(-90,40,376)"/><rect x="82" y="362" width="28" height="28" transform="rotate(0,96,376)"/><path d="M 110 362v 28h 28v -14a 14 14, 0, 0, 0, -14 -14" transform="rotate(90,124,376)"/><path d="M 194 362v 28h 14a 14 14, 0, 0, 0, 0 -28" transform="rotate(180,208,376)"/><rect x="222" y="362" width="28" height="28" transform="rotate(0,236,376)"/><path d="M 250 362v 28h 28v -14a 14 14, 0, 0, 0, -14 -14" transform="rotate(0,264,376)"/><rect x="334" y="362" width="28" height="28" transform="rotate(0,348,376)"/><path d="M 390 362v 28h 28v -14a 14 14, 0, 0, 0, -14 -14" transform="rotate(180,404,376)"/><path d="M 418 362v 28h 14a 14 14, 0, 0, 0, 0 -28" transform="rotate(0,432,376)"/><rect x="502" y="362" width="28" height="28" transform="rotate(0,516,376)"/><rect x="530" y="362" width="28" height="28" transform="rotate(0,544,376)"/><rect x="558" y="362" width="28" height="28" transform="rotate(0,572,376)"/><rect x="586" y="362" width="28" height="28" transform="rotate(0,600,376)"/><rect x="614" y="362" width="28" height="28" transform="rotate(0,628,376)"/><path d="M 726 362v 28h 14a 14 14, 0, 0, 0, 0 -28" transform="rotate(-90,740,376)"/><rect x="782" y="362" width="28" height="28" transform="rotate(0,796,376)"/><circle cx="852" cy="376" r="14" transform="rotate(0,852,376)"/><path d="M 894 362v 28h 14a 14 14, 0, 0, 0, 0 -28" transform="rotate(90,908,376)"/><path d="M 1062 362v 28h 28v -14a 14 14, 0, 0, 0, -14 -14" transform="rotate(180,1076,376)"/><rect x="1090" y="362" width="28" height="28" transform="rotate(0,1104,376)"/><path d="M 1118 362v 28h 28v -14a 14 14, 0, 0, 0, -14 -14" transform="rotate(0,1132,376)"/><rect x="26" y="390" width="28" height="28" transform="rotate(0,40,404)"/><rect x="82" y="390" width="28" height="28" transform="rotate(0,96,404)"/><circle cx="180" cy="404" r="14" transform="rotate(0,180,404)"/><rect x="250" y="390" width="28" height="28" transform="rotate(0,264,404)"/><path d="M 306 390v 28h 14a 14 14, 0, 0, 0, 0 -28" transform="rotate(180,320,404)"/><path d="M 334 390v 28h 28v -14a 14 14, 0, 0, 0, -14 -14" transform="rotate(90,348,404)"/><path d="M 474 390v 28h 14a 14 14, 0, 0, 0, 0 -28" transform="rotate(180,488,404)"/><path d="M 502 390v 28h 28v -14a 14 14, 0, 0, 0, -14 -14" transform="rotate(90,516,404)"/><rect x="586" y="390" width="28" height="28" transform="rotate(0,600,404)"/><rect x="614" y="390" width="28" height="28" transform="rotate(0,628,404)"/><path d="M 642 390v 28h 14a 14 14, 0, 0, 0, 0 -28" transform="rotate(0,656,404)"/><path d="M 698 390v 28h 14a 14 14, 0, 0, 0, 0 -28" transform="rotate(180,712,404)"/><rect x="726" y="390" width="28" height="28" transform="rotate(0,740,404)"/><path d="M 782 390v 28h 28v -14a 14 14, 0, 0, 0, -14 -14" transform="rotate(180,796,404)"/><path d="M 810 390v 28h 14a 14 14, 0, 0, 0, 0 -28" transform="rotate(0,824,404)"/><path d="M 978 390v 28h 14a 14 14, 0, 0, 0, 0 -28" transform="rotate(180,992,404)"/><rect x="1006" y="390" width="28" height="28" transform="rotate(0,1020,404)"/><path d="M 1034 390v 28h 14a 14 14, 0, 0, 0, 0 -28" transform="rotate(0,1048,404)"/><rect x="1118" y="390" width="28" height="28" transform="rotate(0,1132,404)"/><path d="M 1146 390v 28h 14a 14 14, 0, 0, 0, 0 -28" transform="rotate(0,1160,404)"/><rect x="26" y="418" width="28" height="28" transform="rotate(0,40,432)"/><rect x="54" y="418" width="28" height="28" transform="rotate(0,68,432)"/><rect x="82" y="418" width="28" height="28" transform="rotate(0,96,432)"/><circle cx="152" cy="432" r="14" transform="rotate(0,152,432)"/><path d="M 194 418v 28h 14a 14 14, 0, 0, 0, 0 -28" transform="rotate(180,208,432)"/><rect x="222" y="418" width="28" height="28" transform="rotate(0,236,432)"/><path d="M 250 418v 28h 28v -14a 14 14, 0, 0, 0, -14 -14" transform="rotate(90,264,432)"/><circle cx="404" cy="432" r="14" transform="rotate(0,404,432)"/><circle cx="460" cy="432" r="14" transform="rotate(0,460,432)"/><path d="M 586 418v 28h 14a 14 14, 0, 0, 0, 0 -28" transform="rotate(90,600,432)"/><path d="M 726 418v 28h 28v -14a 14 14, 0, 0, 0, -14 -14" transform="rotate(180,740,432)"/><path d="M 754 418v 28h 28v -14a 14 14, 0, 0, 0, -14 -14" transform="rotate(0,768,432)"/><path d="M 922 418v 28h 28v -14a 14 14, 0, 0, 0, -14 -14" transform="rotate(-90,936,432)"/><path d="M 950 418v 28h 14a 14 14, 0, 0, 0, 0 -28" transform="rotate(0,964,432)"/><rect x="1006" y="418" width="28" height="28" transform="rotate(0,1020,432)"/><path d="M 1062 418v 28h 28v -14a 14 14, 0, 0, 0, -14 -14" transform="rotate(-90,1076,432)"/><rect x="1090" y="418" width="28" height="28" transform="rotate(0,1104,432)"/><path d="M 1118 418v 28h 28v -14a 14 14, 0, 0, 0, -14 -14" transform="rotate(90,1132,432)"/><rect x="26" y="446" width="28" height="28" transform="rotate(0,40,460)"/><rect x="54" y="446" width="28" height="28" transform="rotate(0,68,460)"/><rect x="82" y="446" width="28" height="28" transform="rotate(0,96,460)"/><circle cx="180" cy="460" r="14" transform="rotate(0,180,460)"/><circle cx="292" cy="460" r="14" transform="rotate(0,292,460)"/><circle cx="432" cy="460" r="14" transform="rotate(0,432,460)"/><path d="M 502 446v 28h 14a 14 14, 0, 0, 0, 0 -28" transform="rotate(-90,516,460)"/><path d="M 558 446v 28h 14a 14 14, 0, 0, 0, 0 -28" transform="rotate(-90,572,460)"/><path d="M 614 446v 28h 14a 14 14, 0, 0, 0, 0 -28" transform="rotate(180,628,460)"/><path d="M 642 446v 28h 28v -14a 14 14, 0, 0, 0, -14 -14" transform="rotate(0,656,460)"/><circle cx="712" cy="460" r="14" transform="rotate(0,712,460)"/><rect x="754" y="446" width="28" height="28" transform="rotate(0,768,460)"/><circle cx="824" cy="460" r="14" transform="rotate(0,824,460)"/><circle cx="880" cy="460" r="14" transform="rotate(0,880,460)"/><path d="M 922 446v 28h 14a 14 14, 0, 0, 0, 0 -28" transform="rotate(90,936,460)"/><path d="M 978 446v 28h 14a 14 14, 0, 0, 0, 0 -28" transform="rotate(180,992,460)"/><rect x="1006" y="446" width="28" height="28" transform="rotate(0,1020,460)"/><path d="M 1062 446v 28h 14a 14 14, 0, 0, 0, 0 -28" transform="rotate(90,1076,460)"/><path d="M 1146 446v 28h 14a 14 14, 0, 0, 0, 0 -28" transform="rotate(-90,1160,460)"/><path d="M 26 474v 28h 14a 14 14, 0, 0, 0, 0 -28" transform="rotate(90,40,488)"/><path d="M 82 474v 28h 14a 14 14, 0, 0, 0, 0 -28" transform="rotate(90,96,488)"/><circle cx="208" cy="488" r="14" transform="rotate(0,208,488)"/><path d="M 250 474v 28h 14a 14 14, 0, 0, 0, 0 -28" transform="rotate(-90,264,488)"/><path d="M 362 474v 28h 28v -14a 14 14, 0, 0, 0, -14 -14" transform="rotate(-90,376,488)"/><path d="M 390 474v 28h 14a 14 14, 0, 0, 0, 0 -28" transform="rotate(0,404,488)"/><path d="M 502 474v 28h 14a 14 14, 0, 0, 0, 0 -28" transform="rotate(90,516,488)"/><path d="M 558 474v 28h 14a 14 14, 0, 0, 0, 0 -28" transform="rotate(90,572,488)"/><path d="M 642 474v 28h 14a 14 14, 0, 0, 0, 0 -28" transform="rotate(90,656,488)"/><path d="M 726 474v 28h 28v -14a 14 14, 0, 0, 0, -14 -14" transform="rotate(-90,740,488)"/><rect x="754" y="474" width="28" height="28" transform="rotate(0,768,488)"/><circle cx="852" cy="488" r="14" transform="rotate(0,852,488)"/><circle cx="964" cy="488" r="14" transform="rotate(0,964,488)"/><rect x="1006" y="474" width="28" height="28" transform="rotate(0,1020,488)"/><path d="M 1090 474v 28h 14a 14 14, 0, 0, 0, 0 -28" transform="rotate(-90,1104,488)"/><rect x="1146" y="474" width="28" height="28" transform="rotate(0,1160,488)"/><path d="M 54 502v 28h 14a 14 14, 0, 0, 0, 0 -28" transform="rotate(-90,68,516)"/><circle cx="180" cy="516" r="14" transform="rotate(0,180,516)"/><path d="M 222 502v 28h 28v -14a 14 14, 0, 0, 0, -14 -14" transform="rotate(-90,236,516)"/><rect x="250" y="502" width="28" height="28" transform="rotate(0,264,516)"/><path d="M 278 502v 28h 14a 14 14, 0, 0, 0, 0 -28" transform="rotate(0,292,516)"/><path d="M 334 502v 28h 14a 14 14, 0, 0, 0, 0 -28" transform="rotate(180,348,516)"/><path d="M 362 502v 28h 28v -14a 14 14, 0, 0, 0, -14 -14" transform="rotate(90,376,516)"/><circle cx="488" cy="516" r="14" transform="rotate(0,488,516)"/><circle cx="684" cy="516" r="14" transform="rotate(0,684,516)"/><rect x="726" y="502" width="28" height="28" transform="rotate(0,740,516)"/><rect x="754" y="502" width="28" height="28" transform="rotate(0,768,516)"/><path d="M 810 502v 28h 14a 14 14, 0, 0, 0, 0 -28" transform="rotate(-90,824,516)"/><path d="M 866 502v 28h 28v -14a 14 14, 0, 0, 0, -14 -14" transform="rotate(-90,880,516)"/><rect x="894" y="502" width="28" height="28" transform="rotate(0,908,516)"/><path d="M 922 502v 28h 14a 14 14, 0, 0, 0, 0 -28" transform="rotate(0,936,516)"/><path d="M 978 502v 28h 28v -14a 14 14, 0, 0, 0, -14 -14" transform="rotate(-90,992,516)"/><rect x="1006" y="502" width="28" height="28" transform="rotate(0,1020,516)"/><rect x="1034" y="502" width="28" height="28" transform="rotate(0,1048,516)"/><rect x="1062" y="502" width="28" height="28" transform="rotate(0,1076,516)"/><rect x="1090" y="502" width="28" height="28" transform="rotate(0,1104,516)"/><rect x="1118" y="502" width="28" height="28" transform="rotate(0,1132,516)"/><path d="M 1146 502v 28h 28v -14a 14 14, 0, 0, 0, -14 -14" transform="rotate(90,1160,516)"/><path d="M 54 530v 28h 14a 14 14, 0, 0, 0, 0 -28" transform="rotate(90,68,544)"/><circle cx="152" cy="544" r="14" transform="rotate(0,152,544)"/><path d="M 194 530v 28h 14a 14 14, 0, 0, 0, 0 -28" transform="rotate(180,208,544)"/><path d="M 222 530v 28h 28v -14a 14 14, 0, 0, 0, -14 -14" transform="rotate(90,236,544)"/><path d="M 306 530v 28h 14a 14 14, 0, 0, 0, 0 -28" transform="rotate(-90,320,544)"/><circle cx="460" cy="544" r="14" transform="rotate(0,460,544)"/><path d="M 530 530v 28h 14a 14 14, 0, 0, 0, 0 -28" transform="rotate(180,544,544)"/><path d="M 558 530v 28h 14a 14 14, 0, 0, 0, 0 -28" transform="rotate(0,572,544)"/><path d="M 642 530v 28h 14a 14 14, 0, 0, 0, 0 -28" transform="rotate(-90,656,544)"/><rect x="726" y="530" width="28" height="28" transform="rotate(0,740,544)"/><rect x="754" y="530" width="28" height="28" transform="rotate(0,768,544)"/><rect x="782" y="530" width="28" height="28" transform="rotate(0,796,544)"/><rect x="810" y="530" width="28" height="28" transform="rotate(0,824,544)"/><path d="M 866 530v 28h 14a 14 14, 0, 0, 0, 0 -28" transform="rotate(90,880,544)"/><path d="M 950 530v 28h 14a 14 14, 0, 0, 0, 0 -28" transform="rotate(180,964,544)"/><path d="M 978 530v 28h 28v -14a 14 14, 0, 0, 0, -14 -14" transform="rotate(90,992,544)"/><rect x="1034" y="530" width="28" height="28" transform="rotate(0,1048,544)"/><rect x="1062" y="530" width="28" height="28" transform="rotate(0,1076,544)"/><path d="M 250 558v 28h 28v -14a 14 14, 0, 0, 0, -14 -14" transform="rotate(-90,264,572)"/><rect x="278" y="558" width="28" height="28" transform="rotate(0,292,572)"/><path d="M 306 558v 28h 28v -14a 14 14, 0, 0, 0, -14 -14" transform="rotate(90,320,572)"/><path d="M 362 558v 28h 14a 14 14, 0, 0, 0, 0 -28" transform="rotate(-90,376,572)"/><circle cx="432" cy="572" r="14" transform="rotate(0,432,572)"/><path d="M 502 558v 28h 14a 14 14, 0, 0, 0, 0 -28" transform="rotate(-90,516,572)"/><path d="M 614 558v 28h 28v -14a 14 14, 0, 0, 0, -14 -14" transform="rotate(-90,628,572)"/><path d="M 642 558v 28h 28v -14a 14 14, 0, 0, 0, -14 -14" transform="rotate(90,656,572)"/><path d="M 726 558v 28h 14a 14 14, 0, 0, 0, 0 -28" transform="rotate(90,740,572)"/><path d="M 782 558v 28h 28v -14a 14 14, 0, 0, 0, -14 -14" transform="rotate(180,796,572)"/><rect x="810" y="558" width="28" height="28" transform="rotate(0,824,572)"/><circle cx="936" cy="572" r="14" transform="rotate(0,936,572)"/><path d="M 1034 558v 28h 28v -14a 14 14, 0, 0, 0, -14 -14" transform="rotate(180,1048,572)"/><path d="M 1062 558v 28h 28v -14a 14 14, 0, 0, 0, -14 -14" transform="rotate(90,1076,572)"/><path d="M 1118 558v 28h 14a 14 14, 0, 0, 0, 0 -28" transform="rotate(180,1132,572)"/><path d="M 1146 558v 28h 28v -14a 14 14, 0, 0, 0, -14 -14" transform="rotate(0,1160,572)"/><path d="M 26 586v 28h 14a 14 14, 0, 0, 0, 0 -28" transform="rotate(-90,40,600)"/><circle cx="96" cy="600" r="14" transform="rotate(0,96,600)"/><path d="M 166 586v 28h 14a 14 14, 0, 0, 0, 0 -28" transform="rotate(180,180,600)"/><rect x="194" y="586" width="28" height="28" transform="rotate(0,208,600)"/><rect x="222" y="586" width="28" height="28" transform="rotate(0,236,600)"/><rect x="250" y="586" width="28" height="28" transform="rotate(0,264,600)"/><rect x="278" y="586" width="28" height="28" transform="rotate(0,292,600)"/><path d="M 334 586v 28h 28v -14a 14 14, 0, 0, 0, -14 -14" transform="rotate(-90,348,600)"/><rect x="362" y="586" width="28" height="28" transform="rotate(0,376,600)"/><path d="M 390 586v 28h 28v -14a 14 14, 0, 0, 0, -14 -14" transform="rotate(0,404,600)"/><path d="M 502 586v 28h 14a 14 14, 0, 0, 0, 0 -28" transform="rotate(90,516,600)"/><path d="M 586 586v 28h 28v -14a 14 14, 0, 0, 0, -14 -14" transform="rotate(-90,600,600)"/><rect x="614" y="586" width="28" height="28" transform="rotate(0,628,600)"/><circle cx="712" cy="600" r="14" transform="rotate(0,712,600)"/><circle cx="768" cy="600" r="14" transform="rotate(0,768,600)"/><rect x="810" y="586" width="28" height="28" transform="rotate(0,824,600)"/><circle cx="880" cy="600" r="14" transform="rotate(0,880,600)"/><path d="M 1006 586v 28h 14a 14 14, 0, 0, 0, 0 -28" transform="rotate(-90,1020,600)"/><circle cx="1104" cy="600" r="14" transform="rotate(0,1104,600)"/><rect x="1146" y="586" width="28" height="28" transform="rotate(0,1160,600)"/><rect x="26" y="614" width="28" height="28" transform="rotate(0,40,628)"/><path d="M 110 614v 28h 14a 14 14, 0, 0, 0, 0 -28" transform="rotate(180,124,628)"/><path d="M 138 614v 28h 28v -14a 14 14, 0, 0, 0, -14 -14" transform="rotate(0,152,628)"/><rect x="222" y="614" width="28" height="28" transform="rotate(0,236,628)"/><rect x="250" y="614" width="28" height="28" transform="rotate(0,264,628)"/><rect x="278" y="614" width="28" height="28" transform="rotate(0,292,628)"/><rect x="306" y="614" width="28" height="28" transform="rotate(0,320,628)"/><rect x="334" y="614" width="28" height="28" transform="rotate(0,348,628)"/><rect x="362" y="614" width="28" height="28" transform="rotate(0,376,628)"/><rect x="390" y="614" width="28" height="28" transform="rotate(0,404,628)"/><path d="M 418 614v 28h 14a 14 14, 0, 0, 0, 0 -28" transform="rotate(0,432,628)"/><circle cx="488" cy="628" r="14" transform="rotate(0,488,628)"/><path d="M 530 614v 28h 14a 14 14, 0, 0, 0, 0 -28" transform="rotate(-90,544,628)"/><path d="M 586 614v 28h 28v -14a 14 14, 0, 0, 0, -14 -14" transform="rotate(180,600,628)"/><path d="M 614 614v 28h 28v -14a 14 14, 0, 0, 0, -14 -14" transform="rotate(90,628,628)"/><circle cx="684" cy="628" r="14" transform="rotate(0,684,628)"/><rect x="810" y="614" width="28" height="28" transform="rotate(0,824,628)"/><path d="M 894 614v 28h 14a 14 14, 0, 0, 0, 0 -28" transform="rotate(180,908,628)"/><rect x="922" y="614" width="28" height="28" transform="rotate(0,936,628)"/><rect x="950" y="614" width="28" height="28" transform="rotate(0,964,628)"/><rect x="978" y="614" width="28" height="28" transform="rotate(0,992,628)"/><rect x="1006" y="614" width="28" height="28" transform="rotate(0,1020,628)"/><path d="M 1034 614v 28h 28v -14a 14 14, 0, 0, 0, -14 -14" transform="rotate(0,1048,628)"/><path d="M 1118 614v 28h 14a 14 14, 0, 0, 0, 0 -28" transform="rotate(180,1132,628)"/><path d="M 1146 614v 28h 28v -14a 14 14, 0, 0, 0, -14 -14" transform="rotate(90,1160,628)"/><path d="M 26 642v 28h 14a 14 14, 0, 0, 0, 0 -28" transform="rotate(90,40,656)"/><path d="M 138 642v 28h 28v -14a 14 14, 0, 0, 0, -14 -14" transform="rotate(180,152,656)"/><rect x="166" y="642" width="28" height="28" transform="rotate(0,180,656)"/><rect x="194" y="642" width="28" height="28" transform="rotate(0,208,656)"/><rect x="222" y="642" width="28" height="28" transform="rotate(0,236,656)"/><rect x="334" y="642" width="28" height="28" transform="rotate(0,348,656)"/><path d="M 362 642v 28h 28v -14a 14 14, 0, 0, 0, -14 -14" transform="rotate(90,376,656)"/><path d="M 502 642v 28h 28v -14a 14 14, 0, 0, 0, -14 -14" transform="rotate(-90,516,656)"/><rect x="530" y="642" width="28" height="28" transform="rotate(0,544,656)"/><path d="M 558 642v 28h 14a 14 14, 0, 0, 0, 0 -28" transform="rotate(0,572,656)"/><path d="M 642 642v 28h 14a 14 14, 0, 0, 0, 0 -28" transform="rotate(-90,656,656)"/><path d="M 754 642v 28h 28v -14a 14 14, 0, 0, 0, -14 -14" transform="rotate(-90,768,656)"/><rect x="782" y="642" width="28" height="28" transform="rotate(0,796,656)"/><path d="M 810 642v 28h 28v -14a 14 14, 0, 0, 0, -14 -14" transform="rotate(90,824,656)"/><path d="M 922 642v 28h 14a 14 14, 0, 0, 0, 0 -28" transform="rotate(90,936,656)"/><path d="M 978 642v 28h 28v -14a 14 14, 0, 0, 0, -14 -14" transform="rotate(180,992,656)"/><rect x="1006" y="642" width="28" height="28" transform="rotate(0,1020,656)"/><rect x="1034" y="642" width="28" height="28" transform="rotate(0,1048,656)"/><circle cx="1104" cy="656" r="14" transform="rotate(0,1104,656)"/><circle cx="124" cy="684" r="14" transform="rotate(0,124,684)"/><rect x="222" y="670" width="28" height="28" transform="rotate(0,236,684)"/><path d="M 306 670v 28h 28v -14a 14 14, 0, 0, 0, -14 -14" transform="rotate(-90,320,684)"/><rect x="334" y="670" width="28" height="28" transform="rotate(0,348,684)"/><path d="M 390 670v 28h 28v -14a 14 14, 0, 0, 0, -14 -14" transform="rotate(-90,404,684)"/><rect x="418" y="670" width="28" height="28" transform="rotate(0,432,684)"/><rect x="446" y="670" width="28" height="28" transform="rotate(0,460,684)"/><rect x="474" y="670" width="28" height="28" transform="rotate(0,488,684)"/><rect x="502" y="670" width="28" height="28" transform="rotate(0,516,684)"/><path d="M 530 670v 28h 28v -14a 14 14, 0, 0, 0, -14 -14" transform="rotate(90,544,684)"/><path d="M 614 670v 28h 14a 14 14, 0, 0, 0, 0 -28" transform="rotate(180,628,684)"/><path d="M 642 670v 28h 28v -14a 14 14, 0, 0, 0, -14 -14" transform="rotate(90,656,684)"/><circle cx="712" cy="684" r="14" transform="rotate(0,712,684)"/><rect x="754" y="670" width="28" height="28" transform="rotate(0,768,684)"/><rect x="782" y="670" width="28" height="28" transform="rotate(0,796,684)"/><circle cx="908" cy="684" r="14" transform="rotate(0,908,684)"/><path d="M 1034 670v 28h 28v -14a 14 14, 0, 0, 0, -14 -14" transform="rotate(180,1048,684)"/><path d="M 1062 670v 28h 14a 14 14, 0, 0, 0, 0 -28" transform="rotate(0,1076,684)"/><path d="M 1118 670v 28h 14a 14 14, 0, 0, 0, 0 -28" transform="rotate(-90,1132,684)"/><path d="M 54 698v 28h 14a 14 14, 0, 0, 0, 0 -28" transform="rotate(180,68,712)"/><path d="M 82 698v 28h 28v -14a 14 14, 0, 0, 0, -14 -14" transform="rotate(0,96,712)"/><path d="M 138 698v 28h 14a 14 14, 0, 0, 0, 0 -28" transform="rotate(180,152,712)"/><rect x="166" y="698" width="28" height="28" transform="rotate(0,180,712)"/><rect x="194" y="698" width="28" height="28" transform="rotate(0,208,712)"/><rect x="222" y="698" width="28" height="28" transform="rotate(0,236,712)"/><rect x="250" y="698" width="28" height="28" transform="rotate(0,264,712)"/><rect x="278" y="698" width="28" height="28" transform="rotate(0,292,712)"/><rect x="306" y="698" width="28" height="28" transform="rotate(0,320,712)"/><path d="M 334 698v 28h 28v -14a 14 14, 0, 0, 0, -14 -14" transform="rotate(90,348,712)"/><rect x="390" y="698" width="28" height="28" transform="rotate(0,404,712)"/><rect x="446" y="698" width="28" height="28" transform="rotate(0,460,712)"/><rect x="474" y="698" width="28" height="28" transform="rotate(0,488,712)"/><path d="M 670 698v 28h 14a 14 14, 0, 0, 0, 0 -28" transform="rotate(-90,684,712)"/><path d="M 726 698v 28h 28v -14a 14 14, 0, 0, 0, -14 -14" transform="rotate(-90,740,712)"/><rect x="754" y="698" width="28" height="28" transform="rotate(0,768,712)"/><rect x="782" y="698" width="28" height="28" transform="rotate(0,796,712)"/><rect x="810" y="698" width="28" height="28" transform="rotate(0,824,712)"/><path d="M 838 698v 28h 14a 14 14, 0, 0, 0, 0 -28" transform="rotate(0,852,712)"/><path d="M 1090 698v 28h 14a 14 14, 0, 0, 0, 0 -28" transform="rotate(180,1104,712)"/><rect x="1118" y="698" width="28" height="28" transform="rotate(0,1132,712)"/><circle cx="40" cy="740" r="14" transform="rotate(0,40,740)"/><rect x="82" y="726" width="28" height="28" transform="rotate(0,96,740)"/><path d="M 278 726v 28h 14a 14 14, 0, 0, 0, 0 -28" transform="rotate(90,292,740)"/><path d="M 362 726v 28h 28v -14a 14 14, 0, 0, 0, -14 -14" transform="rotate(-90,376,740)"/><rect x="390" y="726" width="28" height="28" transform="rotate(0,404,740)"/><rect x="418" y="726" width="28" height="28" transform="rotate(0,432,740)"/><rect x="446" y="726" width="28" height="28" transform="rotate(0,460,740)"/><rect x="474" y="726" width="28" height="28" transform="rotate(0,488,740)"/><path d="M 558 726v 28h 14a 14 14, 0, 0, 0, 0 -28" transform="rotate(180,572,740)"/><rect x="586" y="726" width="28" height="28" transform="rotate(0,600,740)"/><path d="M 614 726v 28h 28v -14a 14 14, 0, 0, 0, -14 -14" transform="rotate(0,628,740)"/><path d="M 670 726v 28h 14a 14 14, 0, 0, 0, 0 -28" transform="rotate(90,684,740)"/><path d="M 726 726v 28h 14a 14 14, 0, 0, 0, 0 -28" transform="rotate(90,740,740)"/><path d="M 810 726v 28h 14a 14 14, 0, 0, 0, 0 -28" transform="rotate(90,824,740)"/><path d="M 866 726v 28h 14a 14 14, 0, 0, 0, 0 -28" transform="rotate(180,880,740)"/><path d="M 894 726v 28h 14a 14 14, 0, 0, 0, 0 -28" transform="rotate(0,908,740)"/><path d="M 978 726v 28h 14a 14 14, 0, 0, 0, 0 -28" transform="rotate(180,992,740)"/><rect x="1006" y="726" width="28" height="28" transform="rotate(0,1020,740)"/><rect x="1034" y="726" width="28" height="28" transform="rotate(0,1048,740)"/><path d="M 1062 726v 28h 14a 14 14, 0, 0, 0, 0 -28" transform="rotate(0,1076,740)"/><path d="M 1118 726v 28h 28v -14a 14 14, 0, 0, 0, -14 -14" transform="rotate(180,1132,740)"/><path d="M 1146 726v 28h 14a 14 14, 0, 0, 0, 0 -28" transform="rotate(0,1160,740)"/><path d="M 82 754v 28h 14a 14 14, 0, 0, 0, 0 -28" transform="rotate(90,96,768)"/><path d="M 194 754v 28h 14a 14 14, 0, 0, 0, 0 -28" transform="rotate(180,208,768)"/><path d="M 222 754v 28h 14a 14 14, 0, 0, 0, 0 -28" transform="rotate(0,236,768)"/><path d="M 334 754v 28h 14a 14 14, 0, 0, 0, 0 -28" transform="rotate(180,348,768)"/><rect x="362" y="754" width="28" height="28" transform="rotate(0,376,768)"/><rect x="474" y="754" width="28" height="28" transform="rotate(0,488,768)"/><path d="M 502 754v 28h 14a 14 14, 0, 0, 0, 0 -28" transform="rotate(0,516,768)"/><rect x="586" y="754" width="28" height="28" transform="rotate(0,600,768)"/><path d="M 614 754v 28h 28v -14a 14 14, 0, 0, 0, -14 -14" transform="rotate(90,628,768)"/><circle cx="712" cy="768" r="14" transform="rotate(0,712,768)"/><path d="M 754 754v 28h 28v -14a 14 14, 0, 0, 0, -14 -14" transform="rotate(-90,768,768)"/><path d="M 782 754v 28h 28v -14a 14 14, 0, 0, 0, -14 -14" transform="rotate(0,796,768)"/><path d="M 922 754v 28h 14a 14 14, 0, 0, 0, 0 -28" transform="rotate(-90,936,768)"/><circle cx="68" cy="796" r="14" transform="rotate(0,68,796)"/><path d="M 110 782v 28h 14a 14 14, 0, 0, 0, 0 -28" transform="rotate(180,124,796)"/><path d="M 138 782v 28h 28v -14a 14 14, 0, 0, 0, -14 -14" transform="rotate(0,152,796)"/><path d="M 250 782v 28h 14a 14 14, 0, 0, 0, 0 -28" transform="rotate(180,264,796)"/><path d="M 278 782v 28h 28v -14a 14 14, 0, 0, 0, -14 -14" transform="rotate(0,292,796)"/><rect x="362" y="782" width="28" height="28" transform="rotate(0,376,796)"/><circle cx="432" cy="796" r="14" transform="rotate(0,432,796)"/><rect x="474" y="782" width="28" height="28" transform="rotate(0,488,796)"/><path d="M 586 782v 28h 14a 14 14, 0, 0, 0, 0 -28" transform="rotate(90,600,796)"/><rect x="754" y="782" width="28" height="28" transform="rotate(0,768,796)"/><rect x="782" y="782" width="28" height="28" transform="rotate(0,796,796)"/><path d="M 810 782v 28h 28v -14a 14 14, 0, 0, 0, -14 -14" transform="rotate(0,824,796)"/><path d="M 866 782v 28h 14a 14 14, 0, 0, 0, 0 -28" transform="rotate(180,880,796)"/><rect x="894" y="782" width="28" height="28" transform="rotate(0,908,796)"/><path d="M 922 782v 28h 28v -14a 14 14, 0, 0, 0, -14 -14" transform="rotate(90,936,796)"/><circle cx="1020" cy="796" r="14" transform="rotate(0,1020,796)"/><path d="M 1062 782v 28h 14a 14 14, 0, 0, 0, 0 -28" transform="rotate(-90,1076,796)"/><path d="M 1118 782v 28h 28v -14a 14 14, 0, 0, 0, -14 -14" transform="rotate(-90,1132,796)"/><path d="M 1146 782v 28h 14a 14 14, 0, 0, 0, 0 -28" transform="rotate(0,1160,796)"/><circle cx="96" cy="824" r="14" transform="rotate(0,96,824)"/><path d="M 138 810v 28h 28v -14a 14 14, 0, 0, 0, -14 -14" transform="rotate(180,152,824)"/><rect x="166" y="810" width="28" height="28" transform="rotate(0,180,824)"/><rect x="194" y="810" width="28" height="28" transform="rotate(0,208,824)"/><path d="M 222 810v 28h 28v -14a 14 14, 0, 0, 0, -14 -14" transform="rotate(0,236,824)"/><path d="M 278 810v 28h 14a 14 14, 0, 0, 0, 0 -28" transform="rotate(90,292,824)"/><rect x="362" y="810" width="28" height="28" transform="rotate(0,376,824)"/><path d="M 390 810v 28h 28v -14a 14 14, 0, 0, 0, -14 -14" transform="rotate(0,404,824)"/><path d="M 446 810v 28h 14a 14 14, 0, 0, 0, 0 -28" transform="rotate(180,460,824)"/><rect x="474" y="810" width="28" height="28" transform="rotate(0,488,824)"/><rect x="502" y="810" width="28" height="28" transform="rotate(0,516,824)"/><rect x="530" y="810" width="28" height="28" transform="rotate(0,544,824)"/><path d="M 558 810v 28h 28v -14a 14 14, 0, 0, 0, -14 -14" transform="rotate(0,572,824)"/><path d="M 670 810v 28h 14a 14 14, 0, 0, 0, 0 -28" transform="rotate(180,684,824)"/><rect x="698" y="810" width="28" height="28" transform="rotate(0,712,824)"/><rect x="726" y="810" width="28" height="28" transform="rotate(0,740,824)"/><rect x="754" y="810" width="28" height="28" transform="rotate(0,768,824)"/><rect x="782" y="810" width="28" height="28" transform="rotate(0,796,824)"/><rect x="810" y="810" width="28" height="28" transform="rotate(0,824,824)"/><path d="M 838 810v 28h 14a 14 14, 0, 0, 0, 0 -28" transform="rotate(0,852,824)"/><rect x="894" y="810" width="28" height="28" transform="rotate(0,908,824)"/><rect x="1062" y="810" width="28" height="28" transform="rotate(0,1076,824)"/><rect x="1090" y="810" width="28" height="28" transform="rotate(0,1104,824)"/><rect x="1118" y="810" width="28" height="28" transform="rotate(0,1132,824)"/><path d="M 26 838v 28h 14a 14 14, 0, 0, 0, 0 -28" transform="rotate(-90,40,852)"/><path d="M 110 838v 28h 14a 14 14, 0, 0, 0, 0 -28" transform="rotate(-90,124,852)"/><path d="M 222 838v 28h 14a 14 14, 0, 0, 0, 0 -28" transform="rotate(90,236,852)"/><path d="M 334 838v 28h 28v -14a 14 14, 0, 0, 0, -14 -14" transform="rotate(-90,348,852)"/><rect x="362" y="838" width="28" height="28" transform="rotate(0,376,852)"/><path d="M 390 838v 28h 28v -14a 14 14, 0, 0, 0, -14 -14" transform="rotate(90,404,852)"/><path d="M 502 838v 28h 28v -14a 14 14, 0, 0, 0, -14 -14" transform="rotate(180,516,852)"/><rect x="530" y="838" width="28" height="28" transform="rotate(0,544,852)"/><path d="M 558 838v 28h 28v -14a 14 14, 0, 0, 0, -14 -14" transform="rotate(90,572,852)"/><circle cx="628" cy="852" r="14" transform="rotate(0,628,852)"/><rect x="782" y="838" width="28" height="28" transform="rotate(0,796,852)"/><path d="M 866 838v 28h 28v -14a 14 14, 0, 0, 0, -14 -14" transform="rotate(-90,880,852)"/><rect x="894" y="838" width="28" height="28" transform="rotate(0,908,852)"/><path d="M 922 838v 28h 14a 14 14, 0, 0, 0, 0 -28" transform="rotate(0,936,852)"/><path d="M 978 838v 28h 14a 14 14, 0, 0, 0, 0 -28" transform="rotate(-90,992,852)"/><path d="M 1034 838v 28h 28v -14a 14 14, 0, 0, 0, -14 -14" transform="rotate(-90,1048,852)"/><rect x="1062" y="838" width="28" height="28" transform="rotate(0,1076,852)"/><rect x="1090" y="838" width="28" height="28" transform="rotate(0,1104,852)"/><rect x="1118" y="838" width="28" height="28" transform="rotate(0,1132,852)"/><path d="M 1146 838v 28h 14a 14 14, 0, 0, 0, 0 -28" transform="rotate(0,1160,852)"/><rect x="26" y="866" width="28" height="28" transform="rotate(0,40,880)"/><path d="M 110 866v 28h 14a 14 14, 0, 0, 0, 0 -28" transform="rotate(90,124,880)"/><path d="M 166 866v 28h 14a 14 14, 0, 0, 0, 0 -28" transform="rotate(180,180,880)"/><path d="M 194 866v 28h 14a 14 14, 0, 0, 0, 0 -28" transform="rotate(0,208,880)"/><path d="M 250 866v 28h 28v -14a 14 14, 0, 0, 0, -14 -14" transform="rotate(-90,264,880)"/><path d="M 278 866v 28h 14a 14 14, 0, 0, 0, 0 -28" transform="rotate(0,292,880)"/><path d="M 334 866v 28h 14a 14 14, 0, 0, 0, 0 -28" transform="rotate(90,348,880)"/><circle cx="432" cy="880" r="14" transform="rotate(0,432,880)"/><path d="M 642 866v 28h 28v -14a 14 14, 0, 0, 0, -14 -14" transform="rotate(-90,656,880)"/><rect x="670" y="866" width="28" height="28" transform="rotate(0,684,880)"/><rect x="698" y="866" width="28" height="28" transform="rotate(0,712,880)"/><path d="M 726 866v 28h 14a 14 14, 0, 0, 0, 0 -28" transform="rotate(0,740,880)"/><rect x="782" y="866" width="28" height="28" transform="rotate(0,796,880)"/><rect x="810" y="866" width="28" height="28" transform="rotate(0,824,880)"/><rect x="838" y="866" width="28" height="28" transform="rotate(0,852,880)"/><path d="M 866 866v 28h 28v -14a 14 14, 0, 0, 0, -14 -14" transform="rotate(90,880,880)"/><path d="M 950 866v 28h 28v -14a 14 14, 0, 0, 0, -14 -14" transform="rotate(-90,964,880)"/><rect x="978" y="866" width="28" height="28" transform="rotate(0,992,880)"/><rect x="1006" y="866" width="28" height="28" transform="rotate(0,1020,880)"/><rect x="1034" y="866" width="28" height="28" transform="rotate(0,1048,880)"/><rect x="1062" y="866" width="28" height="28" transform="rotate(0,1076,880)"/><path d="M 1090 866v 28h 28v -14a 14 14, 0, 0, 0, -14 -14" transform="rotate(90,1104,880)"/><rect x="26" y="894" width="28" height="28" transform="rotate(0,40,908)"/><circle cx="152" cy="908" r="14" transform="rotate(0,152,908)"/><path d="M 222 894v 28h 28v -14a 14 14, 0, 0, 0, -14 -14" transform="rotate(-90,236,908)"/><path d="M 250 894v 28h 28v -14a 14 14, 0, 0, 0, -14 -14" transform="rotate(90,264,908)"/><circle cx="320" cy="908" r="14" transform="rotate(0,320,908)"/><path d="M 362 894v 28h 14a 14 14, 0, 0, 0, 0 -28" transform="rotate(180,376,908)"/><path d="M 390 894v 28h 14a 14 14, 0, 0, 0, 0 -28" transform="rotate(0,404,908)"/><path d="M 446 894v 28h 14a 14 14, 0, 0, 0, 0 -28" transform="rotate(-90,460,908)"/><path d="M 530 894v 28h 28v -14a 14 14, 0, 0, 0, -14 -14" transform="rotate(-90,544,908)"/><rect x="558" y="894" width="28" height="28" transform="rotate(0,572,908)"/><rect x="586" y="894" width="28" height="28" transform="rotate(0,600,908)"/><rect x="614" y="894" width="28" height="28" transform="rotate(0,628,908)"/><rect x="642" y="894" width="28" height="28" transform="rotate(0,656,908)"/><rect x="670" y="894" width="28" height="28" transform="rotate(0,684,908)"/><rect x="782" y="894" width="28" height="28" transform="rotate(0,796,908)"/><circle cx="908" cy="908" r="14" transform="rotate(0,908,908)"/><rect x="950" y="894" width="28" height="28" transform="rotate(0,964,908)"/><rect x="978" y="894" width="28" height="28" transform="rotate(0,992,908)"/><rect x="1006" y="894" width="28" height="28" transform="rotate(0,1020,908)"/><path d="M 1062 894v 28h 14a 14 14, 0, 0, 0, 0 -28" transform="rotate(90,1076,908)"/><circle cx="1132" cy="908" r="14" transform="rotate(0,1132,908)"/><path d="M 26 922v 28h 14a 14 14, 0, 0, 0, 0 -28" transform="rotate(90,40,936)"/><path d="M 166 922v 28h 14a 14 14, 0, 0, 0, 0 -28" transform="rotate(180,180,936)"/><rect x="194" y="922" width="28" height="28" transform="rotate(0,208,936)"/><path d="M 222 922v 28h 28v -14a 14 14, 0, 0, 0, -14 -14" transform="rotate(90,236,936)"/><path d="M 334 922v 28h 14a 14 14, 0, 0, 0, 0 -28" transform="rotate(-90,348,936)"/><path d="M 418 922v 28h 28v -14a 14 14, 0, 0, 0, -14 -14" transform="rotate(-90,432,936)"/><rect x="446" y="922" width="28" height="28" transform="rotate(0,460,936)"/><path d="M 474 922v 28h 28v -14a 14 14, 0, 0, 0, -14 -14" transform="rotate(0,488,936)"/><rect x="530" y="922" width="28" height="28" transform="rotate(0,544,936)"/><path d="M 586 922v 28h 28v -14a 14 14, 0, 0, 0, -14 -14" transform="rotate(180,600,936)"/><rect x="614" y="922" width="28" height="28" transform="rotate(0,628,936)"/><rect x="642" y="922" width="28" height="28" transform="rotate(0,656,936)"/><rect x="670" y="922" width="28" height="28" transform="rotate(0,684,936)"/><rect x="698" y="922" width="28" height="28" transform="rotate(0,712,936)"/><rect x="726" y="922" width="28" height="28" transform="rotate(0,740,936)"/><rect x="754" y="922" width="28" height="28" transform="rotate(0,768,936)"/><path d="M 782 922v 28h 28v -14a 14 14, 0, 0, 0, -14 -14" transform="rotate(90,796,936)"/><path d="M 838 922v 28h 14a 14 14, 0, 0, 0, 0 -28" transform="rotate(-90,852,936)"/><path d="M 922 922v 28h 28v -14a 14 14, 0, 0, 0, -14 -14" transform="rotate(-90,936,936)"/><rect x="950" y="922" width="28" height="28" transform="rotate(0,964,936)"/><rect x="978" y="922" width="28" height="28" transform="rotate(0,992,936)"/><rect x="1006" y="922" width="28" height="28" transform="rotate(0,1020,936)"/><path d="M 1034 922v 28h 28v -14a 14 14, 0, 0, 0, -14 -14" transform="rotate(0,1048,936)"/><circle cx="1104" cy="936" r="14" transform="rotate(0,1104,936)"/><path d="M 1146 922v 28h 14a 14 14, 0, 0, 0, 0 -28" transform="rotate(-90,1160,936)"/><path d="M 250 950v 28h 28v -14a 14 14, 0, 0, 0, -14 -14" transform="rotate(-90,264,964)"/><rect x="278" y="950" width="28" height="28" transform="rotate(0,292,964)"/><rect x="306" y="950" width="28" height="28" transform="rotate(0,320,964)"/><path d="M 334 950v 28h 28v -14a 14 14, 0, 0, 0, -14 -14" transform="rotate(90,348,964)"/><path d="M 390 950v 28h 14a 14 14, 0, 0, 0, 0 -28" transform="rotate(180,404,964)"/><rect x="418" y="950" width="28" height="28" transform="rotate(0,432,964)"/><rect x="446" y="950" width="28" height="28" transform="rotate(0,460,964)"/><path d="M 474 950v 28h 28v -14a 14 14, 0, 0, 0, -14 -14" transform="rotate(90,488,964)"/><path d="M 530 950v 28h 14a 14 14, 0, 0, 0, 0 -28" transform="rotate(90,544,964)"/><path d="M 614 950v 28h 28v -14a 14 14, 0, 0, 0, -14 -14" transform="rotate(180,628,964)"/><rect x="642" y="950" width="28" height="28" transform="rotate(0,656,964)"/><path d="M 670 950v 28h 28v -14a 14 14, 0, 0, 0, -14 -14" transform="rotate(90,684,964)"/><rect x="838" y="950" width="28" height="28" transform="rotate(0,852,964)"/><rect x="866" y="950" width="28" height="28" transform="rotate(0,880,964)"/><rect x="894" y="950" width="28" height="28" transform="rotate(0,908,964)"/><rect x="922" y="950" width="28" height="28" transform="rotate(0,936,964)"/><rect x="1034" y="950" width="28" height="28" transform="rotate(0,1048,964)"/><path d="M 1118 950v 28h 28v -14a 14 14, 0, 0, 0, -14 -14" transform="rotate(-90,1132,964)"/><path d="M 1146 950v 28h 28v -14a 14 14, 0, 0, 0, -14 -14" transform="rotate(90,1160,964)"/><rect x="250" y="978" width="28" height="28" transform="rotate(0,264,992)"/><path d="M 278 978v 28h 28v -14a 14 14, 0, 0, 0, -14 -14" transform="rotate(90,292,992)"/><circle cx="376" cy="992" r="14" transform="rotate(0,376,992)"/><path d="M 446 978v 28h 14a 14 14, 0, 0, 0, 0 -28" transform="rotate(90,460,992)"/><path d="M 558 978v 28h 28v -14a 14 14, 0, 0, 0, -14 -14" transform="rotate(-90,572,992)"/><path d="M 586 978v 28h 14a 14 14, 0, 0, 0, 0 -28" transform="rotate(0,600,992)"/><circle cx="712" cy="992" r="14" transform="rotate(0,712,992)"/><path d="M 782 978v 28h 14a 14 14, 0, 0, 0, 0 -28" transform="rotate(-90,796,992)"/><rect x="838" y="978" width="28" height="28" transform="rotate(0,852,992)"/><rect x="894" y="978" width="28" height="28" transform="rotate(0,908,992)"/><rect x="922" y="978" width="28" height="28" transform="rotate(0,936,992)"/><circle cx="992" cy="992" r="14" transform="rotate(0,992,992)"/><rect x="1034" y="978" width="28" height="28" transform="rotate(0,1048,992)"/><path d="M 1062 978v 28h 28v -14a 14 14, 0, 0, 0, -14 -14" transform="rotate(0,1076,992)"/><path d="M 1118 978v 28h 14a 14 14, 0, 0, 0, 0 -28" transform="rotate(90,1132,992)"/><rect x="250" y="1006" width="28" height="28" transform="rotate(0,264,1020)"/><path d="M 306 1006v 28h 14a 14 14, 0, 0, 0, 0 -28" transform="rotate(-90,320,1020)"/><circle cx="488" cy="1020" r="14" transform="rotate(0,488,1020)"/><rect x="558" y="1006" width="28" height="28" transform="rotate(0,572,1020)"/><path d="M 670 1006v 28h 14a 14 14, 0, 0, 0, 0 -28" transform="rotate(-90,684,1020)"/><path d="M 754 1006v 28h 14a 14 14, 0, 0, 0, 0 -28" transform="rotate(180,768,1020)"/><path d="M 782 1006v 28h 28v -14a 14 14, 0, 0, 0, -14 -14" transform="rotate(90,796,1020)"/><path d="M 838 1006v 28h 28v -14a 14 14, 0, 0, 0, -14 -14" transform="rotate(180,852,1020)"/><rect x="866" y="1006" width="28" height="28" transform="rotate(0,880,1020)"/><rect x="894" y="1006" width="28" height="28" transform="rotate(0,908,1020)"/><rect x="922" y="1006" width="28" height="28" transform="rotate(0,936,1020)"/><rect x="1034" y="1006" width="28" height="28" transform="rotate(0,1048,1020)"/><path d="M 1062 1006v 28h 28v -14a 14 14, 0, 0, 0, -14 -14" transform="rotate(90,1076,1020)"/><rect x="250" y="1034" width="28" height="28" transform="rotate(0,264,1048)"/><rect x="306" y="1034" width="28" height="28" transform="rotate(0,320,1048)"/><circle cx="376" cy="1048" r="14" transform="rotate(0,376,1048)"/><circle cx="460" cy="1048" r="14" transform="rotate(0,460,1048)"/><path d="M 502 1034v 28h 14a 14 14, 0, 0, 0, 0 -28" transform="rotate(180,516,1048)"/><rect x="530" y="1034" width="28" height="28" transform="rotate(0,544,1048)"/><rect x="558" y="1034" width="28" height="28" transform="rotate(0,572,1048)"/><path d="M 586 1034v 28h 28v -14a 14 14, 0, 0, 0, -14 -14" transform="rotate(0,600,1048)"/><path d="M 642 1034v 28h 28v -14a 14 14, 0, 0, 0, -14 -14" transform="rotate(-90,656,1048)"/><rect x="670" y="1034" width="28" height="28" transform="rotate(0,684,1048)"/><path d="M 698 1034v 28h 14a 14 14, 0, 0, 0, 0 -28" transform="rotate(0,712,1048)"/><rect x="922" y="1034" width="28" height="28" transform="rotate(0,936,1048)"/><rect x="950" y="1034" width="28" height="28" transform="rotate(0,964,1048)"/><rect x="978" y="1034" width="28" height="28" transform="rotate(0,992,1048)"/><rect x="1006" y="1034" width="28" height="28" transform="rotate(0,1020,1048)"/><path d="M 1034 1034v 28h 28v -14a 14 14, 0, 0, 0, -14 -14" transform="rotate(90,1048,1048)"/><path d="M 1090 1034v 28h 14a 14 14, 0, 0, 0, 0 -28" transform="rotate(180,1104,1048)"/><rect x="1118" y="1034" width="28" height="28" transform="rotate(0,1132,1048)"/><path d="M 1146 1034v 28h 14a 14 14, 0, 0, 0, 0 -28" transform="rotate(0,1160,1048)"/><rect x="250" y="1062" width="28" height="28" transform="rotate(0,264,1076)"/><path d="M 306 1062v 28h 14a 14 14, 0, 0, 0, 0 -28" transform="rotate(90,320,1076)"/><path d="M 418 1062v 28h 14a 14 14, 0, 0, 0, 0 -28" transform="rotate(-90,432,1076)"/><path d="M 558 1062v 28h 28v -14a 14 14, 0, 0, 0, -14 -14" transform="rotate(180,572,1076)"/><path d="M 586 1062v 28h 28v -14a 14 14, 0, 0, 0, -14 -14" transform="rotate(90,600,1076)"/><rect x="642" y="1062" width="28" height="28" transform="rotate(0,656,1076)"/><path d="M 670 1062v 28h 28v -14a 14 14, 0, 0, 0, -14 -14" transform="rotate(90,684,1076)"/><path d="M 754 1062v 28h 14a 14 14, 0, 0, 0, 0 -28" transform="rotate(-90,768,1076)"/><path d="M 810 1062v 28h 28v -14a 14 14, 0, 0, 0, -14 -14" transform="rotate(-90,824,1076)"/><rect x="838" y="1062" width="28" height="28" transform="rotate(0,852,1076)"/><rect x="866" y="1062" width="28" height="28" transform="rotate(0,880,1076)"/><rect x="894" y="1062" width="28" height="28" transform="rotate(0,908,1076)"/><rect x="922" y="1062" width="28" height="28" transform="rotate(0,936,1076)"/><rect x="950" y="1062" width="28" height="28" transform="rotate(0,964,1076)"/><rect x="1006" y="1062" width="28" height="28" transform="rotate(0,1020,1076)"/><path d="M 1062 1062v 28h 14a 14 14, 0, 0, 0, 0 -28" transform="rotate(-90,1076,1076)"/><path d="M 1118 1062v 28h 14a 14 14, 0, 0, 0, 0 -28" transform="rotate(90,1132,1076)"/><rect x="250" y="1090" width="28" height="28" transform="rotate(0,264,1104)"/><path d="M 278 1090v 28h 14a 14 14, 0, 0, 0, 0 -28" transform="rotate(0,292,1104)"/><path d="M 334 1090v 28h 28v -14a 14 14, 0, 0, 0, -14 -14" transform="rotate(-90,348,1104)"/><path d="M 362 1090v 28h 28v -14a 14 14, 0, 0, 0, -14 -14" transform="rotate(0,376,1104)"/><rect x="418" y="1090" width="28" height="28" transform="rotate(0,432,1104)"/><path d="M 530 1090v 28h 14a 14 14, 0, 0, 0, 0 -28" transform="rotate(-90,544,1104)"/><path d="M 642 1090v 28h 14a 14 14, 0, 0, 0, 0 -28" transform="rotate(90,656,1104)"/><path d="M 698 1090v 28h 14a 14 14, 0, 0, 0, 0 -28" transform="rotate(180,712,1104)"/><rect x="726" y="1090" width="28" height="28" transform="rotate(0,740,1104)"/><rect x="754" y="1090" width="28" height="28" transform="rotate(0,768,1104)"/><rect x="782" y="1090" width="28" height="28" transform="rotate(0,796,1104)"/><path d="M 810 1090v 28h 28v -14a 14 14, 0, 0, 0, -14 -14" transform="rotate(90,824,1104)"/><path d="M 950 1090v 28h 28v -14a 14 14, 0, 0, 0, -14 -14" transform="rotate(180,964,1104)"/><rect x="978" y="1090" width="28" height="28" transform="rotate(0,992,1104)"/><rect x="1006" y="1090" width="28" height="28" transform="rotate(0,1020,1104)"/><rect x="1034" y="1090" width="28" height="28" transform="rotate(0,1048,1104)"/><rect x="1062" y="1090" width="28" height="28" transform="rotate(0,1076,1104)"/><path d="M 250 1118v 28h 14a 14 14, 0, 0, 0, 0 -28" transform="rotate(90,264,1132)"/><path d="M 334 1118v 28h 28v -14a 14 14, 0, 0, 0, -14 -14" transform="rotate(180,348,1132)"/><rect x="362" y="1118" width="28" height="28" transform="rotate(0,376,1132)"/><rect x="390" y="1118" width="28" height="28" transform="rotate(0,404,1132)"/><path d="M 418 1118v 28h 28v -14a 14 14, 0, 0, 0, -14 -14" transform="rotate(90,432,1132)"/><path d="M 502 1118v 28h 14a 14 14, 0, 0, 0, 0 -28" transform="rotate(180,516,1132)"/><rect x="530" y="1118" width="28" height="28" transform="rotate(0,544,1132)"/><rect x="558" y="1118" width="28" height="28" transform="rotate(0,572,1132)"/><path d="M 586 1118v 28h 14a 14 14, 0, 0, 0, 0 -28" transform="rotate(0,600,1132)"/><path d="M 866 1118v 28h 14a 14 14, 0, 0, 0, 0 -28" transform="rotate(180,880,1132)"/><rect x="894" y="1118" width="28" height="28" transform="rotate(0,908,1132)"/><path d="M 922 1118v 28h 14a 14 14, 0, 0, 0, 0 -28" transform="rotate(0,936,1132)"/><rect x="978" y="1118" width="28" height="28" transform="rotate(0,992,1132)"/><rect x="1034" y="1118" width="28" height="28" transform="rotate(0,1048,1132)"/><path d="M 1062 1118v 28h 28v -14a 14 14, 0, 0, 0, -14 -14" transform="rotate(90,1076,1132)"/><circle cx="1132" cy="1132" r="14" transform="rotate(0,1132,1132)"/><path d="M 530 1146v 28h 28v -14a 14 14, 0, 0, 0, -14 -14" transform="rotate(180,544,1160)"/><path d="M 558 1146v 28h 28v -14a 14 14, 0, 0, 0, -14 -14" transform="rotate(90,572,1160)"/><path d="M 642 1146v 28h 14a 14 14, 0, 0, 0, 0 -28" transform="rotate(180,656,1160)"/><rect x="670" y="1146" width="28" height="28" transform="rotate(0,684,1160)"/><rect x="698" y="1146" width="28" height="28" transform="rotate(0,712,1160)"/><rect x="726" y="1146" width="28" height="28" transform="rotate(0,740,1160)"/><rect x="754" y="1146" width="28" height="28" transform="rotate(0,768,1160)"/><rect x="782" y="1146" width="28" height="28" transform="rotate(0,796,1160)"/><rect x="810" y="1146" width="28" height="28" transform="rotate(0,824,1160)"/><path d="M 838 1146v 28h 14a 14 14, 0, 0, 0, 0 -28" transform="rotate(0,852,1160)"/><path d="M 894 1146v 28h 14a 14 14, 0, 0, 0, 0 -28" transform="rotate(90,908,1160)"/><path d="M 950 1146v 28h 14a 14 14, 0, 0, 0, 0 -28" transform="rotate(180,964,1160)"/><rect x="978" y="1146" width="28" height="28" transform="rotate(0,992,1160)"/><rect x="1006" y="1146" width="28" height="28" transform="rotate(0,1020,1160)"/><path d="M 1034 1146v 28h 28v -14a 14 14, 0, 0, 0, -14 -14" transform="rotate(90,1048,1160)"/><circle cx="1104" cy="1160" r="14" transform="rotate(0,1104,1160)"/></clipPath><clipPath id="clip-path-corners-square-color-0-0-397"><path clip-rule="evenodd" d="M 26 96v 56a 70 70, 0, 0, 0, 70 70h 56a 70 70, 0, 0, 0, 70 -70v -56a 70 70, 0, 0, 0, -70 -70h -56a 70 70, 0, 0, 0, -70 70M 96 54h 56a 42 42, 0, 0, 1, 42 42v 56a 42 42, 0, 0, 1, -42 42h -56a 42 42, 0, 0, 1, -42 -42v -56a 42 42, 0, 0, 1, 42 -42" transform="rotate(0,124,124)"/></clipPath><clipPath id="clip-path-corners-dot-color-0-0-397"><circle cx="124" cy="124" r="42" transform="rotate(0,124,124)"/></clipPath><clipPath id="clip-path-corners-square-color-1-0-397"><path clip-rule="evenodd" d="M 978 96v 56a 70 70, 0, 0, 0, 70 70h 56a 70 70, 0, 0, 0, 70 -70v -56a 70 70, 0, 0, 0, -70 -70h -56a 70 70, 0, 0, 0, -70 70M 1048 54h 56a 42 42, 0, 0, 1, 42 42v 56a 42 42, 0, 0, 1, -42 42h -56a 42 42, 0, 0, 1, -42 -42v -56a 42 42, 0, 0, 1, 42 -42" transform="rotate(90,1076,124)"/></clipPath><clipPath id="clip-path-corners-dot-color-1-0-397"><circle cx="1076" cy="124" r="42" transform="rotate(90,1076,124)"/></clipPath><clipPath id="clip-path-corners-square-color-0-1-397"><path clip-rule="evenodd" d="M 26 1048v 56a 70 70, 0, 0, 0, 70 70h 56a 70 70, 0, 0, 0, 70 -70v -56a 70 70, 0, 0, 0, -70 -70h -56a 70 70, 0, 0, 0, -70 70M 96 1006h 56a 42 42, 0, 0, 1, 42 42v 56a 42 42, 0, 0, 1, -42 42h -56a 42 42, 0, 0, 1, -42 -42v -56a 42 42, 0, 0, 1, 42 -42" transform="rotate(-90,124,1076)"/></clipPath><clipPath id="clip-path-corners-dot-color-0-1-397"><circle cx="124" cy="1076" r="42" transform="rotate(-90,124,1076)"/></clipPath></defs><rect x="0" y="0" height="1200" width="1200" clip-path="url('#clip-path-background-color-397')" fill="#ffffff"/><rect x="0" y="0" height="1200" width="1200" clip-path="url('#clip-path-dot-color-397')" fill="#000000"/><rect x="26" y="26" height="196" width="196" clip-path="url('#clip-path-corners-square-color-0-0-397')" fill="#000000"/><rect x="82" y="82" height="84" width="84" clip-path="url('#clip-path-corners-dot-color-0-0-397')" fill="#000000"/><rect x="978" y="26" height="196" width="196" clip-path="url('#clip-path-corners-square-color-1-0-397')" fill="#000000"/><rect x="1034" y="82" height="84" width="84" clip-path="url('#clip-path-corners-dot-color-1-0-397')" fill="#000000"/><rect x="26" y="978" height="196" width="196" clip-path="url('#clip-path-corners-square-color-0-1-397')" fill="#000000"/><rect x="82" y="1034" height="84" width="84" clip-path="url('#clip-path-corners-dot-color-0-1-397')" fill="#000000"/></svg>