<?xml version="1.0" standalone="no"?>
<svg xmlns="http://www.w3.org/2000/svg" width="1200" height="1200" xmlns:xlink="http://www.w3.org/1999/xlink" viewBox="0 0 1200 1200"><defs><clipPath id="clip-path-background-color-412"><rect x="0" y="0" width="1200" height="1200"/></clipPath><clipPath id="clip-path-dot-color-412"><path d="M 296 8v 32h 16a 16 16, 0, 0, 0, 0 -32" transform="rotate(-90,312,24)"/><path d="M 360 8v 32h 32v -16a 16 16, 0, 0, 0, -16 -16" transform="rotate(-90,376,24)"/><path d="M 392 8v 32h 16a 16 16, 0, 0, 0, 0 -32" transform="rotate(0,408,24)"/><path d="M 488 8v 32h 32v -16a 16 16, 0, 0, 0, -16 -16" transform="rotate(-90,504,24)"/><rect x="520" y="8" width="32" height="32" transform="rotate(0,536,24)"/><rect x="552" y="8" width="32" height="32" transform="rotate(0,568,24)"/><path d="M 584 8v 32h 16a 16 16, 0, 0, 0, 0 -32" transform="rotate(0,600,24)"/><path d="M 712 8v 32h 16a 16 16, 0, 0, 0, 0 -32" transform="rotate(-90,728,24)"/><path d="M 776 8v 32h 16a 16 16, 0, 0, 0, 0 -32" transform="rotate(180,792,24)"/><rect x="808" y="8" width="32" height="32" transform="rotate(0,824,24)"/><rect x="840" y="8" width="32" height="32" transform="rotate(0,856,24)"/><path d="M 872 8v 32h 16a 16 16, 0, 0, 0, 0 -32" transform="rotate(0,888,24)"/><rect x="296" y="40" width="32" height="32" transform="rotate(0,312,56)"/><rect x="328" y="40" width="32" height="32" transform="rotate(0,344,56)"/><rect x="360" y="40" width="32" height="32" transform="rotate(0,376,56)"/><rect x="488" y="40" width="32" height="32" transform="rotate(0,504,56)"/><rect x="552" y="40" width="32" height="32" transform="rotate(0,568,56)"/><path d="M 616 40v 32h 32v -16a 16 16, 0, 0, 0, -16 -16" transform="rotate(-90,632,56)"/><path d="M 648 40v 32h 32v -16a 16 16, 0, 0, 0, -16 -16" transform="rotate(0,664,56)"/><rect x="712" y="40" width="32" height="32" transform="rotate(0,728,56)"/><path d="M 808 40v 32h 32v -16a 16 16, 0, 0, 0, -16 -16" transform="rotate(180,824,56)"/><rect x="840" y="40" width="32" height="32" transform="rotate(0,856,56)"/><circle cx="920" cy="56" r="16" transform="rotate(0,920,56)"/><path d="M 264 72v 32h 16a 16 16, 0, 0, 0, 0 -32" transform="rotate(180,280,88)"/><rect x="296" y="72" width="32" height="32" transform="rotate(0,312,88)"/><rect x="328" y="72" width="32" height="32" transform="rotate(0,344,88)"/><rect x="360" y="72" width="32" height="32" transform="rotate(0,376,88)"/><path d="M 424 72v 32h 16a 16 16, 0, 0, 0, 0 -32" transform="rotate(180,440,88)"/><rect x="456" y="72" width="32" height="32" transform="rotate(0,472,88)"/><rect x="488" y="72" width="32" height="32" transform="rotate(0,504,88)"/><rect x="520" y="72" width="32" height="32" transform="rotate(0,536,88)"/><rect x="552" y="72" width="32" height="32" transform="rotate(0,568,88)"/><rect x="616" y="72" width="32" height="32" transform="rotate(0,632,88)"/><rect x="648" y="72" width="32" height="32" transform="rotate(0,664,88)"/><rect x="680" y="72" width="32" height="32" transform="rotate(0,696,88)"/><rect x="712" y="72" width="32" height="32" transform="rotate(0,728,88)"/><path d="M 744 72v 32h 32v -16a 16 16, 0, 0, 0, -16 -16" transform="rotate(0,760,88)"/><rect x="840" y="72" width="32" height="32" transform="rotate(0,856,88)"/><path d="M 872 72v 32h 16a 16 16, 0, 0, 0, 0 -32" transform="rotate(0,888,88)"/><rect x="296" y="104" width="32" height="32" transform="rotate(0,312,120)"/><path d="M 360 104v 32h 32v -16a 16 16, 0, 0, 0, -16 -16" transform="rotate(180,376,120)"/><path d="M 392 104v 32h 16a 16 16, 0, 0, 0, 0 -32" transform="rotate(0,408,120)"/><rect x="552" y="104" width="32" height="32" transform="rotate(0,568,120)"/><rect x="616" y="104" width="32" height="32" transform="rotate(0,632,120)"/><rect x="744" y="104" width="32" height="32" transform="rotate(0,760,120)"/><path d="M 808 104v 32h 32v -16a 16 16, 0, 0, 0, -16 -16" transform="rotate(-90,824,120)"/><rect x="840" y="104" width="32" height="32" transform="rotate(0,856,120)"/><circle cx="920" cy="120" r="16" transform="rotate(0,920,120)"/><path d="M 264 136v 32h 32v -16a 16 16, 0, 0, 0, -16 -16" transform="rotate(-90,280,152)"/><rect x="296" y="136" width="32" height="32" transform="rotate(0,312,152)"/><path d="M 328 136v 32h 16a 16 16, 0, 0, 0, 0 -32" transform="rotate(0,344,152)"/><circle cx="504" cy="152" r="16" transform="rotate(0,504,152)"/><rect x="552" y="136" width="32" height="32" transform="rotate(0,568,152)"/><rect x="584" y="136" width="32" height="32" transform="rotate(0,600,152)"/><rect x="616" y="136" width="32" height="32" transform="rotate(0,632,152)"/><path d="M 712 136v 32h 32v -16a 16 16, 0, 0, 0, -16 -16" transform="rotate(-90,728,152)"/><rect x="744" y="136" width="32" height="32" transform="rotate(0,760,152)"/><rect x="776" y="136" width="32" height="32" transform="rotate(0,792,152)"/><rect x="808" y="136" width="32" height="32" transform="rotate(0,824,152)"/><rect x="840" y="136" width="32" height="32" transform="rotate(0,856,152)"/><path d="M 872 136v 32h 16a 16 16, 0, 0, 0, 0 -32" transform="rotate(0,888,152)"/><rect x="264" y="168" width="32" height="32" transform="rotate(0,280,184)"/><path d="M 296 168v 32h 32v -16a 16 16, 0, 0, 0, -16 -16" transform="rotate(90,312,184)"/><circle cx="376" cy="184" r="16" transform="rotate(0,376,184)"/><path d="M 456 168v 32h 16a 16 16, 0, 0, 0, 0 -32" transform="rotate(-90,472,184)"/><path d="M 520 168v 32h 32v -16a 16 16, 0, 0, 0, -16 -16" transform="rotate(-90,536,184)"/><rect x="552" y="168" width="32" height="32" transform="rotate(0,568,184)"/><rect x="584" y="168" width="32" height="32" transform="rotate(0,600,184)"/><rect x="616" y="168" width="32" height="32" transform="rotate(0,632,184)"/><path d="M 648 168v 32h 32v -16a 16 16, 0, 0, 0, -16 -16" transform="rotate(0,664,184)"/><rect x="712" y="168" width="32" height="32" transform="rotate(0,728,184)"/><rect x="776" y="168" width="32" height="32" transform="rotate(0,792,184)"/><path d="M 808 168v 32h 32v -16a 16 16, 0, 0, 0, -16 -16" transform="rotate(90,824,184)"/><path d="M 904 168v 32h 16a 16 16, 0, 0, 0, 0 -32" transform="rotate(-90,920,184)"/><path d="M 264 200v 32h 16a 16 16, 0, 0, 0, 0 -32" transform="rotate(90,280,216)"/><path d="M 328 200v 32h 16a 16 16, 0, 0, 0, 0 -32" transform="rotate(-90,344,216)"/><path d="M 392 200v 32h 16a 16 16, 0, 0, 0, 0 -32" transform="rotate(-90,408,216)"/><rect x="456" y="200" width="32" height="32" transform="rotate(0,472,216)"/><path d="M 520 200v 32h 16a 16 16, 0, 0, 0, 0 -32" transform="rotate(90,536,216)"/><path d="M 584 200v 32h 16a 16 16, 0, 0, 0, 0 -32" transform="rotate(90,600,216)"/><path d="M 648 200v 32h 16a 16 16, 0, 0, 0, 0 -32" transform="rotate(90,664,216)"/><path d="M 712 200v 32h 16a 16 16, 0, 0, 0, 0 -32" transform="rotate(90,728,216)"/><rect x="776" y="200" width="32" height="32" transform="rotate(0,792,216)"/><path d="M 840 200v 32h 16a 16 16, 0, 0, 0, 0 -32" transform="rotate(-90,856,216)"/><path d="M 904 200v 32h 16a 16 16, 0, 0, 0, 0 -32" transform="rotate(90,920,216)"/><path d="M 296 232v 32h 32v -16a 16 16, 0, 0, 0, -16 -16" transform="rotate(-90,312,248)"/><rect x="328" y="232" width="32" height="32" transform="rotate(0,344,248)"/><rect x="360" y="232" width="32" height="32" transform="rotate(0,376,248)"/><rect x="392" y="232" width="32" height="32" transform="rotate(0,408,248)"/><path d="M 456 232v 32h 32v -16a 16 16, 0, 0, 0, -16 -16" transform="rotate(180,472,248)"/><path d="M 488 232v 32h 32v -16a 16 16, 0, 0, 0, -16 -16" transform="rotate(0,504,248)"/><path d="M 552 232v 32h 16a 16 16, 0, 0, 0, 0 -32" transform="rotate(-90,568,248)"/><circle cx="632" cy="248" r="16" transform="rotate(0,632,248)"/><path d="M 680 232v 32h 16a 16 16, 0, 0, 0, 0 -32" transform="rotate(-90,696,248)"/><rect x="776" y="232" width="32" height="32" transform="rotate(0,792,248)"/><rect x="840" y="232" width="32" height="32" transform="rotate(0,856,248)"/><circle cx="56" cy="280" r="16" transform="rotate(0,56,280)"/><circle cx="152" cy="280" r="16" transform="rotate(0,152,280)"/><circle cx="216" cy="280" r="16" transform="rotate(0,216,280)"/><path d="M 264 264v 32h 16a 16 16, 0, 0, 0, 0 -32" transform="rotate(180,280,280)"/><rect x="296" y="264" width="32" height="32" transform="rotate(0,312,280)"/><path d="M 392 264v 32h 16a 16 16, 0, 0, 0, 0 -32" transform="rotate(90,408,280)"/><rect x="488" y="264" width="32" height="32" transform="rotate(0,504,280)"/><rect x="520" y="264" width="32" height="32" transform="rotate(0,536,280)"/><rect x="552" y="264" width="32" height="32" transform="rotate(0,568,280)"/><path d="M 584 264v 32h 16a 16 16, 0, 0, 0, 0 -32" transform="rotate(0,600,280)"/><rect x="680" y="264" width="32" height="32" transform="rotate(0,696,280)"/><path d="M 712 264v 32h 32v -16a 16 16, 0, 0, 0, -16 -16" transform="rotate(0,728,280)"/><path d="M 776 264v 32h 32v -16a 16 16, 0, 0, 0, -16 -16" transform="rotate(180,792,280)"/><rect x="808" y="264" width="32" height="32" transform="rotate(0,824,280)"/><rect x="840" y="264" width="32" height="32" transform="rotate(0,856,280)"/><path d="M 872 264v 32h 32v -16a 16 16, 0, 0, 0, -16 -16" transform="rotate(0,888,280)"/><circle cx="952" cy="280" r="16" transform="rotate(0,952,280)"/><path d="M 1000 264v 32h 16a 16 16, 0, 0, 0, 0 -32" transform="rotate(180,1016,280)"/><path d="M 1032 264v 32h 32v -16a 16 16, 0, 0, 0, -16 -16" transform="rotate(0,1048,280)"/><path d="M 1096 264v 32h 16a 16 16, 0, 0, 0, 0 -32" transform="rotate(-90,1112,280)"/><circle cx="24" cy="312" r="16" transform="rotate(0,24,312)"/><circle cx="88" cy="312" r="16" transform="rotate(0,88,312)"/><path d="M 296 296v 32h 32v -16a 16 16, 0, 0, 0, -16 -16" transform="rotate(180,312,312)"/><rect x="328" y="296" width="32" height="32" transform="rotate(0,344,312)"/><path d="M 360 296v 32h 32v -16a 16 16, 0, 0, 0, -16 -16" transform="rotate(0,376,312)"/><rect x="488" y="296" width="32" height="32" transform="rotate(0,504,312)"/><path d="M 520 296v 32h 32v -16a 16 16, 0, 0, 0, -16 -16" transform="rotate(90,536,312)"/><path d="M 648 296v 32h 32v -16a 16 16, 0, 0, 0, -16 -16" transform="rotate(-90,664,312)"/><rect x="680" y="296" width="32" height="32" transform="rotate(0,696,312)"/><rect x="712" y="296" width="32" height="32" transform="rotate(0,728,312)"/><path d="M 744 296v 32h 32v -16a 16 16, 0, 0, 0, -16 -16" transform="rotate(0,760,312)"/><rect x="840" y="296" width="32" height="32" transform="rotate(0,856,312)"/><rect x="872" y="296" width="32" height="32" transform="rotate(0,888,312)"/><path d="M 904 296v 32h 32v -16a 16 16, 0, 0, 0, -16 -16" transform="rotate(0,920,312)"/><path d="M 1032 296v 32h 16a 16 16, 0, 0, 0, 0 -32" transform="rotate(90,1048,312)"/><rect x="1096" y="296" width="32" height="32" transform="rotate(0,1112,312)"/><circle cx="56" cy="344" r="16" transform="rotate(0,56,344)"/><path d="M 104 328v 32h 16a 16 16, 0, 0, 0, 0 -32" transform="rotate(-90,120,344)"/><path d="M 168 328v 32h 32v -16a 16 16, 0, 0, 0, -16 -16" transform="rotate(-90,184,344)"/><path d="M 200 328v 32h 16a 16 16, 0, 0, 0, 0 -32" transform="rotate(0,216,344)"/><path d="M 264 328v 32h 16a 16 16, 0, 0, 0, 0 -32" transform="rotate(-90,280,344)"/><rect x="360" y="328" width="32" height="32" transform="rotate(0,376,344)"/><rect x="392" y="328" width="32" height="32" transform="rotate(0,408,344)"/><rect x="424" y="328" width="32" height="32" transform="rotate(0,440,344)"/><rect x="456" y="328" width="32" height="32" transform="rotate(0,472,344)"/><rect x="488" y="328" width="32" height="32" transform="rotate(0,504,344)"/><path d="M 584 328v 32h 32v -16a 16 16, 0, 0, 0, -16 -16" transform="rotate(-90,600,344)"/><rect x="616" y="328" width="32" height="32" transform="rotate(0,632,344)"/><rect x="648" y="328" width="32" height="32" transform="rotate(0,664,344)"/><rect x="680" y="328" width="32" height="32" transform="rotate(0,696,344)"/><path d="M 744 328v 32h 32v -16a 16 16, 0, 0, 0, -16 -16" transform="rotate(180,760,344)"/><rect x="776" y="328" width="32" height="32" transform="rotate(0,792,344)"/><rect x="808" y="328" width="32" height="32" transform="rotate(0,824,344)"/><rect x="840" y="328" width="32" height="32" transform="rotate(0,856,344)"/><rect x="872" y="328" width="32" height="32" transform="rotate(0,888,344)"/><rect x="904" y="328" width="32" height="32" transform="rotate(0,920,344)"/><path d="M 936 328v 32h 32v -16a 16 16, 0, 0, 0, -16 -16" transform="rotate(0,952,344)"/><circle cx="1016" cy="344" r="16" transform="rotate(0,1016,344)"/><rect x="1096" y="328" width="32" height="32" transform="rotate(0,1112,344)"/><path d="M 72 360v 32h 32v -16a 16 16, 0, 0, 0, -16 -16" transform="rotate(-90,88,376)"/><rect x="104" y="360" width="32" height="32" transform="rotate(0,120,376)"/><rect x="168" y="360" width="32" height="32" transform="rotate(0,184,376)"/><rect x="264" y="360" width="32" height="32" transform="rotate(0,280,376)"/><path d="M 328 360v 32h 16a 16 16, 0, 0, 0, 0 -32" transform="rotate(180,344,376)"/><rect x="360" y="360" width="32" height="32" transform="rotate(0,376,376)"/><rect x="424" y="360" width="32" height="32" transform="rotate(0,440,376)"/><rect x="456" y="360" width="32" height="32" transform="rotate(0,472,376)"/><rect x="488" y="360" width="32" height="32" transform="rotate(0,504,376)"/><path d="M 520 360v 32h 16a 16 16, 0, 0, 0, 0 -32" transform="rotate(0,536,376)"/><rect x="584" y="360" width="32" height="32" transform="rotate(0,600,376)"/><rect x="648" y="360" width="32" height="32" transform="rotate(0,664,376)"/><rect x="680" y="360" width="32" height="32" transform="rotate(0,696,376)"/><path d="M 840 360v 32h 16a 16 16, 0, 0, 0, 0 -32" transform="rotate(90,856,376)"/><path d="M 904 360v 32h 32v -16a 16 16, 0, 0, 0, -16 -16" transform="rotate(180,920,376)"/><rect x="936" y="360" width="32" height="32" transform="rotate(0,952,376)"/><circle cx="1048" cy="376" r="16" transform="rotate(0,1048,376)"/><rect x="1096" y="360" width="32" height="32" transform="rotate(0,1112,376)"/><path d="M 1160 360v 32h 16a 16 16, 0, 0, 0, 0 -32" transform="rotate(-90,1176,376)"/><path d="M 40 392v 32h 32v -16a 16 16, 0, 0, 0, -16 -16" transform="rotate(-90,56,408)"/><rect x="72" y="392" width="32" height="32" transform="rotate(0,88,408)"/><rect x="104" y="392" width="32" height="32" transform="rotate(0,120,408)"/><path d="M 168 392v 32h 32v -16a 16 16, 0, 0, 0, -16 -16" transform="rotate(180,184,408)"/><rect x="200" y="392" width="32" height="32" transform="rotate(0,216,408)"/><rect x="232" y="392" width="32" height="32" transform="rotate(0,248,408)"/><path d="M 264 392v 32h 32v -16a 16 16, 0, 0, 0, -16 -16" transform="rotate(90,280,408)"/><path d="M 360 392v 32h 32v -16a 16 16, 0, 0, 0, -16 -16" transform="rotate(180,376,408)"/><rect x="392" y="392" width="32" height="32" transform="rotate(0,408,408)"/><rect x="424" y="392" width="32" height="32" transform="rotate(0,440,408)"/><rect x="456" y="392" width="32" height="32" transform="rotate(0,472,408)"/><path d="M 488 392v 32h 32v -16a 16 16, 0, 0, 0, -16 -16" transform="rotate(90,504,408)"/><path d="M 584 392v 32h 32v -16a 16 16, 0, 0, 0, -16 -16" transform="rotate(180,600,408)"/><rect x="616" y="392" width="32" height="32" transform="rotate(0,632,408)"/><rect x="648" y="392" width="32" height="32" transform="rotate(0,664,408)"/><rect x="680" y="392" width="32" height="32" transform="rotate(0,696,408)"/><path d="M 712 392v 32h 32v -16a 16 16, 0, 0, 0, -16 -16" transform="rotate(0,728,408)"/><rect x="936" y="392" width="32" height="32" transform="rotate(0,952,408)"/><rect x="968" y="392" width="32" height="32" transform="rotate(0,984,408)"/><path d="M 1000 392v 32h 32v -16a 16 16, 0, 0, 0, -16 -16" transform="rotate(0,1016,408)"/><rect x="1096" y="392" width="32" height="32" transform="rotate(0,1112,408)"/><path d="M 1160 392v 32h 16a 16 16, 0, 0, 0, 0 -32" transform="rotate(90,1176,408)"/><path d="M 40 424v 32h 16a 16 16, 0, 0, 0, 0 -32" transform="rotate(90,56,440)"/><rect x="104" y="424" width="32" height="32" transform="rotate(0,120,440)"/><path d="M 136 424v 32h 16a 16 16, 0, 0, 0, 0 -32" transform="rotate(0,152,440)"/><path d="M 296 424v 32h 16a 16 16, 0, 0, 0, 0 -32" transform="rotate(-90,312,440)"/><rect x="392" y="424" width="32" height="32" transform="rotate(0,408,440)"/><rect x="424" y="424" width="32" height="32" transform="rotate(0,440,440)"/><rect x="456" y="424" width="32" height="32" transform="rotate(0,472,440)"/><path d="M 520 424v 32h 16a 16 16, 0, 0, 0, 0 -32" transform="rotate(180,536,440)"/><path d="M 552 424v 32h 16a 16 16, 0, 0, 0, 0 -32" transform="rotate(0,568,440)"/><path d="M 616 424v 32h 16a 16 16, 0, 0, 0, 0 -32" transform="rotate(90,632,440)"/><path d="M 680 424v 32h 32v -16a 16 16, 0, 0, 0, -16 -16" transform="rotate(180,696,440)"/><rect x="712" y="424" width="32" height="32" transform="rotate(0,728,440)"/><path d="M 744 424v 32h 32v -16a 16 16, 0, 0, 0, -16 -16" transform="rotate(0,760,440)"/><path d="M 840 424v 32h 32v -16a 16 16, 0, 0, 0, -16 -16" transform="rotate(-90,856,440)"/><rect x="872" y="424" width="32" height="32" transform="rotate(0,888,440)"/><rect x="904" y="424" width="32" height="32" transform="rotate(0,920,440)"/><path d="M 936 424v 32h 32v -16a 16 16, 0, 0, 0, -16 -16" transform="rotate(90,952,440)"/><path d="M 1000 424v 32h 32v -16a 16 16, 0, 0, 0, -16 -16" transform="rotate(180,1016,440)"/><path d="M 1032 424v 32h 16a 16 16, 0, 0, 0, 0 -32" transform="rotate(0,1048,440)"/><rect x="1096" y="424" width="32" height="32" transform="rotate(0,1112,440)"/><path d="M 72 456v 32h 16a 16 16, 0, 0, 0, 0 -32" transform="rotate(180,88,472)"/><rect x="104" y="456" width="32" height="32" transform="rotate(0,120,472)"/><path d="M 168 456v 32h 32v -16a 16 16, 0, 0, 0, -16 -16" transform="rotate(-90,184,472)"/><rect x="200" y="456" width="32" height="32" transform="rotate(0,216,472)"/><rect x="232" y="456" width="32" height="32" transform="rotate(0,248,472)"/><rect x="264" y="456" width="32" height="32" transform="rotate(0,280,472)"/><rect x="296" y="456" width="32" height="32" transform="rotate(0,312,472)"/><path d="M 328 456v 32h 16a 16 16, 0, 0, 0, 0 -32" transform="rotate(0,344,472)"/><rect x="392" y="456" width="32" height="32" transform="rotate(0,408,472)"/><rect x="456" y="456" width="32" height="32" transform="rotate(0,472,472)"/><path d="M 648 456v 32h 16a 16 16, 0, 0, 0, 0 -32" transform="rotate(-90,664,472)"/><rect x="744" y="456" width="32" height="32" transform="rotate(0,760,472)"/><path d="M 808 456v 32h 16a 16 16, 0, 0, 0, 0 -32" transform="rotate(180,824,472)"/><rect x="840" y="456" width="32" height="32" transform="rotate(0,856,472)"/><path d="M 872 456v 32h 32v -16a 16 16, 0, 0, 0, -16 -16" transform="rotate(90,888,472)"/><path d="M 968 456v 32h 16a 16 16, 0, 0, 0, 0 -32" transform="rotate(-90,984,472)"/><path d="M 1064 456v 32h 16a 16 16, 0, 0, 0, 0 -32" transform="rotate(180,1080,472)"/><rect x="1096" y="456" width="32" height="32" transform="rotate(0,1112,472)"/><circle cx="24" cy="504" r="16" transform="rotate(0,24,504)"/><rect x="104" y="488" width="32" height="32" transform="rotate(0,120,504)"/><path d="M 168 488v 32h 16a 16 16, 0, 0, 0, 0 -32" transform="rotate(90,184,504)"/><path d="M 264 488v 32h 32v -16a 16 16, 0, 0, 0, -16 -16" transform="rotate(180,280,504)"/><path d="M 296 488v 32h 32v -16a 16 16, 0, 0, 0, -16 -16" transform="rotate(90,312,504)"/><rect x="392" y="488" width="32" height="32" transform="rotate(0,408,504)"/><path d="M 456 488v 32h 16a 16 16, 0, 0, 0, 0 -32" transform="rotate(90,472,504)"/><path d="M 648 488v 32h 16a 16 16, 0, 0, 0, 0 -32" transform="rotate(90,664,504)"/><path d="M 712 488v 32h 32v -16a 16 16, 0, 0, 0, -16 -16" transform="rotate(-90,728,504)"/><rect x="744" y="488" width="32" height="32" transform="rotate(0,760,504)"/><path d="M 776 488v 32h 32v -16a 16 16, 0, 0, 0, -16 -16" transform="rotate(0,792,504)"/><path d="M 840 488v 32h 16a 16 16, 0, 0, 0, 0 -32" transform="rotate(90,856,504)"/><path d="M 936 488v 32h 32v -16a 16 16, 0, 0, 0, -16 -16" transform="rotate(-90,952,504)"/><rect x="968" y="488" width="32" height="32" transform="rotate(0,984,504)"/><path d="M 1000 488v 32h 32v -16a 16 16, 0, 0, 0, -16 -16" transform="rotate(0,1016,504)"/><rect x="1096" y="488" width="32" height="32" transform="rotate(0,1112,504)"/><path d="M 40 520v 32h 32v -16a 16 16, 0, 0, 0, -16 -16" transform="rotate(-90,56,536)"/><rect x="72" y="520" width="32" height="32" transform="rotate(0,88,536)"/><rect x="104" y="520" width="32" height="32" transform="rotate(0,120,536)"/><circle cx="216" cy="536" r="16" transform="rotate(0,216,536)"/><path d="M 392 520v 32h 32v -16a 16 16, 0, 0, 0, -16 -16" transform="rotate(180,408,536)"/><path d="M 424 520v 32h 16a 16 16, 0, 0, 0, 0 -32" transform="rotate(0,440,536)"/><path d="M 488 520v 32h 16a 16 16, 0, 0, 0, 0 -32" transform="rotate(-90,504,536)"/><path d="M 552 520v 32h 16a 16 16, 0, 0, 0, 0 -32" transform="rotate(-90,568,536)"/><path d="M 712 520v 32h 32v -16a 16 16, 0, 0, 0, -16 -16" transform="rotate(180,728,536)"/><rect x="744" y="520" width="32" height="32" transform="rotate(0,760,536)"/><path d="M 776 520v 32h 32v -16a 16 16, 0, 0, 0, -16 -16" transform="rotate(90,792,536)"/><path d="M 872 520v 32h 16a 16 16, 0, 0, 0, 0 -32" transform="rotate(-90,888,536)"/><path d="M 936 520v 32h 32v -16a 16 16, 0, 0, 0, -16 -16" transform="rotate(180,952,536)"/><rect x="968" y="520" width="32" height="32" transform="rotate(0,984,536)"/><rect x="1000" y="520" width="32" height="32" transform="rotate(0,1016,536)"/><path d="M 1064 520v 32h 32v -16a 16 16, 0, 0, 0, -16 -16" transform="rotate(-90,1080,536)"/><rect x="1096" y="520" width="32" height="32" transform="rotate(0,1112,536)"/><rect x="1128" y="520" width="32" height="32" transform="rotate(0,1144,536)"/><path d="M 1160 520v 32h 16a 16 16, 0, 0, 0, 0 -32" transform="rotate(0,1176,536)"/><rect x="40" y="552" width="32" height="32" transform="rotate(0,56,568)"/><path d="M 104 552v 32h 16a 16 16, 0, 0, 0, 0 -32" transform="rotate(90,120,568)"/><circle cx="184" cy="568" r="16" transform="rotate(0,184,568)"/><circle cx="280" cy="568" r="16" transform="rotate(0,280,568)"/><circle cx="376" cy="568" r="16" transform="rotate(0,376,568)"/><path d="M 456 552v 32h 32v -16a 16 16, 0, 0, 0, -16 -16" transform="rotate(-90,472,568)"/><rect x="488" y="552" width="32" height="32" transform="rotate(0,504,568)"/><path d="M 552 552v 32h 32v -16a 16 16, 0, 0, 0, -16 -16" transform="rotate(180,568,568)"/><path d="M 584 552v 32h 16a 16 16, 0, 0, 0, 0 -32" transform="rotate(0,600,568)"/><path d="M 648 552v 32h 16a 16 16, 0, 0, 0, 0 -32" transform="rotate(-90,664,568)"/><path d="M 840 552v 32h 32v -16a 16 16, 0, 0, 0, -16 -16" transform="rotate(-90,856,568)"/><rect x="872" y="552" width="32" height="32" transform="rotate(0,888,568)"/><path d="M 904 552v 32h 16a 16 16, 0, 0, 0, 0 -32" transform="rotate(0,920,568)"/><rect x="1000" y="552" width="32" height="32" transform="rotate(0,1016,568)"/><rect x="1032" y="552" width="32" height="32" transform="rotate(0,1048,568)"/><rect x="1064" y="552" width="32" height="32" transform="rotate(0,1080,568)"/><path d="M 8 584v 32h 32v -16a 16 16, 0, 0, 0, -16 -16" transform="rotate(-90,24,600)"/><rect x="40" y="584" width="32" height="32" transform="rotate(0,56,600)"/><path d="M 72 584v 32h 32v -16a 16 16, 0, 0, 0, -16 -16" transform="rotate(0,88,600)"/><circle cx="152" cy="600" r="16" transform="rotate(0,152,600)"/><path d="M 200 584v 32h 16a 16 16, 0, 0, 0, 0 -32" transform="rotate(180,216,600)"/><path d="M 232 584v 32h 16a 16 16, 0, 0, 0, 0 -32" transform="rotate(0,248,600)"/><circle cx="344" cy="600" r="16" transform="rotate(0,344,600)"/><path d="M 392 584v 32h 32v -16a 16 16, 0, 0, 0, -16 -16" transform="rotate(-90,408,600)"/><rect x="424" y="584" width="32" height="32" transform="rotate(0,440,600)"/><rect x="456" y="584" width="32" height="32" transform="rotate(0,472,600)"/><rect x="488" y="584" width="32" height="32" transform="rotate(0,504,600)"/><path d="M 648 584v 32h 32v -16a 16 16, 0, 0, 0, -16 -16" transform="rotate(180,664,600)"/><path d="M 680 584v 32h 32v -16a 16 16, 0, 0, 0, -16 -16" transform="rotate(0,696,600)"/><path d="M 808 584v 32h 16a 16 16, 0, 0, 0, 0 -32" transform="rotate(180,824,600)"/><rect x="840" y="584" width="32" height="32" transform="rotate(0,856,600)"/><path d="M 872 584v 32h 32v -16a 16 16, 0, 0, 0, -16 -16" transform="rotate(90,888,600)"/><path d="M 968 584v 32h 16a 16 16, 0, 0, 0, 0 -32" transform="rotate(180,984,600)"/><path d="M 1000 584v 32h 32v -16a 16 16, 0, 0, 0, -16 -16" transform="rotate(90,1016,600)"/><path d="M 1064 584v 32h 16a 16 16, 0, 0, 0, 0 -32" transform="rotate(90,1080,600)"/><path d="M 8 616v 32h 32v -16a 16 16, 0, 0, 0, -16 -16" transform="rotate(180,24,632)"/><rect x="40" y="616" width="32" height="32" transform="rotate(0,56,632)"/><rect x="72" y="616" width="32" height="32" transform="rotate(0,88,632)"/><path d="M 168 616v 32h 16a 16 16, 0, 0, 0, 0 -32" transform="rotate(-90,184,632)"/><path d="M 264 616v 32h 16a 16 16, 0, 0, 0, 0 -32" transform="rotate(180,280,632)"/><path d="M 296 616v 32h 16a 16 16, 0, 0, 0, 0 -32" transform="rotate(0,312,632)"/><rect x="392" y="616" width="32" height="32" transform="rotate(0,408,632)"/><rect x="456" y="616" width="32" height="32" transform="rotate(0,472,632)"/><path d="M 488 616v 32h 32v -16a 16 16, 0, 0, 0, -16 -16" transform="rotate(90,504,632)"/><rect x="680" y="616" width="32" height="32" transform="rotate(0,696,632)"/><circle cx="792" cy="632" r="16" transform="rotate(0,792,632)"/><circle cx="1048" cy="632" r="16" transform="rotate(0,1048,632)"/><path d="M 1096 616v 32h 16a 16 16, 0, 0, 0, 0 -32" transform="rotate(-90,1112,632)"/><path d="M 40 648v 32h 32v -16a 16 16, 0, 0, 0, -16 -16" transform="rotate(180,56,664)"/><rect x="72" y="648" width="32" height="32" transform="rotate(0,88,664)"/><path d="M 104 648v 32h 32v -16a 16 16, 0, 0, 0, -16 -16" transform="rotate(0,120,664)"/><path d="M 168 648v 32h 32v -16a 16 16, 0, 0, 0, -16 -16" transform="rotate(180,184,664)"/><path d="M 200 648v 32h 16a 16 16, 0, 0, 0, 0 -32" transform="rotate(0,216,664)"/><path d="M 360 648v 32h 32v -16a 16 16, 0, 0, 0, -16 -16" transform="rotate(-90,376,664)"/><rect x="392" y="648" width="32" height="32" transform="rotate(0,408,664)"/><rect x="456" y="648" width="32" height="32" transform="rotate(0,472,664)"/><path d="M 520 648v 32h 16a 16 16, 0, 0, 0, 0 -32" transform="rotate(180,536,664)"/><path d="M 552 648v 32h 32v -16a 16 16, 0, 0, 0, -16 -16" transform="rotate(0,568,664)"/><path d="M 680 648v 32h 32v -16a 16 16, 0, 0, 0, -16 -16" transform="rotate(180,696,664)"/><rect x="712" y="648" width="32" height="32" transform="rotate(0,728,664)"/><path d="M 744 648v 32h 32v -16a 16 16, 0, 0, 0, -16 -16" transform="rotate(0,760,664)"/><path d="M 872 648v 32h 16a 16 16, 0, 0, 0, 0 -32" transform="rotate(-90,888,664)"/><path d="M 936 648v 32h 16a 16 16, 0, 0, 0, 0 -32" transform="rotate(180,952,664)"/><path d="M 968 648v 32h 16a 16 16, 0, 0, 0, 0 -32" transform="rotate(0,984,664)"/><path d="M 1096 648v 32h 32v -16a 16 16, 0, 0, 0, -16 -16" transform="rotate(180,1112,664)"/><rect x="1128" y="648" width="32" height="32" transform="rotate(0,1144,664)"/><path d="M 1160 648v 32h 16a 16 16, 0, 0, 0, 0 -32" transform="rotate(0,1176,664)"/><circle cx="24" cy="696" r="16" transform="rotate(0,24,696)"/><path d="M 104 680v 32h 32v -16a 16 16, 0, 0, 0, -16 -16" transform="rotate(180,120,696)"/><path d="M 136 680v 32h 16a 16 16, 0, 0, 0, 0 -32" transform="rotate(0,152,696)"/><path d="M 232 680v 32h 16a 16 16, 0, 0, 0, 0 -32" transform="rotate(-90,248,696)"/><path d="M 328 680v 32h 32v -16a 16 16, 0, 0, 0, -16 -16" transform="rotate(-90,344,696)"/><rect x="360" y="680" width="32" height="32" transform="rotate(0,376,696)"/><rect x="392" y="680" width="32" height="32" transform="rotate(0,408,696)"/><rect x="424" y="680" width="32" height="32" transform="rotate(0,440,696)"/><rect x="456" y="680" width="32" height="32" transform="rotate(0,472,696)"/><path d="M 488 680v 32h 16a 16 16, 0, 0, 0, 0 -32" transform="rotate(0,504,696)"/><rect x="552" y="680" width="32" height="32" transform="rotate(0,568,696)"/><rect x="712" y="680" width="32" height="32" transform="rotate(0,728,696)"/><rect x="744" y="680" width="32" height="32" transform="rotate(0,760,696)"/><path d="M 776 680v 32h 32v -16a 16 16, 0, 0, 0, -16 -16" transform="rotate(0,792,696)"/><path d="M 840 680v 32h 32v -16a 16 16, 0, 0, 0, -16 -16" transform="rotate(-90,856,696)"/><rect x="872" y="680" width="32" height="32" transform="rotate(0,888,696)"/><circle cx="1048" cy="696" r="16" transform="rotate(0,1048,696)"/><path d="M 1128 680v 32h 16a 16 16, 0, 0, 0, 0 -32" transform="rotate(90,1144,696)"/><path d="M 168 712v 32h 16a 16 16, 0, 0, 0, 0 -32" transform="rotate(180,184,728)"/><rect x="200" y="712" width="32" height="32" transform="rotate(0,216,728)"/><rect x="232" y="712" width="32" height="32" transform="rotate(0,248,728)"/><path d="M 296 712v 32h 16a 16 16, 0, 0, 0, 0 -32" transform="rotate(180,312,728)"/><path d="M 328 712v 32h 32v -16a 16 16, 0, 0, 0, -16 -16" transform="rotate(90,344,728)"/><path d="M 392 712v 32h 32v -16a 16 16, 0, 0, 0, -16 -16" transform="rotate(180,408,728)"/><path d="M 424 712v 32h 32v -16a 16 16, 0, 0, 0, -16 -16" transform="rotate(90,440,728)"/><path d="M 520 712v 32h 16a 16 16, 0, 0, 0, 0 -32" transform="rotate(180,536,728)"/><rect x="552" y="712" width="32" height="32" transform="rotate(0,568,728)"/><path d="M 584 712v 32h 32v -16a 16 16, 0, 0, 0, -16 -16" transform="rotate(0,600,728)"/><rect x="712" y="712" width="32" height="32" transform="rotate(0,728,728)"/><rect x="744" y="712" width="32" height="32" transform="rotate(0,760,728)"/><rect x="776" y="712" width="32" height="32" transform="rotate(0,792,728)"/><rect x="808" y="712" width="32" height="32" transform="rotate(0,824,728)"/><rect x="840" y="712" width="32" height="32" transform="rotate(0,856,728)"/><rect x="872" y="712" width="32" height="32" transform="rotate(0,888,728)"/><path d="M 904 712v 32h 32v -16a 16 16, 0, 0, 0, -16 -16" transform="rotate(0,920,728)"/><path d="M 1096 712v 32h 16a 16 16, 0, 0, 0, 0 -32" transform="rotate(-90,1112,728)"/><path d="M 232 744v 32h 32v -16a 16 16, 0, 0, 0, -16 -16" transform="rotate(180,248,760)"/><path d="M 264 744v 32h 32v -16a 16 16, 0, 0, 0, -16 -16" transform="rotate(0,280,760)"/><rect x="552" y="744" width="32" height="32" transform="rotate(0,568,760)"/><rect x="584" y="744" width="32" height="32" transform="rotate(0,600,760)"/><path d="M 616 744v 32h 32v -16a 16 16, 0, 0, 0, -16 -16" transform="rotate(0,632,760)"/><path d="M 680 744v 32h 32v -16a 16 16, 0, 0, 0, -16 -16" transform="rotate(-90,696,760)"/><rect x="712" y="744" width="32" height="32" transform="rotate(0,728,760)"/><rect x="744" y="744" width="32" height="32" transform="rotate(0,760,760)"/><rect x="776" y="744" width="32" height="32" transform="rotate(0,792,760)"/><rect x="808" y="744" width="32" height="32" transform="rotate(0,824,760)"/><rect x="904" y="744" width="32" height="32" transform="rotate(0,920,760)"/><path d="M 968 744v 32h 32v -16a 16 16, 0, 0, 0, -16 -16" transform="rotate(-90,984,760)"/><path d="M 1000 744v 32h 32v -16a 16 16, 0, 0, 0, -16 -16" transform="rotate(0,1016,760)"/><rect x="1096" y="744" width="32" height="32" transform="rotate(0,1112,760)"/><rect x="1128" y="744" width="32" height="32" transform="rotate(0,1144,760)"/><path d="M 1160 744v 32h 16a 16 16, 0, 0, 0, 0 -32" transform="rotate(0,1176,760)"/><path d="M 8 776v 32h 32v -16a 16 16, 0, 0, 0, -16 -16" transform="rotate(-90,24,792)"/><rect x="40" y="776" width="32" height="32" transform="rotate(0,56,792)"/><rect x="72" y="776" width="32" height="32" transform="rotate(0,88,792)"/><path d="M 104 776v 32h 16a 16 16, 0, 0, 0, 0 -32" transform="rotate(0,120,792)"/><path d="M 168 776v 32h 16a 16 16, 0, 0, 0, 0 -32" transform="rotate(180,184,792)"/><path d="M 200 776v 32h 16a 16 16, 0, 0, 0, 0 -32" transform="rotate(0,216,792)"/><rect x="264" y="776" width="32" height="32" transform="rotate(0,280,792)"/><path d="M 360 776v 32h 16a 16 16, 0, 0, 0, 0 -32" transform="rotate(-90,376,792)"/><path d="M 424 776v 32h 16a 16 16, 0, 0, 0, 0 -32" transform="rotate(180,440,792)"/><rect x="456" y="776" width="32" height="32" transform="rotate(0,472,792)"/><rect x="488" y="776" width="32" height="32" transform="rotate(0,504,792)"/><rect x="520" y="776" width="32" height="32" transform="rotate(0,536,792)"/><rect x="552" y="776" width="32" height="32" transform="rotate(0,568,792)"/><rect x="584" y="776" width="32" height="32" transform="rotate(0,600,792)"/><rect x="616" y="776" width="32" height="32" transform="rotate(0,632,792)"/><rect x="648" y="776" width="32" height="32" transform="rotate(0,664,792)"/><rect x="680" y="776" width="32" height="32" transform="rotate(0,696,792)"/><rect x="712" y="776" width="32" height="32" transform="rotate(0,728,792)"/><rect x="744" y="776" width="32" height="32" transform="rotate(0,760,792)"/><rect x="808" y="776" width="32" height="32" transform="rotate(0,824,792)"/><path d="M 872 776v 32h 32v -16a 16 16, 0, 0, 0, -16 -16" transform="rotate(-90,888,792)"/><rect x="904" y="776" width="32" height="32" transform="rotate(0,920,792)"/><rect x="936" y="776" width="32" height="32" transform="rotate(0,952,792)"/><rect x="968" y="776" width="32" height="32" transform="rotate(0,984,792)"/><path d="M 1000 776v 32h 32v -16a 16 16, 0, 0, 0, -16 -16" transform="rotate(90,1016,792)"/><path d="M 1064 776v 32h 32v -16a 16 16, 0, 0, 0, -16 -16" transform="rotate(-90,1080,792)"/><rect x="1096" y="776" width="32" height="32" transform="rotate(0,1112,792)"/><path d="M 1128 776v 32h 32v -16a 16 16, 0, 0, 0, -16 -16" transform="rotate(90,1144,792)"/><path d="M 8 808v 32h 32v -16a 16 16, 0, 0, 0, -16 -16" transform="rotate(180,24,824)"/><rect x="40" y="808" width="32" height="32" transform="rotate(0,56,824)"/><path d="M 72 808v 32h 32v -16a 16 16, 0, 0, 0, -16 -16" transform="rotate(90,88,824)"/><path d="M 136 808v 32h 16a 16 16, 0, 0, 0, 0 -32" transform="rotate(-90,152,824)"/><path d="M 232 808v 32h 16a 16 16, 0, 0, 0, 0 -32" transform="rotate(180,248,824)"/><rect x="264" y="808" width="32" height="32" transform="rotate(0,280,824)"/><path d="M 296 808v 32h 32v -16a 16 16, 0, 0, 0, -16 -16" transform="rotate(0,312,824)"/><path d="M 360 808v 32h 16a 16 16, 0, 0, 0, 0 -32" transform="rotate(90,376,824)"/><rect x="456" y="808" width="32" height="32" transform="rotate(0,472,824)"/><rect x="488" y="808" width="32" height="32" transform="rotate(0,504,824)"/><rect x="520" y="808" width="32" height="32" transform="rotate(0,536,824)"/><rect x="552" y="808" width="32" height="32" transform="rotate(0,568,824)"/><rect x="584" y="808" width="32" height="32" transform="rotate(0,600,824)"/><path d="M 648 808v 32h 16a 16 16, 0, 0, 0, 0 -32" transform="rotate(90,664,824)"/><path d="M 712 808v 32h 32v -16a 16 16, 0, 0, 0, -16 -16" transform="rotate(180,728,824)"/><rect x="744" y="808" width="32" height="32" transform="rotate(0,760,824)"/><rect x="808" y="808" width="32" height="32" transform="rotate(0,824,824)"/><rect x="840" y="808" width="32" height="32" transform="rotate(0,856,824)"/><rect x="872" y="808" width="32" height="32" transform="rotate(0,888,824)"/><rect x="904" y="808" width="32" height="32" transform="rotate(0,920,824)"/><rect x="936" y="808" width="32" height="32" transform="rotate(0,952,824)"/><path d="M 1032 808v 32h 32v -16a 16 16, 0, 0, 0, -16 -16" transform="rotate(-90,1048,824)"/><rect x="1064" y="808" width="32" height="32" transform="rotate(0,1080,824)"/><rect x="1096" y="808" width="32" height="32" transform="rotate(0,1112,824)"/><path d="M 104 840v 32h 32v -16a 16 16, 0, 0, 0, -16 -16" transform="rotate(-90,120,856)"/><rect x="136" y="840" width="32" height="32" transform="rotate(0,152,856)"/><circle cx="216" cy="856" r="16" transform="rotate(0,216,856)"/><rect x="296" y="840" width="32" height="32" transform="rotate(0,312,856)"/><path d="M 328 840v 32h 16a 16 16, 0, 0, 0, 0 -32" transform="rotate(0,344,856)"/><path d="M 392 840v 32h 16a 16 16, 0, 0, 0, 0 -32" transform="rotate(180,408,856)"/><rect x="424" y="840" width="32" height="32" transform="rotate(0,440,856)"/><rect x="456" y="840" width="32" height="32" transform="rotate(0,472,856)"/><rect x="488" y="840" width="32" height="32" transform="rotate(0,504,856)"/><rect x="520" y="840" width="32" height="32" transform="rotate(0,536,856)"/><rect x="552" y="840" width="32" height="32" transform="rotate(0,568,856)"/><rect x="584" y="840" width="32" height="32" transform="rotate(0,600,856)"/><path d="M 616 840v 32h 32v -16a 16 16, 0, 0, 0, -16 -16" transform="rotate(0,632,856)"/><path d="M 744 840v 32h 16a 16 16, 0, 0, 0, 0 -32" transform="rotate(90,760,856)"/><path d="M 808 840v 32h 16a 16 16, 0, 0, 0, 0 -32" transform="rotate(90,824,856)"/><rect x="872" y="840" width="32" height="32" transform="rotate(0,888,856)"/><path d="M 936 840v 32h 16a 16 16, 0, 0, 0, 0 -32" transform="rotate(90,952,856)"/><path d="M 1032 840v 32h 32v -16a 16 16, 0, 0, 0, -16 -16" transform="rotate(180,1048,856)"/><rect x="1064" y="840" width="32" height="32" transform="rotate(0,1080,856)"/><rect x="1096" y="840" width="32" height="32" transform="rotate(0,1112,856)"/><path d="M 72 872v 32h 32v -16a 16 16, 0, 0, 0, -16 -16" transform="rotate(-90,88,888)"/><rect x="104" y="872" width="32" height="32" transform="rotate(0,120,888)"/><path d="M 136 872v 32h 32v -16a 16 16, 0, 0, 0, -16 -16" transform="rotate(90,152,888)"/><path d="M 232 872v 32h 16a 16 16, 0, 0, 0, 0 -32" transform="rotate(180,248,888)"/><rect x="264" y="872" width="32" height="32" transform="rotate(0,280,888)"/><rect x="296" y="872" width="32" height="32" transform="rotate(0,312,888)"/><path d="M 360 872v 32h 16a 16 16, 0, 0, 0, 0 -32" transform="rotate(-90,376,888)"/><rect x="424" y="872" width="32" height="32" transform="rotate(0,440,888)"/><path d="M 488 872v 32h 32v -16a 16 16, 0, 0, 0, -16 -16" transform="rotate(180,504,888)"/><path d="M 520 872v 32h 32v -16a 16 16, 0, 0, 0, -16 -16" transform="rotate(90,536,888)"/><rect x="584" y="872" width="32" height="32" transform="rotate(0,600,888)"/><rect x="616" y="872" width="32" height="32" transform="rotate(0,632,888)"/><path d="M 680 872v 32h 32v -16a 16 16, 0, 0, 0, -16 -16" transform="rotate(-90,696,888)"/><path d="M 712 872v 32h 32v -16a 16 16, 0, 0, 0, -16 -16" transform="rotate(0,728,888)"/><path d="M 776 872v 32h 16a 16 16, 0, 0, 0, 0 -32" transform="rotate(-90,792,888)"/><path d="M 840 872v 32h 16a 16 16, 0, 0, 0, 0 -32" transform="rotate(180,856,888)"/><path d="M 872 872v 32h 32v -16a 16 16, 0, 0, 0, -16 -16" transform="rotate(90,888,888)"/><path d="M 968 872v 32h 32v -16a 16 16, 0, 0, 0, -16 -16" transform="rotate(-90,984,888)"/><path d="M 1000 872v 32h 32v -16a 16 16, 0, 0, 0, -16 -16" transform="rotate(0,1016,888)"/><rect x="1096" y="872" width="32" height="32" transform="rotate(0,1112,888)"/><path d="M 1128 872v 32h 32v -16a 16 16, 0, 0, 0, -16 -16" transform="rotate(0,1144,888)"/><path d="M 8 904v 32h 16a 16 16, 0, 0, 0, 0 -32" transform="rotate(180,24,920)"/><rect x="40" y="904" width="32" height="32" transform="rotate(0,56,920)"/><rect x="72" y="904" width="32" height="32" transform="rotate(0,88,920)"/><path d="M 104 904v 32h 32v -16a 16 16, 0, 0, 0, -16 -16" transform="rotate(90,120,920)"/><path d="M 168 904v 32h 16a 16 16, 0, 0, 0, 0 -32" transform="rotate(180,184,920)"/><path d="M 200 904v 32h 16a 16 16, 0, 0, 0, 0 -32" transform="rotate(0,216,920)"/><rect x="264" y="904" width="32" height="32" transform="rotate(0,280,920)"/><path d="M 296 904v 32h 32v -16a 16 16, 0, 0, 0, -16 -16" transform="rotate(90,312,920)"/><rect x="360" y="904" width="32" height="32" transform="rotate(0,376,920)"/><rect x="424" y="904" width="32" height="32" transform="rotate(0,440,920)"/><path d="M 456 904v 32h 16a 16 16, 0, 0, 0, 0 -32" transform="rotate(0,472,920)"/><path d="M 584 904v 32h 32v -16a 16 16, 0, 0, 0, -16 -16" transform="rotate(180,600,920)"/><rect x="616" y="904" width="32" height="32" transform="rotate(0,632,920)"/><path d="M 680 904v 32h 32v -16a 16 16, 0, 0, 0, -16 -16" transform="rotate(180,696,920)"/><rect x="712" y="904" width="32" height="32" transform="rotate(0,728,920)"/><rect x="744" y="904" width="32" height="32" transform="rotate(0,760,920)"/><path d="M 776 904v 32h 32v -16a 16 16, 0, 0, 0, -16 -16" transform="rotate(90,792,920)"/><path d="M 904 904v 32h 32v -16a 16 16, 0, 0, 0, -16 -16" transform="rotate(-90,920,920)"/><rect x="936" y="904" width="32" height="32" transform="rotate(0,952,920)"/><rect x="968" y="904" width="32" height="32" transform="rotate(0,984,920)"/><rect x="1000" y="904" width="32" height="32" transform="rotate(0,1016,920)"/><path d="M 1032 904v 32h 32v -16a 16 16, 0, 0, 0, -16 -16" transform="rotate(0,1048,920)"/><path d="M 1096 904v 32h 32v -16a 16 16, 0, 0, 0, -16 -16" transform="rotate(180,1112,920)"/><rect x="1128" y="904" width="32" height="32" transform="rotate(0,1144,920)"/><path d="M 1160 904v 32h 16a 16 16, 0, 0, 0, 0 -32" transform="rotate(0,1176,920)"/><path d="M 264 936v 32h 16a 16 16, 0, 0, 0, 0 -32" transform="rotate(90,280,952)"/><path d="M 360 936v 32h 32v -16a 16 16, 0, 0, 0, -16 -16" transform="rotate(180,376,952)"/><rect x="392" y="936" width="32" height="32" transform="rotate(0,408,952)"/><path d="M 424 936v 32h 32v -16a 16 16, 0, 0, 0, -16 -16" transform="rotate(90,440,952)"/><circle cx="568" cy="952" r="16" transform="rotate(0,568,952)"/><path d="M 616 936v 32h 16a 16 16, 0, 0, 0, 0 -32" transform="rotate(90,632,952)"/><rect x="744" y="936" width="32" height="32" transform="rotate(0,760,952)"/><rect x="904" y="936" width="32" height="32" transform="rotate(0,920,952)"/><rect x="1032" y="936" width="32" height="32" transform="rotate(0,1048,952)"/><path d="M 1064 936v 32h 32v -16a 16 16, 0, 0, 0, -16 -16" transform="rotate(0,1080,952)"/><path d="M 328 968v 32h 16a 16 16, 0, 0, 0, 0 -32" transform="rotate(-90,344,984)"/><path d="M 392 968v 32h 16a 16 16, 0, 0, 0, 0 -32" transform="rotate(90,408,984)"/><path d="M 456 968v 32h 16a 16 16, 0, 0, 0, 0 -32" transform="rotate(-90,472,984)"/><path d="M 648 968v 32h 16a 16 16, 0, 0, 0, 0 -32" transform="rotate(180,664,984)"/><rect x="680" y="968" width="32" height="32" transform="rotate(0,696,984)"/><rect x="712" y="968" width="32" height="32" transform="rotate(0,728,984)"/><rect x="744" y="968" width="32" height="32" transform="rotate(0,760,984)"/><path d="M 776 968v 32h 32v -16a 16 16, 0, 0, 0, -16 -16" transform="rotate(0,792,984)"/><rect x="904" y="968" width="32" height="32" transform="rotate(0,920,984)"/><circle cx="984" cy="984" r="16" transform="rotate(0,984,984)"/><rect x="1032" y="968" width="32" height="32" transform="rotate(0,1048,984)"/><rect x="1064" y="968" width="32" height="32" transform="rotate(0,1080,984)"/><path d="M 1096 968v 32h 32v -16a 16 16, 0, 0, 0, -16 -16" transform="rotate(0,1112,984)"/><path d="M 296 1000v 32h 16a 16 16, 0, 0, 0, 0 -32" transform="rotate(180,312,1016)"/><rect x="328" y="1000" width="32" height="32" transform="rotate(0,344,1016)"/><path d="M 424 1000v 32h 32v -16a 16 16, 0, 0, 0, -16 -16" transform="rotate(-90,440,1016)"/><rect x="456" y="1000" width="32" height="32" transform="rotate(0,472,1016)"/><path d="M 552 1000v 32h 16a 16 16, 0, 0, 0, 0 -32" transform="rotate(-90,568,1016)"/><path d="M 680 1000v 32h 16a 16 16, 0, 0, 0, 0 -32" transform="rotate(90,696,1016)"/><path d="M 744 1000v 32h 32v -16a 16 16, 0, 0, 0, -16 -16" transform="rotate(180,760,1016)"/><path d="M 776 1000v 32h 32v -16a 16 16, 0, 0, 0, -16 -16" transform="rotate(90,792,1016)"/><circle cx="856" cy="1016" r="16" transform="rotate(0,856,1016)"/><rect x="904" y="1000" width="32" height="32" transform="rotate(0,920,1016)"/><rect x="1032" y="1000" width="32" height="32" transform="rotate(0,1048,1016)"/><rect x="1096" y="1000" width="32" height="32" transform="rotate(0,1112,1016)"/><rect x="1128" y="1000" width="32" height="32" transform="rotate(0,1144,1016)"/><path d="M 1160 1000v 32h 32v -16a 16 16, 0, 0, 0, -16 -16" transform="rotate(0,1176,1016)"/><circle cx="280" cy="1048" r="16" transform="rotate(0,280,1048)"/><path d="M 328 1032v 32h 16a 16 16, 0, 0, 0, 0 -32" transform="rotate(90,344,1048)"/><path d="M 424 1032v 32h 32v -16a 16 16, 0, 0, 0, -16 -16" transform="rotate(180,440,1048)"/><rect x="456" y="1032" width="32" height="32" transform="rotate(0,472,1048)"/><path d="M 488 1032v 32h 32v -16a 16 16, 0, 0, 0, -16 -16" transform="rotate(0,504,1048)"/><path d="M 552 1032v 32h 32v -16a 16 16, 0, 0, 0, -16 -16" transform="rotate(180,568,1048)"/><path d="M 584 1032v 32h 16a 16 16, 0, 0, 0, 0 -32" transform="rotate(0,600,1048)"/><circle cx="664" cy="1048" r="16" transform="rotate(0,664,1048)"/><path d="M 904 1032v 32h 32v -16a 16 16, 0, 0, 0, -16 -16" transform="rotate(180,920,1048)"/><rect x="936" y="1032" width="32" height="32" transform="rotate(0,952,1048)"/><rect x="968" y="1032" width="32" height="32" transform="rotate(0,984,1048)"/><rect x="1000" y="1032" width="32" height="32" transform="rotate(0,1016,1048)"/><rect x="1032" y="1032" width="32" height="32" transform="rotate(0,1048,1048)"/><rect x="1064" y="1032" width="32" height="32" transform="rotate(0,1080,1048)"/><rect x="1096" y="1032" width="32" height="32" transform="rotate(0,1112,1048)"/><path d="M 1160 1032v 32h 16a 16 16, 0, 0, 0, 0 -32" transform="rotate(90,1176,1048)"/><circle cx="312" cy="1080" r="16" transform="rotate(0,312,1080)"/><rect x="456" y="1064" width="32" height="32" transform="rotate(0,472,1080)"/><path d="M 488 1064v 32h 32v -16a 16 16, 0, 0, 0, -16 -16" transform="rotate(90,504,1080)"/><path d="M 616 1064v 32h 16a 16 16, 0, 0, 0, 0 -32" transform="rotate(-90,632,1080)"/><path d="M 680 1064v 32h 32v -16a 16 16, 0, 0, 0, -16 -16" transform="rotate(-90,696,1080)"/><path d="M 712 1064v 32h 32v -16a 16 16, 0, 0, 0, -16 -16" transform="rotate(0,728,1080)"/><path d="M 776 1064v 32h 32v -16a 16 16, 0, 0, 0, -16 -16" transform="rotate(-90,792,1080)"/><rect x="808" y="1064" width="32" height="32" transform="rotate(0,824,1080)"/><rect x="840" y="1064" width="32" height="32" transform="rotate(0,856,1080)"/><path d="M 872 1064v 32h 16a 16 16, 0, 0, 0, 0 -32" transform="rotate(0,888,1080)"/><rect x="968" y="1064" width="32" height="32" transform="rotate(0,984,1080)"/><rect x="1000" y="1064" width="32" height="32" transform="rotate(0,1016,1080)"/><rect x="1064" y="1064" width="32" height="32" transform="rotate(0,1080,1080)"/><rect x="1096" y="1064" width="32" height="32" transform="rotate(0,1112,1080)"/><path d="M 1128 1064v 32h 32v -16a 16 16, 0, 0, 0, -16 -16" transform="rotate(0,1144,1080)"/><circle cx="344" cy="1112" r="16" transform="rotate(0,344,1112)"/><rect x="456" y="1096" width="32" height="32" transform="rotate(0,472,1112)"/><circle cx="536" cy="1112" r="16" transform="rotate(0,536,1112)"/><rect x="616" y="1096" width="32" height="32" transform="rotate(0,632,1112)"/><rect x="680" y="1096" width="32" height="32" transform="rotate(0,696,1112)"/><rect x="712" y="1096" width="32" height="32" transform="rotate(0,728,1112)"/><rect x="744" y="1096" width="32" height="32" transform="rotate(0,760,1112)"/><path d="M 776 1096v 32h 32v -16a 16 16, 0, 0, 0, -16 -16" transform="rotate(90,792,1112)"/><path d="M 968 1096v 32h 32v -16a 16 16, 0, 0, 0, -16 -16" transform="rotate(180,984,1112)"/><path d="M 1000 1096v 32h 32v -16a 16 16, 0, 0, 0, -16 -16" transform="rotate(90,1016,1112)"/><path d="M 1064 1096v 32h 32v -16a 16 16, 0, 0, 0, -16 -16" transform="rotate(180,1080,1112)"/><rect x="1096" y="1096" width="32" height="32" transform="rotate(0,1112,1112)"/><rect x="1128" y="1096" width="32" height="32" transform="rotate(0,1144,1112)"/><path d="M 264 1128v 32h 16a 16 16, 0, 0, 0, 0 -32" transform="rotate(180,280,1144)"/><path d="M 296 1128v 32h 16a 16 16, 0, 0, 0, 0 -32" transform="rotate(0,312,1144)"/><path d="M 360 1128v 32h 16a 16 16, 0, 0, 0, 0 -32" transform="rotate(180,376,1144)"/><path d="M 392 1128v 32h 32v -16a 16 16, 0, 0, 0, -16 -16" transform="rotate(0,408,1144)"/><rect x="456" y="1128" width="32" height="32" transform="rotate(0,472,1144)"/><path d="M 552 1128v 32h 16a 16 16, 0, 0, 0, 0 -32" transform="rotate(180,568,1144)"/><rect x="584" y="1128" width="32" height="32" transform="rotate(0,600,1144)"/><rect x="616" y="1128" width="32" height="32" transform="rotate(0,632,1144)"/><rect x="648" y="1128" width="32" height="32" transform="rotate(0,664,1144)"/><rect x="680" y="1128" width="32" height="32" transform="rotate(0,696,1144)"/><path d="M 744 1128v 32h 16a 16 16, 0, 0, 0, 0 -32" transform="rotate(90,760,1144)"/><path d="M 840 1128v 32h 32v -16a 16 16, 0, 0, 0, -16 -16" transform="rotate(-90,856,1144)"/><path d="M 872 1128v 32h 32v -16a 16 16, 0, 0, 0, -16 -16" transform="rotate(0,888,1144)"/><path d="M 936 1128v 32h 16a 16 16, 0, 0, 0, 0 -32" transform="rotate(-90,952,1144)"/><path d="M 1032 1128v 32h 16a 16 16, 0, 0, 0, 0 -32" transform="rotate(-90,1048,1144)"/><rect x="1096" y="1128" width="32" height="32" transform="rotate(0,1112,1144)"/><rect x="1128" y="1128" width="32" height="32" transform="rotate(0,1144,1144)"/><circle cx="344" cy="1176" r="16" transform="rotate(0,344,1176)"/><path d="M 392 1160v 32h 32v -16a 16 16, 0, 0, 0, -16 -16" transform="rotate(180,408,1176)"/><rect x="424" y="1160" width="32" height="32" transform="rotate(0,440,1176)"/><rect x="456" y="1160" width="32" height="32" transform="rotate(0,472,1176)"/><rect x="488" y="1160" width="32" height="32" transform="rotate(0,504,1176)"/><path d="M 520 1160v 32h 16a 16 16, 0, 0, 0, 0 -32" transform="rotate(0,536,1176)"/><path d="M 648 1160v 32h 32v -16a 16 16, 0, 0, 0, -16 -16" transform="rotate(180,664,1176)"/><rect x="680" y="1160" width="32" height="32" transform="rotate(0,696,1176)"/><path d="M 712 1160v 32h 16a 16 16, 0, 0, 0, 0 -32" transform="rotate(0,728,1176)"/><circle cx="792" cy="1176" r="16" transform="rotate(0,792,1176)"/><path d="M 840 1160v 32h 32v -16a 16 16, 0, 0, 0, -16 -16" transform="rotate(180,856,1176)"/><path d="M 872 1160v 32h 32v -16a 16 16, 0, 0, 0, -16 -16" transform="rotate(90,888,1176)"/><path d="M 936 1160v 32h 16a 16 16, 0, 0, 0, 0 -32" transform="rotate(90,952,1176)"/><path d="M 1000 1160v 32h 16a 16 16, 0, 0, 0, 0 -32" transform="rotate(180,1016,1176)"/><rect x="1032" y="1160" width="32" height="32" transform="rotate(0,1048,1176)"/><rect x="1064" y="1160" width="32" height="32" transform="rotate(0,1080,1176)"/><rect x="1096" y="1160" width="32" height="32" transform="rotate(0,1112,1176)"/><rect x="1128" y="1160" width="32" height="32" transform="rotate(0,1144,1176)"/><path d="M 1160 1160v 32h 16a 16 16, 0, 0, 0, 0 -32" transform="rotate(0,1176,1176)"/></clipPath><clipPath id="clip-path-corners-square-color-0-0-412"><path clip-rule="evenodd" d="M 8 88v 64a 80 80, 0, 0, 0, 80 80h 64a 80 80, 0, 0, 0, 80 -80v -64a 80 80, 0, 0, 0, -80 -80h -64a 80 80, 0, 0, 0, -80 80M 88 40h 64a 48 48, 0, 0, 1, 48 48v 64a 48 48, 0, 0, 1, -48 48h -64a 48 48, 0, 0, 1, -48 -48v -64a 48 48, 0, 0, 1, 48 -48" transform="rotate(0,120,120)"/></clipPath><clipPath id="clip-path-corners-dot-color-0-0-412"><circle cx="120" cy="120" r="48" transform="rotate(0,120,120)"/></clipPath><clipPath id="clip-path-corners-square-color-1-0-412"><path clip-rule="evenodd" d="M 968 88v 64a 80 80, 0, 0, 0, 80 80h 64a 80 80, 0, 0, 0, 80 -80v -64a 80 80, 0, 0, 0, -80 -80h -64a 80 80, 0, 0, 0, -80 80M 1048 40h 64a 48 48, 0, 0, 1, 48 48v 64a 48 48, 0, 0, 1, -48 48h -64a 48 48, 0, 0, 1, -48 -48v -64a 48 48, 0, 0, 1, 48 -48" transform="rotate(90,1080,120)"/></clipPath><clipPath id="clip-path-corners-dot-color-1-0-412"><circle cx="1080" cy="120" r="48" transform="rotate(90,1080,120)"/></clipPath><clipPath id="clip-path-corners-square-color-0-1-412"><path clip-rule="evenodd" d="M 8 1048v 64a 80 80, 0, 0, 0, 80 80h 64a 80 80, 0, 0, 0, 80 -80v -64a 80 80, 0, 0, 0, -80 -80h -64a 80 80, 0, 0, 0, -80 80M 88 1000h 64a 48 48, 0, 0, 1, 48 48v 64a 48 48, 0, 0, 1, -48 48h -64a 48 48, 0, 0, 1, -48 -48v -64a 48 48, 0, 0, 1, 48 -48" transform="rotate(-90,120,1080)"/></clipPath><clipPath id="clip-path-corners-dot-color-0-1-412"><circle cx="120" cy="1080" r="48" transform="rotate(-90,120,1080)"/></clipPath></defs><rect x="0" y="0" height="1200" width="1200" clip-path="url('#clip-path-background-color-412')" fill="#ffffff"/><rect x="0" y="0" height="1200" width="1200" clip-path="url('#clip-path-dot-color-412')" fill="#000000"/><rect x="8" y="8" height="224" width="224" clip-path="url('#clip-path-corners-square-color-0-0-412')" fill="#000000"/><rect x="72" y="72" height="96" width="96" clip-path="url('#clip-path-corners-dot-color-0-0-412')" fill="#000000"/><rect x="968" y="8" height="224" width="224" clip-path="url('#clip-path-corners-square-color-1-0-412')" fill="#000000"/><rect x="1032" y="72" height="96" width="96" clip-path="url('#clip-path-corners-dot-color-1-0-412')" fill="#000000"/><rect x="8" y="968" height="224" width="224" clip-path="url('#clip-path-corners-square-color-0-1-412')" fill="#000000"/><rect x="72" y="1032" height="96" width="96" clip-path="url('#clip-path-corners-dot-color-0-1-412')" fill="#000000"/></svg>