<?xml version="1.0" standalone="no"?>
<svg xmlns="http://www.w3.org/2000/svg" width="1200" height="1200" xmlns:xlink="http://www.w3.org/1999/xlink" viewBox="0 0 1200 1200"><defs><clipPath id="clip-path-background-color-431"><rect x="0" y="0" width="1200" height="1200"/></clipPath><clipPath id="clip-path-dot-color-431"><circle cx="280" cy="24" r="16" transform="rotate(0,280,24)"/><circle cx="504" cy="24" r="16" transform="rotate(0,504,24)"/><circle cx="664" cy="24" r="16" transform="rotate(0,664,24)"/><path d="M 776 8v 32h 32v -16a 16 16, 0, 0, 0, -16 -16" transform="rotate(-90,792,24)"/><rect x="808" y="8" width="32" height="32" transform="rotate(0,824,24)"/><rect x="840" y="8" width="32" height="32" transform="rotate(0,856,24)"/><rect x="872" y="8" width="32" height="32" transform="rotate(0,888,24)"/><path d="M 904 8v 32h 16a 16 16, 0, 0, 0, 0 -32" transform="rotate(0,920,24)"/><path d="M 296 40v 32h 32v -16a 16 16, 0, 0, 0, -16 -16" transform="rotate(-90,312,56)"/><rect x="328" y="40" width="32" height="32" transform="rotate(0,344,56)"/><rect x="360" y="40" width="32" height="32" transform="rotate(0,376,56)"/><path d="M 392 40v 32h 16a 16 16, 0, 0, 0, 0 -32" transform="rotate(0,408,56)"/><path d="M 520 40v 32h 32v -16a 16 16, 0, 0, 0, -16 -16" transform="rotate(-90,536,56)"/><rect x="552" y="40" width="32" height="32" transform="rotate(0,568,56)"/><path d="M 584 40v 32h 32v -16a 16 16, 0, 0, 0, -16 -16" transform="rotate(0,600,56)"/><circle cx="696" cy="56" r="16" transform="rotate(0,696,56)"/><path d="M 744 40v 32h 32v -16a 16 16, 0, 0, 0, -16 -16" transform="rotate(-90,760,56)"/><rect x="776" y="40" width="32" height="32" transform="rotate(0,792,56)"/><path d="M 840 40v 32h 32v -16a 16 16, 0, 0, 0, -16 -16" transform="rotate(180,856,56)"/><path d="M 872 40v 32h 32v -16a 16 16, 0, 0, 0, -16 -16" transform="rotate(90,888,56)"/><path d="M 264 72v 32h 32v -16a 16 16, 0, 0, 0, -16 -16" transform="rotate(-90,280,88)"/><rect x="296" y="72" width="32" height="32" transform="rotate(0,312,88)"/><rect x="328" y="72" width="32" height="32" transform="rotate(0,344,88)"/><path d="M 424 72v 32h 32v -16a 16 16, 0, 0, 0, -16 -16" transform="rotate(-90,440,88)"/><path d="M 456 72v 32h 16a 16 16, 0, 0, 0, 0 -32" transform="rotate(0,472,88)"/><path d="M 520 72v 32h 32v -16a 16 16, 0, 0, 0, -16 -16" transform="rotate(180,536,88)"/><rect x="552" y="72" width="32" height="32" transform="rotate(0,568,88)"/><rect x="584" y="72" width="32" height="32" transform="rotate(0,600,88)"/><rect x="616" y="72" width="32" height="32" transform="rotate(0,632,88)"/><path d="M 648 72v 32h 32v -16a 16 16, 0, 0, 0, -16 -16" transform="rotate(0,664,88)"/><path d="M 712 72v 32h 32v -16a 16 16, 0, 0, 0, -16 -16" transform="rotate(-90,728,88)"/><rect x="744" y="72" width="32" height="32" transform="rotate(0,760,88)"/><path d="M 776 72v 32h 32v -16a 16 16, 0, 0, 0, -16 -16" transform="rotate(90,792,88)"/><path d="M 264 104v 32h 32v -16a 16 16, 0, 0, 0, -16 -16" transform="rotate(180,280,120)"/><rect x="296" y="104" width="32" height="32" transform="rotate(0,312,120)"/><rect x="328" y="104" width="32" height="32" transform="rotate(0,344,120)"/><rect x="360" y="104" width="32" height="32" transform="rotate(0,376,120)"/><rect x="392" y="104" width="32" height="32" transform="rotate(0,408,120)"/><path d="M 424 104v 32h 32v -16a 16 16, 0, 0, 0, -16 -16" transform="rotate(90,440,120)"/><rect x="584" y="104" width="32" height="32" transform="rotate(0,600,120)"/><path d="M 648 104v 32h 16a 16 16, 0, 0, 0, 0 -32" transform="rotate(90,664,120)"/><rect x="712" y="104" width="32" height="32" transform="rotate(0,728,120)"/><rect x="744" y="104" width="32" height="32" transform="rotate(0,760,120)"/><path d="M 840 104v 32h 16a 16 16, 0, 0, 0, 0 -32" transform="rotate(-90,856,120)"/><path d="M 296 136v 32h 16a 16 16, 0, 0, 0, 0 -32" transform="rotate(90,312,152)"/><rect x="392" y="136" width="32" height="32" transform="rotate(0,408,152)"/><path d="M 552 136v 32h 32v -16a 16 16, 0, 0, 0, -16 -16" transform="rotate(-90,568,152)"/><rect x="584" y="136" width="32" height="32" transform="rotate(0,600,152)"/><path d="M 616 136v 32h 16a 16 16, 0, 0, 0, 0 -32" transform="rotate(0,632,152)"/><rect x="712" y="136" width="32" height="32" transform="rotate(0,728,152)"/><path d="M 744 136v 32h 32v -16a 16 16, 0, 0, 0, -16 -16" transform="rotate(90,760,152)"/><path d="M 808 136v 32h 32v -16a 16 16, 0, 0, 0, -16 -16" transform="rotate(-90,824,152)"/><rect x="840" y="136" width="32" height="32" transform="rotate(0,856,152)"/><path d="M 872 136v 32h 32v -16a 16 16, 0, 0, 0, -16 -16" transform="rotate(0,888,152)"/><path d="M 264 168v 32h 16a 16 16, 0, 0, 0, 0 -32" transform="rotate(-90,280,184)"/><rect x="392" y="168" width="32" height="32" transform="rotate(0,408,184)"/><rect x="424" y="168" width="32" height="32" transform="rotate(0,440,184)"/><rect x="456" y="168" width="32" height="32" transform="rotate(0,472,184)"/><path d="M 488 168v 32h 16a 16 16, 0, 0, 0, 0 -32" transform="rotate(0,504,184)"/><path d="M 552 168v 32h 16a 16 16, 0, 0, 0, 0 -32" transform="rotate(90,568,184)"/><path d="M 680 168v 32h 16a 16 16, 0, 0, 0, 0 -32" transform="rotate(180,696,184)"/><rect x="712" y="168" width="32" height="32" transform="rotate(0,728,184)"/><path d="M 776 168v 32h 32v -16a 16 16, 0, 0, 0, -16 -16" transform="rotate(-90,792,184)"/><path d="M 808 168v 32h 32v -16a 16 16, 0, 0, 0, -16 -16" transform="rotate(90,824,184)"/><path d="M 872 168v 32h 32v -16a 16 16, 0, 0, 0, -16 -16" transform="rotate(180,888,184)"/><path d="M 904 168v 32h 32v -16a 16 16, 0, 0, 0, -16 -16" transform="rotate(0,920,184)"/><rect x="264" y="200" width="32" height="32" transform="rotate(0,280,216)"/><path d="M 328 200v 32h 16a 16 16, 0, 0, 0, 0 -32" transform="rotate(-90,344,216)"/><path d="M 392 200v 32h 16a 16 16, 0, 0, 0, 0 -32" transform="rotate(90,408,216)"/><rect x="456" y="200" width="32" height="32" transform="rotate(0,472,216)"/><path d="M 520 200v 32h 16a 16 16, 0, 0, 0, 0 -32" transform="rotate(-90,536,216)"/><circle cx="600" cy="216" r="16" transform="rotate(0,600,216)"/><circle cx="664" cy="216" r="16" transform="rotate(0,664,216)"/><path d="M 712 200v 32h 16a 16 16, 0, 0, 0, 0 -32" transform="rotate(90,728,216)"/><rect x="776" y="200" width="32" height="32" transform="rotate(0,792,216)"/><path d="M 840 200v 32h 16a 16 16, 0, 0, 0, 0 -32" transform="rotate(-90,856,216)"/><path d="M 904 200v 32h 16a 16 16, 0, 0, 0, 0 -32" transform="rotate(90,920,216)"/><rect x="264" y="232" width="32" height="32" transform="rotate(0,280,248)"/><rect x="296" y="232" width="32" height="32" transform="rotate(0,312,248)"/><rect x="328" y="232" width="32" height="32" transform="rotate(0,344,248)"/><path d="M 360 232v 32h 16a 16 16, 0, 0, 0, 0 -32" transform="rotate(0,376,248)"/><path d="M 456 232v 32h 16a 16 16, 0, 0, 0, 0 -32" transform="rotate(90,472,248)"/><path d="M 520 232v 32h 32v -16a 16 16, 0, 0, 0, -16 -16" transform="rotate(180,536,248)"/><path d="M 552 232v 32h 16a 16 16, 0, 0, 0, 0 -32" transform="rotate(0,568,248)"/><path d="M 680 232v 32h 16a 16 16, 0, 0, 0, 0 -32" transform="rotate(-90,696,248)"/><path d="M 744 232v 32h 16a 16 16, 0, 0, 0, 0 -32" transform="rotate(180,760,248)"/><rect x="776" y="232" width="32" height="32" transform="rotate(0,792,248)"/><rect x="840" y="232" width="32" height="32" transform="rotate(0,856,248)"/><circle cx="56" cy="280" r="16" transform="rotate(0,56,280)"/><circle cx="120" cy="280" r="16" transform="rotate(0,120,280)"/><path d="M 168 264v 32h 32v -16a 16 16, 0, 0, 0, -16 -16" transform="rotate(-90,184,280)"/><rect x="200" y="264" width="32" height="32" transform="rotate(0,216,280)"/><rect x="232" y="264" width="32" height="32" transform="rotate(0,248,280)"/><rect x="264" y="264" width="32" height="32" transform="rotate(0,280,280)"/><rect x="296" y="264" width="32" height="32" transform="rotate(0,312,280)"/><rect x="328" y="264" width="32" height="32" transform="rotate(0,344,280)"/><path d="M 392 264v 32h 16a 16 16, 0, 0, 0, 0 -32" transform="rotate(-90,408,280)"/><path d="M 488 264v 32h 16a 16 16, 0, 0, 0, 0 -32" transform="rotate(-90,504,280)"/><path d="M 584 264v 32h 16a 16 16, 0, 0, 0, 0 -32" transform="rotate(-90,600,280)"/><path d="M 648 264v 32h 16a 16 16, 0, 0, 0, 0 -32" transform="rotate(180,664,280)"/><rect x="680" y="264" width="32" height="32" transform="rotate(0,696,280)"/><rect x="776" y="264" width="32" height="32" transform="rotate(0,792,280)"/><rect x="808" y="264" width="32" height="32" transform="rotate(0,824,280)"/><rect x="840" y="264" width="32" height="32" transform="rotate(0,856,280)"/><path d="M 872 264v 32h 16a 16 16, 0, 0, 0, 0 -32" transform="rotate(0,888,280)"/><path d="M 936 264v 32h 32v -16a 16 16, 0, 0, 0, -16 -16" transform="rotate(-90,952,280)"/><rect x="968" y="264" width="32" height="32" transform="rotate(0,984,280)"/><path d="M 1000 264v 32h 16a 16 16, 0, 0, 0, 0 -32" transform="rotate(0,1016,280)"/><path d="M 1064 264v 32h 16a 16 16, 0, 0, 0, 0 -32" transform="rotate(180,1080,280)"/><path d="M 1096 264v 32h 16a 16 16, 0, 0, 0, 0 -32" transform="rotate(0,1112,280)"/><path d="M 1160 264v 32h 16a 16 16, 0, 0, 0, 0 -32" transform="rotate(-90,1176,280)"/><circle cx="88" cy="312" r="16" transform="rotate(0,88,312)"/><rect x="168" y="296" width="32" height="32" transform="rotate(0,184,312)"/><path d="M 264 296v 32h 32v -16a 16 16, 0, 0, 0, -16 -16" transform="rotate(180,280,312)"/><rect x="296" y="296" width="32" height="32" transform="rotate(0,312,312)"/><rect x="328" y="296" width="32" height="32" transform="rotate(0,344,312)"/><path d="M 392 296v 32h 16a 16 16, 0, 0, 0, 0 -32" transform="rotate(90,408,312)"/><path d="M 456 296v 32h 16a 16 16, 0, 0, 0, 0 -32" transform="rotate(180,472,312)"/><rect x="488" y="296" width="32" height="32" transform="rotate(0,504,312)"/><rect x="520" y="296" width="32" height="32" transform="rotate(0,536,312)"/><rect x="552" y="296" width="32" height="32" transform="rotate(0,568,312)"/><rect x="584" y="296" width="32" height="32" transform="rotate(0,600,312)"/><rect x="680" y="296" width="32" height="32" transform="rotate(0,696,312)"/><path d="M 712 296v 32h 16a 16 16, 0, 0, 0, 0 -32" transform="rotate(0,728,312)"/><path d="M 776 296v 32h 16a 16 16, 0, 0, 0, 0 -32" transform="rotate(90,792,312)"/><path d="M 840 296v 32h 16a 16 16, 0, 0, 0, 0 -32" transform="rotate(90,856,312)"/><path d="M 904 296v 32h 16a 16 16, 0, 0, 0, 0 -32" transform="rotate(180,920,312)"/><rect x="936" y="296" width="32" height="32" transform="rotate(0,952,312)"/><rect x="968" y="296" width="32" height="32" transform="rotate(0,984,312)"/><path d="M 1128 296v 32h 32v -16a 16 16, 0, 0, 0, -16 -16" transform="rotate(-90,1144,312)"/><rect x="1160" y="296" width="32" height="32" transform="rotate(0,1176,312)"/><path d="M 8 328v 32h 32v -16a 16 16, 0, 0, 0, -16 -16" transform="rotate(-90,24,344)"/><path d="M 40 328v 32h 16a 16 16, 0, 0, 0, 0 -32" transform="rotate(0,56,344)"/><path d="M 104 328v 32h 16a 16 16, 0, 0, 0, 0 -32" transform="rotate(-90,120,344)"/><path d="M 168 328v 32h 32v -16a 16 16, 0, 0, 0, -16 -16" transform="rotate(180,184,344)"/><rect x="200" y="328" width="32" height="32" transform="rotate(0,216,344)"/><path d="M 232 328v 32h 32v -16a 16 16, 0, 0, 0, -16 -16" transform="rotate(0,248,344)"/><rect x="296" y="328" width="32" height="32" transform="rotate(0,312,344)"/><rect x="328" y="328" width="32" height="32" transform="rotate(0,344,344)"/><path d="M 552 328v 32h 32v -16a 16 16, 0, 0, 0, -16 -16" transform="rotate(180,568,344)"/><path d="M 584 328v 32h 32v -16a 16 16, 0, 0, 0, -16 -16" transform="rotate(90,600,344)"/><rect x="680" y="328" width="32" height="32" transform="rotate(0,696,344)"/><path d="M 968 328v 32h 32v -16a 16 16, 0, 0, 0, -16 -16" transform="rotate(180,984,344)"/><path d="M 1000 328v 32h 32v -16a 16 16, 0, 0, 0, -16 -16" transform="rotate(0,1016,344)"/><circle cx="1080" cy="344" r="16" transform="rotate(0,1080,344)"/><rect x="1128" y="328" width="32" height="32" transform="rotate(0,1144,344)"/><rect x="1160" y="328" width="32" height="32" transform="rotate(0,1176,344)"/><rect x="8" y="360" width="32" height="32" transform="rotate(0,24,376)"/><path d="M 72 360v 32h 16a 16 16, 0, 0, 0, 0 -32" transform="rotate(180,88,376)"/><rect x="104" y="360" width="32" height="32" transform="rotate(0,120,376)"/><path d="M 232 360v 32h 16a 16 16, 0, 0, 0, 0 -32" transform="rotate(90,248,376)"/><rect x="296" y="360" width="32" height="32" transform="rotate(0,312,376)"/><path d="M 328 360v 32h 32v -16a 16 16, 0, 0, 0, -16 -16" transform="rotate(90,344,376)"/><path d="M 424 360v 32h 32v -16a 16 16, 0, 0, 0, -16 -16" transform="rotate(-90,440,376)"/><path d="M 456 360v 32h 16a 16 16, 0, 0, 0, 0 -32" transform="rotate(0,472,376)"/><circle cx="632" cy="376" r="16" transform="rotate(0,632,376)"/><rect x="680" y="360" width="32" height="32" transform="rotate(0,696,376)"/><rect x="712" y="360" width="32" height="32" transform="rotate(0,728,376)"/><path d="M 744 360v 32h 16a 16 16, 0, 0, 0, 0 -32" transform="rotate(0,760,376)"/><path d="M 808 360v 32h 16a 16 16, 0, 0, 0, 0 -32" transform="rotate(-90,824,376)"/><path d="M 872 360v 32h 16a 16 16, 0, 0, 0, 0 -32" transform="rotate(180,888,376)"/><path d="M 904 360v 32h 32v -16a 16 16, 0, 0, 0, -16 -16" transform="rotate(0,920,376)"/><path d="M 1000 360v 32h 32v -16a 16 16, 0, 0, 0, -16 -16" transform="rotate(180,1016,376)"/><path d="M 1032 360v 32h 16a 16 16, 0, 0, 0, 0 -32" transform="rotate(0,1048,376)"/><path d="M 1128 360v 32h 32v -16a 16 16, 0, 0, 0, -16 -16" transform="rotate(180,1144,376)"/><rect x="1160" y="360" width="32" height="32" transform="rotate(0,1176,376)"/><rect x="8" y="392" width="32" height="32" transform="rotate(0,24,408)"/><path d="M 40 392v 32h 32v -16a 16 16, 0, 0, 0, -16 -16" transform="rotate(0,56,408)"/><path d="M 104 392v 32h 32v -16a 16 16, 0, 0, 0, -16 -16" transform="rotate(180,120,408)"/><path d="M 136 392v 32h 16a 16 16, 0, 0, 0, 0 -32" transform="rotate(0,152,408)"/><circle cx="216" cy="408" r="16" transform="rotate(0,216,408)"/><path d="M 264 392v 32h 16a 16 16, 0, 0, 0, 0 -32" transform="rotate(180,280,408)"/><path d="M 296 392v 32h 32v -16a 16 16, 0, 0, 0, -16 -16" transform="rotate(90,312,408)"/><path d="M 360 392v 32h 16a 16 16, 0, 0, 0, 0 -32" transform="rotate(180,376,408)"/><rect x="392" y="392" width="32" height="32" transform="rotate(0,408,408)"/><path d="M 424 392v 32h 32v -16a 16 16, 0, 0, 0, -16 -16" transform="rotate(90,440,408)"/><circle cx="504" cy="408" r="16" transform="rotate(0,504,408)"/><path d="M 552 392v 32h 16a 16 16, 0, 0, 0, 0 -32" transform="rotate(180,568,408)"/><path d="M 584 392v 32h 16a 16 16, 0, 0, 0, 0 -32" transform="rotate(0,600,408)"/><path d="M 648 392v 32h 32v -16a 16 16, 0, 0, 0, -16 -16" transform="rotate(-90,664,408)"/><path d="M 680 392v 32h 32v -16a 16 16, 0, 0, 0, -16 -16" transform="rotate(90,696,408)"/><rect x="808" y="392" width="32" height="32" transform="rotate(0,824,408)"/><path d="M 904 392v 32h 32v -16a 16 16, 0, 0, 0, -16 -16" transform="rotate(180,920,408)"/><rect x="936" y="392" width="32" height="32" transform="rotate(0,952,408)"/><path d="M 968 392v 32h 32v -16a 16 16, 0, 0, 0, -16 -16" transform="rotate(0,984,408)"/><path d="M 1064 392v 32h 16a 16 16, 0, 0, 0, 0 -32" transform="rotate(-90,1080,408)"/><rect x="1160" y="392" width="32" height="32" transform="rotate(0,1176,408)"/><rect x="8" y="424" width="32" height="32" transform="rotate(0,24,440)"/><rect x="40" y="424" width="32" height="32" transform="rotate(0,56,440)"/><path d="M 72 424v 32h 32v -16a 16 16, 0, 0, 0, -16 -16" transform="rotate(0,88,440)"/><path d="M 168 424v 32h 16a 16 16, 0, 0, 0, 0 -32" transform="rotate(-90,184,440)"/><circle cx="248" cy="440" r="16" transform="rotate(0,248,440)"/><path d="M 328 424v 32h 16a 16 16, 0, 0, 0, 0 -32" transform="rotate(-90,344,440)"/><rect x="392" y="424" width="32" height="32" transform="rotate(0,408,440)"/><path d="M 616 424v 32h 32v -16a 16 16, 0, 0, 0, -16 -16" transform="rotate(-90,632,440)"/><rect x="648" y="424" width="32" height="32" transform="rotate(0,664,440)"/><circle cx="728" cy="440" r="16" transform="rotate(0,728,440)"/><path d="M 776 424v 32h 32v -16a 16 16, 0, 0, 0, -16 -16" transform="rotate(-90,792,440)"/><rect x="808" y="424" width="32" height="32" transform="rotate(0,824,440)"/><path d="M 968 424v 32h 16a 16 16, 0, 0, 0, 0 -32" transform="rotate(90,984,440)"/><path d="M 1064 424v 32h 16a 16 16, 0, 0, 0, 0 -32" transform="rotate(90,1080,440)"/><path d="M 1128 424v 32h 16a 16 16, 0, 0, 0, 0 -32" transform="rotate(180,1144,440)"/><rect x="1160" y="424" width="32" height="32" transform="rotate(0,1176,440)"/><rect x="8" y="456" width="32" height="32" transform="rotate(0,24,472)"/><path d="M 72 456v 32h 32v -16a 16 16, 0, 0, 0, -16 -16" transform="rotate(180,88,472)"/><rect x="104" y="456" width="32" height="32" transform="rotate(0,120,472)"/><rect x="136" y="456" width="32" height="32" transform="rotate(0,152,472)"/><rect x="168" y="456" width="32" height="32" transform="rotate(0,184,472)"/><path d="M 200 456v 32h 16a 16 16, 0, 0, 0, 0 -32" transform="rotate(0,216,472)"/><path d="M 296 456v 32h 32v -16a 16 16, 0, 0, 0, -16 -16" transform="rotate(-90,312,472)"/><rect x="328" y="456" width="32" height="32" transform="rotate(0,344,472)"/><rect x="360" y="456" width="32" height="32" transform="rotate(0,376,472)"/><rect x="392" y="456" width="32" height="32" transform="rotate(0,408,472)"/><path d="M 456 456v 32h 32v -16a 16 16, 0, 0, 0, -16 -16" transform="rotate(-90,472,472)"/><path d="M 488 456v 32h 16a 16 16, 0, 0, 0, 0 -32" transform="rotate(0,504,472)"/><path d="M 552 456v 32h 32v -16a 16 16, 0, 0, 0, -16 -16" transform="rotate(-90,568,472)"/><rect x="584" y="456" width="32" height="32" transform="rotate(0,600,472)"/><rect x="616" y="456" width="32" height="32" transform="rotate(0,632,472)"/><rect x="648" y="456" width="32" height="32" transform="rotate(0,664,472)"/><path d="M 680 456v 32h 16a 16 16, 0, 0, 0, 0 -32" transform="rotate(0,696,472)"/><path d="M 744 456v 32h 32v -16a 16 16, 0, 0, 0, -16 -16" transform="rotate(-90,760,472)"/><rect x="776" y="456" width="32" height="32" transform="rotate(0,792,472)"/><rect x="808" y="456" width="32" height="32" transform="rotate(0,824,472)"/><path d="M 840 456v 32h 32v -16a 16 16, 0, 0, 0, -16 -16" transform="rotate(0,856,472)"/><circle cx="1112" cy="472" r="16" transform="rotate(0,1112,472)"/><path d="M 1160 456v 32h 16a 16 16, 0, 0, 0, 0 -32" transform="rotate(90,1176,472)"/><path d="M 8 488v 32h 32v -16a 16 16, 0, 0, 0, -16 -16" transform="rotate(180,24,504)"/><path d="M 40 488v 32h 32v -16a 16 16, 0, 0, 0, -16 -16" transform="rotate(0,56,504)"/><rect x="104" y="488" width="32" height="32" transform="rotate(0,120,504)"/><path d="M 136 488v 32h 32v -16a 16 16, 0, 0, 0, -16 -16" transform="rotate(90,152,504)"/><path d="M 264 488v 32h 32v -16a 16 16, 0, 0, 0, -16 -16" transform="rotate(-90,280,504)"/><rect x="296" y="488" width="32" height="32" transform="rotate(0,312,504)"/><rect x="328" y="488" width="32" height="32" transform="rotate(0,344,504)"/><rect x="360" y="488" width="32" height="32" transform="rotate(0,376,504)"/><rect x="392" y="488" width="32" height="32" transform="rotate(0,408,504)"/><rect x="424" y="488" width="32" height="32" transform="rotate(0,440,504)"/><path d="M 456 488v 32h 32v -16a 16 16, 0, 0, 0, -16 -16" transform="rotate(90,472,504)"/><rect x="552" y="488" width="32" height="32" transform="rotate(0,568,504)"/><rect x="584" y="488" width="32" height="32" transform="rotate(0,600,504)"/><rect x="616" y="488" width="32" height="32" transform="rotate(0,632,504)"/><rect x="648" y="488" width="32" height="32" transform="rotate(0,664,504)"/><rect x="744" y="488" width="32" height="32" transform="rotate(0,760,504)"/><rect x="776" y="488" width="32" height="32" transform="rotate(0,792,504)"/><rect x="808" y="488" width="32" height="32" transform="rotate(0,824,504)"/><path d="M 840 488v 32h 32v -16a 16 16, 0, 0, 0, -16 -16" transform="rotate(90,856,504)"/><path d="M 904 488v 32h 16a 16 16, 0, 0, 0, 0 -32" transform="rotate(180,920,504)"/><rect x="936" y="488" width="32" height="32" transform="rotate(0,952,504)"/><path d="M 968 488v 32h 32v -16a 16 16, 0, 0, 0, -16 -16" transform="rotate(0,984,504)"/><rect x="40" y="520" width="32" height="32" transform="rotate(0,56,536)"/><rect x="72" y="520" width="32" height="32" transform="rotate(0,88,536)"/><path d="M 104 520v 32h 32v -16a 16 16, 0, 0, 0, -16 -16" transform="rotate(90,120,536)"/><path d="M 200 520v 32h 16a 16 16, 0, 0, 0, 0 -32" transform="rotate(180,216,536)"/><rect x="232" y="520" width="32" height="32" transform="rotate(0,248,536)"/><rect x="264" y="520" width="32" height="32" transform="rotate(0,280,536)"/><rect x="296" y="520" width="32" height="32" transform="rotate(0,312,536)"/><path d="M 328 520v 32h 32v -16a 16 16, 0, 0, 0, -16 -16" transform="rotate(90,344,536)"/><rect x="392" y="520" width="32" height="32" transform="rotate(0,408,536)"/><rect x="424" y="520" width="32" height="32" transform="rotate(0,440,536)"/><path d="M 552 520v 32h 16a 16 16, 0, 0, 0, 0 -32" transform="rotate(90,568,536)"/><rect x="616" y="520" width="32" height="32" transform="rotate(0,632,536)"/><path d="M 648 520v 32h 32v -16a 16 16, 0, 0, 0, -16 -16" transform="rotate(90,664,536)"/><path d="M 712 520v 32h 16a 16 16, 0, 0, 0, 0 -32" transform="rotate(180,728,536)"/><rect x="744" y="520" width="32" height="32" transform="rotate(0,760,536)"/><rect x="776" y="520" width="32" height="32" transform="rotate(0,792,536)"/><circle cx="888" cy="536" r="16" transform="rotate(0,888,536)"/><path d="M 936 520v 32h 32v -16a 16 16, 0, 0, 0, -16 -16" transform="rotate(180,952,536)"/><rect x="968" y="520" width="32" height="32" transform="rotate(0,984,536)"/><path d="M 1000 520v 32h 32v -16a 16 16, 0, 0, 0, -16 -16" transform="rotate(0,1016,536)"/><path d="M 1064 520v 32h 16a 16 16, 0, 0, 0, 0 -32" transform="rotate(180,1080,536)"/><rect x="1096" y="520" width="32" height="32" transform="rotate(0,1112,536)"/><rect x="1128" y="520" width="32" height="32" transform="rotate(0,1144,536)"/><path d="M 1160 520v 32h 32v -16a 16 16, 0, 0, 0, -16 -16" transform="rotate(0,1176,536)"/><path d="M 8 552v 32h 32v -16a 16 16, 0, 0, 0, -16 -16" transform="rotate(-90,24,568)"/><rect x="40" y="552" width="32" height="32" transform="rotate(0,56,568)"/><path d="M 232 552v 32h 16a 16 16, 0, 0, 0, 0 -32" transform="rotate(90,248,568)"/><path d="M 392 552v 32h 32v -16a 16 16, 0, 0, 0, -16 -16" transform="rotate(180,408,568)"/><rect x="424" y="552" width="32" height="32" transform="rotate(0,440,568)"/><path d="M 456 552v 32h 16a 16 16, 0, 0, 0, 0 -32" transform="rotate(0,472,568)"/><path d="M 584 552v 32h 32v -16a 16 16, 0, 0, 0, -16 -16" transform="rotate(-90,600,568)"/><path d="M 616 552v 32h 32v -16a 16 16, 0, 0, 0, -16 -16" transform="rotate(90,632,568)"/><circle cx="696" cy="568" r="16" transform="rotate(0,696,568)"/><rect x="776" y="552" width="32" height="32" transform="rotate(0,792,568)"/><rect x="808" y="552" width="32" height="32" transform="rotate(0,824,568)"/><path d="M 840 552v 32h 32v -16a 16 16, 0, 0, 0, -16 -16" transform="rotate(0,856,568)"/><circle cx="920" cy="568" r="16" transform="rotate(0,920,568)"/><path d="M 968 552v 32h 32v -16a 16 16, 0, 0, 0, -16 -16" transform="rotate(180,984,568)"/><rect x="1000" y="552" width="32" height="32" transform="rotate(0,1016,568)"/><path d="M 1032 552v 32h 32v -16a 16 16, 0, 0, 0, -16 -16" transform="rotate(0,1048,568)"/><rect x="1160" y="552" width="32" height="32" transform="rotate(0,1176,568)"/><rect x="8" y="584" width="32" height="32" transform="rotate(0,24,600)"/><path d="M 40 584v 32h 32v -16a 16 16, 0, 0, 0, -16 -16" transform="rotate(90,56,600)"/><circle cx="120" cy="600" r="16" transform="rotate(0,120,600)"/><path d="M 168 584v 32h 32v -16a 16 16, 0, 0, 0, -16 -16" transform="rotate(-90,184,600)"/><path d="M 200 584v 32h 16a 16 16, 0, 0, 0, 0 -32" transform="rotate(0,216,600)"/><path d="M 296 584v 32h 32v -16a 16 16, 0, 0, 0, -16 -16" transform="rotate(-90,312,600)"/><path d="M 328 584v 32h 32v -16a 16 16, 0, 0, 0, -16 -16" transform="rotate(0,344,600)"/><path d="M 424 584v 32h 16a 16 16, 0, 0, 0, 0 -32" transform="rotate(90,440,600)"/><path d="M 584 584v 32h 16a 16 16, 0, 0, 0, 0 -32" transform="rotate(90,600,600)"/><circle cx="664" cy="600" r="16" transform="rotate(0,664,600)"/><path d="M 744 584v 32h 16a 16 16, 0, 0, 0, 0 -32" transform="rotate(180,760,600)"/><rect x="776" y="584" width="32" height="32" transform="rotate(0,792,600)"/><rect x="840" y="584" width="32" height="32" transform="rotate(0,856,600)"/><circle cx="952" cy="600" r="16" transform="rotate(0,952,600)"/><path d="M 1000 584v 32h 32v -16a 16 16, 0, 0, 0, -16 -16" transform="rotate(180,1016,600)"/><rect x="1032" y="584" width="32" height="32" transform="rotate(0,1048,600)"/><path d="M 1128 584v 32h 16a 16 16, 0, 0, 0, 0 -32" transform="rotate(180,1144,600)"/><rect x="1160" y="584" width="32" height="32" transform="rotate(0,1176,600)"/><rect x="8" y="616" width="32" height="32" transform="rotate(0,24,632)"/><circle cx="88" cy="632" r="16" transform="rotate(0,88,632)"/><rect x="168" y="616" width="32" height="32" transform="rotate(0,184,632)"/><circle cx="248" cy="632" r="16" transform="rotate(0,248,632)"/><rect x="296" y="616" width="32" height="32" transform="rotate(0,312,632)"/><rect x="328" y="616" width="32" height="32" transform="rotate(0,344,632)"/><rect x="360" y="616" width="32" height="32" transform="rotate(0,376,632)"/><path d="M 392 616v 32h 32v -16a 16 16, 0, 0, 0, -16 -16" transform="rotate(0,408,632)"/><circle cx="504" cy="632" r="16" transform="rotate(0,504,632)"/><path d="M 552 616v 32h 16a 16 16, 0, 0, 0, 0 -32" transform="rotate(-90,568,632)"/><path d="M 616 616v 32h 16a 16 16, 0, 0, 0, 0 -32" transform="rotate(-90,632,632)"/><path d="M 680 616v 32h 16a 16 16, 0, 0, 0, 0 -32" transform="rotate(-90,696,632)"/><rect x="776" y="616" width="32" height="32" transform="rotate(0,792,632)"/><rect x="840" y="616" width="32" height="32" transform="rotate(0,856,632)"/><rect x="1032" y="616" width="32" height="32" transform="rotate(0,1048,632)"/><circle cx="1112" cy="632" r="16" transform="rotate(0,1112,632)"/><rect x="1160" y="616" width="32" height="32" transform="rotate(0,1176,632)"/><rect x="8" y="648" width="32" height="32" transform="rotate(0,24,664)"/><path d="M 40 648v 32h 16a 16 16, 0, 0, 0, 0 -32" transform="rotate(0,56,664)"/><path d="M 168 648v 32h 32v -16a 16 16, 0, 0, 0, -16 -16" transform="rotate(180,184,664)"/><path d="M 200 648v 32h 16a 16 16, 0, 0, 0, 0 -32" transform="rotate(0,216,664)"/><path d="M 264 648v 32h 32v -16a 16 16, 0, 0, 0, -16 -16" transform="rotate(-90,280,664)"/><rect x="296" y="648" width="32" height="32" transform="rotate(0,312,664)"/><path d="M 360 648v 32h 32v -16a 16 16, 0, 0, 0, -16 -16" transform="rotate(180,376,664)"/><path d="M 392 648v 32h 32v -16a 16 16, 0, 0, 0, -16 -16" transform="rotate(90,408,664)"/><path d="M 552 648v 32h 32v -16a 16 16, 0, 0, 0, -16 -16" transform="rotate(180,568,664)"/><rect x="584" y="648" width="32" height="32" transform="rotate(0,600,664)"/><rect x="616" y="648" width="32" height="32" transform="rotate(0,632,664)"/><rect x="648" y="648" width="32" height="32" transform="rotate(0,664,664)"/><rect x="680" y="648" width="32" height="32" transform="rotate(0,696,664)"/><path d="M 776 648v 32h 32v -16a 16 16, 0, 0, 0, -16 -16" transform="rotate(180,792,664)"/><rect x="808" y="648" width="32" height="32" transform="rotate(0,824,664)"/><rect x="840" y="648" width="32" height="32" transform="rotate(0,856,664)"/><rect x="872" y="648" width="32" height="32" transform="rotate(0,888,664)"/><path d="M 904 648v 32h 16a 16 16, 0, 0, 0, 0 -32" transform="rotate(0,920,664)"/><path d="M 968 648v 32h 32v -16a 16 16, 0, 0, 0, -16 -16" transform="rotate(-90,984,664)"/><rect x="1000" y="648" width="32" height="32" transform="rotate(0,1016,664)"/><path d="M 1032 648v 32h 32v -16a 16 16, 0, 0, 0, -16 -16" transform="rotate(90,1048,664)"/><rect x="1160" y="648" width="32" height="32" transform="rotate(0,1176,664)"/><rect x="8" y="680" width="32" height="32" transform="rotate(0,24,696)"/><path d="M 104 680v 32h 32v -16a 16 16, 0, 0, 0, -16 -16" transform="rotate(-90,120,696)"/><path d="M 136 680v 32h 32v -16a 16 16, 0, 0, 0, -16 -16" transform="rotate(0,152,696)"/><path d="M 232 680v 32h 32v -16a 16 16, 0, 0, 0, -16 -16" transform="rotate(-90,248,696)"/><rect x="264" y="680" width="32" height="32" transform="rotate(0,280,696)"/><path d="M 296 680v 32h 32v -16a 16 16, 0, 0, 0, -16 -16" transform="rotate(90,312,696)"/><path d="M 456 680v 32h 16a 16 16, 0, 0, 0, 0 -32" transform="rotate(180,472,696)"/><rect x="488" y="680" width="32" height="32" transform="rotate(0,504,696)"/><path d="M 520 680v 32h 32v -16a 16 16, 0, 0, 0, -16 -16" transform="rotate(0,536,696)"/><rect x="616" y="680" width="32" height="32" transform="rotate(0,632,696)"/><rect x="680" y="680" width="32" height="32" transform="rotate(0,696,696)"/><path d="M 712 680v 32h 16a 16 16, 0, 0, 0, 0 -32" transform="rotate(0,728,696)"/><path d="M 808 680v 32h 16a 16 16, 0, 0, 0, 0 -32" transform="rotate(90,824,696)"/><path d="M 936 680v 32h 32v -16a 16 16, 0, 0, 0, -16 -16" transform="rotate(-90,952,696)"/><rect x="968" y="680" width="32" height="32" transform="rotate(0,984,696)"/><path d="M 1064 680v 32h 16a 16 16, 0, 0, 0, 0 -32" transform="rotate(-90,1080,696)"/><path d="M 1128 680v 32h 32v -16a 16 16, 0, 0, 0, -16 -16" transform="rotate(-90,1144,696)"/><rect x="1160" y="680" width="32" height="32" transform="rotate(0,1176,696)"/><rect x="8" y="712" width="32" height="32" transform="rotate(0,24,728)"/><path d="M 40 712v 32h 32v -16a 16 16, 0, 0, 0, -16 -16" transform="rotate(0,56,728)"/><path d="M 104 712v 32h 32v -16a 16 16, 0, 0, 0, -16 -16" transform="rotate(180,120,728)"/><rect x="136" y="712" width="32" height="32" transform="rotate(0,152,728)"/><path d="M 200 712v 32h 16a 16 16, 0, 0, 0, 0 -32" transform="rotate(180,216,728)"/><path d="M 232 712v 32h 32v -16a 16 16, 0, 0, 0, -16 -16" transform="rotate(90,248,728)"/><path d="M 392 712v 32h 16a 16 16, 0, 0, 0, 0 -32" transform="rotate(180,408,728)"/><path d="M 424 712v 32h 16a 16 16, 0, 0, 0, 0 -32" transform="rotate(0,440,728)"/><path d="M 520 712v 32h 16a 16 16, 0, 0, 0, 0 -32" transform="rotate(90,536,728)"/><rect x="616" y="712" width="32" height="32" transform="rotate(0,632,728)"/><rect x="680" y="712" width="32" height="32" transform="rotate(0,696,728)"/><path d="M 840 712v 32h 16a 16 16, 0, 0, 0, 0 -32" transform="rotate(-90,856,728)"/><rect x="936" y="712" width="32" height="32" transform="rotate(0,952,728)"/><rect x="968" y="712" width="32" height="32" transform="rotate(0,984,728)"/><rect x="1000" y="712" width="32" height="32" transform="rotate(0,1016,728)"/><rect x="1032" y="712" width="32" height="32" transform="rotate(0,1048,728)"/><path d="M 1064 712v 32h 32v -16a 16 16, 0, 0, 0, -16 -16" transform="rotate(90,1080,728)"/><path d="M 1128 712v 32h 32v -16a 16 16, 0, 0, 0, -16 -16" transform="rotate(180,1144,728)"/><rect x="1160" y="712" width="32" height="32" transform="rotate(0,1176,728)"/><rect x="8" y="744" width="32" height="32" transform="rotate(0,24,760)"/><path d="M 40 744v 32h 32v -16a 16 16, 0, 0, 0, -16 -16" transform="rotate(90,56,760)"/><rect x="136" y="744" width="32" height="32" transform="rotate(0,152,760)"/><path d="M 168 744v 32h 32v -16a 16 16, 0, 0, 0, -16 -16" transform="rotate(0,184,760)"/><path d="M 328 744v 32h 16a 16 16, 0, 0, 0, 0 -32" transform="rotate(-90,344,760)"/><path d="M 456 744v 32h 32v -16a 16 16, 0, 0, 0, -16 -16" transform="rotate(-90,472,760)"/><path d="M 488 744v 32h 32v -16a 16 16, 0, 0, 0, -16 -16" transform="rotate(0,504,760)"/><path d="M 584 744v 32h 32v -16a 16 16, 0, 0, 0, -16 -16" transform="rotate(-90,600,760)"/><rect x="616" y="744" width="32" height="32" transform="rotate(0,632,760)"/><rect x="680" y="744" width="32" height="32" transform="rotate(0,696,760)"/><path d="M 744 744v 32h 16a 16 16, 0, 0, 0, 0 -32" transform="rotate(180,760,760)"/><rect x="776" y="744" width="32" height="32" transform="rotate(0,792,760)"/><rect x="808" y="744" width="32" height="32" transform="rotate(0,824,760)"/><path d="M 840 744v 32h 32v -16a 16 16, 0, 0, 0, -16 -16" transform="rotate(90,856,760)"/><rect x="936" y="744" width="32" height="32" transform="rotate(0,952,760)"/><path d="M 1032 744v 32h 16a 16 16, 0, 0, 0, 0 -32" transform="rotate(90,1048,760)"/><path d="M 1160 744v 32h 16a 16 16, 0, 0, 0, 0 -32" transform="rotate(90,1176,760)"/><path d="M 8 776v 32h 16a 16 16, 0, 0, 0, 0 -32" transform="rotate(90,24,792)"/><path d="M 72 776v 32h 32v -16a 16 16, 0, 0, 0, -16 -16" transform="rotate(-90,88,792)"/><rect x="104" y="776" width="32" height="32" transform="rotate(0,120,792)"/><rect x="136" y="776" width="32" height="32" transform="rotate(0,152,792)"/><rect x="168" y="776" width="32" height="32" transform="rotate(0,184,792)"/><rect x="200" y="776" width="32" height="32" transform="rotate(0,216,792)"/><rect x="232" y="776" width="32" height="32" transform="rotate(0,248,792)"/><path d="M 264 776v 32h 16a 16 16, 0, 0, 0, 0 -32" transform="rotate(0,280,792)"/><rect x="328" y="776" width="32" height="32" transform="rotate(0,344,792)"/><path d="M 424 776v 32h 16a 16 16, 0, 0, 0, 0 -32" transform="rotate(180,440,792)"/><rect x="456" y="776" width="32" height="32" transform="rotate(0,472,792)"/><path d="M 488 776v 32h 32v -16a 16 16, 0, 0, 0, -16 -16" transform="rotate(90,504,792)"/><path d="M 552 776v 32h 16a 16 16, 0, 0, 0, 0 -32" transform="rotate(180,568,792)"/><rect x="584" y="776" width="32" height="32" transform="rotate(0,600,792)"/><rect x="616" y="776" width="32" height="32" transform="rotate(0,632,792)"/><rect x="648" y="776" width="32" height="32" transform="rotate(0,664,792)"/><path d="M 680 776v 32h 32v -16a 16 16, 0, 0, 0, -16 -16" transform="rotate(90,696,792)"/><path d="M 808 776v 32h 16a 16 16, 0, 0, 0, 0 -32" transform="rotate(90,824,792)"/><circle cx="888" cy="792" r="16" transform="rotate(0,888,792)"/><rect x="936" y="776" width="32" height="32" transform="rotate(0,952,792)"/><rect x="968" y="776" width="32" height="32" transform="rotate(0,984,792)"/><path d="M 1000 776v 32h 32v -16a 16 16, 0, 0, 0, -16 -16" transform="rotate(0,1016,792)"/><path d="M 1064 776v 32h 16a 16 16, 0, 0, 0, 0 -32" transform="rotate(-90,1080,792)"/><path d="M 1128 776v 32h 16a 16 16, 0, 0, 0, 0 -32" transform="rotate(-90,1144,792)"/><path d="M 40 808v 32h 16a 16 16, 0, 0, 0, 0 -32" transform="rotate(180,56,824)"/><rect x="72" y="808" width="32" height="32" transform="rotate(0,88,824)"/><rect x="104" y="808" width="32" height="32" transform="rotate(0,120,824)"/><path d="M 168 808v 32h 16a 16 16, 0, 0, 0, 0 -32" transform="rotate(90,184,824)"/><rect x="328" y="808" width="32" height="32" transform="rotate(0,344,824)"/><circle cx="408" cy="824" r="16" transform="rotate(0,408,824)"/><path d="M 520 808v 32h 16a 16 16, 0, 0, 0, 0 -32" transform="rotate(-90,536,824)"/><rect x="616" y="808" width="32" height="32" transform="rotate(0,632,824)"/><path d="M 776 808v 32h 16a 16 16, 0, 0, 0, 0 -32" transform="rotate(-90,792,824)"/><rect x="936" y="808" width="32" height="32" transform="rotate(0,952,824)"/><rect x="968" y="808" width="32" height="32" transform="rotate(0,984,824)"/><rect x="1000" y="808" width="32" height="32" transform="rotate(0,1016,824)"/><path d="M 1064 808v 32h 32v -16a 16 16, 0, 0, 0, -16 -16" transform="rotate(180,1080,824)"/><rect x="1096" y="808" width="32" height="32" transform="rotate(0,1112,824)"/><rect x="1128" y="808" width="32" height="32" transform="rotate(0,1144,824)"/><path d="M 1160 808v 32h 32v -16a 16 16, 0, 0, 0, -16 -16" transform="rotate(0,1176,824)"/><circle cx="24" cy="856" r="16" transform="rotate(0,24,856)"/><path d="M 104 840v 32h 32v -16a 16 16, 0, 0, 0, -16 -16" transform="rotate(180,120,856)"/><path d="M 136 840v 32h 32v -16a 16 16, 0, 0, 0, -16 -16" transform="rotate(0,152,856)"/><circle cx="216" cy="856" r="16" transform="rotate(0,216,856)"/><path d="M 296 840v 32h 16a 16 16, 0, 0, 0, 0 -32" transform="rotate(180,312,856)"/><path d="M 328 840v 32h 32v -16a 16 16, 0, 0, 0, -16 -16" transform="rotate(90,344,856)"/><circle cx="472" cy="856" r="16" transform="rotate(0,472,856)"/><rect x="520" y="840" width="32" height="32" transform="rotate(0,536,856)"/><path d="M 616 840v 32h 16a 16 16, 0, 0, 0, 0 -32" transform="rotate(90,632,856)"/><path d="M 680 840v 32h 16a 16 16, 0, 0, 0, 0 -32" transform="rotate(-90,696,856)"/><path d="M 744 840v 32h 16a 16 16, 0, 0, 0, 0 -32" transform="rotate(180,760,856)"/><rect x="776" y="840" width="32" height="32" transform="rotate(0,792,856)"/><path d="M 808 840v 32h 32v -16a 16 16, 0, 0, 0, -16 -16" transform="rotate(0,824,856)"/><path d="M 936 840v 32h 32v -16a 16 16, 0, 0, 0, -16 -16" transform="rotate(180,952,856)"/><rect x="968" y="840" width="32" height="32" transform="rotate(0,984,856)"/><rect x="1000" y="840" width="32" height="32" transform="rotate(0,1016,856)"/><path d="M 1032 840v 32h 16a 16 16, 0, 0, 0, 0 -32" transform="rotate(0,1048,856)"/><path d="M 1160 840v 32h 16a 16 16, 0, 0, 0, 0 -32" transform="rotate(90,1176,856)"/><path d="M 40 872v 32h 32v -16a 16 16, 0, 0, 0, -16 -16" transform="rotate(-90,56,888)"/><path d="M 72 872v 32h 32v -16a 16 16, 0, 0, 0, -16 -16" transform="rotate(0,88,888)"/><rect x="136" y="872" width="32" height="32" transform="rotate(0,152,888)"/><path d="M 264 872v 32h 16a 16 16, 0, 0, 0, 0 -32" transform="rotate(-90,280,888)"/><path d="M 360 872v 32h 16a 16 16, 0, 0, 0, 0 -32" transform="rotate(-90,376,888)"/><circle cx="440" cy="888" r="16" transform="rotate(0,440,888)"/><rect x="520" y="872" width="32" height="32" transform="rotate(0,536,888)"/><path d="M 584 872v 32h 16a 16 16, 0, 0, 0, 0 -32" transform="rotate(-90,600,888)"/><rect x="680" y="872" width="32" height="32" transform="rotate(0,696,888)"/><path d="M 712 872v 32h 32v -16a 16 16, 0, 0, 0, -16 -16" transform="rotate(0,728,888)"/><rect x="776" y="872" width="32" height="32" transform="rotate(0,792,888)"/><rect x="808" y="872" width="32" height="32" transform="rotate(0,824,888)"/><rect x="840" y="872" width="32" height="32" transform="rotate(0,856,888)"/><path d="M 872 872v 32h 16a 16 16, 0, 0, 0, 0 -32" transform="rotate(0,888,888)"/><rect x="968" y="872" width="32" height="32" transform="rotate(0,984,888)"/><rect x="1000" y="872" width="32" height="32" transform="rotate(0,1016,888)"/><path d="M 1128 872v 32h 16a 16 16, 0, 0, 0, 0 -32" transform="rotate(-90,1144,888)"/><path d="M 8 904v 32h 16a 16 16, 0, 0, 0, 0 -32" transform="rotate(180,24,920)"/><rect x="40" y="904" width="32" height="32" transform="rotate(0,56,920)"/><rect x="72" y="904" width="32" height="32" transform="rotate(0,88,920)"/><rect x="104" y="904" width="32" height="32" transform="rotate(0,120,920)"/><rect x="136" y="904" width="32" height="32" transform="rotate(0,152,920)"/><rect x="168" y="904" width="32" height="32" transform="rotate(0,184,920)"/><path d="M 200 904v 32h 16a 16 16, 0, 0, 0, 0 -32" transform="rotate(0,216,920)"/><rect x="264" y="904" width="32" height="32" transform="rotate(0,280,920)"/><path d="M 328 904v 32h 32v -16a 16 16, 0, 0, 0, -16 -16" transform="rotate(-90,344,920)"/><rect x="360" y="904" width="32" height="32" transform="rotate(0,376,920)"/><path d="M 392 904v 32h 16a 16 16, 0, 0, 0, 0 -32" transform="rotate(0,408,920)"/><rect x="520" y="904" width="32" height="32" transform="rotate(0,536,920)"/><rect x="584" y="904" width="32" height="32" transform="rotate(0,600,920)"/><path d="M 616 904v 32h 32v -16a 16 16, 0, 0, 0, -16 -16" transform="rotate(0,632,920)"/><rect x="680" y="904" width="32" height="32" transform="rotate(0,696,920)"/><rect x="712" y="904" width="32" height="32" transform="rotate(0,728,920)"/><rect x="744" y="904" width="32" height="32" transform="rotate(0,760,920)"/><rect x="776" y="904" width="32" height="32" transform="rotate(0,792,920)"/><path d="M 904 904v 32h 32v -16a 16 16, 0, 0, 0, -16 -16" transform="rotate(-90,920,920)"/><rect x="936" y="904" width="32" height="32" transform="rotate(0,952,920)"/><rect x="968" y="904" width="32" height="32" transform="rotate(0,984,920)"/><rect x="1000" y="904" width="32" height="32" transform="rotate(0,1016,920)"/><path d="M 1032 904v 32h 32v -16a 16 16, 0, 0, 0, -16 -16" transform="rotate(0,1048,920)"/><path d="M 1096 904v 32h 16a 16 16, 0, 0, 0, 0 -32" transform="rotate(180,1112,920)"/><rect x="1128" y="904" width="32" height="32" transform="rotate(0,1144,920)"/><path d="M 1160 904v 32h 32v -16a 16 16, 0, 0, 0, -16 -16" transform="rotate(0,1176,920)"/><rect x="264" y="936" width="32" height="32" transform="rotate(0,280,952)"/><rect x="296" y="936" width="32" height="32" transform="rotate(0,312,952)"/><rect x="328" y="936" width="32" height="32" transform="rotate(0,344,952)"/><circle cx="440" cy="952" r="16" transform="rotate(0,440,952)"/><path d="M 488 936v 32h 16a 16 16, 0, 0, 0, 0 -32" transform="rotate(180,504,952)"/><rect x="520" y="936" width="32" height="32" transform="rotate(0,536,952)"/><path d="M 584 936v 32h 32v -16a 16 16, 0, 0, 0, -16 -16" transform="rotate(180,600,952)"/><path d="M 616 936v 32h 32v -16a 16 16, 0, 0, 0, -16 -16" transform="rotate(90,632,952)"/><path d="M 680 936v 32h 32v -16a 16 16, 0, 0, 0, -16 -16" transform="rotate(180,696,952)"/><rect x="712" y="936" width="32" height="32" transform="rotate(0,728,952)"/><rect x="744" y="936" width="32" height="32" transform="rotate(0,760,952)"/><path d="M 776 936v 32h 32v -16a 16 16, 0, 0, 0, -16 -16" transform="rotate(90,792,952)"/><path d="M 872 936v 32h 32v -16a 16 16, 0, 0, 0, -16 -16" transform="rotate(-90,888,952)"/><rect x="904" y="936" width="32" height="32" transform="rotate(0,920,952)"/><rect x="1032" y="936" width="32" height="32" transform="rotate(0,1048,952)"/><rect x="1160" y="936" width="32" height="32" transform="rotate(0,1176,952)"/><rect x="264" y="968" width="32" height="32" transform="rotate(0,280,984)"/><rect x="328" y="968" width="32" height="32" transform="rotate(0,344,984)"/><rect x="520" y="968" width="32" height="32" transform="rotate(0,536,984)"/><circle cx="664" cy="984" r="16" transform="rotate(0,664,984)"/><path d="M 712 968v 32h 16a 16 16, 0, 0, 0, 0 -32" transform="rotate(90,728,984)"/><path d="M 840 968v 32h 32v -16a 16 16, 0, 0, 0, -16 -16" transform="rotate(-90,856,984)"/><rect x="872" y="968" width="32" height="32" transform="rotate(0,888,984)"/><rect x="904" y="968" width="32" height="32" transform="rotate(0,920,984)"/><circle cx="984" cy="984" r="16" transform="rotate(0,984,984)"/><rect x="1032" y="968" width="32" height="32" transform="rotate(0,1048,984)"/><path d="M 1096 968v 32h 32v -16a 16 16, 0, 0, 0, -16 -16" transform="rotate(-90,1112,984)"/><rect x="1128" y="968" width="32" height="32" transform="rotate(0,1144,984)"/><rect x="1160" y="968" width="32" height="32" transform="rotate(0,1176,984)"/><path d="M 264 1000v 32h 16a 16 16, 0, 0, 0, 0 -32" transform="rotate(90,280,1016)"/><path d="M 328 1000v 32h 16a 16 16, 0, 0, 0, 0 -32" transform="rotate(90,344,1016)"/><path d="M 424 1000v 32h 16a 16 16, 0, 0, 0, 0 -32" transform="rotate(180,440,1016)"/><path d="M 456 1000v 32h 16a 16 16, 0, 0, 0, 0 -32" transform="rotate(0,472,1016)"/><rect x="520" y="1000" width="32" height="32" transform="rotate(0,536,1016)"/><path d="M 584 1000v 32h 32v -16a 16 16, 0, 0, 0, -16 -16" transform="rotate(-90,600,1016)"/><path d="M 616 1000v 32h 16a 16 16, 0, 0, 0, 0 -32" transform="rotate(0,632,1016)"/><circle cx="696" cy="1016" r="16" transform="rotate(0,696,1016)"/><path d="M 744 1000v 32h 32v -16a 16 16, 0, 0, 0, -16 -16" transform="rotate(-90,760,1016)"/><path d="M 776 1000v 32h 32v -16a 16 16, 0, 0, 0, -16 -16" transform="rotate(0,792,1016)"/><rect x="840" y="1000" width="32" height="32" transform="rotate(0,856,1016)"/><rect x="904" y="1000" width="32" height="32" transform="rotate(0,920,1016)"/><rect x="1032" y="1000" width="32" height="32" transform="rotate(0,1048,1016)"/><path d="M 1096 1000v 32h 32v -16a 16 16, 0, 0, 0, -16 -16" transform="rotate(180,1112,1016)"/><rect x="1128" y="1000" width="32" height="32" transform="rotate(0,1144,1016)"/><rect x="1160" y="1000" width="32" height="32" transform="rotate(0,1176,1016)"/><circle cx="312" cy="1048" r="16" transform="rotate(0,312,1048)"/><path d="M 360 1032v 32h 16a 16 16, 0, 0, 0, 0 -32" transform="rotate(180,376,1048)"/><path d="M 392 1032v 32h 16a 16 16, 0, 0, 0, 0 -32" transform="rotate(0,408,1048)"/><path d="M 520 1032v 32h 32v -16a 16 16, 0, 0, 0, -16 -16" transform="rotate(180,536,1048)"/><rect x="552" y="1032" width="32" height="32" transform="rotate(0,568,1048)"/><path d="M 584 1032v 32h 32v -16a 16 16, 0, 0, 0, -16 -16" transform="rotate(90,600,1048)"/><path d="M 712 1032v 32h 32v -16a 16 16, 0, 0, 0, -16 -16" transform="rotate(-90,728,1048)"/><rect x="744" y="1032" width="32" height="32" transform="rotate(0,760,1048)"/><rect x="776" y="1032" width="32" height="32" transform="rotate(0,792,1048)"/><rect x="808" y="1032" width="32" height="32" transform="rotate(0,824,1048)"/><path d="M 840 1032v 32h 32v -16a 16 16, 0, 0, 0, -16 -16" transform="rotate(90,856,1048)"/><path d="M 904 1032v 32h 32v -16a 16 16, 0, 0, 0, -16 -16" transform="rotate(180,920,1048)"/><rect x="936" y="1032" width="32" height="32" transform="rotate(0,952,1048)"/><rect x="968" y="1032" width="32" height="32" transform="rotate(0,984,1048)"/><rect x="1000" y="1032" width="32" height="32" transform="rotate(0,1016,1048)"/><rect x="1032" y="1032" width="32" height="32" transform="rotate(0,1048,1048)"/><path d="M 1064 1032v 32h 16a 16 16, 0, 0, 0, 0 -32" transform="rotate(0,1080,1048)"/><path d="M 1128 1032v 32h 32v -16a 16 16, 0, 0, 0, -16 -16" transform="rotate(180,1144,1048)"/><rect x="1160" y="1032" width="32" height="32" transform="rotate(0,1176,1048)"/><circle cx="280" cy="1080" r="16" transform="rotate(0,280,1080)"/><path d="M 424 1064v 32h 16a 16 16, 0, 0, 0, 0 -32" transform="rotate(-90,440,1080)"/><path d="M 552 1064v 32h 16a 16 16, 0, 0, 0, 0 -32" transform="rotate(90,568,1080)"/><path d="M 616 1064v 32h 16a 16 16, 0, 0, 0, 0 -32" transform="rotate(180,632,1080)"/><rect x="648" y="1064" width="32" height="32" transform="rotate(0,664,1080)"/><rect x="680" y="1064" width="32" height="32" transform="rotate(0,696,1080)"/><rect x="712" y="1064" width="32" height="32" transform="rotate(0,728,1080)"/><path d="M 744 1064v 32h 32v -16a 16 16, 0, 0, 0, -16 -16" transform="rotate(90,760,1080)"/><rect x="936" y="1064" width="32" height="32" transform="rotate(0,952,1080)"/><path d="M 1000 1064v 32h 32v -16a 16 16, 0, 0, 0, -16 -16" transform="rotate(180,1016,1080)"/><rect x="1032" y="1064" width="32" height="32" transform="rotate(0,1048,1080)"/><circle cx="1112" cy="1080" r="16" transform="rotate(0,1112,1080)"/><rect x="1160" y="1064" width="32" height="32" transform="rotate(0,1176,1080)"/><path d="M 360 1096v 32h 16a 16 16, 0, 0, 0, 0 -32" transform="rotate(180,376,1112)"/><rect x="392" y="1096" width="32" height="32" transform="rotate(0,408,1112)"/><rect x="424" y="1096" width="32" height="32" transform="rotate(0,440,1112)"/><rect x="456" y="1096" width="32" height="32" transform="rotate(0,472,1112)"/><path d="M 488 1096v 32h 16a 16 16, 0, 0, 0, 0 -32" transform="rotate(0,504,1112)"/><path d="M 584 1096v 32h 16a 16 16, 0, 0, 0, 0 -32" transform="rotate(-90,600,1112)"/><path d="M 648 1096v 32h 32v -16a 16 16, 0, 0, 0, -16 -16" transform="rotate(180,664,1112)"/><rect x="680" y="1096" width="32" height="32" transform="rotate(0,696,1112)"/><path d="M 872 1096v 32h 32v -16a 16 16, 0, 0, 0, -16 -16" transform="rotate(-90,888,1112)"/><rect x="904" y="1096" width="32" height="32" transform="rotate(0,920,1112)"/><path d="M 936 1096v 32h 32v -16a 16 16, 0, 0, 0, -16 -16" transform="rotate(90,952,1112)"/><path d="M 1032 1096v 32h 16a 16 16, 0, 0, 0, 0 -32" transform="rotate(90,1048,1112)"/><path d="M 1160 1096v 32h 16a 16 16, 0, 0, 0, 0 -32" transform="rotate(90,1176,1112)"/><path d="M 264 1128v 32h 16a 16 16, 0, 0, 0, 0 -32" transform="rotate(180,280,1144)"/><rect x="296" y="1128" width="32" height="32" transform="rotate(0,312,1144)"/><path d="M 328 1128v 32h 32v -16a 16 16, 0, 0, 0, -16 -16" transform="rotate(0,344,1144)"/><path d="M 424 1128v 32h 32v -16a 16 16, 0, 0, 0, -16 -16" transform="rotate(180,440,1144)"/><path d="M 456 1128v 32h 32v -16a 16 16, 0, 0, 0, -16 -16" transform="rotate(90,472,1144)"/><path d="M 520 1128v 32h 16a 16 16, 0, 0, 0, 0 -32" transform="rotate(180,536,1144)"/><rect x="552" y="1128" width="32" height="32" transform="rotate(0,568,1144)"/><path d="M 584 1128v 32h 32v -16a 16 16, 0, 0, 0, -16 -16" transform="rotate(90,600,1144)"/><rect x="680" y="1128" width="32" height="32" transform="rotate(0,696,1144)"/><path d="M 776 1128v 32h 32v -16a 16 16, 0, 0, 0, -16 -16" transform="rotate(-90,792,1144)"/><rect x="808" y="1128" width="32" height="32" transform="rotate(0,824,1144)"/><rect x="840" y="1128" width="32" height="32" transform="rotate(0,856,1144)"/><rect x="872" y="1128" width="32" height="32" transform="rotate(0,888,1144)"/><rect x="904" y="1128" width="32" height="32" transform="rotate(0,920,1144)"/><circle cx="1016" cy="1144" r="16" transform="rotate(0,1016,1144)"/><path d="M 296 1160v 32h 32v -16a 16 16, 0, 0, 0, -16 -16" transform="rotate(180,312,1176)"/><path d="M 328 1160v 32h 32v -16a 16 16, 0, 0, 0, -16 -16" transform="rotate(90,344,1176)"/><circle cx="504" cy="1176" r="16" transform="rotate(0,504,1176)"/><path d="M 616 1160v 32h 16a 16 16, 0, 0, 0, 0 -32" transform="rotate(180,632,1176)"/><rect x="648" y="1160" width="32" height="32" transform="rotate(0,664,1176)"/><path d="M 680 1160v 32h 32v -16a 16 16, 0, 0, 0, -16 -16" transform="rotate(90,696,1176)"/><path d="M 776 1160v 32h 32v -16a 16 16, 0, 0, 0, -16 -16" transform="rotate(180,792,1176)"/><path d="M 808 1160v 32h 32v -16a 16 16, 0, 0, 0, -16 -16" transform="rotate(90,824,1176)"/><path d="M 872 1160v 32h 32v -16a 16 16, 0, 0, 0, -16 -16" transform="rotate(180,888,1176)"/><rect x="904" y="1160" width="32" height="32" transform="rotate(0,920,1176)"/><path d="M 936 1160v 32h 16a 16 16, 0, 0, 0, 0 -32" transform="rotate(0,952,1176)"/><path d="M 1032 1160v 32h 16a 16 16, 0, 0, 0, 0 -32" transform="rotate(180,1048,1176)"/><path d="M 1064 1160v 32h 16a 16 16, 0, 0, 0, 0 -32" transform="rotate(0,1080,1176)"/><path d="M 1128 1160v 32h 16a 16 16, 0, 0, 0, 0 -32" transform="rotate(180,1144,1176)"/><path d="M 1160 1160v 32h 16a 16 16, 0, 0, 0, 0 -32" transform="rotate(0,1176,1176)"/></clipPath><clipPath id="clip-path-corners-square-color-0-0-431"><path clip-rule="evenodd" d="M 8 88v 64a 80 80, 0, 0, 0, 80 80h 64a 80 80, 0, 0, 0, 80 -80v -64a 80 80, 0, 0, 0, -80 -80h -64a 80 80, 0, 0, 0, -80 80M 88 40h 64a 48 48, 0, 0, 1, 48 48v 64a 48 48, 0, 0, 1, -48 48h -64a 48 48, 0, 0, 1, -48 -48v -64a 48 48, 0, 0, 1, 48 -48" transform="rotate(0,120,120)"/></clipPath><clipPath id="clip-path-corners-dot-color-0-0-431"><circle cx="120" cy="120" r="48" transform="rotate(0,120,120)"/></clipPath><clipPath id="clip-path-corners-square-color-1-0-431"><path clip-rule="evenodd" d="M 968 88v 64a 80 80, 0, 0, 0, 80 80h 64a 80 80, 0, 0, 0, 80 -80v -64a 80 80, 0, 0, 0, -80 -80h -64a 80 80, 0, 0, 0, -80 80M 1048 40h 64a 48 48, 0, 0, 1, 48 48v 64a 48 48, 0, 0, 1, -48 48h -64a 48 48, 0, 0, 1, -48 -48v -64a 48 48, 0, 0, 1, 48 -48" transform="rotate(90,1080,120)"/></clipPath><clipPath id="clip-path-corners-dot-color-1-0-431"><circle cx="1080" cy="120" r="48" transform="rotate(90,1080,120)"/></clipPath><clipPath id="clip-path-corners-square-color-0-1-431"><path clip-rule="evenodd" d="M 8 1048v 64a 80 80, 0, 0, 0, 80 80h 64a 80 80, 0, 0, 0, 80 -80v -64a 80 80, 0, 0, 0, -80 -80h -64a 80 80, 0, 0, 0, -80 80M 88 1000h 64a 48 48, 0, 0, 1, 48 48v 64a 48 48, 0, 0, 1, -48 48h -64a 48 48, 0, 0, 1, -48 -48v -64a 48 48, 0, 0, 1, 48 -48" transform="rotate(-90,120,1080)"/></clipPath><clipPath id="clip-path-corners-dot-color-0-1-431"><circle cx="120" cy="1080" r="48" transform="rotate(-90,120,1080)"/></clipPath></defs><rect x="0" y="0" height="1200" width="1200" clip-path="url('#clip-path-background-color-431')" fill="#ffffff"/><rect x="0" y="0" height="1200" width="1200" clip-path="url('#clip-path-dot-color-431')" fill="#000000"/><rect x="8" y="8" height="224" width="224" clip-path="url('#clip-path-corners-square-color-0-0-431')" fill="#000000"/><rect x="72" y="72" height="96" width="96" clip-path="url('#clip-path-corners-dot-color-0-0-431')" fill="#000000"/><rect x="968" y="8" height="224" width="224" clip-path="url('#clip-path-corners-square-color-1-0-431')" fill="#000000"/><rect x="1032" y="72" height="96" width="96" clip-path="url('#clip-path-corners-dot-color-1-0-431')" fill="#000000"/><rect x="8" y="968" height="224" width="224" clip-path="url('#clip-path-corners-square-color-0-1-431')" fill="#000000"/><rect x="72" y="1032" height="96" width="96" clip-path="url('#clip-path-corners-dot-color-0-1-431')" fill="#000000"/></svg>