<?xml version="1.0" standalone="no"?>
<svg xmlns="http://www.w3.org/2000/svg" width="1200" height="1200" xmlns:xlink="http://www.w3.org/1999/xlink" viewBox="0 0 1200 1200"><defs><clipPath id="clip-path-background-color-463"><rect x="0" y="0" width="1200" height="1200"/></clipPath><clipPath id="clip-path-dot-color-463"><path d="M 250 26v 28h 28v -14a 14 14, 0, 0, 0, -14 -14" transform="rotate(-90,264,40)"/><path d="M 278 26v 28h 14a 14 14, 0, 0, 0, 0 -28" transform="rotate(0,292,40)"/><path d="M 334 26v 28h 14a 14 14, 0, 0, 0, 0 -28" transform="rotate(180,348,40)"/><path d="M 362 26v 28h 28v -14a 14 14, 0, 0, 0, -14 -14" transform="rotate(0,376,40)"/><circle cx="432" cy="40" r="14" transform="rotate(0,432,40)"/><circle cx="488" cy="40" r="14" transform="rotate(0,488,40)"/><path d="M 558 26v 28h 14a 14 14, 0, 0, 0, 0 -28" transform="rotate(180,572,40)"/><rect x="586" y="26" width="28" height="28" transform="rotate(0,600,40)"/><path d="M 614 26v 28h 28v -14a 14 14, 0, 0, 0, -14 -14" transform="rotate(0,628,40)"/><path d="M 670 26v 28h 14a 14 14, 0, 0, 0, 0 -28" transform="rotate(-90,684,40)"/><path d="M 726 26v 28h 14a 14 14, 0, 0, 0, 0 -28" transform="rotate(180,740,40)"/><rect x="754" y="26" width="28" height="28" transform="rotate(0,768,40)"/><path d="M 782 26v 28h 28v -14a 14 14, 0, 0, 0, -14 -14" transform="rotate(0,796,40)"/><path d="M 894 26v 28h 14a 14 14, 0, 0, 0, 0 -28" transform="rotate(-90,908,40)"/><rect x="250" y="54" width="28" height="28" transform="rotate(0,264,68)"/><circle cx="320" cy="68" r="14" transform="rotate(0,320,68)"/><path d="M 362 54v 28h 28v -14a 14 14, 0, 0, 0, -14 -14" transform="rotate(180,376,68)"/><path d="M 390 54v 28h 14a 14 14, 0, 0, 0, 0 -28" transform="rotate(0,404,68)"/><rect x="614" y="54" width="28" height="28" transform="rotate(0,628,68)"/><path d="M 670 54v 28h 28v -14a 14 14, 0, 0, 0, -14 -14" transform="rotate(180,684,68)"/><path d="M 698 54v 28h 14a 14 14, 0, 0, 0, 0 -28" transform="rotate(0,712,68)"/><rect x="754" y="54" width="28" height="28" transform="rotate(0,768,68)"/><rect x="782" y="54" width="28" height="28" transform="rotate(0,796,68)"/><circle cx="852" cy="68" r="14" transform="rotate(0,852,68)"/><path d="M 894 54v 28h 28v -14a 14 14, 0, 0, 0, -14 -14" transform="rotate(180,908,68)"/><path d="M 922 54v 28h 28v -14a 14 14, 0, 0, 0, -14 -14" transform="rotate(0,936,68)"/><rect x="250" y="82" width="28" height="28" transform="rotate(0,264,96)"/><path d="M 278 82v 28h 14a 14 14, 0, 0, 0, 0 -28" transform="rotate(0,292,96)"/><path d="M 418 82v 28h 14a 14 14, 0, 0, 0, 0 -28" transform="rotate(-90,432,96)"/><path d="M 558 82v 28h 14a 14 14, 0, 0, 0, 0 -28" transform="rotate(180,572,96)"/><rect x="586" y="82" width="28" height="28" transform="rotate(0,600,96)"/><rect x="614" y="82" width="28" height="28" transform="rotate(0,628,96)"/><path d="M 642 82v 28h 28v -14a 14 14, 0, 0, 0, -14 -14" transform="rotate(0,656,96)"/><path d="M 726 82v 28h 28v -14a 14 14, 0, 0, 0, -14 -14" transform="rotate(-90,740,96)"/><rect x="754" y="82" width="28" height="28" transform="rotate(0,768,96)"/><rect x="782" y="82" width="28" height="28" transform="rotate(0,796,96)"/><rect x="922" y="82" width="28" height="28" transform="rotate(0,936,96)"/><rect x="250" y="110" width="28" height="28" transform="rotate(0,264,124)"/><circle cx="320" cy="124" r="14" transform="rotate(0,320,124)"/><path d="M 390 110v 28h 28v -14a 14 14, 0, 0, 0, -14 -14" transform="rotate(-90,404,124)"/><path d="M 418 110v 28h 28v -14a 14 14, 0, 0, 0, -14 -14" transform="rotate(90,432,124)"/><path d="M 502 110v 28h 14a 14 14, 0, 0, 0, 0 -28" transform="rotate(-90,516,124)"/><path d="M 642 110v 28h 28v -14a 14 14, 0, 0, 0, -14 -14" transform="rotate(180,656,124)"/><rect x="670" y="110" width="28" height="28" transform="rotate(0,684,124)"/><rect x="698" y="110" width="28" height="28" transform="rotate(0,712,124)"/><rect x="726" y="110" width="28" height="28" transform="rotate(0,740,124)"/><rect x="754" y="110" width="28" height="28" transform="rotate(0,768,124)"/><rect x="782" y="110" width="28" height="28" transform="rotate(0,796,124)"/><circle cx="852" cy="124" r="14" transform="rotate(0,852,124)"/><path d="M 894 110v 28h 28v -14a 14 14, 0, 0, 0, -14 -14" transform="rotate(-90,908,124)"/><path d="M 922 110v 28h 28v -14a 14 14, 0, 0, 0, -14 -14" transform="rotate(90,936,124)"/><path d="M 250 138v 28h 28v -14a 14 14, 0, 0, 0, -14 -14" transform="rotate(180,264,152)"/><path d="M 278 138v 28h 28v -14a 14 14, 0, 0, 0, -14 -14" transform="rotate(0,292,152)"/><path d="M 362 138v 28h 14a 14 14, 0, 0, 0, 0 -28" transform="rotate(180,376,152)"/><path d="M 390 138v 28h 28v -14a 14 14, 0, 0, 0, -14 -14" transform="rotate(90,404,152)"/><path d="M 446 138v 28h 14a 14 14, 0, 0, 0, 0 -28" transform="rotate(-90,460,152)"/><rect x="502" y="138" width="28" height="28" transform="rotate(0,516,152)"/><path d="M 530 138v 28h 14a 14 14, 0, 0, 0, 0 -28" transform="rotate(0,544,152)"/><path d="M 586 138v 28h 14a 14 14, 0, 0, 0, 0 -28" transform="rotate(180,600,152)"/><path d="M 614 138v 28h 28v -14a 14 14, 0, 0, 0, -14 -14" transform="rotate(0,628,152)"/><rect x="670" y="138" width="28" height="28" transform="rotate(0,684,152)"/><path d="M 754 138v 28h 28v -14a 14 14, 0, 0, 0, -14 -14" transform="rotate(180,768,152)"/><rect x="782" y="138" width="28" height="28" transform="rotate(0,796,152)"/><rect x="894" y="138" width="28" height="28" transform="rotate(0,908,152)"/><path d="M 278 166v 28h 14a 14 14, 0, 0, 0, 0 -28" transform="rotate(90,292,180)"/><path d="M 418 166v 28h 28v -14a 14 14, 0, 0, 0, -14 -14" transform="rotate(-90,432,180)"/><path d="M 446 166v 28h 28v -14a 14 14, 0, 0, 0, -14 -14" transform="rotate(90,460,180)"/><path d="M 502 166v 28h 14a 14 14, 0, 0, 0, 0 -28" transform="rotate(90,516,180)"/><path d="M 614 166v 28h 28v -14a 14 14, 0, 0, 0, -14 -14" transform="rotate(180,628,180)"/><rect x="642" y="166" width="28" height="28" transform="rotate(0,656,180)"/><path d="M 670 166v 28h 28v -14a 14 14, 0, 0, 0, -14 -14" transform="rotate(90,684,180)"/><path d="M 782 166v 28h 14a 14 14, 0, 0, 0, 0 -28" transform="rotate(90,796,180)"/><path d="M 894 166v 28h 28v -14a 14 14, 0, 0, 0, -14 -14" transform="rotate(180,908,180)"/><path d="M 922 166v 28h 28v -14a 14 14, 0, 0, 0, -14 -14" transform="rotate(0,936,180)"/><path d="M 250 194v 28h 14a 14 14, 0, 0, 0, 0 -28" transform="rotate(-90,264,208)"/><circle cx="320" cy="208" r="14" transform="rotate(0,320,208)"/><path d="M 362 194v 28h 14a 14 14, 0, 0, 0, 0 -28" transform="rotate(-90,376,208)"/><path d="M 418 194v 28h 14a 14 14, 0, 0, 0, 0 -28" transform="rotate(90,432,208)"/><circle cx="488" cy="208" r="14" transform="rotate(0,488,208)"/><circle cx="544" cy="208" r="14" transform="rotate(0,544,208)"/><path d="M 586 194v 28h 14a 14 14, 0, 0, 0, 0 -28" transform="rotate(-90,600,208)"/><rect x="642" y="194" width="28" height="28" transform="rotate(0,656,208)"/><path d="M 698 194v 28h 14a 14 14, 0, 0, 0, 0 -28" transform="rotate(-90,712,208)"/><circle cx="768" cy="208" r="14" transform="rotate(0,768,208)"/><circle cx="824" cy="208" r="14" transform="rotate(0,824,208)"/><path d="M 866 194v 28h 14a 14 14, 0, 0, 0, 0 -28" transform="rotate(-90,880,208)"/><rect x="922" y="194" width="28" height="28" transform="rotate(0,936,208)"/><path d="M 250 222v 28h 14a 14 14, 0, 0, 0, 0 -28" transform="rotate(90,264,236)"/><path d="M 334 222v 28h 14a 14 14, 0, 0, 0, 0 -28" transform="rotate(180,348,236)"/><rect x="362" y="222" width="28" height="28" transform="rotate(0,376,236)"/><path d="M 390 222v 28h 28v -14a 14 14, 0, 0, 0, -14 -14" transform="rotate(0,404,236)"/><path d="M 502 222v 28h 14a 14 14, 0, 0, 0, 0 -28" transform="rotate(-90,516,236)"/><rect x="586" y="222" width="28" height="28" transform="rotate(0,600,236)"/><rect x="642" y="222" width="28" height="28" transform="rotate(0,656,236)"/><rect x="698" y="222" width="28" height="28" transform="rotate(0,712,236)"/><path d="M 726 222v 28h 28v -14a 14 14, 0, 0, 0, -14 -14" transform="rotate(0,740,236)"/><path d="M 838 222v 28h 28v -14a 14 14, 0, 0, 0, -14 -14" transform="rotate(-90,852,236)"/><rect x="866" y="222" width="28" height="28" transform="rotate(0,880,236)"/><rect x="894" y="222" width="28" height="28" transform="rotate(0,908,236)"/><rect x="922" y="222" width="28" height="28" transform="rotate(0,936,236)"/><path d="M 54 250v 28h 14a 14 14, 0, 0, 0, 0 -28" transform="rotate(180,68,264)"/><path d="M 82 250v 28h 14a 14 14, 0, 0, 0, 0 -28" transform="rotate(0,96,264)"/><path d="M 138 250v 28h 14a 14 14, 0, 0, 0, 0 -28" transform="rotate(-90,152,264)"/><path d="M 194 250v 28h 14a 14 14, 0, 0, 0, 0 -28" transform="rotate(180,208,264)"/><path d="M 222 250v 28h 14a 14 14, 0, 0, 0, 0 -28" transform="rotate(0,236,264)"/><rect x="362" y="250" width="28" height="28" transform="rotate(0,376,264)"/><rect x="390" y="250" width="28" height="28" transform="rotate(0,404,264)"/><rect x="418" y="250" width="28" height="28" transform="rotate(0,432,264)"/><rect x="446" y="250" width="28" height="28" transform="rotate(0,460,264)"/><rect x="474" y="250" width="28" height="28" transform="rotate(0,488,264)"/><rect x="502" y="250" width="28" height="28" transform="rotate(0,516,264)"/><path d="M 558 250v 28h 14a 14 14, 0, 0, 0, 0 -28" transform="rotate(180,572,264)"/><rect x="586" y="250" width="28" height="28" transform="rotate(0,600,264)"/><path d="M 642 250v 28h 28v -14a 14 14, 0, 0, 0, -14 -14" transform="rotate(180,656,264)"/><rect x="670" y="250" width="28" height="28" transform="rotate(0,684,264)"/><rect x="698" y="250" width="28" height="28" transform="rotate(0,712,264)"/><rect x="726" y="250" width="28" height="28" transform="rotate(0,740,264)"/><rect x="838" y="250" width="28" height="28" transform="rotate(0,852,264)"/><rect x="922" y="250" width="28" height="28" transform="rotate(0,936,264)"/><path d="M 978 250v 28h 14a 14 14, 0, 0, 0, 0 -28" transform="rotate(-90,992,264)"/><path d="M 1034 250v 28h 14a 14 14, 0, 0, 0, 0 -28" transform="rotate(180,1048,264)"/><rect x="1062" y="250" width="28" height="28" transform="rotate(0,1076,264)"/><rect x="1090" y="250" width="28" height="28" transform="rotate(0,1104,264)"/><rect x="1118" y="250" width="28" height="28" transform="rotate(0,1132,264)"/><path d="M 1146 250v 28h 28v -14a 14 14, 0, 0, 0, -14 -14" transform="rotate(0,1160,264)"/><path d="M 110 278v 28h 28v -14a 14 14, 0, 0, 0, -14 -14" transform="rotate(-90,124,292)"/><path d="M 138 278v 28h 28v -14a 14 14, 0, 0, 0, -14 -14" transform="rotate(90,152,292)"/><path d="M 306 278v 28h 14a 14 14, 0, 0, 0, 0 -28" transform="rotate(-90,320,292)"/><path d="M 362 278v 28h 28v -14a 14 14, 0, 0, 0, -14 -14" transform="rotate(180,376,292)"/><rect x="390" y="278" width="28" height="28" transform="rotate(0,404,292)"/><path d="M 418 278v 28h 28v -14a 14 14, 0, 0, 0, -14 -14" transform="rotate(90,432,292)"/><path d="M 502 278v 28h 14a 14 14, 0, 0, 0, 0 -28" transform="rotate(90,516,292)"/><path d="M 586 278v 28h 14a 14 14, 0, 0, 0, 0 -28" transform="rotate(90,600,292)"/><path d="M 670 278v 28h 28v -14a 14 14, 0, 0, 0, -14 -14" transform="rotate(180,684,292)"/><rect x="698" y="278" width="28" height="28" transform="rotate(0,712,292)"/><path d="M 726 278v 28h 28v -14a 14 14, 0, 0, 0, -14 -14" transform="rotate(90,740,292)"/><path d="M 810 278v 28h 14a 14 14, 0, 0, 0, 0 -28" transform="rotate(180,824,292)"/><rect x="838" y="278" width="28" height="28" transform="rotate(0,852,292)"/><path d="M 866 278v 28h 28v -14a 14 14, 0, 0, 0, -14 -14" transform="rotate(0,880,292)"/><path d="M 922 278v 28h 28v -14a 14 14, 0, 0, 0, -14 -14" transform="rotate(180,936,292)"/><rect x="950" y="278" width="28" height="28" transform="rotate(0,964,292)"/><rect x="978" y="278" width="28" height="28" transform="rotate(0,992,292)"/><path d="M 1062 278v 28h 28v -14a 14 14, 0, 0, 0, -14 -14" transform="rotate(180,1076,292)"/><rect x="1090" y="278" width="28" height="28" transform="rotate(0,1104,292)"/><rect x="1118" y="278" width="28" height="28" transform="rotate(0,1132,292)"/><rect x="1146" y="278" width="28" height="28" transform="rotate(0,1160,292)"/><path d="M 26 306v 28h 28v -14a 14 14, 0, 0, 0, -14 -14" transform="rotate(-90,40,320)"/><rect x="54" y="306" width="28" height="28" transform="rotate(0,68,320)"/><rect x="82" y="306" width="28" height="28" transform="rotate(0,96,320)"/><path d="M 110 306v 28h 28v -14a 14 14, 0, 0, 0, -14 -14" transform="rotate(90,124,320)"/><path d="M 166 306v 28h 14a 14 14, 0, 0, 0, 0 -28" transform="rotate(180,180,320)"/><rect x="194" y="306" width="28" height="28" transform="rotate(0,208,320)"/><rect x="222" y="306" width="28" height="28" transform="rotate(0,236,320)"/><path d="M 250 306v 28h 14a 14 14, 0, 0, 0, 0 -28" transform="rotate(0,264,320)"/><rect x="306" y="306" width="28" height="28" transform="rotate(0,320,320)"/><path d="M 474 306v 28h 14a 14 14, 0, 0, 0, 0 -28" transform="rotate(-90,488,320)"/><path d="M 530 306v 28h 28v -14a 14 14, 0, 0, 0, -14 -14" transform="rotate(-90,544,320)"/><path d="M 558 306v 28h 28v -14a 14 14, 0, 0, 0, -14 -14" transform="rotate(0,572,320)"/><path d="M 642 306v 28h 14a 14 14, 0, 0, 0, 0 -28" transform="rotate(-90,656,320)"/><rect x="838" y="306" width="28" height="28" transform="rotate(0,852,320)"/><path d="M 866 306v 28h 28v -14a 14 14, 0, 0, 0, -14 -14" transform="rotate(90,880,320)"/><path d="M 950 306v 28h 28v -14a 14 14, 0, 0, 0, -14 -14" transform="rotate(180,964,320)"/><rect x="978" y="306" width="28" height="28" transform="rotate(0,992,320)"/><path d="M 1006 306v 28h 28v -14a 14 14, 0, 0, 0, -14 -14" transform="rotate(0,1020,320)"/><path d="M 1090 306v 28h 28v -14a 14 14, 0, 0, 0, -14 -14" transform="rotate(180,1104,320)"/><rect x="1118" y="306" width="28" height="28" transform="rotate(0,1132,320)"/><path d="M 1146 306v 28h 28v -14a 14 14, 0, 0, 0, -14 -14" transform="rotate(90,1160,320)"/><rect x="26" y="334" width="28" height="28" transform="rotate(0,40,348)"/><path d="M 222 334v 28h 14a 14 14, 0, 0, 0, 0 -28" transform="rotate(90,236,348)"/><rect x="306" y="334" width="28" height="28" transform="rotate(0,320,348)"/><rect x="334" y="334" width="28" height="28" transform="rotate(0,348,348)"/><rect x="362" y="334" width="28" height="28" transform="rotate(0,376,348)"/><path d="M 390 334v 28h 28v -14a 14 14, 0, 0, 0, -14 -14" transform="rotate(0,404,348)"/><path d="M 446 334v 28h 28v -14a 14 14, 0, 0, 0, -14 -14" transform="rotate(-90,460,348)"/><rect x="474" y="334" width="28" height="28" transform="rotate(0,488,348)"/><rect x="502" y="334" width="28" height="28" transform="rotate(0,516,348)"/><rect x="530" y="334" width="28" height="28" transform="rotate(0,544,348)"/><rect x="558" y="334" width="28" height="28" transform="rotate(0,572,348)"/><rect x="642" y="334" width="28" height="28" transform="rotate(0,656,348)"/><rect x="670" y="334" width="28" height="28" transform="rotate(0,684,348)"/><rect x="698" y="334" width="28" height="28" transform="rotate(0,712,348)"/><path d="M 726 334v 28h 28v -14a 14 14, 0, 0, 0, -14 -14" transform="rotate(0,740,348)"/><path d="M 782 334v 28h 14a 14 14, 0, 0, 0, 0 -28" transform="rotate(180,796,348)"/><rect x="810" y="334" width="28" height="28" transform="rotate(0,824,348)"/><rect x="838" y="334" width="28" height="28" transform="rotate(0,852,348)"/><path d="M 922 334v 28h 14a 14 14, 0, 0, 0, 0 -28" transform="rotate(-90,936,348)"/><path d="M 1006 334v 28h 28v -14a 14 14, 0, 0, 0, -14 -14" transform="rotate(180,1020,348)"/><path d="M 1034 334v 28h 14a 14 14, 0, 0, 0, 0 -28" transform="rotate(0,1048,348)"/><rect x="26" y="362" width="28" height="28" transform="rotate(0,40,376)"/><path d="M 54 362v 28h 28v -14a 14 14, 0, 0, 0, -14 -14" transform="rotate(0,68,376)"/><circle cx="152" cy="376" r="14" transform="rotate(0,152,376)"/><circle cx="208" cy="376" r="14" transform="rotate(0,208,376)"/><circle cx="264" cy="376" r="14" transform="rotate(0,264,376)"/><rect x="306" y="362" width="28" height="28" transform="rotate(0,320,376)"/><rect x="334" y="362" width="28" height="28" transform="rotate(0,348,376)"/><rect x="362" y="362" width="28" height="28" transform="rotate(0,376,376)"/><rect x="390" y="362" width="28" height="28" transform="rotate(0,404,376)"/><rect x="418" y="362" width="28" height="28" transform="rotate(0,432,376)"/><rect x="446" y="362" width="28" height="28" transform="rotate(0,460,376)"/><rect x="530" y="362" width="28" height="28" transform="rotate(0,544,376)"/><path d="M 558 362v 28h 28v -14a 14 14, 0, 0, 0, -14 -14" transform="rotate(90,572,376)"/><rect x="642" y="362" width="28" height="28" transform="rotate(0,656,376)"/><rect x="698" y="362" width="28" height="28" transform="rotate(0,712,376)"/><rect x="726" y="362" width="28" height="28" transform="rotate(0,740,376)"/><path d="M 754 362v 28h 14a 14 14, 0, 0, 0, 0 -28" transform="rotate(0,768,376)"/><rect x="838" y="362" width="28" height="28" transform="rotate(0,852,376)"/><path d="M 894 362v 28h 28v -14a 14 14, 0, 0, 0, -14 -14" transform="rotate(-90,908,376)"/><rect x="922" y="362" width="28" height="28" transform="rotate(0,936,376)"/><circle cx="992" cy="376" r="14" transform="rotate(0,992,376)"/><path d="M 1062 362v 28h 14a 14 14, 0, 0, 0, 0 -28" transform="rotate(-90,1076,376)"/><path d="M 26 390v 28h 28v -14a 14 14, 0, 0, 0, -14 -14" transform="rotate(180,40,404)"/><rect x="54" y="390" width="28" height="28" transform="rotate(0,68,404)"/><path d="M 82 390v 28h 14a 14 14, 0, 0, 0, 0 -28" transform="rotate(0,96,404)"/><circle cx="236" cy="404" r="14" transform="rotate(0,236,404)"/><rect x="306" y="390" width="28" height="28" transform="rotate(0,320,404)"/><path d="M 418 390v 28h 28v -14a 14 14, 0, 0, 0, -14 -14" transform="rotate(180,432,404)"/><path d="M 446 390v 28h 28v -14a 14 14, 0, 0, 0, -14 -14" transform="rotate(90,460,404)"/><rect x="530" y="390" width="28" height="28" transform="rotate(0,544,404)"/><rect x="642" y="390" width="28" height="28" transform="rotate(0,656,404)"/><rect x="670" y="390" width="28" height="28" transform="rotate(0,684,404)"/><rect x="698" y="390" width="28" height="28" transform="rotate(0,712,404)"/><circle cx="796" cy="404" r="14" transform="rotate(0,796,404)"/><path d="M 838 390v 28h 28v -14a 14 14, 0, 0, 0, -14 -14" transform="rotate(180,852,404)"/><rect x="866" y="390" width="28" height="28" transform="rotate(0,880,404)"/><rect x="894" y="390" width="28" height="28" transform="rotate(0,908,404)"/><rect x="922" y="390" width="28" height="28" transform="rotate(0,936,404)"/><path d="M 950 390v 28h 14a 14 14, 0, 0, 0, 0 -28" transform="rotate(0,964,404)"/><rect x="1062" y="390" width="28" height="28" transform="rotate(0,1076,404)"/><path d="M 1118 390v 28h 28v -14a 14 14, 0, 0, 0, -14 -14" transform="rotate(-90,1132,404)"/><path d="M 1146 390v 28h 28v -14a 14 14, 0, 0, 0, -14 -14" transform="rotate(0,1160,404)"/><rect x="54" y="418" width="28" height="28" transform="rotate(0,68,432)"/><circle cx="152" cy="432" r="14" transform="rotate(0,152,432)"/><circle cx="208" cy="432" r="14" transform="rotate(0,208,432)"/><rect x="306" y="418" width="28" height="28" transform="rotate(0,320,432)"/><rect x="334" y="418" width="28" height="28" transform="rotate(0,348,432)"/><path d="M 362 418v 28h 14a 14 14, 0, 0, 0, 0 -28" transform="rotate(0,376,432)"/><circle cx="488" cy="432" r="14" transform="rotate(0,488,432)"/><path d="M 530 418v 28h 14a 14 14, 0, 0, 0, 0 -28" transform="rotate(90,544,432)"/><path d="M 614 418v 28h 28v -14a 14 14, 0, 0, 0, -14 -14" transform="rotate(-90,628,432)"/><rect x="642" y="418" width="28" height="28" transform="rotate(0,656,432)"/><rect x="670" y="418" width="28" height="28" transform="rotate(0,684,432)"/><rect x="698" y="418" width="28" height="28" transform="rotate(0,712,432)"/><path d="M 754 418v 28h 14a 14 14, 0, 0, 0, 0 -28" transform="rotate(-90,768,432)"/><path d="M 894 418v 28h 28v -14a 14 14, 0, 0, 0, -14 -14" transform="rotate(180,908,432)"/><rect x="922" y="418" width="28" height="28" transform="rotate(0,936,432)"/><path d="M 978 418v 28h 28v -14a 14 14, 0, 0, 0, -14 -14" transform="rotate(-90,992,432)"/><path d="M 1006 418v 28h 14a 14 14, 0, 0, 0, 0 -28" transform="rotate(0,1020,432)"/><path d="M 1062 418v 28h 14a 14 14, 0, 0, 0, 0 -28" transform="rotate(90,1076,432)"/><rect x="1118" y="418" width="28" height="28" transform="rotate(0,1132,432)"/><path d="M 1146 418v 28h 28v -14a 14 14, 0, 0, 0, -14 -14" transform="rotate(90,1160,432)"/><rect x="54" y="446" width="28" height="28" transform="rotate(0,68,460)"/><path d="M 166 446v 28h 14a 14 14, 0, 0, 0, 0 -28" transform="rotate(-90,180,460)"/><path d="M 222 446v 28h 14a 14 14, 0, 0, 0, 0 -28" transform="rotate(-90,236,460)"/><path d="M 278 446v 28h 28v -14a 14 14, 0, 0, 0, -14 -14" transform="rotate(-90,292,460)"/><rect x="306" y="446" width="28" height="28" transform="rotate(0,320,460)"/><rect x="334" y="446" width="28" height="28" transform="rotate(0,348,460)"/><path d="M 390 446v 28h 28v -14a 14 14, 0, 0, 0, -14 -14" transform="rotate(-90,404,460)"/><path d="M 418 446v 28h 28v -14a 14 14, 0, 0, 0, -14 -14" transform="rotate(0,432,460)"/><path d="M 558 446v 28h 28v -14a 14 14, 0, 0, 0, -14 -14" transform="rotate(-90,572,460)"/><rect x="586" y="446" width="28" height="28" transform="rotate(0,600,460)"/><rect x="614" y="446" width="28" height="28" transform="rotate(0,628,460)"/><rect x="698" y="446" width="28" height="28" transform="rotate(0,712,460)"/><rect x="726" y="446" width="28" height="28" transform="rotate(0,740,460)"/><rect x="754" y="446" width="28" height="28" transform="rotate(0,768,460)"/><path d="M 782 446v 28h 14a 14 14, 0, 0, 0, 0 -28" transform="rotate(0,796,460)"/><path d="M 838 446v 28h 14a 14 14, 0, 0, 0, 0 -28" transform="rotate(-90,852,460)"/><rect x="922" y="446" width="28" height="28" transform="rotate(0,936,460)"/><rect x="978" y="446" width="28" height="28" transform="rotate(0,992,460)"/><circle cx="1048" cy="460" r="14" transform="rotate(0,1048,460)"/><rect x="1118" y="446" width="28" height="28" transform="rotate(0,1132,460)"/><rect x="54" y="474" width="28" height="28" transform="rotate(0,68,488)"/><circle cx="124" cy="488" r="14" transform="rotate(0,124,488)"/><rect x="166" y="474" width="28" height="28" transform="rotate(0,180,488)"/><rect x="194" y="474" width="28" height="28" transform="rotate(0,208,488)"/><rect x="222" y="474" width="28" height="28" transform="rotate(0,236,488)"/><rect x="250" y="474" width="28" height="28" transform="rotate(0,264,488)"/><rect x="278" y="474" width="28" height="28" transform="rotate(0,292,488)"/><rect x="306" y="474" width="28" height="28" transform="rotate(0,320,488)"/><rect x="334" y="474" width="28" height="28" transform="rotate(0,348,488)"/><rect x="362" y="474" width="28" height="28" transform="rotate(0,376,488)"/><rect x="390" y="474" width="28" height="28" transform="rotate(0,404,488)"/><rect x="418" y="474" width="28" height="28" transform="rotate(0,432,488)"/><path d="M 446 474v 28h 14a 14 14, 0, 0, 0, 0 -28" transform="rotate(0,460,488)"/><path d="M 558 474v 28h 14a 14 14, 0, 0, 0, 0 -28" transform="rotate(90,572,488)"/><rect x="614" y="474" width="28" height="28" transform="rotate(0,628,488)"/><path d="M 670 474v 28h 14a 14 14, 0, 0, 0, 0 -28" transform="rotate(180,684,488)"/><rect x="698" y="474" width="28" height="28" transform="rotate(0,712,488)"/><rect x="726" y="474" width="28" height="28" transform="rotate(0,740,488)"/><path d="M 838 474v 28h 28v -14a 14 14, 0, 0, 0, -14 -14" transform="rotate(180,852,488)"/><rect x="866" y="474" width="28" height="28" transform="rotate(0,880,488)"/><rect x="894" y="474" width="28" height="28" transform="rotate(0,908,488)"/><rect x="922" y="474" width="28" height="28" transform="rotate(0,936,488)"/><rect x="978" y="474" width="28" height="28" transform="rotate(0,992,488)"/><path d="M 1006 474v 28h 14a 14 14, 0, 0, 0, 0 -28" transform="rotate(0,1020,488)"/><rect x="1118" y="474" width="28" height="28" transform="rotate(0,1132,488)"/><path d="M 1146 474v 28h 28v -14a 14 14, 0, 0, 0, -14 -14" transform="rotate(0,1160,488)"/><path d="M 54 502v 28h 28v -14a 14 14, 0, 0, 0, -14 -14" transform="rotate(180,68,516)"/><path d="M 82 502v 28h 28v -14a 14 14, 0, 0, 0, -14 -14" transform="rotate(0,96,516)"/><path d="M 166 502v 28h 14a 14 14, 0, 0, 0, 0 -28" transform="rotate(90,180,516)"/><path d="M 334 502v 28h 28v -14a 14 14, 0, 0, 0, -14 -14" transform="rotate(180,348,516)"/><rect x="362" y="502" width="28" height="28" transform="rotate(0,376,516)"/><path d="M 390 502v 28h 28v -14a 14 14, 0, 0, 0, -14 -14" transform="rotate(90,404,516)"/><circle cx="544" cy="516" r="14" transform="rotate(0,544,516)"/><path d="M 614 502v 28h 28v -14a 14 14, 0, 0, 0, -14 -14" transform="rotate(180,628,516)"/><path d="M 642 502v 28h 14a 14 14, 0, 0, 0, 0 -28" transform="rotate(0,656,516)"/><rect x="698" y="502" width="28" height="28" transform="rotate(0,712,516)"/><path d="M 726 502v 28h 28v -14a 14 14, 0, 0, 0, -14 -14" transform="rotate(90,740,516)"/><circle cx="824" cy="516" r="14" transform="rotate(0,824,516)"/><rect x="922" y="502" width="28" height="28" transform="rotate(0,936,516)"/><path d="M 978 502v 28h 14a 14 14, 0, 0, 0, 0 -28" transform="rotate(90,992,516)"/><path d="M 1062 502v 28h 14a 14 14, 0, 0, 0, 0 -28" transform="rotate(-90,1076,516)"/><rect x="1118" y="502" width="28" height="28" transform="rotate(0,1132,516)"/><rect x="1146" y="502" width="28" height="28" transform="rotate(0,1160,516)"/><path d="M 26 530v 28h 14a 14 14, 0, 0, 0, 0 -28" transform="rotate(-90,40,544)"/><path d="M 82 530v 28h 14a 14 14, 0, 0, 0, 0 -28" transform="rotate(90,96,544)"/><path d="M 138 530v 28h 14a 14 14, 0, 0, 0, 0 -28" transform="rotate(-90,152,544)"/><circle cx="208" cy="544" r="14" transform="rotate(0,208,544)"/><path d="M 474 530v 28h 28v -14a 14 14, 0, 0, 0, -14 -14" transform="rotate(-90,488,544)"/><path d="M 502 530v 28h 28v -14a 14 14, 0, 0, 0, -14 -14" transform="rotate(0,516,544)"/><rect x="698" y="530" width="28" height="28" transform="rotate(0,712,544)"/><path d="M 754 530v 28h 14a 14 14, 0, 0, 0, 0 -28" transform="rotate(-90,768,544)"/><circle cx="852" cy="544" r="14" transform="rotate(0,852,544)"/><path d="M 922 530v 28h 14a 14 14, 0, 0, 0, 0 -28" transform="rotate(90,936,544)"/><path d="M 1034 530v 28h 14a 14 14, 0, 0, 0, 0 -28" transform="rotate(180,1048,544)"/><rect x="1062" y="530" width="28" height="28" transform="rotate(0,1076,544)"/><rect x="1090" y="530" width="28" height="28" transform="rotate(0,1104,544)"/><rect x="1118" y="530" width="28" height="28" transform="rotate(0,1132,544)"/><rect x="1146" y="530" width="28" height="28" transform="rotate(0,1160,544)"/><rect x="26" y="558" width="28" height="28" transform="rotate(0,40,572)"/><rect x="138" y="558" width="28" height="28" transform="rotate(0,152,572)"/><path d="M 222 558v 28h 14a 14 14, 0, 0, 0, 0 -28" transform="rotate(180,236,572)"/><path d="M 250 558v 28h 28v -14a 14 14, 0, 0, 0, -14 -14" transform="rotate(0,264,572)"/><path d="M 306 558v 28h 28v -14a 14 14, 0, 0, 0, -14 -14" transform="rotate(-90,320,572)"/><path d="M 334 558v 28h 14a 14 14, 0, 0, 0, 0 -28" transform="rotate(0,348,572)"/><path d="M 390 558v 28h 14a 14 14, 0, 0, 0, 0 -28" transform="rotate(180,404,572)"/><rect x="418" y="558" width="28" height="28" transform="rotate(0,432,572)"/><rect x="446" y="558" width="28" height="28" transform="rotate(0,460,572)"/><rect x="474" y="558" width="28" height="28" transform="rotate(0,488,572)"/><path d="M 502 558v 28h 28v -14a 14 14, 0, 0, 0, -14 -14" transform="rotate(90,516,572)"/><circle cx="572" cy="572" r="14" transform="rotate(0,572,572)"/><path d="M 614 558v 28h 28v -14a 14 14, 0, 0, 0, -14 -14" transform="rotate(-90,628,572)"/><rect x="642" y="558" width="28" height="28" transform="rotate(0,656,572)"/><rect x="670" y="558" width="28" height="28" transform="rotate(0,684,572)"/><rect x="698" y="558" width="28" height="28" transform="rotate(0,712,572)"/><rect x="726" y="558" width="28" height="28" transform="rotate(0,740,572)"/><rect x="754" y="558" width="28" height="28" transform="rotate(0,768,572)"/><rect x="782" y="558" width="28" height="28" transform="rotate(0,796,572)"/><path d="M 810 558v 28h 14a 14 14, 0, 0, 0, 0 -28" transform="rotate(0,824,572)"/><circle cx="1020" cy="572" r="14" transform="rotate(0,1020,572)"/><rect x="1118" y="558" width="28" height="28" transform="rotate(0,1132,572)"/><path d="M 1146 558v 28h 28v -14a 14 14, 0, 0, 0, -14 -14" transform="rotate(90,1160,572)"/><rect x="26" y="586" width="28" height="28" transform="rotate(0,40,600)"/><path d="M 82 586v 28h 14a 14 14, 0, 0, 0, 0 -28" transform="rotate(180,96,600)"/><rect x="110" y="586" width="28" height="28" transform="rotate(0,124,600)"/><rect x="138" y="586" width="28" height="28" transform="rotate(0,152,600)"/><circle cx="208" cy="600" r="14" transform="rotate(0,208,600)"/><path d="M 250 586v 28h 14a 14 14, 0, 0, 0, 0 -28" transform="rotate(90,264,600)"/><rect x="306" y="586" width="28" height="28" transform="rotate(0,320,600)"/><path d="M 362 586v 28h 14a 14 14, 0, 0, 0, 0 -28" transform="rotate(-90,376,600)"/><rect x="418" y="586" width="28" height="28" transform="rotate(0,432,600)"/><path d="M 474 586v 28h 14a 14 14, 0, 0, 0, 0 -28" transform="rotate(90,488,600)"/><path d="M 586 586v 28h 28v -14a 14 14, 0, 0, 0, -14 -14" transform="rotate(-90,600,600)"/><rect x="614" y="586" width="28" height="28" transform="rotate(0,628,600)"/><rect x="642" y="586" width="28" height="28" transform="rotate(0,656,600)"/><path d="M 670 586v 28h 28v -14a 14 14, 0, 0, 0, -14 -14" transform="rotate(90,684,600)"/><rect x="754" y="586" width="28" height="28" transform="rotate(0,768,600)"/><path d="M 782 586v 28h 28v -14a 14 14, 0, 0, 0, -14 -14" transform="rotate(90,796,600)"/><path d="M 922 586v 28h 28v -14a 14 14, 0, 0, 0, -14 -14" transform="rotate(-90,936,600)"/><rect x="950" y="586" width="28" height="28" transform="rotate(0,964,600)"/><path d="M 978 586v 28h 28v -14a 14 14, 0, 0, 0, -14 -14" transform="rotate(0,992,600)"/><rect x="1118" y="586" width="28" height="28" transform="rotate(0,1132,600)"/><rect x="26" y="614" width="28" height="28" transform="rotate(0,40,628)"/><path d="M 110 614v 28h 28v -14a 14 14, 0, 0, 0, -14 -14" transform="rotate(180,124,628)"/><rect x="138" y="614" width="28" height="28" transform="rotate(0,152,628)"/><path d="M 306 614v 28h 14a 14 14, 0, 0, 0, 0 -28" transform="rotate(90,320,628)"/><rect x="362" y="614" width="28" height="28" transform="rotate(0,376,628)"/><path d="M 418 614v 28h 28v -14a 14 14, 0, 0, 0, -14 -14" transform="rotate(180,432,628)"/><path d="M 446 614v 28h 14a 14 14, 0, 0, 0, 0 -28" transform="rotate(0,460,628)"/><path d="M 502 614v 28h 14a 14 14, 0, 0, 0, 0 -28" transform="rotate(180,516,628)"/><path d="M 530 614v 28h 14a 14 14, 0, 0, 0, 0 -28" transform="rotate(0,544,628)"/><rect x="586" y="614" width="28" height="28" transform="rotate(0,600,628)"/><path d="M 614 614v 28h 28v -14a 14 14, 0, 0, 0, -14 -14" transform="rotate(90,628,628)"/><path d="M 698 614v 28h 14a 14 14, 0, 0, 0, 0 -28" transform="rotate(180,712,628)"/><rect x="726" y="614" width="28" height="28" transform="rotate(0,740,628)"/><path d="M 754 614v 28h 28v -14a 14 14, 0, 0, 0, -14 -14" transform="rotate(90,768,628)"/><path d="M 810 614v 28h 14a 14 14, 0, 0, 0, 0 -28" transform="rotate(180,824,628)"/><path d="M 838 614v 28h 14a 14 14, 0, 0, 0, 0 -28" transform="rotate(0,852,628)"/><path d="M 922 614v 28h 28v -14a 14 14, 0, 0, 0, -14 -14" transform="rotate(180,936,628)"/><rect x="950" y="614" width="28" height="28" transform="rotate(0,964,628)"/><path d="M 978 614v 28h 28v -14a 14 14, 0, 0, 0, -14 -14" transform="rotate(90,992,628)"/><rect x="1118" y="614" width="28" height="28" transform="rotate(0,1132,628)"/><path d="M 1146 614v 28h 28v -14a 14 14, 0, 0, 0, -14 -14" transform="rotate(0,1160,628)"/><rect x="26" y="642" width="28" height="28" transform="rotate(0,40,656)"/><path d="M 54 642v 28h 28v -14a 14 14, 0, 0, 0, -14 -14" transform="rotate(0,68,656)"/><rect x="138" y="642" width="28" height="28" transform="rotate(0,152,656)"/><circle cx="208" cy="656" r="14" transform="rotate(0,208,656)"/><path d="M 250 642v 28h 14a 14 14, 0, 0, 0, 0 -28" transform="rotate(180,264,656)"/><path d="M 278 642v 28h 14a 14 14, 0, 0, 0, 0 -28" transform="rotate(0,292,656)"/><path d="M 362 642v 28h 28v -14a 14 14, 0, 0, 0, -14 -14" transform="rotate(180,376,656)"/><path d="M 390 642v 28h 28v -14a 14 14, 0, 0, 0, -14 -14" transform="rotate(0,404,656)"/><path d="M 474 642v 28h 14a 14 14, 0, 0, 0, 0 -28" transform="rotate(-90,488,656)"/><rect x="586" y="642" width="28" height="28" transform="rotate(0,600,656)"/><path d="M 642 642v 28h 14a 14 14, 0, 0, 0, 0 -28" transform="rotate(-90,656,656)"/><path d="M 950 642v 28h 14a 14 14, 0, 0, 0, 0 -28" transform="rotate(90,964,656)"/><circle cx="1076" cy="656" r="14" transform="rotate(0,1076,656)"/><path d="M 1118 642v 28h 28v -14a 14 14, 0, 0, 0, -14 -14" transform="rotate(180,1132,656)"/><path d="M 1146 642v 28h 28v -14a 14 14, 0, 0, 0, -14 -14" transform="rotate(90,1160,656)"/><rect x="26" y="670" width="28" height="28" transform="rotate(0,40,684)"/><rect x="54" y="670" width="28" height="28" transform="rotate(0,68,684)"/><rect x="82" y="670" width="28" height="28" transform="rotate(0,96,684)"/><rect x="110" y="670" width="28" height="28" transform="rotate(0,124,684)"/><rect x="138" y="670" width="28" height="28" transform="rotate(0,152,684)"/><path d="M 166 670v 28h 14a 14 14, 0, 0, 0, 0 -28" transform="rotate(0,180,684)"/><circle cx="348" cy="684" r="14" transform="rotate(0,348,684)"/><rect x="390" y="670" width="28" height="28" transform="rotate(0,404,684)"/><path d="M 446 670v 28h 28v -14a 14 14, 0, 0, 0, -14 -14" transform="rotate(-90,460,684)"/><path d="M 474 670v 28h 28v -14a 14 14, 0, 0, 0, -14 -14" transform="rotate(90,488,684)"/><path d="M 530 670v 28h 28v -14a 14 14, 0, 0, 0, -14 -14" transform="rotate(-90,544,684)"/><rect x="558" y="670" width="28" height="28" transform="rotate(0,572,684)"/><rect x="586" y="670" width="28" height="28" transform="rotate(0,600,684)"/><rect x="614" y="670" width="28" height="28" transform="rotate(0,628,684)"/><rect x="642" y="670" width="28" height="28" transform="rotate(0,656,684)"/><path d="M 698 670v 28h 14a 14 14, 0, 0, 0, 0 -28" transform="rotate(180,712,684)"/><rect x="726" y="670" width="28" height="28" transform="rotate(0,740,684)"/><rect x="754" y="670" width="28" height="28" transform="rotate(0,768,684)"/><path d="M 782 670v 28h 14a 14 14, 0, 0, 0, 0 -28" transform="rotate(0,796,684)"/><path d="M 838 670v 28h 28v -14a 14 14, 0, 0, 0, -14 -14" transform="rotate(-90,852,684)"/><path d="M 866 670v 28h 14a 14 14, 0, 0, 0, 0 -28" transform="rotate(0,880,684)"/><path d="M 978 670v 28h 28v -14a 14 14, 0, 0, 0, -14 -14" transform="rotate(-90,992,684)"/><path d="M 1006 670v 28h 14a 14 14, 0, 0, 0, 0 -28" transform="rotate(0,1020,684)"/><rect x="26" y="698" width="28" height="28" transform="rotate(0,40,712)"/><rect x="138" y="698" width="28" height="28" transform="rotate(0,152,712)"/><circle cx="208" cy="712" r="14" transform="rotate(0,208,712)"/><path d="M 250 698v 28h 28v -14a 14 14, 0, 0, 0, -14 -14" transform="rotate(-90,264,712)"/><rect x="278" y="698" width="28" height="28" transform="rotate(0,292,712)"/><path d="M 306 698v 28h 14a 14 14, 0, 0, 0, 0 -28" transform="rotate(0,320,712)"/><path d="M 362 698v 28h 28v -14a 14 14, 0, 0, 0, -14 -14" transform="rotate(-90,376,712)"/><path d="M 390 698v 28h 28v -14a 14 14, 0, 0, 0, -14 -14" transform="rotate(90,404,712)"/><rect x="446" y="698" width="28" height="28" transform="rotate(0,460,712)"/><path d="M 502 698v 28h 14a 14 14, 0, 0, 0, 0 -28" transform="rotate(180,516,712)"/><rect x="530" y="698" width="28" height="28" transform="rotate(0,544,712)"/><rect x="558" y="698" width="28" height="28" transform="rotate(0,572,712)"/><rect x="586" y="698" width="28" height="28" transform="rotate(0,600,712)"/><rect x="614" y="698" width="28" height="28" transform="rotate(0,628,712)"/><rect x="642" y="698" width="28" height="28" transform="rotate(0,656,712)"/><path d="M 670 698v 28h 14a 14 14, 0, 0, 0, 0 -28" transform="rotate(0,684,712)"/><path d="M 726 698v 28h 14a 14 14, 0, 0, 0, 0 -28" transform="rotate(90,740,712)"/><rect x="838" y="698" width="28" height="28" transform="rotate(0,852,712)"/><path d="M 922 698v 28h 14a 14 14, 0, 0, 0, 0 -28" transform="rotate(180,936,712)"/><rect x="950" y="698" width="28" height="28" transform="rotate(0,964,712)"/><rect x="978" y="698" width="28" height="28" transform="rotate(0,992,712)"/><circle cx="1076" cy="712" r="14" transform="rotate(0,1076,712)"/><path d="M 1118 698v 28h 14a 14 14, 0, 0, 0, 0 -28" transform="rotate(-90,1132,712)"/><path d="M 26 726v 28h 14a 14 14, 0, 0, 0, 0 -28" transform="rotate(90,40,740)"/><rect x="138" y="726" width="28" height="28" transform="rotate(0,152,740)"/><path d="M 166 726v 28h 28v -14a 14 14, 0, 0, 0, -14 -14" transform="rotate(0,180,740)"/><path d="M 250 726v 28h 14a 14 14, 0, 0, 0, 0 -28" transform="rotate(90,264,740)"/><path d="M 362 726v 28h 14a 14 14, 0, 0, 0, 0 -28" transform="rotate(90,376,740)"/><path d="M 418 726v 28h 28v -14a 14 14, 0, 0, 0, -14 -14" transform="rotate(-90,432,740)"/><path d="M 446 726v 28h 28v -14a 14 14, 0, 0, 0, -14 -14" transform="rotate(90,460,740)"/><rect x="530" y="726" width="28" height="28" transform="rotate(0,544,740)"/><path d="M 558 726v 28h 28v -14a 14 14, 0, 0, 0, -14 -14" transform="rotate(90,572,740)"/><rect x="614" y="726" width="28" height="28" transform="rotate(0,628,740)"/><path d="M 698 726v 28h 14a 14 14, 0, 0, 0, 0 -28" transform="rotate(-90,712,740)"/><path d="M 810 726v 28h 28v -14a 14 14, 0, 0, 0, -14 -14" transform="rotate(-90,824,740)"/><path d="M 838 726v 28h 28v -14a 14 14, 0, 0, 0, -14 -14" transform="rotate(90,852,740)"/><rect x="950" y="726" width="28" height="28" transform="rotate(0,964,740)"/><path d="M 978 726v 28h 28v -14a 14 14, 0, 0, 0, -14 -14" transform="rotate(90,992,740)"/><rect x="1118" y="726" width="28" height="28" transform="rotate(0,1132,740)"/><path d="M 1146 726v 28h 28v -14a 14 14, 0, 0, 0, -14 -14" transform="rotate(0,1160,740)"/><path d="M 54 754v 28h 28v -14a 14 14, 0, 0, 0, -14 -14" transform="rotate(-90,68,768)"/><path d="M 82 754v 28h 28v -14a 14 14, 0, 0, 0, -14 -14" transform="rotate(0,96,768)"/><path d="M 138 754v 28h 28v -14a 14 14, 0, 0, 0, -14 -14" transform="rotate(180,152,768)"/><rect x="166" y="754" width="28" height="28" transform="rotate(0,180,768)"/><rect x="194" y="754" width="28" height="28" transform="rotate(0,208,768)"/><path d="M 222 754v 28h 14a 14 14, 0, 0, 0, 0 -28" transform="rotate(0,236,768)"/><path d="M 334 754v 28h 14a 14 14, 0, 0, 0, 0 -28" transform="rotate(-90,348,768)"/><path d="M 390 754v 28h 14a 14 14, 0, 0, 0, 0 -28" transform="rotate(180,404,768)"/><rect x="418" y="754" width="28" height="28" transform="rotate(0,432,768)"/><rect x="530" y="754" width="28" height="28" transform="rotate(0,544,768)"/><path d="M 614 754v 28h 28v -14a 14 14, 0, 0, 0, -14 -14" transform="rotate(180,628,768)"/><path d="M 642 754v 28h 28v -14a 14 14, 0, 0, 0, -14 -14" transform="rotate(0,656,768)"/><rect x="698" y="754" width="28" height="28" transform="rotate(0,712,768)"/><rect x="810" y="754" width="28" height="28" transform="rotate(0,824,768)"/><rect x="950" y="754" width="28" height="28" transform="rotate(0,964,768)"/><path d="M 1006 754v 28h 14a 14 14, 0, 0, 0, 0 -28" transform="rotate(180,1020,768)"/><path d="M 1034 754v 28h 28v -14a 14 14, 0, 0, 0, -14 -14" transform="rotate(0,1048,768)"/><path d="M 1090 754v 28h 14a 14 14, 0, 0, 0, 0 -28" transform="rotate(180,1104,768)"/><rect x="1118" y="754" width="28" height="28" transform="rotate(0,1132,768)"/><rect x="1146" y="754" width="28" height="28" transform="rotate(0,1160,768)"/><path d="M 26 782v 28h 14a 14 14, 0, 0, 0, 0 -28" transform="rotate(180,40,796)"/><rect x="54" y="782" width="28" height="28" transform="rotate(0,68,796)"/><path d="M 82 782v 28h 28v -14a 14 14, 0, 0, 0, -14 -14" transform="rotate(90,96,796)"/><circle cx="292" cy="796" r="14" transform="rotate(0,292,796)"/><rect x="334" y="782" width="28" height="28" transform="rotate(0,348,796)"/><path d="M 362 782v 28h 14a 14 14, 0, 0, 0, 0 -28" transform="rotate(0,376,796)"/><rect x="418" y="782" width="28" height="28" transform="rotate(0,432,796)"/><path d="M 446 782v 28h 14a 14 14, 0, 0, 0, 0 -28" transform="rotate(0,460,796)"/><path d="M 530 782v 28h 14a 14 14, 0, 0, 0, 0 -28" transform="rotate(90,544,796)"/><rect x="642" y="782" width="28" height="28" transform="rotate(0,656,796)"/><rect x="670" y="782" width="28" height="28" transform="rotate(0,684,796)"/><rect x="698" y="782" width="28" height="28" transform="rotate(0,712,796)"/><rect x="726" y="782" width="28" height="28" transform="rotate(0,740,796)"/><rect x="754" y="782" width="28" height="28" transform="rotate(0,768,796)"/><rect x="782" y="782" width="28" height="28" transform="rotate(0,796,796)"/><rect x="810" y="782" width="28" height="28" transform="rotate(0,824,796)"/><path d="M 838 782v 28h 28v -14a 14 14, 0, 0, 0, -14 -14" transform="rotate(0,852,796)"/><path d="M 922 782v 28h 14a 14 14, 0, 0, 0, 0 -28" transform="rotate(180,936,796)"/><rect x="950" y="782" width="28" height="28" transform="rotate(0,964,796)"/><path d="M 978 782v 28h 14a 14 14, 0, 0, 0, 0 -28" transform="rotate(0,992,796)"/><path d="M 1034 782v 28h 14a 14 14, 0, 0, 0, 0 -28" transform="rotate(90,1048,796)"/><rect x="1118" y="782" width="28" height="28" transform="rotate(0,1132,796)"/><rect x="1146" y="782" width="28" height="28" transform="rotate(0,1160,796)"/><rect x="54" y="810" width="28" height="28" transform="rotate(0,68,824)"/><path d="M 138 810v 28h 14a 14 14, 0, 0, 0, 0 -28" transform="rotate(180,152,824)"/><rect x="166" y="810" width="28" height="28" transform="rotate(0,180,824)"/><rect x="194" y="810" width="28" height="28" transform="rotate(0,208,824)"/><path d="M 222 810v 28h 14a 14 14, 0, 0, 0, 0 -28" transform="rotate(0,236,824)"/><path d="M 334 810v 28h 14a 14 14, 0, 0, 0, 0 -28" transform="rotate(90,348,824)"/><rect x="418" y="810" width="28" height="28" transform="rotate(0,432,824)"/><circle cx="516" cy="824" r="14" transform="rotate(0,516,824)"/><circle cx="600" cy="824" r="14" transform="rotate(0,600,824)"/><rect x="642" y="810" width="28" height="28" transform="rotate(0,656,824)"/><rect x="670" y="810" width="28" height="28" transform="rotate(0,684,824)"/><path d="M 726 810v 28h 14a 14 14, 0, 0, 0, 0 -28" transform="rotate(90,740,824)"/><rect x="810" y="810" width="28" height="28" transform="rotate(0,824,824)"/><path d="M 838 810v 28h 28v -14a 14 14, 0, 0, 0, -14 -14" transform="rotate(90,852,824)"/><path d="M 894 810v 28h 14a 14 14, 0, 0, 0, 0 -28" transform="rotate(-90,908,824)"/><rect x="950" y="810" width="28" height="28" transform="rotate(0,964,824)"/><circle cx="1076" cy="824" r="14" transform="rotate(0,1076,824)"/><path d="M 1118 810v 28h 28v -14a 14 14, 0, 0, 0, -14 -14" transform="rotate(180,1132,824)"/><rect x="1146" y="810" width="28" height="28" transform="rotate(0,1160,824)"/><path d="M 54 838v 28h 28v -14a 14 14, 0, 0, 0, -14 -14" transform="rotate(180,68,852)"/><rect x="82" y="838" width="28" height="28" transform="rotate(0,96,852)"/><path d="M 110 838v 28h 14a 14 14, 0, 0, 0, 0 -28" transform="rotate(0,124,852)"/><circle cx="264" cy="852" r="14" transform="rotate(0,264,852)"/><path d="M 362 838v 28h 28v -14a 14 14, 0, 0, 0, -14 -14" transform="rotate(-90,376,852)"/><rect x="390" y="838" width="28" height="28" transform="rotate(0,404,852)"/><path d="M 418 838v 28h 28v -14a 14 14, 0, 0, 0, -14 -14" transform="rotate(90,432,852)"/><path d="M 474 838v 28h 14a 14 14, 0, 0, 0, 0 -28" transform="rotate(-90,488,852)"/><circle cx="572" cy="852" r="14" transform="rotate(0,572,852)"/><rect x="642" y="838" width="28" height="28" transform="rotate(0,656,852)"/><path d="M 670 838v 28h 28v -14a 14 14, 0, 0, 0, -14 -14" transform="rotate(90,684,852)"/><path d="M 782 838v 28h 28v -14a 14 14, 0, 0, 0, -14 -14" transform="rotate(-90,796,852)"/><rect x="810" y="838" width="28" height="28" transform="rotate(0,824,852)"/><path d="M 894 838v 28h 14a 14 14, 0, 0, 0, 0 -28" transform="rotate(90,908,852)"/><path d="M 950 838v 28h 14a 14 14, 0, 0, 0, 0 -28" transform="rotate(90,964,852)"/><path d="M 1006 838v 28h 14a 14 14, 0, 0, 0, 0 -28" transform="rotate(-90,1020,852)"/><circle cx="1104" cy="852" r="14" transform="rotate(0,1104,852)"/><rect x="1146" y="838" width="28" height="28" transform="rotate(0,1160,852)"/><circle cx="40" cy="880" r="14" transform="rotate(0,40,880)"/><path d="M 82 866v 28h 14a 14 14, 0, 0, 0, 0 -28" transform="rotate(90,96,880)"/><path d="M 138 866v 28h 14a 14 14, 0, 0, 0, 0 -28" transform="rotate(-90,152,880)"/><path d="M 194 866v 28h 14a 14 14, 0, 0, 0, 0 -28" transform="rotate(180,208,880)"/><path d="M 222 866v 28h 28v -14a 14 14, 0, 0, 0, -14 -14" transform="rotate(0,236,880)"/><path d="M 278 866v 28h 14a 14 14, 0, 0, 0, 0 -28" transform="rotate(-90,292,880)"/><path d="M 334 866v 28h 14a 14 14, 0, 0, 0, 0 -28" transform="rotate(180,348,880)"/><rect x="362" y="866" width="28" height="28" transform="rotate(0,376,880)"/><path d="M 390 866v 28h 28v -14a 14 14, 0, 0, 0, -14 -14" transform="rotate(90,404,880)"/><path d="M 446 866v 28h 28v -14a 14 14, 0, 0, 0, -14 -14" transform="rotate(-90,460,880)"/><rect x="474" y="866" width="28" height="28" transform="rotate(0,488,880)"/><rect x="502" y="866" width="28" height="28" transform="rotate(0,516,880)"/><path d="M 530 866v 28h 14a 14 14, 0, 0, 0, 0 -28" transform="rotate(0,544,880)"/><path d="M 642 866v 28h 14a 14 14, 0, 0, 0, 0 -28" transform="rotate(90,656,880)"/><path d="M 726 866v 28h 14a 14 14, 0, 0, 0, 0 -28" transform="rotate(-90,740,880)"/><path d="M 782 866v 28h 28v -14a 14 14, 0, 0, 0, -14 -14" transform="rotate(180,796,880)"/><rect x="810" y="866" width="28" height="28" transform="rotate(0,824,880)"/><path d="M 1006 866v 28h 28v -14a 14 14, 0, 0, 0, -14 -14" transform="rotate(180,1020,880)"/><rect x="1034" y="866" width="28" height="28" transform="rotate(0,1048,880)"/><path d="M 1062 866v 28h 14a 14 14, 0, 0, 0, 0 -28" transform="rotate(0,1076,880)"/><path d="M 1118 866v 28h 28v -14a 14 14, 0, 0, 0, -14 -14" transform="rotate(-90,1132,880)"/><rect x="1146" y="866" width="28" height="28" transform="rotate(0,1160,880)"/><circle cx="68" cy="908" r="14" transform="rotate(0,68,908)"/><path d="M 110 894v 28h 14a 14 14, 0, 0, 0, 0 -28" transform="rotate(180,124,908)"/><path d="M 138 894v 28h 28v -14a 14 14, 0, 0, 0, -14 -14" transform="rotate(90,152,908)"/><path d="M 222 894v 28h 14a 14 14, 0, 0, 0, 0 -28" transform="rotate(90,236,908)"/><path d="M 278 894v 28h 28v -14a 14 14, 0, 0, 0, -14 -14" transform="rotate(180,292,908)"/><path d="M 306 894v 28h 14a 14 14, 0, 0, 0, 0 -28" transform="rotate(0,320,908)"/><path d="M 418 894v 28h 28v -14a 14 14, 0, 0, 0, -14 -14" transform="rotate(-90,432,908)"/><path d="M 446 894v 28h 28v -14a 14 14, 0, 0, 0, -14 -14" transform="rotate(90,460,908)"/><path d="M 502 894v 28h 14a 14 14, 0, 0, 0, 0 -28" transform="rotate(90,516,908)"/><path d="M 614 894v 28h 14a 14 14, 0, 0, 0, 0 -28" transform="rotate(-90,628,908)"/><circle cx="684" cy="908" r="14" transform="rotate(0,684,908)"/><rect x="726" y="894" width="28" height="28" transform="rotate(0,740,908)"/><rect x="810" y="894" width="28" height="28" transform="rotate(0,824,908)"/><rect x="838" y="894" width="28" height="28" transform="rotate(0,852,908)"/><rect x="866" y="894" width="28" height="28" transform="rotate(0,880,908)"/><path d="M 894 894v 28h 14a 14 14, 0, 0, 0, 0 -28" transform="rotate(0,908,908)"/><path d="M 950 894v 28h 28v -14a 14 14, 0, 0, 0, -14 -14" transform="rotate(-90,964,908)"/><path d="M 978 894v 28h 28v -14a 14 14, 0, 0, 0, -14 -14" transform="rotate(0,992,908)"/><rect x="1034" y="894" width="28" height="28" transform="rotate(0,1048,908)"/><path d="M 1118 894v 28h 28v -14a 14 14, 0, 0, 0, -14 -14" transform="rotate(180,1132,908)"/><rect x="1146" y="894" width="28" height="28" transform="rotate(0,1160,908)"/><circle cx="40" cy="936" r="14" transform="rotate(0,40,936)"/><path d="M 166 922v 28h 14a 14 14, 0, 0, 0, 0 -28" transform="rotate(180,180,936)"/><path d="M 194 922v 28h 14a 14 14, 0, 0, 0, 0 -28" transform="rotate(0,208,936)"/><circle cx="348" cy="936" r="14" transform="rotate(0,348,936)"/><rect x="418" y="922" width="28" height="28" transform="rotate(0,432,936)"/><circle cx="544" cy="936" r="14" transform="rotate(0,544,936)"/><path d="M 614 922v 28h 28v -14a 14 14, 0, 0, 0, -14 -14" transform="rotate(180,628,936)"/><path d="M 642 922v 28h 14a 14 14, 0, 0, 0, 0 -28" transform="rotate(0,656,936)"/><path d="M 698 922v 28h 28v -14a 14 14, 0, 0, 0, -14 -14" transform="rotate(-90,712,936)"/><path d="M 726 922v 28h 28v -14a 14 14, 0, 0, 0, -14 -14" transform="rotate(90,740,936)"/><path d="M 782 922v 28h 14a 14 14, 0, 0, 0, 0 -28" transform="rotate(180,796,936)"/><rect x="810" y="922" width="28" height="28" transform="rotate(0,824,936)"/><rect x="838" y="922" width="28" height="28" transform="rotate(0,852,936)"/><rect x="866" y="922" width="28" height="28" transform="rotate(0,880,936)"/><path d="M 922 922v 28h 28v -14a 14 14, 0, 0, 0, -14 -14" transform="rotate(-90,936,936)"/><rect x="950" y="922" width="28" height="28" transform="rotate(0,964,936)"/><rect x="978" y="922" width="28" height="28" transform="rotate(0,992,936)"/><rect x="1006" y="922" width="28" height="28" transform="rotate(0,1020,936)"/><rect x="1034" y="922" width="28" height="28" transform="rotate(0,1048,936)"/><rect x="1146" y="922" width="28" height="28" transform="rotate(0,1160,936)"/><path d="M 250 950v 28h 14a 14 14, 0, 0, 0, 0 -28" transform="rotate(-90,264,964)"/><path d="M 306 950v 28h 14a 14 14, 0, 0, 0, 0 -28" transform="rotate(-90,320,964)"/><path d="M 362 950v 28h 14a 14 14, 0, 0, 0, 0 -28" transform="rotate(180,376,964)"/><rect x="390" y="950" width="28" height="28" transform="rotate(0,404,964)"/><rect x="418" y="950" width="28" height="28" transform="rotate(0,432,964)"/><path d="M 446 950v 28h 14a 14 14, 0, 0, 0, 0 -28" transform="rotate(0,460,964)"/><circle cx="516" cy="964" r="14" transform="rotate(0,516,964)"/><circle cx="600" cy="964" r="14" transform="rotate(0,600,964)"/><path d="M 698 950v 28h 14a 14 14, 0, 0, 0, 0 -28" transform="rotate(90,712,964)"/><circle cx="768" cy="964" r="14" transform="rotate(0,768,964)"/><path d="M 838 950v 28h 28v -14a 14 14, 0, 0, 0, -14 -14" transform="rotate(180,852,964)"/><rect x="866" y="950" width="28" height="28" transform="rotate(0,880,964)"/><rect x="894" y="950" width="28" height="28" transform="rotate(0,908,964)"/><rect x="922" y="950" width="28" height="28" transform="rotate(0,936,964)"/><rect x="1034" y="950" width="28" height="28" transform="rotate(0,1048,964)"/><path d="M 1090 950v 28h 28v -14a 14 14, 0, 0, 0, -14 -14" transform="rotate(-90,1104,964)"/><rect x="1118" y="950" width="28" height="28" transform="rotate(0,1132,964)"/><rect x="1146" y="950" width="28" height="28" transform="rotate(0,1160,964)"/><path d="M 250 978v 28h 28v -14a 14 14, 0, 0, 0, -14 -14" transform="rotate(180,264,992)"/><rect x="278" y="978" width="28" height="28" transform="rotate(0,292,992)"/><rect x="306" y="978" width="28" height="28" transform="rotate(0,320,992)"/><path d="M 334 978v 28h 14a 14 14, 0, 0, 0, 0 -28" transform="rotate(0,348,992)"/><rect x="390" y="978" width="28" height="28" transform="rotate(0,404,992)"/><circle cx="488" cy="992" r="14" transform="rotate(0,488,992)"/><path d="M 530 978v 28h 14a 14 14, 0, 0, 0, 0 -28" transform="rotate(-90,544,992)"/><circle cx="656" cy="992" r="14" transform="rotate(0,656,992)"/><circle cx="740" cy="992" r="14" transform="rotate(0,740,992)"/><path d="M 810 978v 28h 14a 14 14, 0, 0, 0, 0 -28" transform="rotate(-90,824,992)"/><rect x="866" y="978" width="28" height="28" transform="rotate(0,880,992)"/><rect x="894" y="978" width="28" height="28" transform="rotate(0,908,992)"/><rect x="922" y="978" width="28" height="28" transform="rotate(0,936,992)"/><circle cx="992" cy="992" r="14" transform="rotate(0,992,992)"/><rect x="1034" y="978" width="28" height="28" transform="rotate(0,1048,992)"/><path d="M 1090 978v 28h 14a 14 14, 0, 0, 0, 0 -28" transform="rotate(90,1104,992)"/><path d="M 1146 978v 28h 14a 14 14, 0, 0, 0, 0 -28" transform="rotate(90,1160,992)"/><path d="M 306 1006v 28h 14a 14 14, 0, 0, 0, 0 -28" transform="rotate(90,320,1020)"/><rect x="390" y="1006" width="28" height="28" transform="rotate(0,404,1020)"/><path d="M 530 1006v 28h 28v -14a 14 14, 0, 0, 0, -14 -14" transform="rotate(180,544,1020)"/><path d="M 558 1006v 28h 28v -14a 14 14, 0, 0, 0, -14 -14" transform="rotate(0,572,1020)"/><circle cx="628" cy="1020" r="14" transform="rotate(0,628,1020)"/><path d="M 670 1006v 28h 14a 14 14, 0, 0, 0, 0 -28" transform="rotate(-90,684,1020)"/><rect x="810" y="1006" width="28" height="28" transform="rotate(0,824,1020)"/><rect x="838" y="1006" width="28" height="28" transform="rotate(0,852,1020)"/><rect x="866" y="1006" width="28" height="28" transform="rotate(0,880,1020)"/><rect x="922" y="1006" width="28" height="28" transform="rotate(0,936,1020)"/><rect x="1034" y="1006" width="28" height="28" transform="rotate(0,1048,1020)"/><path d="M 1062 1006v 28h 14a 14 14, 0, 0, 0, 0 -28" transform="rotate(0,1076,1020)"/><circle cx="264" cy="1048" r="14" transform="rotate(0,264,1048)"/><path d="M 362 1034v 28h 28v -14a 14 14, 0, 0, 0, -14 -14" transform="rotate(-90,376,1048)"/><rect x="390" y="1034" width="28" height="28" transform="rotate(0,404,1048)"/><rect x="418" y="1034" width="28" height="28" transform="rotate(0,432,1048)"/><path d="M 446 1034v 28h 28v -14a 14 14, 0, 0, 0, -14 -14" transform="rotate(0,460,1048)"/><path d="M 502 1034v 28h 14a 14 14, 0, 0, 0, 0 -28" transform="rotate(-90,516,1048)"/><rect x="558" y="1034" width="28" height="28" transform="rotate(0,572,1048)"/><path d="M 586 1034v 28h 14a 14 14, 0, 0, 0, 0 -28" transform="rotate(0,600,1048)"/><path d="M 670 1034v 28h 28v -14a 14 14, 0, 0, 0, -14 -14" transform="rotate(180,684,1048)"/><path d="M 698 1034v 28h 28v -14a 14 14, 0, 0, 0, -14 -14" transform="rotate(0,712,1048)"/><rect x="810" y="1034" width="28" height="28" transform="rotate(0,824,1048)"/><rect x="866" y="1034" width="28" height="28" transform="rotate(0,880,1048)"/><path d="M 922 1034v 28h 28v -14a 14 14, 0, 0, 0, -14 -14" transform="rotate(180,936,1048)"/><rect x="950" y="1034" width="28" height="28" transform="rotate(0,964,1048)"/><rect x="978" y="1034" width="28" height="28" transform="rotate(0,992,1048)"/><rect x="1006" y="1034" width="28" height="28" transform="rotate(0,1020,1048)"/><rect x="1034" y="1034" width="28" height="28" transform="rotate(0,1048,1048)"/><circle cx="292" cy="1076" r="14" transform="rotate(0,292,1076)"/><path d="M 334 1062v 28h 28v -14a 14 14, 0, 0, 0, -14 -14" transform="rotate(-90,348,1076)"/><rect x="362" y="1062" width="28" height="28" transform="rotate(0,376,1076)"/><path d="M 446 1062v 28h 28v -14a 14 14, 0, 0, 0, -14 -14" transform="rotate(180,460,1076)"/><rect x="474" y="1062" width="28" height="28" transform="rotate(0,488,1076)"/><rect x="502" y="1062" width="28" height="28" transform="rotate(0,516,1076)"/><rect x="530" y="1062" width="28" height="28" transform="rotate(0,544,1076)"/><path d="M 558 1062v 28h 28v -14a 14 14, 0, 0, 0, -14 -14" transform="rotate(90,572,1076)"/><path d="M 698 1062v 28h 28v -14a 14 14, 0, 0, 0, -14 -14" transform="rotate(180,712,1076)"/><path d="M 726 1062v 28h 28v -14a 14 14, 0, 0, 0, -14 -14" transform="rotate(0,740,1076)"/><path d="M 810 1062v 28h 14a 14 14, 0, 0, 0, 0 -28" transform="rotate(90,824,1076)"/><path d="M 866 1062v 28h 14a 14 14, 0, 0, 0, 0 -28" transform="rotate(90,880,1076)"/><path d="M 950 1062v 28h 14a 14 14, 0, 0, 0, 0 -28" transform="rotate(90,964,1076)"/><rect x="1034" y="1062" width="28" height="28" transform="rotate(0,1048,1076)"/><path d="M 1146 1062v 28h 14a 14 14, 0, 0, 0, 0 -28" transform="rotate(-90,1160,1076)"/><path d="M 250 1090v 28h 14a 14 14, 0, 0, 0, 0 -28" transform="rotate(-90,264,1104)"/><rect x="334" y="1090" width="28" height="28" transform="rotate(0,348,1104)"/><rect x="362" y="1090" width="28" height="28" transform="rotate(0,376,1104)"/><path d="M 474 1090v 28h 14a 14 14, 0, 0, 0, 0 -28" transform="rotate(90,488,1104)"/><path d="M 530 1090v 28h 14a 14 14, 0, 0, 0, 0 -28" transform="rotate(90,544,1104)"/><rect x="726" y="1090" width="28" height="28" transform="rotate(0,740,1104)"/><circle cx="908" cy="1104" r="14" transform="rotate(0,908,1104)"/><path d="M 1006 1090v 28h 28v -14a 14 14, 0, 0, 0, -14 -14" transform="rotate(-90,1020,1104)"/><rect x="1034" y="1090" width="28" height="28" transform="rotate(0,1048,1104)"/><rect x="1062" y="1090" width="28" height="28" transform="rotate(0,1076,1104)"/><path d="M 1090 1090v 28h 14a 14 14, 0, 0, 0, 0 -28" transform="rotate(0,1104,1104)"/><path d="M 1146 1090v 28h 14a 14 14, 0, 0, 0, 0 -28" transform="rotate(90,1160,1104)"/><path d="M 250 1118v 28h 14a 14 14, 0, 0, 0, 0 -28" transform="rotate(90,264,1132)"/><path d="M 334 1118v 28h 28v -14a 14 14, 0, 0, 0, -14 -14" transform="rotate(180,348,1132)"/><rect x="362" y="1118" width="28" height="28" transform="rotate(0,376,1132)"/><rect x="390" y="1118" width="28" height="28" transform="rotate(0,404,1132)"/><rect x="418" y="1118" width="28" height="28" transform="rotate(0,432,1132)"/><path d="M 446 1118v 28h 28v -14a 14 14, 0, 0, 0, -14 -14" transform="rotate(0,460,1132)"/><path d="M 670 1118v 28h 28v -14a 14 14, 0, 0, 0, -14 -14" transform="rotate(-90,684,1132)"/><rect x="698" y="1118" width="28" height="28" transform="rotate(0,712,1132)"/><rect x="726" y="1118" width="28" height="28" transform="rotate(0,740,1132)"/><path d="M 838 1118v 28h 14a 14 14, 0, 0, 0, 0 -28" transform="rotate(-90,852,1132)"/><path d="M 922 1118v 28h 14a 14 14, 0, 0, 0, 0 -28" transform="rotate(-90,936,1132)"/><path d="M 978 1118v 28h 14a 14 14, 0, 0, 0, 0 -28" transform="rotate(180,992,1132)"/><rect x="1006" y="1118" width="28" height="28" transform="rotate(0,1020,1132)"/><path d="M 1118 1118v 28h 14a 14 14, 0, 0, 0, 0 -28" transform="rotate(-90,1132,1132)"/><circle cx="292" cy="1160" r="14" transform="rotate(0,292,1160)"/><path d="M 390 1146v 28h 28v -14a 14 14, 0, 0, 0, -14 -14" transform="rotate(180,404,1160)"/><rect x="418" y="1146" width="28" height="28" transform="rotate(0,432,1160)"/><path d="M 446 1146v 28h 28v -14a 14 14, 0, 0, 0, -14 -14" transform="rotate(90,460,1160)"/><circle cx="516" cy="1160" r="14" transform="rotate(0,516,1160)"/><path d="M 586 1146v 28h 14a 14 14, 0, 0, 0, 0 -28" transform="rotate(180,600,1160)"/><rect x="614" y="1146" width="28" height="28" transform="rotate(0,628,1160)"/><rect x="642" y="1146" width="28" height="28" transform="rotate(0,656,1160)"/><rect x="670" y="1146" width="28" height="28" transform="rotate(0,684,1160)"/><rect x="698" y="1146" width="28" height="28" transform="rotate(0,712,1160)"/><path d="M 726 1146v 28h 28v -14a 14 14, 0, 0, 0, -14 -14" transform="rotate(90,740,1160)"/><path d="M 838 1146v 28h 14a 14 14, 0, 0, 0, 0 -28" transform="rotate(90,852,1160)"/><path d="M 894 1146v 28h 14a 14 14, 0, 0, 0, 0 -28" transform="rotate(180,908,1160)"/><path d="M 922 1146v 28h 28v -14a 14 14, 0, 0, 0, -14 -14" transform="rotate(90,936,1160)"/><path d="M 1006 1146v 28h 28v -14a 14 14, 0, 0, 0, -14 -14" transform="rotate(180,1020,1160)"/><rect x="1034" y="1146" width="28" height="28" transform="rotate(0,1048,1160)"/><path d="M 1062 1146v 28h 14a 14 14, 0, 0, 0, 0 -28" transform="rotate(0,1076,1160)"/><path d="M 1118 1146v 28h 28v -14a 14 14, 0, 0, 0, -14 -14" transform="rotate(180,1132,1160)"/><path d="M 1146 1146v 28h 14a 14 14, 0, 0, 0, 0 -28" transform="rotate(0,1160,1160)"/></clipPath><clipPath id="clip-path-corners-square-color-0-0-463"><path clip-rule="evenodd" d="M 26 96v 56a 70 70, 0, 0, 0, 70 70h 56a 70 70, 0, 0, 0, 70 -70v -56a 70 70, 0, 0, 0, -70 -70h -56a 70 70, 0, 0, 0, -70 70M 96 54h 56a 42 42, 0, 0, 1, 42 42v 56a 42 42, 0, 0, 1, -42 42h -56a 42 42, 0, 0, 1, -42 -42v -56a 42 42, 0, 0, 1, 42 -42" transform="rotate(0,124,124)"/></clipPath><clipPath id="clip-path-corners-dot-color-0-0-463"><circle cx="124" cy="124" r="42" transform="rotate(0,124,124)"/></clipPath><clipPath id="clip-path-corners-square-color-1-0-463"><path clip-rule="evenodd" d="M 978 96v 56a 70 70, 0, 0, 0, 70 70h 56a 70 70, 0, 0, 0, 70 -70v -56a 70 70, 0, 0, 0, -70 -70h -56a 70 70, 0, 0, 0, -70 70M 1048 54h 56a 42 42, 0, 0, 1, 42 42v 56a 42 42, 0, 0, 1, -42 42h -56a 42 42, 0, 0, 1, -42 -42v -56a 42 42, 0, 0, 1, 42 -42" transform="rotate(90,1076,124)"/></clipPath><clipPath id="clip-path-corners-dot-color-1-0-463"><circle cx="1076" cy="124" r="42" transform="rotate(90,1076,124)"/></clipPath><clipPath id="clip-path-corners-square-color-0-1-463"><path clip-rule="evenodd" d="M 26 1048v 56a 70 70, 0, 0, 0, 70 70h 56a 70 70, 0, 0, 0, 70 -70v -56a 70 70, 0, 0, 0, -70 -70h -56a 70 70, 0, 0, 0, -70 70M 96 1006h 56a 42 42, 0, 0, 1, 42 42v 56a 42 42, 0, 0, 1, -42 42h -56a 42 42, 0, 0, 1, -42 -42v -56a 42 42, 0, 0, 1, 42 -42" transform="rotate(-90,124,1076)"/></clipPath><clipPath id="clip-path-corners-dot-color-0-1-463"><circle cx="124" cy="1076" r="42" transform="rotate(-90,124,1076)"/></clipPath></defs><rect x="0" y="0" height="1200" width="1200" clip-path="url('#clip-path-background-color-463')" fill="#ffffff"/><rect x="0" y="0" height="1200" width="1200" clip-path="url('#clip-path-dot-color-463')" fill="#000000"/><rect x="26" y="26" height="196" width="196" clip-path="url('#clip-path-corners-square-color-0-0-463')" fill="#000000"/><rect x="82" y="82" height="84" width="84" clip-path="url('#clip-path-corners-dot-color-0-0-463')" fill="#000000"/><rect x="978" y="26" height="196" width="196" clip-path="url('#clip-path-corners-square-color-1-0-463')" fill="#000000"/><rect x="1034" y="82" height="84" width="84" clip-path="url('#clip-path-corners-dot-color-1-0-463')" fill="#000000"/><rect x="26" y="978" height="196" width="196" clip-path="url('#clip-path-corners-square-color-0-1-463')" fill="#000000"/><rect x="82" y="1034" height="84" width="84" clip-path="url('#clip-path-corners-dot-color-0-1-463')" fill="#000000"/></svg>