<?xml version="1.0" standalone="no"?>
<svg xmlns="http://www.w3.org/2000/svg" width="1200" height="1200" xmlns:xlink="http://www.w3.org/1999/xlink" viewBox="0 0 1200 1200"><defs><clipPath id="clip-path-background-color-466"><rect x="0" y="0" width="1200" height="1200"/></clipPath><clipPath id="clip-path-dot-color-466"><path d="M 250 26v 28h 14a 14 14, 0, 0, 0, 0 -28" transform="rotate(180,264,40)"/><path d="M 278 26v 28h 28v -14a 14 14, 0, 0, 0, -14 -14" transform="rotate(0,292,40)"/><circle cx="348" cy="40" r="14" transform="rotate(0,348,40)"/><path d="M 446 26v 28h 28v -14a 14 14, 0, 0, 0, -14 -14" transform="rotate(-90,460,40)"/><rect x="474" y="26" width="28" height="28" transform="rotate(0,488,40)"/><path d="M 502 26v 28h 14a 14 14, 0, 0, 0, 0 -28" transform="rotate(0,516,40)"/><circle cx="600" cy="40" r="14" transform="rotate(0,600,40)"/><path d="M 726 26v 28h 14a 14 14, 0, 0, 0, 0 -28" transform="rotate(-90,740,40)"/><path d="M 782 26v 28h 14a 14 14, 0, 0, 0, 0 -28" transform="rotate(-90,796,40)"/><circle cx="908" cy="40" r="14" transform="rotate(0,908,40)"/><path d="M 278 54v 28h 28v -14a 14 14, 0, 0, 0, -14 -14" transform="rotate(180,292,68)"/><path d="M 306 54v 28h 28v -14a 14 14, 0, 0, 0, -14 -14" transform="rotate(0,320,68)"/><circle cx="404" cy="68" r="14" transform="rotate(0,404,68)"/><path d="M 446 54v 28h 28v -14a 14 14, 0, 0, 0, -14 -14" transform="rotate(180,460,68)"/><rect x="474" y="54" width="28" height="28" transform="rotate(0,488,68)"/><path d="M 614 54v 28h 14a 14 14, 0, 0, 0, 0 -28" transform="rotate(180,628,68)"/><rect x="642" y="54" width="28" height="28" transform="rotate(0,656,68)"/><rect x="670" y="54" width="28" height="28" transform="rotate(0,684,68)"/><rect x="698" y="54" width="28" height="28" transform="rotate(0,712,68)"/><rect x="726" y="54" width="28" height="28" transform="rotate(0,740,68)"/><rect x="754" y="54" width="28" height="28" transform="rotate(0,768,68)"/><path d="M 782 54v 28h 28v -14a 14 14, 0, 0, 0, -14 -14" transform="rotate(90,796,68)"/><path d="M 838 54v 28h 14a 14 14, 0, 0, 0, 0 -28" transform="rotate(-90,852,68)"/><circle cx="936" cy="68" r="14" transform="rotate(0,936,68)"/><path d="M 250 82v 28h 14a 14 14, 0, 0, 0, 0 -28" transform="rotate(-90,264,96)"/><rect x="306" y="82" width="28" height="28" transform="rotate(0,320,96)"/><path d="M 334 82v 28h 28v -14a 14 14, 0, 0, 0, -14 -14" transform="rotate(0,348,96)"/><circle cx="432" cy="96" r="14" transform="rotate(0,432,96)"/><path d="M 474 82v 28h 28v -14a 14 14, 0, 0, 0, -14 -14" transform="rotate(180,488,96)"/><path d="M 502 82v 28h 14a 14 14, 0, 0, 0, 0 -28" transform="rotate(0,516,96)"/><path d="M 558 82v 28h 14a 14 14, 0, 0, 0, 0 -28" transform="rotate(-90,572,96)"/><path d="M 642 82v 28h 28v -14a 14 14, 0, 0, 0, -14 -14" transform="rotate(180,656,96)"/><rect x="670" y="82" width="28" height="28" transform="rotate(0,684,96)"/><rect x="698" y="82" width="28" height="28" transform="rotate(0,712,96)"/><rect x="726" y="82" width="28" height="28" transform="rotate(0,740,96)"/><path d="M 810 82v 28h 14a 14 14, 0, 0, 0, 0 -28" transform="rotate(180,824,96)"/><rect x="838" y="82" width="28" height="28" transform="rotate(0,852,96)"/><path d="M 250 110v 28h 14a 14 14, 0, 0, 0, 0 -28" transform="rotate(90,264,124)"/><path d="M 306 110v 28h 28v -14a 14 14, 0, 0, 0, -14 -14" transform="rotate(180,320,124)"/><path d="M 334 110v 28h 28v -14a 14 14, 0, 0, 0, -14 -14" transform="rotate(90,348,124)"/><circle cx="404" cy="124" r="14" transform="rotate(0,404,124)"/><rect x="558" y="110" width="28" height="28" transform="rotate(0,572,124)"/><path d="M 614 110v 28h 14a 14 14, 0, 0, 0, 0 -28" transform="rotate(-90,628,124)"/><path d="M 698 110v 28h 28v -14a 14 14, 0, 0, 0, -14 -14" transform="rotate(180,712,124)"/><rect x="726" y="110" width="28" height="28" transform="rotate(0,740,124)"/><path d="M 754 110v 28h 28v -14a 14 14, 0, 0, 0, -14 -14" transform="rotate(0,768,124)"/><path d="M 838 110v 28h 14a 14 14, 0, 0, 0, 0 -28" transform="rotate(90,852,124)"/><path d="M 894 110v 28h 14a 14 14, 0, 0, 0, 0 -28" transform="rotate(180,908,124)"/><path d="M 922 110v 28h 14a 14 14, 0, 0, 0, 0 -28" transform="rotate(0,936,124)"/><path d="M 278 138v 28h 14a 14 14, 0, 0, 0, 0 -28" transform="rotate(-90,292,152)"/><circle cx="376" cy="152" r="14" transform="rotate(0,376,152)"/><path d="M 418 138v 28h 14a 14 14, 0, 0, 0, 0 -28" transform="rotate(180,432,152)"/><rect x="446" y="138" width="28" height="28" transform="rotate(0,460,152)"/><rect x="474" y="138" width="28" height="28" transform="rotate(0,488,152)"/><path d="M 502 138v 28h 14a 14 14, 0, 0, 0, 0 -28" transform="rotate(0,516,152)"/><path d="M 558 138v 28h 28v -14a 14 14, 0, 0, 0, -14 -14" transform="rotate(180,572,152)"/><rect x="586" y="138" width="28" height="28" transform="rotate(0,600,152)"/><rect x="614" y="138" width="28" height="28" transform="rotate(0,628,152)"/><circle cx="684" cy="152" r="14" transform="rotate(0,684,152)"/><path d="M 726 138v 28h 28v -14a 14 14, 0, 0, 0, -14 -14" transform="rotate(180,740,152)"/><rect x="754" y="138" width="28" height="28" transform="rotate(0,768,152)"/><rect x="782" y="138" width="28" height="28" transform="rotate(0,796,152)"/><path d="M 810 138v 28h 14a 14 14, 0, 0, 0, 0 -28" transform="rotate(0,824,152)"/><path d="M 250 166v 28h 28v -14a 14 14, 0, 0, 0, -14 -14" transform="rotate(-90,264,180)"/><path d="M 278 166v 28h 28v -14a 14 14, 0, 0, 0, -14 -14" transform="rotate(90,292,180)"/><circle cx="348" cy="180" r="14" transform="rotate(0,348,180)"/><path d="M 446 166v 28h 14a 14 14, 0, 0, 0, 0 -28" transform="rotate(90,460,180)"/><rect x="586" y="166" width="28" height="28" transform="rotate(0,600,180)"/><rect x="614" y="166" width="28" height="28" transform="rotate(0,628,180)"/><path d="M 642 166v 28h 28v -14a 14 14, 0, 0, 0, -14 -14" transform="rotate(0,656,180)"/><rect x="754" y="166" width="28" height="28" transform="rotate(0,768,180)"/><path d="M 782 166v 28h 28v -14a 14 14, 0, 0, 0, -14 -14" transform="rotate(90,796,180)"/><circle cx="852" cy="180" r="14" transform="rotate(0,852,180)"/><circle cx="908" cy="180" r="14" transform="rotate(0,908,180)"/><rect x="250" y="194" width="28" height="28" transform="rotate(0,264,208)"/><path d="M 306 194v 28h 14a 14 14, 0, 0, 0, 0 -28" transform="rotate(-90,320,208)"/><path d="M 362 194v 28h 14a 14 14, 0, 0, 0, 0 -28" transform="rotate(-90,376,208)"/><circle cx="432" cy="208" r="14" transform="rotate(0,432,208)"/><path d="M 474 194v 28h 14a 14 14, 0, 0, 0, 0 -28" transform="rotate(-90,488,208)"/><circle cx="544" cy="208" r="14" transform="rotate(0,544,208)"/><rect x="586" y="194" width="28" height="28" transform="rotate(0,600,208)"/><path d="M 642 194v 28h 14a 14 14, 0, 0, 0, 0 -28" transform="rotate(90,656,208)"/><path d="M 698 194v 28h 14a 14 14, 0, 0, 0, 0 -28" transform="rotate(-90,712,208)"/><path d="M 754 194v 28h 14a 14 14, 0, 0, 0, 0 -28" transform="rotate(90,768,208)"/><path d="M 810 194v 28h 14a 14 14, 0, 0, 0, 0 -28" transform="rotate(-90,824,208)"/><path d="M 866 194v 28h 14a 14 14, 0, 0, 0, 0 -28" transform="rotate(-90,880,208)"/><path d="M 922 194v 28h 14a 14 14, 0, 0, 0, 0 -28" transform="rotate(-90,936,208)"/><rect x="250" y="222" width="28" height="28" transform="rotate(0,264,236)"/><path d="M 306 222v 28h 28v -14a 14 14, 0, 0, 0, -14 -14" transform="rotate(180,320,236)"/><rect x="334" y="222" width="28" height="28" transform="rotate(0,348,236)"/><rect x="362" y="222" width="28" height="28" transform="rotate(0,376,236)"/><rect x="474" y="222" width="28" height="28" transform="rotate(0,488,236)"/><path d="M 502 222v 28h 14a 14 14, 0, 0, 0, 0 -28" transform="rotate(0,516,236)"/><path d="M 558 222v 28h 28v -14a 14 14, 0, 0, 0, -14 -14" transform="rotate(-90,572,236)"/><path d="M 586 222v 28h 28v -14a 14 14, 0, 0, 0, -14 -14" transform="rotate(90,600,236)"/><rect x="698" y="222" width="28" height="28" transform="rotate(0,712,236)"/><path d="M 810 222v 28h 28v -14a 14 14, 0, 0, 0, -14 -14" transform="rotate(180,824,236)"/><rect x="838" y="222" width="28" height="28" transform="rotate(0,852,236)"/><path d="M 866 222v 28h 28v -14a 14 14, 0, 0, 0, -14 -14" transform="rotate(90,880,236)"/><path d="M 922 222v 28h 14a 14 14, 0, 0, 0, 0 -28" transform="rotate(90,936,236)"/><path d="M 54 250v 28h 14a 14 14, 0, 0, 0, 0 -28" transform="rotate(-90,68,264)"/><path d="M 110 250v 28h 14a 14 14, 0, 0, 0, 0 -28" transform="rotate(-90,124,264)"/><path d="M 166 250v 28h 28v -14a 14 14, 0, 0, 0, -14 -14" transform="rotate(-90,180,264)"/><rect x="194" y="250" width="28" height="28" transform="rotate(0,208,264)"/><rect x="222" y="250" width="28" height="28" transform="rotate(0,236,264)"/><path d="M 250 250v 28h 28v -14a 14 14, 0, 0, 0, -14 -14" transform="rotate(90,264,264)"/><path d="M 334 250v 28h 28v -14a 14 14, 0, 0, 0, -14 -14" transform="rotate(180,348,264)"/><rect x="362" y="250" width="28" height="28" transform="rotate(0,376,264)"/><path d="M 390 250v 28h 28v -14a 14 14, 0, 0, 0, -14 -14" transform="rotate(0,404,264)"/><path d="M 446 250v 28h 14a 14 14, 0, 0, 0, 0 -28" transform="rotate(180,460,264)"/><path d="M 474 250v 28h 28v -14a 14 14, 0, 0, 0, -14 -14" transform="rotate(90,488,264)"/><path d="M 558 250v 28h 14a 14 14, 0, 0, 0, 0 -28" transform="rotate(90,572,264)"/><circle cx="656" cy="264" r="14" transform="rotate(0,656,264)"/><rect x="698" y="250" width="28" height="28" transform="rotate(0,712,264)"/><rect x="726" y="250" width="28" height="28" transform="rotate(0,740,264)"/><path d="M 754 250v 28h 14a 14 14, 0, 0, 0, 0 -28" transform="rotate(0,768,264)"/><path d="M 950 250v 28h 28v -14a 14 14, 0, 0, 0, -14 -14" transform="rotate(-90,964,264)"/><rect x="978" y="250" width="28" height="28" transform="rotate(0,992,264)"/><path d="M 1006 250v 28h 14a 14 14, 0, 0, 0, 0 -28" transform="rotate(0,1020,264)"/><path d="M 1062 250v 28h 28v -14a 14 14, 0, 0, 0, -14 -14" transform="rotate(-90,1076,264)"/><path d="M 1090 250v 28h 28v -14a 14 14, 0, 0, 0, -14 -14" transform="rotate(0,1104,264)"/><path d="M 1146 250v 28h 14a 14 14, 0, 0, 0, 0 -28" transform="rotate(-90,1160,264)"/><path d="M 54 278v 28h 28v -14a 14 14, 0, 0, 0, -14 -14" transform="rotate(180,68,292)"/><rect x="82" y="278" width="28" height="28" transform="rotate(0,96,292)"/><rect x="110" y="278" width="28" height="28" transform="rotate(0,124,292)"/><rect x="138" y="278" width="28" height="28" transform="rotate(0,152,292)"/><rect x="166" y="278" width="28" height="28" transform="rotate(0,180,292)"/><path d="M 222 278v 28h 14a 14 14, 0, 0, 0, 0 -28" transform="rotate(90,236,292)"/><circle cx="320" cy="292" r="14" transform="rotate(0,320,292)"/><path d="M 362 278v 28h 28v -14a 14 14, 0, 0, 0, -14 -14" transform="rotate(180,376,292)"/><rect x="390" y="278" width="28" height="28" transform="rotate(0,404,292)"/><path d="M 418 278v 28h 14a 14 14, 0, 0, 0, 0 -28" transform="rotate(0,432,292)"/><circle cx="516" cy="292" r="14" transform="rotate(0,516,292)"/><circle cx="600" cy="292" r="14" transform="rotate(0,600,292)"/><path d="M 670 278v 28h 14a 14 14, 0, 0, 0, 0 -28" transform="rotate(180,684,292)"/><rect x="698" y="278" width="28" height="28" transform="rotate(0,712,292)"/><rect x="726" y="278" width="28" height="28" transform="rotate(0,740,292)"/><path d="M 810 278v 28h 28v -14a 14 14, 0, 0, 0, -14 -14" transform="rotate(-90,824,292)"/><rect x="838" y="278" width="28" height="28" transform="rotate(0,852,292)"/><path d="M 866 278v 28h 28v -14a 14 14, 0, 0, 0, -14 -14" transform="rotate(0,880,292)"/><path d="M 922 278v 28h 14a 14 14, 0, 0, 0, 0 -28" transform="rotate(180,936,292)"/><rect x="950" y="278" width="28" height="28" transform="rotate(0,964,292)"/><path d="M 978 278v 28h 28v -14a 14 14, 0, 0, 0, -14 -14" transform="rotate(90,992,292)"/><rect x="1062" y="278" width="28" height="28" transform="rotate(0,1076,292)"/><rect x="1090" y="278" width="28" height="28" transform="rotate(0,1104,292)"/><rect x="1118" y="278" width="28" height="28" transform="rotate(0,1132,292)"/><path d="M 1146 278v 28h 28v -14a 14 14, 0, 0, 0, -14 -14" transform="rotate(90,1160,292)"/><rect x="82" y="306" width="28" height="28" transform="rotate(0,96,320)"/><path d="M 166 306v 28h 28v -14a 14 14, 0, 0, 0, -14 -14" transform="rotate(180,180,320)"/><path d="M 194 306v 28h 14a 14 14, 0, 0, 0, 0 -28" transform="rotate(0,208,320)"/><path d="M 250 306v 28h 14a 14 14, 0, 0, 0, 0 -28" transform="rotate(-90,264,320)"/><rect x="390" y="306" width="28" height="28" transform="rotate(0,404,320)"/><path d="M 530 306v 28h 14a 14 14, 0, 0, 0, 0 -28" transform="rotate(-90,544,320)"/><rect x="726" y="306" width="28" height="28" transform="rotate(0,740,320)"/><rect x="810" y="306" width="28" height="28" transform="rotate(0,824,320)"/><rect x="838" y="306" width="28" height="28" transform="rotate(0,852,320)"/><rect x="866" y="306" width="28" height="28" transform="rotate(0,880,320)"/><path d="M 894 306v 28h 14a 14 14, 0, 0, 0, 0 -28" transform="rotate(0,908,320)"/><circle cx="1020" cy="320" r="14" transform="rotate(0,1020,320)"/><path d="M 1062 306v 28h 28v -14a 14 14, 0, 0, 0, -14 -14" transform="rotate(180,1076,320)"/><rect x="1090" y="306" width="28" height="28" transform="rotate(0,1104,320)"/><rect x="1118" y="306" width="28" height="28" transform="rotate(0,1132,320)"/><path d="M 54 334v 28h 14a 14 14, 0, 0, 0, 0 -28" transform="rotate(180,68,348)"/><rect x="82" y="334" width="28" height="28" transform="rotate(0,96,348)"/><path d="M 110 334v 28h 14a 14 14, 0, 0, 0, 0 -28" transform="rotate(0,124,348)"/><rect x="250" y="334" width="28" height="28" transform="rotate(0,264,348)"/><path d="M 306 334v 28h 14a 14 14, 0, 0, 0, 0 -28" transform="rotate(-90,320,348)"/><path d="M 362 334v 28h 28v -14a 14 14, 0, 0, 0, -14 -14" transform="rotate(-90,376,348)"/><rect x="390" y="334" width="28" height="28" transform="rotate(0,404,348)"/><rect x="418" y="334" width="28" height="28" transform="rotate(0,432,348)"/><rect x="446" y="334" width="28" height="28" transform="rotate(0,460,348)"/><path d="M 474 334v 28h 14a 14 14, 0, 0, 0, 0 -28" transform="rotate(0,488,348)"/><rect x="530" y="334" width="28" height="28" transform="rotate(0,544,348)"/><rect x="558" y="334" width="28" height="28" transform="rotate(0,572,348)"/><path d="M 586 334v 28h 28v -14a 14 14, 0, 0, 0, -14 -14" transform="rotate(0,600,348)"/><path d="M 642 334v 28h 14a 14 14, 0, 0, 0, 0 -28" transform="rotate(-90,656,348)"/><path d="M 698 334v 28h 28v -14a 14 14, 0, 0, 0, -14 -14" transform="rotate(-90,712,348)"/><rect x="726" y="334" width="28" height="28" transform="rotate(0,740,348)"/><rect x="754" y="334" width="28" height="28" transform="rotate(0,768,348)"/><rect x="782" y="334" width="28" height="28" transform="rotate(0,796,348)"/><path d="M 810 334v 28h 28v -14a 14 14, 0, 0, 0, -14 -14" transform="rotate(90,824,348)"/><path d="M 978 334v 28h 14a 14 14, 0, 0, 0, 0 -28" transform="rotate(-90,992,348)"/><circle cx="1048" cy="348" r="14" transform="rotate(0,1048,348)"/><path d="M 1090 334v 28h 28v -14a 14 14, 0, 0, 0, -14 -14" transform="rotate(180,1104,348)"/><rect x="1118" y="334" width="28" height="28" transform="rotate(0,1132,348)"/><path d="M 1146 334v 28h 28v -14a 14 14, 0, 0, 0, -14 -14" transform="rotate(0,1160,348)"/><path d="M 26 362v 28h 14a 14 14, 0, 0, 0, 0 -28" transform="rotate(-90,40,376)"/><path d="M 166 362v 28h 14a 14 14, 0, 0, 0, 0 -28" transform="rotate(180,180,376)"/><path d="M 194 362v 28h 14a 14 14, 0, 0, 0, 0 -28" transform="rotate(0,208,376)"/><path d="M 250 362v 28h 14a 14 14, 0, 0, 0, 0 -28" transform="rotate(90,264,376)"/><path d="M 306 362v 28h 28v -14a 14 14, 0, 0, 0, -14 -14" transform="rotate(180,320,376)"/><rect x="334" y="362" width="28" height="28" transform="rotate(0,348,376)"/><rect x="362" y="362" width="28" height="28" transform="rotate(0,376,376)"/><rect x="390" y="362" width="28" height="28" transform="rotate(0,404,376)"/><rect x="418" y="362" width="28" height="28" transform="rotate(0,432,376)"/><rect x="446" y="362" width="28" height="28" transform="rotate(0,460,376)"/><rect x="530" y="362" width="28" height="28" transform="rotate(0,544,376)"/><rect x="558" y="362" width="28" height="28" transform="rotate(0,572,376)"/><path d="M 586 362v 28h 28v -14a 14 14, 0, 0, 0, -14 -14" transform="rotate(90,600,376)"/><path d="M 642 362v 28h 14a 14 14, 0, 0, 0, 0 -28" transform="rotate(90,656,376)"/><rect x="698" y="362" width="28" height="28" transform="rotate(0,712,376)"/><rect x="726" y="362" width="28" height="28" transform="rotate(0,740,376)"/><path d="M 754 362v 28h 28v -14a 14 14, 0, 0, 0, -14 -14" transform="rotate(90,768,376)"/><path d="M 838 362v 28h 14a 14 14, 0, 0, 0, 0 -28" transform="rotate(-90,852,376)"/><path d="M 894 362v 28h 14a 14 14, 0, 0, 0, 0 -28" transform="rotate(180,908,376)"/><path d="M 922 362v 28h 28v -14a 14 14, 0, 0, 0, -14 -14" transform="rotate(0,936,376)"/><rect x="978" y="362" width="28" height="28" transform="rotate(0,992,376)"/><circle cx="1076" cy="376" r="14" transform="rotate(0,1076,376)"/><path d="M 1146 362v 28h 14a 14 14, 0, 0, 0, 0 -28" transform="rotate(90,1160,376)"/><path d="M 26 390v 28h 28v -14a 14 14, 0, 0, 0, -14 -14" transform="rotate(180,40,404)"/><rect x="54" y="390" width="28" height="28" transform="rotate(0,68,404)"/><path d="M 82 390v 28h 28v -14a 14 14, 0, 0, 0, -14 -14" transform="rotate(0,96,404)"/><path d="M 138 390v 28h 14a 14 14, 0, 0, 0, 0 -28" transform="rotate(-90,152,404)"/><path d="M 278 390v 28h 14a 14 14, 0, 0, 0, 0 -28" transform="rotate(-90,292,404)"/><rect x="362" y="390" width="28" height="28" transform="rotate(0,376,404)"/><rect x="390" y="390" width="28" height="28" transform="rotate(0,404,404)"/><rect x="418" y="390" width="28" height="28" transform="rotate(0,432,404)"/><path d="M 446 390v 28h 28v -14a 14 14, 0, 0, 0, -14 -14" transform="rotate(90,460,404)"/><path d="M 502 390v 28h 28v -14a 14 14, 0, 0, 0, -14 -14" transform="rotate(-90,516,404)"/><rect x="530" y="390" width="28" height="28" transform="rotate(0,544,404)"/><path d="M 614 390v 28h 14a 14 14, 0, 0, 0, 0 -28" transform="rotate(-90,628,404)"/><path d="M 670 390v 28h 14a 14 14, 0, 0, 0, 0 -28" transform="rotate(180,684,404)"/><rect x="698" y="390" width="28" height="28" transform="rotate(0,712,404)"/><path d="M 782 390v 28h 14a 14 14, 0, 0, 0, 0 -28" transform="rotate(180,796,404)"/><rect x="810" y="390" width="28" height="28" transform="rotate(0,824,404)"/><rect x="838" y="390" width="28" height="28" transform="rotate(0,852,404)"/><path d="M 866 390v 28h 14a 14 14, 0, 0, 0, 0 -28" transform="rotate(0,880,404)"/><path d="M 922 390v 28h 28v -14a 14 14, 0, 0, 0, -14 -14" transform="rotate(180,936,404)"/><rect x="950" y="390" width="28" height="28" transform="rotate(0,964,404)"/><rect x="978" y="390" width="28" height="28" transform="rotate(0,992,404)"/><path d="M 1118 390v 28h 14a 14 14, 0, 0, 0, 0 -28" transform="rotate(-90,1132,404)"/><rect x="54" y="418" width="28" height="28" transform="rotate(0,68,432)"/><path d="M 82 418v 28h 28v -14a 14 14, 0, 0, 0, -14 -14" transform="rotate(90,96,432)"/><path d="M 138 418v 28h 28v -14a 14 14, 0, 0, 0, -14 -14" transform="rotate(180,152,432)"/><rect x="166" y="418" width="28" height="28" transform="rotate(0,180,432)"/><path d="M 194 418v 28h 14a 14 14, 0, 0, 0, 0 -28" transform="rotate(0,208,432)"/><path d="M 250 418v 28h 14a 14 14, 0, 0, 0, 0 -28" transform="rotate(180,264,432)"/><rect x="278" y="418" width="28" height="28" transform="rotate(0,292,432)"/><rect x="306" y="418" width="28" height="28" transform="rotate(0,320,432)"/><rect x="334" y="418" width="28" height="28" transform="rotate(0,348,432)"/><rect x="362" y="418" width="28" height="28" transform="rotate(0,376,432)"/><rect x="390" y="418" width="28" height="28" transform="rotate(0,404,432)"/><path d="M 474 418v 28h 28v -14a 14 14, 0, 0, 0, -14 -14" transform="rotate(-90,488,432)"/><rect x="502" y="418" width="28" height="28" transform="rotate(0,516,432)"/><path d="M 530 418v 28h 28v -14a 14 14, 0, 0, 0, -14 -14" transform="rotate(90,544,432)"/><path d="M 614 418v 28h 28v -14a 14 14, 0, 0, 0, -14 -14" transform="rotate(180,628,432)"/><path d="M 642 418v 28h 28v -14a 14 14, 0, 0, 0, -14 -14" transform="rotate(0,656,432)"/><rect x="698" y="418" width="28" height="28" transform="rotate(0,712,432)"/><circle cx="768" cy="432" r="14" transform="rotate(0,768,432)"/><rect x="838" y="418" width="28" height="28" transform="rotate(0,852,432)"/><circle cx="908" cy="432" r="14" transform="rotate(0,908,432)"/><rect x="978" y="418" width="28" height="28" transform="rotate(0,992,432)"/><path d="M 1062 418v 28h 14a 14 14, 0, 0, 0, 0 -28" transform="rotate(180,1076,432)"/><rect x="1090" y="418" width="28" height="28" transform="rotate(0,1104,432)"/><rect x="1118" y="418" width="28" height="28" transform="rotate(0,1132,432)"/><path d="M 1146 418v 28h 14a 14 14, 0, 0, 0, 0 -28" transform="rotate(0,1160,432)"/><path d="M 54 446v 28h 14a 14 14, 0, 0, 0, 0 -28" transform="rotate(90,68,460)"/><rect x="166" y="446" width="28" height="28" transform="rotate(0,180,460)"/><circle cx="236" cy="460" r="14" transform="rotate(0,236,460)"/><rect x="278" y="446" width="28" height="28" transform="rotate(0,292,460)"/><rect x="390" y="446" width="28" height="28" transform="rotate(0,404,460)"/><rect x="418" y="446" width="28" height="28" transform="rotate(0,432,460)"/><rect x="446" y="446" width="28" height="28" transform="rotate(0,460,460)"/><rect x="474" y="446" width="28" height="28" transform="rotate(0,488,460)"/><path d="M 642 446v 28h 14a 14 14, 0, 0, 0, 0 -28" transform="rotate(90,656,460)"/><rect x="698" y="446" width="28" height="28" transform="rotate(0,712,460)"/><path d="M 726 446v 28h 14a 14 14, 0, 0, 0, 0 -28" transform="rotate(0,740,460)"/><circle cx="796" cy="460" r="14" transform="rotate(0,796,460)"/><rect x="838" y="446" width="28" height="28" transform="rotate(0,852,460)"/><path d="M 922 446v 28h 14a 14 14, 0, 0, 0, 0 -28" transform="rotate(-90,936,460)"/><path d="M 978 446v 28h 14a 14 14, 0, 0, 0, 0 -28" transform="rotate(90,992,460)"/><circle cx="1048" cy="460" r="14" transform="rotate(0,1048,460)"/><rect x="1118" y="446" width="28" height="28" transform="rotate(0,1132,460)"/><path d="M 110 474v 28h 14a 14 14, 0, 0, 0, 0 -28" transform="rotate(180,124,488)"/><rect x="138" y="474" width="28" height="28" transform="rotate(0,152,488)"/><rect x="166" y="474" width="28" height="28" transform="rotate(0,180,488)"/><path d="M 194 474v 28h 14a 14 14, 0, 0, 0, 0 -28" transform="rotate(0,208,488)"/><path d="M 250 474v 28h 28v -14a 14 14, 0, 0, 0, -14 -14" transform="rotate(-90,264,488)"/><path d="M 278 474v 28h 28v -14a 14 14, 0, 0, 0, -14 -14" transform="rotate(90,292,488)"/><path d="M 334 474v 28h 14a 14 14, 0, 0, 0, 0 -28" transform="rotate(-90,348,488)"/><rect x="390" y="474" width="28" height="28" transform="rotate(0,404,488)"/><rect x="418" y="474" width="28" height="28" transform="rotate(0,432,488)"/><rect x="446" y="474" width="28" height="28" transform="rotate(0,460,488)"/><rect x="474" y="474" width="28" height="28" transform="rotate(0,488,488)"/><path d="M 558 474v 28h 14a 14 14, 0, 0, 0, 0 -28" transform="rotate(180,572,488)"/><path d="M 586 474v 28h 14a 14 14, 0, 0, 0, 0 -28" transform="rotate(0,600,488)"/><path d="M 670 474v 28h 28v -14a 14 14, 0, 0, 0, -14 -14" transform="rotate(-90,684,488)"/><rect x="698" y="474" width="28" height="28" transform="rotate(0,712,488)"/><rect x="838" y="474" width="28" height="28" transform="rotate(0,852,488)"/><path d="M 866 474v 28h 14a 14 14, 0, 0, 0, 0 -28" transform="rotate(0,880,488)"/><path d="M 922 474v 28h 14a 14 14, 0, 0, 0, 0 -28" transform="rotate(90,936,488)"/><path d="M 1006 474v 28h 14a 14 14, 0, 0, 0, 0 -28" transform="rotate(-90,1020,488)"/><path d="M 1062 474v 28h 14a 14 14, 0, 0, 0, 0 -28" transform="rotate(-90,1076,488)"/><rect x="1118" y="474" width="28" height="28" transform="rotate(0,1132,488)"/><circle cx="68" cy="516" r="14" transform="rotate(0,68,516)"/><path d="M 250 502v 28h 14a 14 14, 0, 0, 0, 0 -28" transform="rotate(90,264,516)"/><rect x="334" y="502" width="28" height="28" transform="rotate(0,348,516)"/><rect x="390" y="502" width="28" height="28" transform="rotate(0,404,516)"/><rect x="474" y="502" width="28" height="28" transform="rotate(0,488,516)"/><rect x="502" y="502" width="28" height="28" transform="rotate(0,516,516)"/><path d="M 530 502v 28h 28v -14a 14 14, 0, 0, 0, -14 -14" transform="rotate(0,544,516)"/><path d="M 642 502v 28h 14a 14 14, 0, 0, 0, 0 -28" transform="rotate(180,656,516)"/><rect x="670" y="502" width="28" height="28" transform="rotate(0,684,516)"/><rect x="698" y="502" width="28" height="28" transform="rotate(0,712,516)"/><path d="M 726 502v 28h 14a 14 14, 0, 0, 0, 0 -28" transform="rotate(0,740,516)"/><path d="M 810 502v 28h 28v -14a 14 14, 0, 0, 0, -14 -14" transform="rotate(-90,824,516)"/><rect x="838" y="502" width="28" height="28" transform="rotate(0,852,516)"/><path d="M 978 502v 28h 14a 14 14, 0, 0, 0, 0 -28" transform="rotate(180,992,516)"/><path d="M 1006 502v 28h 28v -14a 14 14, 0, 0, 0, -14 -14" transform="rotate(90,1020,516)"/><rect x="1062" y="502" width="28" height="28" transform="rotate(0,1076,516)"/><rect x="1090" y="502" width="28" height="28" transform="rotate(0,1104,516)"/><rect x="1118" y="502" width="28" height="28" transform="rotate(0,1132,516)"/><path d="M 1146 502v 28h 28v -14a 14 14, 0, 0, 0, -14 -14" transform="rotate(0,1160,516)"/><path d="M 26 530v 28h 14a 14 14, 0, 0, 0, 0 -28" transform="rotate(-90,40,544)"/><circle cx="96" cy="544" r="14" transform="rotate(0,96,544)"/><circle cx="152" cy="544" r="14" transform="rotate(0,152,544)"/><circle cx="208" cy="544" r="14" transform="rotate(0,208,544)"/><path d="M 306 530v 28h 28v -14a 14 14, 0, 0, 0, -14 -14" transform="rotate(-90,320,544)"/><rect x="334" y="530" width="28" height="28" transform="rotate(0,348,544)"/><path d="M 390 530v 28h 28v -14a 14 14, 0, 0, 0, -14 -14" transform="rotate(180,404,544)"/><rect x="418" y="530" width="28" height="28" transform="rotate(0,432,544)"/><rect x="446" y="530" width="28" height="28" transform="rotate(0,460,544)"/><rect x="474" y="530" width="28" height="28" transform="rotate(0,488,544)"/><rect x="502" y="530" width="28" height="28" transform="rotate(0,516,544)"/><path d="M 530 530v 28h 28v -14a 14 14, 0, 0, 0, -14 -14" transform="rotate(90,544,544)"/><path d="M 698 530v 28h 14a 14 14, 0, 0, 0, 0 -28" transform="rotate(90,712,544)"/><path d="M 754 530v 28h 14a 14 14, 0, 0, 0, 0 -28" transform="rotate(-90,768,544)"/><rect x="810" y="530" width="28" height="28" transform="rotate(0,824,544)"/><path d="M 838 530v 28h 28v -14a 14 14, 0, 0, 0, -14 -14" transform="rotate(90,852,544)"/><circle cx="936" cy="544" r="14" transform="rotate(0,936,544)"/><path d="M 1034 530v 28h 14a 14 14, 0, 0, 0, 0 -28" transform="rotate(180,1048,544)"/><rect x="1062" y="530" width="28" height="28" transform="rotate(0,1076,544)"/><rect x="1090" y="530" width="28" height="28" transform="rotate(0,1104,544)"/><rect x="1118" y="530" width="28" height="28" transform="rotate(0,1132,544)"/><path d="M 1146 530v 28h 28v -14a 14 14, 0, 0, 0, -14 -14" transform="rotate(90,1160,544)"/><rect x="26" y="558" width="28" height="28" transform="rotate(0,40,572)"/><path d="M 54 558v 28h 14a 14 14, 0, 0, 0, 0 -28" transform="rotate(0,68,572)"/><path d="M 250 558v 28h 14a 14 14, 0, 0, 0, 0 -28" transform="rotate(-90,264,572)"/><path d="M 306 558v 28h 28v -14a 14 14, 0, 0, 0, -14 -14" transform="rotate(180,320,572)"/><rect x="334" y="558" width="28" height="28" transform="rotate(0,348,572)"/><path d="M 362 558v 28h 28v -14a 14 14, 0, 0, 0, -14 -14" transform="rotate(0,376,572)"/><rect x="446" y="558" width="28" height="28" transform="rotate(0,460,572)"/><path d="M 558 558v 28h 14a 14 14, 0, 0, 0, 0 -28" transform="rotate(-90,572,572)"/><path d="M 642 558v 28h 14a 14 14, 0, 0, 0, 0 -28" transform="rotate(-90,656,572)"/><path d="M 754 558v 28h 14a 14 14, 0, 0, 0, 0 -28" transform="rotate(90,768,572)"/><path d="M 810 558v 28h 14a 14 14, 0, 0, 0, 0 -28" transform="rotate(90,824,572)"/><circle cx="908" cy="572" r="14" transform="rotate(0,908,572)"/><path d="M 978 558v 28h 28v -14a 14 14, 0, 0, 0, -14 -14" transform="rotate(-90,992,572)"/><path d="M 1006 558v 28h 14a 14 14, 0, 0, 0, 0 -28" transform="rotate(0,1020,572)"/><path d="M 1062 558v 28h 14a 14 14, 0, 0, 0, 0 -28" transform="rotate(90,1076,572)"/><rect x="1118" y="558" width="28" height="28" transform="rotate(0,1132,572)"/><rect x="26" y="586" width="28" height="28" transform="rotate(0,40,600)"/><path d="M 138 586v 28h 28v -14a 14 14, 0, 0, 0, -14 -14" transform="rotate(-90,152,600)"/><rect x="166" y="586" width="28" height="28" transform="rotate(0,180,600)"/><path d="M 194 586v 28h 14a 14 14, 0, 0, 0, 0 -28" transform="rotate(0,208,600)"/><rect x="250" y="586" width="28" height="28" transform="rotate(0,264,600)"/><rect x="362" y="586" width="28" height="28" transform="rotate(0,376,600)"/><path d="M 390 586v 28h 14a 14 14, 0, 0, 0, 0 -28" transform="rotate(0,404,600)"/><rect x="446" y="586" width="28" height="28" transform="rotate(0,460,600)"/><rect x="474" y="586" width="28" height="28" transform="rotate(0,488,600)"/><rect x="502" y="586" width="28" height="28" transform="rotate(0,516,600)"/><rect x="530" y="586" width="28" height="28" transform="rotate(0,544,600)"/><path d="M 558 586v 28h 28v -14a 14 14, 0, 0, 0, -14 -14" transform="rotate(90,572,600)"/><path d="M 614 586v 28h 28v -14a 14 14, 0, 0, 0, -14 -14" transform="rotate(-90,628,600)"/><rect x="642" y="586" width="28" height="28" transform="rotate(0,656,600)"/><path d="M 670 586v 28h 14a 14 14, 0, 0, 0, 0 -28" transform="rotate(0,684,600)"/><path d="M 838 586v 28h 14a 14 14, 0, 0, 0, 0 -28" transform="rotate(-90,852,600)"/><path d="M 950 586v 28h 28v -14a 14 14, 0, 0, 0, -14 -14" transform="rotate(-90,964,600)"/><rect x="978" y="586" width="28" height="28" transform="rotate(0,992,600)"/><path d="M 1090 586v 28h 14a 14 14, 0, 0, 0, 0 -28" transform="rotate(180,1104,600)"/><rect x="1118" y="586" width="28" height="28" transform="rotate(0,1132,600)"/><path d="M 26 614v 28h 14a 14 14, 0, 0, 0, 0 -28" transform="rotate(90,40,628)"/><path d="M 82 614v 28h 14a 14 14, 0, 0, 0, 0 -28" transform="rotate(-90,96,628)"/><path d="M 138 614v 28h 14a 14 14, 0, 0, 0, 0 -28" transform="rotate(90,152,628)"/><path d="M 222 614v 28h 28v -14a 14 14, 0, 0, 0, -14 -14" transform="rotate(-90,236,628)"/><path d="M 250 614v 28h 28v -14a 14 14, 0, 0, 0, -14 -14" transform="rotate(90,264,628)"/><rect x="362" y="614" width="28" height="28" transform="rotate(0,376,628)"/><path d="M 446 614v 28h 14a 14 14, 0, 0, 0, 0 -28" transform="rotate(90,460,628)"/><path d="M 502 614v 28h 28v -14a 14 14, 0, 0, 0, -14 -14" transform="rotate(180,516,628)"/><path d="M 530 614v 28h 28v -14a 14 14, 0, 0, 0, -14 -14" transform="rotate(90,544,628)"/><path d="M 586 614v 28h 28v -14a 14 14, 0, 0, 0, -14 -14" transform="rotate(-90,600,628)"/><path d="M 614 614v 28h 28v -14a 14 14, 0, 0, 0, -14 -14" transform="rotate(90,628,628)"/><path d="M 698 614v 28h 14a 14 14, 0, 0, 0, 0 -28" transform="rotate(180,712,628)"/><rect x="726" y="614" width="28" height="28" transform="rotate(0,740,628)"/><path d="M 754 614v 28h 14a 14 14, 0, 0, 0, 0 -28" transform="rotate(0,768,628)"/><path d="M 810 614v 28h 28v -14a 14 14, 0, 0, 0, -14 -14" transform="rotate(-90,824,628)"/><path d="M 838 614v 28h 28v -14a 14 14, 0, 0, 0, -14 -14" transform="rotate(90,852,628)"/><path d="M 922 614v 28h 14a 14 14, 0, 0, 0, 0 -28" transform="rotate(180,936,628)"/><rect x="950" y="614" width="28" height="28" transform="rotate(0,964,628)"/><rect x="978" y="614" width="28" height="28" transform="rotate(0,992,628)"/><circle cx="1076" cy="628" r="14" transform="rotate(0,1076,628)"/><rect x="1118" y="614" width="28" height="28" transform="rotate(0,1132,628)"/><path d="M 1146 614v 28h 14a 14 14, 0, 0, 0, 0 -28" transform="rotate(0,1160,628)"/><path d="M 54 642v 28h 28v -14a 14 14, 0, 0, 0, -14 -14" transform="rotate(-90,68,656)"/><rect x="82" y="642" width="28" height="28" transform="rotate(0,96,656)"/><path d="M 110 642v 28h 28v -14a 14 14, 0, 0, 0, -14 -14" transform="rotate(0,124,656)"/><path d="M 166 642v 28h 28v -14a 14 14, 0, 0, 0, -14 -14" transform="rotate(-90,180,656)"/><rect x="194" y="642" width="28" height="28" transform="rotate(0,208,656)"/><rect x="222" y="642" width="28" height="28" transform="rotate(0,236,656)"/><path d="M 278 642v 28h 14a 14 14, 0, 0, 0, 0 -28" transform="rotate(180,292,656)"/><path d="M 306 642v 28h 14a 14 14, 0, 0, 0, 0 -28" transform="rotate(0,320,656)"/><path d="M 362 642v 28h 14a 14 14, 0, 0, 0, 0 -28" transform="rotate(90,376,656)"/><path d="M 558 642v 28h 28v -14a 14 14, 0, 0, 0, -14 -14" transform="rotate(-90,572,656)"/><path d="M 586 642v 28h 28v -14a 14 14, 0, 0, 0, -14 -14" transform="rotate(90,600,656)"/><rect x="726" y="642" width="28" height="28" transform="rotate(0,740,656)"/><path d="M 810 642v 28h 14a 14 14, 0, 0, 0, 0 -28" transform="rotate(90,824,656)"/><circle cx="908" cy="656" r="14" transform="rotate(0,908,656)"/><path d="M 950 642v 28h 28v -14a 14 14, 0, 0, 0, -14 -14" transform="rotate(180,964,656)"/><rect x="978" y="642" width="28" height="28" transform="rotate(0,992,656)"/><rect x="1006" y="642" width="28" height="28" transform="rotate(0,1020,656)"/><path d="M 1034 642v 28h 14a 14 14, 0, 0, 0, 0 -28" transform="rotate(0,1048,656)"/><path d="M 1090 642v 28h 28v -14a 14 14, 0, 0, 0, -14 -14" transform="rotate(-90,1104,656)"/><path d="M 1118 642v 28h 28v -14a 14 14, 0, 0, 0, -14 -14" transform="rotate(90,1132,656)"/><rect x="54" y="670" width="28" height="28" transform="rotate(0,68,684)"/><rect x="82" y="670" width="28" height="28" transform="rotate(0,96,684)"/><path d="M 110 670v 28h 28v -14a 14 14, 0, 0, 0, -14 -14" transform="rotate(90,124,684)"/><path d="M 166 670v 28h 14a 14 14, 0, 0, 0, 0 -28" transform="rotate(90,180,684)"/><path d="M 222 670v 28h 28v -14a 14 14, 0, 0, 0, -14 -14" transform="rotate(180,236,684)"/><path d="M 250 670v 28h 28v -14a 14 14, 0, 0, 0, -14 -14" transform="rotate(0,264,684)"/><path d="M 390 670v 28h 28v -14a 14 14, 0, 0, 0, -14 -14" transform="rotate(-90,404,684)"/><rect x="418" y="670" width="28" height="28" transform="rotate(0,432,684)"/><rect x="446" y="670" width="28" height="28" transform="rotate(0,460,684)"/><rect x="474" y="670" width="28" height="28" transform="rotate(0,488,684)"/><rect x="502" y="670" width="28" height="28" transform="rotate(0,516,684)"/><rect x="530" y="670" width="28" height="28" transform="rotate(0,544,684)"/><rect x="558" y="670" width="28" height="28" transform="rotate(0,572,684)"/><path d="M 614 670v 28h 28v -14a 14 14, 0, 0, 0, -14 -14" transform="rotate(-90,628,684)"/><rect x="642" y="670" width="28" height="28" transform="rotate(0,656,684)"/><rect x="670" y="670" width="28" height="28" transform="rotate(0,684,684)"/><rect x="698" y="670" width="28" height="28" transform="rotate(0,712,684)"/><rect x="726" y="670" width="28" height="28" transform="rotate(0,740,684)"/><circle cx="796" cy="684" r="14" transform="rotate(0,796,684)"/><circle cx="880" cy="684" r="14" transform="rotate(0,880,684)"/><path d="M 922 670v 28h 14a 14 14, 0, 0, 0, 0 -28" transform="rotate(-90,936,684)"/><rect x="978" y="670" width="28" height="28" transform="rotate(0,992,684)"/><path d="M 1006 670v 28h 28v -14a 14 14, 0, 0, 0, -14 -14" transform="rotate(90,1020,684)"/><path d="M 1090 670v 28h 14a 14 14, 0, 0, 0, 0 -28" transform="rotate(90,1104,684)"/><path d="M 54 698v 28h 28v -14a 14 14, 0, 0, 0, -14 -14" transform="rotate(180,68,712)"/><path d="M 82 698v 28h 28v -14a 14 14, 0, 0, 0, -14 -14" transform="rotate(90,96,712)"/><circle cx="208" cy="712" r="14" transform="rotate(0,208,712)"/><rect x="250" y="698" width="28" height="28" transform="rotate(0,264,712)"/><rect x="278" y="698" width="28" height="28" transform="rotate(0,292,712)"/><path d="M 306 698v 28h 28v -14a 14 14, 0, 0, 0, -14 -14" transform="rotate(0,320,712)"/><path d="M 362 698v 28h 28v -14a 14 14, 0, 0, 0, -14 -14" transform="rotate(-90,376,712)"/><rect x="390" y="698" width="28" height="28" transform="rotate(0,404,712)"/><rect x="446" y="698" width="28" height="28" transform="rotate(0,460,712)"/><path d="M 502 698v 28h 28v -14a 14 14, 0, 0, 0, -14 -14" transform="rotate(180,516,712)"/><rect x="530" y="698" width="28" height="28" transform="rotate(0,544,712)"/><rect x="558" y="698" width="28" height="28" transform="rotate(0,572,712)"/><rect x="586" y="698" width="28" height="28" transform="rotate(0,600,712)"/><rect x="614" y="698" width="28" height="28" transform="rotate(0,628,712)"/><rect x="642" y="698" width="28" height="28" transform="rotate(0,656,712)"/><path d="M 670 698v 28h 28v -14a 14 14, 0, 0, 0, -14 -14" transform="rotate(90,684,712)"/><rect x="726" y="698" width="28" height="28" transform="rotate(0,740,712)"/><path d="M 838 698v 28h 14a 14 14, 0, 0, 0, 0 -28" transform="rotate(-90,852,712)"/><path d="M 922 698v 28h 28v -14a 14 14, 0, 0, 0, -14 -14" transform="rotate(180,936,712)"/><rect x="950" y="698" width="28" height="28" transform="rotate(0,964,712)"/><path d="M 978 698v 28h 28v -14a 14 14, 0, 0, 0, -14 -14" transform="rotate(90,992,712)"/><path d="M 1062 698v 28h 14a 14 14, 0, 0, 0, 0 -28" transform="rotate(-90,1076,712)"/><circle cx="1132" cy="712" r="14" transform="rotate(0,1132,712)"/><circle cx="40" cy="740" r="14" transform="rotate(0,40,740)"/><circle cx="152" cy="740" r="14" transform="rotate(0,152,740)"/><rect x="250" y="726" width="28" height="28" transform="rotate(0,264,740)"/><path d="M 306 726v 28h 14a 14 14, 0, 0, 0, 0 -28" transform="rotate(90,320,740)"/><path d="M 362 726v 28h 28v -14a 14 14, 0, 0, 0, -14 -14" transform="rotate(180,376,740)"/><rect x="390" y="726" width="28" height="28" transform="rotate(0,404,740)"/><rect x="418" y="726" width="28" height="28" transform="rotate(0,432,740)"/><rect x="446" y="726" width="28" height="28" transform="rotate(0,460,740)"/><path d="M 474 726v 28h 14a 14 14, 0, 0, 0, 0 -28" transform="rotate(0,488,740)"/><rect x="530" y="726" width="28" height="28" transform="rotate(0,544,740)"/><rect x="614" y="726" width="28" height="28" transform="rotate(0,628,740)"/><rect x="642" y="726" width="28" height="28" transform="rotate(0,656,740)"/><path d="M 698 726v 28h 28v -14a 14 14, 0, 0, 0, -14 -14" transform="rotate(-90,712,740)"/><path d="M 726 726v 28h 28v -14a 14 14, 0, 0, 0, -14 -14" transform="rotate(90,740,740)"/><rect x="838" y="726" width="28" height="28" transform="rotate(0,852,740)"/><circle cx="908" cy="740" r="14" transform="rotate(0,908,740)"/><rect x="950" y="726" width="28" height="28" transform="rotate(0,964,740)"/><path d="M 1062 726v 28h 14a 14 14, 0, 0, 0, 0 -28" transform="rotate(90,1076,740)"/><path d="M 54 754v 28h 28v -14a 14 14, 0, 0, 0, -14 -14" transform="rotate(-90,68,768)"/><path d="M 82 754v 28h 28v -14a 14 14, 0, 0, 0, -14 -14" transform="rotate(0,96,768)"/><path d="M 166 754v 28h 14a 14 14, 0, 0, 0, 0 -28" transform="rotate(180,180,768)"/><rect x="194" y="754" width="28" height="28" transform="rotate(0,208,768)"/><rect x="222" y="754" width="28" height="28" transform="rotate(0,236,768)"/><rect x="250" y="754" width="28" height="28" transform="rotate(0,264,768)"/><path d="M 390 754v 28h 14a 14 14, 0, 0, 0, 0 -28" transform="rotate(90,404,768)"/><path d="M 502 754v 28h 14a 14 14, 0, 0, 0, 0 -28" transform="rotate(180,516,768)"/><rect x="530" y="754" width="28" height="28" transform="rotate(0,544,768)"/><path d="M 586 754v 28h 14a 14 14, 0, 0, 0, 0 -28" transform="rotate(180,600,768)"/><rect x="614" y="754" width="28" height="28" transform="rotate(0,628,768)"/><rect x="642" y="754" width="28" height="28" transform="rotate(0,656,768)"/><rect x="670" y="754" width="28" height="28" transform="rotate(0,684,768)"/><rect x="698" y="754" width="28" height="28" transform="rotate(0,712,768)"/><path d="M 754 754v 28h 14a 14 14, 0, 0, 0, 0 -28" transform="rotate(-90,768,768)"/><path d="M 810 754v 28h 28v -14a 14 14, 0, 0, 0, -14 -14" transform="rotate(-90,824,768)"/><rect x="838" y="754" width="28" height="28" transform="rotate(0,852,768)"/><path d="M 922 754v 28h 28v -14a 14 14, 0, 0, 0, -14 -14" transform="rotate(-90,936,768)"/><rect x="950" y="754" width="28" height="28" transform="rotate(0,964,768)"/><path d="M 1034 754v 28h 14a 14 14, 0, 0, 0, 0 -28" transform="rotate(-90,1048,768)"/><path d="M 1118 754v 28h 14a 14 14, 0, 0, 0, 0 -28" transform="rotate(180,1132,768)"/><path d="M 1146 754v 28h 28v -14a 14 14, 0, 0, 0, -14 -14" transform="rotate(0,1160,768)"/><path d="M 54 782v 28h 28v -14a 14 14, 0, 0, 0, -14 -14" transform="rotate(180,68,796)"/><rect x="82" y="782" width="28" height="28" transform="rotate(0,96,796)"/><path d="M 222 782v 28h 28v -14a 14 14, 0, 0, 0, -14 -14" transform="rotate(180,236,796)"/><rect x="250" y="782" width="28" height="28" transform="rotate(0,264,796)"/><path d="M 278 782v 28h 14a 14 14, 0, 0, 0, 0 -28" transform="rotate(0,292,796)"/><path d="M 334 782v 28h 28v -14a 14 14, 0, 0, 0, -14 -14" transform="rotate(-90,348,796)"/><path d="M 362 782v 28h 28v -14a 14 14, 0, 0, 0, -14 -14" transform="rotate(0,376,796)"/><path d="M 418 782v 28h 28v -14a 14 14, 0, 0, 0, -14 -14" transform="rotate(-90,432,796)"/><path d="M 446 782v 28h 14a 14 14, 0, 0, 0, 0 -28" transform="rotate(0,460,796)"/><path d="M 530 782v 28h 14a 14 14, 0, 0, 0, 0 -28" transform="rotate(90,544,796)"/><path d="M 642 782v 28h 28v -14a 14 14, 0, 0, 0, -14 -14" transform="rotate(180,656,796)"/><rect x="670" y="782" width="28" height="28" transform="rotate(0,684,796)"/><rect x="698" y="782" width="28" height="28" transform="rotate(0,712,796)"/><rect x="726" y="782" width="28" height="28" transform="rotate(0,740,796)"/><rect x="754" y="782" width="28" height="28" transform="rotate(0,768,796)"/><rect x="782" y="782" width="28" height="28" transform="rotate(0,796,796)"/><rect x="810" y="782" width="28" height="28" transform="rotate(0,824,796)"/><rect x="838" y="782" width="28" height="28" transform="rotate(0,852,796)"/><path d="M 922 782v 28h 28v -14a 14 14, 0, 0, 0, -14 -14" transform="rotate(180,936,796)"/><rect x="950" y="782" width="28" height="28" transform="rotate(0,964,796)"/><path d="M 978 782v 28h 28v -14a 14 14, 0, 0, 0, -14 -14" transform="rotate(0,992,796)"/><path d="M 1034 782v 28h 14a 14 14, 0, 0, 0, 0 -28" transform="rotate(90,1048,796)"/><path d="M 1146 782v 28h 14a 14 14, 0, 0, 0, 0 -28" transform="rotate(90,1160,796)"/><path d="M 82 810v 28h 14a 14 14, 0, 0, 0, 0 -28" transform="rotate(90,96,824)"/><circle cx="208" cy="824" r="14" transform="rotate(0,208,824)"/><path d="M 306 810v 28h 14a 14 14, 0, 0, 0, 0 -28" transform="rotate(180,320,824)"/><rect x="334" y="810" width="28" height="28" transform="rotate(0,348,824)"/><rect x="362" y="810" width="28" height="28" transform="rotate(0,376,824)"/><rect x="390" y="810" width="28" height="28" transform="rotate(0,404,824)"/><path d="M 418 810v 28h 28v -14a 14 14, 0, 0, 0, -14 -14" transform="rotate(90,432,824)"/><circle cx="516" cy="824" r="14" transform="rotate(0,516,824)"/><circle cx="572" cy="824" r="14" transform="rotate(0,572,824)"/><path d="M 670 810v 28h 14a 14 14, 0, 0, 0, 0 -28" transform="rotate(90,684,824)"/><rect x="838" y="810" width="28" height="28" transform="rotate(0,852,824)"/><rect x="950" y="810" width="28" height="28" transform="rotate(0,964,824)"/><path d="M 978 810v 28h 28v -14a 14 14, 0, 0, 0, -14 -14" transform="rotate(90,992,824)"/><circle cx="124" cy="852" r="14" transform="rotate(0,124,852)"/><circle cx="180" cy="852" r="14" transform="rotate(0,180,852)"/><path d="M 278 838v 28h 14a 14 14, 0, 0, 0, 0 -28" transform="rotate(-90,292,852)"/><path d="M 362 838v 28h 14a 14 14, 0, 0, 0, 0 -28" transform="rotate(90,376,852)"/><circle cx="656" cy="852" r="14" transform="rotate(0,656,852)"/><path d="M 726 838v 28h 14a 14 14, 0, 0, 0, 0 -28" transform="rotate(180,740,852)"/><rect x="754" y="838" width="28" height="28" transform="rotate(0,768,852)"/><rect x="782" y="838" width="28" height="28" transform="rotate(0,796,852)"/><rect x="810" y="838" width="28" height="28" transform="rotate(0,824,852)"/><path d="M 838 838v 28h 28v -14a 14 14, 0, 0, 0, -14 -14" transform="rotate(90,852,852)"/><path d="M 894 838v 28h 14a 14 14, 0, 0, 0, 0 -28" transform="rotate(180,908,852)"/><rect x="922" y="838" width="28" height="28" transform="rotate(0,936,852)"/><path d="M 950 838v 28h 28v -14a 14 14, 0, 0, 0, -14 -14" transform="rotate(90,964,852)"/><path d="M 1146 838v 28h 14a 14 14, 0, 0, 0, 0 -28" transform="rotate(-90,1160,852)"/><circle cx="40" cy="880" r="14" transform="rotate(0,40,880)"/><circle cx="96" cy="880" r="14" transform="rotate(0,96,880)"/><circle cx="152" cy="880" r="14" transform="rotate(0,152,880)"/><path d="M 194 866v 28h 14a 14 14, 0, 0, 0, 0 -28" transform="rotate(180,208,880)"/><path d="M 222 866v 28h 14a 14 14, 0, 0, 0, 0 -28" transform="rotate(0,236,880)"/><path d="M 278 866v 28h 14a 14 14, 0, 0, 0, 0 -28" transform="rotate(90,292,880)"/><path d="M 418 866v 28h 14a 14 14, 0, 0, 0, 0 -28" transform="rotate(180,432,880)"/><rect x="446" y="866" width="28" height="28" transform="rotate(0,460,880)"/><rect x="474" y="866" width="28" height="28" transform="rotate(0,488,880)"/><rect x="502" y="866" width="28" height="28" transform="rotate(0,516,880)"/><path d="M 530 866v 28h 14a 14 14, 0, 0, 0, 0 -28" transform="rotate(0,544,880)"/><path d="M 614 866v 28h 14a 14 14, 0, 0, 0, 0 -28" transform="rotate(-90,628,880)"/><path d="M 782 866v 28h 28v -14a 14 14, 0, 0, 0, -14 -14" transform="rotate(180,796,880)"/><path d="M 810 866v 28h 28v -14a 14 14, 0, 0, 0, -14 -14" transform="rotate(90,824,880)"/><path d="M 1006 866v 28h 14a 14 14, 0, 0, 0, 0 -28" transform="rotate(180,1020,880)"/><rect x="1034" y="866" width="28" height="28" transform="rotate(0,1048,880)"/><path d="M 1062 866v 28h 28v -14a 14 14, 0, 0, 0, -14 -14" transform="rotate(0,1076,880)"/><path d="M 1118 866v 28h 28v -14a 14 14, 0, 0, 0, -14 -14" transform="rotate(-90,1132,880)"/><path d="M 1146 866v 28h 28v -14a 14 14, 0, 0, 0, -14 -14" transform="rotate(90,1160,880)"/><circle cx="124" cy="908" r="14" transform="rotate(0,124,908)"/><circle cx="320" cy="908" r="14" transform="rotate(0,320,908)"/><circle cx="404" cy="908" r="14" transform="rotate(0,404,908)"/><path d="M 446 894v 28h 14a 14 14, 0, 0, 0, 0 -28" transform="rotate(90,460,908)"/><path d="M 502 894v 28h 14a 14 14, 0, 0, 0, 0 -28" transform="rotate(90,516,908)"/><path d="M 558 894v 28h 14a 14 14, 0, 0, 0, 0 -28" transform="rotate(-90,572,908)"/><rect x="614" y="894" width="28" height="28" transform="rotate(0,628,908)"/><path d="M 670 894v 28h 14a 14 14, 0, 0, 0, 0 -28" transform="rotate(-90,684,908)"/><path d="M 838 894v 28h 14a 14 14, 0, 0, 0, 0 -28" transform="rotate(180,852,908)"/><path d="M 866 894v 28h 14a 14 14, 0, 0, 0, 0 -28" transform="rotate(0,880,908)"/><path d="M 950 894v 28h 14a 14 14, 0, 0, 0, 0 -28" transform="rotate(-90,964,908)"/><rect x="1034" y="894" width="28" height="28" transform="rotate(0,1048,908)"/><path d="M 1062 894v 28h 28v -14a 14 14, 0, 0, 0, -14 -14" transform="rotate(90,1076,908)"/><path d="M 1118 894v 28h 14a 14 14, 0, 0, 0, 0 -28" transform="rotate(90,1132,908)"/><circle cx="40" cy="936" r="14" transform="rotate(0,40,936)"/><circle cx="96" cy="936" r="14" transform="rotate(0,96,936)"/><circle cx="208" cy="936" r="14" transform="rotate(0,208,936)"/><path d="M 250 922v 28h 28v -14a 14 14, 0, 0, 0, -14 -14" transform="rotate(-90,264,936)"/><path d="M 278 922v 28h 28v -14a 14 14, 0, 0, 0, -14 -14" transform="rotate(0,292,936)"/><path d="M 362 922v 28h 14a 14 14, 0, 0, 0, 0 -28" transform="rotate(-90,376,936)"/><path d="M 530 922v 28h 14a 14 14, 0, 0, 0, 0 -28" transform="rotate(180,544,936)"/><rect x="558" y="922" width="28" height="28" transform="rotate(0,572,936)"/><rect x="614" y="922" width="28" height="28" transform="rotate(0,628,936)"/><rect x="642" y="922" width="28" height="28" transform="rotate(0,656,936)"/><path d="M 670 922v 28h 28v -14a 14 14, 0, 0, 0, -14 -14" transform="rotate(90,684,936)"/><path d="M 726 922v 28h 14a 14 14, 0, 0, 0, 0 -28" transform="rotate(180,740,936)"/><rect x="754" y="922" width="28" height="28" transform="rotate(0,768,936)"/><path d="M 782 922v 28h 14a 14 14, 0, 0, 0, 0 -28" transform="rotate(0,796,936)"/><path d="M 922 922v 28h 28v -14a 14 14, 0, 0, 0, -14 -14" transform="rotate(-90,936,936)"/><rect x="950" y="922" width="28" height="28" transform="rotate(0,964,936)"/><rect x="978" y="922" width="28" height="28" transform="rotate(0,992,936)"/><rect x="1006" y="922" width="28" height="28" transform="rotate(0,1020,936)"/><rect x="1034" y="922" width="28" height="28" transform="rotate(0,1048,936)"/><path d="M 1090 922v 28h 14a 14 14, 0, 0, 0, 0 -28" transform="rotate(-90,1104,936)"/><path d="M 1146 922v 28h 14a 14 14, 0, 0, 0, 0 -28" transform="rotate(-90,1160,936)"/><rect x="250" y="950" width="28" height="28" transform="rotate(0,264,964)"/><path d="M 278 950v 28h 28v -14a 14 14, 0, 0, 0, -14 -14" transform="rotate(90,292,964)"/><path d="M 334 950v 28h 28v -14a 14 14, 0, 0, 0, -14 -14" transform="rotate(-90,348,964)"/><rect x="362" y="950" width="28" height="28" transform="rotate(0,376,964)"/><path d="M 418 950v 28h 14a 14 14, 0, 0, 0, 0 -28" transform="rotate(-90,432,964)"/><rect x="558" y="950" width="28" height="28" transform="rotate(0,572,964)"/><rect x="586" y="950" width="28" height="28" transform="rotate(0,600,964)"/><path d="M 614 950v 28h 28v -14a 14 14, 0, 0, 0, -14 -14" transform="rotate(90,628,964)"/><circle cx="712" cy="964" r="14" transform="rotate(0,712,964)"/><path d="M 810 950v 28h 28v -14a 14 14, 0, 0, 0, -14 -14" transform="rotate(-90,824,964)"/><path d="M 838 950v 28h 14a 14 14, 0, 0, 0, 0 -28" transform="rotate(0,852,964)"/><path d="M 894 950v 28h 14a 14 14, 0, 0, 0, 0 -28" transform="rotate(180,908,964)"/><rect x="922" y="950" width="28" height="28" transform="rotate(0,936,964)"/><rect x="1034" y="950" width="28" height="28" transform="rotate(0,1048,964)"/><rect x="1090" y="950" width="28" height="28" transform="rotate(0,1104,964)"/><rect x="1118" y="950" width="28" height="28" transform="rotate(0,1132,964)"/><path d="M 1146 950v 28h 28v -14a 14 14, 0, 0, 0, -14 -14" transform="rotate(90,1160,964)"/><rect x="250" y="978" width="28" height="28" transform="rotate(0,264,992)"/><rect x="334" y="978" width="28" height="28" transform="rotate(0,348,992)"/><path d="M 362 978v 28h 28v -14a 14 14, 0, 0, 0, -14 -14" transform="rotate(90,376,992)"/><path d="M 418 978v 28h 28v -14a 14 14, 0, 0, 0, -14 -14" transform="rotate(180,432,992)"/><path d="M 446 978v 28h 14a 14 14, 0, 0, 0, 0 -28" transform="rotate(0,460,992)"/><path d="M 530 978v 28h 28v -14a 14 14, 0, 0, 0, -14 -14" transform="rotate(-90,544,992)"/><rect x="558" y="978" width="28" height="28" transform="rotate(0,572,992)"/><path d="M 586 978v 28h 28v -14a 14 14, 0, 0, 0, -14 -14" transform="rotate(90,600,992)"/><path d="M 642 978v 28h 14a 14 14, 0, 0, 0, 0 -28" transform="rotate(-90,656,992)"/><path d="M 810 978v 28h 14a 14 14, 0, 0, 0, 0 -28" transform="rotate(90,824,992)"/><path d="M 866 978v 28h 14a 14 14, 0, 0, 0, 0 -28" transform="rotate(-90,880,992)"/><rect x="922" y="978" width="28" height="28" transform="rotate(0,936,992)"/><circle cx="992" cy="992" r="14" transform="rotate(0,992,992)"/><rect x="1034" y="978" width="28" height="28" transform="rotate(0,1048,992)"/><rect x="1062" y="978" width="28" height="28" transform="rotate(0,1076,992)"/><rect x="1090" y="978" width="28" height="28" transform="rotate(0,1104,992)"/><path d="M 250 1006v 28h 14a 14 14, 0, 0, 0, 0 -28" transform="rotate(90,264,1020)"/><path d="M 334 1006v 28h 14a 14 14, 0, 0, 0, 0 -28" transform="rotate(90,348,1020)"/><path d="M 474 1006v 28h 14a 14 14, 0, 0, 0, 0 -28" transform="rotate(180,488,1020)"/><rect x="502" y="1006" width="28" height="28" transform="rotate(0,516,1020)"/><rect x="530" y="1006" width="28" height="28" transform="rotate(0,544,1020)"/><path d="M 558 1006v 28h 28v -14a 14 14, 0, 0, 0, -14 -14" transform="rotate(90,572,1020)"/><path d="M 614 1006v 28h 14a 14 14, 0, 0, 0, 0 -28" transform="rotate(180,628,1020)"/><rect x="642" y="1006" width="28" height="28" transform="rotate(0,656,1020)"/><path d="M 698 1006v 28h 14a 14 14, 0, 0, 0, 0 -28" transform="rotate(-90,712,1020)"/><circle cx="768" cy="1020" r="14" transform="rotate(0,768,1020)"/><rect x="866" y="1006" width="28" height="28" transform="rotate(0,880,1020)"/><rect x="922" y="1006" width="28" height="28" transform="rotate(0,936,1020)"/><rect x="1034" y="1006" width="28" height="28" transform="rotate(0,1048,1020)"/><rect x="1062" y="1006" width="28" height="28" transform="rotate(0,1076,1020)"/><path d="M 1090 1006v 28h 28v -14a 14 14, 0, 0, 0, -14 -14" transform="rotate(90,1104,1020)"/><path d="M 278 1034v 28h 14a 14 14, 0, 0, 0, 0 -28" transform="rotate(-90,292,1048)"/><path d="M 362 1034v 28h 28v -14a 14 14, 0, 0, 0, -14 -14" transform="rotate(-90,376,1048)"/><path d="M 390 1034v 28h 28v -14a 14 14, 0, 0, 0, -14 -14" transform="rotate(0,404,1048)"/><path d="M 446 1034v 28h 14a 14 14, 0, 0, 0, 0 -28" transform="rotate(-90,460,1048)"/><rect x="502" y="1034" width="28" height="28" transform="rotate(0,516,1048)"/><rect x="530" y="1034" width="28" height="28" transform="rotate(0,544,1048)"/><circle cx="600" cy="1048" r="14" transform="rotate(0,600,1048)"/><path d="M 642 1034v 28h 14a 14 14, 0, 0, 0, 0 -28" transform="rotate(90,656,1048)"/><rect x="698" y="1034" width="28" height="28" transform="rotate(0,712,1048)"/><circle cx="824" cy="1048" r="14" transform="rotate(0,824,1048)"/><rect x="866" y="1034" width="28" height="28" transform="rotate(0,880,1048)"/><path d="M 922 1034v 28h 28v -14a 14 14, 0, 0, 0, -14 -14" transform="rotate(180,936,1048)"/><rect x="950" y="1034" width="28" height="28" transform="rotate(0,964,1048)"/><rect x="978" y="1034" width="28" height="28" transform="rotate(0,992,1048)"/><rect x="1006" y="1034" width="28" height="28" transform="rotate(0,1020,1048)"/><rect x="1034" y="1034" width="28" height="28" transform="rotate(0,1048,1048)"/><path d="M 250 1062v 28h 14a 14 14, 0, 0, 0, 0 -28" transform="rotate(180,264,1076)"/><path d="M 278 1062v 28h 28v -14a 14 14, 0, 0, 0, -14 -14" transform="rotate(90,292,1076)"/><path d="M 334 1062v 28h 14a 14 14, 0, 0, 0, 0 -28" transform="rotate(180,348,1076)"/><rect x="362" y="1062" width="28" height="28" transform="rotate(0,376,1076)"/><rect x="390" y="1062" width="28" height="28" transform="rotate(0,404,1076)"/><rect x="418" y="1062" width="28" height="28" transform="rotate(0,432,1076)"/><path d="M 446 1062v 28h 28v -14a 14 14, 0, 0, 0, -14 -14" transform="rotate(90,460,1076)"/><rect x="502" y="1062" width="28" height="28" transform="rotate(0,516,1076)"/><rect x="530" y="1062" width="28" height="28" transform="rotate(0,544,1076)"/><path d="M 698 1062v 28h 14a 14 14, 0, 0, 0, 0 -28" transform="rotate(90,712,1076)"/><path d="M 866 1062v 28h 28v -14a 14 14, 0, 0, 0, -14 -14" transform="rotate(180,880,1076)"/><path d="M 894 1062v 28h 28v -14a 14 14, 0, 0, 0, -14 -14" transform="rotate(0,908,1076)"/><path d="M 950 1062v 28h 28v -14a 14 14, 0, 0, 0, -14 -14" transform="rotate(180,964,1076)"/><path d="M 978 1062v 28h 28v -14a 14 14, 0, 0, 0, -14 -14" transform="rotate(90,992,1076)"/><rect x="1034" y="1062" width="28" height="28" transform="rotate(0,1048,1076)"/><path d="M 1062 1062v 28h 14a 14 14, 0, 0, 0, 0 -28" transform="rotate(0,1076,1076)"/><rect x="362" y="1090" width="28" height="28" transform="rotate(0,376,1104)"/><rect x="418" y="1090" width="28" height="28" transform="rotate(0,432,1104)"/><path d="M 474 1090v 28h 14a 14 14, 0, 0, 0, 0 -28" transform="rotate(180,488,1104)"/><rect x="502" y="1090" width="28" height="28" transform="rotate(0,516,1104)"/><path d="M 530 1090v 28h 28v -14a 14 14, 0, 0, 0, -14 -14" transform="rotate(90,544,1104)"/><circle cx="600" cy="1104" r="14" transform="rotate(0,600,1104)"/><path d="M 670 1090v 28h 14a 14 14, 0, 0, 0, 0 -28" transform="rotate(-90,684,1104)"/><path d="M 726 1090v 28h 28v -14a 14 14, 0, 0, 0, -14 -14" transform="rotate(-90,740,1104)"/><path d="M 754 1090v 28h 14a 14 14, 0, 0, 0, 0 -28" transform="rotate(0,768,1104)"/><path d="M 838 1090v 28h 14a 14 14, 0, 0, 0, 0 -28" transform="rotate(-90,852,1104)"/><path d="M 894 1090v 28h 28v -14a 14 14, 0, 0, 0, -14 -14" transform="rotate(180,908,1104)"/><path d="M 922 1090v 28h 28v -14a 14 14, 0, 0, 0, -14 -14" transform="rotate(0,936,1104)"/><path d="M 1034 1090v 28h 14a 14 14, 0, 0, 0, 0 -28" transform="rotate(90,1048,1104)"/><circle cx="1160" cy="1104" r="14" transform="rotate(0,1160,1104)"/><circle cx="264" cy="1132" r="14" transform="rotate(0,264,1132)"/><path d="M 334 1118v 28h 14a 14 14, 0, 0, 0, 0 -28" transform="rotate(180,348,1132)"/><rect x="362" y="1118" width="28" height="28" transform="rotate(0,376,1132)"/><rect x="390" y="1118" width="28" height="28" transform="rotate(0,404,1132)"/><rect x="418" y="1118" width="28" height="28" transform="rotate(0,432,1132)"/><path d="M 446 1118v 28h 28v -14a 14 14, 0, 0, 0, -14 -14" transform="rotate(0,460,1132)"/><rect x="670" y="1118" width="28" height="28" transform="rotate(0,684,1132)"/><rect x="698" y="1118" width="28" height="28" transform="rotate(0,712,1132)"/><path d="M 726 1118v 28h 28v -14a 14 14, 0, 0, 0, -14 -14" transform="rotate(90,740,1132)"/><rect x="838" y="1118" width="28" height="28" transform="rotate(0,852,1132)"/><rect x="922" y="1118" width="28" height="28" transform="rotate(0,936,1132)"/><path d="M 978 1118v 28h 28v -14a 14 14, 0, 0, 0, -14 -14" transform="rotate(-90,992,1132)"/><path d="M 1006 1118v 28h 28v -14a 14 14, 0, 0, 0, -14 -14" transform="rotate(0,1020,1132)"/><path d="M 1118 1118v 28h 14a 14 14, 0, 0, 0, 0 -28" transform="rotate(-90,1132,1132)"/><path d="M 278 1146v 28h 14a 14 14, 0, 0, 0, 0 -28" transform="rotate(180,292,1160)"/><path d="M 306 1146v 28h 14a 14 14, 0, 0, 0, 0 -28" transform="rotate(0,320,1160)"/><path d="M 418 1146v 28h 28v -14a 14 14, 0, 0, 0, -14 -14" transform="rotate(180,432,1160)"/><rect x="446" y="1146" width="28" height="28" transform="rotate(0,460,1160)"/><rect x="474" y="1146" width="28" height="28" transform="rotate(0,488,1160)"/><path d="M 502 1146v 28h 14a 14 14, 0, 0, 0, 0 -28" transform="rotate(0,516,1160)"/><path d="M 558 1146v 28h 14a 14 14, 0, 0, 0, 0 -28" transform="rotate(180,572,1160)"/><rect x="586" y="1146" width="28" height="28" transform="rotate(0,600,1160)"/><path d="M 614 1146v 28h 14a 14 14, 0, 0, 0, 0 -28" transform="rotate(0,628,1160)"/><path d="M 670 1146v 28h 28v -14a 14 14, 0, 0, 0, -14 -14" transform="rotate(180,684,1160)"/><path d="M 698 1146v 28h 28v -14a 14 14, 0, 0, 0, -14 -14" transform="rotate(90,712,1160)"/><path d="M 810 1146v 28h 14a 14 14, 0, 0, 0, 0 -28" transform="rotate(180,824,1160)"/><path d="M 838 1146v 28h 28v -14a 14 14, 0, 0, 0, -14 -14" transform="rotate(90,852,1160)"/><path d="M 922 1146v 28h 14a 14 14, 0, 0, 0, 0 -28" transform="rotate(90,936,1160)"/><path d="M 978 1146v 28h 28v -14a 14 14, 0, 0, 0, -14 -14" transform="rotate(180,992,1160)"/><rect x="1006" y="1146" width="28" height="28" transform="rotate(0,1020,1160)"/><rect x="1034" y="1146" width="28" height="28" transform="rotate(0,1048,1160)"/><path d="M 1062 1146v 28h 14a 14 14, 0, 0, 0, 0 -28" transform="rotate(0,1076,1160)"/><path d="M 1118 1146v 28h 14a 14 14, 0, 0, 0, 0 -28" transform="rotate(90,1132,1160)"/></clipPath><clipPath id="clip-path-corners-square-color-0-0-466"><path clip-rule="evenodd" d="M 26 96v 56a 70 70, 0, 0, 0, 70 70h 56a 70 70, 0, 0, 0, 70 -70v -56a 70 70, 0, 0, 0, -70 -70h -56a 70 70, 0, 0, 0, -70 70M 96 54h 56a 42 42, 0, 0, 1, 42 42v 56a 42 42, 0, 0, 1, -42 42h -56a 42 42, 0, 0, 1, -42 -42v -56a 42 42, 0, 0, 1, 42 -42" transform="rotate(0,124,124)"/></clipPath><clipPath id="clip-path-corners-dot-color-0-0-466"><circle cx="124" cy="124" r="42" transform="rotate(0,124,124)"/></clipPath><clipPath id="clip-path-corners-square-color-1-0-466"><path clip-rule="evenodd" d="M 978 96v 56a 70 70, 0, 0, 0, 70 70h 56a 70 70, 0, 0, 0, 70 -70v -56a 70 70, 0, 0, 0, -70 -70h -56a 70 70, 0, 0, 0, -70 70M 1048 54h 56a 42 42, 0, 0, 1, 42 42v 56a 42 42, 0, 0, 1, -42 42h -56a 42 42, 0, 0, 1, -42 -42v -56a 42 42, 0, 0, 1, 42 -42" transform="rotate(90,1076,124)"/></clipPath><clipPath id="clip-path-corners-dot-color-1-0-466"><circle cx="1076" cy="124" r="42" transform="rotate(90,1076,124)"/></clipPath><clipPath id="clip-path-corners-square-color-0-1-466"><path clip-rule="evenodd" d="M 26 1048v 56a 70 70, 0, 0, 0, 70 70h 56a 70 70, 0, 0, 0, 70 -70v -56a 70 70, 0, 0, 0, -70 -70h -56a 70 70, 0, 0, 0, -70 70M 96 1006h 56a 42 42, 0, 0, 1, 42 42v 56a 42 42, 0, 0, 1, -42 42h -56a 42 42, 0, 0, 1, -42 -42v -56a 42 42, 0, 0, 1, 42 -42" transform="rotate(-90,124,1076)"/></clipPath><clipPath id="clip-path-corners-dot-color-0-1-466"><circle cx="124" cy="1076" r="42" transform="rotate(-90,124,1076)"/></clipPath></defs><rect x="0" y="0" height="1200" width="1200" clip-path="url('#clip-path-background-color-466')" fill="#ffffff"/><rect x="0" y="0" height="1200" width="1200" clip-path="url('#clip-path-dot-color-466')" fill="#000000"/><rect x="26" y="26" height="196" width="196" clip-path="url('#clip-path-corners-square-color-0-0-466')" fill="#000000"/><rect x="82" y="82" height="84" width="84" clip-path="url('#clip-path-corners-dot-color-0-0-466')" fill="#000000"/><rect x="978" y="26" height="196" width="196" clip-path="url('#clip-path-corners-square-color-1-0-466')" fill="#000000"/><rect x="1034" y="82" height="84" width="84" clip-path="url('#clip-path-corners-dot-color-1-0-466')" fill="#000000"/><rect x="26" y="978" height="196" width="196" clip-path="url('#clip-path-corners-square-color-0-1-466')" fill="#000000"/><rect x="82" y="1034" height="84" width="84" clip-path="url('#clip-path-corners-dot-color-0-1-466')" fill="#000000"/></svg>