<?xml version="1.0" standalone="no"?>
<svg xmlns="http://www.w3.org/2000/svg" width="1200" height="1200" xmlns:xlink="http://www.w3.org/1999/xlink" viewBox="0 0 1200 1200"><defs><clipPath id="clip-path-background-color-465"><rect x="0" y="0" width="1200" height="1200"/></clipPath><clipPath id="clip-path-dot-color-465"><path d="M 250 26v 28h 14a 14 14, 0, 0, 0, 0 -28" transform="rotate(180,264,40)"/><rect x="278" y="26" width="28" height="28" transform="rotate(0,292,40)"/><path d="M 306 26v 28h 28v -14a 14 14, 0, 0, 0, -14 -14" transform="rotate(0,320,40)"/><path d="M 362 26v 28h 14a 14 14, 0, 0, 0, 0 -28" transform="rotate(-90,376,40)"/><path d="M 446 26v 28h 14a 14 14, 0, 0, 0, 0 -28" transform="rotate(180,460,40)"/><rect x="474" y="26" width="28" height="28" transform="rotate(0,488,40)"/><path d="M 502 26v 28h 28v -14a 14 14, 0, 0, 0, -14 -14" transform="rotate(0,516,40)"/><circle cx="656" cy="40" r="14" transform="rotate(0,656,40)"/><path d="M 754 26v 28h 14a 14 14, 0, 0, 0, 0 -28" transform="rotate(180,768,40)"/><path d="M 782 26v 28h 28v -14a 14 14, 0, 0, 0, -14 -14" transform="rotate(0,796,40)"/><circle cx="852" cy="40" r="14" transform="rotate(0,852,40)"/><circle cx="908" cy="40" r="14" transform="rotate(0,908,40)"/><path d="M 278 54v 28h 28v -14a 14 14, 0, 0, 0, -14 -14" transform="rotate(180,292,68)"/><rect x="306" y="54" width="28" height="28" transform="rotate(0,320,68)"/><rect x="334" y="54" width="28" height="28" transform="rotate(0,348,68)"/><rect x="362" y="54" width="28" height="28" transform="rotate(0,376,68)"/><circle cx="432" cy="68" r="14" transform="rotate(0,432,68)"/><path d="M 474 54v 28h 28v -14a 14 14, 0, 0, 0, -14 -14" transform="rotate(180,488,68)"/><rect x="502" y="54" width="28" height="28" transform="rotate(0,516,68)"/><circle cx="712" cy="68" r="14" transform="rotate(0,712,68)"/><rect x="782" y="54" width="28" height="28" transform="rotate(0,796,68)"/><path d="M 810 54v 28h 28v -14a 14 14, 0, 0, 0, -14 -14" transform="rotate(0,824,68)"/><path d="M 866 54v 28h 14a 14 14, 0, 0, 0, 0 -28" transform="rotate(-90,880,68)"/><circle cx="936" cy="68" r="14" transform="rotate(0,936,68)"/><path d="M 250 82v 28h 14a 14 14, 0, 0, 0, 0 -28" transform="rotate(-90,264,96)"/><path d="M 306 82v 28h 14a 14 14, 0, 0, 0, 0 -28" transform="rotate(90,320,96)"/><path d="M 362 82v 28h 28v -14a 14 14, 0, 0, 0, -14 -14" transform="rotate(180,376,96)"/><path d="M 390 82v 28h 14a 14 14, 0, 0, 0, 0 -28" transform="rotate(0,404,96)"/><rect x="502" y="82" width="28" height="28" transform="rotate(0,516,96)"/><path d="M 530 82v 28h 14a 14 14, 0, 0, 0, 0 -28" transform="rotate(0,544,96)"/><path d="M 586 82v 28h 14a 14 14, 0, 0, 0, 0 -28" transform="rotate(180,600,96)"/><path d="M 614 82v 28h 28v -14a 14 14, 0, 0, 0, -14 -14" transform="rotate(0,628,96)"/><circle cx="684" cy="96" r="14" transform="rotate(0,684,96)"/><path d="M 754 82v 28h 14a 14 14, 0, 0, 0, 0 -28" transform="rotate(180,768,96)"/><rect x="782" y="82" width="28" height="28" transform="rotate(0,796,96)"/><path d="M 810 82v 28h 28v -14a 14 14, 0, 0, 0, -14 -14" transform="rotate(90,824,96)"/><rect x="866" y="82" width="28" height="28" transform="rotate(0,880,96)"/><path d="M 250 110v 28h 28v -14a 14 14, 0, 0, 0, -14 -14" transform="rotate(180,264,124)"/><path d="M 278 110v 28h 28v -14a 14 14, 0, 0, 0, -14 -14" transform="rotate(0,292,124)"/><circle cx="348" cy="124" r="14" transform="rotate(0,348,124)"/><path d="M 418 110v 28h 14a 14 14, 0, 0, 0, 0 -28" transform="rotate(180,432,124)"/><path d="M 446 110v 28h 28v -14a 14 14, 0, 0, 0, -14 -14" transform="rotate(0,460,124)"/><path d="M 502 110v 28h 14a 14 14, 0, 0, 0, 0 -28" transform="rotate(90,516,124)"/><path d="M 558 110v 28h 14a 14 14, 0, 0, 0, 0 -28" transform="rotate(-90,572,124)"/><path d="M 614 110v 28h 14a 14 14, 0, 0, 0, 0 -28" transform="rotate(90,628,124)"/><path d="M 698 110v 28h 14a 14 14, 0, 0, 0, 0 -28" transform="rotate(180,712,124)"/><path d="M 726 110v 28h 28v -14a 14 14, 0, 0, 0, -14 -14" transform="rotate(0,740,124)"/><rect x="782" y="110" width="28" height="28" transform="rotate(0,796,124)"/><path d="M 838 110v 28h 14a 14 14, 0, 0, 0, 0 -28" transform="rotate(180,852,124)"/><rect x="866" y="110" width="28" height="28" transform="rotate(0,880,124)"/><rect x="894" y="110" width="28" height="28" transform="rotate(0,908,124)"/><path d="M 922 110v 28h 14a 14 14, 0, 0, 0, 0 -28" transform="rotate(0,936,124)"/><path d="M 278 138v 28h 28v -14a 14 14, 0, 0, 0, -14 -14" transform="rotate(180,292,152)"/><path d="M 306 138v 28h 14a 14 14, 0, 0, 0, 0 -28" transform="rotate(0,320,152)"/><circle cx="376" cy="152" r="14" transform="rotate(0,376,152)"/><rect x="446" y="138" width="28" height="28" transform="rotate(0,460,152)"/><path d="M 474 138v 28h 14a 14 14, 0, 0, 0, 0 -28" transform="rotate(0,488,152)"/><path d="M 530 138v 28h 28v -14a 14 14, 0, 0, 0, -14 -14" transform="rotate(-90,544,152)"/><rect x="558" y="138" width="28" height="28" transform="rotate(0,572,152)"/><path d="M 586 138v 28h 28v -14a 14 14, 0, 0, 0, -14 -14" transform="rotate(0,600,152)"/><circle cx="684" cy="152" r="14" transform="rotate(0,684,152)"/><path d="M 726 138v 28h 14a 14 14, 0, 0, 0, 0 -28" transform="rotate(90,740,152)"/><rect x="782" y="138" width="28" height="28" transform="rotate(0,796,152)"/><path d="M 810 138v 28h 14a 14 14, 0, 0, 0, 0 -28" transform="rotate(0,824,152)"/><path d="M 866 138v 28h 14a 14 14, 0, 0, 0, 0 -28" transform="rotate(90,880,152)"/><path d="M 250 166v 28h 14a 14 14, 0, 0, 0, 0 -28" transform="rotate(-90,264,180)"/><circle cx="348" cy="180" r="14" transform="rotate(0,348,180)"/><path d="M 390 166v 28h 14a 14 14, 0, 0, 0, 0 -28" transform="rotate(180,404,180)"/><rect x="418" y="166" width="28" height="28" transform="rotate(0,432,180)"/><path d="M 446 166v 28h 28v -14a 14 14, 0, 0, 0, -14 -14" transform="rotate(90,460,180)"/><path d="M 502 166v 28h 14a 14 14, 0, 0, 0, 0 -28" transform="rotate(180,516,180)"/><rect x="530" y="166" width="28" height="28" transform="rotate(0,544,180)"/><rect x="586" y="166" width="28" height="28" transform="rotate(0,600,180)"/><path d="M 614 166v 28h 14a 14 14, 0, 0, 0, 0 -28" transform="rotate(0,628,180)"/><path d="M 754 166v 28h 28v -14a 14 14, 0, 0, 0, -14 -14" transform="rotate(-90,768,180)"/><path d="M 782 166v 28h 28v -14a 14 14, 0, 0, 0, -14 -14" transform="rotate(90,796,180)"/><circle cx="852" cy="180" r="14" transform="rotate(0,852,180)"/><circle cx="908" cy="180" r="14" transform="rotate(0,908,180)"/><rect x="250" y="194" width="28" height="28" transform="rotate(0,264,208)"/><path d="M 306 194v 28h 14a 14 14, 0, 0, 0, 0 -28" transform="rotate(-90,320,208)"/><path d="M 362 194v 28h 14a 14 14, 0, 0, 0, 0 -28" transform="rotate(-90,376,208)"/><rect x="418" y="194" width="28" height="28" transform="rotate(0,432,208)"/><path d="M 474 194v 28h 14a 14 14, 0, 0, 0, 0 -28" transform="rotate(-90,488,208)"/><rect x="530" y="194" width="28" height="28" transform="rotate(0,544,208)"/><rect x="586" y="194" width="28" height="28" transform="rotate(0,600,208)"/><circle cx="656" cy="208" r="14" transform="rotate(0,656,208)"/><path d="M 698 194v 28h 14a 14 14, 0, 0, 0, 0 -28" transform="rotate(-90,712,208)"/><path d="M 754 194v 28h 14a 14 14, 0, 0, 0, 0 -28" transform="rotate(90,768,208)"/><path d="M 810 194v 28h 14a 14 14, 0, 0, 0, 0 -28" transform="rotate(-90,824,208)"/><path d="M 866 194v 28h 14a 14 14, 0, 0, 0, 0 -28" transform="rotate(-90,880,208)"/><path d="M 922 194v 28h 14a 14 14, 0, 0, 0, 0 -28" transform="rotate(-90,936,208)"/><rect x="250" y="222" width="28" height="28" transform="rotate(0,264,236)"/><rect x="278" y="222" width="28" height="28" transform="rotate(0,292,236)"/><rect x="306" y="222" width="28" height="28" transform="rotate(0,320,236)"/><rect x="334" y="222" width="28" height="28" transform="rotate(0,348,236)"/><path d="M 362 222v 28h 28v -14a 14 14, 0, 0, 0, -14 -14" transform="rotate(90,376,236)"/><path d="M 418 222v 28h 14a 14 14, 0, 0, 0, 0 -28" transform="rotate(90,432,236)"/><rect x="474" y="222" width="28" height="28" transform="rotate(0,488,236)"/><rect x="502" y="222" width="28" height="28" transform="rotate(0,516,236)"/><rect x="530" y="222" width="28" height="28" transform="rotate(0,544,236)"/><rect x="558" y="222" width="28" height="28" transform="rotate(0,572,236)"/><rect x="586" y="222" width="28" height="28" transform="rotate(0,600,236)"/><path d="M 698 222v 28h 14a 14 14, 0, 0, 0, 0 -28" transform="rotate(90,712,236)"/><path d="M 810 222v 28h 28v -14a 14 14, 0, 0, 0, -14 -14" transform="rotate(180,824,236)"/><rect x="838" y="222" width="28" height="28" transform="rotate(0,852,236)"/><path d="M 866 222v 28h 28v -14a 14 14, 0, 0, 0, -14 -14" transform="rotate(90,880,236)"/><path d="M 922 222v 28h 14a 14 14, 0, 0, 0, 0 -28" transform="rotate(90,936,236)"/><circle cx="68" cy="264" r="14" transform="rotate(0,68,264)"/><path d="M 110 250v 28h 14a 14 14, 0, 0, 0, 0 -28" transform="rotate(-90,124,264)"/><path d="M 166 250v 28h 14a 14 14, 0, 0, 0, 0 -28" transform="rotate(180,180,264)"/><rect x="194" y="250" width="28" height="28" transform="rotate(0,208,264)"/><rect x="222" y="250" width="28" height="28" transform="rotate(0,236,264)"/><path d="M 250 250v 28h 28v -14a 14 14, 0, 0, 0, -14 -14" transform="rotate(90,264,264)"/><path d="M 334 250v 28h 14a 14 14, 0, 0, 0, 0 -28" transform="rotate(90,348,264)"/><path d="M 390 250v 28h 14a 14 14, 0, 0, 0, 0 -28" transform="rotate(-90,404,264)"/><path d="M 446 250v 28h 28v -14a 14 14, 0, 0, 0, -14 -14" transform="rotate(-90,460,264)"/><rect x="474" y="250" width="28" height="28" transform="rotate(0,488,264)"/><rect x="502" y="250" width="28" height="28" transform="rotate(0,516,264)"/><rect x="558" y="250" width="28" height="28" transform="rotate(0,572,264)"/><rect x="586" y="250" width="28" height="28" transform="rotate(0,600,264)"/><path d="M 726 250v 28h 28v -14a 14 14, 0, 0, 0, -14 -14" transform="rotate(-90,740,264)"/><path d="M 754 250v 28h 14a 14 14, 0, 0, 0, 0 -28" transform="rotate(0,768,264)"/><path d="M 950 250v 28h 28v -14a 14 14, 0, 0, 0, -14 -14" transform="rotate(-90,964,264)"/><rect x="978" y="250" width="28" height="28" transform="rotate(0,992,264)"/><path d="M 1006 250v 28h 14a 14 14, 0, 0, 0, 0 -28" transform="rotate(0,1020,264)"/><path d="M 1062 250v 28h 28v -14a 14 14, 0, 0, 0, -14 -14" transform="rotate(-90,1076,264)"/><path d="M 1090 250v 28h 28v -14a 14 14, 0, 0, 0, -14 -14" transform="rotate(0,1104,264)"/><path d="M 1146 250v 28h 14a 14 14, 0, 0, 0, 0 -28" transform="rotate(-90,1160,264)"/><path d="M 26 278v 28h 14a 14 14, 0, 0, 0, 0 -28" transform="rotate(-90,40,292)"/><path d="M 82 278v 28h 28v -14a 14 14, 0, 0, 0, -14 -14" transform="rotate(-90,96,292)"/><rect x="110" y="278" width="28" height="28" transform="rotate(0,124,292)"/><path d="M 138 278v 28h 14a 14 14, 0, 0, 0, 0 -28" transform="rotate(0,152,292)"/><rect x="390" y="278" width="28" height="28" transform="rotate(0,404,292)"/><rect x="418" y="278" width="28" height="28" transform="rotate(0,432,292)"/><rect x="446" y="278" width="28" height="28" transform="rotate(0,460,292)"/><rect x="474" y="278" width="28" height="28" transform="rotate(0,488,292)"/><path d="M 502 278v 28h 28v -14a 14 14, 0, 0, 0, -14 -14" transform="rotate(90,516,292)"/><path d="M 558 278v 28h 28v -14a 14 14, 0, 0, 0, -14 -14" transform="rotate(180,572,292)"/><path d="M 586 278v 28h 28v -14a 14 14, 0, 0, 0, -14 -14" transform="rotate(90,600,292)"/><rect x="726" y="278" width="28" height="28" transform="rotate(0,740,292)"/><path d="M 810 278v 28h 28v -14a 14 14, 0, 0, 0, -14 -14" transform="rotate(-90,824,292)"/><rect x="838" y="278" width="28" height="28" transform="rotate(0,852,292)"/><path d="M 866 278v 28h 28v -14a 14 14, 0, 0, 0, -14 -14" transform="rotate(0,880,292)"/><path d="M 922 278v 28h 14a 14 14, 0, 0, 0, 0 -28" transform="rotate(180,936,292)"/><rect x="950" y="278" width="28" height="28" transform="rotate(0,964,292)"/><path d="M 978 278v 28h 28v -14a 14 14, 0, 0, 0, -14 -14" transform="rotate(90,992,292)"/><rect x="1062" y="278" width="28" height="28" transform="rotate(0,1076,292)"/><rect x="1090" y="278" width="28" height="28" transform="rotate(0,1104,292)"/><rect x="1118" y="278" width="28" height="28" transform="rotate(0,1132,292)"/><path d="M 1146 278v 28h 28v -14a 14 14, 0, 0, 0, -14 -14" transform="rotate(90,1160,292)"/><rect x="26" y="306" width="28" height="28" transform="rotate(0,40,320)"/><rect x="54" y="306" width="28" height="28" transform="rotate(0,68,320)"/><rect x="82" y="306" width="28" height="28" transform="rotate(0,96,320)"/><path d="M 110 306v 28h 28v -14a 14 14, 0, 0, 0, -14 -14" transform="rotate(90,124,320)"/><path d="M 166 306v 28h 14a 14 14, 0, 0, 0, 0 -28" transform="rotate(180,180,320)"/><path d="M 194 306v 28h 14a 14 14, 0, 0, 0, 0 -28" transform="rotate(0,208,320)"/><circle cx="348" cy="320" r="14" transform="rotate(0,348,320)"/><rect x="390" y="306" width="28" height="28" transform="rotate(0,404,320)"/><rect x="446" y="306" width="28" height="28" transform="rotate(0,460,320)"/><path d="M 474 306v 28h 28v -14a 14 14, 0, 0, 0, -14 -14" transform="rotate(90,488,320)"/><path d="M 530 306v 28h 14a 14 14, 0, 0, 0, 0 -28" transform="rotate(-90,544,320)"/><rect x="726" y="306" width="28" height="28" transform="rotate(0,740,320)"/><rect x="810" y="306" width="28" height="28" transform="rotate(0,824,320)"/><rect x="838" y="306" width="28" height="28" transform="rotate(0,852,320)"/><rect x="866" y="306" width="28" height="28" transform="rotate(0,880,320)"/><path d="M 894 306v 28h 14a 14 14, 0, 0, 0, 0 -28" transform="rotate(0,908,320)"/><circle cx="1020" cy="320" r="14" transform="rotate(0,1020,320)"/><path d="M 1062 306v 28h 28v -14a 14 14, 0, 0, 0, -14 -14" transform="rotate(180,1076,320)"/><rect x="1090" y="306" width="28" height="28" transform="rotate(0,1104,320)"/><path d="M 1118 306v 28h 28v -14a 14 14, 0, 0, 0, -14 -14" transform="rotate(90,1132,320)"/><path d="M 26 334v 28h 28v -14a 14 14, 0, 0, 0, -14 -14" transform="rotate(180,40,348)"/><rect x="54" y="334" width="28" height="28" transform="rotate(0,68,348)"/><path d="M 82 334v 28h 28v -14a 14 14, 0, 0, 0, -14 -14" transform="rotate(90,96,348)"/><circle cx="152" cy="348" r="14" transform="rotate(0,152,348)"/><circle cx="236" cy="348" r="14" transform="rotate(0,236,348)"/><path d="M 306 334v 28h 14a 14 14, 0, 0, 0, 0 -28" transform="rotate(-90,320,348)"/><path d="M 362 334v 28h 28v -14a 14 14, 0, 0, 0, -14 -14" transform="rotate(-90,376,348)"/><rect x="390" y="334" width="28" height="28" transform="rotate(0,404,348)"/><rect x="418" y="334" width="28" height="28" transform="rotate(0,432,348)"/><rect x="446" y="334" width="28" height="28" transform="rotate(0,460,348)"/><rect x="530" y="334" width="28" height="28" transform="rotate(0,544,348)"/><path d="M 558 334v 28h 14a 14 14, 0, 0, 0, 0 -28" transform="rotate(0,572,348)"/><path d="M 642 334v 28h 14a 14 14, 0, 0, 0, 0 -28" transform="rotate(-90,656,348)"/><rect x="726" y="334" width="28" height="28" transform="rotate(0,740,348)"/><rect x="754" y="334" width="28" height="28" transform="rotate(0,768,348)"/><rect x="782" y="334" width="28" height="28" transform="rotate(0,796,348)"/><rect x="810" y="334" width="28" height="28" transform="rotate(0,824,348)"/><path d="M 950 334v 28h 28v -14a 14 14, 0, 0, 0, -14 -14" transform="rotate(-90,964,348)"/><path d="M 978 334v 28h 28v -14a 14 14, 0, 0, 0, -14 -14" transform="rotate(0,992,348)"/><circle cx="1048" cy="348" r="14" transform="rotate(0,1048,348)"/><path d="M 1090 334v 28h 14a 14 14, 0, 0, 0, 0 -28" transform="rotate(90,1104,348)"/><rect x="54" y="362" width="28" height="28" transform="rotate(0,68,376)"/><path d="M 166 362v 28h 14a 14 14, 0, 0, 0, 0 -28" transform="rotate(180,180,376)"/><path d="M 194 362v 28h 14a 14 14, 0, 0, 0, 0 -28" transform="rotate(0,208,376)"/><circle cx="264" cy="376" r="14" transform="rotate(0,264,376)"/><path d="M 306 362v 28h 14a 14 14, 0, 0, 0, 0 -28" transform="rotate(90,320,376)"/><path d="M 362 362v 28h 28v -14a 14 14, 0, 0, 0, -14 -14" transform="rotate(180,376,376)"/><rect x="390" y="362" width="28" height="28" transform="rotate(0,404,376)"/><rect x="418" y="362" width="28" height="28" transform="rotate(0,432,376)"/><path d="M 446 362v 28h 28v -14a 14 14, 0, 0, 0, -14 -14" transform="rotate(90,460,376)"/><rect x="530" y="362" width="28" height="28" transform="rotate(0,544,376)"/><path d="M 642 362v 28h 28v -14a 14 14, 0, 0, 0, -14 -14" transform="rotate(180,656,376)"/><path d="M 670 362v 28h 28v -14a 14 14, 0, 0, 0, -14 -14" transform="rotate(0,684,376)"/><rect x="726" y="362" width="28" height="28" transform="rotate(0,740,376)"/><path d="M 754 362v 28h 28v -14a 14 14, 0, 0, 0, -14 -14" transform="rotate(90,768,376)"/><path d="M 810 362v 28h 28v -14a 14 14, 0, 0, 0, -14 -14" transform="rotate(180,824,376)"/><path d="M 838 362v 28h 28v -14a 14 14, 0, 0, 0, -14 -14" transform="rotate(0,852,376)"/><circle cx="908" cy="376" r="14" transform="rotate(0,908,376)"/><rect x="950" y="362" width="28" height="28" transform="rotate(0,964,376)"/><path d="M 978 362v 28h 28v -14a 14 14, 0, 0, 0, -14 -14" transform="rotate(90,992,376)"/><circle cx="1076" cy="376" r="14" transform="rotate(0,1076,376)"/><path d="M 1118 362v 28h 28v -14a 14 14, 0, 0, 0, -14 -14" transform="rotate(-90,1132,376)"/><path d="M 1146 362v 28h 14a 14 14, 0, 0, 0, 0 -28" transform="rotate(0,1160,376)"/><rect x="54" y="390" width="28" height="28" transform="rotate(0,68,404)"/><path d="M 82 390v 28h 28v -14a 14 14, 0, 0, 0, -14 -14" transform="rotate(0,96,404)"/><circle cx="292" cy="404" r="14" transform="rotate(0,292,404)"/><path d="M 334 390v 28h 14a 14 14, 0, 0, 0, 0 -28" transform="rotate(-90,348,404)"/><path d="M 418 390v 28h 14a 14 14, 0, 0, 0, 0 -28" transform="rotate(90,432,404)"/><path d="M 502 390v 28h 28v -14a 14 14, 0, 0, 0, -14 -14" transform="rotate(-90,516,404)"/><rect x="530" y="390" width="28" height="28" transform="rotate(0,544,404)"/><circle cx="628" cy="404" r="14" transform="rotate(0,628,404)"/><rect x="670" y="390" width="28" height="28" transform="rotate(0,684,404)"/><rect x="726" y="390" width="28" height="28" transform="rotate(0,740,404)"/><path d="M 782 390v 28h 14a 14 14, 0, 0, 0, 0 -28" transform="rotate(-90,796,404)"/><rect x="838" y="390" width="28" height="28" transform="rotate(0,852,404)"/><path d="M 866 390v 28h 14a 14 14, 0, 0, 0, 0 -28" transform="rotate(0,880,404)"/><path d="M 950 390v 28h 14a 14 14, 0, 0, 0, 0 -28" transform="rotate(90,964,404)"/><rect x="1118" y="390" width="28" height="28" transform="rotate(0,1132,404)"/><rect x="54" y="418" width="28" height="28" transform="rotate(0,68,432)"/><path d="M 82 418v 28h 28v -14a 14 14, 0, 0, 0, -14 -14" transform="rotate(90,96,432)"/><path d="M 138 418v 28h 28v -14a 14 14, 0, 0, 0, -14 -14" transform="rotate(-90,152,432)"/><rect x="166" y="418" width="28" height="28" transform="rotate(0,180,432)"/><path d="M 194 418v 28h 14a 14 14, 0, 0, 0, 0 -28" transform="rotate(0,208,432)"/><circle cx="264" cy="432" r="14" transform="rotate(0,264,432)"/><path d="M 334 418v 28h 14a 14 14, 0, 0, 0, 0 -28" transform="rotate(90,348,432)"/><path d="M 390 418v 28h 14a 14 14, 0, 0, 0, 0 -28" transform="rotate(-90,404,432)"/><path d="M 446 418v 28h 14a 14 14, 0, 0, 0, 0 -28" transform="rotate(180,460,432)"/><rect x="474" y="418" width="28" height="28" transform="rotate(0,488,432)"/><rect x="502" y="418" width="28" height="28" transform="rotate(0,516,432)"/><rect x="530" y="418" width="28" height="28" transform="rotate(0,544,432)"/><path d="M 558 418v 28h 28v -14a 14 14, 0, 0, 0, -14 -14" transform="rotate(0,572,432)"/><rect x="670" y="418" width="28" height="28" transform="rotate(0,684,432)"/><rect x="726" y="418" width="28" height="28" transform="rotate(0,740,432)"/><rect x="754" y="418" width="28" height="28" transform="rotate(0,768,432)"/><rect x="782" y="418" width="28" height="28" transform="rotate(0,796,432)"/><rect x="810" y="418" width="28" height="28" transform="rotate(0,824,432)"/><rect x="838" y="418" width="28" height="28" transform="rotate(0,852,432)"/><circle cx="936" cy="432" r="14" transform="rotate(0,936,432)"/><path d="M 978 418v 28h 14a 14 14, 0, 0, 0, 0 -28" transform="rotate(-90,992,432)"/><path d="M 1062 418v 28h 14a 14 14, 0, 0, 0, 0 -28" transform="rotate(180,1076,432)"/><rect x="1090" y="418" width="28" height="28" transform="rotate(0,1104,432)"/><rect x="1118" y="418" width="28" height="28" transform="rotate(0,1132,432)"/><path d="M 1146 418v 28h 14a 14 14, 0, 0, 0, 0 -28" transform="rotate(0,1160,432)"/><path d="M 26 446v 28h 28v -14a 14 14, 0, 0, 0, -14 -14" transform="rotate(-90,40,460)"/><path d="M 54 446v 28h 28v -14a 14 14, 0, 0, 0, -14 -14" transform="rotate(90,68,460)"/><rect x="138" y="446" width="28" height="28" transform="rotate(0,152,460)"/><circle cx="236" cy="460" r="14" transform="rotate(0,236,460)"/><path d="M 278 446v 28h 28v -14a 14 14, 0, 0, 0, -14 -14" transform="rotate(-90,292,460)"/><path d="M 306 446v 28h 14a 14 14, 0, 0, 0, 0 -28" transform="rotate(0,320,460)"/><path d="M 362 446v 28h 14a 14 14, 0, 0, 0, 0 -28" transform="rotate(180,376,460)"/><rect x="390" y="446" width="28" height="28" transform="rotate(0,404,460)"/><rect x="474" y="446" width="28" height="28" transform="rotate(0,488,460)"/><rect x="502" y="446" width="28" height="28" transform="rotate(0,516,460)"/><rect x="530" y="446" width="28" height="28" transform="rotate(0,544,460)"/><path d="M 558 446v 28h 28v -14a 14 14, 0, 0, 0, -14 -14" transform="rotate(90,572,460)"/><path d="M 642 446v 28h 14a 14 14, 0, 0, 0, 0 -28" transform="rotate(180,656,460)"/><path d="M 670 446v 28h 28v -14a 14 14, 0, 0, 0, -14 -14" transform="rotate(90,684,460)"/><path d="M 726 446v 28h 14a 14 14, 0, 0, 0, 0 -28" transform="rotate(90,740,460)"/><rect x="810" y="446" width="28" height="28" transform="rotate(0,824,460)"/><rect x="838" y="446" width="28" height="28" transform="rotate(0,852,460)"/><path d="M 894 446v 28h 14a 14 14, 0, 0, 0, 0 -28" transform="rotate(-90,908,460)"/><path d="M 978 446v 28h 14a 14 14, 0, 0, 0, 0 -28" transform="rotate(90,992,460)"/><circle cx="1048" cy="460" r="14" transform="rotate(0,1048,460)"/><rect x="1118" y="446" width="28" height="28" transform="rotate(0,1132,460)"/><path d="M 26 474v 28h 14a 14 14, 0, 0, 0, 0 -28" transform="rotate(90,40,488)"/><path d="M 138 474v 28h 28v -14a 14 14, 0, 0, 0, -14 -14" transform="rotate(180,152,488)"/><rect x="166" y="474" width="28" height="28" transform="rotate(0,180,488)"/><path d="M 194 474v 28h 14a 14 14, 0, 0, 0, 0 -28" transform="rotate(0,208,488)"/><path d="M 250 474v 28h 14a 14 14, 0, 0, 0, 0 -28" transform="rotate(180,264,488)"/><rect x="278" y="474" width="28" height="28" transform="rotate(0,292,488)"/><path d="M 334 474v 28h 14a 14 14, 0, 0, 0, 0 -28" transform="rotate(-90,348,488)"/><rect x="390" y="474" width="28" height="28" transform="rotate(0,404,488)"/><path d="M 474 474v 28h 14a 14 14, 0, 0, 0, 0 -28" transform="rotate(90,488,488)"/><path d="M 614 474v 28h 14a 14 14, 0, 0, 0, 0 -28" transform="rotate(-90,628,488)"/><path d="M 782 474v 28h 14a 14 14, 0, 0, 0, 0 -28" transform="rotate(180,796,488)"/><rect x="810" y="474" width="28" height="28" transform="rotate(0,824,488)"/><rect x="838" y="474" width="28" height="28" transform="rotate(0,852,488)"/><rect x="866" y="474" width="28" height="28" transform="rotate(0,880,488)"/><rect x="894" y="474" width="28" height="28" transform="rotate(0,908,488)"/><path d="M 922 474v 28h 14a 14 14, 0, 0, 0, 0 -28" transform="rotate(0,936,488)"/><path d="M 1006 474v 28h 14a 14 14, 0, 0, 0, 0 -28" transform="rotate(-90,1020,488)"/><path d="M 1062 474v 28h 14a 14 14, 0, 0, 0, 0 -28" transform="rotate(-90,1076,488)"/><rect x="1118" y="474" width="28" height="28" transform="rotate(0,1132,488)"/><circle cx="68" cy="516" r="14" transform="rotate(0,68,516)"/><circle cx="124" cy="516" r="14" transform="rotate(0,124,516)"/><path d="M 222 502v 28h 14a 14 14, 0, 0, 0, 0 -28" transform="rotate(-90,236,516)"/><rect x="278" y="502" width="28" height="28" transform="rotate(0,292,516)"/><path d="M 334 502v 28h 28v -14a 14 14, 0, 0, 0, -14 -14" transform="rotate(180,348,516)"/><rect x="362" y="502" width="28" height="28" transform="rotate(0,376,516)"/><rect x="390" y="502" width="28" height="28" transform="rotate(0,404,516)"/><rect x="418" y="502" width="28" height="28" transform="rotate(0,432,516)"/><path d="M 446 502v 28h 14a 14 14, 0, 0, 0, 0 -28" transform="rotate(0,460,516)"/><path d="M 558 502v 28h 28v -14a 14 14, 0, 0, 0, -14 -14" transform="rotate(-90,572,516)"/><rect x="586" y="502" width="28" height="28" transform="rotate(0,600,516)"/><rect x="614" y="502" width="28" height="28" transform="rotate(0,628,516)"/><rect x="642" y="502" width="28" height="28" transform="rotate(0,656,516)"/><rect x="670" y="502" width="28" height="28" transform="rotate(0,684,516)"/><path d="M 698 502v 28h 14a 14 14, 0, 0, 0, 0 -28" transform="rotate(0,712,516)"/><circle cx="768" cy="516" r="14" transform="rotate(0,768,516)"/><path d="M 810 502v 28h 14a 14 14, 0, 0, 0, 0 -28" transform="rotate(90,824,516)"/><path d="M 978 502v 28h 14a 14 14, 0, 0, 0, 0 -28" transform="rotate(180,992,516)"/><path d="M 1006 502v 28h 28v -14a 14 14, 0, 0, 0, -14 -14" transform="rotate(90,1020,516)"/><rect x="1062" y="502" width="28" height="28" transform="rotate(0,1076,516)"/><rect x="1090" y="502" width="28" height="28" transform="rotate(0,1104,516)"/><rect x="1118" y="502" width="28" height="28" transform="rotate(0,1132,516)"/><path d="M 1146 502v 28h 28v -14a 14 14, 0, 0, 0, -14 -14" transform="rotate(0,1160,516)"/><path d="M 26 530v 28h 14a 14 14, 0, 0, 0, 0 -28" transform="rotate(-90,40,544)"/><path d="M 82 530v 28h 14a 14 14, 0, 0, 0, 0 -28" transform="rotate(-90,96,544)"/><circle cx="152" cy="544" r="14" transform="rotate(0,152,544)"/><path d="M 194 530v 28h 14a 14 14, 0, 0, 0, 0 -28" transform="rotate(180,208,544)"/><path d="M 222 530v 28h 28v -14a 14 14, 0, 0, 0, -14 -14" transform="rotate(90,236,544)"/><path d="M 278 530v 28h 28v -14a 14 14, 0, 0, 0, -14 -14" transform="rotate(180,292,544)"/><path d="M 306 530v 28h 14a 14 14, 0, 0, 0, 0 -28" transform="rotate(0,320,544)"/><rect x="362" y="530" width="28" height="28" transform="rotate(0,376,544)"/><path d="M 418 530v 28h 14a 14 14, 0, 0, 0, 0 -28" transform="rotate(90,432,544)"/><path d="M 530 530v 28h 28v -14a 14 14, 0, 0, 0, -14 -14" transform="rotate(-90,544,544)"/><rect x="558" y="530" width="28" height="28" transform="rotate(0,572,544)"/><path d="M 586 530v 28h 28v -14a 14 14, 0, 0, 0, -14 -14" transform="rotate(90,600,544)"/><path d="M 642 530v 28h 14a 14 14, 0, 0, 0, 0 -28" transform="rotate(90,656,544)"/><path d="M 726 530v 28h 14a 14 14, 0, 0, 0, 0 -28" transform="rotate(-90,740,544)"/><path d="M 866 530v 28h 14a 14 14, 0, 0, 0, 0 -28" transform="rotate(-90,880,544)"/><circle cx="936" cy="544" r="14" transform="rotate(0,936,544)"/><path d="M 1034 530v 28h 14a 14 14, 0, 0, 0, 0 -28" transform="rotate(180,1048,544)"/><rect x="1062" y="530" width="28" height="28" transform="rotate(0,1076,544)"/><rect x="1090" y="530" width="28" height="28" transform="rotate(0,1104,544)"/><rect x="1118" y="530" width="28" height="28" transform="rotate(0,1132,544)"/><path d="M 1146 530v 28h 28v -14a 14 14, 0, 0, 0, -14 -14" transform="rotate(90,1160,544)"/><rect x="26" y="558" width="28" height="28" transform="rotate(0,40,572)"/><rect x="54" y="558" width="28" height="28" transform="rotate(0,68,572)"/><rect x="82" y="558" width="28" height="28" transform="rotate(0,96,572)"/><path d="M 250 558v 28h 14a 14 14, 0, 0, 0, 0 -28" transform="rotate(-90,264,572)"/><path d="M 334 558v 28h 28v -14a 14 14, 0, 0, 0, -14 -14" transform="rotate(-90,348,572)"/><rect x="362" y="558" width="28" height="28" transform="rotate(0,376,572)"/><path d="M 474 558v 28h 14a 14 14, 0, 0, 0, 0 -28" transform="rotate(-90,488,572)"/><rect x="530" y="558" width="28" height="28" transform="rotate(0,544,572)"/><rect x="558" y="558" width="28" height="28" transform="rotate(0,572,572)"/><path d="M 614 558v 28h 14a 14 14, 0, 0, 0, 0 -28" transform="rotate(-90,628,572)"/><path d="M 726 558v 28h 14a 14 14, 0, 0, 0, 0 -28" transform="rotate(90,740,572)"/><path d="M 838 558v 28h 28v -14a 14 14, 0, 0, 0, -14 -14" transform="rotate(-90,852,572)"/><rect x="866" y="558" width="28" height="28" transform="rotate(0,880,572)"/><path d="M 894 558v 28h 14a 14 14, 0, 0, 0, 0 -28" transform="rotate(0,908,572)"/><path d="M 978 558v 28h 28v -14a 14 14, 0, 0, 0, -14 -14" transform="rotate(-90,992,572)"/><path d="M 1006 558v 28h 14a 14 14, 0, 0, 0, 0 -28" transform="rotate(0,1020,572)"/><path d="M 1062 558v 28h 14a 14 14, 0, 0, 0, 0 -28" transform="rotate(90,1076,572)"/><rect x="1118" y="558" width="28" height="28" transform="rotate(0,1132,572)"/><path d="M 26 586v 28h 14a 14 14, 0, 0, 0, 0 -28" transform="rotate(90,40,600)"/><rect x="82" y="586" width="28" height="28" transform="rotate(0,96,600)"/><path d="M 138 586v 28h 28v -14a 14 14, 0, 0, 0, -14 -14" transform="rotate(-90,152,600)"/><rect x="166" y="586" width="28" height="28" transform="rotate(0,180,600)"/><path d="M 194 586v 28h 14a 14 14, 0, 0, 0, 0 -28" transform="rotate(0,208,600)"/><path d="M 250 586v 28h 28v -14a 14 14, 0, 0, 0, -14 -14" transform="rotate(180,264,600)"/><rect x="278" y="586" width="28" height="28" transform="rotate(0,292,600)"/><rect x="306" y="586" width="28" height="28" transform="rotate(0,320,600)"/><rect x="334" y="586" width="28" height="28" transform="rotate(0,348,600)"/><rect x="362" y="586" width="28" height="28" transform="rotate(0,376,600)"/><path d="M 474 586v 28h 28v -14a 14 14, 0, 0, 0, -14 -14" transform="rotate(180,488,600)"/><rect x="502" y="586" width="28" height="28" transform="rotate(0,516,600)"/><rect x="530" y="586" width="28" height="28" transform="rotate(0,544,600)"/><path d="M 558 586v 28h 28v -14a 14 14, 0, 0, 0, -14 -14" transform="rotate(90,572,600)"/><path d="M 614 586v 28h 28v -14a 14 14, 0, 0, 0, -14 -14" transform="rotate(180,628,600)"/><rect x="642" y="586" width="28" height="28" transform="rotate(0,656,600)"/><path d="M 670 586v 28h 14a 14 14, 0, 0, 0, 0 -28" transform="rotate(0,684,600)"/><path d="M 754 586v 28h 14a 14 14, 0, 0, 0, 0 -28" transform="rotate(180,768,600)"/><path d="M 782 586v 28h 14a 14 14, 0, 0, 0, 0 -28" transform="rotate(0,796,600)"/><rect x="838" y="586" width="28" height="28" transform="rotate(0,852,600)"/><rect x="866" y="586" width="28" height="28" transform="rotate(0,880,600)"/><path d="M 950 586v 28h 28v -14a 14 14, 0, 0, 0, -14 -14" transform="rotate(-90,964,600)"/><rect x="978" y="586" width="28" height="28" transform="rotate(0,992,600)"/><path d="M 1090 586v 28h 14a 14 14, 0, 0, 0, 0 -28" transform="rotate(180,1104,600)"/><rect x="1118" y="586" width="28" height="28" transform="rotate(0,1132,600)"/><rect x="82" y="614" width="28" height="28" transform="rotate(0,96,628)"/><rect x="110" y="614" width="28" height="28" transform="rotate(0,124,628)"/><path d="M 138 614v 28h 28v -14a 14 14, 0, 0, 0, -14 -14" transform="rotate(90,152,628)"/><circle cx="236" cy="628" r="14" transform="rotate(0,236,628)"/><path d="M 278 614v 28h 14a 14 14, 0, 0, 0, 0 -28" transform="rotate(90,292,628)"/><rect x="362" y="614" width="28" height="28" transform="rotate(0,376,628)"/><rect x="390" y="614" width="28" height="28" transform="rotate(0,404,628)"/><rect x="418" y="614" width="28" height="28" transform="rotate(0,432,628)"/><path d="M 446 614v 28h 14a 14 14, 0, 0, 0, 0 -28" transform="rotate(0,460,628)"/><path d="M 586 614v 28h 14a 14 14, 0, 0, 0, 0 -28" transform="rotate(-90,600,628)"/><path d="M 642 614v 28h 14a 14 14, 0, 0, 0, 0 -28" transform="rotate(90,656,628)"/><path d="M 698 614v 28h 14a 14 14, 0, 0, 0, 0 -28" transform="rotate(180,712,628)"/><path d="M 726 614v 28h 28v -14a 14 14, 0, 0, 0, -14 -14" transform="rotate(0,740,628)"/><path d="M 810 614v 28h 28v -14a 14 14, 0, 0, 0, -14 -14" transform="rotate(-90,824,628)"/><rect x="838" y="614" width="28" height="28" transform="rotate(0,852,628)"/><path d="M 866 614v 28h 28v -14a 14 14, 0, 0, 0, -14 -14" transform="rotate(90,880,628)"/><path d="M 922 614v 28h 14a 14 14, 0, 0, 0, 0 -28" transform="rotate(180,936,628)"/><rect x="950" y="614" width="28" height="28" transform="rotate(0,964,628)"/><rect x="978" y="614" width="28" height="28" transform="rotate(0,992,628)"/><circle cx="1076" cy="628" r="14" transform="rotate(0,1076,628)"/><rect x="1118" y="614" width="28" height="28" transform="rotate(0,1132,628)"/><path d="M 1146 614v 28h 14a 14 14, 0, 0, 0, 0 -28" transform="rotate(0,1160,628)"/><rect x="82" y="642" width="28" height="28" transform="rotate(0,96,656)"/><path d="M 166 642v 28h 28v -14a 14 14, 0, 0, 0, -14 -14" transform="rotate(-90,180,656)"/><path d="M 194 642v 28h 14a 14 14, 0, 0, 0, 0 -28" transform="rotate(0,208,656)"/><circle cx="264" cy="656" r="14" transform="rotate(0,264,656)"/><path d="M 306 642v 28h 14a 14 14, 0, 0, 0, 0 -28" transform="rotate(-90,320,656)"/><path d="M 362 642v 28h 14a 14 14, 0, 0, 0, 0 -28" transform="rotate(90,376,656)"/><path d="M 502 642v 28h 28v -14a 14 14, 0, 0, 0, -14 -14" transform="rotate(-90,516,656)"/><rect x="530" y="642" width="28" height="28" transform="rotate(0,544,656)"/><rect x="558" y="642" width="28" height="28" transform="rotate(0,572,656)"/><path d="M 586 642v 28h 28v -14a 14 14, 0, 0, 0, -14 -14" transform="rotate(90,600,656)"/><rect x="726" y="642" width="28" height="28" transform="rotate(0,740,656)"/><path d="M 810 642v 28h 14a 14 14, 0, 0, 0, 0 -28" transform="rotate(90,824,656)"/><circle cx="908" cy="656" r="14" transform="rotate(0,908,656)"/><path d="M 950 642v 28h 28v -14a 14 14, 0, 0, 0, -14 -14" transform="rotate(180,964,656)"/><rect x="978" y="642" width="28" height="28" transform="rotate(0,992,656)"/><rect x="1006" y="642" width="28" height="28" transform="rotate(0,1020,656)"/><path d="M 1034 642v 28h 14a 14 14, 0, 0, 0, 0 -28" transform="rotate(0,1048,656)"/><path d="M 1090 642v 28h 28v -14a 14 14, 0, 0, 0, -14 -14" transform="rotate(-90,1104,656)"/><rect x="1118" y="642" width="28" height="28" transform="rotate(0,1132,656)"/><path d="M 54 670v 28h 14a 14 14, 0, 0, 0, 0 -28" transform="rotate(180,68,684)"/><rect x="82" y="670" width="28" height="28" transform="rotate(0,96,684)"/><rect x="110" y="670" width="28" height="28" transform="rotate(0,124,684)"/><rect x="138" y="670" width="28" height="28" transform="rotate(0,152,684)"/><rect x="166" y="670" width="28" height="28" transform="rotate(0,180,684)"/><path d="M 278 670v 28h 14a 14 14, 0, 0, 0, 0 -28" transform="rotate(180,292,684)"/><rect x="306" y="670" width="28" height="28" transform="rotate(0,320,684)"/><path d="M 418 670v 28h 14a 14 14, 0, 0, 0, 0 -28" transform="rotate(180,432,684)"/><rect x="446" y="670" width="28" height="28" transform="rotate(0,460,684)"/><rect x="474" y="670" width="28" height="28" transform="rotate(0,488,684)"/><rect x="502" y="670" width="28" height="28" transform="rotate(0,516,684)"/><rect x="558" y="670" width="28" height="28" transform="rotate(0,572,684)"/><path d="M 614 670v 28h 14a 14 14, 0, 0, 0, 0 -28" transform="rotate(-90,628,684)"/><path d="M 670 670v 28h 28v -14a 14 14, 0, 0, 0, -14 -14" transform="rotate(-90,684,684)"/><rect x="698" y="670" width="28" height="28" transform="rotate(0,712,684)"/><rect x="726" y="670" width="28" height="28" transform="rotate(0,740,684)"/><circle cx="796" cy="684" r="14" transform="rotate(0,796,684)"/><circle cx="880" cy="684" r="14" transform="rotate(0,880,684)"/><path d="M 922 670v 28h 14a 14 14, 0, 0, 0, 0 -28" transform="rotate(-90,936,684)"/><rect x="978" y="670" width="28" height="28" transform="rotate(0,992,684)"/><path d="M 1006 670v 28h 28v -14a 14 14, 0, 0, 0, -14 -14" transform="rotate(90,1020,684)"/><path d="M 1090 670v 28h 28v -14a 14 14, 0, 0, 0, -14 -14" transform="rotate(180,1104,684)"/><rect x="1118" y="670" width="28" height="28" transform="rotate(0,1132,684)"/><path d="M 1146 670v 28h 14a 14 14, 0, 0, 0, 0 -28" transform="rotate(0,1160,684)"/><circle cx="40" cy="712" r="14" transform="rotate(0,40,712)"/><path d="M 82 698v 28h 28v -14a 14 14, 0, 0, 0, -14 -14" transform="rotate(180,96,712)"/><path d="M 110 698v 28h 28v -14a 14 14, 0, 0, 0, -14 -14" transform="rotate(90,124,712)"/><rect x="166" y="698" width="28" height="28" transform="rotate(0,180,712)"/><rect x="194" y="698" width="28" height="28" transform="rotate(0,208,712)"/><rect x="222" y="698" width="28" height="28" transform="rotate(0,236,712)"/><path d="M 250 698v 28h 28v -14a 14 14, 0, 0, 0, -14 -14" transform="rotate(0,264,712)"/><rect x="306" y="698" width="28" height="28" transform="rotate(0,320,712)"/><path d="M 390 698v 28h 14a 14 14, 0, 0, 0, 0 -28" transform="rotate(-90,404,712)"/><rect x="446" y="698" width="28" height="28" transform="rotate(0,460,712)"/><path d="M 502 698v 28h 28v -14a 14 14, 0, 0, 0, -14 -14" transform="rotate(180,516,712)"/><rect x="530" y="698" width="28" height="28" transform="rotate(0,544,712)"/><rect x="558" y="698" width="28" height="28" transform="rotate(0,572,712)"/><rect x="614" y="698" width="28" height="28" transform="rotate(0,628,712)"/><rect x="642" y="698" width="28" height="28" transform="rotate(0,656,712)"/><path d="M 670 698v 28h 28v -14a 14 14, 0, 0, 0, -14 -14" transform="rotate(90,684,712)"/><rect x="726" y="698" width="28" height="28" transform="rotate(0,740,712)"/><path d="M 838 698v 28h 14a 14 14, 0, 0, 0, 0 -28" transform="rotate(-90,852,712)"/><path d="M 922 698v 28h 28v -14a 14 14, 0, 0, 0, -14 -14" transform="rotate(180,936,712)"/><rect x="950" y="698" width="28" height="28" transform="rotate(0,964,712)"/><path d="M 978 698v 28h 28v -14a 14 14, 0, 0, 0, -14 -14" transform="rotate(90,992,712)"/><path d="M 1062 698v 28h 14a 14 14, 0, 0, 0, 0 -28" transform="rotate(-90,1076,712)"/><rect x="1118" y="698" width="28" height="28" transform="rotate(0,1132,712)"/><circle cx="68" cy="740" r="14" transform="rotate(0,68,740)"/><path d="M 138 726v 28h 14a 14 14, 0, 0, 0, 0 -28" transform="rotate(180,152,740)"/><rect x="166" y="726" width="28" height="28" transform="rotate(0,180,740)"/><rect x="222" y="726" width="28" height="28" transform="rotate(0,236,740)"/><rect x="250" y="726" width="28" height="28" transform="rotate(0,264,740)"/><path d="M 306 726v 28h 28v -14a 14 14, 0, 0, 0, -14 -14" transform="rotate(180,320,740)"/><path d="M 334 726v 28h 28v -14a 14 14, 0, 0, 0, -14 -14" transform="rotate(0,348,740)"/><rect x="390" y="726" width="28" height="28" transform="rotate(0,404,740)"/><rect x="446" y="726" width="28" height="28" transform="rotate(0,460,740)"/><path d="M 474 726v 28h 28v -14a 14 14, 0, 0, 0, -14 -14" transform="rotate(0,488,740)"/><rect x="558" y="726" width="28" height="28" transform="rotate(0,572,740)"/><rect x="614" y="726" width="28" height="28" transform="rotate(0,628,740)"/><path d="M 698 726v 28h 28v -14a 14 14, 0, 0, 0, -14 -14" transform="rotate(-90,712,740)"/><path d="M 726 726v 28h 28v -14a 14 14, 0, 0, 0, -14 -14" transform="rotate(90,740,740)"/><rect x="838" y="726" width="28" height="28" transform="rotate(0,852,740)"/><circle cx="908" cy="740" r="14" transform="rotate(0,908,740)"/><rect x="950" y="726" width="28" height="28" transform="rotate(0,964,740)"/><path d="M 1062 726v 28h 14a 14 14, 0, 0, 0, 0 -28" transform="rotate(90,1076,740)"/><rect x="1118" y="726" width="28" height="28" transform="rotate(0,1132,740)"/><circle cx="124" cy="768" r="14" transform="rotate(0,124,768)"/><path d="M 166 754v 28h 28v -14a 14 14, 0, 0, 0, -14 -14" transform="rotate(180,180,768)"/><rect x="194" y="754" width="28" height="28" transform="rotate(0,208,768)"/><rect x="222" y="754" width="28" height="28" transform="rotate(0,236,768)"/><path d="M 250 754v 28h 28v -14a 14 14, 0, 0, 0, -14 -14" transform="rotate(90,264,768)"/><rect x="334" y="754" width="28" height="28" transform="rotate(0,348,768)"/><path d="M 390 754v 28h 14a 14 14, 0, 0, 0, 0 -28" transform="rotate(90,404,768)"/><path d="M 446 754v 28h 28v -14a 14 14, 0, 0, 0, -14 -14" transform="rotate(180,460,768)"/><rect x="474" y="754" width="28" height="28" transform="rotate(0,488,768)"/><rect x="502" y="754" width="28" height="28" transform="rotate(0,516,768)"/><rect x="530" y="754" width="28" height="28" transform="rotate(0,544,768)"/><rect x="558" y="754" width="28" height="28" transform="rotate(0,572,768)"/><rect x="586" y="754" width="28" height="28" transform="rotate(0,600,768)"/><rect x="614" y="754" width="28" height="28" transform="rotate(0,628,768)"/><rect x="642" y="754" width="28" height="28" transform="rotate(0,656,768)"/><rect x="670" y="754" width="28" height="28" transform="rotate(0,684,768)"/><rect x="698" y="754" width="28" height="28" transform="rotate(0,712,768)"/><path d="M 754 754v 28h 14a 14 14, 0, 0, 0, 0 -28" transform="rotate(-90,768,768)"/><path d="M 810 754v 28h 28v -14a 14 14, 0, 0, 0, -14 -14" transform="rotate(-90,824,768)"/><rect x="838" y="754" width="28" height="28" transform="rotate(0,852,768)"/><path d="M 922 754v 28h 28v -14a 14 14, 0, 0, 0, -14 -14" transform="rotate(-90,936,768)"/><rect x="950" y="754" width="28" height="28" transform="rotate(0,964,768)"/><path d="M 978 754v 28h 14a 14 14, 0, 0, 0, 0 -28" transform="rotate(0,992,768)"/><path d="M 1034 754v 28h 14a 14 14, 0, 0, 0, 0 -28" transform="rotate(-90,1048,768)"/><rect x="1118" y="754" width="28" height="28" transform="rotate(0,1132,768)"/><path d="M 1146 754v 28h 28v -14a 14 14, 0, 0, 0, -14 -14" transform="rotate(0,1160,768)"/><path d="M 26 782v 28h 14a 14 14, 0, 0, 0, 0 -28" transform="rotate(180,40,796)"/><rect x="54" y="782" width="28" height="28" transform="rotate(0,68,796)"/><path d="M 82 782v 28h 28v -14a 14 14, 0, 0, 0, -14 -14" transform="rotate(0,96,796)"/><circle cx="152" cy="796" r="14" transform="rotate(0,152,796)"/><rect x="222" y="782" width="28" height="28" transform="rotate(0,236,796)"/><circle cx="292" cy="796" r="14" transform="rotate(0,292,796)"/><rect x="334" y="782" width="28" height="28" transform="rotate(0,348,796)"/><path d="M 362 782v 28h 28v -14a 14 14, 0, 0, 0, -14 -14" transform="rotate(0,376,796)"/><path d="M 418 782v 28h 14a 14 14, 0, 0, 0, 0 -28" transform="rotate(-90,432,796)"/><path d="M 530 782v 28h 28v -14a 14 14, 0, 0, 0, -14 -14" transform="rotate(180,544,796)"/><rect x="558" y="782" width="28" height="28" transform="rotate(0,572,796)"/><path d="M 642 782v 28h 28v -14a 14 14, 0, 0, 0, -14 -14" transform="rotate(180,656,796)"/><rect x="670" y="782" width="28" height="28" transform="rotate(0,684,796)"/><rect x="698" y="782" width="28" height="28" transform="rotate(0,712,796)"/><rect x="726" y="782" width="28" height="28" transform="rotate(0,740,796)"/><rect x="754" y="782" width="28" height="28" transform="rotate(0,768,796)"/><rect x="782" y="782" width="28" height="28" transform="rotate(0,796,796)"/><rect x="810" y="782" width="28" height="28" transform="rotate(0,824,796)"/><rect x="838" y="782" width="28" height="28" transform="rotate(0,852,796)"/><rect x="922" y="782" width="28" height="28" transform="rotate(0,936,796)"/><path d="M 1034 782v 28h 14a 14 14, 0, 0, 0, 0 -28" transform="rotate(90,1048,796)"/><path d="M 1118 782v 28h 28v -14a 14 14, 0, 0, 0, -14 -14" transform="rotate(180,1132,796)"/><path d="M 1146 782v 28h 28v -14a 14 14, 0, 0, 0, -14 -14" transform="rotate(90,1160,796)"/><path d="M 82 810v 28h 14a 14 14, 0, 0, 0, 0 -28" transform="rotate(90,96,824)"/><path d="M 166 810v 28h 14a 14 14, 0, 0, 0, 0 -28" transform="rotate(180,180,824)"/><rect x="194" y="810" width="28" height="28" transform="rotate(0,208,824)"/><path d="M 222 810v 28h 28v -14a 14 14, 0, 0, 0, -14 -14" transform="rotate(90,236,824)"/><path d="M 306 810v 28h 14a 14 14, 0, 0, 0, 0 -28" transform="rotate(180,320,824)"/><rect x="334" y="810" width="28" height="28" transform="rotate(0,348,824)"/><rect x="362" y="810" width="28" height="28" transform="rotate(0,376,824)"/><rect x="390" y="810" width="28" height="28" transform="rotate(0,404,824)"/><path d="M 418 810v 28h 28v -14a 14 14, 0, 0, 0, -14 -14" transform="rotate(90,432,824)"/><path d="M 474 810v 28h 14a 14 14, 0, 0, 0, 0 -28" transform="rotate(180,488,824)"/><path d="M 502 810v 28h 28v -14a 14 14, 0, 0, 0, -14 -14" transform="rotate(0,516,824)"/><path d="M 558 810v 28h 28v -14a 14 14, 0, 0, 0, -14 -14" transform="rotate(180,572,824)"/><path d="M 586 810v 28h 28v -14a 14 14, 0, 0, 0, -14 -14" transform="rotate(0,600,824)"/><path d="M 670 810v 28h 28v -14a 14 14, 0, 0, 0, -14 -14" transform="rotate(180,684,824)"/><rect x="698" y="810" width="28" height="28" transform="rotate(0,712,824)"/><path d="M 810 810v 28h 28v -14a 14 14, 0, 0, 0, -14 -14" transform="rotate(180,824,824)"/><rect x="838" y="810" width="28" height="28" transform="rotate(0,852,824)"/><path d="M 922 810v 28h 14a 14 14, 0, 0, 0, 0 -28" transform="rotate(90,936,824)"/><circle cx="68" cy="852" r="14" transform="rotate(0,68,852)"/><path d="M 110 838v 28h 14a 14 14, 0, 0, 0, 0 -28" transform="rotate(180,124,852)"/><path d="M 138 838v 28h 28v -14a 14 14, 0, 0, 0, -14 -14" transform="rotate(0,152,852)"/><rect x="362" y="838" width="28" height="28" transform="rotate(0,376,852)"/><path d="M 446 838v 28h 14a 14 14, 0, 0, 0, 0 -28" transform="rotate(-90,460,852)"/><rect x="502" y="838" width="28" height="28" transform="rotate(0,516,852)"/><path d="M 586 838v 28h 14a 14 14, 0, 0, 0, 0 -28" transform="rotate(90,600,852)"/><path d="M 642 838v 28h 14a 14 14, 0, 0, 0, 0 -28" transform="rotate(-90,656,852)"/><rect x="698" y="838" width="28" height="28" transform="rotate(0,712,852)"/><rect x="726" y="838" width="28" height="28" transform="rotate(0,740,852)"/><rect x="754" y="838" width="28" height="28" transform="rotate(0,768,852)"/><path d="M 782 838v 28h 14a 14 14, 0, 0, 0, 0 -28" transform="rotate(0,796,852)"/><path d="M 838 838v 28h 14a 14 14, 0, 0, 0, 0 -28" transform="rotate(90,852,852)"/><path d="M 894 838v 28h 14a 14 14, 0, 0, 0, 0 -28" transform="rotate(-90,908,852)"/><circle cx="964" cy="852" r="14" transform="rotate(0,964,852)"/><path d="M 1146 838v 28h 14a 14 14, 0, 0, 0, 0 -28" transform="rotate(-90,1160,852)"/><circle cx="40" cy="880" r="14" transform="rotate(0,40,880)"/><circle cx="96" cy="880" r="14" transform="rotate(0,96,880)"/><rect x="138" y="866" width="28" height="28" transform="rotate(0,152,880)"/><path d="M 194 866v 28h 14a 14 14, 0, 0, 0, 0 -28" transform="rotate(180,208,880)"/><path d="M 222 866v 28h 14a 14 14, 0, 0, 0, 0 -28" transform="rotate(0,236,880)"/><path d="M 278 866v 28h 14a 14 14, 0, 0, 0, 0 -28" transform="rotate(180,292,880)"/><rect x="306" y="866" width="28" height="28" transform="rotate(0,320,880)"/><rect x="334" y="866" width="28" height="28" transform="rotate(0,348,880)"/><path d="M 362 866v 28h 28v -14a 14 14, 0, 0, 0, -14 -14" transform="rotate(90,376,880)"/><rect x="446" y="866" width="28" height="28" transform="rotate(0,460,880)"/><path d="M 502 866v 28h 14a 14 14, 0, 0, 0, 0 -28" transform="rotate(90,516,880)"/><path d="M 614 866v 28h 14a 14 14, 0, 0, 0, 0 -28" transform="rotate(180,628,880)"/><rect x="642" y="866" width="28" height="28" transform="rotate(0,656,880)"/><rect x="670" y="866" width="28" height="28" transform="rotate(0,684,880)"/><rect x="698" y="866" width="28" height="28" transform="rotate(0,712,880)"/><rect x="894" y="866" width="28" height="28" transform="rotate(0,908,880)"/><path d="M 922 866v 28h 28v -14a 14 14, 0, 0, 0, -14 -14" transform="rotate(0,936,880)"/><path d="M 1006 866v 28h 14a 14 14, 0, 0, 0, 0 -28" transform="rotate(180,1020,880)"/><rect x="1034" y="866" width="28" height="28" transform="rotate(0,1048,880)"/><path d="M 1062 866v 28h 28v -14a 14 14, 0, 0, 0, -14 -14" transform="rotate(0,1076,880)"/><path d="M 1118 866v 28h 28v -14a 14 14, 0, 0, 0, -14 -14" transform="rotate(-90,1132,880)"/><path d="M 1146 866v 28h 28v -14a 14 14, 0, 0, 0, -14 -14" transform="rotate(90,1160,880)"/><path d="M 110 894v 28h 28v -14a 14 14, 0, 0, 0, -14 -14" transform="rotate(-90,124,908)"/><path d="M 138 894v 28h 28v -14a 14 14, 0, 0, 0, -14 -14" transform="rotate(90,152,908)"/><path d="M 306 894v 28h 14a 14 14, 0, 0, 0, 0 -28" transform="rotate(90,320,908)"/><path d="M 418 894v 28h 14a 14 14, 0, 0, 0, 0 -28" transform="rotate(180,432,908)"/><rect x="446" y="894" width="28" height="28" transform="rotate(0,460,908)"/><path d="M 474 894v 28h 28v -14a 14 14, 0, 0, 0, -14 -14" transform="rotate(0,488,908)"/><path d="M 530 894v 28h 28v -14a 14 14, 0, 0, 0, -14 -14" transform="rotate(-90,544,908)"/><rect x="558" y="894" width="28" height="28" transform="rotate(0,572,908)"/><path d="M 586 894v 28h 14a 14 14, 0, 0, 0, 0 -28" transform="rotate(0,600,908)"/><rect x="698" y="894" width="28" height="28" transform="rotate(0,712,908)"/><path d="M 754 894v 28h 28v -14a 14 14, 0, 0, 0, -14 -14" transform="rotate(-90,768,908)"/><rect x="782" y="894" width="28" height="28" transform="rotate(0,796,908)"/><rect x="810" y="894" width="28" height="28" transform="rotate(0,824,908)"/><rect x="838" y="894" width="28" height="28" transform="rotate(0,852,908)"/><rect x="866" y="894" width="28" height="28" transform="rotate(0,880,908)"/><rect x="894" y="894" width="28" height="28" transform="rotate(0,908,908)"/><rect x="922" y="894" width="28" height="28" transform="rotate(0,936,908)"/><path d="M 950 894v 28h 28v -14a 14 14, 0, 0, 0, -14 -14" transform="rotate(0,964,908)"/><rect x="1034" y="894" width="28" height="28" transform="rotate(0,1048,908)"/><path d="M 1062 894v 28h 28v -14a 14 14, 0, 0, 0, -14 -14" transform="rotate(90,1076,908)"/><path d="M 1118 894v 28h 14a 14 14, 0, 0, 0, 0 -28" transform="rotate(90,1132,908)"/><circle cx="40" cy="936" r="14" transform="rotate(0,40,936)"/><path d="M 82 922v 28h 14a 14 14, 0, 0, 0, 0 -28" transform="rotate(180,96,936)"/><path d="M 110 922v 28h 28v -14a 14 14, 0, 0, 0, -14 -14" transform="rotate(90,124,936)"/><circle cx="208" cy="936" r="14" transform="rotate(0,208,936)"/><path d="M 250 922v 28h 14a 14 14, 0, 0, 0, 0 -28" transform="rotate(-90,264,936)"/><circle cx="348" cy="936" r="14" transform="rotate(0,348,936)"/><rect x="474" y="922" width="28" height="28" transform="rotate(0,488,936)"/><rect x="502" y="922" width="28" height="28" transform="rotate(0,516,936)"/><rect x="530" y="922" width="28" height="28" transform="rotate(0,544,936)"/><path d="M 642 922v 28h 14a 14 14, 0, 0, 0, 0 -28" transform="rotate(-90,656,936)"/><rect x="698" y="922" width="28" height="28" transform="rotate(0,712,936)"/><rect x="726" y="922" width="28" height="28" transform="rotate(0,740,936)"/><rect x="754" y="922" width="28" height="28" transform="rotate(0,768,936)"/><rect x="810" y="922" width="28" height="28" transform="rotate(0,824,936)"/><rect x="894" y="922" width="28" height="28" transform="rotate(0,908,936)"/><rect x="922" y="922" width="28" height="28" transform="rotate(0,936,936)"/><rect x="950" y="922" width="28" height="28" transform="rotate(0,964,936)"/><rect x="978" y="922" width="28" height="28" transform="rotate(0,992,936)"/><rect x="1006" y="922" width="28" height="28" transform="rotate(0,1020,936)"/><rect x="1034" y="922" width="28" height="28" transform="rotate(0,1048,936)"/><path d="M 1090 922v 28h 14a 14 14, 0, 0, 0, 0 -28" transform="rotate(-90,1104,936)"/><path d="M 1146 922v 28h 14a 14 14, 0, 0, 0, 0 -28" transform="rotate(-90,1160,936)"/><rect x="250" y="950" width="28" height="28" transform="rotate(0,264,964)"/><path d="M 306 950v 28h 14a 14 14, 0, 0, 0, 0 -28" transform="rotate(-90,320,964)"/><path d="M 390 950v 28h 14a 14 14, 0, 0, 0, 0 -28" transform="rotate(180,404,964)"/><rect x="418" y="950" width="28" height="28" transform="rotate(0,432,964)"/><rect x="446" y="950" width="28" height="28" transform="rotate(0,460,964)"/><path d="M 474 950v 28h 28v -14a 14 14, 0, 0, 0, -14 -14" transform="rotate(90,488,964)"/><rect x="530" y="950" width="28" height="28" transform="rotate(0,544,964)"/><rect x="558" y="950" width="28" height="28" transform="rotate(0,572,964)"/><path d="M 586 950v 28h 14a 14 14, 0, 0, 0, 0 -28" transform="rotate(0,600,964)"/><rect x="642" y="950" width="28" height="28" transform="rotate(0,656,964)"/><rect x="698" y="950" width="28" height="28" transform="rotate(0,712,964)"/><rect x="726" y="950" width="28" height="28" transform="rotate(0,740,964)"/><rect x="754" y="950" width="28" height="28" transform="rotate(0,768,964)"/><rect x="810" y="950" width="28" height="28" transform="rotate(0,824,964)"/><path d="M 894 950v 28h 28v -14a 14 14, 0, 0, 0, -14 -14" transform="rotate(180,908,964)"/><rect x="922" y="950" width="28" height="28" transform="rotate(0,936,964)"/><rect x="1034" y="950" width="28" height="28" transform="rotate(0,1048,964)"/><rect x="1090" y="950" width="28" height="28" transform="rotate(0,1104,964)"/><rect x="1118" y="950" width="28" height="28" transform="rotate(0,1132,964)"/><path d="M 1146 950v 28h 28v -14a 14 14, 0, 0, 0, -14 -14" transform="rotate(90,1160,964)"/><rect x="250" y="978" width="28" height="28" transform="rotate(0,264,992)"/><rect x="306" y="978" width="28" height="28" transform="rotate(0,320,992)"/><rect x="334" y="978" width="28" height="28" transform="rotate(0,348,992)"/><path d="M 362 978v 28h 14a 14 14, 0, 0, 0, 0 -28" transform="rotate(0,376,992)"/><path d="M 446 978v 28h 14a 14 14, 0, 0, 0, 0 -28" transform="rotate(90,460,992)"/><path d="M 530 978v 28h 28v -14a 14 14, 0, 0, 0, -14 -14" transform="rotate(180,544,992)"/><path d="M 558 978v 28h 28v -14a 14 14, 0, 0, 0, -14 -14" transform="rotate(90,572,992)"/><path d="M 642 978v 28h 14a 14 14, 0, 0, 0, 0 -28" transform="rotate(90,656,992)"/><path d="M 698 978v 28h 28v -14a 14 14, 0, 0, 0, -14 -14" transform="rotate(180,712,992)"/><rect x="726" y="978" width="28" height="28" transform="rotate(0,740,992)"/><path d="M 754 978v 28h 28v -14a 14 14, 0, 0, 0, -14 -14" transform="rotate(90,768,992)"/><path d="M 810 978v 28h 28v -14a 14 14, 0, 0, 0, -14 -14" transform="rotate(180,824,992)"/><path d="M 838 978v 28h 28v -14a 14 14, 0, 0, 0, -14 -14" transform="rotate(0,852,992)"/><rect x="922" y="978" width="28" height="28" transform="rotate(0,936,992)"/><circle cx="992" cy="992" r="14" transform="rotate(0,992,992)"/><rect x="1034" y="978" width="28" height="28" transform="rotate(0,1048,992)"/><rect x="1062" y="978" width="28" height="28" transform="rotate(0,1076,992)"/><rect x="1090" y="978" width="28" height="28" transform="rotate(0,1104,992)"/><path d="M 250 1006v 28h 28v -14a 14 14, 0, 0, 0, -14 -14" transform="rotate(180,264,1020)"/><rect x="278" y="1006" width="28" height="28" transform="rotate(0,292,1020)"/><rect x="306" y="1006" width="28" height="28" transform="rotate(0,320,1020)"/><rect x="334" y="1006" width="28" height="28" transform="rotate(0,348,1020)"/><path d="M 474 1006v 28h 14a 14 14, 0, 0, 0, 0 -28" transform="rotate(180,488,1020)"/><path d="M 502 1006v 28h 14a 14 14, 0, 0, 0, 0 -28" transform="rotate(0,516,1020)"/><path d="M 586 1006v 28h 14a 14 14, 0, 0, 0, 0 -28" transform="rotate(-90,600,1020)"/><circle cx="684" cy="1020" r="14" transform="rotate(0,684,1020)"/><path d="M 726 1006v 28h 14a 14 14, 0, 0, 0, 0 -28" transform="rotate(90,740,1020)"/><path d="M 838 1006v 28h 14a 14 14, 0, 0, 0, 0 -28" transform="rotate(90,852,1020)"/><rect x="922" y="1006" width="28" height="28" transform="rotate(0,936,1020)"/><rect x="1034" y="1006" width="28" height="28" transform="rotate(0,1048,1020)"/><rect x="1062" y="1006" width="28" height="28" transform="rotate(0,1076,1020)"/><path d="M 1090 1006v 28h 28v -14a 14 14, 0, 0, 0, -14 -14" transform="rotate(90,1104,1020)"/><path d="M 278 1034v 28h 28v -14a 14 14, 0, 0, 0, -14 -14" transform="rotate(180,292,1048)"/><rect x="306" y="1034" width="28" height="28" transform="rotate(0,320,1048)"/><rect x="334" y="1034" width="28" height="28" transform="rotate(0,348,1048)"/><rect x="362" y="1034" width="28" height="28" transform="rotate(0,376,1048)"/><path d="M 390 1034v 28h 14a 14 14, 0, 0, 0, 0 -28" transform="rotate(0,404,1048)"/><path d="M 446 1034v 28h 14a 14 14, 0, 0, 0, 0 -28" transform="rotate(-90,460,1048)"/><path d="M 586 1034v 28h 28v -14a 14 14, 0, 0, 0, -14 -14" transform="rotate(180,600,1048)"/><path d="M 614 1034v 28h 28v -14a 14 14, 0, 0, 0, -14 -14" transform="rotate(0,628,1048)"/><path d="M 698 1034v 28h 14a 14 14, 0, 0, 0, 0 -28" transform="rotate(-90,712,1048)"/><path d="M 754 1034v 28h 14a 14 14, 0, 0, 0, 0 -28" transform="rotate(-90,768,1048)"/><circle cx="824" cy="1048" r="14" transform="rotate(0,824,1048)"/><path d="M 922 1034v 28h 28v -14a 14 14, 0, 0, 0, -14 -14" transform="rotate(180,936,1048)"/><rect x="950" y="1034" width="28" height="28" transform="rotate(0,964,1048)"/><rect x="978" y="1034" width="28" height="28" transform="rotate(0,992,1048)"/><rect x="1006" y="1034" width="28" height="28" transform="rotate(0,1020,1048)"/><rect x="1034" y="1034" width="28" height="28" transform="rotate(0,1048,1048)"/><circle cx="264" cy="1076" r="14" transform="rotate(0,264,1076)"/><rect x="306" y="1062" width="28" height="28" transform="rotate(0,320,1076)"/><rect x="334" y="1062" width="28" height="28" transform="rotate(0,348,1076)"/><rect x="362" y="1062" width="28" height="28" transform="rotate(0,376,1076)"/><path d="M 418 1062v 28h 28v -14a 14 14, 0, 0, 0, -14 -14" transform="rotate(-90,432,1076)"/><path d="M 446 1062v 28h 28v -14a 14 14, 0, 0, 0, -14 -14" transform="rotate(90,460,1076)"/><path d="M 502 1062v 28h 14a 14 14, 0, 0, 0, 0 -28" transform="rotate(180,516,1076)"/><path d="M 530 1062v 28h 28v -14a 14 14, 0, 0, 0, -14 -14" transform="rotate(0,544,1076)"/><rect x="614" y="1062" width="28" height="28" transform="rotate(0,628,1076)"/><path d="M 698 1062v 28h 14a 14 14, 0, 0, 0, 0 -28" transform="rotate(90,712,1076)"/><rect x="754" y="1062" width="28" height="28" transform="rotate(0,768,1076)"/><path d="M 894 1062v 28h 14a 14 14, 0, 0, 0, 0 -28" transform="rotate(-90,908,1076)"/><path d="M 950 1062v 28h 28v -14a 14 14, 0, 0, 0, -14 -14" transform="rotate(180,964,1076)"/><path d="M 978 1062v 28h 28v -14a 14 14, 0, 0, 0, -14 -14" transform="rotate(90,992,1076)"/><rect x="1034" y="1062" width="28" height="28" transform="rotate(0,1048,1076)"/><path d="M 1062 1062v 28h 14a 14 14, 0, 0, 0, 0 -28" transform="rotate(0,1076,1076)"/><path d="M 278 1090v 28h 28v -14a 14 14, 0, 0, 0, -14 -14" transform="rotate(-90,292,1104)"/><rect x="306" y="1090" width="28" height="28" transform="rotate(0,320,1104)"/><rect x="362" y="1090" width="28" height="28" transform="rotate(0,376,1104)"/><rect x="418" y="1090" width="28" height="28" transform="rotate(0,432,1104)"/><circle cx="488" cy="1104" r="14" transform="rotate(0,488,1104)"/><rect x="530" y="1090" width="28" height="28" transform="rotate(0,544,1104)"/><path d="M 586 1090v 28h 14a 14 14, 0, 0, 0, 0 -28" transform="rotate(180,600,1104)"/><path d="M 614 1090v 28h 28v -14a 14 14, 0, 0, 0, -14 -14" transform="rotate(90,628,1104)"/><path d="M 670 1090v 28h 14a 14 14, 0, 0, 0, 0 -28" transform="rotate(-90,684,1104)"/><path d="M 726 1090v 28h 28v -14a 14 14, 0, 0, 0, -14 -14" transform="rotate(-90,740,1104)"/><path d="M 754 1090v 28h 28v -14a 14 14, 0, 0, 0, -14 -14" transform="rotate(90,768,1104)"/><path d="M 838 1090v 28h 14a 14 14, 0, 0, 0, 0 -28" transform="rotate(-90,852,1104)"/><path d="M 894 1090v 28h 28v -14a 14 14, 0, 0, 0, -14 -14" transform="rotate(180,908,1104)"/><path d="M 922 1090v 28h 28v -14a 14 14, 0, 0, 0, -14 -14" transform="rotate(0,936,1104)"/><path d="M 1034 1090v 28h 14a 14 14, 0, 0, 0, 0 -28" transform="rotate(90,1048,1104)"/><circle cx="1160" cy="1104" r="14" transform="rotate(0,1160,1104)"/><path d="M 250 1118v 28h 14a 14 14, 0, 0, 0, 0 -28" transform="rotate(180,264,1132)"/><rect x="278" y="1118" width="28" height="28" transform="rotate(0,292,1132)"/><rect x="306" y="1118" width="28" height="28" transform="rotate(0,320,1132)"/><rect x="334" y="1118" width="28" height="28" transform="rotate(0,348,1132)"/><path d="M 362 1118v 28h 28v -14a 14 14, 0, 0, 0, -14 -14" transform="rotate(90,376,1132)"/><path d="M 418 1118v 28h 28v -14a 14 14, 0, 0, 0, -14 -14" transform="rotate(180,432,1132)"/><path d="M 446 1118v 28h 28v -14a 14 14, 0, 0, 0, -14 -14" transform="rotate(0,460,1132)"/><rect x="530" y="1118" width="28" height="28" transform="rotate(0,544,1132)"/><path d="M 642 1118v 28h 14a 14 14, 0, 0, 0, 0 -28" transform="rotate(180,656,1132)"/><rect x="670" y="1118" width="28" height="28" transform="rotate(0,684,1132)"/><rect x="698" y="1118" width="28" height="28" transform="rotate(0,712,1132)"/><path d="M 726 1118v 28h 28v -14a 14 14, 0, 0, 0, -14 -14" transform="rotate(90,740,1132)"/><rect x="838" y="1118" width="28" height="28" transform="rotate(0,852,1132)"/><rect x="922" y="1118" width="28" height="28" transform="rotate(0,936,1132)"/><path d="M 978 1118v 28h 28v -14a 14 14, 0, 0, 0, -14 -14" transform="rotate(-90,992,1132)"/><path d="M 1006 1118v 28h 28v -14a 14 14, 0, 0, 0, -14 -14" transform="rotate(0,1020,1132)"/><path d="M 1118 1118v 28h 14a 14 14, 0, 0, 0, 0 -28" transform="rotate(-90,1132,1132)"/><circle cx="404" cy="1160" r="14" transform="rotate(0,404,1160)"/><path d="M 446 1146v 28h 14a 14 14, 0, 0, 0, 0 -28" transform="rotate(90,460,1160)"/><path d="M 530 1146v 28h 28v -14a 14 14, 0, 0, 0, -14 -14" transform="rotate(180,544,1160)"/><rect x="558" y="1146" width="28" height="28" transform="rotate(0,572,1160)"/><rect x="586" y="1146" width="28" height="28" transform="rotate(0,600,1160)"/><path d="M 614 1146v 28h 14a 14 14, 0, 0, 0, 0 -28" transform="rotate(0,628,1160)"/><path d="M 670 1146v 28h 28v -14a 14 14, 0, 0, 0, -14 -14" transform="rotate(180,684,1160)"/><path d="M 698 1146v 28h 28v -14a 14 14, 0, 0, 0, -14 -14" transform="rotate(90,712,1160)"/><path d="M 810 1146v 28h 14a 14 14, 0, 0, 0, 0 -28" transform="rotate(180,824,1160)"/><path d="M 838 1146v 28h 28v -14a 14 14, 0, 0, 0, -14 -14" transform="rotate(90,852,1160)"/><path d="M 922 1146v 28h 14a 14 14, 0, 0, 0, 0 -28" transform="rotate(90,936,1160)"/><path d="M 978 1146v 28h 28v -14a 14 14, 0, 0, 0, -14 -14" transform="rotate(180,992,1160)"/><rect x="1006" y="1146" width="28" height="28" transform="rotate(0,1020,1160)"/><path d="M 1034 1146v 28h 14a 14 14, 0, 0, 0, 0 -28" transform="rotate(0,1048,1160)"/><path d="M 1118 1146v 28h 14a 14 14, 0, 0, 0, 0 -28" transform="rotate(90,1132,1160)"/></clipPath><clipPath id="clip-path-corners-square-color-0-0-465"><path clip-rule="evenodd" d="M 26 96v 56a 70 70, 0, 0, 0, 70 70h 56a 70 70, 0, 0, 0, 70 -70v -56a 70 70, 0, 0, 0, -70 -70h -56a 70 70, 0, 0, 0, -70 70M 96 54h 56a 42 42, 0, 0, 1, 42 42v 56a 42 42, 0, 0, 1, -42 42h -56a 42 42, 0, 0, 1, -42 -42v -56a 42 42, 0, 0, 1, 42 -42" transform="rotate(0,124,124)"/></clipPath><clipPath id="clip-path-corners-dot-color-0-0-465"><circle cx="124" cy="124" r="42" transform="rotate(0,124,124)"/></clipPath><clipPath id="clip-path-corners-square-color-1-0-465"><path clip-rule="evenodd" d="M 978 96v 56a 70 70, 0, 0, 0, 70 70h 56a 70 70, 0, 0, 0, 70 -70v -56a 70 70, 0, 0, 0, -70 -70h -56a 70 70, 0, 0, 0, -70 70M 1048 54h 56a 42 42, 0, 0, 1, 42 42v 56a 42 42, 0, 0, 1, -42 42h -56a 42 42, 0, 0, 1, -42 -42v -56a 42 42, 0, 0, 1, 42 -42" transform="rotate(90,1076,124)"/></clipPath><clipPath id="clip-path-corners-dot-color-1-0-465"><circle cx="1076" cy="124" r="42" transform="rotate(90,1076,124)"/></clipPath><clipPath id="clip-path-corners-square-color-0-1-465"><path clip-rule="evenodd" d="M 26 1048v 56a 70 70, 0, 0, 0, 70 70h 56a 70 70, 0, 0, 0, 70 -70v -56a 70 70, 0, 0, 0, -70 -70h -56a 70 70, 0, 0, 0, -70 70M 96 1006h 56a 42 42, 0, 0, 1, 42 42v 56a 42 42, 0, 0, 1, -42 42h -56a 42 42, 0, 0, 1, -42 -42v -56a 42 42, 0, 0, 1, 42 -42" transform="rotate(-90,124,1076)"/></clipPath><clipPath id="clip-path-corners-dot-color-0-1-465"><circle cx="124" cy="1076" r="42" transform="rotate(-90,124,1076)"/></clipPath></defs><rect x="0" y="0" height="1200" width="1200" clip-path="url('#clip-path-background-color-465')" fill="#ffffff"/><rect x="0" y="0" height="1200" width="1200" clip-path="url('#clip-path-dot-color-465')" fill="#000000"/><rect x="26" y="26" height="196" width="196" clip-path="url('#clip-path-corners-square-color-0-0-465')" fill="#000000"/><rect x="82" y="82" height="84" width="84" clip-path="url('#clip-path-corners-dot-color-0-0-465')" fill="#000000"/><rect x="978" y="26" height="196" width="196" clip-path="url('#clip-path-corners-square-color-1-0-465')" fill="#000000"/><rect x="1034" y="82" height="84" width="84" clip-path="url('#clip-path-corners-dot-color-1-0-465')" fill="#000000"/><rect x="26" y="978" height="196" width="196" clip-path="url('#clip-path-corners-square-color-0-1-465')" fill="#000000"/><rect x="82" y="1034" height="84" width="84" clip-path="url('#clip-path-corners-dot-color-0-1-465')" fill="#000000"/></svg>