<?xml version="1.0" standalone="no"?>
<svg xmlns="http://www.w3.org/2000/svg" width="1200" height="1200" xmlns:xlink="http://www.w3.org/1999/xlink" viewBox="0 0 1200 1200"><defs><clipPath id="clip-path-background-color-462"><rect x="0" y="0" width="1200" height="1200"/></clipPath><clipPath id="clip-path-dot-color-462"><path d="M 278 26v 28h 14a 14 14, 0, 0, 0, 0 -28" transform="rotate(-90,292,40)"/><path d="M 362 26v 28h 14a 14 14, 0, 0, 0, 0 -28" transform="rotate(180,376,40)"/><rect x="390" y="26" width="28" height="28" transform="rotate(0,404,40)"/><rect x="418" y="26" width="28" height="28" transform="rotate(0,432,40)"/><rect x="446" y="26" width="28" height="28" transform="rotate(0,460,40)"/><rect x="474" y="26" width="28" height="28" transform="rotate(0,488,40)"/><rect x="502" y="26" width="28" height="28" transform="rotate(0,516,40)"/><rect x="530" y="26" width="28" height="28" transform="rotate(0,544,40)"/><rect x="558" y="26" width="28" height="28" transform="rotate(0,572,40)"/><path d="M 586 26v 28h 28v -14a 14 14, 0, 0, 0, -14 -14" transform="rotate(0,600,40)"/><path d="M 642 26v 28h 14a 14 14, 0, 0, 0, 0 -28" transform="rotate(-90,656,40)"/><path d="M 782 26v 28h 14a 14 14, 0, 0, 0, 0 -28" transform="rotate(180,796,40)"/><rect x="810" y="26" width="28" height="28" transform="rotate(0,824,40)"/><path d="M 838 26v 28h 14a 14 14, 0, 0, 0, 0 -28" transform="rotate(0,852,40)"/><rect x="278" y="54" width="28" height="28" transform="rotate(0,292,68)"/><rect x="306" y="54" width="28" height="28" transform="rotate(0,320,68)"/><path d="M 334 54v 28h 28v -14a 14 14, 0, 0, 0, -14 -14" transform="rotate(0,348,68)"/><rect x="390" y="54" width="28" height="28" transform="rotate(0,404,68)"/><path d="M 418 54v 28h 28v -14a 14 14, 0, 0, 0, -14 -14" transform="rotate(90,432,68)"/><rect x="474" y="54" width="28" height="28" transform="rotate(0,488,68)"/><rect x="502" y="54" width="28" height="28" transform="rotate(0,516,68)"/><rect x="530" y="54" width="28" height="28" transform="rotate(0,544,68)"/><rect x="558" y="54" width="28" height="28" transform="rotate(0,572,68)"/><rect x="586" y="54" width="28" height="28" transform="rotate(0,600,68)"/><rect x="614" y="54" width="28" height="28" transform="rotate(0,628,68)"/><path d="M 642 54v 28h 28v -14a 14 14, 0, 0, 0, -14 -14" transform="rotate(90,656,68)"/><circle cx="908" cy="68" r="14" transform="rotate(0,908,68)"/><path d="M 250 82v 28h 14a 14 14, 0, 0, 0, 0 -28" transform="rotate(180,264,96)"/><rect x="278" y="82" width="28" height="28" transform="rotate(0,292,96)"/><rect x="334" y="82" width="28" height="28" transform="rotate(0,348,96)"/><rect x="362" y="82" width="28" height="28" transform="rotate(0,376,96)"/><path d="M 390 82v 28h 28v -14a 14 14, 0, 0, 0, -14 -14" transform="rotate(90,404,96)"/><rect x="474" y="82" width="28" height="28" transform="rotate(0,488,96)"/><path d="M 558 82v 28h 28v -14a 14 14, 0, 0, 0, -14 -14" transform="rotate(180,572,96)"/><rect x="586" y="82" width="28" height="28" transform="rotate(0,600,96)"/><rect x="614" y="82" width="28" height="28" transform="rotate(0,628,96)"/><circle cx="740" cy="96" r="14" transform="rotate(0,740,96)"/><path d="M 838 82v 28h 14a 14 14, 0, 0, 0, 0 -28" transform="rotate(-90,852,96)"/><path d="M 278 110v 28h 28v -14a 14 14, 0, 0, 0, -14 -14" transform="rotate(180,292,124)"/><rect x="306" y="110" width="28" height="28" transform="rotate(0,320,124)"/><path d="M 334 110v 28h 28v -14a 14 14, 0, 0, 0, -14 -14" transform="rotate(90,348,124)"/><rect x="474" y="110" width="28" height="28" transform="rotate(0,488,124)"/><rect x="502" y="110" width="28" height="28" transform="rotate(0,516,124)"/><path d="M 530 110v 28h 14a 14 14, 0, 0, 0, 0 -28" transform="rotate(0,544,124)"/><rect x="614" y="110" width="28" height="28" transform="rotate(0,628,124)"/><path d="M 670 110v 28h 28v -14a 14 14, 0, 0, 0, -14 -14" transform="rotate(-90,684,124)"/><path d="M 698 110v 28h 14a 14 14, 0, 0, 0, 0 -28" transform="rotate(0,712,124)"/><path d="M 754 110v 28h 14a 14 14, 0, 0, 0, 0 -28" transform="rotate(-90,768,124)"/><path d="M 810 110v 28h 28v -14a 14 14, 0, 0, 0, -14 -14" transform="rotate(-90,824,124)"/><path d="M 838 110v 28h 28v -14a 14 14, 0, 0, 0, -14 -14" transform="rotate(90,852,124)"/><circle cx="936" cy="124" r="14" transform="rotate(0,936,124)"/><path d="M 250 138v 28h 14a 14 14, 0, 0, 0, 0 -28" transform="rotate(-90,264,152)"/><path d="M 306 138v 28h 14a 14 14, 0, 0, 0, 0 -28" transform="rotate(90,320,152)"/><path d="M 362 138v 28h 14a 14 14, 0, 0, 0, 0 -28" transform="rotate(-90,376,152)"/><path d="M 446 138v 28h 14a 14 14, 0, 0, 0, 0 -28" transform="rotate(180,460,152)"/><rect x="474" y="138" width="28" height="28" transform="rotate(0,488,152)"/><path d="M 502 138v 28h 28v -14a 14 14, 0, 0, 0, -14 -14" transform="rotate(90,516,152)"/><path d="M 558 138v 28h 14a 14 14, 0, 0, 0, 0 -28" transform="rotate(180,572,152)"/><rect x="586" y="138" width="28" height="28" transform="rotate(0,600,152)"/><rect x="614" y="138" width="28" height="28" transform="rotate(0,628,152)"/><rect x="642" y="138" width="28" height="28" transform="rotate(0,656,152)"/><path d="M 670 138v 28h 28v -14a 14 14, 0, 0, 0, -14 -14" transform="rotate(90,684,152)"/><path d="M 726 138v 28h 14a 14 14, 0, 0, 0, 0 -28" transform="rotate(180,740,152)"/><rect x="754" y="138" width="28" height="28" transform="rotate(0,768,152)"/><rect x="782" y="138" width="28" height="28" transform="rotate(0,796,152)"/><path d="M 810 138v 28h 28v -14a 14 14, 0, 0, 0, -14 -14" transform="rotate(90,824,152)"/><path d="M 866 138v 28h 14a 14 14, 0, 0, 0, 0 -28" transform="rotate(-90,880,152)"/><rect x="250" y="166" width="28" height="28" transform="rotate(0,264,180)"/><path d="M 278 166v 28h 14a 14 14, 0, 0, 0, 0 -28" transform="rotate(0,292,180)"/><path d="M 334 166v 28h 14a 14 14, 0, 0, 0, 0 -28" transform="rotate(180,348,180)"/><rect x="362" y="166" width="28" height="28" transform="rotate(0,376,180)"/><path d="M 390 166v 28h 14a 14 14, 0, 0, 0, 0 -28" transform="rotate(0,404,180)"/><path d="M 530 166v 28h 14a 14 14, 0, 0, 0, 0 -28" transform="rotate(-90,544,180)"/><rect x="586" y="166" width="28" height="28" transform="rotate(0,600,180)"/><path d="M 698 166v 28h 14a 14 14, 0, 0, 0, 0 -28" transform="rotate(-90,712,180)"/><rect x="754" y="166" width="28" height="28" transform="rotate(0,768,180)"/><path d="M 838 166v 28h 14a 14 14, 0, 0, 0, 0 -28" transform="rotate(180,852,180)"/><rect x="866" y="166" width="28" height="28" transform="rotate(0,880,180)"/><path d="M 894 166v 28h 14a 14 14, 0, 0, 0, 0 -28" transform="rotate(0,908,180)"/><path d="M 250 194v 28h 14a 14 14, 0, 0, 0, 0 -28" transform="rotate(90,264,208)"/><circle cx="320" cy="208" r="14" transform="rotate(0,320,208)"/><rect x="362" y="194" width="28" height="28" transform="rotate(0,376,208)"/><path d="M 418 194v 28h 14a 14 14, 0, 0, 0, 0 -28" transform="rotate(-90,432,208)"/><path d="M 474 194v 28h 14a 14 14, 0, 0, 0, 0 -28" transform="rotate(-90,488,208)"/><path d="M 530 194v 28h 14a 14 14, 0, 0, 0, 0 -28" transform="rotate(90,544,208)"/><rect x="586" y="194" width="28" height="28" transform="rotate(0,600,208)"/><path d="M 642 194v 28h 14a 14 14, 0, 0, 0, 0 -28" transform="rotate(-90,656,208)"/><rect x="698" y="194" width="28" height="28" transform="rotate(0,712,208)"/><path d="M 754 194v 28h 14a 14 14, 0, 0, 0, 0 -28" transform="rotate(90,768,208)"/><path d="M 810 194v 28h 14a 14 14, 0, 0, 0, 0 -28" transform="rotate(-90,824,208)"/><rect x="866" y="194" width="28" height="28" transform="rotate(0,880,208)"/><path d="M 922 194v 28h 14a 14 14, 0, 0, 0, 0 -28" transform="rotate(-90,936,208)"/><circle cx="292" cy="236" r="14" transform="rotate(0,292,236)"/><path d="M 334 222v 28h 14a 14 14, 0, 0, 0, 0 -28" transform="rotate(180,348,236)"/><path d="M 362 222v 28h 28v -14a 14 14, 0, 0, 0, -14 -14" transform="rotate(90,376,236)"/><path d="M 418 222v 28h 14a 14 14, 0, 0, 0, 0 -28" transform="rotate(90,432,236)"/><rect x="474" y="222" width="28" height="28" transform="rotate(0,488,236)"/><path d="M 558 222v 28h 14a 14 14, 0, 0, 0, 0 -28" transform="rotate(180,572,236)"/><path d="M 586 222v 28h 28v -14a 14 14, 0, 0, 0, -14 -14" transform="rotate(90,600,236)"/><rect x="642" y="222" width="28" height="28" transform="rotate(0,656,236)"/><rect x="698" y="222" width="28" height="28" transform="rotate(0,712,236)"/><rect x="810" y="222" width="28" height="28" transform="rotate(0,824,236)"/><rect x="838" y="222" width="28" height="28" transform="rotate(0,852,236)"/><path d="M 866 222v 28h 28v -14a 14 14, 0, 0, 0, -14 -14" transform="rotate(90,880,236)"/><rect x="922" y="222" width="28" height="28" transform="rotate(0,936,236)"/><path d="M 54 250v 28h 14a 14 14, 0, 0, 0, 0 -28" transform="rotate(-90,68,264)"/><path d="M 138 250v 28h 14a 14 14, 0, 0, 0, 0 -28" transform="rotate(-90,152,264)"/><circle cx="208" cy="264" r="14" transform="rotate(0,208,264)"/><path d="M 250 250v 28h 14a 14 14, 0, 0, 0, 0 -28" transform="rotate(-90,264,264)"/><path d="M 306 250v 28h 14a 14 14, 0, 0, 0, 0 -28" transform="rotate(-90,320,264)"/><path d="M 446 250v 28h 28v -14a 14 14, 0, 0, 0, -14 -14" transform="rotate(-90,460,264)"/><rect x="474" y="250" width="28" height="28" transform="rotate(0,488,264)"/><path d="M 502 250v 28h 14a 14 14, 0, 0, 0, 0 -28" transform="rotate(0,516,264)"/><rect x="642" y="250" width="28" height="28" transform="rotate(0,656,264)"/><rect x="670" y="250" width="28" height="28" transform="rotate(0,684,264)"/><rect x="698" y="250" width="28" height="28" transform="rotate(0,712,264)"/><rect x="810" y="250" width="28" height="28" transform="rotate(0,824,264)"/><path d="M 838 250v 28h 28v -14a 14 14, 0, 0, 0, -14 -14" transform="rotate(90,852,264)"/><path d="M 894 250v 28h 14a 14 14, 0, 0, 0, 0 -28" transform="rotate(180,908,264)"/><rect x="922" y="250" width="28" height="28" transform="rotate(0,936,264)"/><path d="M 950 250v 28h 14a 14 14, 0, 0, 0, 0 -28" transform="rotate(0,964,264)"/><path d="M 1006 250v 28h 28v -14a 14 14, 0, 0, 0, -14 -14" transform="rotate(-90,1020,264)"/><path d="M 1034 250v 28h 28v -14a 14 14, 0, 0, 0, -14 -14" transform="rotate(0,1048,264)"/><circle cx="1104" cy="264" r="14" transform="rotate(0,1104,264)"/><path d="M 26 278v 28h 14a 14 14, 0, 0, 0, 0 -28" transform="rotate(180,40,292)"/><rect x="54" y="278" width="28" height="28" transform="rotate(0,68,292)"/><rect x="138" y="278" width="28" height="28" transform="rotate(0,152,292)"/><rect x="250" y="278" width="28" height="28" transform="rotate(0,264,292)"/><rect x="278" y="278" width="28" height="28" transform="rotate(0,292,292)"/><rect x="306" y="278" width="28" height="28" transform="rotate(0,320,292)"/><rect x="334" y="278" width="28" height="28" transform="rotate(0,348,292)"/><rect x="362" y="278" width="28" height="28" transform="rotate(0,376,292)"/><rect x="390" y="278" width="28" height="28" transform="rotate(0,404,292)"/><rect x="418" y="278" width="28" height="28" transform="rotate(0,432,292)"/><rect x="446" y="278" width="28" height="28" transform="rotate(0,460,292)"/><rect x="474" y="278" width="28" height="28" transform="rotate(0,488,292)"/><path d="M 558 278v 28h 14a 14 14, 0, 0, 0, 0 -28" transform="rotate(-90,572,292)"/><path d="M 614 278v 28h 28v -14a 14 14, 0, 0, 0, -14 -14" transform="rotate(-90,628,292)"/><rect x="642" y="278" width="28" height="28" transform="rotate(0,656,292)"/><path d="M 698 278v 28h 28v -14a 14 14, 0, 0, 0, -14 -14" transform="rotate(180,712,292)"/><rect x="726" y="278" width="28" height="28" transform="rotate(0,740,292)"/><rect x="754" y="278" width="28" height="28" transform="rotate(0,768,292)"/><rect x="782" y="278" width="28" height="28" transform="rotate(0,796,292)"/><path d="M 810 278v 28h 28v -14a 14 14, 0, 0, 0, -14 -14" transform="rotate(90,824,292)"/><path d="M 978 278v 28h 28v -14a 14 14, 0, 0, 0, -14 -14" transform="rotate(-90,992,292)"/><rect x="1006" y="278" width="28" height="28" transform="rotate(0,1020,292)"/><rect x="1034" y="278" width="28" height="28" transform="rotate(0,1048,292)"/><path d="M 1062 278v 28h 14a 14 14, 0, 0, 0, 0 -28" transform="rotate(0,1076,292)"/><path d="M 1118 278v 28h 14a 14 14, 0, 0, 0, 0 -28" transform="rotate(180,1132,292)"/><path d="M 1146 278v 28h 28v -14a 14 14, 0, 0, 0, -14 -14" transform="rotate(0,1160,292)"/><path d="M 54 306v 28h 14a 14 14, 0, 0, 0, 0 -28" transform="rotate(90,68,320)"/><rect x="138" y="306" width="28" height="28" transform="rotate(0,152,320)"/><path d="M 194 306v 28h 14a 14 14, 0, 0, 0, 0 -28" transform="rotate(180,208,320)"/><rect x="222" y="306" width="28" height="28" transform="rotate(0,236,320)"/><rect x="250" y="306" width="28" height="28" transform="rotate(0,264,320)"/><rect x="278" y="306" width="28" height="28" transform="rotate(0,292,320)"/><path d="M 306 306v 28h 28v -14a 14 14, 0, 0, 0, -14 -14" transform="rotate(90,320,320)"/><rect x="362" y="306" width="28" height="28" transform="rotate(0,376,320)"/><path d="M 418 306v 28h 28v -14a 14 14, 0, 0, 0, -14 -14" transform="rotate(180,432,320)"/><rect x="446" y="306" width="28" height="28" transform="rotate(0,460,320)"/><rect x="474" y="306" width="28" height="28" transform="rotate(0,488,320)"/><path d="M 502 306v 28h 28v -14a 14 14, 0, 0, 0, -14 -14" transform="rotate(0,516,320)"/><path d="M 558 306v 28h 28v -14a 14 14, 0, 0, 0, -14 -14" transform="rotate(180,572,320)"/><rect x="586" y="306" width="28" height="28" transform="rotate(0,600,320)"/><rect x="614" y="306" width="28" height="28" transform="rotate(0,628,320)"/><rect x="642" y="306" width="28" height="28" transform="rotate(0,656,320)"/><path d="M 670 306v 28h 28v -14a 14 14, 0, 0, 0, -14 -14" transform="rotate(0,684,320)"/><path d="M 754 306v 28h 28v -14a 14 14, 0, 0, 0, -14 -14" transform="rotate(180,768,320)"/><rect x="782" y="306" width="28" height="28" transform="rotate(0,796,320)"/><path d="M 922 306v 28h 28v -14a 14 14, 0, 0, 0, -14 -14" transform="rotate(-90,936,320)"/><rect x="950" y="306" width="28" height="28" transform="rotate(0,964,320)"/><path d="M 978 306v 28h 28v -14a 14 14, 0, 0, 0, -14 -14" transform="rotate(90,992,320)"/><rect x="1034" y="306" width="28" height="28" transform="rotate(0,1048,320)"/><rect x="1146" y="306" width="28" height="28" transform="rotate(0,1160,320)"/><path d="M 26 334v 28h 14a 14 14, 0, 0, 0, 0 -28" transform="rotate(-90,40,348)"/><path d="M 82 334v 28h 14a 14 14, 0, 0, 0, 0 -28" transform="rotate(-90,96,348)"/><rect x="138" y="334" width="28" height="28" transform="rotate(0,152,348)"/><path d="M 334 334v 28h 28v -14a 14 14, 0, 0, 0, -14 -14" transform="rotate(-90,348,348)"/><path d="M 362 334v 28h 28v -14a 14 14, 0, 0, 0, -14 -14" transform="rotate(90,376,348)"/><path d="M 502 334v 28h 28v -14a 14 14, 0, 0, 0, -14 -14" transform="rotate(180,516,348)"/><path d="M 530 334v 28h 28v -14a 14 14, 0, 0, 0, -14 -14" transform="rotate(0,544,348)"/><rect x="586" y="334" width="28" height="28" transform="rotate(0,600,348)"/><rect x="670" y="334" width="28" height="28" transform="rotate(0,684,348)"/><path d="M 782 334v 28h 14a 14 14, 0, 0, 0, 0 -28" transform="rotate(90,796,348)"/><path d="M 838 334v 28h 14a 14 14, 0, 0, 0, 0 -28" transform="rotate(-90,852,348)"/><path d="M 894 334v 28h 14a 14 14, 0, 0, 0, 0 -28" transform="rotate(180,908,348)"/><rect x="922" y="334" width="28" height="28" transform="rotate(0,936,348)"/><path d="M 1006 334v 28h 14a 14 14, 0, 0, 0, 0 -28" transform="rotate(180,1020,348)"/><rect x="1034" y="334" width="28" height="28" transform="rotate(0,1048,348)"/><path d="M 1062 334v 28h 14a 14 14, 0, 0, 0, 0 -28" transform="rotate(0,1076,348)"/><path d="M 1146 334v 28h 14a 14 14, 0, 0, 0, 0 -28" transform="rotate(90,1160,348)"/><path d="M 26 362v 28h 28v -14a 14 14, 0, 0, 0, -14 -14" transform="rotate(180,40,376)"/><rect x="54" y="362" width="28" height="28" transform="rotate(0,68,376)"/><path d="M 82 362v 28h 28v -14a 14 14, 0, 0, 0, -14 -14" transform="rotate(90,96,376)"/><rect x="138" y="362" width="28" height="28" transform="rotate(0,152,376)"/><path d="M 194 362v 28h 14a 14 14, 0, 0, 0, 0 -28" transform="rotate(180,208,376)"/><rect x="222" y="362" width="28" height="28" transform="rotate(0,236,376)"/><path d="M 250 362v 28h 28v -14a 14 14, 0, 0, 0, -14 -14" transform="rotate(0,264,376)"/><rect x="334" y="362" width="28" height="28" transform="rotate(0,348,376)"/><circle cx="432" cy="376" r="14" transform="rotate(0,432,376)"/><circle cx="488" cy="376" r="14" transform="rotate(0,488,376)"/><path d="M 530 362v 28h 14a 14 14, 0, 0, 0, 0 -28" transform="rotate(90,544,376)"/><path d="M 586 362v 28h 14a 14 14, 0, 0, 0, 0 -28" transform="rotate(90,600,376)"/><path d="M 670 362v 28h 28v -14a 14 14, 0, 0, 0, -14 -14" transform="rotate(180,684,376)"/><path d="M 698 362v 28h 14a 14 14, 0, 0, 0, 0 -28" transform="rotate(0,712,376)"/><path d="M 754 362v 28h 14a 14 14, 0, 0, 0, 0 -28" transform="rotate(-90,768,376)"/><path d="M 810 362v 28h 14a 14 14, 0, 0, 0, 0 -28" transform="rotate(180,824,376)"/><path d="M 838 362v 28h 28v -14a 14 14, 0, 0, 0, -14 -14" transform="rotate(90,852,376)"/><path d="M 922 362v 28h 28v -14a 14 14, 0, 0, 0, -14 -14" transform="rotate(180,936,376)"/><path d="M 950 362v 28h 14a 14 14, 0, 0, 0, 0 -28" transform="rotate(0,964,376)"/><circle cx="1132" cy="376" r="14" transform="rotate(0,1132,376)"/><path d="M 110 390v 28h 28v -14a 14 14, 0, 0, 0, -14 -14" transform="rotate(-90,124,404)"/><rect x="138" y="390" width="28" height="28" transform="rotate(0,152,404)"/><path d="M 166 390v 28h 28v -14a 14 14, 0, 0, 0, -14 -14" transform="rotate(0,180,404)"/><path d="M 222 390v 28h 28v -14a 14 14, 0, 0, 0, -14 -14" transform="rotate(180,236,404)"/><rect x="250" y="390" width="28" height="28" transform="rotate(0,264,404)"/><rect x="278" y="390" width="28" height="28" transform="rotate(0,292,404)"/><rect x="306" y="390" width="28" height="28" transform="rotate(0,320,404)"/><rect x="334" y="390" width="28" height="28" transform="rotate(0,348,404)"/><circle cx="460" cy="404" r="14" transform="rotate(0,460,404)"/><circle cx="516" cy="404" r="14" transform="rotate(0,516,404)"/><path d="M 642 390v 28h 14a 14 14, 0, 0, 0, 0 -28" transform="rotate(-90,656,404)"/><path d="M 754 390v 28h 14a 14 14, 0, 0, 0, 0 -28" transform="rotate(90,768,404)"/><path d="M 978 390v 28h 28v -14a 14 14, 0, 0, 0, -14 -14" transform="rotate(-90,992,404)"/><rect x="1006" y="390" width="28" height="28" transform="rotate(0,1020,404)"/><rect x="1034" y="390" width="28" height="28" transform="rotate(0,1048,404)"/><rect x="1062" y="390" width="28" height="28" transform="rotate(0,1076,404)"/><path d="M 1090 390v 28h 28v -14a 14 14, 0, 0, 0, -14 -14" transform="rotate(0,1104,404)"/><path d="M 1146 390v 28h 14a 14 14, 0, 0, 0, 0 -28" transform="rotate(-90,1160,404)"/><path d="M 54 418v 28h 28v -14a 14 14, 0, 0, 0, -14 -14" transform="rotate(-90,68,432)"/><rect x="82" y="418" width="28" height="28" transform="rotate(0,96,432)"/><path d="M 110 418v 28h 28v -14a 14 14, 0, 0, 0, -14 -14" transform="rotate(90,124,432)"/><path d="M 166 418v 28h 28v -14a 14 14, 0, 0, 0, -14 -14" transform="rotate(180,180,432)"/><path d="M 194 418v 28h 14a 14 14, 0, 0, 0, 0 -28" transform="rotate(0,208,432)"/><path d="M 250 418v 28h 14a 14 14, 0, 0, 0, 0 -28" transform="rotate(90,264,432)"/><path d="M 334 418v 28h 28v -14a 14 14, 0, 0, 0, -14 -14" transform="rotate(180,348,432)"/><rect x="362" y="418" width="28" height="28" transform="rotate(0,376,432)"/><rect x="390" y="418" width="28" height="28" transform="rotate(0,404,432)"/><path d="M 418 418v 28h 14a 14 14, 0, 0, 0, 0 -28" transform="rotate(0,432,432)"/><path d="M 558 418v 28h 14a 14 14, 0, 0, 0, 0 -28" transform="rotate(-90,572,432)"/><path d="M 642 418v 28h 14a 14 14, 0, 0, 0, 0 -28" transform="rotate(90,656,432)"/><path d="M 782 418v 28h 14a 14 14, 0, 0, 0, 0 -28" transform="rotate(-90,796,432)"/><path d="M 838 418v 28h 28v -14a 14 14, 0, 0, 0, -14 -14" transform="rotate(-90,852,432)"/><path d="M 866 418v 28h 14a 14 14, 0, 0, 0, 0 -28" transform="rotate(0,880,432)"/><path d="M 950 418v 28h 14a 14 14, 0, 0, 0, 0 -28" transform="rotate(180,964,432)"/><path d="M 978 418v 28h 28v -14a 14 14, 0, 0, 0, -14 -14" transform="rotate(90,992,432)"/><rect x="1034" y="418" width="28" height="28" transform="rotate(0,1048,432)"/><rect x="1062" y="418" width="28" height="28" transform="rotate(0,1076,432)"/><path d="M 1090 418v 28h 28v -14a 14 14, 0, 0, 0, -14 -14" transform="rotate(90,1104,432)"/><rect x="1146" y="418" width="28" height="28" transform="rotate(0,1160,432)"/><path d="M 26 446v 28h 28v -14a 14 14, 0, 0, 0, -14 -14" transform="rotate(-90,40,460)"/><path d="M 54 446v 28h 28v -14a 14 14, 0, 0, 0, -14 -14" transform="rotate(90,68,460)"/><path d="M 138 446v 28h 14a 14 14, 0, 0, 0, 0 -28" transform="rotate(-90,152,460)"/><rect x="362" y="446" width="28" height="28" transform="rotate(0,376,460)"/><rect x="390" y="446" width="28" height="28" transform="rotate(0,404,460)"/><circle cx="460" cy="460" r="14" transform="rotate(0,460,460)"/><path d="M 530 446v 28h 14a 14 14, 0, 0, 0, 0 -28" transform="rotate(180,544,460)"/><rect x="558" y="446" width="28" height="28" transform="rotate(0,572,460)"/><rect x="586" y="446" width="28" height="28" transform="rotate(0,600,460)"/><path d="M 614 446v 28h 28v -14a 14 14, 0, 0, 0, -14 -14" transform="rotate(0,628,460)"/><path d="M 698 446v 28h 14a 14 14, 0, 0, 0, 0 -28" transform="rotate(-90,712,460)"/><path d="M 754 446v 28h 14a 14 14, 0, 0, 0, 0 -28" transform="rotate(180,768,460)"/><rect x="782" y="446" width="28" height="28" transform="rotate(0,796,460)"/><rect x="810" y="446" width="28" height="28" transform="rotate(0,824,460)"/><rect x="838" y="446" width="28" height="28" transform="rotate(0,852,460)"/><path d="M 922 446v 28h 14a 14 14, 0, 0, 0, 0 -28" transform="rotate(-90,936,460)"/><path d="M 1034 446v 28h 28v -14a 14 14, 0, 0, 0, -14 -14" transform="rotate(180,1048,460)"/><rect x="1062" y="446" width="28" height="28" transform="rotate(0,1076,460)"/><path d="M 1118 446v 28h 28v -14a 14 14, 0, 0, 0, -14 -14" transform="rotate(-90,1132,460)"/><path d="M 1146 446v 28h 28v -14a 14 14, 0, 0, 0, -14 -14" transform="rotate(90,1160,460)"/><rect x="26" y="474" width="28" height="28" transform="rotate(0,40,488)"/><path d="M 138 474v 28h 14a 14 14, 0, 0, 0, 0 -28" transform="rotate(90,152,488)"/><circle cx="208" cy="488" r="14" transform="rotate(0,208,488)"/><circle cx="264" cy="488" r="14" transform="rotate(0,264,488)"/><rect x="362" y="474" width="28" height="28" transform="rotate(0,376,488)"/><rect x="390" y="474" width="28" height="28" transform="rotate(0,404,488)"/><path d="M 418 474v 28h 14a 14 14, 0, 0, 0, 0 -28" transform="rotate(0,432,488)"/><circle cx="516" cy="488" r="14" transform="rotate(0,516,488)"/><rect x="614" y="474" width="28" height="28" transform="rotate(0,628,488)"/><rect x="642" y="474" width="28" height="28" transform="rotate(0,656,488)"/><rect x="670" y="474" width="28" height="28" transform="rotate(0,684,488)"/><path d="M 698 474v 28h 28v -14a 14 14, 0, 0, 0, -14 -14" transform="rotate(90,712,488)"/><rect x="838" y="474" width="28" height="28" transform="rotate(0,852,488)"/><path d="M 866 474v 28h 28v -14a 14 14, 0, 0, 0, -14 -14" transform="rotate(0,880,488)"/><path d="M 922 474v 28h 14a 14 14, 0, 0, 0, 0 -28" transform="rotate(90,936,488)"/><path d="M 1006 474v 28h 14a 14 14, 0, 0, 0, 0 -28" transform="rotate(-90,1020,488)"/><rect x="1062" y="474" width="28" height="28" transform="rotate(0,1076,488)"/><path d="M 1118 474v 28h 14a 14 14, 0, 0, 0, 0 -28" transform="rotate(90,1132,488)"/><path d="M 26 502v 28h 28v -14a 14 14, 0, 0, 0, -14 -14" transform="rotate(180,40,516)"/><path d="M 54 502v 28h 14a 14 14, 0, 0, 0, 0 -28" transform="rotate(0,68,516)"/><circle cx="124" cy="516" r="14" transform="rotate(0,124,516)"/><circle cx="292" cy="516" r="14" transform="rotate(0,292,516)"/><rect x="362" y="502" width="28" height="28" transform="rotate(0,376,516)"/><circle cx="572" cy="516" r="14" transform="rotate(0,572,516)"/><rect x="614" y="502" width="28" height="28" transform="rotate(0,628,516)"/><rect x="642" y="502" width="28" height="28" transform="rotate(0,656,516)"/><rect x="670" y="502" width="28" height="28" transform="rotate(0,684,516)"/><path d="M 726 502v 28h 14a 14 14, 0, 0, 0, 0 -28" transform="rotate(180,740,516)"/><rect x="754" y="502" width="28" height="28" transform="rotate(0,768,516)"/><rect x="782" y="502" width="28" height="28" transform="rotate(0,796,516)"/><rect x="810" y="502" width="28" height="28" transform="rotate(0,824,516)"/><rect x="838" y="502" width="28" height="28" transform="rotate(0,852,516)"/><rect x="866" y="502" width="28" height="28" transform="rotate(0,880,516)"/><path d="M 950 502v 28h 28v -14a 14 14, 0, 0, 0, -14 -14" transform="rotate(-90,964,516)"/><rect x="978" y="502" width="28" height="28" transform="rotate(0,992,516)"/><rect x="1006" y="502" width="28" height="28" transform="rotate(0,1020,516)"/><rect x="1034" y="502" width="28" height="28" transform="rotate(0,1048,516)"/><rect x="1062" y="502" width="28" height="28" transform="rotate(0,1076,516)"/><path d="M 1090 502v 28h 14a 14 14, 0, 0, 0, 0 -28" transform="rotate(0,1104,516)"/><path d="M 1146 502v 28h 14a 14 14, 0, 0, 0, 0 -28" transform="rotate(-90,1160,516)"/><path d="M 138 530v 28h 14a 14 14, 0, 0, 0, 0 -28" transform="rotate(180,152,544)"/><rect x="166" y="530" width="28" height="28" transform="rotate(0,180,544)"/><rect x="194" y="530" width="28" height="28" transform="rotate(0,208,544)"/><rect x="222" y="530" width="28" height="28" transform="rotate(0,236,544)"/><path d="M 250 530v 28h 14a 14 14, 0, 0, 0, 0 -28" transform="rotate(0,264,544)"/><path d="M 334 530v 28h 28v -14a 14 14, 0, 0, 0, -14 -14" transform="rotate(-90,348,544)"/><rect x="362" y="530" width="28" height="28" transform="rotate(0,376,544)"/><path d="M 390 530v 28h 14a 14 14, 0, 0, 0, 0 -28" transform="rotate(0,404,544)"/><path d="M 446 530v 28h 14a 14 14, 0, 0, 0, 0 -28" transform="rotate(180,460,544)"/><path d="M 474 530v 28h 14a 14 14, 0, 0, 0, 0 -28" transform="rotate(0,488,544)"/><path d="M 530 530v 28h 14a 14 14, 0, 0, 0, 0 -28" transform="rotate(-90,544,544)"/><path d="M 586 530v 28h 14a 14 14, 0, 0, 0, 0 -28" transform="rotate(180,600,544)"/><rect x="614" y="530" width="28" height="28" transform="rotate(0,628,544)"/><rect x="670" y="530" width="28" height="28" transform="rotate(0,684,544)"/><path d="M 698 530v 28h 14a 14 14, 0, 0, 0, 0 -28" transform="rotate(0,712,544)"/><rect x="782" y="530" width="28" height="28" transform="rotate(0,796,544)"/><path d="M 866 530v 28h 14a 14 14, 0, 0, 0, 0 -28" transform="rotate(90,880,544)"/><path d="M 950 530v 28h 14a 14 14, 0, 0, 0, 0 -28" transform="rotate(90,964,544)"/><rect x="1006" y="530" width="28" height="28" transform="rotate(0,1020,544)"/><rect x="1062" y="530" width="28" height="28" transform="rotate(0,1076,544)"/><path d="M 1146 530v 28h 14a 14 14, 0, 0, 0, 0 -28" transform="rotate(90,1160,544)"/><path d="M 26 558v 28h 28v -14a 14 14, 0, 0, 0, -14 -14" transform="rotate(-90,40,572)"/><rect x="54" y="558" width="28" height="28" transform="rotate(0,68,572)"/><rect x="82" y="558" width="28" height="28" transform="rotate(0,96,572)"/><path d="M 110 558v 28h 14a 14 14, 0, 0, 0, 0 -28" transform="rotate(0,124,572)"/><rect x="222" y="558" width="28" height="28" transform="rotate(0,236,572)"/><path d="M 306 558v 28h 28v -14a 14 14, 0, 0, 0, -14 -14" transform="rotate(-90,320,572)"/><path d="M 334 558v 28h 28v -14a 14 14, 0, 0, 0, -14 -14" transform="rotate(90,348,572)"/><circle cx="432" cy="572" r="14" transform="rotate(0,432,572)"/><path d="M 530 558v 28h 28v -14a 14 14, 0, 0, 0, -14 -14" transform="rotate(180,544,572)"/><path d="M 558 558v 28h 14a 14 14, 0, 0, 0, 0 -28" transform="rotate(0,572,572)"/><rect x="614" y="558" width="28" height="28" transform="rotate(0,628,572)"/><rect x="642" y="558" width="28" height="28" transform="rotate(0,656,572)"/><rect x="670" y="558" width="28" height="28" transform="rotate(0,684,572)"/><path d="M 754 558v 28h 28v -14a 14 14, 0, 0, 0, -14 -14" transform="rotate(-90,768,572)"/><rect x="782" y="558" width="28" height="28" transform="rotate(0,796,572)"/><path d="M 810 558v 28h 28v -14a 14 14, 0, 0, 0, -14 -14" transform="rotate(0,824,572)"/><path d="M 894 558v 28h 14a 14 14, 0, 0, 0, 0 -28" transform="rotate(-90,908,572)"/><path d="M 978 558v 28h 14a 14 14, 0, 0, 0, 0 -28" transform="rotate(180,992,572)"/><rect x="1006" y="558" width="28" height="28" transform="rotate(0,1020,572)"/><rect x="1062" y="558" width="28" height="28" transform="rotate(0,1076,572)"/><path d="M 1118 558v 28h 14a 14 14, 0, 0, 0, 0 -28" transform="rotate(-90,1132,572)"/><rect x="26" y="586" width="28" height="28" transform="rotate(0,40,600)"/><path d="M 54 586v 28h 28v -14a 14 14, 0, 0, 0, -14 -14" transform="rotate(90,68,600)"/><path d="M 194 586v 28h 14a 14 14, 0, 0, 0, 0 -28" transform="rotate(180,208,600)"/><rect x="222" y="586" width="28" height="28" transform="rotate(0,236,600)"/><rect x="250" y="586" width="28" height="28" transform="rotate(0,264,600)"/><rect x="278" y="586" width="28" height="28" transform="rotate(0,292,600)"/><rect x="306" y="586" width="28" height="28" transform="rotate(0,320,600)"/><circle cx="376" cy="600" r="14" transform="rotate(0,376,600)"/><path d="M 586 586v 28h 14a 14 14, 0, 0, 0, 0 -28" transform="rotate(180,600,600)"/><rect x="614" y="586" width="28" height="28" transform="rotate(0,628,600)"/><rect x="642" y="586" width="28" height="28" transform="rotate(0,656,600)"/><rect x="670" y="586" width="28" height="28" transform="rotate(0,684,600)"/><path d="M 726 586v 28h 28v -14a 14 14, 0, 0, 0, -14 -14" transform="rotate(-90,740,600)"/><rect x="754" y="586" width="28" height="28" transform="rotate(0,768,600)"/><rect x="782" y="586" width="28" height="28" transform="rotate(0,796,600)"/><rect x="810" y="586" width="28" height="28" transform="rotate(0,824,600)"/><path d="M 894 586v 28h 28v -14a 14 14, 0, 0, 0, -14 -14" transform="rotate(180,908,600)"/><rect x="922" y="586" width="28" height="28" transform="rotate(0,936,600)"/><path d="M 950 586v 28h 14a 14 14, 0, 0, 0, 0 -28" transform="rotate(0,964,600)"/><rect x="1006" y="586" width="28" height="28" transform="rotate(0,1020,600)"/><rect x="1062" y="586" width="28" height="28" transform="rotate(0,1076,600)"/><path d="M 1118 586v 28h 28v -14a 14 14, 0, 0, 0, -14 -14" transform="rotate(180,1132,600)"/><path d="M 1146 586v 28h 28v -14a 14 14, 0, 0, 0, -14 -14" transform="rotate(0,1160,600)"/><rect x="26" y="614" width="28" height="28" transform="rotate(0,40,628)"/><path d="M 82 614v 28h 14a 14 14, 0, 0, 0, 0 -28" transform="rotate(-90,96,628)"/><path d="M 138 614v 28h 14a 14 14, 0, 0, 0, 0 -28" transform="rotate(180,152,628)"/><path d="M 166 614v 28h 14a 14 14, 0, 0, 0, 0 -28" transform="rotate(0,180,628)"/><path d="M 250 614v 28h 28v -14a 14 14, 0, 0, 0, -14 -14" transform="rotate(180,264,628)"/><rect x="278" y="614" width="28" height="28" transform="rotate(0,292,628)"/><rect x="306" y="614" width="28" height="28" transform="rotate(0,320,628)"/><path d="M 334 614v 28h 28v -14a 14 14, 0, 0, 0, -14 -14" transform="rotate(0,348,628)"/><path d="M 390 614v 28h 14a 14 14, 0, 0, 0, 0 -28" transform="rotate(180,404,628)"/><path d="M 418 614v 28h 14a 14 14, 0, 0, 0, 0 -28" transform="rotate(0,432,628)"/><path d="M 502 614v 28h 14a 14 14, 0, 0, 0, 0 -28" transform="rotate(-90,516,628)"/><path d="M 614 614v 28h 28v -14a 14 14, 0, 0, 0, -14 -14" transform="rotate(180,628,628)"/><rect x="642" y="614" width="28" height="28" transform="rotate(0,656,628)"/><rect x="670" y="614" width="28" height="28" transform="rotate(0,684,628)"/><path d="M 726 614v 28h 14a 14 14, 0, 0, 0, 0 -28" transform="rotate(90,740,628)"/><rect x="782" y="614" width="28" height="28" transform="rotate(0,796,628)"/><path d="M 810 614v 28h 28v -14a 14 14, 0, 0, 0, -14 -14" transform="rotate(90,824,628)"/><path d="M 866 614v 28h 14a 14 14, 0, 0, 0, 0 -28" transform="rotate(-90,880,628)"/><path d="M 978 614v 28h 14a 14 14, 0, 0, 0, 0 -28" transform="rotate(180,992,628)"/><rect x="1006" y="614" width="28" height="28" transform="rotate(0,1020,628)"/><rect x="1034" y="614" width="28" height="28" transform="rotate(0,1048,628)"/><rect x="1062" y="614" width="28" height="28" transform="rotate(0,1076,628)"/><path d="M 1090 614v 28h 28v -14a 14 14, 0, 0, 0, -14 -14" transform="rotate(0,1104,628)"/><rect x="1146" y="614" width="28" height="28" transform="rotate(0,1160,628)"/><rect x="26" y="642" width="28" height="28" transform="rotate(0,40,656)"/><rect x="54" y="642" width="28" height="28" transform="rotate(0,68,656)"/><rect x="82" y="642" width="28" height="28" transform="rotate(0,96,656)"/><path d="M 110 642v 28h 14a 14 14, 0, 0, 0, 0 -28" transform="rotate(0,124,656)"/><path d="M 194 642v 28h 14a 14 14, 0, 0, 0, 0 -28" transform="rotate(180,208,656)"/><path d="M 222 642v 28h 28v -14a 14 14, 0, 0, 0, -14 -14" transform="rotate(0,236,656)"/><rect x="306" y="642" width="28" height="28" transform="rotate(0,320,656)"/><rect x="334" y="642" width="28" height="28" transform="rotate(0,348,656)"/><path d="M 446 642v 28h 28v -14a 14 14, 0, 0, 0, -14 -14" transform="rotate(-90,460,656)"/><rect x="474" y="642" width="28" height="28" transform="rotate(0,488,656)"/><path d="M 502 642v 28h 28v -14a 14 14, 0, 0, 0, -14 -14" transform="rotate(90,516,656)"/><path d="M 670 642v 28h 28v -14a 14 14, 0, 0, 0, -14 -14" transform="rotate(180,684,656)"/><path d="M 698 642v 28h 28v -14a 14 14, 0, 0, 0, -14 -14" transform="rotate(0,712,656)"/><path d="M 754 642v 28h 28v -14a 14 14, 0, 0, 0, -14 -14" transform="rotate(-90,768,656)"/><rect x="782" y="642" width="28" height="28" transform="rotate(0,796,656)"/><path d="M 838 642v 28h 28v -14a 14 14, 0, 0, 0, -14 -14" transform="rotate(-90,852,656)"/><rect x="866" y="642" width="28" height="28" transform="rotate(0,880,656)"/><circle cx="936" cy="656" r="14" transform="rotate(0,936,656)"/><path d="M 1090 642v 28h 14a 14 14, 0, 0, 0, 0 -28" transform="rotate(90,1104,656)"/><rect x="1146" y="642" width="28" height="28" transform="rotate(0,1160,656)"/><rect x="26" y="670" width="28" height="28" transform="rotate(0,40,684)"/><path d="M 54 670v 28h 28v -14a 14 14, 0, 0, 0, -14 -14" transform="rotate(90,68,684)"/><circle cx="152" cy="684" r="14" transform="rotate(0,152,684)"/><path d="M 222 670v 28h 14a 14 14, 0, 0, 0, 0 -28" transform="rotate(90,236,684)"/><path d="M 278 670v 28h 14a 14 14, 0, 0, 0, 0 -28" transform="rotate(180,292,684)"/><rect x="306" y="670" width="28" height="28" transform="rotate(0,320,684)"/><path d="M 334 670v 28h 28v -14a 14 14, 0, 0, 0, -14 -14" transform="rotate(90,348,684)"/><path d="M 418 670v 28h 14a 14 14, 0, 0, 0, 0 -28" transform="rotate(180,432,684)"/><rect x="446" y="670" width="28" height="28" transform="rotate(0,460,684)"/><path d="M 586 670v 28h 14a 14 14, 0, 0, 0, 0 -28" transform="rotate(180,600,684)"/><path d="M 614 670v 28h 28v -14a 14 14, 0, 0, 0, -14 -14" transform="rotate(0,628,684)"/><path d="M 698 670v 28h 14a 14 14, 0, 0, 0, 0 -28" transform="rotate(90,712,684)"/><path d="M 754 670v 28h 28v -14a 14 14, 0, 0, 0, -14 -14" transform="rotate(180,768,684)"/><rect x="782" y="670" width="28" height="28" transform="rotate(0,796,684)"/><rect x="810" y="670" width="28" height="28" transform="rotate(0,824,684)"/><rect x="838" y="670" width="28" height="28" transform="rotate(0,852,684)"/><rect x="866" y="670" width="28" height="28" transform="rotate(0,880,684)"/><path d="M 894 670v 28h 28v -14a 14 14, 0, 0, 0, -14 -14" transform="rotate(0,908,684)"/><path d="M 1034 670v 28h 14a 14 14, 0, 0, 0, 0 -28" transform="rotate(180,1048,684)"/><path d="M 1062 670v 28h 28v -14a 14 14, 0, 0, 0, -14 -14" transform="rotate(0,1076,684)"/><path d="M 1146 670v 28h 14a 14 14, 0, 0, 0, 0 -28" transform="rotate(90,1160,684)"/><rect x="26" y="698" width="28" height="28" transform="rotate(0,40,712)"/><path d="M 166 698v 28h 28v -14a 14 14, 0, 0, 0, -14 -14" transform="rotate(-90,180,712)"/><path d="M 194 698v 28h 14a 14 14, 0, 0, 0, 0 -28" transform="rotate(0,208,712)"/><circle cx="376" cy="712" r="14" transform="rotate(0,376,712)"/><rect x="446" y="698" width="28" height="28" transform="rotate(0,460,712)"/><circle cx="544" cy="712" r="14" transform="rotate(0,544,712)"/><path d="M 614 698v 28h 28v -14a 14 14, 0, 0, 0, -14 -14" transform="rotate(180,628,712)"/><rect x="642" y="698" width="28" height="28" transform="rotate(0,656,712)"/><path d="M 670 698v 28h 28v -14a 14 14, 0, 0, 0, -14 -14" transform="rotate(0,684,712)"/><rect x="810" y="698" width="28" height="28" transform="rotate(0,824,712)"/><path d="M 838 698v 28h 28v -14a 14 14, 0, 0, 0, -14 -14" transform="rotate(90,852,712)"/><path d="M 894 698v 28h 28v -14a 14 14, 0, 0, 0, -14 -14" transform="rotate(180,908,712)"/><rect x="922" y="698" width="28" height="28" transform="rotate(0,936,712)"/><path d="M 950 698v 28h 14a 14 14, 0, 0, 0, 0 -28" transform="rotate(0,964,712)"/><path d="M 1062 698v 28h 14a 14 14, 0, 0, 0, 0 -28" transform="rotate(90,1076,712)"/><path d="M 26 726v 28h 28v -14a 14 14, 0, 0, 0, -14 -14" transform="rotate(180,40,740)"/><rect x="54" y="726" width="28" height="28" transform="rotate(0,68,740)"/><path d="M 82 726v 28h 14a 14 14, 0, 0, 0, 0 -28" transform="rotate(0,96,740)"/><path d="M 166 726v 28h 14a 14 14, 0, 0, 0, 0 -28" transform="rotate(90,180,740)"/><path d="M 250 726v 28h 28v -14a 14 14, 0, 0, 0, -14 -14" transform="rotate(-90,264,740)"/><rect x="278" y="726" width="28" height="28" transform="rotate(0,292,740)"/><path d="M 306 726v 28h 14a 14 14, 0, 0, 0, 0 -28" transform="rotate(0,320,740)"/><path d="M 446 726v 28h 28v -14a 14 14, 0, 0, 0, -14 -14" transform="rotate(180,460,740)"/><rect x="474" y="726" width="28" height="28" transform="rotate(0,488,740)"/><path d="M 502 726v 28h 28v -14a 14 14, 0, 0, 0, -14 -14" transform="rotate(0,516,740)"/><rect x="670" y="726" width="28" height="28" transform="rotate(0,684,740)"/><path d="M 754 726v 28h 28v -14a 14 14, 0, 0, 0, -14 -14" transform="rotate(-90,768,740)"/><rect x="782" y="726" width="28" height="28" transform="rotate(0,796,740)"/><rect x="810" y="726" width="28" height="28" transform="rotate(0,824,740)"/><path d="M 866 726v 28h 14a 14 14, 0, 0, 0, 0 -28" transform="rotate(-90,880,740)"/><rect x="922" y="726" width="28" height="28" transform="rotate(0,936,740)"/><path d="M 978 726v 28h 14a 14 14, 0, 0, 0, 0 -28" transform="rotate(180,992,740)"/><rect x="1006" y="726" width="28" height="28" transform="rotate(0,1020,740)"/><path d="M 1034 726v 28h 14a 14 14, 0, 0, 0, 0 -28" transform="rotate(0,1048,740)"/><path d="M 1090 726v 28h 14a 14 14, 0, 0, 0, 0 -28" transform="rotate(180,1104,740)"/><rect x="1118" y="726" width="28" height="28" transform="rotate(0,1132,740)"/><path d="M 1146 726v 28h 28v -14a 14 14, 0, 0, 0, -14 -14" transform="rotate(0,1160,740)"/><path d="M 54 754v 28h 14a 14 14, 0, 0, 0, 0 -28" transform="rotate(90,68,768)"/><path d="M 110 754v 28h 14a 14 14, 0, 0, 0, 0 -28" transform="rotate(180,124,768)"/><path d="M 138 754v 28h 14a 14 14, 0, 0, 0, 0 -28" transform="rotate(0,152,768)"/><circle cx="208" cy="768" r="14" transform="rotate(0,208,768)"/><path d="M 250 754v 28h 28v -14a 14 14, 0, 0, 0, -14 -14" transform="rotate(180,264,768)"/><rect x="278" y="754" width="28" height="28" transform="rotate(0,292,768)"/><path d="M 390 754v 28h 14a 14 14, 0, 0, 0, 0 -28" transform="rotate(-90,404,768)"/><path d="M 502 754v 28h 14a 14 14, 0, 0, 0, 0 -28" transform="rotate(90,516,768)"/><circle cx="572" cy="768" r="14" transform="rotate(0,572,768)"/><path d="M 642 754v 28h 14a 14 14, 0, 0, 0, 0 -28" transform="rotate(180,656,768)"/><rect x="670" y="754" width="28" height="28" transform="rotate(0,684,768)"/><rect x="754" y="754" width="28" height="28" transform="rotate(0,768,768)"/><rect x="782" y="754" width="28" height="28" transform="rotate(0,796,768)"/><rect x="810" y="754" width="28" height="28" transform="rotate(0,824,768)"/><rect x="838" y="754" width="28" height="28" transform="rotate(0,852,768)"/><path d="M 866 754v 28h 28v -14a 14 14, 0, 0, 0, -14 -14" transform="rotate(90,880,768)"/><rect x="922" y="754" width="28" height="28" transform="rotate(0,936,768)"/><path d="M 1146 754v 28h 14a 14 14, 0, 0, 0, 0 -28" transform="rotate(90,1160,768)"/><path d="M 26 782v 28h 14a 14 14, 0, 0, 0, 0 -28" transform="rotate(-90,40,796)"/><circle cx="180" cy="796" r="14" transform="rotate(0,180,796)"/><path d="M 278 782v 28h 28v -14a 14 14, 0, 0, 0, -14 -14" transform="rotate(180,292,796)"/><rect x="306" y="782" width="28" height="28" transform="rotate(0,320,796)"/><path d="M 334 782v 28h 14a 14 14, 0, 0, 0, 0 -28" transform="rotate(0,348,796)"/><rect x="390" y="782" width="28" height="28" transform="rotate(0,404,796)"/><rect x="418" y="782" width="28" height="28" transform="rotate(0,432,796)"/><rect x="446" y="782" width="28" height="28" transform="rotate(0,460,796)"/><path d="M 474 782v 28h 14a 14 14, 0, 0, 0, 0 -28" transform="rotate(0,488,796)"/><circle cx="544" cy="796" r="14" transform="rotate(0,544,796)"/><circle cx="600" cy="796" r="14" transform="rotate(0,600,796)"/><rect x="670" y="782" width="28" height="28" transform="rotate(0,684,796)"/><path d="M 698 782v 28h 14a 14 14, 0, 0, 0, 0 -28" transform="rotate(0,712,796)"/><path d="M 754 782v 28h 28v -14a 14 14, 0, 0, 0, -14 -14" transform="rotate(180,768,796)"/><path d="M 782 782v 28h 28v -14a 14 14, 0, 0, 0, -14 -14" transform="rotate(90,796,796)"/><rect x="838" y="782" width="28" height="28" transform="rotate(0,852,796)"/><path d="M 894 782v 28h 14a 14 14, 0, 0, 0, 0 -28" transform="rotate(180,908,796)"/><rect x="922" y="782" width="28" height="28" transform="rotate(0,936,796)"/><circle cx="992" cy="796" r="14" transform="rotate(0,992,796)"/><path d="M 1034 782v 28h 14a 14 14, 0, 0, 0, 0 -28" transform="rotate(180,1048,796)"/><path d="M 1062 782v 28h 14a 14 14, 0, 0, 0, 0 -28" transform="rotate(0,1076,796)"/><rect x="26" y="810" width="28" height="28" transform="rotate(0,40,824)"/><path d="M 54 810v 28h 28v -14a 14 14, 0, 0, 0, -14 -14" transform="rotate(0,68,824)"/><circle cx="208" cy="824" r="14" transform="rotate(0,208,824)"/><path d="M 306 810v 28h 14a 14 14, 0, 0, 0, 0 -28" transform="rotate(90,320,824)"/><path d="M 362 810v 28h 28v -14a 14 14, 0, 0, 0, -14 -14" transform="rotate(-90,376,824)"/><rect x="390" y="810" width="28" height="28" transform="rotate(0,404,824)"/><rect x="418" y="810" width="28" height="28" transform="rotate(0,432,824)"/><path d="M 446 810v 28h 28v -14a 14 14, 0, 0, 0, -14 -14" transform="rotate(90,460,824)"/><path d="M 502 810v 28h 14a 14 14, 0, 0, 0, 0 -28" transform="rotate(-90,516,824)"/><path d="M 670 810v 28h 14a 14 14, 0, 0, 0, 0 -28" transform="rotate(90,684,824)"/><rect x="838" y="810" width="28" height="28" transform="rotate(0,852,824)"/><path d="M 922 810v 28h 28v -14a 14 14, 0, 0, 0, -14 -14" transform="rotate(180,936,824)"/><path d="M 950 810v 28h 14a 14 14, 0, 0, 0, 0 -28" transform="rotate(0,964,824)"/><path d="M 1118 810v 28h 14a 14 14, 0, 0, 0, 0 -28" transform="rotate(-90,1132,824)"/><path d="M 26 838v 28h 28v -14a 14 14, 0, 0, 0, -14 -14" transform="rotate(180,40,852)"/><path d="M 54 838v 28h 28v -14a 14 14, 0, 0, 0, -14 -14" transform="rotate(90,68,852)"/><path d="M 138 838v 28h 14a 14 14, 0, 0, 0, 0 -28" transform="rotate(-90,152,852)"/><path d="M 278 838v 28h 14a 14 14, 0, 0, 0, 0 -28" transform="rotate(-90,292,852)"/><path d="M 334 838v 28h 28v -14a 14 14, 0, 0, 0, -14 -14" transform="rotate(-90,348,852)"/><rect x="362" y="838" width="28" height="28" transform="rotate(0,376,852)"/><path d="M 474 838v 28h 28v -14a 14 14, 0, 0, 0, -14 -14" transform="rotate(-90,488,852)"/><rect x="502" y="838" width="28" height="28" transform="rotate(0,516,852)"/><path d="M 530 838v 28h 14a 14 14, 0, 0, 0, 0 -28" transform="rotate(0,544,852)"/><path d="M 614 838v 28h 28v -14a 14 14, 0, 0, 0, -14 -14" transform="rotate(-90,628,852)"/><path d="M 642 838v 28h 14a 14 14, 0, 0, 0, 0 -28" transform="rotate(0,656,852)"/><path d="M 698 838v 28h 14a 14 14, 0, 0, 0, 0 -28" transform="rotate(-90,712,852)"/><path d="M 754 838v 28h 14a 14 14, 0, 0, 0, 0 -28" transform="rotate(-90,768,852)"/><path d="M 810 838v 28h 28v -14a 14 14, 0, 0, 0, -14 -14" transform="rotate(-90,824,852)"/><rect x="838" y="838" width="28" height="28" transform="rotate(0,852,852)"/><path d="M 866 838v 28h 28v -14a 14 14, 0, 0, 0, -14 -14" transform="rotate(0,880,852)"/><circle cx="992" cy="852" r="14" transform="rotate(0,992,852)"/><circle cx="1048" cy="852" r="14" transform="rotate(0,1048,852)"/><path d="M 1118 838v 28h 28v -14a 14 14, 0, 0, 0, -14 -14" transform="rotate(180,1132,852)"/><path d="M 1146 838v 28h 28v -14a 14 14, 0, 0, 0, -14 -14" transform="rotate(0,1160,852)"/><path d="M 110 866v 28h 28v -14a 14 14, 0, 0, 0, -14 -14" transform="rotate(-90,124,880)"/><rect x="138" y="866" width="28" height="28" transform="rotate(0,152,880)"/><path d="M 194 866v 28h 14a 14 14, 0, 0, 0, 0 -28" transform="rotate(180,208,880)"/><rect x="222" y="866" width="28" height="28" transform="rotate(0,236,880)"/><rect x="250" y="866" width="28" height="28" transform="rotate(0,264,880)"/><rect x="278" y="866" width="28" height="28" transform="rotate(0,292,880)"/><rect x="334" y="866" width="28" height="28" transform="rotate(0,348,880)"/><path d="M 362 866v 28h 28v -14a 14 14, 0, 0, 0, -14 -14" transform="rotate(90,376,880)"/><path d="M 446 866v 28h 14a 14 14, 0, 0, 0, 0 -28" transform="rotate(180,460,880)"/><rect x="474" y="866" width="28" height="28" transform="rotate(0,488,880)"/><path d="M 586 866v 28h 14a 14 14, 0, 0, 0, 0 -28" transform="rotate(180,600,880)"/><path d="M 614 866v 28h 28v -14a 14 14, 0, 0, 0, -14 -14" transform="rotate(90,628,880)"/><path d="M 670 866v 28h 28v -14a 14 14, 0, 0, 0, -14 -14" transform="rotate(-90,684,880)"/><path d="M 698 866v 28h 28v -14a 14 14, 0, 0, 0, -14 -14" transform="rotate(90,712,880)"/><path d="M 754 866v 28h 14a 14 14, 0, 0, 0, 0 -28" transform="rotate(90,768,880)"/><path d="M 810 866v 28h 28v -14a 14 14, 0, 0, 0, -14 -14" transform="rotate(180,824,880)"/><rect x="838" y="866" width="28" height="28" transform="rotate(0,852,880)"/><rect x="866" y="866" width="28" height="28" transform="rotate(0,880,880)"/><path d="M 922 866v 28h 14a 14 14, 0, 0, 0, 0 -28" transform="rotate(180,936,880)"/><path d="M 950 866v 28h 28v -14a 14 14, 0, 0, 0, -14 -14" transform="rotate(0,964,880)"/><path d="M 1062 866v 28h 28v -14a 14 14, 0, 0, 0, -14 -14" transform="rotate(-90,1076,880)"/><path d="M 1090 866v 28h 14a 14 14, 0, 0, 0, 0 -28" transform="rotate(0,1104,880)"/><path d="M 1146 866v 28h 14a 14 14, 0, 0, 0, 0 -28" transform="rotate(90,1160,880)"/><rect x="110" y="894" width="28" height="28" transform="rotate(0,124,908)"/><rect x="138" y="894" width="28" height="28" transform="rotate(0,152,908)"/><path d="M 166 894v 28h 14a 14 14, 0, 0, 0, 0 -28" transform="rotate(0,180,908)"/><path d="M 278 894v 28h 28v -14a 14 14, 0, 0, 0, -14 -14" transform="rotate(180,292,908)"/><rect x="306" y="894" width="28" height="28" transform="rotate(0,320,908)"/><rect x="334" y="894" width="28" height="28" transform="rotate(0,348,908)"/><rect x="474" y="894" width="28" height="28" transform="rotate(0,488,908)"/><path d="M 530 894v 28h 14a 14 14, 0, 0, 0, 0 -28" transform="rotate(-90,544,908)"/><path d="M 670 894v 28h 14a 14 14, 0, 0, 0, 0 -28" transform="rotate(90,684,908)"/><rect x="838" y="894" width="28" height="28" transform="rotate(0,852,908)"/><path d="M 866 894v 28h 28v -14a 14 14, 0, 0, 0, -14 -14" transform="rotate(90,880,908)"/><rect x="950" y="894" width="28" height="28" transform="rotate(0,964,908)"/><path d="M 1034 894v 28h 28v -14a 14 14, 0, 0, 0, -14 -14" transform="rotate(-90,1048,908)"/><rect x="1062" y="894" width="28" height="28" transform="rotate(0,1076,908)"/><circle cx="1132" cy="908" r="14" transform="rotate(0,1132,908)"/><path d="M 26 922v 28h 14a 14 14, 0, 0, 0, 0 -28" transform="rotate(180,40,936)"/><path d="M 54 922v 28h 14a 14 14, 0, 0, 0, 0 -28" transform="rotate(0,68,936)"/><path d="M 110 922v 28h 14a 14 14, 0, 0, 0, 0 -28" transform="rotate(90,124,936)"/><path d="M 194 922v 28h 14a 14 14, 0, 0, 0, 0 -28" transform="rotate(180,208,936)"/><path d="M 222 922v 28h 14a 14 14, 0, 0, 0, 0 -28" transform="rotate(0,236,936)"/><rect x="306" y="922" width="28" height="28" transform="rotate(0,320,936)"/><rect x="334" y="922" width="28" height="28" transform="rotate(0,348,936)"/><path d="M 362 922v 28h 14a 14 14, 0, 0, 0, 0 -28" transform="rotate(0,376,936)"/><path d="M 474 922v 28h 14a 14 14, 0, 0, 0, 0 -28" transform="rotate(90,488,936)"/><rect x="530" y="922" width="28" height="28" transform="rotate(0,544,936)"/><rect x="558" y="922" width="28" height="28" transform="rotate(0,572,936)"/><rect x="586" y="922" width="28" height="28" transform="rotate(0,600,936)"/><path d="M 614 922v 28h 28v -14a 14 14, 0, 0, 0, -14 -14" transform="rotate(0,628,936)"/><circle cx="712" cy="936" r="14" transform="rotate(0,712,936)"/><path d="M 782 922v 28h 14a 14 14, 0, 0, 0, 0 -28" transform="rotate(-90,796,936)"/><path d="M 838 922v 28h 14a 14 14, 0, 0, 0, 0 -28" transform="rotate(90,852,936)"/><path d="M 894 922v 28h 28v -14a 14 14, 0, 0, 0, -14 -14" transform="rotate(-90,908,936)"/><rect x="922" y="922" width="28" height="28" transform="rotate(0,936,936)"/><rect x="950" y="922" width="28" height="28" transform="rotate(0,964,936)"/><rect x="978" y="922" width="28" height="28" transform="rotate(0,992,936)"/><rect x="1006" y="922" width="28" height="28" transform="rotate(0,1020,936)"/><rect x="1034" y="922" width="28" height="28" transform="rotate(0,1048,936)"/><path d="M 1062 922v 28h 28v -14a 14 14, 0, 0, 0, -14 -14" transform="rotate(90,1076,936)"/><path d="M 250 950v 28h 14a 14 14, 0, 0, 0, 0 -28" transform="rotate(180,264,964)"/><rect x="278" y="950" width="28" height="28" transform="rotate(0,292,964)"/><rect x="306" y="950" width="28" height="28" transform="rotate(0,320,964)"/><rect x="334" y="950" width="28" height="28" transform="rotate(0,348,964)"/><circle cx="404" cy="964" r="14" transform="rotate(0,404,964)"/><path d="M 446 950v 28h 14a 14 14, 0, 0, 0, 0 -28" transform="rotate(-90,460,964)"/><path d="M 502 950v 28h 14a 14 14, 0, 0, 0, 0 -28" transform="rotate(180,516,964)"/><rect x="530" y="950" width="28" height="28" transform="rotate(0,544,964)"/><rect x="614" y="950" width="28" height="28" transform="rotate(0,628,964)"/><path d="M 670 950v 28h 14a 14 14, 0, 0, 0, 0 -28" transform="rotate(-90,684,964)"/><path d="M 754 950v 28h 28v -14a 14 14, 0, 0, 0, -14 -14" transform="rotate(-90,768,964)"/><rect x="782" y="950" width="28" height="28" transform="rotate(0,796,964)"/><path d="M 810 950v 28h 28v -14a 14 14, 0, 0, 0, -14 -14" transform="rotate(0,824,964)"/><rect x="894" y="950" width="28" height="28" transform="rotate(0,908,964)"/><rect x="922" y="950" width="28" height="28" transform="rotate(0,936,964)"/><rect x="1034" y="950" width="28" height="28" transform="rotate(0,1048,964)"/><path d="M 1146 950v 28h 14a 14 14, 0, 0, 0, 0 -28" transform="rotate(-90,1160,964)"/><path d="M 334 978v 28h 14a 14 14, 0, 0, 0, 0 -28" transform="rotate(90,348,992)"/><path d="M 418 978v 28h 14a 14 14, 0, 0, 0, 0 -28" transform="rotate(180,432,992)"/><rect x="446" y="978" width="28" height="28" transform="rotate(0,460,992)"/><path d="M 530 978v 28h 14a 14 14, 0, 0, 0, 0 -28" transform="rotate(90,544,992)"/><path d="M 614 978v 28h 28v -14a 14 14, 0, 0, 0, -14 -14" transform="rotate(180,628,992)"/><rect x="642" y="978" width="28" height="28" transform="rotate(0,656,992)"/><path d="M 670 978v 28h 28v -14a 14 14, 0, 0, 0, -14 -14" transform="rotate(90,684,992)"/><path d="M 726 978v 28h 28v -14a 14 14, 0, 0, 0, -14 -14" transform="rotate(-90,740,992)"/><rect x="754" y="978" width="28" height="28" transform="rotate(0,768,992)"/><rect x="782" y="978" width="28" height="28" transform="rotate(0,796,992)"/><rect x="810" y="978" width="28" height="28" transform="rotate(0,824,992)"/><path d="M 838 978v 28h 28v -14a 14 14, 0, 0, 0, -14 -14" transform="rotate(0,852,992)"/><rect x="894" y="978" width="28" height="28" transform="rotate(0,908,992)"/><rect x="922" y="978" width="28" height="28" transform="rotate(0,936,992)"/><circle cx="992" cy="992" r="14" transform="rotate(0,992,992)"/><rect x="1034" y="978" width="28" height="28" transform="rotate(0,1048,992)"/><path d="M 1118 978v 28h 14a 14 14, 0, 0, 0, 0 -28" transform="rotate(180,1132,992)"/><rect x="1146" y="978" width="28" height="28" transform="rotate(0,1160,992)"/><path d="M 362 1006v 28h 14a 14 14, 0, 0, 0, 0 -28" transform="rotate(-90,376,1020)"/><path d="M 446 1006v 28h 28v -14a 14 14, 0, 0, 0, -14 -14" transform="rotate(180,460,1020)"/><rect x="474" y="1006" width="28" height="28" transform="rotate(0,488,1020)"/><path d="M 502 1006v 28h 28v -14a 14 14, 0, 0, 0, -14 -14" transform="rotate(0,516,1020)"/><path d="M 558 1006v 28h 28v -14a 14 14, 0, 0, 0, -14 -14" transform="rotate(-90,572,1020)"/><path d="M 586 1006v 28h 28v -14a 14 14, 0, 0, 0, -14 -14" transform="rotate(0,600,1020)"/><path d="M 698 1006v 28h 28v -14a 14 14, 0, 0, 0, -14 -14" transform="rotate(-90,712,1020)"/><rect x="726" y="1006" width="28" height="28" transform="rotate(0,740,1020)"/><path d="M 838 1006v 28h 28v -14a 14 14, 0, 0, 0, -14 -14" transform="rotate(180,852,1020)"/><rect x="866" y="1006" width="28" height="28" transform="rotate(0,880,1020)"/><rect x="894" y="1006" width="28" height="28" transform="rotate(0,908,1020)"/><rect x="922" y="1006" width="28" height="28" transform="rotate(0,936,1020)"/><rect x="1034" y="1006" width="28" height="28" transform="rotate(0,1048,1020)"/><rect x="1146" y="1006" width="28" height="28" transform="rotate(0,1160,1020)"/><circle cx="264" cy="1048" r="14" transform="rotate(0,264,1048)"/><path d="M 306 1034v 28h 14a 14 14, 0, 0, 0, 0 -28" transform="rotate(180,320,1048)"/><rect x="334" y="1034" width="28" height="28" transform="rotate(0,348,1048)"/><path d="M 362 1034v 28h 28v -14a 14 14, 0, 0, 0, -14 -14" transform="rotate(90,376,1048)"/><rect x="474" y="1034" width="28" height="28" transform="rotate(0,488,1048)"/><rect x="502" y="1034" width="28" height="28" transform="rotate(0,516,1048)"/><rect x="530" y="1034" width="28" height="28" transform="rotate(0,544,1048)"/><rect x="558" y="1034" width="28" height="28" transform="rotate(0,572,1048)"/><rect x="586" y="1034" width="28" height="28" transform="rotate(0,600,1048)"/><rect x="614" y="1034" width="28" height="28" transform="rotate(0,628,1048)"/><path d="M 642 1034v 28h 28v -14a 14 14, 0, 0, 0, -14 -14" transform="rotate(0,656,1048)"/><path d="M 698 1034v 28h 28v -14a 14 14, 0, 0, 0, -14 -14" transform="rotate(180,712,1048)"/><rect x="726" y="1034" width="28" height="28" transform="rotate(0,740,1048)"/><path d="M 866 1034v 28h 28v -14a 14 14, 0, 0, 0, -14 -14" transform="rotate(180,880,1048)"/><rect x="894" y="1034" width="28" height="28" transform="rotate(0,908,1048)"/><rect x="922" y="1034" width="28" height="28" transform="rotate(0,936,1048)"/><rect x="950" y="1034" width="28" height="28" transform="rotate(0,964,1048)"/><rect x="978" y="1034" width="28" height="28" transform="rotate(0,992,1048)"/><rect x="1006" y="1034" width="28" height="28" transform="rotate(0,1020,1048)"/><rect x="1034" y="1034" width="28" height="28" transform="rotate(0,1048,1048)"/><path d="M 1062 1034v 28h 14a 14 14, 0, 0, 0, 0 -28" transform="rotate(0,1076,1048)"/><path d="M 1146 1034v 28h 14a 14 14, 0, 0, 0, 0 -28" transform="rotate(90,1160,1048)"/><path d="M 390 1062v 28h 28v -14a 14 14, 0, 0, 0, -14 -14" transform="rotate(-90,404,1076)"/><path d="M 418 1062v 28h 14a 14 14, 0, 0, 0, 0 -28" transform="rotate(0,432,1076)"/><rect x="474" y="1062" width="28" height="28" transform="rotate(0,488,1076)"/><rect x="502" y="1062" width="28" height="28" transform="rotate(0,516,1076)"/><rect x="530" y="1062" width="28" height="28" transform="rotate(0,544,1076)"/><rect x="558" y="1062" width="28" height="28" transform="rotate(0,572,1076)"/><rect x="586" y="1062" width="28" height="28" transform="rotate(0,600,1076)"/><path d="M 642 1062v 28h 28v -14a 14 14, 0, 0, 0, -14 -14" transform="rotate(180,656,1076)"/><path d="M 670 1062v 28h 28v -14a 14 14, 0, 0, 0, -14 -14" transform="rotate(0,684,1076)"/><rect x="726" y="1062" width="28" height="28" transform="rotate(0,740,1076)"/><rect x="754" y="1062" width="28" height="28" transform="rotate(0,768,1076)"/><rect x="782" y="1062" width="28" height="28" transform="rotate(0,796,1076)"/><rect x="810" y="1062" width="28" height="28" transform="rotate(0,824,1076)"/><path d="M 838 1062v 28h 28v -14a 14 14, 0, 0, 0, -14 -14" transform="rotate(0,852,1076)"/><rect x="922" y="1062" width="28" height="28" transform="rotate(0,936,1076)"/><path d="M 1006 1062v 28h 14a 14 14, 0, 0, 0, 0 -28" transform="rotate(90,1020,1076)"/><circle cx="1104" cy="1076" r="14" transform="rotate(0,1104,1076)"/><path d="M 306 1090v 28h 14a 14 14, 0, 0, 0, 0 -28" transform="rotate(-90,320,1104)"/><path d="M 390 1090v 28h 14a 14 14, 0, 0, 0, 0 -28" transform="rotate(90,404,1104)"/><path d="M 446 1090v 28h 28v -14a 14 14, 0, 0, 0, -14 -14" transform="rotate(-90,460,1104)"/><rect x="474" y="1090" width="28" height="28" transform="rotate(0,488,1104)"/><path d="M 530 1090v 28h 14a 14 14, 0, 0, 0, 0 -28" transform="rotate(90,544,1104)"/><path d="M 586 1090v 28h 14a 14 14, 0, 0, 0, 0 -28" transform="rotate(90,600,1104)"/><rect x="670" y="1090" width="28" height="28" transform="rotate(0,684,1104)"/><rect x="698" y="1090" width="28" height="28" transform="rotate(0,712,1104)"/><rect x="726" y="1090" width="28" height="28" transform="rotate(0,740,1104)"/><rect x="754" y="1090" width="28" height="28" transform="rotate(0,768,1104)"/><path d="M 782 1090v 28h 28v -14a 14 14, 0, 0, 0, -14 -14" transform="rotate(90,796,1104)"/><rect x="838" y="1090" width="28" height="28" transform="rotate(0,852,1104)"/><rect x="866" y="1090" width="28" height="28" transform="rotate(0,880,1104)"/><rect x="894" y="1090" width="28" height="28" transform="rotate(0,908,1104)"/><rect x="922" y="1090" width="28" height="28" transform="rotate(0,936,1104)"/><path d="M 950 1090v 28h 14a 14 14, 0, 0, 0, 0 -28" transform="rotate(0,964,1104)"/><circle cx="1076" cy="1104" r="14" transform="rotate(0,1076,1104)"/><path d="M 1146 1090v 28h 14a 14 14, 0, 0, 0, 0 -28" transform="rotate(-90,1160,1104)"/><circle cx="264" cy="1132" r="14" transform="rotate(0,264,1132)"/><path d="M 306 1118v 28h 28v -14a 14 14, 0, 0, 0, -14 -14" transform="rotate(180,320,1132)"/><rect x="334" y="1118" width="28" height="28" transform="rotate(0,348,1132)"/><path d="M 362 1118v 28h 14a 14 14, 0, 0, 0, 0 -28" transform="rotate(0,376,1132)"/><rect x="446" y="1118" width="28" height="28" transform="rotate(0,460,1132)"/><path d="M 474 1118v 28h 28v -14a 14 14, 0, 0, 0, -14 -14" transform="rotate(90,488,1132)"/><path d="M 558 1118v 28h 14a 14 14, 0, 0, 0, 0 -28" transform="rotate(-90,572,1132)"/><circle cx="628" cy="1132" r="14" transform="rotate(0,628,1132)"/><rect x="670" y="1118" width="28" height="28" transform="rotate(0,684,1132)"/><rect x="698" y="1118" width="28" height="28" transform="rotate(0,712,1132)"/><path d="M 810 1118v 28h 28v -14a 14 14, 0, 0, 0, -14 -14" transform="rotate(-90,824,1132)"/><rect x="838" y="1118" width="28" height="28" transform="rotate(0,852,1132)"/><path d="M 894 1118v 28h 28v -14a 14 14, 0, 0, 0, -14 -14" transform="rotate(180,908,1132)"/><rect x="922" y="1118" width="28" height="28" transform="rotate(0,936,1132)"/><path d="M 1006 1118v 28h 14a 14 14, 0, 0, 0, 0 -28" transform="rotate(-90,1020,1132)"/><path d="M 1118 1118v 28h 28v -14a 14 14, 0, 0, 0, -14 -14" transform="rotate(-90,1132,1132)"/><path d="M 1146 1118v 28h 28v -14a 14 14, 0, 0, 0, -14 -14" transform="rotate(90,1160,1132)"/><circle cx="292" cy="1160" r="14" transform="rotate(0,292,1160)"/><path d="M 418 1146v 28h 14a 14 14, 0, 0, 0, 0 -28" transform="rotate(180,432,1160)"/><path d="M 446 1146v 28h 28v -14a 14 14, 0, 0, 0, -14 -14" transform="rotate(90,460,1160)"/><circle cx="516" cy="1160" r="14" transform="rotate(0,516,1160)"/><path d="M 558 1146v 28h 14a 14 14, 0, 0, 0, 0 -28" transform="rotate(90,572,1160)"/><path d="M 642 1146v 28h 14a 14 14, 0, 0, 0, 0 -28" transform="rotate(180,656,1160)"/><rect x="670" y="1146" width="28" height="28" transform="rotate(0,684,1160)"/><path d="M 698 1146v 28h 28v -14a 14 14, 0, 0, 0, -14 -14" transform="rotate(90,712,1160)"/><path d="M 810 1146v 28h 28v -14a 14 14, 0, 0, 0, -14 -14" transform="rotate(180,824,1160)"/><path d="M 838 1146v 28h 28v -14a 14 14, 0, 0, 0, -14 -14" transform="rotate(90,852,1160)"/><path d="M 922 1146v 28h 14a 14 14, 0, 0, 0, 0 -28" transform="rotate(90,936,1160)"/><path d="M 978 1146v 28h 14a 14 14, 0, 0, 0, 0 -28" transform="rotate(180,992,1160)"/><rect x="1006" y="1146" width="28" height="28" transform="rotate(0,1020,1160)"/><rect x="1034" y="1146" width="28" height="28" transform="rotate(0,1048,1160)"/><path d="M 1062 1146v 28h 14a 14 14, 0, 0, 0, 0 -28" transform="rotate(0,1076,1160)"/><path d="M 1118 1146v 28h 14a 14 14, 0, 0, 0, 0 -28" transform="rotate(90,1132,1160)"/></clipPath><clipPath id="clip-path-corners-square-color-0-0-462"><path clip-rule="evenodd" d="M 26 96v 56a 70 70, 0, 0, 0, 70 70h 56a 70 70, 0, 0, 0, 70 -70v -56a 70 70, 0, 0, 0, -70 -70h -56a 70 70, 0, 0, 0, -70 70M 96 54h 56a 42 42, 0, 0, 1, 42 42v 56a 42 42, 0, 0, 1, -42 42h -56a 42 42, 0, 0, 1, -42 -42v -56a 42 42, 0, 0, 1, 42 -42" transform="rotate(0,124,124)"/></clipPath><clipPath id="clip-path-corners-dot-color-0-0-462"><circle cx="124" cy="124" r="42" transform="rotate(0,124,124)"/></clipPath><clipPath id="clip-path-corners-square-color-1-0-462"><path clip-rule="evenodd" d="M 978 96v 56a 70 70, 0, 0, 0, 70 70h 56a 70 70, 0, 0, 0, 70 -70v -56a 70 70, 0, 0, 0, -70 -70h -56a 70 70, 0, 0, 0, -70 70M 1048 54h 56a 42 42, 0, 0, 1, 42 42v 56a 42 42, 0, 0, 1, -42 42h -56a 42 42, 0, 0, 1, -42 -42v -56a 42 42, 0, 0, 1, 42 -42" transform="rotate(90,1076,124)"/></clipPath><clipPath id="clip-path-corners-dot-color-1-0-462"><circle cx="1076" cy="124" r="42" transform="rotate(90,1076,124)"/></clipPath><clipPath id="clip-path-corners-square-color-0-1-462"><path clip-rule="evenodd" d="M 26 1048v 56a 70 70, 0, 0, 0, 70 70h 56a 70 70, 0, 0, 0, 70 -70v -56a 70 70, 0, 0, 0, -70 -70h -56a 70 70, 0, 0, 0, -70 70M 96 1006h 56a 42 42, 0, 0, 1, 42 42v 56a 42 42, 0, 0, 1, -42 42h -56a 42 42, 0, 0, 1, -42 -42v -56a 42 42, 0, 0, 1, 42 -42" transform="rotate(-90,124,1076)"/></clipPath><clipPath id="clip-path-corners-dot-color-0-1-462"><circle cx="124" cy="1076" r="42" transform="rotate(-90,124,1076)"/></clipPath></defs><rect x="0" y="0" height="1200" width="1200" clip-path="url('#clip-path-background-color-462')" fill="#ffffff"/><rect x="0" y="0" height="1200" width="1200" clip-path="url('#clip-path-dot-color-462')" fill="#000000"/><rect x="26" y="26" height="196" width="196" clip-path="url('#clip-path-corners-square-color-0-0-462')" fill="#000000"/><rect x="82" y="82" height="84" width="84" clip-path="url('#clip-path-corners-dot-color-0-0-462')" fill="#000000"/><rect x="978" y="26" height="196" width="196" clip-path="url('#clip-path-corners-square-color-1-0-462')" fill="#000000"/><rect x="1034" y="82" height="84" width="84" clip-path="url('#clip-path-corners-dot-color-1-0-462')" fill="#000000"/><rect x="26" y="978" height="196" width="196" clip-path="url('#clip-path-corners-square-color-0-1-462')" fill="#000000"/><rect x="82" y="1034" height="84" width="84" clip-path="url('#clip-path-corners-dot-color-0-1-462')" fill="#000000"/></svg>