<?xml version="1.0" standalone="no"?>
<svg xmlns="http://www.w3.org/2000/svg" width="1200" height="1200" xmlns:xlink="http://www.w3.org/1999/xlink" viewBox="0 0 1200 1200"><defs><clipPath id="clip-path-background-color-467"><rect x="0" y="0" width="1200" height="1200"/></clipPath><clipPath id="clip-path-dot-color-467"><circle cx="292" cy="40" r="14" transform="rotate(0,292,40)"/><path d="M 334 26v 28h 14a 14 14, 0, 0, 0, 0 -28" transform="rotate(-90,348,40)"/><path d="M 418 26v 28h 14a 14 14, 0, 0, 0, 0 -28" transform="rotate(-90,432,40)"/><path d="M 474 26v 28h 28v -14a 14 14, 0, 0, 0, -14 -14" transform="rotate(-90,488,40)"/><path d="M 502 26v 28h 28v -14a 14 14, 0, 0, 0, -14 -14" transform="rotate(0,516,40)"/><path d="M 558 26v 28h 14a 14 14, 0, 0, 0, 0 -28" transform="rotate(-90,572,40)"/><path d="M 642 26v 28h 14a 14 14, 0, 0, 0, 0 -28" transform="rotate(180,656,40)"/><rect x="670" y="26" width="28" height="28" transform="rotate(0,684,40)"/><rect x="698" y="26" width="28" height="28" transform="rotate(0,712,40)"/><path d="M 726 26v 28h 28v -14a 14 14, 0, 0, 0, -14 -14" transform="rotate(0,740,40)"/><path d="M 810 26v 28h 14a 14 14, 0, 0, 0, 0 -28" transform="rotate(-90,824,40)"/><path d="M 894 26v 28h 14a 14 14, 0, 0, 0, 0 -28" transform="rotate(180,908,40)"/><path d="M 922 26v 28h 14a 14 14, 0, 0, 0, 0 -28" transform="rotate(0,936,40)"/><path d="M 250 54v 28h 14a 14 14, 0, 0, 0, 0 -28" transform="rotate(-90,264,68)"/><path d="M 306 54v 28h 14a 14 14, 0, 0, 0, 0 -28" transform="rotate(180,320,68)"/><path d="M 334 54v 28h 28v -14a 14 14, 0, 0, 0, -14 -14" transform="rotate(90,348,68)"/><path d="M 390 54v 28h 14a 14 14, 0, 0, 0, 0 -28" transform="rotate(180,404,68)"/><rect x="418" y="54" width="28" height="28" transform="rotate(0,432,68)"/><path d="M 474 54v 28h 28v -14a 14 14, 0, 0, 0, -14 -14" transform="rotate(180,488,68)"/><rect x="502" y="54" width="28" height="28" transform="rotate(0,516,68)"/><rect x="530" y="54" width="28" height="28" transform="rotate(0,544,68)"/><rect x="558" y="54" width="28" height="28" transform="rotate(0,572,68)"/><rect x="670" y="54" width="28" height="28" transform="rotate(0,684,68)"/><path d="M 726 54v 28h 14a 14 14, 0, 0, 0, 0 -28" transform="rotate(90,740,68)"/><path d="M 810 54v 28h 28v -14a 14 14, 0, 0, 0, -14 -14" transform="rotate(180,824,68)"/><path d="M 838 54v 28h 14a 14 14, 0, 0, 0, 0 -28" transform="rotate(0,852,68)"/><path d="M 250 82v 28h 14a 14 14, 0, 0, 0, 0 -28" transform="rotate(90,264,96)"/><rect x="418" y="82" width="28" height="28" transform="rotate(0,432,96)"/><path d="M 446 82v 28h 14a 14 14, 0, 0, 0, 0 -28" transform="rotate(0,460,96)"/><path d="M 502 82v 28h 14a 14 14, 0, 0, 0, 0 -28" transform="rotate(90,516,96)"/><path d="M 558 82v 28h 28v -14a 14 14, 0, 0, 0, -14 -14" transform="rotate(180,572,96)"/><path d="M 586 82v 28h 14a 14 14, 0, 0, 0, 0 -28" transform="rotate(0,600,96)"/><path d="M 642 82v 28h 14a 14 14, 0, 0, 0, 0 -28" transform="rotate(180,656,96)"/><rect x="670" y="82" width="28" height="28" transform="rotate(0,684,96)"/><path d="M 698 82v 28h 14a 14 14, 0, 0, 0, 0 -28" transform="rotate(0,712,96)"/><path d="M 782 82v 28h 14a 14 14, 0, 0, 0, 0 -28" transform="rotate(-90,796,96)"/><path d="M 866 82v 28h 28v -14a 14 14, 0, 0, 0, -14 -14" transform="rotate(-90,880,96)"/><path d="M 894 82v 28h 14a 14 14, 0, 0, 0, 0 -28" transform="rotate(0,908,96)"/><circle cx="292" cy="124" r="14" transform="rotate(0,292,124)"/><path d="M 334 110v 28h 28v -14a 14 14, 0, 0, 0, -14 -14" transform="rotate(-90,348,124)"/><path d="M 362 110v 28h 14a 14 14, 0, 0, 0, 0 -28" transform="rotate(0,376,124)"/><path d="M 418 110v 28h 14a 14 14, 0, 0, 0, 0 -28" transform="rotate(90,432,124)"/><path d="M 530 110v 28h 14a 14 14, 0, 0, 0, 0 -28" transform="rotate(-90,544,124)"/><path d="M 670 110v 28h 14a 14 14, 0, 0, 0, 0 -28" transform="rotate(90,684,124)"/><path d="M 754 110v 28h 28v -14a 14 14, 0, 0, 0, -14 -14" transform="rotate(-90,768,124)"/><rect x="782" y="110" width="28" height="28" transform="rotate(0,796,124)"/><rect x="866" y="110" width="28" height="28" transform="rotate(0,880,124)"/><circle cx="936" cy="124" r="14" transform="rotate(0,936,124)"/><path d="M 306 138v 28h 14a 14 14, 0, 0, 0, 0 -28" transform="rotate(180,320,152)"/><rect x="334" y="138" width="28" height="28" transform="rotate(0,348,152)"/><path d="M 446 138v 28h 14a 14 14, 0, 0, 0, 0 -28" transform="rotate(180,460,152)"/><path d="M 474 138v 28h 28v -14a 14 14, 0, 0, 0, -14 -14" transform="rotate(0,488,152)"/><rect x="530" y="138" width="28" height="28" transform="rotate(0,544,152)"/><path d="M 586 138v 28h 14a 14 14, 0, 0, 0, 0 -28" transform="rotate(180,600,152)"/><path d="M 614 138v 28h 28v -14a 14 14, 0, 0, 0, -14 -14" transform="rotate(0,628,152)"/><circle cx="712" cy="152" r="14" transform="rotate(0,712,152)"/><path d="M 754 138v 28h 28v -14a 14 14, 0, 0, 0, -14 -14" transform="rotate(180,768,152)"/><rect x="782" y="138" width="28" height="28" transform="rotate(0,796,152)"/><rect x="810" y="138" width="28" height="28" transform="rotate(0,824,152)"/><rect x="838" y="138" width="28" height="28" transform="rotate(0,852,152)"/><rect x="866" y="138" width="28" height="28" transform="rotate(0,880,152)"/><path d="M 894 138v 28h 28v -14a 14 14, 0, 0, 0, -14 -14" transform="rotate(0,908,152)"/><path d="M 334 166v 28h 14a 14 14, 0, 0, 0, 0 -28" transform="rotate(90,348,180)"/><path d="M 390 166v 28h 14a 14 14, 0, 0, 0, 0 -28" transform="rotate(180,404,180)"/><path d="M 418 166v 28h 28v -14a 14 14, 0, 0, 0, -14 -14" transform="rotate(0,432,180)"/><rect x="474" y="166" width="28" height="28" transform="rotate(0,488,180)"/><rect x="530" y="166" width="28" height="28" transform="rotate(0,544,180)"/><path d="M 614 166v 28h 28v -14a 14 14, 0, 0, 0, -14 -14" transform="rotate(180,628,180)"/><path d="M 642 166v 28h 28v -14a 14 14, 0, 0, 0, -14 -14" transform="rotate(0,656,180)"/><rect x="810" y="166" width="28" height="28" transform="rotate(0,824,180)"/><path d="M 838 166v 28h 28v -14a 14 14, 0, 0, 0, -14 -14" transform="rotate(90,852,180)"/><path d="M 894 166v 28h 28v -14a 14 14, 0, 0, 0, -14 -14" transform="rotate(180,908,180)"/><path d="M 922 166v 28h 28v -14a 14 14, 0, 0, 0, -14 -14" transform="rotate(0,936,180)"/><circle cx="264" cy="208" r="14" transform="rotate(0,264,208)"/><circle cx="320" cy="208" r="14" transform="rotate(0,320,208)"/><path d="M 362 194v 28h 14a 14 14, 0, 0, 0, 0 -28" transform="rotate(-90,376,208)"/><rect x="418" y="194" width="28" height="28" transform="rotate(0,432,208)"/><path d="M 474 194v 28h 14a 14 14, 0, 0, 0, 0 -28" transform="rotate(90,488,208)"/><rect x="530" y="194" width="28" height="28" transform="rotate(0,544,208)"/><circle cx="600" cy="208" r="14" transform="rotate(0,600,208)"/><path d="M 642 194v 28h 14a 14 14, 0, 0, 0, 0 -28" transform="rotate(90,656,208)"/><path d="M 698 194v 28h 14a 14 14, 0, 0, 0, 0 -28" transform="rotate(-90,712,208)"/><path d="M 754 194v 28h 14a 14 14, 0, 0, 0, 0 -28" transform="rotate(-90,768,208)"/><path d="M 810 194v 28h 14a 14 14, 0, 0, 0, 0 -28" transform="rotate(90,824,208)"/><path d="M 866 194v 28h 14a 14 14, 0, 0, 0, 0 -28" transform="rotate(-90,880,208)"/><path d="M 922 194v 28h 14a 14 14, 0, 0, 0, 0 -28" transform="rotate(90,936,208)"/><circle cx="292" cy="236" r="14" transform="rotate(0,292,236)"/><path d="M 334 222v 28h 14a 14 14, 0, 0, 0, 0 -28" transform="rotate(180,348,236)"/><rect x="362" y="222" width="28" height="28" transform="rotate(0,376,236)"/><rect x="390" y="222" width="28" height="28" transform="rotate(0,404,236)"/><rect x="418" y="222" width="28" height="28" transform="rotate(0,432,236)"/><path d="M 446 222v 28h 28v -14a 14 14, 0, 0, 0, -14 -14" transform="rotate(0,460,236)"/><path d="M 502 222v 28h 14a 14 14, 0, 0, 0, 0 -28" transform="rotate(180,516,236)"/><rect x="530" y="222" width="28" height="28" transform="rotate(0,544,236)"/><path d="M 558 222v 28h 14a 14 14, 0, 0, 0, 0 -28" transform="rotate(0,572,236)"/><path d="M 614 222v 28h 14a 14 14, 0, 0, 0, 0 -28" transform="rotate(-90,628,236)"/><rect x="698" y="222" width="28" height="28" transform="rotate(0,712,236)"/><rect x="754" y="222" width="28" height="28" transform="rotate(0,768,236)"/><path d="M 782 222v 28h 14a 14 14, 0, 0, 0, 0 -28" transform="rotate(0,796,236)"/><path d="M 838 222v 28h 28v -14a 14 14, 0, 0, 0, -14 -14" transform="rotate(-90,852,236)"/><rect x="866" y="222" width="28" height="28" transform="rotate(0,880,236)"/><path d="M 54 250v 28h 28v -14a 14 14, 0, 0, 0, -14 -14" transform="rotate(-90,68,264)"/><rect x="82" y="250" width="28" height="28" transform="rotate(0,96,264)"/><path d="M 110 250v 28h 28v -14a 14 14, 0, 0, 0, -14 -14" transform="rotate(0,124,264)"/><path d="M 166 250v 28h 28v -14a 14 14, 0, 0, 0, -14 -14" transform="rotate(-90,180,264)"/><path d="M 194 250v 28h 14a 14 14, 0, 0, 0, 0 -28" transform="rotate(0,208,264)"/><circle cx="320" cy="264" r="14" transform="rotate(0,320,264)"/><path d="M 390 250v 28h 14a 14 14, 0, 0, 0, 0 -28" transform="rotate(90,404,264)"/><rect x="446" y="250" width="28" height="28" transform="rotate(0,460,264)"/><path d="M 614 250v 28h 28v -14a 14 14, 0, 0, 0, -14 -14" transform="rotate(180,628,264)"/><rect x="642" y="250" width="28" height="28" transform="rotate(0,656,264)"/><rect x="670" y="250" width="28" height="28" transform="rotate(0,684,264)"/><path d="M 698 250v 28h 28v -14a 14 14, 0, 0, 0, -14 -14" transform="rotate(90,712,264)"/><path d="M 754 250v 28h 14a 14 14, 0, 0, 0, 0 -28" transform="rotate(90,768,264)"/><path d="M 838 250v 28h 28v -14a 14 14, 0, 0, 0, -14 -14" transform="rotate(180,852,264)"/><rect x="866" y="250" width="28" height="28" transform="rotate(0,880,264)"/><path d="M 894 250v 28h 28v -14a 14 14, 0, 0, 0, -14 -14" transform="rotate(0,908,264)"/><path d="M 1090 250v 28h 28v -14a 14 14, 0, 0, 0, -14 -14" transform="rotate(-90,1104,264)"/><path d="M 1118 250v 28h 28v -14a 14 14, 0, 0, 0, -14 -14" transform="rotate(0,1132,264)"/><path d="M 54 278v 28h 28v -14a 14 14, 0, 0, 0, -14 -14" transform="rotate(180,68,292)"/><rect x="82" y="278" width="28" height="28" transform="rotate(0,96,292)"/><path d="M 110 278v 28h 28v -14a 14 14, 0, 0, 0, -14 -14" transform="rotate(90,124,292)"/><path d="M 166 278v 28h 14a 14 14, 0, 0, 0, 0 -28" transform="rotate(90,180,292)"/><circle cx="264" cy="292" r="14" transform="rotate(0,264,292)"/><circle cx="376" cy="292" r="14" transform="rotate(0,376,292)"/><rect x="446" y="278" width="28" height="28" transform="rotate(0,460,292)"/><path d="M 474 278v 28h 28v -14a 14 14, 0, 0, 0, -14 -14" transform="rotate(0,488,292)"/><circle cx="600" cy="292" r="14" transform="rotate(0,600,292)"/><path d="M 642 278v 28h 14a 14 14, 0, 0, 0, 0 -28" transform="rotate(90,656,292)"/><path d="M 810 278v 28h 14a 14 14, 0, 0, 0, 0 -28" transform="rotate(-90,824,292)"/><path d="M 894 278v 28h 28v -14a 14 14, 0, 0, 0, -14 -14" transform="rotate(180,908,292)"/><rect x="922" y="278" width="28" height="28" transform="rotate(0,936,292)"/><rect x="950" y="278" width="28" height="28" transform="rotate(0,964,292)"/><rect x="978" y="278" width="28" height="28" transform="rotate(0,992,292)"/><rect x="1006" y="278" width="28" height="28" transform="rotate(0,1020,292)"/><path d="M 1034 278v 28h 28v -14a 14 14, 0, 0, 0, -14 -14" transform="rotate(0,1048,292)"/><rect x="1090" y="278" width="28" height="28" transform="rotate(0,1104,292)"/><rect x="1118" y="278" width="28" height="28" transform="rotate(0,1132,292)"/><path d="M 1146 278v 28h 14a 14 14, 0, 0, 0, 0 -28" transform="rotate(0,1160,292)"/><path d="M 82 306v 28h 14a 14 14, 0, 0, 0, 0 -28" transform="rotate(90,96,320)"/><circle cx="152" cy="320" r="14" transform="rotate(0,152,320)"/><circle cx="208" cy="320" r="14" transform="rotate(0,208,320)"/><path d="M 334 306v 28h 14a 14 14, 0, 0, 0, 0 -28" transform="rotate(-90,348,320)"/><path d="M 446 306v 28h 28v -14a 14 14, 0, 0, 0, -14 -14" transform="rotate(180,460,320)"/><rect x="474" y="306" width="28" height="28" transform="rotate(0,488,320)"/><path d="M 502 306v 28h 14a 14 14, 0, 0, 0, 0 -28" transform="rotate(0,516,320)"/><path d="M 558 306v 28h 14a 14 14, 0, 0, 0, 0 -28" transform="rotate(-90,572,320)"/><path d="M 670 306v 28h 14a 14 14, 0, 0, 0, 0 -28" transform="rotate(-90,684,320)"/><path d="M 810 306v 28h 14a 14 14, 0, 0, 0, 0 -28" transform="rotate(90,824,320)"/><rect x="950" y="306" width="28" height="28" transform="rotate(0,964,320)"/><rect x="1034" y="306" width="28" height="28" transform="rotate(0,1048,320)"/><path d="M 1090 306v 28h 28v -14a 14 14, 0, 0, 0, -14 -14" transform="rotate(180,1104,320)"/><rect x="1118" y="306" width="28" height="28" transform="rotate(0,1132,320)"/><circle cx="40" cy="348" r="14" transform="rotate(0,40,348)"/><path d="M 110 334v 28h 14a 14 14, 0, 0, 0, 0 -28" transform="rotate(-90,124,348)"/><path d="M 222 334v 28h 14a 14 14, 0, 0, 0, 0 -28" transform="rotate(-90,236,348)"/><path d="M 278 334v 28h 14a 14 14, 0, 0, 0, 0 -28" transform="rotate(-90,292,348)"/><path d="M 334 334v 28h 14a 14 14, 0, 0, 0, 0 -28" transform="rotate(90,348,348)"/><path d="M 390 334v 28h 14a 14 14, 0, 0, 0, 0 -28" transform="rotate(-90,404,348)"/><path d="M 530 334v 28h 28v -14a 14 14, 0, 0, 0, -14 -14" transform="rotate(-90,544,348)"/><path d="M 558 334v 28h 28v -14a 14 14, 0, 0, 0, -14 -14" transform="rotate(90,572,348)"/><path d="M 614 334v 28h 14a 14 14, 0, 0, 0, 0 -28" transform="rotate(-90,628,348)"/><path d="M 670 334v 28h 14a 14 14, 0, 0, 0, 0 -28" transform="rotate(90,684,348)"/><path d="M 726 334v 28h 14a 14 14, 0, 0, 0, 0 -28" transform="rotate(-90,740,348)"/><path d="M 922 334v 28h 14a 14 14, 0, 0, 0, 0 -28" transform="rotate(180,936,348)"/><rect x="950" y="334" width="28" height="28" transform="rotate(0,964,348)"/><path d="M 978 334v 28h 14a 14 14, 0, 0, 0, 0 -28" transform="rotate(0,992,348)"/><path d="M 1034 334v 28h 14a 14 14, 0, 0, 0, 0 -28" transform="rotate(90,1048,348)"/><path d="M 1118 334v 28h 28v -14a 14 14, 0, 0, 0, -14 -14" transform="rotate(180,1132,348)"/><path d="M 1146 334v 28h 28v -14a 14 14, 0, 0, 0, -14 -14" transform="rotate(0,1160,348)"/><circle cx="68" cy="376" r="14" transform="rotate(0,68,376)"/><rect x="110" y="362" width="28" height="28" transform="rotate(0,124,376)"/><path d="M 138 362v 28h 14a 14 14, 0, 0, 0, 0 -28" transform="rotate(0,152,376)"/><path d="M 194 362v 28h 14a 14 14, 0, 0, 0, 0 -28" transform="rotate(180,208,376)"/><path d="M 222 362v 28h 28v -14a 14 14, 0, 0, 0, -14 -14" transform="rotate(90,236,376)"/><path d="M 278 362v 28h 14a 14 14, 0, 0, 0, 0 -28" transform="rotate(90,292,376)"/><path d="M 390 362v 28h 14a 14 14, 0, 0, 0, 0 -28" transform="rotate(90,404,376)"/><path d="M 446 362v 28h 14a 14 14, 0, 0, 0, 0 -28" transform="rotate(-90,460,376)"/><rect x="530" y="362" width="28" height="28" transform="rotate(0,544,376)"/><rect x="614" y="362" width="28" height="28" transform="rotate(0,628,376)"/><path d="M 698 362v 28h 28v -14a 14 14, 0, 0, 0, -14 -14" transform="rotate(-90,712,376)"/><path d="M 726 362v 28h 28v -14a 14 14, 0, 0, 0, -14 -14" transform="rotate(90,740,376)"/><path d="M 782 362v 28h 14a 14 14, 0, 0, 0, 0 -28" transform="rotate(180,796,376)"/><rect x="810" y="362" width="28" height="28" transform="rotate(0,824,376)"/><path d="M 838 362v 28h 28v -14a 14 14, 0, 0, 0, -14 -14" transform="rotate(0,852,376)"/><circle cx="908" cy="376" r="14" transform="rotate(0,908,376)"/><path d="M 1062 362v 28h 14a 14 14, 0, 0, 0, 0 -28" transform="rotate(180,1076,376)"/><path d="M 1090 362v 28h 28v -14a 14 14, 0, 0, 0, -14 -14" transform="rotate(0,1104,376)"/><rect x="1146" y="362" width="28" height="28" transform="rotate(0,1160,376)"/><path d="M 26 390v 28h 14a 14 14, 0, 0, 0, 0 -28" transform="rotate(-90,40,404)"/><path d="M 110 390v 28h 14a 14 14, 0, 0, 0, 0 -28" transform="rotate(90,124,404)"/><circle cx="180" cy="404" r="14" transform="rotate(0,180,404)"/><path d="M 250 390v 28h 14a 14 14, 0, 0, 0, 0 -28" transform="rotate(-90,264,404)"/><path d="M 306 390v 28h 14a 14 14, 0, 0, 0, 0 -28" transform="rotate(180,320,404)"/><rect x="334" y="390" width="28" height="28" transform="rotate(0,348,404)"/><path d="M 362 390v 28h 14a 14 14, 0, 0, 0, 0 -28" transform="rotate(0,376,404)"/><rect x="446" y="390" width="28" height="28" transform="rotate(0,460,404)"/><rect x="474" y="390" width="28" height="28" transform="rotate(0,488,404)"/><rect x="502" y="390" width="28" height="28" transform="rotate(0,516,404)"/><rect x="530" y="390" width="28" height="28" transform="rotate(0,544,404)"/><path d="M 586 390v 28h 14a 14 14, 0, 0, 0, 0 -28" transform="rotate(180,600,404)"/><rect x="614" y="390" width="28" height="28" transform="rotate(0,628,404)"/><rect x="642" y="390" width="28" height="28" transform="rotate(0,656,404)"/><rect x="670" y="390" width="28" height="28" transform="rotate(0,684,404)"/><path d="M 698 390v 28h 28v -14a 14 14, 0, 0, 0, -14 -14" transform="rotate(90,712,404)"/><circle cx="768" cy="404" r="14" transform="rotate(0,768,404)"/><path d="M 838 390v 28h 28v -14a 14 14, 0, 0, 0, -14 -14" transform="rotate(180,852,404)"/><path d="M 866 390v 28h 28v -14a 14 14, 0, 0, 0, -14 -14" transform="rotate(0,880,404)"/><path d="M 950 390v 28h 14a 14 14, 0, 0, 0, 0 -28" transform="rotate(180,964,404)"/><path d="M 978 390v 28h 28v -14a 14 14, 0, 0, 0, -14 -14" transform="rotate(0,992,404)"/><rect x="1090" y="390" width="28" height="28" transform="rotate(0,1104,404)"/><rect x="1146" y="390" width="28" height="28" transform="rotate(0,1160,404)"/><rect x="26" y="418" width="28" height="28" transform="rotate(0,40,432)"/><circle cx="96" cy="432" r="14" transform="rotate(0,96,432)"/><path d="M 138 418v 28h 14a 14 14, 0, 0, 0, 0 -28" transform="rotate(-90,152,432)"/><path d="M 194 418v 28h 14a 14 14, 0, 0, 0, 0 -28" transform="rotate(180,208,432)"/><rect x="222" y="418" width="28" height="28" transform="rotate(0,236,432)"/><path d="M 250 418v 28h 28v -14a 14 14, 0, 0, 0, -14 -14" transform="rotate(90,264,432)"/><path d="M 446 418v 28h 14a 14 14, 0, 0, 0, 0 -28" transform="rotate(90,460,432)"/><path d="M 502 418v 28h 28v -14a 14 14, 0, 0, 0, -14 -14" transform="rotate(180,516,432)"/><rect x="530" y="418" width="28" height="28" transform="rotate(0,544,432)"/><rect x="670" y="418" width="28" height="28" transform="rotate(0,684,432)"/><rect x="866" y="418" width="28" height="28" transform="rotate(0,880,432)"/><rect x="978" y="418" width="28" height="28" transform="rotate(0,992,432)"/><rect x="1006" y="418" width="28" height="28" transform="rotate(0,1020,432)"/><path d="M 1034 418v 28h 14a 14 14, 0, 0, 0, 0 -28" transform="rotate(0,1048,432)"/><path d="M 1090 418v 28h 28v -14a 14 14, 0, 0, 0, -14 -14" transform="rotate(180,1104,432)"/><rect x="1118" y="418" width="28" height="28" transform="rotate(0,1132,432)"/><path d="M 1146 418v 28h 28v -14a 14 14, 0, 0, 0, -14 -14" transform="rotate(90,1160,432)"/><path d="M 26 446v 28h 14a 14 14, 0, 0, 0, 0 -28" transform="rotate(90,40,460)"/><path d="M 138 446v 28h 28v -14a 14 14, 0, 0, 0, -14 -14" transform="rotate(180,152,460)"/><path d="M 166 446v 28h 14a 14 14, 0, 0, 0, 0 -28" transform="rotate(0,180,460)"/><path d="M 278 446v 28h 28v -14a 14 14, 0, 0, 0, -14 -14" transform="rotate(-90,292,460)"/><path d="M 306 446v 28h 28v -14a 14 14, 0, 0, 0, -14 -14" transform="rotate(0,320,460)"/><path d="M 362 446v 28h 14a 14 14, 0, 0, 0, 0 -28" transform="rotate(-90,376,460)"/><circle cx="432" cy="460" r="14" transform="rotate(0,432,460)"/><path d="M 530 446v 28h 28v -14a 14 14, 0, 0, 0, -14 -14" transform="rotate(180,544,460)"/><rect x="558" y="446" width="28" height="28" transform="rotate(0,572,460)"/><rect x="586" y="446" width="28" height="28" transform="rotate(0,600,460)"/><path d="M 614 446v 28h 28v -14a 14 14, 0, 0, 0, -14 -14" transform="rotate(0,628,460)"/><path d="M 670 446v 28h 14a 14 14, 0, 0, 0, 0 -28" transform="rotate(90,684,460)"/><path d="M 754 446v 28h 14a 14 14, 0, 0, 0, 0 -28" transform="rotate(180,768,460)"/><path d="M 782 446v 28h 14a 14 14, 0, 0, 0, 0 -28" transform="rotate(0,796,460)"/><path d="M 866 446v 28h 28v -14a 14 14, 0, 0, 0, -14 -14" transform="rotate(180,880,460)"/><rect x="894" y="446" width="28" height="28" transform="rotate(0,908,460)"/><path d="M 922 446v 28h 28v -14a 14 14, 0, 0, 0, -14 -14" transform="rotate(0,936,460)"/><path d="M 978 446v 28h 28v -14a 14 14, 0, 0, 0, -14 -14" transform="rotate(180,992,460)"/><path d="M 1006 446v 28h 28v -14a 14 14, 0, 0, 0, -14 -14" transform="rotate(90,1020,460)"/><circle cx="1076" cy="460" r="14" transform="rotate(0,1076,460)"/><rect x="1118" y="446" width="28" height="28" transform="rotate(0,1132,460)"/><circle cx="124" cy="488" r="14" transform="rotate(0,124,488)"/><path d="M 194 474v 28h 14a 14 14, 0, 0, 0, 0 -28" transform="rotate(180,208,488)"/><path d="M 222 474v 28h 28v -14a 14 14, 0, 0, 0, -14 -14" transform="rotate(0,236,488)"/><rect x="278" y="474" width="28" height="28" transform="rotate(0,292,488)"/><rect x="306" y="474" width="28" height="28" transform="rotate(0,320,488)"/><rect x="362" y="474" width="28" height="28" transform="rotate(0,376,488)"/><circle cx="460" cy="488" r="14" transform="rotate(0,460,488)"/><path d="M 502 474v 28h 14a 14 14, 0, 0, 0, 0 -28" transform="rotate(-90,516,488)"/><path d="M 586 474v 28h 28v -14a 14 14, 0, 0, 0, -14 -14" transform="rotate(180,600,488)"/><path d="M 614 474v 28h 28v -14a 14 14, 0, 0, 0, -14 -14" transform="rotate(90,628,488)"/><path d="M 698 474v 28h 28v -14a 14 14, 0, 0, 0, -14 -14" transform="rotate(-90,712,488)"/><path d="M 726 474v 28h 28v -14a 14 14, 0, 0, 0, -14 -14" transform="rotate(0,740,488)"/><path d="M 894 474v 28h 28v -14a 14 14, 0, 0, 0, -14 -14" transform="rotate(180,908,488)"/><rect x="922" y="474" width="28" height="28" transform="rotate(0,936,488)"/><circle cx="1048" cy="488" r="14" transform="rotate(0,1048,488)"/><path d="M 1118 474v 28h 14a 14 14, 0, 0, 0, 0 -28" transform="rotate(90,1132,488)"/><path d="M 138 502v 28h 14a 14 14, 0, 0, 0, 0 -28" transform="rotate(180,152,516)"/><path d="M 166 502v 28h 14a 14 14, 0, 0, 0, 0 -28" transform="rotate(0,180,516)"/><rect x="222" y="502" width="28" height="28" transform="rotate(0,236,516)"/><rect x="250" y="502" width="28" height="28" transform="rotate(0,264,516)"/><rect x="278" y="502" width="28" height="28" transform="rotate(0,292,516)"/><path d="M 306 502v 28h 28v -14a 14 14, 0, 0, 0, -14 -14" transform="rotate(90,320,516)"/><path d="M 362 502v 28h 14a 14 14, 0, 0, 0, 0 -28" transform="rotate(90,376,516)"/><path d="M 418 502v 28h 14a 14 14, 0, 0, 0, 0 -28" transform="rotate(-90,432,516)"/><rect x="502" y="502" width="28" height="28" transform="rotate(0,516,516)"/><path d="M 530 502v 28h 14a 14 14, 0, 0, 0, 0 -28" transform="rotate(0,544,516)"/><path d="M 670 502v 28h 14a 14 14, 0, 0, 0, 0 -28" transform="rotate(180,684,516)"/><rect x="698" y="502" width="28" height="28" transform="rotate(0,712,516)"/><path d="M 726 502v 28h 28v -14a 14 14, 0, 0, 0, -14 -14" transform="rotate(90,740,516)"/><path d="M 782 502v 28h 14a 14 14, 0, 0, 0, 0 -28" transform="rotate(-90,796,516)"/><path d="M 838 502v 28h 14a 14 14, 0, 0, 0, 0 -28" transform="rotate(-90,852,516)"/><path d="M 922 502v 28h 28v -14a 14 14, 0, 0, 0, -14 -14" transform="rotate(180,936,516)"/><path d="M 950 502v 28h 28v -14a 14 14, 0, 0, 0, -14 -14" transform="rotate(0,964,516)"/><circle cx="1020" cy="516" r="14" transform="rotate(0,1020,516)"/><path d="M 1062 502v 28h 14a 14 14, 0, 0, 0, 0 -28" transform="rotate(-90,1076,516)"/><path d="M 26 530v 28h 14a 14 14, 0, 0, 0, 0 -28" transform="rotate(-90,40,544)"/><circle cx="124" cy="544" r="14" transform="rotate(0,124,544)"/><path d="M 194 530v 28h 14a 14 14, 0, 0, 0, 0 -28" transform="rotate(180,208,544)"/><rect x="222" y="530" width="28" height="28" transform="rotate(0,236,544)"/><rect x="278" y="530" width="28" height="28" transform="rotate(0,292,544)"/><circle cx="348" cy="544" r="14" transform="rotate(0,348,544)"/><rect x="418" y="530" width="28" height="28" transform="rotate(0,432,544)"/><path d="M 474 530v 28h 28v -14a 14 14, 0, 0, 0, -14 -14" transform="rotate(-90,488,544)"/><path d="M 502 530v 28h 28v -14a 14 14, 0, 0, 0, -14 -14" transform="rotate(90,516,544)"/><path d="M 586 530v 28h 14a 14 14, 0, 0, 0, 0 -28" transform="rotate(180,600,544)"/><path d="M 614 530v 28h 28v -14a 14 14, 0, 0, 0, -14 -14" transform="rotate(0,628,544)"/><path d="M 698 530v 28h 14a 14 14, 0, 0, 0, 0 -28" transform="rotate(90,712,544)"/><path d="M 782 530v 28h 28v -14a 14 14, 0, 0, 0, -14 -14" transform="rotate(180,796,544)"/><rect x="810" y="530" width="28" height="28" transform="rotate(0,824,544)"/><path d="M 838 530v 28h 28v -14a 14 14, 0, 0, 0, -14 -14" transform="rotate(90,852,544)"/><rect x="950" y="530" width="28" height="28" transform="rotate(0,964,544)"/><path d="M 978 530v 28h 14a 14 14, 0, 0, 0, 0 -28" transform="rotate(0,992,544)"/><path d="M 1034 530v 28h 14a 14 14, 0, 0, 0, 0 -28" transform="rotate(180,1048,544)"/><rect x="1062" y="530" width="28" height="28" transform="rotate(0,1076,544)"/><path d="M 26 558v 28h 28v -14a 14 14, 0, 0, 0, -14 -14" transform="rotate(180,40,572)"/><rect x="54" y="558" width="28" height="28" transform="rotate(0,68,572)"/><path d="M 82 558v 28h 28v -14a 14 14, 0, 0, 0, -14 -14" transform="rotate(0,96,572)"/><path d="M 138 558v 28h 14a 14 14, 0, 0, 0, 0 -28" transform="rotate(-90,152,572)"/><path d="M 222 558v 28h 28v -14a 14 14, 0, 0, 0, -14 -14" transform="rotate(180,236,572)"/><rect x="250" y="558" width="28" height="28" transform="rotate(0,264,572)"/><rect x="278" y="558" width="28" height="28" transform="rotate(0,292,572)"/><path d="M 306 558v 28h 28v -14a 14 14, 0, 0, 0, -14 -14" transform="rotate(0,320,572)"/><path d="M 390 558v 28h 14a 14 14, 0, 0, 0, 0 -28" transform="rotate(180,404,572)"/><rect x="418" y="558" width="28" height="28" transform="rotate(0,432,572)"/><rect x="474" y="558" width="28" height="28" transform="rotate(0,488,572)"/><circle cx="544" cy="572" r="14" transform="rotate(0,544,572)"/><path d="M 614 558v 28h 14a 14 14, 0, 0, 0, 0 -28" transform="rotate(90,628,572)"/><circle cx="684" cy="572" r="14" transform="rotate(0,684,572)"/><path d="M 894 558v 28h 28v -14a 14 14, 0, 0, 0, -14 -14" transform="rotate(-90,908,572)"/><rect x="922" y="558" width="28" height="28" transform="rotate(0,936,572)"/><rect x="950" y="558" width="28" height="28" transform="rotate(0,964,572)"/><path d="M 1006 558v 28h 14a 14 14, 0, 0, 0, 0 -28" transform="rotate(-90,1020,572)"/><rect x="1062" y="558" width="28" height="28" transform="rotate(0,1076,572)"/><path d="M 1090 558v 28h 28v -14a 14 14, 0, 0, 0, -14 -14" transform="rotate(0,1104,572)"/><circle cx="1160" cy="572" r="14" transform="rotate(0,1160,572)"/><rect x="54" y="586" width="28" height="28" transform="rotate(0,68,600)"/><rect x="82" y="586" width="28" height="28" transform="rotate(0,96,600)"/><rect x="138" y="586" width="28" height="28" transform="rotate(0,152,600)"/><circle cx="208" cy="600" r="14" transform="rotate(0,208,600)"/><path d="M 306 586v 28h 28v -14a 14 14, 0, 0, 0, -14 -14" transform="rotate(180,320,600)"/><path d="M 334 586v 28h 28v -14a 14 14, 0, 0, 0, -14 -14" transform="rotate(0,348,600)"/><rect x="418" y="586" width="28" height="28" transform="rotate(0,432,600)"/><rect x="446" y="586" width="28" height="28" transform="rotate(0,460,600)"/><rect x="474" y="586" width="28" height="28" transform="rotate(0,488,600)"/><path d="M 502 586v 28h 14a 14 14, 0, 0, 0, 0 -28" transform="rotate(0,516,600)"/><path d="M 558 586v 28h 14a 14 14, 0, 0, 0, 0 -28" transform="rotate(-90,572,600)"/><circle cx="656" cy="600" r="14" transform="rotate(0,656,600)"/><path d="M 698 586v 28h 14a 14 14, 0, 0, 0, 0 -28" transform="rotate(180,712,600)"/><path d="M 726 586v 28h 14a 14 14, 0, 0, 0, 0 -28" transform="rotate(0,740,600)"/><path d="M 866 586v 28h 28v -14a 14 14, 0, 0, 0, -14 -14" transform="rotate(-90,880,600)"/><rect x="894" y="586" width="28" height="28" transform="rotate(0,908,600)"/><rect x="950" y="586" width="28" height="28" transform="rotate(0,964,600)"/><rect x="978" y="586" width="28" height="28" transform="rotate(0,992,600)"/><rect x="1006" y="586" width="28" height="28" transform="rotate(0,1020,600)"/><rect x="1034" y="586" width="28" height="28" transform="rotate(0,1048,600)"/><rect x="1062" y="586" width="28" height="28" transform="rotate(0,1076,600)"/><rect x="1090" y="586" width="28" height="28" transform="rotate(0,1104,600)"/><path d="M 1118 586v 28h 28v -14a 14 14, 0, 0, 0, -14 -14" transform="rotate(0,1132,600)"/><rect x="54" y="614" width="28" height="28" transform="rotate(0,68,628)"/><rect x="82" y="614" width="28" height="28" transform="rotate(0,96,628)"/><rect x="110" y="614" width="28" height="28" transform="rotate(0,124,628)"/><rect x="138" y="614" width="28" height="28" transform="rotate(0,152,628)"/><path d="M 166 614v 28h 14a 14 14, 0, 0, 0, 0 -28" transform="rotate(0,180,628)"/><rect x="334" y="614" width="28" height="28" transform="rotate(0,348,628)"/><path d="M 390 614v 28h 28v -14a 14 14, 0, 0, 0, -14 -14" transform="rotate(-90,404,628)"/><rect x="418" y="614" width="28" height="28" transform="rotate(0,432,628)"/><path d="M 446 614v 28h 28v -14a 14 14, 0, 0, 0, -14 -14" transform="rotate(90,460,628)"/><path d="M 530 614v 28h 14a 14 14, 0, 0, 0, 0 -28" transform="rotate(180,544,628)"/><rect x="558" y="614" width="28" height="28" transform="rotate(0,572,628)"/><rect x="586" y="614" width="28" height="28" transform="rotate(0,600,628)"/><path d="M 614 614v 28h 14a 14 14, 0, 0, 0, 0 -28" transform="rotate(0,628,628)"/><path d="M 670 614v 28h 14a 14 14, 0, 0, 0, 0 -28" transform="rotate(-90,684,628)"/><circle cx="768" cy="628" r="14" transform="rotate(0,768,628)"/><path d="M 810 614v 28h 14a 14 14, 0, 0, 0, 0 -28" transform="rotate(-90,824,628)"/><rect x="866" y="614" width="28" height="28" transform="rotate(0,880,628)"/><rect x="894" y="614" width="28" height="28" transform="rotate(0,908,628)"/><rect x="922" y="614" width="28" height="28" transform="rotate(0,936,628)"/><rect x="950" y="614" width="28" height="28" transform="rotate(0,964,628)"/><rect x="978" y="614" width="28" height="28" transform="rotate(0,992,628)"/><rect x="1006" y="614" width="28" height="28" transform="rotate(0,1020,628)"/><rect x="1034" y="614" width="28" height="28" transform="rotate(0,1048,628)"/><path d="M 1062 614v 28h 28v -14a 14 14, 0, 0, 0, -14 -14" transform="rotate(90,1076,628)"/><rect x="1118" y="614" width="28" height="28" transform="rotate(0,1132,628)"/><path d="M 1146 614v 28h 14a 14 14, 0, 0, 0, 0 -28" transform="rotate(0,1160,628)"/><path d="M 54 642v 28h 14a 14 14, 0, 0, 0, 0 -28" transform="rotate(90,68,656)"/><path d="M 138 642v 28h 14a 14 14, 0, 0, 0, 0 -28" transform="rotate(90,152,656)"/><circle cx="208" cy="656" r="14" transform="rotate(0,208,656)"/><path d="M 306 642v 28h 28v -14a 14 14, 0, 0, 0, -14 -14" transform="rotate(-90,320,656)"/><path d="M 334 642v 28h 28v -14a 14 14, 0, 0, 0, -14 -14" transform="rotate(90,348,656)"/><rect x="390" y="642" width="28" height="28" transform="rotate(0,404,656)"/><path d="M 502 642v 28h 14a 14 14, 0, 0, 0, 0 -28" transform="rotate(-90,516,656)"/><rect x="586" y="642" width="28" height="28" transform="rotate(0,600,656)"/><rect x="670" y="642" width="28" height="28" transform="rotate(0,684,656)"/><path d="M 698 642v 28h 28v -14a 14 14, 0, 0, 0, -14 -14" transform="rotate(0,712,656)"/><rect x="810" y="642" width="28" height="28" transform="rotate(0,824,656)"/><rect x="838" y="642" width="28" height="28" transform="rotate(0,852,656)"/><rect x="866" y="642" width="28" height="28" transform="rotate(0,880,656)"/><rect x="950" y="642" width="28" height="28" transform="rotate(0,964,656)"/><rect x="978" y="642" width="28" height="28" transform="rotate(0,992,656)"/><rect x="1006" y="642" width="28" height="28" transform="rotate(0,1020,656)"/><path d="M 1090 642v 28h 14a 14 14, 0, 0, 0, 0 -28" transform="rotate(180,1104,656)"/><rect x="1118" y="642" width="28" height="28" transform="rotate(0,1132,656)"/><path d="M 82 670v 28h 14a 14 14, 0, 0, 0, 0 -28" transform="rotate(180,96,684)"/><path d="M 110 670v 28h 14a 14 14, 0, 0, 0, 0 -28" transform="rotate(0,124,684)"/><circle cx="180" cy="684" r="14" transform="rotate(0,180,684)"/><path d="M 250 670v 28h 28v -14a 14 14, 0, 0, 0, -14 -14" transform="rotate(-90,264,684)"/><rect x="278" y="670" width="28" height="28" transform="rotate(0,292,684)"/><rect x="306" y="670" width="28" height="28" transform="rotate(0,320,684)"/><rect x="390" y="670" width="28" height="28" transform="rotate(0,404,684)"/><rect x="502" y="670" width="28" height="28" transform="rotate(0,516,684)"/><path d="M 558 670v 28h 28v -14a 14 14, 0, 0, 0, -14 -14" transform="rotate(-90,572,684)"/><path d="M 586 670v 28h 28v -14a 14 14, 0, 0, 0, -14 -14" transform="rotate(90,600,684)"/><path d="M 642 670v 28h 28v -14a 14 14, 0, 0, 0, -14 -14" transform="rotate(-90,656,684)"/><rect x="670" y="670" width="28" height="28" transform="rotate(0,684,684)"/><rect x="698" y="670" width="28" height="28" transform="rotate(0,712,684)"/><rect x="726" y="670" width="28" height="28" transform="rotate(0,740,684)"/><path d="M 754 670v 28h 28v -14a 14 14, 0, 0, 0, -14 -14" transform="rotate(0,768,684)"/><rect x="810" y="670" width="28" height="28" transform="rotate(0,824,684)"/><path d="M 866 670v 28h 14a 14 14, 0, 0, 0, 0 -28" transform="rotate(90,880,684)"/><path d="M 950 670v 28h 14a 14 14, 0, 0, 0, 0 -28" transform="rotate(90,964,684)"/><path d="M 1006 670v 28h 28v -14a 14 14, 0, 0, 0, -14 -14" transform="rotate(180,1020,684)"/><path d="M 1034 670v 28h 14a 14 14, 0, 0, 0, 0 -28" transform="rotate(0,1048,684)"/><path d="M 1118 670v 28h 14a 14 14, 0, 0, 0, 0 -28" transform="rotate(90,1132,684)"/><path d="M 138 698v 28h 14a 14 14, 0, 0, 0, 0 -28" transform="rotate(-90,152,712)"/><path d="M 194 698v 28h 14a 14 14, 0, 0, 0, 0 -28" transform="rotate(180,208,712)"/><rect x="222" y="698" width="28" height="28" transform="rotate(0,236,712)"/><rect x="250" y="698" width="28" height="28" transform="rotate(0,264,712)"/><rect x="278" y="698" width="28" height="28" transform="rotate(0,292,712)"/><rect x="306" y="698" width="28" height="28" transform="rotate(0,320,712)"/><path d="M 362 698v 28h 28v -14a 14 14, 0, 0, 0, -14 -14" transform="rotate(-90,376,712)"/><rect x="390" y="698" width="28" height="28" transform="rotate(0,404,712)"/><path d="M 502 698v 28h 14a 14 14, 0, 0, 0, 0 -28" transform="rotate(90,516,712)"/><rect x="558" y="698" width="28" height="28" transform="rotate(0,572,712)"/><rect x="642" y="698" width="28" height="28" transform="rotate(0,656,712)"/><path d="M 670 698v 28h 28v -14a 14 14, 0, 0, 0, -14 -14" transform="rotate(90,684,712)"/><rect x="726" y="698" width="28" height="28" transform="rotate(0,740,712)"/><rect x="754" y="698" width="28" height="28" transform="rotate(0,768,712)"/><rect x="782" y="698" width="28" height="28" transform="rotate(0,796,712)"/><rect x="810" y="698" width="28" height="28" transform="rotate(0,824,712)"/><path d="M 838 698v 28h 28v -14a 14 14, 0, 0, 0, -14 -14" transform="rotate(0,852,712)"/><path d="M 1090 698v 28h 14a 14 14, 0, 0, 0, 0 -28" transform="rotate(-90,1104,712)"/><path d="M 1146 698v 28h 14a 14 14, 0, 0, 0, 0 -28" transform="rotate(-90,1160,712)"/><circle cx="68" cy="740" r="14" transform="rotate(0,68,740)"/><path d="M 110 726v 28h 14a 14 14, 0, 0, 0, 0 -28" transform="rotate(180,124,740)"/><rect x="138" y="726" width="28" height="28" transform="rotate(0,152,740)"/><path d="M 166 726v 28h 28v -14a 14 14, 0, 0, 0, -14 -14" transform="rotate(0,180,740)"/><path d="M 250 726v 28h 28v -14a 14 14, 0, 0, 0, -14 -14" transform="rotate(180,264,740)"/><rect x="278" y="726" width="28" height="28" transform="rotate(0,292,740)"/><rect x="306" y="726" width="28" height="28" transform="rotate(0,320,740)"/><rect x="334" y="726" width="28" height="28" transform="rotate(0,348,740)"/><rect x="362" y="726" width="28" height="28" transform="rotate(0,376,740)"/><rect x="390" y="726" width="28" height="28" transform="rotate(0,404,740)"/><rect x="418" y="726" width="28" height="28" transform="rotate(0,432,740)"/><path d="M 446 726v 28h 28v -14a 14 14, 0, 0, 0, -14 -14" transform="rotate(0,460,740)"/><rect x="558" y="726" width="28" height="28" transform="rotate(0,572,740)"/><path d="M 586 726v 28h 14a 14 14, 0, 0, 0, 0 -28" transform="rotate(0,600,740)"/><rect x="642" y="726" width="28" height="28" transform="rotate(0,656,740)"/><path d="M 698 726v 28h 14a 14 14, 0, 0, 0, 0 -28" transform="rotate(180,712,740)"/><rect x="726" y="726" width="28" height="28" transform="rotate(0,740,740)"/><rect x="754" y="726" width="28" height="28" transform="rotate(0,768,740)"/><rect x="782" y="726" width="28" height="28" transform="rotate(0,796,740)"/><rect x="810" y="726" width="28" height="28" transform="rotate(0,824,740)"/><path d="M 838 726v 28h 28v -14a 14 14, 0, 0, 0, -14 -14" transform="rotate(90,852,740)"/><path d="M 894 726v 28h 28v -14a 14 14, 0, 0, 0, -14 -14" transform="rotate(-90,908,740)"/><path d="M 922 726v 28h 28v -14a 14 14, 0, 0, 0, -14 -14" transform="rotate(0,936,740)"/><circle cx="992" cy="740" r="14" transform="rotate(0,992,740)"/><path d="M 1062 726v 28h 28v -14a 14 14, 0, 0, 0, -14 -14" transform="rotate(-90,1076,740)"/><path d="M 1090 726v 28h 28v -14a 14 14, 0, 0, 0, -14 -14" transform="rotate(90,1104,740)"/><rect x="1146" y="726" width="28" height="28" transform="rotate(0,1160,740)"/><rect x="166" y="754" width="28" height="28" transform="rotate(0,180,768)"/><path d="M 194 754v 28h 14a 14 14, 0, 0, 0, 0 -28" transform="rotate(0,208,768)"/><path d="M 362 754v 28h 14a 14 14, 0, 0, 0, 0 -28" transform="rotate(90,376,768)"/><rect x="446" y="754" width="28" height="28" transform="rotate(0,460,768)"/><path d="M 474 754v 28h 28v -14a 14 14, 0, 0, 0, -14 -14" transform="rotate(0,488,768)"/><path d="M 558 754v 28h 14a 14 14, 0, 0, 0, 0 -28" transform="rotate(90,572,768)"/><path d="M 614 754v 28h 14a 14 14, 0, 0, 0, 0 -28" transform="rotate(180,628,768)"/><rect x="642" y="754" width="28" height="28" transform="rotate(0,656,768)"/><path d="M 726 754v 28h 28v -14a 14 14, 0, 0, 0, -14 -14" transform="rotate(180,740,768)"/><rect x="754" y="754" width="28" height="28" transform="rotate(0,768,768)"/><rect x="810" y="754" width="28" height="28" transform="rotate(0,824,768)"/><path d="M 866 754v 28h 28v -14a 14 14, 0, 0, 0, -14 -14" transform="rotate(-90,880,768)"/><rect x="894" y="754" width="28" height="28" transform="rotate(0,908,768)"/><rect x="922" y="754" width="28" height="28" transform="rotate(0,936,768)"/><path d="M 1006 754v 28h 14a 14 14, 0, 0, 0, 0 -28" transform="rotate(-90,1020,768)"/><rect x="1062" y="754" width="28" height="28" transform="rotate(0,1076,768)"/><rect x="1146" y="754" width="28" height="28" transform="rotate(0,1160,768)"/><path d="M 26 782v 28h 14a 14 14, 0, 0, 0, 0 -28" transform="rotate(180,40,796)"/><path d="M 54 782v 28h 28v -14a 14 14, 0, 0, 0, -14 -14" transform="rotate(0,68,796)"/><circle cx="124" cy="796" r="14" transform="rotate(0,124,796)"/><rect x="166" y="782" width="28" height="28" transform="rotate(0,180,796)"/><path d="M 222 782v 28h 28v -14a 14 14, 0, 0, 0, -14 -14" transform="rotate(-90,236,796)"/><rect x="250" y="782" width="28" height="28" transform="rotate(0,264,796)"/><path d="M 278 782v 28h 14a 14 14, 0, 0, 0, 0 -28" transform="rotate(0,292,796)"/><path d="M 390 782v 28h 14a 14 14, 0, 0, 0, 0 -28" transform="rotate(180,404,796)"/><rect x="418" y="782" width="28" height="28" transform="rotate(0,432,796)"/><rect x="446" y="782" width="28" height="28" transform="rotate(0,460,796)"/><rect x="474" y="782" width="28" height="28" transform="rotate(0,488,796)"/><path d="M 502 782v 28h 14a 14 14, 0, 0, 0, 0 -28" transform="rotate(0,516,796)"/><path d="M 642 782v 28h 14a 14 14, 0, 0, 0, 0 -28" transform="rotate(90,656,796)"/><path d="M 754 782v 28h 28v -14a 14 14, 0, 0, 0, -14 -14" transform="rotate(180,768,796)"/><rect x="782" y="782" width="28" height="28" transform="rotate(0,796,796)"/><path d="M 810 782v 28h 28v -14a 14 14, 0, 0, 0, -14 -14" transform="rotate(90,824,796)"/><rect x="866" y="782" width="28" height="28" transform="rotate(0,880,796)"/><rect x="894" y="782" width="28" height="28" transform="rotate(0,908,796)"/><rect x="922" y="782" width="28" height="28" transform="rotate(0,936,796)"/><path d="M 950 782v 28h 28v -14a 14 14, 0, 0, 0, -14 -14" transform="rotate(0,964,796)"/><rect x="1006" y="782" width="28" height="28" transform="rotate(0,1020,796)"/><rect x="1062" y="782" width="28" height="28" transform="rotate(0,1076,796)"/><path d="M 1146 782v 28h 14a 14 14, 0, 0, 0, 0 -28" transform="rotate(90,1160,796)"/><rect x="54" y="810" width="28" height="28" transform="rotate(0,68,824)"/><path d="M 82 810v 28h 28v -14a 14 14, 0, 0, 0, -14 -14" transform="rotate(0,96,824)"/><rect x="166" y="810" width="28" height="28" transform="rotate(0,180,824)"/><rect x="194" y="810" width="28" height="28" transform="rotate(0,208,824)"/><path d="M 222 810v 28h 28v -14a 14 14, 0, 0, 0, -14 -14" transform="rotate(90,236,824)"/><path d="M 306 810v 28h 14a 14 14, 0, 0, 0, 0 -28" transform="rotate(-90,320,824)"/><circle cx="376" cy="824" r="14" transform="rotate(0,376,824)"/><rect x="418" y="810" width="28" height="28" transform="rotate(0,432,824)"/><rect x="446" y="810" width="28" height="28" transform="rotate(0,460,824)"/><circle cx="544" cy="824" r="14" transform="rotate(0,544,824)"/><path d="M 698 810v 28h 14a 14 14, 0, 0, 0, 0 -28" transform="rotate(180,712,824)"/><path d="M 726 810v 28h 14a 14 14, 0, 0, 0, 0 -28" transform="rotate(0,740,824)"/><path d="M 866 810v 28h 28v -14a 14 14, 0, 0, 0, -14 -14" transform="rotate(180,880,824)"/><rect x="894" y="810" width="28" height="28" transform="rotate(0,908,824)"/><rect x="922" y="810" width="28" height="28" transform="rotate(0,936,824)"/><path d="M 950 810v 28h 28v -14a 14 14, 0, 0, 0, -14 -14" transform="rotate(90,964,824)"/><path d="M 1006 810v 28h 28v -14a 14 14, 0, 0, 0, -14 -14" transform="rotate(180,1020,824)"/><rect x="1034" y="810" width="28" height="28" transform="rotate(0,1048,824)"/><path d="M 1062 810v 28h 28v -14a 14 14, 0, 0, 0, -14 -14" transform="rotate(90,1076,824)"/><path d="M 54 838v 28h 28v -14a 14 14, 0, 0, 0, -14 -14" transform="rotate(180,68,852)"/><path d="M 82 838v 28h 28v -14a 14 14, 0, 0, 0, -14 -14" transform="rotate(90,96,852)"/><path d="M 138 838v 28h 14a 14 14, 0, 0, 0, 0 -28" transform="rotate(180,152,852)"/><path d="M 166 838v 28h 28v -14a 14 14, 0, 0, 0, -14 -14" transform="rotate(90,180,852)"/><path d="M 250 838v 28h 14a 14 14, 0, 0, 0, 0 -28" transform="rotate(-90,264,852)"/><path d="M 306 838v 28h 28v -14a 14 14, 0, 0, 0, -14 -14" transform="rotate(180,320,852)"/><path d="M 334 838v 28h 14a 14 14, 0, 0, 0, 0 -28" transform="rotate(0,348,852)"/><path d="M 418 838v 28h 28v -14a 14 14, 0, 0, 0, -14 -14" transform="rotate(180,432,852)"/><rect x="446" y="838" width="28" height="28" transform="rotate(0,460,852)"/><path d="M 474 838v 28h 28v -14a 14 14, 0, 0, 0, -14 -14" transform="rotate(0,488,852)"/><circle cx="852" cy="852" r="14" transform="rotate(0,852,852)"/><path d="M 894 838v 28h 14a 14 14, 0, 0, 0, 0 -28" transform="rotate(90,908,852)"/><path d="M 1090 838v 28h 28v -14a 14 14, 0, 0, 0, -14 -14" transform="rotate(-90,1104,852)"/><path d="M 1118 838v 28h 14a 14 14, 0, 0, 0, 0 -28" transform="rotate(0,1132,852)"/><circle cx="40" cy="880" r="14" transform="rotate(0,40,880)"/><circle cx="124" cy="880" r="14" transform="rotate(0,124,880)"/><path d="M 194 866v 28h 14a 14 14, 0, 0, 0, 0 -28" transform="rotate(180,208,880)"/><rect x="222" y="866" width="28" height="28" transform="rotate(0,236,880)"/><rect x="250" y="866" width="28" height="28" transform="rotate(0,264,880)"/><path d="M 278 866v 28h 14a 14 14, 0, 0, 0, 0 -28" transform="rotate(0,292,880)"/><path d="M 362 866v 28h 14a 14 14, 0, 0, 0, 0 -28" transform="rotate(180,376,880)"/><path d="M 390 866v 28h 14a 14 14, 0, 0, 0, 0 -28" transform="rotate(0,404,880)"/><path d="M 446 866v 28h 28v -14a 14 14, 0, 0, 0, -14 -14" transform="rotate(180,460,880)"/><rect x="474" y="866" width="28" height="28" transform="rotate(0,488,880)"/><path d="M 530 866v 28h 14a 14 14, 0, 0, 0, 0 -28" transform="rotate(-90,544,880)"/><path d="M 642 866v 28h 14a 14 14, 0, 0, 0, 0 -28" transform="rotate(-90,656,880)"/><path d="M 754 866v 28h 14a 14 14, 0, 0, 0, 0 -28" transform="rotate(-90,768,880)"/><path d="M 922 866v 28h 14a 14 14, 0, 0, 0, 0 -28" transform="rotate(180,936,880)"/><rect x="950" y="866" width="28" height="28" transform="rotate(0,964,880)"/><rect x="978" y="866" width="28" height="28" transform="rotate(0,992,880)"/><rect x="1006" y="866" width="28" height="28" transform="rotate(0,1020,880)"/><rect x="1034" y="866" width="28" height="28" transform="rotate(0,1048,880)"/><rect x="1062" y="866" width="28" height="28" transform="rotate(0,1076,880)"/><rect x="1090" y="866" width="28" height="28" transform="rotate(0,1104,880)"/><path d="M 82 894v 28h 14a 14 14, 0, 0, 0, 0 -28" transform="rotate(-90,96,908)"/><circle cx="152" cy="908" r="14" transform="rotate(0,152,908)"/><path d="M 250 894v 28h 14a 14 14, 0, 0, 0, 0 -28" transform="rotate(90,264,908)"/><rect x="474" y="894" width="28" height="28" transform="rotate(0,488,908)"/><rect x="502" y="894" width="28" height="28" transform="rotate(0,516,908)"/><rect x="530" y="894" width="28" height="28" transform="rotate(0,544,908)"/><rect x="558" y="894" width="28" height="28" transform="rotate(0,572,908)"/><rect x="586" y="894" width="28" height="28" transform="rotate(0,600,908)"/><rect x="614" y="894" width="28" height="28" transform="rotate(0,628,908)"/><rect x="642" y="894" width="28" height="28" transform="rotate(0,656,908)"/><path d="M 670 894v 28h 14a 14 14, 0, 0, 0, 0 -28" transform="rotate(0,684,908)"/><rect x="754" y="894" width="28" height="28" transform="rotate(0,768,908)"/><rect x="782" y="894" width="28" height="28" transform="rotate(0,796,908)"/><rect x="810" y="894" width="28" height="28" transform="rotate(0,824,908)"/><rect x="838" y="894" width="28" height="28" transform="rotate(0,852,908)"/><path d="M 866 894v 28h 28v -14a 14 14, 0, 0, 0, -14 -14" transform="rotate(0,880,908)"/><rect x="978" y="894" width="28" height="28" transform="rotate(0,992,908)"/><rect x="1034" y="894" width="28" height="28" transform="rotate(0,1048,908)"/><rect x="1062" y="894" width="28" height="28" transform="rotate(0,1076,908)"/><rect x="1090" y="894" width="28" height="28" transform="rotate(0,1104,908)"/><path d="M 1146 894v 28h 14a 14 14, 0, 0, 0, 0 -28" transform="rotate(-90,1160,908)"/><path d="M 54 922v 28h 14a 14 14, 0, 0, 0, 0 -28" transform="rotate(180,68,936)"/><rect x="82" y="922" width="28" height="28" transform="rotate(0,96,936)"/><path d="M 110 922v 28h 14a 14 14, 0, 0, 0, 0 -28" transform="rotate(0,124,936)"/><path d="M 194 922v 28h 14a 14 14, 0, 0, 0, 0 -28" transform="rotate(180,208,936)"/><path d="M 222 922v 28h 14a 14 14, 0, 0, 0, 0 -28" transform="rotate(0,236,936)"/><path d="M 278 922v 28h 14a 14 14, 0, 0, 0, 0 -28" transform="rotate(180,292,936)"/><rect x="306" y="922" width="28" height="28" transform="rotate(0,320,936)"/><rect x="334" y="922" width="28" height="28" transform="rotate(0,348,936)"/><path d="M 362 922v 28h 28v -14a 14 14, 0, 0, 0, -14 -14" transform="rotate(0,376,936)"/><rect x="474" y="922" width="28" height="28" transform="rotate(0,488,936)"/><rect x="558" y="922" width="28" height="28" transform="rotate(0,572,936)"/><circle cx="712" cy="936" r="14" transform="rotate(0,712,936)"/><path d="M 754 922v 28h 28v -14a 14 14, 0, 0, 0, -14 -14" transform="rotate(180,768,936)"/><rect x="782" y="922" width="28" height="28" transform="rotate(0,796,936)"/><rect x="810" y="922" width="28" height="28" transform="rotate(0,824,936)"/><rect x="838" y="922" width="28" height="28" transform="rotate(0,852,936)"/><rect x="866" y="922" width="28" height="28" transform="rotate(0,880,936)"/><rect x="894" y="922" width="28" height="28" transform="rotate(0,908,936)"/><rect x="922" y="922" width="28" height="28" transform="rotate(0,936,936)"/><rect x="950" y="922" width="28" height="28" transform="rotate(0,964,936)"/><rect x="978" y="922" width="28" height="28" transform="rotate(0,992,936)"/><rect x="1006" y="922" width="28" height="28" transform="rotate(0,1020,936)"/><rect x="1034" y="922" width="28" height="28" transform="rotate(0,1048,936)"/><rect x="1062" y="922" width="28" height="28" transform="rotate(0,1076,936)"/><rect x="1090" y="922" width="28" height="28" transform="rotate(0,1104,936)"/><rect x="1146" y="922" width="28" height="28" transform="rotate(0,1160,936)"/><circle cx="264" cy="964" r="14" transform="rotate(0,264,964)"/><rect x="362" y="950" width="28" height="28" transform="rotate(0,376,964)"/><path d="M 474 950v 28h 14a 14 14, 0, 0, 0, 0 -28" transform="rotate(90,488,964)"/><path d="M 530 950v 28h 28v -14a 14 14, 0, 0, 0, -14 -14" transform="rotate(-90,544,964)"/><rect x="558" y="950" width="28" height="28" transform="rotate(0,572,964)"/><path d="M 586 950v 28h 14a 14 14, 0, 0, 0, 0 -28" transform="rotate(0,600,964)"/><path d="M 642 950v 28h 14a 14 14, 0, 0, 0, 0 -28" transform="rotate(180,656,964)"/><path d="M 670 950v 28h 28v -14a 14 14, 0, 0, 0, -14 -14" transform="rotate(0,684,964)"/><path d="M 726 950v 28h 14a 14 14, 0, 0, 0, 0 -28" transform="rotate(-90,740,964)"/><path d="M 810 950v 28h 14a 14 14, 0, 0, 0, 0 -28" transform="rotate(90,824,964)"/><path d="M 866 950v 28h 14a 14 14, 0, 0, 0, 0 -28" transform="rotate(90,880,964)"/><rect x="922" y="950" width="28" height="28" transform="rotate(0,936,964)"/><rect x="1034" y="950" width="28" height="28" transform="rotate(0,1048,964)"/><rect x="1062" y="950" width="28" height="28" transform="rotate(0,1076,964)"/><rect x="1090" y="950" width="28" height="28" transform="rotate(0,1104,964)"/><rect x="1118" y="950" width="28" height="28" transform="rotate(0,1132,964)"/><path d="M 1146 950v 28h 28v -14a 14 14, 0, 0, 0, -14 -14" transform="rotate(90,1160,964)"/><path d="M 362 978v 28h 28v -14a 14 14, 0, 0, 0, -14 -14" transform="rotate(180,376,992)"/><rect x="390" y="978" width="28" height="28" transform="rotate(0,404,992)"/><rect x="418" y="978" width="28" height="28" transform="rotate(0,432,992)"/><path d="M 446 978v 28h 28v -14a 14 14, 0, 0, 0, -14 -14" transform="rotate(0,460,992)"/><path d="M 502 978v 28h 14a 14 14, 0, 0, 0, 0 -28" transform="rotate(180,516,992)"/><path d="M 530 978v 28h 28v -14a 14 14, 0, 0, 0, -14 -14" transform="rotate(90,544,992)"/><path d="M 670 978v 28h 28v -14a 14 14, 0, 0, 0, -14 -14" transform="rotate(180,684,992)"/><rect x="698" y="978" width="28" height="28" transform="rotate(0,712,992)"/><path d="M 726 978v 28h 28v -14a 14 14, 0, 0, 0, -14 -14" transform="rotate(90,740,992)"/><circle cx="852" cy="992" r="14" transform="rotate(0,852,992)"/><path d="M 894 978v 28h 14a 14 14, 0, 0, 0, 0 -28" transform="rotate(180,908,992)"/><rect x="922" y="978" width="28" height="28" transform="rotate(0,936,992)"/><circle cx="992" cy="992" r="14" transform="rotate(0,992,992)"/><rect x="1034" y="978" width="28" height="28" transform="rotate(0,1048,992)"/><path d="M 1090 978v 28h 14a 14 14, 0, 0, 0, 0 -28" transform="rotate(90,1104,992)"/><path d="M 250 1006v 28h 14a 14 14, 0, 0, 0, 0 -28" transform="rotate(180,264,1020)"/><rect x="278" y="1006" width="28" height="28" transform="rotate(0,292,1020)"/><path d="M 306 1006v 28h 28v -14a 14 14, 0, 0, 0, -14 -14" transform="rotate(0,320,1020)"/><path d="M 418 1006v 28h 28v -14a 14 14, 0, 0, 0, -14 -14" transform="rotate(180,432,1020)"/><rect x="446" y="1006" width="28" height="28" transform="rotate(0,460,1020)"/><path d="M 474 1006v 28h 28v -14a 14 14, 0, 0, 0, -14 -14" transform="rotate(0,488,1020)"/><path d="M 614 1006v 28h 14a 14 14, 0, 0, 0, 0 -28" transform="rotate(-90,628,1020)"/><path d="M 782 1006v 28h 28v -14a 14 14, 0, 0, 0, -14 -14" transform="rotate(-90,796,1020)"/><path d="M 810 1006v 28h 14a 14 14, 0, 0, 0, 0 -28" transform="rotate(0,824,1020)"/><path d="M 866 1006v 28h 14a 14 14, 0, 0, 0, 0 -28" transform="rotate(-90,880,1020)"/><rect x="922" y="1006" width="28" height="28" transform="rotate(0,936,1020)"/><rect x="1034" y="1006" width="28" height="28" transform="rotate(0,1048,1020)"/><path d="M 1062 1006v 28h 14a 14 14, 0, 0, 0, 0 -28" transform="rotate(0,1076,1020)"/><path d="M 1118 1006v 28h 28v -14a 14 14, 0, 0, 0, -14 -14" transform="rotate(-90,1132,1020)"/><path d="M 1146 1006v 28h 28v -14a 14 14, 0, 0, 0, -14 -14" transform="rotate(0,1160,1020)"/><path d="M 278 1034v 28h 28v -14a 14 14, 0, 0, 0, -14 -14" transform="rotate(180,292,1048)"/><path d="M 306 1034v 28h 28v -14a 14 14, 0, 0, 0, -14 -14" transform="rotate(90,320,1048)"/><path d="M 362 1034v 28h 14a 14 14, 0, 0, 0, 0 -28" transform="rotate(-90,376,1048)"/><rect x="474" y="1034" width="28" height="28" transform="rotate(0,488,1048)"/><rect x="502" y="1034" width="28" height="28" transform="rotate(0,516,1048)"/><path d="M 530 1034v 28h 14a 14 14, 0, 0, 0, 0 -28" transform="rotate(0,544,1048)"/><rect x="614" y="1034" width="28" height="28" transform="rotate(0,628,1048)"/><rect x="642" y="1034" width="28" height="28" transform="rotate(0,656,1048)"/><rect x="670" y="1034" width="28" height="28" transform="rotate(0,684,1048)"/><path d="M 698 1034v 28h 28v -14a 14 14, 0, 0, 0, -14 -14" transform="rotate(0,712,1048)"/><path d="M 754 1034v 28h 28v -14a 14 14, 0, 0, 0, -14 -14" transform="rotate(-90,768,1048)"/><rect x="782" y="1034" width="28" height="28" transform="rotate(0,796,1048)"/><rect x="866" y="1034" width="28" height="28" transform="rotate(0,880,1048)"/><rect x="922" y="1034" width="28" height="28" transform="rotate(0,936,1048)"/><rect x="950" y="1034" width="28" height="28" transform="rotate(0,964,1048)"/><rect x="978" y="1034" width="28" height="28" transform="rotate(0,992,1048)"/><rect x="1006" y="1034" width="28" height="28" transform="rotate(0,1020,1048)"/><rect x="1034" y="1034" width="28" height="28" transform="rotate(0,1048,1048)"/><path d="M 1090 1034v 28h 28v -14a 14 14, 0, 0, 0, -14 -14" transform="rotate(-90,1104,1048)"/><rect x="1118" y="1034" width="28" height="28" transform="rotate(0,1132,1048)"/><rect x="1146" y="1034" width="28" height="28" transform="rotate(0,1160,1048)"/><path d="M 250 1062v 28h 14a 14 14, 0, 0, 0, 0 -28" transform="rotate(-90,264,1076)"/><path d="M 334 1062v 28h 28v -14a 14 14, 0, 0, 0, -14 -14" transform="rotate(-90,348,1076)"/><path d="M 362 1062v 28h 28v -14a 14 14, 0, 0, 0, -14 -14" transform="rotate(90,376,1076)"/><rect x="474" y="1062" width="28" height="28" transform="rotate(0,488,1076)"/><path d="M 586 1062v 28h 28v -14a 14 14, 0, 0, 0, -14 -14" transform="rotate(-90,600,1076)"/><rect x="614" y="1062" width="28" height="28" transform="rotate(0,628,1076)"/><rect x="698" y="1062" width="28" height="28" transform="rotate(0,712,1076)"/><rect x="754" y="1062" width="28" height="28" transform="rotate(0,768,1076)"/><rect x="782" y="1062" width="28" height="28" transform="rotate(0,796,1076)"/><path d="M 810 1062v 28h 14a 14 14, 0, 0, 0, 0 -28" transform="rotate(0,824,1076)"/><rect x="866" y="1062" width="28" height="28" transform="rotate(0,880,1076)"/><rect x="894" y="1062" width="28" height="28" transform="rotate(0,908,1076)"/><rect x="922" y="1062" width="28" height="28" transform="rotate(0,936,1076)"/><path d="M 1034 1062v 28h 28v -14a 14 14, 0, 0, 0, -14 -14" transform="rotate(180,1048,1076)"/><rect x="1062" y="1062" width="28" height="28" transform="rotate(0,1076,1076)"/><rect x="1090" y="1062" width="28" height="28" transform="rotate(0,1104,1076)"/><rect x="1118" y="1062" width="28" height="28" transform="rotate(0,1132,1076)"/><rect x="1146" y="1062" width="28" height="28" transform="rotate(0,1160,1076)"/><rect x="250" y="1090" width="28" height="28" transform="rotate(0,264,1104)"/><path d="M 306 1090v 28h 28v -14a 14 14, 0, 0, 0, -14 -14" transform="rotate(-90,320,1104)"/><path d="M 334 1090v 28h 28v -14a 14 14, 0, 0, 0, -14 -14" transform="rotate(90,348,1104)"/><path d="M 474 1090v 28h 14a 14 14, 0, 0, 0, 0 -28" transform="rotate(90,488,1104)"/><path d="M 530 1090v 28h 14a 14 14, 0, 0, 0, 0 -28" transform="rotate(180,544,1104)"/><rect x="558" y="1090" width="28" height="28" transform="rotate(0,572,1104)"/><rect x="586" y="1090" width="28" height="28" transform="rotate(0,600,1104)"/><rect x="614" y="1090" width="28" height="28" transform="rotate(0,628,1104)"/><path d="M 698 1090v 28h 14a 14 14, 0, 0, 0, 0 -28" transform="rotate(90,712,1104)"/><path d="M 754 1090v 28h 14a 14 14, 0, 0, 0, 0 -28" transform="rotate(90,768,1104)"/><rect x="866" y="1090" width="28" height="28" transform="rotate(0,880,1104)"/><rect x="922" y="1090" width="28" height="28" transform="rotate(0,936,1104)"/><circle cx="1020" cy="1104" r="14" transform="rotate(0,1020,1104)"/><path d="M 1146 1090v 28h 14a 14 14, 0, 0, 0, 0 -28" transform="rotate(90,1160,1104)"/><path d="M 250 1118v 28h 28v -14a 14 14, 0, 0, 0, -14 -14" transform="rotate(180,264,1132)"/><rect x="278" y="1118" width="28" height="28" transform="rotate(0,292,1132)"/><path d="M 306 1118v 28h 28v -14a 14 14, 0, 0, 0, -14 -14" transform="rotate(90,320,1132)"/><path d="M 446 1118v 28h 14a 14 14, 0, 0, 0, 0 -28" transform="rotate(-90,460,1132)"/><circle cx="516" cy="1132" r="14" transform="rotate(0,516,1132)"/><path d="M 558 1118v 28h 14a 14 14, 0, 0, 0, 0 -28" transform="rotate(90,572,1132)"/><path d="M 614 1118v 28h 14a 14 14, 0, 0, 0, 0 -28" transform="rotate(90,628,1132)"/><rect x="866" y="1118" width="28" height="28" transform="rotate(0,880,1132)"/><rect x="894" y="1118" width="28" height="28" transform="rotate(0,908,1132)"/><rect x="922" y="1118" width="28" height="28" transform="rotate(0,936,1132)"/><path d="M 978 1118v 28h 14a 14 14, 0, 0, 0, 0 -28" transform="rotate(-90,992,1132)"/><path d="M 1034 1118v 28h 14a 14 14, 0, 0, 0, 0 -28" transform="rotate(180,1048,1132)"/><path d="M 1062 1118v 28h 14a 14 14, 0, 0, 0, 0 -28" transform="rotate(0,1076,1132)"/><path d="M 1118 1118v 28h 14a 14 14, 0, 0, 0, 0 -28" transform="rotate(-90,1132,1132)"/><path d="M 334 1146v 28h 14a 14 14, 0, 0, 0, 0 -28" transform="rotate(180,348,1160)"/><rect x="362" y="1146" width="28" height="28" transform="rotate(0,376,1160)"/><path d="M 390 1146v 28h 14a 14 14, 0, 0, 0, 0 -28" transform="rotate(0,404,1160)"/><path d="M 446 1146v 28h 14a 14 14, 0, 0, 0, 0 -28" transform="rotate(90,460,1160)"/><circle cx="544" cy="1160" r="14" transform="rotate(0,544,1160)"/><circle cx="740" cy="1160" r="14" transform="rotate(0,740,1160)"/><circle cx="824" cy="1160" r="14" transform="rotate(0,824,1160)"/><path d="M 866 1146v 28h 28v -14a 14 14, 0, 0, 0, -14 -14" transform="rotate(180,880,1160)"/><rect x="894" y="1146" width="28" height="28" transform="rotate(0,908,1160)"/><path d="M 922 1146v 28h 28v -14a 14 14, 0, 0, 0, -14 -14" transform="rotate(90,936,1160)"/><path d="M 978 1146v 28h 14a 14 14, 0, 0, 0, 0 -28" transform="rotate(90,992,1160)"/><path d="M 1118 1146v 28h 14a 14 14, 0, 0, 0, 0 -28" transform="rotate(90,1132,1160)"/></clipPath><clipPath id="clip-path-corners-square-color-0-0-467"><path clip-rule="evenodd" d="M 26 96v 56a 70 70, 0, 0, 0, 70 70h 56a 70 70, 0, 0, 0, 70 -70v -56a 70 70, 0, 0, 0, -70 -70h -56a 70 70, 0, 0, 0, -70 70M 96 54h 56a 42 42, 0, 0, 1, 42 42v 56a 42 42, 0, 0, 1, -42 42h -56a 42 42, 0, 0, 1, -42 -42v -56a 42 42, 0, 0, 1, 42 -42" transform="rotate(0,124,124)"/></clipPath><clipPath id="clip-path-corners-dot-color-0-0-467"><circle cx="124" cy="124" r="42" transform="rotate(0,124,124)"/></clipPath><clipPath id="clip-path-corners-square-color-1-0-467"><path clip-rule="evenodd" d="M 978 96v 56a 70 70, 0, 0, 0, 70 70h 56a 70 70, 0, 0, 0, 70 -70v -56a 70 70, 0, 0, 0, -70 -70h -56a 70 70, 0, 0, 0, -70 70M 1048 54h 56a 42 42, 0, 0, 1, 42 42v 56a 42 42, 0, 0, 1, -42 42h -56a 42 42, 0, 0, 1, -42 -42v -56a 42 42, 0, 0, 1, 42 -42" transform="rotate(90,1076,124)"/></clipPath><clipPath id="clip-path-corners-dot-color-1-0-467"><circle cx="1076" cy="124" r="42" transform="rotate(90,1076,124)"/></clipPath><clipPath id="clip-path-corners-square-color-0-1-467"><path clip-rule="evenodd" d="M 26 1048v 56a 70 70, 0, 0, 0, 70 70h 56a 70 70, 0, 0, 0, 70 -70v -56a 70 70, 0, 0, 0, -70 -70h -56a 70 70, 0, 0, 0, -70 70M 96 1006h 56a 42 42, 0, 0, 1, 42 42v 56a 42 42, 0, 0, 1, -42 42h -56a 42 42, 0, 0, 1, -42 -42v -56a 42 42, 0, 0, 1, 42 -42" transform="rotate(-90,124,1076)"/></clipPath><clipPath id="clip-path-corners-dot-color-0-1-467"><circle cx="124" cy="1076" r="42" transform="rotate(-90,124,1076)"/></clipPath></defs><rect x="0" y="0" height="1200" width="1200" clip-path="url('#clip-path-background-color-467')" fill="#ffffff"/><rect x="0" y="0" height="1200" width="1200" clip-path="url('#clip-path-dot-color-467')" fill="#000000"/><rect x="26" y="26" height="196" width="196" clip-path="url('#clip-path-corners-square-color-0-0-467')" fill="#000000"/><rect x="82" y="82" height="84" width="84" clip-path="url('#clip-path-corners-dot-color-0-0-467')" fill="#000000"/><rect x="978" y="26" height="196" width="196" clip-path="url('#clip-path-corners-square-color-1-0-467')" fill="#000000"/><rect x="1034" y="82" height="84" width="84" clip-path="url('#clip-path-corners-dot-color-1-0-467')" fill="#000000"/><rect x="26" y="978" height="196" width="196" clip-path="url('#clip-path-corners-square-color-0-1-467')" fill="#000000"/><rect x="82" y="1034" height="84" width="84" clip-path="url('#clip-path-corners-dot-color-0-1-467')" fill="#000000"/></svg>