<?xml version="1.0" standalone="no"?>
<svg xmlns="http://www.w3.org/2000/svg" width="1200" height="1200" xmlns:xlink="http://www.w3.org/1999/xlink" viewBox="0 0 1200 1200"><defs><clipPath id="clip-path-background-color-492"><rect x="0" y="0" width="1200" height="1200"/></clipPath><clipPath id="clip-path-dot-color-492"><path d="M 250 26v 28h 14a 14 14, 0, 0, 0, 0 -28" transform="rotate(180,264,40)"/><path d="M 278 26v 28h 28v -14a 14 14, 0, 0, 0, -14 -14" transform="rotate(0,292,40)"/><path d="M 334 26v 28h 14a 14 14, 0, 0, 0, 0 -28" transform="rotate(180,348,40)"/><path d="M 362 26v 28h 14a 14 14, 0, 0, 0, 0 -28" transform="rotate(0,376,40)"/><circle cx="516" cy="40" r="14" transform="rotate(0,516,40)"/><path d="M 586 26v 28h 14a 14 14, 0, 0, 0, 0 -28" transform="rotate(180,600,40)"/><rect x="614" y="26" width="28" height="28" transform="rotate(0,628,40)"/><path d="M 642 26v 28h 28v -14a 14 14, 0, 0, 0, -14 -14" transform="rotate(0,656,40)"/><path d="M 726 26v 28h 28v -14a 14 14, 0, 0, 0, -14 -14" transform="rotate(-90,740,40)"/><rect x="754" y="26" width="28" height="28" transform="rotate(0,768,40)"/><path d="M 782 26v 28h 28v -14a 14 14, 0, 0, 0, -14 -14" transform="rotate(0,796,40)"/><path d="M 866 26v 28h 14a 14 14, 0, 0, 0, 0 -28" transform="rotate(180,880,40)"/><path d="M 894 26v 28h 14a 14 14, 0, 0, 0, 0 -28" transform="rotate(0,908,40)"/><path d="M 278 54v 28h 28v -14a 14 14, 0, 0, 0, -14 -14" transform="rotate(180,292,68)"/><path d="M 306 54v 28h 14a 14 14, 0, 0, 0, 0 -28" transform="rotate(0,320,68)"/><path d="M 390 54v 28h 14a 14 14, 0, 0, 0, 0 -28" transform="rotate(-90,404,68)"/><path d="M 474 54v 28h 14a 14 14, 0, 0, 0, 0 -28" transform="rotate(-90,488,68)"/><circle cx="572" cy="68" r="14" transform="rotate(0,572,68)"/><path d="M 642 54v 28h 14a 14 14, 0, 0, 0, 0 -28" transform="rotate(90,656,68)"/><rect x="726" y="54" width="28" height="28" transform="rotate(0,740,68)"/><rect x="754" y="54" width="28" height="28" transform="rotate(0,768,68)"/><path d="M 782 54v 28h 28v -14a 14 14, 0, 0, 0, -14 -14" transform="rotate(90,796,68)"/><path d="M 922 54v 28h 14a 14 14, 0, 0, 0, 0 -28" transform="rotate(-90,936,68)"/><path d="M 250 82v 28h 14a 14 14, 0, 0, 0, 0 -28" transform="rotate(-90,264,96)"/><rect x="390" y="82" width="28" height="28" transform="rotate(0,404,96)"/><path d="M 446 82v 28h 28v -14a 14 14, 0, 0, 0, -14 -14" transform="rotate(-90,460,96)"/><rect x="474" y="82" width="28" height="28" transform="rotate(0,488,96)"/><path d="M 586 82v 28h 14a 14 14, 0, 0, 0, 0 -28" transform="rotate(180,600,96)"/><path d="M 614 82v 28h 14a 14 14, 0, 0, 0, 0 -28" transform="rotate(0,628,96)"/><circle cx="684" cy="96" r="14" transform="rotate(0,684,96)"/><rect x="726" y="82" width="28" height="28" transform="rotate(0,740,96)"/><circle cx="852" cy="96" r="14" transform="rotate(0,852,96)"/><rect x="922" y="82" width="28" height="28" transform="rotate(0,936,96)"/><path d="M 250 110v 28h 14a 14 14, 0, 0, 0, 0 -28" transform="rotate(90,264,124)"/><path d="M 362 110v 28h 28v -14a 14 14, 0, 0, 0, -14 -14" transform="rotate(-90,376,124)"/><rect x="390" y="110" width="28" height="28" transform="rotate(0,404,124)"/><rect x="418" y="110" width="28" height="28" transform="rotate(0,432,124)"/><rect x="446" y="110" width="28" height="28" transform="rotate(0,460,124)"/><rect x="474" y="110" width="28" height="28" transform="rotate(0,488,124)"/><rect x="502" y="110" width="28" height="28" transform="rotate(0,516,124)"/><path d="M 530 110v 28h 28v -14a 14 14, 0, 0, 0, -14 -14" transform="rotate(0,544,124)"/><circle cx="656" cy="124" r="14" transform="rotate(0,656,124)"/><path d="M 698 110v 28h 14a 14 14, 0, 0, 0, 0 -28" transform="rotate(180,712,124)"/><rect x="726" y="110" width="28" height="28" transform="rotate(0,740,124)"/><path d="M 754 110v 28h 28v -14a 14 14, 0, 0, 0, -14 -14" transform="rotate(0,768,124)"/><path d="M 866 110v 28h 14a 14 14, 0, 0, 0, 0 -28" transform="rotate(180,880,124)"/><rect x="894" y="110" width="28" height="28" transform="rotate(0,908,124)"/><path d="M 922 110v 28h 28v -14a 14 14, 0, 0, 0, -14 -14" transform="rotate(90,936,124)"/><path d="M 278 138v 28h 14a 14 14, 0, 0, 0, 0 -28" transform="rotate(180,292,152)"/><path d="M 306 138v 28h 28v -14a 14 14, 0, 0, 0, -14 -14" transform="rotate(0,320,152)"/><rect x="362" y="138" width="28" height="28" transform="rotate(0,376,152)"/><path d="M 390 138v 28h 28v -14a 14 14, 0, 0, 0, -14 -14" transform="rotate(90,404,152)"/><rect x="446" y="138" width="28" height="28" transform="rotate(0,460,152)"/><rect x="474" y="138" width="28" height="28" transform="rotate(0,488,152)"/><rect x="502" y="138" width="28" height="28" transform="rotate(0,516,152)"/><rect x="530" y="138" width="28" height="28" transform="rotate(0,544,152)"/><path d="M 558 138v 28h 28v -14a 14 14, 0, 0, 0, -14 -14" transform="rotate(0,572,152)"/><circle cx="628" cy="152" r="14" transform="rotate(0,628,152)"/><path d="M 670 138v 28h 14a 14 14, 0, 0, 0, 0 -28" transform="rotate(-90,684,152)"/><path d="M 726 138v 28h 28v -14a 14 14, 0, 0, 0, -14 -14" transform="rotate(180,740,152)"/><rect x="754" y="138" width="28" height="28" transform="rotate(0,768,152)"/><rect x="782" y="138" width="28" height="28" transform="rotate(0,796,152)"/><path d="M 810 138v 28h 14a 14 14, 0, 0, 0, 0 -28" transform="rotate(0,824,152)"/><path d="M 250 166v 28h 14a 14 14, 0, 0, 0, 0 -28" transform="rotate(-90,264,180)"/><rect x="306" y="166" width="28" height="28" transform="rotate(0,320,180)"/><rect x="334" y="166" width="28" height="28" transform="rotate(0,348,180)"/><rect x="362" y="166" width="28" height="28" transform="rotate(0,376,180)"/><path d="M 446 166v 28h 14a 14 14, 0, 0, 0, 0 -28" transform="rotate(90,460,180)"/><rect x="530" y="166" width="28" height="28" transform="rotate(0,544,180)"/><path d="M 558 166v 28h 28v -14a 14 14, 0, 0, 0, -14 -14" transform="rotate(90,572,180)"/><path d="M 642 166v 28h 28v -14a 14 14, 0, 0, 0, -14 -14" transform="rotate(-90,656,180)"/><path d="M 670 166v 28h 28v -14a 14 14, 0, 0, 0, -14 -14" transform="rotate(90,684,180)"/><rect x="754" y="166" width="28" height="28" transform="rotate(0,768,180)"/><path d="M 782 166v 28h 28v -14a 14 14, 0, 0, 0, -14 -14" transform="rotate(90,796,180)"/><circle cx="852" cy="180" r="14" transform="rotate(0,852,180)"/><circle cx="908" cy="180" r="14" transform="rotate(0,908,180)"/><rect x="250" y="194" width="28" height="28" transform="rotate(0,264,208)"/><path d="M 306 194v 28h 14a 14 14, 0, 0, 0, 0 -28" transform="rotate(90,320,208)"/><path d="M 362 194v 28h 14a 14 14, 0, 0, 0, 0 -28" transform="rotate(90,376,208)"/><path d="M 418 194v 28h 14a 14 14, 0, 0, 0, 0 -28" transform="rotate(-90,432,208)"/><path d="M 474 194v 28h 14a 14 14, 0, 0, 0, 0 -28" transform="rotate(-90,488,208)"/><rect x="530" y="194" width="28" height="28" transform="rotate(0,544,208)"/><circle cx="600" cy="208" r="14" transform="rotate(0,600,208)"/><path d="M 642 194v 28h 14a 14 14, 0, 0, 0, 0 -28" transform="rotate(90,656,208)"/><circle cx="712" cy="208" r="14" transform="rotate(0,712,208)"/><path d="M 754 194v 28h 14a 14 14, 0, 0, 0, 0 -28" transform="rotate(90,768,208)"/><path d="M 810 194v 28h 14a 14 14, 0, 0, 0, 0 -28" transform="rotate(-90,824,208)"/><path d="M 866 194v 28h 14a 14 14, 0, 0, 0, 0 -28" transform="rotate(-90,880,208)"/><path d="M 922 194v 28h 14a 14 14, 0, 0, 0, 0 -28" transform="rotate(-90,936,208)"/><rect x="250" y="222" width="28" height="28" transform="rotate(0,264,236)"/><path d="M 278 222v 28h 14a 14 14, 0, 0, 0, 0 -28" transform="rotate(0,292,236)"/><path d="M 390 222v 28h 14a 14 14, 0, 0, 0, 0 -28" transform="rotate(180,404,236)"/><rect x="418" y="222" width="28" height="28" transform="rotate(0,432,236)"/><rect x="446" y="222" width="28" height="28" transform="rotate(0,460,236)"/><rect x="474" y="222" width="28" height="28" transform="rotate(0,488,236)"/><rect x="530" y="222" width="28" height="28" transform="rotate(0,544,236)"/><path d="M 810 222v 28h 28v -14a 14 14, 0, 0, 0, -14 -14" transform="rotate(180,824,236)"/><rect x="838" y="222" width="28" height="28" transform="rotate(0,852,236)"/><path d="M 866 222v 28h 28v -14a 14 14, 0, 0, 0, -14 -14" transform="rotate(90,880,236)"/><path d="M 922 222v 28h 14a 14 14, 0, 0, 0, 0 -28" transform="rotate(90,936,236)"/><path d="M 54 250v 28h 14a 14 14, 0, 0, 0, 0 -28" transform="rotate(-90,68,264)"/><path d="M 110 250v 28h 14a 14 14, 0, 0, 0, 0 -28" transform="rotate(-90,124,264)"/><path d="M 166 250v 28h 14a 14 14, 0, 0, 0, 0 -28" transform="rotate(180,180,264)"/><rect x="194" y="250" width="28" height="28" transform="rotate(0,208,264)"/><rect x="222" y="250" width="28" height="28" transform="rotate(0,236,264)"/><rect x="250" y="250" width="28" height="28" transform="rotate(0,264,264)"/><circle cx="320" cy="264" r="14" transform="rotate(0,320,264)"/><rect x="418" y="250" width="28" height="28" transform="rotate(0,432,264)"/><path d="M 474 250v 28h 28v -14a 14 14, 0, 0, 0, -14 -14" transform="rotate(180,488,264)"/><rect x="502" y="250" width="28" height="28" transform="rotate(0,516,264)"/><path d="M 530 250v 28h 28v -14a 14 14, 0, 0, 0, -14 -14" transform="rotate(90,544,264)"/><path d="M 586 250v 28h 28v -14a 14 14, 0, 0, 0, -14 -14" transform="rotate(-90,600,264)"/><path d="M 614 250v 28h 28v -14a 14 14, 0, 0, 0, -14 -14" transform="rotate(0,628,264)"/><path d="M 670 250v 28h 14a 14 14, 0, 0, 0, 0 -28" transform="rotate(-90,684,264)"/><path d="M 726 250v 28h 28v -14a 14 14, 0, 0, 0, -14 -14" transform="rotate(-90,740,264)"/><path d="M 754 250v 28h 14a 14 14, 0, 0, 0, 0 -28" transform="rotate(0,768,264)"/><path d="M 950 250v 28h 28v -14a 14 14, 0, 0, 0, -14 -14" transform="rotate(-90,964,264)"/><rect x="978" y="250" width="28" height="28" transform="rotate(0,992,264)"/><path d="M 1006 250v 28h 14a 14 14, 0, 0, 0, 0 -28" transform="rotate(0,1020,264)"/><path d="M 1062 250v 28h 28v -14a 14 14, 0, 0, 0, -14 -14" transform="rotate(-90,1076,264)"/><path d="M 1090 250v 28h 28v -14a 14 14, 0, 0, 0, -14 -14" transform="rotate(0,1104,264)"/><path d="M 1146 250v 28h 14a 14 14, 0, 0, 0, 0 -28" transform="rotate(-90,1160,264)"/><path d="M 26 278v 28h 28v -14a 14 14, 0, 0, 0, -14 -14" transform="rotate(-90,40,292)"/><rect x="54" y="278" width="28" height="28" transform="rotate(0,68,292)"/><rect x="82" y="278" width="28" height="28" transform="rotate(0,96,292)"/><path d="M 110 278v 28h 28v -14a 14 14, 0, 0, 0, -14 -14" transform="rotate(90,124,292)"/><rect x="250" y="278" width="28" height="28" transform="rotate(0,264,292)"/><path d="M 278 278v 28h 14a 14 14, 0, 0, 0, 0 -28" transform="rotate(0,292,292)"/><path d="M 334 278v 28h 28v -14a 14 14, 0, 0, 0, -14 -14" transform="rotate(-90,348,292)"/><rect x="362" y="278" width="28" height="28" transform="rotate(0,376,292)"/><rect x="390" y="278" width="28" height="28" transform="rotate(0,404,292)"/><rect x="418" y="278" width="28" height="28" transform="rotate(0,432,292)"/><path d="M 446 278v 28h 28v -14a 14 14, 0, 0, 0, -14 -14" transform="rotate(0,460,292)"/><rect x="502" y="278" width="28" height="28" transform="rotate(0,516,292)"/><path d="M 586 278v 28h 28v -14a 14 14, 0, 0, 0, -14 -14" transform="rotate(180,600,292)"/><path d="M 614 278v 28h 28v -14a 14 14, 0, 0, 0, -14 -14" transform="rotate(90,628,292)"/><path d="M 670 278v 28h 14a 14 14, 0, 0, 0, 0 -28" transform="rotate(90,684,292)"/><rect x="726" y="278" width="28" height="28" transform="rotate(0,740,292)"/><path d="M 810 278v 28h 28v -14a 14 14, 0, 0, 0, -14 -14" transform="rotate(-90,824,292)"/><rect x="838" y="278" width="28" height="28" transform="rotate(0,852,292)"/><path d="M 866 278v 28h 28v -14a 14 14, 0, 0, 0, -14 -14" transform="rotate(0,880,292)"/><path d="M 922 278v 28h 14a 14 14, 0, 0, 0, 0 -28" transform="rotate(180,936,292)"/><rect x="950" y="278" width="28" height="28" transform="rotate(0,964,292)"/><rect x="978" y="278" width="28" height="28" transform="rotate(0,992,292)"/><rect x="1062" y="278" width="28" height="28" transform="rotate(0,1076,292)"/><rect x="1090" y="278" width="28" height="28" transform="rotate(0,1104,292)"/><rect x="1118" y="278" width="28" height="28" transform="rotate(0,1132,292)"/><path d="M 1146 278v 28h 28v -14a 14 14, 0, 0, 0, -14 -14" transform="rotate(90,1160,292)"/><rect x="26" y="306" width="28" height="28" transform="rotate(0,40,320)"/><path d="M 166 306v 28h 14a 14 14, 0, 0, 0, 0 -28" transform="rotate(180,180,320)"/><rect x="194" y="306" width="28" height="28" transform="rotate(0,208,320)"/><rect x="222" y="306" width="28" height="28" transform="rotate(0,236,320)"/><path d="M 250 306v 28h 28v -14a 14 14, 0, 0, 0, -14 -14" transform="rotate(90,264,320)"/><path d="M 306 306v 28h 14a 14 14, 0, 0, 0, 0 -28" transform="rotate(180,320,320)"/><rect x="334" y="306" width="28" height="28" transform="rotate(0,348,320)"/><rect x="362" y="306" width="28" height="28" transform="rotate(0,376,320)"/><path d="M 390 306v 28h 28v -14a 14 14, 0, 0, 0, -14 -14" transform="rotate(90,404,320)"/><path d="M 446 306v 28h 28v -14a 14 14, 0, 0, 0, -14 -14" transform="rotate(180,460,320)"/><rect x="474" y="306" width="28" height="28" transform="rotate(0,488,320)"/><rect x="502" y="306" width="28" height="28" transform="rotate(0,516,320)"/><path d="M 530 306v 28h 28v -14a 14 14, 0, 0, 0, -14 -14" transform="rotate(0,544,320)"/><rect x="726" y="306" width="28" height="28" transform="rotate(0,740,320)"/><rect x="810" y="306" width="28" height="28" transform="rotate(0,824,320)"/><rect x="838" y="306" width="28" height="28" transform="rotate(0,852,320)"/><rect x="866" y="306" width="28" height="28" transform="rotate(0,880,320)"/><path d="M 894 306v 28h 14a 14 14, 0, 0, 0, 0 -28" transform="rotate(0,908,320)"/><path d="M 950 306v 28h 28v -14a 14 14, 0, 0, 0, -14 -14" transform="rotate(180,964,320)"/><path d="M 978 306v 28h 28v -14a 14 14, 0, 0, 0, -14 -14" transform="rotate(90,992,320)"/><path d="M 1062 306v 28h 28v -14a 14 14, 0, 0, 0, -14 -14" transform="rotate(180,1076,320)"/><rect x="1090" y="306" width="28" height="28" transform="rotate(0,1104,320)"/><rect x="1118" y="306" width="28" height="28" transform="rotate(0,1132,320)"/><path d="M 26 334v 28h 28v -14a 14 14, 0, 0, 0, -14 -14" transform="rotate(180,40,348)"/><rect x="54" y="334" width="28" height="28" transform="rotate(0,68,348)"/><rect x="82" y="334" width="28" height="28" transform="rotate(0,96,348)"/><path d="M 110 334v 28h 28v -14a 14 14, 0, 0, 0, -14 -14" transform="rotate(0,124,348)"/><path d="M 334 334v 28h 14a 14 14, 0, 0, 0, 0 -28" transform="rotate(90,348,348)"/><path d="M 474 334v 28h 14a 14 14, 0, 0, 0, 0 -28" transform="rotate(90,488,348)"/><rect x="530" y="334" width="28" height="28" transform="rotate(0,544,348)"/><path d="M 558 334v 28h 14a 14 14, 0, 0, 0, 0 -28" transform="rotate(0,572,348)"/><path d="M 614 334v 28h 14a 14 14, 0, 0, 0, 0 -28" transform="rotate(180,628,348)"/><rect x="642" y="334" width="28" height="28" transform="rotate(0,656,348)"/><rect x="670" y="334" width="28" height="28" transform="rotate(0,684,348)"/><rect x="698" y="334" width="28" height="28" transform="rotate(0,712,348)"/><rect x="726" y="334" width="28" height="28" transform="rotate(0,740,348)"/><rect x="754" y="334" width="28" height="28" transform="rotate(0,768,348)"/><rect x="782" y="334" width="28" height="28" transform="rotate(0,796,348)"/><path d="M 810 334v 28h 28v -14a 14 14, 0, 0, 0, -14 -14" transform="rotate(90,824,348)"/><path d="M 1090 334v 28h 28v -14a 14 14, 0, 0, 0, -14 -14" transform="rotate(180,1104,348)"/><rect x="1118" y="334" width="28" height="28" transform="rotate(0,1132,348)"/><path d="M 54 362v 28h 28v -14a 14 14, 0, 0, 0, -14 -14" transform="rotate(180,68,376)"/><rect x="82" y="362" width="28" height="28" transform="rotate(0,96,376)"/><rect x="110" y="362" width="28" height="28" transform="rotate(0,124,376)"/><rect x="138" y="362" width="28" height="28" transform="rotate(0,152,376)"/><rect x="166" y="362" width="28" height="28" transform="rotate(0,180,376)"/><rect x="194" y="362" width="28" height="28" transform="rotate(0,208,376)"/><rect x="222" y="362" width="28" height="28" transform="rotate(0,236,376)"/><path d="M 250 362v 28h 28v -14a 14 14, 0, 0, 0, -14 -14" transform="rotate(0,264,376)"/><path d="M 362 362v 28h 28v -14a 14 14, 0, 0, 0, -14 -14" transform="rotate(-90,376,376)"/><path d="M 390 362v 28h 28v -14a 14 14, 0, 0, 0, -14 -14" transform="rotate(0,404,376)"/><circle cx="460" cy="376" r="14" transform="rotate(0,460,376)"/><path d="M 502 362v 28h 28v -14a 14 14, 0, 0, 0, -14 -14" transform="rotate(-90,516,376)"/><rect x="530" y="362" width="28" height="28" transform="rotate(0,544,376)"/><path d="M 586 362v 28h 14a 14 14, 0, 0, 0, 0 -28" transform="rotate(-90,600,376)"/><rect x="670" y="362" width="28" height="28" transform="rotate(0,684,376)"/><rect x="698" y="362" width="28" height="28" transform="rotate(0,712,376)"/><rect x="726" y="362" width="28" height="28" transform="rotate(0,740,376)"/><path d="M 754 362v 28h 28v -14a 14 14, 0, 0, 0, -14 -14" transform="rotate(90,768,376)"/><path d="M 838 362v 28h 14a 14 14, 0, 0, 0, 0 -28" transform="rotate(-90,852,376)"/><path d="M 894 362v 28h 14a 14 14, 0, 0, 0, 0 -28" transform="rotate(-90,908,376)"/><path d="M 950 362v 28h 14a 14 14, 0, 0, 0, 0 -28" transform="rotate(180,964,376)"/><path d="M 978 362v 28h 14a 14 14, 0, 0, 0, 0 -28" transform="rotate(0,992,376)"/><circle cx="1076" cy="376" r="14" transform="rotate(0,1076,376)"/><path d="M 1118 362v 28h 28v -14a 14 14, 0, 0, 0, -14 -14" transform="rotate(180,1132,376)"/><path d="M 1146 362v 28h 14a 14 14, 0, 0, 0, 0 -28" transform="rotate(0,1160,376)"/><path d="M 26 390v 28h 14a 14 14, 0, 0, 0, 0 -28" transform="rotate(-90,40,404)"/><rect x="82" y="390" width="28" height="28" transform="rotate(0,96,404)"/><path d="M 110 390v 28h 28v -14a 14 14, 0, 0, 0, -14 -14" transform="rotate(90,124,404)"/><rect x="166" y="390" width="28" height="28" transform="rotate(0,180,404)"/><rect x="250" y="390" width="28" height="28" transform="rotate(0,264,404)"/><path d="M 306 390v 28h 14a 14 14, 0, 0, 0, 0 -28" transform="rotate(-90,320,404)"/><rect x="362" y="390" width="28" height="28" transform="rotate(0,376,404)"/><rect x="390" y="390" width="28" height="28" transform="rotate(0,404,404)"/><path d="M 418 390v 28h 14a 14 14, 0, 0, 0, 0 -28" transform="rotate(0,432,404)"/><path d="M 502 390v 28h 28v -14a 14 14, 0, 0, 0, -14 -14" transform="rotate(180,516,404)"/><rect x="530" y="390" width="28" height="28" transform="rotate(0,544,404)"/><rect x="558" y="390" width="28" height="28" transform="rotate(0,572,404)"/><path d="M 586 390v 28h 28v -14a 14 14, 0, 0, 0, -14 -14" transform="rotate(90,600,404)"/><path d="M 642 390v 28h 14a 14 14, 0, 0, 0, 0 -28" transform="rotate(180,656,404)"/><rect x="670" y="390" width="28" height="28" transform="rotate(0,684,404)"/><rect x="698" y="390" width="28" height="28" transform="rotate(0,712,404)"/><path d="M 782 390v 28h 14a 14 14, 0, 0, 0, 0 -28" transform="rotate(180,796,404)"/><rect x="810" y="390" width="28" height="28" transform="rotate(0,824,404)"/><rect x="838" y="390" width="28" height="28" transform="rotate(0,852,404)"/><rect x="866" y="390" width="28" height="28" transform="rotate(0,880,404)"/><rect x="894" y="390" width="28" height="28" transform="rotate(0,908,404)"/><path d="M 922 390v 28h 14a 14 14, 0, 0, 0, 0 -28" transform="rotate(0,936,404)"/><rect x="26" y="418" width="28" height="28" transform="rotate(0,40,432)"/><rect x="54" y="418" width="28" height="28" transform="rotate(0,68,432)"/><rect x="82" y="418" width="28" height="28" transform="rotate(0,96,432)"/><rect x="166" y="418" width="28" height="28" transform="rotate(0,180,432)"/><path d="M 194 418v 28h 14a 14 14, 0, 0, 0, 0 -28" transform="rotate(0,208,432)"/><rect x="250" y="418" width="28" height="28" transform="rotate(0,264,432)"/><rect x="306" y="418" width="28" height="28" transform="rotate(0,320,432)"/><path d="M 362 418v 28h 28v -14a 14 14, 0, 0, 0, -14 -14" transform="rotate(180,376,432)"/><rect x="390" y="418" width="28" height="28" transform="rotate(0,404,432)"/><circle cx="488" cy="432" r="14" transform="rotate(0,488,432)"/><rect x="558" y="418" width="28" height="28" transform="rotate(0,572,432)"/><rect x="698" y="418" width="28" height="28" transform="rotate(0,712,432)"/><path d="M 726 418v 28h 28v -14a 14 14, 0, 0, 0, -14 -14" transform="rotate(0,740,432)"/><path d="M 978 418v 28h 14a 14 14, 0, 0, 0, 0 -28" transform="rotate(-90,992,432)"/><path d="M 1062 418v 28h 14a 14 14, 0, 0, 0, 0 -28" transform="rotate(180,1076,432)"/><rect x="1090" y="418" width="28" height="28" transform="rotate(0,1104,432)"/><rect x="1118" y="418" width="28" height="28" transform="rotate(0,1132,432)"/><path d="M 1146 418v 28h 14a 14 14, 0, 0, 0, 0 -28" transform="rotate(0,1160,432)"/><path d="M 26 446v 28h 14a 14 14, 0, 0, 0, 0 -28" transform="rotate(90,40,460)"/><path d="M 82 446v 28h 28v -14a 14 14, 0, 0, 0, -14 -14" transform="rotate(180,96,460)"/><rect x="110" y="446" width="28" height="28" transform="rotate(0,124,460)"/><rect x="138" y="446" width="28" height="28" transform="rotate(0,152,460)"/><path d="M 166 446v 28h 28v -14a 14 14, 0, 0, 0, -14 -14" transform="rotate(90,180,460)"/><path d="M 250 446v 28h 28v -14a 14 14, 0, 0, 0, -14 -14" transform="rotate(180,264,460)"/><rect x="278" y="446" width="28" height="28" transform="rotate(0,292,460)"/><rect x="306" y="446" width="28" height="28" transform="rotate(0,320,460)"/><path d="M 390 446v 28h 28v -14a 14 14, 0, 0, 0, -14 -14" transform="rotate(180,404,460)"/><path d="M 418 446v 28h 28v -14a 14 14, 0, 0, 0, -14 -14" transform="rotate(0,432,460)"/><path d="M 558 446v 28h 14a 14 14, 0, 0, 0, 0 -28" transform="rotate(90,572,460)"/><path d="M 698 446v 28h 28v -14a 14 14, 0, 0, 0, -14 -14" transform="rotate(180,712,460)"/><rect x="726" y="446" width="28" height="28" transform="rotate(0,740,460)"/><rect x="754" y="446" width="28" height="28" transform="rotate(0,768,460)"/><path d="M 782 446v 28h 14a 14 14, 0, 0, 0, 0 -28" transform="rotate(0,796,460)"/><path d="M 838 446v 28h 14a 14 14, 0, 0, 0, 0 -28" transform="rotate(-90,852,460)"/><path d="M 978 446v 28h 14a 14 14, 0, 0, 0, 0 -28" transform="rotate(90,992,460)"/><circle cx="1048" cy="460" r="14" transform="rotate(0,1048,460)"/><path d="M 1118 446v 28h 14a 14 14, 0, 0, 0, 0 -28" transform="rotate(90,1132,460)"/><circle cx="68" cy="488" r="14" transform="rotate(0,68,488)"/><circle cx="208" cy="488" r="14" transform="rotate(0,208,488)"/><path d="M 306 474v 28h 28v -14a 14 14, 0, 0, 0, -14 -14" transform="rotate(180,320,488)"/><path d="M 334 474v 28h 14a 14 14, 0, 0, 0, 0 -28" transform="rotate(0,348,488)"/><path d="M 418 474v 28h 14a 14 14, 0, 0, 0, 0 -28" transform="rotate(90,432,488)"/><circle cx="488" cy="488" r="14" transform="rotate(0,488,488)"/><path d="M 670 474v 28h 14a 14 14, 0, 0, 0, 0 -28" transform="rotate(-90,684,488)"/><path d="M 838 474v 28h 14a 14 14, 0, 0, 0, 0 -28" transform="rotate(90,852,488)"/><path d="M 894 474v 28h 14a 14 14, 0, 0, 0, 0 -28" transform="rotate(180,908,488)"/><path d="M 922 474v 28h 14a 14 14, 0, 0, 0, 0 -28" transform="rotate(0,936,488)"/><path d="M 1006 474v 28h 14a 14 14, 0, 0, 0, 0 -28" transform="rotate(-90,1020,488)"/><circle cx="1076" cy="488" r="14" transform="rotate(0,1076,488)"/><path d="M 1146 474v 28h 14a 14 14, 0, 0, 0, 0 -28" transform="rotate(-90,1160,488)"/><circle cx="40" cy="516" r="14" transform="rotate(0,40,516)"/><path d="M 82 502v 28h 28v -14a 14 14, 0, 0, 0, -14 -14" transform="rotate(-90,96,516)"/><path d="M 110 502v 28h 28v -14a 14 14, 0, 0, 0, -14 -14" transform="rotate(0,124,516)"/><path d="M 166 502v 28h 14a 14 14, 0, 0, 0, 0 -28" transform="rotate(-90,180,516)"/><path d="M 222 502v 28h 14a 14 14, 0, 0, 0, 0 -28" transform="rotate(180,236,516)"/><path d="M 250 502v 28h 28v -14a 14 14, 0, 0, 0, -14 -14" transform="rotate(0,264,516)"/><path d="M 502 502v 28h 28v -14a 14 14, 0, 0, 0, -14 -14" transform="rotate(-90,516,516)"/><path d="M 530 502v 28h 28v -14a 14 14, 0, 0, 0, -14 -14" transform="rotate(0,544,516)"/><path d="M 642 502v 28h 14a 14 14, 0, 0, 0, 0 -28" transform="rotate(180,656,516)"/><rect x="670" y="502" width="28" height="28" transform="rotate(0,684,516)"/><rect x="698" y="502" width="28" height="28" transform="rotate(0,712,516)"/><rect x="726" y="502" width="28" height="28" transform="rotate(0,740,516)"/><path d="M 754 502v 28h 28v -14a 14 14, 0, 0, 0, -14 -14" transform="rotate(0,768,516)"/><path d="M 978 502v 28h 14a 14 14, 0, 0, 0, 0 -28" transform="rotate(180,992,516)"/><path d="M 1006 502v 28h 28v -14a 14 14, 0, 0, 0, -14 -14" transform="rotate(90,1020,516)"/><path d="M 1090 502v 28h 28v -14a 14 14, 0, 0, 0, -14 -14" transform="rotate(-90,1104,516)"/><rect x="1118" y="502" width="28" height="28" transform="rotate(0,1132,516)"/><rect x="1146" y="502" width="28" height="28" transform="rotate(0,1160,516)"/><path d="M 54 530v 28h 14a 14 14, 0, 0, 0, 0 -28" transform="rotate(180,68,544)"/><rect x="82" y="530" width="28" height="28" transform="rotate(0,96,544)"/><path d="M 110 530v 28h 28v -14a 14 14, 0, 0, 0, -14 -14" transform="rotate(90,124,544)"/><rect x="166" y="530" width="28" height="28" transform="rotate(0,180,544)"/><path d="M 194 530v 28h 14a 14 14, 0, 0, 0, 0 -28" transform="rotate(0,208,544)"/><rect x="250" y="530" width="28" height="28" transform="rotate(0,264,544)"/><path d="M 278 530v 28h 14a 14 14, 0, 0, 0, 0 -28" transform="rotate(0,292,544)"/><circle cx="348" cy="544" r="14" transform="rotate(0,348,544)"/><path d="M 418 530v 28h 14a 14 14, 0, 0, 0, 0 -28" transform="rotate(-90,432,544)"/><path d="M 474 530v 28h 14a 14 14, 0, 0, 0, 0 -28" transform="rotate(180,488,544)"/><rect x="502" y="530" width="28" height="28" transform="rotate(0,516,544)"/><rect x="530" y="530" width="28" height="28" transform="rotate(0,544,544)"/><rect x="558" y="530" width="28" height="28" transform="rotate(0,572,544)"/><rect x="586" y="530" width="28" height="28" transform="rotate(0,600,544)"/><path d="M 614 530v 28h 14a 14 14, 0, 0, 0, 0 -28" transform="rotate(0,628,544)"/><rect x="754" y="530" width="28" height="28" transform="rotate(0,768,544)"/><circle cx="936" cy="544" r="14" transform="rotate(0,936,544)"/><circle cx="1048" cy="544" r="14" transform="rotate(0,1048,544)"/><path d="M 1090 530v 28h 28v -14a 14 14, 0, 0, 0, -14 -14" transform="rotate(180,1104,544)"/><rect x="1118" y="530" width="28" height="28" transform="rotate(0,1132,544)"/><path d="M 1146 530v 28h 28v -14a 14 14, 0, 0, 0, -14 -14" transform="rotate(90,1160,544)"/><path d="M 26 558v 28h 14a 14 14, 0, 0, 0, 0 -28" transform="rotate(-90,40,572)"/><path d="M 82 558v 28h 14a 14 14, 0, 0, 0, 0 -28" transform="rotate(90,96,572)"/><path d="M 138 558v 28h 14a 14 14, 0, 0, 0, 0 -28" transform="rotate(180,152,572)"/><path d="M 166 558v 28h 28v -14a 14 14, 0, 0, 0, -14 -14" transform="rotate(90,180,572)"/><path d="M 250 558v 28h 14a 14 14, 0, 0, 0, 0 -28" transform="rotate(90,264,572)"/><rect x="418" y="558" width="28" height="28" transform="rotate(0,432,572)"/><rect x="502" y="558" width="28" height="28" transform="rotate(0,516,572)"/><rect x="530" y="558" width="28" height="28" transform="rotate(0,544,572)"/><path d="M 558 558v 28h 28v -14a 14 14, 0, 0, 0, -14 -14" transform="rotate(90,572,572)"/><circle cx="684" cy="572" r="14" transform="rotate(0,684,572)"/><path d="M 754 558v 28h 28v -14a 14 14, 0, 0, 0, -14 -14" transform="rotate(180,768,572)"/><path d="M 782 558v 28h 14a 14 14, 0, 0, 0, 0 -28" transform="rotate(0,796,572)"/><path d="M 838 558v 28h 14a 14 14, 0, 0, 0, 0 -28" transform="rotate(180,852,572)"/><rect x="866" y="558" width="28" height="28" transform="rotate(0,880,572)"/><path d="M 894 558v 28h 14a 14 14, 0, 0, 0, 0 -28" transform="rotate(0,908,572)"/><path d="M 978 558v 28h 28v -14a 14 14, 0, 0, 0, -14 -14" transform="rotate(-90,992,572)"/><path d="M 1006 558v 28h 28v -14a 14 14, 0, 0, 0, -14 -14" transform="rotate(0,1020,572)"/><circle cx="1076" cy="572" r="14" transform="rotate(0,1076,572)"/><rect x="1118" y="558" width="28" height="28" transform="rotate(0,1132,572)"/><path d="M 26 586v 28h 14a 14 14, 0, 0, 0, 0 -28" transform="rotate(90,40,600)"/><path d="M 110 586v 28h 14a 14 14, 0, 0, 0, 0 -28" transform="rotate(-90,124,600)"/><path d="M 194 586v 28h 14a 14 14, 0, 0, 0, 0 -28" transform="rotate(180,208,600)"/><path d="M 222 586v 28h 28v -14a 14 14, 0, 0, 0, -14 -14" transform="rotate(0,236,600)"/><circle cx="292" cy="600" r="14" transform="rotate(0,292,600)"/><path d="M 334 586v 28h 14a 14 14, 0, 0, 0, 0 -28" transform="rotate(-90,348,600)"/><rect x="418" y="586" width="28" height="28" transform="rotate(0,432,600)"/><path d="M 474 586v 28h 28v -14a 14 14, 0, 0, 0, -14 -14" transform="rotate(-90,488,600)"/><path d="M 502 586v 28h 28v -14a 14 14, 0, 0, 0, -14 -14" transform="rotate(90,516,600)"/><path d="M 586 586v 28h 28v -14a 14 14, 0, 0, 0, -14 -14" transform="rotate(-90,600,600)"/><path d="M 614 586v 28h 14a 14 14, 0, 0, 0, 0 -28" transform="rotate(0,628,600)"/><path d="M 698 586v 28h 14a 14 14, 0, 0, 0, 0 -28" transform="rotate(-90,712,600)"/><path d="M 950 586v 28h 28v -14a 14 14, 0, 0, 0, -14 -14" transform="rotate(-90,964,600)"/><rect x="978" y="586" width="28" height="28" transform="rotate(0,992,600)"/><rect x="1006" y="586" width="28" height="28" transform="rotate(0,1020,600)"/><path d="M 1090 586v 28h 28v -14a 14 14, 0, 0, 0, -14 -14" transform="rotate(-90,1104,600)"/><rect x="1118" y="586" width="28" height="28" transform="rotate(0,1132,600)"/><rect x="110" y="614" width="28" height="28" transform="rotate(0,124,628)"/><rect x="222" y="614" width="28" height="28" transform="rotate(0,236,628)"/><path d="M 250 614v 28h 14a 14 14, 0, 0, 0, 0 -28" transform="rotate(0,264,628)"/><path d="M 334 614v 28h 28v -14a 14 14, 0, 0, 0, -14 -14" transform="rotate(180,348,628)"/><rect x="362" y="614" width="28" height="28" transform="rotate(0,376,628)"/><rect x="390" y="614" width="28" height="28" transform="rotate(0,404,628)"/><rect x="418" y="614" width="28" height="28" transform="rotate(0,432,628)"/><rect x="446" y="614" width="28" height="28" transform="rotate(0,460,628)"/><path d="M 474 614v 28h 28v -14a 14 14, 0, 0, 0, -14 -14" transform="rotate(90,488,628)"/><circle cx="544" cy="628" r="14" transform="rotate(0,544,628)"/><rect x="586" y="614" width="28" height="28" transform="rotate(0,600,628)"/><path d="M 698 614v 28h 28v -14a 14 14, 0, 0, 0, -14 -14" transform="rotate(180,712,628)"/><rect x="726" y="614" width="28" height="28" transform="rotate(0,740,628)"/><path d="M 754 614v 28h 14a 14 14, 0, 0, 0, 0 -28" transform="rotate(0,768,628)"/><path d="M 810 614v 28h 28v -14a 14 14, 0, 0, 0, -14 -14" transform="rotate(-90,824,628)"/><rect x="838" y="614" width="28" height="28" transform="rotate(0,852,628)"/><path d="M 866 614v 28h 14a 14 14, 0, 0, 0, 0 -28" transform="rotate(0,880,628)"/><path d="M 922 614v 28h 14a 14 14, 0, 0, 0, 0 -28" transform="rotate(180,936,628)"/><rect x="950" y="614" width="28" height="28" transform="rotate(0,964,628)"/><rect x="978" y="614" width="28" height="28" transform="rotate(0,992,628)"/><rect x="1006" y="614" width="28" height="28" transform="rotate(0,1020,628)"/><rect x="1090" y="614" width="28" height="28" transform="rotate(0,1104,628)"/><rect x="1118" y="614" width="28" height="28" transform="rotate(0,1132,628)"/><path d="M 1146 614v 28h 14a 14 14, 0, 0, 0, 0 -28" transform="rotate(0,1160,628)"/><path d="M 26 642v 28h 14a 14 14, 0, 0, 0, 0 -28" transform="rotate(-90,40,656)"/><path d="M 82 642v 28h 28v -14a 14 14, 0, 0, 0, -14 -14" transform="rotate(-90,96,656)"/><path d="M 110 642v 28h 28v -14a 14 14, 0, 0, 0, -14 -14" transform="rotate(90,124,656)"/><path d="M 166 642v 28h 14a 14 14, 0, 0, 0, 0 -28" transform="rotate(180,180,656)"/><rect x="194" y="642" width="28" height="28" transform="rotate(0,208,656)"/><path d="M 222 642v 28h 28v -14a 14 14, 0, 0, 0, -14 -14" transform="rotate(90,236,656)"/><rect x="362" y="642" width="28" height="28" transform="rotate(0,376,656)"/><rect x="390" y="642" width="28" height="28" transform="rotate(0,404,656)"/><rect x="418" y="642" width="28" height="28" transform="rotate(0,432,656)"/><rect x="446" y="642" width="28" height="28" transform="rotate(0,460,656)"/><path d="M 586 642v 28h 28v -14a 14 14, 0, 0, 0, -14 -14" transform="rotate(180,600,656)"/><rect x="614" y="642" width="28" height="28" transform="rotate(0,628,656)"/><path d="M 642 642v 28h 14a 14 14, 0, 0, 0, 0 -28" transform="rotate(0,656,656)"/><rect x="726" y="642" width="28" height="28" transform="rotate(0,740,656)"/><path d="M 810 642v 28h 14a 14 14, 0, 0, 0, 0 -28" transform="rotate(90,824,656)"/><circle cx="908" cy="656" r="14" transform="rotate(0,908,656)"/><path d="M 950 642v 28h 14a 14 14, 0, 0, 0, 0 -28" transform="rotate(90,964,656)"/><path d="M 1006 642v 28h 14a 14 14, 0, 0, 0, 0 -28" transform="rotate(90,1020,656)"/><rect x="1090" y="642" width="28" height="28" transform="rotate(0,1104,656)"/><path d="M 1118 642v 28h 28v -14a 14 14, 0, 0, 0, -14 -14" transform="rotate(90,1132,656)"/><path d="M 26 670v 28h 28v -14a 14 14, 0, 0, 0, -14 -14" transform="rotate(180,40,684)"/><rect x="54" y="670" width="28" height="28" transform="rotate(0,68,684)"/><rect x="82" y="670" width="28" height="28" transform="rotate(0,96,684)"/><path d="M 278 670v 28h 14a 14 14, 0, 0, 0, 0 -28" transform="rotate(-90,292,684)"/><rect x="362" y="670" width="28" height="28" transform="rotate(0,376,684)"/><rect x="390" y="670" width="28" height="28" transform="rotate(0,404,684)"/><rect x="446" y="670" width="28" height="28" transform="rotate(0,460,684)"/><rect x="474" y="670" width="28" height="28" transform="rotate(0,488,684)"/><rect x="502" y="670" width="28" height="28" transform="rotate(0,516,684)"/><rect x="530" y="670" width="28" height="28" transform="rotate(0,544,684)"/><path d="M 558 670v 28h 14a 14 14, 0, 0, 0, 0 -28" transform="rotate(0,572,684)"/><rect x="614" y="670" width="28" height="28" transform="rotate(0,628,684)"/><rect x="726" y="670" width="28" height="28" transform="rotate(0,740,684)"/><circle cx="796" cy="684" r="14" transform="rotate(0,796,684)"/><circle cx="880" cy="684" r="14" transform="rotate(0,880,684)"/><path d="M 922 670v 28h 14a 14 14, 0, 0, 0, 0 -28" transform="rotate(-90,936,684)"/><path d="M 1090 670v 28h 14a 14 14, 0, 0, 0, 0 -28" transform="rotate(90,1104,684)"/><path d="M 1146 670v 28h 14a 14 14, 0, 0, 0, 0 -28" transform="rotate(-90,1160,684)"/><path d="M 54 698v 28h 28v -14a 14 14, 0, 0, 0, -14 -14" transform="rotate(180,68,712)"/><rect x="82" y="698" width="28" height="28" transform="rotate(0,96,712)"/><path d="M 166 698v 28h 28v -14a 14 14, 0, 0, 0, -14 -14" transform="rotate(-90,180,712)"/><rect x="194" y="698" width="28" height="28" transform="rotate(0,208,712)"/><rect x="222" y="698" width="28" height="28" transform="rotate(0,236,712)"/><rect x="250" y="698" width="28" height="28" transform="rotate(0,264,712)"/><rect x="278" y="698" width="28" height="28" transform="rotate(0,292,712)"/><rect x="362" y="698" width="28" height="28" transform="rotate(0,376,712)"/><rect x="390" y="698" width="28" height="28" transform="rotate(0,404,712)"/><rect x="418" y="698" width="28" height="28" transform="rotate(0,432,712)"/><rect x="446" y="698" width="28" height="28" transform="rotate(0,460,712)"/><rect x="614" y="698" width="28" height="28" transform="rotate(0,628,712)"/><rect x="642" y="698" width="28" height="28" transform="rotate(0,656,712)"/><path d="M 670 698v 28h 14a 14 14, 0, 0, 0, 0 -28" transform="rotate(0,684,712)"/><rect x="726" y="698" width="28" height="28" transform="rotate(0,740,712)"/><path d="M 838 698v 28h 14a 14 14, 0, 0, 0, 0 -28" transform="rotate(-90,852,712)"/><path d="M 922 698v 28h 14a 14 14, 0, 0, 0, 0 -28" transform="rotate(90,936,712)"/><path d="M 978 698v 28h 14a 14 14, 0, 0, 0, 0 -28" transform="rotate(180,992,712)"/><path d="M 1006 698v 28h 14a 14 14, 0, 0, 0, 0 -28" transform="rotate(0,1020,712)"/><path d="M 1146 698v 28h 14a 14 14, 0, 0, 0, 0 -28" transform="rotate(90,1160,712)"/><path d="M 82 726v 28h 14a 14 14, 0, 0, 0, 0 -28" transform="rotate(90,96,740)"/><path d="M 166 726v 28h 14a 14 14, 0, 0, 0, 0 -28" transform="rotate(90,180,740)"/><rect x="222" y="726" width="28" height="28" transform="rotate(0,236,740)"/><rect x="250" y="726" width="28" height="28" transform="rotate(0,264,740)"/><rect x="278" y="726" width="28" height="28" transform="rotate(0,292,740)"/><path d="M 306 726v 28h 28v -14a 14 14, 0, 0, 0, -14 -14" transform="rotate(0,320,740)"/><rect x="362" y="726" width="28" height="28" transform="rotate(0,376,740)"/><path d="M 390 726v 28h 28v -14a 14 14, 0, 0, 0, -14 -14" transform="rotate(90,404,740)"/><path d="M 446 726v 28h 14a 14 14, 0, 0, 0, 0 -28" transform="rotate(90,460,740)"/><path d="M 586 726v 28h 28v -14a 14 14, 0, 0, 0, -14 -14" transform="rotate(-90,600,740)"/><path d="M 614 726v 28h 28v -14a 14 14, 0, 0, 0, -14 -14" transform="rotate(90,628,740)"/><path d="M 698 726v 28h 28v -14a 14 14, 0, 0, 0, -14 -14" transform="rotate(-90,712,740)"/><path d="M 726 726v 28h 28v -14a 14 14, 0, 0, 0, -14 -14" transform="rotate(90,740,740)"/><rect x="838" y="726" width="28" height="28" transform="rotate(0,852,740)"/><circle cx="908" cy="740" r="14" transform="rotate(0,908,740)"/><path d="M 950 726v 28h 14a 14 14, 0, 0, 0, 0 -28" transform="rotate(-90,964,740)"/><circle cx="1076" cy="740" r="14" transform="rotate(0,1076,740)"/><path d="M 110 754v 28h 14a 14 14, 0, 0, 0, 0 -28" transform="rotate(180,124,768)"/><path d="M 138 754v 28h 28v -14a 14 14, 0, 0, 0, -14 -14" transform="rotate(0,152,768)"/><path d="M 194 754v 28h 14a 14 14, 0, 0, 0, 0 -28" transform="rotate(180,208,768)"/><rect x="222" y="754" width="28" height="28" transform="rotate(0,236,768)"/><rect x="250" y="754" width="28" height="28" transform="rotate(0,264,768)"/><rect x="278" y="754" width="28" height="28" transform="rotate(0,292,768)"/><rect x="306" y="754" width="28" height="28" transform="rotate(0,320,768)"/><rect x="334" y="754" width="28" height="28" transform="rotate(0,348,768)"/><path d="M 362 754v 28h 28v -14a 14 14, 0, 0, 0, -14 -14" transform="rotate(90,376,768)"/><path d="M 418 754v 28h 14a 14 14, 0, 0, 0, 0 -28" transform="rotate(-90,432,768)"/><path d="M 474 754v 28h 14a 14 14, 0, 0, 0, 0 -28" transform="rotate(-90,488,768)"/><path d="M 530 754v 28h 14a 14 14, 0, 0, 0, 0 -28" transform="rotate(180,544,768)"/><rect x="558" y="754" width="28" height="28" transform="rotate(0,572,768)"/><rect x="586" y="754" width="28" height="28" transform="rotate(0,600,768)"/><path d="M 642 754v 28h 28v -14a 14 14, 0, 0, 0, -14 -14" transform="rotate(-90,656,768)"/><rect x="670" y="754" width="28" height="28" transform="rotate(0,684,768)"/><rect x="698" y="754" width="28" height="28" transform="rotate(0,712,768)"/><path d="M 754 754v 28h 14a 14 14, 0, 0, 0, 0 -28" transform="rotate(-90,768,768)"/><path d="M 810 754v 28h 28v -14a 14 14, 0, 0, 0, -14 -14" transform="rotate(-90,824,768)"/><rect x="838" y="754" width="28" height="28" transform="rotate(0,852,768)"/><path d="M 922 754v 28h 28v -14a 14 14, 0, 0, 0, -14 -14" transform="rotate(-90,936,768)"/><rect x="950" y="754" width="28" height="28" transform="rotate(0,964,768)"/><path d="M 978 754v 28h 28v -14a 14 14, 0, 0, 0, -14 -14" transform="rotate(0,992,768)"/><circle cx="1048" cy="768" r="14" transform="rotate(0,1048,768)"/><path d="M 1118 754v 28h 14a 14 14, 0, 0, 0, 0 -28" transform="rotate(180,1132,768)"/><path d="M 1146 754v 28h 28v -14a 14 14, 0, 0, 0, -14 -14" transform="rotate(0,1160,768)"/><path d="M 82 782v 28h 14a 14 14, 0, 0, 0, 0 -28" transform="rotate(-90,96,796)"/><rect x="138" y="782" width="28" height="28" transform="rotate(0,152,796)"/><path d="M 166 782v 28h 28v -14a 14 14, 0, 0, 0, -14 -14" transform="rotate(0,180,796)"/><rect x="250" y="782" width="28" height="28" transform="rotate(0,264,796)"/><rect x="278" y="782" width="28" height="28" transform="rotate(0,292,796)"/><rect x="306" y="782" width="28" height="28" transform="rotate(0,320,796)"/><path d="M 334 782v 28h 28v -14a 14 14, 0, 0, 0, -14 -14" transform="rotate(90,348,796)"/><path d="M 390 782v 28h 28v -14a 14 14, 0, 0, 0, -14 -14" transform="rotate(-90,404,796)"/><rect x="418" y="782" width="28" height="28" transform="rotate(0,432,796)"/><rect x="446" y="782" width="28" height="28" transform="rotate(0,460,796)"/><path d="M 474 782v 28h 28v -14a 14 14, 0, 0, 0, -14 -14" transform="rotate(90,488,796)"/><path d="M 586 782v 28h 14a 14 14, 0, 0, 0, 0 -28" transform="rotate(90,600,796)"/><rect x="642" y="782" width="28" height="28" transform="rotate(0,656,796)"/><rect x="670" y="782" width="28" height="28" transform="rotate(0,684,796)"/><rect x="698" y="782" width="28" height="28" transform="rotate(0,712,796)"/><rect x="726" y="782" width="28" height="28" transform="rotate(0,740,796)"/><rect x="754" y="782" width="28" height="28" transform="rotate(0,768,796)"/><rect x="782" y="782" width="28" height="28" transform="rotate(0,796,796)"/><rect x="810" y="782" width="28" height="28" transform="rotate(0,824,796)"/><rect x="838" y="782" width="28" height="28" transform="rotate(0,852,796)"/><path d="M 922 782v 28h 28v -14a 14 14, 0, 0, 0, -14 -14" transform="rotate(180,936,796)"/><rect x="950" y="782" width="28" height="28" transform="rotate(0,964,796)"/><rect x="978" y="782" width="28" height="28" transform="rotate(0,992,796)"/><path d="M 1006 782v 28h 14a 14 14, 0, 0, 0, 0 -28" transform="rotate(0,1020,796)"/><path d="M 1146 782v 28h 14a 14 14, 0, 0, 0, 0 -28" transform="rotate(90,1160,796)"/><path d="M 26 810v 28h 14a 14 14, 0, 0, 0, 0 -28" transform="rotate(180,40,824)"/><rect x="54" y="810" width="28" height="28" transform="rotate(0,68,824)"/><rect x="82" y="810" width="28" height="28" transform="rotate(0,96,824)"/><rect x="110" y="810" width="28" height="28" transform="rotate(0,124,824)"/><rect x="138" y="810" width="28" height="28" transform="rotate(0,152,824)"/><rect x="166" y="810" width="28" height="28" transform="rotate(0,180,824)"/><path d="M 194 810v 28h 14a 14 14, 0, 0, 0, 0 -28" transform="rotate(0,208,824)"/><rect x="250" y="810" width="28" height="28" transform="rotate(0,264,824)"/><rect x="278" y="810" width="28" height="28" transform="rotate(0,292,824)"/><rect x="306" y="810" width="28" height="28" transform="rotate(0,320,824)"/><path d="M 390 810v 28h 14a 14 14, 0, 0, 0, 0 -28" transform="rotate(90,404,824)"/><circle cx="516" cy="824" r="14" transform="rotate(0,516,824)"/><path d="M 642 810v 28h 28v -14a 14 14, 0, 0, 0, -14 -14" transform="rotate(180,656,824)"/><path d="M 670 810v 28h 28v -14a 14 14, 0, 0, 0, -14 -14" transform="rotate(90,684,824)"/><rect x="838" y="810" width="28" height="28" transform="rotate(0,852,824)"/><rect x="950" y="810" width="28" height="28" transform="rotate(0,964,824)"/><path d="M 54 838v 28h 28v -14a 14 14, 0, 0, 0, -14 -14" transform="rotate(180,68,852)"/><rect x="82" y="838" width="28" height="28" transform="rotate(0,96,852)"/><rect x="110" y="838" width="28" height="28" transform="rotate(0,124,852)"/><rect x="138" y="838" width="28" height="28" transform="rotate(0,152,852)"/><path d="M 222 838v 28h 14a 14 14, 0, 0, 0, 0 -28" transform="rotate(180,236,852)"/><rect x="250" y="838" width="28" height="28" transform="rotate(0,264,852)"/><rect x="278" y="838" width="28" height="28" transform="rotate(0,292,852)"/><rect x="306" y="838" width="28" height="28" transform="rotate(0,320,852)"/><path d="M 418 838v 28h 14a 14 14, 0, 0, 0, 0 -28" transform="rotate(180,432,852)"/><path d="M 446 838v 28h 28v -14a 14 14, 0, 0, 0, -14 -14" transform="rotate(0,460,852)"/><path d="M 558 838v 28h 14a 14 14, 0, 0, 0, 0 -28" transform="rotate(180,572,852)"/><rect x="586" y="838" width="28" height="28" transform="rotate(0,600,852)"/><path d="M 614 838v 28h 28v -14a 14 14, 0, 0, 0, -14 -14" transform="rotate(0,628,852)"/><path d="M 754 838v 28h 28v -14a 14 14, 0, 0, 0, -14 -14" transform="rotate(-90,768,852)"/><rect x="782" y="838" width="28" height="28" transform="rotate(0,796,852)"/><rect x="810" y="838" width="28" height="28" transform="rotate(0,824,852)"/><rect x="838" y="838" width="28" height="28" transform="rotate(0,852,852)"/><path d="M 950 838v 28h 28v -14a 14 14, 0, 0, 0, -14 -14" transform="rotate(180,964,852)"/><path d="M 978 838v 28h 14a 14 14, 0, 0, 0, 0 -28" transform="rotate(0,992,852)"/><path d="M 1118 838v 28h 28v -14a 14 14, 0, 0, 0, -14 -14" transform="rotate(-90,1132,852)"/><path d="M 1146 838v 28h 28v -14a 14 14, 0, 0, 0, -14 -14" transform="rotate(0,1160,852)"/><circle cx="40" cy="880" r="14" transform="rotate(0,40,880)"/><rect x="110" y="866" width="28" height="28" transform="rotate(0,124,880)"/><rect x="138" y="866" width="28" height="28" transform="rotate(0,152,880)"/><rect x="166" y="866" width="28" height="28" transform="rotate(0,180,880)"/><path d="M 194 866v 28h 14a 14 14, 0, 0, 0, 0 -28" transform="rotate(0,208,880)"/><path d="M 250 866v 28h 14a 14 14, 0, 0, 0, 0 -28" transform="rotate(90,264,880)"/><rect x="306" y="866" width="28" height="28" transform="rotate(0,320,880)"/><path d="M 362 866v 28h 28v -14a 14 14, 0, 0, 0, -14 -14" transform="rotate(-90,376,880)"/><path d="M 390 866v 28h 28v -14a 14 14, 0, 0, 0, -14 -14" transform="rotate(0,404,880)"/><rect x="446" y="866" width="28" height="28" transform="rotate(0,460,880)"/><path d="M 502 866v 28h 14a 14 14, 0, 0, 0, 0 -28" transform="rotate(180,516,880)"/><path d="M 530 866v 28h 28v -14a 14 14, 0, 0, 0, -14 -14" transform="rotate(0,544,880)"/><path d="M 614 866v 28h 28v -14a 14 14, 0, 0, 0, -14 -14" transform="rotate(180,628,880)"/><path d="M 642 866v 28h 14a 14 14, 0, 0, 0, 0 -28" transform="rotate(0,656,880)"/><path d="M 754 866v 28h 28v -14a 14 14, 0, 0, 0, -14 -14" transform="rotate(180,768,880)"/><rect x="782" y="866" width="28" height="28" transform="rotate(0,796,880)"/><rect x="810" y="866" width="28" height="28" transform="rotate(0,824,880)"/><rect x="838" y="866" width="28" height="28" transform="rotate(0,852,880)"/><path d="M 1006 866v 28h 14a 14 14, 0, 0, 0, 0 -28" transform="rotate(180,1020,880)"/><rect x="1034" y="866" width="28" height="28" transform="rotate(0,1048,880)"/><path d="M 1062 866v 28h 28v -14a 14 14, 0, 0, 0, -14 -14" transform="rotate(0,1076,880)"/><path d="M 1118 866v 28h 28v -14a 14 14, 0, 0, 0, -14 -14" transform="rotate(180,1132,880)"/><path d="M 1146 866v 28h 28v -14a 14 14, 0, 0, 0, -14 -14" transform="rotate(90,1160,880)"/><path d="M 82 894v 28h 28v -14a 14 14, 0, 0, 0, -14 -14" transform="rotate(-90,96,908)"/><rect x="110" y="894" width="28" height="28" transform="rotate(0,124,908)"/><rect x="138" y="894" width="28" height="28" transform="rotate(0,152,908)"/><path d="M 166 894v 28h 28v -14a 14 14, 0, 0, 0, -14 -14" transform="rotate(90,180,908)"/><path d="M 222 894v 28h 14a 14 14, 0, 0, 0, 0 -28" transform="rotate(-90,236,908)"/><path d="M 306 894v 28h 14a 14 14, 0, 0, 0, 0 -28" transform="rotate(90,320,908)"/><rect x="362" y="894" width="28" height="28" transform="rotate(0,376,908)"/><rect x="390" y="894" width="28" height="28" transform="rotate(0,404,908)"/><rect x="418" y="894" width="28" height="28" transform="rotate(0,432,908)"/><path d="M 446 894v 28h 28v -14a 14 14, 0, 0, 0, -14 -14" transform="rotate(90,460,908)"/><rect x="530" y="894" width="28" height="28" transform="rotate(0,544,908)"/><rect x="558" y="894" width="28" height="28" transform="rotate(0,572,908)"/><path d="M 586 894v 28h 14a 14 14, 0, 0, 0, 0 -28" transform="rotate(0,600,908)"/><path d="M 670 894v 28h 14a 14 14, 0, 0, 0, 0 -28" transform="rotate(-90,684,908)"/><path d="M 838 894v 28h 28v -14a 14 14, 0, 0, 0, -14 -14" transform="rotate(180,852,908)"/><path d="M 866 894v 28h 14a 14 14, 0, 0, 0, 0 -28" transform="rotate(0,880,908)"/><path d="M 922 894v 28h 28v -14a 14 14, 0, 0, 0, -14 -14" transform="rotate(-90,936,908)"/><path d="M 950 894v 28h 28v -14a 14 14, 0, 0, 0, -14 -14" transform="rotate(0,964,908)"/><rect x="1034" y="894" width="28" height="28" transform="rotate(0,1048,908)"/><path d="M 1062 894v 28h 28v -14a 14 14, 0, 0, 0, -14 -14" transform="rotate(90,1076,908)"/><circle cx="40" cy="936" r="14" transform="rotate(0,40,936)"/><path d="M 82 922v 28h 14a 14 14, 0, 0, 0, 0 -28" transform="rotate(90,96,936)"/><path d="M 138 922v 28h 14a 14 14, 0, 0, 0, 0 -28" transform="rotate(90,152,936)"/><path d="M 194 922v 28h 14a 14 14, 0, 0, 0, 0 -28" transform="rotate(180,208,936)"/><path d="M 222 922v 28h 28v -14a 14 14, 0, 0, 0, -14 -14" transform="rotate(90,236,936)"/><path d="M 334 922v 28h 28v -14a 14 14, 0, 0, 0, -14 -14" transform="rotate(-90,348,936)"/><rect x="362" y="922" width="28" height="28" transform="rotate(0,376,936)"/><path d="M 530 922v 28h 28v -14a 14 14, 0, 0, 0, -14 -14" transform="rotate(180,544,936)"/><path d="M 558 922v 28h 28v -14a 14 14, 0, 0, 0, -14 -14" transform="rotate(90,572,936)"/><path d="M 642 922v 28h 28v -14a 14 14, 0, 0, 0, -14 -14" transform="rotate(-90,656,936)"/><rect x="670" y="922" width="28" height="28" transform="rotate(0,684,936)"/><rect x="698" y="922" width="28" height="28" transform="rotate(0,712,936)"/><rect x="726" y="922" width="28" height="28" transform="rotate(0,740,936)"/><rect x="754" y="922" width="28" height="28" transform="rotate(0,768,936)"/><rect x="782" y="922" width="28" height="28" transform="rotate(0,796,936)"/><path d="M 810 922v 28h 28v -14a 14 14, 0, 0, 0, -14 -14" transform="rotate(0,824,936)"/><rect x="922" y="922" width="28" height="28" transform="rotate(0,936,936)"/><rect x="950" y="922" width="28" height="28" transform="rotate(0,964,936)"/><rect x="978" y="922" width="28" height="28" transform="rotate(0,992,936)"/><rect x="1006" y="922" width="28" height="28" transform="rotate(0,1020,936)"/><rect x="1034" y="922" width="28" height="28" transform="rotate(0,1048,936)"/><path d="M 1090 922v 28h 28v -14a 14 14, 0, 0, 0, -14 -14" transform="rotate(-90,1104,936)"/><rect x="1118" y="922" width="28" height="28" transform="rotate(0,1132,936)"/><path d="M 1146 922v 28h 28v -14a 14 14, 0, 0, 0, -14 -14" transform="rotate(0,1160,936)"/><path d="M 250 950v 28h 28v -14a 14 14, 0, 0, 0, -14 -14" transform="rotate(-90,264,964)"/><rect x="278" y="950" width="28" height="28" transform="rotate(0,292,964)"/><rect x="306" y="950" width="28" height="28" transform="rotate(0,320,964)"/><rect x="334" y="950" width="28" height="28" transform="rotate(0,348,964)"/><rect x="362" y="950" width="28" height="28" transform="rotate(0,376,964)"/><path d="M 502 950v 28h 14a 14 14, 0, 0, 0, 0 -28" transform="rotate(-90,516,964)"/><path d="M 586 950v 28h 28v -14a 14 14, 0, 0, 0, -14 -14" transform="rotate(-90,600,964)"/><rect x="614" y="950" width="28" height="28" transform="rotate(0,628,964)"/><rect x="642" y="950" width="28" height="28" transform="rotate(0,656,964)"/><rect x="698" y="950" width="28" height="28" transform="rotate(0,712,964)"/><path d="M 754 950v 28h 14a 14 14, 0, 0, 0, 0 -28" transform="rotate(90,768,964)"/><path d="M 810 950v 28h 28v -14a 14 14, 0, 0, 0, -14 -14" transform="rotate(180,824,964)"/><rect x="838" y="950" width="28" height="28" transform="rotate(0,852,964)"/><rect x="866" y="950" width="28" height="28" transform="rotate(0,880,964)"/><rect x="894" y="950" width="28" height="28" transform="rotate(0,908,964)"/><rect x="922" y="950" width="28" height="28" transform="rotate(0,936,964)"/><rect x="1034" y="950" width="28" height="28" transform="rotate(0,1048,964)"/><rect x="1090" y="950" width="28" height="28" transform="rotate(0,1104,964)"/><rect x="1118" y="950" width="28" height="28" transform="rotate(0,1132,964)"/><path d="M 1146 950v 28h 28v -14a 14 14, 0, 0, 0, -14 -14" transform="rotate(90,1160,964)"/><rect x="250" y="978" width="28" height="28" transform="rotate(0,264,992)"/><rect x="278" y="978" width="28" height="28" transform="rotate(0,292,992)"/><rect x="362" y="978" width="28" height="28" transform="rotate(0,376,992)"/><circle cx="432" cy="992" r="14" transform="rotate(0,432,992)"/><path d="M 474 978v 28h 14a 14 14, 0, 0, 0, 0 -28" transform="rotate(180,488,992)"/><path d="M 502 978v 28h 28v -14a 14 14, 0, 0, 0, -14 -14" transform="rotate(90,516,992)"/><path d="M 586 978v 28h 28v -14a 14 14, 0, 0, 0, -14 -14" transform="rotate(180,600,992)"/><rect x="614" y="978" width="28" height="28" transform="rotate(0,628,992)"/><path d="M 642 978v 28h 28v -14a 14 14, 0, 0, 0, -14 -14" transform="rotate(90,656,992)"/><path d="M 698 978v 28h 14a 14 14, 0, 0, 0, 0 -28" transform="rotate(90,712,992)"/><path d="M 838 978v 28h 28v -14a 14 14, 0, 0, 0, -14 -14" transform="rotate(180,852,992)"/><rect x="866" y="978" width="28" height="28" transform="rotate(0,880,992)"/><rect x="922" y="978" width="28" height="28" transform="rotate(0,936,992)"/><circle cx="992" cy="992" r="14" transform="rotate(0,992,992)"/><rect x="1034" y="978" width="28" height="28" transform="rotate(0,1048,992)"/><rect x="1090" y="978" width="28" height="28" transform="rotate(0,1104,992)"/><path d="M 250 1006v 28h 28v -14a 14 14, 0, 0, 0, -14 -14" transform="rotate(180,264,1020)"/><rect x="278" y="1006" width="28" height="28" transform="rotate(0,292,1020)"/><rect x="306" y="1006" width="28" height="28" transform="rotate(0,320,1020)"/><rect x="334" y="1006" width="28" height="28" transform="rotate(0,348,1020)"/><rect x="362" y="1006" width="28" height="28" transform="rotate(0,376,1020)"/><path d="M 390 1006v 28h 14a 14 14, 0, 0, 0, 0 -28" transform="rotate(0,404,1020)"/><path d="M 446 1006v 28h 14a 14 14, 0, 0, 0, 0 -28" transform="rotate(-90,460,1020)"/><path d="M 558 1006v 28h 14a 14 14, 0, 0, 0, 0 -28" transform="rotate(-90,572,1020)"/><path d="M 614 1006v 28h 14a 14 14, 0, 0, 0, 0 -28" transform="rotate(90,628,1020)"/><circle cx="684" cy="1020" r="14" transform="rotate(0,684,1020)"/><circle cx="768" cy="1020" r="14" transform="rotate(0,768,1020)"/><rect x="866" y="1006" width="28" height="28" transform="rotate(0,880,1020)"/><rect x="922" y="1006" width="28" height="28" transform="rotate(0,936,1020)"/><rect x="1034" y="1006" width="28" height="28" transform="rotate(0,1048,1020)"/><path d="M 1090 1006v 28h 14a 14 14, 0, 0, 0, 0 -28" transform="rotate(90,1104,1020)"/><rect x="278" y="1034" width="28" height="28" transform="rotate(0,292,1048)"/><path d="M 362 1034v 28h 14a 14 14, 0, 0, 0, 0 -28" transform="rotate(90,376,1048)"/><rect x="446" y="1034" width="28" height="28" transform="rotate(0,460,1048)"/><rect x="474" y="1034" width="28" height="28" transform="rotate(0,488,1048)"/><rect x="502" y="1034" width="28" height="28" transform="rotate(0,516,1048)"/><rect x="530" y="1034" width="28" height="28" transform="rotate(0,544,1048)"/><rect x="558" y="1034" width="28" height="28" transform="rotate(0,572,1048)"/><path d="M 586 1034v 28h 14a 14 14, 0, 0, 0, 0 -28" transform="rotate(0,600,1048)"/><path d="M 642 1034v 28h 14a 14 14, 0, 0, 0, 0 -28" transform="rotate(-90,656,1048)"/><path d="M 698 1034v 28h 14a 14 14, 0, 0, 0, 0 -28" transform="rotate(-90,712,1048)"/><circle cx="824" cy="1048" r="14" transform="rotate(0,824,1048)"/><path d="M 866 1034v 28h 14a 14 14, 0, 0, 0, 0 -28" transform="rotate(90,880,1048)"/><path d="M 922 1034v 28h 28v -14a 14 14, 0, 0, 0, -14 -14" transform="rotate(180,936,1048)"/><rect x="950" y="1034" width="28" height="28" transform="rotate(0,964,1048)"/><rect x="978" y="1034" width="28" height="28" transform="rotate(0,992,1048)"/><rect x="1006" y="1034" width="28" height="28" transform="rotate(0,1020,1048)"/><rect x="1034" y="1034" width="28" height="28" transform="rotate(0,1048,1048)"/><path d="M 250 1062v 28h 14a 14 14, 0, 0, 0, 0 -28" transform="rotate(180,264,1076)"/><rect x="278" y="1062" width="28" height="28" transform="rotate(0,292,1076)"/><circle cx="348" cy="1076" r="14" transform="rotate(0,348,1076)"/><circle cx="404" cy="1076" r="14" transform="rotate(0,404,1076)"/><rect x="446" y="1062" width="28" height="28" transform="rotate(0,460,1076)"/><path d="M 502 1062v 28h 28v -14a 14 14, 0, 0, 0, -14 -14" transform="rotate(180,516,1076)"/><rect x="530" y="1062" width="28" height="28" transform="rotate(0,544,1076)"/><path d="M 614 1062v 28h 14a 14 14, 0, 0, 0, 0 -28" transform="rotate(180,628,1076)"/><path d="M 642 1062v 28h 28v -14a 14 14, 0, 0, 0, -14 -14" transform="rotate(90,656,1076)"/><rect x="698" y="1062" width="28" height="28" transform="rotate(0,712,1076)"/><path d="M 894 1062v 28h 14a 14 14, 0, 0, 0, 0 -28" transform="rotate(-90,908,1076)"/><path d="M 950 1062v 28h 28v -14a 14 14, 0, 0, 0, -14 -14" transform="rotate(180,964,1076)"/><path d="M 978 1062v 28h 28v -14a 14 14, 0, 0, 0, -14 -14" transform="rotate(90,992,1076)"/><rect x="1034" y="1062" width="28" height="28" transform="rotate(0,1048,1076)"/><path d="M 1118 1062v 28h 28v -14a 14 14, 0, 0, 0, -14 -14" transform="rotate(-90,1132,1076)"/><path d="M 1146 1062v 28h 28v -14a 14 14, 0, 0, 0, -14 -14" transform="rotate(0,1160,1076)"/><rect x="278" y="1090" width="28" height="28" transform="rotate(0,292,1104)"/><path d="M 418 1090v 28h 28v -14a 14 14, 0, 0, 0, -14 -14" transform="rotate(-90,432,1104)"/><path d="M 446 1090v 28h 28v -14a 14 14, 0, 0, 0, -14 -14" transform="rotate(90,460,1104)"/><rect x="530" y="1090" width="28" height="28" transform="rotate(0,544,1104)"/><path d="M 558 1090v 28h 14a 14 14, 0, 0, 0, 0 -28" transform="rotate(0,572,1104)"/><path d="M 670 1090v 28h 14a 14 14, 0, 0, 0, 0 -28" transform="rotate(180,684,1104)"/><rect x="698" y="1090" width="28" height="28" transform="rotate(0,712,1104)"/><rect x="726" y="1090" width="28" height="28" transform="rotate(0,740,1104)"/><path d="M 754 1090v 28h 14a 14 14, 0, 0, 0, 0 -28" transform="rotate(0,768,1104)"/><path d="M 838 1090v 28h 14a 14 14, 0, 0, 0, 0 -28" transform="rotate(-90,852,1104)"/><path d="M 894 1090v 28h 28v -14a 14 14, 0, 0, 0, -14 -14" transform="rotate(180,908,1104)"/><path d="M 922 1090v 28h 28v -14a 14 14, 0, 0, 0, -14 -14" transform="rotate(0,936,1104)"/><path d="M 1034 1090v 28h 28v -14a 14 14, 0, 0, 0, -14 -14" transform="rotate(180,1048,1104)"/><path d="M 1062 1090v 28h 14a 14 14, 0, 0, 0, 0 -28" transform="rotate(0,1076,1104)"/><rect x="1118" y="1090" width="28" height="28" transform="rotate(0,1132,1104)"/><path d="M 1146 1090v 28h 28v -14a 14 14, 0, 0, 0, -14 -14" transform="rotate(90,1160,1104)"/><path d="M 250 1118v 28h 14a 14 14, 0, 0, 0, 0 -28" transform="rotate(180,264,1132)"/><rect x="278" y="1118" width="28" height="28" transform="rotate(0,292,1132)"/><path d="M 306 1118v 28h 28v -14a 14 14, 0, 0, 0, -14 -14" transform="rotate(0,320,1132)"/><path d="M 362 1118v 28h 14a 14 14, 0, 0, 0, 0 -28" transform="rotate(180,376,1132)"/><rect x="390" y="1118" width="28" height="28" transform="rotate(0,404,1132)"/><path d="M 418 1118v 28h 28v -14a 14 14, 0, 0, 0, -14 -14" transform="rotate(90,432,1132)"/><path d="M 530 1118v 28h 14a 14 14, 0, 0, 0, 0 -28" transform="rotate(90,544,1132)"/><path d="M 642 1118v 28h 14a 14 14, 0, 0, 0, 0 -28" transform="rotate(-90,656,1132)"/><rect x="698" y="1118" width="28" height="28" transform="rotate(0,712,1132)"/><path d="M 726 1118v 28h 28v -14a 14 14, 0, 0, 0, -14 -14" transform="rotate(90,740,1132)"/><rect x="838" y="1118" width="28" height="28" transform="rotate(0,852,1132)"/><rect x="922" y="1118" width="28" height="28" transform="rotate(0,936,1132)"/><path d="M 978 1118v 28h 28v -14a 14 14, 0, 0, 0, -14 -14" transform="rotate(-90,992,1132)"/><path d="M 1006 1118v 28h 28v -14a 14 14, 0, 0, 0, -14 -14" transform="rotate(0,1020,1132)"/><rect x="1118" y="1118" width="28" height="28" transform="rotate(0,1132,1132)"/><path d="M 306 1146v 28h 14a 14 14, 0, 0, 0, 0 -28" transform="rotate(90,320,1160)"/><path d="M 446 1146v 28h 14a 14 14, 0, 0, 0, 0 -28" transform="rotate(180,460,1160)"/><rect x="474" y="1146" width="28" height="28" transform="rotate(0,488,1160)"/><path d="M 502 1146v 28h 14a 14 14, 0, 0, 0, 0 -28" transform="rotate(0,516,1160)"/><path d="M 558 1146v 28h 14a 14 14, 0, 0, 0, 0 -28" transform="rotate(180,572,1160)"/><rect x="586" y="1146" width="28" height="28" transform="rotate(0,600,1160)"/><rect x="614" y="1146" width="28" height="28" transform="rotate(0,628,1160)"/><rect x="642" y="1146" width="28" height="28" transform="rotate(0,656,1160)"/><rect x="670" y="1146" width="28" height="28" transform="rotate(0,684,1160)"/><path d="M 698 1146v 28h 28v -14a 14 14, 0, 0, 0, -14 -14" transform="rotate(90,712,1160)"/><path d="M 810 1146v 28h 14a 14 14, 0, 0, 0, 0 -28" transform="rotate(180,824,1160)"/><path d="M 838 1146v 28h 28v -14a 14 14, 0, 0, 0, -14 -14" transform="rotate(90,852,1160)"/><path d="M 922 1146v 28h 14a 14 14, 0, 0, 0, 0 -28" transform="rotate(90,936,1160)"/><path d="M 978 1146v 28h 28v -14a 14 14, 0, 0, 0, -14 -14" transform="rotate(180,992,1160)"/><rect x="1006" y="1146" width="28" height="28" transform="rotate(0,1020,1160)"/><path d="M 1034 1146v 28h 14a 14 14, 0, 0, 0, 0 -28" transform="rotate(0,1048,1160)"/><path d="M 1118 1146v 28h 14a 14 14, 0, 0, 0, 0 -28" transform="rotate(90,1132,1160)"/></clipPath><clipPath id="clip-path-corners-square-color-0-0-492"><path clip-rule="evenodd" d="M 26 96v 56a 70 70, 0, 0, 0, 70 70h 56a 70 70, 0, 0, 0, 70 -70v -56a 70 70, 0, 0, 0, -70 -70h -56a 70 70, 0, 0, 0, -70 70M 96 54h 56a 42 42, 0, 0, 1, 42 42v 56a 42 42, 0, 0, 1, -42 42h -56a 42 42, 0, 0, 1, -42 -42v -56a 42 42, 0, 0, 1, 42 -42" transform="rotate(0,124,124)"/></clipPath><clipPath id="clip-path-corners-dot-color-0-0-492"><circle cx="124" cy="124" r="42" transform="rotate(0,124,124)"/></clipPath><clipPath id="clip-path-corners-square-color-1-0-492"><path clip-rule="evenodd" d="M 978 96v 56a 70 70, 0, 0, 0, 70 70h 56a 70 70, 0, 0, 0, 70 -70v -56a 70 70, 0, 0, 0, -70 -70h -56a 70 70, 0, 0, 0, -70 70M 1048 54h 56a 42 42, 0, 0, 1, 42 42v 56a 42 42, 0, 0, 1, -42 42h -56a 42 42, 0, 0, 1, -42 -42v -56a 42 42, 0, 0, 1, 42 -42" transform="rotate(90,1076,124)"/></clipPath><clipPath id="clip-path-corners-dot-color-1-0-492"><circle cx="1076" cy="124" r="42" transform="rotate(90,1076,124)"/></clipPath><clipPath id="clip-path-corners-square-color-0-1-492"><path clip-rule="evenodd" d="M 26 1048v 56a 70 70, 0, 0, 0, 70 70h 56a 70 70, 0, 0, 0, 70 -70v -56a 70 70, 0, 0, 0, -70 -70h -56a 70 70, 0, 0, 0, -70 70M 96 1006h 56a 42 42, 0, 0, 1, 42 42v 56a 42 42, 0, 0, 1, -42 42h -56a 42 42, 0, 0, 1, -42 -42v -56a 42 42, 0, 0, 1, 42 -42" transform="rotate(-90,124,1076)"/></clipPath><clipPath id="clip-path-corners-dot-color-0-1-492"><circle cx="124" cy="1076" r="42" transform="rotate(-90,124,1076)"/></clipPath></defs><rect x="0" y="0" height="1200" width="1200" clip-path="url('#clip-path-background-color-492')" fill="#ffffff"/><rect x="0" y="0" height="1200" width="1200" clip-path="url('#clip-path-dot-color-492')" fill="#000000"/><rect x="26" y="26" height="196" width="196" clip-path="url('#clip-path-corners-square-color-0-0-492')" fill="#000000"/><rect x="82" y="82" height="84" width="84" clip-path="url('#clip-path-corners-dot-color-0-0-492')" fill="#000000"/><rect x="978" y="26" height="196" width="196" clip-path="url('#clip-path-corners-square-color-1-0-492')" fill="#000000"/><rect x="1034" y="82" height="84" width="84" clip-path="url('#clip-path-corners-dot-color-1-0-492')" fill="#000000"/><rect x="26" y="978" height="196" width="196" clip-path="url('#clip-path-corners-square-color-0-1-492')" fill="#000000"/><rect x="82" y="1034" height="84" width="84" clip-path="url('#clip-path-corners-dot-color-0-1-492')" fill="#000000"/></svg>