<?xml version="1.0" standalone="no"?>
<svg xmlns="http://www.w3.org/2000/svg" width="1200" height="1200" xmlns:xlink="http://www.w3.org/1999/xlink" viewBox="0 0 1200 1200"><defs><clipPath id="clip-path-background-color-488"><rect x="0" y="0" width="1200" height="1200"/></clipPath><clipPath id="clip-path-dot-color-488"><circle cx="264" cy="40" r="14" transform="rotate(0,264,40)"/><path d="M 306 26v 28h 28v -14a 14 14, 0, 0, 0, -14 -14" transform="rotate(-90,320,40)"/><rect x="334" y="26" width="28" height="28" transform="rotate(0,348,40)"/><rect x="362" y="26" width="28" height="28" transform="rotate(0,376,40)"/><rect x="390" y="26" width="28" height="28" transform="rotate(0,404,40)"/><rect x="418" y="26" width="28" height="28" transform="rotate(0,432,40)"/><rect x="446" y="26" width="28" height="28" transform="rotate(0,460,40)"/><path d="M 474 26v 28h 14a 14 14, 0, 0, 0, 0 -28" transform="rotate(0,488,40)"/><circle cx="628" cy="40" r="14" transform="rotate(0,628,40)"/><path d="M 810 26v 28h 14a 14 14, 0, 0, 0, 0 -28" transform="rotate(-90,824,40)"/><path d="M 866 26v 28h 14a 14 14, 0, 0, 0, 0 -28" transform="rotate(180,880,40)"/><rect x="894" y="26" width="28" height="28" transform="rotate(0,908,40)"/><path d="M 922 26v 28h 28v -14a 14 14, 0, 0, 0, -14 -14" transform="rotate(0,936,40)"/><rect x="306" y="54" width="28" height="28" transform="rotate(0,320,68)"/><rect x="334" y="54" width="28" height="28" transform="rotate(0,348,68)"/><path d="M 362 54v 28h 28v -14a 14 14, 0, 0, 0, -14 -14" transform="rotate(90,376,68)"/><circle cx="572" cy="68" r="14" transform="rotate(0,572,68)"/><path d="M 642 54v 28h 14a 14 14, 0, 0, 0, 0 -28" transform="rotate(180,656,68)"/><rect x="670" y="54" width="28" height="28" transform="rotate(0,684,68)"/><path d="M 698 54v 28h 14a 14 14, 0, 0, 0, 0 -28" transform="rotate(0,712,68)"/><path d="M 782 54v 28h 28v -14a 14 14, 0, 0, 0, -14 -14" transform="rotate(-90,796,68)"/><rect x="810" y="54" width="28" height="28" transform="rotate(0,824,68)"/><rect x="922" y="54" width="28" height="28" transform="rotate(0,936,68)"/><path d="M 278 82v 28h 14a 14 14, 0, 0, 0, 0 -28" transform="rotate(180,292,96)"/><rect x="306" y="82" width="28" height="28" transform="rotate(0,320,96)"/><rect x="334" y="82" width="28" height="28" transform="rotate(0,348,96)"/><path d="M 586 82v 28h 14a 14 14, 0, 0, 0, 0 -28" transform="rotate(180,600,96)"/><path d="M 614 82v 28h 14a 14 14, 0, 0, 0, 0 -28" transform="rotate(0,628,96)"/><path d="M 754 82v 28h 14a 14 14, 0, 0, 0, 0 -28" transform="rotate(180,768,96)"/><rect x="782" y="82" width="28" height="28" transform="rotate(0,796,96)"/><path d="M 810 82v 28h 28v -14a 14 14, 0, 0, 0, -14 -14" transform="rotate(90,824,96)"/><circle cx="880" cy="96" r="14" transform="rotate(0,880,96)"/><rect x="922" y="82" width="28" height="28" transform="rotate(0,936,96)"/><path d="M 334 110v 28h 14a 14 14, 0, 0, 0, 0 -28" transform="rotate(90,348,124)"/><path d="M 390 110v 28h 14a 14 14, 0, 0, 0, 0 -28" transform="rotate(-90,404,124)"/><path d="M 446 110v 28h 14a 14 14, 0, 0, 0, 0 -28" transform="rotate(180,460,124)"/><path d="M 474 110v 28h 28v -14a 14 14, 0, 0, 0, -14 -14" transform="rotate(0,488,124)"/><circle cx="572" cy="124" r="14" transform="rotate(0,572,124)"/><path d="M 670 110v 28h 14a 14 14, 0, 0, 0, 0 -28" transform="rotate(-90,684,124)"/><circle cx="852" cy="124" r="14" transform="rotate(0,852,124)"/><rect x="922" y="110" width="28" height="28" transform="rotate(0,936,124)"/><path d="M 250 138v 28h 28v -14a 14 14, 0, 0, 0, -14 -14" transform="rotate(-90,264,152)"/><rect x="278" y="138" width="28" height="28" transform="rotate(0,292,152)"/><path d="M 306 138v 28h 14a 14 14, 0, 0, 0, 0 -28" transform="rotate(0,320,152)"/><path d="M 362 138v 28h 14a 14 14, 0, 0, 0, 0 -28" transform="rotate(180,376,152)"/><rect x="390" y="138" width="28" height="28" transform="rotate(0,404,152)"/><path d="M 418 138v 28h 14a 14 14, 0, 0, 0, 0 -28" transform="rotate(0,432,152)"/><path d="M 474 138v 28h 14a 14 14, 0, 0, 0, 0 -28" transform="rotate(90,488,152)"/><circle cx="544" cy="152" r="14" transform="rotate(0,544,152)"/><path d="M 586 138v 28h 28v -14a 14 14, 0, 0, 0, -14 -14" transform="rotate(-90,600,152)"/><rect x="614" y="138" width="28" height="28" transform="rotate(0,628,152)"/><rect x="642" y="138" width="28" height="28" transform="rotate(0,656,152)"/><rect x="670" y="138" width="28" height="28" transform="rotate(0,684,152)"/><circle cx="768" cy="152" r="14" transform="rotate(0,768,152)"/><circle cx="824" cy="152" r="14" transform="rotate(0,824,152)"/><path d="M 894 138v 28h 14a 14 14, 0, 0, 0, 0 -28" transform="rotate(180,908,152)"/><rect x="922" y="138" width="28" height="28" transform="rotate(0,936,152)"/><rect x="250" y="166" width="28" height="28" transform="rotate(0,264,180)"/><path d="M 278 166v 28h 28v -14a 14 14, 0, 0, 0, -14 -14" transform="rotate(90,292,180)"/><circle cx="348" cy="180" r="14" transform="rotate(0,348,180)"/><path d="M 390 166v 28h 14a 14 14, 0, 0, 0, 0 -28" transform="rotate(90,404,180)"/><circle cx="460" cy="180" r="14" transform="rotate(0,460,180)"/><circle cx="516" cy="180" r="14" transform="rotate(0,516,180)"/><rect x="586" y="166" width="28" height="28" transform="rotate(0,600,180)"/><rect x="614" y="166" width="28" height="28" transform="rotate(0,628,180)"/><rect x="642" y="166" width="28" height="28" transform="rotate(0,656,180)"/><rect x="670" y="166" width="28" height="28" transform="rotate(0,684,180)"/><rect x="698" y="166" width="28" height="28" transform="rotate(0,712,180)"/><path d="M 726 166v 28h 14a 14 14, 0, 0, 0, 0 -28" transform="rotate(0,740,180)"/><circle cx="796" cy="180" r="14" transform="rotate(0,796,180)"/><path d="M 838 166v 28h 14a 14 14, 0, 0, 0, 0 -28" transform="rotate(180,852,180)"/><path d="M 866 166v 28h 28v -14a 14 14, 0, 0, 0, -14 -14" transform="rotate(0,880,180)"/><rect x="922" y="166" width="28" height="28" transform="rotate(0,936,180)"/><path d="M 250 194v 28h 14a 14 14, 0, 0, 0, 0 -28" transform="rotate(90,264,208)"/><path d="M 306 194v 28h 14a 14 14, 0, 0, 0, 0 -28" transform="rotate(-90,320,208)"/><path d="M 362 194v 28h 14a 14 14, 0, 0, 0, 0 -28" transform="rotate(-90,376,208)"/><circle cx="432" cy="208" r="14" transform="rotate(0,432,208)"/><circle cx="488" cy="208" r="14" transform="rotate(0,488,208)"/><circle cx="544" cy="208" r="14" transform="rotate(0,544,208)"/><path d="M 586 194v 28h 14a 14 14, 0, 0, 0, 0 -28" transform="rotate(90,600,208)"/><path d="M 642 194v 28h 14a 14 14, 0, 0, 0, 0 -28" transform="rotate(90,656,208)"/><rect x="698" y="194" width="28" height="28" transform="rotate(0,712,208)"/><circle cx="768" cy="208" r="14" transform="rotate(0,768,208)"/><circle cx="824" cy="208" r="14" transform="rotate(0,824,208)"/><path d="M 866 194v 28h 14a 14 14, 0, 0, 0, 0 -28" transform="rotate(90,880,208)"/><rect x="922" y="194" width="28" height="28" transform="rotate(0,936,208)"/><rect x="306" y="222" width="28" height="28" transform="rotate(0,320,236)"/><rect x="334" y="222" width="28" height="28" transform="rotate(0,348,236)"/><rect x="362" y="222" width="28" height="28" transform="rotate(0,376,236)"/><path d="M 446 222v 28h 14a 14 14, 0, 0, 0, 0 -28" transform="rotate(-90,460,236)"/><circle cx="516" cy="236" r="14" transform="rotate(0,516,236)"/><path d="M 670 222v 28h 14a 14 14, 0, 0, 0, 0 -28" transform="rotate(180,684,236)"/><path d="M 698 222v 28h 28v -14a 14 14, 0, 0, 0, -14 -14" transform="rotate(90,712,236)"/><path d="M 922 222v 28h 14a 14 14, 0, 0, 0, 0 -28" transform="rotate(90,936,236)"/><path d="M 54 250v 28h 14a 14 14, 0, 0, 0, 0 -28" transform="rotate(180,68,264)"/><rect x="82" y="250" width="28" height="28" transform="rotate(0,96,264)"/><rect x="110" y="250" width="28" height="28" transform="rotate(0,124,264)"/><rect x="138" y="250" width="28" height="28" transform="rotate(0,152,264)"/><rect x="166" y="250" width="28" height="28" transform="rotate(0,180,264)"/><rect x="194" y="250" width="28" height="28" transform="rotate(0,208,264)"/><path d="M 222 250v 28h 28v -14a 14 14, 0, 0, 0, -14 -14" transform="rotate(0,236,264)"/><path d="M 278 250v 28h 28v -14a 14 14, 0, 0, 0, -14 -14" transform="rotate(-90,292,264)"/><rect x="306" y="250" width="28" height="28" transform="rotate(0,320,264)"/><rect x="334" y="250" width="28" height="28" transform="rotate(0,348,264)"/><rect x="362" y="250" width="28" height="28" transform="rotate(0,376,264)"/><rect x="390" y="250" width="28" height="28" transform="rotate(0,404,264)"/><rect x="418" y="250" width="28" height="28" transform="rotate(0,432,264)"/><rect x="446" y="250" width="28" height="28" transform="rotate(0,460,264)"/><path d="M 474 250v 28h 14a 14 14, 0, 0, 0, 0 -28" transform="rotate(0,488,264)"/><path d="M 614 250v 28h 14a 14 14, 0, 0, 0, 0 -28" transform="rotate(-90,628,264)"/><path d="M 726 250v 28h 14a 14 14, 0, 0, 0, 0 -28" transform="rotate(180,740,264)"/><rect x="754" y="250" width="28" height="28" transform="rotate(0,768,264)"/><rect x="782" y="250" width="28" height="28" transform="rotate(0,796,264)"/><rect x="810" y="250" width="28" height="28" transform="rotate(0,824,264)"/><path d="M 838 250v 28h 14a 14 14, 0, 0, 0, 0 -28" transform="rotate(0,852,264)"/><path d="M 1006 250v 28h 28v -14a 14 14, 0, 0, 0, -14 -14" transform="rotate(-90,1020,264)"/><path d="M 1034 250v 28h 28v -14a 14 14, 0, 0, 0, -14 -14" transform="rotate(0,1048,264)"/><path d="M 1146 250v 28h 14a 14 14, 0, 0, 0, 0 -28" transform="rotate(-90,1160,264)"/><circle cx="40" cy="292" r="14" transform="rotate(0,40,292)"/><rect x="82" y="278" width="28" height="28" transform="rotate(0,96,292)"/><rect x="110" y="278" width="28" height="28" transform="rotate(0,124,292)"/><path d="M 166 278v 28h 14a 14 14, 0, 0, 0, 0 -28" transform="rotate(90,180,292)"/><path d="M 222 278v 28h 28v -14a 14 14, 0, 0, 0, -14 -14" transform="rotate(180,236,292)"/><rect x="250" y="278" width="28" height="28" transform="rotate(0,264,292)"/><rect x="278" y="278" width="28" height="28" transform="rotate(0,292,292)"/><path d="M 334 278v 28h 14a 14 14, 0, 0, 0, 0 -28" transform="rotate(90,348,292)"/><path d="M 446 278v 28h 14a 14 14, 0, 0, 0, 0 -28" transform="rotate(90,460,292)"/><path d="M 558 278v 28h 28v -14a 14 14, 0, 0, 0, -14 -14" transform="rotate(-90,572,292)"/><rect x="586" y="278" width="28" height="28" transform="rotate(0,600,292)"/><rect x="614" y="278" width="28" height="28" transform="rotate(0,628,292)"/><rect x="642" y="278" width="28" height="28" transform="rotate(0,656,292)"/><path d="M 670 278v 28h 14a 14 14, 0, 0, 0, 0 -28" transform="rotate(0,684,292)"/><rect x="810" y="278" width="28" height="28" transform="rotate(0,824,292)"/><path d="M 894 278v 28h 14a 14 14, 0, 0, 0, 0 -28" transform="rotate(180,908,292)"/><rect x="922" y="278" width="28" height="28" transform="rotate(0,936,292)"/><rect x="950" y="278" width="28" height="28" transform="rotate(0,964,292)"/><rect x="978" y="278" width="28" height="28" transform="rotate(0,992,292)"/><rect x="1006" y="278" width="28" height="28" transform="rotate(0,1020,292)"/><path d="M 1034 278v 28h 28v -14a 14 14, 0, 0, 0, -14 -14" transform="rotate(90,1048,292)"/><path d="M 1090 278v 28h 14a 14 14, 0, 0, 0, 0 -28" transform="rotate(180,1104,292)"/><rect x="1118" y="278" width="28" height="28" transform="rotate(0,1132,292)"/><path d="M 1146 278v 28h 28v -14a 14 14, 0, 0, 0, -14 -14" transform="rotate(90,1160,292)"/><path d="M 54 306v 28h 14a 14 14, 0, 0, 0, 0 -28" transform="rotate(180,68,320)"/><rect x="82" y="306" width="28" height="28" transform="rotate(0,96,320)"/><rect x="110" y="306" width="28" height="28" transform="rotate(0,124,320)"/><path d="M 138 306v 28h 28v -14a 14 14, 0, 0, 0, -14 -14" transform="rotate(0,152,320)"/><circle cx="208" cy="320" r="14" transform="rotate(0,208,320)"/><path d="M 278 306v 28h 28v -14a 14 14, 0, 0, 0, -14 -14" transform="rotate(180,292,320)"/><path d="M 306 306v 28h 14a 14 14, 0, 0, 0, 0 -28" transform="rotate(0,320,320)"/><path d="M 418 306v 28h 14a 14 14, 0, 0, 0, 0 -28" transform="rotate(-90,432,320)"/><path d="M 474 306v 28h 14a 14 14, 0, 0, 0, 0 -28" transform="rotate(180,488,320)"/><rect x="502" y="306" width="28" height="28" transform="rotate(0,516,320)"/><rect x="530" y="306" width="28" height="28" transform="rotate(0,544,320)"/><rect x="558" y="306" width="28" height="28" transform="rotate(0,572,320)"/><rect x="586" y="306" width="28" height="28" transform="rotate(0,600,320)"/><rect x="614" y="306" width="28" height="28" transform="rotate(0,628,320)"/><circle cx="712" cy="320" r="14" transform="rotate(0,712,320)"/><path d="M 754 306v 28h 14a 14 14, 0, 0, 0, 0 -28" transform="rotate(180,768,320)"/><rect x="782" y="306" width="28" height="28" transform="rotate(0,796,320)"/><rect x="810" y="306" width="28" height="28" transform="rotate(0,824,320)"/><rect x="838" y="306" width="28" height="28" transform="rotate(0,852,320)"/><path d="M 866 306v 28h 28v -14a 14 14, 0, 0, 0, -14 -14" transform="rotate(0,880,320)"/><rect x="922" y="306" width="28" height="28" transform="rotate(0,936,320)"/><path d="M 978 306v 28h 14a 14 14, 0, 0, 0, 0 -28" transform="rotate(90,992,320)"/><path d="M 110 334v 28h 28v -14a 14 14, 0, 0, 0, -14 -14" transform="rotate(180,124,348)"/><rect x="138" y="334" width="28" height="28" transform="rotate(0,152,348)"/><path d="M 166 334v 28h 14a 14 14, 0, 0, 0, 0 -28" transform="rotate(0,180,348)"/><path d="M 222 334v 28h 28v -14a 14 14, 0, 0, 0, -14 -14" transform="rotate(-90,236,348)"/><path d="M 250 334v 28h 14a 14 14, 0, 0, 0, 0 -28" transform="rotate(0,264,348)"/><path d="M 390 334v 28h 28v -14a 14 14, 0, 0, 0, -14 -14" transform="rotate(-90,404,348)"/><rect x="418" y="334" width="28" height="28" transform="rotate(0,432,348)"/><rect x="614" y="334" width="28" height="28" transform="rotate(0,628,348)"/><path d="M 642 334v 28h 28v -14a 14 14, 0, 0, 0, -14 -14" transform="rotate(0,656,348)"/><rect x="782" y="334" width="28" height="28" transform="rotate(0,796,348)"/><path d="M 810 334v 28h 28v -14a 14 14, 0, 0, 0, -14 -14" transform="rotate(90,824,348)"/><path d="M 866 334v 28h 28v -14a 14 14, 0, 0, 0, -14 -14" transform="rotate(180,880,348)"/><rect x="894" y="334" width="28" height="28" transform="rotate(0,908,348)"/><rect x="922" y="334" width="28" height="28" transform="rotate(0,936,348)"/><path d="M 1034 334v 28h 14a 14 14, 0, 0, 0, 0 -28" transform="rotate(180,1048,348)"/><path d="M 1062 334v 28h 28v -14a 14 14, 0, 0, 0, -14 -14" transform="rotate(0,1076,348)"/><circle cx="1132" cy="348" r="14" transform="rotate(0,1132,348)"/><path d="M 26 362v 28h 28v -14a 14 14, 0, 0, 0, -14 -14" transform="rotate(-90,40,376)"/><path d="M 54 362v 28h 14a 14 14, 0, 0, 0, 0 -28" transform="rotate(0,68,376)"/><path d="M 194 362v 28h 14a 14 14, 0, 0, 0, 0 -28" transform="rotate(180,208,376)"/><path d="M 222 362v 28h 28v -14a 14 14, 0, 0, 0, -14 -14" transform="rotate(90,236,376)"/><path d="M 278 362v 28h 14a 14 14, 0, 0, 0, 0 -28" transform="rotate(180,292,376)"/><path d="M 306 362v 28h 14a 14 14, 0, 0, 0, 0 -28" transform="rotate(0,320,376)"/><path d="M 362 362v 28h 14a 14 14, 0, 0, 0, 0 -28" transform="rotate(180,376,376)"/><rect x="390" y="362" width="28" height="28" transform="rotate(0,404,376)"/><rect x="418" y="362" width="28" height="28" transform="rotate(0,432,376)"/><rect x="446" y="362" width="28" height="28" transform="rotate(0,460,376)"/><rect x="474" y="362" width="28" height="28" transform="rotate(0,488,376)"/><rect x="502" y="362" width="28" height="28" transform="rotate(0,516,376)"/><path d="M 530 362v 28h 14a 14 14, 0, 0, 0, 0 -28" transform="rotate(0,544,376)"/><path d="M 586 362v 28h 14a 14 14, 0, 0, 0, 0 -28" transform="rotate(180,600,376)"/><rect x="614" y="362" width="28" height="28" transform="rotate(0,628,376)"/><path d="M 642 362v 28h 28v -14a 14 14, 0, 0, 0, -14 -14" transform="rotate(90,656,376)"/><circle cx="740" cy="376" r="14" transform="rotate(0,740,376)"/><rect x="782" y="362" width="28" height="28" transform="rotate(0,796,376)"/><circle cx="852" cy="376" r="14" transform="rotate(0,852,376)"/><rect x="894" y="362" width="28" height="28" transform="rotate(0,908,376)"/><rect x="922" y="362" width="28" height="28" transform="rotate(0,936,376)"/><path d="M 1062 362v 28h 28v -14a 14 14, 0, 0, 0, -14 -14" transform="rotate(180,1076,376)"/><path d="M 1090 362v 28h 14a 14 14, 0, 0, 0, 0 -28" transform="rotate(0,1104,376)"/><rect x="26" y="390" width="28" height="28" transform="rotate(0,40,404)"/><path d="M 82 390v 28h 28v -14a 14 14, 0, 0, 0, -14 -14" transform="rotate(-90,96,404)"/><path d="M 110 390v 28h 28v -14a 14 14, 0, 0, 0, -14 -14" transform="rotate(0,124,404)"/><circle cx="180" cy="404" r="14" transform="rotate(0,180,404)"/><path d="M 250 390v 28h 14a 14 14, 0, 0, 0, 0 -28" transform="rotate(-90,264,404)"/><path d="M 334 390v 28h 14a 14 14, 0, 0, 0, 0 -28" transform="rotate(-90,348,404)"/><rect x="390" y="390" width="28" height="28" transform="rotate(0,404,404)"/><path d="M 418 390v 28h 28v -14a 14 14, 0, 0, 0, -14 -14" transform="rotate(90,432,404)"/><circle cx="712" cy="404" r="14" transform="rotate(0,712,404)"/><path d="M 782 390v 28h 28v -14a 14 14, 0, 0, 0, -14 -14" transform="rotate(180,796,404)"/><path d="M 810 390v 28h 14a 14 14, 0, 0, 0, 0 -28" transform="rotate(0,824,404)"/><path d="M 894 390v 28h 28v -14a 14 14, 0, 0, 0, -14 -14" transform="rotate(180,908,404)"/><rect x="922" y="390" width="28" height="28" transform="rotate(0,936,404)"/><rect x="950" y="390" width="28" height="28" transform="rotate(0,964,404)"/><rect x="978" y="390" width="28" height="28" transform="rotate(0,992,404)"/><rect x="1006" y="390" width="28" height="28" transform="rotate(0,1020,404)"/><path d="M 1034 390v 28h 14a 14 14, 0, 0, 0, 0 -28" transform="rotate(0,1048,404)"/><circle cx="1160" cy="404" r="14" transform="rotate(0,1160,404)"/><rect x="26" y="418" width="28" height="28" transform="rotate(0,40,432)"/><rect x="54" y="418" width="28" height="28" transform="rotate(0,68,432)"/><rect x="82" y="418" width="28" height="28" transform="rotate(0,96,432)"/><rect x="110" y="418" width="28" height="28" transform="rotate(0,124,432)"/><path d="M 138 418v 28h 28v -14a 14 14, 0, 0, 0, -14 -14" transform="rotate(0,152,432)"/><circle cx="208" cy="432" r="14" transform="rotate(0,208,432)"/><rect x="250" y="418" width="28" height="28" transform="rotate(0,264,432)"/><path d="M 278 418v 28h 28v -14a 14 14, 0, 0, 0, -14 -14" transform="rotate(0,292,432)"/><path d="M 334 418v 28h 28v -14a 14 14, 0, 0, 0, -14 -14" transform="rotate(180,348,432)"/><rect x="362" y="418" width="28" height="28" transform="rotate(0,376,432)"/><path d="M 390 418v 28h 28v -14a 14 14, 0, 0, 0, -14 -14" transform="rotate(90,404,432)"/><path d="M 502 418v 28h 14a 14 14, 0, 0, 0, 0 -28" transform="rotate(-90,516,432)"/><path d="M 586 418v 28h 14a 14 14, 0, 0, 0, 0 -28" transform="rotate(180,600,432)"/><rect x="614" y="418" width="28" height="28" transform="rotate(0,628,432)"/><path d="M 642 418v 28h 14a 14 14, 0, 0, 0, 0 -28" transform="rotate(0,656,432)"/><circle cx="740" cy="432" r="14" transform="rotate(0,740,432)"/><circle cx="852" cy="432" r="14" transform="rotate(0,852,432)"/><path d="M 950 418v 28h 14a 14 14, 0, 0, 0, 0 -28" transform="rotate(90,964,432)"/><rect x="1006" y="418" width="28" height="28" transform="rotate(0,1020,432)"/><path d="M 1062 418v 28h 28v -14a 14 14, 0, 0, 0, -14 -14" transform="rotate(-90,1076,432)"/><path d="M 1090 418v 28h 14a 14 14, 0, 0, 0, 0 -28" transform="rotate(0,1104,432)"/><path d="M 26 446v 28h 28v -14a 14 14, 0, 0, 0, -14 -14" transform="rotate(180,40,460)"/><rect x="54" y="446" width="28" height="28" transform="rotate(0,68,460)"/><rect x="82" y="446" width="28" height="28" transform="rotate(0,96,460)"/><rect x="110" y="446" width="28" height="28" transform="rotate(0,124,460)"/><rect x="138" y="446" width="28" height="28" transform="rotate(0,152,460)"/><path d="M 222 446v 28h 28v -14a 14 14, 0, 0, 0, -14 -14" transform="rotate(-90,236,460)"/><rect x="250" y="446" width="28" height="28" transform="rotate(0,264,460)"/><rect x="278" y="446" width="28" height="28" transform="rotate(0,292,460)"/><path d="M 306 446v 28h 28v -14a 14 14, 0, 0, 0, -14 -14" transform="rotate(0,320,460)"/><circle cx="432" cy="460" r="14" transform="rotate(0,432,460)"/><path d="M 502 446v 28h 28v -14a 14 14, 0, 0, 0, -14 -14" transform="rotate(180,516,460)"/><rect x="530" y="446" width="28" height="28" transform="rotate(0,544,460)"/><path d="M 558 446v 28h 14a 14 14, 0, 0, 0, 0 -28" transform="rotate(0,572,460)"/><circle cx="712" cy="460" r="14" transform="rotate(0,712,460)"/><path d="M 754 446v 28h 14a 14 14, 0, 0, 0, 0 -28" transform="rotate(-90,768,460)"/><circle cx="824" cy="460" r="14" transform="rotate(0,824,460)"/><circle cx="880" cy="460" r="14" transform="rotate(0,880,460)"/><circle cx="936" cy="460" r="14" transform="rotate(0,936,460)"/><path d="M 978 446v 28h 14a 14 14, 0, 0, 0, 0 -28" transform="rotate(180,992,460)"/><rect x="1006" y="446" width="28" height="28" transform="rotate(0,1020,460)"/><path d="M 1062 446v 28h 14a 14 14, 0, 0, 0, 0 -28" transform="rotate(90,1076,460)"/><path d="M 1118 446v 28h 14a 14 14, 0, 0, 0, 0 -28" transform="rotate(-90,1132,460)"/><path d="M 54 474v 28h 28v -14a 14 14, 0, 0, 0, -14 -14" transform="rotate(180,68,488)"/><rect x="82" y="474" width="28" height="28" transform="rotate(0,96,488)"/><path d="M 138 474v 28h 14a 14 14, 0, 0, 0, 0 -28" transform="rotate(90,152,488)"/><path d="M 194 474v 28h 14a 14 14, 0, 0, 0, 0 -28" transform="rotate(180,208,488)"/><path d="M 222 474v 28h 28v -14a 14 14, 0, 0, 0, -14 -14" transform="rotate(90,236,488)"/><path d="M 278 474v 28h 28v -14a 14 14, 0, 0, 0, -14 -14" transform="rotate(180,292,488)"/><path d="M 306 474v 28h 28v -14a 14 14, 0, 0, 0, -14 -14" transform="rotate(90,320,488)"/><path d="M 390 474v 28h 14a 14 14, 0, 0, 0, 0 -28" transform="rotate(-90,404,488)"/><circle cx="488" cy="488" r="14" transform="rotate(0,488,488)"/><path d="M 586 474v 28h 28v -14a 14 14, 0, 0, 0, -14 -14" transform="rotate(-90,600,488)"/><path d="M 614 474v 28h 14a 14 14, 0, 0, 0, 0 -28" transform="rotate(0,628,488)"/><path d="M 726 474v 28h 28v -14a 14 14, 0, 0, 0, -14 -14" transform="rotate(-90,740,488)"/><path d="M 754 474v 28h 28v -14a 14 14, 0, 0, 0, -14 -14" transform="rotate(90,768,488)"/><path d="M 838 474v 28h 14a 14 14, 0, 0, 0, 0 -28" transform="rotate(-90,852,488)"/><path d="M 894 474v 28h 14a 14 14, 0, 0, 0, 0 -28" transform="rotate(-90,908,488)"/><circle cx="964" cy="488" r="14" transform="rotate(0,964,488)"/><rect x="1006" y="474" width="28" height="28" transform="rotate(0,1020,488)"/><path d="M 1090 474v 28h 14a 14 14, 0, 0, 0, 0 -28" transform="rotate(180,1104,488)"/><rect x="1118" y="474" width="28" height="28" transform="rotate(0,1132,488)"/><path d="M 1146 474v 28h 28v -14a 14 14, 0, 0, 0, -14 -14" transform="rotate(0,1160,488)"/><path d="M 82 502v 28h 28v -14a 14 14, 0, 0, 0, -14 -14" transform="rotate(180,96,516)"/><path d="M 110 502v 28h 14a 14 14, 0, 0, 0, 0 -28" transform="rotate(0,124,516)"/><path d="M 362 502v 28h 14a 14 14, 0, 0, 0, 0 -28" transform="rotate(180,376,516)"/><rect x="390" y="502" width="28" height="28" transform="rotate(0,404,516)"/><path d="M 418 502v 28h 14a 14 14, 0, 0, 0, 0 -28" transform="rotate(0,432,516)"/><path d="M 502 502v 28h 14a 14 14, 0, 0, 0, 0 -28" transform="rotate(-90,516,516)"/><path d="M 558 502v 28h 28v -14a 14 14, 0, 0, 0, -14 -14" transform="rotate(-90,572,516)"/><path d="M 586 502v 28h 28v -14a 14 14, 0, 0, 0, -14 -14" transform="rotate(90,600,516)"/><path d="M 642 502v 28h 28v -14a 14 14, 0, 0, 0, -14 -14" transform="rotate(-90,656,516)"/><path d="M 670 502v 28h 14a 14 14, 0, 0, 0, 0 -28" transform="rotate(0,684,516)"/><rect x="726" y="502" width="28" height="28" transform="rotate(0,740,516)"/><rect x="838" y="502" width="28" height="28" transform="rotate(0,852,516)"/><rect x="866" y="502" width="28" height="28" transform="rotate(0,880,516)"/><rect x="894" y="502" width="28" height="28" transform="rotate(0,908,516)"/><path d="M 922 502v 28h 14a 14 14, 0, 0, 0, 0 -28" transform="rotate(0,936,516)"/><path d="M 978 502v 28h 28v -14a 14 14, 0, 0, 0, -14 -14" transform="rotate(-90,992,516)"/><rect x="1006" y="502" width="28" height="28" transform="rotate(0,1020,516)"/><rect x="1034" y="502" width="28" height="28" transform="rotate(0,1048,516)"/><path d="M 1062 502v 28h 14a 14 14, 0, 0, 0, 0 -28" transform="rotate(0,1076,516)"/><path d="M 1118 502v 28h 28v -14a 14 14, 0, 0, 0, -14 -14" transform="rotate(180,1132,516)"/><path d="M 1146 502v 28h 28v -14a 14 14, 0, 0, 0, -14 -14" transform="rotate(90,1160,516)"/><circle cx="68" cy="544" r="14" transform="rotate(0,68,544)"/><path d="M 138 530v 28h 14a 14 14, 0, 0, 0, 0 -28" transform="rotate(180,152,544)"/><rect x="166" y="530" width="28" height="28" transform="rotate(0,180,544)"/><path d="M 194 530v 28h 14a 14 14, 0, 0, 0, 0 -28" transform="rotate(0,208,544)"/><path d="M 250 530v 28h 14a 14 14, 0, 0, 0, 0 -28" transform="rotate(180,264,544)"/><path d="M 278 530v 28h 28v -14a 14 14, 0, 0, 0, -14 -14" transform="rotate(0,292,544)"/><path d="M 334 530v 28h 14a 14 14, 0, 0, 0, 0 -28" transform="rotate(-90,348,544)"/><path d="M 390 530v 28h 14a 14 14, 0, 0, 0, 0 -28" transform="rotate(90,404,544)"/><circle cx="460" cy="544" r="14" transform="rotate(0,460,544)"/><path d="M 502 530v 28h 14a 14 14, 0, 0, 0, 0 -28" transform="rotate(90,516,544)"/><rect x="558" y="530" width="28" height="28" transform="rotate(0,572,544)"/><path d="M 614 530v 28h 28v -14a 14 14, 0, 0, 0, -14 -14" transform="rotate(-90,628,544)"/><rect x="642" y="530" width="28" height="28" transform="rotate(0,656,544)"/><rect x="726" y="530" width="28" height="28" transform="rotate(0,740,544)"/><rect x="754" y="530" width="28" height="28" transform="rotate(0,768,544)"/><rect x="782" y="530" width="28" height="28" transform="rotate(0,796,544)"/><rect x="810" y="530" width="28" height="28" transform="rotate(0,824,544)"/><rect x="838" y="530" width="28" height="28" transform="rotate(0,852,544)"/><rect x="866" y="530" width="28" height="28" transform="rotate(0,880,544)"/><path d="M 950 530v 28h 14a 14 14, 0, 0, 0, 0 -28" transform="rotate(180,964,544)"/><path d="M 978 530v 28h 28v -14a 14 14, 0, 0, 0, -14 -14" transform="rotate(90,992,544)"/><rect x="1034" y="530" width="28" height="28" transform="rotate(0,1048,544)"/><path d="M 110 558v 28h 14a 14 14, 0, 0, 0, 0 -28" transform="rotate(-90,124,572)"/><circle cx="236" cy="572" r="14" transform="rotate(0,236,572)"/><path d="M 278 558v 28h 28v -14a 14 14, 0, 0, 0, -14 -14" transform="rotate(180,292,572)"/><rect x="306" y="558" width="28" height="28" transform="rotate(0,320,572)"/><rect x="334" y="558" width="28" height="28" transform="rotate(0,348,572)"/><path d="M 362 558v 28h 14a 14 14, 0, 0, 0, 0 -28" transform="rotate(0,376,572)"/><circle cx="432" cy="572" r="14" transform="rotate(0,432,572)"/><circle cx="488" cy="572" r="14" transform="rotate(0,488,572)"/><path d="M 530 558v 28h 14a 14 14, 0, 0, 0, 0 -28" transform="rotate(180,544,572)"/><path d="M 558 558v 28h 28v -14a 14 14, 0, 0, 0, -14 -14" transform="rotate(90,572,572)"/><rect x="614" y="558" width="28" height="28" transform="rotate(0,628,572)"/><rect x="642" y="558" width="28" height="28" transform="rotate(0,656,572)"/><path d="M 698 558v 28h 28v -14a 14 14, 0, 0, 0, -14 -14" transform="rotate(-90,712,572)"/><path d="M 726 558v 28h 28v -14a 14 14, 0, 0, 0, -14 -14" transform="rotate(90,740,572)"/><rect x="782" y="558" width="28" height="28" transform="rotate(0,796,572)"/><rect x="810" y="558" width="28" height="28" transform="rotate(0,824,572)"/><rect x="866" y="558" width="28" height="28" transform="rotate(0,880,572)"/><path d="M 894 558v 28h 14a 14 14, 0, 0, 0, 0 -28" transform="rotate(0,908,572)"/><path d="M 1034 558v 28h 28v -14a 14 14, 0, 0, 0, -14 -14" transform="rotate(180,1048,572)"/><path d="M 1062 558v 28h 14a 14 14, 0, 0, 0, 0 -28" transform="rotate(0,1076,572)"/><path d="M 1118 558v 28h 14a 14 14, 0, 0, 0, 0 -28" transform="rotate(180,1132,572)"/><path d="M 1146 558v 28h 28v -14a 14 14, 0, 0, 0, -14 -14" transform="rotate(0,1160,572)"/><path d="M 26 586v 28h 14a 14 14, 0, 0, 0, 0 -28" transform="rotate(-90,40,600)"/><rect x="110" y="586" width="28" height="28" transform="rotate(0,124,600)"/><rect x="138" y="586" width="28" height="28" transform="rotate(0,152,600)"/><rect x="166" y="586" width="28" height="28" transform="rotate(0,180,600)"/><path d="M 194 586v 28h 14a 14 14, 0, 0, 0, 0 -28" transform="rotate(0,208,600)"/><circle cx="264" cy="600" r="14" transform="rotate(0,264,600)"/><path d="M 390 586v 28h 14a 14 14, 0, 0, 0, 0 -28" transform="rotate(-90,404,600)"/><path d="M 446 586v 28h 14a 14 14, 0, 0, 0, 0 -28" transform="rotate(-90,460,600)"/><circle cx="516" cy="600" r="14" transform="rotate(0,516,600)"/><path d="M 586 586v 28h 28v -14a 14 14, 0, 0, 0, -14 -14" transform="rotate(-90,600,600)"/><rect x="614" y="586" width="28" height="28" transform="rotate(0,628,600)"/><rect x="642" y="586" width="28" height="28" transform="rotate(0,656,600)"/><rect x="670" y="586" width="28" height="28" transform="rotate(0,684,600)"/><path d="M 698 586v 28h 28v -14a 14 14, 0, 0, 0, -14 -14" transform="rotate(90,712,600)"/><path d="M 754 586v 28h 14a 14 14, 0, 0, 0, 0 -28" transform="rotate(180,768,600)"/><rect x="782" y="586" width="28" height="28" transform="rotate(0,796,600)"/><rect x="810" y="586" width="28" height="28" transform="rotate(0,824,600)"/><rect x="866" y="586" width="28" height="28" transform="rotate(0,880,600)"/><path d="M 1090 586v 28h 14a 14 14, 0, 0, 0, 0 -28" transform="rotate(-90,1104,600)"/><rect x="1146" y="586" width="28" height="28" transform="rotate(0,1160,600)"/><rect x="26" y="614" width="28" height="28" transform="rotate(0,40,628)"/><path d="M 54 614v 28h 28v -14a 14 14, 0, 0, 0, -14 -14" transform="rotate(0,68,628)"/><path d="M 110 614v 28h 14a 14 14, 0, 0, 0, 0 -28" transform="rotate(90,124,628)"/><rect x="166" y="614" width="28" height="28" transform="rotate(0,180,628)"/><circle cx="236" cy="628" r="14" transform="rotate(0,236,628)"/><path d="M 278 614v 28h 14a 14 14, 0, 0, 0, 0 -28" transform="rotate(-90,292,628)"/><path d="M 390 614v 28h 28v -14a 14 14, 0, 0, 0, -14 -14" transform="rotate(180,404,628)"/><rect x="418" y="614" width="28" height="28" transform="rotate(0,432,628)"/><rect x="446" y="614" width="28" height="28" transform="rotate(0,460,628)"/><path d="M 474 614v 28h 14a 14 14, 0, 0, 0, 0 -28" transform="rotate(0,488,628)"/><path d="M 558 614v 28h 28v -14a 14 14, 0, 0, 0, -14 -14" transform="rotate(-90,572,628)"/><rect x="586" y="614" width="28" height="28" transform="rotate(0,600,628)"/><rect x="614" y="614" width="28" height="28" transform="rotate(0,628,628)"/><rect x="642" y="614" width="28" height="28" transform="rotate(0,656,628)"/><path d="M 670 614v 28h 28v -14a 14 14, 0, 0, 0, -14 -14" transform="rotate(90,684,628)"/><rect x="810" y="614" width="28" height="28" transform="rotate(0,824,628)"/><path d="M 866 614v 28h 28v -14a 14 14, 0, 0, 0, -14 -14" transform="rotate(180,880,628)"/><rect x="894" y="614" width="28" height="28" transform="rotate(0,908,628)"/><rect x="922" y="614" width="28" height="28" transform="rotate(0,936,628)"/><rect x="950" y="614" width="28" height="28" transform="rotate(0,964,628)"/><path d="M 978 614v 28h 14a 14 14, 0, 0, 0, 0 -28" transform="rotate(0,992,628)"/><path d="M 1034 614v 28h 14a 14 14, 0, 0, 0, 0 -28" transform="rotate(180,1048,628)"/><rect x="1062" y="614" width="28" height="28" transform="rotate(0,1076,628)"/><rect x="1090" y="614" width="28" height="28" transform="rotate(0,1104,628)"/><rect x="1118" y="614" width="28" height="28" transform="rotate(0,1132,628)"/><path d="M 1146 614v 28h 28v -14a 14 14, 0, 0, 0, -14 -14" transform="rotate(90,1160,628)"/><path d="M 26 642v 28h 28v -14a 14 14, 0, 0, 0, -14 -14" transform="rotate(180,40,656)"/><rect x="54" y="642" width="28" height="28" transform="rotate(0,68,656)"/><path d="M 82 642v 28h 14a 14 14, 0, 0, 0, 0 -28" transform="rotate(0,96,656)"/><path d="M 166 642v 28h 28v -14a 14 14, 0, 0, 0, -14 -14" transform="rotate(180,180,656)"/><path d="M 194 642v 28h 14a 14 14, 0, 0, 0, 0 -28" transform="rotate(0,208,656)"/><path d="M 278 642v 28h 14a 14 14, 0, 0, 0, 0 -28" transform="rotate(90,292,656)"/><circle cx="376" cy="656" r="14" transform="rotate(0,376,656)"/><path d="M 502 642v 28h 14a 14 14, 0, 0, 0, 0 -28" transform="rotate(-90,516,656)"/><path d="M 558 642v 28h 14a 14 14, 0, 0, 0, 0 -28" transform="rotate(90,572,656)"/><path d="M 642 642v 28h 14a 14 14, 0, 0, 0, 0 -28" transform="rotate(90,656,656)"/><path d="M 754 642v 28h 28v -14a 14 14, 0, 0, 0, -14 -14" transform="rotate(-90,768,656)"/><rect x="782" y="642" width="28" height="28" transform="rotate(0,796,656)"/><path d="M 810 642v 28h 28v -14a 14 14, 0, 0, 0, -14 -14" transform="rotate(90,824,656)"/><path d="M 922 642v 28h 14a 14 14, 0, 0, 0, 0 -28" transform="rotate(90,936,656)"/><circle cx="1020" cy="656" r="14" transform="rotate(0,1020,656)"/><rect x="1062" y="642" width="28" height="28" transform="rotate(0,1076,656)"/><circle cx="264" cy="684" r="14" transform="rotate(0,264,684)"/><circle cx="320" cy="684" r="14" transform="rotate(0,320,684)"/><path d="M 390 670v 28h 28v -14a 14 14, 0, 0, 0, -14 -14" transform="rotate(-90,404,684)"/><rect x="418" y="670" width="28" height="28" transform="rotate(0,432,684)"/><rect x="446" y="670" width="28" height="28" transform="rotate(0,460,684)"/><rect x="474" y="670" width="28" height="28" transform="rotate(0,488,684)"/><path d="M 502 670v 28h 28v -14a 14 14, 0, 0, 0, -14 -14" transform="rotate(90,516,684)"/><path d="M 586 670v 28h 14a 14 14, 0, 0, 0, 0 -28" transform="rotate(180,600,684)"/><path d="M 614 670v 28h 14a 14 14, 0, 0, 0, 0 -28" transform="rotate(0,628,684)"/><circle cx="712" cy="684" r="14" transform="rotate(0,712,684)"/><rect x="754" y="670" width="28" height="28" transform="rotate(0,768,684)"/><rect x="782" y="670" width="28" height="28" transform="rotate(0,796,684)"/><circle cx="908" cy="684" r="14" transform="rotate(0,908,684)"/><path d="M 1034 670v 28h 14a 14 14, 0, 0, 0, 0 -28" transform="rotate(180,1048,684)"/><path d="M 1062 670v 28h 28v -14a 14 14, 0, 0, 0, -14 -14" transform="rotate(90,1076,684)"/><path d="M 1118 670v 28h 28v -14a 14 14, 0, 0, 0, -14 -14" transform="rotate(-90,1132,684)"/><path d="M 1146 670v 28h 14a 14 14, 0, 0, 0, 0 -28" transform="rotate(0,1160,684)"/><circle cx="68" cy="712" r="14" transform="rotate(0,68,712)"/><path d="M 110 698v 28h 14a 14 14, 0, 0, 0, 0 -28" transform="rotate(180,124,712)"/><rect x="138" y="698" width="28" height="28" transform="rotate(0,152,712)"/><rect x="166" y="698" width="28" height="28" transform="rotate(0,180,712)"/><path d="M 194 698v 28h 14a 14 14, 0, 0, 0, 0 -28" transform="rotate(0,208,712)"/><rect x="390" y="698" width="28" height="28" transform="rotate(0,404,712)"/><path d="M 418 698v 28h 28v -14a 14 14, 0, 0, 0, -14 -14" transform="rotate(90,432,712)"/><path d="M 530 698v 28h 14a 14 14, 0, 0, 0, 0 -28" transform="rotate(-90,544,712)"/><path d="M 642 698v 28h 28v -14a 14 14, 0, 0, 0, -14 -14" transform="rotate(-90,656,712)"/><path d="M 670 698v 28h 28v -14a 14 14, 0, 0, 0, -14 -14" transform="rotate(0,684,712)"/><path d="M 726 698v 28h 28v -14a 14 14, 0, 0, 0, -14 -14" transform="rotate(-90,740,712)"/><rect x="754" y="698" width="28" height="28" transform="rotate(0,768,712)"/><rect x="782" y="698" width="28" height="28" transform="rotate(0,796,712)"/><rect x="810" y="698" width="28" height="28" transform="rotate(0,824,712)"/><path d="M 838 698v 28h 14a 14 14, 0, 0, 0, 0 -28" transform="rotate(0,852,712)"/><path d="M 950 698v 28h 14a 14 14, 0, 0, 0, 0 -28" transform="rotate(-90,964,712)"/><path d="M 1006 698v 28h 14a 14 14, 0, 0, 0, 0 -28" transform="rotate(-90,1020,712)"/><path d="M 1090 698v 28h 14a 14 14, 0, 0, 0, 0 -28" transform="rotate(180,1104,712)"/><path d="M 1118 698v 28h 28v -14a 14 14, 0, 0, 0, -14 -14" transform="rotate(90,1132,712)"/><circle cx="96" cy="740" r="14" transform="rotate(0,96,740)"/><path d="M 222 726v 28h 28v -14a 14 14, 0, 0, 0, -14 -14" transform="rotate(-90,236,740)"/><rect x="250" y="726" width="28" height="28" transform="rotate(0,264,740)"/><rect x="278" y="726" width="28" height="28" transform="rotate(0,292,740)"/><rect x="306" y="726" width="28" height="28" transform="rotate(0,320,740)"/><rect x="334" y="726" width="28" height="28" transform="rotate(0,348,740)"/><rect x="362" y="726" width="28" height="28" transform="rotate(0,376,740)"/><path d="M 390 726v 28h 28v -14a 14 14, 0, 0, 0, -14 -14" transform="rotate(90,404,740)"/><path d="M 474 726v 28h 14a 14 14, 0, 0, 0, 0 -28" transform="rotate(180,488,740)"/><rect x="502" y="726" width="28" height="28" transform="rotate(0,516,740)"/><rect x="530" y="726" width="28" height="28" transform="rotate(0,544,740)"/><path d="M 586 726v 28h 14a 14 14, 0, 0, 0, 0 -28" transform="rotate(180,600,740)"/><rect x="614" y="726" width="28" height="28" transform="rotate(0,628,740)"/><rect x="642" y="726" width="28" height="28" transform="rotate(0,656,740)"/><path d="M 670 726v 28h 28v -14a 14 14, 0, 0, 0, -14 -14" transform="rotate(90,684,740)"/><path d="M 726 726v 28h 14a 14 14, 0, 0, 0, 0 -28" transform="rotate(90,740,740)"/><path d="M 810 726v 28h 14a 14 14, 0, 0, 0, 0 -28" transform="rotate(90,824,740)"/><path d="M 866 726v 28h 14a 14 14, 0, 0, 0, 0 -28" transform="rotate(180,880,740)"/><path d="M 894 726v 28h 14a 14 14, 0, 0, 0, 0 -28" transform="rotate(0,908,740)"/><path d="M 950 726v 28h 28v -14a 14 14, 0, 0, 0, -14 -14" transform="rotate(180,964,740)"/><rect x="978" y="726" width="28" height="28" transform="rotate(0,992,740)"/><rect x="1006" y="726" width="28" height="28" transform="rotate(0,1020,740)"/><rect x="1034" y="726" width="28" height="28" transform="rotate(0,1048,740)"/><path d="M 1062 726v 28h 14a 14 14, 0, 0, 0, 0 -28" transform="rotate(0,1076,740)"/><circle cx="1160" cy="740" r="14" transform="rotate(0,1160,740)"/><path d="M 26 754v 28h 14a 14 14, 0, 0, 0, 0 -28" transform="rotate(180,40,768)"/><path d="M 54 754v 28h 14a 14 14, 0, 0, 0, 0 -28" transform="rotate(0,68,768)"/><circle cx="152" cy="768" r="14" transform="rotate(0,152,768)"/><path d="M 194 754v 28h 14a 14 14, 0, 0, 0, 0 -28" transform="rotate(180,208,768)"/><rect x="222" y="754" width="28" height="28" transform="rotate(0,236,768)"/><rect x="250" y="754" width="28" height="28" transform="rotate(0,264,768)"/><rect x="362" y="754" width="28" height="28" transform="rotate(0,376,768)"/><path d="M 418 754v 28h 28v -14a 14 14, 0, 0, 0, -14 -14" transform="rotate(-90,432,768)"/><path d="M 446 754v 28h 14a 14 14, 0, 0, 0, 0 -28" transform="rotate(0,460,768)"/><rect x="502" y="754" width="28" height="28" transform="rotate(0,516,768)"/><rect x="530" y="754" width="28" height="28" transform="rotate(0,544,768)"/><path d="M 614 754v 28h 14a 14 14, 0, 0, 0, 0 -28" transform="rotate(90,628,768)"/><circle cx="712" cy="768" r="14" transform="rotate(0,712,768)"/><path d="M 754 754v 28h 28v -14a 14 14, 0, 0, 0, -14 -14" transform="rotate(-90,768,768)"/><path d="M 782 754v 28h 28v -14a 14 14, 0, 0, 0, -14 -14" transform="rotate(0,796,768)"/><path d="M 922 754v 28h 14a 14 14, 0, 0, 0, 0 -28" transform="rotate(-90,936,768)"/><path d="M 978 754v 28h 28v -14a 14 14, 0, 0, 0, -14 -14" transform="rotate(180,992,768)"/><rect x="1006" y="754" width="28" height="28" transform="rotate(0,1020,768)"/><rect x="1034" y="754" width="28" height="28" transform="rotate(0,1048,768)"/><circle cx="96" cy="796" r="14" transform="rotate(0,96,796)"/><circle cx="180" cy="796" r="14" transform="rotate(0,180,796)"/><rect x="222" y="782" width="28" height="28" transform="rotate(0,236,796)"/><rect x="250" y="782" width="28" height="28" transform="rotate(0,264,796)"/><rect x="278" y="782" width="28" height="28" transform="rotate(0,292,796)"/><path d="M 306 782v 28h 28v -14a 14 14, 0, 0, 0, -14 -14" transform="rotate(0,320,796)"/><path d="M 362 782v 28h 14a 14 14, 0, 0, 0, 0 -28" transform="rotate(90,376,796)"/><rect x="418" y="782" width="28" height="28" transform="rotate(0,432,796)"/><rect x="502" y="782" width="28" height="28" transform="rotate(0,516,796)"/><rect x="530" y="782" width="28" height="28" transform="rotate(0,544,796)"/><rect x="558" y="782" width="28" height="28" transform="rotate(0,572,796)"/><path d="M 586 782v 28h 28v -14a 14 14, 0, 0, 0, -14 -14" transform="rotate(0,600,796)"/><path d="M 642 782v 28h 14a 14 14, 0, 0, 0, 0 -28" transform="rotate(-90,656,796)"/><rect x="754" y="782" width="28" height="28" transform="rotate(0,768,796)"/><rect x="782" y="782" width="28" height="28" transform="rotate(0,796,796)"/><path d="M 810 782v 28h 28v -14a 14 14, 0, 0, 0, -14 -14" transform="rotate(0,824,796)"/><path d="M 866 782v 28h 14a 14 14, 0, 0, 0, 0 -28" transform="rotate(180,880,796)"/><rect x="894" y="782" width="28" height="28" transform="rotate(0,908,796)"/><path d="M 922 782v 28h 28v -14a 14 14, 0, 0, 0, -14 -14" transform="rotate(90,936,796)"/><path d="M 1034 782v 28h 28v -14a 14 14, 0, 0, 0, -14 -14" transform="rotate(180,1048,796)"/><path d="M 1062 782v 28h 28v -14a 14 14, 0, 0, 0, -14 -14" transform="rotate(0,1076,796)"/><circle cx="1160" cy="796" r="14" transform="rotate(0,1160,796)"/><path d="M 26 810v 28h 28v -14a 14 14, 0, 0, 0, -14 -14" transform="rotate(-90,40,824)"/><path d="M 54 810v 28h 14a 14 14, 0, 0, 0, 0 -28" transform="rotate(0,68,824)"/><circle cx="152" cy="824" r="14" transform="rotate(0,152,824)"/><path d="M 194 810v 28h 14a 14 14, 0, 0, 0, 0 -28" transform="rotate(180,208,824)"/><path d="M 222 810v 28h 28v -14a 14 14, 0, 0, 0, -14 -14" transform="rotate(90,236,824)"/><rect x="306" y="810" width="28" height="28" transform="rotate(0,320,824)"/><path d="M 418 810v 28h 14a 14 14, 0, 0, 0, 0 -28" transform="rotate(90,432,824)"/><path d="M 474 810v 28h 28v -14a 14 14, 0, 0, 0, -14 -14" transform="rotate(-90,488,824)"/><path d="M 502 810v 28h 28v -14a 14 14, 0, 0, 0, -14 -14" transform="rotate(90,516,824)"/><path d="M 558 810v 28h 28v -14a 14 14, 0, 0, 0, -14 -14" transform="rotate(180,572,824)"/><rect x="586" y="810" width="28" height="28" transform="rotate(0,600,824)"/><rect x="614" y="810" width="28" height="28" transform="rotate(0,628,824)"/><rect x="642" y="810" width="28" height="28" transform="rotate(0,656,824)"/><rect x="670" y="810" width="28" height="28" transform="rotate(0,684,824)"/><rect x="698" y="810" width="28" height="28" transform="rotate(0,712,824)"/><rect x="726" y="810" width="28" height="28" transform="rotate(0,740,824)"/><rect x="754" y="810" width="28" height="28" transform="rotate(0,768,824)"/><rect x="782" y="810" width="28" height="28" transform="rotate(0,796,824)"/><rect x="810" y="810" width="28" height="28" transform="rotate(0,824,824)"/><path d="M 838 810v 28h 28v -14a 14 14, 0, 0, 0, -14 -14" transform="rotate(0,852,824)"/><rect x="894" y="810" width="28" height="28" transform="rotate(0,908,824)"/><rect x="1062" y="810" width="28" height="28" transform="rotate(0,1076,824)"/><rect x="1090" y="810" width="28" height="28" transform="rotate(0,1104,824)"/><path d="M 1118 810v 28h 28v -14a 14 14, 0, 0, 0, -14 -14" transform="rotate(0,1132,824)"/><rect x="26" y="838" width="28" height="28" transform="rotate(0,40,852)"/><circle cx="124" cy="852" r="14" transform="rotate(0,124,852)"/><path d="M 278 838v 28h 28v -14a 14 14, 0, 0, 0, -14 -14" transform="rotate(-90,292,852)"/><rect x="306" y="838" width="28" height="28" transform="rotate(0,320,852)"/><rect x="334" y="838" width="28" height="28" transform="rotate(0,348,852)"/><rect x="362" y="838" width="28" height="28" transform="rotate(0,376,852)"/><path d="M 390 838v 28h 28v -14a 14 14, 0, 0, 0, -14 -14" transform="rotate(0,404,852)"/><path d="M 474 838v 28h 14a 14 14, 0, 0, 0, 0 -28" transform="rotate(90,488,852)"/><path d="M 530 838v 28h 14a 14 14, 0, 0, 0, 0 -28" transform="rotate(-90,544,852)"/><path d="M 614 838v 28h 14a 14 14, 0, 0, 0, 0 -28" transform="rotate(90,628,852)"/><path d="M 726 838v 28h 14a 14 14, 0, 0, 0, 0 -28" transform="rotate(90,740,852)"/><rect x="782" y="838" width="28" height="28" transform="rotate(0,796,852)"/><rect x="838" y="838" width="28" height="28" transform="rotate(0,852,852)"/><rect x="866" y="838" width="28" height="28" transform="rotate(0,880,852)"/><rect x="894" y="838" width="28" height="28" transform="rotate(0,908,852)"/><rect x="922" y="838" width="28" height="28" transform="rotate(0,936,852)"/><rect x="950" y="838" width="28" height="28" transform="rotate(0,964,852)"/><path d="M 978 838v 28h 28v -14a 14 14, 0, 0, 0, -14 -14" transform="rotate(0,992,852)"/><path d="M 1034 838v 28h 28v -14a 14 14, 0, 0, 0, -14 -14" transform="rotate(-90,1048,852)"/><rect x="1062" y="838" width="28" height="28" transform="rotate(0,1076,852)"/><rect x="1090" y="838" width="28" height="28" transform="rotate(0,1104,852)"/><rect x="1118" y="838" width="28" height="28" transform="rotate(0,1132,852)"/><path d="M 1146 838v 28h 14a 14 14, 0, 0, 0, 0 -28" transform="rotate(0,1160,852)"/><rect x="26" y="866" width="28" height="28" transform="rotate(0,40,880)"/><path d="M 82 866v 28h 14a 14 14, 0, 0, 0, 0 -28" transform="rotate(-90,96,880)"/><path d="M 166 866v 28h 14a 14 14, 0, 0, 0, 0 -28" transform="rotate(180,180,880)"/><path d="M 194 866v 28h 14a 14 14, 0, 0, 0, 0 -28" transform="rotate(0,208,880)"/><path d="M 278 866v 28h 14a 14 14, 0, 0, 0, 0 -28" transform="rotate(90,292,880)"/><rect x="334" y="866" width="28" height="28" transform="rotate(0,348,880)"/><rect x="362" y="866" width="28" height="28" transform="rotate(0,376,880)"/><rect x="390" y="866" width="28" height="28" transform="rotate(0,404,880)"/><path d="M 418 866v 28h 28v -14a 14 14, 0, 0, 0, -14 -14" transform="rotate(0,432,880)"/><path d="M 502 866v 28h 28v -14a 14 14, 0, 0, 0, -14 -14" transform="rotate(-90,516,880)"/><rect x="530" y="866" width="28" height="28" transform="rotate(0,544,880)"/><path d="M 558 866v 28h 28v -14a 14 14, 0, 0, 0, -14 -14" transform="rotate(0,572,880)"/><path d="M 670 866v 28h 28v -14a 14 14, 0, 0, 0, -14 -14" transform="rotate(-90,684,880)"/><path d="M 698 866v 28h 14a 14 14, 0, 0, 0, 0 -28" transform="rotate(0,712,880)"/><rect x="782" y="866" width="28" height="28" transform="rotate(0,796,880)"/><rect x="810" y="866" width="28" height="28" transform="rotate(0,824,880)"/><path d="M 838 866v 28h 28v -14a 14 14, 0, 0, 0, -14 -14" transform="rotate(90,852,880)"/><rect x="922" y="866" width="28" height="28" transform="rotate(0,936,880)"/><rect x="950" y="866" width="28" height="28" transform="rotate(0,964,880)"/><rect x="978" y="866" width="28" height="28" transform="rotate(0,992,880)"/><rect x="1006" y="866" width="28" height="28" transform="rotate(0,1020,880)"/><rect x="1034" y="866" width="28" height="28" transform="rotate(0,1048,880)"/><rect x="1062" y="866" width="28" height="28" transform="rotate(0,1076,880)"/><path d="M 1090 866v 28h 28v -14a 14 14, 0, 0, 0, -14 -14" transform="rotate(90,1104,880)"/><rect x="26" y="894" width="28" height="28" transform="rotate(0,40,908)"/><rect x="82" y="894" width="28" height="28" transform="rotate(0,96,908)"/><rect x="110" y="894" width="28" height="28" transform="rotate(0,124,908)"/><path d="M 138 894v 28h 14a 14 14, 0, 0, 0, 0 -28" transform="rotate(0,152,908)"/><path d="M 222 894v 28h 14a 14 14, 0, 0, 0, 0 -28" transform="rotate(-90,236,908)"/><path d="M 334 894v 28h 14a 14 14, 0, 0, 0, 0 -28" transform="rotate(90,348,908)"/><path d="M 390 894v 28h 28v -14a 14 14, 0, 0, 0, -14 -14" transform="rotate(180,404,908)"/><rect x="418" y="894" width="28" height="28" transform="rotate(0,432,908)"/><rect x="446" y="894" width="28" height="28" transform="rotate(0,460,908)"/><rect x="474" y="894" width="28" height="28" transform="rotate(0,488,908)"/><rect x="502" y="894" width="28" height="28" transform="rotate(0,516,908)"/><path d="M 558 894v 28h 14a 14 14, 0, 0, 0, 0 -28" transform="rotate(90,572,908)"/><path d="M 642 894v 28h 14a 14 14, 0, 0, 0, 0 -28" transform="rotate(180,656,908)"/><rect x="670" y="894" width="28" height="28" transform="rotate(0,684,908)"/><rect x="782" y="894" width="28" height="28" transform="rotate(0,796,908)"/><rect x="922" y="894" width="28" height="28" transform="rotate(0,936,908)"/><rect x="950" y="894" width="28" height="28" transform="rotate(0,964,908)"/><rect x="978" y="894" width="28" height="28" transform="rotate(0,992,908)"/><rect x="1006" y="894" width="28" height="28" transform="rotate(0,1020,908)"/><path d="M 1062 894v 28h 14a 14 14, 0, 0, 0, 0 -28" transform="rotate(90,1076,908)"/><circle cx="1160" cy="908" r="14" transform="rotate(0,1160,908)"/><path d="M 26 922v 28h 14a 14 14, 0, 0, 0, 0 -28" transform="rotate(90,40,936)"/><path d="M 82 922v 28h 28v -14a 14 14, 0, 0, 0, -14 -14" transform="rotate(180,96,936)"/><path d="M 110 922v 28h 28v -14a 14 14, 0, 0, 0, -14 -14" transform="rotate(90,124,936)"/><path d="M 194 922v 28h 14a 14 14, 0, 0, 0, 0 -28" transform="rotate(180,208,936)"/><rect x="222" y="922" width="28" height="28" transform="rotate(0,236,936)"/><rect x="250" y="922" width="28" height="28" transform="rotate(0,264,936)"/><rect x="278" y="922" width="28" height="28" transform="rotate(0,292,936)"/><path d="M 306 922v 28h 28v -14a 14 14, 0, 0, 0, -14 -14" transform="rotate(0,320,936)"/><circle cx="376" cy="936" r="14" transform="rotate(0,376,936)"/><path d="M 446 922v 28h 28v -14a 14 14, 0, 0, 0, -14 -14" transform="rotate(180,460,936)"/><rect x="474" y="922" width="28" height="28" transform="rotate(0,488,936)"/><rect x="502" y="922" width="28" height="28" transform="rotate(0,516,936)"/><path d="M 530 922v 28h 28v -14a 14 14, 0, 0, 0, -14 -14" transform="rotate(0,544,936)"/><path d="M 614 922v 28h 14a 14 14, 0, 0, 0, 0 -28" transform="rotate(-90,628,936)"/><rect x="670" y="922" width="28" height="28" transform="rotate(0,684,936)"/><rect x="698" y="922" width="28" height="28" transform="rotate(0,712,936)"/><rect x="726" y="922" width="28" height="28" transform="rotate(0,740,936)"/><rect x="754" y="922" width="28" height="28" transform="rotate(0,768,936)"/><path d="M 782 922v 28h 28v -14a 14 14, 0, 0, 0, -14 -14" transform="rotate(90,796,936)"/><path d="M 838 922v 28h 14a 14 14, 0, 0, 0, 0 -28" transform="rotate(-90,852,936)"/><rect x="922" y="922" width="28" height="28" transform="rotate(0,936,936)"/><rect x="950" y="922" width="28" height="28" transform="rotate(0,964,936)"/><rect x="978" y="922" width="28" height="28" transform="rotate(0,992,936)"/><rect x="1006" y="922" width="28" height="28" transform="rotate(0,1020,936)"/><path d="M 1034 922v 28h 28v -14a 14 14, 0, 0, 0, -14 -14" transform="rotate(0,1048,936)"/><path d="M 1090 922v 28h 14a 14 14, 0, 0, 0, 0 -28" transform="rotate(-90,1104,936)"/><rect x="250" y="950" width="28" height="28" transform="rotate(0,264,964)"/><rect x="306" y="950" width="28" height="28" transform="rotate(0,320,964)"/><circle cx="404" cy="964" r="14" transform="rotate(0,404,964)"/><path d="M 502 950v 28h 28v -14a 14 14, 0, 0, 0, -14 -14" transform="rotate(180,516,964)"/><rect x="530" y="950" width="28" height="28" transform="rotate(0,544,964)"/><rect x="558" y="950" width="28" height="28" transform="rotate(0,572,964)"/><rect x="586" y="950" width="28" height="28" transform="rotate(0,600,964)"/><rect x="614" y="950" width="28" height="28" transform="rotate(0,628,964)"/><rect x="642" y="950" width="28" height="28" transform="rotate(0,656,964)"/><path d="M 670 950v 28h 28v -14a 14 14, 0, 0, 0, -14 -14" transform="rotate(90,684,964)"/><path d="M 754 950v 28h 14a 14 14, 0, 0, 0, 0 -28" transform="rotate(90,768,964)"/><path d="M 810 950v 28h 14a 14 14, 0, 0, 0, 0 -28" transform="rotate(180,824,964)"/><rect x="838" y="950" width="28" height="28" transform="rotate(0,852,964)"/><rect x="922" y="950" width="28" height="28" transform="rotate(0,936,964)"/><rect x="1034" y="950" width="28" height="28" transform="rotate(0,1048,964)"/><rect x="1062" y="950" width="28" height="28" transform="rotate(0,1076,964)"/><rect x="1090" y="950" width="28" height="28" transform="rotate(0,1104,964)"/><rect x="1118" y="950" width="28" height="28" transform="rotate(0,1132,964)"/><path d="M 1146 950v 28h 14a 14 14, 0, 0, 0, 0 -28" transform="rotate(0,1160,964)"/><rect x="250" y="978" width="28" height="28" transform="rotate(0,264,992)"/><rect x="278" y="978" width="28" height="28" transform="rotate(0,292,992)"/><rect x="306" y="978" width="28" height="28" transform="rotate(0,320,992)"/><circle cx="376" cy="992" r="14" transform="rotate(0,376,992)"/><path d="M 418 978v 28h 14a 14 14, 0, 0, 0, 0 -28" transform="rotate(180,432,992)"/><rect x="446" y="978" width="28" height="28" transform="rotate(0,460,992)"/><path d="M 474 978v 28h 14a 14 14, 0, 0, 0, 0 -28" transform="rotate(0,488,992)"/><rect x="530" y="978" width="28" height="28" transform="rotate(0,544,992)"/><path d="M 558 978v 28h 28v -14a 14 14, 0, 0, 0, -14 -14" transform="rotate(90,572,992)"/><rect x="614" y="978" width="28" height="28" transform="rotate(0,628,992)"/><rect x="642" y="978" width="28" height="28" transform="rotate(0,656,992)"/><path d="M 698 978v 28h 14a 14 14, 0, 0, 0, 0 -28" transform="rotate(-90,712,992)"/><circle cx="796" cy="992" r="14" transform="rotate(0,796,992)"/><rect x="838" y="978" width="28" height="28" transform="rotate(0,852,992)"/><path d="M 894 978v 28h 28v -14a 14 14, 0, 0, 0, -14 -14" transform="rotate(-90,908,992)"/><rect x="922" y="978" width="28" height="28" transform="rotate(0,936,992)"/><circle cx="992" cy="992" r="14" transform="rotate(0,992,992)"/><rect x="1034" y="978" width="28" height="28" transform="rotate(0,1048,992)"/><rect x="1062" y="978" width="28" height="28" transform="rotate(0,1076,992)"/><path d="M 1118 978v 28h 14a 14 14, 0, 0, 0, 0 -28" transform="rotate(90,1132,992)"/><rect x="250" y="1006" width="28" height="28" transform="rotate(0,264,1020)"/><rect x="278" y="1006" width="28" height="28" transform="rotate(0,292,1020)"/><rect x="306" y="1006" width="28" height="28" transform="rotate(0,320,1020)"/><path d="M 334 1006v 28h 14a 14 14, 0, 0, 0, 0 -28" transform="rotate(0,348,1020)"/><path d="M 390 1006v 28h 14a 14 14, 0, 0, 0, 0 -28" transform="rotate(-90,404,1020)"/><path d="M 446 1006v 28h 14a 14 14, 0, 0, 0, 0 -28" transform="rotate(90,460,1020)"/><rect x="530" y="1006" width="28" height="28" transform="rotate(0,544,1020)"/><path d="M 586 1006v 28h 14a 14 14, 0, 0, 0, 0 -28" transform="rotate(180,600,1020)"/><rect x="614" y="1006" width="28" height="28" transform="rotate(0,628,1020)"/><rect x="642" y="1006" width="28" height="28" transform="rotate(0,656,1020)"/><rect x="670" y="1006" width="28" height="28" transform="rotate(0,684,1020)"/><rect x="698" y="1006" width="28" height="28" transform="rotate(0,712,1020)"/><circle cx="768" cy="1020" r="14" transform="rotate(0,768,1020)"/><path d="M 838 1006v 28h 28v -14a 14 14, 0, 0, 0, -14 -14" transform="rotate(180,852,1020)"/><rect x="866" y="1006" width="28" height="28" transform="rotate(0,880,1020)"/><rect x="894" y="1006" width="28" height="28" transform="rotate(0,908,1020)"/><rect x="922" y="1006" width="28" height="28" transform="rotate(0,936,1020)"/><rect x="1034" y="1006" width="28" height="28" transform="rotate(0,1048,1020)"/><path d="M 1062 1006v 28h 28v -14a 14 14, 0, 0, 0, -14 -14" transform="rotate(90,1076,1020)"/><rect x="250" y="1034" width="28" height="28" transform="rotate(0,264,1048)"/><rect x="278" y="1034" width="28" height="28" transform="rotate(0,292,1048)"/><rect x="306" y="1034" width="28" height="28" transform="rotate(0,320,1048)"/><path d="M 362 1034v 28h 28v -14a 14 14, 0, 0, 0, -14 -14" transform="rotate(-90,376,1048)"/><rect x="390" y="1034" width="28" height="28" transform="rotate(0,404,1048)"/><path d="M 418 1034v 28h 28v -14a 14 14, 0, 0, 0, -14 -14" transform="rotate(0,432,1048)"/><rect x="530" y="1034" width="28" height="28" transform="rotate(0,544,1048)"/><path d="M 558 1034v 28h 14a 14 14, 0, 0, 0, 0 -28" transform="rotate(0,572,1048)"/><path d="M 698 1034v 28h 14a 14 14, 0, 0, 0, 0 -28" transform="rotate(90,712,1048)"/><circle cx="796" cy="1048" r="14" transform="rotate(0,796,1048)"/><path d="M 922 1034v 28h 28v -14a 14 14, 0, 0, 0, -14 -14" transform="rotate(180,936,1048)"/><rect x="950" y="1034" width="28" height="28" transform="rotate(0,964,1048)"/><rect x="978" y="1034" width="28" height="28" transform="rotate(0,992,1048)"/><rect x="1006" y="1034" width="28" height="28" transform="rotate(0,1020,1048)"/><path d="M 1034 1034v 28h 28v -14a 14 14, 0, 0, 0, -14 -14" transform="rotate(90,1048,1048)"/><path d="M 1090 1034v 28h 14a 14 14, 0, 0, 0, 0 -28" transform="rotate(180,1104,1048)"/><rect x="1118" y="1034" width="28" height="28" transform="rotate(0,1132,1048)"/><path d="M 1146 1034v 28h 14a 14 14, 0, 0, 0, 0 -28" transform="rotate(0,1160,1048)"/><rect x="250" y="1062" width="28" height="28" transform="rotate(0,264,1076)"/><rect x="306" y="1062" width="28" height="28" transform="rotate(0,320,1076)"/><path d="M 362 1062v 28h 28v -14a 14 14, 0, 0, 0, -14 -14" transform="rotate(180,376,1076)"/><rect x="390" y="1062" width="28" height="28" transform="rotate(0,404,1076)"/><rect x="418" y="1062" width="28" height="28" transform="rotate(0,432,1076)"/><rect x="446" y="1062" width="28" height="28" transform="rotate(0,460,1076)"/><rect x="474" y="1062" width="28" height="28" transform="rotate(0,488,1076)"/><rect x="502" y="1062" width="28" height="28" transform="rotate(0,516,1076)"/><path d="M 530 1062v 28h 28v -14a 14 14, 0, 0, 0, -14 -14" transform="rotate(90,544,1076)"/><path d="M 642 1062v 28h 28v -14a 14 14, 0, 0, 0, -14 -14" transform="rotate(-90,656,1076)"/><path d="M 670 1062v 28h 14a 14 14, 0, 0, 0, 0 -28" transform="rotate(0,684,1076)"/><path d="M 754 1062v 28h 14a 14 14, 0, 0, 0, 0 -28" transform="rotate(-90,768,1076)"/><path d="M 810 1062v 28h 28v -14a 14 14, 0, 0, 0, -14 -14" transform="rotate(-90,824,1076)"/><rect x="838" y="1062" width="28" height="28" transform="rotate(0,852,1076)"/><rect x="866" y="1062" width="28" height="28" transform="rotate(0,880,1076)"/><path d="M 894 1062v 28h 28v -14a 14 14, 0, 0, 0, -14 -14" transform="rotate(0,908,1076)"/><rect x="950" y="1062" width="28" height="28" transform="rotate(0,964,1076)"/><rect x="1006" y="1062" width="28" height="28" transform="rotate(0,1020,1076)"/><path d="M 1118 1062v 28h 14a 14 14, 0, 0, 0, 0 -28" transform="rotate(90,1132,1076)"/><rect x="250" y="1090" width="28" height="28" transform="rotate(0,264,1104)"/><rect x="278" y="1090" width="28" height="28" transform="rotate(0,292,1104)"/><rect x="306" y="1090" width="28" height="28" transform="rotate(0,320,1104)"/><path d="M 334 1090v 28h 28v -14a 14 14, 0, 0, 0, -14 -14" transform="rotate(0,348,1104)"/><rect x="390" y="1090" width="28" height="28" transform="rotate(0,404,1104)"/><path d="M 474 1090v 28h 14a 14 14, 0, 0, 0, 0 -28" transform="rotate(90,488,1104)"/><path d="M 558 1090v 28h 14a 14 14, 0, 0, 0, 0 -28" transform="rotate(-90,572,1104)"/><path d="M 614 1090v 28h 28v -14a 14 14, 0, 0, 0, -14 -14" transform="rotate(-90,628,1104)"/><path d="M 642 1090v 28h 28v -14a 14 14, 0, 0, 0, -14 -14" transform="rotate(90,656,1104)"/><path d="M 698 1090v 28h 14a 14 14, 0, 0, 0, 0 -28" transform="rotate(180,712,1104)"/><rect x="726" y="1090" width="28" height="28" transform="rotate(0,740,1104)"/><rect x="754" y="1090" width="28" height="28" transform="rotate(0,768,1104)"/><rect x="782" y="1090" width="28" height="28" transform="rotate(0,796,1104)"/><path d="M 810 1090v 28h 28v -14a 14 14, 0, 0, 0, -14 -14" transform="rotate(90,824,1104)"/><rect x="894" y="1090" width="28" height="28" transform="rotate(0,908,1104)"/><rect x="922" y="1090" width="28" height="28" transform="rotate(0,936,1104)"/><rect x="950" y="1090" width="28" height="28" transform="rotate(0,964,1104)"/><rect x="978" y="1090" width="28" height="28" transform="rotate(0,992,1104)"/><rect x="1006" y="1090" width="28" height="28" transform="rotate(0,1020,1104)"/><rect x="1034" y="1090" width="28" height="28" transform="rotate(0,1048,1104)"/><path d="M 1062 1090v 28h 28v -14a 14 14, 0, 0, 0, -14 -14" transform="rotate(0,1076,1104)"/><path d="M 250 1118v 28h 28v -14a 14 14, 0, 0, 0, -14 -14" transform="rotate(180,264,1132)"/><rect x="278" y="1118" width="28" height="28" transform="rotate(0,292,1132)"/><rect x="306" y="1118" width="28" height="28" transform="rotate(0,320,1132)"/><path d="M 334 1118v 28h 28v -14a 14 14, 0, 0, 0, -14 -14" transform="rotate(90,348,1132)"/><path d="M 390 1118v 28h 14a 14 14, 0, 0, 0, 0 -28" transform="rotate(90,404,1132)"/><circle cx="516" cy="1132" r="14" transform="rotate(0,516,1132)"/><path d="M 558 1118v 28h 14a 14 14, 0, 0, 0, 0 -28" transform="rotate(90,572,1132)"/><rect x="614" y="1118" width="28" height="28" transform="rotate(0,628,1132)"/><path d="M 670 1118v 28h 14a 14 14, 0, 0, 0, 0 -28" transform="rotate(-90,684,1132)"/><path d="M 866 1118v 28h 14a 14 14, 0, 0, 0, 0 -28" transform="rotate(180,880,1132)"/><rect x="894" y="1118" width="28" height="28" transform="rotate(0,908,1132)"/><path d="M 922 1118v 28h 28v -14a 14 14, 0, 0, 0, -14 -14" transform="rotate(90,936,1132)"/><rect x="978" y="1118" width="28" height="28" transform="rotate(0,992,1132)"/><rect x="1034" y="1118" width="28" height="28" transform="rotate(0,1048,1132)"/><rect x="1062" y="1118" width="28" height="28" transform="rotate(0,1076,1132)"/><circle cx="1132" cy="1132" r="14" transform="rotate(0,1132,1132)"/><path d="M 278 1146v 28h 28v -14a 14 14, 0, 0, 0, -14 -14" transform="rotate(180,292,1160)"/><path d="M 306 1146v 28h 28v -14a 14 14, 0, 0, 0, -14 -14" transform="rotate(90,320,1160)"/><circle cx="432" cy="1160" r="14" transform="rotate(0,432,1160)"/><circle cx="488" cy="1160" r="14" transform="rotate(0,488,1160)"/><circle cx="544" cy="1160" r="14" transform="rotate(0,544,1160)"/><path d="M 586 1146v 28h 14a 14 14, 0, 0, 0, 0 -28" transform="rotate(180,600,1160)"/><rect x="614" y="1146" width="28" height="28" transform="rotate(0,628,1160)"/><rect x="642" y="1146" width="28" height="28" transform="rotate(0,656,1160)"/><rect x="670" y="1146" width="28" height="28" transform="rotate(0,684,1160)"/><rect x="698" y="1146" width="28" height="28" transform="rotate(0,712,1160)"/><rect x="726" y="1146" width="28" height="28" transform="rotate(0,740,1160)"/><rect x="754" y="1146" width="28" height="28" transform="rotate(0,768,1160)"/><rect x="782" y="1146" width="28" height="28" transform="rotate(0,796,1160)"/><rect x="810" y="1146" width="28" height="28" transform="rotate(0,824,1160)"/><path d="M 838 1146v 28h 14a 14 14, 0, 0, 0, 0 -28" transform="rotate(0,852,1160)"/><path d="M 894 1146v 28h 14a 14 14, 0, 0, 0, 0 -28" transform="rotate(90,908,1160)"/><path d="M 950 1146v 28h 14a 14 14, 0, 0, 0, 0 -28" transform="rotate(180,964,1160)"/><rect x="978" y="1146" width="28" height="28" transform="rotate(0,992,1160)"/><rect x="1006" y="1146" width="28" height="28" transform="rotate(0,1020,1160)"/><rect x="1034" y="1146" width="28" height="28" transform="rotate(0,1048,1160)"/><rect x="1062" y="1146" width="28" height="28" transform="rotate(0,1076,1160)"/><path d="M 1090 1146v 28h 14a 14 14, 0, 0, 0, 0 -28" transform="rotate(0,1104,1160)"/></clipPath><clipPath id="clip-path-corners-square-color-0-0-488"><path clip-rule="evenodd" d="M 26 96v 56a 70 70, 0, 0, 0, 70 70h 56a 70 70, 0, 0, 0, 70 -70v -56a 70 70, 0, 0, 0, -70 -70h -56a 70 70, 0, 0, 0, -70 70M 96 54h 56a 42 42, 0, 0, 1, 42 42v 56a 42 42, 0, 0, 1, -42 42h -56a 42 42, 0, 0, 1, -42 -42v -56a 42 42, 0, 0, 1, 42 -42" transform="rotate(0,124,124)"/></clipPath><clipPath id="clip-path-corners-dot-color-0-0-488"><circle cx="124" cy="124" r="42" transform="rotate(0,124,124)"/></clipPath><clipPath id="clip-path-corners-square-color-1-0-488"><path clip-rule="evenodd" d="M 978 96v 56a 70 70, 0, 0, 0, 70 70h 56a 70 70, 0, 0, 0, 70 -70v -56a 70 70, 0, 0, 0, -70 -70h -56a 70 70, 0, 0, 0, -70 70M 1048 54h 56a 42 42, 0, 0, 1, 42 42v 56a 42 42, 0, 0, 1, -42 42h -56a 42 42, 0, 0, 1, -42 -42v -56a 42 42, 0, 0, 1, 42 -42" transform="rotate(90,1076,124)"/></clipPath><clipPath id="clip-path-corners-dot-color-1-0-488"><circle cx="1076" cy="124" r="42" transform="rotate(90,1076,124)"/></clipPath><clipPath id="clip-path-corners-square-color-0-1-488"><path clip-rule="evenodd" d="M 26 1048v 56a 70 70, 0, 0, 0, 70 70h 56a 70 70, 0, 0, 0, 70 -70v -56a 70 70, 0, 0, 0, -70 -70h -56a 70 70, 0, 0, 0, -70 70M 96 1006h 56a 42 42, 0, 0, 1, 42 42v 56a 42 42, 0, 0, 1, -42 42h -56a 42 42, 0, 0, 1, -42 -42v -56a 42 42, 0, 0, 1, 42 -42" transform="rotate(-90,124,1076)"/></clipPath><clipPath id="clip-path-corners-dot-color-0-1-488"><circle cx="124" cy="1076" r="42" transform="rotate(-90,124,1076)"/></clipPath></defs><rect x="0" y="0" height="1200" width="1200" clip-path="url('#clip-path-background-color-488')" fill="#ffffff"/><rect x="0" y="0" height="1200" width="1200" clip-path="url('#clip-path-dot-color-488')" fill="#000000"/><rect x="26" y="26" height="196" width="196" clip-path="url('#clip-path-corners-square-color-0-0-488')" fill="#000000"/><rect x="82" y="82" height="84" width="84" clip-path="url('#clip-path-corners-dot-color-0-0-488')" fill="#000000"/><rect x="978" y="26" height="196" width="196" clip-path="url('#clip-path-corners-square-color-1-0-488')" fill="#000000"/><rect x="1034" y="82" height="84" width="84" clip-path="url('#clip-path-corners-dot-color-1-0-488')" fill="#000000"/><rect x="26" y="978" height="196" width="196" clip-path="url('#clip-path-corners-square-color-0-1-488')" fill="#000000"/><rect x="82" y="1034" height="84" width="84" clip-path="url('#clip-path-corners-dot-color-0-1-488')" fill="#000000"/></svg>