<?xml version="1.0" standalone="no"?>
<svg xmlns="http://www.w3.org/2000/svg" width="1200" height="1200" xmlns:xlink="http://www.w3.org/1999/xlink" viewBox="0 0 1200 1200"><defs><clipPath id="clip-path-background-color-535"><rect x="0" y="0" width="1200" height="1200"/></clipPath><clipPath id="clip-path-dot-color-535"><path d="M 250 26v 28h 14a 14 14, 0, 0, 0, 0 -28" transform="rotate(180,264,40)"/><rect x="278" y="26" width="28" height="28" transform="rotate(0,292,40)"/><rect x="306" y="26" width="28" height="28" transform="rotate(0,320,40)"/><rect x="334" y="26" width="28" height="28" transform="rotate(0,348,40)"/><rect x="362" y="26" width="28" height="28" transform="rotate(0,376,40)"/><rect x="390" y="26" width="28" height="28" transform="rotate(0,404,40)"/><path d="M 418 26v 28h 14a 14 14, 0, 0, 0, 0 -28" transform="rotate(0,432,40)"/><path d="M 502 26v 28h 28v -14a 14 14, 0, 0, 0, -14 -14" transform="rotate(-90,516,40)"/><rect x="530" y="26" width="28" height="28" transform="rotate(0,544,40)"/><rect x="558" y="26" width="28" height="28" transform="rotate(0,572,40)"/><path d="M 586 26v 28h 28v -14a 14 14, 0, 0, 0, -14 -14" transform="rotate(0,600,40)"/><path d="M 670 26v 28h 14a 14 14, 0, 0, 0, 0 -28" transform="rotate(180,684,40)"/><path d="M 698 26v 28h 28v -14a 14 14, 0, 0, 0, -14 -14" transform="rotate(0,712,40)"/><path d="M 810 26v 28h 28v -14a 14 14, 0, 0, 0, -14 -14" transform="rotate(-90,824,40)"/><rect x="838" y="26" width="28" height="28" transform="rotate(0,852,40)"/><rect x="866" y="26" width="28" height="28" transform="rotate(0,880,40)"/><rect x="894" y="26" width="28" height="28" transform="rotate(0,908,40)"/><path d="M 922 26v 28h 28v -14a 14 14, 0, 0, 0, -14 -14" transform="rotate(0,936,40)"/><path d="M 306 54v 28h 28v -14a 14 14, 0, 0, 0, -14 -14" transform="rotate(180,320,68)"/><rect x="334" y="54" width="28" height="28" transform="rotate(0,348,68)"/><path d="M 362 54v 28h 28v -14a 14 14, 0, 0, 0, -14 -14" transform="rotate(90,376,68)"/><circle cx="460" cy="68" r="14" transform="rotate(0,460,68)"/><rect x="502" y="54" width="28" height="28" transform="rotate(0,516,68)"/><path d="M 558 54v 28h 28v -14a 14 14, 0, 0, 0, -14 -14" transform="rotate(180,572,68)"/><rect x="586" y="54" width="28" height="28" transform="rotate(0,600,68)"/><rect x="614" y="54" width="28" height="28" transform="rotate(0,628,68)"/><path d="M 642 54v 28h 14a 14 14, 0, 0, 0, 0 -28" transform="rotate(0,656,68)"/><rect x="698" y="54" width="28" height="28" transform="rotate(0,712,68)"/><path d="M 782 54v 28h 28v -14a 14 14, 0, 0, 0, -14 -14" transform="rotate(-90,796,68)"/><rect x="810" y="54" width="28" height="28" transform="rotate(0,824,68)"/><rect x="866" y="54" width="28" height="28" transform="rotate(0,880,68)"/><rect x="922" y="54" width="28" height="28" transform="rotate(0,936,68)"/><rect x="334" y="82" width="28" height="28" transform="rotate(0,348,96)"/><circle cx="404" cy="96" r="14" transform="rotate(0,404,96)"/><rect x="502" y="82" width="28" height="28" transform="rotate(0,516,96)"/><path d="M 670 82v 28h 14a 14 14, 0, 0, 0, 0 -28" transform="rotate(180,684,96)"/><path d="M 698 82v 28h 28v -14a 14 14, 0, 0, 0, -14 -14" transform="rotate(90,712,96)"/><path d="M 754 82v 28h 14a 14 14, 0, 0, 0, 0 -28" transform="rotate(180,768,96)"/><rect x="782" y="82" width="28" height="28" transform="rotate(0,796,96)"/><path d="M 810 82v 28h 28v -14a 14 14, 0, 0, 0, -14 -14" transform="rotate(90,824,96)"/><path d="M 866 82v 28h 14a 14 14, 0, 0, 0, 0 -28" transform="rotate(90,880,96)"/><rect x="922" y="82" width="28" height="28" transform="rotate(0,936,96)"/><path d="M 278 110v 28h 14a 14 14, 0, 0, 0, 0 -28" transform="rotate(-90,292,124)"/><rect x="334" y="110" width="28" height="28" transform="rotate(0,348,124)"/><path d="M 362 110v 28h 14a 14 14, 0, 0, 0, 0 -28" transform="rotate(0,376,124)"/><circle cx="432" cy="124" r="14" transform="rotate(0,432,124)"/><path d="M 502 110v 28h 14a 14 14, 0, 0, 0, 0 -28" transform="rotate(90,516,124)"/><path d="M 558 110v 28h 14a 14 14, 0, 0, 0, 0 -28" transform="rotate(-90,572,124)"/><path d="M 614 110v 28h 14a 14 14, 0, 0, 0, 0 -28" transform="rotate(-90,628,124)"/><circle cx="852" cy="124" r="14" transform="rotate(0,852,124)"/><path d="M 894 110v 28h 28v -14a 14 14, 0, 0, 0, -14 -14" transform="rotate(-90,908,124)"/><rect x="922" y="110" width="28" height="28" transform="rotate(0,936,124)"/><path d="M 250 138v 28h 28v -14a 14 14, 0, 0, 0, -14 -14" transform="rotate(-90,264,152)"/><rect x="278" y="138" width="28" height="28" transform="rotate(0,292,152)"/><path d="M 334 138v 28h 14a 14 14, 0, 0, 0, 0 -28" transform="rotate(90,348,152)"/><path d="M 390 138v 28h 14a 14 14, 0, 0, 0, 0 -28" transform="rotate(-90,404,152)"/><path d="M 474 138v 28h 14a 14 14, 0, 0, 0, 0 -28" transform="rotate(-90,488,152)"/><rect x="558" y="138" width="28" height="28" transform="rotate(0,572,152)"/><rect x="586" y="138" width="28" height="28" transform="rotate(0,600,152)"/><rect x="614" y="138" width="28" height="28" transform="rotate(0,628,152)"/><rect x="642" y="138" width="28" height="28" transform="rotate(0,656,152)"/><rect x="670" y="138" width="28" height="28" transform="rotate(0,684,152)"/><path d="M 698 138v 28h 28v -14a 14 14, 0, 0, 0, -14 -14" transform="rotate(0,712,152)"/><circle cx="768" cy="152" r="14" transform="rotate(0,768,152)"/><circle cx="824" cy="152" r="14" transform="rotate(0,824,152)"/><path d="M 866 138v 28h 28v -14a 14 14, 0, 0, 0, -14 -14" transform="rotate(-90,880,152)"/><rect x="894" y="138" width="28" height="28" transform="rotate(0,908,152)"/><rect x="922" y="138" width="28" height="28" transform="rotate(0,936,152)"/><rect x="250" y="166" width="28" height="28" transform="rotate(0,264,180)"/><path d="M 278 166v 28h 28v -14a 14 14, 0, 0, 0, -14 -14" transform="rotate(90,292,180)"/><path d="M 362 166v 28h 28v -14a 14 14, 0, 0, 0, -14 -14" transform="rotate(-90,376,180)"/><path d="M 390 166v 28h 28v -14a 14 14, 0, 0, 0, -14 -14" transform="rotate(90,404,180)"/><path d="M 446 166v 28h 14a 14 14, 0, 0, 0, 0 -28" transform="rotate(180,460,180)"/><rect x="474" y="166" width="28" height="28" transform="rotate(0,488,180)"/><path d="M 502 166v 28h 14a 14 14, 0, 0, 0, 0 -28" transform="rotate(0,516,180)"/><path d="M 558 166v 28h 14a 14 14, 0, 0, 0, 0 -28" transform="rotate(90,572,180)"/><path d="M 614 166v 28h 28v -14a 14 14, 0, 0, 0, -14 -14" transform="rotate(180,628,180)"/><rect x="642" y="166" width="28" height="28" transform="rotate(0,656,180)"/><rect x="670" y="166" width="28" height="28" transform="rotate(0,684,180)"/><rect x="698" y="166" width="28" height="28" transform="rotate(0,712,180)"/><path d="M 726 166v 28h 14a 14 14, 0, 0, 0, 0 -28" transform="rotate(0,740,180)"/><circle cx="796" cy="180" r="14" transform="rotate(0,796,180)"/><path d="M 838 166v 28h 14a 14 14, 0, 0, 0, 0 -28" transform="rotate(180,852,180)"/><rect x="866" y="166" width="28" height="28" transform="rotate(0,880,180)"/><rect x="922" y="166" width="28" height="28" transform="rotate(0,936,180)"/><path d="M 250 194v 28h 14a 14 14, 0, 0, 0, 0 -28" transform="rotate(90,264,208)"/><path d="M 306 194v 28h 14a 14 14, 0, 0, 0, 0 -28" transform="rotate(-90,320,208)"/><path d="M 362 194v 28h 14a 14 14, 0, 0, 0, 0 -28" transform="rotate(90,376,208)"/><circle cx="432" cy="208" r="14" transform="rotate(0,432,208)"/><rect x="474" y="194" width="28" height="28" transform="rotate(0,488,208)"/><circle cx="544" cy="208" r="14" transform="rotate(0,544,208)"/><circle cx="600" cy="208" r="14" transform="rotate(0,600,208)"/><path d="M 642 194v 28h 14a 14 14, 0, 0, 0, 0 -28" transform="rotate(90,656,208)"/><rect x="698" y="194" width="28" height="28" transform="rotate(0,712,208)"/><circle cx="768" cy="208" r="14" transform="rotate(0,768,208)"/><circle cx="824" cy="208" r="14" transform="rotate(0,824,208)"/><path d="M 866 194v 28h 14a 14 14, 0, 0, 0, 0 -28" transform="rotate(90,880,208)"/><rect x="922" y="194" width="28" height="28" transform="rotate(0,936,208)"/><rect x="306" y="222" width="28" height="28" transform="rotate(0,320,236)"/><path d="M 334 222v 28h 28v -14a 14 14, 0, 0, 0, -14 -14" transform="rotate(0,348,236)"/><path d="M 446 222v 28h 14a 14 14, 0, 0, 0, 0 -28" transform="rotate(180,460,236)"/><rect x="474" y="222" width="28" height="28" transform="rotate(0,488,236)"/><path d="M 502 222v 28h 14a 14 14, 0, 0, 0, 0 -28" transform="rotate(0,516,236)"/><path d="M 558 222v 28h 14a 14 14, 0, 0, 0, 0 -28" transform="rotate(-90,572,236)"/><path d="M 670 222v 28h 14a 14 14, 0, 0, 0, 0 -28" transform="rotate(180,684,236)"/><path d="M 698 222v 28h 28v -14a 14 14, 0, 0, 0, -14 -14" transform="rotate(90,712,236)"/><path d="M 922 222v 28h 14a 14 14, 0, 0, 0, 0 -28" transform="rotate(90,936,236)"/><path d="M 54 250v 28h 28v -14a 14 14, 0, 0, 0, -14 -14" transform="rotate(-90,68,264)"/><rect x="82" y="250" width="28" height="28" transform="rotate(0,96,264)"/><rect x="110" y="250" width="28" height="28" transform="rotate(0,124,264)"/><rect x="138" y="250" width="28" height="28" transform="rotate(0,152,264)"/><rect x="166" y="250" width="28" height="28" transform="rotate(0,180,264)"/><rect x="194" y="250" width="28" height="28" transform="rotate(0,208,264)"/><path d="M 222 250v 28h 28v -14a 14 14, 0, 0, 0, -14 -14" transform="rotate(0,236,264)"/><path d="M 278 250v 28h 28v -14a 14 14, 0, 0, 0, -14 -14" transform="rotate(-90,292,264)"/><rect x="306" y="250" width="28" height="28" transform="rotate(0,320,264)"/><rect x="334" y="250" width="28" height="28" transform="rotate(0,348,264)"/><rect x="362" y="250" width="28" height="28" transform="rotate(0,376,264)"/><rect x="390" y="250" width="28" height="28" transform="rotate(0,404,264)"/><path d="M 418 250v 28h 14a 14 14, 0, 0, 0, 0 -28" transform="rotate(0,432,264)"/><path d="M 474 250v 28h 14a 14 14, 0, 0, 0, 0 -28" transform="rotate(90,488,264)"/><rect x="558" y="250" width="28" height="28" transform="rotate(0,572,264)"/><circle cx="628" cy="264" r="14" transform="rotate(0,628,264)"/><path d="M 726 250v 28h 14a 14 14, 0, 0, 0, 0 -28" transform="rotate(180,740,264)"/><rect x="754" y="250" width="28" height="28" transform="rotate(0,768,264)"/><rect x="782" y="250" width="28" height="28" transform="rotate(0,796,264)"/><rect x="810" y="250" width="28" height="28" transform="rotate(0,824,264)"/><path d="M 838 250v 28h 14a 14 14, 0, 0, 0, 0 -28" transform="rotate(0,852,264)"/><path d="M 1006 250v 28h 28v -14a 14 14, 0, 0, 0, -14 -14" transform="rotate(-90,1020,264)"/><path d="M 1034 250v 28h 28v -14a 14 14, 0, 0, 0, -14 -14" transform="rotate(0,1048,264)"/><path d="M 1146 250v 28h 14a 14 14, 0, 0, 0, 0 -28" transform="rotate(-90,1160,264)"/><rect x="54" y="278" width="28" height="28" transform="rotate(0,68,292)"/><path d="M 166 278v 28h 14a 14 14, 0, 0, 0, 0 -28" transform="rotate(90,180,292)"/><rect x="222" y="278" width="28" height="28" transform="rotate(0,236,292)"/><rect x="250" y="278" width="28" height="28" transform="rotate(0,264,292)"/><rect x="278" y="278" width="28" height="28" transform="rotate(0,292,292)"/><path d="M 334 278v 28h 14a 14 14, 0, 0, 0, 0 -28" transform="rotate(90,348,292)"/><rect x="390" y="278" width="28" height="28" transform="rotate(0,404,292)"/><circle cx="460" cy="292" r="14" transform="rotate(0,460,292)"/><circle cx="516" cy="292" r="14" transform="rotate(0,516,292)"/><rect x="558" y="278" width="28" height="28" transform="rotate(0,572,292)"/><path d="M 586 278v 28h 28v -14a 14 14, 0, 0, 0, -14 -14" transform="rotate(0,600,292)"/><path d="M 642 278v 28h 14a 14 14, 0, 0, 0, 0 -28" transform="rotate(180,656,292)"/><path d="M 670 278v 28h 14a 14 14, 0, 0, 0, 0 -28" transform="rotate(0,684,292)"/><rect x="810" y="278" width="28" height="28" transform="rotate(0,824,292)"/><path d="M 894 278v 28h 14a 14 14, 0, 0, 0, 0 -28" transform="rotate(180,908,292)"/><rect x="922" y="278" width="28" height="28" transform="rotate(0,936,292)"/><rect x="950" y="278" width="28" height="28" transform="rotate(0,964,292)"/><rect x="978" y="278" width="28" height="28" transform="rotate(0,992,292)"/><rect x="1006" y="278" width="28" height="28" transform="rotate(0,1020,292)"/><rect x="1034" y="278" width="28" height="28" transform="rotate(0,1048,292)"/><circle cx="1104" cy="292" r="14" transform="rotate(0,1104,292)"/><path d="M 1146 278v 28h 14a 14 14, 0, 0, 0, 0 -28" transform="rotate(90,1160,292)"/><path d="M 54 306v 28h 14a 14 14, 0, 0, 0, 0 -28" transform="rotate(90,68,320)"/><path d="M 138 306v 28h 14a 14 14, 0, 0, 0, 0 -28" transform="rotate(-90,152,320)"/><path d="M 194 306v 28h 14a 14 14, 0, 0, 0, 0 -28" transform="rotate(180,208,320)"/><rect x="222" y="306" width="28" height="28" transform="rotate(0,236,320)"/><rect x="278" y="306" width="28" height="28" transform="rotate(0,292,320)"/><path d="M 306 306v 28h 14a 14 14, 0, 0, 0, 0 -28" transform="rotate(0,320,320)"/><rect x="390" y="306" width="28" height="28" transform="rotate(0,404,320)"/><path d="M 418 306v 28h 28v -14a 14 14, 0, 0, 0, -14 -14" transform="rotate(0,432,320)"/><circle cx="488" cy="320" r="14" transform="rotate(0,488,320)"/><path d="M 558 306v 28h 28v -14a 14 14, 0, 0, 0, -14 -14" transform="rotate(180,572,320)"/><rect x="586" y="306" width="28" height="28" transform="rotate(0,600,320)"/><path d="M 614 306v 28h 14a 14 14, 0, 0, 0, 0 -28" transform="rotate(0,628,320)"/><circle cx="712" cy="320" r="14" transform="rotate(0,712,320)"/><path d="M 754 306v 28h 14a 14 14, 0, 0, 0, 0 -28" transform="rotate(180,768,320)"/><rect x="782" y="306" width="28" height="28" transform="rotate(0,796,320)"/><rect x="810" y="306" width="28" height="28" transform="rotate(0,824,320)"/><rect x="838" y="306" width="28" height="28" transform="rotate(0,852,320)"/><path d="M 866 306v 28h 28v -14a 14 14, 0, 0, 0, -14 -14" transform="rotate(0,880,320)"/><rect x="922" y="306" width="28" height="28" transform="rotate(0,936,320)"/><rect x="1006" y="306" width="28" height="28" transform="rotate(0,1020,320)"/><path d="M 1034 306v 28h 28v -14a 14 14, 0, 0, 0, -14 -14" transform="rotate(90,1048,320)"/><path d="M 82 334v 28h 14a 14 14, 0, 0, 0, 0 -28" transform="rotate(-90,96,348)"/><rect x="138" y="334" width="28" height="28" transform="rotate(0,152,348)"/><path d="M 166 334v 28h 28v -14a 14 14, 0, 0, 0, -14 -14" transform="rotate(0,180,348)"/><path d="M 222 334v 28h 28v -14a 14 14, 0, 0, 0, -14 -14" transform="rotate(180,236,348)"/><rect x="250" y="334" width="28" height="28" transform="rotate(0,264,348)"/><rect x="278" y="334" width="28" height="28" transform="rotate(0,292,348)"/><path d="M 390 334v 28h 28v -14a 14 14, 0, 0, 0, -14 -14" transform="rotate(180,404,348)"/><rect x="418" y="334" width="28" height="28" transform="rotate(0,432,348)"/><path d="M 502 334v 28h 14a 14 14, 0, 0, 0, 0 -28" transform="rotate(180,516,348)"/><path d="M 530 334v 28h 14a 14 14, 0, 0, 0, 0 -28" transform="rotate(0,544,348)"/><rect x="782" y="334" width="28" height="28" transform="rotate(0,796,348)"/><path d="M 810 334v 28h 28v -14a 14 14, 0, 0, 0, -14 -14" transform="rotate(90,824,348)"/><path d="M 866 334v 28h 28v -14a 14 14, 0, 0, 0, -14 -14" transform="rotate(180,880,348)"/><rect x="894" y="334" width="28" height="28" transform="rotate(0,908,348)"/><rect x="922" y="334" width="28" height="28" transform="rotate(0,936,348)"/><path d="M 950 334v 28h 14a 14 14, 0, 0, 0, 0 -28" transform="rotate(0,964,348)"/><path d="M 1006 334v 28h 14a 14 14, 0, 0, 0, 0 -28" transform="rotate(90,1020,348)"/><path d="M 1062 334v 28h 14a 14 14, 0, 0, 0, 0 -28" transform="rotate(-90,1076,348)"/><path d="M 26 362v 28h 28v -14a 14 14, 0, 0, 0, -14 -14" transform="rotate(-90,40,376)"/><rect x="54" y="362" width="28" height="28" transform="rotate(0,68,376)"/><path d="M 82 362v 28h 28v -14a 14 14, 0, 0, 0, -14 -14" transform="rotate(90,96,376)"/><path d="M 138 362v 28h 28v -14a 14 14, 0, 0, 0, -14 -14" transform="rotate(180,152,376)"/><rect x="166" y="362" width="28" height="28" transform="rotate(0,180,376)"/><path d="M 194 362v 28h 14a 14 14, 0, 0, 0, 0 -28" transform="rotate(0,208,376)"/><path d="M 250 362v 28h 28v -14a 14 14, 0, 0, 0, -14 -14" transform="rotate(180,264,376)"/><rect x="278" y="362" width="28" height="28" transform="rotate(0,292,376)"/><path d="M 306 362v 28h 28v -14a 14 14, 0, 0, 0, -14 -14" transform="rotate(0,320,376)"/><path d="M 362 362v 28h 14a 14 14, 0, 0, 0, 0 -28" transform="rotate(-90,376,376)"/><rect x="418" y="362" width="28" height="28" transform="rotate(0,432,376)"/><path d="M 446 362v 28h 14a 14 14, 0, 0, 0, 0 -28" transform="rotate(0,460,376)"/><circle cx="600" cy="376" r="14" transform="rotate(0,600,376)"/><path d="M 642 362v 28h 14a 14 14, 0, 0, 0, 0 -28" transform="rotate(-90,656,376)"/><circle cx="740" cy="376" r="14" transform="rotate(0,740,376)"/><rect x="782" y="362" width="28" height="28" transform="rotate(0,796,376)"/><circle cx="852" cy="376" r="14" transform="rotate(0,852,376)"/><rect x="894" y="362" width="28" height="28" transform="rotate(0,908,376)"/><rect x="922" y="362" width="28" height="28" transform="rotate(0,936,376)"/><path d="M 1062 362v 28h 28v -14a 14 14, 0, 0, 0, -14 -14" transform="rotate(180,1076,376)"/><rect x="1090" y="362" width="28" height="28" transform="rotate(0,1104,376)"/><rect x="1118" y="362" width="28" height="28" transform="rotate(0,1132,376)"/><path d="M 1146 362v 28h 28v -14a 14 14, 0, 0, 0, -14 -14" transform="rotate(0,1160,376)"/><rect x="26" y="390" width="28" height="28" transform="rotate(0,40,404)"/><rect x="54" y="390" width="28" height="28" transform="rotate(0,68,404)"/><path d="M 166 390v 28h 14a 14 14, 0, 0, 0, 0 -28" transform="rotate(90,180,404)"/><rect x="278" y="390" width="28" height="28" transform="rotate(0,292,404)"/><rect x="306" y="390" width="28" height="28" transform="rotate(0,320,404)"/><rect x="334" y="390" width="28" height="28" transform="rotate(0,348,404)"/><rect x="362" y="390" width="28" height="28" transform="rotate(0,376,404)"/><rect x="418" y="390" width="28" height="28" transform="rotate(0,432,404)"/><path d="M 502 390v 28h 28v -14a 14 14, 0, 0, 0, -14 -14" transform="rotate(-90,516,404)"/><rect x="530" y="390" width="28" height="28" transform="rotate(0,544,404)"/><path d="M 558 390v 28h 28v -14a 14 14, 0, 0, 0, -14 -14" transform="rotate(0,572,404)"/><rect x="642" y="390" width="28" height="28" transform="rotate(0,656,404)"/><circle cx="712" cy="404" r="14" transform="rotate(0,712,404)"/><path d="M 782 390v 28h 28v -14a 14 14, 0, 0, 0, -14 -14" transform="rotate(180,796,404)"/><path d="M 810 390v 28h 14a 14 14, 0, 0, 0, 0 -28" transform="rotate(0,824,404)"/><path d="M 894 390v 28h 28v -14a 14 14, 0, 0, 0, -14 -14" transform="rotate(180,908,404)"/><rect x="922" y="390" width="28" height="28" transform="rotate(0,936,404)"/><rect x="950" y="390" width="28" height="28" transform="rotate(0,964,404)"/><rect x="978" y="390" width="28" height="28" transform="rotate(0,992,404)"/><rect x="1006" y="390" width="28" height="28" transform="rotate(0,1020,404)"/><path d="M 1034 390v 28h 14a 14 14, 0, 0, 0, 0 -28" transform="rotate(0,1048,404)"/><path d="M 1118 390v 28h 28v -14a 14 14, 0, 0, 0, -14 -14" transform="rotate(180,1132,404)"/><path d="M 1146 390v 28h 28v -14a 14 14, 0, 0, 0, -14 -14" transform="rotate(90,1160,404)"/><rect x="26" y="418" width="28" height="28" transform="rotate(0,40,432)"/><rect x="54" y="418" width="28" height="28" transform="rotate(0,68,432)"/><rect x="82" y="418" width="28" height="28" transform="rotate(0,96,432)"/><rect x="110" y="418" width="28" height="28" transform="rotate(0,124,432)"/><path d="M 138 418v 28h 28v -14a 14 14, 0, 0, 0, -14 -14" transform="rotate(0,152,432)"/><path d="M 194 418v 28h 14a 14 14, 0, 0, 0, 0 -28" transform="rotate(180,208,432)"/><rect x="222" y="418" width="28" height="28" transform="rotate(0,236,432)"/><rect x="250" y="418" width="28" height="28" transform="rotate(0,264,432)"/><rect x="278" y="418" width="28" height="28" transform="rotate(0,292,432)"/><rect x="306" y="418" width="28" height="28" transform="rotate(0,320,432)"/><rect x="334" y="418" width="28" height="28" transform="rotate(0,348,432)"/><rect x="362" y="418" width="28" height="28" transform="rotate(0,376,432)"/><rect x="390" y="418" width="28" height="28" transform="rotate(0,404,432)"/><rect x="418" y="418" width="28" height="28" transform="rotate(0,432,432)"/><path d="M 446 418v 28h 28v -14a 14 14, 0, 0, 0, -14 -14" transform="rotate(0,460,432)"/><path d="M 502 418v 28h 14a 14 14, 0, 0, 0, 0 -28" transform="rotate(90,516,432)"/><path d="M 558 418v 28h 28v -14a 14 14, 0, 0, 0, -14 -14" transform="rotate(180,572,432)"/><path d="M 586 418v 28h 28v -14a 14 14, 0, 0, 0, -14 -14" transform="rotate(0,600,432)"/><path d="M 642 418v 28h 14a 14 14, 0, 0, 0, 0 -28" transform="rotate(90,656,432)"/><circle cx="740" cy="432" r="14" transform="rotate(0,740,432)"/><circle cx="852" cy="432" r="14" transform="rotate(0,852,432)"/><rect x="922" y="418" width="28" height="28" transform="rotate(0,936,432)"/><path d="M 950 418v 28h 28v -14a 14 14, 0, 0, 0, -14 -14" transform="rotate(90,964,432)"/><rect x="1006" y="418" width="28" height="28" transform="rotate(0,1020,432)"/><path d="M 1062 418v 28h 28v -14a 14 14, 0, 0, 0, -14 -14" transform="rotate(-90,1076,432)"/><path d="M 1090 418v 28h 14a 14 14, 0, 0, 0, 0 -28" transform="rotate(0,1104,432)"/><path d="M 26 446v 28h 28v -14a 14 14, 0, 0, 0, -14 -14" transform="rotate(180,40,460)"/><rect x="54" y="446" width="28" height="28" transform="rotate(0,68,460)"/><rect x="138" y="446" width="28" height="28" transform="rotate(0,152,460)"/><rect x="222" y="446" width="28" height="28" transform="rotate(0,236,460)"/><rect x="250" y="446" width="28" height="28" transform="rotate(0,264,460)"/><rect x="278" y="446" width="28" height="28" transform="rotate(0,292,460)"/><rect x="306" y="446" width="28" height="28" transform="rotate(0,320,460)"/><path d="M 390 446v 28h 14a 14 14, 0, 0, 0, 0 -28" transform="rotate(90,404,460)"/><path d="M 446 446v 28h 14a 14 14, 0, 0, 0, 0 -28" transform="rotate(90,460,460)"/><path d="M 530 446v 28h 14a 14 14, 0, 0, 0, 0 -28" transform="rotate(-90,544,460)"/><path d="M 586 446v 28h 14a 14 14, 0, 0, 0, 0 -28" transform="rotate(90,600,460)"/><path d="M 698 446v 28h 14a 14 14, 0, 0, 0, 0 -28" transform="rotate(-90,712,460)"/><circle cx="824" cy="460" r="14" transform="rotate(0,824,460)"/><circle cx="880" cy="460" r="14" transform="rotate(0,880,460)"/><path d="M 922 446v 28h 14a 14 14, 0, 0, 0, 0 -28" transform="rotate(90,936,460)"/><path d="M 978 446v 28h 14a 14 14, 0, 0, 0, 0 -28" transform="rotate(180,992,460)"/><rect x="1006" y="446" width="28" height="28" transform="rotate(0,1020,460)"/><path d="M 1062 446v 28h 14a 14 14, 0, 0, 0, 0 -28" transform="rotate(90,1076,460)"/><path d="M 1118 446v 28h 14a 14 14, 0, 0, 0, 0 -28" transform="rotate(180,1132,460)"/><path d="M 1146 446v 28h 28v -14a 14 14, 0, 0, 0, -14 -14" transform="rotate(0,1160,460)"/><path d="M 54 474v 28h 28v -14a 14 14, 0, 0, 0, -14 -14" transform="rotate(180,68,488)"/><path d="M 82 474v 28h 28v -14a 14 14, 0, 0, 0, -14 -14" transform="rotate(0,96,488)"/><path d="M 138 474v 28h 14a 14 14, 0, 0, 0, 0 -28" transform="rotate(90,152,488)"/><path d="M 194 474v 28h 14a 14 14, 0, 0, 0, 0 -28" transform="rotate(180,208,488)"/><path d="M 222 474v 28h 28v -14a 14 14, 0, 0, 0, -14 -14" transform="rotate(90,236,488)"/><path d="M 306 474v 28h 28v -14a 14 14, 0, 0, 0, -14 -14" transform="rotate(180,320,488)"/><rect x="334" y="474" width="28" height="28" transform="rotate(0,348,488)"/><path d="M 362 474v 28h 14a 14 14, 0, 0, 0, 0 -28" transform="rotate(0,376,488)"/><path d="M 474 474v 28h 14a 14 14, 0, 0, 0, 0 -28" transform="rotate(180,488,488)"/><rect x="502" y="474" width="28" height="28" transform="rotate(0,516,488)"/><path d="M 530 474v 28h 28v -14a 14 14, 0, 0, 0, -14 -14" transform="rotate(90,544,488)"/><path d="M 614 474v 28h 14a 14 14, 0, 0, 0, 0 -28" transform="rotate(180,628,488)"/><path d="M 642 474v 28h 14a 14 14, 0, 0, 0, 0 -28" transform="rotate(0,656,488)"/><path d="M 698 474v 28h 28v -14a 14 14, 0, 0, 0, -14 -14" transform="rotate(180,712,488)"/><rect x="726" y="474" width="28" height="28" transform="rotate(0,740,488)"/><path d="M 754 474v 28h 14a 14 14, 0, 0, 0, 0 -28" transform="rotate(0,768,488)"/><circle cx="852" cy="488" r="14" transform="rotate(0,852,488)"/><circle cx="964" cy="488" r="14" transform="rotate(0,964,488)"/><rect x="1006" y="474" width="28" height="28" transform="rotate(0,1020,488)"/><circle cx="1104" cy="488" r="14" transform="rotate(0,1104,488)"/><rect x="1146" y="474" width="28" height="28" transform="rotate(0,1160,488)"/><path d="M 82 502v 28h 28v -14a 14 14, 0, 0, 0, -14 -14" transform="rotate(180,96,516)"/><path d="M 110 502v 28h 14a 14 14, 0, 0, 0, 0 -28" transform="rotate(0,124,516)"/><circle cx="432" cy="516" r="14" transform="rotate(0,432,516)"/><circle cx="684" cy="516" r="14" transform="rotate(0,684,516)"/><rect x="726" y="502" width="28" height="28" transform="rotate(0,740,516)"/><path d="M 866 502v 28h 14a 14 14, 0, 0, 0, 0 -28" transform="rotate(180,880,516)"/><path d="M 894 502v 28h 14a 14 14, 0, 0, 0, 0 -28" transform="rotate(0,908,516)"/><path d="M 978 502v 28h 28v -14a 14 14, 0, 0, 0, -14 -14" transform="rotate(-90,992,516)"/><rect x="1006" y="502" width="28" height="28" transform="rotate(0,1020,516)"/><rect x="1034" y="502" width="28" height="28" transform="rotate(0,1048,516)"/><path d="M 1062 502v 28h 28v -14a 14 14, 0, 0, 0, -14 -14" transform="rotate(0,1076,516)"/><path d="M 1118 502v 28h 14a 14 14, 0, 0, 0, 0 -28" transform="rotate(180,1132,516)"/><path d="M 1146 502v 28h 28v -14a 14 14, 0, 0, 0, -14 -14" transform="rotate(90,1160,516)"/><path d="M 26 530v 28h 28v -14a 14 14, 0, 0, 0, -14 -14" transform="rotate(-90,40,544)"/><path d="M 54 530v 28h 28v -14a 14 14, 0, 0, 0, -14 -14" transform="rotate(0,68,544)"/><circle cx="208" cy="544" r="14" transform="rotate(0,208,544)"/><circle cx="264" cy="544" r="14" transform="rotate(0,264,544)"/><circle cx="320" cy="544" r="14" transform="rotate(0,320,544)"/><circle cx="376" cy="544" r="14" transform="rotate(0,376,544)"/><path d="M 502 530v 28h 28v -14a 14 14, 0, 0, 0, -14 -14" transform="rotate(-90,516,544)"/><rect x="530" y="530" width="28" height="28" transform="rotate(0,544,544)"/><path d="M 558 530v 28h 14a 14 14, 0, 0, 0, 0 -28" transform="rotate(0,572,544)"/><path d="M 642 530v 28h 14a 14 14, 0, 0, 0, 0 -28" transform="rotate(-90,656,544)"/><rect x="726" y="530" width="28" height="28" transform="rotate(0,740,544)"/><rect x="754" y="530" width="28" height="28" transform="rotate(0,768,544)"/><path d="M 782 530v 28h 14a 14 14, 0, 0, 0, 0 -28" transform="rotate(0,796,544)"/><path d="M 950 530v 28h 14a 14 14, 0, 0, 0, 0 -28" transform="rotate(180,964,544)"/><path d="M 978 530v 28h 28v -14a 14 14, 0, 0, 0, -14 -14" transform="rotate(90,992,544)"/><rect x="1034" y="530" width="28" height="28" transform="rotate(0,1048,544)"/><rect x="1062" y="530" width="28" height="28" transform="rotate(0,1076,544)"/><rect x="26" y="558" width="28" height="28" transform="rotate(0,40,572)"/><rect x="54" y="558" width="28" height="28" transform="rotate(0,68,572)"/><circle cx="124" cy="572" r="14" transform="rotate(0,124,572)"/><circle cx="180" cy="572" r="14" transform="rotate(0,180,572)"/><circle cx="236" cy="572" r="14" transform="rotate(0,236,572)"/><path d="M 390 558v 28h 28v -14a 14 14, 0, 0, 0, -14 -14" transform="rotate(-90,404,572)"/><rect x="418" y="558" width="28" height="28" transform="rotate(0,432,572)"/><rect x="446" y="558" width="28" height="28" transform="rotate(0,460,572)"/><rect x="474" y="558" width="28" height="28" transform="rotate(0,488,572)"/><rect x="502" y="558" width="28" height="28" transform="rotate(0,516,572)"/><rect x="530" y="558" width="28" height="28" transform="rotate(0,544,572)"/><rect x="642" y="558" width="28" height="28" transform="rotate(0,656,572)"/><rect x="670" y="558" width="28" height="28" transform="rotate(0,684,572)"/><rect x="698" y="558" width="28" height="28" transform="rotate(0,712,572)"/><path d="M 726 558v 28h 28v -14a 14 14, 0, 0, 0, -14 -14" transform="rotate(90,740,572)"/><circle cx="936" cy="572" r="14" transform="rotate(0,936,572)"/><path d="M 1034 558v 28h 28v -14a 14 14, 0, 0, 0, -14 -14" transform="rotate(180,1048,572)"/><path d="M 1062 558v 28h 28v -14a 14 14, 0, 0, 0, -14 -14" transform="rotate(90,1076,572)"/><path d="M 1118 558v 28h 14a 14 14, 0, 0, 0, 0 -28" transform="rotate(180,1132,572)"/><path d="M 1146 558v 28h 28v -14a 14 14, 0, 0, 0, -14 -14" transform="rotate(0,1160,572)"/><path d="M 26 586v 28h 28v -14a 14 14, 0, 0, 0, -14 -14" transform="rotate(180,40,600)"/><rect x="54" y="586" width="28" height="28" transform="rotate(0,68,600)"/><circle cx="152" cy="600" r="14" transform="rotate(0,152,600)"/><circle cx="208" cy="600" r="14" transform="rotate(0,208,600)"/><path d="M 306 586v 28h 28v -14a 14 14, 0, 0, 0, -14 -14" transform="rotate(-90,320,600)"/><rect x="334" y="586" width="28" height="28" transform="rotate(0,348,600)"/><rect x="362" y="586" width="28" height="28" transform="rotate(0,376,600)"/><rect x="390" y="586" width="28" height="28" transform="rotate(0,404,600)"/><rect x="474" y="586" width="28" height="28" transform="rotate(0,488,600)"/><rect x="502" y="586" width="28" height="28" transform="rotate(0,516,600)"/><path d="M 530 586v 28h 28v -14a 14 14, 0, 0, 0, -14 -14" transform="rotate(90,544,600)"/><path d="M 586 586v 28h 14a 14 14, 0, 0, 0, 0 -28" transform="rotate(-90,600,600)"/><rect x="642" y="586" width="28" height="28" transform="rotate(0,656,600)"/><path d="M 698 586v 28h 14a 14 14, 0, 0, 0, 0 -28" transform="rotate(90,712,600)"/><path d="M 754 586v 28h 14a 14 14, 0, 0, 0, 0 -28" transform="rotate(180,768,600)"/><rect x="782" y="586" width="28" height="28" transform="rotate(0,796,600)"/><path d="M 810 586v 28h 28v -14a 14 14, 0, 0, 0, -14 -14" transform="rotate(0,824,600)"/><path d="M 866 586v 28h 14a 14 14, 0, 0, 0, 0 -28" transform="rotate(-90,880,600)"/><circle cx="1104" cy="600" r="14" transform="rotate(0,1104,600)"/><rect x="1146" y="586" width="28" height="28" transform="rotate(0,1160,600)"/><rect x="54" y="614" width="28" height="28" transform="rotate(0,68,628)"/><path d="M 166 614v 28h 14a 14 14, 0, 0, 0, 0 -28" transform="rotate(-90,180,628)"/><path d="M 250 614v 28h 14a 14 14, 0, 0, 0, 0 -28" transform="rotate(180,264,628)"/><rect x="278" y="614" width="28" height="28" transform="rotate(0,292,628)"/><rect x="306" y="614" width="28" height="28" transform="rotate(0,320,628)"/><path d="M 334 614v 28h 28v -14a 14 14, 0, 0, 0, -14 -14" transform="rotate(90,348,628)"/><path d="M 390 614v 28h 14a 14 14, 0, 0, 0, 0 -28" transform="rotate(90,404,628)"/><rect x="474" y="614" width="28" height="28" transform="rotate(0,488,628)"/><path d="M 558 614v 28h 14a 14 14, 0, 0, 0, 0 -28" transform="rotate(180,572,628)"/><rect x="586" y="614" width="28" height="28" transform="rotate(0,600,628)"/><rect x="614" y="614" width="28" height="28" transform="rotate(0,628,628)"/><rect x="642" y="614" width="28" height="28" transform="rotate(0,656,628)"/><path d="M 670 614v 28h 14a 14 14, 0, 0, 0, 0 -28" transform="rotate(0,684,628)"/><rect x="810" y="614" width="28" height="28" transform="rotate(0,824,628)"/><path d="M 866 614v 28h 28v -14a 14 14, 0, 0, 0, -14 -14" transform="rotate(180,880,628)"/><rect x="894" y="614" width="28" height="28" transform="rotate(0,908,628)"/><rect x="922" y="614" width="28" height="28" transform="rotate(0,936,628)"/><rect x="950" y="614" width="28" height="28" transform="rotate(0,964,628)"/><rect x="978" y="614" width="28" height="28" transform="rotate(0,992,628)"/><rect x="1006" y="614" width="28" height="28" transform="rotate(0,1020,628)"/><path d="M 1034 614v 28h 28v -14a 14 14, 0, 0, 0, -14 -14" transform="rotate(0,1048,628)"/><path d="M 1118 614v 28h 14a 14 14, 0, 0, 0, 0 -28" transform="rotate(180,1132,628)"/><path d="M 1146 614v 28h 28v -14a 14 14, 0, 0, 0, -14 -14" transform="rotate(90,1160,628)"/><path d="M 26 642v 28h 14a 14 14, 0, 0, 0, 0 -28" transform="rotate(180,40,656)"/><path d="M 54 642v 28h 28v -14a 14 14, 0, 0, 0, -14 -14" transform="rotate(90,68,656)"/><path d="M 138 642v 28h 28v -14a 14 14, 0, 0, 0, -14 -14" transform="rotate(-90,152,656)"/><rect x="166" y="642" width="28" height="28" transform="rotate(0,180,656)"/><path d="M 194 642v 28h 14a 14 14, 0, 0, 0, 0 -28" transform="rotate(0,208,656)"/><path d="M 278 642v 28h 14a 14 14, 0, 0, 0, 0 -28" transform="rotate(90,292,656)"/><path d="M 362 642v 28h 14a 14 14, 0, 0, 0, 0 -28" transform="rotate(-90,376,656)"/><path d="M 446 642v 28h 14a 14 14, 0, 0, 0, 0 -28" transform="rotate(180,460,656)"/><rect x="474" y="642" width="28" height="28" transform="rotate(0,488,656)"/><path d="M 502 642v 28h 28v -14a 14 14, 0, 0, 0, -14 -14" transform="rotate(0,516,656)"/><path d="M 642 642v 28h 14a 14 14, 0, 0, 0, 0 -28" transform="rotate(90,656,656)"/><path d="M 698 642v 28h 14a 14 14, 0, 0, 0, 0 -28" transform="rotate(-90,712,656)"/><path d="M 754 642v 28h 28v -14a 14 14, 0, 0, 0, -14 -14" transform="rotate(-90,768,656)"/><rect x="782" y="642" width="28" height="28" transform="rotate(0,796,656)"/><path d="M 810 642v 28h 28v -14a 14 14, 0, 0, 0, -14 -14" transform="rotate(90,824,656)"/><path d="M 922 642v 28h 28v -14a 14 14, 0, 0, 0, -14 -14" transform="rotate(180,936,656)"/><path d="M 950 642v 28h 28v -14a 14 14, 0, 0, 0, -14 -14" transform="rotate(90,964,656)"/><rect x="1006" y="642" width="28" height="28" transform="rotate(0,1020,656)"/><path d="M 1034 642v 28h 28v -14a 14 14, 0, 0, 0, -14 -14" transform="rotate(90,1048,656)"/><path d="M 82 670v 28h 28v -14a 14 14, 0, 0, 0, -14 -14" transform="rotate(-90,96,684)"/><rect x="110" y="670" width="28" height="28" transform="rotate(0,124,684)"/><rect x="138" y="670" width="28" height="28" transform="rotate(0,152,684)"/><path d="M 166 670v 28h 28v -14a 14 14, 0, 0, 0, -14 -14" transform="rotate(90,180,684)"/><path d="M 222 670v 28h 14a 14 14, 0, 0, 0, 0 -28" transform="rotate(180,236,684)"/><path d="M 250 670v 28h 14a 14 14, 0, 0, 0, 0 -28" transform="rotate(0,264,684)"/><circle cx="320" cy="684" r="14" transform="rotate(0,320,684)"/><path d="M 362 670v 28h 28v -14a 14 14, 0, 0, 0, -14 -14" transform="rotate(180,376,684)"/><rect x="390" y="670" width="28" height="28" transform="rotate(0,404,684)"/><path d="M 418 670v 28h 28v -14a 14 14, 0, 0, 0, -14 -14" transform="rotate(0,432,684)"/><path d="M 474 670v 28h 28v -14a 14 14, 0, 0, 0, -14 -14" transform="rotate(180,488,684)"/><path d="M 502 670v 28h 28v -14a 14 14, 0, 0, 0, -14 -14" transform="rotate(90,516,684)"/><path d="M 586 670v 28h 14a 14 14, 0, 0, 0, 0 -28" transform="rotate(180,600,684)"/><path d="M 614 670v 28h 14a 14 14, 0, 0, 0, 0 -28" transform="rotate(0,628,684)"/><path d="M 698 670v 28h 14a 14 14, 0, 0, 0, 0 -28" transform="rotate(90,712,684)"/><rect x="754" y="670" width="28" height="28" transform="rotate(0,768,684)"/><rect x="782" y="670" width="28" height="28" transform="rotate(0,796,684)"/><circle cx="908" cy="684" r="14" transform="rotate(0,908,684)"/><path d="M 1006 670v 28h 14a 14 14, 0, 0, 0, 0 -28" transform="rotate(90,1020,684)"/><path d="M 1062 670v 28h 14a 14 14, 0, 0, 0, 0 -28" transform="rotate(-90,1076,684)"/><path d="M 1118 670v 28h 28v -14a 14 14, 0, 0, 0, -14 -14" transform="rotate(-90,1132,684)"/><path d="M 1146 670v 28h 14a 14 14, 0, 0, 0, 0 -28" transform="rotate(0,1160,684)"/><circle cx="40" cy="712" r="14" transform="rotate(0,40,712)"/><path d="M 82 698v 28h 28v -14a 14 14, 0, 0, 0, -14 -14" transform="rotate(180,96,712)"/><path d="M 110 698v 28h 28v -14a 14 14, 0, 0, 0, -14 -14" transform="rotate(90,124,712)"/><circle cx="208" cy="712" r="14" transform="rotate(0,208,712)"/><path d="M 390 698v 28h 28v -14a 14 14, 0, 0, 0, -14 -14" transform="rotate(180,404,712)"/><path d="M 418 698v 28h 28v -14a 14 14, 0, 0, 0, -14 -14" transform="rotate(90,432,712)"/><path d="M 530 698v 28h 14a 14 14, 0, 0, 0, 0 -28" transform="rotate(-90,544,712)"/><path d="M 642 698v 28h 28v -14a 14 14, 0, 0, 0, -14 -14" transform="rotate(-90,656,712)"/><path d="M 670 698v 28h 28v -14a 14 14, 0, 0, 0, -14 -14" transform="rotate(0,684,712)"/><path d="M 726 698v 28h 28v -14a 14 14, 0, 0, 0, -14 -14" transform="rotate(-90,740,712)"/><rect x="754" y="698" width="28" height="28" transform="rotate(0,768,712)"/><rect x="782" y="698" width="28" height="28" transform="rotate(0,796,712)"/><rect x="810" y="698" width="28" height="28" transform="rotate(0,824,712)"/><path d="M 838 698v 28h 14a 14 14, 0, 0, 0, 0 -28" transform="rotate(0,852,712)"/><rect x="1062" y="698" width="28" height="28" transform="rotate(0,1076,712)"/><rect x="1090" y="698" width="28" height="28" transform="rotate(0,1104,712)"/><rect x="1118" y="698" width="28" height="28" transform="rotate(0,1132,712)"/><circle cx="68" cy="740" r="14" transform="rotate(0,68,740)"/><path d="M 222 726v 28h 28v -14a 14 14, 0, 0, 0, -14 -14" transform="rotate(-90,236,740)"/><path d="M 250 726v 28h 28v -14a 14 14, 0, 0, 0, -14 -14" transform="rotate(0,264,740)"/><path d="M 306 726v 28h 14a 14 14, 0, 0, 0, 0 -28" transform="rotate(180,320,740)"/><rect x="334" y="726" width="28" height="28" transform="rotate(0,348,740)"/><path d="M 362 726v 28h 28v -14a 14 14, 0, 0, 0, -14 -14" transform="rotate(0,376,740)"/><circle cx="488" cy="740" r="14" transform="rotate(0,488,740)"/><path d="M 530 726v 28h 14a 14 14, 0, 0, 0, 0 -28" transform="rotate(90,544,740)"/><circle cx="600" cy="740" r="14" transform="rotate(0,600,740)"/><rect x="642" y="726" width="28" height="28" transform="rotate(0,656,740)"/><path d="M 670 726v 28h 28v -14a 14 14, 0, 0, 0, -14 -14" transform="rotate(90,684,740)"/><path d="M 726 726v 28h 14a 14 14, 0, 0, 0, 0 -28" transform="rotate(90,740,740)"/><path d="M 810 726v 28h 14a 14 14, 0, 0, 0, 0 -28" transform="rotate(90,824,740)"/><path d="M 866 726v 28h 14a 14 14, 0, 0, 0, 0 -28" transform="rotate(180,880,740)"/><path d="M 894 726v 28h 14a 14 14, 0, 0, 0, 0 -28" transform="rotate(0,908,740)"/><path d="M 950 726v 28h 14a 14 14, 0, 0, 0, 0 -28" transform="rotate(180,964,740)"/><path d="M 978 726v 28h 14a 14 14, 0, 0, 0, 0 -28" transform="rotate(0,992,740)"/><path d="M 1034 726v 28h 14a 14 14, 0, 0, 0, 0 -28" transform="rotate(180,1048,740)"/><path d="M 1062 726v 28h 28v -14a 14 14, 0, 0, 0, -14 -14" transform="rotate(90,1076,740)"/><path d="M 1118 726v 28h 28v -14a 14 14, 0, 0, 0, -14 -14" transform="rotate(180,1132,740)"/><path d="M 1146 726v 28h 14a 14 14, 0, 0, 0, 0 -28" transform="rotate(0,1160,740)"/><path d="M 82 754v 28h 14a 14 14, 0, 0, 0, 0 -28" transform="rotate(180,96,768)"/><path d="M 110 754v 28h 14a 14 14, 0, 0, 0, 0 -28" transform="rotate(0,124,768)"/><path d="M 166 754v 28h 14a 14 14, 0, 0, 0, 0 -28" transform="rotate(180,180,768)"/><rect x="194" y="754" width="28" height="28" transform="rotate(0,208,768)"/><rect x="222" y="754" width="28" height="28" transform="rotate(0,236,768)"/><rect x="250" y="754" width="28" height="28" transform="rotate(0,264,768)"/><path d="M 278 754v 28h 28v -14a 14 14, 0, 0, 0, -14 -14" transform="rotate(0,292,768)"/><rect x="362" y="754" width="28" height="28" transform="rotate(0,376,768)"/><circle cx="460" cy="768" r="14" transform="rotate(0,460,768)"/><path d="M 614 754v 28h 14a 14 14, 0, 0, 0, 0 -28" transform="rotate(180,628,768)"/><rect x="642" y="754" width="28" height="28" transform="rotate(0,656,768)"/><circle cx="712" cy="768" r="14" transform="rotate(0,712,768)"/><path d="M 754 754v 28h 28v -14a 14 14, 0, 0, 0, -14 -14" transform="rotate(-90,768,768)"/><path d="M 782 754v 28h 28v -14a 14 14, 0, 0, 0, -14 -14" transform="rotate(0,796,768)"/><path d="M 922 754v 28h 14a 14 14, 0, 0, 0, 0 -28" transform="rotate(-90,936,768)"/><circle cx="1020" cy="768" r="14" transform="rotate(0,1020,768)"/><path d="M 26 782v 28h 14a 14 14, 0, 0, 0, 0 -28" transform="rotate(180,40,796)"/><path d="M 54 782v 28h 28v -14a 14 14, 0, 0, 0, -14 -14" transform="rotate(0,68,796)"/><circle cx="152" cy="796" r="14" transform="rotate(0,152,796)"/><rect x="278" y="782" width="28" height="28" transform="rotate(0,292,796)"/><path d="M 362 782v 28h 28v -14a 14 14, 0, 0, 0, -14 -14" transform="rotate(180,376,796)"/><rect x="390" y="782" width="28" height="28" transform="rotate(0,404,796)"/><path d="M 418 782v 28h 28v -14a 14 14, 0, 0, 0, -14 -14" transform="rotate(0,432,796)"/><path d="M 502 782v 28h 14a 14 14, 0, 0, 0, 0 -28" transform="rotate(-90,516,796)"/><path d="M 558 782v 28h 28v -14a 14 14, 0, 0, 0, -14 -14" transform="rotate(-90,572,796)"/><path d="M 586 782v 28h 28v -14a 14 14, 0, 0, 0, -14 -14" transform="rotate(0,600,796)"/><rect x="642" y="782" width="28" height="28" transform="rotate(0,656,796)"/><rect x="754" y="782" width="28" height="28" transform="rotate(0,768,796)"/><rect x="782" y="782" width="28" height="28" transform="rotate(0,796,796)"/><path d="M 810 782v 28h 28v -14a 14 14, 0, 0, 0, -14 -14" transform="rotate(0,824,796)"/><path d="M 866 782v 28h 14a 14 14, 0, 0, 0, 0 -28" transform="rotate(180,880,796)"/><rect x="894" y="782" width="28" height="28" transform="rotate(0,908,796)"/><rect x="922" y="782" width="28" height="28" transform="rotate(0,936,796)"/><path d="M 1034 782v 28h 14a 14 14, 0, 0, 0, 0 -28" transform="rotate(180,1048,796)"/><path d="M 1062 782v 28h 28v -14a 14 14, 0, 0, 0, -14 -14" transform="rotate(0,1076,796)"/><circle cx="1132" cy="796" r="14" transform="rotate(0,1132,796)"/><rect x="54" y="810" width="28" height="28" transform="rotate(0,68,824)"/><path d="M 110 810v 28h 14a 14 14, 0, 0, 0, 0 -28" transform="rotate(-90,124,824)"/><path d="M 194 810v 28h 14a 14 14, 0, 0, 0, 0 -28" transform="rotate(180,208,824)"/><path d="M 222 810v 28h 14a 14 14, 0, 0, 0, 0 -28" transform="rotate(0,236,824)"/><path d="M 278 810v 28h 14a 14 14, 0, 0, 0, 0 -28" transform="rotate(90,292,824)"/><rect x="390" y="810" width="28" height="28" transform="rotate(0,404,824)"/><rect x="418" y="810" width="28" height="28" transform="rotate(0,432,824)"/><rect x="502" y="810" width="28" height="28" transform="rotate(0,516,824)"/><rect x="558" y="810" width="28" height="28" transform="rotate(0,572,824)"/><rect x="586" y="810" width="28" height="28" transform="rotate(0,600,824)"/><rect x="614" y="810" width="28" height="28" transform="rotate(0,628,824)"/><rect x="642" y="810" width="28" height="28" transform="rotate(0,656,824)"/><rect x="670" y="810" width="28" height="28" transform="rotate(0,684,824)"/><rect x="698" y="810" width="28" height="28" transform="rotate(0,712,824)"/><rect x="726" y="810" width="28" height="28" transform="rotate(0,740,824)"/><rect x="754" y="810" width="28" height="28" transform="rotate(0,768,824)"/><rect x="782" y="810" width="28" height="28" transform="rotate(0,796,824)"/><rect x="810" y="810" width="28" height="28" transform="rotate(0,824,824)"/><path d="M 838 810v 28h 14a 14 14, 0, 0, 0, 0 -28" transform="rotate(0,852,824)"/><rect x="894" y="810" width="28" height="28" transform="rotate(0,908,824)"/><rect x="922" y="810" width="28" height="28" transform="rotate(0,936,824)"/><rect x="1062" y="810" width="28" height="28" transform="rotate(0,1076,824)"/><path d="M 1090 810v 28h 28v -14a 14 14, 0, 0, 0, -14 -14" transform="rotate(0,1104,824)"/><path d="M 1146 810v 28h 14a 14 14, 0, 0, 0, 0 -28" transform="rotate(-90,1160,824)"/><path d="M 26 838v 28h 28v -14a 14 14, 0, 0, 0, -14 -14" transform="rotate(-90,40,852)"/><rect x="54" y="838" width="28" height="28" transform="rotate(0,68,852)"/><rect x="82" y="838" width="28" height="28" transform="rotate(0,96,852)"/><rect x="110" y="838" width="28" height="28" transform="rotate(0,124,852)"/><path d="M 166 838v 28h 14a 14 14, 0, 0, 0, 0 -28" transform="rotate(-90,180,852)"/><circle cx="264" cy="852" r="14" transform="rotate(0,264,852)"/><path d="M 334 838v 28h 14a 14 14, 0, 0, 0, 0 -28" transform="rotate(180,348,852)"/><rect x="362" y="838" width="28" height="28" transform="rotate(0,376,852)"/><rect x="390" y="838" width="28" height="28" transform="rotate(0,404,852)"/><rect x="418" y="838" width="28" height="28" transform="rotate(0,432,852)"/><path d="M 474 838v 28h 28v -14a 14 14, 0, 0, 0, -14 -14" transform="rotate(-90,488,852)"/><rect x="502" y="838" width="28" height="28" transform="rotate(0,516,852)"/><path d="M 558 838v 28h 28v -14a 14 14, 0, 0, 0, -14 -14" transform="rotate(180,572,852)"/><rect x="586" y="838" width="28" height="28" transform="rotate(0,600,852)"/><path d="M 642 838v 28h 14a 14 14, 0, 0, 0, 0 -28" transform="rotate(90,656,852)"/><path d="M 754 838v 28h 28v -14a 14 14, 0, 0, 0, -14 -14" transform="rotate(180,768,852)"/><rect x="782" y="838" width="28" height="28" transform="rotate(0,796,852)"/><path d="M 866 838v 28h 14a 14 14, 0, 0, 0, 0 -28" transform="rotate(180,880,852)"/><rect x="894" y="838" width="28" height="28" transform="rotate(0,908,852)"/><rect x="922" y="838" width="28" height="28" transform="rotate(0,936,852)"/><rect x="950" y="838" width="28" height="28" transform="rotate(0,964,852)"/><path d="M 978 838v 28h 28v -14a 14 14, 0, 0, 0, -14 -14" transform="rotate(0,992,852)"/><path d="M 1034 838v 28h 28v -14a 14 14, 0, 0, 0, -14 -14" transform="rotate(-90,1048,852)"/><rect x="1062" y="838" width="28" height="28" transform="rotate(0,1076,852)"/><rect x="1090" y="838" width="28" height="28" transform="rotate(0,1104,852)"/><rect x="1118" y="838" width="28" height="28" transform="rotate(0,1132,852)"/><path d="M 1146 838v 28h 28v -14a 14 14, 0, 0, 0, -14 -14" transform="rotate(90,1160,852)"/><rect x="26" y="866" width="28" height="28" transform="rotate(0,40,880)"/><path d="M 110 866v 28h 14a 14 14, 0, 0, 0, 0 -28" transform="rotate(90,124,880)"/><path d="M 166 866v 28h 28v -14a 14 14, 0, 0, 0, -14 -14" transform="rotate(180,180,880)"/><rect x="194" y="866" width="28" height="28" transform="rotate(0,208,880)"/><path d="M 222 866v 28h 28v -14a 14 14, 0, 0, 0, -14 -14" transform="rotate(0,236,880)"/><path d="M 306 866v 28h 14a 14 14, 0, 0, 0, 0 -28" transform="rotate(-90,320,880)"/><rect x="418" y="866" width="28" height="28" transform="rotate(0,432,880)"/><rect x="474" y="866" width="28" height="28" transform="rotate(0,488,880)"/><rect x="502" y="866" width="28" height="28" transform="rotate(0,516,880)"/><path d="M 530 866v 28h 14a 14 14, 0, 0, 0, 0 -28" transform="rotate(0,544,880)"/><rect x="586" y="866" width="28" height="28" transform="rotate(0,600,880)"/><path d="M 614 866v 28h 14a 14 14, 0, 0, 0, 0 -28" transform="rotate(0,628,880)"/><path d="M 670 866v 28h 28v -14a 14 14, 0, 0, 0, -14 -14" transform="rotate(-90,684,880)"/><path d="M 698 866v 28h 14a 14 14, 0, 0, 0, 0 -28" transform="rotate(0,712,880)"/><rect x="782" y="866" width="28" height="28" transform="rotate(0,796,880)"/><path d="M 810 866v 28h 14a 14 14, 0, 0, 0, 0 -28" transform="rotate(0,824,880)"/><rect x="950" y="866" width="28" height="28" transform="rotate(0,964,880)"/><rect x="978" y="866" width="28" height="28" transform="rotate(0,992,880)"/><rect x="1006" y="866" width="28" height="28" transform="rotate(0,1020,880)"/><rect x="1034" y="866" width="28" height="28" transform="rotate(0,1048,880)"/><rect x="1062" y="866" width="28" height="28" transform="rotate(0,1076,880)"/><path d="M 1090 866v 28h 28v -14a 14 14, 0, 0, 0, -14 -14" transform="rotate(90,1104,880)"/><rect x="26" y="894" width="28" height="28" transform="rotate(0,40,908)"/><circle cx="152" cy="908" r="14" transform="rotate(0,152,908)"/><rect x="222" y="894" width="28" height="28" transform="rotate(0,236,908)"/><rect x="250" y="894" width="28" height="28" transform="rotate(0,264,908)"/><rect x="278" y="894" width="28" height="28" transform="rotate(0,292,908)"/><rect x="306" y="894" width="28" height="28" transform="rotate(0,320,908)"/><path d="M 390 894v 28h 28v -14a 14 14, 0, 0, 0, -14 -14" transform="rotate(-90,404,908)"/><path d="M 418 894v 28h 28v -14a 14 14, 0, 0, 0, -14 -14" transform="rotate(90,432,908)"/><rect x="474" y="894" width="28" height="28" transform="rotate(0,488,908)"/><path d="M 558 894v 28h 14a 14 14, 0, 0, 0, 0 -28" transform="rotate(180,572,908)"/><path d="M 586 894v 28h 28v -14a 14 14, 0, 0, 0, -14 -14" transform="rotate(90,600,908)"/><path d="M 642 894v 28h 14a 14 14, 0, 0, 0, 0 -28" transform="rotate(180,656,908)"/><rect x="670" y="894" width="28" height="28" transform="rotate(0,684,908)"/><path d="M 754 894v 28h 28v -14a 14 14, 0, 0, 0, -14 -14" transform="rotate(-90,768,908)"/><rect x="782" y="894" width="28" height="28" transform="rotate(0,796,908)"/><path d="M 922 894v 28h 28v -14a 14 14, 0, 0, 0, -14 -14" transform="rotate(-90,936,908)"/><rect x="950" y="894" width="28" height="28" transform="rotate(0,964,908)"/><rect x="978" y="894" width="28" height="28" transform="rotate(0,992,908)"/><rect x="1006" y="894" width="28" height="28" transform="rotate(0,1020,908)"/><path d="M 1062 894v 28h 14a 14 14, 0, 0, 0, 0 -28" transform="rotate(90,1076,908)"/><path d="M 26 922v 28h 14a 14 14, 0, 0, 0, 0 -28" transform="rotate(90,40,936)"/><circle cx="124" cy="936" r="14" transform="rotate(0,124,936)"/><path d="M 194 922v 28h 14a 14 14, 0, 0, 0, 0 -28" transform="rotate(180,208,936)"/><rect x="222" y="922" width="28" height="28" transform="rotate(0,236,936)"/><rect x="250" y="922" width="28" height="28" transform="rotate(0,264,936)"/><rect x="278" y="922" width="28" height="28" transform="rotate(0,292,936)"/><path d="M 306 922v 28h 28v -14a 14 14, 0, 0, 0, -14 -14" transform="rotate(90,320,936)"/><rect x="390" y="922" width="28" height="28" transform="rotate(0,404,936)"/><path d="M 446 922v 28h 28v -14a 14 14, 0, 0, 0, -14 -14" transform="rotate(-90,460,936)"/><path d="M 474 922v 28h 28v -14a 14 14, 0, 0, 0, -14 -14" transform="rotate(90,488,936)"/><rect x="670" y="922" width="28" height="28" transform="rotate(0,684,936)"/><rect x="698" y="922" width="28" height="28" transform="rotate(0,712,936)"/><rect x="726" y="922" width="28" height="28" transform="rotate(0,740,936)"/><rect x="754" y="922" width="28" height="28" transform="rotate(0,768,936)"/><path d="M 782 922v 28h 28v -14a 14 14, 0, 0, 0, -14 -14" transform="rotate(90,796,936)"/><path d="M 838 922v 28h 14a 14 14, 0, 0, 0, 0 -28" transform="rotate(-90,852,936)"/><path d="M 894 922v 28h 14a 14 14, 0, 0, 0, 0 -28" transform="rotate(180,908,936)"/><rect x="922" y="922" width="28" height="28" transform="rotate(0,936,936)"/><rect x="950" y="922" width="28" height="28" transform="rotate(0,964,936)"/><rect x="978" y="922" width="28" height="28" transform="rotate(0,992,936)"/><rect x="1006" y="922" width="28" height="28" transform="rotate(0,1020,936)"/><path d="M 1034 922v 28h 28v -14a 14 14, 0, 0, 0, -14 -14" transform="rotate(0,1048,936)"/><path d="M 1090 922v 28h 14a 14 14, 0, 0, 0, 0 -28" transform="rotate(180,1104,936)"/><rect x="1118" y="922" width="28" height="28" transform="rotate(0,1132,936)"/><path d="M 1146 922v 28h 28v -14a 14 14, 0, 0, 0, -14 -14" transform="rotate(0,1160,936)"/><rect x="250" y="950" width="28" height="28" transform="rotate(0,264,964)"/><path d="M 390 950v 28h 14a 14 14, 0, 0, 0, 0 -28" transform="rotate(90,404,964)"/><rect x="446" y="950" width="28" height="28" transform="rotate(0,460,964)"/><circle cx="544" cy="964" r="14" transform="rotate(0,544,964)"/><circle cx="600" cy="964" r="14" transform="rotate(0,600,964)"/><path d="M 670 950v 28h 14a 14 14, 0, 0, 0, 0 -28" transform="rotate(90,684,964)"/><path d="M 810 950v 28h 14a 14 14, 0, 0, 0, 0 -28" transform="rotate(180,824,964)"/><rect x="838" y="950" width="28" height="28" transform="rotate(0,852,964)"/><rect x="922" y="950" width="28" height="28" transform="rotate(0,936,964)"/><rect x="1034" y="950" width="28" height="28" transform="rotate(0,1048,964)"/><rect x="1118" y="950" width="28" height="28" transform="rotate(0,1132,964)"/><path d="M 1146 950v 28h 28v -14a 14 14, 0, 0, 0, -14 -14" transform="rotate(90,1160,964)"/><rect x="250" y="978" width="28" height="28" transform="rotate(0,264,992)"/><path d="M 278 978v 28h 28v -14a 14 14, 0, 0, 0, -14 -14" transform="rotate(0,292,992)"/><path d="M 334 978v 28h 14a 14 14, 0, 0, 0, 0 -28" transform="rotate(180,348,992)"/><path d="M 362 978v 28h 14a 14 14, 0, 0, 0, 0 -28" transform="rotate(0,376,992)"/><path d="M 446 978v 28h 28v -14a 14 14, 0, 0, 0, -14 -14" transform="rotate(180,460,992)"/><path d="M 474 978v 28h 28v -14a 14 14, 0, 0, 0, -14 -14" transform="rotate(0,488,992)"/><path d="M 642 978v 28h 14a 14 14, 0, 0, 0, 0 -28" transform="rotate(-90,656,992)"/><circle cx="796" cy="992" r="14" transform="rotate(0,796,992)"/><rect x="838" y="978" width="28" height="28" transform="rotate(0,852,992)"/><path d="M 894 978v 28h 28v -14a 14 14, 0, 0, 0, -14 -14" transform="rotate(-90,908,992)"/><rect x="922" y="978" width="28" height="28" transform="rotate(0,936,992)"/><circle cx="992" cy="992" r="14" transform="rotate(0,992,992)"/><rect x="1034" y="978" width="28" height="28" transform="rotate(0,1048,992)"/><path d="M 1062 978v 28h 28v -14a 14 14, 0, 0, 0, -14 -14" transform="rotate(0,1076,992)"/><path d="M 1118 978v 28h 14a 14 14, 0, 0, 0, 0 -28" transform="rotate(90,1132,992)"/><rect x="250" y="1006" width="28" height="28" transform="rotate(0,264,1020)"/><rect x="278" y="1006" width="28" height="28" transform="rotate(0,292,1020)"/><path d="M 306 1006v 28h 28v -14a 14 14, 0, 0, 0, -14 -14" transform="rotate(0,320,1020)"/><path d="M 390 1006v 28h 28v -14a 14 14, 0, 0, 0, -14 -14" transform="rotate(-90,404,1020)"/><path d="M 418 1006v 28h 28v -14a 14 14, 0, 0, 0, -14 -14" transform="rotate(0,432,1020)"/><path d="M 474 1006v 28h 28v -14a 14 14, 0, 0, 0, -14 -14" transform="rotate(180,488,1020)"/><path d="M 502 1006v 28h 28v -14a 14 14, 0, 0, 0, -14 -14" transform="rotate(0,516,1020)"/><path d="M 558 1006v 28h 14a 14 14, 0, 0, 0, 0 -28" transform="rotate(-90,572,1020)"/><path d="M 614 1006v 28h 28v -14a 14 14, 0, 0, 0, -14 -14" transform="rotate(-90,628,1020)"/><rect x="642" y="1006" width="28" height="28" transform="rotate(0,656,1020)"/><path d="M 670 1006v 28h 14a 14 14, 0, 0, 0, 0 -28" transform="rotate(0,684,1020)"/><circle cx="768" cy="1020" r="14" transform="rotate(0,768,1020)"/><path d="M 838 1006v 28h 28v -14a 14 14, 0, 0, 0, -14 -14" transform="rotate(180,852,1020)"/><rect x="866" y="1006" width="28" height="28" transform="rotate(0,880,1020)"/><rect x="894" y="1006" width="28" height="28" transform="rotate(0,908,1020)"/><rect x="922" y="1006" width="28" height="28" transform="rotate(0,936,1020)"/><rect x="1034" y="1006" width="28" height="28" transform="rotate(0,1048,1020)"/><rect x="1062" y="1006" width="28" height="28" transform="rotate(0,1076,1020)"/><rect x="250" y="1034" width="28" height="28" transform="rotate(0,264,1048)"/><path d="M 306 1034v 28h 28v -14a 14 14, 0, 0, 0, -14 -14" transform="rotate(180,320,1048)"/><rect x="334" y="1034" width="28" height="28" transform="rotate(0,348,1048)"/><rect x="362" y="1034" width="28" height="28" transform="rotate(0,376,1048)"/><rect x="390" y="1034" width="28" height="28" transform="rotate(0,404,1048)"/><rect x="418" y="1034" width="28" height="28" transform="rotate(0,432,1048)"/><path d="M 446 1034v 28h 14a 14 14, 0, 0, 0, 0 -28" transform="rotate(0,460,1048)"/><rect x="502" y="1034" width="28" height="28" transform="rotate(0,516,1048)"/><path d="M 558 1034v 28h 14a 14 14, 0, 0, 0, 0 -28" transform="rotate(90,572,1048)"/><path d="M 614 1034v 28h 28v -14a 14 14, 0, 0, 0, -14 -14" transform="rotate(180,628,1048)"/><path d="M 642 1034v 28h 28v -14a 14 14, 0, 0, 0, -14 -14" transform="rotate(90,656,1048)"/><circle cx="712" cy="1048" r="14" transform="rotate(0,712,1048)"/><circle cx="796" cy="1048" r="14" transform="rotate(0,796,1048)"/><rect x="922" y="1034" width="28" height="28" transform="rotate(0,936,1048)"/><rect x="950" y="1034" width="28" height="28" transform="rotate(0,964,1048)"/><rect x="978" y="1034" width="28" height="28" transform="rotate(0,992,1048)"/><rect x="1006" y="1034" width="28" height="28" transform="rotate(0,1020,1048)"/><rect x="1034" y="1034" width="28" height="28" transform="rotate(0,1048,1048)"/><rect x="1062" y="1034" width="28" height="28" transform="rotate(0,1076,1048)"/><rect x="1090" y="1034" width="28" height="28" transform="rotate(0,1104,1048)"/><rect x="1118" y="1034" width="28" height="28" transform="rotate(0,1132,1048)"/><path d="M 1146 1034v 28h 14a 14 14, 0, 0, 0, 0 -28" transform="rotate(0,1160,1048)"/><rect x="250" y="1062" width="28" height="28" transform="rotate(0,264,1076)"/><rect x="390" y="1062" width="28" height="28" transform="rotate(0,404,1076)"/><path d="M 502 1062v 28h 14a 14 14, 0, 0, 0, 0 -28" transform="rotate(90,516,1076)"/><circle cx="600" cy="1076" r="14" transform="rotate(0,600,1076)"/><circle cx="684" cy="1076" r="14" transform="rotate(0,684,1076)"/><path d="M 754 1062v 28h 14a 14 14, 0, 0, 0, 0 -28" transform="rotate(-90,768,1076)"/><path d="M 810 1062v 28h 28v -14a 14 14, 0, 0, 0, -14 -14" transform="rotate(-90,824,1076)"/><rect x="838" y="1062" width="28" height="28" transform="rotate(0,852,1076)"/><path d="M 866 1062v 28h 14a 14 14, 0, 0, 0, 0 -28" transform="rotate(0,880,1076)"/><rect x="922" y="1062" width="28" height="28" transform="rotate(0,936,1076)"/><rect x="950" y="1062" width="28" height="28" transform="rotate(0,964,1076)"/><rect x="1006" y="1062" width="28" height="28" transform="rotate(0,1020,1076)"/><path d="M 1118 1062v 28h 14a 14 14, 0, 0, 0, 0 -28" transform="rotate(90,1132,1076)"/><rect x="250" y="1090" width="28" height="28" transform="rotate(0,264,1104)"/><rect x="278" y="1090" width="28" height="28" transform="rotate(0,292,1104)"/><rect x="306" y="1090" width="28" height="28" transform="rotate(0,320,1104)"/><rect x="334" y="1090" width="28" height="28" transform="rotate(0,348,1104)"/><rect x="362" y="1090" width="28" height="28" transform="rotate(0,376,1104)"/><rect x="390" y="1090" width="28" height="28" transform="rotate(0,404,1104)"/><circle cx="572" cy="1104" r="14" transform="rotate(0,572,1104)"/><path d="M 614 1090v 28h 28v -14a 14 14, 0, 0, 0, -14 -14" transform="rotate(-90,628,1104)"/><path d="M 642 1090v 28h 14a 14 14, 0, 0, 0, 0 -28" transform="rotate(0,656,1104)"/><path d="M 698 1090v 28h 28v -14a 14 14, 0, 0, 0, -14 -14" transform="rotate(-90,712,1104)"/><rect x="726" y="1090" width="28" height="28" transform="rotate(0,740,1104)"/><rect x="754" y="1090" width="28" height="28" transform="rotate(0,768,1104)"/><rect x="782" y="1090" width="28" height="28" transform="rotate(0,796,1104)"/><path d="M 810 1090v 28h 28v -14a 14 14, 0, 0, 0, -14 -14" transform="rotate(90,824,1104)"/><path d="M 894 1090v 28h 28v -14a 14 14, 0, 0, 0, -14 -14" transform="rotate(-90,908,1104)"/><rect x="922" y="1090" width="28" height="28" transform="rotate(0,936,1104)"/><rect x="950" y="1090" width="28" height="28" transform="rotate(0,964,1104)"/><rect x="978" y="1090" width="28" height="28" transform="rotate(0,992,1104)"/><rect x="1006" y="1090" width="28" height="28" transform="rotate(0,1020,1104)"/><rect x="1034" y="1090" width="28" height="28" transform="rotate(0,1048,1104)"/><rect x="1062" y="1090" width="28" height="28" transform="rotate(0,1076,1104)"/><path d="M 1090 1090v 28h 14a 14 14, 0, 0, 0, 0 -28" transform="rotate(0,1104,1104)"/><path d="M 250 1118v 28h 28v -14a 14 14, 0, 0, 0, -14 -14" transform="rotate(180,264,1132)"/><rect x="278" y="1118" width="28" height="28" transform="rotate(0,292,1132)"/><rect x="306" y="1118" width="28" height="28" transform="rotate(0,320,1132)"/><path d="M 390 1118v 28h 14a 14 14, 0, 0, 0, 0 -28" transform="rotate(90,404,1132)"/><path d="M 446 1118v 28h 14a 14 14, 0, 0, 0, 0 -28" transform="rotate(-90,460,1132)"/><circle cx="516" cy="1132" r="14" transform="rotate(0,516,1132)"/><rect x="614" y="1118" width="28" height="28" transform="rotate(0,628,1132)"/><rect x="698" y="1118" width="28" height="28" transform="rotate(0,712,1132)"/><path d="M 866 1118v 28h 14a 14 14, 0, 0, 0, 0 -28" transform="rotate(180,880,1132)"/><rect x="894" y="1118" width="28" height="28" transform="rotate(0,908,1132)"/><path d="M 922 1118v 28h 28v -14a 14 14, 0, 0, 0, -14 -14" transform="rotate(90,936,1132)"/><rect x="978" y="1118" width="28" height="28" transform="rotate(0,992,1132)"/><rect x="1034" y="1118" width="28" height="28" transform="rotate(0,1048,1132)"/><circle cx="1132" cy="1132" r="14" transform="rotate(0,1132,1132)"/><path d="M 278 1146v 28h 28v -14a 14 14, 0, 0, 0, -14 -14" transform="rotate(180,292,1160)"/><rect x="306" y="1146" width="28" height="28" transform="rotate(0,320,1160)"/><path d="M 334 1146v 28h 14a 14 14, 0, 0, 0, 0 -28" transform="rotate(0,348,1160)"/><path d="M 418 1146v 28h 14a 14 14, 0, 0, 0, 0 -28" transform="rotate(180,432,1160)"/><rect x="446" y="1146" width="28" height="28" transform="rotate(0,460,1160)"/><path d="M 474 1146v 28h 14a 14 14, 0, 0, 0, 0 -28" transform="rotate(0,488,1160)"/><path d="M 530 1146v 28h 14a 14 14, 0, 0, 0, 0 -28" transform="rotate(180,544,1160)"/><rect x="558" y="1146" width="28" height="28" transform="rotate(0,572,1160)"/><rect x="586" y="1146" width="28" height="28" transform="rotate(0,600,1160)"/><rect x="614" y="1146" width="28" height="28" transform="rotate(0,628,1160)"/><path d="M 642 1146v 28h 14a 14 14, 0, 0, 0, 0 -28" transform="rotate(0,656,1160)"/><path d="M 698 1146v 28h 28v -14a 14 14, 0, 0, 0, -14 -14" transform="rotate(180,712,1160)"/><rect x="726" y="1146" width="28" height="28" transform="rotate(0,740,1160)"/><rect x="754" y="1146" width="28" height="28" transform="rotate(0,768,1160)"/><rect x="782" y="1146" width="28" height="28" transform="rotate(0,796,1160)"/><rect x="810" y="1146" width="28" height="28" transform="rotate(0,824,1160)"/><path d="M 838 1146v 28h 14a 14 14, 0, 0, 0, 0 -28" transform="rotate(0,852,1160)"/><path d="M 894 1146v 28h 14a 14 14, 0, 0, 0, 0 -28" transform="rotate(90,908,1160)"/><path d="M 950 1146v 28h 14a 14 14, 0, 0, 0, 0 -28" transform="rotate(180,964,1160)"/><rect x="978" y="1146" width="28" height="28" transform="rotate(0,992,1160)"/><rect x="1006" y="1146" width="28" height="28" transform="rotate(0,1020,1160)"/><path d="M 1034 1146v 28h 28v -14a 14 14, 0, 0, 0, -14 -14" transform="rotate(90,1048,1160)"/><circle cx="1104" cy="1160" r="14" transform="rotate(0,1104,1160)"/></clipPath><clipPath id="clip-path-corners-square-color-0-0-535"><path clip-rule="evenodd" d="M 26 96v 56a 70 70, 0, 0, 0, 70 70h 56a 70 70, 0, 0, 0, 70 -70v -56a 70 70, 0, 0, 0, -70 -70h -56a 70 70, 0, 0, 0, -70 70M 96 54h 56a 42 42, 0, 0, 1, 42 42v 56a 42 42, 0, 0, 1, -42 42h -56a 42 42, 0, 0, 1, -42 -42v -56a 42 42, 0, 0, 1, 42 -42" transform="rotate(0,124,124)"/></clipPath><clipPath id="clip-path-corners-dot-color-0-0-535"><circle cx="124" cy="124" r="42" transform="rotate(0,124,124)"/></clipPath><clipPath id="clip-path-corners-square-color-1-0-535"><path clip-rule="evenodd" d="M 978 96v 56a 70 70, 0, 0, 0, 70 70h 56a 70 70, 0, 0, 0, 70 -70v -56a 70 70, 0, 0, 0, -70 -70h -56a 70 70, 0, 0, 0, -70 70M 1048 54h 56a 42 42, 0, 0, 1, 42 42v 56a 42 42, 0, 0, 1, -42 42h -56a 42 42, 0, 0, 1, -42 -42v -56a 42 42, 0, 0, 1, 42 -42" transform="rotate(90,1076,124)"/></clipPath><clipPath id="clip-path-corners-dot-color-1-0-535"><circle cx="1076" cy="124" r="42" transform="rotate(90,1076,124)"/></clipPath><clipPath id="clip-path-corners-square-color-0-1-535"><path clip-rule="evenodd" d="M 26 1048v 56a 70 70, 0, 0, 0, 70 70h 56a 70 70, 0, 0, 0, 70 -70v -56a 70 70, 0, 0, 0, -70 -70h -56a 70 70, 0, 0, 0, -70 70M 96 1006h 56a 42 42, 0, 0, 1, 42 42v 56a 42 42, 0, 0, 1, -42 42h -56a 42 42, 0, 0, 1, -42 -42v -56a 42 42, 0, 0, 1, 42 -42" transform="rotate(-90,124,1076)"/></clipPath><clipPath id="clip-path-corners-dot-color-0-1-535"><circle cx="124" cy="1076" r="42" transform="rotate(-90,124,1076)"/></clipPath></defs><rect x="0" y="0" height="1200" width="1200" clip-path="url('#clip-path-background-color-535')" fill="#ffffff"/><rect x="0" y="0" height="1200" width="1200" clip-path="url('#clip-path-dot-color-535')" fill="#000000"/><rect x="26" y="26" height="196" width="196" clip-path="url('#clip-path-corners-square-color-0-0-535')" fill="#000000"/><rect x="82" y="82" height="84" width="84" clip-path="url('#clip-path-corners-dot-color-0-0-535')" fill="#000000"/><rect x="978" y="26" height="196" width="196" clip-path="url('#clip-path-corners-square-color-1-0-535')" fill="#000000"/><rect x="1034" y="82" height="84" width="84" clip-path="url('#clip-path-corners-dot-color-1-0-535')" fill="#000000"/><rect x="26" y="978" height="196" width="196" clip-path="url('#clip-path-corners-square-color-0-1-535')" fill="#000000"/><rect x="82" y="1034" height="84" width="84" clip-path="url('#clip-path-corners-dot-color-0-1-535')" fill="#000000"/></svg>