<?xml version="1.0" standalone="no"?>
<svg xmlns="http://www.w3.org/2000/svg" width="1200" height="1200" xmlns:xlink="http://www.w3.org/1999/xlink" viewBox="0 0 1200 1200"><defs><clipPath id="clip-path-background-color-542"><rect x="0" y="0" width="1200" height="1200"/></clipPath><clipPath id="clip-path-dot-color-542"><path d="M 306 26v 28h 28v -14a 14 14, 0, 0, 0, -14 -14" transform="rotate(-90,320,40)"/><path d="M 334 26v 28h 14a 14 14, 0, 0, 0, 0 -28" transform="rotate(0,348,40)"/><circle cx="404" cy="40" r="14" transform="rotate(0,404,40)"/><path d="M 558 26v 28h 14a 14 14, 0, 0, 0, 0 -28" transform="rotate(-90,572,40)"/><path d="M 642 26v 28h 28v -14a 14 14, 0, 0, 0, -14 -14" transform="rotate(-90,656,40)"/><rect x="670" y="26" width="28" height="28" transform="rotate(0,684,40)"/><rect x="698" y="26" width="28" height="28" transform="rotate(0,712,40)"/><path d="M 726 26v 28h 28v -14a 14 14, 0, 0, 0, -14 -14" transform="rotate(0,740,40)"/><path d="M 782 26v 28h 14a 14 14, 0, 0, 0, 0 -28" transform="rotate(180,796,40)"/><rect x="810" y="26" width="28" height="28" transform="rotate(0,824,40)"/><rect x="838" y="26" width="28" height="28" transform="rotate(0,852,40)"/><path d="M 866 26v 28h 14a 14 14, 0, 0, 0, 0 -28" transform="rotate(0,880,40)"/><rect x="306" y="54" width="28" height="28" transform="rotate(0,320,68)"/><path d="M 362 54v 28h 14a 14 14, 0, 0, 0, 0 -28" transform="rotate(-90,376,68)"/><path d="M 418 54v 28h 28v -14a 14 14, 0, 0, 0, -14 -14" transform="rotate(-90,432,68)"/><rect x="446" y="54" width="28" height="28" transform="rotate(0,460,68)"/><path d="M 474 54v 28h 14a 14 14, 0, 0, 0, 0 -28" transform="rotate(0,488,68)"/><path d="M 558 54v 28h 28v -14a 14 14, 0, 0, 0, -14 -14" transform="rotate(180,572,68)"/><path d="M 586 54v 28h 28v -14a 14 14, 0, 0, 0, -14 -14" transform="rotate(0,600,68)"/><path d="M 642 54v 28h 28v -14a 14 14, 0, 0, 0, -14 -14" transform="rotate(180,656,68)"/><rect x="670" y="54" width="28" height="28" transform="rotate(0,684,68)"/><rect x="698" y="54" width="28" height="28" transform="rotate(0,712,68)"/><rect x="726" y="54" width="28" height="28" transform="rotate(0,740,68)"/><path d="M 754 54v 28h 28v -14a 14 14, 0, 0, 0, -14 -14" transform="rotate(0,768,68)"/><path d="M 810 54v 28h 28v -14a 14 14, 0, 0, 0, -14 -14" transform="rotate(180,824,68)"/><path d="M 838 54v 28h 28v -14a 14 14, 0, 0, 0, -14 -14" transform="rotate(90,852,68)"/><circle cx="908" cy="68" r="14" transform="rotate(0,908,68)"/><circle cx="264" cy="96" r="14" transform="rotate(0,264,96)"/><rect x="306" y="82" width="28" height="28" transform="rotate(0,320,96)"/><path d="M 362 82v 28h 28v -14a 14 14, 0, 0, 0, -14 -14" transform="rotate(180,376,96)"/><rect x="390" y="82" width="28" height="28" transform="rotate(0,404,96)"/><rect x="418" y="82" width="28" height="28" transform="rotate(0,432,96)"/><path d="M 446 82v 28h 28v -14a 14 14, 0, 0, 0, -14 -14" transform="rotate(90,460,96)"/><circle cx="516" cy="96" r="14" transform="rotate(0,516,96)"/><path d="M 586 82v 28h 14a 14 14, 0, 0, 0, 0 -28" transform="rotate(90,600,96)"/><path d="M 754 82v 28h 28v -14a 14 14, 0, 0, 0, -14 -14" transform="rotate(180,768,96)"/><path d="M 782 82v 28h 14a 14 14, 0, 0, 0, 0 -28" transform="rotate(0,796,96)"/><path d="M 922 82v 28h 14a 14 14, 0, 0, 0, 0 -28" transform="rotate(-90,936,96)"/><path d="M 278 110v 28h 28v -14a 14 14, 0, 0, 0, -14 -14" transform="rotate(-90,292,124)"/><path d="M 306 110v 28h 28v -14a 14 14, 0, 0, 0, -14 -14" transform="rotate(90,320,124)"/><rect x="390" y="110" width="28" height="28" transform="rotate(0,404,124)"/><path d="M 418 110v 28h 28v -14a 14 14, 0, 0, 0, -14 -14" transform="rotate(90,432,124)"/><path d="M 474 110v 28h 14a 14 14, 0, 0, 0, 0 -28" transform="rotate(-90,488,124)"/><path d="M 530 110v 28h 14a 14 14, 0, 0, 0, 0 -28" transform="rotate(-90,544,124)"/><path d="M 614 110v 28h 14a 14 14, 0, 0, 0, 0 -28" transform="rotate(180,628,124)"/><rect x="642" y="110" width="28" height="28" transform="rotate(0,656,124)"/><rect x="670" y="110" width="28" height="28" transform="rotate(0,684,124)"/><path d="M 698 110v 28h 28v -14a 14 14, 0, 0, 0, -14 -14" transform="rotate(0,712,124)"/><path d="M 810 110v 28h 28v -14a 14 14, 0, 0, 0, -14 -14" transform="rotate(-90,824,124)"/><rect x="838" y="110" width="28" height="28" transform="rotate(0,852,124)"/><rect x="866" y="110" width="28" height="28" transform="rotate(0,880,124)"/><rect x="894" y="110" width="28" height="28" transform="rotate(0,908,124)"/><path d="M 922 110v 28h 28v -14a 14 14, 0, 0, 0, -14 -14" transform="rotate(90,936,124)"/><path d="M 250 138v 28h 28v -14a 14 14, 0, 0, 0, -14 -14" transform="rotate(-90,264,152)"/><path d="M 278 138v 28h 28v -14a 14 14, 0, 0, 0, -14 -14" transform="rotate(90,292,152)"/><circle cx="348" cy="152" r="14" transform="rotate(0,348,152)"/><rect x="390" y="138" width="28" height="28" transform="rotate(0,404,152)"/><path d="M 446 138v 28h 14a 14 14, 0, 0, 0, 0 -28" transform="rotate(180,460,152)"/><rect x="474" y="138" width="28" height="28" transform="rotate(0,488,152)"/><rect x="530" y="138" width="28" height="28" transform="rotate(0,544,152)"/><rect x="670" y="138" width="28" height="28" transform="rotate(0,684,152)"/><rect x="698" y="138" width="28" height="28" transform="rotate(0,712,152)"/><path d="M 726 138v 28h 14a 14 14, 0, 0, 0, 0 -28" transform="rotate(0,740,152)"/><path d="M 782 138v 28h 14a 14 14, 0, 0, 0, 0 -28" transform="rotate(180,796,152)"/><path d="M 810 138v 28h 28v -14a 14 14, 0, 0, 0, -14 -14" transform="rotate(90,824,152)"/><rect x="866" y="138" width="28" height="28" transform="rotate(0,880,152)"/><rect x="250" y="166" width="28" height="28" transform="rotate(0,264,180)"/><path d="M 306 166v 28h 14a 14 14, 0, 0, 0, 0 -28" transform="rotate(-90,320,180)"/><path d="M 362 166v 28h 28v -14a 14 14, 0, 0, 0, -14 -14" transform="rotate(-90,376,180)"/><rect x="390" y="166" width="28" height="28" transform="rotate(0,404,180)"/><path d="M 418 166v 28h 28v -14a 14 14, 0, 0, 0, -14 -14" transform="rotate(0,432,180)"/><rect x="474" y="166" width="28" height="28" transform="rotate(0,488,180)"/><rect x="502" y="166" width="28" height="28" transform="rotate(0,516,180)"/><rect x="530" y="166" width="28" height="28" transform="rotate(0,544,180)"/><path d="M 586 166v 28h 28v -14a 14 14, 0, 0, 0, -14 -14" transform="rotate(-90,600,180)"/><path d="M 614 166v 28h 14a 14 14, 0, 0, 0, 0 -28" transform="rotate(0,628,180)"/><path d="M 670 166v 28h 28v -14a 14 14, 0, 0, 0, -14 -14" transform="rotate(180,684,180)"/><rect x="698" y="166" width="28" height="28" transform="rotate(0,712,180)"/><path d="M 754 166v 28h 14a 14 14, 0, 0, 0, 0 -28" transform="rotate(-90,768,180)"/><path d="M 838 166v 28h 14a 14 14, 0, 0, 0, 0 -28" transform="rotate(180,852,180)"/><rect x="866" y="166" width="28" height="28" transform="rotate(0,880,180)"/><path d="M 894 166v 28h 14a 14 14, 0, 0, 0, 0 -28" transform="rotate(0,908,180)"/><path d="M 250 194v 28h 14a 14 14, 0, 0, 0, 0 -28" transform="rotate(90,264,208)"/><path d="M 306 194v 28h 14a 14 14, 0, 0, 0, 0 -28" transform="rotate(90,320,208)"/><rect x="362" y="194" width="28" height="28" transform="rotate(0,376,208)"/><path d="M 418 194v 28h 14a 14 14, 0, 0, 0, 0 -28" transform="rotate(90,432,208)"/><path d="M 474 194v 28h 14a 14 14, 0, 0, 0, 0 -28" transform="rotate(90,488,208)"/><path d="M 530 194v 28h 14a 14 14, 0, 0, 0, 0 -28" transform="rotate(90,544,208)"/><path d="M 586 194v 28h 14a 14 14, 0, 0, 0, 0 -28" transform="rotate(90,600,208)"/><circle cx="656" cy="208" r="14" transform="rotate(0,656,208)"/><path d="M 698 194v 28h 14a 14 14, 0, 0, 0, 0 -28" transform="rotate(90,712,208)"/><path d="M 754 194v 28h 14a 14 14, 0, 0, 0, 0 -28" transform="rotate(90,768,208)"/><path d="M 810 194v 28h 14a 14 14, 0, 0, 0, 0 -28" transform="rotate(-90,824,208)"/><rect x="866" y="194" width="28" height="28" transform="rotate(0,880,208)"/><path d="M 922 194v 28h 14a 14 14, 0, 0, 0, 0 -28" transform="rotate(-90,936,208)"/><rect x="362" y="222" width="28" height="28" transform="rotate(0,376,236)"/><path d="M 390 222v 28h 28v -14a 14 14, 0, 0, 0, -14 -14" transform="rotate(0,404,236)"/><path d="M 446 222v 28h 14a 14 14, 0, 0, 0, 0 -28" transform="rotate(-90,460,236)"/><circle cx="572" cy="236" r="14" transform="rotate(0,572,236)"/><rect x="810" y="222" width="28" height="28" transform="rotate(0,824,236)"/><rect x="838" y="222" width="28" height="28" transform="rotate(0,852,236)"/><path d="M 866 222v 28h 28v -14a 14 14, 0, 0, 0, -14 -14" transform="rotate(90,880,236)"/><rect x="922" y="222" width="28" height="28" transform="rotate(0,936,236)"/><circle cx="68" cy="264" r="14" transform="rotate(0,68,264)"/><path d="M 138 250v 28h 14a 14 14, 0, 0, 0, 0 -28" transform="rotate(-90,152,264)"/><circle cx="208" cy="264" r="14" transform="rotate(0,208,264)"/><circle cx="264" cy="264" r="14" transform="rotate(0,264,264)"/><path d="M 334 250v 28h 14a 14 14, 0, 0, 0, 0 -28" transform="rotate(180,348,264)"/><rect x="362" y="250" width="28" height="28" transform="rotate(0,376,264)"/><path d="M 390 250v 28h 28v -14a 14 14, 0, 0, 0, -14 -14" transform="rotate(90,404,264)"/><rect x="446" y="250" width="28" height="28" transform="rotate(0,460,264)"/><path d="M 502 250v 28h 28v -14a 14 14, 0, 0, 0, -14 -14" transform="rotate(-90,516,264)"/><path d="M 530 250v 28h 28v -14a 14 14, 0, 0, 0, -14 -14" transform="rotate(0,544,264)"/><path d="M 586 250v 28h 14a 14 14, 0, 0, 0, 0 -28" transform="rotate(180,600,264)"/><path d="M 614 250v 28h 28v -14a 14 14, 0, 0, 0, -14 -14" transform="rotate(0,628,264)"/><circle cx="712" cy="264" r="14" transform="rotate(0,712,264)"/><rect x="810" y="250" width="28" height="28" transform="rotate(0,824,264)"/><path d="M 838 250v 28h 28v -14a 14 14, 0, 0, 0, -14 -14" transform="rotate(90,852,264)"/><path d="M 894 250v 28h 14a 14 14, 0, 0, 0, 0 -28" transform="rotate(180,908,264)"/><rect x="922" y="250" width="28" height="28" transform="rotate(0,936,264)"/><path d="M 950 250v 28h 14a 14 14, 0, 0, 0, 0 -28" transform="rotate(0,964,264)"/><path d="M 1006 250v 28h 28v -14a 14 14, 0, 0, 0, -14 -14" transform="rotate(-90,1020,264)"/><path d="M 1034 250v 28h 28v -14a 14 14, 0, 0, 0, -14 -14" transform="rotate(0,1048,264)"/><circle cx="1104" cy="264" r="14" transform="rotate(0,1104,264)"/><path d="M 26 278v 28h 14a 14 14, 0, 0, 0, 0 -28" transform="rotate(-90,40,292)"/><path d="M 82 278v 28h 14a 14 14, 0, 0, 0, 0 -28" transform="rotate(-90,96,292)"/><path d="M 138 278v 28h 28v -14a 14 14, 0, 0, 0, -14 -14" transform="rotate(180,152,292)"/><path d="M 166 278v 28h 14a 14 14, 0, 0, 0, 0 -28" transform="rotate(0,180,292)"/><circle cx="320" cy="292" r="14" transform="rotate(0,320,292)"/><path d="M 362 278v 28h 14a 14 14, 0, 0, 0, 0 -28" transform="rotate(90,376,292)"/><rect x="446" y="278" width="28" height="28" transform="rotate(0,460,292)"/><rect x="474" y="278" width="28" height="28" transform="rotate(0,488,292)"/><rect x="502" y="278" width="28" height="28" transform="rotate(0,516,292)"/><rect x="530" y="278" width="28" height="28" transform="rotate(0,544,292)"/><path d="M 558 278v 28h 28v -14a 14 14, 0, 0, 0, -14 -14" transform="rotate(0,572,292)"/><rect x="614" y="278" width="28" height="28" transform="rotate(0,628,292)"/><path d="M 670 278v 28h 14a 14 14, 0, 0, 0, 0 -28" transform="rotate(-90,684,292)"/><path d="M 726 278v 28h 14a 14 14, 0, 0, 0, 0 -28" transform="rotate(180,740,292)"/><rect x="754" y="278" width="28" height="28" transform="rotate(0,768,292)"/><rect x="782" y="278" width="28" height="28" transform="rotate(0,796,292)"/><path d="M 810 278v 28h 28v -14a 14 14, 0, 0, 0, -14 -14" transform="rotate(90,824,292)"/><path d="M 978 278v 28h 28v -14a 14 14, 0, 0, 0, -14 -14" transform="rotate(-90,992,292)"/><rect x="1006" y="278" width="28" height="28" transform="rotate(0,1020,292)"/><rect x="1034" y="278" width="28" height="28" transform="rotate(0,1048,292)"/><path d="M 1062 278v 28h 14a 14 14, 0, 0, 0, 0 -28" transform="rotate(0,1076,292)"/><path d="M 1146 278v 28h 14a 14 14, 0, 0, 0, 0 -28" transform="rotate(-90,1160,292)"/><rect x="26" y="306" width="28" height="28" transform="rotate(0,40,320)"/><rect x="54" y="306" width="28" height="28" transform="rotate(0,68,320)"/><rect x="82" y="306" width="28" height="28" transform="rotate(0,96,320)"/><path d="M 110 306v 28h 14a 14 14, 0, 0, 0, 0 -28" transform="rotate(0,124,320)"/><circle cx="208" cy="320" r="14" transform="rotate(0,208,320)"/><path d="M 278 306v 28h 14a 14 14, 0, 0, 0, 0 -28" transform="rotate(-90,292,320)"/><circle cx="348" cy="320" r="14" transform="rotate(0,348,320)"/><path d="M 390 306v 28h 28v -14a 14 14, 0, 0, 0, -14 -14" transform="rotate(-90,404,320)"/><rect x="418" y="306" width="28" height="28" transform="rotate(0,432,320)"/><rect x="446" y="306" width="28" height="28" transform="rotate(0,460,320)"/><rect x="474" y="306" width="28" height="28" transform="rotate(0,488,320)"/><rect x="502" y="306" width="28" height="28" transform="rotate(0,516,320)"/><rect x="530" y="306" width="28" height="28" transform="rotate(0,544,320)"/><rect x="558" y="306" width="28" height="28" transform="rotate(0,572,320)"/><rect x="586" y="306" width="28" height="28" transform="rotate(0,600,320)"/><rect x="614" y="306" width="28" height="28" transform="rotate(0,628,320)"/><rect x="642" y="306" width="28" height="28" transform="rotate(0,656,320)"/><rect x="670" y="306" width="28" height="28" transform="rotate(0,684,320)"/><path d="M 698 306v 28h 14a 14 14, 0, 0, 0, 0 -28" transform="rotate(0,712,320)"/><path d="M 754 306v 28h 28v -14a 14 14, 0, 0, 0, -14 -14" transform="rotate(180,768,320)"/><rect x="782" y="306" width="28" height="28" transform="rotate(0,796,320)"/><path d="M 922 306v 28h 28v -14a 14 14, 0, 0, 0, -14 -14" transform="rotate(-90,936,320)"/><rect x="950" y="306" width="28" height="28" transform="rotate(0,964,320)"/><path d="M 978 306v 28h 28v -14a 14 14, 0, 0, 0, -14 -14" transform="rotate(90,992,320)"/><path d="M 1146 306v 28h 14a 14 14, 0, 0, 0, 0 -28" transform="rotate(90,1160,320)"/><path d="M 26 334v 28h 14a 14 14, 0, 0, 0, 0 -28" transform="rotate(90,40,348)"/><path d="M 138 334v 28h 14a 14 14, 0, 0, 0, 0 -28" transform="rotate(-90,152,348)"/><path d="M 222 334v 28h 14a 14 14, 0, 0, 0, 0 -28" transform="rotate(-90,236,348)"/><path d="M 278 334v 28h 28v -14a 14 14, 0, 0, 0, -14 -14" transform="rotate(180,292,348)"/><path d="M 306 334v 28h 28v -14a 14 14, 0, 0, 0, -14 -14" transform="rotate(0,320,348)"/><rect x="390" y="334" width="28" height="28" transform="rotate(0,404,348)"/><path d="M 418 334v 28h 28v -14a 14 14, 0, 0, 0, -14 -14" transform="rotate(90,432,348)"/><rect x="474" y="334" width="28" height="28" transform="rotate(0,488,348)"/><rect x="642" y="334" width="28" height="28" transform="rotate(0,656,348)"/><path d="M 782 334v 28h 14a 14 14, 0, 0, 0, 0 -28" transform="rotate(90,796,348)"/><path d="M 838 334v 28h 14a 14 14, 0, 0, 0, 0 -28" transform="rotate(-90,852,348)"/><path d="M 894 334v 28h 14a 14 14, 0, 0, 0, 0 -28" transform="rotate(180,908,348)"/><rect x="922" y="334" width="28" height="28" transform="rotate(0,936,348)"/><path d="M 1034 334v 28h 14a 14 14, 0, 0, 0, 0 -28" transform="rotate(180,1048,348)"/><path d="M 1062 334v 28h 14a 14 14, 0, 0, 0, 0 -28" transform="rotate(0,1076,348)"/><circle cx="1132" cy="348" r="14" transform="rotate(0,1132,348)"/><path d="M 110 362v 28h 28v -14a 14 14, 0, 0, 0, -14 -14" transform="rotate(-90,124,376)"/><path d="M 138 362v 28h 28v -14a 14 14, 0, 0, 0, -14 -14" transform="rotate(90,152,376)"/><path d="M 194 362v 28h 14a 14 14, 0, 0, 0, 0 -28" transform="rotate(180,208,376)"/><rect x="222" y="362" width="28" height="28" transform="rotate(0,236,376)"/><rect x="306" y="362" width="28" height="28" transform="rotate(0,320,376)"/><path d="M 334 362v 28h 28v -14a 14 14, 0, 0, 0, -14 -14" transform="rotate(0,348,376)"/><path d="M 390 362v 28h 14a 14 14, 0, 0, 0, 0 -28" transform="rotate(90,404,376)"/><path d="M 446 362v 28h 28v -14a 14 14, 0, 0, 0, -14 -14" transform="rotate(-90,460,376)"/><rect x="474" y="362" width="28" height="28" transform="rotate(0,488,376)"/><path d="M 586 362v 28h 28v -14a 14 14, 0, 0, 0, -14 -14" transform="rotate(-90,600,376)"/><rect x="614" y="362" width="28" height="28" transform="rotate(0,628,376)"/><rect x="642" y="362" width="28" height="28" transform="rotate(0,656,376)"/><path d="M 754 362v 28h 14a 14 14, 0, 0, 0, 0 -28" transform="rotate(-90,768,376)"/><path d="M 838 362v 28h 14a 14 14, 0, 0, 0, 0 -28" transform="rotate(90,852,376)"/><rect x="922" y="362" width="28" height="28" transform="rotate(0,936,376)"/><path d="M 950 362v 28h 14a 14 14, 0, 0, 0, 0 -28" transform="rotate(0,964,376)"/><circle cx="40" cy="404" r="14" transform="rotate(0,40,404)"/><path d="M 82 390v 28h 28v -14a 14 14, 0, 0, 0, -14 -14" transform="rotate(-90,96,404)"/><rect x="110" y="390" width="28" height="28" transform="rotate(0,124,404)"/><path d="M 166 390v 28h 14a 14 14, 0, 0, 0, 0 -28" transform="rotate(-90,180,404)"/><rect x="222" y="390" width="28" height="28" transform="rotate(0,236,404)"/><rect x="250" y="390" width="28" height="28" transform="rotate(0,264,404)"/><rect x="278" y="390" width="28" height="28" transform="rotate(0,292,404)"/><rect x="306" y="390" width="28" height="28" transform="rotate(0,320,404)"/><rect x="334" y="390" width="28" height="28" transform="rotate(0,348,404)"/><path d="M 446 390v 28h 28v -14a 14 14, 0, 0, 0, -14 -14" transform="rotate(180,460,404)"/><path d="M 474 390v 28h 28v -14a 14 14, 0, 0, 0, -14 -14" transform="rotate(90,488,404)"/><path d="M 530 390v 28h 14a 14 14, 0, 0, 0, 0 -28" transform="rotate(180,544,404)"/><rect x="558" y="390" width="28" height="28" transform="rotate(0,572,404)"/><rect x="586" y="390" width="28" height="28" transform="rotate(0,600,404)"/><rect x="614" y="390" width="28" height="28" transform="rotate(0,628,404)"/><rect x="642" y="390" width="28" height="28" transform="rotate(0,656,404)"/><path d="M 698 390v 28h 28v -14a 14 14, 0, 0, 0, -14 -14" transform="rotate(-90,712,404)"/><rect x="726" y="390" width="28" height="28" transform="rotate(0,740,404)"/><path d="M 754 390v 28h 28v -14a 14 14, 0, 0, 0, -14 -14" transform="rotate(90,768,404)"/><path d="M 810 390v 28h 14a 14 14, 0, 0, 0, 0 -28" transform="rotate(-90,824,404)"/><path d="M 894 390v 28h 14a 14 14, 0, 0, 0, 0 -28" transform="rotate(180,908,404)"/><path d="M 922 390v 28h 28v -14a 14 14, 0, 0, 0, -14 -14" transform="rotate(90,936,404)"/><path d="M 978 390v 28h 28v -14a 14 14, 0, 0, 0, -14 -14" transform="rotate(-90,992,404)"/><rect x="1006" y="390" width="28" height="28" transform="rotate(0,1020,404)"/><rect x="1034" y="390" width="28" height="28" transform="rotate(0,1048,404)"/><rect x="1062" y="390" width="28" height="28" transform="rotate(0,1076,404)"/><path d="M 1090 390v 28h 28v -14a 14 14, 0, 0, 0, -14 -14" transform="rotate(0,1104,404)"/><path d="M 1146 390v 28h 14a 14 14, 0, 0, 0, 0 -28" transform="rotate(-90,1160,404)"/><path d="M 54 418v 28h 28v -14a 14 14, 0, 0, 0, -14 -14" transform="rotate(-90,68,432)"/><rect x="82" y="418" width="28" height="28" transform="rotate(0,96,432)"/><path d="M 110 418v 28h 28v -14a 14 14, 0, 0, 0, -14 -14" transform="rotate(90,124,432)"/><path d="M 166 418v 28h 28v -14a 14 14, 0, 0, 0, -14 -14" transform="rotate(180,180,432)"/><rect x="194" y="418" width="28" height="28" transform="rotate(0,208,432)"/><rect x="222" y="418" width="28" height="28" transform="rotate(0,236,432)"/><rect x="250" y="418" width="28" height="28" transform="rotate(0,264,432)"/><rect x="278" y="418" width="28" height="28" transform="rotate(0,292,432)"/><rect x="306" y="418" width="28" height="28" transform="rotate(0,320,432)"/><rect x="334" y="418" width="28" height="28" transform="rotate(0,348,432)"/><path d="M 362 418v 28h 14a 14 14, 0, 0, 0, 0 -28" transform="rotate(0,376,432)"/><path d="M 502 418v 28h 14a 14 14, 0, 0, 0, 0 -28" transform="rotate(-90,516,432)"/><rect x="558" y="418" width="28" height="28" transform="rotate(0,572,432)"/><path d="M 642 418v 28h 28v -14a 14 14, 0, 0, 0, -14 -14" transform="rotate(180,656,432)"/><rect x="670" y="418" width="28" height="28" transform="rotate(0,684,432)"/><path d="M 698 418v 28h 28v -14a 14 14, 0, 0, 0, -14 -14" transform="rotate(90,712,432)"/><path d="M 810 418v 28h 14a 14 14, 0, 0, 0, 0 -28" transform="rotate(90,824,432)"/><circle cx="880" cy="432" r="14" transform="rotate(0,880,432)"/><path d="M 950 418v 28h 14a 14 14, 0, 0, 0, 0 -28" transform="rotate(180,964,432)"/><path d="M 978 418v 28h 28v -14a 14 14, 0, 0, 0, -14 -14" transform="rotate(90,992,432)"/><rect x="1034" y="418" width="28" height="28" transform="rotate(0,1048,432)"/><rect x="1062" y="418" width="28" height="28" transform="rotate(0,1076,432)"/><path d="M 1090 418v 28h 28v -14a 14 14, 0, 0, 0, -14 -14" transform="rotate(90,1104,432)"/><path d="M 1146 418v 28h 14a 14 14, 0, 0, 0, 0 -28" transform="rotate(90,1160,432)"/><rect x="54" y="446" width="28" height="28" transform="rotate(0,68,460)"/><circle cx="152" cy="460" r="14" transform="rotate(0,152,460)"/><path d="M 222 446v 28h 28v -14a 14 14, 0, 0, 0, -14 -14" transform="rotate(180,236,460)"/><path d="M 250 446v 28h 28v -14a 14 14, 0, 0, 0, -14 -14" transform="rotate(90,264,460)"/><path d="M 418 446v 28h 28v -14a 14 14, 0, 0, 0, -14 -14" transform="rotate(-90,432,460)"/><path d="M 446 446v 28h 28v -14a 14 14, 0, 0, 0, -14 -14" transform="rotate(0,460,460)"/><rect x="502" y="446" width="28" height="28" transform="rotate(0,516,460)"/><path d="M 558 446v 28h 14a 14 14, 0, 0, 0, 0 -28" transform="rotate(90,572,460)"/><circle cx="628" cy="460" r="14" transform="rotate(0,628,460)"/><path d="M 670 446v 28h 14a 14 14, 0, 0, 0, 0 -28" transform="rotate(90,684,460)"/><path d="M 838 446v 28h 14a 14 14, 0, 0, 0, 0 -28" transform="rotate(-90,852,460)"/><path d="M 922 446v 28h 14a 14 14, 0, 0, 0, 0 -28" transform="rotate(-90,936,460)"/><path d="M 1034 446v 28h 28v -14a 14 14, 0, 0, 0, -14 -14" transform="rotate(180,1048,460)"/><rect x="1062" y="446" width="28" height="28" transform="rotate(0,1076,460)"/><path d="M 1118 446v 28h 14a 14 14, 0, 0, 0, 0 -28" transform="rotate(-90,1132,460)"/><path d="M 26 474v 28h 14a 14 14, 0, 0, 0, 0 -28" transform="rotate(180,40,488)"/><path d="M 54 474v 28h 28v -14a 14 14, 0, 0, 0, -14 -14" transform="rotate(90,68,488)"/><path d="M 110 474v 28h 14a 14 14, 0, 0, 0, 0 -28" transform="rotate(-90,124,488)"/><circle cx="208" cy="488" r="14" transform="rotate(0,208,488)"/><path d="M 278 474v 28h 28v -14a 14 14, 0, 0, 0, -14 -14" transform="rotate(-90,292,488)"/><rect x="306" y="474" width="28" height="28" transform="rotate(0,320,488)"/><rect x="334" y="474" width="28" height="28" transform="rotate(0,348,488)"/><path d="M 362 474v 28h 14a 14 14, 0, 0, 0, 0 -28" transform="rotate(0,376,488)"/><path d="M 418 474v 28h 28v -14a 14 14, 0, 0, 0, -14 -14" transform="rotate(180,432,488)"/><rect x="446" y="474" width="28" height="28" transform="rotate(0,460,488)"/><path d="M 502 474v 28h 14a 14 14, 0, 0, 0, 0 -28" transform="rotate(90,516,488)"/><path d="M 642 474v 28h 14a 14 14, 0, 0, 0, 0 -28" transform="rotate(-90,656,488)"/><circle cx="712" cy="488" r="14" transform="rotate(0,712,488)"/><path d="M 782 474v 28h 14a 14 14, 0, 0, 0, 0 -28" transform="rotate(-90,796,488)"/><path d="M 838 474v 28h 14a 14 14, 0, 0, 0, 0 -28" transform="rotate(90,852,488)"/><path d="M 894 474v 28h 14a 14 14, 0, 0, 0, 0 -28" transform="rotate(180,908,488)"/><rect x="922" y="474" width="28" height="28" transform="rotate(0,936,488)"/><path d="M 1006 474v 28h 14a 14 14, 0, 0, 0, 0 -28" transform="rotate(-90,1020,488)"/><path d="M 1062 474v 28h 14a 14 14, 0, 0, 0, 0 -28" transform="rotate(90,1076,488)"/><path d="M 1118 474v 28h 28v -14a 14 14, 0, 0, 0, -14 -14" transform="rotate(180,1132,488)"/><path d="M 1146 474v 28h 28v -14a 14 14, 0, 0, 0, -14 -14" transform="rotate(0,1160,488)"/><path d="M 82 502v 28h 14a 14 14, 0, 0, 0, 0 -28" transform="rotate(180,96,516)"/><path d="M 110 502v 28h 28v -14a 14 14, 0, 0, 0, -14 -14" transform="rotate(90,124,516)"/><path d="M 166 502v 28h 14a 14 14, 0, 0, 0, 0 -28" transform="rotate(-90,180,516)"/><rect x="278" y="502" width="28" height="28" transform="rotate(0,292,516)"/><rect x="334" y="502" width="28" height="28" transform="rotate(0,348,516)"/><circle cx="404" cy="516" r="14" transform="rotate(0,404,516)"/><rect x="446" y="502" width="28" height="28" transform="rotate(0,460,516)"/><path d="M 530 502v 28h 14a 14 14, 0, 0, 0, 0 -28" transform="rotate(180,544,516)"/><path d="M 558 502v 28h 28v -14a 14 14, 0, 0, 0, -14 -14" transform="rotate(0,572,516)"/><rect x="642" y="502" width="28" height="28" transform="rotate(0,656,516)"/><path d="M 670 502v 28h 28v -14a 14 14, 0, 0, 0, -14 -14" transform="rotate(0,684,516)"/><path d="M 754 502v 28h 28v -14a 14 14, 0, 0, 0, -14 -14" transform="rotate(-90,768,516)"/><rect x="782" y="502" width="28" height="28" transform="rotate(0,796,516)"/><circle cx="880" cy="516" r="14" transform="rotate(0,880,516)"/><path d="M 922 502v 28h 28v -14a 14 14, 0, 0, 0, -14 -14" transform="rotate(180,936,516)"/><rect x="950" y="502" width="28" height="28" transform="rotate(0,964,516)"/><rect x="978" y="502" width="28" height="28" transform="rotate(0,992,516)"/><rect x="1006" y="502" width="28" height="28" transform="rotate(0,1020,516)"/><path d="M 1034 502v 28h 14a 14 14, 0, 0, 0, 0 -28" transform="rotate(0,1048,516)"/><circle cx="1104" cy="516" r="14" transform="rotate(0,1104,516)"/><rect x="1146" y="502" width="28" height="28" transform="rotate(0,1160,516)"/><path d="M 54 530v 28h 14a 14 14, 0, 0, 0, 0 -28" transform="rotate(-90,68,544)"/><path d="M 138 530v 28h 28v -14a 14 14, 0, 0, 0, -14 -14" transform="rotate(-90,152,544)"/><rect x="166" y="530" width="28" height="28" transform="rotate(0,180,544)"/><rect x="194" y="530" width="28" height="28" transform="rotate(0,208,544)"/><path d="M 222 530v 28h 14a 14 14, 0, 0, 0, 0 -28" transform="rotate(0,236,544)"/><rect x="278" y="530" width="28" height="28" transform="rotate(0,292,544)"/><rect x="306" y="530" width="28" height="28" transform="rotate(0,320,544)"/><rect x="334" y="530" width="28" height="28" transform="rotate(0,348,544)"/><path d="M 362 530v 28h 28v -14a 14 14, 0, 0, 0, -14 -14" transform="rotate(0,376,544)"/><path d="M 418 530v 28h 28v -14a 14 14, 0, 0, 0, -14 -14" transform="rotate(-90,432,544)"/><rect x="446" y="530" width="28" height="28" transform="rotate(0,460,544)"/><path d="M 474 530v 28h 28v -14a 14 14, 0, 0, 0, -14 -14" transform="rotate(0,488,544)"/><path d="M 558 530v 28h 28v -14a 14 14, 0, 0, 0, -14 -14" transform="rotate(180,572,544)"/><path d="M 586 530v 28h 14a 14 14, 0, 0, 0, 0 -28" transform="rotate(0,600,544)"/><rect x="642" y="530" width="28" height="28" transform="rotate(0,656,544)"/><rect x="670" y="530" width="28" height="28" transform="rotate(0,684,544)"/><rect x="698" y="530" width="28" height="28" transform="rotate(0,712,544)"/><rect x="726" y="530" width="28" height="28" transform="rotate(0,740,544)"/><rect x="754" y="530" width="28" height="28" transform="rotate(0,768,544)"/><rect x="782" y="530" width="28" height="28" transform="rotate(0,796,544)"/><rect x="810" y="530" width="28" height="28" transform="rotate(0,824,544)"/><path d="M 838 530v 28h 28v -14a 14 14, 0, 0, 0, -14 -14" transform="rotate(0,852,544)"/><path d="M 950 530v 28h 14a 14 14, 0, 0, 0, 0 -28" transform="rotate(90,964,544)"/><rect x="1006" y="530" width="28" height="28" transform="rotate(0,1020,544)"/><path d="M 1062 530v 28h 14a 14 14, 0, 0, 0, 0 -28" transform="rotate(-90,1076,544)"/><path d="M 1146 530v 28h 14a 14 14, 0, 0, 0, 0 -28" transform="rotate(90,1160,544)"/><path d="M 54 558v 28h 14a 14 14, 0, 0, 0, 0 -28" transform="rotate(90,68,572)"/><rect x="138" y="558" width="28" height="28" transform="rotate(0,152,572)"/><path d="M 250 558v 28h 28v -14a 14 14, 0, 0, 0, -14 -14" transform="rotate(-90,264,572)"/><rect x="278" y="558" width="28" height="28" transform="rotate(0,292,572)"/><rect x="306" y="558" width="28" height="28" transform="rotate(0,320,572)"/><rect x="334" y="558" width="28" height="28" transform="rotate(0,348,572)"/><rect x="362" y="558" width="28" height="28" transform="rotate(0,376,572)"/><rect x="390" y="558" width="28" height="28" transform="rotate(0,404,572)"/><rect x="418" y="558" width="28" height="28" transform="rotate(0,432,572)"/><rect x="446" y="558" width="28" height="28" transform="rotate(0,460,572)"/><rect x="474" y="558" width="28" height="28" transform="rotate(0,488,572)"/><path d="M 642 558v 28h 14a 14 14, 0, 0, 0, 0 -28" transform="rotate(90,656,572)"/><rect x="726" y="558" width="28" height="28" transform="rotate(0,740,572)"/><rect x="810" y="558" width="28" height="28" transform="rotate(0,824,572)"/><rect x="838" y="558" width="28" height="28" transform="rotate(0,852,572)"/><path d="M 866 558v 28h 28v -14a 14 14, 0, 0, 0, -14 -14" transform="rotate(0,880,572)"/><path d="M 922 558v 28h 14a 14 14, 0, 0, 0, 0 -28" transform="rotate(-90,936,572)"/><path d="M 978 558v 28h 14a 14 14, 0, 0, 0, 0 -28" transform="rotate(180,992,572)"/><path d="M 1006 558v 28h 28v -14a 14 14, 0, 0, 0, -14 -14" transform="rotate(90,1020,572)"/><rect x="1062" y="558" width="28" height="28" transform="rotate(0,1076,572)"/><path d="M 1118 558v 28h 14a 14 14, 0, 0, 0, 0 -28" transform="rotate(-90,1132,572)"/><path d="M 26 586v 28h 14a 14 14, 0, 0, 0, 0 -28" transform="rotate(-90,40,600)"/><path d="M 110 586v 28h 14a 14 14, 0, 0, 0, 0 -28" transform="rotate(180,124,600)"/><rect x="138" y="586" width="28" height="28" transform="rotate(0,152,600)"/><circle cx="208" cy="600" r="14" transform="rotate(0,208,600)"/><rect x="250" y="586" width="28" height="28" transform="rotate(0,264,600)"/><path d="M 362 586v 28h 14a 14 14, 0, 0, 0, 0 -28" transform="rotate(90,376,600)"/><rect x="474" y="586" width="28" height="28" transform="rotate(0,488,600)"/><rect x="502" y="586" width="28" height="28" transform="rotate(0,516,600)"/><path d="M 530 586v 28h 28v -14a 14 14, 0, 0, 0, -14 -14" transform="rotate(0,544,600)"/><path d="M 698 586v 28h 14a 14 14, 0, 0, 0, 0 -28" transform="rotate(180,712,600)"/><rect x="726" y="586" width="28" height="28" transform="rotate(0,740,600)"/><rect x="810" y="586" width="28" height="28" transform="rotate(0,824,600)"/><path d="M 866 586v 28h 28v -14a 14 14, 0, 0, 0, -14 -14" transform="rotate(180,880,600)"/><rect x="894" y="586" width="28" height="28" transform="rotate(0,908,600)"/><rect x="922" y="586" width="28" height="28" transform="rotate(0,936,600)"/><path d="M 950 586v 28h 14a 14 14, 0, 0, 0, 0 -28" transform="rotate(0,964,600)"/><path d="M 1062 586v 28h 14a 14 14, 0, 0, 0, 0 -28" transform="rotate(90,1076,600)"/><path d="M 1118 586v 28h 28v -14a 14 14, 0, 0, 0, -14 -14" transform="rotate(180,1132,600)"/><path d="M 1146 586v 28h 28v -14a 14 14, 0, 0, 0, -14 -14" transform="rotate(0,1160,600)"/><rect x="26" y="614" width="28" height="28" transform="rotate(0,40,628)"/><rect x="138" y="614" width="28" height="28" transform="rotate(0,152,628)"/><path d="M 166 614v 28h 14a 14 14, 0, 0, 0, 0 -28" transform="rotate(0,180,628)"/><path d="M 222 614v 28h 28v -14a 14 14, 0, 0, 0, -14 -14" transform="rotate(-90,236,628)"/><rect x="250" y="614" width="28" height="28" transform="rotate(0,264,628)"/><path d="M 334 614v 28h 14a 14 14, 0, 0, 0, 0 -28" transform="rotate(-90,348,628)"/><path d="M 418 614v 28h 14a 14 14, 0, 0, 0, 0 -28" transform="rotate(180,432,628)"/><rect x="446" y="614" width="28" height="28" transform="rotate(0,460,628)"/><path d="M 474 614v 28h 28v -14a 14 14, 0, 0, 0, -14 -14" transform="rotate(90,488,628)"/><path d="M 530 614v 28h 14a 14 14, 0, 0, 0, 0 -28" transform="rotate(90,544,628)"/><path d="M 670 614v 28h 14a 14 14, 0, 0, 0, 0 -28" transform="rotate(-90,684,628)"/><path d="M 726 614v 28h 28v -14a 14 14, 0, 0, 0, -14 -14" transform="rotate(180,740,628)"/><rect x="754" y="614" width="28" height="28" transform="rotate(0,768,628)"/><rect x="782" y="614" width="28" height="28" transform="rotate(0,796,628)"/><path d="M 810 614v 28h 28v -14a 14 14, 0, 0, 0, -14 -14" transform="rotate(90,824,628)"/><path d="M 978 614v 28h 28v -14a 14 14, 0, 0, 0, -14 -14" transform="rotate(-90,992,628)"/><rect x="1006" y="614" width="28" height="28" transform="rotate(0,1020,628)"/><path d="M 1034 614v 28h 14a 14 14, 0, 0, 0, 0 -28" transform="rotate(0,1048,628)"/><rect x="1146" y="614" width="28" height="28" transform="rotate(0,1160,628)"/><rect x="26" y="642" width="28" height="28" transform="rotate(0,40,656)"/><path d="M 54 642v 28h 28v -14a 14 14, 0, 0, 0, -14 -14" transform="rotate(0,68,656)"/><path d="M 110 642v 28h 28v -14a 14 14, 0, 0, 0, -14 -14" transform="rotate(-90,124,656)"/><path d="M 138 642v 28h 28v -14a 14 14, 0, 0, 0, -14 -14" transform="rotate(90,152,656)"/><path d="M 194 642v 28h 14a 14 14, 0, 0, 0, 0 -28" transform="rotate(180,208,656)"/><rect x="222" y="642" width="28" height="28" transform="rotate(0,236,656)"/><rect x="250" y="642" width="28" height="28" transform="rotate(0,264,656)"/><path d="M 306 642v 28h 14a 14 14, 0, 0, 0, 0 -28" transform="rotate(180,320,656)"/><rect x="334" y="642" width="28" height="28" transform="rotate(0,348,656)"/><path d="M 446 642v 28h 14a 14 14, 0, 0, 0, 0 -28" transform="rotate(90,460,656)"/><rect x="670" y="642" width="28" height="28" transform="rotate(0,684,656)"/><rect x="754" y="642" width="28" height="28" transform="rotate(0,768,656)"/><rect x="782" y="642" width="28" height="28" transform="rotate(0,796,656)"/><path d="M 838 642v 28h 28v -14a 14 14, 0, 0, 0, -14 -14" transform="rotate(-90,852,656)"/><path d="M 866 642v 28h 28v -14a 14 14, 0, 0, 0, -14 -14" transform="rotate(0,880,656)"/><path d="M 922 642v 28h 14a 14 14, 0, 0, 0, 0 -28" transform="rotate(180,936,656)"/><rect x="950" y="642" width="28" height="28" transform="rotate(0,964,656)"/><rect x="978" y="642" width="28" height="28" transform="rotate(0,992,656)"/><circle cx="1104" cy="656" r="14" transform="rotate(0,1104,656)"/><rect x="1146" y="642" width="28" height="28" transform="rotate(0,1160,656)"/><path d="M 26 670v 28h 28v -14a 14 14, 0, 0, 0, -14 -14" transform="rotate(180,40,684)"/><path d="M 54 670v 28h 28v -14a 14 14, 0, 0, 0, -14 -14" transform="rotate(90,68,684)"/><path d="M 110 670v 28h 14a 14 14, 0, 0, 0, 0 -28" transform="rotate(90,124,684)"/><path d="M 166 670v 28h 14a 14 14, 0, 0, 0, 0 -28" transform="rotate(-90,180,684)"/><rect x="222" y="670" width="28" height="28" transform="rotate(0,236,684)"/><rect x="250" y="670" width="28" height="28" transform="rotate(0,264,684)"/><path d="M 334 670v 28h 14a 14 14, 0, 0, 0, 0 -28" transform="rotate(90,348,684)"/><path d="M 390 670v 28h 14a 14 14, 0, 0, 0, 0 -28" transform="rotate(180,404,684)"/><path d="M 418 670v 28h 28v -14a 14 14, 0, 0, 0, -14 -14" transform="rotate(0,432,684)"/><path d="M 586 670v 28h 28v -14a 14 14, 0, 0, 0, -14 -14" transform="rotate(-90,600,684)"/><path d="M 614 670v 28h 28v -14a 14 14, 0, 0, 0, -14 -14" transform="rotate(0,628,684)"/><rect x="670" y="670" width="28" height="28" transform="rotate(0,684,684)"/><path d="M 754 670v 28h 28v -14a 14 14, 0, 0, 0, -14 -14" transform="rotate(180,768,684)"/><rect x="782" y="670" width="28" height="28" transform="rotate(0,796,684)"/><rect x="810" y="670" width="28" height="28" transform="rotate(0,824,684)"/><rect x="838" y="670" width="28" height="28" transform="rotate(0,852,684)"/><rect x="866" y="670" width="28" height="28" transform="rotate(0,880,684)"/><path d="M 894 670v 28h 28v -14a 14 14, 0, 0, 0, -14 -14" transform="rotate(0,908,684)"/><path d="M 978 670v 28h 14a 14 14, 0, 0, 0, 0 -28" transform="rotate(90,992,684)"/><path d="M 1062 670v 28h 14a 14 14, 0, 0, 0, 0 -28" transform="rotate(-90,1076,684)"/><path d="M 1118 670v 28h 14a 14 14, 0, 0, 0, 0 -28" transform="rotate(180,1132,684)"/><path d="M 1146 670v 28h 28v -14a 14 14, 0, 0, 0, -14 -14" transform="rotate(90,1160,684)"/><circle cx="96" cy="712" r="14" transform="rotate(0,96,712)"/><path d="M 138 698v 28h 14a 14 14, 0, 0, 0, 0 -28" transform="rotate(180,152,712)"/><rect x="166" y="698" width="28" height="28" transform="rotate(0,180,712)"/><rect x="194" y="698" width="28" height="28" transform="rotate(0,208,712)"/><rect x="222" y="698" width="28" height="28" transform="rotate(0,236,712)"/><path d="M 250 698v 28h 28v -14a 14 14, 0, 0, 0, -14 -14" transform="rotate(90,264,712)"/><circle cx="320" cy="712" r="14" transform="rotate(0,320,712)"/><path d="M 418 698v 28h 28v -14a 14 14, 0, 0, 0, -14 -14" transform="rotate(180,432,712)"/><rect x="446" y="698" width="28" height="28" transform="rotate(0,460,712)"/><path d="M 474 698v 28h 28v -14a 14 14, 0, 0, 0, -14 -14" transform="rotate(0,488,712)"/><path d="M 558 698v 28h 14a 14 14, 0, 0, 0, 0 -28" transform="rotate(180,572,712)"/><rect x="586" y="698" width="28" height="28" transform="rotate(0,600,712)"/><rect x="614" y="698" width="28" height="28" transform="rotate(0,628,712)"/><rect x="670" y="698" width="28" height="28" transform="rotate(0,684,712)"/><rect x="810" y="698" width="28" height="28" transform="rotate(0,824,712)"/><path d="M 838 698v 28h 28v -14a 14 14, 0, 0, 0, -14 -14" transform="rotate(90,852,712)"/><path d="M 894 698v 28h 28v -14a 14 14, 0, 0, 0, -14 -14" transform="rotate(180,908,712)"/><rect x="922" y="698" width="28" height="28" transform="rotate(0,936,712)"/><path d="M 950 698v 28h 14a 14 14, 0, 0, 0, 0 -28" transform="rotate(0,964,712)"/><path d="M 1062 698v 28h 14a 14 14, 0, 0, 0, 0 -28" transform="rotate(90,1076,712)"/><path d="M 26 726v 28h 14a 14 14, 0, 0, 0, 0 -28" transform="rotate(-90,40,740)"/><rect x="222" y="726" width="28" height="28" transform="rotate(0,236,740)"/><path d="M 278 726v 28h 14a 14 14, 0, 0, 0, 0 -28" transform="rotate(-90,292,740)"/><path d="M 362 726v 28h 14a 14 14, 0, 0, 0, 0 -28" transform="rotate(180,376,740)"/><path d="M 390 726v 28h 14a 14 14, 0, 0, 0, 0 -28" transform="rotate(0,404,740)"/><path d="M 474 726v 28h 14a 14 14, 0, 0, 0, 0 -28" transform="rotate(90,488,740)"/><rect x="614" y="726" width="28" height="28" transform="rotate(0,628,740)"/><rect x="670" y="726" width="28" height="28" transform="rotate(0,684,740)"/><path d="M 754 726v 28h 28v -14a 14 14, 0, 0, 0, -14 -14" transform="rotate(-90,768,740)"/><rect x="782" y="726" width="28" height="28" transform="rotate(0,796,740)"/><rect x="810" y="726" width="28" height="28" transform="rotate(0,824,740)"/><path d="M 866 726v 28h 14a 14 14, 0, 0, 0, 0 -28" transform="rotate(-90,880,740)"/><rect x="922" y="726" width="28" height="28" transform="rotate(0,936,740)"/><circle cx="992" cy="740" r="14" transform="rotate(0,992,740)"/><path d="M 1034 726v 28h 14a 14 14, 0, 0, 0, 0 -28" transform="rotate(-90,1048,740)"/><path d="M 1090 726v 28h 14a 14 14, 0, 0, 0, 0 -28" transform="rotate(180,1104,740)"/><rect x="1118" y="726" width="28" height="28" transform="rotate(0,1132,740)"/><path d="M 1146 726v 28h 28v -14a 14 14, 0, 0, 0, -14 -14" transform="rotate(0,1160,740)"/><path d="M 26 754v 28h 28v -14a 14 14, 0, 0, 0, -14 -14" transform="rotate(180,40,768)"/><rect x="54" y="754" width="28" height="28" transform="rotate(0,68,768)"/><path d="M 82 754v 28h 14a 14 14, 0, 0, 0, 0 -28" transform="rotate(0,96,768)"/><path d="M 138 754v 28h 28v -14a 14 14, 0, 0, 0, -14 -14" transform="rotate(-90,152,768)"/><rect x="166" y="754" width="28" height="28" transform="rotate(0,180,768)"/><rect x="194" y="754" width="28" height="28" transform="rotate(0,208,768)"/><path d="M 222 754v 28h 28v -14a 14 14, 0, 0, 0, -14 -14" transform="rotate(90,236,768)"/><rect x="278" y="754" width="28" height="28" transform="rotate(0,292,768)"/><path d="M 306 754v 28h 28v -14a 14 14, 0, 0, 0, -14 -14" transform="rotate(0,320,768)"/><path d="M 502 754v 28h 14a 14 14, 0, 0, 0, 0 -28" transform="rotate(180,516,768)"/><path d="M 530 754v 28h 28v -14a 14 14, 0, 0, 0, -14 -14" transform="rotate(0,544,768)"/><path d="M 586 754v 28h 28v -14a 14 14, 0, 0, 0, -14 -14" transform="rotate(-90,600,768)"/><path d="M 614 754v 28h 28v -14a 14 14, 0, 0, 0, -14 -14" transform="rotate(90,628,768)"/><rect x="670" y="754" width="28" height="28" transform="rotate(0,684,768)"/><rect x="754" y="754" width="28" height="28" transform="rotate(0,768,768)"/><rect x="782" y="754" width="28" height="28" transform="rotate(0,796,768)"/><rect x="810" y="754" width="28" height="28" transform="rotate(0,824,768)"/><rect x="838" y="754" width="28" height="28" transform="rotate(0,852,768)"/><path d="M 866 754v 28h 28v -14a 14 14, 0, 0, 0, -14 -14" transform="rotate(90,880,768)"/><rect x="922" y="754" width="28" height="28" transform="rotate(0,936,768)"/><path d="M 950 754v 28h 14a 14 14, 0, 0, 0, 0 -28" transform="rotate(0,964,768)"/><path d="M 1034 754v 28h 14a 14 14, 0, 0, 0, 0 -28" transform="rotate(90,1048,768)"/><path d="M 1146 754v 28h 14a 14 14, 0, 0, 0, 0 -28" transform="rotate(90,1160,768)"/><rect x="54" y="782" width="28" height="28" transform="rotate(0,68,796)"/><path d="M 110 782v 28h 14a 14 14, 0, 0, 0, 0 -28" transform="rotate(180,124,796)"/><rect x="138" y="782" width="28" height="28" transform="rotate(0,152,796)"/><path d="M 166 782v 28h 28v -14a 14 14, 0, 0, 0, -14 -14" transform="rotate(90,180,796)"/><path d="M 250 782v 28h 28v -14a 14 14, 0, 0, 0, -14 -14" transform="rotate(-90,264,796)"/><rect x="278" y="782" width="28" height="28" transform="rotate(0,292,796)"/><rect x="306" y="782" width="28" height="28" transform="rotate(0,320,796)"/><path d="M 334 782v 28h 14a 14 14, 0, 0, 0, 0 -28" transform="rotate(0,348,796)"/><path d="M 390 782v 28h 14a 14 14, 0, 0, 0, 0 -28" transform="rotate(180,404,796)"/><path d="M 418 782v 28h 14a 14 14, 0, 0, 0, 0 -28" transform="rotate(0,432,796)"/><path d="M 530 782v 28h 14a 14 14, 0, 0, 0, 0 -28" transform="rotate(90,544,796)"/><path d="M 586 782v 28h 14a 14 14, 0, 0, 0, 0 -28" transform="rotate(90,600,796)"/><rect x="670" y="782" width="28" height="28" transform="rotate(0,684,796)"/><path d="M 698 782v 28h 28v -14a 14 14, 0, 0, 0, -14 -14" transform="rotate(0,712,796)"/><path d="M 754 782v 28h 28v -14a 14 14, 0, 0, 0, -14 -14" transform="rotate(180,768,796)"/><path d="M 782 782v 28h 28v -14a 14 14, 0, 0, 0, -14 -14" transform="rotate(90,796,796)"/><rect x="838" y="782" width="28" height="28" transform="rotate(0,852,796)"/><path d="M 894 782v 28h 14a 14 14, 0, 0, 0, 0 -28" transform="rotate(180,908,796)"/><path d="M 922 782v 28h 28v -14a 14 14, 0, 0, 0, -14 -14" transform="rotate(90,936,796)"/><circle cx="1020" cy="796" r="14" transform="rotate(0,1020,796)"/><circle cx="1076" cy="796" r="14" transform="rotate(0,1076,796)"/><rect x="54" y="810" width="28" height="28" transform="rotate(0,68,824)"/><path d="M 194 810v 28h 14a 14 14, 0, 0, 0, 0 -28" transform="rotate(180,208,824)"/><rect x="222" y="810" width="28" height="28" transform="rotate(0,236,824)"/><path d="M 250 810v 28h 28v -14a 14 14, 0, 0, 0, -14 -14" transform="rotate(90,264,824)"/><path d="M 362 810v 28h 14a 14 14, 0, 0, 0, 0 -28" transform="rotate(-90,376,824)"/><path d="M 474 810v 28h 28v -14a 14 14, 0, 0, 0, -14 -14" transform="rotate(-90,488,824)"/><path d="M 502 810v 28h 28v -14a 14 14, 0, 0, 0, -14 -14" transform="rotate(0,516,824)"/><path d="M 642 810v 28h 28v -14a 14 14, 0, 0, 0, -14 -14" transform="rotate(-90,656,824)"/><rect x="670" y="810" width="28" height="28" transform="rotate(0,684,824)"/><path d="M 698 810v 28h 28v -14a 14 14, 0, 0, 0, -14 -14" transform="rotate(90,712,824)"/><path d="M 810 810v 28h 14a 14 14, 0, 0, 0, 0 -28" transform="rotate(180,824,824)"/><path d="M 838 810v 28h 28v -14a 14 14, 0, 0, 0, -14 -14" transform="rotate(90,852,824)"/><circle cx="964" cy="824" r="14" transform="rotate(0,964,824)"/><path d="M 1118 810v 28h 14a 14 14, 0, 0, 0, 0 -28" transform="rotate(180,1132,824)"/><path d="M 1146 810v 28h 28v -14a 14 14, 0, 0, 0, -14 -14" transform="rotate(0,1160,824)"/><path d="M 26 838v 28h 14a 14 14, 0, 0, 0, 0 -28" transform="rotate(180,40,852)"/><path d="M 54 838v 28h 28v -14a 14 14, 0, 0, 0, -14 -14" transform="rotate(90,68,852)"/><circle cx="180" cy="852" r="14" transform="rotate(0,180,852)"/><rect x="222" y="838" width="28" height="28" transform="rotate(0,236,852)"/><path d="M 334 838v 28h 14a 14 14, 0, 0, 0, 0 -28" transform="rotate(180,348,852)"/><rect x="362" y="838" width="28" height="28" transform="rotate(0,376,852)"/><path d="M 390 838v 28h 28v -14a 14 14, 0, 0, 0, -14 -14" transform="rotate(0,404,852)"/><path d="M 446 838v 28h 28v -14a 14 14, 0, 0, 0, -14 -14" transform="rotate(-90,460,852)"/><rect x="474" y="838" width="28" height="28" transform="rotate(0,488,852)"/><path d="M 502 838v 28h 28v -14a 14 14, 0, 0, 0, -14 -14" transform="rotate(90,516,852)"/><path d="M 558 838v 28h 28v -14a 14 14, 0, 0, 0, -14 -14" transform="rotate(-90,572,852)"/><path d="M 586 838v 28h 14a 14 14, 0, 0, 0, 0 -28" transform="rotate(0,600,852)"/><rect x="642" y="838" width="28" height="28" transform="rotate(0,656,852)"/><path d="M 866 838v 28h 14a 14 14, 0, 0, 0, 0 -28" transform="rotate(-90,880,852)"/><circle cx="992" cy="852" r="14" transform="rotate(0,992,852)"/><circle cx="1048" cy="852" r="14" transform="rotate(0,1048,852)"/><rect x="1146" y="838" width="28" height="28" transform="rotate(0,1160,852)"/><path d="M 110 866v 28h 14a 14 14, 0, 0, 0, 0 -28" transform="rotate(180,124,880)"/><path d="M 138 866v 28h 14a 14 14, 0, 0, 0, 0 -28" transform="rotate(0,152,880)"/><path d="M 194 866v 28h 14a 14 14, 0, 0, 0, 0 -28" transform="rotate(180,208,880)"/><rect x="222" y="866" width="28" height="28" transform="rotate(0,236,880)"/><path d="M 278 866v 28h 14a 14 14, 0, 0, 0, 0 -28" transform="rotate(180,292,880)"/><path d="M 306 866v 28h 28v -14a 14 14, 0, 0, 0, -14 -14" transform="rotate(0,320,880)"/><path d="M 390 866v 28h 28v -14a 14 14, 0, 0, 0, -14 -14" transform="rotate(180,404,880)"/><rect x="418" y="866" width="28" height="28" transform="rotate(0,432,880)"/><rect x="446" y="866" width="28" height="28" transform="rotate(0,460,880)"/><path d="M 558 866v 28h 14a 14 14, 0, 0, 0, 0 -28" transform="rotate(90,572,880)"/><path d="M 642 866v 28h 14a 14 14, 0, 0, 0, 0 -28" transform="rotate(90,656,880)"/><path d="M 726 866v 28h 14a 14 14, 0, 0, 0, 0 -28" transform="rotate(180,740,880)"/><rect x="754" y="866" width="28" height="28" transform="rotate(0,768,880)"/><path d="M 782 866v 28h 28v -14a 14 14, 0, 0, 0, -14 -14" transform="rotate(0,796,880)"/><path d="M 838 866v 28h 28v -14a 14 14, 0, 0, 0, -14 -14" transform="rotate(-90,852,880)"/><rect x="866" y="866" width="28" height="28" transform="rotate(0,880,880)"/><path d="M 922 866v 28h 28v -14a 14 14, 0, 0, 0, -14 -14" transform="rotate(-90,936,880)"/><path d="M 950 866v 28h 28v -14a 14 14, 0, 0, 0, -14 -14" transform="rotate(0,964,880)"/><path d="M 1062 866v 28h 28v -14a 14 14, 0, 0, 0, -14 -14" transform="rotate(-90,1076,880)"/><path d="M 1090 866v 28h 14a 14 14, 0, 0, 0, 0 -28" transform="rotate(0,1104,880)"/><rect x="1146" y="866" width="28" height="28" transform="rotate(0,1160,880)"/><path d="M 166 894v 28h 14a 14 14, 0, 0, 0, 0 -28" transform="rotate(-90,180,908)"/><path d="M 222 894v 28h 28v -14a 14 14, 0, 0, 0, -14 -14" transform="rotate(180,236,908)"/><path d="M 250 894v 28h 28v -14a 14 14, 0, 0, 0, -14 -14" transform="rotate(0,264,908)"/><path d="M 306 894v 28h 14a 14 14, 0, 0, 0, 0 -28" transform="rotate(90,320,908)"/><path d="M 418 894v 28h 28v -14a 14 14, 0, 0, 0, -14 -14" transform="rotate(180,432,908)"/><path d="M 446 894v 28h 28v -14a 14 14, 0, 0, 0, -14 -14" transform="rotate(90,460,908)"/><path d="M 698 894v 28h 14a 14 14, 0, 0, 0, 0 -28" transform="rotate(-90,712,908)"/><path d="M 754 894v 28h 28v -14a 14 14, 0, 0, 0, -14 -14" transform="rotate(180,768,908)"/><rect x="782" y="894" width="28" height="28" transform="rotate(0,796,908)"/><rect x="810" y="894" width="28" height="28" transform="rotate(0,824,908)"/><rect x="838" y="894" width="28" height="28" transform="rotate(0,852,908)"/><path d="M 866 894v 28h 28v -14a 14 14, 0, 0, 0, -14 -14" transform="rotate(90,880,908)"/><rect x="922" y="894" width="28" height="28" transform="rotate(0,936,908)"/><rect x="950" y="894" width="28" height="28" transform="rotate(0,964,908)"/><path d="M 1034 894v 28h 28v -14a 14 14, 0, 0, 0, -14 -14" transform="rotate(-90,1048,908)"/><rect x="1062" y="894" width="28" height="28" transform="rotate(0,1076,908)"/><rect x="1146" y="894" width="28" height="28" transform="rotate(0,1160,908)"/><path d="M 26 922v 28h 14a 14 14, 0, 0, 0, 0 -28" transform="rotate(180,40,936)"/><rect x="54" y="922" width="28" height="28" transform="rotate(0,68,936)"/><rect x="82" y="922" width="28" height="28" transform="rotate(0,96,936)"/><path d="M 110 922v 28h 14a 14 14, 0, 0, 0, 0 -28" transform="rotate(0,124,936)"/><path d="M 166 922v 28h 28v -14a 14 14, 0, 0, 0, -14 -14" transform="rotate(180,180,936)"/><path d="M 194 922v 28h 14a 14 14, 0, 0, 0, 0 -28" transform="rotate(0,208,936)"/><rect x="250" y="922" width="28" height="28" transform="rotate(0,264,936)"/><path d="M 334 922v 28h 14a 14 14, 0, 0, 0, 0 -28" transform="rotate(180,348,936)"/><rect x="362" y="922" width="28" height="28" transform="rotate(0,376,936)"/><path d="M 390 922v 28h 14a 14 14, 0, 0, 0, 0 -28" transform="rotate(0,404,936)"/><path d="M 474 922v 28h 14a 14 14, 0, 0, 0, 0 -28" transform="rotate(-90,488,936)"/><path d="M 530 922v 28h 14a 14 14, 0, 0, 0, 0 -28" transform="rotate(-90,544,936)"/><path d="M 586 922v 28h 14a 14 14, 0, 0, 0, 0 -28" transform="rotate(180,600,936)"/><path d="M 614 922v 28h 14a 14 14, 0, 0, 0, 0 -28" transform="rotate(0,628,936)"/><path d="M 670 922v 28h 28v -14a 14 14, 0, 0, 0, -14 -14" transform="rotate(-90,684,936)"/><path d="M 698 922v 28h 28v -14a 14 14, 0, 0, 0, -14 -14" transform="rotate(90,712,936)"/><rect x="838" y="922" width="28" height="28" transform="rotate(0,852,936)"/><path d="M 894 922v 28h 28v -14a 14 14, 0, 0, 0, -14 -14" transform="rotate(-90,908,936)"/><rect x="922" y="922" width="28" height="28" transform="rotate(0,936,936)"/><rect x="950" y="922" width="28" height="28" transform="rotate(0,964,936)"/><rect x="978" y="922" width="28" height="28" transform="rotate(0,992,936)"/><rect x="1006" y="922" width="28" height="28" transform="rotate(0,1020,936)"/><rect x="1034" y="922" width="28" height="28" transform="rotate(0,1048,936)"/><rect x="1062" y="922" width="28" height="28" transform="rotate(0,1076,936)"/><rect x="1146" y="922" width="28" height="28" transform="rotate(0,1160,936)"/><path d="M 250 950v 28h 28v -14a 14 14, 0, 0, 0, -14 -14" transform="rotate(180,264,964)"/><path d="M 278 950v 28h 14a 14 14, 0, 0, 0, 0 -28" transform="rotate(0,292,964)"/><rect x="362" y="950" width="28" height="28" transform="rotate(0,376,964)"/><path d="M 474 950v 28h 28v -14a 14 14, 0, 0, 0, -14 -14" transform="rotate(180,488,964)"/><rect x="502" y="950" width="28" height="28" transform="rotate(0,516,964)"/><rect x="530" y="950" width="28" height="28" transform="rotate(0,544,964)"/><rect x="670" y="950" width="28" height="28" transform="rotate(0,684,964)"/><circle cx="740" cy="964" r="14" transform="rotate(0,740,964)"/><path d="M 782 950v 28h 28v -14a 14 14, 0, 0, 0, -14 -14" transform="rotate(-90,796,964)"/><rect x="810" y="950" width="28" height="28" transform="rotate(0,824,964)"/><path d="M 838 950v 28h 28v -14a 14 14, 0, 0, 0, -14 -14" transform="rotate(90,852,964)"/><rect x="894" y="950" width="28" height="28" transform="rotate(0,908,964)"/><rect x="922" y="950" width="28" height="28" transform="rotate(0,936,964)"/><rect x="1034" y="950" width="28" height="28" transform="rotate(0,1048,964)"/><rect x="1062" y="950" width="28" height="28" transform="rotate(0,1076,964)"/><path d="M 1090 950v 28h 14a 14 14, 0, 0, 0, 0 -28" transform="rotate(0,1104,964)"/><rect x="1146" y="950" width="28" height="28" transform="rotate(0,1160,964)"/><path d="M 306 978v 28h 14a 14 14, 0, 0, 0, 0 -28" transform="rotate(180,320,992)"/><rect x="334" y="978" width="28" height="28" transform="rotate(0,348,992)"/><rect x="362" y="978" width="28" height="28" transform="rotate(0,376,992)"/><path d="M 390 978v 28h 14a 14 14, 0, 0, 0, 0 -28" transform="rotate(0,404,992)"/><circle cx="460" cy="992" r="14" transform="rotate(0,460,992)"/><path d="M 502 978v 28h 28v -14a 14 14, 0, 0, 0, -14 -14" transform="rotate(180,516,992)"/><path d="M 530 978v 28h 28v -14a 14 14, 0, 0, 0, -14 -14" transform="rotate(90,544,992)"/><path d="M 586 978v 28h 14a 14 14, 0, 0, 0, 0 -28" transform="rotate(-90,600,992)"/><rect x="670" y="978" width="28" height="28" transform="rotate(0,684,992)"/><path d="M 782 978v 28h 28v -14a 14 14, 0, 0, 0, -14 -14" transform="rotate(180,796,992)"/><rect x="810" y="978" width="28" height="28" transform="rotate(0,824,992)"/><path d="M 866 978v 28h 14a 14 14, 0, 0, 0, 0 -28" transform="rotate(180,880,992)"/><rect x="894" y="978" width="28" height="28" transform="rotate(0,908,992)"/><rect x="922" y="978" width="28" height="28" transform="rotate(0,936,992)"/><circle cx="992" cy="992" r="14" transform="rotate(0,992,992)"/><rect x="1034" y="978" width="28" height="28" transform="rotate(0,1048,992)"/><rect x="1062" y="978" width="28" height="28" transform="rotate(0,1076,992)"/><path d="M 1118 978v 28h 14a 14 14, 0, 0, 0, 0 -28" transform="rotate(180,1132,992)"/><rect x="1146" y="978" width="28" height="28" transform="rotate(0,1160,992)"/><path d="M 418 1006v 28h 14a 14 14, 0, 0, 0, 0 -28" transform="rotate(-90,432,1020)"/><circle cx="488" cy="1020" r="14" transform="rotate(0,488,1020)"/><rect x="586" y="1006" width="28" height="28" transform="rotate(0,600,1020)"/><path d="M 670 1006v 28h 14a 14 14, 0, 0, 0, 0 -28" transform="rotate(90,684,1020)"/><path d="M 754 1006v 28h 14a 14 14, 0, 0, 0, 0 -28" transform="rotate(-90,768,1020)"/><path d="M 810 1006v 28h 14a 14 14, 0, 0, 0, 0 -28" transform="rotate(90,824,1020)"/><rect x="894" y="1006" width="28" height="28" transform="rotate(0,908,1020)"/><rect x="922" y="1006" width="28" height="28" transform="rotate(0,936,1020)"/><rect x="1034" y="1006" width="28" height="28" transform="rotate(0,1048,1020)"/><path d="M 1062 1006v 28h 28v -14a 14 14, 0, 0, 0, -14 -14" transform="rotate(90,1076,1020)"/><rect x="1146" y="1006" width="28" height="28" transform="rotate(0,1160,1020)"/><path d="M 250 1034v 28h 14a 14 14, 0, 0, 0, 0 -28" transform="rotate(180,264,1048)"/><rect x="278" y="1034" width="28" height="28" transform="rotate(0,292,1048)"/><rect x="306" y="1034" width="28" height="28" transform="rotate(0,320,1048)"/><rect x="334" y="1034" width="28" height="28" transform="rotate(0,348,1048)"/><rect x="362" y="1034" width="28" height="28" transform="rotate(0,376,1048)"/><rect x="390" y="1034" width="28" height="28" transform="rotate(0,404,1048)"/><rect x="418" y="1034" width="28" height="28" transform="rotate(0,432,1048)"/><path d="M 446 1034v 28h 28v -14a 14 14, 0, 0, 0, -14 -14" transform="rotate(0,460,1048)"/><path d="M 530 1034v 28h 14a 14 14, 0, 0, 0, 0 -28" transform="rotate(-90,544,1048)"/><path d="M 586 1034v 28h 28v -14a 14 14, 0, 0, 0, -14 -14" transform="rotate(180,600,1048)"/><rect x="614" y="1034" width="28" height="28" transform="rotate(0,628,1048)"/><path d="M 642 1034v 28h 28v -14a 14 14, 0, 0, 0, -14 -14" transform="rotate(0,656,1048)"/><path d="M 698 1034v 28h 14a 14 14, 0, 0, 0, 0 -28" transform="rotate(180,712,1048)"/><rect x="726" y="1034" width="28" height="28" transform="rotate(0,740,1048)"/><path d="M 754 1034v 28h 28v -14a 14 14, 0, 0, 0, -14 -14" transform="rotate(90,768,1048)"/><rect x="894" y="1034" width="28" height="28" transform="rotate(0,908,1048)"/><rect x="922" y="1034" width="28" height="28" transform="rotate(0,936,1048)"/><rect x="950" y="1034" width="28" height="28" transform="rotate(0,964,1048)"/><rect x="978" y="1034" width="28" height="28" transform="rotate(0,992,1048)"/><rect x="1006" y="1034" width="28" height="28" transform="rotate(0,1020,1048)"/><path d="M 1034 1034v 28h 28v -14a 14 14, 0, 0, 0, -14 -14" transform="rotate(90,1048,1048)"/><path d="M 1146 1034v 28h 14a 14 14, 0, 0, 0, 0 -28" transform="rotate(90,1160,1048)"/><rect x="278" y="1062" width="28" height="28" transform="rotate(0,292,1076)"/><path d="M 390 1062v 28h 28v -14a 14 14, 0, 0, 0, -14 -14" transform="rotate(180,404,1076)"/><rect x="418" y="1062" width="28" height="28" transform="rotate(0,432,1076)"/><path d="M 446 1062v 28h 28v -14a 14 14, 0, 0, 0, -14 -14" transform="rotate(90,460,1076)"/><path d="M 530 1062v 28h 28v -14a 14 14, 0, 0, 0, -14 -14" transform="rotate(180,544,1076)"/><path d="M 558 1062v 28h 28v -14a 14 14, 0, 0, 0, -14 -14" transform="rotate(0,572,1076)"/><path d="M 614 1062v 28h 28v -14a 14 14, 0, 0, 0, -14 -14" transform="rotate(180,628,1076)"/><rect x="642" y="1062" width="28" height="28" transform="rotate(0,656,1076)"/><path d="M 670 1062v 28h 28v -14a 14 14, 0, 0, 0, -14 -14" transform="rotate(0,684,1076)"/><rect x="726" y="1062" width="28" height="28" transform="rotate(0,740,1076)"/><path d="M 782 1062v 28h 28v -14a 14 14, 0, 0, 0, -14 -14" transform="rotate(-90,796,1076)"/><rect x="810" y="1062" width="28" height="28" transform="rotate(0,824,1076)"/><rect x="838" y="1062" width="28" height="28" transform="rotate(0,852,1076)"/><rect x="866" y="1062" width="28" height="28" transform="rotate(0,880,1076)"/><rect x="894" y="1062" width="28" height="28" transform="rotate(0,908,1076)"/><path d="M 1006 1062v 28h 14a 14 14, 0, 0, 0, 0 -28" transform="rotate(90,1020,1076)"/><path d="M 1062 1062v 28h 14a 14 14, 0, 0, 0, 0 -28" transform="rotate(180,1076,1076)"/><path d="M 1090 1062v 28h 28v -14a 14 14, 0, 0, 0, -14 -14" transform="rotate(0,1104,1076)"/><path d="M 278 1090v 28h 28v -14a 14 14, 0, 0, 0, -14 -14" transform="rotate(180,292,1104)"/><path d="M 306 1090v 28h 28v -14a 14 14, 0, 0, 0, -14 -14" transform="rotate(0,320,1104)"/><rect x="418" y="1090" width="28" height="28" transform="rotate(0,432,1104)"/><path d="M 474 1090v 28h 28v -14a 14 14, 0, 0, 0, -14 -14" transform="rotate(-90,488,1104)"/><path d="M 502 1090v 28h 14a 14 14, 0, 0, 0, 0 -28" transform="rotate(0,516,1104)"/><path d="M 558 1090v 28h 14a 14 14, 0, 0, 0, 0 -28" transform="rotate(90,572,1104)"/><rect x="670" y="1090" width="28" height="28" transform="rotate(0,684,1104)"/><path d="M 726 1090v 28h 28v -14a 14 14, 0, 0, 0, -14 -14" transform="rotate(180,740,1104)"/><rect x="754" y="1090" width="28" height="28" transform="rotate(0,768,1104)"/><path d="M 782 1090v 28h 28v -14a 14 14, 0, 0, 0, -14 -14" transform="rotate(90,796,1104)"/><rect x="838" y="1090" width="28" height="28" transform="rotate(0,852,1104)"/><rect x="866" y="1090" width="28" height="28" transform="rotate(0,880,1104)"/><rect x="894" y="1090" width="28" height="28" transform="rotate(0,908,1104)"/><rect x="922" y="1090" width="28" height="28" transform="rotate(0,936,1104)"/><path d="M 950 1090v 28h 14a 14 14, 0, 0, 0, 0 -28" transform="rotate(0,964,1104)"/><path d="M 1090 1090v 28h 14a 14 14, 0, 0, 0, 0 -28" transform="rotate(90,1104,1104)"/><path d="M 1146 1090v 28h 14a 14 14, 0, 0, 0, 0 -28" transform="rotate(-90,1160,1104)"/><circle cx="264" cy="1132" r="14" transform="rotate(0,264,1132)"/><path d="M 306 1118v 28h 28v -14a 14 14, 0, 0, 0, -14 -14" transform="rotate(180,320,1132)"/><rect x="334" y="1118" width="28" height="28" transform="rotate(0,348,1132)"/><rect x="362" y="1118" width="28" height="28" transform="rotate(0,376,1132)"/><rect x="390" y="1118" width="28" height="28" transform="rotate(0,404,1132)"/><rect x="418" y="1118" width="28" height="28" transform="rotate(0,432,1132)"/><rect x="446" y="1118" width="28" height="28" transform="rotate(0,460,1132)"/><path d="M 474 1118v 28h 28v -14a 14 14, 0, 0, 0, -14 -14" transform="rotate(90,488,1132)"/><path d="M 642 1118v 28h 28v -14a 14 14, 0, 0, 0, -14 -14" transform="rotate(-90,656,1132)"/><path d="M 670 1118v 28h 28v -14a 14 14, 0, 0, 0, -14 -14" transform="rotate(90,684,1132)"/><path d="M 810 1118v 28h 28v -14a 14 14, 0, 0, 0, -14 -14" transform="rotate(-90,824,1132)"/><rect x="838" y="1118" width="28" height="28" transform="rotate(0,852,1132)"/><path d="M 894 1118v 28h 28v -14a 14 14, 0, 0, 0, -14 -14" transform="rotate(180,908,1132)"/><rect x="922" y="1118" width="28" height="28" transform="rotate(0,936,1132)"/><path d="M 1006 1118v 28h 14a 14 14, 0, 0, 0, 0 -28" transform="rotate(-90,1020,1132)"/><circle cx="1076" cy="1132" r="14" transform="rotate(0,1076,1132)"/><path d="M 1118 1118v 28h 28v -14a 14 14, 0, 0, 0, -14 -14" transform="rotate(-90,1132,1132)"/><path d="M 1146 1118v 28h 28v -14a 14 14, 0, 0, 0, -14 -14" transform="rotate(90,1160,1132)"/><circle cx="292" cy="1160" r="14" transform="rotate(0,292,1160)"/><path d="M 334 1146v 28h 14a 14 14, 0, 0, 0, 0 -28" transform="rotate(90,348,1160)"/><path d="M 390 1146v 28h 28v -14a 14 14, 0, 0, 0, -14 -14" transform="rotate(180,404,1160)"/><path d="M 418 1146v 28h 28v -14a 14 14, 0, 0, 0, -14 -14" transform="rotate(90,432,1160)"/><circle cx="544" cy="1160" r="14" transform="rotate(0,544,1160)"/><path d="M 586 1146v 28h 14a 14 14, 0, 0, 0, 0 -28" transform="rotate(180,600,1160)"/><rect x="614" y="1146" width="28" height="28" transform="rotate(0,628,1160)"/><path d="M 642 1146v 28h 28v -14a 14 14, 0, 0, 0, -14 -14" transform="rotate(90,656,1160)"/><circle cx="712" cy="1160" r="14" transform="rotate(0,712,1160)"/><path d="M 810 1146v 28h 28v -14a 14 14, 0, 0, 0, -14 -14" transform="rotate(180,824,1160)"/><path d="M 838 1146v 28h 28v -14a 14 14, 0, 0, 0, -14 -14" transform="rotate(90,852,1160)"/><path d="M 922 1146v 28h 14a 14 14, 0, 0, 0, 0 -28" transform="rotate(90,936,1160)"/><path d="M 978 1146v 28h 14a 14 14, 0, 0, 0, 0 -28" transform="rotate(180,992,1160)"/><rect x="1006" y="1146" width="28" height="28" transform="rotate(0,1020,1160)"/><path d="M 1034 1146v 28h 14a 14 14, 0, 0, 0, 0 -28" transform="rotate(0,1048,1160)"/><path d="M 1118 1146v 28h 14a 14 14, 0, 0, 0, 0 -28" transform="rotate(90,1132,1160)"/></clipPath><clipPath id="clip-path-corners-square-color-0-0-542"><path clip-rule="evenodd" d="M 26 96v 56a 70 70, 0, 0, 0, 70 70h 56a 70 70, 0, 0, 0, 70 -70v -56a 70 70, 0, 0, 0, -70 -70h -56a 70 70, 0, 0, 0, -70 70M 96 54h 56a 42 42, 0, 0, 1, 42 42v 56a 42 42, 0, 0, 1, -42 42h -56a 42 42, 0, 0, 1, -42 -42v -56a 42 42, 0, 0, 1, 42 -42" transform="rotate(0,124,124)"/></clipPath><clipPath id="clip-path-corners-dot-color-0-0-542"><circle cx="124" cy="124" r="42" transform="rotate(0,124,124)"/></clipPath><clipPath id="clip-path-corners-square-color-1-0-542"><path clip-rule="evenodd" d="M 978 96v 56a 70 70, 0, 0, 0, 70 70h 56a 70 70, 0, 0, 0, 70 -70v -56a 70 70, 0, 0, 0, -70 -70h -56a 70 70, 0, 0, 0, -70 70M 1048 54h 56a 42 42, 0, 0, 1, 42 42v 56a 42 42, 0, 0, 1, -42 42h -56a 42 42, 0, 0, 1, -42 -42v -56a 42 42, 0, 0, 1, 42 -42" transform="rotate(90,1076,124)"/></clipPath><clipPath id="clip-path-corners-dot-color-1-0-542"><circle cx="1076" cy="124" r="42" transform="rotate(90,1076,124)"/></clipPath><clipPath id="clip-path-corners-square-color-0-1-542"><path clip-rule="evenodd" d="M 26 1048v 56a 70 70, 0, 0, 0, 70 70h 56a 70 70, 0, 0, 0, 70 -70v -56a 70 70, 0, 0, 0, -70 -70h -56a 70 70, 0, 0, 0, -70 70M 96 1006h 56a 42 42, 0, 0, 1, 42 42v 56a 42 42, 0, 0, 1, -42 42h -56a 42 42, 0, 0, 1, -42 -42v -56a 42 42, 0, 0, 1, 42 -42" transform="rotate(-90,124,1076)"/></clipPath><clipPath id="clip-path-corners-dot-color-0-1-542"><circle cx="124" cy="1076" r="42" transform="rotate(-90,124,1076)"/></clipPath></defs><rect x="0" y="0" height="1200" width="1200" clip-path="url('#clip-path-background-color-542')" fill="#ffffff"/><rect x="0" y="0" height="1200" width="1200" clip-path="url('#clip-path-dot-color-542')" fill="#000000"/><rect x="26" y="26" height="196" width="196" clip-path="url('#clip-path-corners-square-color-0-0-542')" fill="#000000"/><rect x="82" y="82" height="84" width="84" clip-path="url('#clip-path-corners-dot-color-0-0-542')" fill="#000000"/><rect x="978" y="26" height="196" width="196" clip-path="url('#clip-path-corners-square-color-1-0-542')" fill="#000000"/><rect x="1034" y="82" height="84" width="84" clip-path="url('#clip-path-corners-dot-color-1-0-542')" fill="#000000"/><rect x="26" y="978" height="196" width="196" clip-path="url('#clip-path-corners-square-color-0-1-542')" fill="#000000"/><rect x="82" y="1034" height="84" width="84" clip-path="url('#clip-path-corners-dot-color-0-1-542')" fill="#000000"/></svg>