<?xml version="1.0" standalone="no"?>
<svg xmlns="http://www.w3.org/2000/svg" width="1200" height="1200" xmlns:xlink="http://www.w3.org/1999/xlink" viewBox="0 0 1200 1200"><defs><clipPath id="clip-path-background-color-544"><rect x="0" y="0" width="1200" height="1200"/></clipPath><clipPath id="clip-path-dot-color-544"><path d="M 296 8v 32h 32v -16a 16 16, 0, 0, 0, -16 -16" transform="rotate(-90,312,24)"/><path d="M 328 8v 32h 16a 16 16, 0, 0, 0, 0 -32" transform="rotate(0,344,24)"/><path d="M 424 8v 32h 16a 16 16, 0, 0, 0, 0 -32" transform="rotate(180,440,24)"/><path d="M 456 8v 32h 32v -16a 16 16, 0, 0, 0, -16 -16" transform="rotate(0,472,24)"/><path d="M 520 8v 32h 16a 16 16, 0, 0, 0, 0 -32" transform="rotate(180,536,24)"/><path d="M 552 8v 32h 16a 16 16, 0, 0, 0, 0 -32" transform="rotate(0,568,24)"/><path d="M 680 8v 32h 16a 16 16, 0, 0, 0, 0 -32" transform="rotate(180,696,24)"/><path d="M 712 8v 32h 32v -16a 16 16, 0, 0, 0, -16 -16" transform="rotate(0,728,24)"/><path d="M 776 8v 32h 16a 16 16, 0, 0, 0, 0 -32" transform="rotate(-90,792,24)"/><path d="M 264 40v 32h 32v -16a 16 16, 0, 0, 0, -16 -16" transform="rotate(-90,280,56)"/><rect x="296" y="40" width="32" height="32" transform="rotate(0,312,56)"/><rect x="456" y="40" width="32" height="32" transform="rotate(0,472,56)"/><path d="M 488 40v 32h 16a 16 16, 0, 0, 0, 0 -32" transform="rotate(0,504,56)"/><path d="M 648 40v 32h 16a 16 16, 0, 0, 0, 0 -32" transform="rotate(-90,664,56)"/><rect x="712" y="40" width="32" height="32" transform="rotate(0,728,56)"/><rect x="744" y="40" width="32" height="32" transform="rotate(0,760,56)"/><rect x="776" y="40" width="32" height="32" transform="rotate(0,792,56)"/><path d="M 808 40v 32h 32v -16a 16 16, 0, 0, 0, -16 -16" transform="rotate(0,824,56)"/><circle cx="920" cy="56" r="16" transform="rotate(0,920,56)"/><path d="M 264 72v 32h 32v -16a 16 16, 0, 0, 0, -16 -16" transform="rotate(180,280,88)"/><rect x="296" y="72" width="32" height="32" transform="rotate(0,312,88)"/><path d="M 328 72v 32h 16a 16 16, 0, 0, 0, 0 -32" transform="rotate(0,344,88)"/><circle cx="408" cy="88" r="16" transform="rotate(0,408,88)"/><rect x="456" y="72" width="32" height="32" transform="rotate(0,472,88)"/><path d="M 520 72v 32h 16a 16 16, 0, 0, 0, 0 -32" transform="rotate(-90,536,88)"/><path d="M 584 72v 32h 32v -16a 16 16, 0, 0, 0, -16 -16" transform="rotate(-90,600,88)"/><rect x="616" y="72" width="32" height="32" transform="rotate(0,632,88)"/><path d="M 648 72v 32h 32v -16a 16 16, 0, 0, 0, -16 -16" transform="rotate(90,664,88)"/><rect x="712" y="72" width="32" height="32" transform="rotate(0,728,88)"/><rect x="808" y="72" width="32" height="32" transform="rotate(0,824,88)"/><path d="M 840 72v 32h 32v -16a 16 16, 0, 0, 0, -16 -16" transform="rotate(0,856,88)"/><path d="M 424 104v 32h 32v -16a 16 16, 0, 0, 0, -16 -16" transform="rotate(-90,440,120)"/><path d="M 456 104v 32h 32v -16a 16 16, 0, 0, 0, -16 -16" transform="rotate(90,472,120)"/><rect x="520" y="104" width="32" height="32" transform="rotate(0,536,120)"/><rect x="584" y="104" width="32" height="32" transform="rotate(0,600,120)"/><rect x="712" y="104" width="32" height="32" transform="rotate(0,728,120)"/><path d="M 776 104v 32h 32v -16a 16 16, 0, 0, 0, -16 -16" transform="rotate(-90,792,120)"/><rect x="808" y="104" width="32" height="32" transform="rotate(0,824,120)"/><rect x="840" y="104" width="32" height="32" transform="rotate(0,856,120)"/><path d="M 296 136v 32h 16a 16 16, 0, 0, 0, 0 -32" transform="rotate(-90,312,152)"/><circle cx="376" cy="152" r="16" transform="rotate(0,376,152)"/><path d="M 424 136v 32h 16a 16 16, 0, 0, 0, 0 -32" transform="rotate(90,440,152)"/><path d="M 520 136v 32h 16a 16 16, 0, 0, 0, 0 -32" transform="rotate(90,536,152)"/><path d="M 584 136v 32h 32v -16a 16 16, 0, 0, 0, -16 -16" transform="rotate(180,600,152)"/><path d="M 616 136v 32h 32v -16a 16 16, 0, 0, 0, -16 -16" transform="rotate(0,632,152)"/><path d="M 712 136v 32h 16a 16 16, 0, 0, 0, 0 -32" transform="rotate(90,728,152)"/><rect x="776" y="136" width="32" height="32" transform="rotate(0,792,152)"/><path d="M 840 136v 32h 32v -16a 16 16, 0, 0, 0, -16 -16" transform="rotate(180,856,152)"/><path d="M 872 136v 32h 16a 16 16, 0, 0, 0, 0 -32" transform="rotate(0,888,152)"/><path d="M 296 168v 32h 32v -16a 16 16, 0, 0, 0, -16 -16" transform="rotate(180,312,184)"/><path d="M 328 168v 32h 32v -16a 16 16, 0, 0, 0, -16 -16" transform="rotate(0,344,184)"/><circle cx="568" cy="184" r="16" transform="rotate(0,568,184)"/><path d="M 616 168v 32h 16a 16 16, 0, 0, 0, 0 -32" transform="rotate(90,632,184)"/><rect x="776" y="168" width="32" height="32" transform="rotate(0,792,184)"/><path d="M 808 168v 32h 16a 16 16, 0, 0, 0, 0 -32" transform="rotate(0,824,184)"/><circle cx="280" cy="216" r="16" transform="rotate(0,280,216)"/><path d="M 328 200v 32h 16a 16 16, 0, 0, 0, 0 -32" transform="rotate(90,344,216)"/><circle cx="408" cy="216" r="16" transform="rotate(0,408,216)"/><circle cx="472" cy="216" r="16" transform="rotate(0,472,216)"/><circle cx="536" cy="216" r="16" transform="rotate(0,536,216)"/><circle cx="600" cy="216" r="16" transform="rotate(0,600,216)"/><circle cx="664" cy="216" r="16" transform="rotate(0,664,216)"/><path d="M 712 200v 32h 16a 16 16, 0, 0, 0, 0 -32" transform="rotate(-90,728,216)"/><rect x="776" y="200" width="32" height="32" transform="rotate(0,792,216)"/><circle cx="856" cy="216" r="16" transform="rotate(0,856,216)"/><path d="M 904 200v 32h 16a 16 16, 0, 0, 0, 0 -32" transform="rotate(-90,920,216)"/><path d="M 360 232v 32h 16a 16 16, 0, 0, 0, 0 -32" transform="rotate(-90,376,248)"/><circle cx="504" cy="248" r="16" transform="rotate(0,504,248)"/><path d="M 552 232v 32h 16a 16 16, 0, 0, 0, 0 -32" transform="rotate(-90,568,248)"/><path d="M 616 232v 32h 16a 16 16, 0, 0, 0, 0 -32" transform="rotate(-90,632,248)"/><path d="M 712 232v 32h 32v -16a 16 16, 0, 0, 0, -16 -16" transform="rotate(180,728,248)"/><rect x="744" y="232" width="32" height="32" transform="rotate(0,760,248)"/><path d="M 776 232v 32h 32v -16a 16 16, 0, 0, 0, -16 -16" transform="rotate(90,792,248)"/><path d="M 872 232v 32h 32v -16a 16 16, 0, 0, 0, -16 -16" transform="rotate(-90,888,248)"/><rect x="904" y="232" width="32" height="32" transform="rotate(0,920,248)"/><path d="M 40 264v 32h 16a 16 16, 0, 0, 0, 0 -32" transform="rotate(180,56,280)"/><rect x="72" y="264" width="32" height="32" transform="rotate(0,88,280)"/><path d="M 104 264v 32h 16a 16 16, 0, 0, 0, 0 -32" transform="rotate(0,120,280)"/><path d="M 168 264v 32h 16a 16 16, 0, 0, 0, 0 -32" transform="rotate(180,184,280)"/><path d="M 200 264v 32h 16a 16 16, 0, 0, 0, 0 -32" transform="rotate(0,216,280)"/><path d="M 296 264v 32h 32v -16a 16 16, 0, 0, 0, -16 -16" transform="rotate(-90,312,280)"/><rect x="328" y="264" width="32" height="32" transform="rotate(0,344,280)"/><rect x="360" y="264" width="32" height="32" transform="rotate(0,376,280)"/><path d="M 424 264v 32h 16a 16 16, 0, 0, 0, 0 -32" transform="rotate(-90,440,280)"/><rect x="552" y="264" width="32" height="32" transform="rotate(0,568,280)"/><rect x="616" y="264" width="32" height="32" transform="rotate(0,632,280)"/><rect x="648" y="264" width="32" height="32" transform="rotate(0,664,280)"/><path d="M 680 264v 32h 32v -16a 16 16, 0, 0, 0, -16 -16" transform="rotate(0,696,280)"/><path d="M 808 264v 32h 16a 16 16, 0, 0, 0, 0 -32" transform="rotate(-90,824,280)"/><rect x="872" y="264" width="32" height="32" transform="rotate(0,888,280)"/><rect x="904" y="264" width="32" height="32" transform="rotate(0,920,280)"/><path d="M 1096 264v 32h 32v -16a 16 16, 0, 0, 0, -16 -16" transform="rotate(-90,1112,280)"/><path d="M 1128 264v 32h 16a 16 16, 0, 0, 0, 0 -32" transform="rotate(0,1144,280)"/><path d="M 72 296v 32h 16a 16 16, 0, 0, 0, 0 -32" transform="rotate(90,88,312)"/><path d="M 232 296v 32h 16a 16 16, 0, 0, 0, 0 -32" transform="rotate(180,248,312)"/><rect x="264" y="296" width="32" height="32" transform="rotate(0,280,312)"/><rect x="296" y="296" width="32" height="32" transform="rotate(0,312,312)"/><rect x="328" y="296" width="32" height="32" transform="rotate(0,344,312)"/><rect x="360" y="296" width="32" height="32" transform="rotate(0,376,312)"/><path d="M 424 296v 32h 32v -16a 16 16, 0, 0, 0, -16 -16" transform="rotate(180,440,312)"/><rect x="456" y="296" width="32" height="32" transform="rotate(0,472,312)"/><rect x="488" y="296" width="32" height="32" transform="rotate(0,504,312)"/><rect x="520" y="296" width="32" height="32" transform="rotate(0,536,312)"/><rect x="552" y="296" width="32" height="32" transform="rotate(0,568,312)"/><rect x="616" y="296" width="32" height="32" transform="rotate(0,632,312)"/><rect x="680" y="296" width="32" height="32" transform="rotate(0,696,312)"/><rect x="712" y="296" width="32" height="32" transform="rotate(0,728,312)"/><path d="M 744 296v 32h 32v -16a 16 16, 0, 0, 0, -16 -16" transform="rotate(0,760,312)"/><rect x="808" y="296" width="32" height="32" transform="rotate(0,824,312)"/><rect x="840" y="296" width="32" height="32" transform="rotate(0,856,312)"/><rect x="872" y="296" width="32" height="32" transform="rotate(0,888,312)"/><path d="M 904 296v 32h 32v -16a 16 16, 0, 0, 0, -16 -16" transform="rotate(90,920,312)"/><circle cx="984" cy="312" r="16" transform="rotate(0,984,312)"/><path d="M 1064 296v 32h 32v -16a 16 16, 0, 0, 0, -16 -16" transform="rotate(-90,1080,312)"/><path d="M 1096 296v 32h 32v -16a 16 16, 0, 0, 0, -16 -16" transform="rotate(90,1112,312)"/><path d="M 8 328v 32h 32v -16a 16 16, 0, 0, 0, -16 -16" transform="rotate(-90,24,344)"/><path d="M 40 328v 32h 16a 16 16, 0, 0, 0, 0 -32" transform="rotate(0,56,344)"/><circle cx="216" cy="344" r="16" transform="rotate(0,216,344)"/><path d="M 296 328v 32h 16a 16 16, 0, 0, 0, 0 -32" transform="rotate(90,312,344)"/><path d="M 360 328v 32h 32v -16a 16 16, 0, 0, 0, -16 -16" transform="rotate(180,376,344)"/><path d="M 392 328v 32h 16a 16 16, 0, 0, 0, 0 -32" transform="rotate(0,408,344)"/><path d="M 520 328v 32h 32v -16a 16 16, 0, 0, 0, -16 -16" transform="rotate(180,536,344)"/><rect x="552" y="328" width="32" height="32" transform="rotate(0,568,344)"/><rect x="584" y="328" width="32" height="32" transform="rotate(0,600,344)"/><rect x="616" y="328" width="32" height="32" transform="rotate(0,632,344)"/><path d="M 680 328v 32h 32v -16a 16 16, 0, 0, 0, -16 -16" transform="rotate(180,696,344)"/><rect x="712" y="328" width="32" height="32" transform="rotate(0,728,344)"/><rect x="744" y="328" width="32" height="32" transform="rotate(0,760,344)"/><rect x="776" y="328" width="32" height="32" transform="rotate(0,792,344)"/><rect x="808" y="328" width="32" height="32" transform="rotate(0,824,344)"/><rect x="872" y="328" width="32" height="32" transform="rotate(0,888,344)"/><circle cx="952" cy="344" r="16" transform="rotate(0,952,344)"/><path d="M 1000 328v 32h 16a 16 16, 0, 0, 0, 0 -32" transform="rotate(-90,1016,344)"/><rect x="1064" y="328" width="32" height="32" transform="rotate(0,1080,344)"/><rect x="8" y="360" width="32" height="32" transform="rotate(0,24,376)"/><path d="M 72 360v 32h 16a 16 16, 0, 0, 0, 0 -32" transform="rotate(-90,88,376)"/><circle cx="184" cy="376" r="16" transform="rotate(0,184,376)"/><path d="M 232 360v 32h 16a 16 16, 0, 0, 0, 0 -32" transform="rotate(180,248,376)"/><path d="M 264 360v 32h 32v -16a 16 16, 0, 0, 0, -16 -16" transform="rotate(0,280,376)"/><circle cx="344" cy="376" r="16" transform="rotate(0,344,376)"/><circle cx="440" cy="376" r="16" transform="rotate(0,440,376)"/><rect x="552" y="360" width="32" height="32" transform="rotate(0,568,376)"/><path d="M 616 360v 32h 32v -16a 16 16, 0, 0, 0, -16 -16" transform="rotate(180,632,376)"/><path d="M 648 360v 32h 32v -16a 16 16, 0, 0, 0, -16 -16" transform="rotate(0,664,376)"/><rect x="712" y="360" width="32" height="32" transform="rotate(0,728,376)"/><path d="M 744 360v 32h 32v -16a 16 16, 0, 0, 0, -16 -16" transform="rotate(90,760,376)"/><rect x="808" y="360" width="32" height="32" transform="rotate(0,824,376)"/><rect x="840" y="360" width="32" height="32" transform="rotate(0,856,376)"/><path d="M 872 360v 32h 32v -16a 16 16, 0, 0, 0, -16 -16" transform="rotate(90,888,376)"/><path d="M 1000 360v 32h 16a 16 16, 0, 0, 0, 0 -32" transform="rotate(90,1016,376)"/><path d="M 1064 360v 32h 32v -16a 16 16, 0, 0, 0, -16 -16" transform="rotate(180,1080,376)"/><rect x="1096" y="360" width="32" height="32" transform="rotate(0,1112,376)"/><rect x="1128" y="360" width="32" height="32" transform="rotate(0,1144,376)"/><path d="M 1160 360v 32h 32v -16a 16 16, 0, 0, 0, -16 -16" transform="rotate(0,1176,376)"/><rect x="8" y="392" width="32" height="32" transform="rotate(0,24,408)"/><rect x="40" y="392" width="32" height="32" transform="rotate(0,56,408)"/><rect x="72" y="392" width="32" height="32" transform="rotate(0,88,408)"/><path d="M 104 392v 32h 32v -16a 16 16, 0, 0, 0, -16 -16" transform="rotate(0,120,408)"/><circle cx="216" cy="408" r="16" transform="rotate(0,216,408)"/><rect x="264" y="392" width="32" height="32" transform="rotate(0,280,408)"/><path d="M 296 392v 32h 16a 16 16, 0, 0, 0, 0 -32" transform="rotate(0,312,408)"/><path d="M 360 392v 32h 32v -16a 16 16, 0, 0, 0, -16 -16" transform="rotate(-90,376,408)"/><path d="M 392 392v 32h 32v -16a 16 16, 0, 0, 0, -16 -16" transform="rotate(0,408,408)"/><path d="M 456 392v 32h 16a 16 16, 0, 0, 0, 0 -32" transform="rotate(-90,472,408)"/><path d="M 520 392v 32h 32v -16a 16 16, 0, 0, 0, -16 -16" transform="rotate(-90,536,408)"/><rect x="552" y="392" width="32" height="32" transform="rotate(0,568,408)"/><path d="M 648 392v 32h 16a 16 16, 0, 0, 0, 0 -32" transform="rotate(90,664,408)"/><path d="M 712 392v 32h 16a 16 16, 0, 0, 0, 0 -32" transform="rotate(90,728,408)"/><rect x="808" y="392" width="32" height="32" transform="rotate(0,824,408)"/><rect x="840" y="392" width="32" height="32" transform="rotate(0,856,408)"/><path d="M 904 392v 32h 32v -16a 16 16, 0, 0, 0, -16 -16" transform="rotate(-90,920,408)"/><rect x="936" y="392" width="32" height="32" transform="rotate(0,952,408)"/><path d="M 968 392v 32h 32v -16a 16 16, 0, 0, 0, -16 -16" transform="rotate(0,984,408)"/><path d="M 1032 392v 32h 16a 16 16, 0, 0, 0, 0 -32" transform="rotate(-90,1048,408)"/><rect x="1096" y="392" width="32" height="32" transform="rotate(0,1112,408)"/><rect x="1160" y="392" width="32" height="32" transform="rotate(0,1176,408)"/><path d="M 8 424v 32h 16a 16 16, 0, 0, 0, 0 -32" transform="rotate(90,24,440)"/><path d="M 104 424v 32h 32v -16a 16 16, 0, 0, 0, -16 -16" transform="rotate(180,120,440)"/><rect x="136" y="424" width="32" height="32" transform="rotate(0,152,440)"/><path d="M 168 424v 32h 32v -16a 16 16, 0, 0, 0, -16 -16" transform="rotate(0,184,440)"/><path d="M 232 424v 32h 16a 16 16, 0, 0, 0, 0 -32" transform="rotate(180,248,440)"/><rect x="264" y="424" width="32" height="32" transform="rotate(0,280,440)"/><path d="M 328 424v 32h 32v -16a 16 16, 0, 0, 0, -16 -16" transform="rotate(-90,344,440)"/><rect x="360" y="424" width="32" height="32" transform="rotate(0,376,440)"/><path d="M 392 424v 32h 32v -16a 16 16, 0, 0, 0, -16 -16" transform="rotate(90,408,440)"/><rect x="456" y="424" width="32" height="32" transform="rotate(0,472,440)"/><rect x="520" y="424" width="32" height="32" transform="rotate(0,536,440)"/><rect x="552" y="424" width="32" height="32" transform="rotate(0,568,440)"/><path d="M 680 424v 32h 16a 16 16, 0, 0, 0, 0 -32" transform="rotate(-90,696,440)"/><path d="M 776 424v 32h 16a 16 16, 0, 0, 0, 0 -32" transform="rotate(180,792,440)"/><rect x="808" y="424" width="32" height="32" transform="rotate(0,824,440)"/><rect x="840" y="424" width="32" height="32" transform="rotate(0,856,440)"/><rect x="872" y="424" width="32" height="32" transform="rotate(0,888,440)"/><path d="M 904 424v 32h 32v -16a 16 16, 0, 0, 0, -16 -16" transform="rotate(90,920,440)"/><rect x="968" y="424" width="32" height="32" transform="rotate(0,984,440)"/><path d="M 1032 424v 32h 16a 16 16, 0, 0, 0, 0 -32" transform="rotate(90,1048,440)"/><rect x="1096" y="424" width="32" height="32" transform="rotate(0,1112,440)"/><rect x="1128" y="424" width="32" height="32" transform="rotate(0,1144,440)"/><path d="M 1160 424v 32h 32v -16a 16 16, 0, 0, 0, -16 -16" transform="rotate(90,1176,440)"/><circle cx="56" cy="472" r="16" transform="rotate(0,56,472)"/><path d="M 168 456v 32h 32v -16a 16 16, 0, 0, 0, -16 -16" transform="rotate(180,184,472)"/><path d="M 200 456v 32h 16a 16 16, 0, 0, 0, 0 -32" transform="rotate(0,216,472)"/><path d="M 264 456v 32h 16a 16 16, 0, 0, 0, 0 -32" transform="rotate(90,280,472)"/><path d="M 328 456v 32h 16a 16 16, 0, 0, 0, 0 -32" transform="rotate(90,344,472)"/><path d="M 424 456v 32h 16a 16 16, 0, 0, 0, 0 -32" transform="rotate(180,440,472)"/><rect x="456" y="456" width="32" height="32" transform="rotate(0,472,472)"/><rect x="488" y="456" width="32" height="32" transform="rotate(0,504,472)"/><rect x="520" y="456" width="32" height="32" transform="rotate(0,536,472)"/><path d="M 552 456v 32h 32v -16a 16 16, 0, 0, 0, -16 -16" transform="rotate(90,568,472)"/><path d="M 648 456v 32h 32v -16a 16 16, 0, 0, 0, -16 -16" transform="rotate(-90,664,472)"/><path d="M 680 456v 32h 32v -16a 16 16, 0, 0, 0, -16 -16" transform="rotate(90,696,472)"/><rect x="840" y="456" width="32" height="32" transform="rotate(0,856,472)"/><path d="M 936 456v 32h 16a 16 16, 0, 0, 0, 0 -32" transform="rotate(180,952,472)"/><rect x="968" y="456" width="32" height="32" transform="rotate(0,984,472)"/><path d="M 1000 456v 32h 32v -16a 16 16, 0, 0, 0, -16 -16" transform="rotate(0,1016,472)"/><path d="M 1096 456v 32h 32v -16a 16 16, 0, 0, 0, -16 -16" transform="rotate(180,1112,472)"/><rect x="1128" y="456" width="32" height="32" transform="rotate(0,1144,472)"/><path d="M 72 488v 32h 16a 16 16, 0, 0, 0, 0 -32" transform="rotate(-90,88,504)"/><path d="M 136 488v 32h 16a 16 16, 0, 0, 0, 0 -32" transform="rotate(-90,152,504)"/><path d="M 232 488v 32h 16a 16 16, 0, 0, 0, 0 -32" transform="rotate(-90,248,504)"/><path d="M 296 488v 32h 16a 16 16, 0, 0, 0, 0 -32" transform="rotate(-90,312,504)"/><circle cx="408" cy="504" r="16" transform="rotate(0,408,504)"/><path d="M 456 488v 32h 16a 16 16, 0, 0, 0, 0 -32" transform="rotate(90,472,504)"/><circle cx="600" cy="504" r="16" transform="rotate(0,600,504)"/><rect x="648" y="488" width="32" height="32" transform="rotate(0,664,504)"/><path d="M 840 488v 32h 16a 16 16, 0, 0, 0, 0 -32" transform="rotate(90,856,504)"/><circle cx="920" cy="504" r="16" transform="rotate(0,920,504)"/><path d="M 1000 488v 32h 16a 16 16, 0, 0, 0, 0 -32" transform="rotate(90,1016,504)"/><path d="M 1128 488v 32h 32v -16a 16 16, 0, 0, 0, -16 -16" transform="rotate(180,1144,504)"/><path d="M 1160 488v 32h 16a 16 16, 0, 0, 0, 0 -32" transform="rotate(0,1176,504)"/><path d="M 8 520v 32h 16a 16 16, 0, 0, 0, 0 -32" transform="rotate(-90,24,536)"/><rect x="72" y="520" width="32" height="32" transform="rotate(0,88,536)"/><rect x="104" y="520" width="32" height="32" transform="rotate(0,120,536)"/><rect x="136" y="520" width="32" height="32" transform="rotate(0,152,536)"/><rect x="168" y="520" width="32" height="32" transform="rotate(0,184,536)"/><rect x="200" y="520" width="32" height="32" transform="rotate(0,216,536)"/><path d="M 232 520v 32h 32v -16a 16 16, 0, 0, 0, -16 -16" transform="rotate(90,248,536)"/><path d="M 296 520v 32h 16a 16 16, 0, 0, 0, 0 -32" transform="rotate(90,312,536)"/><path d="M 360 520v 32h 16a 16 16, 0, 0, 0, 0 -32" transform="rotate(-90,376,536)"/><path d="M 488 520v 32h 16a 16 16, 0, 0, 0, 0 -32" transform="rotate(-90,504,536)"/><path d="M 616 520v 32h 32v -16a 16 16, 0, 0, 0, -16 -16" transform="rotate(-90,632,536)"/><path d="M 648 520v 32h 32v -16a 16 16, 0, 0, 0, -16 -16" transform="rotate(90,664,536)"/><path d="M 712 520v 32h 16a 16 16, 0, 0, 0, 0 -32" transform="rotate(-90,728,536)"/><path d="M 808 520v 32h 16a 16 16, 0, 0, 0, 0 -32" transform="rotate(-90,824,536)"/><path d="M 872 520v 32h 16a 16 16, 0, 0, 0, 0 -32" transform="rotate(-90,888,536)"/><path d="M 1064 520v 32h 32v -16a 16 16, 0, 0, 0, -16 -16" transform="rotate(-90,1080,536)"/><path d="M 1096 520v 32h 32v -16a 16 16, 0, 0, 0, -16 -16" transform="rotate(0,1112,536)"/><rect x="8" y="552" width="32" height="32" transform="rotate(0,24,568)"/><rect x="40" y="552" width="32" height="32" transform="rotate(0,56,568)"/><rect x="72" y="552" width="32" height="32" transform="rotate(0,88,568)"/><rect x="104" y="552" width="32" height="32" transform="rotate(0,120,568)"/><rect x="136" y="552" width="32" height="32" transform="rotate(0,152,568)"/><path d="M 168 552v 32h 32v -16a 16 16, 0, 0, 0, -16 -16" transform="rotate(90,184,568)"/><path d="M 264 552v 32h 16a 16 16, 0, 0, 0, 0 -32" transform="rotate(-90,280,568)"/><path d="M 328 552v 32h 16a 16 16, 0, 0, 0, 0 -32" transform="rotate(180,344,568)"/><path d="M 360 552v 32h 32v -16a 16 16, 0, 0, 0, -16 -16" transform="rotate(90,376,568)"/><rect x="488" y="552" width="32" height="32" transform="rotate(0,504,568)"/><rect x="520" y="552" width="32" height="32" transform="rotate(0,536,568)"/><rect x="552" y="552" width="32" height="32" transform="rotate(0,568,568)"/><rect x="584" y="552" width="32" height="32" transform="rotate(0,600,568)"/><path d="M 616 552v 32h 32v -16a 16 16, 0, 0, 0, -16 -16" transform="rotate(90,632,568)"/><rect x="712" y="552" width="32" height="32" transform="rotate(0,728,568)"/><path d="M 776 552v 32h 32v -16a 16 16, 0, 0, 0, -16 -16" transform="rotate(-90,792,568)"/><path d="M 808 552v 32h 32v -16a 16 16, 0, 0, 0, -16 -16" transform="rotate(90,824,568)"/><rect x="872" y="552" width="32" height="32" transform="rotate(0,888,568)"/><path d="M 968 552v 32h 16a 16 16, 0, 0, 0, 0 -32" transform="rotate(180,984,568)"/><path d="M 1000 552v 32h 32v -16a 16 16, 0, 0, 0, -16 -16" transform="rotate(0,1016,568)"/><rect x="1064" y="552" width="32" height="32" transform="rotate(0,1080,568)"/><rect x="1096" y="552" width="32" height="32" transform="rotate(0,1112,568)"/><path d="M 1160 552v 32h 16a 16 16, 0, 0, 0, 0 -32" transform="rotate(-90,1176,568)"/><path d="M 8 584v 32h 16a 16 16, 0, 0, 0, 0 -32" transform="rotate(90,24,600)"/><path d="M 72 584v 32h 16a 16 16, 0, 0, 0, 0 -32" transform="rotate(90,88,600)"/><circle cx="216" cy="600" r="16" transform="rotate(0,216,600)"/><path d="M 264 584v 32h 32v -16a 16 16, 0, 0, 0, -16 -16" transform="rotate(180,280,600)"/><path d="M 296 584v 32h 16a 16 16, 0, 0, 0, 0 -32" transform="rotate(0,312,600)"/><path d="M 456 584v 32h 16a 16 16, 0, 0, 0, 0 -32" transform="rotate(180,472,600)"/><rect x="488" y="584" width="32" height="32" transform="rotate(0,504,600)"/><rect x="520" y="584" width="32" height="32" transform="rotate(0,536,600)"/><path d="M 552 584v 32h 32v -16a 16 16, 0, 0, 0, -16 -16" transform="rotate(90,568,600)"/><path d="M 680 584v 32h 16a 16 16, 0, 0, 0, 0 -32" transform="rotate(180,696,600)"/><rect x="712" y="584" width="32" height="32" transform="rotate(0,728,600)"/><rect x="744" y="584" width="32" height="32" transform="rotate(0,760,600)"/><rect x="776" y="584" width="32" height="32" transform="rotate(0,792,600)"/><path d="M 840 584v 32h 16a 16 16, 0, 0, 0, 0 -32" transform="rotate(180,856,600)"/><rect x="872" y="584" width="32" height="32" transform="rotate(0,888,600)"/><rect x="904" y="584" width="32" height="32" transform="rotate(0,920,600)"/><path d="M 936 584v 32h 16a 16 16, 0, 0, 0, 0 -32" transform="rotate(0,952,600)"/><path d="M 1000 584v 32h 16a 16 16, 0, 0, 0, 0 -32" transform="rotate(90,1016,600)"/><rect x="1064" y="584" width="32" height="32" transform="rotate(0,1080,600)"/><rect x="1096" y="584" width="32" height="32" transform="rotate(0,1112,600)"/><rect x="1128" y="584" width="32" height="32" transform="rotate(0,1144,600)"/><path d="M 1160 584v 32h 32v -16a 16 16, 0, 0, 0, -16 -16" transform="rotate(90,1176,600)"/><circle cx="56" cy="632" r="16" transform="rotate(0,56,632)"/><path d="M 104 616v 32h 16a 16 16, 0, 0, 0, 0 -32" transform="rotate(-90,120,632)"/><circle cx="184" cy="632" r="16" transform="rotate(0,184,632)"/><circle cx="408" cy="632" r="16" transform="rotate(0,408,632)"/><path d="M 520 616v 32h 16a 16 16, 0, 0, 0, 0 -32" transform="rotate(90,536,632)"/><circle cx="632" cy="632" r="16" transform="rotate(0,632,632)"/><path d="M 712 616v 32h 16a 16 16, 0, 0, 0, 0 -32" transform="rotate(90,728,632)"/><rect x="776" y="616" width="32" height="32" transform="rotate(0,792,632)"/><rect x="872" y="616" width="32" height="32" transform="rotate(0,888,632)"/><rect x="904" y="616" width="32" height="32" transform="rotate(0,920,632)"/><path d="M 1064 616v 32h 16a 16 16, 0, 0, 0, 0 -32" transform="rotate(90,1080,632)"/><path d="M 8 648v 32h 16a 16 16, 0, 0, 0, 0 -32" transform="rotate(-90,24,664)"/><rect x="104" y="648" width="32" height="32" transform="rotate(0,120,664)"/><circle cx="216" cy="664" r="16" transform="rotate(0,216,664)"/><path d="M 296 648v 32h 32v -16a 16 16, 0, 0, 0, -16 -16" transform="rotate(-90,312,664)"/><path d="M 328 648v 32h 16a 16 16, 0, 0, 0, 0 -32" transform="rotate(0,344,664)"/><circle cx="440" cy="664" r="16" transform="rotate(0,440,664)"/><path d="M 584 648v 32h 16a 16 16, 0, 0, 0, 0 -32" transform="rotate(-90,600,664)"/><path d="M 648 648v 32h 32v -16a 16 16, 0, 0, 0, -16 -16" transform="rotate(-90,664,664)"/><path d="M 680 648v 32h 32v -16a 16 16, 0, 0, 0, -16 -16" transform="rotate(0,696,664)"/><path d="M 744 648v 32h 32v -16a 16 16, 0, 0, 0, -16 -16" transform="rotate(-90,760,664)"/><path d="M 776 648v 32h 32v -16a 16 16, 0, 0, 0, -16 -16" transform="rotate(90,792,664)"/><path d="M 840 648v 32h 32v -16a 16 16, 0, 0, 0, -16 -16" transform="rotate(-90,856,664)"/><rect x="872" y="648" width="32" height="32" transform="rotate(0,888,664)"/><rect x="904" y="648" width="32" height="32" transform="rotate(0,920,664)"/><path d="M 936 648v 32h 32v -16a 16 16, 0, 0, 0, -16 -16" transform="rotate(0,952,664)"/><circle cx="1048" cy="664" r="16" transform="rotate(0,1048,664)"/><rect x="8" y="680" width="32" height="32" transform="rotate(0,24,696)"/><path d="M 40 680v 32h 32v -16a 16 16, 0, 0, 0, -16 -16" transform="rotate(0,56,696)"/><path d="M 104 680v 32h 32v -16a 16 16, 0, 0, 0, -16 -16" transform="rotate(180,120,696)"/><path d="M 136 680v 32h 32v -16a 16 16, 0, 0, 0, -16 -16" transform="rotate(0,152,696)"/><path d="M 264 680v 32h 32v -16a 16 16, 0, 0, 0, -16 -16" transform="rotate(-90,280,696)"/><path d="M 296 680v 32h 32v -16a 16 16, 0, 0, 0, -16 -16" transform="rotate(90,312,696)"/><circle cx="376" cy="696" r="16" transform="rotate(0,376,696)"/><circle cx="472" cy="696" r="16" transform="rotate(0,472,696)"/><path d="M 520 680v 32h 32v -16a 16 16, 0, 0, 0, -16 -16" transform="rotate(-90,536,696)"/><rect x="552" y="680" width="32" height="32" transform="rotate(0,568,696)"/><rect x="584" y="680" width="32" height="32" transform="rotate(0,600,696)"/><path d="M 648 680v 32h 32v -16a 16 16, 0, 0, 0, -16 -16" transform="rotate(180,664,696)"/><rect x="680" y="680" width="32" height="32" transform="rotate(0,696,696)"/><rect x="712" y="680" width="32" height="32" transform="rotate(0,728,696)"/><rect x="744" y="680" width="32" height="32" transform="rotate(0,760,696)"/><path d="M 808 680v 32h 32v -16a 16 16, 0, 0, 0, -16 -16" transform="rotate(-90,824,696)"/><path d="M 840 680v 32h 32v -16a 16 16, 0, 0, 0, -16 -16" transform="rotate(90,856,696)"/><path d="M 936 680v 32h 16a 16 16, 0, 0, 0, 0 -32" transform="rotate(90,952,696)"/><circle cx="1016" cy="696" r="16" transform="rotate(0,1016,696)"/><path d="M 1064 680v 32h 16a 16 16, 0, 0, 0, 0 -32" transform="rotate(-90,1080,696)"/><rect x="8" y="712" width="32" height="32" transform="rotate(0,24,728)"/><path d="M 40 712v 32h 32v -16a 16 16, 0, 0, 0, -16 -16" transform="rotate(90,56,728)"/><path d="M 136 712v 32h 32v -16a 16 16, 0, 0, 0, -16 -16" transform="rotate(180,152,728)"/><rect x="168" y="712" width="32" height="32" transform="rotate(0,184,728)"/><rect x="200" y="712" width="32" height="32" transform="rotate(0,216,728)"/><rect x="232" y="712" width="32" height="32" transform="rotate(0,248,728)"/><rect x="264" y="712" width="32" height="32" transform="rotate(0,280,728)"/><circle cx="408" cy="728" r="16" transform="rotate(0,408,728)"/><rect x="520" y="712" width="32" height="32" transform="rotate(0,536,728)"/><rect x="552" y="712" width="32" height="32" transform="rotate(0,568,728)"/><rect x="584" y="712" width="32" height="32" transform="rotate(0,600,728)"/><path d="M 680 712v 32h 16a 16 16, 0, 0, 0, 0 -32" transform="rotate(90,696,728)"/><path d="M 744 712v 32h 16a 16 16, 0, 0, 0, 0 -32" transform="rotate(90,760,728)"/><path d="M 808 712v 32h 16a 16 16, 0, 0, 0, 0 -32" transform="rotate(90,824,728)"/><path d="M 968 712v 32h 16a 16 16, 0, 0, 0, 0 -32" transform="rotate(-90,984,728)"/><path d="M 1032 712v 32h 16a 16 16, 0, 0, 0, 0 -32" transform="rotate(180,1048,728)"/><rect x="1064" y="712" width="32" height="32" transform="rotate(0,1080,728)"/><path d="M 8 744v 32h 16a 16 16, 0, 0, 0, 0 -32" transform="rotate(90,24,760)"/><rect x="168" y="744" width="32" height="32" transform="rotate(0,184,760)"/><path d="M 264 744v 32h 32v -16a 16 16, 0, 0, 0, -16 -16" transform="rotate(180,280,760)"/><path d="M 296 744v 32h 32v -16a 16 16, 0, 0, 0, -16 -16" transform="rotate(0,312,760)"/><path d="M 360 744v 32h 16a 16 16, 0, 0, 0, 0 -32" transform="rotate(-90,376,760)"/><path d="M 520 744v 32h 16a 16 16, 0, 0, 0, 0 -32" transform="rotate(90,536,760)"/><rect x="584" y="744" width="32" height="32" transform="rotate(0,600,760)"/><path d="M 712 744v 32h 16a 16 16, 0, 0, 0, 0 -32" transform="rotate(-90,728,760)"/><path d="M 872 744v 32h 16a 16 16, 0, 0, 0, 0 -32" transform="rotate(180,888,760)"/><path d="M 904 744v 32h 32v -16a 16 16, 0, 0, 0, -16 -16" transform="rotate(0,920,760)"/><path d="M 968 744v 32h 16a 16 16, 0, 0, 0, 0 -32" transform="rotate(90,984,760)"/><path d="M 1064 744v 32h 32v -16a 16 16, 0, 0, 0, -16 -16" transform="rotate(180,1080,760)"/><rect x="1096" y="744" width="32" height="32" transform="rotate(0,1112,760)"/><rect x="1128" y="744" width="32" height="32" transform="rotate(0,1144,760)"/><path d="M 1160 744v 32h 32v -16a 16 16, 0, 0, 0, -16 -16" transform="rotate(0,1176,760)"/><circle cx="56" cy="792" r="16" transform="rotate(0,56,792)"/><circle cx="120" cy="792" r="16" transform="rotate(0,120,792)"/><rect x="168" y="776" width="32" height="32" transform="rotate(0,184,792)"/><rect x="200" y="776" width="32" height="32" transform="rotate(0,216,792)"/><path d="M 232 776v 32h 16a 16 16, 0, 0, 0, 0 -32" transform="rotate(0,248,792)"/><path d="M 296 776v 32h 16a 16 16, 0, 0, 0, 0 -32" transform="rotate(90,312,792)"/><path d="M 360 776v 32h 16a 16 16, 0, 0, 0, 0 -32" transform="rotate(90,376,792)"/><path d="M 424 776v 32h 16a 16 16, 0, 0, 0, 0 -32" transform="rotate(-90,440,792)"/><path d="M 488 776v 32h 16a 16 16, 0, 0, 0, 0 -32" transform="rotate(-90,504,792)"/><path d="M 552 776v 32h 32v -16a 16 16, 0, 0, 0, -16 -16" transform="rotate(-90,568,792)"/><path d="M 584 776v 32h 32v -16a 16 16, 0, 0, 0, -16 -16" transform="rotate(90,600,792)"/><rect x="712" y="776" width="32" height="32" transform="rotate(0,728,792)"/><path d="M 840 776v 32h 16a 16 16, 0, 0, 0, 0 -32" transform="rotate(-90,856,792)"/><path d="M 904 776v 32h 32v -16a 16 16, 0, 0, 0, -16 -16" transform="rotate(180,920,792)"/><path d="M 936 776v 32h 32v -16a 16 16, 0, 0, 0, -16 -16" transform="rotate(0,952,792)"/><path d="M 1000 776v 32h 32v -16a 16 16, 0, 0, 0, -16 -16" transform="rotate(-90,1016,792)"/><path d="M 1032 776v 32h 32v -16a 16 16, 0, 0, 0, -16 -16" transform="rotate(0,1048,792)"/><path d="M 1096 776v 32h 32v -16a 16 16, 0, 0, 0, -16 -16" transform="rotate(180,1112,792)"/><rect x="1128" y="776" width="32" height="32" transform="rotate(0,1144,792)"/><rect x="1160" y="776" width="32" height="32" transform="rotate(0,1176,792)"/><path d="M 72 808v 32h 16a 16 16, 0, 0, 0, 0 -32" transform="rotate(-90,88,824)"/><path d="M 168 808v 32h 16a 16 16, 0, 0, 0, 0 -32" transform="rotate(90,184,824)"/><circle cx="280" cy="824" r="16" transform="rotate(0,280,824)"/><path d="M 392 808v 32h 32v -16a 16 16, 0, 0, 0, -16 -16" transform="rotate(-90,408,824)"/><path d="M 424 808v 32h 32v -16a 16 16, 0, 0, 0, -16 -16" transform="rotate(90,440,824)"/><path d="M 488 808v 32h 16a 16 16, 0, 0, 0, 0 -32" transform="rotate(90,504,824)"/><rect x="552" y="808" width="32" height="32" transform="rotate(0,568,824)"/><path d="M 616 808v 32h 16a 16 16, 0, 0, 0, 0 -32" transform="rotate(180,632,824)"/><path d="M 648 808v 32h 16a 16 16, 0, 0, 0, 0 -32" transform="rotate(0,664,824)"/><path d="M 712 808v 32h 16a 16 16, 0, 0, 0, 0 -32" transform="rotate(90,728,824)"/><circle cx="792" cy="824" r="16" transform="rotate(0,792,824)"/><path d="M 840 808v 32h 16a 16 16, 0, 0, 0, 0 -32" transform="rotate(90,856,824)"/><path d="M 936 808v 32h 16a 16 16, 0, 0, 0, 0 -32" transform="rotate(90,952,824)"/><rect x="1000" y="808" width="32" height="32" transform="rotate(0,1016,824)"/><path d="M 1032 808v 32h 32v -16a 16 16, 0, 0, 0, -16 -16" transform="rotate(90,1048,824)"/><rect x="1128" y="808" width="32" height="32" transform="rotate(0,1144,824)"/><path d="M 1160 808v 32h 32v -16a 16 16, 0, 0, 0, -16 -16" transform="rotate(90,1176,824)"/><path d="M 40 840v 32h 16a 16 16, 0, 0, 0, 0 -32" transform="rotate(180,56,856)"/><rect x="72" y="840" width="32" height="32" transform="rotate(0,88,856)"/><path d="M 200 840v 32h 16a 16 16, 0, 0, 0, 0 -32" transform="rotate(180,216,856)"/><path d="M 232 840v 32h 32v -16a 16 16, 0, 0, 0, -16 -16" transform="rotate(0,248,856)"/><path d="M 296 840v 32h 16a 16 16, 0, 0, 0, 0 -32" transform="rotate(180,312,856)"/><rect x="328" y="840" width="32" height="32" transform="rotate(0,344,856)"/><rect x="360" y="840" width="32" height="32" transform="rotate(0,376,856)"/><rect x="392" y="840" width="32" height="32" transform="rotate(0,408,856)"/><path d="M 520 840v 32h 16a 16 16, 0, 0, 0, 0 -32" transform="rotate(180,536,856)"/><path d="M 552 840v 32h 32v -16a 16 16, 0, 0, 0, -16 -16" transform="rotate(90,568,856)"/><path d="M 680 840v 32h 16a 16 16, 0, 0, 0, 0 -32" transform="rotate(-90,696,856)"/><rect x="1000" y="840" width="32" height="32" transform="rotate(0,1016,856)"/><path d="M 1128 840v 32h 16a 16 16, 0, 0, 0, 0 -32" transform="rotate(90,1144,856)"/><circle cx="24" cy="888" r="16" transform="rotate(0,24,888)"/><path d="M 72 872v 32h 32v -16a 16 16, 0, 0, 0, -16 -16" transform="rotate(180,88,888)"/><rect x="104" y="872" width="32" height="32" transform="rotate(0,120,888)"/><rect x="136" y="872" width="32" height="32" transform="rotate(0,152,888)"/><path d="M 168 872v 32h 32v -16a 16 16, 0, 0, 0, -16 -16" transform="rotate(0,184,888)"/><rect x="232" y="872" width="32" height="32" transform="rotate(0,248,888)"/><path d="M 264 872v 32h 32v -16a 16 16, 0, 0, 0, -16 -16" transform="rotate(0,280,888)"/><rect x="392" y="872" width="32" height="32" transform="rotate(0,408,888)"/><path d="M 424 872v 32h 16a 16 16, 0, 0, 0, 0 -32" transform="rotate(0,440,888)"/><circle cx="504" cy="888" r="16" transform="rotate(0,504,888)"/><circle cx="632" cy="888" r="16" transform="rotate(0,632,888)"/><rect x="680" y="872" width="32" height="32" transform="rotate(0,696,888)"/><circle cx="760" cy="888" r="16" transform="rotate(0,760,888)"/><path d="M 840 872v 32h 16a 16 16, 0, 0, 0, 0 -32" transform="rotate(180,856,888)"/><path d="M 872 872v 32h 16a 16 16, 0, 0, 0, 0 -32" transform="rotate(0,888,888)"/><path d="M 936 872v 32h 16a 16 16, 0, 0, 0, 0 -32" transform="rotate(-90,952,888)"/><rect x="1000" y="872" width="32" height="32" transform="rotate(0,1016,888)"/><path d="M 1032 872v 32h 32v -16a 16 16, 0, 0, 0, -16 -16" transform="rotate(0,1048,888)"/><circle cx="1176" cy="888" r="16" transform="rotate(0,1176,888)"/><path d="M 104 904v 32h 16a 16 16, 0, 0, 0, 0 -32" transform="rotate(90,120,920)"/><path d="M 168 904v 32h 32v -16a 16 16, 0, 0, 0, -16 -16" transform="rotate(180,184,920)"/><rect x="200" y="904" width="32" height="32" transform="rotate(0,216,920)"/><rect x="232" y="904" width="32" height="32" transform="rotate(0,248,920)"/><rect x="264" y="904" width="32" height="32" transform="rotate(0,280,920)"/><rect x="392" y="904" width="32" height="32" transform="rotate(0,408,920)"/><circle cx="472" cy="920" r="16" transform="rotate(0,472,920)"/><path d="M 520 904v 32h 32v -16a 16 16, 0, 0, 0, -16 -16" transform="rotate(-90,536,920)"/><path d="M 552 904v 32h 32v -16a 16 16, 0, 0, 0, -16 -16" transform="rotate(0,568,920)"/><path d="M 648 904v 32h 16a 16 16, 0, 0, 0, 0 -32" transform="rotate(180,664,920)"/><path d="M 680 904v 32h 32v -16a 16 16, 0, 0, 0, -16 -16" transform="rotate(90,696,920)"/><circle cx="824" cy="920" r="16" transform="rotate(0,824,920)"/><path d="M 904 904v 32h 32v -16a 16 16, 0, 0, 0, -16 -16" transform="rotate(-90,920,920)"/><rect x="936" y="904" width="32" height="32" transform="rotate(0,952,920)"/><rect x="968" y="904" width="32" height="32" transform="rotate(0,984,920)"/><rect x="1000" y="904" width="32" height="32" transform="rotate(0,1016,920)"/><rect x="1032" y="904" width="32" height="32" transform="rotate(0,1048,920)"/><path d="M 1096 904v 32h 16a 16 16, 0, 0, 0, 0 -32" transform="rotate(-90,1112,920)"/><path d="M 264 936v 32h 32v -16a 16 16, 0, 0, 0, -16 -16" transform="rotate(180,280,952)"/><rect x="296" y="936" width="32" height="32" transform="rotate(0,312,952)"/><path d="M 328 936v 32h 16a 16 16, 0, 0, 0, 0 -32" transform="rotate(0,344,952)"/><rect x="392" y="936" width="32" height="32" transform="rotate(0,408,952)"/><path d="M 424 936v 32h 16a 16 16, 0, 0, 0, 0 -32" transform="rotate(0,440,952)"/><rect x="520" y="936" width="32" height="32" transform="rotate(0,536,952)"/><path d="M 552 936v 32h 32v -16a 16 16, 0, 0, 0, -16 -16" transform="rotate(90,568,952)"/><path d="M 616 936v 32h 16a 16 16, 0, 0, 0, 0 -32" transform="rotate(-90,632,952)"/><path d="M 712 936v 32h 16a 16 16, 0, 0, 0, 0 -32" transform="rotate(180,728,952)"/><rect x="744" y="936" width="32" height="32" transform="rotate(0,760,952)"/><path d="M 776 936v 32h 16a 16 16, 0, 0, 0, 0 -32" transform="rotate(0,792,952)"/><circle cx="856" cy="952" r="16" transform="rotate(0,856,952)"/><rect x="904" y="936" width="32" height="32" transform="rotate(0,920,952)"/><rect x="1032" y="936" width="32" height="32" transform="rotate(0,1048,952)"/><rect x="1064" y="936" width="32" height="32" transform="rotate(0,1080,952)"/><path d="M 1096 936v 32h 32v -16a 16 16, 0, 0, 0, -16 -16" transform="rotate(90,1112,952)"/><path d="M 1160 936v 32h 16a 16 16, 0, 0, 0, 0 -32" transform="rotate(-90,1176,952)"/><path d="M 360 968v 32h 16a 16 16, 0, 0, 0, 0 -32" transform="rotate(180,376,984)"/><path d="M 392 968v 32h 32v -16a 16 16, 0, 0, 0, -16 -16" transform="rotate(90,408,984)"/><circle cx="472" cy="984" r="16" transform="rotate(0,472,984)"/><path d="M 520 968v 32h 16a 16 16, 0, 0, 0, 0 -32" transform="rotate(90,536,984)"/><path d="M 584 968v 32h 32v -16a 16 16, 0, 0, 0, -16 -16" transform="rotate(-90,600,984)"/><rect x="616" y="968" width="32" height="32" transform="rotate(0,632,984)"/><circle cx="696" cy="984" r="16" transform="rotate(0,696,984)"/><rect x="904" y="968" width="32" height="32" transform="rotate(0,920,984)"/><circle cx="984" cy="984" r="16" transform="rotate(0,984,984)"/><rect x="1032" y="968" width="32" height="32" transform="rotate(0,1048,984)"/><rect x="1064" y="968" width="32" height="32" transform="rotate(0,1080,984)"/><path d="M 1128 968v 32h 32v -16a 16 16, 0, 0, 0, -16 -16" transform="rotate(-90,1144,984)"/><rect x="1160" y="968" width="32" height="32" transform="rotate(0,1176,984)"/><path d="M 264 1000v 32h 16a 16 16, 0, 0, 0, 0 -32" transform="rotate(180,280,1016)"/><rect x="296" y="1000" width="32" height="32" transform="rotate(0,312,1016)"/><path d="M 328 1000v 32h 32v -16a 16 16, 0, 0, 0, -16 -16" transform="rotate(0,344,1016)"/><path d="M 424 1000v 32h 16a 16 16, 0, 0, 0, 0 -32" transform="rotate(-90,440,1016)"/><path d="M 552 1000v 32h 32v -16a 16 16, 0, 0, 0, -16 -16" transform="rotate(-90,568,1016)"/><rect x="584" y="1000" width="32" height="32" transform="rotate(0,600,1016)"/><path d="M 616 1000v 32h 32v -16a 16 16, 0, 0, 0, -16 -16" transform="rotate(90,632,1016)"/><path d="M 712 1000v 32h 32v -16a 16 16, 0, 0, 0, -16 -16" transform="rotate(-90,728,1016)"/><rect x="744" y="1000" width="32" height="32" transform="rotate(0,760,1016)"/><path d="M 776 1000v 32h 32v -16a 16 16, 0, 0, 0, -16 -16" transform="rotate(0,792,1016)"/><path d="M 872 1000v 32h 16a 16 16, 0, 0, 0, 0 -32" transform="rotate(180,888,1016)"/><rect x="904" y="1000" width="32" height="32" transform="rotate(0,920,1016)"/><rect x="1032" y="1000" width="32" height="32" transform="rotate(0,1048,1016)"/><rect x="1064" y="1000" width="32" height="32" transform="rotate(0,1080,1016)"/><path d="M 1128 1000v 32h 32v -16a 16 16, 0, 0, 0, -16 -16" transform="rotate(180,1144,1016)"/><path d="M 1160 1000v 32h 32v -16a 16 16, 0, 0, 0, -16 -16" transform="rotate(90,1176,1016)"/><path d="M 328 1032v 32h 16a 16 16, 0, 0, 0, 0 -32" transform="rotate(90,344,1048)"/><path d="M 392 1032v 32h 16a 16 16, 0, 0, 0, 0 -32" transform="rotate(180,408,1048)"/><path d="M 424 1032v 32h 32v -16a 16 16, 0, 0, 0, -16 -16" transform="rotate(90,440,1048)"/><path d="M 488 1032v 32h 16a 16 16, 0, 0, 0, 0 -32" transform="rotate(180,504,1048)"/><rect x="520" y="1032" width="32" height="32" transform="rotate(0,536,1048)"/><path d="M 552 1032v 32h 32v -16a 16 16, 0, 0, 0, -16 -16" transform="rotate(90,568,1048)"/><rect x="712" y="1032" width="32" height="32" transform="rotate(0,728,1048)"/><rect x="776" y="1032" width="32" height="32" transform="rotate(0,792,1048)"/><circle cx="856" cy="1048" r="16" transform="rotate(0,856,1048)"/><path d="M 904 1032v 32h 32v -16a 16 16, 0, 0, 0, -16 -16" transform="rotate(180,920,1048)"/><rect x="936" y="1032" width="32" height="32" transform="rotate(0,952,1048)"/><rect x="968" y="1032" width="32" height="32" transform="rotate(0,984,1048)"/><rect x="1000" y="1032" width="32" height="32" transform="rotate(0,1016,1048)"/><rect x="1032" y="1032" width="32" height="32" transform="rotate(0,1048,1048)"/><path d="M 1064 1032v 32h 32v -16a 16 16, 0, 0, 0, -16 -16" transform="rotate(90,1080,1048)"/><path d="M 264 1064v 32h 16a 16 16, 0, 0, 0, 0 -32" transform="rotate(-90,280,1080)"/><path d="M 584 1064v 32h 16a 16 16, 0, 0, 0, 0 -32" transform="rotate(-90,600,1080)"/><path d="M 648 1064v 32h 16a 16 16, 0, 0, 0, 0 -32" transform="rotate(-90,664,1080)"/><rect x="712" y="1064" width="32" height="32" transform="rotate(0,728,1080)"/><rect x="776" y="1064" width="32" height="32" transform="rotate(0,792,1080)"/><circle cx="888" cy="1080" r="16" transform="rotate(0,888,1080)"/><rect x="968" y="1064" width="32" height="32" transform="rotate(0,984,1080)"/><rect x="1032" y="1064" width="32" height="32" transform="rotate(0,1048,1080)"/><path d="M 1096 1064v 32h 16a 16 16, 0, 0, 0, 0 -32" transform="rotate(180,1112,1080)"/><path d="M 1128 1064v 32h 32v -16a 16 16, 0, 0, 0, -16 -16" transform="rotate(0,1144,1080)"/><rect x="264" y="1096" width="32" height="32" transform="rotate(0,280,1112)"/><rect x="296" y="1096" width="32" height="32" transform="rotate(0,312,1112)"/><path d="M 328 1096v 32h 16a 16 16, 0, 0, 0, 0 -32" transform="rotate(0,344,1112)"/><path d="M 392 1096v 32h 32v -16a 16 16, 0, 0, 0, -16 -16" transform="rotate(-90,408,1112)"/><rect x="424" y="1096" width="32" height="32" transform="rotate(0,440,1112)"/><rect x="456" y="1096" width="32" height="32" transform="rotate(0,472,1112)"/><path d="M 488 1096v 32h 32v -16a 16 16, 0, 0, 0, -16 -16" transform="rotate(0,504,1112)"/><path d="M 584 1096v 32h 32v -16a 16 16, 0, 0, 0, -16 -16" transform="rotate(180,600,1112)"/><rect x="616" y="1096" width="32" height="32" transform="rotate(0,632,1112)"/><rect x="648" y="1096" width="32" height="32" transform="rotate(0,664,1112)"/><path d="M 712 1096v 32h 32v -16a 16 16, 0, 0, 0, -16 -16" transform="rotate(180,728,1112)"/><rect x="744" y="1096" width="32" height="32" transform="rotate(0,760,1112)"/><rect x="776" y="1096" width="32" height="32" transform="rotate(0,792,1112)"/><rect x="808" y="1096" width="32" height="32" transform="rotate(0,824,1112)"/><path d="M 840 1096v 32h 16a 16 16, 0, 0, 0, 0 -32" transform="rotate(0,856,1112)"/><path d="M 968 1096v 32h 32v -16a 16 16, 0, 0, 0, -16 -16" transform="rotate(180,984,1112)"/><rect x="1000" y="1096" width="32" height="32" transform="rotate(0,1016,1112)"/><rect x="1032" y="1096" width="32" height="32" transform="rotate(0,1048,1112)"/><path d="M 1128 1096v 32h 16a 16 16, 0, 0, 0, 0 -32" transform="rotate(90,1144,1112)"/><path d="M 264 1128v 32h 32v -16a 16 16, 0, 0, 0, -16 -16" transform="rotate(180,280,1144)"/><rect x="296" y="1128" width="32" height="32" transform="rotate(0,312,1144)"/><path d="M 392 1128v 32h 16a 16 16, 0, 0, 0, 0 -32" transform="rotate(90,408,1144)"/><rect x="456" y="1128" width="32" height="32" transform="rotate(0,472,1144)"/><path d="M 488 1128v 32h 32v -16a 16 16, 0, 0, 0, -16 -16" transform="rotate(90,504,1144)"/><path d="M 648 1128v 32h 16a 16 16, 0, 0, 0, 0 -32" transform="rotate(90,664,1144)"/><rect x="808" y="1128" width="32" height="32" transform="rotate(0,824,1144)"/><path d="M 1000 1128v 32h 32v -16a 16 16, 0, 0, 0, -16 -16" transform="rotate(180,1016,1144)"/><rect x="1032" y="1128" width="32" height="32" transform="rotate(0,1048,1144)"/><rect x="1064" y="1128" width="32" height="32" transform="rotate(0,1080,1144)"/><path d="M 1096 1128v 32h 32v -16a 16 16, 0, 0, 0, -16 -16" transform="rotate(0,1112,1144)"/><path d="M 296 1160v 32h 16a 16 16, 0, 0, 0, 0 -32" transform="rotate(90,312,1176)"/><circle cx="376" cy="1176" r="16" transform="rotate(0,376,1176)"/><path d="M 456 1160v 32h 16a 16 16, 0, 0, 0, 0 -32" transform="rotate(90,472,1176)"/><circle cx="536" cy="1176" r="16" transform="rotate(0,536,1176)"/><circle cx="632" cy="1176" r="16" transform="rotate(0,632,1176)"/><circle cx="728" cy="1176" r="16" transform="rotate(0,728,1176)"/><path d="M 808 1160v 32h 32v -16a 16 16, 0, 0, 0, -16 -16" transform="rotate(180,824,1176)"/><path d="M 840 1160v 32h 16a 16 16, 0, 0, 0, 0 -32" transform="rotate(0,856,1176)"/><circle cx="952" cy="1176" r="16" transform="rotate(0,952,1176)"/><path d="M 1096 1160v 32h 32v -16a 16 16, 0, 0, 0, -16 -16" transform="rotate(180,1112,1176)"/><rect x="1128" y="1160" width="32" height="32" transform="rotate(0,1144,1176)"/><path d="M 1160 1160v 32h 16a 16 16, 0, 0, 0, 0 -32" transform="rotate(0,1176,1176)"/></clipPath><clipPath id="clip-path-corners-square-color-0-0-544"><path clip-rule="evenodd" d="M 8 88v 64a 80 80, 0, 0, 0, 80 80h 64a 80 80, 0, 0, 0, 80 -80v -64a 80 80, 0, 0, 0, -80 -80h -64a 80 80, 0, 0, 0, -80 80M 88 40h 64a 48 48, 0, 0, 1, 48 48v 64a 48 48, 0, 0, 1, -48 48h -64a 48 48, 0, 0, 1, -48 -48v -64a 48 48, 0, 0, 1, 48 -48" transform="rotate(0,120,120)"/></clipPath><clipPath id="clip-path-corners-dot-color-0-0-544"><circle cx="120" cy="120" r="48" transform="rotate(0,120,120)"/></clipPath><clipPath id="clip-path-corners-square-color-1-0-544"><path clip-rule="evenodd" d="M 968 88v 64a 80 80, 0, 0, 0, 80 80h 64a 80 80, 0, 0, 0, 80 -80v -64a 80 80, 0, 0, 0, -80 -80h -64a 80 80, 0, 0, 0, -80 80M 1048 40h 64a 48 48, 0, 0, 1, 48 48v 64a 48 48, 0, 0, 1, -48 48h -64a 48 48, 0, 0, 1, -48 -48v -64a 48 48, 0, 0, 1, 48 -48" transform="rotate(90,1080,120)"/></clipPath><clipPath id="clip-path-corners-dot-color-1-0-544"><circle cx="1080" cy="120" r="48" transform="rotate(90,1080,120)"/></clipPath><clipPath id="clip-path-corners-square-color-0-1-544"><path clip-rule="evenodd" d="M 8 1048v 64a 80 80, 0, 0, 0, 80 80h 64a 80 80, 0, 0, 0, 80 -80v -64a 80 80, 0, 0, 0, -80 -80h -64a 80 80, 0, 0, 0, -80 80M 88 1000h 64a 48 48, 0, 0, 1, 48 48v 64a 48 48, 0, 0, 1, -48 48h -64a 48 48, 0, 0, 1, -48 -48v -64a 48 48, 0, 0, 1, 48 -48" transform="rotate(-90,120,1080)"/></clipPath><clipPath id="clip-path-corners-dot-color-0-1-544"><circle cx="120" cy="1080" r="48" transform="rotate(-90,120,1080)"/></clipPath></defs><rect x="0" y="0" height="1200" width="1200" clip-path="url('#clip-path-background-color-544')" fill="#ffffff"/><rect x="0" y="0" height="1200" width="1200" clip-path="url('#clip-path-dot-color-544')" fill="#000000"/><rect x="8" y="8" height="224" width="224" clip-path="url('#clip-path-corners-square-color-0-0-544')" fill="#000000"/><rect x="72" y="72" height="96" width="96" clip-path="url('#clip-path-corners-dot-color-0-0-544')" fill="#000000"/><rect x="968" y="8" height="224" width="224" clip-path="url('#clip-path-corners-square-color-1-0-544')" fill="#000000"/><rect x="1032" y="72" height="96" width="96" clip-path="url('#clip-path-corners-dot-color-1-0-544')" fill="#000000"/><rect x="8" y="968" height="224" width="224" clip-path="url('#clip-path-corners-square-color-0-1-544')" fill="#000000"/><rect x="72" y="1032" height="96" width="96" clip-path="url('#clip-path-corners-dot-color-0-1-544')" fill="#000000"/></svg>