<?xml version="1.0" standalone="no"?>
<svg xmlns="http://www.w3.org/2000/svg" width="1200" height="1200" xmlns:xlink="http://www.w3.org/1999/xlink" viewBox="0 0 1200 1200"><defs><clipPath id="clip-path-background-color-547"><rect x="0" y="0" width="1200" height="1200"/></clipPath><clipPath id="clip-path-dot-color-547"><path d="M 306 26v 28h 14a 14 14, 0, 0, 0, 0 -28" transform="rotate(180,320,40)"/><path d="M 334 26v 28h 14a 14 14, 0, 0, 0, 0 -28" transform="rotate(0,348,40)"/><circle cx="432" cy="40" r="14" transform="rotate(0,432,40)"/><circle cx="488" cy="40" r="14" transform="rotate(0,488,40)"/><path d="M 530 26v 28h 14a 14 14, 0, 0, 0, 0 -28" transform="rotate(180,544,40)"/><path d="M 558 26v 28h 28v -14a 14 14, 0, 0, 0, -14 -14" transform="rotate(0,572,40)"/><circle cx="712" cy="40" r="14" transform="rotate(0,712,40)"/><path d="M 754 26v 28h 14a 14 14, 0, 0, 0, 0 -28" transform="rotate(-90,768,40)"/><circle cx="852" cy="40" r="14" transform="rotate(0,852,40)"/><path d="M 362 54v 28h 14a 14 14, 0, 0, 0, 0 -28" transform="rotate(-90,376,68)"/><path d="M 446 54v 28h 14a 14 14, 0, 0, 0, 0 -28" transform="rotate(-90,460,68)"/><path d="M 502 54v 28h 14a 14 14, 0, 0, 0, 0 -28" transform="rotate(-90,516,68)"/><rect x="558" y="54" width="28" height="28" transform="rotate(0,572,68)"/><rect x="586" y="54" width="28" height="28" transform="rotate(0,600,68)"/><rect x="614" y="54" width="28" height="28" transform="rotate(0,628,68)"/><rect x="642" y="54" width="28" height="28" transform="rotate(0,656,68)"/><path d="M 670 54v 28h 14a 14 14, 0, 0, 0, 0 -28" transform="rotate(0,684,68)"/><path d="M 726 54v 28h 14a 14 14, 0, 0, 0, 0 -28" transform="rotate(180,740,68)"/><rect x="754" y="54" width="28" height="28" transform="rotate(0,768,68)"/><path d="M 922 54v 28h 14a 14 14, 0, 0, 0, 0 -28" transform="rotate(-90,936,68)"/><path d="M 306 82v 28h 14a 14 14, 0, 0, 0, 0 -28" transform="rotate(-90,320,96)"/><path d="M 362 82v 28h 14a 14 14, 0, 0, 0, 0 -28" transform="rotate(90,376,96)"/><path d="M 446 82v 28h 14a 14 14, 0, 0, 0, 0 -28" transform="rotate(90,460,96)"/><rect x="502" y="82" width="28" height="28" transform="rotate(0,516,96)"/><path d="M 558 82v 28h 14a 14 14, 0, 0, 0, 0 -28" transform="rotate(90,572,96)"/><rect x="642" y="82" width="28" height="28" transform="rotate(0,656,96)"/><circle cx="712" cy="96" r="14" transform="rotate(0,712,96)"/><rect x="754" y="82" width="28" height="28" transform="rotate(0,768,96)"/><path d="M 838 82v 28h 14a 14 14, 0, 0, 0, 0 -28" transform="rotate(-90,852,96)"/><path d="M 894 82v 28h 28v -14a 14 14, 0, 0, 0, -14 -14" transform="rotate(-90,908,96)"/><rect x="922" y="82" width="28" height="28" transform="rotate(0,936,96)"/><circle cx="264" cy="124" r="14" transform="rotate(0,264,124)"/><rect x="306" y="110" width="28" height="28" transform="rotate(0,320,124)"/><path d="M 334 110v 28h 28v -14a 14 14, 0, 0, 0, -14 -14" transform="rotate(0,348,124)"/><path d="M 390 110v 28h 28v -14a 14 14, 0, 0, 0, -14 -14" transform="rotate(-90,404,124)"/><path d="M 418 110v 28h 14a 14 14, 0, 0, 0, 0 -28" transform="rotate(0,432,124)"/><path d="M 474 110v 28h 28v -14a 14 14, 0, 0, 0, -14 -14" transform="rotate(-90,488,124)"/><path d="M 502 110v 28h 28v -14a 14 14, 0, 0, 0, -14 -14" transform="rotate(90,516,124)"/><path d="M 614 110v 28h 14a 14 14, 0, 0, 0, 0 -28" transform="rotate(180,628,124)"/><rect x="642" y="110" width="28" height="28" transform="rotate(0,656,124)"/><path d="M 670 110v 28h 14a 14 14, 0, 0, 0, 0 -28" transform="rotate(0,684,124)"/><rect x="754" y="110" width="28" height="28" transform="rotate(0,768,124)"/><rect x="838" y="110" width="28" height="28" transform="rotate(0,852,124)"/><rect x="866" y="110" width="28" height="28" transform="rotate(0,880,124)"/><rect x="894" y="110" width="28" height="28" transform="rotate(0,908,124)"/><path d="M 922 110v 28h 28v -14a 14 14, 0, 0, 0, -14 -14" transform="rotate(90,936,124)"/><rect x="306" y="138" width="28" height="28" transform="rotate(0,320,152)"/><rect x="334" y="138" width="28" height="28" transform="rotate(0,348,152)"/><rect x="390" y="138" width="28" height="28" transform="rotate(0,404,152)"/><path d="M 474 138v 28h 14a 14 14, 0, 0, 0, 0 -28" transform="rotate(90,488,152)"/><path d="M 558 138v 28h 14a 14 14, 0, 0, 0, 0 -28" transform="rotate(-90,572,152)"/><rect x="642" y="138" width="28" height="28" transform="rotate(0,656,152)"/><path d="M 698 138v 28h 28v -14a 14 14, 0, 0, 0, -14 -14" transform="rotate(-90,712,152)"/><rect x="726" y="138" width="28" height="28" transform="rotate(0,740,152)"/><path d="M 754 138v 28h 28v -14a 14 14, 0, 0, 0, -14 -14" transform="rotate(90,768,152)"/><rect x="838" y="138" width="28" height="28" transform="rotate(0,852,152)"/><path d="M 866 138v 28h 28v -14a 14 14, 0, 0, 0, -14 -14" transform="rotate(90,880,152)"/><path d="M 250 166v 28h 28v -14a 14 14, 0, 0, 0, -14 -14" transform="rotate(-90,264,180)"/><rect x="278" y="166" width="28" height="28" transform="rotate(0,292,180)"/><rect x="306" y="166" width="28" height="28" transform="rotate(0,320,180)"/><rect x="334" y="166" width="28" height="28" transform="rotate(0,348,180)"/><rect x="362" y="166" width="28" height="28" transform="rotate(0,376,180)"/><rect x="390" y="166" width="28" height="28" transform="rotate(0,404,180)"/><rect x="418" y="166" width="28" height="28" transform="rotate(0,432,180)"/><path d="M 446 166v 28h 14a 14 14, 0, 0, 0, 0 -28" transform="rotate(0,460,180)"/><path d="M 530 166v 28h 28v -14a 14 14, 0, 0, 0, -14 -14" transform="rotate(-90,544,180)"/><rect x="558" y="166" width="28" height="28" transform="rotate(0,572,180)"/><rect x="586" y="166" width="28" height="28" transform="rotate(0,600,180)"/><rect x="614" y="166" width="28" height="28" transform="rotate(0,628,180)"/><rect x="642" y="166" width="28" height="28" transform="rotate(0,656,180)"/><rect x="698" y="166" width="28" height="28" transform="rotate(0,712,180)"/><path d="M 726 166v 28h 28v -14a 14 14, 0, 0, 0, -14 -14" transform="rotate(90,740,180)"/><path d="M 838 166v 28h 14a 14 14, 0, 0, 0, 0 -28" transform="rotate(90,852,180)"/><path d="M 922 166v 28h 14a 14 14, 0, 0, 0, 0 -28" transform="rotate(-90,936,180)"/><rect x="250" y="194" width="28" height="28" transform="rotate(0,264,208)"/><rect x="306" y="194" width="28" height="28" transform="rotate(0,320,208)"/><rect x="362" y="194" width="28" height="28" transform="rotate(0,376,208)"/><rect x="418" y="194" width="28" height="28" transform="rotate(0,432,208)"/><path d="M 474 194v 28h 14a 14 14, 0, 0, 0, 0 -28" transform="rotate(-90,488,208)"/><rect x="530" y="194" width="28" height="28" transform="rotate(0,544,208)"/><path d="M 586 194v 28h 14a 14 14, 0, 0, 0, 0 -28" transform="rotate(90,600,208)"/><rect x="642" y="194" width="28" height="28" transform="rotate(0,656,208)"/><path d="M 698 194v 28h 14a 14 14, 0, 0, 0, 0 -28" transform="rotate(90,712,208)"/><circle cx="768" cy="208" r="14" transform="rotate(0,768,208)"/><circle cx="824" cy="208" r="14" transform="rotate(0,824,208)"/><path d="M 866 194v 28h 14a 14 14, 0, 0, 0, 0 -28" transform="rotate(-90,880,208)"/><rect x="922" y="194" width="28" height="28" transform="rotate(0,936,208)"/><path d="M 250 222v 28h 14a 14 14, 0, 0, 0, 0 -28" transform="rotate(90,264,236)"/><rect x="306" y="222" width="28" height="28" transform="rotate(0,320,236)"/><path d="M 362 222v 28h 28v -14a 14 14, 0, 0, 0, -14 -14" transform="rotate(180,376,236)"/><rect x="390" y="222" width="28" height="28" transform="rotate(0,404,236)"/><path d="M 418 222v 28h 28v -14a 14 14, 0, 0, 0, -14 -14" transform="rotate(90,432,236)"/><rect x="474" y="222" width="28" height="28" transform="rotate(0,488,236)"/><rect x="502" y="222" width="28" height="28" transform="rotate(0,516,236)"/><rect x="530" y="222" width="28" height="28" transform="rotate(0,544,236)"/><path d="M 614 222v 28h 14a 14 14, 0, 0, 0, 0 -28" transform="rotate(180,628,236)"/><rect x="642" y="222" width="28" height="28" transform="rotate(0,656,236)"/><path d="M 670 222v 28h 14a 14 14, 0, 0, 0, 0 -28" transform="rotate(0,684,236)"/><path d="M 782 222v 28h 14a 14 14, 0, 0, 0, 0 -28" transform="rotate(-90,796,236)"/><path d="M 866 222v 28h 14a 14 14, 0, 0, 0, 0 -28" transform="rotate(90,880,236)"/><rect x="922" y="222" width="28" height="28" transform="rotate(0,936,236)"/><path d="M 54 250v 28h 14a 14 14, 0, 0, 0, 0 -28" transform="rotate(180,68,264)"/><path d="M 82 250v 28h 14a 14 14, 0, 0, 0, 0 -28" transform="rotate(0,96,264)"/><circle cx="208" cy="264" r="14" transform="rotate(0,208,264)"/><path d="M 278 250v 28h 28v -14a 14 14, 0, 0, 0, -14 -14" transform="rotate(-90,292,264)"/><rect x="306" y="250" width="28" height="28" transform="rotate(0,320,264)"/><path d="M 334 250v 28h 14a 14 14, 0, 0, 0, 0 -28" transform="rotate(0,348,264)"/><path d="M 390 250v 28h 14a 14 14, 0, 0, 0, 0 -28" transform="rotate(90,404,264)"/><path d="M 474 250v 28h 28v -14a 14 14, 0, 0, 0, -14 -14" transform="rotate(180,488,264)"/><rect x="502" y="250" width="28" height="28" transform="rotate(0,516,264)"/><rect x="530" y="250" width="28" height="28" transform="rotate(0,544,264)"/><path d="M 558 250v 28h 28v -14a 14 14, 0, 0, 0, -14 -14" transform="rotate(0,572,264)"/><rect x="782" y="250" width="28" height="28" transform="rotate(0,796,264)"/><path d="M 894 250v 28h 28v -14a 14 14, 0, 0, 0, -14 -14" transform="rotate(-90,908,264)"/><rect x="922" y="250" width="28" height="28" transform="rotate(0,936,264)"/><path d="M 978 250v 28h 28v -14a 14 14, 0, 0, 0, -14 -14" transform="rotate(-90,992,264)"/><path d="M 1006 250v 28h 28v -14a 14 14, 0, 0, 0, -14 -14" transform="rotate(0,1020,264)"/><circle cx="1076" cy="264" r="14" transform="rotate(0,1076,264)"/><path d="M 26 278v 28h 14a 14 14, 0, 0, 0, 0 -28" transform="rotate(-90,40,292)"/><circle cx="124" cy="292" r="14" transform="rotate(0,124,292)"/><path d="M 166 278v 28h 14a 14 14, 0, 0, 0, 0 -28" transform="rotate(-90,180,292)"/><path d="M 250 278v 28h 28v -14a 14 14, 0, 0, 0, -14 -14" transform="rotate(-90,264,292)"/><path d="M 278 278v 28h 28v -14a 14 14, 0, 0, 0, -14 -14" transform="rotate(90,292,292)"/><path d="M 362 278v 28h 14a 14 14, 0, 0, 0, 0 -28" transform="rotate(-90,376,292)"/><path d="M 418 278v 28h 14a 14 14, 0, 0, 0, 0 -28" transform="rotate(-90,432,292)"/><path d="M 558 278v 28h 28v -14a 14 14, 0, 0, 0, -14 -14" transform="rotate(180,572,292)"/><path d="M 586 278v 28h 14a 14 14, 0, 0, 0, 0 -28" transform="rotate(0,600,292)"/><rect x="782" y="278" width="28" height="28" transform="rotate(0,796,292)"/><path d="M 810 278v 28h 14a 14 14, 0, 0, 0, 0 -28" transform="rotate(0,824,292)"/><path d="M 866 278v 28h 28v -14a 14 14, 0, 0, 0, -14 -14" transform="rotate(-90,880,292)"/><rect x="894" y="278" width="28" height="28" transform="rotate(0,908,292)"/><path d="M 922 278v 28h 28v -14a 14 14, 0, 0, 0, -14 -14" transform="rotate(90,936,292)"/><rect x="978" y="278" width="28" height="28" transform="rotate(0,992,292)"/><rect x="1006" y="278" width="28" height="28" transform="rotate(0,1020,292)"/><path d="M 1090 278v 28h 14a 14 14, 0, 0, 0, 0 -28" transform="rotate(-90,1104,292)"/><path d="M 1146 278v 28h 14a 14 14, 0, 0, 0, 0 -28" transform="rotate(-90,1160,292)"/><path d="M 26 306v 28h 14a 14 14, 0, 0, 0, 0 -28" transform="rotate(90,40,320)"/><rect x="166" y="306" width="28" height="28" transform="rotate(0,180,320)"/><path d="M 194 306v 28h 14a 14 14, 0, 0, 0, 0 -28" transform="rotate(0,208,320)"/><rect x="250" y="306" width="28" height="28" transform="rotate(0,264,320)"/><path d="M 362 306v 28h 14a 14 14, 0, 0, 0, 0 -28" transform="rotate(90,376,320)"/><rect x="418" y="306" width="28" height="28" transform="rotate(0,432,320)"/><path d="M 502 306v 28h 14a 14 14, 0, 0, 0, 0 -28" transform="rotate(180,516,320)"/><path d="M 530 306v 28h 28v -14a 14 14, 0, 0, 0, -14 -14" transform="rotate(0,544,320)"/><path d="M 670 306v 28h 14a 14 14, 0, 0, 0, 0 -28" transform="rotate(-90,684,320)"/><circle cx="740" cy="320" r="14" transform="rotate(0,740,320)"/><path d="M 782 306v 28h 14a 14 14, 0, 0, 0, 0 -28" transform="rotate(90,796,320)"/><path d="M 866 306v 28h 28v -14a 14 14, 0, 0, 0, -14 -14" transform="rotate(180,880,320)"/><rect x="894" y="306" width="28" height="28" transform="rotate(0,908,320)"/><path d="M 978 306v 28h 28v -14a 14 14, 0, 0, 0, -14 -14" transform="rotate(180,992,320)"/><rect x="1006" y="306" width="28" height="28" transform="rotate(0,1020,320)"/><path d="M 1062 306v 28h 28v -14a 14 14, 0, 0, 0, -14 -14" transform="rotate(-90,1076,320)"/><path d="M 1090 306v 28h 28v -14a 14 14, 0, 0, 0, -14 -14" transform="rotate(90,1104,320)"/><path d="M 1146 306v 28h 14a 14 14, 0, 0, 0, 0 -28" transform="rotate(90,1160,320)"/><path d="M 54 334v 28h 14a 14 14, 0, 0, 0, 0 -28" transform="rotate(180,68,348)"/><path d="M 82 334v 28h 14a 14 14, 0, 0, 0, 0 -28" transform="rotate(0,96,348)"/><rect x="166" y="334" width="28" height="28" transform="rotate(0,180,348)"/><path d="M 222 334v 28h 28v -14a 14 14, 0, 0, 0, -14 -14" transform="rotate(-90,236,348)"/><path d="M 250 334v 28h 28v -14a 14 14, 0, 0, 0, -14 -14" transform="rotate(90,264,348)"/><path d="M 334 334v 28h 14a 14 14, 0, 0, 0, 0 -28" transform="rotate(-90,348,348)"/><rect x="418" y="334" width="28" height="28" transform="rotate(0,432,348)"/><rect x="446" y="334" width="28" height="28" transform="rotate(0,460,348)"/><path d="M 474 334v 28h 28v -14a 14 14, 0, 0, 0, -14 -14" transform="rotate(0,488,348)"/><rect x="530" y="334" width="28" height="28" transform="rotate(0,544,348)"/><circle cx="600" cy="348" r="14" transform="rotate(0,600,348)"/><path d="M 670 334v 28h 28v -14a 14 14, 0, 0, 0, -14 -14" transform="rotate(180,684,348)"/><path d="M 698 334v 28h 28v -14a 14 14, 0, 0, 0, -14 -14" transform="rotate(0,712,348)"/><circle cx="824" cy="348" r="14" transform="rotate(0,824,348)"/><path d="M 894 334v 28h 28v -14a 14 14, 0, 0, 0, -14 -14" transform="rotate(180,908,348)"/><rect x="922" y="334" width="28" height="28" transform="rotate(0,936,348)"/><path d="M 950 334v 28h 28v -14a 14 14, 0, 0, 0, -14 -14" transform="rotate(0,964,348)"/><rect x="1006" y="334" width="28" height="28" transform="rotate(0,1020,348)"/><path d="M 1062 334v 28h 14a 14 14, 0, 0, 0, 0 -28" transform="rotate(90,1076,348)"/><path d="M 1118 334v 28h 14a 14 14, 0, 0, 0, 0 -28" transform="rotate(-90,1132,348)"/><path d="M 110 362v 28h 14a 14 14, 0, 0, 0, 0 -28" transform="rotate(-90,124,376)"/><rect x="166" y="362" width="28" height="28" transform="rotate(0,180,376)"/><rect x="194" y="362" width="28" height="28" transform="rotate(0,208,376)"/><path d="M 222 362v 28h 28v -14a 14 14, 0, 0, 0, -14 -14" transform="rotate(90,236,376)"/><path d="M 306 362v 28h 14a 14 14, 0, 0, 0, 0 -28" transform="rotate(180,320,376)"/><rect x="334" y="362" width="28" height="28" transform="rotate(0,348,376)"/><path d="M 362 362v 28h 28v -14a 14 14, 0, 0, 0, -14 -14" transform="rotate(0,376,376)"/><path d="M 418 362v 28h 14a 14 14, 0, 0, 0, 0 -28" transform="rotate(90,432,376)"/><rect x="474" y="362" width="28" height="28" transform="rotate(0,488,376)"/><rect x="530" y="362" width="28" height="28" transform="rotate(0,544,376)"/><path d="M 558 362v 28h 28v -14a 14 14, 0, 0, 0, -14 -14" transform="rotate(0,572,376)"/><path d="M 614 362v 28h 28v -14a 14 14, 0, 0, 0, -14 -14" transform="rotate(-90,628,376)"/><path d="M 642 362v 28h 14a 14 14, 0, 0, 0, 0 -28" transform="rotate(0,656,376)"/><rect x="698" y="362" width="28" height="28" transform="rotate(0,712,376)"/><path d="M 754 362v 28h 14a 14 14, 0, 0, 0, 0 -28" transform="rotate(180,768,376)"/><path d="M 782 362v 28h 14a 14 14, 0, 0, 0, 0 -28" transform="rotate(0,796,376)"/><rect x="922" y="362" width="28" height="28" transform="rotate(0,936,376)"/><rect x="950" y="362" width="28" height="28" transform="rotate(0,964,376)"/><rect x="978" y="362" width="28" height="28" transform="rotate(0,992,376)"/><rect x="1006" y="362" width="28" height="28" transform="rotate(0,1020,376)"/><rect x="1118" y="362" width="28" height="28" transform="rotate(0,1132,376)"/><path d="M 26 390v 28h 28v -14a 14 14, 0, 0, 0, -14 -14" transform="rotate(-90,40,404)"/><path d="M 54 390v 28h 14a 14 14, 0, 0, 0, 0 -28" transform="rotate(0,68,404)"/><rect x="110" y="390" width="28" height="28" transform="rotate(0,124,404)"/><rect x="138" y="390" width="28" height="28" transform="rotate(0,152,404)"/><rect x="166" y="390" width="28" height="28" transform="rotate(0,180,404)"/><path d="M 250 390v 28h 14a 14 14, 0, 0, 0, 0 -28" transform="rotate(-90,264,404)"/><path d="M 362 390v 28h 28v -14a 14 14, 0, 0, 0, -14 -14" transform="rotate(180,376,404)"/><path d="M 390 390v 28h 28v -14a 14 14, 0, 0, 0, -14 -14" transform="rotate(0,404,404)"/><rect x="474" y="390" width="28" height="28" transform="rotate(0,488,404)"/><rect x="502" y="390" width="28" height="28" transform="rotate(0,516,404)"/><rect x="530" y="390" width="28" height="28" transform="rotate(0,544,404)"/><path d="M 558 390v 28h 28v -14a 14 14, 0, 0, 0, -14 -14" transform="rotate(90,572,404)"/><rect x="614" y="390" width="28" height="28" transform="rotate(0,628,404)"/><rect x="698" y="390" width="28" height="28" transform="rotate(0,712,404)"/><path d="M 726 390v 28h 28v -14a 14 14, 0, 0, 0, -14 -14" transform="rotate(0,740,404)"/><path d="M 866 390v 28h 28v -14a 14 14, 0, 0, 0, -14 -14" transform="rotate(-90,880,404)"/><rect x="894" y="390" width="28" height="28" transform="rotate(0,908,404)"/><path d="M 922 390v 28h 28v -14a 14 14, 0, 0, 0, -14 -14" transform="rotate(90,936,404)"/><rect x="978" y="390" width="28" height="28" transform="rotate(0,992,404)"/><path d="M 1006 390v 28h 28v -14a 14 14, 0, 0, 0, -14 -14" transform="rotate(90,1020,404)"/><path d="M 1118 390v 28h 28v -14a 14 14, 0, 0, 0, -14 -14" transform="rotate(180,1132,404)"/><path d="M 1146 390v 28h 28v -14a 14 14, 0, 0, 0, -14 -14" transform="rotate(0,1160,404)"/><rect x="26" y="418" width="28" height="28" transform="rotate(0,40,432)"/><path d="M 110 418v 28h 14a 14 14, 0, 0, 0, 0 -28" transform="rotate(90,124,432)"/><path d="M 166 418v 28h 28v -14a 14 14, 0, 0, 0, -14 -14" transform="rotate(180,180,432)"/><rect x="194" y="418" width="28" height="28" transform="rotate(0,208,432)"/><rect x="222" y="418" width="28" height="28" transform="rotate(0,236,432)"/><rect x="250" y="418" width="28" height="28" transform="rotate(0,264,432)"/><circle cx="320" cy="432" r="14" transform="rotate(0,320,432)"/><path d="M 390 418v 28h 28v -14a 14 14, 0, 0, 0, -14 -14" transform="rotate(180,404,432)"/><path d="M 418 418v 28h 14a 14 14, 0, 0, 0, 0 -28" transform="rotate(0,432,432)"/><path d="M 474 418v 28h 28v -14a 14 14, 0, 0, 0, -14 -14" transform="rotate(180,488,432)"/><path d="M 502 418v 28h 28v -14a 14 14, 0, 0, 0, -14 -14" transform="rotate(90,516,432)"/><path d="M 614 418v 28h 28v -14a 14 14, 0, 0, 0, -14 -14" transform="rotate(180,628,432)"/><path d="M 642 418v 28h 14a 14 14, 0, 0, 0, 0 -28" transform="rotate(0,656,432)"/><rect x="698" y="418" width="28" height="28" transform="rotate(0,712,432)"/><rect x="726" y="418" width="28" height="28" transform="rotate(0,740,432)"/><rect x="754" y="418" width="28" height="28" transform="rotate(0,768,432)"/><path d="M 782 418v 28h 14a 14 14, 0, 0, 0, 0 -28" transform="rotate(0,796,432)"/><path d="M 866 418v 28h 28v -14a 14 14, 0, 0, 0, -14 -14" transform="rotate(180,880,432)"/><path d="M 894 418v 28h 28v -14a 14 14, 0, 0, 0, -14 -14" transform="rotate(90,908,432)"/><path d="M 950 418v 28h 28v -14a 14 14, 0, 0, 0, -14 -14" transform="rotate(-90,964,432)"/><rect x="978" y="418" width="28" height="28" transform="rotate(0,992,432)"/><path d="M 1146 418v 28h 14a 14 14, 0, 0, 0, 0 -28" transform="rotate(90,1160,432)"/><path d="M 26 446v 28h 28v -14a 14 14, 0, 0, 0, -14 -14" transform="rotate(180,40,460)"/><rect x="54" y="446" width="28" height="28" transform="rotate(0,68,460)"/><path d="M 82 446v 28h 14a 14 14, 0, 0, 0, 0 -28" transform="rotate(0,96,460)"/><path d="M 138 446v 28h 14a 14 14, 0, 0, 0, 0 -28" transform="rotate(-90,152,460)"/><path d="M 250 446v 28h 14a 14 14, 0, 0, 0, 0 -28" transform="rotate(90,264,460)"/><path d="M 334 446v 28h 14a 14 14, 0, 0, 0, 0 -28" transform="rotate(-90,348,460)"/><path d="M 558 446v 28h 14a 14 14, 0, 0, 0, 0 -28" transform="rotate(-90,572,460)"/><path d="M 670 446v 28h 14a 14 14, 0, 0, 0, 0 -28" transform="rotate(180,684,460)"/><rect x="698" y="446" width="28" height="28" transform="rotate(0,712,460)"/><path d="M 754 446v 28h 14a 14 14, 0, 0, 0, 0 -28" transform="rotate(90,768,460)"/><path d="M 922 446v 28h 28v -14a 14 14, 0, 0, 0, -14 -14" transform="rotate(-90,936,460)"/><rect x="950" y="446" width="28" height="28" transform="rotate(0,964,460)"/><rect x="978" y="446" width="28" height="28" transform="rotate(0,992,460)"/><rect x="1006" y="446" width="28" height="28" transform="rotate(0,1020,460)"/><rect x="1034" y="446" width="28" height="28" transform="rotate(0,1048,460)"/><path d="M 1062 446v 28h 28v -14a 14 14, 0, 0, 0, -14 -14" transform="rotate(0,1076,460)"/><circle cx="1132" cy="460" r="14" transform="rotate(0,1132,460)"/><rect x="54" y="474" width="28" height="28" transform="rotate(0,68,488)"/><path d="M 110 474v 28h 14a 14 14, 0, 0, 0, 0 -28" transform="rotate(180,124,488)"/><rect x="138" y="474" width="28" height="28" transform="rotate(0,152,488)"/><rect x="166" y="474" width="28" height="28" transform="rotate(0,180,488)"/><rect x="194" y="474" width="28" height="28" transform="rotate(0,208,488)"/><path d="M 222 474v 28h 14a 14 14, 0, 0, 0, 0 -28" transform="rotate(0,236,488)"/><path d="M 306 474v 28h 28v -14a 14 14, 0, 0, 0, -14 -14" transform="rotate(-90,320,488)"/><path d="M 334 474v 28h 28v -14a 14 14, 0, 0, 0, -14 -14" transform="rotate(90,348,488)"/><circle cx="488" cy="488" r="14" transform="rotate(0,488,488)"/><path d="M 558 474v 28h 28v -14a 14 14, 0, 0, 0, -14 -14" transform="rotate(180,572,488)"/><path d="M 586 474v 28h 14a 14 14, 0, 0, 0, 0 -28" transform="rotate(0,600,488)"/><rect x="698" y="474" width="28" height="28" transform="rotate(0,712,488)"/><path d="M 782 474v 28h 14a 14 14, 0, 0, 0, 0 -28" transform="rotate(-90,796,488)"/><rect x="922" y="474" width="28" height="28" transform="rotate(0,936,488)"/><rect x="950" y="474" width="28" height="28" transform="rotate(0,964,488)"/><rect x="978" y="474" width="28" height="28" transform="rotate(0,992,488)"/><path d="M 1062 474v 28h 14a 14 14, 0, 0, 0, 0 -28" transform="rotate(90,1076,488)"/><path d="M 1146 474v 28h 14a 14 14, 0, 0, 0, 0 -28" transform="rotate(-90,1160,488)"/><path d="M 26 502v 28h 14a 14 14, 0, 0, 0, 0 -28" transform="rotate(180,40,516)"/><rect x="54" y="502" width="28" height="28" transform="rotate(0,68,516)"/><rect x="166" y="502" width="28" height="28" transform="rotate(0,180,516)"/><path d="M 278 502v 28h 28v -14a 14 14, 0, 0, 0, -14 -14" transform="rotate(-90,292,516)"/><path d="M 306 502v 28h 28v -14a 14 14, 0, 0, 0, -14 -14" transform="rotate(90,320,516)"/><path d="M 390 502v 28h 28v -14a 14 14, 0, 0, 0, -14 -14" transform="rotate(-90,404,516)"/><path d="M 418 502v 28h 28v -14a 14 14, 0, 0, 0, -14 -14" transform="rotate(0,432,516)"/><circle cx="628" cy="516" r="14" transform="rotate(0,628,516)"/><path d="M 670 502v 28h 28v -14a 14 14, 0, 0, 0, -14 -14" transform="rotate(-90,684,516)"/><rect x="698" y="502" width="28" height="28" transform="rotate(0,712,516)"/><rect x="782" y="502" width="28" height="28" transform="rotate(0,796,516)"/><rect x="810" y="502" width="28" height="28" transform="rotate(0,824,516)"/><path d="M 838 502v 28h 28v -14a 14 14, 0, 0, 0, -14 -14" transform="rotate(0,852,516)"/><path d="M 894 502v 28h 28v -14a 14 14, 0, 0, 0, -14 -14" transform="rotate(-90,908,516)"/><rect x="922" y="502" width="28" height="28" transform="rotate(0,936,516)"/><rect x="950" y="502" width="28" height="28" transform="rotate(0,964,516)"/><rect x="978" y="502" width="28" height="28" transform="rotate(0,992,516)"/><path d="M 1006 502v 28h 28v -14a 14 14, 0, 0, 0, -14 -14" transform="rotate(0,1020,516)"/><rect x="1146" y="502" width="28" height="28" transform="rotate(0,1160,516)"/><path d="M 54 530v 28h 28v -14a 14 14, 0, 0, 0, -14 -14" transform="rotate(180,68,544)"/><path d="M 82 530v 28h 28v -14a 14 14, 0, 0, 0, -14 -14" transform="rotate(0,96,544)"/><path d="M 166 530v 28h 28v -14a 14 14, 0, 0, 0, -14 -14" transform="rotate(180,180,544)"/><rect x="194" y="530" width="28" height="28" transform="rotate(0,208,544)"/><rect x="222" y="530" width="28" height="28" transform="rotate(0,236,544)"/><rect x="250" y="530" width="28" height="28" transform="rotate(0,264,544)"/><rect x="278" y="530" width="28" height="28" transform="rotate(0,292,544)"/><rect x="390" y="530" width="28" height="28" transform="rotate(0,404,544)"/><rect x="418" y="530" width="28" height="28" transform="rotate(0,432,544)"/><rect x="446" y="530" width="28" height="28" transform="rotate(0,460,544)"/><rect x="474" y="530" width="28" height="28" transform="rotate(0,488,544)"/><path d="M 502 530v 28h 28v -14a 14 14, 0, 0, 0, -14 -14" transform="rotate(0,516,544)"/><circle cx="572" cy="544" r="14" transform="rotate(0,572,544)"/><path d="M 670 530v 28h 28v -14a 14 14, 0, 0, 0, -14 -14" transform="rotate(180,684,544)"/><rect x="698" y="530" width="28" height="28" transform="rotate(0,712,544)"/><rect x="726" y="530" width="28" height="28" transform="rotate(0,740,544)"/><rect x="754" y="530" width="28" height="28" transform="rotate(0,768,544)"/><path d="M 782 530v 28h 28v -14a 14 14, 0, 0, 0, -14 -14" transform="rotate(90,796,544)"/><path d="M 838 530v 28h 14a 14 14, 0, 0, 0, 0 -28" transform="rotate(90,852,544)"/><rect x="894" y="530" width="28" height="28" transform="rotate(0,908,544)"/><rect x="950" y="530" width="28" height="28" transform="rotate(0,964,544)"/><path d="M 1006 530v 28h 28v -14a 14 14, 0, 0, 0, -14 -14" transform="rotate(180,1020,544)"/><rect x="1034" y="530" width="28" height="28" transform="rotate(0,1048,544)"/><path d="M 1062 530v 28h 28v -14a 14 14, 0, 0, 0, -14 -14" transform="rotate(0,1076,544)"/><rect x="1146" y="530" width="28" height="28" transform="rotate(0,1160,544)"/><path d="M 26 558v 28h 14a 14 14, 0, 0, 0, 0 -28" transform="rotate(-90,40,572)"/><rect x="82" y="558" width="28" height="28" transform="rotate(0,96,572)"/><path d="M 110 558v 28h 28v -14a 14 14, 0, 0, 0, -14 -14" transform="rotate(0,124,572)"/><rect x="250" y="558" width="28" height="28" transform="rotate(0,264,572)"/><rect x="278" y="558" width="28" height="28" transform="rotate(0,292,572)"/><path d="M 362 558v 28h 28v -14a 14 14, 0, 0, 0, -14 -14" transform="rotate(-90,376,572)"/><rect x="390" y="558" width="28" height="28" transform="rotate(0,404,572)"/><rect x="418" y="558" width="28" height="28" transform="rotate(0,432,572)"/><path d="M 502 558v 28h 14a 14 14, 0, 0, 0, 0 -28" transform="rotate(90,516,572)"/><path d="M 586 558v 28h 28v -14a 14 14, 0, 0, 0, -14 -14" transform="rotate(-90,600,572)"/><path d="M 614 558v 28h 28v -14a 14 14, 0, 0, 0, -14 -14" transform="rotate(0,628,572)"/><path d="M 698 558v 28h 14a 14 14, 0, 0, 0, 0 -28" transform="rotate(90,712,572)"/><rect x="754" y="558" width="28" height="28" transform="rotate(0,768,572)"/><circle cx="824" cy="572" r="14" transform="rotate(0,824,572)"/><rect x="894" y="558" width="28" height="28" transform="rotate(0,908,572)"/><rect x="922" y="558" width="28" height="28" transform="rotate(0,936,572)"/><path d="M 950 558v 28h 28v -14a 14 14, 0, 0, 0, -14 -14" transform="rotate(90,964,572)"/><path d="M 1062 558v 28h 14a 14 14, 0, 0, 0, 0 -28" transform="rotate(90,1076,572)"/><path d="M 1146 558v 28h 14a 14 14, 0, 0, 0, 0 -28" transform="rotate(90,1160,572)"/><path d="M 26 586v 28h 28v -14a 14 14, 0, 0, 0, -14 -14" transform="rotate(180,40,600)"/><rect x="54" y="586" width="28" height="28" transform="rotate(0,68,600)"/><rect x="82" y="586" width="28" height="28" transform="rotate(0,96,600)"/><rect x="110" y="586" width="28" height="28" transform="rotate(0,124,600)"/><path d="M 166 586v 28h 14a 14 14, 0, 0, 0, 0 -28" transform="rotate(180,180,600)"/><path d="M 194 586v 28h 14a 14 14, 0, 0, 0, 0 -28" transform="rotate(0,208,600)"/><rect x="250" y="586" width="28" height="28" transform="rotate(0,264,600)"/><rect x="278" y="586" width="28" height="28" transform="rotate(0,292,600)"/><path d="M 334 586v 28h 14a 14 14, 0, 0, 0, 0 -28" transform="rotate(180,348,600)"/><rect x="362" y="586" width="28" height="28" transform="rotate(0,376,600)"/><rect x="418" y="586" width="28" height="28" transform="rotate(0,432,600)"/><path d="M 530 586v 28h 14a 14 14, 0, 0, 0, 0 -28" transform="rotate(180,544,600)"/><rect x="558" y="586" width="28" height="28" transform="rotate(0,572,600)"/><rect x="586" y="586" width="28" height="28" transform="rotate(0,600,600)"/><rect x="614" y="586" width="28" height="28" transform="rotate(0,628,600)"/><path d="M 642 586v 28h 14a 14 14, 0, 0, 0, 0 -28" transform="rotate(0,656,600)"/><path d="M 726 586v 28h 14a 14 14, 0, 0, 0, 0 -28" transform="rotate(180,740,600)"/><rect x="754" y="586" width="28" height="28" transform="rotate(0,768,600)"/><rect x="894" y="586" width="28" height="28" transform="rotate(0,908,600)"/><rect x="922" y="586" width="28" height="28" transform="rotate(0,936,600)"/><path d="M 978 586v 28h 28v -14a 14 14, 0, 0, 0, -14 -14" transform="rotate(-90,992,600)"/><path d="M 1006 586v 28h 28v -14a 14 14, 0, 0, 0, -14 -14" transform="rotate(0,1020,600)"/><rect x="54" y="614" width="28" height="28" transform="rotate(0,68,628)"/><rect x="82" y="614" width="28" height="28" transform="rotate(0,96,628)"/><rect x="110" y="614" width="28" height="28" transform="rotate(0,124,628)"/><path d="M 138 614v 28h 28v -14a 14 14, 0, 0, 0, -14 -14" transform="rotate(0,152,628)"/><path d="M 222 614v 28h 28v -14a 14 14, 0, 0, 0, -14 -14" transform="rotate(-90,236,628)"/><rect x="250" y="614" width="28" height="28" transform="rotate(0,264,628)"/><rect x="278" y="614" width="28" height="28" transform="rotate(0,292,628)"/><rect x="362" y="614" width="28" height="28" transform="rotate(0,376,628)"/><rect x="418" y="614" width="28" height="28" transform="rotate(0,432,628)"/><path d="M 474 614v 28h 28v -14a 14 14, 0, 0, 0, -14 -14" transform="rotate(-90,488,628)"/><path d="M 502 614v 28h 28v -14a 14 14, 0, 0, 0, -14 -14" transform="rotate(0,516,628)"/><rect x="558" y="614" width="28" height="28" transform="rotate(0,572,628)"/><path d="M 614 614v 28h 14a 14 14, 0, 0, 0, 0 -28" transform="rotate(90,628,628)"/><path d="M 670 614v 28h 28v -14a 14 14, 0, 0, 0, -14 -14" transform="rotate(-90,684,628)"/><path d="M 698 614v 28h 14a 14 14, 0, 0, 0, 0 -28" transform="rotate(0,712,628)"/><path d="M 754 614v 28h 28v -14a 14 14, 0, 0, 0, -14 -14" transform="rotate(180,768,628)"/><rect x="782" y="614" width="28" height="28" transform="rotate(0,796,628)"/><path d="M 810 614v 28h 14a 14 14, 0, 0, 0, 0 -28" transform="rotate(0,824,628)"/><rect x="894" y="614" width="28" height="28" transform="rotate(0,908,628)"/><path d="M 922 614v 28h 28v -14a 14 14, 0, 0, 0, -14 -14" transform="rotate(90,936,628)"/><rect x="978" y="614" width="28" height="28" transform="rotate(0,992,628)"/><rect x="1006" y="614" width="28" height="28" transform="rotate(0,1020,628)"/><circle cx="1076" cy="628" r="14" transform="rotate(0,1076,628)"/><path d="M 1146 614v 28h 14a 14 14, 0, 0, 0, 0 -28" transform="rotate(-90,1160,628)"/><path d="M 26 642v 28h 28v -14a 14 14, 0, 0, 0, -14 -14" transform="rotate(-90,40,656)"/><rect x="54" y="642" width="28" height="28" transform="rotate(0,68,656)"/><path d="M 138 642v 28h 14a 14 14, 0, 0, 0, 0 -28" transform="rotate(90,152,656)"/><path d="M 194 642v 28h 14a 14 14, 0, 0, 0, 0 -28" transform="rotate(180,208,656)"/><rect x="222" y="642" width="28" height="28" transform="rotate(0,236,656)"/><rect x="250" y="642" width="28" height="28" transform="rotate(0,264,656)"/><rect x="278" y="642" width="28" height="28" transform="rotate(0,292,656)"/><rect x="306" y="642" width="28" height="28" transform="rotate(0,320,656)"/><rect x="334" y="642" width="28" height="28" transform="rotate(0,348,656)"/><rect x="362" y="642" width="28" height="28" transform="rotate(0,376,656)"/><rect x="390" y="642" width="28" height="28" transform="rotate(0,404,656)"/><rect x="418" y="642" width="28" height="28" transform="rotate(0,432,656)"/><path d="M 474 642v 28h 28v -14a 14 14, 0, 0, 0, -14 -14" transform="rotate(180,488,656)"/><rect x="502" y="642" width="28" height="28" transform="rotate(0,516,656)"/><path d="M 558 642v 28h 28v -14a 14 14, 0, 0, 0, -14 -14" transform="rotate(180,572,656)"/><path d="M 586 642v 28h 28v -14a 14 14, 0, 0, 0, -14 -14" transform="rotate(0,600,656)"/><rect x="670" y="642" width="28" height="28" transform="rotate(0,684,656)"/><circle cx="740" cy="656" r="14" transform="rotate(0,740,656)"/><path d="M 782 642v 28h 14a 14 14, 0, 0, 0, 0 -28" transform="rotate(90,796,656)"/><circle cx="852" cy="656" r="14" transform="rotate(0,852,656)"/><rect x="894" y="642" width="28" height="28" transform="rotate(0,908,656)"/><rect x="978" y="642" width="28" height="28" transform="rotate(0,992,656)"/><path d="M 1006 642v 28h 28v -14a 14 14, 0, 0, 0, -14 -14" transform="rotate(90,1020,656)"/><rect x="1146" y="642" width="28" height="28" transform="rotate(0,1160,656)"/><path d="M 26 670v 28h 28v -14a 14 14, 0, 0, 0, -14 -14" transform="rotate(180,40,684)"/><rect x="54" y="670" width="28" height="28" transform="rotate(0,68,684)"/><rect x="82" y="670" width="28" height="28" transform="rotate(0,96,684)"/><path d="M 110 670v 28h 28v -14a 14 14, 0, 0, 0, -14 -14" transform="rotate(0,124,684)"/><path d="M 250 670v 28h 14a 14 14, 0, 0, 0, 0 -28" transform="rotate(90,264,684)"/><rect x="362" y="670" width="28" height="28" transform="rotate(0,376,684)"/><rect x="418" y="670" width="28" height="28" transform="rotate(0,432,684)"/><path d="M 446 670v 28h 14a 14 14, 0, 0, 0, 0 -28" transform="rotate(0,460,684)"/><rect x="502" y="670" width="28" height="28" transform="rotate(0,516,684)"/><path d="M 530 670v 28h 14a 14 14, 0, 0, 0, 0 -28" transform="rotate(0,544,684)"/><path d="M 586 670v 28h 14a 14 14, 0, 0, 0, 0 -28" transform="rotate(90,600,684)"/><path d="M 670 670v 28h 28v -14a 14 14, 0, 0, 0, -14 -14" transform="rotate(180,684,684)"/><path d="M 698 670v 28h 14a 14 14, 0, 0, 0, 0 -28" transform="rotate(0,712,684)"/><circle cx="768" cy="684" r="14" transform="rotate(0,768,684)"/><path d="M 866 670v 28h 14a 14 14, 0, 0, 0, 0 -28" transform="rotate(180,880,684)"/><rect x="894" y="670" width="28" height="28" transform="rotate(0,908,684)"/><rect x="978" y="670" width="28" height="28" transform="rotate(0,992,684)"/><circle cx="1076" cy="684" r="14" transform="rotate(0,1076,684)"/><path d="M 1118 670v 28h 28v -14a 14 14, 0, 0, 0, -14 -14" transform="rotate(-90,1132,684)"/><rect x="1146" y="670" width="28" height="28" transform="rotate(0,1160,684)"/><rect x="110" y="698" width="28" height="28" transform="rotate(0,124,712)"/><rect x="138" y="698" width="28" height="28" transform="rotate(0,152,712)"/><rect x="166" y="698" width="28" height="28" transform="rotate(0,180,712)"/><path d="M 194 698v 28h 14a 14 14, 0, 0, 0, 0 -28" transform="rotate(0,208,712)"/><rect x="362" y="698" width="28" height="28" transform="rotate(0,376,712)"/><path d="M 418 698v 28h 14a 14 14, 0, 0, 0, 0 -28" transform="rotate(90,432,712)"/><rect x="502" y="698" width="28" height="28" transform="rotate(0,516,712)"/><circle cx="572" cy="712" r="14" transform="rotate(0,572,712)"/><path d="M 642 698v 28h 14a 14 14, 0, 0, 0, 0 -28" transform="rotate(-90,656,712)"/><path d="M 782 698v 28h 14a 14 14, 0, 0, 0, 0 -28" transform="rotate(-90,796,712)"/><rect x="894" y="698" width="28" height="28" transform="rotate(0,908,712)"/><rect x="922" y="698" width="28" height="28" transform="rotate(0,936,712)"/><rect x="950" y="698" width="28" height="28" transform="rotate(0,964,712)"/><rect x="978" y="698" width="28" height="28" transform="rotate(0,992,712)"/><path d="M 1006 698v 28h 28v -14a 14 14, 0, 0, 0, -14 -14" transform="rotate(0,1020,712)"/><path d="M 1118 698v 28h 28v -14a 14 14, 0, 0, 0, -14 -14" transform="rotate(180,1132,712)"/><rect x="1146" y="698" width="28" height="28" transform="rotate(0,1160,712)"/><path d="M 54 726v 28h 14a 14 14, 0, 0, 0, 0 -28" transform="rotate(180,68,740)"/><rect x="82" y="726" width="28" height="28" transform="rotate(0,96,740)"/><rect x="110" y="726" width="28" height="28" transform="rotate(0,124,740)"/><rect x="138" y="726" width="28" height="28" transform="rotate(0,152,740)"/><rect x="166" y="726" width="28" height="28" transform="rotate(0,180,740)"/><circle cx="292" cy="740" r="14" transform="rotate(0,292,740)"/><path d="M 334 726v 28h 28v -14a 14 14, 0, 0, 0, -14 -14" transform="rotate(-90,348,740)"/><rect x="362" y="726" width="28" height="28" transform="rotate(0,376,740)"/><path d="M 390 726v 28h 28v -14a 14 14, 0, 0, 0, -14 -14" transform="rotate(0,404,740)"/><path d="M 474 726v 28h 28v -14a 14 14, 0, 0, 0, -14 -14" transform="rotate(-90,488,740)"/><path d="M 502 726v 28h 28v -14a 14 14, 0, 0, 0, -14 -14" transform="rotate(90,516,740)"/><path d="M 586 726v 28h 14a 14 14, 0, 0, 0, 0 -28" transform="rotate(180,600,740)"/><rect x="614" y="726" width="28" height="28" transform="rotate(0,628,740)"/><rect x="642" y="726" width="28" height="28" transform="rotate(0,656,740)"/><rect x="670" y="726" width="28" height="28" transform="rotate(0,684,740)"/><rect x="698" y="726" width="28" height="28" transform="rotate(0,712,740)"/><path d="M 726 726v 28h 28v -14a 14 14, 0, 0, 0, -14 -14" transform="rotate(0,740,740)"/><rect x="782" y="726" width="28" height="28" transform="rotate(0,796,740)"/><path d="M 810 726v 28h 28v -14a 14 14, 0, 0, 0, -14 -14" transform="rotate(0,824,740)"/><rect x="894" y="726" width="28" height="28" transform="rotate(0,908,740)"/><path d="M 978 726v 28h 28v -14a 14 14, 0, 0, 0, -14 -14" transform="rotate(180,992,740)"/><path d="M 1006 726v 28h 28v -14a 14 14, 0, 0, 0, -14 -14" transform="rotate(90,1020,740)"/><path d="M 1062 726v 28h 14a 14 14, 0, 0, 0, 0 -28" transform="rotate(-90,1076,740)"/><rect x="1146" y="726" width="28" height="28" transform="rotate(0,1160,740)"/><circle cx="40" cy="768" r="14" transform="rotate(0,40,768)"/><rect x="166" y="754" width="28" height="28" transform="rotate(0,180,768)"/><path d="M 194 754v 28h 14a 14 14, 0, 0, 0, 0 -28" transform="rotate(0,208,768)"/><path d="M 250 754v 28h 14a 14 14, 0, 0, 0, 0 -28" transform="rotate(-90,264,768)"/><path d="M 334 754v 28h 28v -14a 14 14, 0, 0, 0, -14 -14" transform="rotate(180,348,768)"/><rect x="362" y="754" width="28" height="28" transform="rotate(0,376,768)"/><rect x="390" y="754" width="28" height="28" transform="rotate(0,404,768)"/><path d="M 446 754v 28h 14a 14 14, 0, 0, 0, 0 -28" transform="rotate(180,460,768)"/><rect x="474" y="754" width="28" height="28" transform="rotate(0,488,768)"/><path d="M 642 754v 28h 28v -14a 14 14, 0, 0, 0, -14 -14" transform="rotate(180,656,768)"/><rect x="670" y="754" width="28" height="28" transform="rotate(0,684,768)"/><rect x="698" y="754" width="28" height="28" transform="rotate(0,712,768)"/><path d="M 726 754v 28h 28v -14a 14 14, 0, 0, 0, -14 -14" transform="rotate(90,740,768)"/><path d="M 782 754v 28h 28v -14a 14 14, 0, 0, 0, -14 -14" transform="rotate(180,796,768)"/><rect x="810" y="754" width="28" height="28" transform="rotate(0,824,768)"/><path d="M 838 754v 28h 14a 14 14, 0, 0, 0, 0 -28" transform="rotate(0,852,768)"/><rect x="894" y="754" width="28" height="28" transform="rotate(0,908,768)"/><path d="M 1034 754v 28h 14a 14 14, 0, 0, 0, 0 -28" transform="rotate(180,1048,768)"/><rect x="1062" y="754" width="28" height="28" transform="rotate(0,1076,768)"/><path d="M 1090 754v 28h 14a 14 14, 0, 0, 0, 0 -28" transform="rotate(0,1104,768)"/><rect x="1146" y="754" width="28" height="28" transform="rotate(0,1160,768)"/><circle cx="68" cy="796" r="14" transform="rotate(0,68,796)"/><path d="M 138 782v 28h 28v -14a 14 14, 0, 0, 0, -14 -14" transform="rotate(-90,152,796)"/><rect x="166" y="782" width="28" height="28" transform="rotate(0,180,796)"/><rect x="250" y="782" width="28" height="28" transform="rotate(0,264,796)"/><path d="M 306 782v 28h 14a 14 14, 0, 0, 0, 0 -28" transform="rotate(-90,320,796)"/><path d="M 390 782v 28h 28v -14a 14 14, 0, 0, 0, -14 -14" transform="rotate(180,404,796)"/><path d="M 418 782v 28h 14a 14 14, 0, 0, 0, 0 -28" transform="rotate(0,432,796)"/><rect x="474" y="782" width="28" height="28" transform="rotate(0,488,796)"/><path d="M 530 782v 28h 28v -14a 14 14, 0, 0, 0, -14 -14" transform="rotate(-90,544,796)"/><rect x="558" y="782" width="28" height="28" transform="rotate(0,572,796)"/><path d="M 586 782v 28h 14a 14 14, 0, 0, 0, 0 -28" transform="rotate(0,600,796)"/><path d="M 698 782v 28h 14a 14 14, 0, 0, 0, 0 -28" transform="rotate(90,712,796)"/><circle cx="768" cy="796" r="14" transform="rotate(0,768,796)"/><rect x="810" y="782" width="28" height="28" transform="rotate(0,824,796)"/><path d="M 894 782v 28h 28v -14a 14 14, 0, 0, 0, -14 -14" transform="rotate(180,908,796)"/><rect x="922" y="782" width="28" height="28" transform="rotate(0,936,796)"/><path d="M 950 782v 28h 14a 14 14, 0, 0, 0, 0 -28" transform="rotate(0,964,796)"/><path d="M 1006 782v 28h 14a 14 14, 0, 0, 0, 0 -28" transform="rotate(-90,1020,796)"/><path d="M 1062 782v 28h 14a 14 14, 0, 0, 0, 0 -28" transform="rotate(90,1076,796)"/><rect x="1146" y="782" width="28" height="28" transform="rotate(0,1160,796)"/><path d="M 82 810v 28h 14a 14 14, 0, 0, 0, 0 -28" transform="rotate(180,96,824)"/><rect x="110" y="810" width="28" height="28" transform="rotate(0,124,824)"/><rect x="138" y="810" width="28" height="28" transform="rotate(0,152,824)"/><rect x="166" y="810" width="28" height="28" transform="rotate(0,180,824)"/><path d="M 194 810v 28h 14a 14 14, 0, 0, 0, 0 -28" transform="rotate(0,208,824)"/><rect x="250" y="810" width="28" height="28" transform="rotate(0,264,824)"/><rect x="278" y="810" width="28" height="28" transform="rotate(0,292,824)"/><rect x="306" y="810" width="28" height="28" transform="rotate(0,320,824)"/><path d="M 334 810v 28h 14a 14 14, 0, 0, 0, 0 -28" transform="rotate(0,348,824)"/><path d="M 446 810v 28h 28v -14a 14 14, 0, 0, 0, -14 -14" transform="rotate(-90,460,824)"/><rect x="474" y="810" width="28" height="28" transform="rotate(0,488,824)"/><rect x="530" y="810" width="28" height="28" transform="rotate(0,544,824)"/><path d="M 782 810v 28h 14a 14 14, 0, 0, 0, 0 -28" transform="rotate(180,796,824)"/><rect x="810" y="810" width="28" height="28" transform="rotate(0,824,824)"/><rect x="922" y="810" width="28" height="28" transform="rotate(0,936,824)"/><path d="M 978 810v 28h 28v -14a 14 14, 0, 0, 0, -14 -14" transform="rotate(-90,992,824)"/><path d="M 1006 810v 28h 28v -14a 14 14, 0, 0, 0, -14 -14" transform="rotate(90,1020,824)"/><rect x="1146" y="810" width="28" height="28" transform="rotate(0,1160,824)"/><rect x="110" y="838" width="28" height="28" transform="rotate(0,124,852)"/><rect x="138" y="838" width="28" height="28" transform="rotate(0,152,852)"/><path d="M 166 838v 28h 28v -14a 14 14, 0, 0, 0, -14 -14" transform="rotate(90,180,852)"/><path d="M 222 838v 28h 14a 14 14, 0, 0, 0, 0 -28" transform="rotate(180,236,852)"/><rect x="250" y="838" width="28" height="28" transform="rotate(0,264,852)"/><rect x="278" y="838" width="28" height="28" transform="rotate(0,292,852)"/><rect x="306" y="838" width="28" height="28" transform="rotate(0,320,852)"/><circle cx="376" cy="852" r="14" transform="rotate(0,376,852)"/><path d="M 418 838v 28h 14a 14 14, 0, 0, 0, 0 -28" transform="rotate(180,432,852)"/><rect x="446" y="838" width="28" height="28" transform="rotate(0,460,852)"/><rect x="474" y="838" width="28" height="28" transform="rotate(0,488,852)"/><rect x="502" y="838" width="28" height="28" transform="rotate(0,516,852)"/><rect x="530" y="838" width="28" height="28" transform="rotate(0,544,852)"/><path d="M 558 838v 28h 28v -14a 14 14, 0, 0, 0, -14 -14" transform="rotate(0,572,852)"/><path d="M 614 838v 28h 14a 14 14, 0, 0, 0, 0 -28" transform="rotate(180,628,852)"/><path d="M 642 838v 28h 14a 14 14, 0, 0, 0, 0 -28" transform="rotate(0,656,852)"/><path d="M 726 838v 28h 14a 14 14, 0, 0, 0, 0 -28" transform="rotate(180,740,852)"/><path d="M 754 838v 28h 14a 14 14, 0, 0, 0, 0 -28" transform="rotate(0,768,852)"/><rect x="810" y="838" width="28" height="28" transform="rotate(0,824,852)"/><path d="M 838 838v 28h 28v -14a 14 14, 0, 0, 0, -14 -14" transform="rotate(0,852,852)"/><path d="M 894 838v 28h 28v -14a 14 14, 0, 0, 0, -14 -14" transform="rotate(-90,908,852)"/><rect x="922" y="838" width="28" height="28" transform="rotate(0,936,852)"/><rect x="950" y="838" width="28" height="28" transform="rotate(0,964,852)"/><path d="M 978 838v 28h 28v -14a 14 14, 0, 0, 0, -14 -14" transform="rotate(90,992,852)"/><path d="M 1062 838v 28h 14a 14 14, 0, 0, 0, 0 -28" transform="rotate(180,1076,852)"/><path d="M 1090 838v 28h 14a 14 14, 0, 0, 0, 0 -28" transform="rotate(0,1104,852)"/><rect x="1146" y="838" width="28" height="28" transform="rotate(0,1160,852)"/><path d="M 26 866v 28h 14a 14 14, 0, 0, 0, 0 -28" transform="rotate(180,40,880)"/><path d="M 54 866v 28h 14a 14 14, 0, 0, 0, 0 -28" transform="rotate(0,68,880)"/><rect x="110" y="866" width="28" height="28" transform="rotate(0,124,880)"/><path d="M 138 866v 28h 28v -14a 14 14, 0, 0, 0, -14 -14" transform="rotate(90,152,880)"/><circle cx="208" cy="880" r="14" transform="rotate(0,208,880)"/><path d="M 278 866v 28h 28v -14a 14 14, 0, 0, 0, -14 -14" transform="rotate(180,292,880)"/><path d="M 306 866v 28h 28v -14a 14 14, 0, 0, 0, -14 -14" transform="rotate(90,320,880)"/><rect x="474" y="866" width="28" height="28" transform="rotate(0,488,880)"/><rect x="502" y="866" width="28" height="28" transform="rotate(0,516,880)"/><rect x="530" y="866" width="28" height="28" transform="rotate(0,544,880)"/><rect x="558" y="866" width="28" height="28" transform="rotate(0,572,880)"/><circle cx="684" cy="880" r="14" transform="rotate(0,684,880)"/><rect x="810" y="866" width="28" height="28" transform="rotate(0,824,880)"/><path d="M 838 866v 28h 28v -14a 14 14, 0, 0, 0, -14 -14" transform="rotate(90,852,880)"/><rect x="894" y="866" width="28" height="28" transform="rotate(0,908,880)"/><path d="M 950 866v 28h 14a 14 14, 0, 0, 0, 0 -28" transform="rotate(90,964,880)"/><path d="M 1034 866v 28h 14a 14 14, 0, 0, 0, 0 -28" transform="rotate(-90,1048,880)"/><rect x="1146" y="866" width="28" height="28" transform="rotate(0,1160,880)"/><path d="M 82 894v 28h 14a 14 14, 0, 0, 0, 0 -28" transform="rotate(180,96,908)"/><rect x="110" y="894" width="28" height="28" transform="rotate(0,124,908)"/><path d="M 250 894v 28h 14a 14 14, 0, 0, 0, 0 -28" transform="rotate(-90,264,908)"/><circle cx="404" cy="908" r="14" transform="rotate(0,404,908)"/><path d="M 474 894v 28h 28v -14a 14 14, 0, 0, 0, -14 -14" transform="rotate(180,488,908)"/><rect x="502" y="894" width="28" height="28" transform="rotate(0,516,908)"/><rect x="558" y="894" width="28" height="28" transform="rotate(0,572,908)"/><path d="M 614 894v 28h 14a 14 14, 0, 0, 0, 0 -28" transform="rotate(180,628,908)"/><path d="M 642 894v 28h 14a 14 14, 0, 0, 0, 0 -28" transform="rotate(0,656,908)"/><path d="M 782 894v 28h 14a 14 14, 0, 0, 0, 0 -28" transform="rotate(180,796,908)"/><rect x="810" y="894" width="28" height="28" transform="rotate(0,824,908)"/><rect x="894" y="894" width="28" height="28" transform="rotate(0,908,908)"/><path d="M 978 894v 28h 28v -14a 14 14, 0, 0, 0, -14 -14" transform="rotate(-90,992,908)"/><rect x="1006" y="894" width="28" height="28" transform="rotate(0,1020,908)"/><rect x="1034" y="894" width="28" height="28" transform="rotate(0,1048,908)"/><path d="M 1062 894v 28h 28v -14a 14 14, 0, 0, 0, -14 -14" transform="rotate(0,1076,908)"/><path d="M 1118 894v 28h 14a 14 14, 0, 0, 0, 0 -28" transform="rotate(180,1132,908)"/><rect x="1146" y="894" width="28" height="28" transform="rotate(0,1160,908)"/><path d="M 26 922v 28h 14a 14 14, 0, 0, 0, 0 -28" transform="rotate(180,40,936)"/><path d="M 54 922v 28h 14a 14 14, 0, 0, 0, 0 -28" transform="rotate(0,68,936)"/><path d="M 110 922v 28h 28v -14a 14 14, 0, 0, 0, -14 -14" transform="rotate(180,124,936)"/><path d="M 138 922v 28h 14a 14 14, 0, 0, 0, 0 -28" transform="rotate(0,152,936)"/><path d="M 194 922v 28h 14a 14 14, 0, 0, 0, 0 -28" transform="rotate(180,208,936)"/><rect x="222" y="922" width="28" height="28" transform="rotate(0,236,936)"/><rect x="250" y="922" width="28" height="28" transform="rotate(0,264,936)"/><circle cx="460" cy="936" r="14" transform="rotate(0,460,936)"/><path d="M 502 922v 28h 14a 14 14, 0, 0, 0, 0 -28" transform="rotate(90,516,936)"/><path d="M 558 922v 28h 28v -14a 14 14, 0, 0, 0, -14 -14" transform="rotate(180,572,936)"/><path d="M 586 922v 28h 14a 14 14, 0, 0, 0, 0 -28" transform="rotate(0,600,936)"/><path d="M 670 922v 28h 28v -14a 14 14, 0, 0, 0, -14 -14" transform="rotate(-90,684,936)"/><path d="M 698 922v 28h 28v -14a 14 14, 0, 0, 0, -14 -14" transform="rotate(0,712,936)"/><path d="M 810 922v 28h 14a 14 14, 0, 0, 0, 0 -28" transform="rotate(90,824,936)"/><path d="M 894 922v 28h 28v -14a 14 14, 0, 0, 0, -14 -14" transform="rotate(180,908,936)"/><rect x="922" y="922" width="28" height="28" transform="rotate(0,936,936)"/><rect x="950" y="922" width="28" height="28" transform="rotate(0,964,936)"/><rect x="978" y="922" width="28" height="28" transform="rotate(0,992,936)"/><rect x="1006" y="922" width="28" height="28" transform="rotate(0,1020,936)"/><rect x="1034" y="922" width="28" height="28" transform="rotate(0,1048,936)"/><path d="M 1062 922v 28h 28v -14a 14 14, 0, 0, 0, -14 -14" transform="rotate(90,1076,936)"/><rect x="1146" y="922" width="28" height="28" transform="rotate(0,1160,936)"/><path d="M 250 950v 28h 28v -14a 14 14, 0, 0, 0, -14 -14" transform="rotate(180,264,964)"/><rect x="278" y="950" width="28" height="28" transform="rotate(0,292,964)"/><path d="M 306 950v 28h 14a 14 14, 0, 0, 0, 0 -28" transform="rotate(0,320,964)"/><circle cx="376" cy="964" r="14" transform="rotate(0,376,964)"/><path d="M 418 950v 28h 14a 14 14, 0, 0, 0, 0 -28" transform="rotate(-90,432,964)"/><path d="M 474 950v 28h 14a 14 14, 0, 0, 0, 0 -28" transform="rotate(-90,488,964)"/><path d="M 530 950v 28h 14a 14 14, 0, 0, 0, 0 -28" transform="rotate(-90,544,964)"/><path d="M 614 950v 28h 14a 14 14, 0, 0, 0, 0 -28" transform="rotate(-90,628,964)"/><rect x="670" y="950" width="28" height="28" transform="rotate(0,684,964)"/><rect x="698" y="950" width="28" height="28" transform="rotate(0,712,964)"/><rect x="726" y="950" width="28" height="28" transform="rotate(0,740,964)"/><rect x="754" y="950" width="28" height="28" transform="rotate(0,768,964)"/><path d="M 782 950v 28h 28v -14a 14 14, 0, 0, 0, -14 -14" transform="rotate(0,796,964)"/><path d="M 838 950v 28h 28v -14a 14 14, 0, 0, 0, -14 -14" transform="rotate(-90,852,964)"/><path d="M 866 950v 28h 14a 14 14, 0, 0, 0, 0 -28" transform="rotate(0,880,964)"/><rect x="922" y="950" width="28" height="28" transform="rotate(0,936,964)"/><rect x="1034" y="950" width="28" height="28" transform="rotate(0,1048,964)"/><rect x="1146" y="950" width="28" height="28" transform="rotate(0,1160,964)"/><path d="M 390 978v 28h 28v -14a 14 14, 0, 0, 0, -14 -14" transform="rotate(-90,404,992)"/><rect x="418" y="978" width="28" height="28" transform="rotate(0,432,992)"/><rect x="446" y="978" width="28" height="28" transform="rotate(0,460,992)"/><rect x="474" y="978" width="28" height="28" transform="rotate(0,488,992)"/><rect x="502" y="978" width="28" height="28" transform="rotate(0,516,992)"/><path d="M 530 978v 28h 28v -14a 14 14, 0, 0, 0, -14 -14" transform="rotate(90,544,992)"/><rect x="614" y="978" width="28" height="28" transform="rotate(0,628,992)"/><rect x="642" y="978" width="28" height="28" transform="rotate(0,656,992)"/><path d="M 670 978v 28h 28v -14a 14 14, 0, 0, 0, -14 -14" transform="rotate(90,684,992)"/><rect x="782" y="978" width="28" height="28" transform="rotate(0,796,992)"/><path d="M 838 978v 28h 14a 14 14, 0, 0, 0, 0 -28" transform="rotate(90,852,992)"/><rect x="922" y="978" width="28" height="28" transform="rotate(0,936,992)"/><circle cx="992" cy="992" r="14" transform="rotate(0,992,992)"/><rect x="1034" y="978" width="28" height="28" transform="rotate(0,1048,992)"/><rect x="1062" y="978" width="28" height="28" transform="rotate(0,1076,992)"/><rect x="1090" y="978" width="28" height="28" transform="rotate(0,1104,992)"/><rect x="1118" y="978" width="28" height="28" transform="rotate(0,1132,992)"/><path d="M 1146 978v 28h 28v -14a 14 14, 0, 0, 0, -14 -14" transform="rotate(90,1160,992)"/><path d="M 278 1006v 28h 28v -14a 14 14, 0, 0, 0, -14 -14" transform="rotate(-90,292,1020)"/><path d="M 306 1006v 28h 28v -14a 14 14, 0, 0, 0, -14 -14" transform="rotate(0,320,1020)"/><path d="M 390 1006v 28h 28v -14a 14 14, 0, 0, 0, -14 -14" transform="rotate(180,404,1020)"/><path d="M 418 1006v 28h 28v -14a 14 14, 0, 0, 0, -14 -14" transform="rotate(90,432,1020)"/><path d="M 474 1006v 28h 28v -14a 14 14, 0, 0, 0, -14 -14" transform="rotate(180,488,1020)"/><rect x="502" y="1006" width="28" height="28" transform="rotate(0,516,1020)"/><path d="M 586 1006v 28h 28v -14a 14 14, 0, 0, 0, -14 -14" transform="rotate(-90,600,1020)"/><rect x="614" y="1006" width="28" height="28" transform="rotate(0,628,1020)"/><path d="M 642 1006v 28h 28v -14a 14 14, 0, 0, 0, -14 -14" transform="rotate(90,656,1020)"/><path d="M 726 1006v 28h 14a 14 14, 0, 0, 0, 0 -28" transform="rotate(-90,740,1020)"/><rect x="782" y="1006" width="28" height="28" transform="rotate(0,796,1020)"/><path d="M 894 1006v 28h 28v -14a 14 14, 0, 0, 0, -14 -14" transform="rotate(-90,908,1020)"/><rect x="922" y="1006" width="28" height="28" transform="rotate(0,936,1020)"/><rect x="1034" y="1006" width="28" height="28" transform="rotate(0,1048,1020)"/><path d="M 1062 1006v 28h 28v -14a 14 14, 0, 0, 0, -14 -14" transform="rotate(90,1076,1020)"/><rect x="1118" y="1006" width="28" height="28" transform="rotate(0,1132,1020)"/><path d="M 278 1034v 28h 28v -14a 14 14, 0, 0, 0, -14 -14" transform="rotate(180,292,1048)"/><rect x="306" y="1034" width="28" height="28" transform="rotate(0,320,1048)"/><rect x="334" y="1034" width="28" height="28" transform="rotate(0,348,1048)"/><path d="M 362 1034v 28h 14a 14 14, 0, 0, 0, 0 -28" transform="rotate(0,376,1048)"/><circle cx="460" cy="1048" r="14" transform="rotate(0,460,1048)"/><path d="M 502 1034v 28h 28v -14a 14 14, 0, 0, 0, -14 -14" transform="rotate(180,516,1048)"/><rect x="530" y="1034" width="28" height="28" transform="rotate(0,544,1048)"/><rect x="558" y="1034" width="28" height="28" transform="rotate(0,572,1048)"/><rect x="586" y="1034" width="28" height="28" transform="rotate(0,600,1048)"/><path d="M 698 1034v 28h 28v -14a 14 14, 0, 0, 0, -14 -14" transform="rotate(-90,712,1048)"/><path d="M 726 1034v 28h 28v -14a 14 14, 0, 0, 0, -14 -14" transform="rotate(90,740,1048)"/><rect x="782" y="1034" width="28" height="28" transform="rotate(0,796,1048)"/><rect x="810" y="1034" width="28" height="28" transform="rotate(0,824,1048)"/><rect x="838" y="1034" width="28" height="28" transform="rotate(0,852,1048)"/><rect x="866" y="1034" width="28" height="28" transform="rotate(0,880,1048)"/><rect x="894" y="1034" width="28" height="28" transform="rotate(0,908,1048)"/><rect x="922" y="1034" width="28" height="28" transform="rotate(0,936,1048)"/><rect x="950" y="1034" width="28" height="28" transform="rotate(0,964,1048)"/><rect x="978" y="1034" width="28" height="28" transform="rotate(0,992,1048)"/><rect x="1006" y="1034" width="28" height="28" transform="rotate(0,1020,1048)"/><rect x="1034" y="1034" width="28" height="28" transform="rotate(0,1048,1048)"/><path d="M 1118 1034v 28h 14a 14 14, 0, 0, 0, 0 -28" transform="rotate(90,1132,1048)"/><path d="M 306 1062v 28h 28v -14a 14 14, 0, 0, 0, -14 -14" transform="rotate(180,320,1076)"/><rect x="334" y="1062" width="28" height="28" transform="rotate(0,348,1076)"/><path d="M 390 1062v 28h 14a 14 14, 0, 0, 0, 0 -28" transform="rotate(-90,404,1076)"/><path d="M 474 1062v 28h 14a 14 14, 0, 0, 0, 0 -28" transform="rotate(-90,488,1076)"/><rect x="530" y="1062" width="28" height="28" transform="rotate(0,544,1076)"/><rect x="558" y="1062" width="28" height="28" transform="rotate(0,572,1076)"/><rect x="586" y="1062" width="28" height="28" transform="rotate(0,600,1076)"/><path d="M 642 1062v 28h 14a 14 14, 0, 0, 0, 0 -28" transform="rotate(180,656,1076)"/><rect x="670" y="1062" width="28" height="28" transform="rotate(0,684,1076)"/><rect x="698" y="1062" width="28" height="28" transform="rotate(0,712,1076)"/><rect x="782" y="1062" width="28" height="28" transform="rotate(0,796,1076)"/><rect x="810" y="1062" width="28" height="28" transform="rotate(0,824,1076)"/><rect x="838" y="1062" width="28" height="28" transform="rotate(0,852,1076)"/><path d="M 894 1062v 28h 14a 14 14, 0, 0, 0, 0 -28" transform="rotate(90,908,1076)"/><path d="M 1006 1062v 28h 28v -14a 14 14, 0, 0, 0, -14 -14" transform="rotate(180,1020,1076)"/><rect x="1034" y="1062" width="28" height="28" transform="rotate(0,1048,1076)"/><path d="M 1062 1062v 28h 14a 14 14, 0, 0, 0, 0 -28" transform="rotate(0,1076,1076)"/><path d="M 250 1090v 28h 14a 14 14, 0, 0, 0, 0 -28" transform="rotate(-90,264,1104)"/><rect x="334" y="1090" width="28" height="28" transform="rotate(0,348,1104)"/><path d="M 390 1090v 28h 14a 14 14, 0, 0, 0, 0 -28" transform="rotate(90,404,1104)"/><rect x="474" y="1090" width="28" height="28" transform="rotate(0,488,1104)"/><rect x="530" y="1090" width="28" height="28" transform="rotate(0,544,1104)"/><rect x="558" y="1090" width="28" height="28" transform="rotate(0,572,1104)"/><rect x="586" y="1090" width="28" height="28" transform="rotate(0,600,1104)"/><path d="M 614 1090v 28h 28v -14a 14 14, 0, 0, 0, -14 -14" transform="rotate(0,628,1104)"/><path d="M 670 1090v 28h 28v -14a 14 14, 0, 0, 0, -14 -14" transform="rotate(180,684,1104)"/><path d="M 698 1090v 28h 28v -14a 14 14, 0, 0, 0, -14 -14" transform="rotate(90,712,1104)"/><rect x="782" y="1090" width="28" height="28" transform="rotate(0,796,1104)"/><path d="M 838 1090v 28h 14a 14 14, 0, 0, 0, 0 -28" transform="rotate(90,852,1104)"/><path d="M 950 1090v 28h 14a 14 14, 0, 0, 0, 0 -28" transform="rotate(-90,964,1104)"/><path d="M 1034 1090v 28h 14a 14 14, 0, 0, 0, 0 -28" transform="rotate(90,1048,1104)"/><circle cx="1104" cy="1104" r="14" transform="rotate(0,1104,1104)"/><circle cx="1160" cy="1104" r="14" transform="rotate(0,1160,1104)"/><path d="M 250 1118v 28h 14a 14 14, 0, 0, 0, 0 -28" transform="rotate(90,264,1132)"/><path d="M 306 1118v 28h 14a 14 14, 0, 0, 0, 0 -28" transform="rotate(180,320,1132)"/><rect x="334" y="1118" width="28" height="28" transform="rotate(0,348,1132)"/><path d="M 362 1118v 28h 14a 14 14, 0, 0, 0, 0 -28" transform="rotate(0,376,1132)"/><circle cx="432" cy="1132" r="14" transform="rotate(0,432,1132)"/><path d="M 474 1118v 28h 28v -14a 14 14, 0, 0, 0, -14 -14" transform="rotate(180,488,1132)"/><rect x="502" y="1118" width="28" height="28" transform="rotate(0,516,1132)"/><rect x="530" y="1118" width="28" height="28" transform="rotate(0,544,1132)"/><path d="M 558 1118v 28h 28v -14a 14 14, 0, 0, 0, -14 -14" transform="rotate(90,572,1132)"/><path d="M 614 1118v 28h 28v -14a 14 14, 0, 0, 0, -14 -14" transform="rotate(180,628,1132)"/><path d="M 642 1118v 28h 14a 14 14, 0, 0, 0, 0 -28" transform="rotate(0,656,1132)"/><rect x="782" y="1118" width="28" height="28" transform="rotate(0,796,1132)"/><path d="M 894 1118v 28h 14a 14 14, 0, 0, 0, 0 -28" transform="rotate(180,908,1132)"/><rect x="922" y="1118" width="28" height="28" transform="rotate(0,936,1132)"/><rect x="950" y="1118" width="28" height="28" transform="rotate(0,964,1132)"/><path d="M 978 1118v 28h 14a 14 14, 0, 0, 0, 0 -28" transform="rotate(0,992,1132)"/><circle cx="1076" cy="1132" r="14" transform="rotate(0,1076,1132)"/><circle cx="292" cy="1160" r="14" transform="rotate(0,292,1160)"/><path d="M 334 1146v 28h 14a 14 14, 0, 0, 0, 0 -28" transform="rotate(90,348,1160)"/><circle cx="460" cy="1160" r="14" transform="rotate(0,460,1160)"/><circle cx="600" cy="1160" r="14" transform="rotate(0,600,1160)"/><path d="M 670 1146v 28h 14a 14 14, 0, 0, 0, 0 -28" transform="rotate(180,684,1160)"/><path d="M 698 1146v 28h 14a 14 14, 0, 0, 0, 0 -28" transform="rotate(0,712,1160)"/><path d="M 782 1146v 28h 14a 14 14, 0, 0, 0, 0 -28" transform="rotate(90,796,1160)"/><path d="M 922 1146v 28h 28v -14a 14 14, 0, 0, 0, -14 -14" transform="rotate(180,936,1160)"/><path d="M 950 1146v 28h 28v -14a 14 14, 0, 0, 0, -14 -14" transform="rotate(90,964,1160)"/><circle cx="1048" cy="1160" r="14" transform="rotate(0,1048,1160)"/><circle cx="1160" cy="1160" r="14" transform="rotate(0,1160,1160)"/></clipPath><clipPath id="clip-path-corners-square-color-0-0-547"><path clip-rule="evenodd" d="M 26 96v 56a 70 70, 0, 0, 0, 70 70h 56a 70 70, 0, 0, 0, 70 -70v -56a 70 70, 0, 0, 0, -70 -70h -56a 70 70, 0, 0, 0, -70 70M 96 54h 56a 42 42, 0, 0, 1, 42 42v 56a 42 42, 0, 0, 1, -42 42h -56a 42 42, 0, 0, 1, -42 -42v -56a 42 42, 0, 0, 1, 42 -42" transform="rotate(0,124,124)"/></clipPath><clipPath id="clip-path-corners-dot-color-0-0-547"><circle cx="124" cy="124" r="42" transform="rotate(0,124,124)"/></clipPath><clipPath id="clip-path-corners-square-color-1-0-547"><path clip-rule="evenodd" d="M 978 96v 56a 70 70, 0, 0, 0, 70 70h 56a 70 70, 0, 0, 0, 70 -70v -56a 70 70, 0, 0, 0, -70 -70h -56a 70 70, 0, 0, 0, -70 70M 1048 54h 56a 42 42, 0, 0, 1, 42 42v 56a 42 42, 0, 0, 1, -42 42h -56a 42 42, 0, 0, 1, -42 -42v -56a 42 42, 0, 0, 1, 42 -42" transform="rotate(90,1076,124)"/></clipPath><clipPath id="clip-path-corners-dot-color-1-0-547"><circle cx="1076" cy="124" r="42" transform="rotate(90,1076,124)"/></clipPath><clipPath id="clip-path-corners-square-color-0-1-547"><path clip-rule="evenodd" d="M 26 1048v 56a 70 70, 0, 0, 0, 70 70h 56a 70 70, 0, 0, 0, 70 -70v -56a 70 70, 0, 0, 0, -70 -70h -56a 70 70, 0, 0, 0, -70 70M 96 1006h 56a 42 42, 0, 0, 1, 42 42v 56a 42 42, 0, 0, 1, -42 42h -56a 42 42, 0, 0, 1, -42 -42v -56a 42 42, 0, 0, 1, 42 -42" transform="rotate(-90,124,1076)"/></clipPath><clipPath id="clip-path-corners-dot-color-0-1-547"><circle cx="124" cy="1076" r="42" transform="rotate(-90,124,1076)"/></clipPath></defs><rect x="0" y="0" height="1200" width="1200" clip-path="url('#clip-path-background-color-547')" fill="#ffffff"/><rect x="0" y="0" height="1200" width="1200" clip-path="url('#clip-path-dot-color-547')" fill="#000000"/><rect x="26" y="26" height="196" width="196" clip-path="url('#clip-path-corners-square-color-0-0-547')" fill="#000000"/><rect x="82" y="82" height="84" width="84" clip-path="url('#clip-path-corners-dot-color-0-0-547')" fill="#000000"/><rect x="978" y="26" height="196" width="196" clip-path="url('#clip-path-corners-square-color-1-0-547')" fill="#000000"/><rect x="1034" y="82" height="84" width="84" clip-path="url('#clip-path-corners-dot-color-1-0-547')" fill="#000000"/><rect x="26" y="978" height="196" width="196" clip-path="url('#clip-path-corners-square-color-0-1-547')" fill="#000000"/><rect x="82" y="1034" height="84" width="84" clip-path="url('#clip-path-corners-dot-color-0-1-547')" fill="#000000"/></svg>