<?xml version="1.0" standalone="no"?>
<svg xmlns="http://www.w3.org/2000/svg" width="1200" height="1200" xmlns:xlink="http://www.w3.org/1999/xlink" viewBox="0 0 1200 1200"><defs><clipPath id="clip-path-background-color-608"><rect x="0" y="0" width="1200" height="1200"/></clipPath><clipPath id="clip-path-dot-color-608"><path d="M 250 26v 28h 28v -14a 14 14, 0, 0, 0, -14 -14" transform="rotate(-90,264,40)"/><rect x="278" y="26" width="28" height="28" transform="rotate(0,292,40)"/><rect x="306" y="26" width="28" height="28" transform="rotate(0,320,40)"/><rect x="334" y="26" width="28" height="28" transform="rotate(0,348,40)"/><rect x="362" y="26" width="28" height="28" transform="rotate(0,376,40)"/><path d="M 390 26v 28h 14a 14 14, 0, 0, 0, 0 -28" transform="rotate(0,404,40)"/><path d="M 474 26v 28h 14a 14 14, 0, 0, 0, 0 -28" transform="rotate(180,488,40)"/><rect x="502" y="26" width="28" height="28" transform="rotate(0,516,40)"/><rect x="530" y="26" width="28" height="28" transform="rotate(0,544,40)"/><path d="M 558 26v 28h 14a 14 14, 0, 0, 0, 0 -28" transform="rotate(0,572,40)"/><path d="M 614 26v 28h 28v -14a 14 14, 0, 0, 0, -14 -14" transform="rotate(-90,628,40)"/><rect x="642" y="26" width="28" height="28" transform="rotate(0,656,40)"/><path d="M 670 26v 28h 14a 14 14, 0, 0, 0, 0 -28" transform="rotate(0,684,40)"/><path d="M 838 26v 28h 14a 14 14, 0, 0, 0, 0 -28" transform="rotate(180,852,40)"/><path d="M 866 26v 28h 14a 14 14, 0, 0, 0, 0 -28" transform="rotate(0,880,40)"/><path d="M 250 54v 28h 28v -14a 14 14, 0, 0, 0, -14 -14" transform="rotate(180,264,68)"/><path d="M 278 54v 28h 28v -14a 14 14, 0, 0, 0, -14 -14" transform="rotate(90,292,68)"/><path d="M 362 54v 28h 14a 14 14, 0, 0, 0, 0 -28" transform="rotate(90,376,68)"/><path d="M 586 54v 28h 14a 14 14, 0, 0, 0, 0 -28" transform="rotate(180,600,68)"/><rect x="614" y="54" width="28" height="28" transform="rotate(0,628,68)"/><path d="M 642 54v 28h 28v -14a 14 14, 0, 0, 0, -14 -14" transform="rotate(90,656,68)"/><path d="M 726 54v 28h 14a 14 14, 0, 0, 0, 0 -28" transform="rotate(180,740,68)"/><path d="M 754 54v 28h 14a 14 14, 0, 0, 0, 0 -28" transform="rotate(0,768,68)"/><path d="M 334 82v 28h 14a 14 14, 0, 0, 0, 0 -28" transform="rotate(-90,348,96)"/><circle cx="404" cy="96" r="14" transform="rotate(0,404,96)"/><path d="M 698 82v 28h 14a 14 14, 0, 0, 0, 0 -28" transform="rotate(-90,712,96)"/><path d="M 810 82v 28h 14a 14 14, 0, 0, 0, 0 -28" transform="rotate(-90,824,96)"/><path d="M 894 82v 28h 28v -14a 14 14, 0, 0, 0, -14 -14" transform="rotate(-90,908,96)"/><path d="M 922 82v 28h 14a 14 14, 0, 0, 0, 0 -28" transform="rotate(0,936,96)"/><rect x="334" y="110" width="28" height="28" transform="rotate(0,348,124)"/><path d="M 362 110v 28h 14a 14 14, 0, 0, 0, 0 -28" transform="rotate(0,376,124)"/><path d="M 446 110v 28h 28v -14a 14 14, 0, 0, 0, -14 -14" transform="rotate(-90,460,124)"/><rect x="474" y="110" width="28" height="28" transform="rotate(0,488,124)"/><rect x="502" y="110" width="28" height="28" transform="rotate(0,516,124)"/><rect x="530" y="110" width="28" height="28" transform="rotate(0,544,124)"/><path d="M 558 110v 28h 14a 14 14, 0, 0, 0, 0 -28" transform="rotate(0,572,124)"/><path d="M 614 110v 28h 14a 14 14, 0, 0, 0, 0 -28" transform="rotate(-90,628,124)"/><path d="M 670 110v 28h 28v -14a 14 14, 0, 0, 0, -14 -14" transform="rotate(-90,684,124)"/><rect x="698" y="110" width="28" height="28" transform="rotate(0,712,124)"/><path d="M 726 110v 28h 14a 14 14, 0, 0, 0, 0 -28" transform="rotate(0,740,124)"/><path d="M 782 110v 28h 14a 14 14, 0, 0, 0, 0 -28" transform="rotate(180,796,124)"/><rect x="810" y="110" width="28" height="28" transform="rotate(0,824,124)"/><path d="M 838 110v 28h 14a 14 14, 0, 0, 0, 0 -28" transform="rotate(0,852,124)"/><rect x="894" y="110" width="28" height="28" transform="rotate(0,908,124)"/><path d="M 278 138v 28h 28v -14a 14 14, 0, 0, 0, -14 -14" transform="rotate(-90,292,152)"/><rect x="306" y="138" width="28" height="28" transform="rotate(0,320,152)"/><path d="M 334 138v 28h 28v -14a 14 14, 0, 0, 0, -14 -14" transform="rotate(90,348,152)"/><path d="M 446 138v 28h 28v -14a 14 14, 0, 0, 0, -14 -14" transform="rotate(180,460,152)"/><path d="M 474 138v 28h 28v -14a 14 14, 0, 0, 0, -14 -14" transform="rotate(90,488,152)"/><path d="M 530 138v 28h 14a 14 14, 0, 0, 0, 0 -28" transform="rotate(90,544,152)"/><path d="M 614 138v 28h 14a 14 14, 0, 0, 0, 0 -28" transform="rotate(90,628,152)"/><rect x="670" y="138" width="28" height="28" transform="rotate(0,684,152)"/><rect x="698" y="138" width="28" height="28" transform="rotate(0,712,152)"/><path d="M 810 138v 28h 14a 14 14, 0, 0, 0, 0 -28" transform="rotate(90,824,152)"/><path d="M 894 138v 28h 28v -14a 14 14, 0, 0, 0, -14 -14" transform="rotate(180,908,152)"/><path d="M 922 138v 28h 28v -14a 14 14, 0, 0, 0, -14 -14" transform="rotate(0,936,152)"/><path d="M 278 166v 28h 28v -14a 14 14, 0, 0, 0, -14 -14" transform="rotate(180,292,180)"/><rect x="306" y="166" width="28" height="28" transform="rotate(0,320,180)"/><circle cx="404" cy="180" r="14" transform="rotate(0,404,180)"/><circle cx="516" cy="180" r="14" transform="rotate(0,516,180)"/><circle cx="572" cy="180" r="14" transform="rotate(0,572,180)"/><path d="M 670 166v 28h 28v -14a 14 14, 0, 0, 0, -14 -14" transform="rotate(180,684,180)"/><rect x="698" y="166" width="28" height="28" transform="rotate(0,712,180)"/><path d="M 726 166v 28h 14a 14 14, 0, 0, 0, 0 -28" transform="rotate(0,740,180)"/><path d="M 838 166v 28h 14a 14 14, 0, 0, 0, 0 -28" transform="rotate(180,852,180)"/><path d="M 866 166v 28h 28v -14a 14 14, 0, 0, 0, -14 -14" transform="rotate(0,880,180)"/><rect x="922" y="166" width="28" height="28" transform="rotate(0,936,180)"/><circle cx="264" cy="208" r="14" transform="rotate(0,264,208)"/><path d="M 306 194v 28h 14a 14 14, 0, 0, 0, 0 -28" transform="rotate(90,320,208)"/><path d="M 362 194v 28h 14a 14 14, 0, 0, 0, 0 -28" transform="rotate(-90,376,208)"/><path d="M 418 194v 28h 14a 14 14, 0, 0, 0, 0 -28" transform="rotate(-90,432,208)"/><path d="M 474 194v 28h 14a 14 14, 0, 0, 0, 0 -28" transform="rotate(-90,488,208)"/><circle cx="544" cy="208" r="14" transform="rotate(0,544,208)"/><path d="M 586 194v 28h 14a 14 14, 0, 0, 0, 0 -28" transform="rotate(-90,600,208)"/><path d="M 642 194v 28h 14a 14 14, 0, 0, 0, 0 -28" transform="rotate(-90,656,208)"/><path d="M 698 194v 28h 14a 14 14, 0, 0, 0, 0 -28" transform="rotate(90,712,208)"/><circle cx="768" cy="208" r="14" transform="rotate(0,768,208)"/><circle cx="824" cy="208" r="14" transform="rotate(0,824,208)"/><path d="M 866 194v 28h 14a 14 14, 0, 0, 0, 0 -28" transform="rotate(90,880,208)"/><rect x="922" y="194" width="28" height="28" transform="rotate(0,936,208)"/><path d="M 334 222v 28h 28v -14a 14 14, 0, 0, 0, -14 -14" transform="rotate(-90,348,236)"/><rect x="362" y="222" width="28" height="28" transform="rotate(0,376,236)"/><rect x="418" y="222" width="28" height="28" transform="rotate(0,432,236)"/><rect x="446" y="222" width="28" height="28" transform="rotate(0,460,236)"/><rect x="474" y="222" width="28" height="28" transform="rotate(0,488,236)"/><path d="M 586 222v 28h 28v -14a 14 14, 0, 0, 0, -14 -14" transform="rotate(180,600,236)"/><rect x="614" y="222" width="28" height="28" transform="rotate(0,628,236)"/><rect x="642" y="222" width="28" height="28" transform="rotate(0,656,236)"/><path d="M 670 222v 28h 14a 14 14, 0, 0, 0, 0 -28" transform="rotate(0,684,236)"/><path d="M 782 222v 28h 14a 14 14, 0, 0, 0, 0 -28" transform="rotate(-90,796,236)"/><path d="M 922 222v 28h 14a 14 14, 0, 0, 0, 0 -28" transform="rotate(90,936,236)"/><path d="M 54 250v 28h 14a 14 14, 0, 0, 0, 0 -28" transform="rotate(-90,68,264)"/><path d="M 194 250v 28h 14a 14 14, 0, 0, 0, 0 -28" transform="rotate(180,208,264)"/><rect x="222" y="250" width="28" height="28" transform="rotate(0,236,264)"/><path d="M 250 250v 28h 14a 14 14, 0, 0, 0, 0 -28" transform="rotate(0,264,264)"/><path d="M 306 250v 28h 14a 14 14, 0, 0, 0, 0 -28" transform="rotate(180,320,264)"/><rect x="334" y="250" width="28" height="28" transform="rotate(0,348,264)"/><rect x="362" y="250" width="28" height="28" transform="rotate(0,376,264)"/><rect x="390" y="250" width="28" height="28" transform="rotate(0,404,264)"/><rect x="418" y="250" width="28" height="28" transform="rotate(0,432,264)"/><rect x="446" y="250" width="28" height="28" transform="rotate(0,460,264)"/><rect x="474" y="250" width="28" height="28" transform="rotate(0,488,264)"/><path d="M 502 250v 28h 14a 14 14, 0, 0, 0, 0 -28" transform="rotate(0,516,264)"/><path d="M 558 250v 28h 14a 14 14, 0, 0, 0, 0 -28" transform="rotate(-90,572,264)"/><path d="M 614 250v 28h 14a 14 14, 0, 0, 0, 0 -28" transform="rotate(90,628,264)"/><path d="M 726 250v 28h 14a 14 14, 0, 0, 0, 0 -28" transform="rotate(180,740,264)"/><rect x="754" y="250" width="28" height="28" transform="rotate(0,768,264)"/><rect x="782" y="250" width="28" height="28" transform="rotate(0,796,264)"/><rect x="810" y="250" width="28" height="28" transform="rotate(0,824,264)"/><path d="M 838 250v 28h 14a 14 14, 0, 0, 0, 0 -28" transform="rotate(0,852,264)"/><circle cx="964" cy="264" r="14" transform="rotate(0,964,264)"/><path d="M 1118 250v 28h 28v -14a 14 14, 0, 0, 0, -14 -14" transform="rotate(-90,1132,264)"/><path d="M 1146 250v 28h 14a 14 14, 0, 0, 0, 0 -28" transform="rotate(0,1160,264)"/><path d="M 26 278v 28h 28v -14a 14 14, 0, 0, 0, -14 -14" transform="rotate(-90,40,292)"/><rect x="54" y="278" width="28" height="28" transform="rotate(0,68,292)"/><circle cx="124" cy="292" r="14" transform="rotate(0,124,292)"/><rect x="222" y="278" width="28" height="28" transform="rotate(0,236,292)"/><rect x="418" y="278" width="28" height="28" transform="rotate(0,432,292)"/><rect x="446" y="278" width="28" height="28" transform="rotate(0,460,292)"/><rect x="474" y="278" width="28" height="28" transform="rotate(0,488,292)"/><path d="M 530 278v 28h 28v -14a 14 14, 0, 0, 0, -14 -14" transform="rotate(-90,544,292)"/><path d="M 558 278v 28h 28v -14a 14 14, 0, 0, 0, -14 -14" transform="rotate(90,572,292)"/><path d="M 642 278v 28h 28v -14a 14 14, 0, 0, 0, -14 -14" transform="rotate(-90,656,292)"/><rect x="670" y="278" width="28" height="28" transform="rotate(0,684,292)"/><path d="M 698 278v 28h 14a 14 14, 0, 0, 0, 0 -28" transform="rotate(0,712,292)"/><rect x="754" y="278" width="28" height="28" transform="rotate(0,768,292)"/><rect x="782" y="278" width="28" height="28" transform="rotate(0,796,292)"/><circle cx="908" cy="292" r="14" transform="rotate(0,908,292)"/><path d="M 1006 278v 28h 14a 14 14, 0, 0, 0, 0 -28" transform="rotate(180,1020,292)"/><path d="M 1034 278v 28h 14a 14 14, 0, 0, 0, 0 -28" transform="rotate(0,1048,292)"/><path d="M 1118 278v 28h 14a 14 14, 0, 0, 0, 0 -28" transform="rotate(90,1132,292)"/><rect x="26" y="306" width="28" height="28" transform="rotate(0,40,320)"/><path d="M 54 306v 28h 28v -14a 14 14, 0, 0, 0, -14 -14" transform="rotate(90,68,320)"/><circle cx="152" cy="320" r="14" transform="rotate(0,152,320)"/><path d="M 194 306v 28h 14a 14 14, 0, 0, 0, 0 -28" transform="rotate(180,208,320)"/><rect x="222" y="306" width="28" height="28" transform="rotate(0,236,320)"/><path d="M 250 306v 28h 14a 14 14, 0, 0, 0, 0 -28" transform="rotate(0,264,320)"/><circle cx="348" cy="320" r="14" transform="rotate(0,348,320)"/><path d="M 418 306v 28h 14a 14 14, 0, 0, 0, 0 -28" transform="rotate(90,432,320)"/><rect x="474" y="306" width="28" height="28" transform="rotate(0,488,320)"/><rect x="502" y="306" width="28" height="28" transform="rotate(0,516,320)"/><path d="M 530 306v 28h 28v -14a 14 14, 0, 0, 0, -14 -14" transform="rotate(90,544,320)"/><path d="M 614 306v 28h 14a 14 14, 0, 0, 0, 0 -28" transform="rotate(180,628,320)"/><path d="M 642 306v 28h 28v -14a 14 14, 0, 0, 0, -14 -14" transform="rotate(90,656,320)"/><path d="M 754 306v 28h 28v -14a 14 14, 0, 0, 0, -14 -14" transform="rotate(180,768,320)"/><rect x="782" y="306" width="28" height="28" transform="rotate(0,796,320)"/><rect x="810" y="306" width="28" height="28" transform="rotate(0,824,320)"/><rect x="838" y="306" width="28" height="28" transform="rotate(0,852,320)"/><path d="M 866 306v 28h 28v -14a 14 14, 0, 0, 0, -14 -14" transform="rotate(0,880,320)"/><path d="M 922 306v 28h 14a 14 14, 0, 0, 0, 0 -28" transform="rotate(-90,936,320)"/><circle cx="992" cy="320" r="14" transform="rotate(0,992,320)"/><path d="M 26 334v 28h 14a 14 14, 0, 0, 0, 0 -28" transform="rotate(90,40,348)"/><circle cx="96" cy="348" r="14" transform="rotate(0,96,348)"/><circle cx="180" cy="348" r="14" transform="rotate(0,180,348)"/><path d="M 222 334v 28h 14a 14 14, 0, 0, 0, 0 -28" transform="rotate(90,236,348)"/><path d="M 390 334v 28h 14a 14 14, 0, 0, 0, 0 -28" transform="rotate(-90,404,348)"/><path d="M 474 334v 28h 14a 14 14, 0, 0, 0, 0 -28" transform="rotate(90,488,348)"/><circle cx="600" cy="348" r="14" transform="rotate(0,600,348)"/><path d="M 698 334v 28h 14a 14 14, 0, 0, 0, 0 -28" transform="rotate(-90,712,348)"/><rect x="810" y="334" width="28" height="28" transform="rotate(0,824,348)"/><path d="M 866 334v 28h 28v -14a 14 14, 0, 0, 0, -14 -14" transform="rotate(180,880,348)"/><rect x="894" y="334" width="28" height="28" transform="rotate(0,908,348)"/><rect x="922" y="334" width="28" height="28" transform="rotate(0,936,348)"/><path d="M 950 334v 28h 14a 14 14, 0, 0, 0, 0 -28" transform="rotate(0,964,348)"/><path d="M 1006 334v 28h 28v -14a 14 14, 0, 0, 0, -14 -14" transform="rotate(-90,1020,348)"/><rect x="1034" y="334" width="28" height="28" transform="rotate(0,1048,348)"/><path d="M 1062 334v 28h 14a 14 14, 0, 0, 0, 0 -28" transform="rotate(0,1076,348)"/><circle cx="1132" cy="348" r="14" transform="rotate(0,1132,348)"/><circle cx="68" cy="376" r="14" transform="rotate(0,68,376)"/><path d="M 138 362v 28h 14a 14 14, 0, 0, 0, 0 -28" transform="rotate(-90,152,376)"/><circle cx="208" cy="376" r="14" transform="rotate(0,208,376)"/><circle cx="320" cy="376" r="14" transform="rotate(0,320,376)"/><path d="M 362 362v 28h 28v -14a 14 14, 0, 0, 0, -14 -14" transform="rotate(-90,376,376)"/><path d="M 390 362v 28h 28v -14a 14 14, 0, 0, 0, -14 -14" transform="rotate(90,404,376)"/><path d="M 558 362v 28h 14a 14 14, 0, 0, 0, 0 -28" transform="rotate(-90,572,376)"/><path d="M 670 362v 28h 14a 14 14, 0, 0, 0, 0 -28" transform="rotate(180,684,376)"/><path d="M 698 362v 28h 28v -14a 14 14, 0, 0, 0, -14 -14" transform="rotate(90,712,376)"/><path d="M 754 362v 28h 14a 14 14, 0, 0, 0, 0 -28" transform="rotate(180,768,376)"/><rect x="782" y="362" width="28" height="28" transform="rotate(0,796,376)"/><rect x="810" y="362" width="28" height="28" transform="rotate(0,824,376)"/><rect x="922" y="362" width="28" height="28" transform="rotate(0,936,376)"/><path d="M 978 362v 28h 28v -14a 14 14, 0, 0, 0, -14 -14" transform="rotate(-90,992,376)"/><rect x="1006" y="362" width="28" height="28" transform="rotate(0,1020,376)"/><path d="M 1146 362v 28h 14a 14 14, 0, 0, 0, 0 -28" transform="rotate(-90,1160,376)"/><path d="M 110 390v 28h 28v -14a 14 14, 0, 0, 0, -14 -14" transform="rotate(-90,124,404)"/><rect x="138" y="390" width="28" height="28" transform="rotate(0,152,404)"/><path d="M 166 390v 28h 14a 14 14, 0, 0, 0, 0 -28" transform="rotate(0,180,404)"/><circle cx="292" cy="404" r="14" transform="rotate(0,292,404)"/><path d="M 334 390v 28h 28v -14a 14 14, 0, 0, 0, -14 -14" transform="rotate(-90,348,404)"/><path d="M 362 390v 28h 28v -14a 14 14, 0, 0, 0, -14 -14" transform="rotate(90,376,404)"/><path d="M 446 390v 28h 28v -14a 14 14, 0, 0, 0, -14 -14" transform="rotate(-90,460,404)"/><rect x="474" y="390" width="28" height="28" transform="rotate(0,488,404)"/><path d="M 502 390v 28h 28v -14a 14 14, 0, 0, 0, -14 -14" transform="rotate(0,516,404)"/><path d="M 558 390v 28h 14a 14 14, 0, 0, 0, 0 -28" transform="rotate(90,572,404)"/><path d="M 614 390v 28h 14a 14 14, 0, 0, 0, 0 -28" transform="rotate(180,628,404)"/><path d="M 642 390v 28h 14a 14 14, 0, 0, 0, 0 -28" transform="rotate(0,656,404)"/><circle cx="740" cy="404" r="14" transform="rotate(0,740,404)"/><rect x="782" y="390" width="28" height="28" transform="rotate(0,796,404)"/><rect x="810" y="390" width="28" height="28" transform="rotate(0,824,404)"/><path d="M 894 390v 28h 14a 14 14, 0, 0, 0, 0 -28" transform="rotate(180,908,404)"/><rect x="922" y="390" width="28" height="28" transform="rotate(0,936,404)"/><rect x="950" y="390" width="28" height="28" transform="rotate(0,964,404)"/><rect x="978" y="390" width="28" height="28" transform="rotate(0,992,404)"/><rect x="1006" y="390" width="28" height="28" transform="rotate(0,1020,404)"/><path d="M 1034 390v 28h 14a 14 14, 0, 0, 0, 0 -28" transform="rotate(0,1048,404)"/><path d="M 1146 390v 28h 14a 14 14, 0, 0, 0, 0 -28" transform="rotate(90,1160,404)"/><path d="M 26 418v 28h 28v -14a 14 14, 0, 0, 0, -14 -14" transform="rotate(-90,40,432)"/><rect x="54" y="418" width="28" height="28" transform="rotate(0,68,432)"/><rect x="82" y="418" width="28" height="28" transform="rotate(0,96,432)"/><rect x="110" y="418" width="28" height="28" transform="rotate(0,124,432)"/><circle cx="208" cy="432" r="14" transform="rotate(0,208,432)"/><path d="M 334 418v 28h 14a 14 14, 0, 0, 0, 0 -28" transform="rotate(90,348,432)"/><circle cx="404" cy="432" r="14" transform="rotate(0,404,432)"/><rect x="446" y="418" width="28" height="28" transform="rotate(0,460,432)"/><rect x="474" y="418" width="28" height="28" transform="rotate(0,488,432)"/><rect x="502" y="418" width="28" height="28" transform="rotate(0,516,432)"/><circle cx="600" cy="432" r="14" transform="rotate(0,600,432)"/><path d="M 670 418v 28h 28v -14a 14 14, 0, 0, 0, -14 -14" transform="rotate(-90,684,432)"/><path d="M 698 418v 28h 14a 14 14, 0, 0, 0, 0 -28" transform="rotate(0,712,432)"/><path d="M 782 418v 28h 28v -14a 14 14, 0, 0, 0, -14 -14" transform="rotate(180,796,432)"/><rect x="810" y="418" width="28" height="28" transform="rotate(0,824,432)"/><path d="M 838 418v 28h 14a 14 14, 0, 0, 0, 0 -28" transform="rotate(0,852,432)"/><rect x="950" y="418" width="28" height="28" transform="rotate(0,964,432)"/><rect x="1006" y="418" width="28" height="28" transform="rotate(0,1020,432)"/><path d="M 1062 418v 28h 28v -14a 14 14, 0, 0, 0, -14 -14" transform="rotate(-90,1076,432)"/><rect x="1090" y="418" width="28" height="28" transform="rotate(0,1104,432)"/><path d="M 1118 418v 28h 28v -14a 14 14, 0, 0, 0, -14 -14" transform="rotate(0,1132,432)"/><rect x="26" y="446" width="28" height="28" transform="rotate(0,40,460)"/><rect x="54" y="446" width="28" height="28" transform="rotate(0,68,460)"/><rect x="82" y="446" width="28" height="28" transform="rotate(0,96,460)"/><path d="M 110 446v 28h 28v -14a 14 14, 0, 0, 0, -14 -14" transform="rotate(90,124,460)"/><path d="M 166 446v 28h 14a 14 14, 0, 0, 0, 0 -28" transform="rotate(-90,180,460)"/><path d="M 222 446v 28h 28v -14a 14 14, 0, 0, 0, -14 -14" transform="rotate(-90,236,460)"/><path d="M 250 446v 28h 14a 14 14, 0, 0, 0, 0 -28" transform="rotate(0,264,460)"/><circle cx="320" cy="460" r="14" transform="rotate(0,320,460)"/><circle cx="376" cy="460" r="14" transform="rotate(0,376,460)"/><path d="M 418 446v 28h 14a 14 14, 0, 0, 0, 0 -28" transform="rotate(180,432,460)"/><path d="M 446 446v 28h 28v -14a 14 14, 0, 0, 0, -14 -14" transform="rotate(90,460,460)"/><rect x="502" y="446" width="28" height="28" transform="rotate(0,516,460)"/><path d="M 530 446v 28h 28v -14a 14 14, 0, 0, 0, -14 -14" transform="rotate(0,544,460)"/><path d="M 642 446v 28h 14a 14 14, 0, 0, 0, 0 -28" transform="rotate(180,656,460)"/><rect x="670" y="446" width="28" height="28" transform="rotate(0,684,460)"/><path d="M 810 446v 28h 14a 14 14, 0, 0, 0, 0 -28" transform="rotate(90,824,460)"/><rect x="950" y="446" width="28" height="28" transform="rotate(0,964,460)"/><rect x="1006" y="446" width="28" height="28" transform="rotate(0,1020,460)"/><path d="M 1062 446v 28h 28v -14a 14 14, 0, 0, 0, -14 -14" transform="rotate(180,1076,460)"/><rect x="1090" y="446" width="28" height="28" transform="rotate(0,1104,460)"/><path d="M 1118 446v 28h 28v -14a 14 14, 0, 0, 0, -14 -14" transform="rotate(90,1132,460)"/><rect x="26" y="474" width="28" height="28" transform="rotate(0,40,488)"/><rect x="54" y="474" width="28" height="28" transform="rotate(0,68,488)"/><path d="M 82 474v 28h 28v -14a 14 14, 0, 0, 0, -14 -14" transform="rotate(90,96,488)"/><path d="M 138 474v 28h 28v -14a 14 14, 0, 0, 0, -14 -14" transform="rotate(-90,152,488)"/><rect x="166" y="474" width="28" height="28" transform="rotate(0,180,488)"/><rect x="194" y="474" width="28" height="28" transform="rotate(0,208,488)"/><rect x="222" y="474" width="28" height="28" transform="rotate(0,236,488)"/><path d="M 334 474v 28h 14a 14 14, 0, 0, 0, 0 -28" transform="rotate(-90,348,488)"/><path d="M 474 474v 28h 14a 14 14, 0, 0, 0, 0 -28" transform="rotate(180,488,488)"/><rect x="502" y="474" width="28" height="28" transform="rotate(0,516,488)"/><path d="M 530 474v 28h 28v -14a 14 14, 0, 0, 0, -14 -14" transform="rotate(90,544,488)"/><rect x="670" y="474" width="28" height="28" transform="rotate(0,684,488)"/><rect x="698" y="474" width="28" height="28" transform="rotate(0,712,488)"/><rect x="726" y="474" width="28" height="28" transform="rotate(0,740,488)"/><path d="M 754 474v 28h 14a 14 14, 0, 0, 0, 0 -28" transform="rotate(0,768,488)"/><path d="M 838 474v 28h 14a 14 14, 0, 0, 0, 0 -28" transform="rotate(180,852,488)"/><path d="M 866 474v 28h 28v -14a 14 14, 0, 0, 0, -14 -14" transform="rotate(0,880,488)"/><rect x="950" y="474" width="28" height="28" transform="rotate(0,964,488)"/><rect x="1006" y="474" width="28" height="28" transform="rotate(0,1020,488)"/><rect x="1090" y="474" width="28" height="28" transform="rotate(0,1104,488)"/><path d="M 1146 474v 28h 14a 14 14, 0, 0, 0, 0 -28" transform="rotate(-90,1160,488)"/><rect x="26" y="502" width="28" height="28" transform="rotate(0,40,516)"/><path d="M 54 502v 28h 28v -14a 14 14, 0, 0, 0, -14 -14" transform="rotate(90,68,516)"/><path d="M 138 502v 28h 28v -14a 14 14, 0, 0, 0, -14 -14" transform="rotate(180,152,516)"/><rect x="166" y="502" width="28" height="28" transform="rotate(0,180,516)"/><rect x="222" y="502" width="28" height="28" transform="rotate(0,236,516)"/><circle cx="292" cy="516" r="14" transform="rotate(0,292,516)"/><path d="M 334 502v 28h 14a 14 14, 0, 0, 0, 0 -28" transform="rotate(90,348,516)"/><circle cx="404" cy="516" r="14" transform="rotate(0,404,516)"/><circle cx="460" cy="516" r="14" transform="rotate(0,460,516)"/><rect x="502" y="502" width="28" height="28" transform="rotate(0,516,516)"/><path d="M 558 502v 28h 28v -14a 14 14, 0, 0, 0, -14 -14" transform="rotate(-90,572,516)"/><path d="M 586 502v 28h 28v -14a 14 14, 0, 0, 0, -14 -14" transform="rotate(0,600,516)"/><path d="M 642 502v 28h 14a 14 14, 0, 0, 0, 0 -28" transform="rotate(180,656,516)"/><rect x="670" y="502" width="28" height="28" transform="rotate(0,684,516)"/><rect x="726" y="502" width="28" height="28" transform="rotate(0,740,516)"/><path d="M 782 502v 28h 28v -14a 14 14, 0, 0, 0, -14 -14" transform="rotate(-90,796,516)"/><path d="M 810 502v 28h 14a 14 14, 0, 0, 0, 0 -28" transform="rotate(0,824,516)"/><rect x="866" y="502" width="28" height="28" transform="rotate(0,880,516)"/><rect x="894" y="502" width="28" height="28" transform="rotate(0,908,516)"/><rect x="922" y="502" width="28" height="28" transform="rotate(0,936,516)"/><rect x="950" y="502" width="28" height="28" transform="rotate(0,964,516)"/><rect x="978" y="502" width="28" height="28" transform="rotate(0,992,516)"/><rect x="1006" y="502" width="28" height="28" transform="rotate(0,1020,516)"/><rect x="1034" y="502" width="28" height="28" transform="rotate(0,1048,516)"/><rect x="1062" y="502" width="28" height="28" transform="rotate(0,1076,516)"/><rect x="1090" y="502" width="28" height="28" transform="rotate(0,1104,516)"/><rect x="1146" y="502" width="28" height="28" transform="rotate(0,1160,516)"/><rect x="26" y="530" width="28" height="28" transform="rotate(0,40,544)"/><path d="M 82 530v 28h 28v -14a 14 14, 0, 0, 0, -14 -14" transform="rotate(-90,96,544)"/><path d="M 110 530v 28h 28v -14a 14 14, 0, 0, 0, -14 -14" transform="rotate(0,124,544)"/><rect x="166" y="530" width="28" height="28" transform="rotate(0,180,544)"/><rect x="194" y="530" width="28" height="28" transform="rotate(0,208,544)"/><rect x="222" y="530" width="28" height="28" transform="rotate(0,236,544)"/><path d="M 250 530v 28h 14a 14 14, 0, 0, 0, 0 -28" transform="rotate(0,264,544)"/><path d="M 362 530v 28h 14a 14 14, 0, 0, 0, 0 -28" transform="rotate(-90,376,544)"/><path d="M 418 530v 28h 14a 14 14, 0, 0, 0, 0 -28" transform="rotate(-90,432,544)"/><rect x="502" y="530" width="28" height="28" transform="rotate(0,516,544)"/><path d="M 558 530v 28h 28v -14a 14 14, 0, 0, 0, -14 -14" transform="rotate(180,572,544)"/><rect x="586" y="530" width="28" height="28" transform="rotate(0,600,544)"/><path d="M 614 530v 28h 28v -14a 14 14, 0, 0, 0, -14 -14" transform="rotate(0,628,544)"/><path d="M 670 530v 28h 14a 14 14, 0, 0, 0, 0 -28" transform="rotate(90,684,544)"/><path d="M 726 530v 28h 28v -14a 14 14, 0, 0, 0, -14 -14" transform="rotate(180,740,544)"/><rect x="754" y="530" width="28" height="28" transform="rotate(0,768,544)"/><path d="M 782 530v 28h 28v -14a 14 14, 0, 0, 0, -14 -14" transform="rotate(90,796,544)"/><rect x="866" y="530" width="28" height="28" transform="rotate(0,880,544)"/><path d="M 894 530v 28h 28v -14a 14 14, 0, 0, 0, -14 -14" transform="rotate(90,908,544)"/><rect x="950" y="530" width="28" height="28" transform="rotate(0,964,544)"/><path d="M 1006 530v 28h 28v -14a 14 14, 0, 0, 0, -14 -14" transform="rotate(180,1020,544)"/><rect x="1034" y="530" width="28" height="28" transform="rotate(0,1048,544)"/><path d="M 1090 530v 28h 14a 14 14, 0, 0, 0, 0 -28" transform="rotate(90,1104,544)"/><rect x="1146" y="530" width="28" height="28" transform="rotate(0,1160,544)"/><path d="M 26 558v 28h 28v -14a 14 14, 0, 0, 0, -14 -14" transform="rotate(180,40,572)"/><rect x="54" y="558" width="28" height="28" transform="rotate(0,68,572)"/><rect x="82" y="558" width="28" height="28" transform="rotate(0,96,572)"/><rect x="110" y="558" width="28" height="28" transform="rotate(0,124,572)"/><path d="M 166 558v 28h 14a 14 14, 0, 0, 0, 0 -28" transform="rotate(90,180,572)"/><path d="M 222 558v 28h 14a 14 14, 0, 0, 0, 0 -28" transform="rotate(90,236,572)"/><path d="M 334 558v 28h 28v -14a 14 14, 0, 0, 0, -14 -14" transform="rotate(-90,348,572)"/><rect x="362" y="558" width="28" height="28" transform="rotate(0,376,572)"/><rect x="390" y="558" width="28" height="28" transform="rotate(0,404,572)"/><rect x="418" y="558" width="28" height="28" transform="rotate(0,432,572)"/><rect x="446" y="558" width="28" height="28" transform="rotate(0,460,572)"/><rect x="474" y="558" width="28" height="28" transform="rotate(0,488,572)"/><path d="M 502 558v 28h 28v -14a 14 14, 0, 0, 0, -14 -14" transform="rotate(90,516,572)"/><path d="M 614 558v 28h 28v -14a 14 14, 0, 0, 0, -14 -14" transform="rotate(180,628,572)"/><path d="M 642 558v 28h 14a 14 14, 0, 0, 0, 0 -28" transform="rotate(0,656,572)"/><path d="M 698 558v 28h 14a 14 14, 0, 0, 0, 0 -28" transform="rotate(-90,712,572)"/><path d="M 754 558v 28h 14a 14 14, 0, 0, 0, 0 -28" transform="rotate(90,768,572)"/><path d="M 866 558v 28h 14a 14 14, 0, 0, 0, 0 -28" transform="rotate(90,880,572)"/><path d="M 950 558v 28h 14a 14 14, 0, 0, 0, 0 -28" transform="rotate(90,964,572)"/><path d="M 1034 558v 28h 28v -14a 14 14, 0, 0, 0, -14 -14" transform="rotate(180,1048,572)"/><path d="M 1062 558v 28h 14a 14 14, 0, 0, 0, 0 -28" transform="rotate(0,1076,572)"/><rect x="1146" y="558" width="28" height="28" transform="rotate(0,1160,572)"/><path d="M 82 586v 28h 28v -14a 14 14, 0, 0, 0, -14 -14" transform="rotate(180,96,600)"/><path d="M 110 586v 28h 28v -14a 14 14, 0, 0, 0, -14 -14" transform="rotate(90,124,600)"/><circle cx="208" cy="600" r="14" transform="rotate(0,208,600)"/><path d="M 250 586v 28h 14a 14 14, 0, 0, 0, 0 -28" transform="rotate(-90,264,600)"/><rect x="334" y="586" width="28" height="28" transform="rotate(0,348,600)"/><path d="M 390 586v 28h 14a 14 14, 0, 0, 0, 0 -28" transform="rotate(90,404,600)"/><path d="M 446 586v 28h 14a 14 14, 0, 0, 0, 0 -28" transform="rotate(90,460,600)"/><path d="M 558 586v 28h 28v -14a 14 14, 0, 0, 0, -14 -14" transform="rotate(-90,572,600)"/><path d="M 586 586v 28h 28v -14a 14 14, 0, 0, 0, -14 -14" transform="rotate(0,600,600)"/><path d="M 670 586v 28h 28v -14a 14 14, 0, 0, 0, -14 -14" transform="rotate(-90,684,600)"/><path d="M 698 586v 28h 28v -14a 14 14, 0, 0, 0, -14 -14" transform="rotate(90,712,600)"/><path d="M 810 586v 28h 14a 14 14, 0, 0, 0, 0 -28" transform="rotate(180,824,600)"/><path d="M 838 586v 28h 14a 14 14, 0, 0, 0, 0 -28" transform="rotate(0,852,600)"/><path d="M 894 586v 28h 14a 14 14, 0, 0, 0, 0 -28" transform="rotate(-90,908,600)"/><path d="M 1090 586v 28h 14a 14 14, 0, 0, 0, 0 -28" transform="rotate(-90,1104,600)"/><path d="M 1146 586v 28h 14a 14 14, 0, 0, 0, 0 -28" transform="rotate(90,1160,600)"/><path d="M 26 614v 28h 28v -14a 14 14, 0, 0, 0, -14 -14" transform="rotate(-90,40,628)"/><path d="M 54 614v 28h 28v -14a 14 14, 0, 0, 0, -14 -14" transform="rotate(0,68,628)"/><path d="M 166 614v 28h 14a 14 14, 0, 0, 0, 0 -28" transform="rotate(-90,180,628)"/><path d="M 250 614v 28h 28v -14a 14 14, 0, 0, 0, -14 -14" transform="rotate(180,264,628)"/><path d="M 278 614v 28h 28v -14a 14 14, 0, 0, 0, -14 -14" transform="rotate(0,292,628)"/><rect x="334" y="614" width="28" height="28" transform="rotate(0,348,628)"/><path d="M 474 614v 28h 14a 14 14, 0, 0, 0, 0 -28" transform="rotate(-90,488,628)"/><path d="M 530 614v 28h 14a 14 14, 0, 0, 0, 0 -28" transform="rotate(180,544,628)"/><rect x="558" y="614" width="28" height="28" transform="rotate(0,572,628)"/><rect x="586" y="614" width="28" height="28" transform="rotate(0,600,628)"/><path d="M 614 614v 28h 28v -14a 14 14, 0, 0, 0, -14 -14" transform="rotate(0,628,628)"/><path d="M 670 614v 28h 14a 14 14, 0, 0, 0, 0 -28" transform="rotate(90,684,628)"/><path d="M 754 614v 28h 28v -14a 14 14, 0, 0, 0, -14 -14" transform="rotate(-90,768,628)"/><path d="M 782 614v 28h 28v -14a 14 14, 0, 0, 0, -14 -14" transform="rotate(0,796,628)"/><path d="M 894 614v 28h 14a 14 14, 0, 0, 0, 0 -28" transform="rotate(90,908,628)"/><path d="M 1006 614v 28h 28v -14a 14 14, 0, 0, 0, -14 -14" transform="rotate(-90,1020,628)"/><path d="M 1034 614v 28h 28v -14a 14 14, 0, 0, 0, -14 -14" transform="rotate(0,1048,628)"/><rect x="1090" y="614" width="28" height="28" transform="rotate(0,1104,628)"/><path d="M 26 642v 28h 28v -14a 14 14, 0, 0, 0, -14 -14" transform="rotate(180,40,656)"/><rect x="54" y="642" width="28" height="28" transform="rotate(0,68,656)"/><path d="M 82 642v 28h 14a 14 14, 0, 0, 0, 0 -28" transform="rotate(0,96,656)"/><rect x="166" y="642" width="28" height="28" transform="rotate(0,180,656)"/><path d="M 194 642v 28h 14a 14 14, 0, 0, 0, 0 -28" transform="rotate(0,208,656)"/><rect x="278" y="642" width="28" height="28" transform="rotate(0,292,656)"/><rect x="306" y="642" width="28" height="28" transform="rotate(0,320,656)"/><rect x="334" y="642" width="28" height="28" transform="rotate(0,348,656)"/><path d="M 362 642v 28h 28v -14a 14 14, 0, 0, 0, -14 -14" transform="rotate(0,376,656)"/><rect x="474" y="642" width="28" height="28" transform="rotate(0,488,656)"/><path d="M 502 642v 28h 14a 14 14, 0, 0, 0, 0 -28" transform="rotate(0,516,656)"/><path d="M 586 642v 28h 28v -14a 14 14, 0, 0, 0, -14 -14" transform="rotate(180,600,656)"/><rect x="614" y="642" width="28" height="28" transform="rotate(0,628,656)"/><path d="M 642 642v 28h 14a 14 14, 0, 0, 0, 0 -28" transform="rotate(0,656,656)"/><rect x="754" y="642" width="28" height="28" transform="rotate(0,768,656)"/><rect x="782" y="642" width="28" height="28" transform="rotate(0,796,656)"/><path d="M 810 642v 28h 14a 14 14, 0, 0, 0, 0 -28" transform="rotate(0,824,656)"/><circle cx="936" cy="656" r="14" transform="rotate(0,936,656)"/><rect x="1006" y="642" width="28" height="28" transform="rotate(0,1020,656)"/><path d="M 1034 642v 28h 28v -14a 14 14, 0, 0, 0, -14 -14" transform="rotate(90,1048,656)"/><path d="M 1090 642v 28h 14a 14 14, 0, 0, 0, 0 -28" transform="rotate(90,1104,656)"/><path d="M 138 670v 28h 28v -14a 14 14, 0, 0, 0, -14 -14" transform="rotate(-90,152,684)"/><rect x="166" y="670" width="28" height="28" transform="rotate(0,180,684)"/><circle cx="236" cy="684" r="14" transform="rotate(0,236,684)"/><rect x="278" y="670" width="28" height="28" transform="rotate(0,292,684)"/><rect x="362" y="670" width="28" height="28" transform="rotate(0,376,684)"/><rect x="390" y="670" width="28" height="28" transform="rotate(0,404,684)"/><rect x="418" y="670" width="28" height="28" transform="rotate(0,432,684)"/><rect x="446" y="670" width="28" height="28" transform="rotate(0,460,684)"/><rect x="474" y="670" width="28" height="28" transform="rotate(0,488,684)"/><rect x="614" y="670" width="28" height="28" transform="rotate(0,628,684)"/><circle cx="684" cy="684" r="14" transform="rotate(0,684,684)"/><path d="M 754 670v 28h 14a 14 14, 0, 0, 0, 0 -28" transform="rotate(90,768,684)"/><path d="M 894 670v 28h 14a 14 14, 0, 0, 0, 0 -28" transform="rotate(-90,908,684)"/><circle cx="964" cy="684" r="14" transform="rotate(0,964,684)"/><path d="M 1006 670v 28h 14a 14 14, 0, 0, 0, 0 -28" transform="rotate(90,1020,684)"/><path d="M 1062 670v 28h 14a 14 14, 0, 0, 0, 0 -28" transform="rotate(-90,1076,684)"/><path d="M 1118 670v 28h 14a 14 14, 0, 0, 0, 0 -28" transform="rotate(180,1132,684)"/><path d="M 1146 670v 28h 28v -14a 14 14, 0, 0, 0, -14 -14" transform="rotate(0,1160,684)"/><circle cx="40" cy="712" r="14" transform="rotate(0,40,712)"/><path d="M 82 698v 28h 14a 14 14, 0, 0, 0, 0 -28" transform="rotate(-90,96,712)"/><rect x="138" y="698" width="28" height="28" transform="rotate(0,152,712)"/><rect x="166" y="698" width="28" height="28" transform="rotate(0,180,712)"/><path d="M 194 698v 28h 14a 14 14, 0, 0, 0, 0 -28" transform="rotate(0,208,712)"/><path d="M 278 698v 28h 28v -14a 14 14, 0, 0, 0, -14 -14" transform="rotate(180,292,712)"/><path d="M 306 698v 28h 14a 14 14, 0, 0, 0, 0 -28" transform="rotate(0,320,712)"/><rect x="362" y="698" width="28" height="28" transform="rotate(0,376,712)"/><rect x="390" y="698" width="28" height="28" transform="rotate(0,404,712)"/><path d="M 418 698v 28h 28v -14a 14 14, 0, 0, 0, -14 -14" transform="rotate(90,432,712)"/><rect x="474" y="698" width="28" height="28" transform="rotate(0,488,712)"/><path d="M 614 698v 28h 28v -14a 14 14, 0, 0, 0, -14 -14" transform="rotate(180,628,712)"/><path d="M 642 698v 28h 28v -14a 14 14, 0, 0, 0, -14 -14" transform="rotate(0,656,712)"/><path d="M 782 698v 28h 14a 14 14, 0, 0, 0, 0 -28" transform="rotate(-90,796,712)"/><rect x="894" y="698" width="28" height="28" transform="rotate(0,908,712)"/><path d="M 922 698v 28h 14a 14 14, 0, 0, 0, 0 -28" transform="rotate(0,936,712)"/><path d="M 978 698v 28h 14a 14 14, 0, 0, 0, 0 -28" transform="rotate(-90,992,712)"/><rect x="1062" y="698" width="28" height="28" transform="rotate(0,1076,712)"/><rect x="1146" y="698" width="28" height="28" transform="rotate(0,1160,712)"/><rect x="82" y="726" width="28" height="28" transform="rotate(0,96,740)"/><rect x="138" y="726" width="28" height="28" transform="rotate(0,152,740)"/><path d="M 166 726v 28h 28v -14a 14 14, 0, 0, 0, -14 -14" transform="rotate(90,180,740)"/><path d="M 222 726v 28h 14a 14 14, 0, 0, 0, 0 -28" transform="rotate(180,236,740)"/><path d="M 250 726v 28h 28v -14a 14 14, 0, 0, 0, -14 -14" transform="rotate(0,264,740)"/><path d="M 334 726v 28h 14a 14 14, 0, 0, 0, 0 -28" transform="rotate(180,348,740)"/><path d="M 362 726v 28h 28v -14a 14 14, 0, 0, 0, -14 -14" transform="rotate(90,376,740)"/><path d="M 446 726v 28h 14a 14 14, 0, 0, 0, 0 -28" transform="rotate(180,460,740)"/><path d="M 474 726v 28h 28v -14a 14 14, 0, 0, 0, -14 -14" transform="rotate(90,488,740)"/><path d="M 530 726v 28h 14a 14 14, 0, 0, 0, 0 -28" transform="rotate(-90,544,740)"/><path d="M 642 726v 28h 28v -14a 14 14, 0, 0, 0, -14 -14" transform="rotate(180,656,740)"/><path d="M 670 726v 28h 14a 14 14, 0, 0, 0, 0 -28" transform="rotate(0,684,740)"/><circle cx="740" cy="740" r="14" transform="rotate(0,740,740)"/><rect x="782" y="726" width="28" height="28" transform="rotate(0,796,740)"/><path d="M 810 726v 28h 14a 14 14, 0, 0, 0, 0 -28" transform="rotate(0,824,740)"/><path d="M 866 726v 28h 14a 14 14, 0, 0, 0, 0 -28" transform="rotate(180,880,740)"/><path d="M 894 726v 28h 28v -14a 14 14, 0, 0, 0, -14 -14" transform="rotate(90,908,740)"/><rect x="978" y="726" width="28" height="28" transform="rotate(0,992,740)"/><rect x="1006" y="726" width="28" height="28" transform="rotate(0,1020,740)"/><rect x="1034" y="726" width="28" height="28" transform="rotate(0,1048,740)"/><path d="M 1062 726v 28h 28v -14a 14 14, 0, 0, 0, -14 -14" transform="rotate(90,1076,740)"/><path d="M 1118 726v 28h 14a 14 14, 0, 0, 0, 0 -28" transform="rotate(180,1132,740)"/><path d="M 1146 726v 28h 28v -14a 14 14, 0, 0, 0, -14 -14" transform="rotate(90,1160,740)"/><path d="M 26 754v 28h 14a 14 14, 0, 0, 0, 0 -28" transform="rotate(180,40,768)"/><rect x="54" y="754" width="28" height="28" transform="rotate(0,68,768)"/><rect x="82" y="754" width="28" height="28" transform="rotate(0,96,768)"/><rect x="110" y="754" width="28" height="28" transform="rotate(0,124,768)"/><rect x="138" y="754" width="28" height="28" transform="rotate(0,152,768)"/><circle cx="208" cy="768" r="14" transform="rotate(0,208,768)"/><rect x="250" y="754" width="28" height="28" transform="rotate(0,264,768)"/><path d="M 306 754v 28h 14a 14 14, 0, 0, 0, 0 -28" transform="rotate(-90,320,768)"/><path d="M 390 754v 28h 14a 14 14, 0, 0, 0, 0 -28" transform="rotate(-90,404,768)"/><path d="M 502 754v 28h 14a 14 14, 0, 0, 0, 0 -28" transform="rotate(180,516,768)"/><rect x="530" y="754" width="28" height="28" transform="rotate(0,544,768)"/><rect x="558" y="754" width="28" height="28" transform="rotate(0,572,768)"/><rect x="586" y="754" width="28" height="28" transform="rotate(0,600,768)"/><path d="M 614 754v 28h 14a 14 14, 0, 0, 0, 0 -28" transform="rotate(0,628,768)"/><circle cx="712" cy="768" r="14" transform="rotate(0,712,768)"/><path d="M 754 754v 28h 14a 14 14, 0, 0, 0, 0 -28" transform="rotate(180,768,768)"/><path d="M 782 754v 28h 28v -14a 14 14, 0, 0, 0, -14 -14" transform="rotate(90,796,768)"/><path d="M 922 754v 28h 14a 14 14, 0, 0, 0, 0 -28" transform="rotate(180,936,768)"/><rect x="950" y="754" width="28" height="28" transform="rotate(0,964,768)"/><rect x="978" y="754" width="28" height="28" transform="rotate(0,992,768)"/><rect x="1006" y="754" width="28" height="28" transform="rotate(0,1020,768)"/><rect x="1034" y="754" width="28" height="28" transform="rotate(0,1048,768)"/><path d="M 82 782v 28h 14a 14 14, 0, 0, 0, 0 -28" transform="rotate(90,96,796)"/><path d="M 138 782v 28h 14a 14 14, 0, 0, 0, 0 -28" transform="rotate(90,152,796)"/><path d="M 222 782v 28h 28v -14a 14 14, 0, 0, 0, -14 -14" transform="rotate(-90,236,796)"/><path d="M 250 782v 28h 28v -14a 14 14, 0, 0, 0, -14 -14" transform="rotate(90,264,796)"/><path d="M 306 782v 28h 14a 14 14, 0, 0, 0, 0 -28" transform="rotate(90,320,796)"/><path d="M 362 782v 28h 28v -14a 14 14, 0, 0, 0, -14 -14" transform="rotate(-90,376,796)"/><path d="M 390 782v 28h 28v -14a 14 14, 0, 0, 0, -14 -14" transform="rotate(90,404,796)"/><circle cx="460" cy="796" r="14" transform="rotate(0,460,796)"/><path d="M 530 782v 28h 14a 14 14, 0, 0, 0, 0 -28" transform="rotate(90,544,796)"/><rect x="586" y="782" width="28" height="28" transform="rotate(0,600,796)"/><path d="M 866 782v 28h 14a 14 14, 0, 0, 0, 0 -28" transform="rotate(180,880,796)"/><path d="M 894 782v 28h 28v -14a 14 14, 0, 0, 0, -14 -14" transform="rotate(0,908,796)"/><path d="M 950 782v 28h 28v -14a 14 14, 0, 0, 0, -14 -14" transform="rotate(180,964,796)"/><rect x="978" y="782" width="28" height="28" transform="rotate(0,992,796)"/><rect x="1006" y="782" width="28" height="28" transform="rotate(0,1020,796)"/><rect x="1034" y="782" width="28" height="28" transform="rotate(0,1048,796)"/><rect x="1062" y="782" width="28" height="28" transform="rotate(0,1076,796)"/><rect x="1090" y="782" width="28" height="28" transform="rotate(0,1104,796)"/><path d="M 1118 782v 28h 14a 14 14, 0, 0, 0, 0 -28" transform="rotate(0,1132,796)"/><path d="M 26 810v 28h 14a 14 14, 0, 0, 0, 0 -28" transform="rotate(-90,40,824)"/><path d="M 166 810v 28h 14a 14 14, 0, 0, 0, 0 -28" transform="rotate(180,180,824)"/><rect x="194" y="810" width="28" height="28" transform="rotate(0,208,824)"/><path d="M 222 810v 28h 28v -14a 14 14, 0, 0, 0, -14 -14" transform="rotate(90,236,824)"/><rect x="362" y="810" width="28" height="28" transform="rotate(0,376,824)"/><path d="M 474 810v 28h 28v -14a 14 14, 0, 0, 0, -14 -14" transform="rotate(-90,488,824)"/><path d="M 502 810v 28h 14a 14 14, 0, 0, 0, 0 -28" transform="rotate(0,516,824)"/><path d="M 558 810v 28h 28v -14a 14 14, 0, 0, 0, -14 -14" transform="rotate(-90,572,824)"/><path d="M 586 810v 28h 28v -14a 14 14, 0, 0, 0, -14 -14" transform="rotate(90,600,824)"/><circle cx="684" cy="824" r="14" transform="rotate(0,684,824)"/><path d="M 726 810v 28h 28v -14a 14 14, 0, 0, 0, -14 -14" transform="rotate(-90,740,824)"/><rect x="754" y="810" width="28" height="28" transform="rotate(0,768,824)"/><path d="M 782 810v 28h 28v -14a 14 14, 0, 0, 0, -14 -14" transform="rotate(0,796,824)"/><path d="M 838 810v 28h 14a 14 14, 0, 0, 0, 0 -28" transform="rotate(-90,852,824)"/><rect x="894" y="810" width="28" height="28" transform="rotate(0,908,824)"/><path d="M 922 810v 28h 28v -14a 14 14, 0, 0, 0, -14 -14" transform="rotate(0,936,824)"/><rect x="1062" y="810" width="28" height="28" transform="rotate(0,1076,824)"/><rect x="1090" y="810" width="28" height="28" transform="rotate(0,1104,824)"/><rect x="26" y="838" width="28" height="28" transform="rotate(0,40,852)"/><path d="M 54 838v 28h 28v -14a 14 14, 0, 0, 0, -14 -14" transform="rotate(0,68,852)"/><path d="M 138 838v 28h 14a 14 14, 0, 0, 0, 0 -28" transform="rotate(-90,152,852)"/><path d="M 278 838v 28h 14a 14 14, 0, 0, 0, 0 -28" transform="rotate(-90,292,852)"/><rect x="362" y="838" width="28" height="28" transform="rotate(0,376,852)"/><rect x="474" y="838" width="28" height="28" transform="rotate(0,488,852)"/><rect x="558" y="838" width="28" height="28" transform="rotate(0,572,852)"/><path d="M 642 838v 28h 14a 14 14, 0, 0, 0, 0 -28" transform="rotate(-90,656,852)"/><path d="M 698 838v 28h 14a 14 14, 0, 0, 0, 0 -28" transform="rotate(180,712,852)"/><rect x="726" y="838" width="28" height="28" transform="rotate(0,740,852)"/><rect x="754" y="838" width="28" height="28" transform="rotate(0,768,852)"/><rect x="782" y="838" width="28" height="28" transform="rotate(0,796,852)"/><rect x="810" y="838" width="28" height="28" transform="rotate(0,824,852)"/><rect x="838" y="838" width="28" height="28" transform="rotate(0,852,852)"/><rect x="866" y="838" width="28" height="28" transform="rotate(0,880,852)"/><rect x="894" y="838" width="28" height="28" transform="rotate(0,908,852)"/><rect x="922" y="838" width="28" height="28" transform="rotate(0,936,852)"/><rect x="950" y="838" width="28" height="28" transform="rotate(0,964,852)"/><path d="M 978 838v 28h 14a 14 14, 0, 0, 0, 0 -28" transform="rotate(0,992,852)"/><path d="M 1034 838v 28h 28v -14a 14 14, 0, 0, 0, -14 -14" transform="rotate(-90,1048,852)"/><rect x="1062" y="838" width="28" height="28" transform="rotate(0,1076,852)"/><path d="M 1090 838v 28h 28v -14a 14 14, 0, 0, 0, -14 -14" transform="rotate(90,1104,852)"/><path d="M 1146 838v 28h 14a 14 14, 0, 0, 0, 0 -28" transform="rotate(-90,1160,852)"/><rect x="26" y="866" width="28" height="28" transform="rotate(0,40,880)"/><rect x="54" y="866" width="28" height="28" transform="rotate(0,68,880)"/><path d="M 82 866v 28h 28v -14a 14 14, 0, 0, 0, -14 -14" transform="rotate(0,96,880)"/><rect x="138" y="866" width="28" height="28" transform="rotate(0,152,880)"/><circle cx="208" cy="880" r="14" transform="rotate(0,208,880)"/><path d="M 250 866v 28h 28v -14a 14 14, 0, 0, 0, -14 -14" transform="rotate(-90,264,880)"/><path d="M 278 866v 28h 28v -14a 14 14, 0, 0, 0, -14 -14" transform="rotate(90,292,880)"/><path d="M 362 866v 28h 14a 14 14, 0, 0, 0, 0 -28" transform="rotate(90,376,880)"/><rect x="474" y="866" width="28" height="28" transform="rotate(0,488,880)"/><path d="M 502 866v 28h 28v -14a 14 14, 0, 0, 0, -14 -14" transform="rotate(0,516,880)"/><path d="M 558 866v 28h 14a 14 14, 0, 0, 0, 0 -28" transform="rotate(90,572,880)"/><path d="M 614 866v 28h 14a 14 14, 0, 0, 0, 0 -28" transform="rotate(180,628,880)"/><rect x="642" y="866" width="28" height="28" transform="rotate(0,656,880)"/><path d="M 670 866v 28h 14a 14 14, 0, 0, 0, 0 -28" transform="rotate(0,684,880)"/><path d="M 726 866v 28h 14a 14 14, 0, 0, 0, 0 -28" transform="rotate(90,740,880)"/><path d="M 782 866v 28h 14a 14 14, 0, 0, 0, 0 -28" transform="rotate(90,796,880)"/><path d="M 838 866v 28h 14a 14 14, 0, 0, 0, 0 -28" transform="rotate(90,852,880)"/><rect x="894" y="866" width="28" height="28" transform="rotate(0,908,880)"/><path d="M 950 866v 28h 14a 14 14, 0, 0, 0, 0 -28" transform="rotate(90,964,880)"/><path d="M 1034 866v 28h 14a 14 14, 0, 0, 0, 0 -28" transform="rotate(90,1048,880)"/><path d="M 1146 866v 28h 14a 14 14, 0, 0, 0, 0 -28" transform="rotate(90,1160,880)"/><rect x="26" y="894" width="28" height="28" transform="rotate(0,40,908)"/><rect x="82" y="894" width="28" height="28" transform="rotate(0,96,908)"/><rect x="138" y="894" width="28" height="28" transform="rotate(0,152,908)"/><path d="M 250 894v 28h 14a 14 14, 0, 0, 0, 0 -28" transform="rotate(90,264,908)"/><circle cx="320" cy="908" r="14" transform="rotate(0,320,908)"/><circle cx="404" cy="908" r="14" transform="rotate(0,404,908)"/><rect x="474" y="894" width="28" height="28" transform="rotate(0,488,908)"/><rect x="502" y="894" width="28" height="28" transform="rotate(0,516,908)"/><path d="M 530 894v 28h 28v -14a 14 14, 0, 0, 0, -14 -14" transform="rotate(0,544,908)"/><circle cx="600" cy="908" r="14" transform="rotate(0,600,908)"/><path d="M 698 894v 28h 14a 14 14, 0, 0, 0, 0 -28" transform="rotate(-90,712,908)"/><circle cx="824" cy="908" r="14" transform="rotate(0,824,908)"/><path d="M 894 894v 28h 14a 14 14, 0, 0, 0, 0 -28" transform="rotate(90,908,908)"/><path d="M 978 894v 28h 28v -14a 14 14, 0, 0, 0, -14 -14" transform="rotate(-90,992,908)"/><path d="M 1006 894v 28h 28v -14a 14 14, 0, 0, 0, -14 -14" transform="rotate(0,1020,908)"/><circle cx="1076" cy="908" r="14" transform="rotate(0,1076,908)"/><path d="M 26 922v 28h 14a 14 14, 0, 0, 0, 0 -28" transform="rotate(90,40,936)"/><path d="M 82 922v 28h 28v -14a 14 14, 0, 0, 0, -14 -14" transform="rotate(180,96,936)"/><rect x="110" y="922" width="28" height="28" transform="rotate(0,124,936)"/><rect x="138" y="922" width="28" height="28" transform="rotate(0,152,936)"/><rect x="166" y="922" width="28" height="28" transform="rotate(0,180,936)"/><rect x="194" y="922" width="28" height="28" transform="rotate(0,208,936)"/><path d="M 222 922v 28h 14a 14 14, 0, 0, 0, 0 -28" transform="rotate(0,236,936)"/><path d="M 278 922v 28h 14a 14 14, 0, 0, 0, 0 -28" transform="rotate(-90,292,936)"/><path d="M 334 922v 28h 14a 14 14, 0, 0, 0, 0 -28" transform="rotate(180,348,936)"/><path d="M 362 922v 28h 14a 14 14, 0, 0, 0, 0 -28" transform="rotate(0,376,936)"/><path d="M 418 922v 28h 14a 14 14, 0, 0, 0, 0 -28" transform="rotate(-90,432,936)"/><rect x="474" y="922" width="28" height="28" transform="rotate(0,488,936)"/><path d="M 530 922v 28h 14a 14 14, 0, 0, 0, 0 -28" transform="rotate(90,544,936)"/><circle cx="628" cy="936" r="14" transform="rotate(0,628,936)"/><path d="M 698 922v 28h 28v -14a 14 14, 0, 0, 0, -14 -14" transform="rotate(180,712,936)"/><rect x="726" y="922" width="28" height="28" transform="rotate(0,740,936)"/><path d="M 754 922v 28h 28v -14a 14 14, 0, 0, 0, -14 -14" transform="rotate(0,768,936)"/><path d="M 838 922v 28h 14a 14 14, 0, 0, 0, 0 -28" transform="rotate(-90,852,936)"/><path d="M 922 922v 28h 28v -14a 14 14, 0, 0, 0, -14 -14" transform="rotate(-90,936,936)"/><rect x="950" y="922" width="28" height="28" transform="rotate(0,964,936)"/><rect x="978" y="922" width="28" height="28" transform="rotate(0,992,936)"/><rect x="1006" y="922" width="28" height="28" transform="rotate(0,1020,936)"/><path d="M 1034 922v 28h 28v -14a 14 14, 0, 0, 0, -14 -14" transform="rotate(0,1048,936)"/><circle cx="1104" cy="936" r="14" transform="rotate(0,1104,936)"/><circle cx="1160" cy="936" r="14" transform="rotate(0,1160,936)"/><path d="M 250 950v 28h 28v -14a 14 14, 0, 0, 0, -14 -14" transform="rotate(-90,264,964)"/><rect x="278" y="950" width="28" height="28" transform="rotate(0,292,964)"/><path d="M 390 950v 28h 28v -14a 14 14, 0, 0, 0, -14 -14" transform="rotate(-90,404,964)"/><path d="M 418 950v 28h 28v -14a 14 14, 0, 0, 0, -14 -14" transform="rotate(90,432,964)"/><path d="M 474 950v 28h 28v -14a 14 14, 0, 0, 0, -14 -14" transform="rotate(180,488,964)"/><path d="M 502 950v 28h 14a 14 14, 0, 0, 0, 0 -28" transform="rotate(0,516,964)"/><circle cx="684" cy="964" r="14" transform="rotate(0,684,964)"/><rect x="726" y="950" width="28" height="28" transform="rotate(0,740,964)"/><rect x="754" y="950" width="28" height="28" transform="rotate(0,768,964)"/><path d="M 782 950v 28h 28v -14a 14 14, 0, 0, 0, -14 -14" transform="rotate(0,796,964)"/><path d="M 838 950v 28h 14a 14 14, 0, 0, 0, 0 -28" transform="rotate(90,852,964)"/><rect x="922" y="950" width="28" height="28" transform="rotate(0,936,964)"/><rect x="1034" y="950" width="28" height="28" transform="rotate(0,1048,964)"/><path d="M 1062 950v 28h 14a 14 14, 0, 0, 0, 0 -28" transform="rotate(0,1076,964)"/><path d="M 250 978v 28h 28v -14a 14 14, 0, 0, 0, -14 -14" transform="rotate(180,264,992)"/><rect x="278" y="978" width="28" height="28" transform="rotate(0,292,992)"/><path d="M 306 978v 28h 28v -14a 14 14, 0, 0, 0, -14 -14" transform="rotate(0,320,992)"/><path d="M 362 978v 28h 28v -14a 14 14, 0, 0, 0, -14 -14" transform="rotate(-90,376,992)"/><rect x="390" y="978" width="28" height="28" transform="rotate(0,404,992)"/><circle cx="460" cy="992" r="14" transform="rotate(0,460,992)"/><path d="M 530 978v 28h 14a 14 14, 0, 0, 0, 0 -28" transform="rotate(180,544,992)"/><path d="M 558 978v 28h 14a 14 14, 0, 0, 0, 0 -28" transform="rotate(0,572,992)"/><path d="M 614 978v 28h 14a 14 14, 0, 0, 0, 0 -28" transform="rotate(-90,628,992)"/><path d="M 698 978v 28h 14a 14 14, 0, 0, 0, 0 -28" transform="rotate(180,712,992)"/><rect x="726" y="978" width="28" height="28" transform="rotate(0,740,992)"/><rect x="754" y="978" width="28" height="28" transform="rotate(0,768,992)"/><rect x="782" y="978" width="28" height="28" transform="rotate(0,796,992)"/><path d="M 866 978v 28h 14a 14 14, 0, 0, 0, 0 -28" transform="rotate(180,880,992)"/><rect x="894" y="978" width="28" height="28" transform="rotate(0,908,992)"/><rect x="922" y="978" width="28" height="28" transform="rotate(0,936,992)"/><circle cx="992" cy="992" r="14" transform="rotate(0,992,992)"/><rect x="1034" y="978" width="28" height="28" transform="rotate(0,1048,992)"/><path d="M 1118 978v 28h 14a 14 14, 0, 0, 0, 0 -28" transform="rotate(-90,1132,992)"/><rect x="278" y="1006" width="28" height="28" transform="rotate(0,292,1020)"/><rect x="306" y="1006" width="28" height="28" transform="rotate(0,320,1020)"/><rect x="334" y="1006" width="28" height="28" transform="rotate(0,348,1020)"/><rect x="362" y="1006" width="28" height="28" transform="rotate(0,376,1020)"/><rect x="390" y="1006" width="28" height="28" transform="rotate(0,404,1020)"/><circle cx="488" cy="1020" r="14" transform="rotate(0,488,1020)"/><rect x="614" y="1006" width="28" height="28" transform="rotate(0,628,1020)"/><rect x="642" y="1006" width="28" height="28" transform="rotate(0,656,1020)"/><path d="M 670 1006v 28h 28v -14a 14 14, 0, 0, 0, -14 -14" transform="rotate(0,684,1020)"/><rect x="726" y="1006" width="28" height="28" transform="rotate(0,740,1020)"/><rect x="782" y="1006" width="28" height="28" transform="rotate(0,796,1020)"/><path d="M 810 1006v 28h 28v -14a 14 14, 0, 0, 0, -14 -14" transform="rotate(0,824,1020)"/><rect x="894" y="1006" width="28" height="28" transform="rotate(0,908,1020)"/><rect x="922" y="1006" width="28" height="28" transform="rotate(0,936,1020)"/><rect x="1034" y="1006" width="28" height="28" transform="rotate(0,1048,1020)"/><path d="M 1062 1006v 28h 28v -14a 14 14, 0, 0, 0, -14 -14" transform="rotate(0,1076,1020)"/><rect x="1118" y="1006" width="28" height="28" transform="rotate(0,1132,1020)"/><rect x="278" y="1034" width="28" height="28" transform="rotate(0,292,1048)"/><path d="M 306 1034v 28h 28v -14a 14 14, 0, 0, 0, -14 -14" transform="rotate(90,320,1048)"/><path d="M 362 1034v 28h 28v -14a 14 14, 0, 0, 0, -14 -14" transform="rotate(180,376,1048)"/><path d="M 390 1034v 28h 28v -14a 14 14, 0, 0, 0, -14 -14" transform="rotate(90,404,1048)"/><path d="M 502 1034v 28h 14a 14 14, 0, 0, 0, 0 -28" transform="rotate(-90,516,1048)"/><path d="M 586 1034v 28h 28v -14a 14 14, 0, 0, 0, -14 -14" transform="rotate(-90,600,1048)"/><rect x="614" y="1034" width="28" height="28" transform="rotate(0,628,1048)"/><rect x="642" y="1034" width="28" height="28" transform="rotate(0,656,1048)"/><rect x="670" y="1034" width="28" height="28" transform="rotate(0,684,1048)"/><rect x="698" y="1034" width="28" height="28" transform="rotate(0,712,1048)"/><path d="M 726 1034v 28h 28v -14a 14 14, 0, 0, 0, -14 -14" transform="rotate(90,740,1048)"/><rect x="782" y="1034" width="28" height="28" transform="rotate(0,796,1048)"/><rect x="810" y="1034" width="28" height="28" transform="rotate(0,824,1048)"/><path d="M 894 1034v 28h 28v -14a 14 14, 0, 0, 0, -14 -14" transform="rotate(180,908,1048)"/><rect x="922" y="1034" width="28" height="28" transform="rotate(0,936,1048)"/><rect x="950" y="1034" width="28" height="28" transform="rotate(0,964,1048)"/><rect x="978" y="1034" width="28" height="28" transform="rotate(0,992,1048)"/><rect x="1006" y="1034" width="28" height="28" transform="rotate(0,1020,1048)"/><rect x="1034" y="1034" width="28" height="28" transform="rotate(0,1048,1048)"/><rect x="1062" y="1034" width="28" height="28" transform="rotate(0,1076,1048)"/><path d="M 1118 1034v 28h 14a 14 14, 0, 0, 0, 0 -28" transform="rotate(90,1132,1048)"/><rect x="278" y="1062" width="28" height="28" transform="rotate(0,292,1076)"/><path d="M 418 1062v 28h 14a 14 14, 0, 0, 0, 0 -28" transform="rotate(180,432,1076)"/><path d="M 446 1062v 28h 28v -14a 14 14, 0, 0, 0, -14 -14" transform="rotate(0,460,1076)"/><path d="M 502 1062v 28h 14a 14 14, 0, 0, 0, 0 -28" transform="rotate(90,516,1076)"/><path d="M 558 1062v 28h 14a 14 14, 0, 0, 0, 0 -28" transform="rotate(180,572,1076)"/><path d="M 586 1062v 28h 28v -14a 14 14, 0, 0, 0, -14 -14" transform="rotate(90,600,1076)"/><path d="M 642 1062v 28h 28v -14a 14 14, 0, 0, 0, -14 -14" transform="rotate(180,656,1076)"/><path d="M 670 1062v 28h 28v -14a 14 14, 0, 0, 0, -14 -14" transform="rotate(90,684,1076)"/><rect x="782" y="1062" width="28" height="28" transform="rotate(0,796,1076)"/><rect x="810" y="1062" width="28" height="28" transform="rotate(0,824,1076)"/><rect x="838" y="1062" width="28" height="28" transform="rotate(0,852,1076)"/><path d="M 866 1062v 28h 14a 14 14, 0, 0, 0, 0 -28" transform="rotate(0,880,1076)"/><rect x="1006" y="1062" width="28" height="28" transform="rotate(0,1020,1076)"/><rect x="1062" y="1062" width="28" height="28" transform="rotate(0,1076,1076)"/><rect x="278" y="1090" width="28" height="28" transform="rotate(0,292,1104)"/><path d="M 306 1090v 28h 28v -14a 14 14, 0, 0, 0, -14 -14" transform="rotate(0,320,1104)"/><path d="M 362 1090v 28h 14a 14 14, 0, 0, 0, 0 -28" transform="rotate(180,376,1104)"/><path d="M 390 1090v 28h 14a 14 14, 0, 0, 0, 0 -28" transform="rotate(0,404,1104)"/><rect x="446" y="1090" width="28" height="28" transform="rotate(0,460,1104)"/><path d="M 530 1090v 28h 14a 14 14, 0, 0, 0, 0 -28" transform="rotate(-90,544,1104)"/><path d="M 614 1090v 28h 14a 14 14, 0, 0, 0, 0 -28" transform="rotate(-90,628,1104)"/><path d="M 726 1090v 28h 14a 14 14, 0, 0, 0, 0 -28" transform="rotate(180,740,1104)"/><rect x="754" y="1090" width="28" height="28" transform="rotate(0,768,1104)"/><rect x="782" y="1090" width="28" height="28" transform="rotate(0,796,1104)"/><rect x="810" y="1090" width="28" height="28" transform="rotate(0,824,1104)"/><path d="M 894 1090v 28h 28v -14a 14 14, 0, 0, 0, -14 -14" transform="rotate(-90,908,1104)"/><rect x="922" y="1090" width="28" height="28" transform="rotate(0,936,1104)"/><rect x="950" y="1090" width="28" height="28" transform="rotate(0,964,1104)"/><rect x="978" y="1090" width="28" height="28" transform="rotate(0,992,1104)"/><rect x="1006" y="1090" width="28" height="28" transform="rotate(0,1020,1104)"/><rect x="1034" y="1090" width="28" height="28" transform="rotate(0,1048,1104)"/><path d="M 1062 1090v 28h 28v -14a 14 14, 0, 0, 0, -14 -14" transform="rotate(90,1076,1104)"/><path d="M 250 1118v 28h 14a 14 14, 0, 0, 0, 0 -28" transform="rotate(180,264,1132)"/><rect x="278" y="1118" width="28" height="28" transform="rotate(0,292,1132)"/><path d="M 306 1118v 28h 28v -14a 14 14, 0, 0, 0, -14 -14" transform="rotate(90,320,1132)"/><path d="M 418 1118v 28h 14a 14 14, 0, 0, 0, 0 -28" transform="rotate(180,432,1132)"/><rect x="446" y="1118" width="28" height="28" transform="rotate(0,460,1132)"/><path d="M 474 1118v 28h 14a 14 14, 0, 0, 0, 0 -28" transform="rotate(0,488,1132)"/><rect x="530" y="1118" width="28" height="28" transform="rotate(0,544,1132)"/><rect x="614" y="1118" width="28" height="28" transform="rotate(0,628,1132)"/><rect x="642" y="1118" width="28" height="28" transform="rotate(0,656,1132)"/><rect x="670" y="1118" width="28" height="28" transform="rotate(0,684,1132)"/><path d="M 698 1118v 28h 28v -14a 14 14, 0, 0, 0, -14 -14" transform="rotate(0,712,1132)"/><rect x="754" y="1118" width="28" height="28" transform="rotate(0,768,1132)"/><rect x="782" y="1118" width="28" height="28" transform="rotate(0,796,1132)"/><rect x="810" y="1118" width="28" height="28" transform="rotate(0,824,1132)"/><path d="M 866 1118v 28h 14a 14 14, 0, 0, 0, 0 -28" transform="rotate(180,880,1132)"/><rect x="894" y="1118" width="28" height="28" transform="rotate(0,908,1132)"/><rect x="950" y="1118" width="28" height="28" transform="rotate(0,964,1132)"/><rect x="1034" y="1118" width="28" height="28" transform="rotate(0,1048,1132)"/><path d="M 1090 1118v 28h 14a 14 14, 0, 0, 0, 0 -28" transform="rotate(-90,1104,1132)"/><circle cx="1160" cy="1132" r="14" transform="rotate(0,1160,1132)"/><path d="M 362 1146v 28h 14a 14 14, 0, 0, 0, 0 -28" transform="rotate(180,376,1160)"/><path d="M 390 1146v 28h 14a 14 14, 0, 0, 0, 0 -28" transform="rotate(0,404,1160)"/><path d="M 446 1146v 28h 14a 14 14, 0, 0, 0, 0 -28" transform="rotate(90,460,1160)"/><path d="M 530 1146v 28h 28v -14a 14 14, 0, 0, 0, -14 -14" transform="rotate(180,544,1160)"/><path d="M 558 1146v 28h 14a 14 14, 0, 0, 0, 0 -28" transform="rotate(0,572,1160)"/><path d="M 614 1146v 28h 14a 14 14, 0, 0, 0, 0 -28" transform="rotate(90,628,1160)"/><path d="M 698 1146v 28h 28v -14a 14 14, 0, 0, 0, -14 -14" transform="rotate(180,712,1160)"/><rect x="726" y="1146" width="28" height="28" transform="rotate(0,740,1160)"/><rect x="754" y="1146" width="28" height="28" transform="rotate(0,768,1160)"/><rect x="782" y="1146" width="28" height="28" transform="rotate(0,796,1160)"/><rect x="810" y="1146" width="28" height="28" transform="rotate(0,824,1160)"/><path d="M 838 1146v 28h 14a 14 14, 0, 0, 0, 0 -28" transform="rotate(0,852,1160)"/><path d="M 894 1146v 28h 14a 14 14, 0, 0, 0, 0 -28" transform="rotate(90,908,1160)"/><path d="M 950 1146v 28h 28v -14a 14 14, 0, 0, 0, -14 -14" transform="rotate(180,964,1160)"/><rect x="978" y="1146" width="28" height="28" transform="rotate(0,992,1160)"/><rect x="1006" y="1146" width="28" height="28" transform="rotate(0,1020,1160)"/><path d="M 1034 1146v 28h 28v -14a 14 14, 0, 0, 0, -14 -14" transform="rotate(90,1048,1160)"/><path d="M 1090 1146v 28h 14a 14 14, 0, 0, 0, 0 -28" transform="rotate(90,1104,1160)"/></clipPath><clipPath id="clip-path-corners-square-color-0-0-608"><path clip-rule="evenodd" d="M 26 96v 56a 70 70, 0, 0, 0, 70 70h 56a 70 70, 0, 0, 0, 70 -70v -56a 70 70, 0, 0, 0, -70 -70h -56a 70 70, 0, 0, 0, -70 70M 96 54h 56a 42 42, 0, 0, 1, 42 42v 56a 42 42, 0, 0, 1, -42 42h -56a 42 42, 0, 0, 1, -42 -42v -56a 42 42, 0, 0, 1, 42 -42" transform="rotate(0,124,124)"/></clipPath><clipPath id="clip-path-corners-dot-color-0-0-608"><circle cx="124" cy="124" r="42" transform="rotate(0,124,124)"/></clipPath><clipPath id="clip-path-corners-square-color-1-0-608"><path clip-rule="evenodd" d="M 978 96v 56a 70 70, 0, 0, 0, 70 70h 56a 70 70, 0, 0, 0, 70 -70v -56a 70 70, 0, 0, 0, -70 -70h -56a 70 70, 0, 0, 0, -70 70M 1048 54h 56a 42 42, 0, 0, 1, 42 42v 56a 42 42, 0, 0, 1, -42 42h -56a 42 42, 0, 0, 1, -42 -42v -56a 42 42, 0, 0, 1, 42 -42" transform="rotate(90,1076,124)"/></clipPath><clipPath id="clip-path-corners-dot-color-1-0-608"><circle cx="1076" cy="124" r="42" transform="rotate(90,1076,124)"/></clipPath><clipPath id="clip-path-corners-square-color-0-1-608"><path clip-rule="evenodd" d="M 26 1048v 56a 70 70, 0, 0, 0, 70 70h 56a 70 70, 0, 0, 0, 70 -70v -56a 70 70, 0, 0, 0, -70 -70h -56a 70 70, 0, 0, 0, -70 70M 96 1006h 56a 42 42, 0, 0, 1, 42 42v 56a 42 42, 0, 0, 1, -42 42h -56a 42 42, 0, 0, 1, -42 -42v -56a 42 42, 0, 0, 1, 42 -42" transform="rotate(-90,124,1076)"/></clipPath><clipPath id="clip-path-corners-dot-color-0-1-608"><circle cx="124" cy="1076" r="42" transform="rotate(-90,124,1076)"/></clipPath></defs><rect x="0" y="0" height="1200" width="1200" clip-path="url('#clip-path-background-color-608')" fill="#ffffff"/><rect x="0" y="0" height="1200" width="1200" clip-path="url('#clip-path-dot-color-608')" fill="#000000"/><rect x="26" y="26" height="196" width="196" clip-path="url('#clip-path-corners-square-color-0-0-608')" fill="#000000"/><rect x="82" y="82" height="84" width="84" clip-path="url('#clip-path-corners-dot-color-0-0-608')" fill="#000000"/><rect x="978" y="26" height="196" width="196" clip-path="url('#clip-path-corners-square-color-1-0-608')" fill="#000000"/><rect x="1034" y="82" height="84" width="84" clip-path="url('#clip-path-corners-dot-color-1-0-608')" fill="#000000"/><rect x="26" y="978" height="196" width="196" clip-path="url('#clip-path-corners-square-color-0-1-608')" fill="#000000"/><rect x="82" y="1034" height="84" width="84" clip-path="url('#clip-path-corners-dot-color-0-1-608')" fill="#000000"/></svg>