<?xml version="1.0" standalone="no"?>
<svg xmlns="http://www.w3.org/2000/svg" width="1200" height="1200" xmlns:xlink="http://www.w3.org/1999/xlink" viewBox="0 0 1200 1200"><defs><clipPath id="clip-path-background-color-621"><rect x="0" y="0" width="1200" height="1200"/></clipPath><clipPath id="clip-path-dot-color-621"><path d="M 334 26v 28h 28v -14a 14 14, 0, 0, 0, -14 -14" transform="rotate(-90,348,40)"/><path d="M 362 26v 28h 14a 14 14, 0, 0, 0, 0 -28" transform="rotate(0,376,40)"/><circle cx="432" cy="40" r="14" transform="rotate(0,432,40)"/><path d="M 642 26v 28h 14a 14 14, 0, 0, 0, 0 -28" transform="rotate(180,656,40)"/><rect x="670" y="26" width="28" height="28" transform="rotate(0,684,40)"/><path d="M 698 26v 28h 14a 14 14, 0, 0, 0, 0 -28" transform="rotate(0,712,40)"/><circle cx="768" cy="40" r="14" transform="rotate(0,768,40)"/><path d="M 838 26v 28h 14a 14 14, 0, 0, 0, 0 -28" transform="rotate(180,852,40)"/><path d="M 866 26v 28h 28v -14a 14 14, 0, 0, 0, -14 -14" transform="rotate(0,880,40)"/><circle cx="264" cy="68" r="14" transform="rotate(0,264,68)"/><path d="M 306 54v 28h 14a 14 14, 0, 0, 0, 0 -28" transform="rotate(180,320,68)"/><path d="M 334 54v 28h 28v -14a 14 14, 0, 0, 0, -14 -14" transform="rotate(90,348,68)"/><path d="M 446 54v 28h 28v -14a 14 14, 0, 0, 0, -14 -14" transform="rotate(-90,460,68)"/><rect x="474" y="54" width="28" height="28" transform="rotate(0,488,68)"/><path d="M 502 54v 28h 28v -14a 14 14, 0, 0, 0, -14 -14" transform="rotate(0,516,68)"/><path d="M 614 54v 28h 14a 14 14, 0, 0, 0, 0 -28" transform="rotate(-90,628,68)"/><path d="M 670 54v 28h 14a 14 14, 0, 0, 0, 0 -28" transform="rotate(90,684,68)"/><path d="M 866 54v 28h 28v -14a 14 14, 0, 0, 0, -14 -14" transform="rotate(180,880,68)"/><rect x="894" y="54" width="28" height="28" transform="rotate(0,908,68)"/><path d="M 922 54v 28h 28v -14a 14 14, 0, 0, 0, -14 -14" transform="rotate(0,936,68)"/><circle cx="292" cy="96" r="14" transform="rotate(0,292,96)"/><circle cx="376" cy="96" r="14" transform="rotate(0,376,96)"/><path d="M 418 82v 28h 28v -14a 14 14, 0, 0, 0, -14 -14" transform="rotate(-90,432,96)"/><rect x="446" y="82" width="28" height="28" transform="rotate(0,460,96)"/><rect x="502" y="82" width="28" height="28" transform="rotate(0,516,96)"/><path d="M 558 82v 28h 28v -14a 14 14, 0, 0, 0, -14 -14" transform="rotate(-90,572,96)"/><rect x="586" y="82" width="28" height="28" transform="rotate(0,600,96)"/><rect x="614" y="82" width="28" height="28" transform="rotate(0,628,96)"/><path d="M 642 82v 28h 28v -14a 14 14, 0, 0, 0, -14 -14" transform="rotate(0,656,96)"/><path d="M 922 82v 28h 14a 14 14, 0, 0, 0, 0 -28" transform="rotate(90,936,96)"/><path d="M 250 110v 28h 14a 14 14, 0, 0, 0, 0 -28" transform="rotate(-90,264,124)"/><circle cx="320" cy="124" r="14" transform="rotate(0,320,124)"/><path d="M 390 110v 28h 14a 14 14, 0, 0, 0, 0 -28" transform="rotate(180,404,124)"/><rect x="418" y="110" width="28" height="28" transform="rotate(0,432,124)"/><rect x="446" y="110" width="28" height="28" transform="rotate(0,460,124)"/><path d="M 502 110v 28h 28v -14a 14 14, 0, 0, 0, -14 -14" transform="rotate(180,516,124)"/><rect x="530" y="110" width="28" height="28" transform="rotate(0,544,124)"/><rect x="558" y="110" width="28" height="28" transform="rotate(0,572,124)"/><path d="M 586 110v 28h 28v -14a 14 14, 0, 0, 0, -14 -14" transform="rotate(90,600,124)"/><rect x="642" y="110" width="28" height="28" transform="rotate(0,656,124)"/><rect x="670" y="110" width="28" height="28" transform="rotate(0,684,124)"/><path d="M 698 110v 28h 28v -14a 14 14, 0, 0, 0, -14 -14" transform="rotate(0,712,124)"/><path d="M 810 110v 28h 14a 14 14, 0, 0, 0, 0 -28" transform="rotate(-90,824,124)"/><circle cx="880" cy="124" r="14" transform="rotate(0,880,124)"/><path d="M 250 138v 28h 28v -14a 14 14, 0, 0, 0, -14 -14" transform="rotate(180,264,152)"/><path d="M 278 138v 28h 14a 14 14, 0, 0, 0, 0 -28" transform="rotate(0,292,152)"/><circle cx="348" cy="152" r="14" transform="rotate(0,348,152)"/><rect x="418" y="138" width="28" height="28" transform="rotate(0,432,152)"/><path d="M 446 138v 28h 28v -14a 14 14, 0, 0, 0, -14 -14" transform="rotate(90,460,152)"/><rect x="642" y="138" width="28" height="28" transform="rotate(0,656,152)"/><rect x="670" y="138" width="28" height="28" transform="rotate(0,684,152)"/><path d="M 698 138v 28h 28v -14a 14 14, 0, 0, 0, -14 -14" transform="rotate(90,712,152)"/><circle cx="768" cy="152" r="14" transform="rotate(0,768,152)"/><rect x="810" y="138" width="28" height="28" transform="rotate(0,824,152)"/><path d="M 838 138v 28h 14a 14 14, 0, 0, 0, 0 -28" transform="rotate(0,852,152)"/><circle cx="908" cy="152" r="14" transform="rotate(0,908,152)"/><rect x="418" y="166" width="28" height="28" transform="rotate(0,432,180)"/><path d="M 474 166v 28h 28v -14a 14 14, 0, 0, 0, -14 -14" transform="rotate(-90,488,180)"/><path d="M 502 166v 28h 14a 14 14, 0, 0, 0, 0 -28" transform="rotate(0,516,180)"/><path d="M 614 166v 28h 14a 14 14, 0, 0, 0, 0 -28" transform="rotate(180,628,180)"/><rect x="642" y="166" width="28" height="28" transform="rotate(0,656,180)"/><path d="M 670 166v 28h 28v -14a 14 14, 0, 0, 0, -14 -14" transform="rotate(90,684,180)"/><circle cx="740" cy="180" r="14" transform="rotate(0,740,180)"/><rect x="810" y="166" width="28" height="28" transform="rotate(0,824,180)"/><path d="M 866 166v 28h 14a 14 14, 0, 0, 0, 0 -28" transform="rotate(-90,880,180)"/><path d="M 922 166v 28h 14a 14 14, 0, 0, 0, 0 -28" transform="rotate(-90,936,180)"/><path d="M 250 194v 28h 14a 14 14, 0, 0, 0, 0 -28" transform="rotate(-90,264,208)"/><circle cx="320" cy="208" r="14" transform="rotate(0,320,208)"/><path d="M 362 194v 28h 14a 14 14, 0, 0, 0, 0 -28" transform="rotate(-90,376,208)"/><rect x="418" y="194" width="28" height="28" transform="rotate(0,432,208)"/><path d="M 474 194v 28h 14a 14 14, 0, 0, 0, 0 -28" transform="rotate(90,488,208)"/><circle cx="544" cy="208" r="14" transform="rotate(0,544,208)"/><path d="M 586 194v 28h 14a 14 14, 0, 0, 0, 0 -28" transform="rotate(-90,600,208)"/><path d="M 642 194v 28h 14a 14 14, 0, 0, 0, 0 -28" transform="rotate(90,656,208)"/><path d="M 698 194v 28h 14a 14 14, 0, 0, 0, 0 -28" transform="rotate(-90,712,208)"/><path d="M 754 194v 28h 14a 14 14, 0, 0, 0, 0 -28" transform="rotate(-90,768,208)"/><path d="M 810 194v 28h 14a 14 14, 0, 0, 0, 0 -28" transform="rotate(90,824,208)"/><path d="M 866 194v 28h 14a 14 14, 0, 0, 0, 0 -28" transform="rotate(90,880,208)"/><path d="M 922 194v 28h 14a 14 14, 0, 0, 0, 0 -28" transform="rotate(90,936,208)"/><rect x="250" y="222" width="28" height="28" transform="rotate(0,264,236)"/><path d="M 278 222v 28h 28v -14a 14 14, 0, 0, 0, -14 -14" transform="rotate(0,292,236)"/><rect x="362" y="222" width="28" height="28" transform="rotate(0,376,236)"/><path d="M 418 222v 28h 14a 14 14, 0, 0, 0, 0 -28" transform="rotate(90,432,236)"/><path d="M 586 222v 28h 28v -14a 14 14, 0, 0, 0, -14 -14" transform="rotate(180,600,236)"/><path d="M 614 222v 28h 14a 14 14, 0, 0, 0, 0 -28" transform="rotate(0,628,236)"/><path d="M 698 222v 28h 28v -14a 14 14, 0, 0, 0, -14 -14" transform="rotate(180,712,236)"/><rect x="726" y="222" width="28" height="28" transform="rotate(0,740,236)"/><rect x="754" y="222" width="28" height="28" transform="rotate(0,768,236)"/><path d="M 782 222v 28h 28v -14a 14 14, 0, 0, 0, -14 -14" transform="rotate(0,796,236)"/><path d="M 894 222v 28h 14a 14 14, 0, 0, 0, 0 -28" transform="rotate(-90,908,236)"/><circle cx="68" cy="264" r="14" transform="rotate(0,68,264)"/><path d="M 110 250v 28h 28v -14a 14 14, 0, 0, 0, -14 -14" transform="rotate(-90,124,264)"/><rect x="138" y="250" width="28" height="28" transform="rotate(0,152,264)"/><rect x="166" y="250" width="28" height="28" transform="rotate(0,180,264)"/><path d="M 194 250v 28h 14a 14 14, 0, 0, 0, 0 -28" transform="rotate(0,208,264)"/><path d="M 250 250v 28h 28v -14a 14 14, 0, 0, 0, -14 -14" transform="rotate(180,264,264)"/><rect x="278" y="250" width="28" height="28" transform="rotate(0,292,264)"/><rect x="306" y="250" width="28" height="28" transform="rotate(0,320,264)"/><rect x="334" y="250" width="28" height="28" transform="rotate(0,348,264)"/><rect x="362" y="250" width="28" height="28" transform="rotate(0,376,264)"/><path d="M 390 250v 28h 14a 14 14, 0, 0, 0, 0 -28" transform="rotate(0,404,264)"/><path d="M 530 250v 28h 14a 14 14, 0, 0, 0, 0 -28" transform="rotate(180,544,264)"/><path d="M 558 250v 28h 14a 14 14, 0, 0, 0, 0 -28" transform="rotate(0,572,264)"/><circle cx="656" cy="264" r="14" transform="rotate(0,656,264)"/><rect x="754" y="250" width="28" height="28" transform="rotate(0,768,264)"/><rect x="782" y="250" width="28" height="28" transform="rotate(0,796,264)"/><circle cx="852" cy="264" r="14" transform="rotate(0,852,264)"/><rect x="894" y="250" width="28" height="28" transform="rotate(0,908,264)"/><path d="M 950 250v 28h 28v -14a 14 14, 0, 0, 0, -14 -14" transform="rotate(-90,964,264)"/><path d="M 978 250v 28h 14a 14 14, 0, 0, 0, 0 -28" transform="rotate(0,992,264)"/><path d="M 1034 250v 28h 28v -14a 14 14, 0, 0, 0, -14 -14" transform="rotate(-90,1048,264)"/><path d="M 1062 250v 28h 14a 14 14, 0, 0, 0, 0 -28" transform="rotate(0,1076,264)"/><circle cx="1132" cy="264" r="14" transform="rotate(0,1132,264)"/><circle cx="40" cy="292" r="14" transform="rotate(0,40,292)"/><rect x="110" y="278" width="28" height="28" transform="rotate(0,124,292)"/><rect x="166" y="278" width="28" height="28" transform="rotate(0,180,292)"/><circle cx="236" cy="292" r="14" transform="rotate(0,236,292)"/><path d="M 278 278v 28h 28v -14a 14 14, 0, 0, 0, -14 -14" transform="rotate(180,292,292)"/><rect x="306" y="278" width="28" height="28" transform="rotate(0,320,292)"/><rect x="362" y="278" width="28" height="28" transform="rotate(0,376,292)"/><path d="M 418 278v 28h 14a 14 14, 0, 0, 0, 0 -28" transform="rotate(-90,432,292)"/><circle cx="516" cy="292" r="14" transform="rotate(0,516,292)"/><path d="M 754 278v 28h 28v -14a 14 14, 0, 0, 0, -14 -14" transform="rotate(180,768,292)"/><rect x="782" y="278" width="28" height="28" transform="rotate(0,796,292)"/><path d="M 894 278v 28h 14a 14 14, 0, 0, 0, 0 -28" transform="rotate(90,908,292)"/><path d="M 950 278v 28h 14a 14 14, 0, 0, 0, 0 -28" transform="rotate(90,964,292)"/><path d="M 1006 278v 28h 14a 14 14, 0, 0, 0, 0 -28" transform="rotate(180,1020,292)"/><rect x="1034" y="278" width="28" height="28" transform="rotate(0,1048,292)"/><rect x="110" y="306" width="28" height="28" transform="rotate(0,124,320)"/><path d="M 166 306v 28h 28v -14a 14 14, 0, 0, 0, -14 -14" transform="rotate(180,180,320)"/><path d="M 194 306v 28h 14a 14 14, 0, 0, 0, 0 -28" transform="rotate(0,208,320)"/><rect x="306" y="306" width="28" height="28" transform="rotate(0,320,320)"/><rect x="334" y="306" width="28" height="28" transform="rotate(0,348,320)"/><rect x="362" y="306" width="28" height="28" transform="rotate(0,376,320)"/><path d="M 418 306v 28h 14a 14 14, 0, 0, 0, 0 -28" transform="rotate(90,432,320)"/><circle cx="488" cy="320" r="14" transform="rotate(0,488,320)"/><circle cx="572" cy="320" r="14" transform="rotate(0,572,320)"/><path d="M 670 306v 28h 14a 14 14, 0, 0, 0, 0 -28" transform="rotate(180,684,320)"/><path d="M 698 306v 28h 28v -14a 14 14, 0, 0, 0, -14 -14" transform="rotate(0,712,320)"/><path d="M 782 306v 28h 28v -14a 14 14, 0, 0, 0, -14 -14" transform="rotate(180,796,320)"/><path d="M 810 306v 28h 14a 14 14, 0, 0, 0, 0 -28" transform="rotate(0,824,320)"/><path d="M 866 306v 28h 14a 14 14, 0, 0, 0, 0 -28" transform="rotate(-90,880,320)"/><rect x="1034" y="306" width="28" height="28" transform="rotate(0,1048,320)"/><circle cx="1104" cy="320" r="14" transform="rotate(0,1104,320)"/><path d="M 26 334v 28h 28v -14a 14 14, 0, 0, 0, -14 -14" transform="rotate(-90,40,348)"/><rect x="54" y="334" width="28" height="28" transform="rotate(0,68,348)"/><rect x="82" y="334" width="28" height="28" transform="rotate(0,96,348)"/><path d="M 110 334v 28h 28v -14a 14 14, 0, 0, 0, -14 -14" transform="rotate(90,124,348)"/><path d="M 278 334v 28h 28v -14a 14 14, 0, 0, 0, -14 -14" transform="rotate(-90,292,348)"/><path d="M 306 334v 28h 28v -14a 14 14, 0, 0, 0, -14 -14" transform="rotate(90,320,348)"/><path d="M 362 334v 28h 14a 14 14, 0, 0, 0, 0 -28" transform="rotate(90,376,348)"/><circle cx="544" cy="348" r="14" transform="rotate(0,544,348)"/><rect x="698" y="334" width="28" height="28" transform="rotate(0,712,348)"/><path d="M 838 334v 28h 14a 14 14, 0, 0, 0, 0 -28" transform="rotate(180,852,348)"/><rect x="866" y="334" width="28" height="28" transform="rotate(0,880,348)"/><rect x="894" y="334" width="28" height="28" transform="rotate(0,908,348)"/><rect x="922" y="334" width="28" height="28" transform="rotate(0,936,348)"/><rect x="950" y="334" width="28" height="28" transform="rotate(0,964,348)"/><rect x="978" y="334" width="28" height="28" transform="rotate(0,992,348)"/><rect x="1006" y="334" width="28" height="28" transform="rotate(0,1020,348)"/><rect x="1034" y="334" width="28" height="28" transform="rotate(0,1048,348)"/><path d="M 1062 334v 28h 14a 14 14, 0, 0, 0, 0 -28" transform="rotate(0,1076,348)"/><path d="M 1118 334v 28h 14a 14 14, 0, 0, 0, 0 -28" transform="rotate(180,1132,348)"/><path d="M 1146 334v 28h 14a 14 14, 0, 0, 0, 0 -28" transform="rotate(0,1160,348)"/><path d="M 26 362v 28h 14a 14 14, 0, 0, 0, 0 -28" transform="rotate(90,40,376)"/><rect x="82" y="362" width="28" height="28" transform="rotate(0,96,376)"/><circle cx="208" cy="376" r="14" transform="rotate(0,208,376)"/><path d="M 250 362v 28h 14a 14 14, 0, 0, 0, 0 -28" transform="rotate(180,264,376)"/><path d="M 278 362v 28h 28v -14a 14 14, 0, 0, 0, -14 -14" transform="rotate(90,292,376)"/><circle cx="348" cy="376" r="14" transform="rotate(0,348,376)"/><circle cx="404" cy="376" r="14" transform="rotate(0,404,376)"/><path d="M 446 362v 28h 14a 14 14, 0, 0, 0, 0 -28" transform="rotate(180,460,376)"/><path d="M 474 362v 28h 28v -14a 14 14, 0, 0, 0, -14 -14" transform="rotate(0,488,376)"/><path d="M 558 362v 28h 28v -14a 14 14, 0, 0, 0, -14 -14" transform="rotate(-90,572,376)"/><rect x="586" y="362" width="28" height="28" transform="rotate(0,600,376)"/><rect x="614" y="362" width="28" height="28" transform="rotate(0,628,376)"/><rect x="642" y="362" width="28" height="28" transform="rotate(0,656,376)"/><rect x="670" y="362" width="28" height="28" transform="rotate(0,684,376)"/><path d="M 698 362v 28h 28v -14a 14 14, 0, 0, 0, -14 -14" transform="rotate(90,712,376)"/><path d="M 754 362v 28h 28v -14a 14 14, 0, 0, 0, -14 -14" transform="rotate(-90,768,376)"/><path d="M 782 362v 28h 14a 14 14, 0, 0, 0, 0 -28" transform="rotate(0,796,376)"/><path d="M 922 362v 28h 14a 14 14, 0, 0, 0, 0 -28" transform="rotate(90,936,376)"/><rect x="978" y="362" width="28" height="28" transform="rotate(0,992,376)"/><rect x="1006" y="362" width="28" height="28" transform="rotate(0,1020,376)"/><path d="M 54 390v 28h 14a 14 14, 0, 0, 0, 0 -28" transform="rotate(180,68,404)"/><rect x="82" y="390" width="28" height="28" transform="rotate(0,96,404)"/><path d="M 110 390v 28h 14a 14 14, 0, 0, 0, 0 -28" transform="rotate(0,124,404)"/><circle cx="376" cy="404" r="14" transform="rotate(0,376,404)"/><rect x="474" y="390" width="28" height="28" transform="rotate(0,488,404)"/><path d="M 558 390v 28h 14a 14 14, 0, 0, 0, 0 -28" transform="rotate(90,572,404)"/><path d="M 642 390v 28h 14a 14 14, 0, 0, 0, 0 -28" transform="rotate(90,656,404)"/><path d="M 754 390v 28h 14a 14 14, 0, 0, 0, 0 -28" transform="rotate(90,768,404)"/><circle cx="852" cy="404" r="14" transform="rotate(0,852,404)"/><circle cx="908" cy="404" r="14" transform="rotate(0,908,404)"/><path d="M 950 390v 28h 28v -14a 14 14, 0, 0, 0, -14 -14" transform="rotate(-90,964,404)"/><rect x="978" y="390" width="28" height="28" transform="rotate(0,992,404)"/><rect x="1006" y="390" width="28" height="28" transform="rotate(0,1020,404)"/><rect x="1034" y="390" width="28" height="28" transform="rotate(0,1048,404)"/><rect x="1062" y="390" width="28" height="28" transform="rotate(0,1076,404)"/><path d="M 1090 390v 28h 28v -14a 14 14, 0, 0, 0, -14 -14" transform="rotate(0,1104,404)"/><path d="M 1146 390v 28h 14a 14 14, 0, 0, 0, 0 -28" transform="rotate(-90,1160,404)"/><rect x="82" y="418" width="28" height="28" transform="rotate(0,96,432)"/><circle cx="152" cy="432" r="14" transform="rotate(0,152,432)"/><path d="M 194 418v 28h 14a 14 14, 0, 0, 0, 0 -28" transform="rotate(180,208,432)"/><rect x="222" y="418" width="28" height="28" transform="rotate(0,236,432)"/><rect x="250" y="418" width="28" height="28" transform="rotate(0,264,432)"/><path d="M 278 418v 28h 14a 14 14, 0, 0, 0, 0 -28" transform="rotate(0,292,432)"/><circle cx="348" cy="432" r="14" transform="rotate(0,348,432)"/><path d="M 474 418v 28h 14a 14 14, 0, 0, 0, 0 -28" transform="rotate(90,488,432)"/><circle cx="544" cy="432" r="14" transform="rotate(0,544,432)"/><path d="M 586 418v 28h 14a 14 14, 0, 0, 0, 0 -28" transform="rotate(180,600,432)"/><path d="M 614 418v 28h 28v -14a 14 14, 0, 0, 0, -14 -14" transform="rotate(0,628,432)"/><path d="M 670 418v 28h 28v -14a 14 14, 0, 0, 0, -14 -14" transform="rotate(-90,684,432)"/><rect x="698" y="418" width="28" height="28" transform="rotate(0,712,432)"/><path d="M 726 418v 28h 14a 14 14, 0, 0, 0, 0 -28" transform="rotate(0,740,432)"/><circle cx="796" cy="432" r="14" transform="rotate(0,796,432)"/><circle cx="880" cy="432" r="14" transform="rotate(0,880,432)"/><rect x="950" y="418" width="28" height="28" transform="rotate(0,964,432)"/><rect x="978" y="418" width="28" height="28" transform="rotate(0,992,432)"/><rect x="1006" y="418" width="28" height="28" transform="rotate(0,1020,432)"/><rect x="1090" y="418" width="28" height="28" transform="rotate(0,1104,432)"/><rect x="1146" y="418" width="28" height="28" transform="rotate(0,1160,432)"/><path d="M 26 446v 28h 14a 14 14, 0, 0, 0, 0 -28" transform="rotate(-90,40,460)"/><rect x="82" y="446" width="28" height="28" transform="rotate(0,96,460)"/><path d="M 110 446v 28h 14a 14 14, 0, 0, 0, 0 -28" transform="rotate(0,124,460)"/><circle cx="180" cy="460" r="14" transform="rotate(0,180,460)"/><circle cx="460" cy="460" r="14" transform="rotate(0,460,460)"/><circle cx="516" cy="460" r="14" transform="rotate(0,516,460)"/><path d="M 558 446v 28h 14a 14 14, 0, 0, 0, 0 -28" transform="rotate(-90,572,460)"/><path d="M 614 446v 28h 28v -14a 14 14, 0, 0, 0, -14 -14" transform="rotate(180,628,460)"/><rect x="642" y="446" width="28" height="28" transform="rotate(0,656,460)"/><path d="M 670 446v 28h 28v -14a 14 14, 0, 0, 0, -14 -14" transform="rotate(90,684,460)"/><circle cx="824" cy="460" r="14" transform="rotate(0,824,460)"/><path d="M 894 446v 28h 14a 14 14, 0, 0, 0, 0 -28" transform="rotate(-90,908,460)"/><rect x="950" y="446" width="28" height="28" transform="rotate(0,964,460)"/><path d="M 1006 446v 28h 14a 14 14, 0, 0, 0, 0 -28" transform="rotate(90,1020,460)"/><path d="M 1062 446v 28h 14a 14 14, 0, 0, 0, 0 -28" transform="rotate(180,1076,460)"/><path d="M 1090 446v 28h 28v -14a 14 14, 0, 0, 0, -14 -14" transform="rotate(90,1104,460)"/><path d="M 1146 446v 28h 14a 14 14, 0, 0, 0, 0 -28" transform="rotate(90,1160,460)"/><rect x="26" y="474" width="28" height="28" transform="rotate(0,40,488)"/><path d="M 82 474v 28h 14a 14 14, 0, 0, 0, 0 -28" transform="rotate(90,96,488)"/><circle cx="208" cy="488" r="14" transform="rotate(0,208,488)"/><rect x="558" y="474" width="28" height="28" transform="rotate(0,572,488)"/><path d="M 586 474v 28h 28v -14a 14 14, 0, 0, 0, -14 -14" transform="rotate(0,600,488)"/><rect x="642" y="474" width="28" height="28" transform="rotate(0,656,488)"/><path d="M 698 474v 28h 14a 14 14, 0, 0, 0, 0 -28" transform="rotate(180,712,488)"/><path d="M 726 474v 28h 14a 14 14, 0, 0, 0, 0 -28" transform="rotate(0,740,488)"/><path d="M 782 474v 28h 14a 14 14, 0, 0, 0, 0 -28" transform="rotate(-90,796,488)"/><rect x="894" y="474" width="28" height="28" transform="rotate(0,908,488)"/><rect x="950" y="474" width="28" height="28" transform="rotate(0,964,488)"/><path d="M 26 502v 28h 28v -14a 14 14, 0, 0, 0, -14 -14" transform="rotate(180,40,516)"/><path d="M 54 502v 28h 28v -14a 14 14, 0, 0, 0, -14 -14" transform="rotate(0,68,516)"/><path d="M 250 502v 28h 14a 14 14, 0, 0, 0, 0 -28" transform="rotate(-90,264,516)"/><path d="M 334 502v 28h 14a 14 14, 0, 0, 0, 0 -28" transform="rotate(180,348,516)"/><rect x="362" y="502" width="28" height="28" transform="rotate(0,376,516)"/><rect x="390" y="502" width="28" height="28" transform="rotate(0,404,516)"/><path d="M 418 502v 28h 28v -14a 14 14, 0, 0, 0, -14 -14" transform="rotate(0,432,516)"/><path d="M 502 502v 28h 14a 14 14, 0, 0, 0, 0 -28" transform="rotate(180,516,516)"/><rect x="530" y="502" width="28" height="28" transform="rotate(0,544,516)"/><rect x="558" y="502" width="28" height="28" transform="rotate(0,572,516)"/><path d="M 586 502v 28h 28v -14a 14 14, 0, 0, 0, -14 -14" transform="rotate(90,600,516)"/><rect x="642" y="502" width="28" height="28" transform="rotate(0,656,516)"/><rect x="782" y="502" width="28" height="28" transform="rotate(0,796,516)"/><path d="M 866 502v 28h 14a 14 14, 0, 0, 0, 0 -28" transform="rotate(180,880,516)"/><rect x="894" y="502" width="28" height="28" transform="rotate(0,908,516)"/><rect x="922" y="502" width="28" height="28" transform="rotate(0,936,516)"/><rect x="950" y="502" width="28" height="28" transform="rotate(0,964,516)"/><path d="M 1034 502v 28h 14a 14 14, 0, 0, 0, 0 -28" transform="rotate(-90,1048,516)"/><path d="M 1090 502v 28h 14a 14 14, 0, 0, 0, 0 -28" transform="rotate(-90,1104,516)"/><rect x="54" y="530" width="28" height="28" transform="rotate(0,68,544)"/><rect x="82" y="530" width="28" height="28" transform="rotate(0,96,544)"/><rect x="110" y="530" width="28" height="28" transform="rotate(0,124,544)"/><path d="M 138 530v 28h 28v -14a 14 14, 0, 0, 0, -14 -14" transform="rotate(0,152,544)"/><circle cx="208" cy="544" r="14" transform="rotate(0,208,544)"/><rect x="250" y="530" width="28" height="28" transform="rotate(0,264,544)"/><rect x="278" y="530" width="28" height="28" transform="rotate(0,292,544)"/><path d="M 306 530v 28h 14a 14 14, 0, 0, 0, 0 -28" transform="rotate(0,320,544)"/><path d="M 390 530v 28h 28v -14a 14 14, 0, 0, 0, -14 -14" transform="rotate(180,404,544)"/><rect x="418" y="530" width="28" height="28" transform="rotate(0,432,544)"/><path d="M 446 530v 28h 28v -14a 14 14, 0, 0, 0, -14 -14" transform="rotate(0,460,544)"/><path d="M 558 530v 28h 14a 14 14, 0, 0, 0, 0 -28" transform="rotate(90,572,544)"/><path d="M 614 530v 28h 28v -14a 14 14, 0, 0, 0, -14 -14" transform="rotate(-90,628,544)"/><rect x="642" y="530" width="28" height="28" transform="rotate(0,656,544)"/><rect x="670" y="530" width="28" height="28" transform="rotate(0,684,544)"/><rect x="698" y="530" width="28" height="28" transform="rotate(0,712,544)"/><rect x="726" y="530" width="28" height="28" transform="rotate(0,740,544)"/><rect x="754" y="530" width="28" height="28" transform="rotate(0,768,544)"/><rect x="782" y="530" width="28" height="28" transform="rotate(0,796,544)"/><path d="M 810 530v 28h 28v -14a 14 14, 0, 0, 0, -14 -14" transform="rotate(0,824,544)"/><rect x="894" y="530" width="28" height="28" transform="rotate(0,908,544)"/><rect x="950" y="530" width="28" height="28" transform="rotate(0,964,544)"/><path d="M 1006 530v 28h 14a 14 14, 0, 0, 0, 0 -28" transform="rotate(180,1020,544)"/><rect x="1034" y="530" width="28" height="28" transform="rotate(0,1048,544)"/><rect x="1062" y="530" width="28" height="28" transform="rotate(0,1076,544)"/><rect x="1090" y="530" width="28" height="28" transform="rotate(0,1104,544)"/><path d="M 1146 530v 28h 14a 14 14, 0, 0, 0, 0 -28" transform="rotate(-90,1160,544)"/><path d="M 26 558v 28h 14a 14 14, 0, 0, 0, 0 -28" transform="rotate(180,40,572)"/><rect x="54" y="558" width="28" height="28" transform="rotate(0,68,572)"/><rect x="82" y="558" width="28" height="28" transform="rotate(0,96,572)"/><path d="M 138 558v 28h 14a 14 14, 0, 0, 0, 0 -28" transform="rotate(90,152,572)"/><rect x="250" y="558" width="28" height="28" transform="rotate(0,264,572)"/><rect x="418" y="558" width="28" height="28" transform="rotate(0,432,572)"/><rect x="446" y="558" width="28" height="28" transform="rotate(0,460,572)"/><rect x="474" y="558" width="28" height="28" transform="rotate(0,488,572)"/><path d="M 502 558v 28h 14a 14 14, 0, 0, 0, 0 -28" transform="rotate(0,516,572)"/><path d="M 614 558v 28h 28v -14a 14 14, 0, 0, 0, -14 -14" transform="rotate(180,628,572)"/><rect x="642" y="558" width="28" height="28" transform="rotate(0,656,572)"/><rect x="670" y="558" width="28" height="28" transform="rotate(0,684,572)"/><rect x="698" y="558" width="28" height="28" transform="rotate(0,712,572)"/><rect x="726" y="558" width="28" height="28" transform="rotate(0,740,572)"/><path d="M 810 558v 28h 28v -14a 14 14, 0, 0, 0, -14 -14" transform="rotate(180,824,572)"/><rect x="838" y="558" width="28" height="28" transform="rotate(0,852,572)"/><rect x="866" y="558" width="28" height="28" transform="rotate(0,880,572)"/><path d="M 894 558v 28h 28v -14a 14 14, 0, 0, 0, -14 -14" transform="rotate(90,908,572)"/><path d="M 950 558v 28h 14a 14 14, 0, 0, 0, 0 -28" transform="rotate(90,964,572)"/><path d="M 1034 558v 28h 28v -14a 14 14, 0, 0, 0, -14 -14" transform="rotate(180,1048,572)"/><rect x="1062" y="558" width="28" height="28" transform="rotate(0,1076,572)"/><rect x="1090" y="558" width="28" height="28" transform="rotate(0,1104,572)"/><path d="M 1146 558v 28h 14a 14 14, 0, 0, 0, 0 -28" transform="rotate(90,1160,572)"/><path d="M 82 586v 28h 28v -14a 14 14, 0, 0, 0, -14 -14" transform="rotate(180,96,600)"/><path d="M 110 586v 28h 14a 14 14, 0, 0, 0, 0 -28" transform="rotate(0,124,600)"/><path d="M 166 586v 28h 14a 14 14, 0, 0, 0, 0 -28" transform="rotate(180,180,600)"/><path d="M 194 586v 28h 14a 14 14, 0, 0, 0, 0 -28" transform="rotate(0,208,600)"/><path d="M 250 586v 28h 28v -14a 14 14, 0, 0, 0, -14 -14" transform="rotate(180,264,600)"/><path d="M 278 586v 28h 28v -14a 14 14, 0, 0, 0, -14 -14" transform="rotate(0,292,600)"/><path d="M 362 586v 28h 28v -14a 14 14, 0, 0, 0, -14 -14" transform="rotate(-90,376,600)"/><rect x="390" y="586" width="28" height="28" transform="rotate(0,404,600)"/><rect x="418" y="586" width="28" height="28" transform="rotate(0,432,600)"/><rect x="446" y="586" width="28" height="28" transform="rotate(0,460,600)"/><path d="M 474 586v 28h 28v -14a 14 14, 0, 0, 0, -14 -14" transform="rotate(90,488,600)"/><circle cx="544" cy="600" r="14" transform="rotate(0,544,600)"/><path d="M 586 586v 28h 14a 14 14, 0, 0, 0, 0 -28" transform="rotate(-90,600,600)"/><path d="M 642 586v 28h 14a 14 14, 0, 0, 0, 0 -28" transform="rotate(90,656,600)"/><path d="M 726 586v 28h 14a 14 14, 0, 0, 0, 0 -28" transform="rotate(90,740,600)"/><path d="M 978 586v 28h 14a 14 14, 0, 0, 0, 0 -28" transform="rotate(180,992,600)"/><path d="M 1006 586v 28h 28v -14a 14 14, 0, 0, 0, -14 -14" transform="rotate(0,1020,600)"/><rect x="1062" y="586" width="28" height="28" transform="rotate(0,1076,600)"/><rect x="1090" y="586" width="28" height="28" transform="rotate(0,1104,600)"/><circle cx="40" cy="628" r="14" transform="rotate(0,40,628)"/><circle cx="236" cy="628" r="14" transform="rotate(0,236,628)"/><rect x="278" y="614" width="28" height="28" transform="rotate(0,292,628)"/><path d="M 334 614v 28h 28v -14a 14 14, 0, 0, 0, -14 -14" transform="rotate(-90,348,628)"/><rect x="362" y="614" width="28" height="28" transform="rotate(0,376,628)"/><rect x="390" y="614" width="28" height="28" transform="rotate(0,404,628)"/><rect x="418" y="614" width="28" height="28" transform="rotate(0,432,628)"/><path d="M 446 614v 28h 28v -14a 14 14, 0, 0, 0, -14 -14" transform="rotate(90,460,628)"/><rect x="586" y="614" width="28" height="28" transform="rotate(0,600,628)"/><path d="M 670 614v 28h 14a 14 14, 0, 0, 0, 0 -28" transform="rotate(-90,684,628)"/><path d="M 782 614v 28h 14a 14 14, 0, 0, 0, 0 -28" transform="rotate(-90,796,628)"/><path d="M 866 614v 28h 14a 14 14, 0, 0, 0, 0 -28" transform="rotate(180,880,628)"/><path d="M 894 614v 28h 14a 14 14, 0, 0, 0, 0 -28" transform="rotate(0,908,628)"/><rect x="1006" y="614" width="28" height="28" transform="rotate(0,1020,628)"/><rect x="1034" y="614" width="28" height="28" transform="rotate(0,1048,628)"/><rect x="1062" y="614" width="28" height="28" transform="rotate(0,1076,628)"/><rect x="1090" y="614" width="28" height="28" transform="rotate(0,1104,628)"/><circle cx="96" cy="656" r="14" transform="rotate(0,96,656)"/><path d="M 138 642v 28h 28v -14a 14 14, 0, 0, 0, -14 -14" transform="rotate(-90,152,656)"/><rect x="166" y="642" width="28" height="28" transform="rotate(0,180,656)"/><path d="M 194 642v 28h 14a 14 14, 0, 0, 0, 0 -28" transform="rotate(0,208,656)"/><path d="M 250 642v 28h 14a 14 14, 0, 0, 0, 0 -28" transform="rotate(180,264,656)"/><rect x="278" y="642" width="28" height="28" transform="rotate(0,292,656)"/><rect x="306" y="642" width="28" height="28" transform="rotate(0,320,656)"/><path d="M 334 642v 28h 28v -14a 14 14, 0, 0, 0, -14 -14" transform="rotate(90,348,656)"/><path d="M 390 642v 28h 14a 14 14, 0, 0, 0, 0 -28" transform="rotate(90,404,656)"/><path d="M 502 642v 28h 14a 14 14, 0, 0, 0, 0 -28" transform="rotate(180,516,656)"/><path d="M 530 642v 28h 28v -14a 14 14, 0, 0, 0, -14 -14" transform="rotate(0,544,656)"/><path d="M 586 642v 28h 28v -14a 14 14, 0, 0, 0, -14 -14" transform="rotate(180,600,656)"/><path d="M 614 642v 28h 14a 14 14, 0, 0, 0, 0 -28" transform="rotate(0,628,656)"/><path d="M 670 642v 28h 14a 14 14, 0, 0, 0, 0 -28" transform="rotate(90,684,656)"/><path d="M 782 642v 28h 28v -14a 14 14, 0, 0, 0, -14 -14" transform="rotate(180,796,656)"/><rect x="810" y="642" width="28" height="28" transform="rotate(0,824,656)"/><path d="M 838 642v 28h 28v -14a 14 14, 0, 0, 0, -14 -14" transform="rotate(0,852,656)"/><circle cx="964" cy="656" r="14" transform="rotate(0,964,656)"/><path d="M 1006 642v 28h 28v -14a 14 14, 0, 0, 0, -14 -14" transform="rotate(180,1020,656)"/><path d="M 1034 642v 28h 28v -14a 14 14, 0, 0, 0, -14 -14" transform="rotate(90,1048,656)"/><path d="M 1090 642v 28h 14a 14 14, 0, 0, 0, 0 -28" transform="rotate(90,1104,656)"/><circle cx="40" cy="684" r="14" transform="rotate(0,40,684)"/><path d="M 110 670v 28h 14a 14 14, 0, 0, 0, 0 -28" transform="rotate(180,124,684)"/><rect x="138" y="670" width="28" height="28" transform="rotate(0,152,684)"/><rect x="166" y="670" width="28" height="28" transform="rotate(0,180,684)"/><path d="M 222 670v 28h 14a 14 14, 0, 0, 0, 0 -28" transform="rotate(-90,236,684)"/><rect x="278" y="670" width="28" height="28" transform="rotate(0,292,684)"/><path d="M 306 670v 28h 28v -14a 14 14, 0, 0, 0, -14 -14" transform="rotate(90,320,684)"/><path d="M 362 670v 28h 14a 14 14, 0, 0, 0, 0 -28" transform="rotate(-90,376,684)"/><path d="M 446 670v 28h 14a 14 14, 0, 0, 0, 0 -28" transform="rotate(-90,460,684)"/><path d="M 530 670v 28h 28v -14a 14 14, 0, 0, 0, -14 -14" transform="rotate(180,544,684)"/><path d="M 558 670v 28h 28v -14a 14 14, 0, 0, 0, -14 -14" transform="rotate(0,572,684)"/><circle cx="656" cy="684" r="14" transform="rotate(0,656,684)"/><circle cx="768" cy="684" r="14" transform="rotate(0,768,684)"/><path d="M 810 670v 28h 28v -14a 14 14, 0, 0, 0, -14 -14" transform="rotate(180,824,684)"/><path d="M 838 670v 28h 28v -14a 14 14, 0, 0, 0, -14 -14" transform="rotate(90,852,684)"/><path d="M 894 670v 28h 14a 14 14, 0, 0, 0, 0 -28" transform="rotate(-90,908,684)"/><path d="M 1062 670v 28h 14a 14 14, 0, 0, 0, 0 -28" transform="rotate(-90,1076,684)"/><circle cx="1132" cy="684" r="14" transform="rotate(0,1132,684)"/><rect x="166" y="698" width="28" height="28" transform="rotate(0,180,712)"/><rect x="194" y="698" width="28" height="28" transform="rotate(0,208,712)"/><rect x="222" y="698" width="28" height="28" transform="rotate(0,236,712)"/><path d="M 278 698v 28h 14a 14 14, 0, 0, 0, 0 -28" transform="rotate(90,292,712)"/><path d="M 362 698v 28h 14a 14 14, 0, 0, 0, 0 -28" transform="rotate(90,376,712)"/><path d="M 418 698v 28h 28v -14a 14 14, 0, 0, 0, -14 -14" transform="rotate(-90,432,712)"/><rect x="446" y="698" width="28" height="28" transform="rotate(0,460,712)"/><path d="M 474 698v 28h 14a 14 14, 0, 0, 0, 0 -28" transform="rotate(0,488,712)"/><path d="M 558 698v 28h 28v -14a 14 14, 0, 0, 0, -14 -14" transform="rotate(180,572,712)"/><path d="M 586 698v 28h 28v -14a 14 14, 0, 0, 0, -14 -14" transform="rotate(0,600,712)"/><path d="M 782 698v 28h 14a 14 14, 0, 0, 0, 0 -28" transform="rotate(-90,796,712)"/><path d="M 894 698v 28h 28v -14a 14 14, 0, 0, 0, -14 -14" transform="rotate(180,908,712)"/><path d="M 922 698v 28h 28v -14a 14 14, 0, 0, 0, -14 -14" transform="rotate(0,936,712)"/><path d="M 978 698v 28h 28v -14a 14 14, 0, 0, 0, -14 -14" transform="rotate(-90,992,712)"/><path d="M 1006 698v 28h 28v -14a 14 14, 0, 0, 0, -14 -14" transform="rotate(0,1020,712)"/><path d="M 1062 698v 28h 14a 14 14, 0, 0, 0, 0 -28" transform="rotate(90,1076,712)"/><path d="M 110 726v 28h 28v -14a 14 14, 0, 0, 0, -14 -14" transform="rotate(-90,124,740)"/><rect x="138" y="726" width="28" height="28" transform="rotate(0,152,740)"/><path d="M 166 726v 28h 28v -14a 14 14, 0, 0, 0, -14 -14" transform="rotate(90,180,740)"/><rect x="222" y="726" width="28" height="28" transform="rotate(0,236,740)"/><path d="M 250 726v 28h 14a 14 14, 0, 0, 0, 0 -28" transform="rotate(0,264,740)"/><circle cx="320" cy="740" r="14" transform="rotate(0,320,740)"/><path d="M 418 726v 28h 28v -14a 14 14, 0, 0, 0, -14 -14" transform="rotate(180,432,740)"/><path d="M 446 726v 28h 28v -14a 14 14, 0, 0, 0, -14 -14" transform="rotate(90,460,740)"/><circle cx="544" cy="740" r="14" transform="rotate(0,544,740)"/><path d="M 586 726v 28h 28v -14a 14 14, 0, 0, 0, -14 -14" transform="rotate(180,600,740)"/><rect x="614" y="726" width="28" height="28" transform="rotate(0,628,740)"/><rect x="642" y="726" width="28" height="28" transform="rotate(0,656,740)"/><path d="M 670 726v 28h 14a 14 14, 0, 0, 0, 0 -28" transform="rotate(0,684,740)"/><path d="M 754 726v 28h 28v -14a 14 14, 0, 0, 0, -14 -14" transform="rotate(-90,768,740)"/><rect x="782" y="726" width="28" height="28" transform="rotate(0,796,740)"/><path d="M 810 726v 28h 28v -14a 14 14, 0, 0, 0, -14 -14" transform="rotate(0,824,740)"/><circle cx="880" cy="740" r="14" transform="rotate(0,880,740)"/><rect x="922" y="726" width="28" height="28" transform="rotate(0,936,740)"/><path d="M 978 726v 28h 28v -14a 14 14, 0, 0, 0, -14 -14" transform="rotate(180,992,740)"/><rect x="1006" y="726" width="28" height="28" transform="rotate(0,1020,740)"/><path d="M 1034 726v 28h 28v -14a 14 14, 0, 0, 0, -14 -14" transform="rotate(0,1048,740)"/><circle cx="1104" cy="740" r="14" transform="rotate(0,1104,740)"/><path d="M 1146 726v 28h 14a 14 14, 0, 0, 0, 0 -28" transform="rotate(-90,1160,740)"/><path d="M 26 754v 28h 14a 14 14, 0, 0, 0, 0 -28" transform="rotate(-90,40,768)"/><path d="M 110 754v 28h 14a 14 14, 0, 0, 0, 0 -28" transform="rotate(90,124,768)"/><path d="M 194 754v 28h 14a 14 14, 0, 0, 0, 0 -28" transform="rotate(180,208,768)"/><rect x="222" y="754" width="28" height="28" transform="rotate(0,236,768)"/><circle cx="488" cy="768" r="14" transform="rotate(0,488,768)"/><circle cx="572" cy="768" r="14" transform="rotate(0,572,768)"/><path d="M 642 754v 28h 14a 14 14, 0, 0, 0, 0 -28" transform="rotate(90,656,768)"/><path d="M 698 754v 28h 14a 14 14, 0, 0, 0, 0 -28" transform="rotate(180,712,768)"/><rect x="726" y="754" width="28" height="28" transform="rotate(0,740,768)"/><rect x="754" y="754" width="28" height="28" transform="rotate(0,768,768)"/><rect x="782" y="754" width="28" height="28" transform="rotate(0,796,768)"/><path d="M 810 754v 28h 28v -14a 14 14, 0, 0, 0, -14 -14" transform="rotate(90,824,768)"/><path d="M 894 754v 28h 28v -14a 14 14, 0, 0, 0, -14 -14" transform="rotate(-90,908,768)"/><rect x="922" y="754" width="28" height="28" transform="rotate(0,936,768)"/><path d="M 950 754v 28h 14a 14 14, 0, 0, 0, 0 -28" transform="rotate(0,964,768)"/><rect x="1034" y="754" width="28" height="28" transform="rotate(0,1048,768)"/><path d="M 1062 754v 28h 28v -14a 14 14, 0, 0, 0, -14 -14" transform="rotate(0,1076,768)"/><path d="M 1118 754v 28h 28v -14a 14 14, 0, 0, 0, -14 -14" transform="rotate(-90,1132,768)"/><rect x="1146" y="754" width="28" height="28" transform="rotate(0,1160,768)"/><rect x="26" y="782" width="28" height="28" transform="rotate(0,40,796)"/><rect x="54" y="782" width="28" height="28" transform="rotate(0,68,796)"/><path d="M 82 782v 28h 14a 14 14, 0, 0, 0, 0 -28" transform="rotate(0,96,796)"/><path d="M 222 782v 28h 14a 14 14, 0, 0, 0, 0 -28" transform="rotate(90,236,796)"/><circle cx="320" cy="796" r="14" transform="rotate(0,320,796)"/><path d="M 390 782v 28h 14a 14 14, 0, 0, 0, 0 -28" transform="rotate(-90,404,796)"/><path d="M 530 782v 28h 14a 14 14, 0, 0, 0, 0 -28" transform="rotate(-90,544,796)"/><path d="M 586 782v 28h 14a 14 14, 0, 0, 0, 0 -28" transform="rotate(180,600,796)"/><path d="M 614 782v 28h 14a 14 14, 0, 0, 0, 0 -28" transform="rotate(0,628,796)"/><path d="M 866 782v 28h 14a 14 14, 0, 0, 0, 0 -28" transform="rotate(180,880,796)"/><rect x="894" y="782" width="28" height="28" transform="rotate(0,908,796)"/><circle cx="992" cy="796" r="14" transform="rotate(0,992,796)"/><path d="M 1034 782v 28h 28v -14a 14 14, 0, 0, 0, -14 -14" transform="rotate(180,1048,796)"/><rect x="1062" y="782" width="28" height="28" transform="rotate(0,1076,796)"/><rect x="1090" y="782" width="28" height="28" transform="rotate(0,1104,796)"/><rect x="1118" y="782" width="28" height="28" transform="rotate(0,1132,796)"/><path d="M 1146 782v 28h 28v -14a 14 14, 0, 0, 0, -14 -14" transform="rotate(90,1160,796)"/><rect x="26" y="810" width="28" height="28" transform="rotate(0,40,824)"/><circle cx="124" cy="824" r="14" transform="rotate(0,124,824)"/><circle cx="208" cy="824" r="14" transform="rotate(0,208,824)"/><path d="M 362 810v 28h 28v -14a 14 14, 0, 0, 0, -14 -14" transform="rotate(-90,376,824)"/><rect x="390" y="810" width="28" height="28" transform="rotate(0,404,824)"/><path d="M 418 810v 28h 14a 14 14, 0, 0, 0, 0 -28" transform="rotate(0,432,824)"/><path d="M 474 810v 28h 28v -14a 14 14, 0, 0, 0, -14 -14" transform="rotate(-90,488,824)"/><rect x="502" y="810" width="28" height="28" transform="rotate(0,516,824)"/><path d="M 530 810v 28h 28v -14a 14 14, 0, 0, 0, -14 -14" transform="rotate(90,544,824)"/><circle cx="740" cy="824" r="14" transform="rotate(0,740,824)"/><circle cx="796" cy="824" r="14" transform="rotate(0,796,824)"/><path d="M 894 810v 28h 28v -14a 14 14, 0, 0, 0, -14 -14" transform="rotate(180,908,824)"/><path d="M 922 810v 28h 14a 14 14, 0, 0, 0, 0 -28" transform="rotate(0,936,824)"/><path d="M 1006 810v 28h 14a 14 14, 0, 0, 0, 0 -28" transform="rotate(-90,1020,824)"/><rect x="1062" y="810" width="28" height="28" transform="rotate(0,1076,824)"/><rect x="26" y="838" width="28" height="28" transform="rotate(0,40,852)"/><path d="M 138 838v 28h 14a 14 14, 0, 0, 0, 0 -28" transform="rotate(-90,152,852)"/><path d="M 250 838v 28h 14a 14 14, 0, 0, 0, 0 -28" transform="rotate(-90,264,852)"/><rect x="362" y="838" width="28" height="28" transform="rotate(0,376,852)"/><path d="M 446 838v 28h 14a 14 14, 0, 0, 0, 0 -28" transform="rotate(180,460,852)"/><rect x="474" y="838" width="28" height="28" transform="rotate(0,488,852)"/><rect x="502" y="838" width="28" height="28" transform="rotate(0,516,852)"/><circle cx="572" cy="852" r="14" transform="rotate(0,572,852)"/><path d="M 614 838v 28h 14a 14 14, 0, 0, 0, 0 -28" transform="rotate(180,628,852)"/><rect x="642" y="838" width="28" height="28" transform="rotate(0,656,852)"/><rect x="670" y="838" width="28" height="28" transform="rotate(0,684,852)"/><path d="M 698 838v 28h 14a 14 14, 0, 0, 0, 0 -28" transform="rotate(0,712,852)"/><circle cx="768" cy="852" r="14" transform="rotate(0,768,852)"/><circle cx="880" cy="852" r="14" transform="rotate(0,880,852)"/><path d="M 1006 838v 28h 28v -14a 14 14, 0, 0, 0, -14 -14" transform="rotate(180,1020,852)"/><rect x="1034" y="838" width="28" height="28" transform="rotate(0,1048,852)"/><rect x="1062" y="838" width="28" height="28" transform="rotate(0,1076,852)"/><rect x="1090" y="838" width="28" height="28" transform="rotate(0,1104,852)"/><path d="M 1118 838v 28h 14a 14 14, 0, 0, 0, 0 -28" transform="rotate(0,1132,852)"/><rect x="26" y="866" width="28" height="28" transform="rotate(0,40,880)"/><path d="M 54 866v 28h 28v -14a 14 14, 0, 0, 0, -14 -14" transform="rotate(0,68,880)"/><path d="M 110 866v 28h 28v -14a 14 14, 0, 0, 0, -14 -14" transform="rotate(-90,124,880)"/><rect x="138" y="866" width="28" height="28" transform="rotate(0,152,880)"/><rect x="166" y="866" width="28" height="28" transform="rotate(0,180,880)"/><rect x="194" y="866" width="28" height="28" transform="rotate(0,208,880)"/><rect x="222" y="866" width="28" height="28" transform="rotate(0,236,880)"/><rect x="250" y="866" width="28" height="28" transform="rotate(0,264,880)"/><path d="M 306 866v 28h 14a 14 14, 0, 0, 0, 0 -28" transform="rotate(180,320,880)"/><rect x="334" y="866" width="28" height="28" transform="rotate(0,348,880)"/><path d="M 362 866v 28h 28v -14a 14 14, 0, 0, 0, -14 -14" transform="rotate(90,376,880)"/><path d="M 418 866v 28h 14a 14 14, 0, 0, 0, 0 -28" transform="rotate(-90,432,880)"/><rect x="474" y="866" width="28" height="28" transform="rotate(0,488,880)"/><path d="M 502 866v 28h 28v -14a 14 14, 0, 0, 0, -14 -14" transform="rotate(90,516,880)"/><path d="M 586 866v 28h 14a 14 14, 0, 0, 0, 0 -28" transform="rotate(-90,600,880)"/><path d="M 642 866v 28h 28v -14a 14 14, 0, 0, 0, -14 -14" transform="rotate(180,656,880)"/><path d="M 670 866v 28h 28v -14a 14 14, 0, 0, 0, -14 -14" transform="rotate(90,684,880)"/><path d="M 810 866v 28h 14a 14 14, 0, 0, 0, 0 -28" transform="rotate(-90,824,880)"/><path d="M 894 866v 28h 14a 14 14, 0, 0, 0, 0 -28" transform="rotate(-90,908,880)"/><circle cx="964" cy="880" r="14" transform="rotate(0,964,880)"/><path d="M 1034 866v 28h 14a 14 14, 0, 0, 0, 0 -28" transform="rotate(90,1048,880)"/><circle cx="1160" cy="880" r="14" transform="rotate(0,1160,880)"/><rect x="26" y="894" width="28" height="28" transform="rotate(0,40,908)"/><rect x="54" y="894" width="28" height="28" transform="rotate(0,68,908)"/><path d="M 110 894v 28h 28v -14a 14 14, 0, 0, 0, -14 -14" transform="rotate(180,124,908)"/><rect x="138" y="894" width="28" height="28" transform="rotate(0,152,908)"/><path d="M 166 894v 28h 28v -14a 14 14, 0, 0, 0, -14 -14" transform="rotate(90,180,908)"/><path d="M 250 894v 28h 14a 14 14, 0, 0, 0, 0 -28" transform="rotate(90,264,908)"/><path d="M 334 894v 28h 14a 14 14, 0, 0, 0, 0 -28" transform="rotate(90,348,908)"/><rect x="418" y="894" width="28" height="28" transform="rotate(0,432,908)"/><rect x="446" y="894" width="28" height="28" transform="rotate(0,460,908)"/><rect x="474" y="894" width="28" height="28" transform="rotate(0,488,908)"/><path d="M 558 894v 28h 28v -14a 14 14, 0, 0, 0, -14 -14" transform="rotate(-90,572,908)"/><rect x="586" y="894" width="28" height="28" transform="rotate(0,600,908)"/><path d="M 614 894v 28h 14a 14 14, 0, 0, 0, 0 -28" transform="rotate(0,628,908)"/><path d="M 698 894v 28h 14a 14 14, 0, 0, 0, 0 -28" transform="rotate(180,712,908)"/><path d="M 726 894v 28h 14a 14 14, 0, 0, 0, 0 -28" transform="rotate(0,740,908)"/><path d="M 782 894v 28h 14a 14 14, 0, 0, 0, 0 -28" transform="rotate(180,796,908)"/><rect x="810" y="894" width="28" height="28" transform="rotate(0,824,908)"/><path d="M 866 894v 28h 14a 14 14, 0, 0, 0, 0 -28" transform="rotate(180,880,908)"/><rect x="894" y="894" width="28" height="28" transform="rotate(0,908,908)"/><path d="M 978 894v 28h 28v -14a 14 14, 0, 0, 0, -14 -14" transform="rotate(-90,992,908)"/><path d="M 1006 894v 28h 28v -14a 14 14, 0, 0, 0, -14 -14" transform="rotate(0,1020,908)"/><path d="M 1090 894v 28h 28v -14a 14 14, 0, 0, 0, -14 -14" transform="rotate(-90,1104,908)"/><path d="M 1118 894v 28h 14a 14 14, 0, 0, 0, 0 -28" transform="rotate(0,1132,908)"/><path d="M 26 922v 28h 28v -14a 14 14, 0, 0, 0, -14 -14" transform="rotate(180,40,936)"/><path d="M 54 922v 28h 28v -14a 14 14, 0, 0, 0, -14 -14" transform="rotate(90,68,936)"/><path d="M 194 922v 28h 14a 14 14, 0, 0, 0, 0 -28" transform="rotate(180,208,936)"/><path d="M 222 922v 28h 14a 14 14, 0, 0, 0, 0 -28" transform="rotate(0,236,936)"/><path d="M 278 922v 28h 14a 14 14, 0, 0, 0, 0 -28" transform="rotate(-90,292,936)"/><path d="M 362 922v 28h 14a 14 14, 0, 0, 0, 0 -28" transform="rotate(-90,376,936)"/><rect x="418" y="922" width="28" height="28" transform="rotate(0,432,936)"/><path d="M 474 922v 28h 14a 14 14, 0, 0, 0, 0 -28" transform="rotate(90,488,936)"/><path d="M 530 922v 28h 14a 14 14, 0, 0, 0, 0 -28" transform="rotate(180,544,936)"/><rect x="558" y="922" width="28" height="28" transform="rotate(0,572,936)"/><rect x="586" y="922" width="28" height="28" transform="rotate(0,600,936)"/><circle cx="768" cy="936" r="14" transform="rotate(0,768,936)"/><path d="M 810 922v 28h 28v -14a 14 14, 0, 0, 0, -14 -14" transform="rotate(180,824,936)"/><path d="M 838 922v 28h 14a 14 14, 0, 0, 0, 0 -28" transform="rotate(0,852,936)"/><path d="M 894 922v 28h 28v -14a 14 14, 0, 0, 0, -14 -14" transform="rotate(180,908,936)"/><rect x="922" y="922" width="28" height="28" transform="rotate(0,936,936)"/><rect x="950" y="922" width="28" height="28" transform="rotate(0,964,936)"/><rect x="978" y="922" width="28" height="28" transform="rotate(0,992,936)"/><rect x="1006" y="922" width="28" height="28" transform="rotate(0,1020,936)"/><rect x="1034" y="922" width="28" height="28" transform="rotate(0,1048,936)"/><rect x="1062" y="922" width="28" height="28" transform="rotate(0,1076,936)"/><path d="M 1090 922v 28h 28v -14a 14 14, 0, 0, 0, -14 -14" transform="rotate(90,1104,936)"/><circle cx="1160" cy="936" r="14" transform="rotate(0,1160,936)"/><path d="M 250 950v 28h 14a 14 14, 0, 0, 0, 0 -28" transform="rotate(180,264,964)"/><path d="M 278 950v 28h 28v -14a 14 14, 0, 0, 0, -14 -14" transform="rotate(90,292,964)"/><path d="M 334 950v 28h 14a 14 14, 0, 0, 0, 0 -28" transform="rotate(180,348,964)"/><rect x="362" y="950" width="28" height="28" transform="rotate(0,376,964)"/><path d="M 418 950v 28h 28v -14a 14 14, 0, 0, 0, -14 -14" transform="rotate(180,432,964)"/><path d="M 446 950v 28h 14a 14 14, 0, 0, 0, 0 -28" transform="rotate(0,460,964)"/><path d="M 502 950v 28h 14a 14 14, 0, 0, 0, 0 -28" transform="rotate(-90,516,964)"/><rect x="586" y="950" width="28" height="28" transform="rotate(0,600,964)"/><path d="M 642 950v 28h 28v -14a 14 14, 0, 0, 0, -14 -14" transform="rotate(-90,656,964)"/><path d="M 670 950v 28h 28v -14a 14 14, 0, 0, 0, -14 -14" transform="rotate(0,684,964)"/><path d="M 726 950v 28h 14a 14 14, 0, 0, 0, 0 -28" transform="rotate(-90,740,964)"/><path d="M 782 950v 28h 14a 14 14, 0, 0, 0, 0 -28" transform="rotate(-90,796,964)"/><rect x="922" y="950" width="28" height="28" transform="rotate(0,936,964)"/><rect x="1034" y="950" width="28" height="28" transform="rotate(0,1048,964)"/><rect x="1062" y="950" width="28" height="28" transform="rotate(0,1076,964)"/><circle cx="320" cy="992" r="14" transform="rotate(0,320,992)"/><rect x="362" y="978" width="28" height="28" transform="rotate(0,376,992)"/><path d="M 390 978v 28h 14a 14 14, 0, 0, 0, 0 -28" transform="rotate(0,404,992)"/><rect x="502" y="978" width="28" height="28" transform="rotate(0,516,992)"/><path d="M 586 978v 28h 14a 14 14, 0, 0, 0, 0 -28" transform="rotate(90,600,992)"/><rect x="642" y="978" width="28" height="28" transform="rotate(0,656,992)"/><rect x="670" y="978" width="28" height="28" transform="rotate(0,684,992)"/><rect x="726" y="978" width="28" height="28" transform="rotate(0,740,992)"/><path d="M 782 978v 28h 28v -14a 14 14, 0, 0, 0, -14 -14" transform="rotate(180,796,992)"/><rect x="810" y="978" width="28" height="28" transform="rotate(0,824,992)"/><rect x="838" y="978" width="28" height="28" transform="rotate(0,852,992)"/><rect x="866" y="978" width="28" height="28" transform="rotate(0,880,992)"/><rect x="894" y="978" width="28" height="28" transform="rotate(0,908,992)"/><rect x="922" y="978" width="28" height="28" transform="rotate(0,936,992)"/><circle cx="992" cy="992" r="14" transform="rotate(0,992,992)"/><rect x="1034" y="978" width="28" height="28" transform="rotate(0,1048,992)"/><rect x="1062" y="978" width="28" height="28" transform="rotate(0,1076,992)"/><rect x="1090" y="978" width="28" height="28" transform="rotate(0,1104,992)"/><path d="M 1118 978v 28h 28v -14a 14 14, 0, 0, 0, -14 -14" transform="rotate(0,1132,992)"/><path d="M 250 1006v 28h 28v -14a 14 14, 0, 0, 0, -14 -14" transform="rotate(-90,264,1020)"/><path d="M 278 1006v 28h 14a 14 14, 0, 0, 0, 0 -28" transform="rotate(0,292,1020)"/><rect x="362" y="1006" width="28" height="28" transform="rotate(0,376,1020)"/><circle cx="460" cy="1020" r="14" transform="rotate(0,460,1020)"/><rect x="502" y="1006" width="28" height="28" transform="rotate(0,516,1020)"/><rect x="530" y="1006" width="28" height="28" transform="rotate(0,544,1020)"/><path d="M 558 1006v 28h 28v -14a 14 14, 0, 0, 0, -14 -14" transform="rotate(0,572,1020)"/><path d="M 614 1006v 28h 14a 14 14, 0, 0, 0, 0 -28" transform="rotate(180,628,1020)"/><rect x="642" y="1006" width="28" height="28" transform="rotate(0,656,1020)"/><rect x="670" y="1006" width="28" height="28" transform="rotate(0,684,1020)"/><rect x="726" y="1006" width="28" height="28" transform="rotate(0,740,1020)"/><rect x="810" y="1006" width="28" height="28" transform="rotate(0,824,1020)"/><rect x="838" y="1006" width="28" height="28" transform="rotate(0,852,1020)"/><rect x="922" y="1006" width="28" height="28" transform="rotate(0,936,1020)"/><rect x="1034" y="1006" width="28" height="28" transform="rotate(0,1048,1020)"/><path d="M 1062 1006v 28h 28v -14a 14 14, 0, 0, 0, -14 -14" transform="rotate(90,1076,1020)"/><rect x="1118" y="1006" width="28" height="28" transform="rotate(0,1132,1020)"/><path d="M 1146 1006v 28h 14a 14 14, 0, 0, 0, 0 -28" transform="rotate(0,1160,1020)"/><rect x="250" y="1034" width="28" height="28" transform="rotate(0,264,1048)"/><path d="M 362 1034v 28h 28v -14a 14 14, 0, 0, 0, -14 -14" transform="rotate(180,376,1048)"/><path d="M 390 1034v 28h 28v -14a 14 14, 0, 0, 0, -14 -14" transform="rotate(0,404,1048)"/><path d="M 474 1034v 28h 14a 14 14, 0, 0, 0, 0 -28" transform="rotate(180,488,1048)"/><rect x="502" y="1034" width="28" height="28" transform="rotate(0,516,1048)"/><rect x="558" y="1034" width="28" height="28" transform="rotate(0,572,1048)"/><path d="M 586 1034v 28h 28v -14a 14 14, 0, 0, 0, -14 -14" transform="rotate(0,600,1048)"/><rect x="670" y="1034" width="28" height="28" transform="rotate(0,684,1048)"/><rect x="698" y="1034" width="28" height="28" transform="rotate(0,712,1048)"/><rect x="726" y="1034" width="28" height="28" transform="rotate(0,740,1048)"/><rect x="810" y="1034" width="28" height="28" transform="rotate(0,824,1048)"/><rect x="838" y="1034" width="28" height="28" transform="rotate(0,852,1048)"/><rect x="866" y="1034" width="28" height="28" transform="rotate(0,880,1048)"/><rect x="894" y="1034" width="28" height="28" transform="rotate(0,908,1048)"/><rect x="922" y="1034" width="28" height="28" transform="rotate(0,936,1048)"/><rect x="950" y="1034" width="28" height="28" transform="rotate(0,964,1048)"/><rect x="978" y="1034" width="28" height="28" transform="rotate(0,992,1048)"/><rect x="1006" y="1034" width="28" height="28" transform="rotate(0,1020,1048)"/><path d="M 1034 1034v 28h 28v -14a 14 14, 0, 0, 0, -14 -14" transform="rotate(90,1048,1048)"/><rect x="1118" y="1034" width="28" height="28" transform="rotate(0,1132,1048)"/><path d="M 250 1062v 28h 14a 14 14, 0, 0, 0, 0 -28" transform="rotate(90,264,1076)"/><path d="M 390 1062v 28h 14a 14 14, 0, 0, 0, 0 -28" transform="rotate(90,404,1076)"/><path d="M 502 1062v 28h 14a 14 14, 0, 0, 0, 0 -28" transform="rotate(90,516,1076)"/><rect x="558" y="1062" width="28" height="28" transform="rotate(0,572,1076)"/><rect x="586" y="1062" width="28" height="28" transform="rotate(0,600,1076)"/><rect x="614" y="1062" width="28" height="28" transform="rotate(0,628,1076)"/><rect x="642" y="1062" width="28" height="28" transform="rotate(0,656,1076)"/><path d="M 670 1062v 28h 28v -14a 14 14, 0, 0, 0, -14 -14" transform="rotate(90,684,1076)"/><path d="M 726 1062v 28h 28v -14a 14 14, 0, 0, 0, -14 -14" transform="rotate(180,740,1076)"/><rect x="754" y="1062" width="28" height="28" transform="rotate(0,768,1076)"/><rect x="782" y="1062" width="28" height="28" transform="rotate(0,796,1076)"/><rect x="810" y="1062" width="28" height="28" transform="rotate(0,824,1076)"/><path d="M 838 1062v 28h 28v -14a 14 14, 0, 0, 0, -14 -14" transform="rotate(90,852,1076)"/><rect x="1006" y="1062" width="28" height="28" transform="rotate(0,1020,1076)"/><path d="M 1090 1062v 28h 14a 14 14, 0, 0, 0, 0 -28" transform="rotate(180,1104,1076)"/><rect x="1118" y="1062" width="28" height="28" transform="rotate(0,1132,1076)"/><path d="M 1146 1062v 28h 28v -14a 14 14, 0, 0, 0, -14 -14" transform="rotate(0,1160,1076)"/><path d="M 278 1090v 28h 14a 14 14, 0, 0, 0, 0 -28" transform="rotate(180,292,1104)"/><rect x="306" y="1090" width="28" height="28" transform="rotate(0,320,1104)"/><rect x="334" y="1090" width="28" height="28" transform="rotate(0,348,1104)"/><path d="M 362 1090v 28h 28v -14a 14 14, 0, 0, 0, -14 -14" transform="rotate(0,376,1104)"/><circle cx="460" cy="1104" r="14" transform="rotate(0,460,1104)"/><path d="M 558 1090v 28h 14a 14 14, 0, 0, 0, 0 -28" transform="rotate(90,572,1104)"/><rect x="754" y="1090" width="28" height="28" transform="rotate(0,768,1104)"/><rect x="782" y="1090" width="28" height="28" transform="rotate(0,796,1104)"/><path d="M 894 1090v 28h 28v -14a 14 14, 0, 0, 0, -14 -14" transform="rotate(-90,908,1104)"/><rect x="922" y="1090" width="28" height="28" transform="rotate(0,936,1104)"/><path d="M 950 1090v 28h 28v -14a 14 14, 0, 0, 0, -14 -14" transform="rotate(0,964,1104)"/><path d="M 1006 1090v 28h 28v -14a 14 14, 0, 0, 0, -14 -14" transform="rotate(180,1020,1104)"/><path d="M 1034 1090v 28h 28v -14a 14 14, 0, 0, 0, -14 -14" transform="rotate(0,1048,1104)"/><path d="M 1118 1090v 28h 28v -14a 14 14, 0, 0, 0, -14 -14" transform="rotate(180,1132,1104)"/><rect x="1146" y="1090" width="28" height="28" transform="rotate(0,1160,1104)"/><circle cx="264" cy="1132" r="14" transform="rotate(0,264,1132)"/><path d="M 362 1118v 28h 14a 14 14, 0, 0, 0, 0 -28" transform="rotate(90,376,1132)"/><circle cx="432" cy="1132" r="14" transform="rotate(0,432,1132)"/><circle cx="516" cy="1132" r="14" transform="rotate(0,516,1132)"/><circle cx="600" cy="1132" r="14" transform="rotate(0,600,1132)"/><path d="M 642 1118v 28h 14a 14 14, 0, 0, 0, 0 -28" transform="rotate(180,656,1132)"/><rect x="670" y="1118" width="28" height="28" transform="rotate(0,684,1132)"/><path d="M 698 1118v 28h 28v -14a 14 14, 0, 0, 0, -14 -14" transform="rotate(0,712,1132)"/><path d="M 754 1118v 28h 28v -14a 14 14, 0, 0, 0, -14 -14" transform="rotate(180,768,1132)"/><rect x="782" y="1118" width="28" height="28" transform="rotate(0,796,1132)"/><path d="M 810 1118v 28h 28v -14a 14 14, 0, 0, 0, -14 -14" transform="rotate(0,824,1132)"/><path d="M 866 1118v 28h 14a 14 14, 0, 0, 0, 0 -28" transform="rotate(180,880,1132)"/><rect x="894" y="1118" width="28" height="28" transform="rotate(0,908,1132)"/><rect x="950" y="1118" width="28" height="28" transform="rotate(0,964,1132)"/><rect x="1034" y="1118" width="28" height="28" transform="rotate(0,1048,1132)"/><rect x="1062" y="1118" width="28" height="28" transform="rotate(0,1076,1132)"/><path d="M 1090 1118v 28h 14a 14 14, 0, 0, 0, 0 -28" transform="rotate(0,1104,1132)"/><path d="M 1146 1118v 28h 14a 14 14, 0, 0, 0, 0 -28" transform="rotate(90,1160,1132)"/><circle cx="292" cy="1160" r="14" transform="rotate(0,292,1160)"/><circle cx="348" cy="1160" r="14" transform="rotate(0,348,1160)"/><circle cx="404" cy="1160" r="14" transform="rotate(0,404,1160)"/><circle cx="460" cy="1160" r="14" transform="rotate(0,460,1160)"/><circle cx="572" cy="1160" r="14" transform="rotate(0,572,1160)"/><circle cx="628" cy="1160" r="14" transform="rotate(0,628,1160)"/><path d="M 670 1146v 28h 28v -14a 14 14, 0, 0, 0, -14 -14" transform="rotate(180,684,1160)"/><rect x="698" y="1146" width="28" height="28" transform="rotate(0,712,1160)"/><path d="M 726 1146v 28h 14a 14 14, 0, 0, 0, 0 -28" transform="rotate(0,740,1160)"/><path d="M 782 1146v 28h 28v -14a 14 14, 0, 0, 0, -14 -14" transform="rotate(180,796,1160)"/><path d="M 810 1146v 28h 28v -14a 14 14, 0, 0, 0, -14 -14" transform="rotate(90,824,1160)"/><path d="M 894 1146v 28h 28v -14a 14 14, 0, 0, 0, -14 -14" transform="rotate(180,908,1160)"/><rect x="922" y="1146" width="28" height="28" transform="rotate(0,936,1160)"/><rect x="950" y="1146" width="28" height="28" transform="rotate(0,964,1160)"/><path d="M 978 1146v 28h 14a 14 14, 0, 0, 0, 0 -28" transform="rotate(0,992,1160)"/><path d="M 1034 1146v 28h 14a 14 14, 0, 0, 0, 0 -28" transform="rotate(90,1048,1160)"/></clipPath><clipPath id="clip-path-corners-square-color-0-0-621"><path clip-rule="evenodd" d="M 26 96v 56a 70 70, 0, 0, 0, 70 70h 56a 70 70, 0, 0, 0, 70 -70v -56a 70 70, 0, 0, 0, -70 -70h -56a 70 70, 0, 0, 0, -70 70M 96 54h 56a 42 42, 0, 0, 1, 42 42v 56a 42 42, 0, 0, 1, -42 42h -56a 42 42, 0, 0, 1, -42 -42v -56a 42 42, 0, 0, 1, 42 -42" transform="rotate(0,124,124)"/></clipPath><clipPath id="clip-path-corners-dot-color-0-0-621"><circle cx="124" cy="124" r="42" transform="rotate(0,124,124)"/></clipPath><clipPath id="clip-path-corners-square-color-1-0-621"><path clip-rule="evenodd" d="M 978 96v 56a 70 70, 0, 0, 0, 70 70h 56a 70 70, 0, 0, 0, 70 -70v -56a 70 70, 0, 0, 0, -70 -70h -56a 70 70, 0, 0, 0, -70 70M 1048 54h 56a 42 42, 0, 0, 1, 42 42v 56a 42 42, 0, 0, 1, -42 42h -56a 42 42, 0, 0, 1, -42 -42v -56a 42 42, 0, 0, 1, 42 -42" transform="rotate(90,1076,124)"/></clipPath><clipPath id="clip-path-corners-dot-color-1-0-621"><circle cx="1076" cy="124" r="42" transform="rotate(90,1076,124)"/></clipPath><clipPath id="clip-path-corners-square-color-0-1-621"><path clip-rule="evenodd" d="M 26 1048v 56a 70 70, 0, 0, 0, 70 70h 56a 70 70, 0, 0, 0, 70 -70v -56a 70 70, 0, 0, 0, -70 -70h -56a 70 70, 0, 0, 0, -70 70M 96 1006h 56a 42 42, 0, 0, 1, 42 42v 56a 42 42, 0, 0, 1, -42 42h -56a 42 42, 0, 0, 1, -42 -42v -56a 42 42, 0, 0, 1, 42 -42" transform="rotate(-90,124,1076)"/></clipPath><clipPath id="clip-path-corners-dot-color-0-1-621"><circle cx="124" cy="1076" r="42" transform="rotate(-90,124,1076)"/></clipPath></defs><rect x="0" y="0" height="1200" width="1200" clip-path="url('#clip-path-background-color-621')" fill="#ffffff"/><rect x="0" y="0" height="1200" width="1200" clip-path="url('#clip-path-dot-color-621')" fill="#000000"/><rect x="26" y="26" height="196" width="196" clip-path="url('#clip-path-corners-square-color-0-0-621')" fill="#000000"/><rect x="82" y="82" height="84" width="84" clip-path="url('#clip-path-corners-dot-color-0-0-621')" fill="#000000"/><rect x="978" y="26" height="196" width="196" clip-path="url('#clip-path-corners-square-color-1-0-621')" fill="#000000"/><rect x="1034" y="82" height="84" width="84" clip-path="url('#clip-path-corners-dot-color-1-0-621')" fill="#000000"/><rect x="26" y="978" height="196" width="196" clip-path="url('#clip-path-corners-square-color-0-1-621')" fill="#000000"/><rect x="82" y="1034" height="84" width="84" clip-path="url('#clip-path-corners-dot-color-0-1-621')" fill="#000000"/></svg>