<?xml version="1.0" standalone="no"?>
<svg xmlns="http://www.w3.org/2000/svg" width="1200" height="1200" xmlns:xlink="http://www.w3.org/1999/xlink" viewBox="0 0 1200 1200"><defs><clipPath id="clip-path-background-color-650"><rect x="0" y="0" width="1200" height="1200"/></clipPath><clipPath id="clip-path-dot-color-650"><path d="M 278 26v 28h 28v -14a 14 14, 0, 0, 0, -14 -14" transform="rotate(-90,292,40)"/><rect x="306" y="26" width="28" height="28" transform="rotate(0,320,40)"/><path d="M 334 26v 28h 14a 14 14, 0, 0, 0, 0 -28" transform="rotate(0,348,40)"/><path d="M 474 26v 28h 28v -14a 14 14, 0, 0, 0, -14 -14" transform="rotate(-90,488,40)"/><path d="M 502 26v 28h 28v -14a 14 14, 0, 0, 0, -14 -14" transform="rotate(0,516,40)"/><circle cx="572" cy="40" r="14" transform="rotate(0,572,40)"/><path d="M 614 26v 28h 14a 14 14, 0, 0, 0, 0 -28" transform="rotate(180,628,40)"/><path d="M 642 26v 28h 28v -14a 14 14, 0, 0, 0, -14 -14" transform="rotate(0,656,40)"/><path d="M 754 26v 28h 14a 14 14, 0, 0, 0, 0 -28" transform="rotate(180,768,40)"/><path d="M 782 26v 28h 14a 14 14, 0, 0, 0, 0 -28" transform="rotate(0,796,40)"/><path d="M 866 26v 28h 14a 14 14, 0, 0, 0, 0 -28" transform="rotate(-90,880,40)"/><path d="M 278 54v 28h 28v -14a 14 14, 0, 0, 0, -14 -14" transform="rotate(180,292,68)"/><rect x="306" y="54" width="28" height="28" transform="rotate(0,320,68)"/><rect x="474" y="54" width="28" height="28" transform="rotate(0,488,68)"/><rect x="502" y="54" width="28" height="28" transform="rotate(0,516,68)"/><rect x="642" y="54" width="28" height="28" transform="rotate(0,656,68)"/><circle cx="712" cy="68" r="14" transform="rotate(0,712,68)"/><rect x="866" y="54" width="28" height="28" transform="rotate(0,880,68)"/><path d="M 894 54v 28h 14a 14 14, 0, 0, 0, 0 -28" transform="rotate(0,908,68)"/><circle cx="264" cy="96" r="14" transform="rotate(0,264,96)"/><path d="M 306 82v 28h 14a 14 14, 0, 0, 0, 0 -28" transform="rotate(90,320,96)"/><path d="M 362 82v 28h 14a 14 14, 0, 0, 0, 0 -28" transform="rotate(180,376,96)"/><path d="M 390 82v 28h 14a 14 14, 0, 0, 0, 0 -28" transform="rotate(0,404,96)"/><rect x="474" y="82" width="28" height="28" transform="rotate(0,488,96)"/><path d="M 502 82v 28h 28v -14a 14 14, 0, 0, 0, -14 -14" transform="rotate(90,516,96)"/><path d="M 558 82v 28h 14a 14 14, 0, 0, 0, 0 -28" transform="rotate(180,572,96)"/><rect x="586" y="82" width="28" height="28" transform="rotate(0,600,96)"/><rect x="614" y="82" width="28" height="28" transform="rotate(0,628,96)"/><rect x="642" y="82" width="28" height="28" transform="rotate(0,656,96)"/><path d="M 670 82v 28h 28v -14a 14 14, 0, 0, 0, -14 -14" transform="rotate(0,684,96)"/><circle cx="740" cy="96" r="14" transform="rotate(0,740,96)"/><path d="M 838 82v 28h 28v -14a 14 14, 0, 0, 0, -14 -14" transform="rotate(-90,852,96)"/><path d="M 866 82v 28h 28v -14a 14 14, 0, 0, 0, -14 -14" transform="rotate(90,880,96)"/><path d="M 446 110v 28h 14a 14 14, 0, 0, 0, 0 -28" transform="rotate(180,460,124)"/><path d="M 474 110v 28h 28v -14a 14 14, 0, 0, 0, -14 -14" transform="rotate(90,488,124)"/><path d="M 670 110v 28h 28v -14a 14 14, 0, 0, 0, -14 -14" transform="rotate(180,684,124)"/><path d="M 698 110v 28h 14a 14 14, 0, 0, 0, 0 -28" transform="rotate(0,712,124)"/><path d="M 754 110v 28h 28v -14a 14 14, 0, 0, 0, -14 -14" transform="rotate(-90,768,124)"/><rect x="782" y="110" width="28" height="28" transform="rotate(0,796,124)"/><rect x="810" y="110" width="28" height="28" transform="rotate(0,824,124)"/><path d="M 838 110v 28h 28v -14a 14 14, 0, 0, 0, -14 -14" transform="rotate(90,852,124)"/><path d="M 894 110v 28h 14a 14 14, 0, 0, 0, 0 -28" transform="rotate(180,908,124)"/><path d="M 922 110v 28h 14a 14 14, 0, 0, 0, 0 -28" transform="rotate(0,936,124)"/><path d="M 250 138v 28h 14a 14 14, 0, 0, 0, 0 -28" transform="rotate(-90,264,152)"/><circle cx="348" cy="152" r="14" transform="rotate(0,348,152)"/><path d="M 390 138v 28h 28v -14a 14 14, 0, 0, 0, -14 -14" transform="rotate(-90,404,152)"/><path d="M 418 138v 28h 14a 14 14, 0, 0, 0, 0 -28" transform="rotate(0,432,152)"/><path d="M 502 138v 28h 14a 14 14, 0, 0, 0, 0 -28" transform="rotate(180,516,152)"/><path d="M 530 138v 28h 14a 14 14, 0, 0, 0, 0 -28" transform="rotate(0,544,152)"/><path d="M 586 138v 28h 14a 14 14, 0, 0, 0, 0 -28" transform="rotate(180,600,152)"/><path d="M 614 138v 28h 28v -14a 14 14, 0, 0, 0, -14 -14" transform="rotate(0,628,152)"/><path d="M 726 138v 28h 14a 14 14, 0, 0, 0, 0 -28" transform="rotate(180,740,152)"/><rect x="754" y="138" width="28" height="28" transform="rotate(0,768,152)"/><rect x="782" y="138" width="28" height="28" transform="rotate(0,796,152)"/><path d="M 810 138v 28h 28v -14a 14 14, 0, 0, 0, -14 -14" transform="rotate(90,824,152)"/><rect x="250" y="166" width="28" height="28" transform="rotate(0,264,180)"/><path d="M 306 166v 28h 14a 14 14, 0, 0, 0, 0 -28" transform="rotate(-90,320,180)"/><path d="M 390 166v 28h 14a 14 14, 0, 0, 0, 0 -28" transform="rotate(90,404,180)"/><path d="M 446 166v 28h 14a 14 14, 0, 0, 0, 0 -28" transform="rotate(180,460,180)"/><path d="M 474 166v 28h 28v -14a 14 14, 0, 0, 0, -14 -14" transform="rotate(0,488,180)"/><circle cx="572" cy="180" r="14" transform="rotate(0,572,180)"/><path d="M 614 166v 28h 14a 14 14, 0, 0, 0, 0 -28" transform="rotate(90,628,180)"/><path d="M 698 166v 28h 14a 14 14, 0, 0, 0, 0 -28" transform="rotate(-90,712,180)"/><rect x="754" y="166" width="28" height="28" transform="rotate(0,768,180)"/><path d="M 838 166v 28h 14a 14 14, 0, 0, 0, 0 -28" transform="rotate(180,852,180)"/><rect x="866" y="166" width="28" height="28" transform="rotate(0,880,180)"/><path d="M 894 166v 28h 14a 14 14, 0, 0, 0, 0 -28" transform="rotate(0,908,180)"/><path d="M 250 194v 28h 14a 14 14, 0, 0, 0, 0 -28" transform="rotate(90,264,208)"/><rect x="306" y="194" width="28" height="28" transform="rotate(0,320,208)"/><path d="M 362 194v 28h 14a 14 14, 0, 0, 0, 0 -28" transform="rotate(-90,376,208)"/><circle cx="432" cy="208" r="14" transform="rotate(0,432,208)"/><path d="M 474 194v 28h 14a 14 14, 0, 0, 0, 0 -28" transform="rotate(90,488,208)"/><path d="M 530 194v 28h 14a 14 14, 0, 0, 0, 0 -28" transform="rotate(-90,544,208)"/><path d="M 586 194v 28h 14a 14 14, 0, 0, 0, 0 -28" transform="rotate(-90,600,208)"/><path d="M 642 194v 28h 14a 14 14, 0, 0, 0, 0 -28" transform="rotate(-90,656,208)"/><rect x="698" y="194" width="28" height="28" transform="rotate(0,712,208)"/><path d="M 754 194v 28h 14a 14 14, 0, 0, 0, 0 -28" transform="rotate(90,768,208)"/><path d="M 810 194v 28h 14a 14 14, 0, 0, 0, 0 -28" transform="rotate(-90,824,208)"/><rect x="866" y="194" width="28" height="28" transform="rotate(0,880,208)"/><path d="M 922 194v 28h 14a 14 14, 0, 0, 0, 0 -28" transform="rotate(-90,936,208)"/><path d="M 306 222v 28h 14a 14 14, 0, 0, 0, 0 -28" transform="rotate(90,320,236)"/><rect x="362" y="222" width="28" height="28" transform="rotate(0,376,236)"/><path d="M 390 222v 28h 28v -14a 14 14, 0, 0, 0, -14 -14" transform="rotate(0,404,236)"/><path d="M 502 222v 28h 14a 14 14, 0, 0, 0, 0 -28" transform="rotate(180,516,236)"/><rect x="530" y="222" width="28" height="28" transform="rotate(0,544,236)"/><rect x="586" y="222" width="28" height="28" transform="rotate(0,600,236)"/><path d="M 642 222v 28h 28v -14a 14 14, 0, 0, 0, -14 -14" transform="rotate(180,656,236)"/><rect x="670" y="222" width="28" height="28" transform="rotate(0,684,236)"/><path d="M 698 222v 28h 28v -14a 14 14, 0, 0, 0, -14 -14" transform="rotate(90,712,236)"/><rect x="810" y="222" width="28" height="28" transform="rotate(0,824,236)"/><rect x="838" y="222" width="28" height="28" transform="rotate(0,852,236)"/><path d="M 866 222v 28h 28v -14a 14 14, 0, 0, 0, -14 -14" transform="rotate(90,880,236)"/><rect x="922" y="222" width="28" height="28" transform="rotate(0,936,236)"/><path d="M 54 250v 28h 14a 14 14, 0, 0, 0, 0 -28" transform="rotate(-90,68,264)"/><path d="M 138 250v 28h 14a 14 14, 0, 0, 0, 0 -28" transform="rotate(-90,152,264)"/><circle cx="208" cy="264" r="14" transform="rotate(0,208,264)"/><circle cx="264" cy="264" r="14" transform="rotate(0,264,264)"/><rect x="362" y="250" width="28" height="28" transform="rotate(0,376,264)"/><rect x="390" y="250" width="28" height="28" transform="rotate(0,404,264)"/><path d="M 418 250v 28h 28v -14a 14 14, 0, 0, 0, -14 -14" transform="rotate(0,432,264)"/><path d="M 474 250v 28h 14a 14 14, 0, 0, 0, 0 -28" transform="rotate(-90,488,264)"/><path d="M 530 250v 28h 28v -14a 14 14, 0, 0, 0, -14 -14" transform="rotate(180,544,264)"/><rect x="558" y="250" width="28" height="28" transform="rotate(0,572,264)"/><rect x="586" y="250" width="28" height="28" transform="rotate(0,600,264)"/><path d="M 614 250v 28h 28v -14a 14 14, 0, 0, 0, -14 -14" transform="rotate(0,628,264)"/><rect x="810" y="250" width="28" height="28" transform="rotate(0,824,264)"/><path d="M 838 250v 28h 28v -14a 14 14, 0, 0, 0, -14 -14" transform="rotate(90,852,264)"/><path d="M 894 250v 28h 14a 14 14, 0, 0, 0, 0 -28" transform="rotate(180,908,264)"/><rect x="922" y="250" width="28" height="28" transform="rotate(0,936,264)"/><path d="M 950 250v 28h 14a 14 14, 0, 0, 0, 0 -28" transform="rotate(0,964,264)"/><path d="M 1006 250v 28h 14a 14 14, 0, 0, 0, 0 -28" transform="rotate(180,1020,264)"/><path d="M 1034 250v 28h 28v -14a 14 14, 0, 0, 0, -14 -14" transform="rotate(0,1048,264)"/><circle cx="1104" cy="264" r="14" transform="rotate(0,1104,264)"/><path d="M 54 278v 28h 28v -14a 14 14, 0, 0, 0, -14 -14" transform="rotate(180,68,292)"/><rect x="82" y="278" width="28" height="28" transform="rotate(0,96,292)"/><rect x="110" y="278" width="28" height="28" transform="rotate(0,124,292)"/><rect x="138" y="278" width="28" height="28" transform="rotate(0,152,292)"/><path d="M 166 278v 28h 28v -14a 14 14, 0, 0, 0, -14 -14" transform="rotate(0,180,292)"/><path d="M 222 278v 28h 14a 14 14, 0, 0, 0, 0 -28" transform="rotate(-90,236,292)"/><path d="M 362 278v 28h 14a 14 14, 0, 0, 0, 0 -28" transform="rotate(90,376,292)"/><path d="M 418 278v 28h 14a 14 14, 0, 0, 0, 0 -28" transform="rotate(90,432,292)"/><path d="M 474 278v 28h 28v -14a 14 14, 0, 0, 0, -14 -14" transform="rotate(180,488,292)"/><path d="M 502 278v 28h 14a 14 14, 0, 0, 0, 0 -28" transform="rotate(0,516,292)"/><rect x="558" y="278" width="28" height="28" transform="rotate(0,572,292)"/><path d="M 614 278v 28h 28v -14a 14 14, 0, 0, 0, -14 -14" transform="rotate(180,628,292)"/><path d="M 642 278v 28h 28v -14a 14 14, 0, 0, 0, -14 -14" transform="rotate(0,656,292)"/><path d="M 726 278v 28h 14a 14 14, 0, 0, 0, 0 -28" transform="rotate(180,740,292)"/><rect x="754" y="278" width="28" height="28" transform="rotate(0,768,292)"/><rect x="782" y="278" width="28" height="28" transform="rotate(0,796,292)"/><path d="M 810 278v 28h 28v -14a 14 14, 0, 0, 0, -14 -14" transform="rotate(90,824,292)"/><path d="M 978 278v 28h 14a 14 14, 0, 0, 0, 0 -28" transform="rotate(-90,992,292)"/><rect x="1034" y="278" width="28" height="28" transform="rotate(0,1048,292)"/><path d="M 1062 278v 28h 14a 14 14, 0, 0, 0, 0 -28" transform="rotate(0,1076,292)"/><path d="M 1146 278v 28h 14a 14 14, 0, 0, 0, 0 -28" transform="rotate(-90,1160,292)"/><path d="M 26 306v 28h 14a 14 14, 0, 0, 0, 0 -28" transform="rotate(-90,40,320)"/><rect x="82" y="306" width="28" height="28" transform="rotate(0,96,320)"/><rect x="138" y="306" width="28" height="28" transform="rotate(0,152,320)"/><rect x="166" y="306" width="28" height="28" transform="rotate(0,180,320)"/><rect x="194" y="306" width="28" height="28" transform="rotate(0,208,320)"/><rect x="222" y="306" width="28" height="28" transform="rotate(0,236,320)"/><path d="M 250 306v 28h 14a 14 14, 0, 0, 0, 0 -28" transform="rotate(0,264,320)"/><circle cx="348" cy="320" r="14" transform="rotate(0,348,320)"/><circle cx="404" cy="320" r="14" transform="rotate(0,404,320)"/><path d="M 558 306v 28h 28v -14a 14 14, 0, 0, 0, -14 -14" transform="rotate(180,572,320)"/><path d="M 586 306v 28h 14a 14 14, 0, 0, 0, 0 -28" transform="rotate(0,600,320)"/><rect x="642" y="306" width="28" height="28" transform="rotate(0,656,320)"/><path d="M 670 306v 28h 14a 14 14, 0, 0, 0, 0 -28" transform="rotate(0,684,320)"/><path d="M 754 306v 28h 28v -14a 14 14, 0, 0, 0, -14 -14" transform="rotate(180,768,320)"/><rect x="782" y="306" width="28" height="28" transform="rotate(0,796,320)"/><path d="M 922 306v 28h 14a 14 14, 0, 0, 0, 0 -28" transform="rotate(-90,936,320)"/><rect x="978" y="306" width="28" height="28" transform="rotate(0,992,320)"/><rect x="1006" y="306" width="28" height="28" transform="rotate(0,1020,320)"/><path d="M 1034 306v 28h 28v -14a 14 14, 0, 0, 0, -14 -14" transform="rotate(90,1048,320)"/><rect x="1146" y="306" width="28" height="28" transform="rotate(0,1160,320)"/><rect x="26" y="334" width="28" height="28" transform="rotate(0,40,348)"/><rect x="54" y="334" width="28" height="28" transform="rotate(0,68,348)"/><path d="M 82 334v 28h 28v -14a 14 14, 0, 0, 0, -14 -14" transform="rotate(90,96,348)"/><path d="M 138 334v 28h 28v -14a 14 14, 0, 0, 0, -14 -14" transform="rotate(180,152,348)"/><rect x="166" y="334" width="28" height="28" transform="rotate(0,180,348)"/><path d="M 222 334v 28h 14a 14 14, 0, 0, 0, 0 -28" transform="rotate(90,236,348)"/><circle cx="460" cy="348" r="14" transform="rotate(0,460,348)"/><path d="M 502 334v 28h 14a 14 14, 0, 0, 0, 0 -28" transform="rotate(-90,516,348)"/><path d="M 642 334v 28h 14a 14 14, 0, 0, 0, 0 -28" transform="rotate(90,656,348)"/><path d="M 782 334v 28h 14a 14 14, 0, 0, 0, 0 -28" transform="rotate(90,796,348)"/><path d="M 838 334v 28h 14a 14 14, 0, 0, 0, 0 -28" transform="rotate(-90,852,348)"/><path d="M 894 334v 28h 14a 14 14, 0, 0, 0, 0 -28" transform="rotate(180,908,348)"/><rect x="922" y="334" width="28" height="28" transform="rotate(0,936,348)"/><path d="M 978 334v 28h 28v -14a 14 14, 0, 0, 0, -14 -14" transform="rotate(180,992,348)"/><path d="M 1006 334v 28h 28v -14a 14 14, 0, 0, 0, -14 -14" transform="rotate(90,1020,348)"/><circle cx="1076" cy="348" r="14" transform="rotate(0,1076,348)"/><path d="M 1118 334v 28h 28v -14a 14 14, 0, 0, 0, -14 -14" transform="rotate(-90,1132,348)"/><rect x="1146" y="334" width="28" height="28" transform="rotate(0,1160,348)"/><path d="M 26 362v 28h 28v -14a 14 14, 0, 0, 0, -14 -14" transform="rotate(180,40,376)"/><path d="M 54 362v 28h 28v -14a 14 14, 0, 0, 0, -14 -14" transform="rotate(90,68,376)"/><circle cx="124" cy="376" r="14" transform="rotate(0,124,376)"/><rect x="166" y="362" width="28" height="28" transform="rotate(0,180,376)"/><path d="M 194 362v 28h 14a 14 14, 0, 0, 0, 0 -28" transform="rotate(0,208,376)"/><circle cx="264" cy="376" r="14" transform="rotate(0,264,376)"/><circle cx="432" cy="376" r="14" transform="rotate(0,432,376)"/><path d="M 474 362v 28h 28v -14a 14 14, 0, 0, 0, -14 -14" transform="rotate(-90,488,376)"/><rect x="502" y="362" width="28" height="28" transform="rotate(0,516,376)"/><path d="M 558 362v 28h 28v -14a 14 14, 0, 0, 0, -14 -14" transform="rotate(-90,572,376)"/><rect x="586" y="362" width="28" height="28" transform="rotate(0,600,376)"/><path d="M 614 362v 28h 28v -14a 14 14, 0, 0, 0, -14 -14" transform="rotate(0,628,376)"/><circle cx="712" cy="376" r="14" transform="rotate(0,712,376)"/><path d="M 754 362v 28h 14a 14 14, 0, 0, 0, 0 -28" transform="rotate(-90,768,376)"/><path d="M 810 362v 28h 14a 14 14, 0, 0, 0, 0 -28" transform="rotate(180,824,376)"/><rect x="838" y="362" width="28" height="28" transform="rotate(0,852,376)"/><path d="M 922 362v 28h 28v -14a 14 14, 0, 0, 0, -14 -14" transform="rotate(180,936,376)"/><path d="M 950 362v 28h 28v -14a 14 14, 0, 0, 0, -14 -14" transform="rotate(0,964,376)"/><path d="M 1118 362v 28h 28v -14a 14 14, 0, 0, 0, -14 -14" transform="rotate(180,1132,376)"/><rect x="1146" y="362" width="28" height="28" transform="rotate(0,1160,376)"/><path d="M 82 390v 28h 14a 14 14, 0, 0, 0, 0 -28" transform="rotate(-90,96,404)"/><rect x="166" y="390" width="28" height="28" transform="rotate(0,180,404)"/><path d="M 222 390v 28h 14a 14 14, 0, 0, 0, 0 -28" transform="rotate(-90,236,404)"/><path d="M 362 390v 28h 14a 14 14, 0, 0, 0, 0 -28" transform="rotate(180,376,404)"/><path d="M 390 390v 28h 28v -14a 14 14, 0, 0, 0, -14 -14" transform="rotate(0,404,404)"/><path d="M 474 390v 28h 28v -14a 14 14, 0, 0, 0, -14 -14" transform="rotate(180,488,404)"/><rect x="502" y="390" width="28" height="28" transform="rotate(0,516,404)"/><rect x="530" y="390" width="28" height="28" transform="rotate(0,544,404)"/><rect x="558" y="390" width="28" height="28" transform="rotate(0,572,404)"/><rect x="586" y="390" width="28" height="28" transform="rotate(0,600,404)"/><rect x="614" y="390" width="28" height="28" transform="rotate(0,628,404)"/><rect x="754" y="390" width="28" height="28" transform="rotate(0,768,404)"/><path d="M 838 390v 28h 14a 14 14, 0, 0, 0, 0 -28" transform="rotate(90,852,404)"/><path d="M 894 390v 28h 14a 14 14, 0, 0, 0, 0 -28" transform="rotate(-90,908,404)"/><rect x="950" y="390" width="28" height="28" transform="rotate(0,964,404)"/><rect x="978" y="390" width="28" height="28" transform="rotate(0,992,404)"/><rect x="1006" y="390" width="28" height="28" transform="rotate(0,1020,404)"/><rect x="1034" y="390" width="28" height="28" transform="rotate(0,1048,404)"/><rect x="1062" y="390" width="28" height="28" transform="rotate(0,1076,404)"/><path d="M 1090 390v 28h 28v -14a 14 14, 0, 0, 0, -14 -14" transform="rotate(0,1104,404)"/><rect x="1146" y="390" width="28" height="28" transform="rotate(0,1160,404)"/><path d="M 26 418v 28h 14a 14 14, 0, 0, 0, 0 -28" transform="rotate(180,40,432)"/><rect x="54" y="418" width="28" height="28" transform="rotate(0,68,432)"/><rect x="82" y="418" width="28" height="28" transform="rotate(0,96,432)"/><rect x="110" y="418" width="28" height="28" transform="rotate(0,124,432)"/><rect x="138" y="418" width="28" height="28" transform="rotate(0,152,432)"/><rect x="166" y="418" width="28" height="28" transform="rotate(0,180,432)"/><rect x="194" y="418" width="28" height="28" transform="rotate(0,208,432)"/><rect x="222" y="418" width="28" height="28" transform="rotate(0,236,432)"/><path d="M 278 418v 28h 14a 14 14, 0, 0, 0, 0 -28" transform="rotate(180,292,432)"/><path d="M 306 418v 28h 14a 14 14, 0, 0, 0, 0 -28" transform="rotate(0,320,432)"/><rect x="390" y="418" width="28" height="28" transform="rotate(0,404,432)"/><rect x="418" y="418" width="28" height="28" transform="rotate(0,432,432)"/><path d="M 446 418v 28h 28v -14a 14 14, 0, 0, 0, -14 -14" transform="rotate(0,460,432)"/><rect x="502" y="418" width="28" height="28" transform="rotate(0,516,432)"/><rect x="530" y="418" width="28" height="28" transform="rotate(0,544,432)"/><path d="M 558 418v 28h 28v -14a 14 14, 0, 0, 0, -14 -14" transform="rotate(90,572,432)"/><path d="M 614 418v 28h 14a 14 14, 0, 0, 0, 0 -28" transform="rotate(90,628,432)"/><rect x="754" y="418" width="28" height="28" transform="rotate(0,768,432)"/><path d="M 782 418v 28h 28v -14a 14 14, 0, 0, 0, -14 -14" transform="rotate(0,796,432)"/><path d="M 866 418v 28h 14a 14 14, 0, 0, 0, 0 -28" transform="rotate(180,880,432)"/><rect x="894" y="418" width="28" height="28" transform="rotate(0,908,432)"/><path d="M 950 418v 28h 28v -14a 14 14, 0, 0, 0, -14 -14" transform="rotate(180,964,432)"/><path d="M 978 418v 28h 28v -14a 14 14, 0, 0, 0, -14 -14" transform="rotate(90,992,432)"/><rect x="1034" y="418" width="28" height="28" transform="rotate(0,1048,432)"/><rect x="1062" y="418" width="28" height="28" transform="rotate(0,1076,432)"/><path d="M 1090 418v 28h 28v -14a 14 14, 0, 0, 0, -14 -14" transform="rotate(90,1104,432)"/><rect x="1146" y="418" width="28" height="28" transform="rotate(0,1160,432)"/><path d="M 82 446v 28h 14a 14 14, 0, 0, 0, 0 -28" transform="rotate(90,96,460)"/><rect x="222" y="446" width="28" height="28" transform="rotate(0,236,460)"/><rect x="390" y="446" width="28" height="28" transform="rotate(0,404,460)"/><rect x="418" y="446" width="28" height="28" transform="rotate(0,432,460)"/><path d="M 446 446v 28h 28v -14a 14 14, 0, 0, 0, -14 -14" transform="rotate(90,460,460)"/><path d="M 502 446v 28h 28v -14a 14 14, 0, 0, 0, -14 -14" transform="rotate(180,516,460)"/><path d="M 530 446v 28h 28v -14a 14 14, 0, 0, 0, -14 -14" transform="rotate(90,544,460)"/><circle cx="656" cy="460" r="14" transform="rotate(0,656,460)"/><circle cx="712" cy="460" r="14" transform="rotate(0,712,460)"/><path d="M 754 446v 28h 28v -14a 14 14, 0, 0, 0, -14 -14" transform="rotate(180,768,460)"/><rect x="782" y="446" width="28" height="28" transform="rotate(0,796,460)"/><rect x="810" y="446" width="28" height="28" transform="rotate(0,824,460)"/><path d="M 838 446v 28h 28v -14a 14 14, 0, 0, 0, -14 -14" transform="rotate(0,852,460)"/><path d="M 894 446v 28h 28v -14a 14 14, 0, 0, 0, -14 -14" transform="rotate(180,908,460)"/><path d="M 922 446v 28h 28v -14a 14 14, 0, 0, 0, -14 -14" transform="rotate(0,936,460)"/><path d="M 1034 446v 28h 28v -14a 14 14, 0, 0, 0, -14 -14" transform="rotate(180,1048,460)"/><rect x="1062" y="446" width="28" height="28" transform="rotate(0,1076,460)"/><path d="M 1146 446v 28h 14a 14 14, 0, 0, 0, 0 -28" transform="rotate(90,1160,460)"/><path d="M 26 474v 28h 28v -14a 14 14, 0, 0, 0, -14 -14" transform="rotate(-90,40,488)"/><path d="M 54 474v 28h 14a 14 14, 0, 0, 0, 0 -28" transform="rotate(0,68,488)"/><circle cx="124" cy="488" r="14" transform="rotate(0,124,488)"/><path d="M 166 474v 28h 28v -14a 14 14, 0, 0, 0, -14 -14" transform="rotate(-90,180,488)"/><rect x="194" y="474" width="28" height="28" transform="rotate(0,208,488)"/><rect x="222" y="474" width="28" height="28" transform="rotate(0,236,488)"/><path d="M 362 474v 28h 28v -14a 14 14, 0, 0, 0, -14 -14" transform="rotate(-90,376,488)"/><rect x="390" y="474" width="28" height="28" transform="rotate(0,404,488)"/><path d="M 670 474v 28h 14a 14 14, 0, 0, 0, 0 -28" transform="rotate(-90,684,488)"/><path d="M 810 474v 28h 28v -14a 14 14, 0, 0, 0, -14 -14" transform="rotate(180,824,488)"/><rect x="838" y="474" width="28" height="28" transform="rotate(0,852,488)"/><path d="M 922 474v 28h 14a 14 14, 0, 0, 0, 0 -28" transform="rotate(90,936,488)"/><path d="M 1006 474v 28h 14a 14 14, 0, 0, 0, 0 -28" transform="rotate(-90,1020,488)"/><path d="M 1062 474v 28h 14a 14 14, 0, 0, 0, 0 -28" transform="rotate(90,1076,488)"/><path d="M 26 502v 28h 14a 14 14, 0, 0, 0, 0 -28" transform="rotate(90,40,516)"/><circle cx="96" cy="516" r="14" transform="rotate(0,96,516)"/><path d="M 138 502v 28h 14a 14 14, 0, 0, 0, 0 -28" transform="rotate(180,152,516)"/><path d="M 166 502v 28h 28v -14a 14 14, 0, 0, 0, -14 -14" transform="rotate(90,180,516)"/><rect x="222" y="502" width="28" height="28" transform="rotate(0,236,516)"/><path d="M 306 502v 28h 14a 14 14, 0, 0, 0, 0 -28" transform="rotate(180,320,516)"/><rect x="334" y="502" width="28" height="28" transform="rotate(0,348,516)"/><rect x="362" y="502" width="28" height="28" transform="rotate(0,376,516)"/><rect x="390" y="502" width="28" height="28" transform="rotate(0,404,516)"/><path d="M 418 502v 28h 28v -14a 14 14, 0, 0, 0, -14 -14" transform="rotate(0,432,516)"/><path d="M 502 502v 28h 28v -14a 14 14, 0, 0, 0, -14 -14" transform="rotate(-90,516,516)"/><path d="M 530 502v 28h 14a 14 14, 0, 0, 0, 0 -28" transform="rotate(0,544,516)"/><path d="M 586 502v 28h 14a 14 14, 0, 0, 0, 0 -28" transform="rotate(180,600,516)"/><rect x="614" y="502" width="28" height="28" transform="rotate(0,628,516)"/><rect x="642" y="502" width="28" height="28" transform="rotate(0,656,516)"/><rect x="670" y="502" width="28" height="28" transform="rotate(0,684,516)"/><circle cx="740" cy="516" r="14" transform="rotate(0,740,516)"/><path d="M 782 502v 28h 14a 14 14, 0, 0, 0, 0 -28" transform="rotate(-90,796,516)"/><path d="M 838 502v 28h 28v -14a 14 14, 0, 0, 0, -14 -14" transform="rotate(180,852,516)"/><path d="M 866 502v 28h 28v -14a 14 14, 0, 0, 0, -14 -14" transform="rotate(0,880,516)"/><path d="M 950 502v 28h 28v -14a 14 14, 0, 0, 0, -14 -14" transform="rotate(-90,964,516)"/><rect x="978" y="502" width="28" height="28" transform="rotate(0,992,516)"/><rect x="1006" y="502" width="28" height="28" transform="rotate(0,1020,516)"/><path d="M 1034 502v 28h 14a 14 14, 0, 0, 0, 0 -28" transform="rotate(0,1048,516)"/><path d="M 1146 502v 28h 14a 14 14, 0, 0, 0, 0 -28" transform="rotate(-90,1160,516)"/><path d="M 54 530v 28h 14a 14 14, 0, 0, 0, 0 -28" transform="rotate(-90,68,544)"/><path d="M 110 530v 28h 14a 14 14, 0, 0, 0, 0 -28" transform="rotate(-90,124,544)"/><path d="M 194 530v 28h 14a 14 14, 0, 0, 0, 0 -28" transform="rotate(180,208,544)"/><rect x="222" y="530" width="28" height="28" transform="rotate(0,236,544)"/><rect x="334" y="530" width="28" height="28" transform="rotate(0,348,544)"/><rect x="418" y="530" width="28" height="28" transform="rotate(0,432,544)"/><path d="M 446 530v 28h 28v -14a 14 14, 0, 0, 0, -14 -14" transform="rotate(0,460,544)"/><rect x="502" y="530" width="28" height="28" transform="rotate(0,516,544)"/><path d="M 614 530v 28h 14a 14 14, 0, 0, 0, 0 -28" transform="rotate(90,628,544)"/><path d="M 670 530v 28h 14a 14 14, 0, 0, 0, 0 -28" transform="rotate(90,684,544)"/><rect x="782" y="530" width="28" height="28" transform="rotate(0,796,544)"/><path d="M 866 530v 28h 14a 14 14, 0, 0, 0, 0 -28" transform="rotate(90,880,544)"/><path d="M 950 530v 28h 14a 14 14, 0, 0, 0, 0 -28" transform="rotate(90,964,544)"/><rect x="1006" y="530" width="28" height="28" transform="rotate(0,1020,544)"/><circle cx="1104" cy="544" r="14" transform="rotate(0,1104,544)"/><path d="M 1146 530v 28h 14a 14 14, 0, 0, 0, 0 -28" transform="rotate(90,1160,544)"/><path d="M 54 558v 28h 14a 14 14, 0, 0, 0, 0 -28" transform="rotate(90,68,572)"/><path d="M 110 558v 28h 28v -14a 14 14, 0, 0, 0, -14 -14" transform="rotate(180,124,572)"/><path d="M 138 558v 28h 14a 14 14, 0, 0, 0, 0 -28" transform="rotate(0,152,572)"/><path d="M 222 558v 28h 14a 14 14, 0, 0, 0, 0 -28" transform="rotate(90,236,572)"/><circle cx="292" cy="572" r="14" transform="rotate(0,292,572)"/><path d="M 334 558v 28h 28v -14a 14 14, 0, 0, 0, -14 -14" transform="rotate(180,348,572)"/><path d="M 362 558v 28h 28v -14a 14 14, 0, 0, 0, -14 -14" transform="rotate(0,376,572)"/><rect x="418" y="558" width="28" height="28" transform="rotate(0,432,572)"/><path d="M 446 558v 28h 28v -14a 14 14, 0, 0, 0, -14 -14" transform="rotate(90,460,572)"/><rect x="502" y="558" width="28" height="28" transform="rotate(0,516,572)"/><circle cx="656" cy="572" r="14" transform="rotate(0,656,572)"/><circle cx="712" cy="572" r="14" transform="rotate(0,712,572)"/><path d="M 754 558v 28h 28v -14a 14 14, 0, 0, 0, -14 -14" transform="rotate(-90,768,572)"/><rect x="782" y="558" width="28" height="28" transform="rotate(0,796,572)"/><path d="M 978 558v 28h 14a 14 14, 0, 0, 0, 0 -28" transform="rotate(180,992,572)"/><rect x="1006" y="558" width="28" height="28" transform="rotate(0,1020,572)"/><path d="M 1062 558v 28h 14a 14 14, 0, 0, 0, 0 -28" transform="rotate(-90,1076,572)"/><path d="M 1118 558v 28h 14a 14 14, 0, 0, 0, 0 -28" transform="rotate(-90,1132,572)"/><circle cx="208" cy="600" r="14" transform="rotate(0,208,600)"/><circle cx="320" cy="600" r="14" transform="rotate(0,320,600)"/><path d="M 362 586v 28h 14a 14 14, 0, 0, 0, 0 -28" transform="rotate(90,376,600)"/><rect x="418" y="586" width="28" height="28" transform="rotate(0,432,600)"/><path d="M 502 586v 28h 14a 14 14, 0, 0, 0, 0 -28" transform="rotate(90,516,600)"/><circle cx="600" cy="600" r="14" transform="rotate(0,600,600)"/><path d="M 670 586v 28h 14a 14 14, 0, 0, 0, 0 -28" transform="rotate(-90,684,600)"/><path d="M 726 586v 28h 28v -14a 14 14, 0, 0, 0, -14 -14" transform="rotate(-90,740,600)"/><rect x="754" y="586" width="28" height="28" transform="rotate(0,768,600)"/><rect x="782" y="586" width="28" height="28" transform="rotate(0,796,600)"/><path d="M 810 586v 28h 28v -14a 14 14, 0, 0, 0, -14 -14" transform="rotate(0,824,600)"/><path d="M 922 586v 28h 14a 14 14, 0, 0, 0, 0 -28" transform="rotate(180,936,600)"/><path d="M 950 586v 28h 14a 14 14, 0, 0, 0, 0 -28" transform="rotate(0,964,600)"/><rect x="1006" y="586" width="28" height="28" transform="rotate(0,1020,600)"/><path d="M 1062 586v 28h 14a 14 14, 0, 0, 0, 0 -28" transform="rotate(90,1076,600)"/><path d="M 1118 586v 28h 28v -14a 14 14, 0, 0, 0, -14 -14" transform="rotate(180,1132,600)"/><path d="M 1146 586v 28h 28v -14a 14 14, 0, 0, 0, -14 -14" transform="rotate(0,1160,600)"/><path d="M 26 614v 28h 14a 14 14, 0, 0, 0, 0 -28" transform="rotate(-90,40,628)"/><path d="M 82 614v 28h 28v -14a 14 14, 0, 0, 0, -14 -14" transform="rotate(-90,96,628)"/><rect x="110" y="614" width="28" height="28" transform="rotate(0,124,628)"/><rect x="138" y="614" width="28" height="28" transform="rotate(0,152,628)"/><path d="M 166 614v 28h 28v -14a 14 14, 0, 0, 0, -14 -14" transform="rotate(0,180,628)"/><path d="M 222 614v 28h 28v -14a 14 14, 0, 0, 0, -14 -14" transform="rotate(-90,236,628)"/><rect x="250" y="614" width="28" height="28" transform="rotate(0,264,628)"/><path d="M 278 614v 28h 28v -14a 14 14, 0, 0, 0, -14 -14" transform="rotate(0,292,628)"/><path d="M 334 614v 28h 14a 14 14, 0, 0, 0, 0 -28" transform="rotate(-90,348,628)"/><rect x="418" y="614" width="28" height="28" transform="rotate(0,432,628)"/><path d="M 474 614v 28h 14a 14 14, 0, 0, 0, 0 -28" transform="rotate(-90,488,628)"/><path d="M 558 614v 28h 14a 14 14, 0, 0, 0, 0 -28" transform="rotate(-90,572,628)"/><path d="M 642 614v 28h 28v -14a 14 14, 0, 0, 0, -14 -14" transform="rotate(-90,656,628)"/><rect x="670" y="614" width="28" height="28" transform="rotate(0,684,628)"/><path d="M 726 614v 28h 14a 14 14, 0, 0, 0, 0 -28" transform="rotate(90,740,628)"/><rect x="782" y="614" width="28" height="28" transform="rotate(0,796,628)"/><path d="M 810 614v 28h 28v -14a 14 14, 0, 0, 0, -14 -14" transform="rotate(90,824,628)"/><path d="M 866 614v 28h 14a 14 14, 0, 0, 0, 0 -28" transform="rotate(-90,880,628)"/><path d="M 978 614v 28h 14a 14 14, 0, 0, 0, 0 -28" transform="rotate(180,992,628)"/><rect x="1006" y="614" width="28" height="28" transform="rotate(0,1020,628)"/><path d="M 1034 614v 28h 28v -14a 14 14, 0, 0, 0, -14 -14" transform="rotate(0,1048,628)"/><path d="M 1090 614v 28h 14a 14 14, 0, 0, 0, 0 -28" transform="rotate(-90,1104,628)"/><rect x="1146" y="614" width="28" height="28" transform="rotate(0,1160,628)"/><rect x="26" y="642" width="28" height="28" transform="rotate(0,40,656)"/><rect x="82" y="642" width="28" height="28" transform="rotate(0,96,656)"/><rect x="138" y="642" width="28" height="28" transform="rotate(0,152,656)"/><rect x="166" y="642" width="28" height="28" transform="rotate(0,180,656)"/><rect x="194" y="642" width="28" height="28" transform="rotate(0,208,656)"/><rect x="222" y="642" width="28" height="28" transform="rotate(0,236,656)"/><path d="M 278 642v 28h 14a 14 14, 0, 0, 0, 0 -28" transform="rotate(90,292,656)"/><rect x="334" y="642" width="28" height="28" transform="rotate(0,348,656)"/><path d="M 390 642v 28h 14a 14 14, 0, 0, 0, 0 -28" transform="rotate(180,404,656)"/><path d="M 418 642v 28h 28v -14a 14 14, 0, 0, 0, -14 -14" transform="rotate(90,432,656)"/><path d="M 474 642v 28h 28v -14a 14 14, 0, 0, 0, -14 -14" transform="rotate(180,488,656)"/><path d="M 502 642v 28h 14a 14 14, 0, 0, 0, 0 -28" transform="rotate(0,516,656)"/><rect x="558" y="642" width="28" height="28" transform="rotate(0,572,656)"/><rect x="586" y="642" width="28" height="28" transform="rotate(0,600,656)"/><rect x="614" y="642" width="28" height="28" transform="rotate(0,628,656)"/><rect x="642" y="642" width="28" height="28" transform="rotate(0,656,656)"/><rect x="670" y="642" width="28" height="28" transform="rotate(0,684,656)"/><path d="M 754 642v 28h 28v -14a 14 14, 0, 0, 0, -14 -14" transform="rotate(-90,768,656)"/><rect x="782" y="642" width="28" height="28" transform="rotate(0,796,656)"/><path d="M 838 642v 28h 28v -14a 14 14, 0, 0, 0, -14 -14" transform="rotate(-90,852,656)"/><rect x="866" y="642" width="28" height="28" transform="rotate(0,880,656)"/><circle cx="936" cy="656" r="14" transform="rotate(0,936,656)"/><path d="M 1034 642v 28h 14a 14 14, 0, 0, 0, 0 -28" transform="rotate(90,1048,656)"/><path d="M 1090 642v 28h 14a 14 14, 0, 0, 0, 0 -28" transform="rotate(90,1104,656)"/><path d="M 1146 642v 28h 14a 14 14, 0, 0, 0, 0 -28" transform="rotate(90,1160,656)"/><rect x="26" y="670" width="28" height="28" transform="rotate(0,40,684)"/><rect x="54" y="670" width="28" height="28" transform="rotate(0,68,684)"/><rect x="82" y="670" width="28" height="28" transform="rotate(0,96,684)"/><rect x="110" y="670" width="28" height="28" transform="rotate(0,124,684)"/><rect x="138" y="670" width="28" height="28" transform="rotate(0,152,684)"/><path d="M 166 670v 28h 28v -14a 14 14, 0, 0, 0, -14 -14" transform="rotate(90,180,684)"/><path d="M 222 670v 28h 14a 14 14, 0, 0, 0, 0 -28" transform="rotate(90,236,684)"/><path d="M 306 670v 28h 28v -14a 14 14, 0, 0, 0, -14 -14" transform="rotate(-90,320,684)"/><path d="M 334 670v 28h 28v -14a 14 14, 0, 0, 0, -14 -14" transform="rotate(90,348,684)"/><path d="M 446 670v 28h 14a 14 14, 0, 0, 0, 0 -28" transform="rotate(-90,460,684)"/><path d="M 558 670v 28h 28v -14a 14 14, 0, 0, 0, -14 -14" transform="rotate(180,572,684)"/><rect x="586" y="670" width="28" height="28" transform="rotate(0,600,684)"/><rect x="614" y="670" width="28" height="28" transform="rotate(0,628,684)"/><rect x="642" y="670" width="28" height="28" transform="rotate(0,656,684)"/><rect x="670" y="670" width="28" height="28" transform="rotate(0,684,684)"/><path d="M 698 670v 28h 14a 14 14, 0, 0, 0, 0 -28" transform="rotate(0,712,684)"/><path d="M 754 670v 28h 28v -14a 14 14, 0, 0, 0, -14 -14" transform="rotate(180,768,684)"/><rect x="782" y="670" width="28" height="28" transform="rotate(0,796,684)"/><rect x="810" y="670" width="28" height="28" transform="rotate(0,824,684)"/><rect x="838" y="670" width="28" height="28" transform="rotate(0,852,684)"/><rect x="866" y="670" width="28" height="28" transform="rotate(0,880,684)"/><path d="M 894 670v 28h 28v -14a 14 14, 0, 0, 0, -14 -14" transform="rotate(0,908,684)"/><circle cx="992" cy="684" r="14" transform="rotate(0,992,684)"/><path d="M 1062 670v 28h 14a 14 14, 0, 0, 0, 0 -28" transform="rotate(-90,1076,684)"/><rect x="26" y="698" width="28" height="28" transform="rotate(0,40,712)"/><rect x="110" y="698" width="28" height="28" transform="rotate(0,124,712)"/><rect x="138" y="698" width="28" height="28" transform="rotate(0,152,712)"/><circle cx="208" cy="712" r="14" transform="rotate(0,208,712)"/><path d="M 250 698v 28h 14a 14 14, 0, 0, 0, 0 -28" transform="rotate(-90,264,712)"/><rect x="306" y="698" width="28" height="28" transform="rotate(0,320,712)"/><circle cx="376" cy="712" r="14" transform="rotate(0,376,712)"/><path d="M 418 698v 28h 28v -14a 14 14, 0, 0, 0, -14 -14" transform="rotate(-90,432,712)"/><rect x="446" y="698" width="28" height="28" transform="rotate(0,460,712)"/><circle cx="516" cy="712" r="14" transform="rotate(0,516,712)"/><rect x="586" y="698" width="28" height="28" transform="rotate(0,600,712)"/><rect x="614" y="698" width="28" height="28" transform="rotate(0,628,712)"/><rect x="642" y="698" width="28" height="28" transform="rotate(0,656,712)"/><rect x="810" y="698" width="28" height="28" transform="rotate(0,824,712)"/><path d="M 838 698v 28h 28v -14a 14 14, 0, 0, 0, -14 -14" transform="rotate(90,852,712)"/><path d="M 894 698v 28h 28v -14a 14 14, 0, 0, 0, -14 -14" transform="rotate(180,908,712)"/><rect x="922" y="698" width="28" height="28" transform="rotate(0,936,712)"/><path d="M 950 698v 28h 28v -14a 14 14, 0, 0, 0, -14 -14" transform="rotate(0,964,712)"/><path d="M 1006 698v 28h 14a 14 14, 0, 0, 0, 0 -28" transform="rotate(-90,1020,712)"/><path d="M 1062 698v 28h 14a 14 14, 0, 0, 0, 0 -28" transform="rotate(90,1076,712)"/><path d="M 1118 698v 28h 14a 14 14, 0, 0, 0, 0 -28" transform="rotate(180,1132,712)"/><path d="M 1146 698v 28h 28v -14a 14 14, 0, 0, 0, -14 -14" transform="rotate(0,1160,712)"/><path d="M 26 726v 28h 14a 14 14, 0, 0, 0, 0 -28" transform="rotate(90,40,740)"/><path d="M 82 726v 28h 14a 14 14, 0, 0, 0, 0 -28" transform="rotate(180,96,740)"/><rect x="110" y="726" width="28" height="28" transform="rotate(0,124,740)"/><rect x="138" y="726" width="28" height="28" transform="rotate(0,152,740)"/><path d="M 166 726v 28h 14a 14 14, 0, 0, 0, 0 -28" transform="rotate(0,180,740)"/><path d="M 222 726v 28h 28v -14a 14 14, 0, 0, 0, -14 -14" transform="rotate(-90,236,740)"/><rect x="250" y="726" width="28" height="28" transform="rotate(0,264,740)"/><path d="M 306 726v 28h 14a 14 14, 0, 0, 0, 0 -28" transform="rotate(90,320,740)"/><path d="M 418 726v 28h 28v -14a 14 14, 0, 0, 0, -14 -14" transform="rotate(180,432,740)"/><path d="M 446 726v 28h 28v -14a 14 14, 0, 0, 0, -14 -14" transform="rotate(90,460,740)"/><circle cx="544" cy="740" r="14" transform="rotate(0,544,740)"/><path d="M 586 726v 28h 28v -14a 14 14, 0, 0, 0, -14 -14" transform="rotate(180,600,740)"/><rect x="614" y="726" width="28" height="28" transform="rotate(0,628,740)"/><rect x="642" y="726" width="28" height="28" transform="rotate(0,656,740)"/><path d="M 670 726v 28h 28v -14a 14 14, 0, 0, 0, -14 -14" transform="rotate(0,684,740)"/><path d="M 754 726v 28h 28v -14a 14 14, 0, 0, 0, -14 -14" transform="rotate(-90,768,740)"/><rect x="782" y="726" width="28" height="28" transform="rotate(0,796,740)"/><rect x="810" y="726" width="28" height="28" transform="rotate(0,824,740)"/><path d="M 866 726v 28h 14a 14 14, 0, 0, 0, 0 -28" transform="rotate(-90,880,740)"/><rect x="922" y="726" width="28" height="28" transform="rotate(0,936,740)"/><rect x="950" y="726" width="28" height="28" transform="rotate(0,964,740)"/><rect x="978" y="726" width="28" height="28" transform="rotate(0,992,740)"/><rect x="1006" y="726" width="28" height="28" transform="rotate(0,1020,740)"/><path d="M 1034 726v 28h 14a 14 14, 0, 0, 0, 0 -28" transform="rotate(0,1048,740)"/><circle cx="1104" cy="740" r="14" transform="rotate(0,1104,740)"/><rect x="1146" y="726" width="28" height="28" transform="rotate(0,1160,740)"/><path d="M 110 754v 28h 28v -14a 14 14, 0, 0, 0, -14 -14" transform="rotate(180,124,768)"/><rect x="138" y="754" width="28" height="28" transform="rotate(0,152,768)"/><path d="M 194 754v 28h 14a 14 14, 0, 0, 0, 0 -28" transform="rotate(180,208,768)"/><rect x="222" y="754" width="28" height="28" transform="rotate(0,236,768)"/><rect x="250" y="754" width="28" height="28" transform="rotate(0,264,768)"/><path d="M 278 754v 28h 28v -14a 14 14, 0, 0, 0, -14 -14" transform="rotate(0,292,768)"/><path d="M 334 754v 28h 28v -14a 14 14, 0, 0, 0, -14 -14" transform="rotate(-90,348,768)"/><path d="M 362 754v 28h 28v -14a 14 14, 0, 0, 0, -14 -14" transform="rotate(0,376,768)"/><circle cx="488" cy="768" r="14" transform="rotate(0,488,768)"/><rect x="642" y="754" width="28" height="28" transform="rotate(0,656,768)"/><rect x="670" y="754" width="28" height="28" transform="rotate(0,684,768)"/><rect x="754" y="754" width="28" height="28" transform="rotate(0,768,768)"/><rect x="782" y="754" width="28" height="28" transform="rotate(0,796,768)"/><rect x="810" y="754" width="28" height="28" transform="rotate(0,824,768)"/><rect x="838" y="754" width="28" height="28" transform="rotate(0,852,768)"/><path d="M 866 754v 28h 28v -14a 14 14, 0, 0, 0, -14 -14" transform="rotate(90,880,768)"/><rect x="922" y="754" width="28" height="28" transform="rotate(0,936,768)"/><rect x="950" y="754" width="28" height="28" transform="rotate(0,964,768)"/><path d="M 978 754v 28h 28v -14a 14 14, 0, 0, 0, -14 -14" transform="rotate(90,992,768)"/><rect x="1146" y="754" width="28" height="28" transform="rotate(0,1160,768)"/><path d="M 26 782v 28h 14a 14 14, 0, 0, 0, 0 -28" transform="rotate(-90,40,796)"/><path d="M 82 782v 28h 14a 14 14, 0, 0, 0, 0 -28" transform="rotate(-90,96,796)"/><path d="M 138 782v 28h 28v -14a 14 14, 0, 0, 0, -14 -14" transform="rotate(180,152,796)"/><path d="M 166 782v 28h 28v -14a 14 14, 0, 0, 0, -14 -14" transform="rotate(0,180,796)"/><rect x="250" y="782" width="28" height="28" transform="rotate(0,264,796)"/><rect x="278" y="782" width="28" height="28" transform="rotate(0,292,796)"/><rect x="306" y="782" width="28" height="28" transform="rotate(0,320,796)"/><rect x="334" y="782" width="28" height="28" transform="rotate(0,348,796)"/><rect x="362" y="782" width="28" height="28" transform="rotate(0,376,796)"/><path d="M 446 782v 28h 14a 14 14, 0, 0, 0, 0 -28" transform="rotate(-90,460,796)"/><circle cx="544" cy="796" r="14" transform="rotate(0,544,796)"/><rect x="642" y="782" width="28" height="28" transform="rotate(0,656,796)"/><rect x="670" y="782" width="28" height="28" transform="rotate(0,684,796)"/><path d="M 698 782v 28h 14a 14 14, 0, 0, 0, 0 -28" transform="rotate(0,712,796)"/><path d="M 754 782v 28h 28v -14a 14 14, 0, 0, 0, -14 -14" transform="rotate(180,768,796)"/><path d="M 782 782v 28h 28v -14a 14 14, 0, 0, 0, -14 -14" transform="rotate(90,796,796)"/><rect x="838" y="782" width="28" height="28" transform="rotate(0,852,796)"/><path d="M 894 782v 28h 14a 14 14, 0, 0, 0, 0 -28" transform="rotate(180,908,796)"/><rect x="922" y="782" width="28" height="28" transform="rotate(0,936,796)"/><rect x="950" y="782" width="28" height="28" transform="rotate(0,964,796)"/><circle cx="1076" cy="796" r="14" transform="rotate(0,1076,796)"/><rect x="1146" y="782" width="28" height="28" transform="rotate(0,1160,796)"/><rect x="26" y="810" width="28" height="28" transform="rotate(0,40,824)"/><rect x="54" y="810" width="28" height="28" transform="rotate(0,68,824)"/><rect x="82" y="810" width="28" height="28" transform="rotate(0,96,824)"/><path d="M 110 810v 28h 28v -14a 14 14, 0, 0, 0, -14 -14" transform="rotate(0,124,824)"/><rect x="166" y="810" width="28" height="28" transform="rotate(0,180,824)"/><rect x="194" y="810" width="28" height="28" transform="rotate(0,208,824)"/><rect x="222" y="810" width="28" height="28" transform="rotate(0,236,824)"/><path d="M 250 810v 28h 28v -14a 14 14, 0, 0, 0, -14 -14" transform="rotate(90,264,824)"/><path d="M 306 810v 28h 28v -14a 14 14, 0, 0, 0, -14 -14" transform="rotate(180,320,824)"/><rect x="334" y="810" width="28" height="28" transform="rotate(0,348,824)"/><path d="M 362 810v 28h 28v -14a 14 14, 0, 0, 0, -14 -14" transform="rotate(90,376,824)"/><rect x="446" y="810" width="28" height="28" transform="rotate(0,460,824)"/><path d="M 558 810v 28h 14a 14 14, 0, 0, 0, 0 -28" transform="rotate(180,572,824)"/><path d="M 586 810v 28h 28v -14a 14 14, 0, 0, 0, -14 -14" transform="rotate(0,600,824)"/><rect x="642" y="810" width="28" height="28" transform="rotate(0,656,824)"/><path d="M 670 810v 28h 28v -14a 14 14, 0, 0, 0, -14 -14" transform="rotate(90,684,824)"/><path d="M 838 810v 28h 14a 14 14, 0, 0, 0, 0 -28" transform="rotate(90,852,824)"/><rect x="922" y="810" width="28" height="28" transform="rotate(0,936,824)"/><path d="M 950 810v 28h 28v -14a 14 14, 0, 0, 0, -14 -14" transform="rotate(90,964,824)"/><rect x="1146" y="810" width="28" height="28" transform="rotate(0,1160,824)"/><path d="M 26 838v 28h 14a 14 14, 0, 0, 0, 0 -28" transform="rotate(90,40,852)"/><rect x="82" y="838" width="28" height="28" transform="rotate(0,96,852)"/><path d="M 110 838v 28h 28v -14a 14 14, 0, 0, 0, -14 -14" transform="rotate(90,124,852)"/><rect x="166" y="838" width="28" height="28" transform="rotate(0,180,852)"/><rect x="222" y="838" width="28" height="28" transform="rotate(0,236,852)"/><path d="M 278 838v 28h 14a 14 14, 0, 0, 0, 0 -28" transform="rotate(-90,292,852)"/><path d="M 418 838v 28h 14a 14 14, 0, 0, 0, 0 -28" transform="rotate(180,432,852)"/><rect x="446" y="838" width="28" height="28" transform="rotate(0,460,852)"/><path d="M 530 838v 28h 14a 14 14, 0, 0, 0, 0 -28" transform="rotate(-90,544,852)"/><path d="M 586 838v 28h 28v -14a 14 14, 0, 0, 0, -14 -14" transform="rotate(180,600,852)"/><rect x="614" y="838" width="28" height="28" transform="rotate(0,628,852)"/><rect x="642" y="838" width="28" height="28" transform="rotate(0,656,852)"/><path d="M 698 838v 28h 28v -14a 14 14, 0, 0, 0, -14 -14" transform="rotate(-90,712,852)"/><path d="M 726 838v 28h 28v -14a 14 14, 0, 0, 0, -14 -14" transform="rotate(0,740,852)"/><path d="M 810 838v 28h 14a 14 14, 0, 0, 0, 0 -28" transform="rotate(-90,824,852)"/><path d="M 866 838v 28h 28v -14a 14 14, 0, 0, 0, -14 -14" transform="rotate(-90,880,852)"/><rect x="894" y="838" width="28" height="28" transform="rotate(0,908,852)"/><rect x="922" y="838" width="28" height="28" transform="rotate(0,936,852)"/><circle cx="992" cy="852" r="14" transform="rotate(0,992,852)"/><circle cx="1048" cy="852" r="14" transform="rotate(0,1048,852)"/><rect x="1146" y="838" width="28" height="28" transform="rotate(0,1160,852)"/><path d="M 82 866v 28h 14a 14 14, 0, 0, 0, 0 -28" transform="rotate(90,96,880)"/><path d="M 138 866v 28h 14a 14 14, 0, 0, 0, 0 -28" transform="rotate(180,152,880)"/><rect x="166" y="866" width="28" height="28" transform="rotate(0,180,880)"/><rect x="194" y="866" width="28" height="28" transform="rotate(0,208,880)"/><rect x="222" y="866" width="28" height="28" transform="rotate(0,236,880)"/><rect x="250" y="866" width="28" height="28" transform="rotate(0,264,880)"/><rect x="278" y="866" width="28" height="28" transform="rotate(0,292,880)"/><path d="M 306 866v 28h 14a 14 14, 0, 0, 0, 0 -28" transform="rotate(0,320,880)"/><rect x="446" y="866" width="28" height="28" transform="rotate(0,460,880)"/><rect x="474" y="866" width="28" height="28" transform="rotate(0,488,880)"/><rect x="502" y="866" width="28" height="28" transform="rotate(0,516,880)"/><path d="M 530 866v 28h 28v -14a 14 14, 0, 0, 0, -14 -14" transform="rotate(90,544,880)"/><rect x="642" y="866" width="28" height="28" transform="rotate(0,656,880)"/><rect x="670" y="866" width="28" height="28" transform="rotate(0,684,880)"/><rect x="698" y="866" width="28" height="28" transform="rotate(0,712,880)"/><rect x="726" y="866" width="28" height="28" transform="rotate(0,740,880)"/><path d="M 754 866v 28h 14a 14 14, 0, 0, 0, 0 -28" transform="rotate(0,768,880)"/><path d="M 810 866v 28h 14a 14 14, 0, 0, 0, 0 -28" transform="rotate(90,824,880)"/><rect x="866" y="866" width="28" height="28" transform="rotate(0,880,880)"/><rect x="922" y="866" width="28" height="28" transform="rotate(0,936,880)"/><path d="M 950 866v 28h 28v -14a 14 14, 0, 0, 0, -14 -14" transform="rotate(0,964,880)"/><path d="M 1062 866v 28h 28v -14a 14 14, 0, 0, 0, -14 -14" transform="rotate(-90,1076,880)"/><path d="M 1090 866v 28h 14a 14 14, 0, 0, 0, 0 -28" transform="rotate(0,1104,880)"/><path d="M 1146 866v 28h 14a 14 14, 0, 0, 0, 0 -28" transform="rotate(90,1160,880)"/><path d="M 110 894v 28h 14a 14 14, 0, 0, 0, 0 -28" transform="rotate(-90,124,908)"/><rect x="222" y="894" width="28" height="28" transform="rotate(0,236,908)"/><rect x="250" y="894" width="28" height="28" transform="rotate(0,264,908)"/><rect x="278" y="894" width="28" height="28" transform="rotate(0,292,908)"/><circle cx="348" cy="908" r="14" transform="rotate(0,348,908)"/><path d="M 390 894v 28h 28v -14a 14 14, 0, 0, 0, -14 -14" transform="rotate(-90,404,908)"/><rect x="418" y="894" width="28" height="28" transform="rotate(0,432,908)"/><rect x="446" y="894" width="28" height="28" transform="rotate(0,460,908)"/><rect x="474" y="894" width="28" height="28" transform="rotate(0,488,908)"/><circle cx="572" cy="908" r="14" transform="rotate(0,572,908)"/><path d="M 614 894v 28h 28v -14a 14 14, 0, 0, 0, -14 -14" transform="rotate(-90,628,908)"/><rect x="642" y="894" width="28" height="28" transform="rotate(0,656,908)"/><path d="M 670 894v 28h 28v -14a 14 14, 0, 0, 0, -14 -14" transform="rotate(90,684,908)"/><path d="M 838 894v 28h 28v -14a 14 14, 0, 0, 0, -14 -14" transform="rotate(-90,852,908)"/><path d="M 866 894v 28h 28v -14a 14 14, 0, 0, 0, -14 -14" transform="rotate(90,880,908)"/><rect x="922" y="894" width="28" height="28" transform="rotate(0,936,908)"/><rect x="950" y="894" width="28" height="28" transform="rotate(0,964,908)"/><path d="M 1034 894v 28h 28v -14a 14 14, 0, 0, 0, -14 -14" transform="rotate(-90,1048,908)"/><rect x="1062" y="894" width="28" height="28" transform="rotate(0,1076,908)"/><circle cx="1132" cy="908" r="14" transform="rotate(0,1132,908)"/><path d="M 26 922v 28h 14a 14 14, 0, 0, 0, 0 -28" transform="rotate(180,40,936)"/><rect x="54" y="922" width="28" height="28" transform="rotate(0,68,936)"/><rect x="82" y="922" width="28" height="28" transform="rotate(0,96,936)"/><rect x="110" y="922" width="28" height="28" transform="rotate(0,124,936)"/><path d="M 138 922v 28h 14a 14 14, 0, 0, 0, 0 -28" transform="rotate(0,152,936)"/><path d="M 194 922v 28h 14a 14 14, 0, 0, 0, 0 -28" transform="rotate(180,208,936)"/><rect x="222" y="922" width="28" height="28" transform="rotate(0,236,936)"/><rect x="250" y="922" width="28" height="28" transform="rotate(0,264,936)"/><rect x="278" y="922" width="28" height="28" transform="rotate(0,292,936)"/><path d="M 362 922v 28h 28v -14a 14 14, 0, 0, 0, -14 -14" transform="rotate(-90,376,936)"/><path d="M 390 922v 28h 28v -14a 14 14, 0, 0, 0, -14 -14" transform="rotate(90,404,936)"/><rect x="446" y="922" width="28" height="28" transform="rotate(0,460,936)"/><rect x="474" y="922" width="28" height="28" transform="rotate(0,488,936)"/><path d="M 502 922v 28h 28v -14a 14 14, 0, 0, 0, -14 -14" transform="rotate(0,516,936)"/><path d="M 614 922v 28h 14a 14 14, 0, 0, 0, 0 -28" transform="rotate(90,628,936)"/><circle cx="712" cy="936" r="14" transform="rotate(0,712,936)"/><path d="M 782 922v 28h 14a 14 14, 0, 0, 0, 0 -28" transform="rotate(-90,796,936)"/><path d="M 838 922v 28h 14a 14 14, 0, 0, 0, 0 -28" transform="rotate(90,852,936)"/><path d="M 894 922v 28h 28v -14a 14 14, 0, 0, 0, -14 -14" transform="rotate(-90,908,936)"/><rect x="922" y="922" width="28" height="28" transform="rotate(0,936,936)"/><rect x="950" y="922" width="28" height="28" transform="rotate(0,964,936)"/><rect x="978" y="922" width="28" height="28" transform="rotate(0,992,936)"/><rect x="1006" y="922" width="28" height="28" transform="rotate(0,1020,936)"/><rect x="1034" y="922" width="28" height="28" transform="rotate(0,1048,936)"/><path d="M 1062 922v 28h 28v -14a 14 14, 0, 0, 0, -14 -14" transform="rotate(90,1076,936)"/><path d="M 250 950v 28h 28v -14a 14 14, 0, 0, 0, -14 -14" transform="rotate(180,264,964)"/><path d="M 278 950v 28h 28v -14a 14 14, 0, 0, 0, -14 -14" transform="rotate(90,292,964)"/><path d="M 334 950v 28h 14a 14 14, 0, 0, 0, 0 -28" transform="rotate(180,348,964)"/><path d="M 362 950v 28h 28v -14a 14 14, 0, 0, 0, -14 -14" transform="rotate(90,376,964)"/><path d="M 418 950v 28h 28v -14a 14 14, 0, 0, 0, -14 -14" transform="rotate(-90,432,964)"/><rect x="446" y="950" width="28" height="28" transform="rotate(0,460,964)"/><rect x="502" y="950" width="28" height="28" transform="rotate(0,516,964)"/><path d="M 558 950v 28h 14a 14 14, 0, 0, 0, 0 -28" transform="rotate(-90,572,964)"/><path d="M 670 950v 28h 14a 14 14, 0, 0, 0, 0 -28" transform="rotate(-90,684,964)"/><path d="M 754 950v 28h 28v -14a 14 14, 0, 0, 0, -14 -14" transform="rotate(-90,768,964)"/><rect x="782" y="950" width="28" height="28" transform="rotate(0,796,964)"/><rect x="894" y="950" width="28" height="28" transform="rotate(0,908,964)"/><rect x="922" y="950" width="28" height="28" transform="rotate(0,936,964)"/><rect x="1034" y="950" width="28" height="28" transform="rotate(0,1048,964)"/><path d="M 1090 950v 28h 14a 14 14, 0, 0, 0, 0 -28" transform="rotate(-90,1104,964)"/><path d="M 1146 950v 28h 14a 14 14, 0, 0, 0, 0 -28" transform="rotate(-90,1160,964)"/><circle cx="320" cy="992" r="14" transform="rotate(0,320,992)"/><path d="M 418 978v 28h 28v -14a 14 14, 0, 0, 0, -14 -14" transform="rotate(180,432,992)"/><rect x="446" y="978" width="28" height="28" transform="rotate(0,460,992)"/><rect x="502" y="978" width="28" height="28" transform="rotate(0,516,992)"/><rect x="558" y="978" width="28" height="28" transform="rotate(0,572,992)"/><rect x="670" y="978" width="28" height="28" transform="rotate(0,684,992)"/><rect x="698" y="978" width="28" height="28" transform="rotate(0,712,992)"/><rect x="726" y="978" width="28" height="28" transform="rotate(0,740,992)"/><rect x="754" y="978" width="28" height="28" transform="rotate(0,768,992)"/><path d="M 782 978v 28h 28v -14a 14 14, 0, 0, 0, -14 -14" transform="rotate(90,796,992)"/><path d="M 838 978v 28h 14a 14 14, 0, 0, 0, 0 -28" transform="rotate(-90,852,992)"/><rect x="894" y="978" width="28" height="28" transform="rotate(0,908,992)"/><rect x="922" y="978" width="28" height="28" transform="rotate(0,936,992)"/><circle cx="992" cy="992" r="14" transform="rotate(0,992,992)"/><rect x="1034" y="978" width="28" height="28" transform="rotate(0,1048,992)"/><rect x="1062" y="978" width="28" height="28" transform="rotate(0,1076,992)"/><rect x="1090" y="978" width="28" height="28" transform="rotate(0,1104,992)"/><rect x="1118" y="978" width="28" height="28" transform="rotate(0,1132,992)"/><rect x="1146" y="978" width="28" height="28" transform="rotate(0,1160,992)"/><path d="M 278 1006v 28h 14a 14 14, 0, 0, 0, 0 -28" transform="rotate(-90,292,1020)"/><circle cx="348" cy="1020" r="14" transform="rotate(0,348,1020)"/><rect x="446" y="1006" width="28" height="28" transform="rotate(0,460,1020)"/><rect x="474" y="1006" width="28" height="28" transform="rotate(0,488,1020)"/><rect x="502" y="1006" width="28" height="28" transform="rotate(0,516,1020)"/><rect x="530" y="1006" width="28" height="28" transform="rotate(0,544,1020)"/><rect x="558" y="1006" width="28" height="28" transform="rotate(0,572,1020)"/><rect x="586" y="1006" width="28" height="28" transform="rotate(0,600,1020)"/><path d="M 614 1006v 28h 14a 14 14, 0, 0, 0, 0 -28" transform="rotate(0,628,1020)"/><rect x="670" y="1006" width="28" height="28" transform="rotate(0,684,1020)"/><rect x="726" y="1006" width="28" height="28" transform="rotate(0,740,1020)"/><path d="M 810 1006v 28h 14a 14 14, 0, 0, 0, 0 -28" transform="rotate(180,824,1020)"/><rect x="838" y="1006" width="28" height="28" transform="rotate(0,852,1020)"/><rect x="866" y="1006" width="28" height="28" transform="rotate(0,880,1020)"/><rect x="894" y="1006" width="28" height="28" transform="rotate(0,908,1020)"/><rect x="922" y="1006" width="28" height="28" transform="rotate(0,936,1020)"/><rect x="1034" y="1006" width="28" height="28" transform="rotate(0,1048,1020)"/><rect x="1062" y="1006" width="28" height="28" transform="rotate(0,1076,1020)"/><rect x="1146" y="1006" width="28" height="28" transform="rotate(0,1160,1020)"/><path d="M 250 1034v 28h 14a 14 14, 0, 0, 0, 0 -28" transform="rotate(180,264,1048)"/><path d="M 278 1034v 28h 28v -14a 14 14, 0, 0, 0, -14 -14" transform="rotate(90,292,1048)"/><path d="M 390 1034v 28h 14a 14 14, 0, 0, 0, 0 -28" transform="rotate(-90,404,1048)"/><path d="M 446 1034v 28h 28v -14a 14 14, 0, 0, 0, -14 -14" transform="rotate(180,460,1048)"/><rect x="474" y="1034" width="28" height="28" transform="rotate(0,488,1048)"/><rect x="502" y="1034" width="28" height="28" transform="rotate(0,516,1048)"/><rect x="558" y="1034" width="28" height="28" transform="rotate(0,572,1048)"/><path d="M 586 1034v 28h 28v -14a 14 14, 0, 0, 0, -14 -14" transform="rotate(90,600,1048)"/><rect x="670" y="1034" width="28" height="28" transform="rotate(0,684,1048)"/><rect x="726" y="1034" width="28" height="28" transform="rotate(0,740,1048)"/><path d="M 866 1034v 28h 28v -14a 14 14, 0, 0, 0, -14 -14" transform="rotate(180,880,1048)"/><rect x="894" y="1034" width="28" height="28" transform="rotate(0,908,1048)"/><rect x="922" y="1034" width="28" height="28" transform="rotate(0,936,1048)"/><rect x="950" y="1034" width="28" height="28" transform="rotate(0,964,1048)"/><rect x="978" y="1034" width="28" height="28" transform="rotate(0,992,1048)"/><rect x="1006" y="1034" width="28" height="28" transform="rotate(0,1020,1048)"/><rect x="1034" y="1034" width="28" height="28" transform="rotate(0,1048,1048)"/><rect x="1062" y="1034" width="28" height="28" transform="rotate(0,1076,1048)"/><rect x="1146" y="1034" width="28" height="28" transform="rotate(0,1160,1048)"/><path d="M 306 1062v 28h 28v -14a 14 14, 0, 0, 0, -14 -14" transform="rotate(-90,320,1076)"/><path d="M 334 1062v 28h 14a 14 14, 0, 0, 0, 0 -28" transform="rotate(0,348,1076)"/><rect x="390" y="1062" width="28" height="28" transform="rotate(0,404,1076)"/><rect x="502" y="1062" width="28" height="28" transform="rotate(0,516,1076)"/><path d="M 558 1062v 28h 14a 14 14, 0, 0, 0, 0 -28" transform="rotate(90,572,1076)"/><path d="M 614 1062v 28h 14a 14 14, 0, 0, 0, 0 -28" transform="rotate(180,628,1076)"/><rect x="642" y="1062" width="28" height="28" transform="rotate(0,656,1076)"/><rect x="670" y="1062" width="28" height="28" transform="rotate(0,684,1076)"/><rect x="726" y="1062" width="28" height="28" transform="rotate(0,740,1076)"/><rect x="754" y="1062" width="28" height="28" transform="rotate(0,768,1076)"/><rect x="782" y="1062" width="28" height="28" transform="rotate(0,796,1076)"/><rect x="810" y="1062" width="28" height="28" transform="rotate(0,824,1076)"/><path d="M 838 1062v 28h 28v -14a 14 14, 0, 0, 0, -14 -14" transform="rotate(0,852,1076)"/><rect x="894" y="1062" width="28" height="28" transform="rotate(0,908,1076)"/><path d="M 922 1062v 28h 28v -14a 14 14, 0, 0, 0, -14 -14" transform="rotate(90,936,1076)"/><path d="M 1006 1062v 28h 14a 14 14, 0, 0, 0, 0 -28" transform="rotate(90,1020,1076)"/><rect x="1062" y="1062" width="28" height="28" transform="rotate(0,1076,1076)"/><path d="M 1118 1062v 28h 28v -14a 14 14, 0, 0, 0, -14 -14" transform="rotate(-90,1132,1076)"/><rect x="1146" y="1062" width="28" height="28" transform="rotate(0,1160,1076)"/><path d="M 278 1090v 28h 28v -14a 14 14, 0, 0, 0, -14 -14" transform="rotate(-90,292,1104)"/><path d="M 306 1090v 28h 28v -14a 14 14, 0, 0, 0, -14 -14" transform="rotate(90,320,1104)"/><path d="M 362 1090v 28h 28v -14a 14 14, 0, 0, 0, -14 -14" transform="rotate(-90,376,1104)"/><path d="M 390 1090v 28h 28v -14a 14 14, 0, 0, 0, -14 -14" transform="rotate(90,404,1104)"/><circle cx="460" cy="1104" r="14" transform="rotate(0,460,1104)"/><path d="M 502 1090v 28h 28v -14a 14 14, 0, 0, 0, -14 -14" transform="rotate(180,516,1104)"/><path d="M 530 1090v 28h 28v -14a 14 14, 0, 0, 0, -14 -14" transform="rotate(0,544,1104)"/><path d="M 670 1090v 28h 28v -14a 14 14, 0, 0, 0, -14 -14" transform="rotate(180,684,1104)"/><rect x="698" y="1090" width="28" height="28" transform="rotate(0,712,1104)"/><rect x="726" y="1090" width="28" height="28" transform="rotate(0,740,1104)"/><rect x="754" y="1090" width="28" height="28" transform="rotate(0,768,1104)"/><path d="M 782 1090v 28h 28v -14a 14 14, 0, 0, 0, -14 -14" transform="rotate(90,796,1104)"/><rect x="838" y="1090" width="28" height="28" transform="rotate(0,852,1104)"/><rect x="866" y="1090" width="28" height="28" transform="rotate(0,880,1104)"/><rect x="894" y="1090" width="28" height="28" transform="rotate(0,908,1104)"/><circle cx="964" cy="1104" r="14" transform="rotate(0,964,1104)"/><rect x="1062" y="1090" width="28" height="28" transform="rotate(0,1076,1104)"/><rect x="1118" y="1090" width="28" height="28" transform="rotate(0,1132,1104)"/><rect x="1146" y="1090" width="28" height="28" transform="rotate(0,1160,1104)"/><path d="M 250 1118v 28h 14a 14 14, 0, 0, 0, 0 -28" transform="rotate(180,264,1132)"/><path d="M 278 1118v 28h 28v -14a 14 14, 0, 0, 0, -14 -14" transform="rotate(90,292,1132)"/><path d="M 334 1118v 28h 28v -14a 14 14, 0, 0, 0, -14 -14" transform="rotate(-90,348,1132)"/><path d="M 362 1118v 28h 28v -14a 14 14, 0, 0, 0, -14 -14" transform="rotate(90,376,1132)"/><circle cx="488" cy="1132" r="14" transform="rotate(0,488,1132)"/><path d="M 530 1118v 28h 14a 14 14, 0, 0, 0, 0 -28" transform="rotate(90,544,1132)"/><path d="M 586 1118v 28h 14a 14 14, 0, 0, 0, 0 -28" transform="rotate(180,600,1132)"/><rect x="614" y="1118" width="28" height="28" transform="rotate(0,628,1132)"/><path d="M 642 1118v 28h 14a 14 14, 0, 0, 0, 0 -28" transform="rotate(0,656,1132)"/><path d="M 810 1118v 28h 28v -14a 14 14, 0, 0, 0, -14 -14" transform="rotate(-90,824,1132)"/><rect x="838" y="1118" width="28" height="28" transform="rotate(0,852,1132)"/><path d="M 894 1118v 28h 28v -14a 14 14, 0, 0, 0, -14 -14" transform="rotate(180,908,1132)"/><path d="M 922 1118v 28h 28v -14a 14 14, 0, 0, 0, -14 -14" transform="rotate(0,936,1132)"/><path d="M 1006 1118v 28h 14a 14 14, 0, 0, 0, 0 -28" transform="rotate(-90,1020,1132)"/><rect x="1062" y="1118" width="28" height="28" transform="rotate(0,1076,1132)"/><rect x="1118" y="1118" width="28" height="28" transform="rotate(0,1132,1132)"/><path d="M 1146 1118v 28h 28v -14a 14 14, 0, 0, 0, -14 -14" transform="rotate(90,1160,1132)"/><path d="M 334 1146v 28h 14a 14 14, 0, 0, 0, 0 -28" transform="rotate(90,348,1160)"/><circle cx="516" cy="1160" r="14" transform="rotate(0,516,1160)"/><circle cx="572" cy="1160" r="14" transform="rotate(0,572,1160)"/><circle cx="712" cy="1160" r="14" transform="rotate(0,712,1160)"/><path d="M 810 1146v 28h 28v -14a 14 14, 0, 0, 0, -14 -14" transform="rotate(180,824,1160)"/><path d="M 838 1146v 28h 28v -14a 14 14, 0, 0, 0, -14 -14" transform="rotate(90,852,1160)"/><path d="M 922 1146v 28h 14a 14 14, 0, 0, 0, 0 -28" transform="rotate(90,936,1160)"/><path d="M 978 1146v 28h 14a 14 14, 0, 0, 0, 0 -28" transform="rotate(180,992,1160)"/><rect x="1006" y="1146" width="28" height="28" transform="rotate(0,1020,1160)"/><rect x="1034" y="1146" width="28" height="28" transform="rotate(0,1048,1160)"/><path d="M 1062 1146v 28h 28v -14a 14 14, 0, 0, 0, -14 -14" transform="rotate(90,1076,1160)"/><path d="M 1118 1146v 28h 14a 14 14, 0, 0, 0, 0 -28" transform="rotate(90,1132,1160)"/></clipPath><clipPath id="clip-path-corners-square-color-0-0-650"><path clip-rule="evenodd" d="M 26 96v 56a 70 70, 0, 0, 0, 70 70h 56a 70 70, 0, 0, 0, 70 -70v -56a 70 70, 0, 0, 0, -70 -70h -56a 70 70, 0, 0, 0, -70 70M 96 54h 56a 42 42, 0, 0, 1, 42 42v 56a 42 42, 0, 0, 1, -42 42h -56a 42 42, 0, 0, 1, -42 -42v -56a 42 42, 0, 0, 1, 42 -42" transform="rotate(0,124,124)"/></clipPath><clipPath id="clip-path-corners-dot-color-0-0-650"><circle cx="124" cy="124" r="42" transform="rotate(0,124,124)"/></clipPath><clipPath id="clip-path-corners-square-color-1-0-650"><path clip-rule="evenodd" d="M 978 96v 56a 70 70, 0, 0, 0, 70 70h 56a 70 70, 0, 0, 0, 70 -70v -56a 70 70, 0, 0, 0, -70 -70h -56a 70 70, 0, 0, 0, -70 70M 1048 54h 56a 42 42, 0, 0, 1, 42 42v 56a 42 42, 0, 0, 1, -42 42h -56a 42 42, 0, 0, 1, -42 -42v -56a 42 42, 0, 0, 1, 42 -42" transform="rotate(90,1076,124)"/></clipPath><clipPath id="clip-path-corners-dot-color-1-0-650"><circle cx="1076" cy="124" r="42" transform="rotate(90,1076,124)"/></clipPath><clipPath id="clip-path-corners-square-color-0-1-650"><path clip-rule="evenodd" d="M 26 1048v 56a 70 70, 0, 0, 0, 70 70h 56a 70 70, 0, 0, 0, 70 -70v -56a 70 70, 0, 0, 0, -70 -70h -56a 70 70, 0, 0, 0, -70 70M 96 1006h 56a 42 42, 0, 0, 1, 42 42v 56a 42 42, 0, 0, 1, -42 42h -56a 42 42, 0, 0, 1, -42 -42v -56a 42 42, 0, 0, 1, 42 -42" transform="rotate(-90,124,1076)"/></clipPath><clipPath id="clip-path-corners-dot-color-0-1-650"><circle cx="124" cy="1076" r="42" transform="rotate(-90,124,1076)"/></clipPath></defs><rect x="0" y="0" height="1200" width="1200" clip-path="url('#clip-path-background-color-650')" fill="#ffffff"/><rect x="0" y="0" height="1200" width="1200" clip-path="url('#clip-path-dot-color-650')" fill="#000000"/><rect x="26" y="26" height="196" width="196" clip-path="url('#clip-path-corners-square-color-0-0-650')" fill="#000000"/><rect x="82" y="82" height="84" width="84" clip-path="url('#clip-path-corners-dot-color-0-0-650')" fill="#000000"/><rect x="978" y="26" height="196" width="196" clip-path="url('#clip-path-corners-square-color-1-0-650')" fill="#000000"/><rect x="1034" y="82" height="84" width="84" clip-path="url('#clip-path-corners-dot-color-1-0-650')" fill="#000000"/><rect x="26" y="978" height="196" width="196" clip-path="url('#clip-path-corners-square-color-0-1-650')" fill="#000000"/><rect x="82" y="1034" height="84" width="84" clip-path="url('#clip-path-corners-dot-color-0-1-650')" fill="#000000"/></svg>