<?xml version="1.0" standalone="no"?>
<svg xmlns="http://www.w3.org/2000/svg" width="1200" height="1200" xmlns:xlink="http://www.w3.org/1999/xlink" viewBox="0 0 1200 1200"><defs><clipPath id="clip-path-background-color-662"><rect x="0" y="0" width="1200" height="1200"/></clipPath><clipPath id="clip-path-dot-color-662"><path d="M 296 8v 32h 16a 16 16, 0, 0, 0, 0 -32" transform="rotate(180,312,24)"/><rect x="328" y="8" width="32" height="32" transform="rotate(0,344,24)"/><path d="M 360 8v 32h 16a 16 16, 0, 0, 0, 0 -32" transform="rotate(0,376,24)"/><path d="M 552 8v 32h 16a 16 16, 0, 0, 0, 0 -32" transform="rotate(180,568,24)"/><path d="M 584 8v 32h 32v -16a 16 16, 0, 0, 0, -16 -16" transform="rotate(0,600,24)"/><path d="M 680 8v 32h 16a 16 16, 0, 0, 0, 0 -32" transform="rotate(180,696,24)"/><rect x="712" y="8" width="32" height="32" transform="rotate(0,728,24)"/><path d="M 744 8v 32h 32v -16a 16 16, 0, 0, 0, -16 -16" transform="rotate(0,760,24)"/><path d="M 808 8v 32h 32v -16a 16 16, 0, 0, 0, -16 -16" transform="rotate(-90,824,24)"/><path d="M 840 8v 32h 16a 16 16, 0, 0, 0, 0 -32" transform="rotate(0,856,24)"/><path d="M 904 8v 32h 16a 16 16, 0, 0, 0, 0 -32" transform="rotate(-90,920,24)"/><path d="M 328 40v 32h 16a 16 16, 0, 0, 0, 0 -32" transform="rotate(90,344,56)"/><path d="M 488 40v 32h 16a 16 16, 0, 0, 0, 0 -32" transform="rotate(-90,504,56)"/><rect x="584" y="40" width="32" height="32" transform="rotate(0,600,56)"/><path d="M 616 40v 32h 32v -16a 16 16, 0, 0, 0, -16 -16" transform="rotate(0,632,56)"/><rect x="712" y="40" width="32" height="32" transform="rotate(0,728,56)"/><path d="M 744 40v 32h 32v -16a 16 16, 0, 0, 0, -16 -16" transform="rotate(90,760,56)"/><rect x="808" y="40" width="32" height="32" transform="rotate(0,824,56)"/><path d="M 904 40v 32h 16a 16 16, 0, 0, 0, 0 -32" transform="rotate(90,920,56)"/><path d="M 296 72v 32h 16a 16 16, 0, 0, 0, 0 -32" transform="rotate(-90,312,88)"/><path d="M 392 72v 32h 32v -16a 16 16, 0, 0, 0, -16 -16" transform="rotate(-90,408,88)"/><rect x="424" y="72" width="32" height="32" transform="rotate(0,440,88)"/><rect x="456" y="72" width="32" height="32" transform="rotate(0,472,88)"/><rect x="488" y="72" width="32" height="32" transform="rotate(0,504,88)"/><rect x="520" y="72" width="32" height="32" transform="rotate(0,536,88)"/><rect x="552" y="72" width="32" height="32" transform="rotate(0,568,88)"/><rect x="584" y="72" width="32" height="32" transform="rotate(0,600,88)"/><rect x="616" y="72" width="32" height="32" transform="rotate(0,632,88)"/><path d="M 680 72v 32h 32v -16a 16 16, 0, 0, 0, -16 -16" transform="rotate(-90,696,88)"/><rect x="712" y="72" width="32" height="32" transform="rotate(0,728,88)"/><rect x="808" y="72" width="32" height="32" transform="rotate(0,824,88)"/><rect x="840" y="72" width="32" height="32" transform="rotate(0,856,88)"/><path d="M 872 72v 32h 32v -16a 16 16, 0, 0, 0, -16 -16" transform="rotate(0,888,88)"/><path d="M 264 104v 32h 16a 16 16, 0, 0, 0, 0 -32" transform="rotate(180,280,120)"/><path d="M 296 104v 32h 32v -16a 16 16, 0, 0, 0, -16 -16" transform="rotate(90,312,120)"/><path d="M 360 104v 32h 32v -16a 16 16, 0, 0, 0, -16 -16" transform="rotate(-90,376,120)"/><path d="M 392 104v 32h 32v -16a 16 16, 0, 0, 0, -16 -16" transform="rotate(90,408,120)"/><rect x="456" y="104" width="32" height="32" transform="rotate(0,472,120)"/><rect x="488" y="104" width="32" height="32" transform="rotate(0,504,120)"/><rect x="520" y="104" width="32" height="32" transform="rotate(0,536,120)"/><rect x="616" y="104" width="32" height="32" transform="rotate(0,632,120)"/><rect x="648" y="104" width="32" height="32" transform="rotate(0,664,120)"/><rect x="680" y="104" width="32" height="32" transform="rotate(0,696,120)"/><rect x="712" y="104" width="32" height="32" transform="rotate(0,728,120)"/><rect x="744" y="104" width="32" height="32" transform="rotate(0,760,120)"/><rect x="776" y="104" width="32" height="32" transform="rotate(0,792,120)"/><rect x="808" y="104" width="32" height="32" transform="rotate(0,824,120)"/><rect x="840" y="104" width="32" height="32" transform="rotate(0,856,120)"/><path d="M 872 104v 32h 32v -16a 16 16, 0, 0, 0, -16 -16" transform="rotate(90,888,120)"/><rect x="360" y="136" width="32" height="32" transform="rotate(0,376,152)"/><path d="M 424 136v 32h 32v -16a 16 16, 0, 0, 0, -16 -16" transform="rotate(-90,440,152)"/><rect x="456" y="136" width="32" height="32" transform="rotate(0,472,152)"/><rect x="520" y="136" width="32" height="32" transform="rotate(0,536,152)"/><path d="M 584 136v 32h 16a 16 16, 0, 0, 0, 0 -32" transform="rotate(180,600,152)"/><rect x="616" y="136" width="32" height="32" transform="rotate(0,632,152)"/><rect x="648" y="136" width="32" height="32" transform="rotate(0,664,152)"/><path d="M 680 136v 32h 32v -16a 16 16, 0, 0, 0, -16 -16" transform="rotate(90,696,152)"/><rect x="808" y="136" width="32" height="32" transform="rotate(0,824,152)"/><path d="M 840 136v 32h 32v -16a 16 16, 0, 0, 0, -16 -16" transform="rotate(90,856,152)"/><path d="M 904 136v 32h 16a 16 16, 0, 0, 0, 0 -32" transform="rotate(-90,920,152)"/><path d="M 264 168v 32h 32v -16a 16 16, 0, 0, 0, -16 -16" transform="rotate(-90,280,184)"/><path d="M 296 168v 32h 16a 16 16, 0, 0, 0, 0 -32" transform="rotate(0,312,184)"/><path d="M 360 168v 32h 16a 16 16, 0, 0, 0, 0 -32" transform="rotate(90,376,184)"/><path d="M 424 168v 32h 32v -16a 16 16, 0, 0, 0, -16 -16" transform="rotate(180,440,184)"/><rect x="456" y="168" width="32" height="32" transform="rotate(0,472,184)"/><rect x="520" y="168" width="32" height="32" transform="rotate(0,536,184)"/><path d="M 552 168v 32h 16a 16 16, 0, 0, 0, 0 -32" transform="rotate(0,568,184)"/><path d="M 712 168v 32h 16a 16 16, 0, 0, 0, 0 -32" transform="rotate(-90,728,184)"/><path d="M 776 168v 32h 32v -16a 16 16, 0, 0, 0, -16 -16" transform="rotate(-90,792,184)"/><path d="M 808 168v 32h 32v -16a 16 16, 0, 0, 0, -16 -16" transform="rotate(90,824,184)"/><rect x="904" y="168" width="32" height="32" transform="rotate(0,920,184)"/><rect x="264" y="200" width="32" height="32" transform="rotate(0,280,216)"/><circle cx="344" cy="216" r="16" transform="rotate(0,344,216)"/><circle cx="408" cy="216" r="16" transform="rotate(0,408,216)"/><rect x="456" y="200" width="32" height="32" transform="rotate(0,472,216)"/><rect x="520" y="200" width="32" height="32" transform="rotate(0,536,216)"/><circle cx="600" cy="216" r="16" transform="rotate(0,600,216)"/><circle cx="664" cy="216" r="16" transform="rotate(0,664,216)"/><rect x="712" y="200" width="32" height="32" transform="rotate(0,728,216)"/><rect x="776" y="200" width="32" height="32" transform="rotate(0,792,216)"/><circle cx="856" cy="216" r="16" transform="rotate(0,856,216)"/><rect x="904" y="200" width="32" height="32" transform="rotate(0,920,216)"/><path d="M 264 232v 32h 16a 16 16, 0, 0, 0, 0 -32" transform="rotate(90,280,248)"/><path d="M 456 232v 32h 16a 16 16, 0, 0, 0, 0 -32" transform="rotate(90,472,248)"/><rect x="520" y="232" width="32" height="32" transform="rotate(0,536,248)"/><path d="M 712 232v 32h 16a 16 16, 0, 0, 0, 0 -32" transform="rotate(90,728,248)"/><rect x="776" y="232" width="32" height="32" transform="rotate(0,792,248)"/><path d="M 872 232v 32h 16a 16 16, 0, 0, 0, 0 -32" transform="rotate(180,888,248)"/><path d="M 904 232v 32h 32v -16a 16 16, 0, 0, 0, -16 -16" transform="rotate(90,920,248)"/><path d="M 40 264v 32h 16a 16 16, 0, 0, 0, 0 -32" transform="rotate(180,56,280)"/><path d="M 72 264v 32h 16a 16 16, 0, 0, 0, 0 -32" transform="rotate(0,88,280)"/><circle cx="216" cy="280" r="16" transform="rotate(0,216,280)"/><path d="M 328 264v 32h 32v -16a 16 16, 0, 0, 0, -16 -16" transform="rotate(-90,344,280)"/><rect x="360" y="264" width="32" height="32" transform="rotate(0,376,280)"/><rect x="392" y="264" width="32" height="32" transform="rotate(0,408,280)"/><path d="M 424 264v 32h 32v -16a 16 16, 0, 0, 0, -16 -16" transform="rotate(0,440,280)"/><path d="M 488 264v 32h 32v -16a 16 16, 0, 0, 0, -16 -16" transform="rotate(-90,504,280)"/><path d="M 520 264v 32h 32v -16a 16 16, 0, 0, 0, -16 -16" transform="rotate(90,536,280)"/><path d="M 584 264v 32h 32v -16a 16 16, 0, 0, 0, -16 -16" transform="rotate(-90,600,280)"/><path d="M 616 264v 32h 32v -16a 16 16, 0, 0, 0, -16 -16" transform="rotate(0,632,280)"/><path d="M 744 264v 32h 32v -16a 16 16, 0, 0, 0, -16 -16" transform="rotate(-90,760,280)"/><rect x="776" y="264" width="32" height="32" transform="rotate(0,792,280)"/><path d="M 968 264v 32h 32v -16a 16 16, 0, 0, 0, -16 -16" transform="rotate(-90,984,280)"/><path d="M 1000 264v 32h 16a 16 16, 0, 0, 0, 0 -32" transform="rotate(0,1016,280)"/><circle cx="1080" cy="280" r="16" transform="rotate(0,1080,280)"/><path d="M 232 296v 32h 32v -16a 16 16, 0, 0, 0, -16 -16" transform="rotate(-90,248,312)"/><rect x="264" y="296" width="32" height="32" transform="rotate(0,280,312)"/><rect x="296" y="296" width="32" height="32" transform="rotate(0,312,312)"/><rect x="328" y="296" width="32" height="32" transform="rotate(0,344,312)"/><rect x="360" y="296" width="32" height="32" transform="rotate(0,376,312)"/><rect x="392" y="296" width="32" height="32" transform="rotate(0,408,312)"/><rect x="424" y="296" width="32" height="32" transform="rotate(0,440,312)"/><rect x="456" y="296" width="32" height="32" transform="rotate(0,472,312)"/><rect x="488" y="296" width="32" height="32" transform="rotate(0,504,312)"/><path d="M 552 296v 32h 16a 16 16, 0, 0, 0, 0 -32" transform="rotate(180,568,312)"/><rect x="584" y="296" width="32" height="32" transform="rotate(0,600,312)"/><path d="M 616 296v 32h 32v -16a 16 16, 0, 0, 0, -16 -16" transform="rotate(90,632,312)"/><path d="M 712 296v 32h 32v -16a 16 16, 0, 0, 0, -16 -16" transform="rotate(-90,728,312)"/><rect x="744" y="296" width="32" height="32" transform="rotate(0,760,312)"/><rect x="776" y="296" width="32" height="32" transform="rotate(0,792,312)"/><rect x="808" y="296" width="32" height="32" transform="rotate(0,824,312)"/><rect x="840" y="296" width="32" height="32" transform="rotate(0,856,312)"/><rect x="872" y="296" width="32" height="32" transform="rotate(0,888,312)"/><path d="M 904 296v 32h 16a 16 16, 0, 0, 0, 0 -32" transform="rotate(0,920,312)"/><rect x="968" y="296" width="32" height="32" transform="rotate(0,984,312)"/><path d="M 1096 296v 32h 16a 16 16, 0, 0, 0, 0 -32" transform="rotate(-90,1112,312)"/><path d="M 1160 296v 32h 16a 16 16, 0, 0, 0, 0 -32" transform="rotate(-90,1176,312)"/><path d="M 40 328v 32h 32v -16a 16 16, 0, 0, 0, -16 -16" transform="rotate(-90,56,344)"/><rect x="72" y="328" width="32" height="32" transform="rotate(0,88,344)"/><path d="M 104 328v 32h 32v -16a 16 16, 0, 0, 0, -16 -16" transform="rotate(0,120,344)"/><path d="M 200 328v 32h 16a 16 16, 0, 0, 0, 0 -32" transform="rotate(180,216,344)"/><path d="M 232 328v 32h 32v -16a 16 16, 0, 0, 0, -16 -16" transform="rotate(90,248,344)"/><path d="M 360 328v 32h 16a 16 16, 0, 0, 0, 0 -32" transform="rotate(90,376,344)"/><rect x="456" y="328" width="32" height="32" transform="rotate(0,472,344)"/><rect x="488" y="328" width="32" height="32" transform="rotate(0,504,344)"/><path d="M 712 328v 32h 32v -16a 16 16, 0, 0, 0, -16 -16" transform="rotate(180,728,344)"/><rect x="744" y="328" width="32" height="32" transform="rotate(0,760,344)"/><path d="M 872 328v 32h 16a 16 16, 0, 0, 0, 0 -32" transform="rotate(90,888,344)"/><path d="M 936 328v 32h 16a 16 16, 0, 0, 0, 0 -32" transform="rotate(180,952,344)"/><path d="M 968 328v 32h 32v -16a 16 16, 0, 0, 0, -16 -16" transform="rotate(90,984,344)"/><path d="M 1096 328v 32h 16a 16 16, 0, 0, 0, 0 -32" transform="rotate(90,1112,344)"/><rect x="1160" y="328" width="32" height="32" transform="rotate(0,1176,344)"/><path d="M 8 360v 32h 32v -16a 16 16, 0, 0, 0, -16 -16" transform="rotate(-90,24,376)"/><rect x="40" y="360" width="32" height="32" transform="rotate(0,56,376)"/><rect x="72" y="360" width="32" height="32" transform="rotate(0,88,376)"/><rect x="104" y="360" width="32" height="32" transform="rotate(0,120,376)"/><rect x="136" y="360" width="32" height="32" transform="rotate(0,152,376)"/><path d="M 168 360v 32h 16a 16 16, 0, 0, 0, 0 -32" transform="rotate(0,184,376)"/><path d="M 264 360v 32h 16a 16 16, 0, 0, 0, 0 -32" transform="rotate(180,280,376)"/><path d="M 296 360v 32h 32v -16a 16 16, 0, 0, 0, -16 -16" transform="rotate(0,312,376)"/><rect x="456" y="360" width="32" height="32" transform="rotate(0,472,376)"/><rect x="488" y="360" width="32" height="32" transform="rotate(0,504,376)"/><circle cx="600" cy="376" r="16" transform="rotate(0,600,376)"/><path d="M 648 360v 32h 16a 16 16, 0, 0, 0, 0 -32" transform="rotate(-90,664,376)"/><rect x="744" y="360" width="32" height="32" transform="rotate(0,760,376)"/><circle cx="856" cy="376" r="16" transform="rotate(0,856,376)"/><circle cx="920" cy="376" r="16" transform="rotate(0,920,376)"/><path d="M 1064 360v 32h 16a 16 16, 0, 0, 0, 0 -32" transform="rotate(-90,1080,376)"/><path d="M 1128 360v 32h 32v -16a 16 16, 0, 0, 0, -16 -16" transform="rotate(-90,1144,376)"/><rect x="1160" y="360" width="32" height="32" transform="rotate(0,1176,376)"/><rect x="8" y="392" width="32" height="32" transform="rotate(0,24,408)"/><rect x="72" y="392" width="32" height="32" transform="rotate(0,88,408)"/><path d="M 136 392v 32h 16a 16 16, 0, 0, 0, 0 -32" transform="rotate(90,152,408)"/><path d="M 200 392v 32h 16a 16 16, 0, 0, 0, 0 -32" transform="rotate(180,216,408)"/><path d="M 232 392v 32h 32v -16a 16 16, 0, 0, 0, -16 -16" transform="rotate(0,248,408)"/><rect x="296" y="392" width="32" height="32" transform="rotate(0,312,408)"/><rect x="456" y="392" width="32" height="32" transform="rotate(0,472,408)"/><rect x="488" y="392" width="32" height="32" transform="rotate(0,504,408)"/><rect x="520" y="392" width="32" height="32" transform="rotate(0,536,408)"/><path d="M 552 392v 32h 16a 16 16, 0, 0, 0, 0 -32" transform="rotate(0,568,408)"/><path d="M 616 392v 32h 32v -16a 16 16, 0, 0, 0, -16 -16" transform="rotate(-90,632,408)"/><path d="M 648 392v 32h 32v -16a 16 16, 0, 0, 0, -16 -16" transform="rotate(90,664,408)"/><path d="M 712 392v 32h 16a 16 16, 0, 0, 0, 0 -32" transform="rotate(180,728,408)"/><rect x="744" y="392" width="32" height="32" transform="rotate(0,760,408)"/><path d="M 872 392v 32h 16a 16 16, 0, 0, 0, 0 -32" transform="rotate(-90,888,408)"/><path d="M 968 392v 32h 32v -16a 16 16, 0, 0, 0, -16 -16" transform="rotate(-90,984,408)"/><path d="M 1000 392v 32h 16a 16 16, 0, 0, 0, 0 -32" transform="rotate(0,1016,408)"/><path d="M 1064 392v 32h 16a 16 16, 0, 0, 0, 0 -32" transform="rotate(90,1080,408)"/><path d="M 1128 392v 32h 32v -16a 16 16, 0, 0, 0, -16 -16" transform="rotate(180,1144,408)"/><rect x="1160" y="392" width="32" height="32" transform="rotate(0,1176,408)"/><rect x="8" y="424" width="32" height="32" transform="rotate(0,24,440)"/><path d="M 72 424v 32h 32v -16a 16 16, 0, 0, 0, -16 -16" transform="rotate(180,88,440)"/><path d="M 104 424v 32h 16a 16 16, 0, 0, 0, 0 -32" transform="rotate(0,120,440)"/><path d="M 232 424v 32h 32v -16a 16 16, 0, 0, 0, -16 -16" transform="rotate(180,248,440)"/><rect x="264" y="424" width="32" height="32" transform="rotate(0,280,440)"/><rect x="296" y="424" width="32" height="32" transform="rotate(0,312,440)"/><path d="M 360 424v 32h 16a 16 16, 0, 0, 0, 0 -32" transform="rotate(-90,376,440)"/><path d="M 456 424v 32h 32v -16a 16 16, 0, 0, 0, -16 -16" transform="rotate(180,472,440)"/><rect x="488" y="424" width="32" height="32" transform="rotate(0,504,440)"/><path d="M 584 424v 32h 16a 16 16, 0, 0, 0, 0 -32" transform="rotate(180,600,440)"/><path d="M 616 424v 32h 32v -16a 16 16, 0, 0, 0, -16 -16" transform="rotate(90,632,440)"/><rect x="744" y="424" width="32" height="32" transform="rotate(0,760,440)"/><rect x="776" y="424" width="32" height="32" transform="rotate(0,792,440)"/><path d="M 808 424v 32h 16a 16 16, 0, 0, 0, 0 -32" transform="rotate(0,824,440)"/><rect x="872" y="424" width="32" height="32" transform="rotate(0,888,440)"/><rect x="904" y="424" width="32" height="32" transform="rotate(0,920,440)"/><rect x="936" y="424" width="32" height="32" transform="rotate(0,952,440)"/><path d="M 968 424v 32h 32v -16a 16 16, 0, 0, 0, -16 -16" transform="rotate(90,984,440)"/><path d="M 1096 424v 32h 16a 16 16, 0, 0, 0, 0 -32" transform="rotate(-90,1112,440)"/><rect x="1160" y="424" width="32" height="32" transform="rotate(0,1176,440)"/><rect x="8" y="456" width="32" height="32" transform="rotate(0,24,472)"/><path d="M 40 456v 32h 16a 16 16, 0, 0, 0, 0 -32" transform="rotate(0,56,472)"/><path d="M 168 456v 32h 32v -16a 16 16, 0, 0, 0, -16 -16" transform="rotate(-90,184,472)"/><path d="M 200 456v 32h 16a 16 16, 0, 0, 0, 0 -32" transform="rotate(0,216,472)"/><path d="M 264 456v 32h 32v -16a 16 16, 0, 0, 0, -16 -16" transform="rotate(180,280,472)"/><rect x="296" y="456" width="32" height="32" transform="rotate(0,312,472)"/><rect x="328" y="456" width="32" height="32" transform="rotate(0,344,472)"/><rect x="360" y="456" width="32" height="32" transform="rotate(0,376,472)"/><rect x="392" y="456" width="32" height="32" transform="rotate(0,408,472)"/><path d="M 424 456v 32h 16a 16 16, 0, 0, 0, 0 -32" transform="rotate(0,440,472)"/><path d="M 488 456v 32h 16a 16 16, 0, 0, 0, 0 -32" transform="rotate(90,504,472)"/><path d="M 552 456v 32h 16a 16 16, 0, 0, 0, 0 -32" transform="rotate(-90,568,472)"/><path d="M 648 456v 32h 16a 16 16, 0, 0, 0, 0 -32" transform="rotate(180,664,472)"/><rect x="680" y="456" width="32" height="32" transform="rotate(0,696,472)"/><rect x="712" y="456" width="32" height="32" transform="rotate(0,728,472)"/><rect x="744" y="456" width="32" height="32" transform="rotate(0,760,472)"/><rect x="776" y="456" width="32" height="32" transform="rotate(0,792,472)"/><path d="M 872 456v 32h 32v -16a 16 16, 0, 0, 0, -16 -16" transform="rotate(180,888,472)"/><rect x="904" y="456" width="32" height="32" transform="rotate(0,920,472)"/><path d="M 1000 456v 32h 32v -16a 16 16, 0, 0, 0, -16 -16" transform="rotate(-90,1016,472)"/><rect x="1032" y="456" width="32" height="32" transform="rotate(0,1048,472)"/><rect x="1064" y="456" width="32" height="32" transform="rotate(0,1080,472)"/><path d="M 1096 456v 32h 32v -16a 16 16, 0, 0, 0, -16 -16" transform="rotate(90,1112,472)"/><path d="M 1160 456v 32h 16a 16 16, 0, 0, 0, 0 -32" transform="rotate(90,1176,472)"/><path d="M 8 488v 32h 16a 16 16, 0, 0, 0, 0 -32" transform="rotate(90,24,504)"/><circle cx="88" cy="504" r="16" transform="rotate(0,88,504)"/><path d="M 136 488v 32h 16a 16 16, 0, 0, 0, 0 -32" transform="rotate(180,152,504)"/><rect x="168" y="488" width="32" height="32" transform="rotate(0,184,504)"/><path d="M 232 488v 32h 16a 16 16, 0, 0, 0, 0 -32" transform="rotate(-90,248,504)"/><rect x="296" y="488" width="32" height="32" transform="rotate(0,312,504)"/><rect x="328" y="488" width="32" height="32" transform="rotate(0,344,504)"/><rect x="360" y="488" width="32" height="32" transform="rotate(0,376,504)"/><path d="M 392 488v 32h 32v -16a 16 16, 0, 0, 0, -16 -16" transform="rotate(90,408,504)"/><circle cx="472" cy="504" r="16" transform="rotate(0,472,504)"/><path d="M 520 488v 32h 32v -16a 16 16, 0, 0, 0, -16 -16" transform="rotate(-90,536,504)"/><rect x="552" y="488" width="32" height="32" transform="rotate(0,568,504)"/><path d="M 584 488v 32h 16a 16 16, 0, 0, 0, 0 -32" transform="rotate(0,600,504)"/><rect x="712" y="488" width="32" height="32" transform="rotate(0,728,504)"/><rect x="776" y="488" width="32" height="32" transform="rotate(0,792,504)"/><circle cx="856" cy="504" r="16" transform="rotate(0,856,504)"/><rect x="904" y="488" width="32" height="32" transform="rotate(0,920,504)"/><path d="M 968 488v 32h 32v -16a 16 16, 0, 0, 0, -16 -16" transform="rotate(-90,984,504)"/><rect x="1000" y="488" width="32" height="32" transform="rotate(0,1016,504)"/><path d="M 1064 488v 32h 16a 16 16, 0, 0, 0, 0 -32" transform="rotate(90,1080,504)"/><circle cx="1144" cy="504" r="16" transform="rotate(0,1144,504)"/><circle cx="56" cy="536" r="16" transform="rotate(0,56,536)"/><rect x="168" y="520" width="32" height="32" transform="rotate(0,184,536)"/><rect x="200" y="520" width="32" height="32" transform="rotate(0,216,536)"/><rect x="232" y="520" width="32" height="32" transform="rotate(0,248,536)"/><rect x="264" y="520" width="32" height="32" transform="rotate(0,280,536)"/><rect x="296" y="520" width="32" height="32" transform="rotate(0,312,536)"/><circle cx="440" cy="536" r="16" transform="rotate(0,440,536)"/><path d="M 520 520v 32h 32v -16a 16 16, 0, 0, 0, -16 -16" transform="rotate(180,536,536)"/><rect x="552" y="520" width="32" height="32" transform="rotate(0,568,536)"/><path d="M 648 520v 32h 32v -16a 16 16, 0, 0, 0, -16 -16" transform="rotate(-90,664,536)"/><rect x="680" y="520" width="32" height="32" transform="rotate(0,696,536)"/><rect x="712" y="520" width="32" height="32" transform="rotate(0,728,536)"/><path d="M 776 520v 32h 16a 16 16, 0, 0, 0, 0 -32" transform="rotate(90,792,536)"/><path d="M 872 520v 32h 32v -16a 16 16, 0, 0, 0, -16 -16" transform="rotate(-90,888,536)"/><rect x="904" y="520" width="32" height="32" transform="rotate(0,920,536)"/><rect x="968" y="520" width="32" height="32" transform="rotate(0,984,536)"/><path d="M 1000 520v 32h 32v -16a 16 16, 0, 0, 0, -16 -16" transform="rotate(90,1016,536)"/><path d="M 1160 520v 32h 16a 16 16, 0, 0, 0, 0 -32" transform="rotate(-90,1176,536)"/><circle cx="24" cy="568" r="16" transform="rotate(0,24,568)"/><path d="M 72 552v 32h 16a 16 16, 0, 0, 0, 0 -32" transform="rotate(180,88,568)"/><path d="M 104 552v 32h 16a 16 16, 0, 0, 0, 0 -32" transform="rotate(0,120,568)"/><rect x="168" y="552" width="32" height="32" transform="rotate(0,184,568)"/><rect x="264" y="552" width="32" height="32" transform="rotate(0,280,568)"/><path d="M 296 552v 32h 32v -16a 16 16, 0, 0, 0, -16 -16" transform="rotate(90,312,568)"/><path d="M 360 552v 32h 32v -16a 16 16, 0, 0, 0, -16 -16" transform="rotate(-90,376,568)"/><path d="M 392 552v 32h 16a 16 16, 0, 0, 0, 0 -32" transform="rotate(0,408,568)"/><path d="M 488 552v 32h 16a 16 16, 0, 0, 0, 0 -32" transform="rotate(-90,504,568)"/><path d="M 552 552v 32h 32v -16a 16 16, 0, 0, 0, -16 -16" transform="rotate(180,568,568)"/><path d="M 584 552v 32h 32v -16a 16 16, 0, 0, 0, -16 -16" transform="rotate(0,600,568)"/><path d="M 648 552v 32h 16a 16 16, 0, 0, 0, 0 -32" transform="rotate(90,664,568)"/><path d="M 712 552v 32h 16a 16 16, 0, 0, 0, 0 -32" transform="rotate(90,728,568)"/><rect x="872" y="552" width="32" height="32" transform="rotate(0,888,568)"/><path d="M 904 552v 32h 32v -16a 16 16, 0, 0, 0, -16 -16" transform="rotate(90,920,568)"/><path d="M 968 552v 32h 16a 16 16, 0, 0, 0, 0 -32" transform="rotate(90,984,568)"/><path d="M 1064 552v 32h 16a 16 16, 0, 0, 0, 0 -32" transform="rotate(-90,1080,568)"/><rect x="1160" y="552" width="32" height="32" transform="rotate(0,1176,568)"/><path d="M 136 584v 32h 16a 16 16, 0, 0, 0, 0 -32" transform="rotate(180,152,600)"/><rect x="168" y="584" width="32" height="32" transform="rotate(0,184,600)"/><rect x="200" y="584" width="32" height="32" transform="rotate(0,216,600)"/><rect x="232" y="584" width="32" height="32" transform="rotate(0,248,600)"/><path d="M 264 584v 32h 32v -16a 16 16, 0, 0, 0, -16 -16" transform="rotate(90,280,600)"/><path d="M 328 584v 32h 16a 16 16, 0, 0, 0, 0 -32" transform="rotate(180,344,600)"/><path d="M 360 584v 32h 32v -16a 16 16, 0, 0, 0, -16 -16" transform="rotate(90,376,600)"/><circle cx="440" cy="600" r="16" transform="rotate(0,440,600)"/><path d="M 488 584v 32h 16a 16 16, 0, 0, 0, 0 -32" transform="rotate(90,504,600)"/><rect x="584" y="584" width="32" height="32" transform="rotate(0,600,600)"/><path d="M 616 584v 32h 32v -16a 16 16, 0, 0, 0, -16 -16" transform="rotate(0,632,600)"/><circle cx="696" cy="600" r="16" transform="rotate(0,696,600)"/><path d="M 744 584v 32h 16a 16 16, 0, 0, 0, 0 -32" transform="rotate(-90,760,600)"/><path d="M 808 584v 32h 16a 16 16, 0, 0, 0, 0 -32" transform="rotate(180,824,600)"/><rect x="840" y="584" width="32" height="32" transform="rotate(0,856,600)"/><rect x="872" y="584" width="32" height="32" transform="rotate(0,888,600)"/><path d="M 1032 584v 32h 32v -16a 16 16, 0, 0, 0, -16 -16" transform="rotate(-90,1048,600)"/><rect x="1064" y="584" width="32" height="32" transform="rotate(0,1080,600)"/><path d="M 1160 584v 32h 16a 16 16, 0, 0, 0, 0 -32" transform="rotate(90,1176,600)"/><path d="M 40 616v 32h 32v -16a 16 16, 0, 0, 0, -16 -16" transform="rotate(-90,56,632)"/><rect x="72" y="616" width="32" height="32" transform="rotate(0,88,632)"/><path d="M 104 616v 32h 32v -16a 16 16, 0, 0, 0, -16 -16" transform="rotate(0,120,632)"/><circle cx="472" cy="632" r="16" transform="rotate(0,472,632)"/><circle cx="536" cy="632" r="16" transform="rotate(0,536,632)"/><rect x="584" y="616" width="32" height="32" transform="rotate(0,600,632)"/><path d="M 616 616v 32h 32v -16a 16 16, 0, 0, 0, -16 -16" transform="rotate(90,632,632)"/><path d="M 712 616v 32h 16a 16 16, 0, 0, 0, 0 -32" transform="rotate(180,728,632)"/><rect x="744" y="616" width="32" height="32" transform="rotate(0,760,632)"/><path d="M 840 616v 32h 32v -16a 16 16, 0, 0, 0, -16 -16" transform="rotate(180,856,632)"/><rect x="872" y="616" width="32" height="32" transform="rotate(0,888,632)"/><rect x="904" y="616" width="32" height="32" transform="rotate(0,920,632)"/><path d="M 936 616v 32h 16a 16 16, 0, 0, 0, 0 -32" transform="rotate(0,952,632)"/><path d="M 1032 616v 32h 32v -16a 16 16, 0, 0, 0, -16 -16" transform="rotate(180,1048,632)"/><rect x="1064" y="616" width="32" height="32" transform="rotate(0,1080,632)"/><path d="M 40 648v 32h 32v -16a 16 16, 0, 0, 0, -16 -16" transform="rotate(180,56,664)"/><rect x="72" y="648" width="32" height="32" transform="rotate(0,88,664)"/><rect x="104" y="648" width="32" height="32" transform="rotate(0,120,664)"/><path d="M 168 648v 32h 32v -16a 16 16, 0, 0, 0, -16 -16" transform="rotate(-90,184,664)"/><rect x="200" y="648" width="32" height="32" transform="rotate(0,216,664)"/><rect x="232" y="648" width="32" height="32" transform="rotate(0,248,664)"/><rect x="264" y="648" width="32" height="32" transform="rotate(0,280,664)"/><rect x="296" y="648" width="32" height="32" transform="rotate(0,312,664)"/><rect x="328" y="648" width="32" height="32" transform="rotate(0,344,664)"/><rect x="360" y="648" width="32" height="32" transform="rotate(0,376,664)"/><path d="M 392 648v 32h 32v -16a 16 16, 0, 0, 0, -16 -16" transform="rotate(0,408,664)"/><circle cx="504" cy="664" r="16" transform="rotate(0,504,664)"/><rect x="584" y="648" width="32" height="32" transform="rotate(0,600,664)"/><rect x="744" y="648" width="32" height="32" transform="rotate(0,760,664)"/><path d="M 776 648v 32h 32v -16a 16 16, 0, 0, 0, -16 -16" transform="rotate(0,792,664)"/><path d="M 904 648v 32h 16a 16 16, 0, 0, 0, 0 -32" transform="rotate(90,920,664)"/><path d="M 968 648v 32h 16a 16 16, 0, 0, 0, 0 -32" transform="rotate(-90,984,664)"/><path d="M 1064 648v 32h 16a 16 16, 0, 0, 0, 0 -32" transform="rotate(90,1080,664)"/><circle cx="1144" cy="664" r="16" transform="rotate(0,1144,664)"/><path d="M 8 680v 32h 16a 16 16, 0, 0, 0, 0 -32" transform="rotate(-90,24,696)"/><rect x="104" y="680" width="32" height="32" transform="rotate(0,120,696)"/><rect x="136" y="680" width="32" height="32" transform="rotate(0,152,696)"/><rect x="168" y="680" width="32" height="32" transform="rotate(0,184,696)"/><path d="M 264 680v 32h 16a 16 16, 0, 0, 0, 0 -32" transform="rotate(90,280,696)"/><rect x="328" y="680" width="32" height="32" transform="rotate(0,344,696)"/><rect x="360" y="680" width="32" height="32" transform="rotate(0,376,696)"/><path d="M 392 680v 32h 32v -16a 16 16, 0, 0, 0, -16 -16" transform="rotate(90,408,696)"/><path d="M 520 680v 32h 32v -16a 16 16, 0, 0, 0, -16 -16" transform="rotate(-90,536,696)"/><rect x="552" y="680" width="32" height="32" transform="rotate(0,568,696)"/><path d="M 584 680v 32h 32v -16a 16 16, 0, 0, 0, -16 -16" transform="rotate(90,600,696)"/><circle cx="664" cy="696" r="16" transform="rotate(0,664,696)"/><path d="M 712 680v 32h 32v -16a 16 16, 0, 0, 0, -16 -16" transform="rotate(-90,728,696)"/><rect x="744" y="680" width="32" height="32" transform="rotate(0,760,696)"/><path d="M 776 680v 32h 32v -16a 16 16, 0, 0, 0, -16 -16" transform="rotate(90,792,696)"/><path d="M 872 680v 32h 16a 16 16, 0, 0, 0, 0 -32" transform="rotate(-90,888,696)"/><path d="M 936 680v 32h 16a 16 16, 0, 0, 0, 0 -32" transform="rotate(180,952,696)"/><rect x="968" y="680" width="32" height="32" transform="rotate(0,984,696)"/><path d="M 1000 680v 32h 32v -16a 16 16, 0, 0, 0, -16 -16" transform="rotate(0,1016,696)"/><path d="M 1160 680v 32h 16a 16 16, 0, 0, 0, 0 -32" transform="rotate(-90,1176,696)"/><rect x="8" y="712" width="32" height="32" transform="rotate(0,24,728)"/><path d="M 104 712v 32h 16a 16 16, 0, 0, 0, 0 -32" transform="rotate(90,120,728)"/><rect x="168" y="712" width="32" height="32" transform="rotate(0,184,728)"/><path d="M 200 712v 32h 16a 16 16, 0, 0, 0, 0 -32" transform="rotate(0,216,728)"/><path d="M 296 712v 32h 32v -16a 16 16, 0, 0, 0, -16 -16" transform="rotate(-90,312,728)"/><rect x="328" y="712" width="32" height="32" transform="rotate(0,344,728)"/><path d="M 424 712v 32h 32v -16a 16 16, 0, 0, 0, -16 -16" transform="rotate(-90,440,728)"/><path d="M 456 712v 32h 16a 16 16, 0, 0, 0, 0 -32" transform="rotate(0,472,728)"/><rect x="520" y="712" width="32" height="32" transform="rotate(0,536,728)"/><path d="M 552 712v 32h 32v -16a 16 16, 0, 0, 0, -16 -16" transform="rotate(90,568,728)"/><path d="M 616 712v 32h 16a 16 16, 0, 0, 0, 0 -32" transform="rotate(-90,632,728)"/><path d="M 712 712v 32h 32v -16a 16 16, 0, 0, 0, -16 -16" transform="rotate(180,728,728)"/><rect x="744" y="712" width="32" height="32" transform="rotate(0,760,728)"/><path d="M 840 712v 32h 32v -16a 16 16, 0, 0, 0, -16 -16" transform="rotate(-90,856,728)"/><rect x="872" y="712" width="32" height="32" transform="rotate(0,888,728)"/><path d="M 904 712v 32h 16a 16 16, 0, 0, 0, 0 -32" transform="rotate(0,920,728)"/><rect x="1000" y="712" width="32" height="32" transform="rotate(0,1016,728)"/><path d="M 1032 712v 32h 16a 16 16, 0, 0, 0, 0 -32" transform="rotate(0,1048,728)"/><circle cx="1112" cy="728" r="16" transform="rotate(0,1112,728)"/><path d="M 1160 712v 32h 16a 16 16, 0, 0, 0, 0 -32" transform="rotate(90,1176,728)"/><rect x="8" y="744" width="32" height="32" transform="rotate(0,24,760)"/><path d="M 72 744v 32h 16a 16 16, 0, 0, 0, 0 -32" transform="rotate(-90,88,760)"/><path d="M 136 744v 32h 32v -16a 16 16, 0, 0, 0, -16 -16" transform="rotate(-90,152,760)"/><path d="M 168 744v 32h 32v -16a 16 16, 0, 0, 0, -16 -16" transform="rotate(90,184,760)"/><path d="M 264 744v 32h 32v -16a 16 16, 0, 0, 0, -16 -16" transform="rotate(-90,280,760)"/><rect x="296" y="744" width="32" height="32" transform="rotate(0,312,760)"/><rect x="328" y="744" width="32" height="32" transform="rotate(0,344,760)"/><path d="M 360 744v 32h 16a 16 16, 0, 0, 0, 0 -32" transform="rotate(0,376,760)"/><rect x="424" y="744" width="32" height="32" transform="rotate(0,440,760)"/><rect x="520" y="744" width="32" height="32" transform="rotate(0,536,760)"/><path d="M 584 744v 32h 32v -16a 16 16, 0, 0, 0, -16 -16" transform="rotate(-90,600,760)"/><path d="M 616 744v 32h 32v -16a 16 16, 0, 0, 0, -16 -16" transform="rotate(90,632,760)"/><rect x="744" y="744" width="32" height="32" transform="rotate(0,760,760)"/><path d="M 776 744v 32h 16a 16 16, 0, 0, 0, 0 -32" transform="rotate(0,792,760)"/><path d="M 840 744v 32h 32v -16a 16 16, 0, 0, 0, -16 -16" transform="rotate(180,856,760)"/><path d="M 872 744v 32h 32v -16a 16 16, 0, 0, 0, -16 -16" transform="rotate(90,888,760)"/><circle cx="952" cy="760" r="16" transform="rotate(0,952,760)"/><path d="M 1000 744v 32h 16a 16 16, 0, 0, 0, 0 -32" transform="rotate(90,1016,760)"/><circle cx="1080" cy="760" r="16" transform="rotate(0,1080,760)"/><path d="M 8 776v 32h 16a 16 16, 0, 0, 0, 0 -32" transform="rotate(90,24,792)"/><rect x="72" y="776" width="32" height="32" transform="rotate(0,88,792)"/><rect x="104" y="776" width="32" height="32" transform="rotate(0,120,792)"/><rect x="136" y="776" width="32" height="32" transform="rotate(0,152,792)"/><circle cx="216" cy="792" r="16" transform="rotate(0,216,792)"/><path d="M 264 776v 32h 32v -16a 16 16, 0, 0, 0, -16 -16" transform="rotate(180,280,792)"/><rect x="296" y="776" width="32" height="32" transform="rotate(0,312,792)"/><path d="M 328 776v 32h 32v -16a 16 16, 0, 0, 0, -16 -16" transform="rotate(90,344,792)"/><path d="M 424 776v 32h 16a 16 16, 0, 0, 0, 0 -32" transform="rotate(90,440,792)"/><rect x="520" y="776" width="32" height="32" transform="rotate(0,536,792)"/><path d="M 584 776v 32h 16a 16 16, 0, 0, 0, 0 -32" transform="rotate(90,600,792)"/><circle cx="664" cy="792" r="16" transform="rotate(0,664,792)"/><rect x="744" y="776" width="32" height="32" transform="rotate(0,760,792)"/><path d="M 904 776v 32h 16a 16 16, 0, 0, 0, 0 -32" transform="rotate(-90,920,792)"/><path d="M 968 776v 32h 16a 16 16, 0, 0, 0, 0 -32" transform="rotate(-90,984,792)"/><circle cx="1144" cy="792" r="16" transform="rotate(0,1144,792)"/><path d="M 40 808v 32h 32v -16a 16 16, 0, 0, 0, -16 -16" transform="rotate(-90,56,824)"/><path d="M 72 808v 32h 32v -16a 16 16, 0, 0, 0, -16 -16" transform="rotate(90,88,824)"/><path d="M 136 808v 32h 16a 16 16, 0, 0, 0, 0 -32" transform="rotate(90,152,824)"/><rect x="296" y="808" width="32" height="32" transform="rotate(0,312,824)"/><path d="M 360 808v 32h 16a 16 16, 0, 0, 0, 0 -32" transform="rotate(180,376,824)"/><path d="M 392 808v 32h 16a 16 16, 0, 0, 0, 0 -32" transform="rotate(0,408,824)"/><path d="M 456 808v 32h 16a 16 16, 0, 0, 0, 0 -32" transform="rotate(180,472,824)"/><rect x="488" y="808" width="32" height="32" transform="rotate(0,504,824)"/><rect x="520" y="808" width="32" height="32" transform="rotate(0,536,824)"/><path d="M 552 808v 32h 32v -16a 16 16, 0, 0, 0, -16 -16" transform="rotate(0,568,824)"/><circle cx="632" cy="824" r="16" transform="rotate(0,632,824)"/><path d="M 680 808v 32h 32v -16a 16 16, 0, 0, 0, -16 -16" transform="rotate(-90,696,824)"/><rect x="712" y="808" width="32" height="32" transform="rotate(0,728,824)"/><rect x="744" y="808" width="32" height="32" transform="rotate(0,760,824)"/><path d="M 776 808v 32h 32v -16a 16 16, 0, 0, 0, -16 -16" transform="rotate(0,792,824)"/><path d="M 840 808v 32h 32v -16a 16 16, 0, 0, 0, -16 -16" transform="rotate(-90,856,824)"/><rect x="872" y="808" width="32" height="32" transform="rotate(0,888,824)"/><rect x="904" y="808" width="32" height="32" transform="rotate(0,920,824)"/><rect x="936" y="808" width="32" height="32" transform="rotate(0,952,824)"/><rect x="968" y="808" width="32" height="32" transform="rotate(0,984,824)"/><path d="M 1000 808v 32h 16a 16 16, 0, 0, 0, 0 -32" transform="rotate(0,1016,824)"/><path d="M 1064 808v 32h 32v -16a 16 16, 0, 0, 0, -16 -16" transform="rotate(-90,1080,824)"/><path d="M 1096 808v 32h 16a 16 16, 0, 0, 0, 0 -32" transform="rotate(0,1112,824)"/><path d="M 1160 808v 32h 16a 16 16, 0, 0, 0, 0 -32" transform="rotate(-90,1176,824)"/><path d="M 8 840v 32h 16a 16 16, 0, 0, 0, 0 -32" transform="rotate(180,24,856)"/><path d="M 40 840v 32h 32v -16a 16 16, 0, 0, 0, -16 -16" transform="rotate(90,56,856)"/><path d="M 200 840v 32h 16a 16 16, 0, 0, 0, 0 -32" transform="rotate(180,216,856)"/><rect x="232" y="840" width="32" height="32" transform="rotate(0,248,856)"/><rect x="264" y="840" width="32" height="32" transform="rotate(0,280,856)"/><path d="M 296 840v 32h 32v -16a 16 16, 0, 0, 0, -16 -16" transform="rotate(90,312,856)"/><rect x="552" y="840" width="32" height="32" transform="rotate(0,568,856)"/><path d="M 584 840v 32h 32v -16a 16 16, 0, 0, 0, -16 -16" transform="rotate(0,600,856)"/><path d="M 648 840v 32h 16a 16 16, 0, 0, 0, 0 -32" transform="rotate(180,664,856)"/><path d="M 680 840v 32h 32v -16a 16 16, 0, 0, 0, -16 -16" transform="rotate(90,696,856)"/><rect x="744" y="840" width="32" height="32" transform="rotate(0,760,856)"/><rect x="776" y="840" width="32" height="32" transform="rotate(0,792,856)"/><rect x="840" y="840" width="32" height="32" transform="rotate(0,856,856)"/><rect x="872" y="840" width="32" height="32" transform="rotate(0,888,856)"/><rect x="904" y="840" width="32" height="32" transform="rotate(0,920,856)"/><rect x="936" y="840" width="32" height="32" transform="rotate(0,952,856)"/><rect x="968" y="840" width="32" height="32" transform="rotate(0,984,856)"/><rect x="1064" y="840" width="32" height="32" transform="rotate(0,1080,856)"/><path d="M 1160 840v 32h 16a 16 16, 0, 0, 0, 0 -32" transform="rotate(90,1176,856)"/><path d="M 72 872v 32h 16a 16 16, 0, 0, 0, 0 -32" transform="rotate(-90,88,888)"/><circle cx="152" cy="888" r="16" transform="rotate(0,152,888)"/><path d="M 232 872v 32h 32v -16a 16 16, 0, 0, 0, -16 -16" transform="rotate(180,248,888)"/><path d="M 264 872v 32h 32v -16a 16 16, 0, 0, 0, -16 -16" transform="rotate(90,280,888)"/><path d="M 328 872v 32h 16a 16 16, 0, 0, 0, 0 -32" transform="rotate(-90,344,888)"/><path d="M 424 872v 32h 32v -16a 16 16, 0, 0, 0, -16 -16" transform="rotate(-90,440,888)"/><rect x="456" y="872" width="32" height="32" transform="rotate(0,472,888)"/><path d="M 488 872v 32h 32v -16a 16 16, 0, 0, 0, -16 -16" transform="rotate(0,504,888)"/><path d="M 552 872v 32h 32v -16a 16 16, 0, 0, 0, -16 -16" transform="rotate(180,568,888)"/><rect x="584" y="872" width="32" height="32" transform="rotate(0,600,888)"/><path d="M 616 872v 32h 32v -16a 16 16, 0, 0, 0, -16 -16" transform="rotate(0,632,888)"/><path d="M 712 872v 32h 16a 16 16, 0, 0, 0, 0 -32" transform="rotate(180,728,888)"/><rect x="744" y="872" width="32" height="32" transform="rotate(0,760,888)"/><rect x="776" y="872" width="32" height="32" transform="rotate(0,792,888)"/><path d="M 840 872v 32h 32v -16a 16 16, 0, 0, 0, -16 -16" transform="rotate(180,856,888)"/><rect x="872" y="872" width="32" height="32" transform="rotate(0,888,888)"/><rect x="904" y="872" width="32" height="32" transform="rotate(0,920,888)"/><rect x="936" y="872" width="32" height="32" transform="rotate(0,952,888)"/><rect x="968" y="872" width="32" height="32" transform="rotate(0,984,888)"/><path d="M 1000 872v 32h 32v -16a 16 16, 0, 0, 0, -16 -16" transform="rotate(0,1016,888)"/><rect x="1064" y="872" width="32" height="32" transform="rotate(0,1080,888)"/><path d="M 8 904v 32h 16a 16 16, 0, 0, 0, 0 -32" transform="rotate(180,24,920)"/><rect x="40" y="904" width="32" height="32" transform="rotate(0,56,920)"/><rect x="72" y="904" width="32" height="32" transform="rotate(0,88,920)"/><path d="M 104 904v 32h 16a 16 16, 0, 0, 0, 0 -32" transform="rotate(0,120,920)"/><path d="M 168 904v 32h 16a 16 16, 0, 0, 0, 0 -32" transform="rotate(180,184,920)"/><path d="M 200 904v 32h 16a 16 16, 0, 0, 0, 0 -32" transform="rotate(0,216,920)"/><path d="M 296 904v 32h 16a 16 16, 0, 0, 0, 0 -32" transform="rotate(180,312,920)"/><path d="M 328 904v 32h 32v -16a 16 16, 0, 0, 0, -16 -16" transform="rotate(90,344,920)"/><path d="M 392 904v 32h 16a 16 16, 0, 0, 0, 0 -32" transform="rotate(180,408,920)"/><path d="M 424 904v 32h 32v -16a 16 16, 0, 0, 0, -16 -16" transform="rotate(90,440,920)"/><rect x="488" y="904" width="32" height="32" transform="rotate(0,504,920)"/><rect x="616" y="904" width="32" height="32" transform="rotate(0,632,920)"/><path d="M 648 904v 32h 16a 16 16, 0, 0, 0, 0 -32" transform="rotate(0,664,920)"/><rect x="776" y="904" width="32" height="32" transform="rotate(0,792,920)"/><rect x="872" y="904" width="32" height="32" transform="rotate(0,888,920)"/><rect x="904" y="904" width="32" height="32" transform="rotate(0,920,920)"/><rect x="936" y="904" width="32" height="32" transform="rotate(0,952,920)"/><rect x="968" y="904" width="32" height="32" transform="rotate(0,984,920)"/><rect x="1000" y="904" width="32" height="32" transform="rotate(0,1016,920)"/><rect x="1032" y="904" width="32" height="32" transform="rotate(0,1048,920)"/><rect x="1064" y="904" width="32" height="32" transform="rotate(0,1080,920)"/><path d="M 1160 904v 32h 16a 16 16, 0, 0, 0, 0 -32" transform="rotate(-90,1176,920)"/><circle cx="280" cy="952" r="16" transform="rotate(0,280,952)"/><circle cx="376" cy="952" r="16" transform="rotate(0,376,952)"/><path d="M 456 936v 32h 16a 16 16, 0, 0, 0, 0 -32" transform="rotate(180,472,952)"/><rect x="488" y="936" width="32" height="32" transform="rotate(0,504,952)"/><rect x="520" y="936" width="32" height="32" transform="rotate(0,536,952)"/><rect x="552" y="936" width="32" height="32" transform="rotate(0,568,952)"/><rect x="584" y="936" width="32" height="32" transform="rotate(0,600,952)"/><path d="M 616 936v 32h 32v -16a 16 16, 0, 0, 0, -16 -16" transform="rotate(90,632,952)"/><path d="M 680 936v 32h 16a 16 16, 0, 0, 0, 0 -32" transform="rotate(180,696,952)"/><rect x="712" y="936" width="32" height="32" transform="rotate(0,728,952)"/><rect x="744" y="936" width="32" height="32" transform="rotate(0,760,952)"/><rect x="776" y="936" width="32" height="32" transform="rotate(0,792,952)"/><rect x="808" y="936" width="32" height="32" transform="rotate(0,824,952)"/><rect x="840" y="936" width="32" height="32" transform="rotate(0,856,952)"/><rect x="872" y="936" width="32" height="32" transform="rotate(0,888,952)"/><rect x="904" y="936" width="32" height="32" transform="rotate(0,920,952)"/><rect x="1032" y="936" width="32" height="32" transform="rotate(0,1048,952)"/><rect x="1064" y="936" width="32" height="32" transform="rotate(0,1080,952)"/><rect x="1160" y="936" width="32" height="32" transform="rotate(0,1176,952)"/><path d="M 392 968v 32h 16a 16 16, 0, 0, 0, 0 -32" transform="rotate(180,408,984)"/><path d="M 424 968v 32h 32v -16a 16 16, 0, 0, 0, -16 -16" transform="rotate(0,440,984)"/><path d="M 488 968v 32h 16a 16 16, 0, 0, 0, 0 -32" transform="rotate(90,504,984)"/><rect x="584" y="968" width="32" height="32" transform="rotate(0,600,984)"/><path d="M 648 968v 32h 16a 16 16, 0, 0, 0, 0 -32" transform="rotate(-90,664,984)"/><path d="M 744 968v 32h 16a 16 16, 0, 0, 0, 0 -32" transform="rotate(90,760,984)"/><path d="M 808 968v 32h 32v -16a 16 16, 0, 0, 0, -16 -16" transform="rotate(180,824,984)"/><rect x="840" y="968" width="32" height="32" transform="rotate(0,856,984)"/><rect x="904" y="968" width="32" height="32" transform="rotate(0,920,984)"/><circle cx="984" cy="984" r="16" transform="rotate(0,984,984)"/><rect x="1032" y="968" width="32" height="32" transform="rotate(0,1048,984)"/><rect x="1064" y="968" width="32" height="32" transform="rotate(0,1080,984)"/><path d="M 1096 968v 32h 16a 16 16, 0, 0, 0, 0 -32" transform="rotate(0,1112,984)"/><rect x="1160" y="968" width="32" height="32" transform="rotate(0,1176,984)"/><rect x="424" y="1000" width="32" height="32" transform="rotate(0,440,1016)"/><path d="M 456 1000v 32h 32v -16a 16 16, 0, 0, 0, -16 -16" transform="rotate(0,472,1016)"/><path d="M 552 1000v 32h 16a 16 16, 0, 0, 0, 0 -32" transform="rotate(180,568,1016)"/><path d="M 584 1000v 32h 32v -16a 16 16, 0, 0, 0, -16 -16" transform="rotate(90,600,1016)"/><path d="M 648 1000v 32h 32v -16a 16 16, 0, 0, 0, -16 -16" transform="rotate(180,664,1016)"/><path d="M 680 1000v 32h 32v -16a 16 16, 0, 0, 0, -16 -16" transform="rotate(0,696,1016)"/><circle cx="792" cy="1016" r="16" transform="rotate(0,792,1016)"/><path d="M 840 1000v 32h 32v -16a 16 16, 0, 0, 0, -16 -16" transform="rotate(180,856,1016)"/><rect x="872" y="1000" width="32" height="32" transform="rotate(0,888,1016)"/><rect x="904" y="1000" width="32" height="32" transform="rotate(0,920,1016)"/><rect x="1032" y="1000" width="32" height="32" transform="rotate(0,1048,1016)"/><path d="M 1064 1000v 32h 32v -16a 16 16, 0, 0, 0, -16 -16" transform="rotate(90,1080,1016)"/><rect x="1160" y="1000" width="32" height="32" transform="rotate(0,1176,1016)"/><path d="M 424 1032v 32h 32v -16a 16 16, 0, 0, 0, -16 -16" transform="rotate(180,440,1048)"/><path d="M 456 1032v 32h 32v -16a 16 16, 0, 0, 0, -16 -16" transform="rotate(90,472,1048)"/><circle cx="536" cy="1048" r="16" transform="rotate(0,536,1048)"/><circle cx="632" cy="1048" r="16" transform="rotate(0,632,1048)"/><path d="M 680 1032v 32h 16a 16 16, 0, 0, 0, 0 -32" transform="rotate(90,696,1048)"/><path d="M 744 1032v 32h 16a 16 16, 0, 0, 0, 0 -32" transform="rotate(-90,760,1048)"/><rect x="872" y="1032" width="32" height="32" transform="rotate(0,888,1048)"/><rect x="904" y="1032" width="32" height="32" transform="rotate(0,920,1048)"/><rect x="936" y="1032" width="32" height="32" transform="rotate(0,952,1048)"/><rect x="968" y="1032" width="32" height="32" transform="rotate(0,984,1048)"/><rect x="1000" y="1032" width="32" height="32" transform="rotate(0,1016,1048)"/><rect x="1032" y="1032" width="32" height="32" transform="rotate(0,1048,1048)"/><path d="M 1128 1032v 32h 32v -16a 16 16, 0, 0, 0, -16 -16" transform="rotate(-90,1144,1048)"/><rect x="1160" y="1032" width="32" height="32" transform="rotate(0,1176,1048)"/><path d="M 328 1064v 32h 16a 16 16, 0, 0, 0, 0 -32" transform="rotate(180,344,1080)"/><rect x="360" y="1064" width="32" height="32" transform="rotate(0,376,1080)"/><path d="M 392 1064v 32h 32v -16a 16 16, 0, 0, 0, -16 -16" transform="rotate(0,408,1080)"/><circle cx="504" cy="1080" r="16" transform="rotate(0,504,1080)"/><path d="M 552 1064v 32h 16a 16 16, 0, 0, 0, 0 -32" transform="rotate(-90,568,1080)"/><rect x="744" y="1064" width="32" height="32" transform="rotate(0,760,1080)"/><rect x="776" y="1064" width="32" height="32" transform="rotate(0,792,1080)"/><path d="M 808 1064v 32h 16a 16 16, 0, 0, 0, 0 -32" transform="rotate(0,824,1080)"/><rect x="872" y="1064" width="32" height="32" transform="rotate(0,888,1080)"/><rect x="904" y="1064" width="32" height="32" transform="rotate(0,920,1080)"/><rect x="1032" y="1064" width="32" height="32" transform="rotate(0,1048,1080)"/><rect x="1064" y="1064" width="32" height="32" transform="rotate(0,1080,1080)"/><rect x="1096" y="1064" width="32" height="32" transform="rotate(0,1112,1080)"/><rect x="1128" y="1064" width="32" height="32" transform="rotate(0,1144,1080)"/><rect x="1160" y="1064" width="32" height="32" transform="rotate(0,1176,1080)"/><path d="M 264 1096v 32h 16a 16 16, 0, 0, 0, 0 -32" transform="rotate(-90,280,1112)"/><path d="M 392 1096v 32h 16a 16 16, 0, 0, 0, 0 -32" transform="rotate(90,408,1112)"/><circle cx="472" cy="1112" r="16" transform="rotate(0,472,1112)"/><path d="M 520 1096v 32h 32v -16a 16 16, 0, 0, 0, -16 -16" transform="rotate(-90,536,1112)"/><path d="M 552 1096v 32h 32v -16a 16 16, 0, 0, 0, -16 -16" transform="rotate(90,568,1112)"/><circle cx="632" cy="1112" r="16" transform="rotate(0,632,1112)"/><circle cx="696" cy="1112" r="16" transform="rotate(0,696,1112)"/><path d="M 744 1096v 32h 16a 16 16, 0, 0, 0, 0 -32" transform="rotate(90,760,1112)"/><path d="M 872 1096v 32h 32v -16a 16 16, 0, 0, 0, -16 -16" transform="rotate(180,888,1112)"/><rect x="904" y="1096" width="32" height="32" transform="rotate(0,920,1112)"/><rect x="1032" y="1096" width="32" height="32" transform="rotate(0,1048,1112)"/><rect x="1064" y="1096" width="32" height="32" transform="rotate(0,1080,1112)"/><rect x="1096" y="1096" width="32" height="32" transform="rotate(0,1112,1112)"/><rect x="1128" y="1096" width="32" height="32" transform="rotate(0,1144,1112)"/><path d="M 1160 1096v 32h 32v -16a 16 16, 0, 0, 0, -16 -16" transform="rotate(90,1176,1112)"/><path d="M 264 1128v 32h 16a 16 16, 0, 0, 0, 0 -32" transform="rotate(90,280,1144)"/><path d="M 328 1128v 32h 32v -16a 16 16, 0, 0, 0, -16 -16" transform="rotate(-90,344,1144)"/><path d="M 360 1128v 32h 32v -16a 16 16, 0, 0, 0, -16 -16" transform="rotate(0,376,1144)"/><path d="M 488 1128v 32h 16a 16 16, 0, 0, 0, 0 -32" transform="rotate(180,504,1144)"/><path d="M 520 1128v 32h 32v -16a 16 16, 0, 0, 0, -16 -16" transform="rotate(90,536,1144)"/><path d="M 584 1128v 32h 16a 16 16, 0, 0, 0, 0 -32" transform="rotate(-90,600,1144)"/><path d="M 776 1128v 32h 16a 16 16, 0, 0, 0, 0 -32" transform="rotate(-90,792,1144)"/><rect x="904" y="1128" width="32" height="32" transform="rotate(0,920,1144)"/><rect x="1032" y="1128" width="32" height="32" transform="rotate(0,1048,1144)"/><path d="M 1064 1128v 32h 32v -16a 16 16, 0, 0, 0, -16 -16" transform="rotate(90,1080,1144)"/><path d="M 328 1160v 32h 32v -16a 16 16, 0, 0, 0, -16 -16" transform="rotate(180,344,1176)"/><path d="M 360 1160v 32h 32v -16a 16 16, 0, 0, 0, -16 -16" transform="rotate(90,376,1176)"/><path d="M 424 1160v 32h 16a 16 16, 0, 0, 0, 0 -32" transform="rotate(180,440,1176)"/><path d="M 456 1160v 32h 16a 16 16, 0, 0, 0, 0 -32" transform="rotate(0,472,1176)"/><path d="M 552 1160v 32h 16a 16 16, 0, 0, 0, 0 -32" transform="rotate(180,568,1176)"/><rect x="584" y="1160" width="32" height="32" transform="rotate(0,600,1176)"/><rect x="616" y="1160" width="32" height="32" transform="rotate(0,632,1176)"/><path d="M 648 1160v 32h 16a 16 16, 0, 0, 0, 0 -32" transform="rotate(0,664,1176)"/><path d="M 744 1160v 32h 16a 16 16, 0, 0, 0, 0 -32" transform="rotate(180,760,1176)"/><path d="M 776 1160v 32h 32v -16a 16 16, 0, 0, 0, -16 -16" transform="rotate(90,792,1176)"/><path d="M 904 1160v 32h 16a 16 16, 0, 0, 0, 0 -32" transform="rotate(90,920,1176)"/><path d="M 1000 1160v 32h 16a 16 16, 0, 0, 0, 0 -32" transform="rotate(180,1016,1176)"/><path d="M 1032 1160v 32h 32v -16a 16 16, 0, 0, 0, -16 -16" transform="rotate(90,1048,1176)"/><circle cx="1176" cy="1176" r="16" transform="rotate(0,1176,1176)"/></clipPath><clipPath id="clip-path-corners-square-color-0-0-662"><path clip-rule="evenodd" d="M 8 88v 64a 80 80, 0, 0, 0, 80 80h 64a 80 80, 0, 0, 0, 80 -80v -64a 80 80, 0, 0, 0, -80 -80h -64a 80 80, 0, 0, 0, -80 80M 88 40h 64a 48 48, 0, 0, 1, 48 48v 64a 48 48, 0, 0, 1, -48 48h -64a 48 48, 0, 0, 1, -48 -48v -64a 48 48, 0, 0, 1, 48 -48" transform="rotate(0,120,120)"/></clipPath><clipPath id="clip-path-corners-dot-color-0-0-662"><circle cx="120" cy="120" r="48" transform="rotate(0,120,120)"/></clipPath><clipPath id="clip-path-corners-square-color-1-0-662"><path clip-rule="evenodd" d="M 968 88v 64a 80 80, 0, 0, 0, 80 80h 64a 80 80, 0, 0, 0, 80 -80v -64a 80 80, 0, 0, 0, -80 -80h -64a 80 80, 0, 0, 0, -80 80M 1048 40h 64a 48 48, 0, 0, 1, 48 48v 64a 48 48, 0, 0, 1, -48 48h -64a 48 48, 0, 0, 1, -48 -48v -64a 48 48, 0, 0, 1, 48 -48" transform="rotate(90,1080,120)"/></clipPath><clipPath id="clip-path-corners-dot-color-1-0-662"><circle cx="1080" cy="120" r="48" transform="rotate(90,1080,120)"/></clipPath><clipPath id="clip-path-corners-square-color-0-1-662"><path clip-rule="evenodd" d="M 8 1048v 64a 80 80, 0, 0, 0, 80 80h 64a 80 80, 0, 0, 0, 80 -80v -64a 80 80, 0, 0, 0, -80 -80h -64a 80 80, 0, 0, 0, -80 80M 88 1000h 64a 48 48, 0, 0, 1, 48 48v 64a 48 48, 0, 0, 1, -48 48h -64a 48 48, 0, 0, 1, -48 -48v -64a 48 48, 0, 0, 1, 48 -48" transform="rotate(-90,120,1080)"/></clipPath><clipPath id="clip-path-corners-dot-color-0-1-662"><circle cx="120" cy="1080" r="48" transform="rotate(-90,120,1080)"/></clipPath></defs><rect x="0" y="0" height="1200" width="1200" clip-path="url('#clip-path-background-color-662')" fill="#ffffff"/><rect x="0" y="0" height="1200" width="1200" clip-path="url('#clip-path-dot-color-662')" fill="#000000"/><rect x="8" y="8" height="224" width="224" clip-path="url('#clip-path-corners-square-color-0-0-662')" fill="#000000"/><rect x="72" y="72" height="96" width="96" clip-path="url('#clip-path-corners-dot-color-0-0-662')" fill="#000000"/><rect x="968" y="8" height="224" width="224" clip-path="url('#clip-path-corners-square-color-1-0-662')" fill="#000000"/><rect x="1032" y="72" height="96" width="96" clip-path="url('#clip-path-corners-dot-color-1-0-662')" fill="#000000"/><rect x="8" y="968" height="224" width="224" clip-path="url('#clip-path-corners-square-color-0-1-662')" fill="#000000"/><rect x="72" y="1032" height="96" width="96" clip-path="url('#clip-path-corners-dot-color-0-1-662')" fill="#000000"/></svg>