<?xml version="1.0" standalone="no"?>
<svg xmlns="http://www.w3.org/2000/svg" width="1200" height="1200" xmlns:xlink="http://www.w3.org/1999/xlink" viewBox="0 0 1200 1200"><defs><clipPath id="clip-path-background-color-38"><rect x="0" y="0" width="1200" height="1200"/></clipPath><clipPath id="clip-path-dot-color-38"><path d="M 296 8v 32h 32v -16a 16 16, 0, 0, 0, -16 -16" transform="rotate(-90,312,24)"/><rect x="328" y="8" width="32" height="32" transform="rotate(0,344,24)"/><path d="M 360 8v 32h 16a 16 16, 0, 0, 0, 0 -32" transform="rotate(0,376,24)"/><path d="M 648 8v 32h 32v -16a 16 16, 0, 0, 0, -16 -16" transform="rotate(-90,664,24)"/><path d="M 680 8v 32h 16a 16 16, 0, 0, 0, 0 -32" transform="rotate(0,696,24)"/><path d="M 744 8v 32h 16a 16 16, 0, 0, 0, 0 -32" transform="rotate(180,760,24)"/><rect x="776" y="8" width="32" height="32" transform="rotate(0,792,24)"/><rect x="808" y="8" width="32" height="32" transform="rotate(0,824,24)"/><path d="M 840 8v 32h 16a 16 16, 0, 0, 0, 0 -32" transform="rotate(0,856,24)"/><path d="M 904 8v 32h 16a 16 16, 0, 0, 0, 0 -32" transform="rotate(-90,920,24)"/><path d="M 296 40v 32h 16a 16 16, 0, 0, 0, 0 -32" transform="rotate(90,312,56)"/><path d="M 488 40v 32h 16a 16 16, 0, 0, 0, 0 -32" transform="rotate(-90,504,56)"/><path d="M 552 40v 32h 16a 16 16, 0, 0, 0, 0 -32" transform="rotate(-90,568,56)"/><path d="M 616 40v 32h 16a 16 16, 0, 0, 0, 0 -32" transform="rotate(180,632,56)"/><path d="M 648 40v 32h 32v -16a 16 16, 0, 0, 0, -16 -16" transform="rotate(90,664,56)"/><path d="M 712 40v 32h 16a 16 16, 0, 0, 0, 0 -32" transform="rotate(-90,728,56)"/><rect x="776" y="40" width="32" height="32" transform="rotate(0,792,56)"/><rect x="808" y="40" width="32" height="32" transform="rotate(0,824,56)"/><path d="M 904 40v 32h 16a 16 16, 0, 0, 0, 0 -32" transform="rotate(90,920,56)"/><circle cx="344" cy="88" r="16" transform="rotate(0,344,88)"/><path d="M 392 72v 32h 32v -16a 16 16, 0, 0, 0, -16 -16" transform="rotate(-90,408,88)"/><rect x="424" y="72" width="32" height="32" transform="rotate(0,440,88)"/><rect x="456" y="72" width="32" height="32" transform="rotate(0,472,88)"/><rect x="488" y="72" width="32" height="32" transform="rotate(0,504,88)"/><rect x="520" y="72" width="32" height="32" transform="rotate(0,536,88)"/><path d="M 552 72v 32h 32v -16a 16 16, 0, 0, 0, -16 -16" transform="rotate(90,568,88)"/><path d="M 680 72v 32h 32v -16a 16 16, 0, 0, 0, -16 -16" transform="rotate(-90,696,88)"/><rect x="712" y="72" width="32" height="32" transform="rotate(0,728,88)"/><rect x="744" y="72" width="32" height="32" transform="rotate(0,760,88)"/><rect x="776" y="72" width="32" height="32" transform="rotate(0,792,88)"/><rect x="808" y="72" width="32" height="32" transform="rotate(0,824,88)"/><rect x="840" y="72" width="32" height="32" transform="rotate(0,856,88)"/><path d="M 872 72v 32h 32v -16a 16 16, 0, 0, 0, -16 -16" transform="rotate(0,888,88)"/><path d="M 264 104v 32h 16a 16 16, 0, 0, 0, 0 -32" transform="rotate(180,280,120)"/><path d="M 296 104v 32h 16a 16 16, 0, 0, 0, 0 -32" transform="rotate(0,312,120)"/><path d="M 392 104v 32h 16a 16 16, 0, 0, 0, 0 -32" transform="rotate(90,408,120)"/><rect x="456" y="104" width="32" height="32" transform="rotate(0,472,120)"/><rect x="488" y="104" width="32" height="32" transform="rotate(0,504,120)"/><path d="M 520 104v 32h 32v -16a 16 16, 0, 0, 0, -16 -16" transform="rotate(90,536,120)"/><path d="M 648 104v 32h 32v -16a 16 16, 0, 0, 0, -16 -16" transform="rotate(-90,664,120)"/><rect x="680" y="104" width="32" height="32" transform="rotate(0,696,120)"/><path d="M 712 104v 32h 32v -16a 16 16, 0, 0, 0, -16 -16" transform="rotate(90,728,120)"/><path d="M 776 104v 32h 32v -16a 16 16, 0, 0, 0, -16 -16" transform="rotate(180,792,120)"/><rect x="808" y="104" width="32" height="32" transform="rotate(0,824,120)"/><rect x="840" y="104" width="32" height="32" transform="rotate(0,856,120)"/><path d="M 872 104v 32h 32v -16a 16 16, 0, 0, 0, -16 -16" transform="rotate(90,888,120)"/><path d="M 328 136v 32h 16a 16 16, 0, 0, 0, 0 -32" transform="rotate(180,344,152)"/><path d="M 360 136v 32h 32v -16a 16 16, 0, 0, 0, -16 -16" transform="rotate(0,376,152)"/><path d="M 456 136v 32h 32v -16a 16 16, 0, 0, 0, -16 -16" transform="rotate(180,472,152)"/><path d="M 488 136v 32h 32v -16a 16 16, 0, 0, 0, -16 -16" transform="rotate(90,504,152)"/><path d="M 616 136v 32h 16a 16 16, 0, 0, 0, 0 -32" transform="rotate(180,632,152)"/><rect x="648" y="136" width="32" height="32" transform="rotate(0,664,152)"/><path d="M 680 136v 32h 32v -16a 16 16, 0, 0, 0, -16 -16" transform="rotate(90,696,152)"/><path d="M 808 136v 32h 32v -16a 16 16, 0, 0, 0, -16 -16" transform="rotate(180,824,152)"/><path d="M 840 136v 32h 32v -16a 16 16, 0, 0, 0, -16 -16" transform="rotate(90,856,152)"/><path d="M 904 136v 32h 16a 16 16, 0, 0, 0, 0 -32" transform="rotate(-90,920,152)"/><path d="M 264 168v 32h 32v -16a 16 16, 0, 0, 0, -16 -16" transform="rotate(-90,280,184)"/><path d="M 296 168v 32h 16a 16 16, 0, 0, 0, 0 -32" transform="rotate(0,312,184)"/><path d="M 360 168v 32h 16a 16 16, 0, 0, 0, 0 -32" transform="rotate(90,376,184)"/><path d="M 520 168v 32h 32v -16a 16 16, 0, 0, 0, -16 -16" transform="rotate(-90,536,184)"/><path d="M 552 168v 32h 16a 16 16, 0, 0, 0, 0 -32" transform="rotate(0,568,184)"/><path d="M 712 168v 32h 16a 16 16, 0, 0, 0, 0 -32" transform="rotate(-90,728,184)"/><path d="M 776 168v 32h 16a 16 16, 0, 0, 0, 0 -32" transform="rotate(-90,792,184)"/><rect x="904" y="168" width="32" height="32" transform="rotate(0,920,184)"/><rect x="264" y="200" width="32" height="32" transform="rotate(0,280,216)"/><circle cx="344" cy="216" r="16" transform="rotate(0,344,216)"/><circle cx="408" cy="216" r="16" transform="rotate(0,408,216)"/><path d="M 456 200v 32h 16a 16 16, 0, 0, 0, 0 -32" transform="rotate(-90,472,216)"/><path d="M 520 200v 32h 16a 16 16, 0, 0, 0, 0 -32" transform="rotate(90,536,216)"/><circle cx="600" cy="216" r="16" transform="rotate(0,600,216)"/><circle cx="664" cy="216" r="16" transform="rotate(0,664,216)"/><rect x="712" y="200" width="32" height="32" transform="rotate(0,728,216)"/><rect x="776" y="200" width="32" height="32" transform="rotate(0,792,216)"/><path d="M 840 200v 32h 16a 16 16, 0, 0, 0, 0 -32" transform="rotate(-90,856,216)"/><rect x="904" y="200" width="32" height="32" transform="rotate(0,920,216)"/><path d="M 264 232v 32h 16a 16 16, 0, 0, 0, 0 -32" transform="rotate(90,280,248)"/><path d="M 424 232v 32h 32v -16a 16 16, 0, 0, 0, -16 -16" transform="rotate(-90,440,248)"/><rect x="456" y="232" width="32" height="32" transform="rotate(0,472,248)"/><path d="M 488 232v 32h 32v -16a 16 16, 0, 0, 0, -16 -16" transform="rotate(0,504,248)"/><path d="M 712 232v 32h 16a 16 16, 0, 0, 0, 0 -32" transform="rotate(90,728,248)"/><rect x="776" y="232" width="32" height="32" transform="rotate(0,792,248)"/><rect x="840" y="232" width="32" height="32" transform="rotate(0,856,248)"/><rect x="872" y="232" width="32" height="32" transform="rotate(0,888,248)"/><rect x="904" y="232" width="32" height="32" transform="rotate(0,920,248)"/><path d="M 40 264v 32h 32v -16a 16 16, 0, 0, 0, -16 -16" transform="rotate(-90,56,280)"/><path d="M 72 264v 32h 16a 16 16, 0, 0, 0, 0 -32" transform="rotate(0,88,280)"/><circle cx="216" cy="280" r="16" transform="rotate(0,216,280)"/><path d="M 328 264v 32h 32v -16a 16 16, 0, 0, 0, -16 -16" transform="rotate(-90,344,280)"/><rect x="360" y="264" width="32" height="32" transform="rotate(0,376,280)"/><rect x="392" y="264" width="32" height="32" transform="rotate(0,408,280)"/><rect x="424" y="264" width="32" height="32" transform="rotate(0,440,280)"/><rect x="456" y="264" width="32" height="32" transform="rotate(0,472,280)"/><path d="M 488 264v 32h 32v -16a 16 16, 0, 0, 0, -16 -16" transform="rotate(90,504,280)"/><path d="M 584 264v 32h 32v -16a 16 16, 0, 0, 0, -16 -16" transform="rotate(-90,600,280)"/><path d="M 616 264v 32h 32v -16a 16 16, 0, 0, 0, -16 -16" transform="rotate(0,632,280)"/><path d="M 744 264v 32h 32v -16a 16 16, 0, 0, 0, -16 -16" transform="rotate(-90,760,280)"/><rect x="776" y="264" width="32" height="32" transform="rotate(0,792,280)"/><rect x="808" y="264" width="32" height="32" transform="rotate(0,824,280)"/><rect x="840" y="264" width="32" height="32" transform="rotate(0,856,280)"/><rect x="904" y="264" width="32" height="32" transform="rotate(0,920,280)"/><path d="M 968 264v 32h 16a 16 16, 0, 0, 0, 0 -32" transform="rotate(180,984,280)"/><path d="M 1000 264v 32h 16a 16 16, 0, 0, 0, 0 -32" transform="rotate(0,1016,280)"/><circle cx="1080" cy="280" r="16" transform="rotate(0,1080,280)"/><path d="M 8 296v 32h 16a 16 16, 0, 0, 0, 0 -32" transform="rotate(180,24,312)"/><path d="M 40 296v 32h 32v -16a 16 16, 0, 0, 0, -16 -16" transform="rotate(90,56,312)"/><path d="M 104 296v 32h 16a 16 16, 0, 0, 0, 0 -32" transform="rotate(-90,120,312)"/><path d="M 232 296v 32h 32v -16a 16 16, 0, 0, 0, -16 -16" transform="rotate(-90,248,312)"/><rect x="264" y="296" width="32" height="32" transform="rotate(0,280,312)"/><rect x="296" y="296" width="32" height="32" transform="rotate(0,312,312)"/><rect x="328" y="296" width="32" height="32" transform="rotate(0,344,312)"/><rect x="360" y="296" width="32" height="32" transform="rotate(0,376,312)"/><rect x="392" y="296" width="32" height="32" transform="rotate(0,408,312)"/><rect x="424" y="296" width="32" height="32" transform="rotate(0,440,312)"/><path d="M 520 296v 32h 16a 16 16, 0, 0, 0, 0 -32" transform="rotate(180,536,312)"/><rect x="552" y="296" width="32" height="32" transform="rotate(0,568,312)"/><rect x="584" y="296" width="32" height="32" transform="rotate(0,600,312)"/><path d="M 616 296v 32h 32v -16a 16 16, 0, 0, 0, -16 -16" transform="rotate(90,632,312)"/><path d="M 712 296v 32h 32v -16a 16 16, 0, 0, 0, -16 -16" transform="rotate(-90,728,312)"/><rect x="744" y="296" width="32" height="32" transform="rotate(0,760,312)"/><rect x="776" y="296" width="32" height="32" transform="rotate(0,792,312)"/><rect x="808" y="296" width="32" height="32" transform="rotate(0,824,312)"/><path d="M 840 296v 32h 32v -16a 16 16, 0, 0, 0, -16 -16" transform="rotate(90,856,312)"/><rect x="904" y="296" width="32" height="32" transform="rotate(0,920,312)"/><path d="M 1096 296v 32h 16a 16 16, 0, 0, 0, 0 -32" transform="rotate(-90,1112,312)"/><path d="M 1160 296v 32h 16a 16 16, 0, 0, 0, 0 -32" transform="rotate(-90,1176,312)"/><path d="M 72 328v 32h 16a 16 16, 0, 0, 0, 0 -32" transform="rotate(180,88,344)"/><path d="M 104 328v 32h 32v -16a 16 16, 0, 0, 0, -16 -16" transform="rotate(90,120,344)"/><path d="M 200 328v 32h 16a 16 16, 0, 0, 0, 0 -32" transform="rotate(180,216,344)"/><path d="M 232 328v 32h 32v -16a 16 16, 0, 0, 0, -16 -16" transform="rotate(90,248,344)"/><path d="M 360 328v 32h 16a 16 16, 0, 0, 0, 0 -32" transform="rotate(90,376,344)"/><path d="M 424 328v 32h 16a 16 16, 0, 0, 0, 0 -32" transform="rotate(90,440,344)"/><path d="M 712 328v 32h 32v -16a 16 16, 0, 0, 0, -16 -16" transform="rotate(180,728,344)"/><rect x="744" y="328" width="32" height="32" transform="rotate(0,760,344)"/><rect x="904" y="328" width="32" height="32" transform="rotate(0,920,344)"/><rect x="936" y="328" width="32" height="32" transform="rotate(0,952,344)"/><path d="M 968 328v 32h 16a 16 16, 0, 0, 0, 0 -32" transform="rotate(0,984,344)"/><path d="M 1096 328v 32h 16a 16 16, 0, 0, 0, 0 -32" transform="rotate(90,1112,344)"/><rect x="1160" y="328" width="32" height="32" transform="rotate(0,1176,344)"/><path d="M 8 360v 32h 32v -16a 16 16, 0, 0, 0, -16 -16" transform="rotate(-90,24,376)"/><path d="M 40 360v 32h 16a 16 16, 0, 0, 0, 0 -32" transform="rotate(0,56,376)"/><path d="M 136 360v 32h 32v -16a 16 16, 0, 0, 0, -16 -16" transform="rotate(-90,152,376)"/><path d="M 168 360v 32h 16a 16 16, 0, 0, 0, 0 -32" transform="rotate(0,184,376)"/><path d="M 264 360v 32h 16a 16 16, 0, 0, 0, 0 -32" transform="rotate(180,280,376)"/><path d="M 296 360v 32h 32v -16a 16 16, 0, 0, 0, -16 -16" transform="rotate(0,312,376)"/><path d="M 520 360v 32h 16a 16 16, 0, 0, 0, 0 -32" transform="rotate(-90,536,376)"/><circle cx="600" cy="376" r="16" transform="rotate(0,600,376)"/><circle cx="664" cy="376" r="16" transform="rotate(0,664,376)"/><rect x="744" y="360" width="32" height="32" transform="rotate(0,760,376)"/><path d="M 840 360v 32h 16a 16 16, 0, 0, 0, 0 -32" transform="rotate(180,856,376)"/><rect x="872" y="360" width="32" height="32" transform="rotate(0,888,376)"/><path d="M 904 360v 32h 32v -16a 16 16, 0, 0, 0, -16 -16" transform="rotate(90,920,376)"/><path d="M 1064 360v 32h 16a 16 16, 0, 0, 0, 0 -32" transform="rotate(-90,1080,376)"/><path d="M 1128 360v 32h 32v -16a 16 16, 0, 0, 0, -16 -16" transform="rotate(-90,1144,376)"/><rect x="1160" y="360" width="32" height="32" transform="rotate(0,1176,376)"/><rect x="8" y="392" width="32" height="32" transform="rotate(0,24,408)"/><rect x="136" y="392" width="32" height="32" transform="rotate(0,152,408)"/><path d="M 200 392v 32h 16a 16 16, 0, 0, 0, 0 -32" transform="rotate(180,216,408)"/><path d="M 232 392v 32h 32v -16a 16 16, 0, 0, 0, -16 -16" transform="rotate(0,248,408)"/><rect x="296" y="392" width="32" height="32" transform="rotate(0,312,408)"/><path d="M 392 392v 32h 32v -16a 16 16, 0, 0, 0, -16 -16" transform="rotate(-90,408,408)"/><path d="M 424 392v 32h 16a 16 16, 0, 0, 0, 0 -32" transform="rotate(0,440,408)"/><path d="M 488 392v 32h 32v -16a 16 16, 0, 0, 0, -16 -16" transform="rotate(-90,504,408)"/><rect x="520" y="392" width="32" height="32" transform="rotate(0,536,408)"/><path d="M 552 392v 32h 32v -16a 16 16, 0, 0, 0, -16 -16" transform="rotate(0,568,408)"/><circle cx="632" cy="408" r="16" transform="rotate(0,632,408)"/><path d="M 712 392v 32h 16a 16 16, 0, 0, 0, 0 -32" transform="rotate(180,728,408)"/><rect x="744" y="392" width="32" height="32" transform="rotate(0,760,408)"/><path d="M 968 392v 32h 32v -16a 16 16, 0, 0, 0, -16 -16" transform="rotate(-90,984,408)"/><path d="M 1000 392v 32h 16a 16 16, 0, 0, 0, 0 -32" transform="rotate(0,1016,408)"/><path d="M 1064 392v 32h 16a 16 16, 0, 0, 0, 0 -32" transform="rotate(90,1080,408)"/><path d="M 1128 392v 32h 32v -16a 16 16, 0, 0, 0, -16 -16" transform="rotate(180,1144,408)"/><rect x="1160" y="392" width="32" height="32" transform="rotate(0,1176,408)"/><rect x="8" y="424" width="32" height="32" transform="rotate(0,24,440)"/><path d="M 72 424v 32h 16a 16 16, 0, 0, 0, 0 -32" transform="rotate(180,88,440)"/><rect x="104" y="424" width="32" height="32" transform="rotate(0,120,440)"/><rect x="136" y="424" width="32" height="32" transform="rotate(0,152,440)"/><path d="M 232 424v 32h 16a 16 16, 0, 0, 0, 0 -32" transform="rotate(90,248,440)"/><rect x="296" y="424" width="32" height="32" transform="rotate(0,312,440)"/><rect x="392" y="424" width="32" height="32" transform="rotate(0,408,440)"/><rect x="488" y="424" width="32" height="32" transform="rotate(0,504,440)"/><path d="M 552 424v 32h 32v -16a 16 16, 0, 0, 0, -16 -16" transform="rotate(180,568,440)"/><path d="M 584 424v 32h 16a 16 16, 0, 0, 0, 0 -32" transform="rotate(0,600,440)"/><path d="M 648 424v 32h 16a 16 16, 0, 0, 0, 0 -32" transform="rotate(180,664,440)"/><path d="M 680 424v 32h 16a 16 16, 0, 0, 0, 0 -32" transform="rotate(0,696,440)"/><rect x="744" y="424" width="32" height="32" transform="rotate(0,760,440)"/><rect x="776" y="424" width="32" height="32" transform="rotate(0,792,440)"/><path d="M 808 424v 32h 16a 16 16, 0, 0, 0, 0 -32" transform="rotate(0,824,440)"/><path d="M 872 424v 32h 32v -16a 16 16, 0, 0, 0, -16 -16" transform="rotate(-90,888,440)"/><rect x="904" y="424" width="32" height="32" transform="rotate(0,920,440)"/><rect x="936" y="424" width="32" height="32" transform="rotate(0,952,440)"/><path d="M 968 424v 32h 32v -16a 16 16, 0, 0, 0, -16 -16" transform="rotate(90,984,440)"/><path d="M 1096 424v 32h 16a 16 16, 0, 0, 0, 0 -32" transform="rotate(-90,1112,440)"/><rect x="1160" y="424" width="32" height="32" transform="rotate(0,1176,440)"/><rect x="8" y="456" width="32" height="32" transform="rotate(0,24,472)"/><path d="M 40 456v 32h 16a 16 16, 0, 0, 0, 0 -32" transform="rotate(0,56,472)"/><rect x="136" y="456" width="32" height="32" transform="rotate(0,152,472)"/><rect x="168" y="456" width="32" height="32" transform="rotate(0,184,472)"/><path d="M 200 456v 32h 16a 16 16, 0, 0, 0, 0 -32" transform="rotate(0,216,472)"/><path d="M 296 456v 32h 16a 16 16, 0, 0, 0, 0 -32" transform="rotate(90,312,472)"/><path d="M 360 456v 32h 16a 16 16, 0, 0, 0, 0 -32" transform="rotate(180,376,472)"/><rect x="392" y="456" width="32" height="32" transform="rotate(0,408,472)"/><path d="M 424 456v 32h 16a 16 16, 0, 0, 0, 0 -32" transform="rotate(0,440,472)"/><path d="M 488 456v 32h 16a 16 16, 0, 0, 0, 0 -32" transform="rotate(90,504,472)"/><path d="M 744 456v 32h 32v -16a 16 16, 0, 0, 0, -16 -16" transform="rotate(180,760,472)"/><rect x="776" y="456" width="32" height="32" transform="rotate(0,792,472)"/><path d="M 872 456v 32h 32v -16a 16 16, 0, 0, 0, -16 -16" transform="rotate(180,888,472)"/><rect x="904" y="456" width="32" height="32" transform="rotate(0,920,472)"/><path d="M 1000 456v 32h 32v -16a 16 16, 0, 0, 0, -16 -16" transform="rotate(-90,1016,472)"/><rect x="1032" y="456" width="32" height="32" transform="rotate(0,1048,472)"/><rect x="1064" y="456" width="32" height="32" transform="rotate(0,1080,472)"/><path d="M 1096 456v 32h 32v -16a 16 16, 0, 0, 0, -16 -16" transform="rotate(90,1112,472)"/><path d="M 1160 456v 32h 16a 16 16, 0, 0, 0, 0 -32" transform="rotate(90,1176,472)"/><path d="M 8 488v 32h 16a 16 16, 0, 0, 0, 0 -32" transform="rotate(90,24,504)"/><circle cx="88" cy="504" r="16" transform="rotate(0,88,504)"/><path d="M 136 488v 32h 32v -16a 16 16, 0, 0, 0, -16 -16" transform="rotate(180,152,504)"/><rect x="168" y="488" width="32" height="32" transform="rotate(0,184,504)"/><circle cx="248" cy="504" r="16" transform="rotate(0,248,504)"/><path d="M 328 488v 32h 16a 16 16, 0, 0, 0, 0 -32" transform="rotate(-90,344,504)"/><circle cx="472" cy="504" r="16" transform="rotate(0,472,504)"/><path d="M 520 488v 32h 16a 16 16, 0, 0, 0, 0 -32" transform="rotate(-90,536,504)"/><path d="M 648 488v 32h 32v -16a 16 16, 0, 0, 0, -16 -16" transform="rotate(-90,664,504)"/><path d="M 680 488v 32h 32v -16a 16 16, 0, 0, 0, -16 -16" transform="rotate(0,696,504)"/><rect x="776" y="488" width="32" height="32" transform="rotate(0,792,504)"/><circle cx="856" cy="504" r="16" transform="rotate(0,856,504)"/><rect x="904" y="488" width="32" height="32" transform="rotate(0,920,504)"/><path d="M 968 488v 32h 32v -16a 16 16, 0, 0, 0, -16 -16" transform="rotate(-90,984,504)"/><rect x="1000" y="488" width="32" height="32" transform="rotate(0,1016,504)"/><path d="M 1064 488v 32h 16a 16 16, 0, 0, 0, 0 -32" transform="rotate(90,1080,504)"/><circle cx="1144" cy="504" r="16" transform="rotate(0,1144,504)"/><circle cx="56" cy="536" r="16" transform="rotate(0,56,536)"/><path d="M 168 520v 32h 32v -16a 16 16, 0, 0, 0, -16 -16" transform="rotate(180,184,536)"/><path d="M 200 520v 32h 16a 16 16, 0, 0, 0, 0 -32" transform="rotate(0,216,536)"/><path d="M 296 520v 32h 16a 16 16, 0, 0, 0, 0 -32" transform="rotate(180,312,536)"/><rect x="328" y="520" width="32" height="32" transform="rotate(0,344,536)"/><rect x="360" y="520" width="32" height="32" transform="rotate(0,376,536)"/><rect x="392" y="520" width="32" height="32" transform="rotate(0,408,536)"/><path d="M 424 520v 32h 16a 16 16, 0, 0, 0, 0 -32" transform="rotate(0,440,536)"/><path d="M 520 520v 32h 32v -16a 16 16, 0, 0, 0, -16 -16" transform="rotate(180,536,536)"/><path d="M 552 520v 32h 32v -16a 16 16, 0, 0, 0, -16 -16" transform="rotate(0,568,536)"/><rect x="648" y="520" width="32" height="32" transform="rotate(0,664,536)"/><path d="M 680 520v 32h 32v -16a 16 16, 0, 0, 0, -16 -16" transform="rotate(90,696,536)"/><rect x="776" y="520" width="32" height="32" transform="rotate(0,792,536)"/><path d="M 872 520v 32h 32v -16a 16 16, 0, 0, 0, -16 -16" transform="rotate(-90,888,536)"/><rect x="904" y="520" width="32" height="32" transform="rotate(0,920,536)"/><rect x="968" y="520" width="32" height="32" transform="rotate(0,984,536)"/><path d="M 1000 520v 32h 32v -16a 16 16, 0, 0, 0, -16 -16" transform="rotate(90,1016,536)"/><path d="M 1160 520v 32h 16a 16 16, 0, 0, 0, 0 -32" transform="rotate(-90,1176,536)"/><circle cx="24" cy="568" r="16" transform="rotate(0,24,568)"/><path d="M 72 552v 32h 16a 16 16, 0, 0, 0, 0 -32" transform="rotate(180,88,568)"/><path d="M 104 552v 32h 16a 16 16, 0, 0, 0, 0 -32" transform="rotate(0,120,568)"/><path d="M 232 552v 32h 16a 16 16, 0, 0, 0, 0 -32" transform="rotate(-90,248,568)"/><rect x="328" y="552" width="32" height="32" transform="rotate(0,344,568)"/><path d="M 360 552v 32h 32v -16a 16 16, 0, 0, 0, -16 -16" transform="rotate(90,376,568)"/><path d="M 488 552v 32h 16a 16 16, 0, 0, 0, 0 -32" transform="rotate(-90,504,568)"/><path d="M 552 552v 32h 32v -16a 16 16, 0, 0, 0, -16 -16" transform="rotate(180,568,568)"/><rect x="584" y="552" width="32" height="32" transform="rotate(0,600,568)"/><rect x="616" y="552" width="32" height="32" transform="rotate(0,632,568)"/><rect x="648" y="552" width="32" height="32" transform="rotate(0,664,568)"/><rect x="776" y="552" width="32" height="32" transform="rotate(0,792,568)"/><rect x="872" y="552" width="32" height="32" transform="rotate(0,888,568)"/><path d="M 904 552v 32h 32v -16a 16 16, 0, 0, 0, -16 -16" transform="rotate(90,920,568)"/><path d="M 968 552v 32h 16a 16 16, 0, 0, 0, 0 -32" transform="rotate(90,984,568)"/><path d="M 1064 552v 32h 16a 16 16, 0, 0, 0, 0 -32" transform="rotate(-90,1080,568)"/><rect x="1160" y="552" width="32" height="32" transform="rotate(0,1176,568)"/><path d="M 136 584v 32h 16a 16 16, 0, 0, 0, 0 -32" transform="rotate(180,152,600)"/><rect x="168" y="584" width="32" height="32" transform="rotate(0,184,600)"/><rect x="200" y="584" width="32" height="32" transform="rotate(0,216,600)"/><rect x="232" y="584" width="32" height="32" transform="rotate(0,248,600)"/><path d="M 296 584v 32h 16a 16 16, 0, 0, 0, 0 -32" transform="rotate(180,312,600)"/><path d="M 328 584v 32h 32v -16a 16 16, 0, 0, 0, -16 -16" transform="rotate(90,344,600)"/><circle cx="440" cy="600" r="16" transform="rotate(0,440,600)"/><path d="M 488 584v 32h 16a 16 16, 0, 0, 0, 0 -32" transform="rotate(90,504,600)"/><path d="M 616 584v 32h 32v -16a 16 16, 0, 0, 0, -16 -16" transform="rotate(180,632,600)"/><rect x="648" y="584" width="32" height="32" transform="rotate(0,664,600)"/><path d="M 680 584v 32h 16a 16 16, 0, 0, 0, 0 -32" transform="rotate(0,696,600)"/><rect x="776" y="584" width="32" height="32" transform="rotate(0,792,600)"/><rect x="808" y="584" width="32" height="32" transform="rotate(0,824,600)"/><rect x="840" y="584" width="32" height="32" transform="rotate(0,856,600)"/><rect x="872" y="584" width="32" height="32" transform="rotate(0,888,600)"/><path d="M 1032 584v 32h 32v -16a 16 16, 0, 0, 0, -16 -16" transform="rotate(-90,1048,600)"/><rect x="1064" y="584" width="32" height="32" transform="rotate(0,1080,600)"/><path d="M 1160 584v 32h 16a 16 16, 0, 0, 0, 0 -32" transform="rotate(90,1176,600)"/><path d="M 40 616v 32h 32v -16a 16 16, 0, 0, 0, -16 -16" transform="rotate(-90,56,632)"/><rect x="72" y="616" width="32" height="32" transform="rotate(0,88,632)"/><path d="M 104 616v 32h 16a 16 16, 0, 0, 0, 0 -32" transform="rotate(0,120,632)"/><rect x="232" y="616" width="32" height="32" transform="rotate(0,248,632)"/><path d="M 264 616v 32h 32v -16a 16 16, 0, 0, 0, -16 -16" transform="rotate(0,280,632)"/><path d="M 360 616v 32h 16a 16 16, 0, 0, 0, 0 -32" transform="rotate(-90,376,632)"/><circle cx="472" cy="632" r="16" transform="rotate(0,472,632)"/><path d="M 520 616v 32h 16a 16 16, 0, 0, 0, 0 -32" transform="rotate(180,536,632)"/><path d="M 552 616v 32h 32v -16a 16 16, 0, 0, 0, -16 -16" transform="rotate(0,568,632)"/><path d="M 712 616v 32h 16a 16 16, 0, 0, 0, 0 -32" transform="rotate(180,728,632)"/><rect x="744" y="616" width="32" height="32" transform="rotate(0,760,632)"/><rect x="776" y="616" width="32" height="32" transform="rotate(0,792,632)"/><path d="M 840 616v 32h 32v -16a 16 16, 0, 0, 0, -16 -16" transform="rotate(180,856,632)"/><rect x="872" y="616" width="32" height="32" transform="rotate(0,888,632)"/><rect x="904" y="616" width="32" height="32" transform="rotate(0,920,632)"/><path d="M 936 616v 32h 16a 16 16, 0, 0, 0, 0 -32" transform="rotate(0,952,632)"/><path d="M 1032 616v 32h 32v -16a 16 16, 0, 0, 0, -16 -16" transform="rotate(180,1048,632)"/><rect x="1064" y="616" width="32" height="32" transform="rotate(0,1080,632)"/><path d="M 1128 616v 32h 16a 16 16, 0, 0, 0, 0 -32" transform="rotate(-90,1144,632)"/><path d="M 40 648v 32h 32v -16a 16 16, 0, 0, 0, -16 -16" transform="rotate(180,56,664)"/><path d="M 72 648v 32h 32v -16a 16 16, 0, 0, 0, -16 -16" transform="rotate(90,88,664)"/><path d="M 168 648v 32h 16a 16 16, 0, 0, 0, 0 -32" transform="rotate(180,184,664)"/><rect x="200" y="648" width="32" height="32" transform="rotate(0,216,664)"/><rect x="232" y="648" width="32" height="32" transform="rotate(0,248,664)"/><rect x="264" y="648" width="32" height="32" transform="rotate(0,280,664)"/><path d="M 328 648v 32h 16a 16 16, 0, 0, 0, 0 -32" transform="rotate(180,344,664)"/><rect x="360" y="648" width="32" height="32" transform="rotate(0,376,664)"/><path d="M 392 648v 32h 32v -16a 16 16, 0, 0, 0, -16 -16" transform="rotate(0,408,664)"/><path d="M 488 648v 32h 16a 16 16, 0, 0, 0, 0 -32" transform="rotate(-90,504,664)"/><rect x="552" y="648" width="32" height="32" transform="rotate(0,568,664)"/><rect x="776" y="648" width="32" height="32" transform="rotate(0,792,664)"/><path d="M 904 648v 32h 16a 16 16, 0, 0, 0, 0 -32" transform="rotate(90,920,664)"/><path d="M 968 648v 32h 16a 16 16, 0, 0, 0, 0 -32" transform="rotate(-90,984,664)"/><path d="M 1064 648v 32h 16a 16 16, 0, 0, 0, 0 -32" transform="rotate(90,1080,664)"/><path d="M 1128 648v 32h 32v -16a 16 16, 0, 0, 0, -16 -16" transform="rotate(180,1144,664)"/><path d="M 1160 648v 32h 32v -16a 16 16, 0, 0, 0, -16 -16" transform="rotate(0,1176,664)"/><circle cx="152" cy="696" r="16" transform="rotate(0,152,696)"/><path d="M 264 680v 32h 16a 16 16, 0, 0, 0, 0 -32" transform="rotate(90,280,696)"/><path d="M 360 680v 32h 32v -16a 16 16, 0, 0, 0, -16 -16" transform="rotate(180,376,696)"/><path d="M 392 680v 32h 32v -16a 16 16, 0, 0, 0, -16 -16" transform="rotate(90,408,696)"/><rect x="488" y="680" width="32" height="32" transform="rotate(0,504,696)"/><rect x="520" y="680" width="32" height="32" transform="rotate(0,536,696)"/><rect x="552" y="680" width="32" height="32" transform="rotate(0,568,696)"/><circle cx="664" cy="696" r="16" transform="rotate(0,664,696)"/><path d="M 712 680v 32h 32v -16a 16 16, 0, 0, 0, -16 -16" transform="rotate(-90,728,696)"/><rect x="744" y="680" width="32" height="32" transform="rotate(0,760,696)"/><rect x="776" y="680" width="32" height="32" transform="rotate(0,792,696)"/><path d="M 808 680v 32h 16a 16 16, 0, 0, 0, 0 -32" transform="rotate(0,824,696)"/><path d="M 872 680v 32h 16a 16 16, 0, 0, 0, 0 -32" transform="rotate(-90,888,696)"/><path d="M 936 680v 32h 16a 16 16, 0, 0, 0, 0 -32" transform="rotate(180,952,696)"/><rect x="968" y="680" width="32" height="32" transform="rotate(0,984,696)"/><path d="M 1000 680v 32h 32v -16a 16 16, 0, 0, 0, -16 -16" transform="rotate(0,1016,696)"/><rect x="1160" y="680" width="32" height="32" transform="rotate(0,1176,696)"/><path d="M 40 712v 32h 16a 16 16, 0, 0, 0, 0 -32" transform="rotate(-90,56,728)"/><circle cx="120" cy="728" r="16" transform="rotate(0,120,728)"/><path d="M 168 712v 32h 32v -16a 16 16, 0, 0, 0, -16 -16" transform="rotate(-90,184,728)"/><path d="M 200 712v 32h 16a 16 16, 0, 0, 0, 0 -32" transform="rotate(0,216,728)"/><path d="M 296 712v 32h 32v -16a 16 16, 0, 0, 0, -16 -16" transform="rotate(-90,312,728)"/><path d="M 328 712v 32h 32v -16a 16 16, 0, 0, 0, -16 -16" transform="rotate(0,344,728)"/><circle cx="440" cy="728" r="16" transform="rotate(0,440,728)"/><path d="M 488 712v 32h 16a 16 16, 0, 0, 0, 0 -32" transform="rotate(90,504,728)"/><path d="M 552 712v 32h 16a 16 16, 0, 0, 0, 0 -32" transform="rotate(90,568,728)"/><path d="M 616 712v 32h 16a 16 16, 0, 0, 0, 0 -32" transform="rotate(-90,632,728)"/><path d="M 712 712v 32h 32v -16a 16 16, 0, 0, 0, -16 -16" transform="rotate(180,728,728)"/><rect x="744" y="712" width="32" height="32" transform="rotate(0,760,728)"/><rect x="872" y="712" width="32" height="32" transform="rotate(0,888,728)"/><path d="M 904 712v 32h 16a 16 16, 0, 0, 0, 0 -32" transform="rotate(0,920,728)"/><rect x="1000" y="712" width="32" height="32" transform="rotate(0,1016,728)"/><path d="M 1032 712v 32h 16a 16 16, 0, 0, 0, 0 -32" transform="rotate(0,1048,728)"/><circle cx="1112" cy="728" r="16" transform="rotate(0,1112,728)"/><path d="M 1160 712v 32h 16a 16 16, 0, 0, 0, 0 -32" transform="rotate(90,1176,728)"/><path d="M 8 744v 32h 16a 16 16, 0, 0, 0, 0 -32" transform="rotate(180,24,760)"/><rect x="40" y="744" width="32" height="32" transform="rotate(0,56,760)"/><path d="M 136 744v 32h 32v -16a 16 16, 0, 0, 0, -16 -16" transform="rotate(-90,152,760)"/><path d="M 168 744v 32h 32v -16a 16 16, 0, 0, 0, -16 -16" transform="rotate(90,184,760)"/><path d="M 264 744v 32h 32v -16a 16 16, 0, 0, 0, -16 -16" transform="rotate(-90,280,760)"/><rect x="296" y="744" width="32" height="32" transform="rotate(0,312,760)"/><rect x="328" y="744" width="32" height="32" transform="rotate(0,344,760)"/><path d="M 360 744v 32h 16a 16 16, 0, 0, 0, 0 -32" transform="rotate(0,376,760)"/><path d="M 584 744v 32h 32v -16a 16 16, 0, 0, 0, -16 -16" transform="rotate(-90,600,760)"/><path d="M 616 744v 32h 32v -16a 16 16, 0, 0, 0, -16 -16" transform="rotate(90,632,760)"/><rect x="744" y="744" width="32" height="32" transform="rotate(0,760,760)"/><rect x="776" y="744" width="32" height="32" transform="rotate(0,792,760)"/><path d="M 808 744v 32h 32v -16a 16 16, 0, 0, 0, -16 -16" transform="rotate(0,824,760)"/><path d="M 872 744v 32h 16a 16 16, 0, 0, 0, 0 -32" transform="rotate(90,888,760)"/><path d="M 968 744v 32h 16a 16 16, 0, 0, 0, 0 -32" transform="rotate(180,984,760)"/><path d="M 1000 744v 32h 32v -16a 16 16, 0, 0, 0, -16 -16" transform="rotate(90,1016,760)"/><circle cx="1080" cy="760" r="16" transform="rotate(0,1080,760)"/><rect x="40" y="776" width="32" height="32" transform="rotate(0,56,792)"/><path d="M 72 776v 32h 32v -16a 16 16, 0, 0, 0, -16 -16" transform="rotate(0,88,792)"/><rect x="136" y="776" width="32" height="32" transform="rotate(0,152,792)"/><circle cx="216" cy="792" r="16" transform="rotate(0,216,792)"/><path d="M 264 776v 32h 32v -16a 16 16, 0, 0, 0, -16 -16" transform="rotate(180,280,792)"/><rect x="296" y="776" width="32" height="32" transform="rotate(0,312,792)"/><path d="M 328 776v 32h 32v -16a 16 16, 0, 0, 0, -16 -16" transform="rotate(90,344,792)"/><path d="M 424 776v 32h 32v -16a 16 16, 0, 0, 0, -16 -16" transform="rotate(-90,440,792)"/><rect x="456" y="776" width="32" height="32" transform="rotate(0,472,792)"/><path d="M 488 776v 32h 16a 16 16, 0, 0, 0, 0 -32" transform="rotate(0,504,792)"/><path d="M 584 776v 32h 16a 16 16, 0, 0, 0, 0 -32" transform="rotate(90,600,792)"/><circle cx="664" cy="792" r="16" transform="rotate(0,664,792)"/><rect x="744" y="776" width="32" height="32" transform="rotate(0,760,792)"/><path d="M 808 776v 32h 16a 16 16, 0, 0, 0, 0 -32" transform="rotate(90,824,792)"/><circle cx="1144" cy="792" r="16" transform="rotate(0,1144,792)"/><rect x="40" y="808" width="32" height="32" transform="rotate(0,56,824)"/><rect x="72" y="808" width="32" height="32" transform="rotate(0,88,824)"/><rect x="104" y="808" width="32" height="32" transform="rotate(0,120,824)"/><path d="M 136 808v 32h 32v -16a 16 16, 0, 0, 0, -16 -16" transform="rotate(90,152,824)"/><rect x="296" y="808" width="32" height="32" transform="rotate(0,312,824)"/><path d="M 360 808v 32h 16a 16 16, 0, 0, 0, 0 -32" transform="rotate(180,376,824)"/><rect x="392" y="808" width="32" height="32" transform="rotate(0,408,824)"/><rect x="424" y="808" width="32" height="32" transform="rotate(0,440,824)"/><rect x="456" y="808" width="32" height="32" transform="rotate(0,472,824)"/><path d="M 520 808v 32h 16a 16 16, 0, 0, 0, 0 -32" transform="rotate(180,536,824)"/><path d="M 552 808v 32h 32v -16a 16 16, 0, 0, 0, -16 -16" transform="rotate(0,568,824)"/><circle cx="632" cy="824" r="16" transform="rotate(0,632,824)"/><path d="M 680 808v 32h 32v -16a 16 16, 0, 0, 0, -16 -16" transform="rotate(-90,696,824)"/><rect x="712" y="808" width="32" height="32" transform="rotate(0,728,824)"/><rect x="744" y="808" width="32" height="32" transform="rotate(0,760,824)"/><path d="M 776 808v 32h 32v -16a 16 16, 0, 0, 0, -16 -16" transform="rotate(0,792,824)"/><circle cx="1016" cy="824" r="16" transform="rotate(0,1016,824)"/><path d="M 1064 808v 32h 32v -16a 16 16, 0, 0, 0, -16 -16" transform="rotate(-90,1080,824)"/><path d="M 1096 808v 32h 16a 16 16, 0, 0, 0, 0 -32" transform="rotate(0,1112,824)"/><path d="M 1160 808v 32h 16a 16 16, 0, 0, 0, 0 -32" transform="rotate(-90,1176,824)"/><path d="M 8 840v 32h 16a 16 16, 0, 0, 0, 0 -32" transform="rotate(180,24,856)"/><rect x="40" y="840" width="32" height="32" transform="rotate(0,56,856)"/><rect x="72" y="840" width="32" height="32" transform="rotate(0,88,856)"/><rect x="104" y="840" width="32" height="32" transform="rotate(0,120,856)"/><path d="M 200 840v 32h 16a 16 16, 0, 0, 0, 0 -32" transform="rotate(180,216,856)"/><rect x="232" y="840" width="32" height="32" transform="rotate(0,248,856)"/><rect x="264" y="840" width="32" height="32" transform="rotate(0,280,856)"/><path d="M 296 840v 32h 32v -16a 16 16, 0, 0, 0, -16 -16" transform="rotate(90,312,856)"/><path d="M 456 840v 32h 32v -16a 16 16, 0, 0, 0, -16 -16" transform="rotate(180,472,856)"/><path d="M 488 840v 32h 32v -16a 16 16, 0, 0, 0, -16 -16" transform="rotate(0,504,856)"/><rect x="552" y="840" width="32" height="32" transform="rotate(0,568,856)"/><path d="M 584 840v 32h 32v -16a 16 16, 0, 0, 0, -16 -16" transform="rotate(0,600,856)"/><path d="M 648 840v 32h 16a 16 16, 0, 0, 0, 0 -32" transform="rotate(180,664,856)"/><path d="M 680 840v 32h 32v -16a 16 16, 0, 0, 0, -16 -16" transform="rotate(90,696,856)"/><rect x="744" y="840" width="32" height="32" transform="rotate(0,760,856)"/><rect x="776" y="840" width="32" height="32" transform="rotate(0,792,856)"/><path d="M 840 840v 32h 32v -16a 16 16, 0, 0, 0, -16 -16" transform="rotate(-90,856,856)"/><path d="M 872 840v 32h 16a 16 16, 0, 0, 0, 0 -32" transform="rotate(0,888,856)"/><path d="M 936 840v 32h 32v -16a 16 16, 0, 0, 0, -16 -16" transform="rotate(-90,952,856)"/><path d="M 968 840v 32h 32v -16a 16 16, 0, 0, 0, -16 -16" transform="rotate(0,984,856)"/><rect x="1064" y="840" width="32" height="32" transform="rotate(0,1080,856)"/><path d="M 1160 840v 32h 16a 16 16, 0, 0, 0, 0 -32" transform="rotate(90,1176,856)"/><rect x="104" y="872" width="32" height="32" transform="rotate(0,120,888)"/><path d="M 136 872v 32h 16a 16 16, 0, 0, 0, 0 -32" transform="rotate(0,152,888)"/><path d="M 232 872v 32h 32v -16a 16 16, 0, 0, 0, -16 -16" transform="rotate(180,248,888)"/><rect x="264" y="872" width="32" height="32" transform="rotate(0,280,888)"/><path d="M 328 872v 32h 16a 16 16, 0, 0, 0, 0 -32" transform="rotate(-90,344,888)"/><path d="M 424 872v 32h 16a 16 16, 0, 0, 0, 0 -32" transform="rotate(-90,440,888)"/><path d="M 488 872v 32h 32v -16a 16 16, 0, 0, 0, -16 -16" transform="rotate(180,504,888)"/><rect x="520" y="872" width="32" height="32" transform="rotate(0,536,888)"/><rect x="552" y="872" width="32" height="32" transform="rotate(0,568,888)"/><rect x="584" y="872" width="32" height="32" transform="rotate(0,600,888)"/><path d="M 616 872v 32h 32v -16a 16 16, 0, 0, 0, -16 -16" transform="rotate(0,632,888)"/><path d="M 712 872v 32h 16a 16 16, 0, 0, 0, 0 -32" transform="rotate(180,728,888)"/><rect x="744" y="872" width="32" height="32" transform="rotate(0,760,888)"/><rect x="776" y="872" width="32" height="32" transform="rotate(0,792,888)"/><path d="M 840 872v 32h 16a 16 16, 0, 0, 0, 0 -32" transform="rotate(90,856,888)"/><rect x="936" y="872" width="32" height="32" transform="rotate(0,952,888)"/><rect x="968" y="872" width="32" height="32" transform="rotate(0,984,888)"/><path d="M 1000 872v 32h 32v -16a 16 16, 0, 0, 0, -16 -16" transform="rotate(0,1016,888)"/><rect x="1064" y="872" width="32" height="32" transform="rotate(0,1080,888)"/><path d="M 8 904v 32h 16a 16 16, 0, 0, 0, 0 -32" transform="rotate(180,24,920)"/><rect x="40" y="904" width="32" height="32" transform="rotate(0,56,920)"/><rect x="72" y="904" width="32" height="32" transform="rotate(0,88,920)"/><path d="M 104 904v 32h 32v -16a 16 16, 0, 0, 0, -16 -16" transform="rotate(90,120,920)"/><path d="M 168 904v 32h 16a 16 16, 0, 0, 0, 0 -32" transform="rotate(180,184,920)"/><path d="M 200 904v 32h 16a 16 16, 0, 0, 0, 0 -32" transform="rotate(0,216,920)"/><rect x="264" y="904" width="32" height="32" transform="rotate(0,280,920)"/><rect x="296" y="904" width="32" height="32" transform="rotate(0,312,920)"/><path d="M 328 904v 32h 32v -16a 16 16, 0, 0, 0, -16 -16" transform="rotate(90,344,920)"/><path d="M 424 904v 32h 32v -16a 16 16, 0, 0, 0, -16 -16" transform="rotate(180,440,920)"/><path d="M 456 904v 32h 16a 16 16, 0, 0, 0, 0 -32" transform="rotate(0,472,920)"/><path d="M 616 904v 32h 32v -16a 16 16, 0, 0, 0, -16 -16" transform="rotate(180,632,920)"/><path d="M 648 904v 32h 16a 16 16, 0, 0, 0, 0 -32" transform="rotate(0,664,920)"/><rect x="776" y="904" width="32" height="32" transform="rotate(0,792,920)"/><path d="M 872 904v 32h 32v -16a 16 16, 0, 0, 0, -16 -16" transform="rotate(-90,888,920)"/><rect x="904" y="904" width="32" height="32" transform="rotate(0,920,920)"/><rect x="936" y="904" width="32" height="32" transform="rotate(0,952,920)"/><rect x="968" y="904" width="32" height="32" transform="rotate(0,984,920)"/><rect x="1000" y="904" width="32" height="32" transform="rotate(0,1016,920)"/><rect x="1032" y="904" width="32" height="32" transform="rotate(0,1048,920)"/><rect x="1064" y="904" width="32" height="32" transform="rotate(0,1080,920)"/><path d="M 1160 904v 32h 16a 16 16, 0, 0, 0, 0 -32" transform="rotate(-90,1176,920)"/><path d="M 264 936v 32h 32v -16a 16 16, 0, 0, 0, -16 -16" transform="rotate(180,280,952)"/><path d="M 296 936v 32h 32v -16a 16 16, 0, 0, 0, -16 -16" transform="rotate(90,312,952)"/><path d="M 392 936v 32h 16a 16 16, 0, 0, 0, 0 -32" transform="rotate(-90,408,952)"/><path d="M 488 936v 32h 32v -16a 16 16, 0, 0, 0, -16 -16" transform="rotate(-90,504,952)"/><path d="M 520 936v 32h 16a 16 16, 0, 0, 0, 0 -32" transform="rotate(0,536,952)"/><path d="M 584 936v 32h 16a 16 16, 0, 0, 0, 0 -32" transform="rotate(-90,600,952)"/><path d="M 712 936v 32h 32v -16a 16 16, 0, 0, 0, -16 -16" transform="rotate(-90,728,952)"/><rect x="744" y="936" width="32" height="32" transform="rotate(0,760,952)"/><rect x="776" y="936" width="32" height="32" transform="rotate(0,792,952)"/><rect x="808" y="936" width="32" height="32" transform="rotate(0,824,952)"/><rect x="840" y="936" width="32" height="32" transform="rotate(0,856,952)"/><rect x="872" y="936" width="32" height="32" transform="rotate(0,888,952)"/><rect x="904" y="936" width="32" height="32" transform="rotate(0,920,952)"/><rect x="1032" y="936" width="32" height="32" transform="rotate(0,1048,952)"/><rect x="1064" y="936" width="32" height="32" transform="rotate(0,1080,952)"/><rect x="1160" y="936" width="32" height="32" transform="rotate(0,1176,952)"/><path d="M 392 968v 32h 32v -16a 16 16, 0, 0, 0, -16 -16" transform="rotate(180,408,984)"/><path d="M 424 968v 32h 32v -16a 16 16, 0, 0, 0, -16 -16" transform="rotate(0,440,984)"/><path d="M 488 968v 32h 16a 16 16, 0, 0, 0, 0 -32" transform="rotate(90,504,984)"/><rect x="584" y="968" width="32" height="32" transform="rotate(0,600,984)"/><path d="M 648 968v 32h 32v -16a 16 16, 0, 0, 0, -16 -16" transform="rotate(-90,664,984)"/><rect x="680" y="968" width="32" height="32" transform="rotate(0,696,984)"/><rect x="712" y="968" width="32" height="32" transform="rotate(0,728,984)"/><path d="M 744 968v 32h 32v -16a 16 16, 0, 0, 0, -16 -16" transform="rotate(90,760,984)"/><path d="M 808 968v 32h 32v -16a 16 16, 0, 0, 0, -16 -16" transform="rotate(180,824,984)"/><rect x="840" y="968" width="32" height="32" transform="rotate(0,856,984)"/><rect x="904" y="968" width="32" height="32" transform="rotate(0,920,984)"/><circle cx="984" cy="984" r="16" transform="rotate(0,984,984)"/><rect x="1032" y="968" width="32" height="32" transform="rotate(0,1048,984)"/><rect x="1064" y="968" width="32" height="32" transform="rotate(0,1080,984)"/><path d="M 1096 968v 32h 16a 16 16, 0, 0, 0, 0 -32" transform="rotate(0,1112,984)"/><rect x="1160" y="968" width="32" height="32" transform="rotate(0,1176,984)"/><path d="M 296 1000v 32h 16a 16 16, 0, 0, 0, 0 -32" transform="rotate(180,312,1016)"/><rect x="328" y="1000" width="32" height="32" transform="rotate(0,344,1016)"/><path d="M 360 1000v 32h 32v -16a 16 16, 0, 0, 0, -16 -16" transform="rotate(0,376,1016)"/><rect x="424" y="1000" width="32" height="32" transform="rotate(0,440,1016)"/><path d="M 456 1000v 32h 32v -16a 16 16, 0, 0, 0, -16 -16" transform="rotate(0,472,1016)"/><path d="M 584 1000v 32h 32v -16a 16 16, 0, 0, 0, -16 -16" transform="rotate(180,600,1016)"/><rect x="616" y="1000" width="32" height="32" transform="rotate(0,632,1016)"/><rect x="648" y="1000" width="32" height="32" transform="rotate(0,664,1016)"/><rect x="712" y="1000" width="32" height="32" transform="rotate(0,728,1016)"/><circle cx="792" cy="1016" r="16" transform="rotate(0,792,1016)"/><path d="M 840 1000v 32h 32v -16a 16 16, 0, 0, 0, -16 -16" transform="rotate(180,856,1016)"/><rect x="872" y="1000" width="32" height="32" transform="rotate(0,888,1016)"/><rect x="904" y="1000" width="32" height="32" transform="rotate(0,920,1016)"/><rect x="1032" y="1000" width="32" height="32" transform="rotate(0,1048,1016)"/><path d="M 1064 1000v 32h 32v -16a 16 16, 0, 0, 0, -16 -16" transform="rotate(90,1080,1016)"/><rect x="1160" y="1000" width="32" height="32" transform="rotate(0,1176,1016)"/><rect x="360" y="1032" width="32" height="32" transform="rotate(0,376,1048)"/><rect x="392" y="1032" width="32" height="32" transform="rotate(0,408,1048)"/><rect x="424" y="1032" width="32" height="32" transform="rotate(0,440,1048)"/><path d="M 456 1032v 32h 32v -16a 16 16, 0, 0, 0, -16 -16" transform="rotate(90,472,1048)"/><circle cx="536" cy="1048" r="16" transform="rotate(0,536,1048)"/><rect x="648" y="1032" width="32" height="32" transform="rotate(0,664,1048)"/><rect x="680" y="1032" width="32" height="32" transform="rotate(0,696,1048)"/><rect x="712" y="1032" width="32" height="32" transform="rotate(0,728,1048)"/><path d="M 744 1032v 32h 16a 16 16, 0, 0, 0, 0 -32" transform="rotate(0,760,1048)"/><rect x="872" y="1032" width="32" height="32" transform="rotate(0,888,1048)"/><rect x="904" y="1032" width="32" height="32" transform="rotate(0,920,1048)"/><rect x="936" y="1032" width="32" height="32" transform="rotate(0,952,1048)"/><rect x="968" y="1032" width="32" height="32" transform="rotate(0,984,1048)"/><rect x="1000" y="1032" width="32" height="32" transform="rotate(0,1016,1048)"/><rect x="1032" y="1032" width="32" height="32" transform="rotate(0,1048,1048)"/><path d="M 1128 1032v 32h 32v -16a 16 16, 0, 0, 0, -16 -16" transform="rotate(-90,1144,1048)"/><rect x="1160" y="1032" width="32" height="32" transform="rotate(0,1176,1048)"/><circle cx="312" cy="1080" r="16" transform="rotate(0,312,1080)"/><path d="M 360 1064v 32h 32v -16a 16 16, 0, 0, 0, -16 -16" transform="rotate(180,376,1080)"/><path d="M 392 1064v 32h 32v -16a 16 16, 0, 0, 0, -16 -16" transform="rotate(90,408,1080)"/><circle cx="504" cy="1080" r="16" transform="rotate(0,504,1080)"/><rect x="648" y="1064" width="32" height="32" transform="rotate(0,664,1080)"/><path d="M 712 1064v 32h 16a 16 16, 0, 0, 0, 0 -32" transform="rotate(90,728,1080)"/><circle cx="824" cy="1080" r="16" transform="rotate(0,824,1080)"/><rect x="872" y="1064" width="32" height="32" transform="rotate(0,888,1080)"/><rect x="904" y="1064" width="32" height="32" transform="rotate(0,920,1080)"/><rect x="1032" y="1064" width="32" height="32" transform="rotate(0,1048,1080)"/><rect x="1064" y="1064" width="32" height="32" transform="rotate(0,1080,1080)"/><rect x="1096" y="1064" width="32" height="32" transform="rotate(0,1112,1080)"/><rect x="1128" y="1064" width="32" height="32" transform="rotate(0,1144,1080)"/><rect x="1160" y="1064" width="32" height="32" transform="rotate(0,1176,1080)"/><path d="M 264 1096v 32h 16a 16 16, 0, 0, 0, 0 -32" transform="rotate(-90,280,1112)"/><circle cx="472" cy="1112" r="16" transform="rotate(0,472,1112)"/><path d="M 520 1096v 32h 16a 16 16, 0, 0, 0, 0 -32" transform="rotate(-90,536,1112)"/><rect x="648" y="1096" width="32" height="32" transform="rotate(0,664,1112)"/><path d="M 680 1096v 32h 16a 16 16, 0, 0, 0, 0 -32" transform="rotate(0,696,1112)"/><circle cx="760" cy="1112" r="16" transform="rotate(0,760,1112)"/><path d="M 872 1096v 32h 32v -16a 16 16, 0, 0, 0, -16 -16" transform="rotate(180,888,1112)"/><rect x="904" y="1096" width="32" height="32" transform="rotate(0,920,1112)"/><rect x="1032" y="1096" width="32" height="32" transform="rotate(0,1048,1112)"/><rect x="1064" y="1096" width="32" height="32" transform="rotate(0,1080,1112)"/><rect x="1096" y="1096" width="32" height="32" transform="rotate(0,1112,1112)"/><rect x="1128" y="1096" width="32" height="32" transform="rotate(0,1144,1112)"/><path d="M 1160 1096v 32h 32v -16a 16 16, 0, 0, 0, -16 -16" transform="rotate(90,1176,1112)"/><path d="M 264 1128v 32h 32v -16a 16 16, 0, 0, 0, -16 -16" transform="rotate(180,280,1144)"/><rect x="296" y="1128" width="32" height="32" transform="rotate(0,312,1144)"/><path d="M 328 1128v 32h 32v -16a 16 16, 0, 0, 0, -16 -16" transform="rotate(0,344,1144)"/><circle cx="408" cy="1144" r="16" transform="rotate(0,408,1144)"/><path d="M 488 1128v 32h 16a 16 16, 0, 0, 0, 0 -32" transform="rotate(180,504,1144)"/><path d="M 520 1128v 32h 32v -16a 16 16, 0, 0, 0, -16 -16" transform="rotate(90,536,1144)"/><path d="M 616 1128v 32h 16a 16 16, 0, 0, 0, 0 -32" transform="rotate(180,632,1144)"/><rect x="648" y="1128" width="32" height="32" transform="rotate(0,664,1144)"/><rect x="904" y="1128" width="32" height="32" transform="rotate(0,920,1144)"/><rect x="1032" y="1128" width="32" height="32" transform="rotate(0,1048,1144)"/><path d="M 1064 1128v 32h 32v -16a 16 16, 0, 0, 0, -16 -16" transform="rotate(90,1080,1144)"/><path d="M 296 1160v 32h 32v -16a 16 16, 0, 0, 0, -16 -16" transform="rotate(180,312,1176)"/><path d="M 328 1160v 32h 32v -16a 16 16, 0, 0, 0, -16 -16" transform="rotate(90,344,1176)"/><path d="M 424 1160v 32h 16a 16 16, 0, 0, 0, 0 -32" transform="rotate(180,440,1176)"/><path d="M 456 1160v 32h 16a 16 16, 0, 0, 0, 0 -32" transform="rotate(0,472,1176)"/><circle cx="568" cy="1176" r="16" transform="rotate(0,568,1176)"/><path d="M 648 1160v 32h 16a 16 16, 0, 0, 0, 0 -32" transform="rotate(90,664,1176)"/><path d="M 744 1160v 32h 16a 16 16, 0, 0, 0, 0 -32" transform="rotate(180,760,1176)"/><path d="M 776 1160v 32h 16a 16 16, 0, 0, 0, 0 -32" transform="rotate(0,792,1176)"/><path d="M 904 1160v 32h 16a 16 16, 0, 0, 0, 0 -32" transform="rotate(90,920,1176)"/><path d="M 1000 1160v 32h 16a 16 16, 0, 0, 0, 0 -32" transform="rotate(180,1016,1176)"/><path d="M 1032 1160v 32h 32v -16a 16 16, 0, 0, 0, -16 -16" transform="rotate(90,1048,1176)"/><circle cx="1176" cy="1176" r="16" transform="rotate(0,1176,1176)"/></clipPath><clipPath id="clip-path-corners-square-color-0-0-38"><path clip-rule="evenodd" d="M 8 88v 64a 80 80, 0, 0, 0, 80 80h 64a 80 80, 0, 0, 0, 80 -80v -64a 80 80, 0, 0, 0, -80 -80h -64a 80 80, 0, 0, 0, -80 80M 88 40h 64a 48 48, 0, 0, 1, 48 48v 64a 48 48, 0, 0, 1, -48 48h -64a 48 48, 0, 0, 1, -48 -48v -64a 48 48, 0, 0, 1, 48 -48" transform="rotate(0,120,120)"/></clipPath><clipPath id="clip-path-corners-dot-color-0-0-38"><circle cx="120" cy="120" r="48" transform="rotate(0,120,120)"/></clipPath><clipPath id="clip-path-corners-square-color-1-0-38"><path clip-rule="evenodd" d="M 968 88v 64a 80 80, 0, 0, 0, 80 80h 64a 80 80, 0, 0, 0, 80 -80v -64a 80 80, 0, 0, 0, -80 -80h -64a 80 80, 0, 0, 0, -80 80M 1048 40h 64a 48 48, 0, 0, 1, 48 48v 64a 48 48, 0, 0, 1, -48 48h -64a 48 48, 0, 0, 1, -48 -48v -64a 48 48, 0, 0, 1, 48 -48" transform="rotate(90,1080,120)"/></clipPath><clipPath id="clip-path-corners-dot-color-1-0-38"><circle cx="1080" cy="120" r="48" transform="rotate(90,1080,120)"/></clipPath><clipPath id="clip-path-corners-square-color-0-1-38"><path clip-rule="evenodd" d="M 8 1048v 64a 80 80, 0, 0, 0, 80 80h 64a 80 80, 0, 0, 0, 80 -80v -64a 80 80, 0, 0, 0, -80 -80h -64a 80 80, 0, 0, 0, -80 80M 88 1000h 64a 48 48, 0, 0, 1, 48 48v 64a 48 48, 0, 0, 1, -48 48h -64a 48 48, 0, 0, 1, -48 -48v -64a 48 48, 0, 0, 1, 48 -48" transform="rotate(-90,120,1080)"/></clipPath><clipPath id="clip-path-corners-dot-color-0-1-38"><circle cx="120" cy="1080" r="48" transform="rotate(-90,120,1080)"/></clipPath></defs><rect x="0" y="0" height="1200" width="1200" clip-path="url('#clip-path-background-color-38')" fill="#ffffff"/><rect x="0" y="0" height="1200" width="1200" clip-path="url('#clip-path-dot-color-38')" fill="#000000"/><rect x="8" y="8" height="224" width="224" clip-path="url('#clip-path-corners-square-color-0-0-38')" fill="#000000"/><rect x="72" y="72" height="96" width="96" clip-path="url('#clip-path-corners-dot-color-0-0-38')" fill="#000000"/><rect x="968" y="8" height="224" width="224" clip-path="url('#clip-path-corners-square-color-1-0-38')" fill="#000000"/><rect x="1032" y="72" height="96" width="96" clip-path="url('#clip-path-corners-dot-color-1-0-38')" fill="#000000"/><rect x="8" y="968" height="224" width="224" clip-path="url('#clip-path-corners-square-color-0-1-38')" fill="#000000"/><rect x="72" y="1032" height="96" width="96" clip-path="url('#clip-path-corners-dot-color-0-1-38')" fill="#000000"/></svg>