<?xml version="1.0" standalone="no"?>
<svg xmlns="http://www.w3.org/2000/svg" width="1200" height="1200" xmlns:xlink="http://www.w3.org/1999/xlink" viewBox="0 0 1200 1200"><defs><clipPath id="clip-path-background-color-693"><rect x="0" y="0" width="1200" height="1200"/></clipPath><clipPath id="clip-path-dot-color-693"><path d="M 278 26v 28h 28v -14a 14 14, 0, 0, 0, -14 -14" transform="rotate(-90,292,40)"/><path d="M 306 26v 28h 28v -14a 14 14, 0, 0, 0, -14 -14" transform="rotate(0,320,40)"/><path d="M 362 26v 28h 14a 14 14, 0, 0, 0, 0 -28" transform="rotate(180,376,40)"/><rect x="390" y="26" width="28" height="28" transform="rotate(0,404,40)"/><rect x="418" y="26" width="28" height="28" transform="rotate(0,432,40)"/><rect x="446" y="26" width="28" height="28" transform="rotate(0,460,40)"/><path d="M 474 26v 28h 28v -14a 14 14, 0, 0, 0, -14 -14" transform="rotate(0,488,40)"/><circle cx="544" cy="40" r="14" transform="rotate(0,544,40)"/><path d="M 670 26v 28h 14a 14 14, 0, 0, 0, 0 -28" transform="rotate(180,684,40)"/><path d="M 698 26v 28h 14a 14 14, 0, 0, 0, 0 -28" transform="rotate(0,712,40)"/><path d="M 754 26v 28h 28v -14a 14 14, 0, 0, 0, -14 -14" transform="rotate(-90,768,40)"/><rect x="782" y="26" width="28" height="28" transform="rotate(0,796,40)"/><path d="M 810 26v 28h 28v -14a 14 14, 0, 0, 0, -14 -14" transform="rotate(0,824,40)"/><path d="M 278 54v 28h 28v -14a 14 14, 0, 0, 0, -14 -14" transform="rotate(180,292,68)"/><rect x="306" y="54" width="28" height="28" transform="rotate(0,320,68)"/><path d="M 390 54v 28h 28v -14a 14 14, 0, 0, 0, -14 -14" transform="rotate(180,404,68)"/><rect x="418" y="54" width="28" height="28" transform="rotate(0,432,68)"/><rect x="446" y="54" width="28" height="28" transform="rotate(0,460,68)"/><path d="M 474 54v 28h 28v -14a 14 14, 0, 0, 0, -14 -14" transform="rotate(90,488,68)"/><path d="M 558 54v 28h 28v -14a 14 14, 0, 0, 0, -14 -14" transform="rotate(-90,572,68)"/><rect x="586" y="54" width="28" height="28" transform="rotate(0,600,68)"/><rect x="614" y="54" width="28" height="28" transform="rotate(0,628,68)"/><path d="M 642 54v 28h 28v -14a 14 14, 0, 0, 0, -14 -14" transform="rotate(0,656,68)"/><path d="M 726 54v 28h 14a 14 14, 0, 0, 0, 0 -28" transform="rotate(180,740,68)"/><rect x="754" y="54" width="28" height="28" transform="rotate(0,768,68)"/><rect x="810" y="54" width="28" height="28" transform="rotate(0,824,68)"/><circle cx="908" cy="68" r="14" transform="rotate(0,908,68)"/><circle cx="264" cy="96" r="14" transform="rotate(0,264,96)"/><path d="M 306 82v 28h 14a 14 14, 0, 0, 0, 0 -28" transform="rotate(90,320,96)"/><circle cx="376" cy="96" r="14" transform="rotate(0,376,96)"/><path d="M 418 82v 28h 28v -14a 14 14, 0, 0, 0, -14 -14" transform="rotate(180,432,96)"/><rect x="446" y="82" width="28" height="28" transform="rotate(0,460,96)"/><path d="M 502 82v 28h 14a 14 14, 0, 0, 0, 0 -28" transform="rotate(-90,516,96)"/><path d="M 558 82v 28h 14a 14 14, 0, 0, 0, 0 -28" transform="rotate(90,572,96)"/><rect x="614" y="82" width="28" height="28" transform="rotate(0,628,96)"/><rect x="642" y="82" width="28" height="28" transform="rotate(0,656,96)"/><path d="M 670 82v 28h 28v -14a 14 14, 0, 0, 0, -14 -14" transform="rotate(0,684,96)"/><rect x="754" y="82" width="28" height="28" transform="rotate(0,768,96)"/><rect x="782" y="82" width="28" height="28" transform="rotate(0,796,96)"/><rect x="810" y="82" width="28" height="28" transform="rotate(0,824,96)"/><path d="M 838 82v 28h 14a 14 14, 0, 0, 0, 0 -28" transform="rotate(0,852,96)"/><path d="M 922 82v 28h 14a 14 14, 0, 0, 0, 0 -28" transform="rotate(-90,936,96)"/><circle cx="348" cy="124" r="14" transform="rotate(0,348,124)"/><circle cx="404" cy="124" r="14" transform="rotate(0,404,124)"/><path d="M 446 110v 28h 14a 14 14, 0, 0, 0, 0 -28" transform="rotate(90,460,124)"/><path d="M 502 110v 28h 14a 14 14, 0, 0, 0, 0 -28" transform="rotate(90,516,124)"/><path d="M 586 110v 28h 14a 14 14, 0, 0, 0, 0 -28" transform="rotate(180,600,124)"/><rect x="614" y="110" width="28" height="28" transform="rotate(0,628,124)"/><path d="M 670 110v 28h 28v -14a 14 14, 0, 0, 0, -14 -14" transform="rotate(180,684,124)"/><rect x="698" y="110" width="28" height="28" transform="rotate(0,712,124)"/><rect x="726" y="110" width="28" height="28" transform="rotate(0,740,124)"/><rect x="754" y="110" width="28" height="28" transform="rotate(0,768,124)"/><rect x="810" y="110" width="28" height="28" transform="rotate(0,824,124)"/><path d="M 866 110v 28h 28v -14a 14 14, 0, 0, 0, -14 -14" transform="rotate(-90,880,124)"/><rect x="894" y="110" width="28" height="28" transform="rotate(0,908,124)"/><path d="M 922 110v 28h 28v -14a 14 14, 0, 0, 0, -14 -14" transform="rotate(90,936,124)"/><path d="M 250 138v 28h 28v -14a 14 14, 0, 0, 0, -14 -14" transform="rotate(-90,264,152)"/><path d="M 278 138v 28h 28v -14a 14 14, 0, 0, 0, -14 -14" transform="rotate(0,292,152)"/><path d="M 418 138v 28h 14a 14 14, 0, 0, 0, 0 -28" transform="rotate(-90,432,152)"/><circle cx="488" cy="152" r="14" transform="rotate(0,488,152)"/><path d="M 530 138v 28h 14a 14 14, 0, 0, 0, 0 -28" transform="rotate(180,544,152)"/><path d="M 558 138v 28h 28v -14a 14 14, 0, 0, 0, -14 -14" transform="rotate(0,572,152)"/><rect x="614" y="138" width="28" height="28" transform="rotate(0,628,152)"/><path d="M 642 138v 28h 28v -14a 14 14, 0, 0, 0, -14 -14" transform="rotate(0,656,152)"/><path d="M 726 138v 28h 28v -14a 14 14, 0, 0, 0, -14 -14" transform="rotate(180,740,152)"/><rect x="754" y="138" width="28" height="28" transform="rotate(0,768,152)"/><rect x="782" y="138" width="28" height="28" transform="rotate(0,796,152)"/><path d="M 810 138v 28h 28v -14a 14 14, 0, 0, 0, -14 -14" transform="rotate(90,824,152)"/><rect x="866" y="138" width="28" height="28" transform="rotate(0,880,152)"/><rect x="250" y="166" width="28" height="28" transform="rotate(0,264,180)"/><rect x="278" y="166" width="28" height="28" transform="rotate(0,292,180)"/><rect x="306" y="166" width="28" height="28" transform="rotate(0,320,180)"/><rect x="334" y="166" width="28" height="28" transform="rotate(0,348,180)"/><rect x="362" y="166" width="28" height="28" transform="rotate(0,376,180)"/><rect x="390" y="166" width="28" height="28" transform="rotate(0,404,180)"/><rect x="418" y="166" width="28" height="28" transform="rotate(0,432,180)"/><circle cx="516" cy="180" r="14" transform="rotate(0,516,180)"/><path d="M 558 166v 28h 28v -14a 14 14, 0, 0, 0, -14 -14" transform="rotate(180,572,180)"/><rect x="586" y="166" width="28" height="28" transform="rotate(0,600,180)"/><rect x="614" y="166" width="28" height="28" transform="rotate(0,628,180)"/><rect x="642" y="166" width="28" height="28" transform="rotate(0,656,180)"/><path d="M 698 166v 28h 14a 14 14, 0, 0, 0, 0 -28" transform="rotate(-90,712,180)"/><rect x="754" y="166" width="28" height="28" transform="rotate(0,768,180)"/><path d="M 838 166v 28h 14a 14 14, 0, 0, 0, 0 -28" transform="rotate(180,852,180)"/><rect x="866" y="166" width="28" height="28" transform="rotate(0,880,180)"/><path d="M 894 166v 28h 14a 14 14, 0, 0, 0, 0 -28" transform="rotate(0,908,180)"/><path d="M 250 194v 28h 14a 14 14, 0, 0, 0, 0 -28" transform="rotate(90,264,208)"/><rect x="306" y="194" width="28" height="28" transform="rotate(0,320,208)"/><path d="M 362 194v 28h 14a 14 14, 0, 0, 0, 0 -28" transform="rotate(90,376,208)"/><rect x="418" y="194" width="28" height="28" transform="rotate(0,432,208)"/><circle cx="488" cy="208" r="14" transform="rotate(0,488,208)"/><circle cx="544" cy="208" r="14" transform="rotate(0,544,208)"/><path d="M 586 194v 28h 14a 14 14, 0, 0, 0, 0 -28" transform="rotate(90,600,208)"/><rect x="642" y="194" width="28" height="28" transform="rotate(0,656,208)"/><rect x="698" y="194" width="28" height="28" transform="rotate(0,712,208)"/><path d="M 754 194v 28h 14a 14 14, 0, 0, 0, 0 -28" transform="rotate(90,768,208)"/><path d="M 810 194v 28h 14a 14 14, 0, 0, 0, 0 -28" transform="rotate(-90,824,208)"/><rect x="866" y="194" width="28" height="28" transform="rotate(0,880,208)"/><path d="M 922 194v 28h 14a 14 14, 0, 0, 0, 0 -28" transform="rotate(-90,936,208)"/><path d="M 306 222v 28h 28v -14a 14 14, 0, 0, 0, -14 -14" transform="rotate(180,320,236)"/><path d="M 334 222v 28h 14a 14 14, 0, 0, 0, 0 -28" transform="rotate(0,348,236)"/><path d="M 390 222v 28h 14a 14 14, 0, 0, 0, 0 -28" transform="rotate(180,404,236)"/><rect x="418" y="222" width="28" height="28" transform="rotate(0,432,236)"/><path d="M 446 222v 28h 28v -14a 14 14, 0, 0, 0, -14 -14" transform="rotate(0,460,236)"/><path d="M 642 222v 28h 28v -14a 14 14, 0, 0, 0, -14 -14" transform="rotate(180,656,236)"/><rect x="670" y="222" width="28" height="28" transform="rotate(0,684,236)"/><path d="M 698 222v 28h 28v -14a 14 14, 0, 0, 0, -14 -14" transform="rotate(90,712,236)"/><rect x="810" y="222" width="28" height="28" transform="rotate(0,824,236)"/><rect x="838" y="222" width="28" height="28" transform="rotate(0,852,236)"/><path d="M 866 222v 28h 28v -14a 14 14, 0, 0, 0, -14 -14" transform="rotate(90,880,236)"/><rect x="922" y="222" width="28" height="28" transform="rotate(0,936,236)"/><circle cx="68" cy="264" r="14" transform="rotate(0,68,264)"/><circle cx="152" cy="264" r="14" transform="rotate(0,152,264)"/><circle cx="208" cy="264" r="14" transform="rotate(0,208,264)"/><path d="M 250 250v 28h 28v -14a 14 14, 0, 0, 0, -14 -14" transform="rotate(-90,264,264)"/><path d="M 278 250v 28h 28v -14a 14 14, 0, 0, 0, -14 -14" transform="rotate(0,292,264)"/><path d="M 418 250v 28h 28v -14a 14 14, 0, 0, 0, -14 -14" transform="rotate(180,432,264)"/><path d="M 446 250v 28h 28v -14a 14 14, 0, 0, 0, -14 -14" transform="rotate(90,460,264)"/><path d="M 502 250v 28h 28v -14a 14 14, 0, 0, 0, -14 -14" transform="rotate(-90,516,264)"/><rect x="530" y="250" width="28" height="28" transform="rotate(0,544,264)"/><rect x="558" y="250" width="28" height="28" transform="rotate(0,572,264)"/><rect x="586" y="250" width="28" height="28" transform="rotate(0,600,264)"/><path d="M 614 250v 28h 28v -14a 14 14, 0, 0, 0, -14 -14" transform="rotate(0,628,264)"/><rect x="810" y="250" width="28" height="28" transform="rotate(0,824,264)"/><path d="M 838 250v 28h 28v -14a 14 14, 0, 0, 0, -14 -14" transform="rotate(90,852,264)"/><path d="M 894 250v 28h 14a 14 14, 0, 0, 0, 0 -28" transform="rotate(180,908,264)"/><rect x="922" y="250" width="28" height="28" transform="rotate(0,936,264)"/><path d="M 950 250v 28h 14a 14 14, 0, 0, 0, 0 -28" transform="rotate(0,964,264)"/><path d="M 1006 250v 28h 14a 14 14, 0, 0, 0, 0 -28" transform="rotate(180,1020,264)"/><path d="M 1034 250v 28h 28v -14a 14 14, 0, 0, 0, -14 -14" transform="rotate(0,1048,264)"/><circle cx="1104" cy="264" r="14" transform="rotate(0,1104,264)"/><path d="M 166 278v 28h 14a 14 14, 0, 0, 0, 0 -28" transform="rotate(-90,180,292)"/><rect x="250" y="278" width="28" height="28" transform="rotate(0,264,292)"/><path d="M 278 278v 28h 28v -14a 14 14, 0, 0, 0, -14 -14" transform="rotate(90,292,292)"/><circle cx="348" cy="292" r="14" transform="rotate(0,348,292)"/><circle cx="404" cy="292" r="14" transform="rotate(0,404,292)"/><rect x="502" y="278" width="28" height="28" transform="rotate(0,516,292)"/><path d="M 614 278v 28h 28v -14a 14 14, 0, 0, 0, -14 -14" transform="rotate(180,628,292)"/><rect x="642" y="278" width="28" height="28" transform="rotate(0,656,292)"/><path d="M 670 278v 28h 14a 14 14, 0, 0, 0, 0 -28" transform="rotate(0,684,292)"/><path d="M 726 278v 28h 14a 14 14, 0, 0, 0, 0 -28" transform="rotate(180,740,292)"/><rect x="754" y="278" width="28" height="28" transform="rotate(0,768,292)"/><rect x="782" y="278" width="28" height="28" transform="rotate(0,796,292)"/><path d="M 810 278v 28h 28v -14a 14 14, 0, 0, 0, -14 -14" transform="rotate(90,824,292)"/><circle cx="992" cy="292" r="14" transform="rotate(0,992,292)"/><path d="M 1034 278v 28h 28v -14a 14 14, 0, 0, 0, -14 -14" transform="rotate(180,1048,292)"/><path d="M 1062 278v 28h 14a 14 14, 0, 0, 0, 0 -28" transform="rotate(0,1076,292)"/><path d="M 1118 278v 28h 14a 14 14, 0, 0, 0, 0 -28" transform="rotate(180,1132,292)"/><path d="M 1146 278v 28h 28v -14a 14 14, 0, 0, 0, -14 -14" transform="rotate(0,1160,292)"/><circle cx="68" cy="320" r="14" transform="rotate(0,68,320)"/><path d="M 110 306v 28h 14a 14 14, 0, 0, 0, 0 -28" transform="rotate(180,124,320)"/><rect x="138" y="306" width="28" height="28" transform="rotate(0,152,320)"/><rect x="166" y="306" width="28" height="28" transform="rotate(0,180,320)"/><rect x="194" y="306" width="28" height="28" transform="rotate(0,208,320)"/><rect x="222" y="306" width="28" height="28" transform="rotate(0,236,320)"/><path d="M 250 306v 28h 28v -14a 14 14, 0, 0, 0, -14 -14" transform="rotate(90,264,320)"/><path d="M 306 306v 28h 14a 14 14, 0, 0, 0, 0 -28" transform="rotate(-90,320,320)"/><path d="M 362 306v 28h 14a 14 14, 0, 0, 0, 0 -28" transform="rotate(-90,376,320)"/><path d="M 418 306v 28h 14a 14 14, 0, 0, 0, 0 -28" transform="rotate(180,432,320)"/><rect x="446" y="306" width="28" height="28" transform="rotate(0,460,320)"/><rect x="474" y="306" width="28" height="28" transform="rotate(0,488,320)"/><rect x="502" y="306" width="28" height="28" transform="rotate(0,516,320)"/><path d="M 558 306v 28h 14a 14 14, 0, 0, 0, 0 -28" transform="rotate(-90,572,320)"/><path d="M 642 306v 28h 14a 14 14, 0, 0, 0, 0 -28" transform="rotate(90,656,320)"/><path d="M 754 306v 28h 28v -14a 14 14, 0, 0, 0, -14 -14" transform="rotate(180,768,320)"/><rect x="782" y="306" width="28" height="28" transform="rotate(0,796,320)"/><path d="M 922 306v 28h 14a 14 14, 0, 0, 0, 0 -28" transform="rotate(-90,936,320)"/><circle cx="1020" cy="320" r="14" transform="rotate(0,1020,320)"/><path d="M 1146 306v 28h 14a 14 14, 0, 0, 0, 0 -28" transform="rotate(90,1160,320)"/><path d="M 138 334v 28h 28v -14a 14 14, 0, 0, 0, -14 -14" transform="rotate(180,152,348)"/><path d="M 166 334v 28h 28v -14a 14 14, 0, 0, 0, -14 -14" transform="rotate(90,180,348)"/><path d="M 278 334v 28h 28v -14a 14 14, 0, 0, 0, -14 -14" transform="rotate(-90,292,348)"/><rect x="306" y="334" width="28" height="28" transform="rotate(0,320,348)"/><rect x="334" y="334" width="28" height="28" transform="rotate(0,348,348)"/><path d="M 362 334v 28h 28v -14a 14 14, 0, 0, 0, -14 -14" transform="rotate(90,376,348)"/><path d="M 502 334v 28h 14a 14 14, 0, 0, 0, 0 -28" transform="rotate(90,516,348)"/><path d="M 558 334v 28h 14a 14 14, 0, 0, 0, 0 -28" transform="rotate(90,572,348)"/><circle cx="712" cy="348" r="14" transform="rotate(0,712,348)"/><path d="M 782 334v 28h 14a 14 14, 0, 0, 0, 0 -28" transform="rotate(90,796,348)"/><path d="M 838 334v 28h 14a 14 14, 0, 0, 0, 0 -28" transform="rotate(-90,852,348)"/><path d="M 894 334v 28h 14a 14 14, 0, 0, 0, 0 -28" transform="rotate(180,908,348)"/><path d="M 922 334v 28h 28v -14a 14 14, 0, 0, 0, -14 -14" transform="rotate(90,936,348)"/><circle cx="992" cy="348" r="14" transform="rotate(0,992,348)"/><circle cx="1076" cy="348" r="14" transform="rotate(0,1076,348)"/><path d="M 82 362v 28h 14a 14 14, 0, 0, 0, 0 -28" transform="rotate(180,96,376)"/><path d="M 110 362v 28h 28v -14a 14 14, 0, 0, 0, -14 -14" transform="rotate(0,124,376)"/><path d="M 194 362v 28h 14a 14 14, 0, 0, 0, 0 -28" transform="rotate(180,208,376)"/><rect x="222" y="362" width="28" height="28" transform="rotate(0,236,376)"/><rect x="250" y="362" width="28" height="28" transform="rotate(0,264,376)"/><rect x="278" y="362" width="28" height="28" transform="rotate(0,292,376)"/><path d="M 306 362v 28h 28v -14a 14 14, 0, 0, 0, -14 -14" transform="rotate(90,320,376)"/><path d="M 418 362v 28h 28v -14a 14 14, 0, 0, 0, -14 -14" transform="rotate(-90,432,376)"/><rect x="446" y="362" width="28" height="28" transform="rotate(0,460,376)"/><path d="M 474 362v 28h 14a 14 14, 0, 0, 0, 0 -28" transform="rotate(0,488,376)"/><circle cx="544" cy="376" r="14" transform="rotate(0,544,376)"/><circle cx="684" cy="376" r="14" transform="rotate(0,684,376)"/><path d="M 754 362v 28h 14a 14 14, 0, 0, 0, 0 -28" transform="rotate(-90,768,376)"/><path d="M 838 362v 28h 14a 14 14, 0, 0, 0, 0 -28" transform="rotate(90,852,376)"/><circle cx="964" cy="376" r="14" transform="rotate(0,964,376)"/><circle cx="1132" cy="376" r="14" transform="rotate(0,1132,376)"/><path d="M 26 390v 28h 14a 14 14, 0, 0, 0, 0 -28" transform="rotate(180,40,404)"/><path d="M 54 390v 28h 28v -14a 14 14, 0, 0, 0, -14 -14" transform="rotate(0,68,404)"/><rect x="110" y="390" width="28" height="28" transform="rotate(0,124,404)"/><circle cx="180" cy="404" r="14" transform="rotate(0,180,404)"/><path d="M 334 390v 28h 28v -14a 14 14, 0, 0, 0, -14 -14" transform="rotate(-90,348,404)"/><rect x="362" y="390" width="28" height="28" transform="rotate(0,376,404)"/><rect x="390" y="390" width="28" height="28" transform="rotate(0,404,404)"/><rect x="418" y="390" width="28" height="28" transform="rotate(0,432,404)"/><path d="M 446 390v 28h 28v -14a 14 14, 0, 0, 0, -14 -14" transform="rotate(90,460,404)"/><circle cx="516" cy="404" r="14" transform="rotate(0,516,404)"/><path d="M 586 390v 28h 28v -14a 14 14, 0, 0, 0, -14 -14" transform="rotate(-90,600,404)"/><path d="M 614 390v 28h 14a 14 14, 0, 0, 0, 0 -28" transform="rotate(0,628,404)"/><path d="M 698 390v 28h 14a 14 14, 0, 0, 0, 0 -28" transform="rotate(-90,712,404)"/><rect x="754" y="390" width="28" height="28" transform="rotate(0,768,404)"/><rect x="782" y="390" width="28" height="28" transform="rotate(0,796,404)"/><path d="M 810 390v 28h 14a 14 14, 0, 0, 0, 0 -28" transform="rotate(0,824,404)"/><path d="M 978 390v 28h 28v -14a 14 14, 0, 0, 0, -14 -14" transform="rotate(-90,992,404)"/><rect x="1006" y="390" width="28" height="28" transform="rotate(0,1020,404)"/><rect x="1034" y="390" width="28" height="28" transform="rotate(0,1048,404)"/><rect x="1062" y="390" width="28" height="28" transform="rotate(0,1076,404)"/><path d="M 1090 390v 28h 28v -14a 14 14, 0, 0, 0, -14 -14" transform="rotate(0,1104,404)"/><path d="M 1146 390v 28h 14a 14 14, 0, 0, 0, 0 -28" transform="rotate(-90,1160,404)"/><path d="M 54 418v 28h 14a 14 14, 0, 0, 0, 0 -28" transform="rotate(90,68,432)"/><path d="M 110 418v 28h 28v -14a 14 14, 0, 0, 0, -14 -14" transform="rotate(180,124,432)"/><path d="M 138 418v 28h 14a 14 14, 0, 0, 0, 0 -28" transform="rotate(0,152,432)"/><circle cx="208" cy="432" r="14" transform="rotate(0,208,432)"/><path d="M 250 418v 28h 14a 14 14, 0, 0, 0, 0 -28" transform="rotate(180,264,432)"/><path d="M 278 418v 28h 28v -14a 14 14, 0, 0, 0, -14 -14" transform="rotate(0,292,432)"/><path d="M 334 418v 28h 28v -14a 14 14, 0, 0, 0, -14 -14" transform="rotate(180,348,432)"/><rect x="362" y="418" width="28" height="28" transform="rotate(0,376,432)"/><rect x="390" y="418" width="28" height="28" transform="rotate(0,404,432)"/><circle cx="488" cy="432" r="14" transform="rotate(0,488,432)"/><circle cx="544" cy="432" r="14" transform="rotate(0,544,432)"/><rect x="586" y="418" width="28" height="28" transform="rotate(0,600,432)"/><path d="M 670 418v 28h 28v -14a 14 14, 0, 0, 0, -14 -14" transform="rotate(-90,684,432)"/><rect x="698" y="418" width="28" height="28" transform="rotate(0,712,432)"/><rect x="726" y="418" width="28" height="28" transform="rotate(0,740,432)"/><rect x="754" y="418" width="28" height="28" transform="rotate(0,768,432)"/><rect x="782" y="418" width="28" height="28" transform="rotate(0,796,432)"/><path d="M 838 418v 28h 28v -14a 14 14, 0, 0, 0, -14 -14" transform="rotate(-90,852,432)"/><path d="M 866 418v 28h 28v -14a 14 14, 0, 0, 0, -14 -14" transform="rotate(0,880,432)"/><path d="M 922 418v 28h 14a 14 14, 0, 0, 0, 0 -28" transform="rotate(180,936,432)"/><rect x="950" y="418" width="28" height="28" transform="rotate(0,964,432)"/><path d="M 978 418v 28h 28v -14a 14 14, 0, 0, 0, -14 -14" transform="rotate(90,992,432)"/><rect x="1034" y="418" width="28" height="28" transform="rotate(0,1048,432)"/><rect x="1062" y="418" width="28" height="28" transform="rotate(0,1076,432)"/><path d="M 1090 418v 28h 28v -14a 14 14, 0, 0, 0, -14 -14" transform="rotate(90,1104,432)"/><rect x="1146" y="418" width="28" height="28" transform="rotate(0,1160,432)"/><path d="M 26 446v 28h 14a 14 14, 0, 0, 0, 0 -28" transform="rotate(-90,40,460)"/><path d="M 82 446v 28h 14a 14 14, 0, 0, 0, 0 -28" transform="rotate(-90,96,460)"/><path d="M 222 446v 28h 14a 14 14, 0, 0, 0, 0 -28" transform="rotate(-90,236,460)"/><rect x="278" y="446" width="28" height="28" transform="rotate(0,292,460)"/><rect x="362" y="446" width="28" height="28" transform="rotate(0,376,460)"/><rect x="390" y="446" width="28" height="28" transform="rotate(0,404,460)"/><path d="M 418 446v 28h 28v -14a 14 14, 0, 0, 0, -14 -14" transform="rotate(0,432,460)"/><path d="M 558 446v 28h 14a 14 14, 0, 0, 0, 0 -28" transform="rotate(180,572,460)"/><rect x="586" y="446" width="28" height="28" transform="rotate(0,600,460)"/><rect x="614" y="446" width="28" height="28" transform="rotate(0,628,460)"/><rect x="642" y="446" width="28" height="28" transform="rotate(0,656,460)"/><path d="M 670 446v 28h 28v -14a 14 14, 0, 0, 0, -14 -14" transform="rotate(90,684,460)"/><rect x="782" y="446" width="28" height="28" transform="rotate(0,796,460)"/><rect x="838" y="446" width="28" height="28" transform="rotate(0,852,460)"/><rect x="866" y="446" width="28" height="28" transform="rotate(0,880,460)"/><path d="M 894 446v 28h 28v -14a 14 14, 0, 0, 0, -14 -14" transform="rotate(0,908,460)"/><path d="M 1034 446v 28h 28v -14a 14 14, 0, 0, 0, -14 -14" transform="rotate(180,1048,460)"/><rect x="1062" y="446" width="28" height="28" transform="rotate(0,1076,460)"/><rect x="1146" y="446" width="28" height="28" transform="rotate(0,1160,460)"/><path d="M 26 474v 28h 14a 14 14, 0, 0, 0, 0 -28" transform="rotate(90,40,488)"/><path d="M 82 474v 28h 14a 14 14, 0, 0, 0, 0 -28" transform="rotate(90,96,488)"/><path d="M 166 474v 28h 28v -14a 14 14, 0, 0, 0, -14 -14" transform="rotate(-90,180,488)"/><rect x="194" y="474" width="28" height="28" transform="rotate(0,208,488)"/><rect x="222" y="474" width="28" height="28" transform="rotate(0,236,488)"/><rect x="250" y="474" width="28" height="28" transform="rotate(0,264,488)"/><rect x="278" y="474" width="28" height="28" transform="rotate(0,292,488)"/><rect x="306" y="474" width="28" height="28" transform="rotate(0,320,488)"/><rect x="334" y="474" width="28" height="28" transform="rotate(0,348,488)"/><rect x="362" y="474" width="28" height="28" transform="rotate(0,376,488)"/><rect x="390" y="474" width="28" height="28" transform="rotate(0,404,488)"/><rect x="418" y="474" width="28" height="28" transform="rotate(0,432,488)"/><path d="M 530 474v 28h 14a 14 14, 0, 0, 0, 0 -28" transform="rotate(-90,544,488)"/><path d="M 586 474v 28h 14a 14 14, 0, 0, 0, 0 -28" transform="rotate(90,600,488)"/><circle cx="712" cy="488" r="14" transform="rotate(0,712,488)"/><rect x="782" y="474" width="28" height="28" transform="rotate(0,796,488)"/><path d="M 838 474v 28h 14a 14 14, 0, 0, 0, 0 -28" transform="rotate(90,852,488)"/><path d="M 894 474v 28h 28v -14a 14 14, 0, 0, 0, -14 -14" transform="rotate(180,908,488)"/><path d="M 922 474v 28h 28v -14a 14 14, 0, 0, 0, -14 -14" transform="rotate(0,936,488)"/><path d="M 1006 474v 28h 14a 14 14, 0, 0, 0, 0 -28" transform="rotate(-90,1020,488)"/><path d="M 1062 474v 28h 14a 14 14, 0, 0, 0, 0 -28" transform="rotate(90,1076,488)"/><path d="M 1118 474v 28h 14a 14 14, 0, 0, 0, 0 -28" transform="rotate(180,1132,488)"/><rect x="1146" y="474" width="28" height="28" transform="rotate(0,1160,488)"/><path d="M 138 502v 28h 28v -14a 14 14, 0, 0, 0, -14 -14" transform="rotate(-90,152,516)"/><rect x="166" y="502" width="28" height="28" transform="rotate(0,180,516)"/><path d="M 222 502v 28h 14a 14 14, 0, 0, 0, 0 -28" transform="rotate(90,236,516)"/><path d="M 278 502v 28h 14a 14 14, 0, 0, 0, 0 -28" transform="rotate(90,292,516)"/><path d="M 418 502v 28h 28v -14a 14 14, 0, 0, 0, -14 -14" transform="rotate(180,432,516)"/><rect x="446" y="502" width="28" height="28" transform="rotate(0,460,516)"/><rect x="474" y="502" width="28" height="28" transform="rotate(0,488,516)"/><rect x="502" y="502" width="28" height="28" transform="rotate(0,516,516)"/><rect x="530" y="502" width="28" height="28" transform="rotate(0,544,516)"/><path d="M 558 502v 28h 28v -14a 14 14, 0, 0, 0, -14 -14" transform="rotate(0,572,516)"/><path d="M 642 502v 28h 14a 14 14, 0, 0, 0, 0 -28" transform="rotate(180,656,516)"/><path d="M 670 502v 28h 28v -14a 14 14, 0, 0, 0, -14 -14" transform="rotate(0,684,516)"/><rect x="782" y="502" width="28" height="28" transform="rotate(0,796,516)"/><path d="M 810 502v 28h 28v -14a 14 14, 0, 0, 0, -14 -14" transform="rotate(0,824,516)"/><path d="M 922 502v 28h 28v -14a 14 14, 0, 0, 0, -14 -14" transform="rotate(180,936,516)"/><rect x="950" y="502" width="28" height="28" transform="rotate(0,964,516)"/><rect x="978" y="502" width="28" height="28" transform="rotate(0,992,516)"/><rect x="1006" y="502" width="28" height="28" transform="rotate(0,1020,516)"/><path d="M 1034 502v 28h 14a 14 14, 0, 0, 0, 0 -28" transform="rotate(0,1048,516)"/><rect x="1146" y="502" width="28" height="28" transform="rotate(0,1160,516)"/><path d="M 54 530v 28h 28v -14a 14 14, 0, 0, 0, -14 -14" transform="rotate(-90,68,544)"/><rect x="82" y="530" width="28" height="28" transform="rotate(0,96,544)"/><rect x="110" y="530" width="28" height="28" transform="rotate(0,124,544)"/><rect x="138" y="530" width="28" height="28" transform="rotate(0,152,544)"/><rect x="166" y="530" width="28" height="28" transform="rotate(0,180,544)"/><path d="M 194 530v 28h 14a 14 14, 0, 0, 0, 0 -28" transform="rotate(0,208,544)"/><circle cx="264" cy="544" r="14" transform="rotate(0,264,544)"/><path d="M 334 530v 28h 14a 14 14, 0, 0, 0, 0 -28" transform="rotate(180,348,544)"/><rect x="362" y="530" width="28" height="28" transform="rotate(0,376,544)"/><path d="M 390 530v 28h 14a 14 14, 0, 0, 0, 0 -28" transform="rotate(0,404,544)"/><rect x="446" y="530" width="28" height="28" transform="rotate(0,460,544)"/><path d="M 530 530v 28h 28v -14a 14 14, 0, 0, 0, -14 -14" transform="rotate(180,544,544)"/><rect x="558" y="530" width="28" height="28" transform="rotate(0,572,544)"/><circle cx="628" cy="544" r="14" transform="rotate(0,628,544)"/><path d="M 670 530v 28h 14a 14 14, 0, 0, 0, 0 -28" transform="rotate(90,684,544)"/><path d="M 726 530v 28h 14a 14 14, 0, 0, 0, 0 -28" transform="rotate(180,740,544)"/><rect x="754" y="530" width="28" height="28" transform="rotate(0,768,544)"/><rect x="782" y="530" width="28" height="28" transform="rotate(0,796,544)"/><rect x="810" y="530" width="28" height="28" transform="rotate(0,824,544)"/><rect x="838" y="530" width="28" height="28" transform="rotate(0,852,544)"/><path d="M 866 530v 28h 28v -14a 14 14, 0, 0, 0, -14 -14" transform="rotate(0,880,544)"/><path d="M 950 530v 28h 14a 14 14, 0, 0, 0, 0 -28" transform="rotate(90,964,544)"/><rect x="1006" y="530" width="28" height="28" transform="rotate(0,1020,544)"/><path d="M 1146 530v 28h 14a 14 14, 0, 0, 0, 0 -28" transform="rotate(90,1160,544)"/><path d="M 54 558v 28h 28v -14a 14 14, 0, 0, 0, -14 -14" transform="rotate(180,68,572)"/><path d="M 82 558v 28h 28v -14a 14 14, 0, 0, 0, -14 -14" transform="rotate(90,96,572)"/><path d="M 138 558v 28h 14a 14 14, 0, 0, 0, 0 -28" transform="rotate(90,152,572)"/><path d="M 278 558v 28h 28v -14a 14 14, 0, 0, 0, -14 -14" transform="rotate(-90,292,572)"/><path d="M 306 558v 28h 14a 14 14, 0, 0, 0, 0 -28" transform="rotate(0,320,572)"/><path d="M 446 558v 28h 14a 14 14, 0, 0, 0, 0 -28" transform="rotate(90,460,572)"/><rect x="558" y="558" width="28" height="28" transform="rotate(0,572,572)"/><path d="M 698 558v 28h 14a 14 14, 0, 0, 0, 0 -28" transform="rotate(-90,712,572)"/><rect x="838" y="558" width="28" height="28" transform="rotate(0,852,572)"/><rect x="866" y="558" width="28" height="28" transform="rotate(0,880,572)"/><rect x="894" y="558" width="28" height="28" transform="rotate(0,908,572)"/><path d="M 922 558v 28h 28v -14a 14 14, 0, 0, 0, -14 -14" transform="rotate(0,936,572)"/><path d="M 978 558v 28h 14a 14 14, 0, 0, 0, 0 -28" transform="rotate(180,992,572)"/><path d="M 1006 558v 28h 28v -14a 14 14, 0, 0, 0, -14 -14" transform="rotate(90,1020,572)"/><path d="M 1062 558v 28h 14a 14 14, 0, 0, 0, 0 -28" transform="rotate(-90,1076,572)"/><path d="M 1118 558v 28h 14a 14 14, 0, 0, 0, 0 -28" transform="rotate(-90,1132,572)"/><circle cx="124" cy="600" r="14" transform="rotate(0,124,600)"/><path d="M 166 586v 28h 28v -14a 14 14, 0, 0, 0, -14 -14" transform="rotate(-90,180,600)"/><rect x="194" y="586" width="28" height="28" transform="rotate(0,208,600)"/><rect x="222" y="586" width="28" height="28" transform="rotate(0,236,600)"/><rect x="250" y="586" width="28" height="28" transform="rotate(0,264,600)"/><rect x="278" y="586" width="28" height="28" transform="rotate(0,292,600)"/><circle cx="348" cy="600" r="14" transform="rotate(0,348,600)"/><circle cx="404" cy="600" r="14" transform="rotate(0,404,600)"/><path d="M 502 586v 28h 14a 14 14, 0, 0, 0, 0 -28" transform="rotate(180,516,600)"/><rect x="530" y="586" width="28" height="28" transform="rotate(0,544,600)"/><path d="M 558 586v 28h 28v -14a 14 14, 0, 0, 0, -14 -14" transform="rotate(90,572,600)"/><path d="M 642 586v 28h 14a 14 14, 0, 0, 0, 0 -28" transform="rotate(-90,656,600)"/><path d="M 698 586v 28h 14a 14 14, 0, 0, 0, 0 -28" transform="rotate(90,712,600)"/><path d="M 810 586v 28h 28v -14a 14 14, 0, 0, 0, -14 -14" transform="rotate(-90,824,600)"/><path d="M 838 586v 28h 28v -14a 14 14, 0, 0, 0, -14 -14" transform="rotate(90,852,600)"/><path d="M 894 586v 28h 28v -14a 14 14, 0, 0, 0, -14 -14" transform="rotate(180,908,600)"/><rect x="922" y="586" width="28" height="28" transform="rotate(0,936,600)"/><path d="M 950 586v 28h 14a 14 14, 0, 0, 0, 0 -28" transform="rotate(0,964,600)"/><path d="M 1062 586v 28h 14a 14 14, 0, 0, 0, 0 -28" transform="rotate(90,1076,600)"/><path d="M 1118 586v 28h 28v -14a 14 14, 0, 0, 0, -14 -14" transform="rotate(180,1132,600)"/><path d="M 1146 586v 28h 28v -14a 14 14, 0, 0, 0, -14 -14" transform="rotate(0,1160,600)"/><circle cx="40" cy="628" r="14" transform="rotate(0,40,628)"/><path d="M 82 614v 28h 14a 14 14, 0, 0, 0, 0 -28" transform="rotate(-90,96,628)"/><path d="M 138 614v 28h 28v -14a 14 14, 0, 0, 0, -14 -14" transform="rotate(-90,152,628)"/><rect x="166" y="614" width="28" height="28" transform="rotate(0,180,628)"/><path d="M 250 614v 28h 28v -14a 14 14, 0, 0, 0, -14 -14" transform="rotate(180,264,628)"/><rect x="278" y="614" width="28" height="28" transform="rotate(0,292,628)"/><path d="M 306 614v 28h 28v -14a 14 14, 0, 0, 0, -14 -14" transform="rotate(0,320,628)"/><path d="M 418 614v 28h 14a 14 14, 0, 0, 0, 0 -28" transform="rotate(180,432,628)"/><rect x="446" y="614" width="28" height="28" transform="rotate(0,460,628)"/><path d="M 474 614v 28h 28v -14a 14 14, 0, 0, 0, -14 -14" transform="rotate(0,488,628)"/><circle cx="600" cy="628" r="14" transform="rotate(0,600,628)"/><rect x="642" y="614" width="28" height="28" transform="rotate(0,656,628)"/><path d="M 670 614v 28h 28v -14a 14 14, 0, 0, 0, -14 -14" transform="rotate(0,684,628)"/><path d="M 726 614v 28h 14a 14 14, 0, 0, 0, 0 -28" transform="rotate(180,740,628)"/><rect x="754" y="614" width="28" height="28" transform="rotate(0,768,628)"/><rect x="782" y="614" width="28" height="28" transform="rotate(0,796,628)"/><path d="M 810 614v 28h 28v -14a 14 14, 0, 0, 0, -14 -14" transform="rotate(90,824,628)"/><circle cx="992" cy="628" r="14" transform="rotate(0,992,628)"/><circle cx="1048" cy="628" r="14" transform="rotate(0,1048,628)"/><circle cx="1104" cy="628" r="14" transform="rotate(0,1104,628)"/><rect x="1146" y="614" width="28" height="28" transform="rotate(0,1160,628)"/><path d="M 82 642v 28h 28v -14a 14 14, 0, 0, 0, -14 -14" transform="rotate(180,96,656)"/><rect x="110" y="642" width="28" height="28" transform="rotate(0,124,656)"/><rect x="138" y="642" width="28" height="28" transform="rotate(0,152,656)"/><rect x="166" y="642" width="28" height="28" transform="rotate(0,180,656)"/><path d="M 194 642v 28h 14a 14 14, 0, 0, 0, 0 -28" transform="rotate(0,208,656)"/><rect x="306" y="642" width="28" height="28" transform="rotate(0,320,656)"/><path d="M 334 642v 28h 28v -14a 14 14, 0, 0, 0, -14 -14" transform="rotate(0,348,656)"/><path d="M 474 642v 28h 14a 14 14, 0, 0, 0, 0 -28" transform="rotate(90,488,656)"/><circle cx="544" cy="656" r="14" transform="rotate(0,544,656)"/><rect x="642" y="642" width="28" height="28" transform="rotate(0,656,656)"/><rect x="670" y="642" width="28" height="28" transform="rotate(0,684,656)"/><rect x="754" y="642" width="28" height="28" transform="rotate(0,768,656)"/><rect x="782" y="642" width="28" height="28" transform="rotate(0,796,656)"/><path d="M 838 642v 28h 28v -14a 14 14, 0, 0, 0, -14 -14" transform="rotate(-90,852,656)"/><path d="M 866 642v 28h 28v -14a 14 14, 0, 0, 0, -14 -14" transform="rotate(0,880,656)"/><circle cx="936" cy="656" r="14" transform="rotate(0,936,656)"/><path d="M 1062 642v 28h 14a 14 14, 0, 0, 0, 0 -28" transform="rotate(-90,1076,656)"/><rect x="1146" y="642" width="28" height="28" transform="rotate(0,1160,656)"/><path d="M 54 670v 28h 14a 14 14, 0, 0, 0, 0 -28" transform="rotate(-90,68,684)"/><path d="M 166 670v 28h 14a 14 14, 0, 0, 0, 0 -28" transform="rotate(90,180,684)"/><path d="M 222 670v 28h 28v -14a 14 14, 0, 0, 0, -14 -14" transform="rotate(-90,236,684)"/><rect x="250" y="670" width="28" height="28" transform="rotate(0,264,684)"/><rect x="278" y="670" width="28" height="28" transform="rotate(0,292,684)"/><rect x="306" y="670" width="28" height="28" transform="rotate(0,320,684)"/><rect x="334" y="670" width="28" height="28" transform="rotate(0,348,684)"/><rect x="362" y="670" width="28" height="28" transform="rotate(0,376,684)"/><path d="M 390 670v 28h 14a 14 14, 0, 0, 0, 0 -28" transform="rotate(0,404,684)"/><circle cx="516" cy="684" r="14" transform="rotate(0,516,684)"/><path d="M 586 670v 28h 28v -14a 14 14, 0, 0, 0, -14 -14" transform="rotate(-90,600,684)"/><rect x="614" y="670" width="28" height="28" transform="rotate(0,628,684)"/><rect x="642" y="670" width="28" height="28" transform="rotate(0,656,684)"/><rect x="670" y="670" width="28" height="28" transform="rotate(0,684,684)"/><path d="M 754 670v 28h 28v -14a 14 14, 0, 0, 0, -14 -14" transform="rotate(180,768,684)"/><rect x="782" y="670" width="28" height="28" transform="rotate(0,796,684)"/><rect x="810" y="670" width="28" height="28" transform="rotate(0,824,684)"/><rect x="838" y="670" width="28" height="28" transform="rotate(0,852,684)"/><rect x="866" y="670" width="28" height="28" transform="rotate(0,880,684)"/><path d="M 894 670v 28h 28v -14a 14 14, 0, 0, 0, -14 -14" transform="rotate(0,908,684)"/><circle cx="992" cy="684" r="14" transform="rotate(0,992,684)"/><path d="M 1062 670v 28h 14a 14 14, 0, 0, 0, 0 -28" transform="rotate(90,1076,684)"/><path d="M 1118 670v 28h 14a 14 14, 0, 0, 0, 0 -28" transform="rotate(180,1132,684)"/><rect x="1146" y="670" width="28" height="28" transform="rotate(0,1160,684)"/><path d="M 26 698v 28h 14a 14 14, 0, 0, 0, 0 -28" transform="rotate(180,40,712)"/><rect x="54" y="698" width="28" height="28" transform="rotate(0,68,712)"/><rect x="82" y="698" width="28" height="28" transform="rotate(0,96,712)"/><path d="M 110 698v 28h 14a 14 14, 0, 0, 0, 0 -28" transform="rotate(0,124,712)"/><path d="M 194 698v 28h 14a 14 14, 0, 0, 0, 0 -28" transform="rotate(180,208,712)"/><path d="M 222 698v 28h 28v -14a 14 14, 0, 0, 0, -14 -14" transform="rotate(90,236,712)"/><path d="M 446 698v 28h 14a 14 14, 0, 0, 0, 0 -28" transform="rotate(-90,460,712)"/><path d="M 586 698v 28h 28v -14a 14 14, 0, 0, 0, -14 -14" transform="rotate(180,600,712)"/><rect x="614" y="698" width="28" height="28" transform="rotate(0,628,712)"/><rect x="642" y="698" width="28" height="28" transform="rotate(0,656,712)"/><rect x="670" y="698" width="28" height="28" transform="rotate(0,684,712)"/><rect x="810" y="698" width="28" height="28" transform="rotate(0,824,712)"/><path d="M 838 698v 28h 28v -14a 14 14, 0, 0, 0, -14 -14" transform="rotate(90,852,712)"/><path d="M 894 698v 28h 28v -14a 14 14, 0, 0, 0, -14 -14" transform="rotate(180,908,712)"/><rect x="922" y="698" width="28" height="28" transform="rotate(0,936,712)"/><path d="M 950 698v 28h 14a 14 14, 0, 0, 0, 0 -28" transform="rotate(0,964,712)"/><path d="M 1006 698v 28h 14a 14 14, 0, 0, 0, 0 -28" transform="rotate(-90,1020,712)"/><rect x="1146" y="698" width="28" height="28" transform="rotate(0,1160,712)"/><rect x="82" y="726" width="28" height="28" transform="rotate(0,96,740)"/><path d="M 250 726v 28h 28v -14a 14 14, 0, 0, 0, -14 -14" transform="rotate(-90,264,740)"/><path d="M 278 726v 28h 14a 14 14, 0, 0, 0, 0 -28" transform="rotate(0,292,740)"/><circle cx="376" cy="740" r="14" transform="rotate(0,376,740)"/><rect x="446" y="726" width="28" height="28" transform="rotate(0,460,740)"/><rect x="474" y="726" width="28" height="28" transform="rotate(0,488,740)"/><rect x="502" y="726" width="28" height="28" transform="rotate(0,516,740)"/><path d="M 530 726v 28h 28v -14a 14 14, 0, 0, 0, -14 -14" transform="rotate(0,544,740)"/><path d="M 614 726v 28h 14a 14 14, 0, 0, 0, 0 -28" transform="rotate(90,628,740)"/><rect x="670" y="726" width="28" height="28" transform="rotate(0,684,740)"/><path d="M 754 726v 28h 28v -14a 14 14, 0, 0, 0, -14 -14" transform="rotate(-90,768,740)"/><rect x="782" y="726" width="28" height="28" transform="rotate(0,796,740)"/><rect x="810" y="726" width="28" height="28" transform="rotate(0,824,740)"/><path d="M 866 726v 28h 14a 14 14, 0, 0, 0, 0 -28" transform="rotate(-90,880,740)"/><rect x="922" y="726" width="28" height="28" transform="rotate(0,936,740)"/><path d="M 978 726v 28h 14a 14 14, 0, 0, 0, 0 -28" transform="rotate(180,992,740)"/><rect x="1006" y="726" width="28" height="28" transform="rotate(0,1020,740)"/><path d="M 1034 726v 28h 28v -14a 14 14, 0, 0, 0, -14 -14" transform="rotate(0,1048,740)"/><circle cx="1104" cy="740" r="14" transform="rotate(0,1104,740)"/><rect x="1146" y="726" width="28" height="28" transform="rotate(0,1160,740)"/><circle cx="40" cy="768" r="14" transform="rotate(0,40,768)"/><path d="M 82 754v 28h 14a 14 14, 0, 0, 0, 0 -28" transform="rotate(90,96,768)"/><circle cx="152" cy="768" r="14" transform="rotate(0,152,768)"/><path d="M 194 754v 28h 14a 14 14, 0, 0, 0, 0 -28" transform="rotate(180,208,768)"/><rect x="222" y="754" width="28" height="28" transform="rotate(0,236,768)"/><path d="M 250 754v 28h 28v -14a 14 14, 0, 0, 0, -14 -14" transform="rotate(90,264,768)"/><path d="M 306 754v 28h 28v -14a 14 14, 0, 0, 0, -14 -14" transform="rotate(-90,320,768)"/><path d="M 334 754v 28h 14a 14 14, 0, 0, 0, 0 -28" transform="rotate(0,348,768)"/><path d="M 446 754v 28h 14a 14 14, 0, 0, 0, 0 -28" transform="rotate(90,460,768)"/><rect x="530" y="754" width="28" height="28" transform="rotate(0,544,768)"/><rect x="558" y="754" width="28" height="28" transform="rotate(0,572,768)"/><path d="M 586 754v 28h 14a 14 14, 0, 0, 0, 0 -28" transform="rotate(0,600,768)"/><rect x="670" y="754" width="28" height="28" transform="rotate(0,684,768)"/><rect x="754" y="754" width="28" height="28" transform="rotate(0,768,768)"/><rect x="782" y="754" width="28" height="28" transform="rotate(0,796,768)"/><rect x="810" y="754" width="28" height="28" transform="rotate(0,824,768)"/><rect x="838" y="754" width="28" height="28" transform="rotate(0,852,768)"/><path d="M 866 754v 28h 28v -14a 14 14, 0, 0, 0, -14 -14" transform="rotate(90,880,768)"/><rect x="922" y="754" width="28" height="28" transform="rotate(0,936,768)"/><path d="M 1034 754v 28h 14a 14 14, 0, 0, 0, 0 -28" transform="rotate(90,1048,768)"/><rect x="1146" y="754" width="28" height="28" transform="rotate(0,1160,768)"/><path d="M 110 782v 28h 14a 14 14, 0, 0, 0, 0 -28" transform="rotate(-90,124,796)"/><circle cx="180" cy="796" r="14" transform="rotate(0,180,796)"/><rect x="222" y="782" width="28" height="28" transform="rotate(0,236,796)"/><rect x="306" y="782" width="28" height="28" transform="rotate(0,320,796)"/><path d="M 418 782v 28h 14a 14 14, 0, 0, 0, 0 -28" transform="rotate(-90,432,796)"/><path d="M 474 782v 28h 14a 14 14, 0, 0, 0, 0 -28" transform="rotate(-90,488,796)"/><rect x="530" y="782" width="28" height="28" transform="rotate(0,544,796)"/><circle cx="628" cy="796" r="14" transform="rotate(0,628,796)"/><rect x="670" y="782" width="28" height="28" transform="rotate(0,684,796)"/><path d="M 698 782v 28h 28v -14a 14 14, 0, 0, 0, -14 -14" transform="rotate(0,712,796)"/><path d="M 754 782v 28h 28v -14a 14 14, 0, 0, 0, -14 -14" transform="rotate(180,768,796)"/><path d="M 782 782v 28h 28v -14a 14 14, 0, 0, 0, -14 -14" transform="rotate(90,796,796)"/><rect x="838" y="782" width="28" height="28" transform="rotate(0,852,796)"/><path d="M 894 782v 28h 14a 14 14, 0, 0, 0, 0 -28" transform="rotate(180,908,796)"/><path d="M 922 782v 28h 28v -14a 14 14, 0, 0, 0, -14 -14" transform="rotate(90,936,796)"/><path d="M 978 782v 28h 14a 14 14, 0, 0, 0, 0 -28" transform="rotate(180,992,796)"/><path d="M 1006 782v 28h 14a 14 14, 0, 0, 0, 0 -28" transform="rotate(0,1020,796)"/><circle cx="1076" cy="796" r="14" transform="rotate(0,1076,796)"/><rect x="1146" y="782" width="28" height="28" transform="rotate(0,1160,796)"/><path d="M 26 810v 28h 14a 14 14, 0, 0, 0, 0 -28" transform="rotate(-90,40,824)"/><rect x="110" y="810" width="28" height="28" transform="rotate(0,124,824)"/><path d="M 194 810v 28h 14a 14 14, 0, 0, 0, 0 -28" transform="rotate(180,208,824)"/><rect x="222" y="810" width="28" height="28" transform="rotate(0,236,824)"/><rect x="250" y="810" width="28" height="28" transform="rotate(0,264,824)"/><rect x="278" y="810" width="28" height="28" transform="rotate(0,292,824)"/><path d="M 306 810v 28h 28v -14a 14 14, 0, 0, 0, -14 -14" transform="rotate(90,320,824)"/><path d="M 418 810v 28h 14a 14 14, 0, 0, 0, 0 -28" transform="rotate(90,432,824)"/><path d="M 474 810v 28h 28v -14a 14 14, 0, 0, 0, -14 -14" transform="rotate(180,488,824)"/><rect x="502" y="810" width="28" height="28" transform="rotate(0,516,824)"/><rect x="530" y="810" width="28" height="28" transform="rotate(0,544,824)"/><path d="M 558 810v 28h 14a 14 14, 0, 0, 0, 0 -28" transform="rotate(0,572,824)"/><path d="M 670 810v 28h 28v -14a 14 14, 0, 0, 0, -14 -14" transform="rotate(180,684,824)"/><path d="M 698 810v 28h 28v -14a 14 14, 0, 0, 0, -14 -14" transform="rotate(90,712,824)"/><path d="M 838 810v 28h 14a 14 14, 0, 0, 0, 0 -28" transform="rotate(90,852,824)"/><path d="M 950 810v 28h 14a 14 14, 0, 0, 0, 0 -28" transform="rotate(-90,964,824)"/><rect x="1146" y="810" width="28" height="28" transform="rotate(0,1160,824)"/><path d="M 26 838v 28h 28v -14a 14 14, 0, 0, 0, -14 -14" transform="rotate(180,40,852)"/><path d="M 54 838v 28h 14a 14 14, 0, 0, 0, 0 -28" transform="rotate(0,68,852)"/><rect x="110" y="838" width="28" height="28" transform="rotate(0,124,852)"/><rect x="222" y="838" width="28" height="28" transform="rotate(0,236,852)"/><path d="M 250 838v 28h 28v -14a 14 14, 0, 0, 0, -14 -14" transform="rotate(90,264,852)"/><path d="M 334 838v 28h 14a 14 14, 0, 0, 0, 0 -28" transform="rotate(180,348,852)"/><rect x="362" y="838" width="28" height="28" transform="rotate(0,376,852)"/><path d="M 390 838v 28h 28v -14a 14 14, 0, 0, 0, -14 -14" transform="rotate(0,404,852)"/><rect x="530" y="838" width="28" height="28" transform="rotate(0,544,852)"/><path d="M 614 838v 28h 28v -14a 14 14, 0, 0, 0, -14 -14" transform="rotate(-90,628,852)"/><path d="M 642 838v 28h 14a 14 14, 0, 0, 0, 0 -28" transform="rotate(0,656,852)"/><path d="M 782 838v 28h 28v -14a 14 14, 0, 0, 0, -14 -14" transform="rotate(-90,796,852)"/><path d="M 810 838v 28h 14a 14 14, 0, 0, 0, 0 -28" transform="rotate(0,824,852)"/><circle cx="880" cy="852" r="14" transform="rotate(0,880,852)"/><rect x="950" y="838" width="28" height="28" transform="rotate(0,964,852)"/><path d="M 978 838v 28h 14a 14 14, 0, 0, 0, 0 -28" transform="rotate(0,992,852)"/><circle cx="1048" cy="852" r="14" transform="rotate(0,1048,852)"/><rect x="1146" y="838" width="28" height="28" transform="rotate(0,1160,852)"/><path d="M 82 866v 28h 28v -14a 14 14, 0, 0, 0, -14 -14" transform="rotate(-90,96,880)"/><rect x="110" y="866" width="28" height="28" transform="rotate(0,124,880)"/><path d="M 138 866v 28h 14a 14 14, 0, 0, 0, 0 -28" transform="rotate(0,152,880)"/><path d="M 194 866v 28h 14a 14 14, 0, 0, 0, 0 -28" transform="rotate(180,208,880)"/><path d="M 222 866v 28h 28v -14a 14 14, 0, 0, 0, -14 -14" transform="rotate(90,236,880)"/><circle cx="320" cy="880" r="14" transform="rotate(0,320,880)"/><rect x="362" y="866" width="28" height="28" transform="rotate(0,376,880)"/><rect x="390" y="866" width="28" height="28" transform="rotate(0,404,880)"/><circle cx="488" cy="880" r="14" transform="rotate(0,488,880)"/><rect x="530" y="866" width="28" height="28" transform="rotate(0,544,880)"/><rect x="614" y="866" width="28" height="28" transform="rotate(0,628,880)"/><rect x="782" y="866" width="28" height="28" transform="rotate(0,796,880)"/><path d="M 922 866v 28h 14a 14 14, 0, 0, 0, 0 -28" transform="rotate(180,936,880)"/><rect x="950" y="866" width="28" height="28" transform="rotate(0,964,880)"/><path d="M 1062 866v 28h 28v -14a 14 14, 0, 0, 0, -14 -14" transform="rotate(-90,1076,880)"/><rect x="1090" y="866" width="28" height="28" transform="rotate(0,1104,880)"/><rect x="1118" y="866" width="28" height="28" transform="rotate(0,1132,880)"/><rect x="1146" y="866" width="28" height="28" transform="rotate(0,1160,880)"/><path d="M 82 894v 28h 28v -14a 14 14, 0, 0, 0, -14 -14" transform="rotate(180,96,908)"/><rect x="110" y="894" width="28" height="28" transform="rotate(0,124,908)"/><path d="M 250 894v 28h 14a 14 14, 0, 0, 0, 0 -28" transform="rotate(180,264,908)"/><path d="M 278 894v 28h 14a 14 14, 0, 0, 0, 0 -28" transform="rotate(0,292,908)"/><path d="M 362 894v 28h 28v -14a 14 14, 0, 0, 0, -14 -14" transform="rotate(180,376,908)"/><path d="M 390 894v 28h 28v -14a 14 14, 0, 0, 0, -14 -14" transform="rotate(90,404,908)"/><circle cx="460" cy="908" r="14" transform="rotate(0,460,908)"/><path d="M 502 894v 28h 14a 14 14, 0, 0, 0, 0 -28" transform="rotate(180,516,908)"/><rect x="530" y="894" width="28" height="28" transform="rotate(0,544,908)"/><rect x="558" y="894" width="28" height="28" transform="rotate(0,572,908)"/><rect x="586" y="894" width="28" height="28" transform="rotate(0,600,908)"/><rect x="614" y="894" width="28" height="28" transform="rotate(0,628,908)"/><path d="M 698 894v 28h 14a 14 14, 0, 0, 0, 0 -28" transform="rotate(-90,712,908)"/><path d="M 754 894v 28h 14a 14 14, 0, 0, 0, 0 -28" transform="rotate(180,768,908)"/><rect x="782" y="894" width="28" height="28" transform="rotate(0,796,908)"/><rect x="810" y="894" width="28" height="28" transform="rotate(0,824,908)"/><rect x="838" y="894" width="28" height="28" transform="rotate(0,852,908)"/><path d="M 866 894v 28h 28v -14a 14 14, 0, 0, 0, -14 -14" transform="rotate(0,880,908)"/><rect x="950" y="894" width="28" height="28" transform="rotate(0,964,908)"/><path d="M 1034 894v 28h 28v -14a 14 14, 0, 0, 0, -14 -14" transform="rotate(-90,1048,908)"/><rect x="1062" y="894" width="28" height="28" transform="rotate(0,1076,908)"/><path d="M 1146 894v 28h 14a 14 14, 0, 0, 0, 0 -28" transform="rotate(90,1160,908)"/><path d="M 26 922v 28h 14a 14 14, 0, 0, 0, 0 -28" transform="rotate(180,40,936)"/><path d="M 54 922v 28h 14a 14 14, 0, 0, 0, 0 -28" transform="rotate(0,68,936)"/><path d="M 110 922v 28h 14a 14 14, 0, 0, 0, 0 -28" transform="rotate(90,124,936)"/><path d="M 194 922v 28h 14a 14 14, 0, 0, 0, 0 -28" transform="rotate(180,208,936)"/><path d="M 222 922v 28h 14a 14 14, 0, 0, 0, 0 -28" transform="rotate(0,236,936)"/><circle cx="348" cy="936" r="14" transform="rotate(0,348,936)"/><path d="M 474 922v 28h 14a 14 14, 0, 0, 0, 0 -28" transform="rotate(-90,488,936)"/><path d="M 558 922v 28h 14a 14 14, 0, 0, 0, 0 -28" transform="rotate(90,572,936)"/><path d="M 614 922v 28h 14a 14 14, 0, 0, 0, 0 -28" transform="rotate(90,628,936)"/><path d="M 670 922v 28h 28v -14a 14 14, 0, 0, 0, -14 -14" transform="rotate(-90,684,936)"/><path d="M 698 922v 28h 28v -14a 14 14, 0, 0, 0, -14 -14" transform="rotate(90,712,936)"/><rect x="782" y="922" width="28" height="28" transform="rotate(0,796,936)"/><rect x="810" y="922" width="28" height="28" transform="rotate(0,824,936)"/><rect x="838" y="922" width="28" height="28" transform="rotate(0,852,936)"/><rect x="866" y="922" width="28" height="28" transform="rotate(0,880,936)"/><path d="M 922 922v 28h 28v -14a 14 14, 0, 0, 0, -14 -14" transform="rotate(-90,936,936)"/><rect x="950" y="922" width="28" height="28" transform="rotate(0,964,936)"/><rect x="978" y="922" width="28" height="28" transform="rotate(0,992,936)"/><rect x="1006" y="922" width="28" height="28" transform="rotate(0,1020,936)"/><rect x="1034" y="922" width="28" height="28" transform="rotate(0,1048,936)"/><rect x="1062" y="922" width="28" height="28" transform="rotate(0,1076,936)"/><circle cx="1132" cy="936" r="14" transform="rotate(0,1132,936)"/><path d="M 250 950v 28h 14a 14 14, 0, 0, 0, 0 -28" transform="rotate(180,264,964)"/><rect x="278" y="950" width="28" height="28" transform="rotate(0,292,964)"/><path d="M 306 950v 28h 14a 14 14, 0, 0, 0, 0 -28" transform="rotate(0,320,964)"/><path d="M 474 950v 28h 28v -14a 14 14, 0, 0, 0, -14 -14" transform="rotate(180,488,964)"/><path d="M 502 950v 28h 14a 14 14, 0, 0, 0, 0 -28" transform="rotate(0,516,964)"/><path d="M 642 950v 28h 28v -14a 14 14, 0, 0, 0, -14 -14" transform="rotate(-90,656,964)"/><rect x="670" y="950" width="28" height="28" transform="rotate(0,684,964)"/><path d="M 754 950v 28h 14a 14 14, 0, 0, 0, 0 -28" transform="rotate(180,768,964)"/><rect x="782" y="950" width="28" height="28" transform="rotate(0,796,964)"/><path d="M 810 950v 28h 28v -14a 14 14, 0, 0, 0, -14 -14" transform="rotate(90,824,964)"/><path d="M 866 950v 28h 28v -14a 14 14, 0, 0, 0, -14 -14" transform="rotate(180,880,964)"/><rect x="894" y="950" width="28" height="28" transform="rotate(0,908,964)"/><rect x="922" y="950" width="28" height="28" transform="rotate(0,936,964)"/><rect x="1034" y="950" width="28" height="28" transform="rotate(0,1048,964)"/><rect x="1062" y="950" width="28" height="28" transform="rotate(0,1076,964)"/><path d="M 1090 950v 28h 14a 14 14, 0, 0, 0, 0 -28" transform="rotate(0,1104,964)"/><path d="M 1146 950v 28h 14a 14 14, 0, 0, 0, 0 -28" transform="rotate(-90,1160,964)"/><circle cx="348" cy="992" r="14" transform="rotate(0,348,992)"/><path d="M 530 978v 28h 14a 14 14, 0, 0, 0, 0 -28" transform="rotate(-90,544,992)"/><path d="M 586 978v 28h 28v -14a 14 14, 0, 0, 0, -14 -14" transform="rotate(-90,600,992)"/><rect x="614" y="978" width="28" height="28" transform="rotate(0,628,992)"/><rect x="642" y="978" width="28" height="28" transform="rotate(0,656,992)"/><rect x="670" y="978" width="28" height="28" transform="rotate(0,684,992)"/><rect x="782" y="978" width="28" height="28" transform="rotate(0,796,992)"/><rect x="894" y="978" width="28" height="28" transform="rotate(0,908,992)"/><rect x="922" y="978" width="28" height="28" transform="rotate(0,936,992)"/><circle cx="992" cy="992" r="14" transform="rotate(0,992,992)"/><rect x="1034" y="978" width="28" height="28" transform="rotate(0,1048,992)"/><rect x="1062" y="978" width="28" height="28" transform="rotate(0,1076,992)"/><path d="M 1118 978v 28h 14a 14 14, 0, 0, 0, 0 -28" transform="rotate(180,1132,992)"/><rect x="1146" y="978" width="28" height="28" transform="rotate(0,1160,992)"/><path d="M 362 1006v 28h 14a 14 14, 0, 0, 0, 0 -28" transform="rotate(-90,376,1020)"/><path d="M 446 1006v 28h 14a 14 14, 0, 0, 0, 0 -28" transform="rotate(-90,460,1020)"/><rect x="530" y="1006" width="28" height="28" transform="rotate(0,544,1020)"/><rect x="558" y="1006" width="28" height="28" transform="rotate(0,572,1020)"/><path d="M 586 1006v 28h 28v -14a 14 14, 0, 0, 0, -14 -14" transform="rotate(90,600,1020)"/><rect x="670" y="1006" width="28" height="28" transform="rotate(0,684,1020)"/><path d="M 698 1006v 28h 28v -14a 14 14, 0, 0, 0, -14 -14" transform="rotate(0,712,1020)"/><path d="M 754 1006v 28h 28v -14a 14 14, 0, 0, 0, -14 -14" transform="rotate(-90,768,1020)"/><rect x="782" y="1006" width="28" height="28" transform="rotate(0,796,1020)"/><path d="M 838 1006v 28h 14a 14 14, 0, 0, 0, 0 -28" transform="rotate(-90,852,1020)"/><rect x="894" y="1006" width="28" height="28" transform="rotate(0,908,1020)"/><rect x="922" y="1006" width="28" height="28" transform="rotate(0,936,1020)"/><rect x="1034" y="1006" width="28" height="28" transform="rotate(0,1048,1020)"/><path d="M 1062 1006v 28h 28v -14a 14 14, 0, 0, 0, -14 -14" transform="rotate(90,1076,1020)"/><rect x="1146" y="1006" width="28" height="28" transform="rotate(0,1160,1020)"/><circle cx="264" cy="1048" r="14" transform="rotate(0,264,1048)"/><path d="M 334 1034v 28h 14a 14 14, 0, 0, 0, 0 -28" transform="rotate(180,348,1048)"/><rect x="362" y="1034" width="28" height="28" transform="rotate(0,376,1048)"/><path d="M 390 1034v 28h 14a 14 14, 0, 0, 0, 0 -28" transform="rotate(0,404,1048)"/><rect x="446" y="1034" width="28" height="28" transform="rotate(0,460,1048)"/><rect x="530" y="1034" width="28" height="28" transform="rotate(0,544,1048)"/><path d="M 558 1034v 28h 28v -14a 14 14, 0, 0, 0, -14 -14" transform="rotate(90,572,1048)"/><circle cx="628" cy="1048" r="14" transform="rotate(0,628,1048)"/><rect x="670" y="1034" width="28" height="28" transform="rotate(0,684,1048)"/><rect x="698" y="1034" width="28" height="28" transform="rotate(0,712,1048)"/><rect x="726" y="1034" width="28" height="28" transform="rotate(0,740,1048)"/><rect x="754" y="1034" width="28" height="28" transform="rotate(0,768,1048)"/><rect x="782" y="1034" width="28" height="28" transform="rotate(0,796,1048)"/><rect x="838" y="1034" width="28" height="28" transform="rotate(0,852,1048)"/><path d="M 894 1034v 28h 28v -14a 14 14, 0, 0, 0, -14 -14" transform="rotate(180,908,1048)"/><rect x="922" y="1034" width="28" height="28" transform="rotate(0,936,1048)"/><rect x="950" y="1034" width="28" height="28" transform="rotate(0,964,1048)"/><rect x="978" y="1034" width="28" height="28" transform="rotate(0,992,1048)"/><rect x="1006" y="1034" width="28" height="28" transform="rotate(0,1020,1048)"/><path d="M 1034 1034v 28h 28v -14a 14 14, 0, 0, 0, -14 -14" transform="rotate(90,1048,1048)"/><path d="M 1146 1034v 28h 14a 14 14, 0, 0, 0, 0 -28" transform="rotate(90,1160,1048)"/><path d="M 278 1062v 28h 14a 14 14, 0, 0, 0, 0 -28" transform="rotate(180,292,1076)"/><path d="M 306 1062v 28h 14a 14 14, 0, 0, 0, 0 -28" transform="rotate(0,320,1076)"/><path d="M 418 1062v 28h 14a 14 14, 0, 0, 0, 0 -28" transform="rotate(180,432,1076)"/><rect x="446" y="1062" width="28" height="28" transform="rotate(0,460,1076)"/><path d="M 474 1062v 28h 28v -14a 14 14, 0, 0, 0, -14 -14" transform="rotate(0,488,1076)"/><rect x="530" y="1062" width="28" height="28" transform="rotate(0,544,1076)"/><path d="M 642 1062v 28h 14a 14 14, 0, 0, 0, 0 -28" transform="rotate(180,656,1076)"/><rect x="670" y="1062" width="28" height="28" transform="rotate(0,684,1076)"/><rect x="726" y="1062" width="28" height="28" transform="rotate(0,740,1076)"/><rect x="754" y="1062" width="28" height="28" transform="rotate(0,768,1076)"/><rect x="782" y="1062" width="28" height="28" transform="rotate(0,796,1076)"/><rect x="810" y="1062" width="28" height="28" transform="rotate(0,824,1076)"/><rect x="838" y="1062" width="28" height="28" transform="rotate(0,852,1076)"/><path d="M 1006 1062v 28h 14a 14 14, 0, 0, 0, 0 -28" transform="rotate(90,1020,1076)"/><path d="M 1062 1062v 28h 14a 14 14, 0, 0, 0, 0 -28" transform="rotate(180,1076,1076)"/><path d="M 1090 1062v 28h 28v -14a 14 14, 0, 0, 0, -14 -14" transform="rotate(0,1104,1076)"/><circle cx="348" cy="1104" r="14" transform="rotate(0,348,1104)"/><path d="M 390 1090v 28h 14a 14 14, 0, 0, 0, 0 -28" transform="rotate(-90,404,1104)"/><path d="M 446 1090v 28h 28v -14a 14 14, 0, 0, 0, -14 -14" transform="rotate(180,460,1104)"/><rect x="474" y="1090" width="28" height="28" transform="rotate(0,488,1104)"/><path d="M 530 1090v 28h 28v -14a 14 14, 0, 0, 0, -14 -14" transform="rotate(180,544,1104)"/><path d="M 558 1090v 28h 14a 14 14, 0, 0, 0, 0 -28" transform="rotate(0,572,1104)"/><path d="M 614 1090v 28h 14a 14 14, 0, 0, 0, 0 -28" transform="rotate(-90,628,1104)"/><rect x="670" y="1090" width="28" height="28" transform="rotate(0,684,1104)"/><path d="M 726 1090v 28h 28v -14a 14 14, 0, 0, 0, -14 -14" transform="rotate(180,740,1104)"/><rect x="754" y="1090" width="28" height="28" transform="rotate(0,768,1104)"/><path d="M 782 1090v 28h 28v -14a 14 14, 0, 0, 0, -14 -14" transform="rotate(90,796,1104)"/><rect x="838" y="1090" width="28" height="28" transform="rotate(0,852,1104)"/><rect x="866" y="1090" width="28" height="28" transform="rotate(0,880,1104)"/><rect x="894" y="1090" width="28" height="28" transform="rotate(0,908,1104)"/><rect x="922" y="1090" width="28" height="28" transform="rotate(0,936,1104)"/><path d="M 950 1090v 28h 14a 14 14, 0, 0, 0, 0 -28" transform="rotate(0,964,1104)"/><path d="M 1090 1090v 28h 14a 14 14, 0, 0, 0, 0 -28" transform="rotate(90,1104,1104)"/><path d="M 1146 1090v 28h 14a 14 14, 0, 0, 0, 0 -28" transform="rotate(-90,1160,1104)"/><circle cx="264" cy="1132" r="14" transform="rotate(0,264,1132)"/><circle cx="320" cy="1132" r="14" transform="rotate(0,320,1132)"/><path d="M 362 1118v 28h 28v -14a 14 14, 0, 0, 0, -14 -14" transform="rotate(-90,376,1132)"/><path d="M 390 1118v 28h 28v -14a 14 14, 0, 0, 0, -14 -14" transform="rotate(90,404,1132)"/><rect x="474" y="1118" width="28" height="28" transform="rotate(0,488,1132)"/><rect x="614" y="1118" width="28" height="28" transform="rotate(0,628,1132)"/><rect x="642" y="1118" width="28" height="28" transform="rotate(0,656,1132)"/><rect x="670" y="1118" width="28" height="28" transform="rotate(0,684,1132)"/><path d="M 698 1118v 28h 28v -14a 14 14, 0, 0, 0, -14 -14" transform="rotate(0,712,1132)"/><path d="M 810 1118v 28h 28v -14a 14 14, 0, 0, 0, -14 -14" transform="rotate(-90,824,1132)"/><rect x="838" y="1118" width="28" height="28" transform="rotate(0,852,1132)"/><path d="M 894 1118v 28h 28v -14a 14 14, 0, 0, 0, -14 -14" transform="rotate(180,908,1132)"/><rect x="922" y="1118" width="28" height="28" transform="rotate(0,936,1132)"/><path d="M 1006 1118v 28h 14a 14 14, 0, 0, 0, 0 -28" transform="rotate(-90,1020,1132)"/><path d="M 1062 1118v 28h 14a 14 14, 0, 0, 0, 0 -28" transform="rotate(-90,1076,1132)"/><path d="M 1118 1118v 28h 28v -14a 14 14, 0, 0, 0, -14 -14" transform="rotate(-90,1132,1132)"/><path d="M 1146 1118v 28h 28v -14a 14 14, 0, 0, 0, -14 -14" transform="rotate(90,1160,1132)"/><circle cx="292" cy="1160" r="14" transform="rotate(0,292,1160)"/><path d="M 362 1146v 28h 14a 14 14, 0, 0, 0, 0 -28" transform="rotate(90,376,1160)"/><path d="M 474 1146v 28h 28v -14a 14 14, 0, 0, 0, -14 -14" transform="rotate(180,488,1160)"/><rect x="502" y="1146" width="28" height="28" transform="rotate(0,516,1160)"/><rect x="530" y="1146" width="28" height="28" transform="rotate(0,544,1160)"/><rect x="558" y="1146" width="28" height="28" transform="rotate(0,572,1160)"/><rect x="586" y="1146" width="28" height="28" transform="rotate(0,600,1160)"/><path d="M 614 1146v 28h 28v -14a 14 14, 0, 0, 0, -14 -14" transform="rotate(90,628,1160)"/><path d="M 698 1146v 28h 14a 14 14, 0, 0, 0, 0 -28" transform="rotate(90,712,1160)"/><path d="M 810 1146v 28h 28v -14a 14 14, 0, 0, 0, -14 -14" transform="rotate(180,824,1160)"/><path d="M 838 1146v 28h 28v -14a 14 14, 0, 0, 0, -14 -14" transform="rotate(90,852,1160)"/><path d="M 922 1146v 28h 14a 14 14, 0, 0, 0, 0 -28" transform="rotate(90,936,1160)"/><path d="M 978 1146v 28h 14a 14 14, 0, 0, 0, 0 -28" transform="rotate(180,992,1160)"/><rect x="1006" y="1146" width="28" height="28" transform="rotate(0,1020,1160)"/><rect x="1034" y="1146" width="28" height="28" transform="rotate(0,1048,1160)"/><path d="M 1062 1146v 28h 28v -14a 14 14, 0, 0, 0, -14 -14" transform="rotate(90,1076,1160)"/><path d="M 1118 1146v 28h 14a 14 14, 0, 0, 0, 0 -28" transform="rotate(90,1132,1160)"/></clipPath><clipPath id="clip-path-corners-square-color-0-0-693"><path clip-rule="evenodd" d="M 26 96v 56a 70 70, 0, 0, 0, 70 70h 56a 70 70, 0, 0, 0, 70 -70v -56a 70 70, 0, 0, 0, -70 -70h -56a 70 70, 0, 0, 0, -70 70M 96 54h 56a 42 42, 0, 0, 1, 42 42v 56a 42 42, 0, 0, 1, -42 42h -56a 42 42, 0, 0, 1, -42 -42v -56a 42 42, 0, 0, 1, 42 -42" transform="rotate(0,124,124)"/></clipPath><clipPath id="clip-path-corners-dot-color-0-0-693"><circle cx="124" cy="124" r="42" transform="rotate(0,124,124)"/></clipPath><clipPath id="clip-path-corners-square-color-1-0-693"><path clip-rule="evenodd" d="M 978 96v 56a 70 70, 0, 0, 0, 70 70h 56a 70 70, 0, 0, 0, 70 -70v -56a 70 70, 0, 0, 0, -70 -70h -56a 70 70, 0, 0, 0, -70 70M 1048 54h 56a 42 42, 0, 0, 1, 42 42v 56a 42 42, 0, 0, 1, -42 42h -56a 42 42, 0, 0, 1, -42 -42v -56a 42 42, 0, 0, 1, 42 -42" transform="rotate(90,1076,124)"/></clipPath><clipPath id="clip-path-corners-dot-color-1-0-693"><circle cx="1076" cy="124" r="42" transform="rotate(90,1076,124)"/></clipPath><clipPath id="clip-path-corners-square-color-0-1-693"><path clip-rule="evenodd" d="M 26 1048v 56a 70 70, 0, 0, 0, 70 70h 56a 70 70, 0, 0, 0, 70 -70v -56a 70 70, 0, 0, 0, -70 -70h -56a 70 70, 0, 0, 0, -70 70M 96 1006h 56a 42 42, 0, 0, 1, 42 42v 56a 42 42, 0, 0, 1, -42 42h -56a 42 42, 0, 0, 1, -42 -42v -56a 42 42, 0, 0, 1, 42 -42" transform="rotate(-90,124,1076)"/></clipPath><clipPath id="clip-path-corners-dot-color-0-1-693"><circle cx="124" cy="1076" r="42" transform="rotate(-90,124,1076)"/></clipPath></defs><rect x="0" y="0" height="1200" width="1200" clip-path="url('#clip-path-background-color-693')" fill="#ffffff"/><rect x="0" y="0" height="1200" width="1200" clip-path="url('#clip-path-dot-color-693')" fill="#000000"/><rect x="26" y="26" height="196" width="196" clip-path="url('#clip-path-corners-square-color-0-0-693')" fill="#000000"/><rect x="82" y="82" height="84" width="84" clip-path="url('#clip-path-corners-dot-color-0-0-693')" fill="#000000"/><rect x="978" y="26" height="196" width="196" clip-path="url('#clip-path-corners-square-color-1-0-693')" fill="#000000"/><rect x="1034" y="82" height="84" width="84" clip-path="url('#clip-path-corners-dot-color-1-0-693')" fill="#000000"/><rect x="26" y="978" height="196" width="196" clip-path="url('#clip-path-corners-square-color-0-1-693')" fill="#000000"/><rect x="82" y="1034" height="84" width="84" clip-path="url('#clip-path-corners-dot-color-0-1-693')" fill="#000000"/></svg>