<?xml version="1.0" standalone="no"?>
<svg xmlns="http://www.w3.org/2000/svg" width="1200" height="1200" xmlns:xlink="http://www.w3.org/1999/xlink" viewBox="0 0 1200 1200"><defs><clipPath id="clip-path-background-color-683"><rect x="0" y="0" width="1200" height="1200"/></clipPath><clipPath id="clip-path-dot-color-683"><circle cx="264" cy="40" r="14" transform="rotate(0,264,40)"/><path d="M 362 26v 28h 28v -14a 14 14, 0, 0, 0, -14 -14" transform="rotate(-90,376,40)"/><rect x="390" y="26" width="28" height="28" transform="rotate(0,404,40)"/><rect x="418" y="26" width="28" height="28" transform="rotate(0,432,40)"/><path d="M 446 26v 28h 14a 14 14, 0, 0, 0, 0 -28" transform="rotate(0,460,40)"/><path d="M 502 26v 28h 28v -14a 14 14, 0, 0, 0, -14 -14" transform="rotate(-90,516,40)"/><rect x="530" y="26" width="28" height="28" transform="rotate(0,544,40)"/><path d="M 558 26v 28h 14a 14 14, 0, 0, 0, 0 -28" transform="rotate(0,572,40)"/><path d="M 614 26v 28h 28v -14a 14 14, 0, 0, 0, -14 -14" transform="rotate(-90,628,40)"/><rect x="642" y="26" width="28" height="28" transform="rotate(0,656,40)"/><rect x="670" y="26" width="28" height="28" transform="rotate(0,684,40)"/><path d="M 698 26v 28h 28v -14a 14 14, 0, 0, 0, -14 -14" transform="rotate(0,712,40)"/><path d="M 754 26v 28h 14a 14 14, 0, 0, 0, 0 -28" transform="rotate(180,768,40)"/><path d="M 782 26v 28h 28v -14a 14 14, 0, 0, 0, -14 -14" transform="rotate(0,796,40)"/><path d="M 838 26v 28h 14a 14 14, 0, 0, 0, 0 -28" transform="rotate(-90,852,40)"/><circle cx="908" cy="40" r="14" transform="rotate(0,908,40)"/><path d="M 278 54v 28h 14a 14 14, 0, 0, 0, 0 -28" transform="rotate(-90,292,68)"/><path d="M 334 54v 28h 14a 14 14, 0, 0, 0, 0 -28" transform="rotate(180,348,68)"/><rect x="362" y="54" width="28" height="28" transform="rotate(0,376,68)"/><rect x="390" y="54" width="28" height="28" transform="rotate(0,404,68)"/><rect x="418" y="54" width="28" height="28" transform="rotate(0,432,68)"/><path d="M 502 54v 28h 28v -14a 14 14, 0, 0, 0, -14 -14" transform="rotate(180,516,68)"/><path d="M 530 54v 28h 28v -14a 14 14, 0, 0, 0, -14 -14" transform="rotate(90,544,68)"/><path d="M 614 54v 28h 14a 14 14, 0, 0, 0, 0 -28" transform="rotate(90,628,68)"/><rect x="670" y="54" width="28" height="28" transform="rotate(0,684,68)"/><rect x="698" y="54" width="28" height="28" transform="rotate(0,712,68)"/><path d="M 782 54v 28h 14a 14 14, 0, 0, 0, 0 -28" transform="rotate(90,796,68)"/><rect x="838" y="54" width="28" height="28" transform="rotate(0,852,68)"/><path d="M 866 54v 28h 28v -14a 14 14, 0, 0, 0, -14 -14" transform="rotate(0,880,68)"/><path d="M 922 54v 28h 14a 14 14, 0, 0, 0, 0 -28" transform="rotate(-90,936,68)"/><path d="M 250 82v 28h 28v -14a 14 14, 0, 0, 0, -14 -14" transform="rotate(-90,264,96)"/><rect x="278" y="82" width="28" height="28" transform="rotate(0,292,96)"/><path d="M 418 82v 28h 14a 14 14, 0, 0, 0, 0 -28" transform="rotate(90,432,96)"/><path d="M 558 82v 28h 14a 14 14, 0, 0, 0, 0 -28" transform="rotate(-90,572,96)"/><path d="M 642 82v 28h 28v -14a 14 14, 0, 0, 0, -14 -14" transform="rotate(-90,656,96)"/><rect x="670" y="82" width="28" height="28" transform="rotate(0,684,96)"/><rect x="698" y="82" width="28" height="28" transform="rotate(0,712,96)"/><circle cx="768" cy="96" r="14" transform="rotate(0,768,96)"/><path d="M 810 82v 28h 14a 14 14, 0, 0, 0, 0 -28" transform="rotate(180,824,96)"/><rect x="838" y="82" width="28" height="28" transform="rotate(0,852,96)"/><rect x="866" y="82" width="28" height="28" transform="rotate(0,880,96)"/><rect x="922" y="82" width="28" height="28" transform="rotate(0,936,96)"/><path d="M 250 110v 28h 28v -14a 14 14, 0, 0, 0, -14 -14" transform="rotate(180,264,124)"/><rect x="278" y="110" width="28" height="28" transform="rotate(0,292,124)"/><rect x="306" y="110" width="28" height="28" transform="rotate(0,320,124)"/><path d="M 334 110v 28h 14a 14 14, 0, 0, 0, 0 -28" transform="rotate(0,348,124)"/><path d="M 446 110v 28h 14a 14 14, 0, 0, 0, 0 -28" transform="rotate(180,460,124)"/><path d="M 474 110v 28h 28v -14a 14 14, 0, 0, 0, -14 -14" transform="rotate(0,488,124)"/><path d="M 530 110v 28h 28v -14a 14 14, 0, 0, 0, -14 -14" transform="rotate(-90,544,124)"/><rect x="558" y="110" width="28" height="28" transform="rotate(0,572,124)"/><path d="M 586 110v 28h 14a 14 14, 0, 0, 0, 0 -28" transform="rotate(0,600,124)"/><path d="M 642 110v 28h 28v -14a 14 14, 0, 0, 0, -14 -14" transform="rotate(180,656,124)"/><rect x="670" y="110" width="28" height="28" transform="rotate(0,684,124)"/><rect x="698" y="110" width="28" height="28" transform="rotate(0,712,124)"/><path d="M 726 110v 28h 28v -14a 14 14, 0, 0, 0, -14 -14" transform="rotate(0,740,124)"/><rect x="866" y="110" width="28" height="28" transform="rotate(0,880,124)"/><path d="M 922 110v 28h 14a 14 14, 0, 0, 0, 0 -28" transform="rotate(90,936,124)"/><path d="M 418 138v 28h 14a 14 14, 0, 0, 0, 0 -28" transform="rotate(-90,432,152)"/><path d="M 474 138v 28h 14a 14 14, 0, 0, 0, 0 -28" transform="rotate(90,488,152)"/><rect x="530" y="138" width="28" height="28" transform="rotate(0,544,152)"/><rect x="558" y="138" width="28" height="28" transform="rotate(0,572,152)"/><path d="M 726 138v 28h 14a 14 14, 0, 0, 0, 0 -28" transform="rotate(90,740,152)"/><path d="M 782 138v 28h 28v -14a 14 14, 0, 0, 0, -14 -14" transform="rotate(-90,796,152)"/><path d="M 810 138v 28h 14a 14 14, 0, 0, 0, 0 -28" transform="rotate(0,824,152)"/><path d="M 866 138v 28h 14a 14 14, 0, 0, 0, 0 -28" transform="rotate(90,880,152)"/><path d="M 250 166v 28h 28v -14a 14 14, 0, 0, 0, -14 -14" transform="rotate(-90,264,180)"/><path d="M 278 166v 28h 14a 14 14, 0, 0, 0, 0 -28" transform="rotate(0,292,180)"/><circle cx="348" cy="180" r="14" transform="rotate(0,348,180)"/><rect x="418" y="166" width="28" height="28" transform="rotate(0,432,180)"/><path d="M 446 166v 28h 14a 14 14, 0, 0, 0, 0 -28" transform="rotate(0,460,180)"/><path d="M 502 166v 28h 14a 14 14, 0, 0, 0, 0 -28" transform="rotate(180,516,180)"/><rect x="530" y="166" width="28" height="28" transform="rotate(0,544,180)"/><rect x="558" y="166" width="28" height="28" transform="rotate(0,572,180)"/><rect x="586" y="166" width="28" height="28" transform="rotate(0,600,180)"/><rect x="614" y="166" width="28" height="28" transform="rotate(0,628,180)"/><path d="M 642 166v 28h 28v -14a 14 14, 0, 0, 0, -14 -14" transform="rotate(0,656,180)"/><path d="M 754 166v 28h 28v -14a 14 14, 0, 0, 0, -14 -14" transform="rotate(-90,768,180)"/><path d="M 782 166v 28h 28v -14a 14 14, 0, 0, 0, -14 -14" transform="rotate(90,796,180)"/><circle cx="852" cy="180" r="14" transform="rotate(0,852,180)"/><circle cx="908" cy="180" r="14" transform="rotate(0,908,180)"/><rect x="250" y="194" width="28" height="28" transform="rotate(0,264,208)"/><circle cx="320" cy="208" r="14" transform="rotate(0,320,208)"/><circle cx="376" cy="208" r="14" transform="rotate(0,376,208)"/><path d="M 418 194v 28h 14a 14 14, 0, 0, 0, 0 -28" transform="rotate(90,432,208)"/><circle cx="488" cy="208" r="14" transform="rotate(0,488,208)"/><rect x="530" y="194" width="28" height="28" transform="rotate(0,544,208)"/><path d="M 586 194v 28h 14a 14 14, 0, 0, 0, 0 -28" transform="rotate(90,600,208)"/><rect x="642" y="194" width="28" height="28" transform="rotate(0,656,208)"/><path d="M 698 194v 28h 14a 14 14, 0, 0, 0, 0 -28" transform="rotate(-90,712,208)"/><path d="M 754 194v 28h 14a 14 14, 0, 0, 0, 0 -28" transform="rotate(90,768,208)"/><path d="M 810 194v 28h 14a 14 14, 0, 0, 0, 0 -28" transform="rotate(-90,824,208)"/><path d="M 866 194v 28h 14a 14 14, 0, 0, 0, 0 -28" transform="rotate(-90,880,208)"/><path d="M 922 194v 28h 14a 14 14, 0, 0, 0, 0 -28" transform="rotate(-90,936,208)"/><rect x="250" y="222" width="28" height="28" transform="rotate(0,264,236)"/><path d="M 334 222v 28h 14a 14 14, 0, 0, 0, 0 -28" transform="rotate(-90,348,236)"/><path d="M 446 222v 28h 14a 14 14, 0, 0, 0, 0 -28" transform="rotate(-90,460,236)"/><path d="M 530 222v 28h 14a 14 14, 0, 0, 0, 0 -28" transform="rotate(90,544,236)"/><rect x="642" y="222" width="28" height="28" transform="rotate(0,656,236)"/><rect x="670" y="222" width="28" height="28" transform="rotate(0,684,236)"/><path d="M 698 222v 28h 28v -14a 14 14, 0, 0, 0, -14 -14" transform="rotate(90,712,236)"/><path d="M 810 222v 28h 28v -14a 14 14, 0, 0, 0, -14 -14" transform="rotate(180,824,236)"/><rect x="838" y="222" width="28" height="28" transform="rotate(0,852,236)"/><path d="M 866 222v 28h 28v -14a 14 14, 0, 0, 0, -14 -14" transform="rotate(90,880,236)"/><path d="M 922 222v 28h 14a 14 14, 0, 0, 0, 0 -28" transform="rotate(90,936,236)"/><circle cx="68" cy="264" r="14" transform="rotate(0,68,264)"/><path d="M 110 250v 28h 14a 14 14, 0, 0, 0, 0 -28" transform="rotate(-90,124,264)"/><path d="M 166 250v 28h 14a 14 14, 0, 0, 0, 0 -28" transform="rotate(180,180,264)"/><rect x="194" y="250" width="28" height="28" transform="rotate(0,208,264)"/><rect x="222" y="250" width="28" height="28" transform="rotate(0,236,264)"/><path d="M 250 250v 28h 28v -14a 14 14, 0, 0, 0, -14 -14" transform="rotate(90,264,264)"/><path d="M 334 250v 28h 28v -14a 14 14, 0, 0, 0, -14 -14" transform="rotate(180,348,264)"/><rect x="362" y="250" width="28" height="28" transform="rotate(0,376,264)"/><rect x="390" y="250" width="28" height="28" transform="rotate(0,404,264)"/><rect x="418" y="250" width="28" height="28" transform="rotate(0,432,264)"/><rect x="446" y="250" width="28" height="28" transform="rotate(0,460,264)"/><circle cx="516" cy="264" r="14" transform="rotate(0,516,264)"/><rect x="642" y="250" width="28" height="28" transform="rotate(0,656,264)"/><path d="M 670 250v 28h 28v -14a 14 14, 0, 0, 0, -14 -14" transform="rotate(90,684,264)"/><path d="M 726 250v 28h 28v -14a 14 14, 0, 0, 0, -14 -14" transform="rotate(-90,740,264)"/><path d="M 754 250v 28h 14a 14 14, 0, 0, 0, 0 -28" transform="rotate(0,768,264)"/><path d="M 950 250v 28h 28v -14a 14 14, 0, 0, 0, -14 -14" transform="rotate(-90,964,264)"/><rect x="978" y="250" width="28" height="28" transform="rotate(0,992,264)"/><path d="M 1006 250v 28h 28v -14a 14 14, 0, 0, 0, -14 -14" transform="rotate(0,1020,264)"/><path d="M 1062 250v 28h 28v -14a 14 14, 0, 0, 0, -14 -14" transform="rotate(-90,1076,264)"/><path d="M 1090 250v 28h 28v -14a 14 14, 0, 0, 0, -14 -14" transform="rotate(0,1104,264)"/><path d="M 1146 250v 28h 14a 14 14, 0, 0, 0, 0 -28" transform="rotate(-90,1160,264)"/><path d="M 26 278v 28h 14a 14 14, 0, 0, 0, 0 -28" transform="rotate(-90,40,292)"/><path d="M 82 278v 28h 28v -14a 14 14, 0, 0, 0, -14 -14" transform="rotate(-90,96,292)"/><path d="M 110 278v 28h 28v -14a 14 14, 0, 0, 0, -14 -14" transform="rotate(90,124,292)"/><path d="M 362 278v 28h 28v -14a 14 14, 0, 0, 0, -14 -14" transform="rotate(180,376,292)"/><rect x="390" y="278" width="28" height="28" transform="rotate(0,404,292)"/><rect x="446" y="278" width="28" height="28" transform="rotate(0,460,292)"/><path d="M 530 278v 28h 14a 14 14, 0, 0, 0, 0 -28" transform="rotate(-90,544,292)"/><circle cx="600" cy="292" r="14" transform="rotate(0,600,292)"/><path d="M 642 278v 28h 14a 14 14, 0, 0, 0, 0 -28" transform="rotate(90,656,292)"/><path d="M 698 278v 28h 28v -14a 14 14, 0, 0, 0, -14 -14" transform="rotate(-90,712,292)"/><rect x="726" y="278" width="28" height="28" transform="rotate(0,740,292)"/><path d="M 810 278v 28h 28v -14a 14 14, 0, 0, 0, -14 -14" transform="rotate(-90,824,292)"/><rect x="838" y="278" width="28" height="28" transform="rotate(0,852,292)"/><path d="M 866 278v 28h 28v -14a 14 14, 0, 0, 0, -14 -14" transform="rotate(0,880,292)"/><path d="M 922 278v 28h 14a 14 14, 0, 0, 0, 0 -28" transform="rotate(180,936,292)"/><rect x="950" y="278" width="28" height="28" transform="rotate(0,964,292)"/><rect x="978" y="278" width="28" height="28" transform="rotate(0,992,292)"/><path d="M 1006 278v 28h 28v -14a 14 14, 0, 0, 0, -14 -14" transform="rotate(90,1020,292)"/><rect x="1062" y="278" width="28" height="28" transform="rotate(0,1076,292)"/><rect x="1090" y="278" width="28" height="28" transform="rotate(0,1104,292)"/><path d="M 1146 278v 28h 14a 14 14, 0, 0, 0, 0 -28" transform="rotate(90,1160,292)"/><rect x="26" y="306" width="28" height="28" transform="rotate(0,40,320)"/><rect x="82" y="306" width="28" height="28" transform="rotate(0,96,320)"/><path d="M 166 306v 28h 28v -14a 14 14, 0, 0, 0, -14 -14" transform="rotate(-90,180,320)"/><path d="M 194 306v 28h 14a 14 14, 0, 0, 0, 0 -28" transform="rotate(0,208,320)"/><path d="M 278 306v 28h 14a 14 14, 0, 0, 0, 0 -28" transform="rotate(-90,292,320)"/><rect x="390" y="306" width="28" height="28" transform="rotate(0,404,320)"/><path d="M 446 306v 28h 28v -14a 14 14, 0, 0, 0, -14 -14" transform="rotate(180,460,320)"/><path d="M 474 306v 28h 14a 14 14, 0, 0, 0, 0 -28" transform="rotate(0,488,320)"/><path d="M 530 306v 28h 14a 14 14, 0, 0, 0, 0 -28" transform="rotate(90,544,320)"/><circle cx="628" cy="320" r="14" transform="rotate(0,628,320)"/><rect x="698" y="306" width="28" height="28" transform="rotate(0,712,320)"/><rect x="726" y="306" width="28" height="28" transform="rotate(0,740,320)"/><rect x="810" y="306" width="28" height="28" transform="rotate(0,824,320)"/><rect x="838" y="306" width="28" height="28" transform="rotate(0,852,320)"/><rect x="866" y="306" width="28" height="28" transform="rotate(0,880,320)"/><path d="M 894 306v 28h 14a 14 14, 0, 0, 0, 0 -28" transform="rotate(0,908,320)"/><path d="M 950 306v 28h 28v -14a 14 14, 0, 0, 0, -14 -14" transform="rotate(180,964,320)"/><path d="M 978 306v 28h 28v -14a 14 14, 0, 0, 0, -14 -14" transform="rotate(90,992,320)"/><path d="M 1034 306v 28h 14a 14 14, 0, 0, 0, 0 -28" transform="rotate(180,1048,320)"/><rect x="1062" y="306" width="28" height="28" transform="rotate(0,1076,320)"/><rect x="1090" y="306" width="28" height="28" transform="rotate(0,1104,320)"/><path d="M 1118 306v 28h 14a 14 14, 0, 0, 0, 0 -28" transform="rotate(0,1132,320)"/><rect x="26" y="334" width="28" height="28" transform="rotate(0,40,348)"/><rect x="54" y="334" width="28" height="28" transform="rotate(0,68,348)"/><rect x="82" y="334" width="28" height="28" transform="rotate(0,96,348)"/><path d="M 138 334v 28h 14a 14 14, 0, 0, 0, 0 -28" transform="rotate(180,152,348)"/><path d="M 166 334v 28h 28v -14a 14 14, 0, 0, 0, -14 -14" transform="rotate(90,180,348)"/><path d="M 222 334v 28h 14a 14 14, 0, 0, 0, 0 -28" transform="rotate(180,236,348)"/><rect x="250" y="334" width="28" height="28" transform="rotate(0,264,348)"/><rect x="278" y="334" width="28" height="28" transform="rotate(0,292,348)"/><path d="M 362 334v 28h 14a 14 14, 0, 0, 0, 0 -28" transform="rotate(180,376,348)"/><rect x="390" y="334" width="28" height="28" transform="rotate(0,404,348)"/><path d="M 418 334v 28h 28v -14a 14 14, 0, 0, 0, -14 -14" transform="rotate(0,432,348)"/><path d="M 558 334v 28h 14a 14 14, 0, 0, 0, 0 -28" transform="rotate(180,572,348)"/><path d="M 586 334v 28h 14a 14 14, 0, 0, 0, 0 -28" transform="rotate(0,600,348)"/><path d="M 642 334v 28h 14a 14 14, 0, 0, 0, 0 -28" transform="rotate(-90,656,348)"/><path d="M 698 334v 28h 28v -14a 14 14, 0, 0, 0, -14 -14" transform="rotate(180,712,348)"/><rect x="726" y="334" width="28" height="28" transform="rotate(0,740,348)"/><rect x="754" y="334" width="28" height="28" transform="rotate(0,768,348)"/><rect x="782" y="334" width="28" height="28" transform="rotate(0,796,348)"/><rect x="810" y="334" width="28" height="28" transform="rotate(0,824,348)"/><circle cx="1020" cy="348" r="14" transform="rotate(0,1020,348)"/><path d="M 1090 334v 28h 14a 14 14, 0, 0, 0, 0 -28" transform="rotate(90,1104,348)"/><path d="M 1146 334v 28h 14a 14 14, 0, 0, 0, 0 -28" transform="rotate(-90,1160,348)"/><path d="M 26 362v 28h 14a 14 14, 0, 0, 0, 0 -28" transform="rotate(90,40,376)"/><rect x="82" y="362" width="28" height="28" transform="rotate(0,96,376)"/><path d="M 110 362v 28h 14a 14 14, 0, 0, 0, 0 -28" transform="rotate(0,124,376)"/><circle cx="208" cy="376" r="14" transform="rotate(0,208,376)"/><rect x="250" y="362" width="28" height="28" transform="rotate(0,264,376)"/><rect x="278" y="362" width="28" height="28" transform="rotate(0,292,376)"/><path d="M 390 362v 28h 28v -14a 14 14, 0, 0, 0, -14 -14" transform="rotate(180,404,376)"/><path d="M 418 362v 28h 28v -14a 14 14, 0, 0, 0, -14 -14" transform="rotate(90,432,376)"/><circle cx="488" cy="376" r="14" transform="rotate(0,488,376)"/><path d="M 530 362v 28h 14a 14 14, 0, 0, 0, 0 -28" transform="rotate(-90,544,376)"/><rect x="642" y="362" width="28" height="28" transform="rotate(0,656,376)"/><rect x="726" y="362" width="28" height="28" transform="rotate(0,740,376)"/><path d="M 754 362v 28h 28v -14a 14 14, 0, 0, 0, -14 -14" transform="rotate(90,768,376)"/><path d="M 810 362v 28h 28v -14a 14 14, 0, 0, 0, -14 -14" transform="rotate(180,824,376)"/><path d="M 838 362v 28h 28v -14a 14 14, 0, 0, 0, -14 -14" transform="rotate(0,852,376)"/><path d="M 894 362v 28h 28v -14a 14 14, 0, 0, 0, -14 -14" transform="rotate(-90,908,376)"/><rect x="922" y="362" width="28" height="28" transform="rotate(0,936,376)"/><rect x="950" y="362" width="28" height="28" transform="rotate(0,964,376)"/><path d="M 978 362v 28h 14a 14 14, 0, 0, 0, 0 -28" transform="rotate(0,992,376)"/><circle cx="1076" cy="376" r="14" transform="rotate(0,1076,376)"/><path d="M 1118 362v 28h 28v -14a 14 14, 0, 0, 0, -14 -14" transform="rotate(-90,1132,376)"/><path d="M 1146 362v 28h 28v -14a 14 14, 0, 0, 0, -14 -14" transform="rotate(90,1160,376)"/><path d="M 82 390v 28h 14a 14 14, 0, 0, 0, 0 -28" transform="rotate(90,96,404)"/><circle cx="152" cy="404" r="14" transform="rotate(0,152,404)"/><path d="M 222 390v 28h 14a 14 14, 0, 0, 0, 0 -28" transform="rotate(180,236,404)"/><rect x="250" y="390" width="28" height="28" transform="rotate(0,264,404)"/><rect x="278" y="390" width="28" height="28" transform="rotate(0,292,404)"/><path d="M 306 390v 28h 14a 14 14, 0, 0, 0, 0 -28" transform="rotate(0,320,404)"/><circle cx="376" cy="404" r="14" transform="rotate(0,376,404)"/><path d="M 530 390v 28h 14a 14 14, 0, 0, 0, 0 -28" transform="rotate(90,544,404)"/><path d="M 586 390v 28h 14a 14 14, 0, 0, 0, 0 -28" transform="rotate(-90,600,404)"/><path d="M 642 390v 28h 28v -14a 14 14, 0, 0, 0, -14 -14" transform="rotate(180,656,404)"/><path d="M 670 390v 28h 28v -14a 14 14, 0, 0, 0, -14 -14" transform="rotate(0,684,404)"/><rect x="726" y="390" width="28" height="28" transform="rotate(0,740,404)"/><path d="M 782 390v 28h 14a 14 14, 0, 0, 0, 0 -28" transform="rotate(-90,796,404)"/><rect x="838" y="390" width="28" height="28" transform="rotate(0,852,404)"/><rect x="866" y="390" width="28" height="28" transform="rotate(0,880,404)"/><rect x="894" y="390" width="28" height="28" transform="rotate(0,908,404)"/><rect x="922" y="390" width="28" height="28" transform="rotate(0,936,404)"/><rect x="1118" y="390" width="28" height="28" transform="rotate(0,1132,404)"/><path d="M 26 418v 28h 14a 14 14, 0, 0, 0, 0 -28" transform="rotate(180,40,432)"/><path d="M 54 418v 28h 14a 14 14, 0, 0, 0, 0 -28" transform="rotate(0,68,432)"/><path d="M 166 418v 28h 28v -14a 14 14, 0, 0, 0, -14 -14" transform="rotate(-90,180,432)"/><path d="M 194 418v 28h 14a 14 14, 0, 0, 0, 0 -28" transform="rotate(0,208,432)"/><path d="M 250 418v 28h 14a 14 14, 0, 0, 0, 0 -28" transform="rotate(90,264,432)"/><circle cx="348" cy="432" r="14" transform="rotate(0,348,432)"/><circle cx="404" cy="432" r="14" transform="rotate(0,404,432)"/><path d="M 446 418v 28h 14a 14 14, 0, 0, 0, 0 -28" transform="rotate(180,460,432)"/><path d="M 474 418v 28h 28v -14a 14 14, 0, 0, 0, -14 -14" transform="rotate(0,488,432)"/><rect x="586" y="418" width="28" height="28" transform="rotate(0,600,432)"/><path d="M 614 418v 28h 28v -14a 14 14, 0, 0, 0, -14 -14" transform="rotate(0,628,432)"/><rect x="670" y="418" width="28" height="28" transform="rotate(0,684,432)"/><rect x="726" y="418" width="28" height="28" transform="rotate(0,740,432)"/><rect x="754" y="418" width="28" height="28" transform="rotate(0,768,432)"/><rect x="782" y="418" width="28" height="28" transform="rotate(0,796,432)"/><rect x="810" y="418" width="28" height="28" transform="rotate(0,824,432)"/><rect x="838" y="418" width="28" height="28" transform="rotate(0,852,432)"/><path d="M 922 418v 28h 14a 14 14, 0, 0, 0, 0 -28" transform="rotate(90,936,432)"/><path d="M 978 418v 28h 14a 14 14, 0, 0, 0, 0 -28" transform="rotate(-90,992,432)"/><path d="M 1062 418v 28h 14a 14 14, 0, 0, 0, 0 -28" transform="rotate(180,1076,432)"/><rect x="1090" y="418" width="28" height="28" transform="rotate(0,1104,432)"/><rect x="1118" y="418" width="28" height="28" transform="rotate(0,1132,432)"/><path d="M 1146 418v 28h 14a 14 14, 0, 0, 0, 0 -28" transform="rotate(0,1160,432)"/><path d="M 82 446v 28h 14a 14 14, 0, 0, 0, 0 -28" transform="rotate(-90,96,460)"/><path d="M 138 446v 28h 28v -14a 14 14, 0, 0, 0, -14 -14" transform="rotate(-90,152,460)"/><path d="M 166 446v 28h 28v -14a 14 14, 0, 0, 0, -14 -14" transform="rotate(90,180,460)"/><path d="M 278 446v 28h 28v -14a 14 14, 0, 0, 0, -14 -14" transform="rotate(-90,292,460)"/><path d="M 306 446v 28h 28v -14a 14 14, 0, 0, 0, -14 -14" transform="rotate(0,320,460)"/><path d="M 362 446v 28h 14a 14 14, 0, 0, 0, 0 -28" transform="rotate(-90,376,460)"/><path d="M 418 446v 28h 14a 14 14, 0, 0, 0, 0 -28" transform="rotate(-90,432,460)"/><path d="M 474 446v 28h 14a 14 14, 0, 0, 0, 0 -28" transform="rotate(90,488,460)"/><rect x="586" y="446" width="28" height="28" transform="rotate(0,600,460)"/><path d="M 614 446v 28h 28v -14a 14 14, 0, 0, 0, -14 -14" transform="rotate(90,628,460)"/><path d="M 670 446v 28h 14a 14 14, 0, 0, 0, 0 -28" transform="rotate(90,684,460)"/><path d="M 726 446v 28h 14a 14 14, 0, 0, 0, 0 -28" transform="rotate(90,740,460)"/><path d="M 810 446v 28h 28v -14a 14 14, 0, 0, 0, -14 -14" transform="rotate(180,824,460)"/><rect x="838" y="446" width="28" height="28" transform="rotate(0,852,460)"/><rect x="866" y="446" width="28" height="28" transform="rotate(0,880,460)"/><path d="M 894 446v 28h 28v -14a 14 14, 0, 0, 0, -14 -14" transform="rotate(0,908,460)"/><path d="M 978 446v 28h 14a 14 14, 0, 0, 0, 0 -28" transform="rotate(90,992,460)"/><circle cx="1048" cy="460" r="14" transform="rotate(0,1048,460)"/><path d="M 82 474v 28h 28v -14a 14 14, 0, 0, 0, -14 -14" transform="rotate(180,96,488)"/><rect x="110" y="474" width="28" height="28" transform="rotate(0,124,488)"/><rect x="138" y="474" width="28" height="28" transform="rotate(0,152,488)"/><path d="M 194 474v 28h 14a 14 14, 0, 0, 0, 0 -28" transform="rotate(180,208,488)"/><rect x="222" y="474" width="28" height="28" transform="rotate(0,236,488)"/><rect x="250" y="474" width="28" height="28" transform="rotate(0,264,488)"/><rect x="278" y="474" width="28" height="28" transform="rotate(0,292,488)"/><path d="M 306 474v 28h 28v -14a 14 14, 0, 0, 0, -14 -14" transform="rotate(90,320,488)"/><rect x="362" y="474" width="28" height="28" transform="rotate(0,376,488)"/><rect x="390" y="474" width="28" height="28" transform="rotate(0,404,488)"/><rect x="418" y="474" width="28" height="28" transform="rotate(0,432,488)"/><path d="M 446 474v 28h 14a 14 14, 0, 0, 0, 0 -28" transform="rotate(0,460,488)"/><circle cx="544" cy="488" r="14" transform="rotate(0,544,488)"/><path d="M 586 474v 28h 14a 14 14, 0, 0, 0, 0 -28" transform="rotate(90,600,488)"/><path d="M 698 474v 28h 14a 14 14, 0, 0, 0, 0 -28" transform="rotate(-90,712,488)"/><circle cx="796" cy="488" r="14" transform="rotate(0,796,488)"/><rect x="838" y="474" width="28" height="28" transform="rotate(0,852,488)"/><path d="M 894 474v 28h 28v -14a 14 14, 0, 0, 0, -14 -14" transform="rotate(180,908,488)"/><path d="M 922 474v 28h 28v -14a 14 14, 0, 0, 0, -14 -14" transform="rotate(0,936,488)"/><path d="M 1006 474v 28h 14a 14 14, 0, 0, 0, 0 -28" transform="rotate(-90,1020,488)"/><circle cx="1076" cy="488" r="14" transform="rotate(0,1076,488)"/><path d="M 1118 474v 28h 28v -14a 14 14, 0, 0, 0, -14 -14" transform="rotate(-90,1132,488)"/><path d="M 1146 474v 28h 28v -14a 14 14, 0, 0, 0, -14 -14" transform="rotate(0,1160,488)"/><path d="M 26 502v 28h 28v -14a 14 14, 0, 0, 0, -14 -14" transform="rotate(-90,40,516)"/><path d="M 54 502v 28h 28v -14a 14 14, 0, 0, 0, -14 -14" transform="rotate(0,68,516)"/><rect x="110" y="502" width="28" height="28" transform="rotate(0,124,516)"/><rect x="138" y="502" width="28" height="28" transform="rotate(0,152,516)"/><path d="M 222 502v 28h 28v -14a 14 14, 0, 0, 0, -14 -14" transform="rotate(180,236,516)"/><rect x="250" y="502" width="28" height="28" transform="rotate(0,264,516)"/><rect x="278" y="502" width="28" height="28" transform="rotate(0,292,516)"/><path d="M 362 502v 28h 14a 14 14, 0, 0, 0, 0 -28" transform="rotate(90,376,516)"/><rect x="418" y="502" width="28" height="28" transform="rotate(0,432,516)"/><circle cx="488" cy="516" r="14" transform="rotate(0,488,516)"/><path d="M 558 502v 28h 14a 14 14, 0, 0, 0, 0 -28" transform="rotate(-90,572,516)"/><path d="M 642 502v 28h 14a 14 14, 0, 0, 0, 0 -28" transform="rotate(180,656,516)"/><rect x="670" y="502" width="28" height="28" transform="rotate(0,684,516)"/><rect x="698" y="502" width="28" height="28" transform="rotate(0,712,516)"/><path d="M 810 502v 28h 28v -14a 14 14, 0, 0, 0, -14 -14" transform="rotate(-90,824,516)"/><rect x="838" y="502" width="28" height="28" transform="rotate(0,852,516)"/><path d="M 866 502v 28h 14a 14 14, 0, 0, 0, 0 -28" transform="rotate(0,880,516)"/><rect x="922" y="502" width="28" height="28" transform="rotate(0,936,516)"/><path d="M 978 502v 28h 14a 14 14, 0, 0, 0, 0 -28" transform="rotate(180,992,516)"/><path d="M 1006 502v 28h 28v -14a 14 14, 0, 0, 0, -14 -14" transform="rotate(90,1020,516)"/><rect x="1118" y="502" width="28" height="28" transform="rotate(0,1132,516)"/><rect x="1146" y="502" width="28" height="28" transform="rotate(0,1160,516)"/><path d="M 26 530v 28h 28v -14a 14 14, 0, 0, 0, -14 -14" transform="rotate(180,40,544)"/><rect x="54" y="530" width="28" height="28" transform="rotate(0,68,544)"/><rect x="82" y="530" width="28" height="28" transform="rotate(0,96,544)"/><rect x="110" y="530" width="28" height="28" transform="rotate(0,124,544)"/><rect x="138" y="530" width="28" height="28" transform="rotate(0,152,544)"/><circle cx="208" cy="544" r="14" transform="rotate(0,208,544)"/><path d="M 278 530v 28h 14a 14 14, 0, 0, 0, 0 -28" transform="rotate(90,292,544)"/><path d="M 418 530v 28h 14a 14 14, 0, 0, 0, 0 -28" transform="rotate(90,432,544)"/><rect x="558" y="530" width="28" height="28" transform="rotate(0,572,544)"/><rect x="586" y="530" width="28" height="28" transform="rotate(0,600,544)"/><path d="M 614 530v 28h 14a 14 14, 0, 0, 0, 0 -28" transform="rotate(0,628,544)"/><rect x="698" y="530" width="28" height="28" transform="rotate(0,712,544)"/><path d="M 726 530v 28h 28v -14a 14 14, 0, 0, 0, -14 -14" transform="rotate(0,740,544)"/><path d="M 810 530v 28h 14a 14 14, 0, 0, 0, 0 -28" transform="rotate(90,824,544)"/><rect x="922" y="530" width="28" height="28" transform="rotate(0,936,544)"/><circle cx="1048" cy="544" r="14" transform="rotate(0,1048,544)"/><path d="M 1090 530v 28h 14a 14 14, 0, 0, 0, 0 -28" transform="rotate(180,1104,544)"/><rect x="1118" y="530" width="28" height="28" transform="rotate(0,1132,544)"/><path d="M 1146 530v 28h 28v -14a 14 14, 0, 0, 0, -14 -14" transform="rotate(90,1160,544)"/><rect x="54" y="558" width="28" height="28" transform="rotate(0,68,572)"/><path d="M 110 558v 28h 28v -14a 14 14, 0, 0, 0, -14 -14" transform="rotate(180,124,572)"/><rect x="138" y="558" width="28" height="28" transform="rotate(0,152,572)"/><circle cx="236" cy="572" r="14" transform="rotate(0,236,572)"/><circle cx="320" cy="572" r="14" transform="rotate(0,320,572)"/><circle cx="460" cy="572" r="14" transform="rotate(0,460,572)"/><path d="M 502 558v 28h 14a 14 14, 0, 0, 0, 0 -28" transform="rotate(-90,516,572)"/><path d="M 558 558v 28h 14a 14 14, 0, 0, 0, 0 -28" transform="rotate(90,572,572)"/><rect x="698" y="558" width="28" height="28" transform="rotate(0,712,572)"/><path d="M 726 558v 28h 28v -14a 14 14, 0, 0, 0, -14 -14" transform="rotate(90,740,572)"/><path d="M 838 558v 28h 14a 14 14, 0, 0, 0, 0 -28" transform="rotate(-90,852,572)"/><path d="M 894 558v 28h 14a 14 14, 0, 0, 0, 0 -28" transform="rotate(180,908,572)"/><path d="M 922 558v 28h 28v -14a 14 14, 0, 0, 0, -14 -14" transform="rotate(90,936,572)"/><path d="M 978 558v 28h 28v -14a 14 14, 0, 0, 0, -14 -14" transform="rotate(-90,992,572)"/><path d="M 1006 558v 28h 28v -14a 14 14, 0, 0, 0, -14 -14" transform="rotate(0,1020,572)"/><circle cx="1076" cy="572" r="14" transform="rotate(0,1076,572)"/><rect x="1118" y="558" width="28" height="28" transform="rotate(0,1132,572)"/><path d="M 54 586v 28h 14a 14 14, 0, 0, 0, 0 -28" transform="rotate(90,68,600)"/><rect x="138" y="586" width="28" height="28" transform="rotate(0,152,600)"/><circle cx="208" cy="600" r="14" transform="rotate(0,208,600)"/><path d="M 250 586v 28h 28v -14a 14 14, 0, 0, 0, -14 -14" transform="rotate(-90,264,600)"/><path d="M 278 586v 28h 28v -14a 14 14, 0, 0, 0, -14 -14" transform="rotate(0,292,600)"/><path d="M 474 586v 28h 28v -14a 14 14, 0, 0, 0, -14 -14" transform="rotate(-90,488,600)"/><rect x="502" y="586" width="28" height="28" transform="rotate(0,516,600)"/><circle cx="600" cy="600" r="14" transform="rotate(0,600,600)"/><path d="M 642 586v 28h 14a 14 14, 0, 0, 0, 0 -28" transform="rotate(180,656,600)"/><rect x="670" y="586" width="28" height="28" transform="rotate(0,684,600)"/><rect x="698" y="586" width="28" height="28" transform="rotate(0,712,600)"/><circle cx="768" cy="600" r="14" transform="rotate(0,768,600)"/><rect x="838" y="586" width="28" height="28" transform="rotate(0,852,600)"/><path d="M 866 586v 28h 14a 14 14, 0, 0, 0, 0 -28" transform="rotate(0,880,600)"/><path d="M 950 586v 28h 28v -14a 14 14, 0, 0, 0, -14 -14" transform="rotate(-90,964,600)"/><rect x="978" y="586" width="28" height="28" transform="rotate(0,992,600)"/><rect x="1006" y="586" width="28" height="28" transform="rotate(0,1020,600)"/><path d="M 1090 586v 28h 14a 14 14, 0, 0, 0, 0 -28" transform="rotate(180,1104,600)"/><rect x="1118" y="586" width="28" height="28" transform="rotate(0,1132,600)"/><circle cx="96" cy="628" r="14" transform="rotate(0,96,628)"/><path d="M 138 614v 28h 14a 14 14, 0, 0, 0, 0 -28" transform="rotate(90,152,628)"/><path d="M 222 614v 28h 28v -14a 14 14, 0, 0, 0, -14 -14" transform="rotate(-90,236,628)"/><rect x="250" y="614" width="28" height="28" transform="rotate(0,264,628)"/><rect x="278" y="614" width="28" height="28" transform="rotate(0,292,628)"/><rect x="306" y="614" width="28" height="28" transform="rotate(0,320,628)"/><rect x="334" y="614" width="28" height="28" transform="rotate(0,348,628)"/><path d="M 362 614v 28h 28v -14a 14 14, 0, 0, 0, -14 -14" transform="rotate(0,376,628)"/><path d="M 418 614v 28h 14a 14 14, 0, 0, 0, 0 -28" transform="rotate(-90,432,628)"/><path d="M 474 614v 28h 28v -14a 14 14, 0, 0, 0, -14 -14" transform="rotate(180,488,628)"/><rect x="502" y="614" width="28" height="28" transform="rotate(0,516,628)"/><path d="M 530 614v 28h 14a 14 14, 0, 0, 0, 0 -28" transform="rotate(0,544,628)"/><path d="M 614 614v 28h 14a 14 14, 0, 0, 0, 0 -28" transform="rotate(-90,628,628)"/><rect x="698" y="614" width="28" height="28" transform="rotate(0,712,628)"/><path d="M 726 614v 28h 28v -14a 14 14, 0, 0, 0, -14 -14" transform="rotate(0,740,628)"/><path d="M 810 614v 28h 28v -14a 14 14, 0, 0, 0, -14 -14" transform="rotate(-90,824,628)"/><path d="M 838 614v 28h 28v -14a 14 14, 0, 0, 0, -14 -14" transform="rotate(90,852,628)"/><path d="M 922 614v 28h 14a 14 14, 0, 0, 0, 0 -28" transform="rotate(180,936,628)"/><rect x="950" y="614" width="28" height="28" transform="rotate(0,964,628)"/><rect x="978" y="614" width="28" height="28" transform="rotate(0,992,628)"/><rect x="1006" y="614" width="28" height="28" transform="rotate(0,1020,628)"/><rect x="1118" y="614" width="28" height="28" transform="rotate(0,1132,628)"/><path d="M 1146 614v 28h 14a 14 14, 0, 0, 0, 0 -28" transform="rotate(0,1160,628)"/><path d="M 26 642v 28h 14a 14 14, 0, 0, 0, 0 -28" transform="rotate(180,40,656)"/><path d="M 54 642v 28h 14a 14 14, 0, 0, 0, 0 -28" transform="rotate(0,68,656)"/><path d="M 194 642v 28h 14a 14 14, 0, 0, 0, 0 -28" transform="rotate(180,208,656)"/><rect x="222" y="642" width="28" height="28" transform="rotate(0,236,656)"/><path d="M 250 642v 28h 28v -14a 14 14, 0, 0, 0, -14 -14" transform="rotate(90,264,656)"/><rect x="362" y="642" width="28" height="28" transform="rotate(0,376,656)"/><rect x="390" y="642" width="28" height="28" transform="rotate(0,404,656)"/><rect x="418" y="642" width="28" height="28" transform="rotate(0,432,656)"/><path d="M 446 642v 28h 14a 14 14, 0, 0, 0, 0 -28" transform="rotate(0,460,656)"/><rect x="502" y="642" width="28" height="28" transform="rotate(0,516,656)"/><path d="M 558 642v 28h 28v -14a 14 14, 0, 0, 0, -14 -14" transform="rotate(-90,572,656)"/><rect x="586" y="642" width="28" height="28" transform="rotate(0,600,656)"/><rect x="614" y="642" width="28" height="28" transform="rotate(0,628,656)"/><path d="M 642 642v 28h 14a 14 14, 0, 0, 0, 0 -28" transform="rotate(0,656,656)"/><path d="M 698 642v 28h 28v -14a 14 14, 0, 0, 0, -14 -14" transform="rotate(180,712,656)"/><rect x="726" y="642" width="28" height="28" transform="rotate(0,740,656)"/><path d="M 810 642v 28h 14a 14 14, 0, 0, 0, 0 -28" transform="rotate(90,824,656)"/><circle cx="908" cy="656" r="14" transform="rotate(0,908,656)"/><path d="M 950 642v 28h 28v -14a 14 14, 0, 0, 0, -14 -14" transform="rotate(180,964,656)"/><rect x="978" y="642" width="28" height="28" transform="rotate(0,992,656)"/><rect x="1006" y="642" width="28" height="28" transform="rotate(0,1020,656)"/><path d="M 1034 642v 28h 14a 14 14, 0, 0, 0, 0 -28" transform="rotate(0,1048,656)"/><path d="M 1090 642v 28h 28v -14a 14 14, 0, 0, 0, -14 -14" transform="rotate(-90,1104,656)"/><rect x="1118" y="642" width="28" height="28" transform="rotate(0,1132,656)"/><path d="M 82 670v 28h 28v -14a 14 14, 0, 0, 0, -14 -14" transform="rotate(-90,96,684)"/><rect x="110" y="670" width="28" height="28" transform="rotate(0,124,684)"/><path d="M 138 670v 28h 28v -14a 14 14, 0, 0, 0, -14 -14" transform="rotate(0,152,684)"/><path d="M 306 670v 28h 14a 14 14, 0, 0, 0, 0 -28" transform="rotate(-90,320,684)"/><path d="M 362 670v 28h 14a 14 14, 0, 0, 0, 0 -28" transform="rotate(90,376,684)"/><path d="M 474 670v 28h 28v -14a 14 14, 0, 0, 0, -14 -14" transform="rotate(-90,488,684)"/><rect x="502" y="670" width="28" height="28" transform="rotate(0,516,684)"/><rect x="530" y="670" width="28" height="28" transform="rotate(0,544,684)"/><rect x="558" y="670" width="28" height="28" transform="rotate(0,572,684)"/><rect x="614" y="670" width="28" height="28" transform="rotate(0,628,684)"/><rect x="726" y="670" width="28" height="28" transform="rotate(0,740,684)"/><circle cx="796" cy="684" r="14" transform="rotate(0,796,684)"/><circle cx="880" cy="684" r="14" transform="rotate(0,880,684)"/><path d="M 922 670v 28h 14a 14 14, 0, 0, 0, 0 -28" transform="rotate(-90,936,684)"/><rect x="1006" y="670" width="28" height="28" transform="rotate(0,1020,684)"/><path d="M 1090 670v 28h 28v -14a 14 14, 0, 0, 0, -14 -14" transform="rotate(180,1104,684)"/><rect x="1118" y="670" width="28" height="28" transform="rotate(0,1132,684)"/><path d="M 1146 670v 28h 28v -14a 14 14, 0, 0, 0, -14 -14" transform="rotate(0,1160,684)"/><circle cx="40" cy="712" r="14" transform="rotate(0,40,712)"/><path d="M 82 698v 28h 28v -14a 14 14, 0, 0, 0, -14 -14" transform="rotate(180,96,712)"/><rect x="110" y="698" width="28" height="28" transform="rotate(0,124,712)"/><path d="M 138 698v 28h 28v -14a 14 14, 0, 0, 0, -14 -14" transform="rotate(90,152,712)"/><path d="M 194 698v 28h 14a 14 14, 0, 0, 0, 0 -28" transform="rotate(180,208,712)"/><path d="M 222 698v 28h 28v -14a 14 14, 0, 0, 0, -14 -14" transform="rotate(0,236,712)"/><path d="M 278 698v 28h 14a 14 14, 0, 0, 0, 0 -28" transform="rotate(180,292,712)"/><path d="M 306 698v 28h 28v -14a 14 14, 0, 0, 0, -14 -14" transform="rotate(90,320,712)"/><path d="M 390 698v 28h 14a 14 14, 0, 0, 0, 0 -28" transform="rotate(-90,404,712)"/><path d="M 446 698v 28h 14a 14 14, 0, 0, 0, 0 -28" transform="rotate(180,460,712)"/><path d="M 474 698v 28h 28v -14a 14 14, 0, 0, 0, -14 -14" transform="rotate(90,488,712)"/><path d="M 530 698v 28h 28v -14a 14 14, 0, 0, 0, -14 -14" transform="rotate(180,544,712)"/><rect x="558" y="698" width="28" height="28" transform="rotate(0,572,712)"/><rect x="586" y="698" width="28" height="28" transform="rotate(0,600,712)"/><path d="M 614 698v 28h 28v -14a 14 14, 0, 0, 0, -14 -14" transform="rotate(90,628,712)"/><circle cx="684" cy="712" r="14" transform="rotate(0,684,712)"/><rect x="726" y="698" width="28" height="28" transform="rotate(0,740,712)"/><path d="M 838 698v 28h 14a 14 14, 0, 0, 0, 0 -28" transform="rotate(-90,852,712)"/><path d="M 922 698v 28h 28v -14a 14 14, 0, 0, 0, -14 -14" transform="rotate(180,936,712)"/><rect x="950" y="698" width="28" height="28" transform="rotate(0,964,712)"/><rect x="978" y="698" width="28" height="28" transform="rotate(0,992,712)"/><path d="M 1006 698v 28h 28v -14a 14 14, 0, 0, 0, -14 -14" transform="rotate(90,1020,712)"/><path d="M 1062 698v 28h 14a 14 14, 0, 0, 0, 0 -28" transform="rotate(-90,1076,712)"/><path d="M 1146 698v 28h 14a 14 14, 0, 0, 0, 0 -28" transform="rotate(90,1160,712)"/><circle cx="68" cy="740" r="14" transform="rotate(0,68,740)"/><rect x="110" y="726" width="28" height="28" transform="rotate(0,124,740)"/><path d="M 166 726v 28h 14a 14 14, 0, 0, 0, 0 -28" transform="rotate(-90,180,740)"/><rect x="222" y="726" width="28" height="28" transform="rotate(0,236,740)"/><path d="M 390 726v 28h 14a 14 14, 0, 0, 0, 0 -28" transform="rotate(90,404,740)"/><path d="M 586 726v 28h 14a 14 14, 0, 0, 0, 0 -28" transform="rotate(90,600,740)"/><path d="M 698 726v 28h 28v -14a 14 14, 0, 0, 0, -14 -14" transform="rotate(-90,712,740)"/><path d="M 726 726v 28h 28v -14a 14 14, 0, 0, 0, -14 -14" transform="rotate(90,740,740)"/><rect x="838" y="726" width="28" height="28" transform="rotate(0,852,740)"/><circle cx="908" cy="740" r="14" transform="rotate(0,908,740)"/><path d="M 950 726v 28h 14a 14 14, 0, 0, 0, 0 -28" transform="rotate(90,964,740)"/><path d="M 1062 726v 28h 14a 14 14, 0, 0, 0, 0 -28" transform="rotate(90,1076,740)"/><path d="M 1118 726v 28h 14a 14 14, 0, 0, 0, 0 -28" transform="rotate(-90,1132,740)"/><path d="M 26 754v 28h 14a 14 14, 0, 0, 0, 0 -28" transform="rotate(-90,40,768)"/><path d="M 82 754v 28h 14a 14 14, 0, 0, 0, 0 -28" transform="rotate(180,96,768)"/><rect x="110" y="754" width="28" height="28" transform="rotate(0,124,768)"/><path d="M 166 754v 28h 28v -14a 14 14, 0, 0, 0, -14 -14" transform="rotate(180,180,768)"/><rect x="194" y="754" width="28" height="28" transform="rotate(0,208,768)"/><rect x="222" y="754" width="28" height="28" transform="rotate(0,236,768)"/><rect x="250" y="754" width="28" height="28" transform="rotate(0,264,768)"/><rect x="278" y="754" width="28" height="28" transform="rotate(0,292,768)"/><rect x="306" y="754" width="28" height="28" transform="rotate(0,320,768)"/><rect x="334" y="754" width="28" height="28" transform="rotate(0,348,768)"/><path d="M 362 754v 28h 14a 14 14, 0, 0, 0, 0 -28" transform="rotate(0,376,768)"/><circle cx="488" cy="768" r="14" transform="rotate(0,488,768)"/><path d="M 614 754v 28h 14a 14 14, 0, 0, 0, 0 -28" transform="rotate(-90,628,768)"/><path d="M 670 754v 28h 28v -14a 14 14, 0, 0, 0, -14 -14" transform="rotate(-90,684,768)"/><rect x="698" y="754" width="28" height="28" transform="rotate(0,712,768)"/><path d="M 754 754v 28h 14a 14 14, 0, 0, 0, 0 -28" transform="rotate(-90,768,768)"/><path d="M 810 754v 28h 28v -14a 14 14, 0, 0, 0, -14 -14" transform="rotate(-90,824,768)"/><rect x="838" y="754" width="28" height="28" transform="rotate(0,852,768)"/><path d="M 922 754v 28h 14a 14 14, 0, 0, 0, 0 -28" transform="rotate(-90,936,768)"/><path d="M 978 754v 28h 14a 14 14, 0, 0, 0, 0 -28" transform="rotate(-90,992,768)"/><path d="M 1118 754v 28h 28v -14a 14 14, 0, 0, 0, -14 -14" transform="rotate(180,1132,768)"/><path d="M 1146 754v 28h 14a 14 14, 0, 0, 0, 0 -28" transform="rotate(0,1160,768)"/><path d="M 26 782v 28h 28v -14a 14 14, 0, 0, 0, -14 -14" transform="rotate(180,40,796)"/><path d="M 54 782v 28h 14a 14 14, 0, 0, 0, 0 -28" transform="rotate(0,68,796)"/><rect x="110" y="782" width="28" height="28" transform="rotate(0,124,796)"/><path d="M 334 782v 28h 14a 14 14, 0, 0, 0, 0 -28" transform="rotate(90,348,796)"/><path d="M 390 782v 28h 14a 14 14, 0, 0, 0, 0 -28" transform="rotate(180,404,796)"/><path d="M 418 782v 28h 28v -14a 14 14, 0, 0, 0, -14 -14" transform="rotate(0,432,796)"/><path d="M 530 782v 28h 14a 14 14, 0, 0, 0, 0 -28" transform="rotate(-90,544,796)"/><path d="M 586 782v 28h 14a 14 14, 0, 0, 0, 0 -28" transform="rotate(180,600,796)"/><rect x="614" y="782" width="28" height="28" transform="rotate(0,628,796)"/><rect x="642" y="782" width="28" height="28" transform="rotate(0,656,796)"/><rect x="670" y="782" width="28" height="28" transform="rotate(0,684,796)"/><rect x="698" y="782" width="28" height="28" transform="rotate(0,712,796)"/><rect x="726" y="782" width="28" height="28" transform="rotate(0,740,796)"/><rect x="754" y="782" width="28" height="28" transform="rotate(0,768,796)"/><rect x="782" y="782" width="28" height="28" transform="rotate(0,796,796)"/><rect x="810" y="782" width="28" height="28" transform="rotate(0,824,796)"/><rect x="838" y="782" width="28" height="28" transform="rotate(0,852,796)"/><rect x="922" y="782" width="28" height="28" transform="rotate(0,936,796)"/><path d="M 978 782v 28h 28v -14a 14 14, 0, 0, 0, -14 -14" transform="rotate(180,992,796)"/><path d="M 1006 782v 28h 14a 14 14, 0, 0, 0, 0 -28" transform="rotate(0,1020,796)"/><path d="M 110 810v 28h 28v -14a 14 14, 0, 0, 0, -14 -14" transform="rotate(180,124,824)"/><rect x="138" y="810" width="28" height="28" transform="rotate(0,152,824)"/><rect x="166" y="810" width="28" height="28" transform="rotate(0,180,824)"/><rect x="194" y="810" width="28" height="28" transform="rotate(0,208,824)"/><rect x="222" y="810" width="28" height="28" transform="rotate(0,236,824)"/><rect x="250" y="810" width="28" height="28" transform="rotate(0,264,824)"/><rect x="278" y="810" width="28" height="28" transform="rotate(0,292,824)"/><path d="M 306 810v 28h 14a 14 14, 0, 0, 0, 0 -28" transform="rotate(0,320,824)"/><circle cx="376" cy="824" r="14" transform="rotate(0,376,824)"/><path d="M 418 810v 28h 28v -14a 14 14, 0, 0, 0, -14 -14" transform="rotate(180,432,824)"/><rect x="446" y="810" width="28" height="28" transform="rotate(0,460,824)"/><rect x="474" y="810" width="28" height="28" transform="rotate(0,488,824)"/><rect x="502" y="810" width="28" height="28" transform="rotate(0,516,824)"/><path d="M 530 810v 28h 28v -14a 14 14, 0, 0, 0, -14 -14" transform="rotate(90,544,824)"/><path d="M 670 810v 28h 28v -14a 14 14, 0, 0, 0, -14 -14" transform="rotate(180,684,824)"/><rect x="698" y="810" width="28" height="28" transform="rotate(0,712,824)"/><path d="M 810 810v 28h 28v -14a 14 14, 0, 0, 0, -14 -14" transform="rotate(180,824,824)"/><path d="M 838 810v 28h 28v -14a 14 14, 0, 0, 0, -14 -14" transform="rotate(90,852,824)"/><path d="M 922 810v 28h 28v -14a 14 14, 0, 0, 0, -14 -14" transform="rotate(180,936,824)"/><path d="M 950 810v 28h 28v -14a 14 14, 0, 0, 0, -14 -14" transform="rotate(0,964,824)"/><path d="M 1146 810v 28h 14a 14 14, 0, 0, 0, 0 -28" transform="rotate(-90,1160,824)"/><circle cx="68" cy="852" r="14" transform="rotate(0,68,852)"/><rect x="166" y="838" width="28" height="28" transform="rotate(0,180,852)"/><rect x="222" y="838" width="28" height="28" transform="rotate(0,236,852)"/><rect x="250" y="838" width="28" height="28" transform="rotate(0,264,852)"/><rect x="278" y="838" width="28" height="28" transform="rotate(0,292,852)"/><path d="M 390 838v 28h 14a 14 14, 0, 0, 0, 0 -28" transform="rotate(-90,404,852)"/><path d="M 446 838v 28h 28v -14a 14 14, 0, 0, 0, -14 -14" transform="rotate(180,460,852)"/><rect x="474" y="838" width="28" height="28" transform="rotate(0,488,852)"/><path d="M 558 838v 28h 28v -14a 14 14, 0, 0, 0, -14 -14" transform="rotate(-90,572,852)"/><path d="M 586 838v 28h 28v -14a 14 14, 0, 0, 0, -14 -14" transform="rotate(0,600,852)"/><circle cx="656" cy="852" r="14" transform="rotate(0,656,852)"/><rect x="698" y="838" width="28" height="28" transform="rotate(0,712,852)"/><circle cx="796" cy="852" r="14" transform="rotate(0,796,852)"/><path d="M 950 838v 28h 28v -14a 14 14, 0, 0, 0, -14 -14" transform="rotate(180,964,852)"/><path d="M 978 838v 28h 14a 14 14, 0, 0, 0, 0 -28" transform="rotate(0,992,852)"/><path d="M 1118 838v 28h 14a 14 14, 0, 0, 0, 0 -28" transform="rotate(180,1132,852)"/><rect x="1146" y="838" width="28" height="28" transform="rotate(0,1160,852)"/><circle cx="40" cy="880" r="14" transform="rotate(0,40,880)"/><path d="M 138 866v 28h 14a 14 14, 0, 0, 0, 0 -28" transform="rotate(180,152,880)"/><rect x="166" y="866" width="28" height="28" transform="rotate(0,180,880)"/><rect x="194" y="866" width="28" height="28" transform="rotate(0,208,880)"/><rect x="222" y="866" width="28" height="28" transform="rotate(0,236,880)"/><rect x="250" y="866" width="28" height="28" transform="rotate(0,264,880)"/><rect x="278" y="866" width="28" height="28" transform="rotate(0,292,880)"/><rect x="306" y="866" width="28" height="28" transform="rotate(0,320,880)"/><rect x="334" y="866" width="28" height="28" transform="rotate(0,348,880)"/><rect x="362" y="866" width="28" height="28" transform="rotate(0,376,880)"/><rect x="390" y="866" width="28" height="28" transform="rotate(0,404,880)"/><path d="M 418 866v 28h 14a 14 14, 0, 0, 0, 0 -28" transform="rotate(0,432,880)"/><rect x="474" y="866" width="28" height="28" transform="rotate(0,488,880)"/><path d="M 502 866v 28h 28v -14a 14 14, 0, 0, 0, -14 -14" transform="rotate(0,516,880)"/><rect x="558" y="866" width="28" height="28" transform="rotate(0,572,880)"/><path d="M 586 866v 28h 28v -14a 14 14, 0, 0, 0, -14 -14" transform="rotate(90,600,880)"/><path d="M 670 866v 28h 14a 14 14, 0, 0, 0, 0 -28" transform="rotate(180,684,880)"/><rect x="698" y="866" width="28" height="28" transform="rotate(0,712,880)"/><path d="M 754 866v 28h 14a 14 14, 0, 0, 0, 0 -28" transform="rotate(-90,768,880)"/><path d="M 838 866v 28h 28v -14a 14 14, 0, 0, 0, -14 -14" transform="rotate(-90,852,880)"/><path d="M 866 866v 28h 28v -14a 14 14, 0, 0, 0, -14 -14" transform="rotate(0,880,880)"/><path d="M 1006 866v 28h 14a 14 14, 0, 0, 0, 0 -28" transform="rotate(180,1020,880)"/><rect x="1034" y="866" width="28" height="28" transform="rotate(0,1048,880)"/><path d="M 1062 866v 28h 28v -14a 14 14, 0, 0, 0, -14 -14" transform="rotate(0,1076,880)"/><rect x="1146" y="866" width="28" height="28" transform="rotate(0,1160,880)"/><path d="M 82 894v 28h 28v -14a 14 14, 0, 0, 0, -14 -14" transform="rotate(-90,96,908)"/><path d="M 110 894v 28h 14a 14 14, 0, 0, 0, 0 -28" transform="rotate(0,124,908)"/><rect x="166" y="894" width="28" height="28" transform="rotate(0,180,908)"/><rect x="250" y="894" width="28" height="28" transform="rotate(0,264,908)"/><path d="M 278 894v 28h 28v -14a 14 14, 0, 0, 0, -14 -14" transform="rotate(90,292,908)"/><rect x="334" y="894" width="28" height="28" transform="rotate(0,348,908)"/><rect x="390" y="894" width="28" height="28" transform="rotate(0,404,908)"/><path d="M 474 894v 28h 28v -14a 14 14, 0, 0, 0, -14 -14" transform="rotate(180,488,908)"/><rect x="502" y="894" width="28" height="28" transform="rotate(0,516,908)"/><rect x="530" y="894" width="28" height="28" transform="rotate(0,544,908)"/><rect x="558" y="894" width="28" height="28" transform="rotate(0,572,908)"/><path d="M 614 894v 28h 14a 14 14, 0, 0, 0, 0 -28" transform="rotate(-90,628,908)"/><rect x="698" y="894" width="28" height="28" transform="rotate(0,712,908)"/><rect x="754" y="894" width="28" height="28" transform="rotate(0,768,908)"/><rect x="782" y="894" width="28" height="28" transform="rotate(0,796,908)"/><rect x="810" y="894" width="28" height="28" transform="rotate(0,824,908)"/><rect x="838" y="894" width="28" height="28" transform="rotate(0,852,908)"/><rect x="866" y="894" width="28" height="28" transform="rotate(0,880,908)"/><path d="M 922 894v 28h 28v -14a 14 14, 0, 0, 0, -14 -14" transform="rotate(-90,936,908)"/><path d="M 950 894v 28h 28v -14a 14 14, 0, 0, 0, -14 -14" transform="rotate(0,964,908)"/><rect x="1034" y="894" width="28" height="28" transform="rotate(0,1048,908)"/><path d="M 1062 894v 28h 28v -14a 14 14, 0, 0, 0, -14 -14" transform="rotate(90,1076,908)"/><rect x="1146" y="894" width="28" height="28" transform="rotate(0,1160,908)"/><circle cx="40" cy="936" r="14" transform="rotate(0,40,936)"/><path d="M 82 922v 28h 14a 14 14, 0, 0, 0, 0 -28" transform="rotate(90,96,936)"/><path d="M 138 922v 28h 14a 14 14, 0, 0, 0, 0 -28" transform="rotate(180,152,936)"/><rect x="166" y="922" width="28" height="28" transform="rotate(0,180,936)"/><path d="M 194 922v 28h 14a 14 14, 0, 0, 0, 0 -28" transform="rotate(0,208,936)"/><rect x="250" y="922" width="28" height="28" transform="rotate(0,264,936)"/><path d="M 306 922v 28h 28v -14a 14 14, 0, 0, 0, -14 -14" transform="rotate(-90,320,936)"/><rect x="334" y="922" width="28" height="28" transform="rotate(0,348,936)"/><path d="M 390 922v 28h 28v -14a 14 14, 0, 0, 0, -14 -14" transform="rotate(180,404,936)"/><rect x="418" y="922" width="28" height="28" transform="rotate(0,432,936)"/><path d="M 446 922v 28h 28v -14a 14 14, 0, 0, 0, -14 -14" transform="rotate(0,460,936)"/><rect x="502" y="922" width="28" height="28" transform="rotate(0,516,936)"/><path d="M 558 922v 28h 28v -14a 14 14, 0, 0, 0, -14 -14" transform="rotate(180,572,936)"/><rect x="586" y="922" width="28" height="28" transform="rotate(0,600,936)"/><rect x="614" y="922" width="28" height="28" transform="rotate(0,628,936)"/><path d="M 642 922v 28h 28v -14a 14 14, 0, 0, 0, -14 -14" transform="rotate(0,656,936)"/><rect x="698" y="922" width="28" height="28" transform="rotate(0,712,936)"/><rect x="726" y="922" width="28" height="28" transform="rotate(0,740,936)"/><path d="M 754 922v 28h 28v -14a 14 14, 0, 0, 0, -14 -14" transform="rotate(90,768,936)"/><path d="M 866 922v 28h 28v -14a 14 14, 0, 0, 0, -14 -14" transform="rotate(180,880,936)"/><rect x="894" y="922" width="28" height="28" transform="rotate(0,908,936)"/><rect x="922" y="922" width="28" height="28" transform="rotate(0,936,936)"/><rect x="950" y="922" width="28" height="28" transform="rotate(0,964,936)"/><rect x="978" y="922" width="28" height="28" transform="rotate(0,992,936)"/><rect x="1006" y="922" width="28" height="28" transform="rotate(0,1020,936)"/><rect x="1034" y="922" width="28" height="28" transform="rotate(0,1048,936)"/><path d="M 1090 922v 28h 14a 14 14, 0, 0, 0, 0 -28" transform="rotate(180,1104,936)"/><rect x="1118" y="922" width="28" height="28" transform="rotate(0,1132,936)"/><rect x="1146" y="922" width="28" height="28" transform="rotate(0,1160,936)"/><rect x="250" y="950" width="28" height="28" transform="rotate(0,264,964)"/><path d="M 306 950v 28h 28v -14a 14 14, 0, 0, 0, -14 -14" transform="rotate(180,320,964)"/><rect x="334" y="950" width="28" height="28" transform="rotate(0,348,964)"/><path d="M 362 950v 28h 28v -14a 14 14, 0, 0, 0, -14 -14" transform="rotate(0,376,964)"/><path d="M 418 950v 28h 28v -14a 14 14, 0, 0, 0, -14 -14" transform="rotate(180,432,964)"/><rect x="446" y="950" width="28" height="28" transform="rotate(0,460,964)"/><rect x="474" y="950" width="28" height="28" transform="rotate(0,488,964)"/><rect x="502" y="950" width="28" height="28" transform="rotate(0,516,964)"/><path d="M 530 950v 28h 28v -14a 14 14, 0, 0, 0, -14 -14" transform="rotate(0,544,964)"/><path d="M 586 950v 28h 14a 14 14, 0, 0, 0, 0 -28" transform="rotate(90,600,964)"/><rect x="642" y="950" width="28" height="28" transform="rotate(0,656,964)"/><rect x="698" y="950" width="28" height="28" transform="rotate(0,712,964)"/><rect x="726" y="950" width="28" height="28" transform="rotate(0,740,964)"/><path d="M 810 950v 28h 14a 14 14, 0, 0, 0, 0 -28" transform="rotate(-90,824,964)"/><path d="M 894 950v 28h 28v -14a 14 14, 0, 0, 0, -14 -14" transform="rotate(180,908,964)"/><rect x="922" y="950" width="28" height="28" transform="rotate(0,936,964)"/><rect x="1034" y="950" width="28" height="28" transform="rotate(0,1048,964)"/><path d="M 1062 950v 28h 14a 14 14, 0, 0, 0, 0 -28" transform="rotate(0,1076,964)"/><path d="M 1118 950v 28h 28v -14a 14 14, 0, 0, 0, -14 -14" transform="rotate(180,1132,964)"/><path d="M 1146 950v 28h 28v -14a 14 14, 0, 0, 0, -14 -14" transform="rotate(90,1160,964)"/><rect x="250" y="978" width="28" height="28" transform="rotate(0,264,992)"/><rect x="362" y="978" width="28" height="28" transform="rotate(0,376,992)"/><rect x="446" y="978" width="28" height="28" transform="rotate(0,460,992)"/><rect x="474" y="978" width="28" height="28" transform="rotate(0,488,992)"/><rect x="502" y="978" width="28" height="28" transform="rotate(0,516,992)"/><rect x="530" y="978" width="28" height="28" transform="rotate(0,544,992)"/><path d="M 558 978v 28h 14a 14 14, 0, 0, 0, 0 -28" transform="rotate(0,572,992)"/><path d="M 614 978v 28h 14a 14 14, 0, 0, 0, 0 -28" transform="rotate(180,628,992)"/><rect x="642" y="978" width="28" height="28" transform="rotate(0,656,992)"/><rect x="698" y="978" width="28" height="28" transform="rotate(0,712,992)"/><rect x="726" y="978" width="28" height="28" transform="rotate(0,740,992)"/><path d="M 754 978v 28h 14a 14 14, 0, 0, 0, 0 -28" transform="rotate(0,768,992)"/><rect x="810" y="978" width="28" height="28" transform="rotate(0,824,992)"/><path d="M 838 978v 28h 28v -14a 14 14, 0, 0, 0, -14 -14" transform="rotate(0,852,992)"/><rect x="922" y="978" width="28" height="28" transform="rotate(0,936,992)"/><circle cx="992" cy="992" r="14" transform="rotate(0,992,992)"/><rect x="1034" y="978" width="28" height="28" transform="rotate(0,1048,992)"/><path d="M 1090 978v 28h 14a 14 14, 0, 0, 0, 0 -28" transform="rotate(-90,1104,992)"/><path d="M 250 1006v 28h 28v -14a 14 14, 0, 0, 0, -14 -14" transform="rotate(180,264,1020)"/><path d="M 278 1006v 28h 14a 14 14, 0, 0, 0, 0 -28" transform="rotate(0,292,1020)"/><path d="M 334 1006v 28h 28v -14a 14 14, 0, 0, 0, -14 -14" transform="rotate(-90,348,1020)"/><rect x="362" y="1006" width="28" height="28" transform="rotate(0,376,1020)"/><path d="M 390 1006v 28h 14a 14 14, 0, 0, 0, 0 -28" transform="rotate(0,404,1020)"/><rect x="446" y="1006" width="28" height="28" transform="rotate(0,460,1020)"/><rect x="474" y="1006" width="28" height="28" transform="rotate(0,488,1020)"/><path d="M 642 1006v 28h 14a 14 14, 0, 0, 0, 0 -28" transform="rotate(90,656,1020)"/><rect x="698" y="1006" width="28" height="28" transform="rotate(0,712,1020)"/><path d="M 726 1006v 28h 28v -14a 14 14, 0, 0, 0, -14 -14" transform="rotate(90,740,1020)"/><path d="M 782 1006v 28h 28v -14a 14 14, 0, 0, 0, -14 -14" transform="rotate(-90,796,1020)"/><rect x="810" y="1006" width="28" height="28" transform="rotate(0,824,1020)"/><path d="M 838 1006v 28h 28v -14a 14 14, 0, 0, 0, -14 -14" transform="rotate(90,852,1020)"/><rect x="922" y="1006" width="28" height="28" transform="rotate(0,936,1020)"/><rect x="1034" y="1006" width="28" height="28" transform="rotate(0,1048,1020)"/><path d="M 1090 1006v 28h 14a 14 14, 0, 0, 0, 0 -28" transform="rotate(90,1104,1020)"/><rect x="334" y="1034" width="28" height="28" transform="rotate(0,348,1048)"/><rect x="362" y="1034" width="28" height="28" transform="rotate(0,376,1048)"/><path d="M 446 1034v 28h 28v -14a 14 14, 0, 0, 0, -14 -14" transform="rotate(180,460,1048)"/><rect x="474" y="1034" width="28" height="28" transform="rotate(0,488,1048)"/><path d="M 502 1034v 28h 14a 14 14, 0, 0, 0, 0 -28" transform="rotate(0,516,1048)"/><circle cx="628" cy="1048" r="14" transform="rotate(0,628,1048)"/><path d="M 670 1034v 28h 14a 14 14, 0, 0, 0, 0 -28" transform="rotate(180,684,1048)"/><rect x="698" y="1034" width="28" height="28" transform="rotate(0,712,1048)"/><path d="M 754 1034v 28h 28v -14a 14 14, 0, 0, 0, -14 -14" transform="rotate(-90,768,1048)"/><rect x="782" y="1034" width="28" height="28" transform="rotate(0,796,1048)"/><path d="M 810 1034v 28h 28v -14a 14 14, 0, 0, 0, -14 -14" transform="rotate(90,824,1048)"/><rect x="922" y="1034" width="28" height="28" transform="rotate(0,936,1048)"/><rect x="950" y="1034" width="28" height="28" transform="rotate(0,964,1048)"/><rect x="978" y="1034" width="28" height="28" transform="rotate(0,992,1048)"/><rect x="1006" y="1034" width="28" height="28" transform="rotate(0,1020,1048)"/><rect x="1034" y="1034" width="28" height="28" transform="rotate(0,1048,1048)"/><path d="M 1062 1034v 28h 14a 14 14, 0, 0, 0, 0 -28" transform="rotate(0,1076,1048)"/><circle cx="264" cy="1076" r="14" transform="rotate(0,264,1076)"/><rect x="334" y="1062" width="28" height="28" transform="rotate(0,348,1076)"/><rect x="362" y="1062" width="28" height="28" transform="rotate(0,376,1076)"/><path d="M 390 1062v 28h 28v -14a 14 14, 0, 0, 0, -14 -14" transform="rotate(0,404,1076)"/><path d="M 558 1062v 28h 28v -14a 14 14, 0, 0, 0, -14 -14" transform="rotate(-90,572,1076)"/><path d="M 586 1062v 28h 14a 14 14, 0, 0, 0, 0 -28" transform="rotate(0,600,1076)"/><circle cx="656" cy="1076" r="14" transform="rotate(0,656,1076)"/><rect x="698" y="1062" width="28" height="28" transform="rotate(0,712,1076)"/><rect x="754" y="1062" width="28" height="28" transform="rotate(0,768,1076)"/><path d="M 894 1062v 28h 28v -14a 14 14, 0, 0, 0, -14 -14" transform="rotate(-90,908,1076)"/><rect x="922" y="1062" width="28" height="28" transform="rotate(0,936,1076)"/><rect x="950" y="1062" width="28" height="28" transform="rotate(0,964,1076)"/><path d="M 978 1062v 28h 28v -14a 14 14, 0, 0, 0, -14 -14" transform="rotate(90,992,1076)"/><rect x="1034" y="1062" width="28" height="28" transform="rotate(0,1048,1076)"/><path d="M 1118 1062v 28h 28v -14a 14 14, 0, 0, 0, -14 -14" transform="rotate(-90,1132,1076)"/><path d="M 1146 1062v 28h 28v -14a 14 14, 0, 0, 0, -14 -14" transform="rotate(0,1160,1076)"/><path d="M 334 1090v 28h 28v -14a 14 14, 0, 0, 0, -14 -14" transform="rotate(180,348,1104)"/><rect x="362" y="1090" width="28" height="28" transform="rotate(0,376,1104)"/><path d="M 390 1090v 28h 28v -14a 14 14, 0, 0, 0, -14 -14" transform="rotate(90,404,1104)"/><path d="M 474 1090v 28h 14a 14 14, 0, 0, 0, 0 -28" transform="rotate(180,488,1104)"/><path d="M 502 1090v 28h 14a 14 14, 0, 0, 0, 0 -28" transform="rotate(0,516,1104)"/><rect x="558" y="1090" width="28" height="28" transform="rotate(0,572,1104)"/><path d="M 670 1090v 28h 28v -14a 14 14, 0, 0, 0, -14 -14" transform="rotate(-90,684,1104)"/><rect x="698" y="1090" width="28" height="28" transform="rotate(0,712,1104)"/><rect x="726" y="1090" width="28" height="28" transform="rotate(0,740,1104)"/><path d="M 754 1090v 28h 28v -14a 14 14, 0, 0, 0, -14 -14" transform="rotate(90,768,1104)"/><path d="M 838 1090v 28h 14a 14 14, 0, 0, 0, 0 -28" transform="rotate(-90,852,1104)"/><path d="M 894 1090v 28h 28v -14a 14 14, 0, 0, 0, -14 -14" transform="rotate(180,908,1104)"/><rect x="922" y="1090" width="28" height="28" transform="rotate(0,936,1104)"/><path d="M 1034 1090v 28h 14a 14 14, 0, 0, 0, 0 -28" transform="rotate(90,1048,1104)"/><path d="M 1090 1090v 28h 14a 14 14, 0, 0, 0, 0 -28" transform="rotate(180,1104,1104)"/><rect x="1118" y="1090" width="28" height="28" transform="rotate(0,1132,1104)"/><path d="M 1146 1090v 28h 28v -14a 14 14, 0, 0, 0, -14 -14" transform="rotate(90,1160,1104)"/><path d="M 250 1118v 28h 14a 14 14, 0, 0, 0, 0 -28" transform="rotate(180,264,1132)"/><rect x="278" y="1118" width="28" height="28" transform="rotate(0,292,1132)"/><path d="M 306 1118v 28h 28v -14a 14 14, 0, 0, 0, -14 -14" transform="rotate(0,320,1132)"/><path d="M 362 1118v 28h 14a 14 14, 0, 0, 0, 0 -28" transform="rotate(90,376,1132)"/><path d="M 530 1118v 28h 28v -14a 14 14, 0, 0, 0, -14 -14" transform="rotate(-90,544,1132)"/><rect x="558" y="1118" width="28" height="28" transform="rotate(0,572,1132)"/><circle cx="628" cy="1132" r="14" transform="rotate(0,628,1132)"/><path d="M 670 1118v 28h 28v -14a 14 14, 0, 0, 0, -14 -14" transform="rotate(180,684,1132)"/><rect x="698" y="1118" width="28" height="28" transform="rotate(0,712,1132)"/><path d="M 726 1118v 28h 28v -14a 14 14, 0, 0, 0, -14 -14" transform="rotate(90,740,1132)"/><rect x="838" y="1118" width="28" height="28" transform="rotate(0,852,1132)"/><rect x="922" y="1118" width="28" height="28" transform="rotate(0,936,1132)"/><path d="M 978 1118v 28h 28v -14a 14 14, 0, 0, 0, -14 -14" transform="rotate(-90,992,1132)"/><path d="M 1006 1118v 28h 28v -14a 14 14, 0, 0, 0, -14 -14" transform="rotate(0,1020,1132)"/><rect x="1118" y="1118" width="28" height="28" transform="rotate(0,1132,1132)"/><path d="M 306 1146v 28h 14a 14 14, 0, 0, 0, 0 -28" transform="rotate(90,320,1160)"/><circle cx="404" cy="1160" r="14" transform="rotate(0,404,1160)"/><circle cx="488" cy="1160" r="14" transform="rotate(0,488,1160)"/><path d="M 530 1146v 28h 28v -14a 14 14, 0, 0, 0, -14 -14" transform="rotate(180,544,1160)"/><path d="M 558 1146v 28h 28v -14a 14 14, 0, 0, 0, -14 -14" transform="rotate(90,572,1160)"/><circle cx="656" cy="1160" r="14" transform="rotate(0,656,1160)"/><path d="M 698 1146v 28h 14a 14 14, 0, 0, 0, 0 -28" transform="rotate(90,712,1160)"/><path d="M 810 1146v 28h 14a 14 14, 0, 0, 0, 0 -28" transform="rotate(180,824,1160)"/><path d="M 838 1146v 28h 28v -14a 14 14, 0, 0, 0, -14 -14" transform="rotate(90,852,1160)"/><path d="M 922 1146v 28h 14a 14 14, 0, 0, 0, 0 -28" transform="rotate(90,936,1160)"/><path d="M 978 1146v 28h 28v -14a 14 14, 0, 0, 0, -14 -14" transform="rotate(180,992,1160)"/><rect x="1006" y="1146" width="28" height="28" transform="rotate(0,1020,1160)"/><rect x="1034" y="1146" width="28" height="28" transform="rotate(0,1048,1160)"/><path d="M 1062 1146v 28h 14a 14 14, 0, 0, 0, 0 -28" transform="rotate(0,1076,1160)"/><path d="M 1118 1146v 28h 14a 14 14, 0, 0, 0, 0 -28" transform="rotate(90,1132,1160)"/></clipPath><clipPath id="clip-path-corners-square-color-0-0-683"><path clip-rule="evenodd" d="M 26 96v 56a 70 70, 0, 0, 0, 70 70h 56a 70 70, 0, 0, 0, 70 -70v -56a 70 70, 0, 0, 0, -70 -70h -56a 70 70, 0, 0, 0, -70 70M 96 54h 56a 42 42, 0, 0, 1, 42 42v 56a 42 42, 0, 0, 1, -42 42h -56a 42 42, 0, 0, 1, -42 -42v -56a 42 42, 0, 0, 1, 42 -42" transform="rotate(0,124,124)"/></clipPath><clipPath id="clip-path-corners-dot-color-0-0-683"><circle cx="124" cy="124" r="42" transform="rotate(0,124,124)"/></clipPath><clipPath id="clip-path-corners-square-color-1-0-683"><path clip-rule="evenodd" d="M 978 96v 56a 70 70, 0, 0, 0, 70 70h 56a 70 70, 0, 0, 0, 70 -70v -56a 70 70, 0, 0, 0, -70 -70h -56a 70 70, 0, 0, 0, -70 70M 1048 54h 56a 42 42, 0, 0, 1, 42 42v 56a 42 42, 0, 0, 1, -42 42h -56a 42 42, 0, 0, 1, -42 -42v -56a 42 42, 0, 0, 1, 42 -42" transform="rotate(90,1076,124)"/></clipPath><clipPath id="clip-path-corners-dot-color-1-0-683"><circle cx="1076" cy="124" r="42" transform="rotate(90,1076,124)"/></clipPath><clipPath id="clip-path-corners-square-color-0-1-683"><path clip-rule="evenodd" d="M 26 1048v 56a 70 70, 0, 0, 0, 70 70h 56a 70 70, 0, 0, 0, 70 -70v -56a 70 70, 0, 0, 0, -70 -70h -56a 70 70, 0, 0, 0, -70 70M 96 1006h 56a 42 42, 0, 0, 1, 42 42v 56a 42 42, 0, 0, 1, -42 42h -56a 42 42, 0, 0, 1, -42 -42v -56a 42 42, 0, 0, 1, 42 -42" transform="rotate(-90,124,1076)"/></clipPath><clipPath id="clip-path-corners-dot-color-0-1-683"><circle cx="124" cy="1076" r="42" transform="rotate(-90,124,1076)"/></clipPath></defs><rect x="0" y="0" height="1200" width="1200" clip-path="url('#clip-path-background-color-683')" fill="#ffffff"/><rect x="0" y="0" height="1200" width="1200" clip-path="url('#clip-path-dot-color-683')" fill="#000000"/><rect x="26" y="26" height="196" width="196" clip-path="url('#clip-path-corners-square-color-0-0-683')" fill="#000000"/><rect x="82" y="82" height="84" width="84" clip-path="url('#clip-path-corners-dot-color-0-0-683')" fill="#000000"/><rect x="978" y="26" height="196" width="196" clip-path="url('#clip-path-corners-square-color-1-0-683')" fill="#000000"/><rect x="1034" y="82" height="84" width="84" clip-path="url('#clip-path-corners-dot-color-1-0-683')" fill="#000000"/><rect x="26" y="978" height="196" width="196" clip-path="url('#clip-path-corners-square-color-0-1-683')" fill="#000000"/><rect x="82" y="1034" height="84" width="84" clip-path="url('#clip-path-corners-dot-color-0-1-683')" fill="#000000"/></svg>