<?xml version="1.0" standalone="no"?>
<svg xmlns="http://www.w3.org/2000/svg" width="1200" height="1200" xmlns:xlink="http://www.w3.org/1999/xlink" viewBox="0 0 1200 1200"><defs><clipPath id="clip-path-background-color-735"><rect x="0" y="0" width="1200" height="1200"/></clipPath><clipPath id="clip-path-dot-color-735"><path d="M 278 26v 28h 28v -14a 14 14, 0, 0, 0, -14 -14" transform="rotate(-90,292,40)"/><path d="M 306 26v 28h 14a 14 14, 0, 0, 0, 0 -28" transform="rotate(0,320,40)"/><path d="M 362 26v 28h 28v -14a 14 14, 0, 0, 0, -14 -14" transform="rotate(-90,376,40)"/><path d="M 390 26v 28h 14a 14 14, 0, 0, 0, 0 -28" transform="rotate(0,404,40)"/><path d="M 474 26v 28h 28v -14a 14 14, 0, 0, 0, -14 -14" transform="rotate(-90,488,40)"/><rect x="502" y="26" width="28" height="28" transform="rotate(0,516,40)"/><rect x="530" y="26" width="28" height="28" transform="rotate(0,544,40)"/><rect x="558" y="26" width="28" height="28" transform="rotate(0,572,40)"/><rect x="586" y="26" width="28" height="28" transform="rotate(0,600,40)"/><rect x="614" y="26" width="28" height="28" transform="rotate(0,628,40)"/><rect x="642" y="26" width="28" height="28" transform="rotate(0,656,40)"/><rect x="670" y="26" width="28" height="28" transform="rotate(0,684,40)"/><rect x="698" y="26" width="28" height="28" transform="rotate(0,712,40)"/><path d="M 726 26v 28h 28v -14a 14 14, 0, 0, 0, -14 -14" transform="rotate(0,740,40)"/><circle cx="796" cy="40" r="14" transform="rotate(0,796,40)"/><path d="M 838 26v 28h 14a 14 14, 0, 0, 0, 0 -28" transform="rotate(-90,852,40)"/><rect x="278" y="54" width="28" height="28" transform="rotate(0,292,68)"/><path d="M 334 54v 28h 28v -14a 14 14, 0, 0, 0, -14 -14" transform="rotate(-90,348,68)"/><path d="M 362 54v 28h 28v -14a 14 14, 0, 0, 0, -14 -14" transform="rotate(90,376,68)"/><path d="M 446 54v 28h 28v -14a 14 14, 0, 0, 0, -14 -14" transform="rotate(-90,460,68)"/><path d="M 474 54v 28h 28v -14a 14 14, 0, 0, 0, -14 -14" transform="rotate(90,488,68)"/><path d="M 558 54v 28h 14a 14 14, 0, 0, 0, 0 -28" transform="rotate(90,572,68)"/><path d="M 642 54v 28h 14a 14 14, 0, 0, 0, 0 -28" transform="rotate(90,656,68)"/><path d="M 726 54v 28h 28v -14a 14 14, 0, 0, 0, -14 -14" transform="rotate(180,740,68)"/><path d="M 754 54v 28h 28v -14a 14 14, 0, 0, 0, -14 -14" transform="rotate(0,768,68)"/><path d="M 810 54v 28h 14a 14 14, 0, 0, 0, 0 -28" transform="rotate(180,824,68)"/><path d="M 838 54v 28h 28v -14a 14 14, 0, 0, 0, -14 -14" transform="rotate(90,852,68)"/><path d="M 894 54v 28h 14a 14 14, 0, 0, 0, 0 -28" transform="rotate(-90,908,68)"/><path d="M 250 82v 28h 14a 14 14, 0, 0, 0, 0 -28" transform="rotate(180,264,96)"/><rect x="278" y="82" width="28" height="28" transform="rotate(0,292,96)"/><path d="M 334 82v 28h 14a 14 14, 0, 0, 0, 0 -28" transform="rotate(90,348,96)"/><path d="M 390 82v 28h 14a 14 14, 0, 0, 0, 0 -28" transform="rotate(180,404,96)"/><rect x="418" y="82" width="28" height="28" transform="rotate(0,432,96)"/><path d="M 446 82v 28h 28v -14a 14 14, 0, 0, 0, -14 -14" transform="rotate(90,460,96)"/><path d="M 502 82v 28h 14a 14 14, 0, 0, 0, 0 -28" transform="rotate(180,516,96)"/><path d="M 530 82v 28h 28v -14a 14 14, 0, 0, 0, -14 -14" transform="rotate(0,544,96)"/><path d="M 670 82v 28h 14a 14 14, 0, 0, 0, 0 -28" transform="rotate(180,684,96)"/><path d="M 698 82v 28h 14a 14 14, 0, 0, 0, 0 -28" transform="rotate(0,712,96)"/><path d="M 754 82v 28h 28v -14a 14 14, 0, 0, 0, -14 -14" transform="rotate(180,768,96)"/><path d="M 782 82v 28h 14a 14 14, 0, 0, 0, 0 -28" transform="rotate(0,796,96)"/><rect x="894" y="82" width="28" height="28" transform="rotate(0,908,96)"/><path d="M 922 82v 28h 28v -14a 14 14, 0, 0, 0, -14 -14" transform="rotate(0,936,96)"/><rect x="278" y="110" width="28" height="28" transform="rotate(0,292,124)"/><path d="M 362 110v 28h 14a 14 14, 0, 0, 0, 0 -28" transform="rotate(-90,376,124)"/><rect x="418" y="110" width="28" height="28" transform="rotate(0,432,124)"/><path d="M 474 110v 28h 14a 14 14, 0, 0, 0, 0 -28" transform="rotate(-90,488,124)"/><rect x="530" y="110" width="28" height="28" transform="rotate(0,544,124)"/><circle cx="600" cy="124" r="14" transform="rotate(0,600,124)"/><path d="M 810 110v 28h 28v -14a 14 14, 0, 0, 0, -14 -14" transform="rotate(-90,824,124)"/><rect x="838" y="110" width="28" height="28" transform="rotate(0,852,124)"/><rect x="866" y="110" width="28" height="28" transform="rotate(0,880,124)"/><rect x="894" y="110" width="28" height="28" transform="rotate(0,908,124)"/><path d="M 922 110v 28h 28v -14a 14 14, 0, 0, 0, -14 -14" transform="rotate(90,936,124)"/><path d="M 250 138v 28h 28v -14a 14 14, 0, 0, 0, -14 -14" transform="rotate(-90,264,152)"/><rect x="278" y="138" width="28" height="28" transform="rotate(0,292,152)"/><rect x="306" y="138" width="28" height="28" transform="rotate(0,320,152)"/><rect x="334" y="138" width="28" height="28" transform="rotate(0,348,152)"/><rect x="362" y="138" width="28" height="28" transform="rotate(0,376,152)"/><rect x="390" y="138" width="28" height="28" transform="rotate(0,404,152)"/><rect x="418" y="138" width="28" height="28" transform="rotate(0,432,152)"/><rect x="446" y="138" width="28" height="28" transform="rotate(0,460,152)"/><path d="M 474 138v 28h 28v -14a 14 14, 0, 0, 0, -14 -14" transform="rotate(90,488,152)"/><rect x="530" y="138" width="28" height="28" transform="rotate(0,544,152)"/><circle cx="656" cy="152" r="14" transform="rotate(0,656,152)"/><path d="M 698 138v 28h 28v -14a 14 14, 0, 0, 0, -14 -14" transform="rotate(-90,712,152)"/><path d="M 726 138v 28h 14a 14 14, 0, 0, 0, 0 -28" transform="rotate(0,740,152)"/><path d="M 782 138v 28h 14a 14 14, 0, 0, 0, 0 -28" transform="rotate(180,796,152)"/><path d="M 810 138v 28h 28v -14a 14 14, 0, 0, 0, -14 -14" transform="rotate(90,824,152)"/><rect x="866" y="138" width="28" height="28" transform="rotate(0,880,152)"/><rect x="250" y="166" width="28" height="28" transform="rotate(0,264,180)"/><rect x="306" y="166" width="28" height="28" transform="rotate(0,320,180)"/><rect x="362" y="166" width="28" height="28" transform="rotate(0,376,180)"/><rect x="390" y="166" width="28" height="28" transform="rotate(0,404,180)"/><rect x="418" y="166" width="28" height="28" transform="rotate(0,432,180)"/><path d="M 502 166v 28h 14a 14 14, 0, 0, 0, 0 -28" transform="rotate(180,516,180)"/><rect x="530" y="166" width="28" height="28" transform="rotate(0,544,180)"/><path d="M 586 166v 28h 28v -14a 14 14, 0, 0, 0, -14 -14" transform="rotate(-90,600,180)"/><path d="M 614 166v 28h 14a 14 14, 0, 0, 0, 0 -28" transform="rotate(0,628,180)"/><rect x="698" y="166" width="28" height="28" transform="rotate(0,712,180)"/><path d="M 754 166v 28h 14a 14 14, 0, 0, 0, 0 -28" transform="rotate(-90,768,180)"/><path d="M 838 166v 28h 14a 14 14, 0, 0, 0, 0 -28" transform="rotate(180,852,180)"/><rect x="866" y="166" width="28" height="28" transform="rotate(0,880,180)"/><path d="M 894 166v 28h 14a 14 14, 0, 0, 0, 0 -28" transform="rotate(0,908,180)"/><path d="M 250 194v 28h 14a 14 14, 0, 0, 0, 0 -28" transform="rotate(90,264,208)"/><path d="M 306 194v 28h 14a 14 14, 0, 0, 0, 0 -28" transform="rotate(90,320,208)"/><path d="M 362 194v 28h 14a 14 14, 0, 0, 0, 0 -28" transform="rotate(90,376,208)"/><path d="M 418 194v 28h 14a 14 14, 0, 0, 0, 0 -28" transform="rotate(90,432,208)"/><path d="M 474 194v 28h 14a 14 14, 0, 0, 0, 0 -28" transform="rotate(-90,488,208)"/><path d="M 530 194v 28h 14a 14 14, 0, 0, 0, 0 -28" transform="rotate(90,544,208)"/><rect x="586" y="194" width="28" height="28" transform="rotate(0,600,208)"/><circle cx="656" cy="208" r="14" transform="rotate(0,656,208)"/><rect x="698" y="194" width="28" height="28" transform="rotate(0,712,208)"/><path d="M 754 194v 28h 14a 14 14, 0, 0, 0, 0 -28" transform="rotate(90,768,208)"/><path d="M 810 194v 28h 14a 14 14, 0, 0, 0, 0 -28" transform="rotate(-90,824,208)"/><rect x="866" y="194" width="28" height="28" transform="rotate(0,880,208)"/><path d="M 922 194v 28h 14a 14 14, 0, 0, 0, 0 -28" transform="rotate(-90,936,208)"/><path d="M 390 222v 28h 14a 14 14, 0, 0, 0, 0 -28" transform="rotate(-90,404,236)"/><path d="M 446 222v 28h 14a 14 14, 0, 0, 0, 0 -28" transform="rotate(180,460,236)"/><path d="M 474 222v 28h 28v -14a 14 14, 0, 0, 0, -14 -14" transform="rotate(90,488,236)"/><rect x="586" y="222" width="28" height="28" transform="rotate(0,600,236)"/><path d="M 670 222v 28h 28v -14a 14 14, 0, 0, 0, -14 -14" transform="rotate(-90,684,236)"/><rect x="698" y="222" width="28" height="28" transform="rotate(0,712,236)"/><rect x="810" y="222" width="28" height="28" transform="rotate(0,824,236)"/><rect x="838" y="222" width="28" height="28" transform="rotate(0,852,236)"/><path d="M 866 222v 28h 28v -14a 14 14, 0, 0, 0, -14 -14" transform="rotate(90,880,236)"/><rect x="922" y="222" width="28" height="28" transform="rotate(0,936,236)"/><path d="M 54 250v 28h 14a 14 14, 0, 0, 0, 0 -28" transform="rotate(-90,68,264)"/><path d="M 138 250v 28h 14a 14 14, 0, 0, 0, 0 -28" transform="rotate(-90,152,264)"/><circle cx="208" cy="264" r="14" transform="rotate(0,208,264)"/><circle cx="264" cy="264" r="14" transform="rotate(0,264,264)"/><path d="M 334 250v 28h 14a 14 14, 0, 0, 0, 0 -28" transform="rotate(180,348,264)"/><rect x="362" y="250" width="28" height="28" transform="rotate(0,376,264)"/><path d="M 390 250v 28h 28v -14a 14 14, 0, 0, 0, -14 -14" transform="rotate(90,404,264)"/><path d="M 502 250v 28h 28v -14a 14 14, 0, 0, 0, -14 -14" transform="rotate(-90,516,264)"/><path d="M 530 250v 28h 28v -14a 14 14, 0, 0, 0, -14 -14" transform="rotate(0,544,264)"/><path d="M 586 250v 28h 28v -14a 14 14, 0, 0, 0, -14 -14" transform="rotate(180,600,264)"/><path d="M 614 250v 28h 28v -14a 14 14, 0, 0, 0, -14 -14" transform="rotate(0,628,264)"/><rect x="670" y="250" width="28" height="28" transform="rotate(0,684,264)"/><path d="M 698 250v 28h 28v -14a 14 14, 0, 0, 0, -14 -14" transform="rotate(90,712,264)"/><rect x="810" y="250" width="28" height="28" transform="rotate(0,824,264)"/><path d="M 838 250v 28h 28v -14a 14 14, 0, 0, 0, -14 -14" transform="rotate(90,852,264)"/><path d="M 894 250v 28h 14a 14 14, 0, 0, 0, 0 -28" transform="rotate(180,908,264)"/><rect x="922" y="250" width="28" height="28" transform="rotate(0,936,264)"/><path d="M 950 250v 28h 14a 14 14, 0, 0, 0, 0 -28" transform="rotate(0,964,264)"/><path d="M 1006 250v 28h 28v -14a 14 14, 0, 0, 0, -14 -14" transform="rotate(-90,1020,264)"/><path d="M 1034 250v 28h 28v -14a 14 14, 0, 0, 0, -14 -14" transform="rotate(0,1048,264)"/><circle cx="1104" cy="264" r="14" transform="rotate(0,1104,264)"/><path d="M 54 278v 28h 14a 14 14, 0, 0, 0, 0 -28" transform="rotate(90,68,292)"/><path d="M 110 278v 28h 14a 14 14, 0, 0, 0, 0 -28" transform="rotate(180,124,292)"/><path d="M 138 278v 28h 28v -14a 14 14, 0, 0, 0, -14 -14" transform="rotate(90,152,292)"/><path d="M 222 278v 28h 14a 14 14, 0, 0, 0, 0 -28" transform="rotate(-90,236,292)"/><circle cx="320" cy="292" r="14" transform="rotate(0,320,292)"/><path d="M 362 278v 28h 14a 14 14, 0, 0, 0, 0 -28" transform="rotate(90,376,292)"/><path d="M 446 278v 28h 28v -14a 14 14, 0, 0, 0, -14 -14" transform="rotate(-90,460,292)"/><rect x="474" y="278" width="28" height="28" transform="rotate(0,488,292)"/><rect x="502" y="278" width="28" height="28" transform="rotate(0,516,292)"/><rect x="530" y="278" width="28" height="28" transform="rotate(0,544,292)"/><path d="M 558 278v 28h 28v -14a 14 14, 0, 0, 0, -14 -14" transform="rotate(0,572,292)"/><rect x="614" y="278" width="28" height="28" transform="rotate(0,628,292)"/><rect x="670" y="278" width="28" height="28" transform="rotate(0,684,292)"/><path d="M 726 278v 28h 14a 14 14, 0, 0, 0, 0 -28" transform="rotate(180,740,292)"/><rect x="754" y="278" width="28" height="28" transform="rotate(0,768,292)"/><rect x="782" y="278" width="28" height="28" transform="rotate(0,796,292)"/><path d="M 810 278v 28h 28v -14a 14 14, 0, 0, 0, -14 -14" transform="rotate(90,824,292)"/><path d="M 978 278v 28h 28v -14a 14 14, 0, 0, 0, -14 -14" transform="rotate(-90,992,292)"/><rect x="1006" y="278" width="28" height="28" transform="rotate(0,1020,292)"/><rect x="1034" y="278" width="28" height="28" transform="rotate(0,1048,292)"/><path d="M 1062 278v 28h 14a 14 14, 0, 0, 0, 0 -28" transform="rotate(0,1076,292)"/><path d="M 1146 278v 28h 14a 14 14, 0, 0, 0, 0 -28" transform="rotate(-90,1160,292)"/><path d="M 26 306v 28h 14a 14 14, 0, 0, 0, 0 -28" transform="rotate(-90,40,320)"/><circle cx="96" cy="320" r="14" transform="rotate(0,96,320)"/><path d="M 194 306v 28h 14a 14 14, 0, 0, 0, 0 -28" transform="rotate(180,208,320)"/><rect x="222" y="306" width="28" height="28" transform="rotate(0,236,320)"/><rect x="250" y="306" width="28" height="28" transform="rotate(0,264,320)"/><path d="M 278 306v 28h 28v -14a 14 14, 0, 0, 0, -14 -14" transform="rotate(0,292,320)"/><circle cx="348" cy="320" r="14" transform="rotate(0,348,320)"/><path d="M 418 306v 28h 14a 14 14, 0, 0, 0, 0 -28" transform="rotate(180,432,320)"/><rect x="446" y="306" width="28" height="28" transform="rotate(0,460,320)"/><rect x="474" y="306" width="28" height="28" transform="rotate(0,488,320)"/><rect x="502" y="306" width="28" height="28" transform="rotate(0,516,320)"/><rect x="530" y="306" width="28" height="28" transform="rotate(0,544,320)"/><rect x="558" y="306" width="28" height="28" transform="rotate(0,572,320)"/><rect x="586" y="306" width="28" height="28" transform="rotate(0,600,320)"/><rect x="614" y="306" width="28" height="28" transform="rotate(0,628,320)"/><path d="M 670 306v 28h 28v -14a 14 14, 0, 0, 0, -14 -14" transform="rotate(180,684,320)"/><path d="M 698 306v 28h 14a 14 14, 0, 0, 0, 0 -28" transform="rotate(0,712,320)"/><path d="M 754 306v 28h 28v -14a 14 14, 0, 0, 0, -14 -14" transform="rotate(180,768,320)"/><rect x="782" y="306" width="28" height="28" transform="rotate(0,796,320)"/><path d="M 922 306v 28h 14a 14 14, 0, 0, 0, 0 -28" transform="rotate(-90,936,320)"/><path d="M 978 306v 28h 14a 14 14, 0, 0, 0, 0 -28" transform="rotate(90,992,320)"/><rect x="1146" y="306" width="28" height="28" transform="rotate(0,1160,320)"/><path d="M 26 334v 28h 28v -14a 14 14, 0, 0, 0, -14 -14" transform="rotate(180,40,348)"/><path d="M 54 334v 28h 28v -14a 14 14, 0, 0, 0, -14 -14" transform="rotate(0,68,348)"/><circle cx="152" cy="348" r="14" transform="rotate(0,152,348)"/><rect x="278" y="334" width="28" height="28" transform="rotate(0,292,348)"/><path d="M 306 334v 28h 14a 14 14, 0, 0, 0, 0 -28" transform="rotate(0,320,348)"/><path d="M 474 334v 28h 28v -14a 14 14, 0, 0, 0, -14 -14" transform="rotate(180,488,348)"/><rect x="502" y="334" width="28" height="28" transform="rotate(0,516,348)"/><rect x="530" y="334" width="28" height="28" transform="rotate(0,544,348)"/><rect x="614" y="334" width="28" height="28" transform="rotate(0,628,348)"/><path d="M 782 334v 28h 14a 14 14, 0, 0, 0, 0 -28" transform="rotate(90,796,348)"/><path d="M 838 334v 28h 14a 14 14, 0, 0, 0, 0 -28" transform="rotate(-90,852,348)"/><path d="M 894 334v 28h 14a 14 14, 0, 0, 0, 0 -28" transform="rotate(180,908,348)"/><rect x="922" y="334" width="28" height="28" transform="rotate(0,936,348)"/><circle cx="1020" cy="348" r="14" transform="rotate(0,1020,348)"/><circle cx="1076" cy="348" r="14" transform="rotate(0,1076,348)"/><rect x="1146" y="334" width="28" height="28" transform="rotate(0,1160,348)"/><path d="M 54 362v 28h 28v -14a 14 14, 0, 0, 0, -14 -14" transform="rotate(180,68,376)"/><rect x="82" y="362" width="28" height="28" transform="rotate(0,96,376)"/><path d="M 110 362v 28h 28v -14a 14 14, 0, 0, 0, -14 -14" transform="rotate(0,124,376)"/><path d="M 194 362v 28h 14a 14 14, 0, 0, 0, 0 -28" transform="rotate(180,208,376)"/><rect x="222" y="362" width="28" height="28" transform="rotate(0,236,376)"/><rect x="250" y="362" width="28" height="28" transform="rotate(0,264,376)"/><rect x="278" y="362" width="28" height="28" transform="rotate(0,292,376)"/><path d="M 334 362v 28h 14a 14 14, 0, 0, 0, 0 -28" transform="rotate(180,348,376)"/><path d="M 362 362v 28h 28v -14a 14 14, 0, 0, 0, -14 -14" transform="rotate(0,376,376)"/><circle cx="460" cy="376" r="14" transform="rotate(0,460,376)"/><rect x="502" y="362" width="28" height="28" transform="rotate(0,516,376)"/><path d="M 530 362v 28h 28v -14a 14 14, 0, 0, 0, -14 -14" transform="rotate(90,544,376)"/><rect x="614" y="362" width="28" height="28" transform="rotate(0,628,376)"/><path d="M 642 362v 28h 14a 14 14, 0, 0, 0, 0 -28" transform="rotate(0,656,376)"/><path d="M 754 362v 28h 14a 14 14, 0, 0, 0, 0 -28" transform="rotate(-90,768,376)"/><path d="M 838 362v 28h 14a 14 14, 0, 0, 0, 0 -28" transform="rotate(90,852,376)"/><rect x="922" y="362" width="28" height="28" transform="rotate(0,936,376)"/><path d="M 950 362v 28h 28v -14a 14 14, 0, 0, 0, -14 -14" transform="rotate(0,964,376)"/><rect x="1146" y="362" width="28" height="28" transform="rotate(0,1160,376)"/><circle cx="40" cy="404" r="14" transform="rotate(0,40,404)"/><rect x="110" y="390" width="28" height="28" transform="rotate(0,124,404)"/><rect x="222" y="390" width="28" height="28" transform="rotate(0,236,404)"/><path d="M 278 390v 28h 14a 14 14, 0, 0, 0, 0 -28" transform="rotate(90,292,404)"/><rect x="362" y="390" width="28" height="28" transform="rotate(0,376,404)"/><circle cx="432" cy="404" r="14" transform="rotate(0,432,404)"/><rect x="502" y="390" width="28" height="28" transform="rotate(0,516,404)"/><path d="M 614 390v 28h 14a 14 14, 0, 0, 0, 0 -28" transform="rotate(90,628,404)"/><path d="M 698 390v 28h 28v -14a 14 14, 0, 0, 0, -14 -14" transform="rotate(-90,712,404)"/><rect x="726" y="390" width="28" height="28" transform="rotate(0,740,404)"/><rect x="754" y="390" width="28" height="28" transform="rotate(0,768,404)"/><path d="M 810 390v 28h 14a 14 14, 0, 0, 0, 0 -28" transform="rotate(-90,824,404)"/><path d="M 894 390v 28h 14a 14 14, 0, 0, 0, 0 -28" transform="rotate(180,908,404)"/><rect x="922" y="390" width="28" height="28" transform="rotate(0,936,404)"/><rect x="950" y="390" width="28" height="28" transform="rotate(0,964,404)"/><rect x="978" y="390" width="28" height="28" transform="rotate(0,992,404)"/><rect x="1006" y="390" width="28" height="28" transform="rotate(0,1020,404)"/><rect x="1034" y="390" width="28" height="28" transform="rotate(0,1048,404)"/><rect x="1062" y="390" width="28" height="28" transform="rotate(0,1076,404)"/><path d="M 1090 390v 28h 28v -14a 14 14, 0, 0, 0, -14 -14" transform="rotate(0,1104,404)"/><rect x="1146" y="390" width="28" height="28" transform="rotate(0,1160,404)"/><path d="M 54 418v 28h 14a 14 14, 0, 0, 0, 0 -28" transform="rotate(-90,68,432)"/><path d="M 110 418v 28h 14a 14 14, 0, 0, 0, 0 -28" transform="rotate(90,124,432)"/><path d="M 166 418v 28h 14a 14 14, 0, 0, 0, 0 -28" transform="rotate(180,180,432)"/><rect x="194" y="418" width="28" height="28" transform="rotate(0,208,432)"/><path d="M 222 418v 28h 28v -14a 14 14, 0, 0, 0, -14 -14" transform="rotate(90,236,432)"/><path d="M 362 418v 28h 14a 14 14, 0, 0, 0, 0 -28" transform="rotate(90,376,432)"/><path d="M 502 418v 28h 28v -14a 14 14, 0, 0, 0, -14 -14" transform="rotate(180,516,432)"/><rect x="530" y="418" width="28" height="28" transform="rotate(0,544,432)"/><path d="M 558 418v 28h 28v -14a 14 14, 0, 0, 0, -14 -14" transform="rotate(0,572,432)"/><path d="M 642 418v 28h 28v -14a 14 14, 0, 0, 0, -14 -14" transform="rotate(-90,656,432)"/><rect x="670" y="418" width="28" height="28" transform="rotate(0,684,432)"/><rect x="698" y="418" width="28" height="28" transform="rotate(0,712,432)"/><rect x="726" y="418" width="28" height="28" transform="rotate(0,740,432)"/><path d="M 754 418v 28h 28v -14a 14 14, 0, 0, 0, -14 -14" transform="rotate(90,768,432)"/><path d="M 810 418v 28h 14a 14 14, 0, 0, 0, 0 -28" transform="rotate(90,824,432)"/><rect x="922" y="418" width="28" height="28" transform="rotate(0,936,432)"/><rect x="950" y="418" width="28" height="28" transform="rotate(0,964,432)"/><path d="M 978 418v 28h 28v -14a 14 14, 0, 0, 0, -14 -14" transform="rotate(90,992,432)"/><rect x="1034" y="418" width="28" height="28" transform="rotate(0,1048,432)"/><rect x="1062" y="418" width="28" height="28" transform="rotate(0,1076,432)"/><path d="M 1090 418v 28h 28v -14a 14 14, 0, 0, 0, -14 -14" transform="rotate(90,1104,432)"/><path d="M 1146 418v 28h 14a 14 14, 0, 0, 0, 0 -28" transform="rotate(90,1160,432)"/><rect x="54" y="446" width="28" height="28" transform="rotate(0,68,460)"/><circle cx="152" cy="460" r="14" transform="rotate(0,152,460)"/><circle cx="264" cy="460" r="14" transform="rotate(0,264,460)"/><path d="M 306 446v 28h 14a 14 14, 0, 0, 0, 0 -28" transform="rotate(180,320,460)"/><path d="M 334 446v 28h 28v -14a 14 14, 0, 0, 0, -14 -14" transform="rotate(0,348,460)"/><circle cx="404" cy="460" r="14" transform="rotate(0,404,460)"/><circle cx="488" cy="460" r="14" transform="rotate(0,488,460)"/><path d="M 530 446v 28h 28v -14a 14 14, 0, 0, 0, -14 -14" transform="rotate(180,544,460)"/><rect x="558" y="446" width="28" height="28" transform="rotate(0,572,460)"/><path d="M 642 446v 28h 28v -14a 14 14, 0, 0, 0, -14 -14" transform="rotate(180,656,460)"/><path d="M 670 446v 28h 28v -14a 14 14, 0, 0, 0, -14 -14" transform="rotate(90,684,460)"/><path d="M 838 446v 28h 14a 14 14, 0, 0, 0, 0 -28" transform="rotate(-90,852,460)"/><rect x="922" y="446" width="28" height="28" transform="rotate(0,936,460)"/><path d="M 1034 446v 28h 28v -14a 14 14, 0, 0, 0, -14 -14" transform="rotate(180,1048,460)"/><rect x="1062" y="446" width="28" height="28" transform="rotate(0,1076,460)"/><path d="M 1118 446v 28h 14a 14 14, 0, 0, 0, 0 -28" transform="rotate(-90,1132,460)"/><path d="M 26 474v 28h 28v -14a 14 14, 0, 0, 0, -14 -14" transform="rotate(-90,40,488)"/><path d="M 54 474v 28h 28v -14a 14 14, 0, 0, 0, -14 -14" transform="rotate(90,68,488)"/><path d="M 110 474v 28h 14a 14 14, 0, 0, 0, 0 -28" transform="rotate(-90,124,488)"/><path d="M 194 474v 28h 14a 14 14, 0, 0, 0, 0 -28" transform="rotate(180,208,488)"/><path d="M 222 474v 28h 14a 14 14, 0, 0, 0, 0 -28" transform="rotate(0,236,488)"/><rect x="334" y="474" width="28" height="28" transform="rotate(0,348,488)"/><path d="M 362 474v 28h 14a 14 14, 0, 0, 0, 0 -28" transform="rotate(0,376,488)"/><path d="M 446 474v 28h 14a 14 14, 0, 0, 0, 0 -28" transform="rotate(-90,460,488)"/><path d="M 502 474v 28h 14a 14 14, 0, 0, 0, 0 -28" transform="rotate(-90,516,488)"/><path d="M 558 474v 28h 14a 14 14, 0, 0, 0, 0 -28" transform="rotate(90,572,488)"/><path d="M 614 474v 28h 14a 14 14, 0, 0, 0, 0 -28" transform="rotate(-90,628,488)"/><circle cx="712" cy="488" r="14" transform="rotate(0,712,488)"/><path d="M 754 474v 28h 28v -14a 14 14, 0, 0, 0, -14 -14" transform="rotate(-90,768,488)"/><path d="M 782 474v 28h 28v -14a 14 14, 0, 0, 0, -14 -14" transform="rotate(0,796,488)"/><path d="M 838 474v 28h 14a 14 14, 0, 0, 0, 0 -28" transform="rotate(90,852,488)"/><path d="M 894 474v 28h 14a 14 14, 0, 0, 0, 0 -28" transform="rotate(180,908,488)"/><path d="M 922 474v 28h 28v -14a 14 14, 0, 0, 0, -14 -14" transform="rotate(90,936,488)"/><path d="M 1006 474v 28h 14a 14 14, 0, 0, 0, 0 -28" transform="rotate(-90,1020,488)"/><path d="M 1062 474v 28h 14a 14 14, 0, 0, 0, 0 -28" transform="rotate(90,1076,488)"/><path d="M 1118 474v 28h 14a 14 14, 0, 0, 0, 0 -28" transform="rotate(90,1132,488)"/><path d="M 26 502v 28h 14a 14 14, 0, 0, 0, 0 -28" transform="rotate(90,40,516)"/><path d="M 82 502v 28h 14a 14 14, 0, 0, 0, 0 -28" transform="rotate(180,96,516)"/><rect x="110" y="502" width="28" height="28" transform="rotate(0,124,516)"/><rect x="138" y="502" width="28" height="28" transform="rotate(0,152,516)"/><path d="M 166 502v 28h 14a 14 14, 0, 0, 0, 0 -28" transform="rotate(0,180,516)"/><path d="M 278 502v 28h 14a 14 14, 0, 0, 0, 0 -28" transform="rotate(-90,292,516)"/><rect x="334" y="502" width="28" height="28" transform="rotate(0,348,516)"/><path d="M 418 502v 28h 14a 14 14, 0, 0, 0, 0 -28" transform="rotate(180,432,516)"/><path d="M 446 502v 28h 28v -14a 14 14, 0, 0, 0, -14 -14" transform="rotate(90,460,516)"/><rect x="502" y="502" width="28" height="28" transform="rotate(0,516,516)"/><path d="M 586 502v 28h 14a 14 14, 0, 0, 0, 0 -28" transform="rotate(180,600,516)"/><rect x="614" y="502" width="28" height="28" transform="rotate(0,628,516)"/><path d="M 670 502v 28h 14a 14 14, 0, 0, 0, 0 -28" transform="rotate(-90,684,516)"/><rect x="754" y="502" width="28" height="28" transform="rotate(0,768,516)"/><rect x="782" y="502" width="28" height="28" transform="rotate(0,796,516)"/><path d="M 950 502v 28h 28v -14a 14 14, 0, 0, 0, -14 -14" transform="rotate(-90,964,516)"/><rect x="978" y="502" width="28" height="28" transform="rotate(0,992,516)"/><rect x="1006" y="502" width="28" height="28" transform="rotate(0,1020,516)"/><path d="M 1034 502v 28h 14a 14 14, 0, 0, 0, 0 -28" transform="rotate(0,1048,516)"/><circle cx="1104" cy="516" r="14" transform="rotate(0,1104,516)"/><path d="M 1146 502v 28h 14a 14 14, 0, 0, 0, 0 -28" transform="rotate(-90,1160,516)"/><path d="M 54 530v 28h 14a 14 14, 0, 0, 0, 0 -28" transform="rotate(-90,68,544)"/><rect x="138" y="530" width="28" height="28" transform="rotate(0,152,544)"/><path d="M 194 530v 28h 14a 14 14, 0, 0, 0, 0 -28" transform="rotate(180,208,544)"/><path d="M 222 530v 28h 14a 14 14, 0, 0, 0, 0 -28" transform="rotate(0,236,544)"/><rect x="278" y="530" width="28" height="28" transform="rotate(0,292,544)"/><path d="M 334 530v 28h 28v -14a 14 14, 0, 0, 0, -14 -14" transform="rotate(180,348,544)"/><rect x="362" y="530" width="28" height="28" transform="rotate(0,376,544)"/><path d="M 390 530v 28h 14a 14 14, 0, 0, 0, 0 -28" transform="rotate(0,404,544)"/><path d="M 502 530v 28h 28v -14a 14 14, 0, 0, 0, -14 -14" transform="rotate(180,516,544)"/><path d="M 530 530v 28h 14a 14 14, 0, 0, 0, 0 -28" transform="rotate(0,544,544)"/><path d="M 614 530v 28h 28v -14a 14 14, 0, 0, 0, -14 -14" transform="rotate(180,628,544)"/><rect x="642" y="530" width="28" height="28" transform="rotate(0,656,544)"/><rect x="670" y="530" width="28" height="28" transform="rotate(0,684,544)"/><rect x="698" y="530" width="28" height="28" transform="rotate(0,712,544)"/><rect x="726" y="530" width="28" height="28" transform="rotate(0,740,544)"/><rect x="754" y="530" width="28" height="28" transform="rotate(0,768,544)"/><rect x="782" y="530" width="28" height="28" transform="rotate(0,796,544)"/><rect x="810" y="530" width="28" height="28" transform="rotate(0,824,544)"/><path d="M 838 530v 28h 28v -14a 14 14, 0, 0, 0, -14 -14" transform="rotate(0,852,544)"/><path d="M 950 530v 28h 14a 14 14, 0, 0, 0, 0 -28" transform="rotate(90,964,544)"/><rect x="1006" y="530" width="28" height="28" transform="rotate(0,1020,544)"/><path d="M 1062 530v 28h 14a 14 14, 0, 0, 0, 0 -28" transform="rotate(-90,1076,544)"/><path d="M 1146 530v 28h 14a 14 14, 0, 0, 0, 0 -28" transform="rotate(90,1160,544)"/><rect x="54" y="558" width="28" height="28" transform="rotate(0,68,572)"/><rect x="138" y="558" width="28" height="28" transform="rotate(0,152,572)"/><path d="M 250 558v 28h 28v -14a 14 14, 0, 0, 0, -14 -14" transform="rotate(-90,264,572)"/><rect x="278" y="558" width="28" height="28" transform="rotate(0,292,572)"/><path d="M 306 558v 28h 28v -14a 14 14, 0, 0, 0, -14 -14" transform="rotate(0,320,572)"/><rect x="362" y="558" width="28" height="28" transform="rotate(0,376,572)"/><path d="M 418 558v 28h 14a 14 14, 0, 0, 0, 0 -28" transform="rotate(180,432,572)"/><rect x="446" y="558" width="28" height="28" transform="rotate(0,460,572)"/><path d="M 474 558v 28h 14a 14 14, 0, 0, 0, 0 -28" transform="rotate(0,488,572)"/><path d="M 558 558v 28h 14a 14 14, 0, 0, 0, 0 -28" transform="rotate(-90,572,572)"/><rect x="670" y="558" width="28" height="28" transform="rotate(0,684,572)"/><rect x="726" y="558" width="28" height="28" transform="rotate(0,740,572)"/><rect x="810" y="558" width="28" height="28" transform="rotate(0,824,572)"/><rect x="838" y="558" width="28" height="28" transform="rotate(0,852,572)"/><path d="M 866 558v 28h 28v -14a 14 14, 0, 0, 0, -14 -14" transform="rotate(0,880,572)"/><path d="M 978 558v 28h 14a 14 14, 0, 0, 0, 0 -28" transform="rotate(180,992,572)"/><path d="M 1006 558v 28h 28v -14a 14 14, 0, 0, 0, -14 -14" transform="rotate(90,1020,572)"/><path d="M 1062 558v 28h 14a 14 14, 0, 0, 0, 0 -28" transform="rotate(90,1076,572)"/><path d="M 1118 558v 28h 14a 14 14, 0, 0, 0, 0 -28" transform="rotate(-90,1132,572)"/><path d="M 54 586v 28h 14a 14 14, 0, 0, 0, 0 -28" transform="rotate(90,68,600)"/><path d="M 110 586v 28h 28v -14a 14 14, 0, 0, 0, -14 -14" transform="rotate(-90,124,600)"/><rect x="138" y="586" width="28" height="28" transform="rotate(0,152,600)"/><rect x="166" y="586" width="28" height="28" transform="rotate(0,180,600)"/><path d="M 194 586v 28h 14a 14 14, 0, 0, 0, 0 -28" transform="rotate(0,208,600)"/><path d="M 250 586v 28h 14a 14 14, 0, 0, 0, 0 -28" transform="rotate(90,264,600)"/><path d="M 306 586v 28h 28v -14a 14 14, 0, 0, 0, -14 -14" transform="rotate(180,320,600)"/><rect x="334" y="586" width="28" height="28" transform="rotate(0,348,600)"/><rect x="362" y="586" width="28" height="28" transform="rotate(0,376,600)"/><path d="M 390 586v 28h 14a 14 14, 0, 0, 0, 0 -28" transform="rotate(0,404,600)"/><rect x="446" y="586" width="28" height="28" transform="rotate(0,460,600)"/><path d="M 502 586v 28h 14a 14 14, 0, 0, 0, 0 -28" transform="rotate(180,516,600)"/><rect x="530" y="586" width="28" height="28" transform="rotate(0,544,600)"/><rect x="558" y="586" width="28" height="28" transform="rotate(0,572,600)"/><rect x="586" y="586" width="28" height="28" transform="rotate(0,600,600)"/><path d="M 614 586v 28h 14a 14 14, 0, 0, 0, 0 -28" transform="rotate(0,628,600)"/><rect x="670" y="586" width="28" height="28" transform="rotate(0,684,600)"/><rect x="698" y="586" width="28" height="28" transform="rotate(0,712,600)"/><rect x="726" y="586" width="28" height="28" transform="rotate(0,740,600)"/><rect x="810" y="586" width="28" height="28" transform="rotate(0,824,600)"/><path d="M 866 586v 28h 14a 14 14, 0, 0, 0, 0 -28" transform="rotate(90,880,600)"/><path d="M 922 586v 28h 14a 14 14, 0, 0, 0, 0 -28" transform="rotate(180,936,600)"/><path d="M 950 586v 28h 14a 14 14, 0, 0, 0, 0 -28" transform="rotate(0,964,600)"/><path d="M 1118 586v 28h 28v -14a 14 14, 0, 0, 0, -14 -14" transform="rotate(180,1132,600)"/><path d="M 1146 586v 28h 28v -14a 14 14, 0, 0, 0, -14 -14" transform="rotate(0,1160,600)"/><rect x="110" y="614" width="28" height="28" transform="rotate(0,124,628)"/><rect x="138" y="614" width="28" height="28" transform="rotate(0,152,628)"/><path d="M 166 614v 28h 28v -14a 14 14, 0, 0, 0, -14 -14" transform="rotate(90,180,628)"/><path d="M 418 614v 28h 14a 14 14, 0, 0, 0, 0 -28" transform="rotate(180,432,628)"/><rect x="446" y="614" width="28" height="28" transform="rotate(0,460,628)"/><path d="M 474 614v 28h 14a 14 14, 0, 0, 0, 0 -28" transform="rotate(0,488,628)"/><path d="M 530 614v 28h 14a 14 14, 0, 0, 0, 0 -28" transform="rotate(90,544,628)"/><rect x="586" y="614" width="28" height="28" transform="rotate(0,600,628)"/><path d="M 642 614v 28h 14a 14 14, 0, 0, 0, 0 -28" transform="rotate(180,656,628)"/><rect x="670" y="614" width="28" height="28" transform="rotate(0,684,628)"/><path d="M 726 614v 28h 28v -14a 14 14, 0, 0, 0, -14 -14" transform="rotate(180,740,628)"/><rect x="754" y="614" width="28" height="28" transform="rotate(0,768,628)"/><rect x="782" y="614" width="28" height="28" transform="rotate(0,796,628)"/><path d="M 810 614v 28h 28v -14a 14 14, 0, 0, 0, -14 -14" transform="rotate(90,824,628)"/><path d="M 978 614v 28h 14a 14 14, 0, 0, 0, 0 -28" transform="rotate(180,992,628)"/><rect x="1006" y="614" width="28" height="28" transform="rotate(0,1020,628)"/><path d="M 1034 614v 28h 14a 14 14, 0, 0, 0, 0 -28" transform="rotate(0,1048,628)"/><rect x="1146" y="614" width="28" height="28" transform="rotate(0,1160,628)"/><path d="M 26 642v 28h 14a 14 14, 0, 0, 0, 0 -28" transform="rotate(-90,40,656)"/><path d="M 82 642v 28h 14a 14 14, 0, 0, 0, 0 -28" transform="rotate(180,96,656)"/><path d="M 110 642v 28h 28v -14a 14 14, 0, 0, 0, -14 -14" transform="rotate(90,124,656)"/><circle cx="208" cy="656" r="14" transform="rotate(0,208,656)"/><path d="M 306 642v 28h 14a 14 14, 0, 0, 0, 0 -28" transform="rotate(180,320,656)"/><rect x="334" y="642" width="28" height="28" transform="rotate(0,348,656)"/><path d="M 362 642v 28h 14a 14 14, 0, 0, 0, 0 -28" transform="rotate(0,376,656)"/><path d="M 446 642v 28h 14a 14 14, 0, 0, 0, 0 -28" transform="rotate(90,460,656)"/><path d="M 558 642v 28h 28v -14a 14 14, 0, 0, 0, -14 -14" transform="rotate(-90,572,656)"/><path d="M 586 642v 28h 28v -14a 14 14, 0, 0, 0, -14 -14" transform="rotate(90,600,656)"/><path d="M 670 642v 28h 14a 14 14, 0, 0, 0, 0 -28" transform="rotate(90,684,656)"/><rect x="754" y="642" width="28" height="28" transform="rotate(0,768,656)"/><rect x="782" y="642" width="28" height="28" transform="rotate(0,796,656)"/><path d="M 838 642v 28h 28v -14a 14 14, 0, 0, 0, -14 -14" transform="rotate(-90,852,656)"/><path d="M 866 642v 28h 28v -14a 14 14, 0, 0, 0, -14 -14" transform="rotate(0,880,656)"/><circle cx="936" cy="656" r="14" transform="rotate(0,936,656)"/><rect x="1146" y="642" width="28" height="28" transform="rotate(0,1160,656)"/><rect x="26" y="670" width="28" height="28" transform="rotate(0,40,684)"/><path d="M 54 670v 28h 14a 14 14, 0, 0, 0, 0 -28" transform="rotate(0,68,684)"/><circle cx="180" cy="684" r="14" transform="rotate(0,180,684)"/><rect x="334" y="670" width="28" height="28" transform="rotate(0,348,684)"/><path d="M 390 670v 28h 14a 14 14, 0, 0, 0, 0 -28" transform="rotate(180,404,684)"/><path d="M 418 670v 28h 28v -14a 14 14, 0, 0, 0, -14 -14" transform="rotate(0,432,684)"/><path d="M 558 670v 28h 14a 14 14, 0, 0, 0, 0 -28" transform="rotate(90,572,684)"/><path d="M 614 670v 28h 14a 14 14, 0, 0, 0, 0 -28" transform="rotate(-90,628,684)"/><circle cx="712" cy="684" r="14" transform="rotate(0,712,684)"/><path d="M 754 670v 28h 28v -14a 14 14, 0, 0, 0, -14 -14" transform="rotate(180,768,684)"/><rect x="782" y="670" width="28" height="28" transform="rotate(0,796,684)"/><rect x="810" y="670" width="28" height="28" transform="rotate(0,824,684)"/><rect x="838" y="670" width="28" height="28" transform="rotate(0,852,684)"/><rect x="866" y="670" width="28" height="28" transform="rotate(0,880,684)"/><path d="M 894 670v 28h 28v -14a 14 14, 0, 0, 0, -14 -14" transform="rotate(0,908,684)"/><path d="M 950 670v 28h 14a 14 14, 0, 0, 0, 0 -28" transform="rotate(180,964,684)"/><rect x="978" y="670" width="28" height="28" transform="rotate(0,992,684)"/><rect x="1006" y="670" width="28" height="28" transform="rotate(0,1020,684)"/><rect x="1034" y="670" width="28" height="28" transform="rotate(0,1048,684)"/><path d="M 1062 670v 28h 28v -14a 14 14, 0, 0, 0, -14 -14" transform="rotate(0,1076,684)"/><path d="M 1118 670v 28h 14a 14 14, 0, 0, 0, 0 -28" transform="rotate(180,1132,684)"/><path d="M 1146 670v 28h 28v -14a 14 14, 0, 0, 0, -14 -14" transform="rotate(90,1160,684)"/><rect x="26" y="698" width="28" height="28" transform="rotate(0,40,712)"/><path d="M 82 698v 28h 14a 14 14, 0, 0, 0, 0 -28" transform="rotate(-90,96,712)"/><path d="M 138 698v 28h 14a 14 14, 0, 0, 0, 0 -28" transform="rotate(-90,152,712)"/><circle cx="208" cy="712" r="14" transform="rotate(0,208,712)"/><circle cx="264" cy="712" r="14" transform="rotate(0,264,712)"/><path d="M 306 698v 28h 14a 14 14, 0, 0, 0, 0 -28" transform="rotate(180,320,712)"/><path d="M 334 698v 28h 28v -14a 14 14, 0, 0, 0, -14 -14" transform="rotate(90,348,712)"/><path d="M 418 698v 28h 28v -14a 14 14, 0, 0, 0, -14 -14" transform="rotate(180,432,712)"/><rect x="446" y="698" width="28" height="28" transform="rotate(0,460,712)"/><path d="M 474 698v 28h 28v -14a 14 14, 0, 0, 0, -14 -14" transform="rotate(0,488,712)"/><path d="M 586 698v 28h 14a 14 14, 0, 0, 0, 0 -28" transform="rotate(180,600,712)"/><path d="M 614 698v 28h 28v -14a 14 14, 0, 0, 0, -14 -14" transform="rotate(90,628,712)"/><path d="M 670 698v 28h 14a 14 14, 0, 0, 0, 0 -28" transform="rotate(-90,684,712)"/><rect x="810" y="698" width="28" height="28" transform="rotate(0,824,712)"/><path d="M 838 698v 28h 28v -14a 14 14, 0, 0, 0, -14 -14" transform="rotate(90,852,712)"/><path d="M 894 698v 28h 28v -14a 14 14, 0, 0, 0, -14 -14" transform="rotate(180,908,712)"/><path d="M 922 698v 28h 28v -14a 14 14, 0, 0, 0, -14 -14" transform="rotate(0,936,712)"/><path d="M 1062 698v 28h 14a 14 14, 0, 0, 0, 0 -28" transform="rotate(90,1076,712)"/><path d="M 26 726v 28h 28v -14a 14 14, 0, 0, 0, -14 -14" transform="rotate(180,40,740)"/><rect x="54" y="726" width="28" height="28" transform="rotate(0,68,740)"/><rect x="82" y="726" width="28" height="28" transform="rotate(0,96,740)"/><rect x="110" y="726" width="28" height="28" transform="rotate(0,124,740)"/><path d="M 138 726v 28h 28v -14a 14 14, 0, 0, 0, -14 -14" transform="rotate(90,152,740)"/><circle cx="236" cy="740" r="14" transform="rotate(0,236,740)"/><path d="M 362 726v 28h 14a 14 14, 0, 0, 0, 0 -28" transform="rotate(180,376,740)"/><path d="M 390 726v 28h 28v -14a 14 14, 0, 0, 0, -14 -14" transform="rotate(0,404,740)"/><path d="M 474 726v 28h 14a 14 14, 0, 0, 0, 0 -28" transform="rotate(90,488,740)"/><rect x="670" y="726" width="28" height="28" transform="rotate(0,684,740)"/><path d="M 754 726v 28h 28v -14a 14 14, 0, 0, 0, -14 -14" transform="rotate(-90,768,740)"/><rect x="782" y="726" width="28" height="28" transform="rotate(0,796,740)"/><rect x="810" y="726" width="28" height="28" transform="rotate(0,824,740)"/><path d="M 866 726v 28h 14a 14 14, 0, 0, 0, 0 -28" transform="rotate(-90,880,740)"/><rect x="922" y="726" width="28" height="28" transform="rotate(0,936,740)"/><path d="M 978 726v 28h 28v -14a 14 14, 0, 0, 0, -14 -14" transform="rotate(-90,992,740)"/><rect x="1006" y="726" width="28" height="28" transform="rotate(0,1020,740)"/><path d="M 1034 726v 28h 28v -14a 14 14, 0, 0, 0, -14 -14" transform="rotate(0,1048,740)"/><path d="M 1090 726v 28h 14a 14 14, 0, 0, 0, 0 -28" transform="rotate(180,1104,740)"/><rect x="1118" y="726" width="28" height="28" transform="rotate(0,1132,740)"/><path d="M 1146 726v 28h 28v -14a 14 14, 0, 0, 0, -14 -14" transform="rotate(0,1160,740)"/><path d="M 82 754v 28h 28v -14a 14 14, 0, 0, 0, -14 -14" transform="rotate(180,96,768)"/><path d="M 110 754v 28h 28v -14a 14 14, 0, 0, 0, -14 -14" transform="rotate(90,124,768)"/><path d="M 166 754v 28h 28v -14a 14 14, 0, 0, 0, -14 -14" transform="rotate(-90,180,768)"/><path d="M 194 754v 28h 14a 14 14, 0, 0, 0, 0 -28" transform="rotate(0,208,768)"/><circle cx="292" cy="768" r="14" transform="rotate(0,292,768)"/><rect x="390" y="754" width="28" height="28" transform="rotate(0,404,768)"/><path d="M 530 754v 28h 14a 14 14, 0, 0, 0, 0 -28" transform="rotate(-90,544,768)"/><path d="M 586 754v 28h 14a 14 14, 0, 0, 0, 0 -28" transform="rotate(-90,600,768)"/><rect x="670" y="754" width="28" height="28" transform="rotate(0,684,768)"/><rect x="754" y="754" width="28" height="28" transform="rotate(0,768,768)"/><rect x="782" y="754" width="28" height="28" transform="rotate(0,796,768)"/><rect x="810" y="754" width="28" height="28" transform="rotate(0,824,768)"/><rect x="838" y="754" width="28" height="28" transform="rotate(0,852,768)"/><path d="M 866 754v 28h 28v -14a 14 14, 0, 0, 0, -14 -14" transform="rotate(90,880,768)"/><rect x="922" y="754" width="28" height="28" transform="rotate(0,936,768)"/><rect x="978" y="754" width="28" height="28" transform="rotate(0,992,768)"/><path d="M 1034 754v 28h 14a 14 14, 0, 0, 0, 0 -28" transform="rotate(90,1048,768)"/><path d="M 1146 754v 28h 14a 14 14, 0, 0, 0, 0 -28" transform="rotate(90,1160,768)"/><path d="M 26 782v 28h 14a 14 14, 0, 0, 0, 0 -28" transform="rotate(-90,40,796)"/><rect x="166" y="782" width="28" height="28" transform="rotate(0,180,796)"/><path d="M 250 782v 28h 14a 14 14, 0, 0, 0, 0 -28" transform="rotate(-90,264,796)"/><path d="M 306 782v 28h 14a 14 14, 0, 0, 0, 0 -28" transform="rotate(180,320,796)"/><path d="M 334 782v 28h 14a 14 14, 0, 0, 0, 0 -28" transform="rotate(0,348,796)"/><path d="M 390 782v 28h 28v -14a 14 14, 0, 0, 0, -14 -14" transform="rotate(180,404,796)"/><path d="M 418 782v 28h 28v -14a 14 14, 0, 0, 0, -14 -14" transform="rotate(0,432,796)"/><path d="M 502 782v 28h 14a 14 14, 0, 0, 0, 0 -28" transform="rotate(180,516,796)"/><rect x="530" y="782" width="28" height="28" transform="rotate(0,544,796)"/><path d="M 586 782v 28h 14a 14 14, 0, 0, 0, 0 -28" transform="rotate(90,600,796)"/><path d="M 642 782v 28h 14a 14 14, 0, 0, 0, 0 -28" transform="rotate(180,656,796)"/><rect x="670" y="782" width="28" height="28" transform="rotate(0,684,796)"/><path d="M 698 782v 28h 28v -14a 14 14, 0, 0, 0, -14 -14" transform="rotate(0,712,796)"/><path d="M 754 782v 28h 28v -14a 14 14, 0, 0, 0, -14 -14" transform="rotate(180,768,796)"/><path d="M 782 782v 28h 28v -14a 14 14, 0, 0, 0, -14 -14" transform="rotate(90,796,796)"/><rect x="838" y="782" width="28" height="28" transform="rotate(0,852,796)"/><path d="M 894 782v 28h 14a 14 14, 0, 0, 0, 0 -28" transform="rotate(180,908,796)"/><rect x="922" y="782" width="28" height="28" transform="rotate(0,936,796)"/><path d="M 978 782v 28h 28v -14a 14 14, 0, 0, 0, -14 -14" transform="rotate(180,992,796)"/><path d="M 1006 782v 28h 14a 14 14, 0, 0, 0, 0 -28" transform="rotate(0,1020,796)"/><circle cx="1076" cy="796" r="14" transform="rotate(0,1076,796)"/><path d="M 1118 782v 28h 14a 14 14, 0, 0, 0, 0 -28" transform="rotate(-90,1132,796)"/><rect x="26" y="810" width="28" height="28" transform="rotate(0,40,824)"/><path d="M 54 810v 28h 14a 14 14, 0, 0, 0, 0 -28" transform="rotate(0,68,824)"/><path d="M 110 810v 28h 14a 14 14, 0, 0, 0, 0 -28" transform="rotate(-90,124,824)"/><path d="M 166 810v 28h 28v -14a 14 14, 0, 0, 0, -14 -14" transform="rotate(180,180,824)"/><rect x="194" y="810" width="28" height="28" transform="rotate(0,208,824)"/><rect x="222" y="810" width="28" height="28" transform="rotate(0,236,824)"/><rect x="250" y="810" width="28" height="28" transform="rotate(0,264,824)"/><path d="M 278 810v 28h 14a 14 14, 0, 0, 0, 0 -28" transform="rotate(0,292,824)"/><circle cx="376" cy="824" r="14" transform="rotate(0,376,824)"/><rect x="418" y="810" width="28" height="28" transform="rotate(0,432,824)"/><circle cx="488" cy="824" r="14" transform="rotate(0,488,824)"/><rect x="530" y="810" width="28" height="28" transform="rotate(0,544,824)"/><path d="M 614 810v 28h 14a 14 14, 0, 0, 0, 0 -28" transform="rotate(-90,628,824)"/><path d="M 670 810v 28h 28v -14a 14 14, 0, 0, 0, -14 -14" transform="rotate(180,684,824)"/><path d="M 698 810v 28h 28v -14a 14 14, 0, 0, 0, -14 -14" transform="rotate(90,712,824)"/><path d="M 810 810v 28h 14a 14 14, 0, 0, 0, 0 -28" transform="rotate(180,824,824)"/><path d="M 838 810v 28h 28v -14a 14 14, 0, 0, 0, -14 -14" transform="rotate(90,852,824)"/><path d="M 922 810v 28h 28v -14a 14 14, 0, 0, 0, -14 -14" transform="rotate(180,936,824)"/><path d="M 950 810v 28h 28v -14a 14 14, 0, 0, 0, -14 -14" transform="rotate(0,964,824)"/><rect x="1118" y="810" width="28" height="28" transform="rotate(0,1132,824)"/><path d="M 1146 810v 28h 28v -14a 14 14, 0, 0, 0, -14 -14" transform="rotate(0,1160,824)"/><path d="M 26 838v 28h 14a 14 14, 0, 0, 0, 0 -28" transform="rotate(90,40,852)"/><path d="M 82 838v 28h 14a 14 14, 0, 0, 0, 0 -28" transform="rotate(180,96,852)"/><path d="M 110 838v 28h 28v -14a 14 14, 0, 0, 0, -14 -14" transform="rotate(90,124,852)"/><rect x="222" y="838" width="28" height="28" transform="rotate(0,236,852)"/><path d="M 250 838v 28h 28v -14a 14 14, 0, 0, 0, -14 -14" transform="rotate(90,264,852)"/><path d="M 306 838v 28h 28v -14a 14 14, 0, 0, 0, -14 -14" transform="rotate(-90,320,852)"/><path d="M 334 838v 28h 14a 14 14, 0, 0, 0, 0 -28" transform="rotate(0,348,852)"/><path d="M 418 838v 28h 28v -14a 14 14, 0, 0, 0, -14 -14" transform="rotate(180,432,852)"/><path d="M 446 838v 28h 28v -14a 14 14, 0, 0, 0, -14 -14" transform="rotate(0,460,852)"/><rect x="530" y="838" width="28" height="28" transform="rotate(0,544,852)"/><rect x="614" y="838" width="28" height="28" transform="rotate(0,628,852)"/><path d="M 642 838v 28h 14a 14 14, 0, 0, 0, 0 -28" transform="rotate(0,656,852)"/><circle cx="880" cy="852" r="14" transform="rotate(0,880,852)"/><rect x="950" y="838" width="28" height="28" transform="rotate(0,964,852)"/><path d="M 978 838v 28h 14a 14 14, 0, 0, 0, 0 -28" transform="rotate(0,992,852)"/><circle cx="1048" cy="852" r="14" transform="rotate(0,1048,852)"/><path d="M 1118 838v 28h 28v -14a 14 14, 0, 0, 0, -14 -14" transform="rotate(180,1132,852)"/><rect x="1146" y="838" width="28" height="28" transform="rotate(0,1160,852)"/><circle cx="152" cy="880" r="14" transform="rotate(0,152,880)"/><path d="M 194 866v 28h 14a 14 14, 0, 0, 0, 0 -28" transform="rotate(180,208,880)"/><path d="M 222 866v 28h 28v -14a 14 14, 0, 0, 0, -14 -14" transform="rotate(90,236,880)"/><rect x="306" y="866" width="28" height="28" transform="rotate(0,320,880)"/><path d="M 362 866v 28h 14a 14 14, 0, 0, 0, 0 -28" transform="rotate(-90,376,880)"/><rect x="446" y="866" width="28" height="28" transform="rotate(0,460,880)"/><rect x="530" y="866" width="28" height="28" transform="rotate(0,544,880)"/><path d="M 558 866v 28h 28v -14a 14 14, 0, 0, 0, -14 -14" transform="rotate(0,572,880)"/><path d="M 614 866v 28h 14a 14 14, 0, 0, 0, 0 -28" transform="rotate(90,628,880)"/><path d="M 754 866v 28h 28v -14a 14 14, 0, 0, 0, -14 -14" transform="rotate(-90,768,880)"/><path d="M 782 866v 28h 28v -14a 14 14, 0, 0, 0, -14 -14" transform="rotate(0,796,880)"/><rect x="950" y="866" width="28" height="28" transform="rotate(0,964,880)"/><path d="M 1062 866v 28h 28v -14a 14 14, 0, 0, 0, -14 -14" transform="rotate(-90,1076,880)"/><path d="M 1090 866v 28h 14a 14 14, 0, 0, 0, 0 -28" transform="rotate(0,1104,880)"/><rect x="1146" y="866" width="28" height="28" transform="rotate(0,1160,880)"/><path d="M 82 894v 28h 14a 14 14, 0, 0, 0, 0 -28" transform="rotate(180,96,908)"/><path d="M 110 894v 28h 28v -14a 14 14, 0, 0, 0, -14 -14" transform="rotate(0,124,908)"/><path d="M 166 894v 28h 14a 14 14, 0, 0, 0, 0 -28" transform="rotate(-90,180,908)"/><path d="M 250 894v 28h 28v -14a 14 14, 0, 0, 0, -14 -14" transform="rotate(-90,264,908)"/><rect x="278" y="894" width="28" height="28" transform="rotate(0,292,908)"/><rect x="306" y="894" width="28" height="28" transform="rotate(0,320,908)"/><rect x="334" y="894" width="28" height="28" transform="rotate(0,348,908)"/><rect x="362" y="894" width="28" height="28" transform="rotate(0,376,908)"/><rect x="390" y="894" width="28" height="28" transform="rotate(0,404,908)"/><rect x="418" y="894" width="28" height="28" transform="rotate(0,432,908)"/><rect x="446" y="894" width="28" height="28" transform="rotate(0,460,908)"/><path d="M 474 894v 28h 14a 14 14, 0, 0, 0, 0 -28" transform="rotate(0,488,908)"/><rect x="530" y="894" width="28" height="28" transform="rotate(0,544,908)"/><path d="M 558 894v 28h 28v -14a 14 14, 0, 0, 0, -14 -14" transform="rotate(90,572,908)"/><path d="M 698 894v 28h 14a 14 14, 0, 0, 0, 0 -28" transform="rotate(-90,712,908)"/><path d="M 754 894v 28h 28v -14a 14 14, 0, 0, 0, -14 -14" transform="rotate(180,768,908)"/><rect x="782" y="894" width="28" height="28" transform="rotate(0,796,908)"/><rect x="810" y="894" width="28" height="28" transform="rotate(0,824,908)"/><path d="M 838 894v 28h 28v -14a 14 14, 0, 0, 0, -14 -14" transform="rotate(0,852,908)"/><path d="M 894 894v 28h 14a 14 14, 0, 0, 0, 0 -28" transform="rotate(-90,908,908)"/><rect x="950" y="894" width="28" height="28" transform="rotate(0,964,908)"/><path d="M 1034 894v 28h 28v -14a 14 14, 0, 0, 0, -14 -14" transform="rotate(-90,1048,908)"/><rect x="1062" y="894" width="28" height="28" transform="rotate(0,1076,908)"/><rect x="1146" y="894" width="28" height="28" transform="rotate(0,1160,908)"/><path d="M 26 922v 28h 14a 14 14, 0, 0, 0, 0 -28" transform="rotate(180,40,936)"/><path d="M 54 922v 28h 14a 14 14, 0, 0, 0, 0 -28" transform="rotate(0,68,936)"/><path d="M 110 922v 28h 14a 14 14, 0, 0, 0, 0 -28" transform="rotate(90,124,936)"/><path d="M 166 922v 28h 28v -14a 14 14, 0, 0, 0, -14 -14" transform="rotate(180,180,936)"/><rect x="194" y="922" width="28" height="28" transform="rotate(0,208,936)"/><rect x="222" y="922" width="28" height="28" transform="rotate(0,236,936)"/><rect x="250" y="922" width="28" height="28" transform="rotate(0,264,936)"/><rect x="306" y="922" width="28" height="28" transform="rotate(0,320,936)"/><path d="M 362 922v 28h 28v -14a 14 14, 0, 0, 0, -14 -14" transform="rotate(180,376,936)"/><path d="M 390 922v 28h 28v -14a 14 14, 0, 0, 0, -14 -14" transform="rotate(90,404,936)"/><rect x="446" y="922" width="28" height="28" transform="rotate(0,460,936)"/><path d="M 530 922v 28h 14a 14 14, 0, 0, 0, 0 -28" transform="rotate(90,544,936)"/><path d="M 614 922v 28h 14a 14 14, 0, 0, 0, 0 -28" transform="rotate(180,628,936)"/><rect x="642" y="922" width="28" height="28" transform="rotate(0,656,936)"/><rect x="670" y="922" width="28" height="28" transform="rotate(0,684,936)"/><path d="M 698 922v 28h 28v -14a 14 14, 0, 0, 0, -14 -14" transform="rotate(90,712,936)"/><rect x="810" y="922" width="28" height="28" transform="rotate(0,824,936)"/><rect x="838" y="922" width="28" height="28" transform="rotate(0,852,936)"/><rect x="894" y="922" width="28" height="28" transform="rotate(0,908,936)"/><rect x="922" y="922" width="28" height="28" transform="rotate(0,936,936)"/><rect x="950" y="922" width="28" height="28" transform="rotate(0,964,936)"/><rect x="978" y="922" width="28" height="28" transform="rotate(0,992,936)"/><rect x="1006" y="922" width="28" height="28" transform="rotate(0,1020,936)"/><rect x="1034" y="922" width="28" height="28" transform="rotate(0,1048,936)"/><rect x="1062" y="922" width="28" height="28" transform="rotate(0,1076,936)"/><rect x="1146" y="922" width="28" height="28" transform="rotate(0,1160,936)"/><path d="M 250 950v 28h 14a 14 14, 0, 0, 0, 0 -28" transform="rotate(90,264,964)"/><path d="M 306 950v 28h 28v -14a 14 14, 0, 0, 0, -14 -14" transform="rotate(180,320,964)"/><path d="M 334 950v 28h 14a 14 14, 0, 0, 0, 0 -28" transform="rotate(0,348,964)"/><path d="M 446 950v 28h 28v -14a 14 14, 0, 0, 0, -14 -14" transform="rotate(180,460,964)"/><rect x="474" y="950" width="28" height="28" transform="rotate(0,488,964)"/><path d="M 502 950v 28h 28v -14a 14 14, 0, 0, 0, -14 -14" transform="rotate(0,516,964)"/><path d="M 642 950v 28h 28v -14a 14 14, 0, 0, 0, -14 -14" transform="rotate(180,656,964)"/><rect x="670" y="950" width="28" height="28" transform="rotate(0,684,964)"/><circle cx="740" cy="964" r="14" transform="rotate(0,740,964)"/><path d="M 782 950v 28h 28v -14a 14 14, 0, 0, 0, -14 -14" transform="rotate(-90,796,964)"/><rect x="810" y="950" width="28" height="28" transform="rotate(0,824,964)"/><rect x="838" y="950" width="28" height="28" transform="rotate(0,852,964)"/><rect x="866" y="950" width="28" height="28" transform="rotate(0,880,964)"/><rect x="894" y="950" width="28" height="28" transform="rotate(0,908,964)"/><rect x="922" y="950" width="28" height="28" transform="rotate(0,936,964)"/><rect x="1034" y="950" width="28" height="28" transform="rotate(0,1048,964)"/><rect x="1062" y="950" width="28" height="28" transform="rotate(0,1076,964)"/><path d="M 1090 950v 28h 28v -14a 14 14, 0, 0, 0, -14 -14" transform="rotate(0,1104,964)"/><rect x="1146" y="950" width="28" height="28" transform="rotate(0,1160,964)"/><circle cx="292" cy="992" r="14" transform="rotate(0,292,992)"/><path d="M 362 978v 28h 14a 14 14, 0, 0, 0, 0 -28" transform="rotate(180,376,992)"/><path d="M 390 978v 28h 14a 14 14, 0, 0, 0, 0 -28" transform="rotate(0,404,992)"/><path d="M 474 978v 28h 28v -14a 14 14, 0, 0, 0, -14 -14" transform="rotate(180,488,992)"/><rect x="502" y="978" width="28" height="28" transform="rotate(0,516,992)"/><rect x="530" y="978" width="28" height="28" transform="rotate(0,544,992)"/><rect x="558" y="978" width="28" height="28" transform="rotate(0,572,992)"/><path d="M 586 978v 28h 14a 14 14, 0, 0, 0, 0 -28" transform="rotate(0,600,992)"/><path d="M 670 978v 28h 14a 14 14, 0, 0, 0, 0 -28" transform="rotate(90,684,992)"/><path d="M 782 978v 28h 14a 14 14, 0, 0, 0, 0 -28" transform="rotate(90,796,992)"/><path d="M 866 978v 28h 28v -14a 14 14, 0, 0, 0, -14 -14" transform="rotate(180,880,992)"/><rect x="894" y="978" width="28" height="28" transform="rotate(0,908,992)"/><rect x="922" y="978" width="28" height="28" transform="rotate(0,936,992)"/><circle cx="992" cy="992" r="14" transform="rotate(0,992,992)"/><rect x="1034" y="978" width="28" height="28" transform="rotate(0,1048,992)"/><path d="M 1090 978v 28h 28v -14a 14 14, 0, 0, 0, -14 -14" transform="rotate(180,1104,992)"/><rect x="1118" y="978" width="28" height="28" transform="rotate(0,1132,992)"/><rect x="1146" y="978" width="28" height="28" transform="rotate(0,1160,992)"/><path d="M 306 1006v 28h 28v -14a 14 14, 0, 0, 0, -14 -14" transform="rotate(-90,320,1020)"/><path d="M 334 1006v 28h 28v -14a 14 14, 0, 0, 0, -14 -14" transform="rotate(0,348,1020)"/><circle cx="432" cy="1020" r="14" transform="rotate(0,432,1020)"/><path d="M 530 1006v 28h 28v -14a 14 14, 0, 0, 0, -14 -14" transform="rotate(180,544,1020)"/><rect x="558" y="1006" width="28" height="28" transform="rotate(0,572,1020)"/><path d="M 614 1006v 28h 14a 14 14, 0, 0, 0, 0 -28" transform="rotate(180,628,1020)"/><path d="M 642 1006v 28h 14a 14 14, 0, 0, 0, 0 -28" transform="rotate(0,656,1020)"/><path d="M 698 1006v 28h 14a 14 14, 0, 0, 0, 0 -28" transform="rotate(-90,712,1020)"/><path d="M 754 1006v 28h 14a 14 14, 0, 0, 0, 0 -28" transform="rotate(-90,768,1020)"/><rect x="894" y="1006" width="28" height="28" transform="rotate(0,908,1020)"/><rect x="922" y="1006" width="28" height="28" transform="rotate(0,936,1020)"/><rect x="1034" y="1006" width="28" height="28" transform="rotate(0,1048,1020)"/><path d="M 1062 1006v 28h 14a 14 14, 0, 0, 0, 0 -28" transform="rotate(0,1076,1020)"/><rect x="1146" y="1006" width="28" height="28" transform="rotate(0,1160,1020)"/><path d="M 250 1034v 28h 14a 14 14, 0, 0, 0, 0 -28" transform="rotate(180,264,1048)"/><rect x="278" y="1034" width="28" height="28" transform="rotate(0,292,1048)"/><rect x="306" y="1034" width="28" height="28" transform="rotate(0,320,1048)"/><rect x="334" y="1034" width="28" height="28" transform="rotate(0,348,1048)"/><path d="M 362 1034v 28h 14a 14 14, 0, 0, 0, 0 -28" transform="rotate(0,376,1048)"/><circle cx="516" cy="1048" r="14" transform="rotate(0,516,1048)"/><path d="M 558 1034v 28h 28v -14a 14 14, 0, 0, 0, -14 -14" transform="rotate(180,572,1048)"/><path d="M 586 1034v 28h 14a 14 14, 0, 0, 0, 0 -28" transform="rotate(0,600,1048)"/><path d="M 698 1034v 28h 28v -14a 14 14, 0, 0, 0, -14 -14" transform="rotate(180,712,1048)"/><rect x="726" y="1034" width="28" height="28" transform="rotate(0,740,1048)"/><rect x="754" y="1034" width="28" height="28" transform="rotate(0,768,1048)"/><path d="M 782 1034v 28h 28v -14a 14 14, 0, 0, 0, -14 -14" transform="rotate(0,796,1048)"/><path d="M 894 1034v 28h 28v -14a 14 14, 0, 0, 0, -14 -14" transform="rotate(180,908,1048)"/><rect x="922" y="1034" width="28" height="28" transform="rotate(0,936,1048)"/><rect x="950" y="1034" width="28" height="28" transform="rotate(0,964,1048)"/><rect x="978" y="1034" width="28" height="28" transform="rotate(0,992,1048)"/><rect x="1006" y="1034" width="28" height="28" transform="rotate(0,1020,1048)"/><path d="M 1034 1034v 28h 28v -14a 14 14, 0, 0, 0, -14 -14" transform="rotate(90,1048,1048)"/><path d="M 1146 1034v 28h 14a 14 14, 0, 0, 0, 0 -28" transform="rotate(90,1160,1048)"/><rect x="278" y="1062" width="28" height="28" transform="rotate(0,292,1076)"/><path d="M 390 1062v 28h 14a 14 14, 0, 0, 0, 0 -28" transform="rotate(180,404,1076)"/><rect x="418" y="1062" width="28" height="28" transform="rotate(0,432,1076)"/><path d="M 446 1062v 28h 14a 14 14, 0, 0, 0, 0 -28" transform="rotate(0,460,1076)"/><circle cx="628" cy="1076" r="14" transform="rotate(0,628,1076)"/><path d="M 670 1062v 28h 14a 14 14, 0, 0, 0, 0 -28" transform="rotate(-90,684,1076)"/><rect x="726" y="1062" width="28" height="28" transform="rotate(0,740,1076)"/><rect x="782" y="1062" width="28" height="28" transform="rotate(0,796,1076)"/><rect x="810" y="1062" width="28" height="28" transform="rotate(0,824,1076)"/><rect x="838" y="1062" width="28" height="28" transform="rotate(0,852,1076)"/><path d="M 866 1062v 28h 28v -14a 14 14, 0, 0, 0, -14 -14" transform="rotate(0,880,1076)"/><rect x="922" y="1062" width="28" height="28" transform="rotate(0,936,1076)"/><path d="M 1006 1062v 28h 14a 14 14, 0, 0, 0, 0 -28" transform="rotate(90,1020,1076)"/><path d="M 1090 1062v 28h 14a 14 14, 0, 0, 0, 0 -28" transform="rotate(-90,1104,1076)"/><path d="M 278 1090v 28h 28v -14a 14 14, 0, 0, 0, -14 -14" transform="rotate(180,292,1104)"/><path d="M 306 1090v 28h 28v -14a 14 14, 0, 0, 0, -14 -14" transform="rotate(0,320,1104)"/><rect x="418" y="1090" width="28" height="28" transform="rotate(0,432,1104)"/><circle cx="516" cy="1104" r="14" transform="rotate(0,516,1104)"/><path d="M 558 1090v 28h 14a 14 14, 0, 0, 0, 0 -28" transform="rotate(180,572,1104)"/><path d="M 586 1090v 28h 14a 14 14, 0, 0, 0, 0 -28" transform="rotate(0,600,1104)"/><rect x="670" y="1090" width="28" height="28" transform="rotate(0,684,1104)"/><rect x="698" y="1090" width="28" height="28" transform="rotate(0,712,1104)"/><rect x="726" y="1090" width="28" height="28" transform="rotate(0,740,1104)"/><rect x="754" y="1090" width="28" height="28" transform="rotate(0,768,1104)"/><path d="M 782 1090v 28h 28v -14a 14 14, 0, 0, 0, -14 -14" transform="rotate(90,796,1104)"/><rect x="838" y="1090" width="28" height="28" transform="rotate(0,852,1104)"/><rect x="866" y="1090" width="28" height="28" transform="rotate(0,880,1104)"/><rect x="894" y="1090" width="28" height="28" transform="rotate(0,908,1104)"/><rect x="922" y="1090" width="28" height="28" transform="rotate(0,936,1104)"/><path d="M 950 1090v 28h 14a 14 14, 0, 0, 0, 0 -28" transform="rotate(0,964,1104)"/><path d="M 1090 1090v 28h 14a 14 14, 0, 0, 0, 0 -28" transform="rotate(90,1104,1104)"/><path d="M 1146 1090v 28h 14a 14 14, 0, 0, 0, 0 -28" transform="rotate(-90,1160,1104)"/><circle cx="264" cy="1132" r="14" transform="rotate(0,264,1132)"/><path d="M 306 1118v 28h 28v -14a 14 14, 0, 0, 0, -14 -14" transform="rotate(180,320,1132)"/><rect x="334" y="1118" width="28" height="28" transform="rotate(0,348,1132)"/><rect x="362" y="1118" width="28" height="28" transform="rotate(0,376,1132)"/><rect x="390" y="1118" width="28" height="28" transform="rotate(0,404,1132)"/><rect x="418" y="1118" width="28" height="28" transform="rotate(0,432,1132)"/><path d="M 642 1118v 28h 28v -14a 14 14, 0, 0, 0, -14 -14" transform="rotate(-90,656,1132)"/><rect x="670" y="1118" width="28" height="28" transform="rotate(0,684,1132)"/><rect x="698" y="1118" width="28" height="28" transform="rotate(0,712,1132)"/><path d="M 810 1118v 28h 28v -14a 14 14, 0, 0, 0, -14 -14" transform="rotate(-90,824,1132)"/><rect x="838" y="1118" width="28" height="28" transform="rotate(0,852,1132)"/><path d="M 894 1118v 28h 28v -14a 14 14, 0, 0, 0, -14 -14" transform="rotate(180,908,1132)"/><rect x="922" y="1118" width="28" height="28" transform="rotate(0,936,1132)"/><path d="M 1006 1118v 28h 14a 14 14, 0, 0, 0, 0 -28" transform="rotate(-90,1020,1132)"/><path d="M 1062 1118v 28h 14a 14 14, 0, 0, 0, 0 -28" transform="rotate(-90,1076,1132)"/><path d="M 1118 1118v 28h 28v -14a 14 14, 0, 0, 0, -14 -14" transform="rotate(-90,1132,1132)"/><path d="M 1146 1118v 28h 28v -14a 14 14, 0, 0, 0, -14 -14" transform="rotate(90,1160,1132)"/><circle cx="292" cy="1160" r="14" transform="rotate(0,292,1160)"/><path d="M 390 1146v 28h 28v -14a 14 14, 0, 0, 0, -14 -14" transform="rotate(180,404,1160)"/><path d="M 418 1146v 28h 28v -14a 14 14, 0, 0, 0, -14 -14" transform="rotate(90,432,1160)"/><circle cx="544" cy="1160" r="14" transform="rotate(0,544,1160)"/><path d="M 586 1146v 28h 14a 14 14, 0, 0, 0, 0 -28" transform="rotate(180,600,1160)"/><rect x="614" y="1146" width="28" height="28" transform="rotate(0,628,1160)"/><path d="M 642 1146v 28h 28v -14a 14 14, 0, 0, 0, -14 -14" transform="rotate(90,656,1160)"/><path d="M 698 1146v 28h 14a 14 14, 0, 0, 0, 0 -28" transform="rotate(90,712,1160)"/><path d="M 810 1146v 28h 28v -14a 14 14, 0, 0, 0, -14 -14" transform="rotate(180,824,1160)"/><path d="M 838 1146v 28h 28v -14a 14 14, 0, 0, 0, -14 -14" transform="rotate(90,852,1160)"/><path d="M 922 1146v 28h 14a 14 14, 0, 0, 0, 0 -28" transform="rotate(90,936,1160)"/><path d="M 978 1146v 28h 14a 14 14, 0, 0, 0, 0 -28" transform="rotate(180,992,1160)"/><rect x="1006" y="1146" width="28" height="28" transform="rotate(0,1020,1160)"/><rect x="1034" y="1146" width="28" height="28" transform="rotate(0,1048,1160)"/><path d="M 1062 1146v 28h 28v -14a 14 14, 0, 0, 0, -14 -14" transform="rotate(90,1076,1160)"/><path d="M 1118 1146v 28h 14a 14 14, 0, 0, 0, 0 -28" transform="rotate(90,1132,1160)"/></clipPath><clipPath id="clip-path-corners-square-color-0-0-735"><path clip-rule="evenodd" d="M 26 96v 56a 70 70, 0, 0, 0, 70 70h 56a 70 70, 0, 0, 0, 70 -70v -56a 70 70, 0, 0, 0, -70 -70h -56a 70 70, 0, 0, 0, -70 70M 96 54h 56a 42 42, 0, 0, 1, 42 42v 56a 42 42, 0, 0, 1, -42 42h -56a 42 42, 0, 0, 1, -42 -42v -56a 42 42, 0, 0, 1, 42 -42" transform="rotate(0,124,124)"/></clipPath><clipPath id="clip-path-corners-dot-color-0-0-735"><circle cx="124" cy="124" r="42" transform="rotate(0,124,124)"/></clipPath><clipPath id="clip-path-corners-square-color-1-0-735"><path clip-rule="evenodd" d="M 978 96v 56a 70 70, 0, 0, 0, 70 70h 56a 70 70, 0, 0, 0, 70 -70v -56a 70 70, 0, 0, 0, -70 -70h -56a 70 70, 0, 0, 0, -70 70M 1048 54h 56a 42 42, 0, 0, 1, 42 42v 56a 42 42, 0, 0, 1, -42 42h -56a 42 42, 0, 0, 1, -42 -42v -56a 42 42, 0, 0, 1, 42 -42" transform="rotate(90,1076,124)"/></clipPath><clipPath id="clip-path-corners-dot-color-1-0-735"><circle cx="1076" cy="124" r="42" transform="rotate(90,1076,124)"/></clipPath><clipPath id="clip-path-corners-square-color-0-1-735"><path clip-rule="evenodd" d="M 26 1048v 56a 70 70, 0, 0, 0, 70 70h 56a 70 70, 0, 0, 0, 70 -70v -56a 70 70, 0, 0, 0, -70 -70h -56a 70 70, 0, 0, 0, -70 70M 96 1006h 56a 42 42, 0, 0, 1, 42 42v 56a 42 42, 0, 0, 1, -42 42h -56a 42 42, 0, 0, 1, -42 -42v -56a 42 42, 0, 0, 1, 42 -42" transform="rotate(-90,124,1076)"/></clipPath><clipPath id="clip-path-corners-dot-color-0-1-735"><circle cx="124" cy="1076" r="42" transform="rotate(-90,124,1076)"/></clipPath></defs><rect x="0" y="0" height="1200" width="1200" clip-path="url('#clip-path-background-color-735')" fill="#ffffff"/><rect x="0" y="0" height="1200" width="1200" clip-path="url('#clip-path-dot-color-735')" fill="#000000"/><rect x="26" y="26" height="196" width="196" clip-path="url('#clip-path-corners-square-color-0-0-735')" fill="#000000"/><rect x="82" y="82" height="84" width="84" clip-path="url('#clip-path-corners-dot-color-0-0-735')" fill="#000000"/><rect x="978" y="26" height="196" width="196" clip-path="url('#clip-path-corners-square-color-1-0-735')" fill="#000000"/><rect x="1034" y="82" height="84" width="84" clip-path="url('#clip-path-corners-dot-color-1-0-735')" fill="#000000"/><rect x="26" y="978" height="196" width="196" clip-path="url('#clip-path-corners-square-color-0-1-735')" fill="#000000"/><rect x="82" y="1034" height="84" width="84" clip-path="url('#clip-path-corners-dot-color-0-1-735')" fill="#000000"/></svg>