<?xml version="1.0" standalone="no"?>
<svg xmlns="http://www.w3.org/2000/svg" width="1200" height="1200" xmlns:xlink="http://www.w3.org/1999/xlink" viewBox="0 0 1200 1200"><defs><clipPath id="clip-path-background-color-739"><rect x="0" y="0" width="1200" height="1200"/></clipPath><clipPath id="clip-path-dot-color-739"><circle cx="348" cy="40" r="14" transform="rotate(0,348,40)"/><path d="M 446 26v 28h 14a 14 14, 0, 0, 0, 0 -28" transform="rotate(180,460,40)"/><rect x="474" y="26" width="28" height="28" transform="rotate(0,488,40)"/><rect x="502" y="26" width="28" height="28" transform="rotate(0,516,40)"/><path d="M 530 26v 28h 14a 14 14, 0, 0, 0, 0 -28" transform="rotate(0,544,40)"/><circle cx="628" cy="40" r="14" transform="rotate(0,628,40)"/><path d="M 698 26v 28h 14a 14 14, 0, 0, 0, 0 -28" transform="rotate(180,712,40)"/><rect x="726" y="26" width="28" height="28" transform="rotate(0,740,40)"/><rect x="754" y="26" width="28" height="28" transform="rotate(0,768,40)"/><rect x="782" y="26" width="28" height="28" transform="rotate(0,796,40)"/><rect x="810" y="26" width="28" height="28" transform="rotate(0,824,40)"/><path d="M 838 26v 28h 14a 14 14, 0, 0, 0, 0 -28" transform="rotate(0,852,40)"/><path d="M 278 54v 28h 14a 14 14, 0, 0, 0, 0 -28" transform="rotate(180,292,68)"/><path d="M 306 54v 28h 28v -14a 14 14, 0, 0, 0, -14 -14" transform="rotate(0,320,68)"/><path d="M 362 54v 28h 28v -14a 14 14, 0, 0, 0, -14 -14" transform="rotate(-90,376,68)"/><rect x="390" y="54" width="28" height="28" transform="rotate(0,404,68)"/><path d="M 418 54v 28h 14a 14 14, 0, 0, 0, 0 -28" transform="rotate(0,432,68)"/><rect x="474" y="54" width="28" height="28" transform="rotate(0,488,68)"/><path d="M 502 54v 28h 28v -14a 14 14, 0, 0, 0, -14 -14" transform="rotate(90,516,68)"/><path d="M 642 54v 28h 14a 14 14, 0, 0, 0, 0 -28" transform="rotate(-90,656,68)"/><path d="M 726 54v 28h 28v -14a 14 14, 0, 0, 0, -14 -14" transform="rotate(180,740,68)"/><rect x="754" y="54" width="28" height="28" transform="rotate(0,768,68)"/><path d="M 810 54v 28h 14a 14 14, 0, 0, 0, 0 -28" transform="rotate(90,824,68)"/><path d="M 866 54v 28h 14a 14 14, 0, 0, 0, 0 -28" transform="rotate(180,880,68)"/><path d="M 894 54v 28h 28v -14a 14 14, 0, 0, 0, -14 -14" transform="rotate(0,908,68)"/><circle cx="264" cy="96" r="14" transform="rotate(0,264,96)"/><rect x="306" y="82" width="28" height="28" transform="rotate(0,320,96)"/><rect x="362" y="82" width="28" height="28" transform="rotate(0,376,96)"/><path d="M 390 82v 28h 28v -14a 14 14, 0, 0, 0, -14 -14" transform="rotate(90,404,96)"/><path d="M 446 82v 28h 14a 14 14, 0, 0, 0, 0 -28" transform="rotate(180,460,96)"/><rect x="474" y="82" width="28" height="28" transform="rotate(0,488,96)"/><path d="M 530 82v 28h 14a 14 14, 0, 0, 0, 0 -28" transform="rotate(-90,544,96)"/><rect x="642" y="82" width="28" height="28" transform="rotate(0,656,96)"/><path d="M 670 82v 28h 28v -14a 14 14, 0, 0, 0, -14 -14" transform="rotate(0,684,96)"/><path d="M 754 82v 28h 28v -14a 14 14, 0, 0, 0, -14 -14" transform="rotate(180,768,96)"/><path d="M 782 82v 28h 14a 14 14, 0, 0, 0, 0 -28" transform="rotate(0,796,96)"/><circle cx="852" cy="96" r="14" transform="rotate(0,852,96)"/><rect x="894" y="82" width="28" height="28" transform="rotate(0,908,96)"/><path d="M 922 82v 28h 28v -14a 14 14, 0, 0, 0, -14 -14" transform="rotate(0,936,96)"/><path d="M 278 110v 28h 14a 14 14, 0, 0, 0, 0 -28" transform="rotate(180,292,124)"/><rect x="306" y="110" width="28" height="28" transform="rotate(0,320,124)"/><rect x="334" y="110" width="28" height="28" transform="rotate(0,348,124)"/><rect x="362" y="110" width="28" height="28" transform="rotate(0,376,124)"/><path d="M 418 110v 28h 14a 14 14, 0, 0, 0, 0 -28" transform="rotate(-90,432,124)"/><rect x="474" y="110" width="28" height="28" transform="rotate(0,488,124)"/><path d="M 530 110v 28h 28v -14a 14 14, 0, 0, 0, -14 -14" transform="rotate(180,544,124)"/><rect x="558" y="110" width="28" height="28" transform="rotate(0,572,124)"/><rect x="586" y="110" width="28" height="28" transform="rotate(0,600,124)"/><rect x="614" y="110" width="28" height="28" transform="rotate(0,628,124)"/><rect x="642" y="110" width="28" height="28" transform="rotate(0,656,124)"/><path d="M 670 110v 28h 28v -14a 14 14, 0, 0, 0, -14 -14" transform="rotate(90,684,124)"/><path d="M 810 110v 28h 14a 14 14, 0, 0, 0, 0 -28" transform="rotate(-90,824,124)"/><path d="M 866 110v 28h 28v -14a 14 14, 0, 0, 0, -14 -14" transform="rotate(-90,880,124)"/><rect x="894" y="110" width="28" height="28" transform="rotate(0,908,124)"/><path d="M 922 110v 28h 28v -14a 14 14, 0, 0, 0, -14 -14" transform="rotate(90,936,124)"/><path d="M 250 138v 28h 14a 14 14, 0, 0, 0, 0 -28" transform="rotate(-90,264,152)"/><path d="M 334 138v 28h 28v -14a 14 14, 0, 0, 0, -14 -14" transform="rotate(180,348,152)"/><rect x="362" y="138" width="28" height="28" transform="rotate(0,376,152)"/><rect x="418" y="138" width="28" height="28" transform="rotate(0,432,152)"/><rect x="446" y="138" width="28" height="28" transform="rotate(0,460,152)"/><path d="M 474 138v 28h 28v -14a 14 14, 0, 0, 0, -14 -14" transform="rotate(90,488,152)"/><rect x="642" y="138" width="28" height="28" transform="rotate(0,656,152)"/><path d="M 698 138v 28h 28v -14a 14 14, 0, 0, 0, -14 -14" transform="rotate(-90,712,152)"/><path d="M 726 138v 28h 14a 14 14, 0, 0, 0, 0 -28" transform="rotate(0,740,152)"/><path d="M 782 138v 28h 14a 14 14, 0, 0, 0, 0 -28" transform="rotate(180,796,152)"/><path d="M 810 138v 28h 28v -14a 14 14, 0, 0, 0, -14 -14" transform="rotate(90,824,152)"/><rect x="866" y="138" width="28" height="28" transform="rotate(0,880,152)"/><rect x="250" y="166" width="28" height="28" transform="rotate(0,264,180)"/><rect x="362" y="166" width="28" height="28" transform="rotate(0,376,180)"/><rect x="418" y="166" width="28" height="28" transform="rotate(0,432,180)"/><circle cx="516" cy="180" r="14" transform="rotate(0,516,180)"/><path d="M 586 166v 28h 14a 14 14, 0, 0, 0, 0 -28" transform="rotate(-90,600,180)"/><rect x="642" y="166" width="28" height="28" transform="rotate(0,656,180)"/><rect x="698" y="166" width="28" height="28" transform="rotate(0,712,180)"/><path d="M 754 166v 28h 14a 14 14, 0, 0, 0, 0 -28" transform="rotate(-90,768,180)"/><path d="M 838 166v 28h 14a 14 14, 0, 0, 0, 0 -28" transform="rotate(180,852,180)"/><rect x="866" y="166" width="28" height="28" transform="rotate(0,880,180)"/><path d="M 894 166v 28h 14a 14 14, 0, 0, 0, 0 -28" transform="rotate(0,908,180)"/><path d="M 250 194v 28h 14a 14 14, 0, 0, 0, 0 -28" transform="rotate(90,264,208)"/><circle cx="320" cy="208" r="14" transform="rotate(0,320,208)"/><path d="M 362 194v 28h 14a 14 14, 0, 0, 0, 0 -28" transform="rotate(90,376,208)"/><path d="M 418 194v 28h 14a 14 14, 0, 0, 0, 0 -28" transform="rotate(90,432,208)"/><path d="M 474 194v 28h 14a 14 14, 0, 0, 0, 0 -28" transform="rotate(-90,488,208)"/><path d="M 530 194v 28h 14a 14 14, 0, 0, 0, 0 -28" transform="rotate(-90,544,208)"/><rect x="586" y="194" width="28" height="28" transform="rotate(0,600,208)"/><rect x="642" y="194" width="28" height="28" transform="rotate(0,656,208)"/><rect x="698" y="194" width="28" height="28" transform="rotate(0,712,208)"/><path d="M 754 194v 28h 14a 14 14, 0, 0, 0, 0 -28" transform="rotate(90,768,208)"/><path d="M 810 194v 28h 14a 14 14, 0, 0, 0, 0 -28" transform="rotate(-90,824,208)"/><rect x="866" y="194" width="28" height="28" transform="rotate(0,880,208)"/><path d="M 922 194v 28h 14a 14 14, 0, 0, 0, 0 -28" transform="rotate(-90,936,208)"/><path d="M 446 222v 28h 14a 14 14, 0, 0, 0, 0 -28" transform="rotate(180,460,236)"/><rect x="474" y="222" width="28" height="28" transform="rotate(0,488,236)"/><path d="M 530 222v 28h 14a 14 14, 0, 0, 0, 0 -28" transform="rotate(90,544,236)"/><rect x="586" y="222" width="28" height="28" transform="rotate(0,600,236)"/><path d="M 642 222v 28h 28v -14a 14 14, 0, 0, 0, -14 -14" transform="rotate(180,656,236)"/><rect x="670" y="222" width="28" height="28" transform="rotate(0,684,236)"/><path d="M 698 222v 28h 28v -14a 14 14, 0, 0, 0, -14 -14" transform="rotate(90,712,236)"/><rect x="810" y="222" width="28" height="28" transform="rotate(0,824,236)"/><rect x="838" y="222" width="28" height="28" transform="rotate(0,852,236)"/><path d="M 866 222v 28h 28v -14a 14 14, 0, 0, 0, -14 -14" transform="rotate(90,880,236)"/><rect x="922" y="222" width="28" height="28" transform="rotate(0,936,236)"/><path d="M 54 250v 28h 14a 14 14, 0, 0, 0, 0 -28" transform="rotate(-90,68,264)"/><circle cx="152" cy="264" r="14" transform="rotate(0,152,264)"/><circle cx="208" cy="264" r="14" transform="rotate(0,208,264)"/><path d="M 250 250v 28h 14a 14 14, 0, 0, 0, 0 -28" transform="rotate(-90,264,264)"/><path d="M 306 250v 28h 14a 14 14, 0, 0, 0, 0 -28" transform="rotate(180,320,264)"/><rect x="334" y="250" width="28" height="28" transform="rotate(0,348,264)"/><path d="M 362 250v 28h 14a 14 14, 0, 0, 0, 0 -28" transform="rotate(0,376,264)"/><path d="M 474 250v 28h 14a 14 14, 0, 0, 0, 0 -28" transform="rotate(90,488,264)"/><path d="M 586 250v 28h 14a 14 14, 0, 0, 0, 0 -28" transform="rotate(90,600,264)"/><rect x="670" y="250" width="28" height="28" transform="rotate(0,684,264)"/><rect x="810" y="250" width="28" height="28" transform="rotate(0,824,264)"/><path d="M 838 250v 28h 28v -14a 14 14, 0, 0, 0, -14 -14" transform="rotate(90,852,264)"/><path d="M 894 250v 28h 14a 14 14, 0, 0, 0, 0 -28" transform="rotate(180,908,264)"/><rect x="922" y="250" width="28" height="28" transform="rotate(0,936,264)"/><path d="M 950 250v 28h 14a 14 14, 0, 0, 0, 0 -28" transform="rotate(0,964,264)"/><path d="M 1006 250v 28h 28v -14a 14 14, 0, 0, 0, -14 -14" transform="rotate(-90,1020,264)"/><path d="M 1034 250v 28h 28v -14a 14 14, 0, 0, 0, -14 -14" transform="rotate(0,1048,264)"/><circle cx="1104" cy="264" r="14" transform="rotate(0,1104,264)"/><rect x="54" y="278" width="28" height="28" transform="rotate(0,68,292)"/><rect x="82" y="278" width="28" height="28" transform="rotate(0,96,292)"/><path d="M 110 278v 28h 14a 14 14, 0, 0, 0, 0 -28" transform="rotate(0,124,292)"/><path d="M 166 278v 28h 14a 14 14, 0, 0, 0, 0 -28" transform="rotate(-90,180,292)"/><path d="M 222 278v 28h 14a 14 14, 0, 0, 0, 0 -28" transform="rotate(180,236,292)"/><path d="M 250 278v 28h 28v -14a 14 14, 0, 0, 0, -14 -14" transform="rotate(90,264,292)"/><rect x="334" y="278" width="28" height="28" transform="rotate(0,348,292)"/><path d="M 418 278v 28h 14a 14 14, 0, 0, 0, 0 -28" transform="rotate(-90,432,292)"/><path d="M 502 278v 28h 14a 14 14, 0, 0, 0, 0 -28" transform="rotate(-90,516,292)"/><path d="M 614 278v 28h 28v -14a 14 14, 0, 0, 0, -14 -14" transform="rotate(-90,628,292)"/><rect x="642" y="278" width="28" height="28" transform="rotate(0,656,292)"/><rect x="670" y="278" width="28" height="28" transform="rotate(0,684,292)"/><path d="M 726 278v 28h 14a 14 14, 0, 0, 0, 0 -28" transform="rotate(180,740,292)"/><rect x="754" y="278" width="28" height="28" transform="rotate(0,768,292)"/><rect x="782" y="278" width="28" height="28" transform="rotate(0,796,292)"/><path d="M 810 278v 28h 28v -14a 14 14, 0, 0, 0, -14 -14" transform="rotate(90,824,292)"/><path d="M 978 278v 28h 28v -14a 14 14, 0, 0, 0, -14 -14" transform="rotate(-90,992,292)"/><rect x="1006" y="278" width="28" height="28" transform="rotate(0,1020,292)"/><rect x="1034" y="278" width="28" height="28" transform="rotate(0,1048,292)"/><path d="M 1062 278v 28h 14a 14 14, 0, 0, 0, 0 -28" transform="rotate(0,1076,292)"/><path d="M 1118 278v 28h 14a 14 14, 0, 0, 0, 0 -28" transform="rotate(180,1132,292)"/><path d="M 1146 278v 28h 28v -14a 14 14, 0, 0, 0, -14 -14" transform="rotate(0,1160,292)"/><path d="M 26 306v 28h 28v -14a 14 14, 0, 0, 0, -14 -14" transform="rotate(-90,40,320)"/><path d="M 54 306v 28h 28v -14a 14 14, 0, 0, 0, -14 -14" transform="rotate(90,68,320)"/><path d="M 166 306v 28h 28v -14a 14 14, 0, 0, 0, -14 -14" transform="rotate(180,180,320)"/><path d="M 194 306v 28h 14a 14 14, 0, 0, 0, 0 -28" transform="rotate(0,208,320)"/><path d="M 278 306v 28h 14a 14 14, 0, 0, 0, 0 -28" transform="rotate(-90,292,320)"/><rect x="334" y="306" width="28" height="28" transform="rotate(0,348,320)"/><path d="M 362 306v 28h 28v -14a 14 14, 0, 0, 0, -14 -14" transform="rotate(0,376,320)"/><path d="M 418 306v 28h 14a 14 14, 0, 0, 0, 0 -28" transform="rotate(90,432,320)"/><rect x="502" y="306" width="28" height="28" transform="rotate(0,516,320)"/><rect x="530" y="306" width="28" height="28" transform="rotate(0,544,320)"/><rect x="558" y="306" width="28" height="28" transform="rotate(0,572,320)"/><rect x="586" y="306" width="28" height="28" transform="rotate(0,600,320)"/><rect x="614" y="306" width="28" height="28" transform="rotate(0,628,320)"/><rect x="670" y="306" width="28" height="28" transform="rotate(0,684,320)"/><path d="M 754 306v 28h 28v -14a 14 14, 0, 0, 0, -14 -14" transform="rotate(180,768,320)"/><rect x="782" y="306" width="28" height="28" transform="rotate(0,796,320)"/><path d="M 922 306v 28h 14a 14 14, 0, 0, 0, 0 -28" transform="rotate(-90,936,320)"/><rect x="978" y="306" width="28" height="28" transform="rotate(0,992,320)"/><rect x="1146" y="306" width="28" height="28" transform="rotate(0,1160,320)"/><rect x="26" y="334" width="28" height="28" transform="rotate(0,40,348)"/><path d="M 222 334v 28h 14a 14 14, 0, 0, 0, 0 -28" transform="rotate(180,236,348)"/><rect x="250" y="334" width="28" height="28" transform="rotate(0,264,348)"/><rect x="278" y="334" width="28" height="28" transform="rotate(0,292,348)"/><rect x="306" y="334" width="28" height="28" transform="rotate(0,320,348)"/><rect x="334" y="334" width="28" height="28" transform="rotate(0,348,348)"/><rect x="362" y="334" width="28" height="28" transform="rotate(0,376,348)"/><path d="M 474 334v 28h 14a 14 14, 0, 0, 0, 0 -28" transform="rotate(180,488,348)"/><rect x="502" y="334" width="28" height="28" transform="rotate(0,516,348)"/><rect x="530" y="334" width="28" height="28" transform="rotate(0,544,348)"/><rect x="614" y="334" width="28" height="28" transform="rotate(0,628,348)"/><path d="M 670 334v 28h 28v -14a 14 14, 0, 0, 0, -14 -14" transform="rotate(180,684,348)"/><path d="M 698 334v 28h 14a 14 14, 0, 0, 0, 0 -28" transform="rotate(0,712,348)"/><path d="M 782 334v 28h 14a 14 14, 0, 0, 0, 0 -28" transform="rotate(90,796,348)"/><path d="M 838 334v 28h 14a 14 14, 0, 0, 0, 0 -28" transform="rotate(-90,852,348)"/><path d="M 894 334v 28h 14a 14 14, 0, 0, 0, 0 -28" transform="rotate(180,908,348)"/><rect x="922" y="334" width="28" height="28" transform="rotate(0,936,348)"/><rect x="950" y="334" width="28" height="28" transform="rotate(0,964,348)"/><rect x="978" y="334" width="28" height="28" transform="rotate(0,992,348)"/><path d="M 1006 334v 28h 14a 14 14, 0, 0, 0, 0 -28" transform="rotate(0,1020,348)"/><circle cx="1076" cy="348" r="14" transform="rotate(0,1076,348)"/><rect x="1146" y="334" width="28" height="28" transform="rotate(0,1160,348)"/><rect x="26" y="362" width="28" height="28" transform="rotate(0,40,376)"/><path d="M 82 362v 28h 14a 14 14, 0, 0, 0, 0 -28" transform="rotate(180,96,376)"/><rect x="110" y="362" width="28" height="28" transform="rotate(0,124,376)"/><rect x="138" y="362" width="28" height="28" transform="rotate(0,152,376)"/><rect x="166" y="362" width="28" height="28" transform="rotate(0,180,376)"/><path d="M 194 362v 28h 14a 14 14, 0, 0, 0, 0 -28" transform="rotate(0,208,376)"/><path d="M 250 362v 28h 28v -14a 14 14, 0, 0, 0, -14 -14" transform="rotate(180,264,376)"/><path d="M 278 362v 28h 28v -14a 14 14, 0, 0, 0, -14 -14" transform="rotate(90,292,376)"/><rect x="362" y="362" width="28" height="28" transform="rotate(0,376,376)"/><rect x="502" y="362" width="28" height="28" transform="rotate(0,516,376)"/><rect x="530" y="362" width="28" height="28" transform="rotate(0,544,376)"/><path d="M 558 362v 28h 14a 14 14, 0, 0, 0, 0 -28" transform="rotate(0,572,376)"/><rect x="614" y="362" width="28" height="28" transform="rotate(0,628,376)"/><path d="M 642 362v 28h 14a 14 14, 0, 0, 0, 0 -28" transform="rotate(0,656,376)"/><path d="M 754 362v 28h 14a 14 14, 0, 0, 0, 0 -28" transform="rotate(-90,768,376)"/><path d="M 838 362v 28h 14a 14 14, 0, 0, 0, 0 -28" transform="rotate(90,852,376)"/><path d="M 950 362v 28h 14a 14 14, 0, 0, 0, 0 -28" transform="rotate(90,964,376)"/><rect x="1146" y="362" width="28" height="28" transform="rotate(0,1160,376)"/><path d="M 26 390v 28h 14a 14 14, 0, 0, 0, 0 -28" transform="rotate(90,40,404)"/><rect x="110" y="390" width="28" height="28" transform="rotate(0,124,404)"/><rect x="166" y="390" width="28" height="28" transform="rotate(0,180,404)"/><path d="M 222 390v 28h 14a 14 14, 0, 0, 0, 0 -28" transform="rotate(-90,236,404)"/><path d="M 334 390v 28h 14a 14 14, 0, 0, 0, 0 -28" transform="rotate(180,348,404)"/><path d="M 362 390v 28h 28v -14a 14 14, 0, 0, 0, -14 -14" transform="rotate(90,376,404)"/><path d="M 418 390v 28h 14a 14 14, 0, 0, 0, 0 -28" transform="rotate(180,432,404)"/><path d="M 446 390v 28h 28v -14a 14 14, 0, 0, 0, -14 -14" transform="rotate(0,460,404)"/><rect x="502" y="390" width="28" height="28" transform="rotate(0,516,404)"/><path d="M 586 390v 28h 28v -14a 14 14, 0, 0, 0, -14 -14" transform="rotate(-90,600,404)"/><path d="M 614 390v 28h 28v -14a 14 14, 0, 0, 0, -14 -14" transform="rotate(90,628,404)"/><path d="M 698 390v 28h 28v -14a 14 14, 0, 0, 0, -14 -14" transform="rotate(-90,712,404)"/><rect x="726" y="390" width="28" height="28" transform="rotate(0,740,404)"/><path d="M 754 390v 28h 28v -14a 14 14, 0, 0, 0, -14 -14" transform="rotate(90,768,404)"/><path d="M 810 390v 28h 14a 14 14, 0, 0, 0, 0 -28" transform="rotate(-90,824,404)"/><path d="M 978 390v 28h 28v -14a 14 14, 0, 0, 0, -14 -14" transform="rotate(-90,992,404)"/><rect x="1006" y="390" width="28" height="28" transform="rotate(0,1020,404)"/><rect x="1034" y="390" width="28" height="28" transform="rotate(0,1048,404)"/><rect x="1062" y="390" width="28" height="28" transform="rotate(0,1076,404)"/><path d="M 1090 390v 28h 28v -14a 14 14, 0, 0, 0, -14 -14" transform="rotate(0,1104,404)"/><rect x="1146" y="390" width="28" height="28" transform="rotate(0,1160,404)"/><path d="M 54 418v 28h 14a 14 14, 0, 0, 0, 0 -28" transform="rotate(-90,68,432)"/><path d="M 110 418v 28h 14a 14 14, 0, 0, 0, 0 -28" transform="rotate(90,124,432)"/><rect x="166" y="418" width="28" height="28" transform="rotate(0,180,432)"/><rect x="194" y="418" width="28" height="28" transform="rotate(0,208,432)"/><path d="M 222 418v 28h 28v -14a 14 14, 0, 0, 0, -14 -14" transform="rotate(90,236,432)"/><path d="M 278 418v 28h 28v -14a 14 14, 0, 0, 0, -14 -14" transform="rotate(-90,292,432)"/><path d="M 306 418v 28h 28v -14a 14 14, 0, 0, 0, -14 -14" transform="rotate(0,320,432)"/><rect x="446" y="418" width="28" height="28" transform="rotate(0,460,432)"/><rect x="474" y="418" width="28" height="28" transform="rotate(0,488,432)"/><path d="M 502 418v 28h 28v -14a 14 14, 0, 0, 0, -14 -14" transform="rotate(90,516,432)"/><path d="M 558 418v 28h 14a 14 14, 0, 0, 0, 0 -28" transform="rotate(180,572,432)"/><rect x="586" y="418" width="28" height="28" transform="rotate(0,600,432)"/><path d="M 642 418v 28h 28v -14a 14 14, 0, 0, 0, -14 -14" transform="rotate(-90,656,432)"/><rect x="670" y="418" width="28" height="28" transform="rotate(0,684,432)"/><rect x="698" y="418" width="28" height="28" transform="rotate(0,712,432)"/><path d="M 726 418v 28h 28v -14a 14 14, 0, 0, 0, -14 -14" transform="rotate(90,740,432)"/><path d="M 810 418v 28h 14a 14 14, 0, 0, 0, 0 -28" transform="rotate(90,824,432)"/><path d="M 922 418v 28h 28v -14a 14 14, 0, 0, 0, -14 -14" transform="rotate(-90,936,432)"/><rect x="950" y="418" width="28" height="28" transform="rotate(0,964,432)"/><path d="M 978 418v 28h 28v -14a 14 14, 0, 0, 0, -14 -14" transform="rotate(90,992,432)"/><rect x="1034" y="418" width="28" height="28" transform="rotate(0,1048,432)"/><rect x="1062" y="418" width="28" height="28" transform="rotate(0,1076,432)"/><path d="M 1090 418v 28h 28v -14a 14 14, 0, 0, 0, -14 -14" transform="rotate(90,1104,432)"/><path d="M 1146 418v 28h 14a 14 14, 0, 0, 0, 0 -28" transform="rotate(90,1160,432)"/><path d="M 54 446v 28h 14a 14 14, 0, 0, 0, 0 -28" transform="rotate(90,68,460)"/><path d="M 166 446v 28h 14a 14 14, 0, 0, 0, 0 -28" transform="rotate(90,180,460)"/><path d="M 250 446v 28h 28v -14a 14 14, 0, 0, 0, -14 -14" transform="rotate(-90,264,460)"/><rect x="278" y="446" width="28" height="28" transform="rotate(0,292,460)"/><rect x="306" y="446" width="28" height="28" transform="rotate(0,320,460)"/><rect x="334" y="446" width="28" height="28" transform="rotate(0,348,460)"/><path d="M 362 446v 28h 28v -14a 14 14, 0, 0, 0, -14 -14" transform="rotate(0,376,460)"/><path d="M 418 446v 28h 28v -14a 14 14, 0, 0, 0, -14 -14" transform="rotate(-90,432,460)"/><rect x="446" y="446" width="28" height="28" transform="rotate(0,460,460)"/><path d="M 474 446v 28h 28v -14a 14 14, 0, 0, 0, -14 -14" transform="rotate(90,488,460)"/><rect x="586" y="446" width="28" height="28" transform="rotate(0,600,460)"/><rect x="614" y="446" width="28" height="28" transform="rotate(0,628,460)"/><rect x="642" y="446" width="28" height="28" transform="rotate(0,656,460)"/><path d="M 670 446v 28h 28v -14a 14 14, 0, 0, 0, -14 -14" transform="rotate(90,684,460)"/><path d="M 838 446v 28h 14a 14 14, 0, 0, 0, 0 -28" transform="rotate(-90,852,460)"/><rect x="922" y="446" width="28" height="28" transform="rotate(0,936,460)"/><path d="M 1034 446v 28h 28v -14a 14 14, 0, 0, 0, -14 -14" transform="rotate(180,1048,460)"/><rect x="1062" y="446" width="28" height="28" transform="rotate(0,1076,460)"/><path d="M 1118 446v 28h 14a 14 14, 0, 0, 0, 0 -28" transform="rotate(-90,1132,460)"/><path d="M 110 474v 28h 14a 14 14, 0, 0, 0, 0 -28" transform="rotate(180,124,488)"/><path d="M 138 474v 28h 28v -14a 14 14, 0, 0, 0, -14 -14" transform="rotate(0,152,488)"/><path d="M 194 474v 28h 14a 14 14, 0, 0, 0, 0 -28" transform="rotate(180,208,488)"/><rect x="222" y="474" width="28" height="28" transform="rotate(0,236,488)"/><rect x="250" y="474" width="28" height="28" transform="rotate(0,264,488)"/><path d="M 334 474v 28h 28v -14a 14 14, 0, 0, 0, -14 -14" transform="rotate(180,348,488)"/><path d="M 362 474v 28h 28v -14a 14 14, 0, 0, 0, -14 -14" transform="rotate(90,376,488)"/><path d="M 418 474v 28h 28v -14a 14 14, 0, 0, 0, -14 -14" transform="rotate(180,432,488)"/><path d="M 446 474v 28h 28v -14a 14 14, 0, 0, 0, -14 -14" transform="rotate(90,460,488)"/><circle cx="516" cy="488" r="14" transform="rotate(0,516,488)"/><path d="M 558 474v 28h 14a 14 14, 0, 0, 0, 0 -28" transform="rotate(180,572,488)"/><path d="M 586 474v 28h 28v -14a 14 14, 0, 0, 0, -14 -14" transform="rotate(90,600,488)"/><circle cx="712" cy="488" r="14" transform="rotate(0,712,488)"/><path d="M 782 474v 28h 14a 14 14, 0, 0, 0, 0 -28" transform="rotate(-90,796,488)"/><path d="M 838 474v 28h 14a 14 14, 0, 0, 0, 0 -28" transform="rotate(90,852,488)"/><path d="M 894 474v 28h 14a 14 14, 0, 0, 0, 0 -28" transform="rotate(180,908,488)"/><path d="M 922 474v 28h 28v -14a 14 14, 0, 0, 0, -14 -14" transform="rotate(90,936,488)"/><path d="M 1006 474v 28h 14a 14 14, 0, 0, 0, 0 -28" transform="rotate(-90,1020,488)"/><path d="M 1062 474v 28h 14a 14 14, 0, 0, 0, 0 -28" transform="rotate(90,1076,488)"/><path d="M 1118 474v 28h 14a 14 14, 0, 0, 0, 0 -28" transform="rotate(90,1132,488)"/><path d="M 26 502v 28h 14a 14 14, 0, 0, 0, 0 -28" transform="rotate(180,40,516)"/><path d="M 54 502v 28h 28v -14a 14 14, 0, 0, 0, -14 -14" transform="rotate(0,68,516)"/><rect x="138" y="502" width="28" height="28" transform="rotate(0,152,516)"/><path d="M 222 502v 28h 28v -14a 14 14, 0, 0, 0, -14 -14" transform="rotate(180,236,516)"/><rect x="250" y="502" width="28" height="28" transform="rotate(0,264,516)"/><path d="M 278 502v 28h 14a 14 14, 0, 0, 0, 0 -28" transform="rotate(0,292,516)"/><circle cx="404" cy="516" r="14" transform="rotate(0,404,516)"/><circle cx="488" cy="516" r="14" transform="rotate(0,488,516)"/><circle cx="544" cy="516" r="14" transform="rotate(0,544,516)"/><circle cx="628" cy="516" r="14" transform="rotate(0,628,516)"/><path d="M 670 502v 28h 14a 14 14, 0, 0, 0, 0 -28" transform="rotate(-90,684,516)"/><path d="M 754 502v 28h 28v -14a 14 14, 0, 0, 0, -14 -14" transform="rotate(-90,768,516)"/><rect x="782" y="502" width="28" height="28" transform="rotate(0,796,516)"/><path d="M 950 502v 28h 28v -14a 14 14, 0, 0, 0, -14 -14" transform="rotate(-90,964,516)"/><rect x="978" y="502" width="28" height="28" transform="rotate(0,992,516)"/><rect x="1006" y="502" width="28" height="28" transform="rotate(0,1020,516)"/><path d="M 1034 502v 28h 14a 14 14, 0, 0, 0, 0 -28" transform="rotate(0,1048,516)"/><circle cx="1104" cy="516" r="14" transform="rotate(0,1104,516)"/><path d="M 1146 502v 28h 14a 14 14, 0, 0, 0, 0 -28" transform="rotate(-90,1160,516)"/><rect x="54" y="530" width="28" height="28" transform="rotate(0,68,544)"/><rect x="138" y="530" width="28" height="28" transform="rotate(0,152,544)"/><circle cx="208" cy="544" r="14" transform="rotate(0,208,544)"/><path d="M 250 530v 28h 14a 14 14, 0, 0, 0, 0 -28" transform="rotate(90,264,544)"/><path d="M 334 530v 28h 14a 14 14, 0, 0, 0, 0 -28" transform="rotate(-90,348,544)"/><path d="M 558 530v 28h 14a 14 14, 0, 0, 0, 0 -28" transform="rotate(-90,572,544)"/><path d="M 670 530v 28h 28v -14a 14 14, 0, 0, 0, -14 -14" transform="rotate(180,684,544)"/><rect x="698" y="530" width="28" height="28" transform="rotate(0,712,544)"/><rect x="726" y="530" width="28" height="28" transform="rotate(0,740,544)"/><rect x="754" y="530" width="28" height="28" transform="rotate(0,768,544)"/><rect x="782" y="530" width="28" height="28" transform="rotate(0,796,544)"/><rect x="810" y="530" width="28" height="28" transform="rotate(0,824,544)"/><rect x="838" y="530" width="28" height="28" transform="rotate(0,852,544)"/><path d="M 866 530v 28h 28v -14a 14 14, 0, 0, 0, -14 -14" transform="rotate(0,880,544)"/><path d="M 950 530v 28h 14a 14 14, 0, 0, 0, 0 -28" transform="rotate(90,964,544)"/><rect x="1006" y="530" width="28" height="28" transform="rotate(0,1020,544)"/><path d="M 1062 530v 28h 14a 14 14, 0, 0, 0, 0 -28" transform="rotate(-90,1076,544)"/><path d="M 1146 530v 28h 14a 14 14, 0, 0, 0, 0 -28" transform="rotate(90,1160,544)"/><rect x="54" y="558" width="28" height="28" transform="rotate(0,68,572)"/><path d="M 110 558v 28h 28v -14a 14 14, 0, 0, 0, -14 -14" transform="rotate(-90,124,572)"/><rect x="138" y="558" width="28" height="28" transform="rotate(0,152,572)"/><path d="M 222 558v 28h 14a 14 14, 0, 0, 0, 0 -28" transform="rotate(-90,236,572)"/><path d="M 306 558v 28h 28v -14a 14 14, 0, 0, 0, -14 -14" transform="rotate(-90,320,572)"/><path d="M 334 558v 28h 28v -14a 14 14, 0, 0, 0, -14 -14" transform="rotate(90,348,572)"/><path d="M 390 558v 28h 14a 14 14, 0, 0, 0, 0 -28" transform="rotate(180,404,572)"/><rect x="418" y="558" width="28" height="28" transform="rotate(0,432,572)"/><path d="M 446 558v 28h 28v -14a 14 14, 0, 0, 0, -14 -14" transform="rotate(0,460,572)"/><path d="M 558 558v 28h 14a 14 14, 0, 0, 0, 0 -28" transform="rotate(90,572,572)"/><rect x="726" y="558" width="28" height="28" transform="rotate(0,740,572)"/><rect x="810" y="558" width="28" height="28" transform="rotate(0,824,572)"/><rect x="838" y="558" width="28" height="28" transform="rotate(0,852,572)"/><rect x="866" y="558" width="28" height="28" transform="rotate(0,880,572)"/><path d="M 978 558v 28h 14a 14 14, 0, 0, 0, 0 -28" transform="rotate(180,992,572)"/><path d="M 1006 558v 28h 28v -14a 14 14, 0, 0, 0, -14 -14" transform="rotate(90,1020,572)"/><path d="M 1062 558v 28h 14a 14 14, 0, 0, 0, 0 -28" transform="rotate(90,1076,572)"/><path d="M 1118 558v 28h 14a 14 14, 0, 0, 0, 0 -28" transform="rotate(-90,1132,572)"/><path d="M 54 586v 28h 28v -14a 14 14, 0, 0, 0, -14 -14" transform="rotate(180,68,600)"/><rect x="82" y="586" width="28" height="28" transform="rotate(0,96,600)"/><rect x="110" y="586" width="28" height="28" transform="rotate(0,124,600)"/><rect x="138" y="586" width="28" height="28" transform="rotate(0,152,600)"/><rect x="166" y="586" width="28" height="28" transform="rotate(0,180,600)"/><rect x="194" y="586" width="28" height="28" transform="rotate(0,208,600)"/><rect x="222" y="586" width="28" height="28" transform="rotate(0,236,600)"/><rect x="250" y="586" width="28" height="28" transform="rotate(0,264,600)"/><rect x="278" y="586" width="28" height="28" transform="rotate(0,292,600)"/><rect x="306" y="586" width="28" height="28" transform="rotate(0,320,600)"/><circle cx="376" cy="600" r="14" transform="rotate(0,376,600)"/><rect x="418" y="586" width="28" height="28" transform="rotate(0,432,600)"/><rect x="446" y="586" width="28" height="28" transform="rotate(0,460,600)"/><path d="M 502 586v 28h 14a 14 14, 0, 0, 0, 0 -28" transform="rotate(180,516,600)"/><path d="M 530 586v 28h 14a 14 14, 0, 0, 0, 0 -28" transform="rotate(0,544,600)"/><path d="M 586 586v 28h 28v -14a 14 14, 0, 0, 0, -14 -14" transform="rotate(-90,600,600)"/><rect x="614" y="586" width="28" height="28" transform="rotate(0,628,600)"/><path d="M 642 586v 28h 28v -14a 14 14, 0, 0, 0, -14 -14" transform="rotate(0,656,600)"/><path d="M 698 586v 28h 14a 14 14, 0, 0, 0, 0 -28" transform="rotate(180,712,600)"/><rect x="726" y="586" width="28" height="28" transform="rotate(0,740,600)"/><rect x="810" y="586" width="28" height="28" transform="rotate(0,824,600)"/><rect x="866" y="586" width="28" height="28" transform="rotate(0,880,600)"/><path d="M 922 586v 28h 14a 14 14, 0, 0, 0, 0 -28" transform="rotate(180,936,600)"/><path d="M 950 586v 28h 14a 14 14, 0, 0, 0, 0 -28" transform="rotate(0,964,600)"/><path d="M 1118 586v 28h 28v -14a 14 14, 0, 0, 0, -14 -14" transform="rotate(180,1132,600)"/><path d="M 1146 586v 28h 28v -14a 14 14, 0, 0, 0, -14 -14" transform="rotate(0,1160,600)"/><path d="M 82 614v 28h 28v -14a 14 14, 0, 0, 0, -14 -14" transform="rotate(180,96,628)"/><path d="M 110 614v 28h 28v -14a 14 14, 0, 0, 0, -14 -14" transform="rotate(90,124,628)"/><path d="M 166 614v 28h 14a 14 14, 0, 0, 0, 0 -28" transform="rotate(90,180,628)"/><path d="M 222 614v 28h 14a 14 14, 0, 0, 0, 0 -28" transform="rotate(90,236,628)"/><rect x="306" y="614" width="28" height="28" transform="rotate(0,320,628)"/><path d="M 418 614v 28h 28v -14a 14 14, 0, 0, 0, -14 -14" transform="rotate(180,432,628)"/><rect x="446" y="614" width="28" height="28" transform="rotate(0,460,628)"/><path d="M 474 614v 28h 14a 14 14, 0, 0, 0, 0 -28" transform="rotate(0,488,628)"/><rect x="586" y="614" width="28" height="28" transform="rotate(0,600,628)"/><path d="M 642 614v 28h 28v -14a 14 14, 0, 0, 0, -14 -14" transform="rotate(180,656,628)"/><path d="M 670 614v 28h 28v -14a 14 14, 0, 0, 0, -14 -14" transform="rotate(0,684,628)"/><path d="M 726 614v 28h 28v -14a 14 14, 0, 0, 0, -14 -14" transform="rotate(180,740,628)"/><rect x="754" y="614" width="28" height="28" transform="rotate(0,768,628)"/><rect x="782" y="614" width="28" height="28" transform="rotate(0,796,628)"/><path d="M 810 614v 28h 28v -14a 14 14, 0, 0, 0, -14 -14" transform="rotate(90,824,628)"/><rect x="866" y="614" width="28" height="28" transform="rotate(0,880,628)"/><path d="M 978 614v 28h 14a 14 14, 0, 0, 0, 0 -28" transform="rotate(180,992,628)"/><rect x="1006" y="614" width="28" height="28" transform="rotate(0,1020,628)"/><rect x="1034" y="614" width="28" height="28" transform="rotate(0,1048,628)"/><rect x="1062" y="614" width="28" height="28" transform="rotate(0,1076,628)"/><path d="M 1090 614v 28h 14a 14 14, 0, 0, 0, 0 -28" transform="rotate(0,1104,628)"/><rect x="1146" y="614" width="28" height="28" transform="rotate(0,1160,628)"/><path d="M 54 642v 28h 14a 14 14, 0, 0, 0, 0 -28" transform="rotate(-90,68,656)"/><circle cx="208" cy="656" r="14" transform="rotate(0,208,656)"/><path d="M 278 642v 28h 14a 14 14, 0, 0, 0, 0 -28" transform="rotate(180,292,656)"/><rect x="306" y="642" width="28" height="28" transform="rotate(0,320,656)"/><rect x="334" y="642" width="28" height="28" transform="rotate(0,348,656)"/><path d="M 362 642v 28h 14a 14 14, 0, 0, 0, 0 -28" transform="rotate(0,376,656)"/><path d="M 446 642v 28h 14a 14 14, 0, 0, 0, 0 -28" transform="rotate(90,460,656)"/><path d="M 530 642v 28h 28v -14a 14 14, 0, 0, 0, -14 -14" transform="rotate(-90,544,656)"/><rect x="558" y="642" width="28" height="28" transform="rotate(0,572,656)"/><path d="M 586 642v 28h 28v -14a 14 14, 0, 0, 0, -14 -14" transform="rotate(90,600,656)"/><path d="M 670 642v 28h 14a 14 14, 0, 0, 0, 0 -28" transform="rotate(90,684,656)"/><rect x="754" y="642" width="28" height="28" transform="rotate(0,768,656)"/><rect x="782" y="642" width="28" height="28" transform="rotate(0,796,656)"/><path d="M 838 642v 28h 28v -14a 14 14, 0, 0, 0, -14 -14" transform="rotate(-90,852,656)"/><rect x="866" y="642" width="28" height="28" transform="rotate(0,880,656)"/><circle cx="936" cy="656" r="14" transform="rotate(0,936,656)"/><path d="M 1146 642v 28h 14a 14 14, 0, 0, 0, 0 -28" transform="rotate(90,1160,656)"/><path d="M 26 670v 28h 14a 14 14, 0, 0, 0, 0 -28" transform="rotate(180,40,684)"/><rect x="54" y="670" width="28" height="28" transform="rotate(0,68,684)"/><rect x="82" y="670" width="28" height="28" transform="rotate(0,96,684)"/><path d="M 110 670v 28h 28v -14a 14 14, 0, 0, 0, -14 -14" transform="rotate(0,124,684)"/><path d="M 166 670v 28h 14a 14 14, 0, 0, 0, 0 -28" transform="rotate(-90,180,684)"/><path d="M 222 670v 28h 28v -14a 14 14, 0, 0, 0, -14 -14" transform="rotate(-90,236,684)"/><path d="M 250 670v 28h 14a 14 14, 0, 0, 0, 0 -28" transform="rotate(0,264,684)"/><rect x="334" y="670" width="28" height="28" transform="rotate(0,348,684)"/><path d="M 390 670v 28h 14a 14 14, 0, 0, 0, 0 -28" transform="rotate(180,404,684)"/><path d="M 418 670v 28h 14a 14 14, 0, 0, 0, 0 -28" transform="rotate(0,432,684)"/><rect x="530" y="670" width="28" height="28" transform="rotate(0,544,684)"/><path d="M 558 670v 28h 28v -14a 14 14, 0, 0, 0, -14 -14" transform="rotate(90,572,684)"/><path d="M 614 670v 28h 28v -14a 14 14, 0, 0, 0, -14 -14" transform="rotate(-90,628,684)"/><path d="M 642 670v 28h 28v -14a 14 14, 0, 0, 0, -14 -14" transform="rotate(0,656,684)"/><circle cx="712" cy="684" r="14" transform="rotate(0,712,684)"/><path d="M 754 670v 28h 28v -14a 14 14, 0, 0, 0, -14 -14" transform="rotate(180,768,684)"/><rect x="782" y="670" width="28" height="28" transform="rotate(0,796,684)"/><rect x="810" y="670" width="28" height="28" transform="rotate(0,824,684)"/><rect x="838" y="670" width="28" height="28" transform="rotate(0,852,684)"/><rect x="866" y="670" width="28" height="28" transform="rotate(0,880,684)"/><path d="M 894 670v 28h 28v -14a 14 14, 0, 0, 0, -14 -14" transform="rotate(0,908,684)"/><path d="M 950 670v 28h 14a 14 14, 0, 0, 0, 0 -28" transform="rotate(180,964,684)"/><path d="M 978 670v 28h 14a 14 14, 0, 0, 0, 0 -28" transform="rotate(0,992,684)"/><path d="M 1034 670v 28h 14a 14 14, 0, 0, 0, 0 -28" transform="rotate(180,1048,684)"/><path d="M 1062 670v 28h 14a 14 14, 0, 0, 0, 0 -28" transform="rotate(0,1076,684)"/><circle cx="1132" cy="684" r="14" transform="rotate(0,1132,684)"/><path d="M 110 698v 28h 14a 14 14, 0, 0, 0, 0 -28" transform="rotate(90,124,712)"/><path d="M 166 698v 28h 28v -14a 14 14, 0, 0, 0, -14 -14" transform="rotate(180,180,712)"/><rect x="194" y="698" width="28" height="28" transform="rotate(0,208,712)"/><path d="M 222 698v 28h 28v -14a 14 14, 0, 0, 0, -14 -14" transform="rotate(90,236,712)"/><circle cx="292" cy="712" r="14" transform="rotate(0,292,712)"/><rect x="334" y="698" width="28" height="28" transform="rotate(0,348,712)"/><path d="M 446 698v 28h 14a 14 14, 0, 0, 0, 0 -28" transform="rotate(-90,460,712)"/><rect x="530" y="698" width="28" height="28" transform="rotate(0,544,712)"/><path d="M 586 698v 28h 14a 14 14, 0, 0, 0, 0 -28" transform="rotate(180,600,712)"/><rect x="614" y="698" width="28" height="28" transform="rotate(0,628,712)"/><rect x="642" y="698" width="28" height="28" transform="rotate(0,656,712)"/><path d="M 670 698v 28h 28v -14a 14 14, 0, 0, 0, -14 -14" transform="rotate(0,684,712)"/><rect x="810" y="698" width="28" height="28" transform="rotate(0,824,712)"/><path d="M 838 698v 28h 28v -14a 14 14, 0, 0, 0, -14 -14" transform="rotate(90,852,712)"/><path d="M 894 698v 28h 28v -14a 14 14, 0, 0, 0, -14 -14" transform="rotate(180,908,712)"/><path d="M 922 698v 28h 28v -14a 14 14, 0, 0, 0, -14 -14" transform="rotate(0,936,712)"/><path d="M 54 726v 28h 14a 14 14, 0, 0, 0, 0 -28" transform="rotate(180,68,740)"/><path d="M 82 726v 28h 14a 14 14, 0, 0, 0, 0 -28" transform="rotate(0,96,740)"/><path d="M 306 726v 28h 14a 14 14, 0, 0, 0, 0 -28" transform="rotate(180,320,740)"/><rect x="334" y="726" width="28" height="28" transform="rotate(0,348,740)"/><rect x="362" y="726" width="28" height="28" transform="rotate(0,376,740)"/><rect x="390" y="726" width="28" height="28" transform="rotate(0,404,740)"/><rect x="418" y="726" width="28" height="28" transform="rotate(0,432,740)"/><rect x="446" y="726" width="28" height="28" transform="rotate(0,460,740)"/><path d="M 474 726v 28h 28v -14a 14 14, 0, 0, 0, -14 -14" transform="rotate(0,488,740)"/><rect x="530" y="726" width="28" height="28" transform="rotate(0,544,740)"/><path d="M 558 726v 28h 14a 14 14, 0, 0, 0, 0 -28" transform="rotate(0,572,740)"/><path d="M 642 726v 28h 28v -14a 14 14, 0, 0, 0, -14 -14" transform="rotate(180,656,740)"/><rect x="670" y="726" width="28" height="28" transform="rotate(0,684,740)"/><path d="M 754 726v 28h 28v -14a 14 14, 0, 0, 0, -14 -14" transform="rotate(-90,768,740)"/><rect x="782" y="726" width="28" height="28" transform="rotate(0,796,740)"/><rect x="810" y="726" width="28" height="28" transform="rotate(0,824,740)"/><path d="M 866 726v 28h 14a 14 14, 0, 0, 0, 0 -28" transform="rotate(-90,880,740)"/><rect x="922" y="726" width="28" height="28" transform="rotate(0,936,740)"/><path d="M 978 726v 28h 28v -14a 14 14, 0, 0, 0, -14 -14" transform="rotate(-90,992,740)"/><rect x="1006" y="726" width="28" height="28" transform="rotate(0,1020,740)"/><path d="M 1034 726v 28h 28v -14a 14 14, 0, 0, 0, -14 -14" transform="rotate(0,1048,740)"/><circle cx="1104" cy="740" r="14" transform="rotate(0,1104,740)"/><path d="M 1146 726v 28h 14a 14 14, 0, 0, 0, 0 -28" transform="rotate(-90,1160,740)"/><circle cx="40" cy="768" r="14" transform="rotate(0,40,768)"/><circle cx="152" cy="768" r="14" transform="rotate(0,152,768)"/><path d="M 194 754v 28h 14a 14 14, 0, 0, 0, 0 -28" transform="rotate(180,208,768)"/><rect x="222" y="754" width="28" height="28" transform="rotate(0,236,768)"/><rect x="250" y="754" width="28" height="28" transform="rotate(0,264,768)"/><path d="M 278 754v 28h 14a 14 14, 0, 0, 0, 0 -28" transform="rotate(0,292,768)"/><rect x="334" y="754" width="28" height="28" transform="rotate(0,348,768)"/><rect x="390" y="754" width="28" height="28" transform="rotate(0,404,768)"/><path d="M 446 754v 28h 28v -14a 14 14, 0, 0, 0, -14 -14" transform="rotate(180,460,768)"/><rect x="474" y="754" width="28" height="28" transform="rotate(0,488,768)"/><rect x="530" y="754" width="28" height="28" transform="rotate(0,544,768)"/><rect x="670" y="754" width="28" height="28" transform="rotate(0,684,768)"/><rect x="754" y="754" width="28" height="28" transform="rotate(0,768,768)"/><rect x="782" y="754" width="28" height="28" transform="rotate(0,796,768)"/><rect x="810" y="754" width="28" height="28" transform="rotate(0,824,768)"/><rect x="838" y="754" width="28" height="28" transform="rotate(0,852,768)"/><path d="M 866 754v 28h 28v -14a 14 14, 0, 0, 0, -14 -14" transform="rotate(90,880,768)"/><rect x="922" y="754" width="28" height="28" transform="rotate(0,936,768)"/><rect x="978" y="754" width="28" height="28" transform="rotate(0,992,768)"/><path d="M 1034 754v 28h 14a 14 14, 0, 0, 0, 0 -28" transform="rotate(90,1048,768)"/><rect x="1146" y="754" width="28" height="28" transform="rotate(0,1160,768)"/><path d="M 54 782v 28h 14a 14 14, 0, 0, 0, 0 -28" transform="rotate(180,68,796)"/><rect x="82" y="782" width="28" height="28" transform="rotate(0,96,796)"/><path d="M 110 782v 28h 28v -14a 14 14, 0, 0, 0, -14 -14" transform="rotate(0,124,796)"/><circle cx="180" cy="796" r="14" transform="rotate(0,180,796)"/><rect x="222" y="782" width="28" height="28" transform="rotate(0,236,796)"/><path d="M 306 782v 28h 14a 14 14, 0, 0, 0, 0 -28" transform="rotate(180,320,796)"/><path d="M 334 782v 28h 28v -14a 14 14, 0, 0, 0, -14 -14" transform="rotate(90,348,796)"/><path d="M 390 782v 28h 28v -14a 14 14, 0, 0, 0, -14 -14" transform="rotate(180,404,796)"/><path d="M 418 782v 28h 28v -14a 14 14, 0, 0, 0, -14 -14" transform="rotate(0,432,796)"/><path d="M 474 782v 28h 28v -14a 14 14, 0, 0, 0, -14 -14" transform="rotate(180,488,796)"/><rect x="502" y="782" width="28" height="28" transform="rotate(0,516,796)"/><rect x="530" y="782" width="28" height="28" transform="rotate(0,544,796)"/><rect x="558" y="782" width="28" height="28" transform="rotate(0,572,796)"/><path d="M 586 782v 28h 14a 14 14, 0, 0, 0, 0 -28" transform="rotate(0,600,796)"/><path d="M 642 782v 28h 14a 14 14, 0, 0, 0, 0 -28" transform="rotate(180,656,796)"/><rect x="670" y="782" width="28" height="28" transform="rotate(0,684,796)"/><path d="M 698 782v 28h 28v -14a 14 14, 0, 0, 0, -14 -14" transform="rotate(0,712,796)"/><path d="M 754 782v 28h 28v -14a 14 14, 0, 0, 0, -14 -14" transform="rotate(180,768,796)"/><path d="M 782 782v 28h 28v -14a 14 14, 0, 0, 0, -14 -14" transform="rotate(90,796,796)"/><rect x="838" y="782" width="28" height="28" transform="rotate(0,852,796)"/><path d="M 894 782v 28h 14a 14 14, 0, 0, 0, 0 -28" transform="rotate(180,908,796)"/><path d="M 922 782v 28h 28v -14a 14 14, 0, 0, 0, -14 -14" transform="rotate(90,936,796)"/><path d="M 978 782v 28h 28v -14a 14 14, 0, 0, 0, -14 -14" transform="rotate(180,992,796)"/><path d="M 1006 782v 28h 14a 14 14, 0, 0, 0, 0 -28" transform="rotate(0,1020,796)"/><circle cx="1076" cy="796" r="14" transform="rotate(0,1076,796)"/><path d="M 1118 782v 28h 28v -14a 14 14, 0, 0, 0, -14 -14" transform="rotate(-90,1132,796)"/><rect x="1146" y="782" width="28" height="28" transform="rotate(0,1160,796)"/><rect x="110" y="810" width="28" height="28" transform="rotate(0,124,824)"/><path d="M 194 810v 28h 14a 14 14, 0, 0, 0, 0 -28" transform="rotate(180,208,824)"/><rect x="222" y="810" width="28" height="28" transform="rotate(0,236,824)"/><rect x="250" y="810" width="28" height="28" transform="rotate(0,264,824)"/><path d="M 278 810v 28h 28v -14a 14 14, 0, 0, 0, -14 -14" transform="rotate(0,292,824)"/><rect x="418" y="810" width="28" height="28" transform="rotate(0,432,824)"/><path d="M 446 810v 28h 28v -14a 14 14, 0, 0, 0, -14 -14" transform="rotate(0,460,824)"/><rect x="530" y="810" width="28" height="28" transform="rotate(0,544,824)"/><path d="M 614 810v 28h 14a 14 14, 0, 0, 0, 0 -28" transform="rotate(-90,628,824)"/><path d="M 670 810v 28h 28v -14a 14 14, 0, 0, 0, -14 -14" transform="rotate(180,684,824)"/><path d="M 698 810v 28h 28v -14a 14 14, 0, 0, 0, -14 -14" transform="rotate(90,712,824)"/><path d="M 810 810v 28h 14a 14 14, 0, 0, 0, 0 -28" transform="rotate(180,824,824)"/><path d="M 838 810v 28h 28v -14a 14 14, 0, 0, 0, -14 -14" transform="rotate(90,852,824)"/><circle cx="964" cy="824" r="14" transform="rotate(0,964,824)"/><rect x="1118" y="810" width="28" height="28" transform="rotate(0,1132,824)"/><rect x="1146" y="810" width="28" height="28" transform="rotate(0,1160,824)"/><circle cx="40" cy="852" r="14" transform="rotate(0,40,852)"/><path d="M 82 838v 28h 14a 14 14, 0, 0, 0, 0 -28" transform="rotate(180,96,852)"/><path d="M 110 838v 28h 28v -14a 14 14, 0, 0, 0, -14 -14" transform="rotate(90,124,852)"/><circle cx="180" cy="852" r="14" transform="rotate(0,180,852)"/><rect x="222" y="838" width="28" height="28" transform="rotate(0,236,852)"/><rect x="250" y="838" width="28" height="28" transform="rotate(0,264,852)"/><rect x="278" y="838" width="28" height="28" transform="rotate(0,292,852)"/><rect x="306" y="838" width="28" height="28" transform="rotate(0,320,852)"/><rect x="334" y="838" width="28" height="28" transform="rotate(0,348,852)"/><path d="M 362 838v 28h 28v -14a 14 14, 0, 0, 0, -14 -14" transform="rotate(0,376,852)"/><rect x="418" y="838" width="28" height="28" transform="rotate(0,432,852)"/><rect x="446" y="838" width="28" height="28" transform="rotate(0,460,852)"/><rect x="474" y="838" width="28" height="28" transform="rotate(0,488,852)"/><rect x="502" y="838" width="28" height="28" transform="rotate(0,516,852)"/><path d="M 530 838v 28h 28v -14a 14 14, 0, 0, 0, -14 -14" transform="rotate(90,544,852)"/><path d="M 614 838v 28h 28v -14a 14 14, 0, 0, 0, -14 -14" transform="rotate(180,628,852)"/><path d="M 642 838v 28h 28v -14a 14 14, 0, 0, 0, -14 -14" transform="rotate(0,656,852)"/><circle cx="740" cy="852" r="14" transform="rotate(0,740,852)"/><circle cx="880" cy="852" r="14" transform="rotate(0,880,852)"/><circle cx="992" cy="852" r="14" transform="rotate(0,992,852)"/><circle cx="1048" cy="852" r="14" transform="rotate(0,1048,852)"/><path d="M 1118 838v 28h 28v -14a 14 14, 0, 0, 0, -14 -14" transform="rotate(180,1132,852)"/><rect x="1146" y="838" width="28" height="28" transform="rotate(0,1160,852)"/><circle cx="152" cy="880" r="14" transform="rotate(0,152,880)"/><path d="M 194 866v 28h 14a 14 14, 0, 0, 0, 0 -28" transform="rotate(180,208,880)"/><path d="M 222 866v 28h 28v -14a 14 14, 0, 0, 0, -14 -14" transform="rotate(90,236,880)"/><rect x="278" y="866" width="28" height="28" transform="rotate(0,292,880)"/><rect x="334" y="866" width="28" height="28" transform="rotate(0,348,880)"/><rect x="362" y="866" width="28" height="28" transform="rotate(0,376,880)"/><rect x="390" y="866" width="28" height="28" transform="rotate(0,404,880)"/><rect x="418" y="866" width="28" height="28" transform="rotate(0,432,880)"/><path d="M 502 866v 28h 14a 14 14, 0, 0, 0, 0 -28" transform="rotate(90,516,880)"/><path d="M 586 866v 28h 14a 14 14, 0, 0, 0, 0 -28" transform="rotate(-90,600,880)"/><path d="M 642 866v 28h 14a 14 14, 0, 0, 0, 0 -28" transform="rotate(90,656,880)"/><path d="M 782 866v 28h 14a 14 14, 0, 0, 0, 0 -28" transform="rotate(-90,796,880)"/><path d="M 950 866v 28h 14a 14 14, 0, 0, 0, 0 -28" transform="rotate(-90,964,880)"/><path d="M 1062 866v 28h 28v -14a 14 14, 0, 0, 0, -14 -14" transform="rotate(-90,1076,880)"/><path d="M 1090 866v 28h 14a 14 14, 0, 0, 0, 0 -28" transform="rotate(0,1104,880)"/><rect x="1146" y="866" width="28" height="28" transform="rotate(0,1160,880)"/><path d="M 82 894v 28h 14a 14 14, 0, 0, 0, 0 -28" transform="rotate(180,96,908)"/><path d="M 110 894v 28h 14a 14 14, 0, 0, 0, 0 -28" transform="rotate(0,124,908)"/><circle cx="180" cy="908" r="14" transform="rotate(0,180,908)"/><path d="M 250 894v 28h 14a 14 14, 0, 0, 0, 0 -28" transform="rotate(180,264,908)"/><rect x="278" y="894" width="28" height="28" transform="rotate(0,292,908)"/><rect x="306" y="894" width="28" height="28" transform="rotate(0,320,908)"/><rect x="334" y="894" width="28" height="28" transform="rotate(0,348,908)"/><rect x="362" y="894" width="28" height="28" transform="rotate(0,376,908)"/><rect x="390" y="894" width="28" height="28" transform="rotate(0,404,908)"/><rect x="418" y="894" width="28" height="28" transform="rotate(0,432,908)"/><path d="M 558 894v 28h 28v -14a 14 14, 0, 0, 0, -14 -14" transform="rotate(-90,572,908)"/><path d="M 586 894v 28h 28v -14a 14 14, 0, 0, 0, -14 -14" transform="rotate(90,600,908)"/><path d="M 698 894v 28h 14a 14 14, 0, 0, 0, 0 -28" transform="rotate(-90,712,908)"/><path d="M 754 894v 28h 14a 14 14, 0, 0, 0, 0 -28" transform="rotate(180,768,908)"/><rect x="782" y="894" width="28" height="28" transform="rotate(0,796,908)"/><rect x="810" y="894" width="28" height="28" transform="rotate(0,824,908)"/><path d="M 838 894v 28h 28v -14a 14 14, 0, 0, 0, -14 -14" transform="rotate(0,852,908)"/><path d="M 922 894v 28h 28v -14a 14 14, 0, 0, 0, -14 -14" transform="rotate(-90,936,908)"/><rect x="950" y="894" width="28" height="28" transform="rotate(0,964,908)"/><path d="M 1034 894v 28h 28v -14a 14 14, 0, 0, 0, -14 -14" transform="rotate(-90,1048,908)"/><rect x="1062" y="894" width="28" height="28" transform="rotate(0,1076,908)"/><rect x="1146" y="894" width="28" height="28" transform="rotate(0,1160,908)"/><path d="M 26 922v 28h 14a 14 14, 0, 0, 0, 0 -28" transform="rotate(180,40,936)"/><path d="M 54 922v 28h 14a 14 14, 0, 0, 0, 0 -28" transform="rotate(0,68,936)"/><path d="M 194 922v 28h 14a 14 14, 0, 0, 0, 0 -28" transform="rotate(180,208,936)"/><path d="M 222 922v 28h 14a 14 14, 0, 0, 0, 0 -28" transform="rotate(0,236,936)"/><path d="M 390 922v 28h 28v -14a 14 14, 0, 0, 0, -14 -14" transform="rotate(180,404,936)"/><path d="M 418 922v 28h 28v -14a 14 14, 0, 0, 0, -14 -14" transform="rotate(90,432,936)"/><circle cx="516" cy="936" r="14" transform="rotate(0,516,936)"/><rect x="558" y="922" width="28" height="28" transform="rotate(0,572,936)"/><path d="M 670 922v 28h 28v -14a 14 14, 0, 0, 0, -14 -14" transform="rotate(-90,684,936)"/><path d="M 698 922v 28h 28v -14a 14 14, 0, 0, 0, -14 -14" transform="rotate(90,712,936)"/><rect x="810" y="922" width="28" height="28" transform="rotate(0,824,936)"/><rect x="838" y="922" width="28" height="28" transform="rotate(0,852,936)"/><rect x="922" y="922" width="28" height="28" transform="rotate(0,936,936)"/><rect x="950" y="922" width="28" height="28" transform="rotate(0,964,936)"/><rect x="978" y="922" width="28" height="28" transform="rotate(0,992,936)"/><rect x="1006" y="922" width="28" height="28" transform="rotate(0,1020,936)"/><rect x="1034" y="922" width="28" height="28" transform="rotate(0,1048,936)"/><rect x="1062" y="922" width="28" height="28" transform="rotate(0,1076,936)"/><rect x="1146" y="922" width="28" height="28" transform="rotate(0,1160,936)"/><path d="M 250 950v 28h 14a 14 14, 0, 0, 0, 0 -28" transform="rotate(180,264,964)"/><path d="M 278 950v 28h 28v -14a 14 14, 0, 0, 0, -14 -14" transform="rotate(0,292,964)"/><path d="M 334 950v 28h 14a 14 14, 0, 0, 0, 0 -28" transform="rotate(-90,348,964)"/><path d="M 446 950v 28h 28v -14a 14 14, 0, 0, 0, -14 -14" transform="rotate(-90,460,964)"/><path d="M 474 950v 28h 28v -14a 14 14, 0, 0, 0, -14 -14" transform="rotate(0,488,964)"/><path d="M 530 950v 28h 28v -14a 14 14, 0, 0, 0, -14 -14" transform="rotate(-90,544,964)"/><path d="M 558 950v 28h 28v -14a 14 14, 0, 0, 0, -14 -14" transform="rotate(90,572,964)"/><circle cx="628" cy="964" r="14" transform="rotate(0,628,964)"/><rect x="670" y="950" width="28" height="28" transform="rotate(0,684,964)"/><path d="M 726 950v 28h 14a 14 14, 0, 0, 0, 0 -28" transform="rotate(180,740,964)"/><rect x="754" y="950" width="28" height="28" transform="rotate(0,768,964)"/><rect x="782" y="950" width="28" height="28" transform="rotate(0,796,964)"/><rect x="810" y="950" width="28" height="28" transform="rotate(0,824,964)"/><rect x="838" y="950" width="28" height="28" transform="rotate(0,852,964)"/><rect x="866" y="950" width="28" height="28" transform="rotate(0,880,964)"/><rect x="894" y="950" width="28" height="28" transform="rotate(0,908,964)"/><rect x="922" y="950" width="28" height="28" transform="rotate(0,936,964)"/><rect x="1034" y="950" width="28" height="28" transform="rotate(0,1048,964)"/><rect x="1062" y="950" width="28" height="28" transform="rotate(0,1076,964)"/><path d="M 1090 950v 28h 28v -14a 14 14, 0, 0, 0, -14 -14" transform="rotate(0,1104,964)"/><rect x="1146" y="950" width="28" height="28" transform="rotate(0,1160,964)"/><rect x="278" y="978" width="28" height="28" transform="rotate(0,292,992)"/><rect x="306" y="978" width="28" height="28" transform="rotate(0,320,992)"/><rect x="334" y="978" width="28" height="28" transform="rotate(0,348,992)"/><path d="M 362 978v 28h 14a 14 14, 0, 0, 0, 0 -28" transform="rotate(0,376,992)"/><path d="M 446 978v 28h 28v -14a 14 14, 0, 0, 0, -14 -14" transform="rotate(180,460,992)"/><rect x="474" y="978" width="28" height="28" transform="rotate(0,488,992)"/><rect x="502" y="978" width="28" height="28" transform="rotate(0,516,992)"/><rect x="530" y="978" width="28" height="28" transform="rotate(0,544,992)"/><circle cx="600" cy="992" r="14" transform="rotate(0,600,992)"/><path d="M 670 978v 28h 28v -14a 14 14, 0, 0, 0, -14 -14" transform="rotate(180,684,992)"/><path d="M 698 978v 28h 28v -14a 14 14, 0, 0, 0, -14 -14" transform="rotate(0,712,992)"/><path d="M 782 978v 28h 14a 14 14, 0, 0, 0, 0 -28" transform="rotate(90,796,992)"/><path d="M 866 978v 28h 28v -14a 14 14, 0, 0, 0, -14 -14" transform="rotate(180,880,992)"/><rect x="894" y="978" width="28" height="28" transform="rotate(0,908,992)"/><rect x="922" y="978" width="28" height="28" transform="rotate(0,936,992)"/><circle cx="992" cy="992" r="14" transform="rotate(0,992,992)"/><rect x="1034" y="978" width="28" height="28" transform="rotate(0,1048,992)"/><path d="M 1090 978v 28h 28v -14a 14 14, 0, 0, 0, -14 -14" transform="rotate(180,1104,992)"/><rect x="1118" y="978" width="28" height="28" transform="rotate(0,1132,992)"/><rect x="1146" y="978" width="28" height="28" transform="rotate(0,1160,992)"/><rect x="278" y="1006" width="28" height="28" transform="rotate(0,292,1020)"/><rect x="334" y="1006" width="28" height="28" transform="rotate(0,348,1020)"/><path d="M 390 1006v 28h 14a 14 14, 0, 0, 0, 0 -28" transform="rotate(180,404,1020)"/><path d="M 418 1006v 28h 14a 14 14, 0, 0, 0, 0 -28" transform="rotate(0,432,1020)"/><path d="M 474 1006v 28h 14a 14 14, 0, 0, 0, 0 -28" transform="rotate(90,488,1020)"/><path d="M 530 1006v 28h 28v -14a 14 14, 0, 0, 0, -14 -14" transform="rotate(180,544,1020)"/><path d="M 558 1006v 28h 14a 14 14, 0, 0, 0, 0 -28" transform="rotate(0,572,1020)"/><circle cx="628" cy="1020" r="14" transform="rotate(0,628,1020)"/><rect x="698" y="1006" width="28" height="28" transform="rotate(0,712,1020)"/><path d="M 754 1006v 28h 14a 14 14, 0, 0, 0, 0 -28" transform="rotate(-90,768,1020)"/><rect x="894" y="1006" width="28" height="28" transform="rotate(0,908,1020)"/><rect x="922" y="1006" width="28" height="28" transform="rotate(0,936,1020)"/><rect x="1034" y="1006" width="28" height="28" transform="rotate(0,1048,1020)"/><path d="M 1062 1006v 28h 14a 14 14, 0, 0, 0, 0 -28" transform="rotate(0,1076,1020)"/><rect x="1146" y="1006" width="28" height="28" transform="rotate(0,1160,1020)"/><path d="M 250 1034v 28h 14a 14 14, 0, 0, 0, 0 -28" transform="rotate(180,264,1048)"/><rect x="278" y="1034" width="28" height="28" transform="rotate(0,292,1048)"/><rect x="306" y="1034" width="28" height="28" transform="rotate(0,320,1048)"/><rect x="334" y="1034" width="28" height="28" transform="rotate(0,348,1048)"/><path d="M 362 1034v 28h 14a 14 14, 0, 0, 0, 0 -28" transform="rotate(0,376,1048)"/><path d="M 446 1034v 28h 14a 14 14, 0, 0, 0, 0 -28" transform="rotate(-90,460,1048)"/><path d="M 502 1034v 28h 14a 14 14, 0, 0, 0, 0 -28" transform="rotate(-90,516,1048)"/><circle cx="600" cy="1048" r="14" transform="rotate(0,600,1048)"/><circle cx="656" cy="1048" r="14" transform="rotate(0,656,1048)"/><path d="M 698 1034v 28h 28v -14a 14 14, 0, 0, 0, -14 -14" transform="rotate(180,712,1048)"/><rect x="726" y="1034" width="28" height="28" transform="rotate(0,740,1048)"/><rect x="754" y="1034" width="28" height="28" transform="rotate(0,768,1048)"/><path d="M 782 1034v 28h 28v -14a 14 14, 0, 0, 0, -14 -14" transform="rotate(0,796,1048)"/><path d="M 894 1034v 28h 28v -14a 14 14, 0, 0, 0, -14 -14" transform="rotate(180,908,1048)"/><rect x="922" y="1034" width="28" height="28" transform="rotate(0,936,1048)"/><rect x="950" y="1034" width="28" height="28" transform="rotate(0,964,1048)"/><rect x="978" y="1034" width="28" height="28" transform="rotate(0,992,1048)"/><rect x="1006" y="1034" width="28" height="28" transform="rotate(0,1020,1048)"/><path d="M 1034 1034v 28h 28v -14a 14 14, 0, 0, 0, -14 -14" transform="rotate(90,1048,1048)"/><path d="M 1146 1034v 28h 14a 14 14, 0, 0, 0, 0 -28" transform="rotate(90,1160,1048)"/><rect x="278" y="1062" width="28" height="28" transform="rotate(0,292,1076)"/><path d="M 418 1062v 28h 14a 14 14, 0, 0, 0, 0 -28" transform="rotate(180,432,1076)"/><path d="M 446 1062v 28h 28v -14a 14 14, 0, 0, 0, -14 -14" transform="rotate(90,460,1076)"/><rect x="502" y="1062" width="28" height="28" transform="rotate(0,516,1076)"/><path d="M 614 1062v 28h 14a 14 14, 0, 0, 0, 0 -28" transform="rotate(-90,628,1076)"/><path d="M 670 1062v 28h 14a 14 14, 0, 0, 0, 0 -28" transform="rotate(-90,684,1076)"/><rect x="726" y="1062" width="28" height="28" transform="rotate(0,740,1076)"/><rect x="782" y="1062" width="28" height="28" transform="rotate(0,796,1076)"/><rect x="810" y="1062" width="28" height="28" transform="rotate(0,824,1076)"/><rect x="838" y="1062" width="28" height="28" transform="rotate(0,852,1076)"/><path d="M 866 1062v 28h 28v -14a 14 14, 0, 0, 0, -14 -14" transform="rotate(0,880,1076)"/><rect x="922" y="1062" width="28" height="28" transform="rotate(0,936,1076)"/><path d="M 1006 1062v 28h 14a 14 14, 0, 0, 0, 0 -28" transform="rotate(90,1020,1076)"/><path d="M 1062 1062v 28h 28v -14a 14 14, 0, 0, 0, -14 -14" transform="rotate(-90,1076,1076)"/><path d="M 1090 1062v 28h 28v -14a 14 14, 0, 0, 0, -14 -14" transform="rotate(0,1104,1076)"/><rect x="278" y="1090" width="28" height="28" transform="rotate(0,292,1104)"/><path d="M 390 1090v 28h 14a 14 14, 0, 0, 0, 0 -28" transform="rotate(-90,404,1104)"/><path d="M 502 1090v 28h 28v -14a 14 14, 0, 0, 0, -14 -14" transform="rotate(180,516,1104)"/><rect x="530" y="1090" width="28" height="28" transform="rotate(0,544,1104)"/><rect x="558" y="1090" width="28" height="28" transform="rotate(0,572,1104)"/><rect x="586" y="1090" width="28" height="28" transform="rotate(0,600,1104)"/><rect x="614" y="1090" width="28" height="28" transform="rotate(0,628,1104)"/><rect x="670" y="1090" width="28" height="28" transform="rotate(0,684,1104)"/><rect x="698" y="1090" width="28" height="28" transform="rotate(0,712,1104)"/><rect x="726" y="1090" width="28" height="28" transform="rotate(0,740,1104)"/><rect x="754" y="1090" width="28" height="28" transform="rotate(0,768,1104)"/><path d="M 782 1090v 28h 28v -14a 14 14, 0, 0, 0, -14 -14" transform="rotate(90,796,1104)"/><rect x="838" y="1090" width="28" height="28" transform="rotate(0,852,1104)"/><rect x="866" y="1090" width="28" height="28" transform="rotate(0,880,1104)"/><rect x="894" y="1090" width="28" height="28" transform="rotate(0,908,1104)"/><rect x="922" y="1090" width="28" height="28" transform="rotate(0,936,1104)"/><path d="M 950 1090v 28h 14a 14 14, 0, 0, 0, 0 -28" transform="rotate(0,964,1104)"/><path d="M 1062 1090v 28h 28v -14a 14 14, 0, 0, 0, -14 -14" transform="rotate(180,1076,1104)"/><path d="M 1090 1090v 28h 28v -14a 14 14, 0, 0, 0, -14 -14" transform="rotate(90,1104,1104)"/><path d="M 1146 1090v 28h 14a 14 14, 0, 0, 0, 0 -28" transform="rotate(-90,1160,1104)"/><path d="M 250 1118v 28h 14a 14 14, 0, 0, 0, 0 -28" transform="rotate(180,264,1132)"/><path d="M 278 1118v 28h 28v -14a 14 14, 0, 0, 0, -14 -14" transform="rotate(90,292,1132)"/><path d="M 334 1118v 28h 14a 14 14, 0, 0, 0, 0 -28" transform="rotate(180,348,1132)"/><rect x="362" y="1118" width="28" height="28" transform="rotate(0,376,1132)"/><rect x="390" y="1118" width="28" height="28" transform="rotate(0,404,1132)"/><rect x="530" y="1118" width="28" height="28" transform="rotate(0,544,1132)"/><path d="M 614 1118v 28h 28v -14a 14 14, 0, 0, 0, -14 -14" transform="rotate(180,628,1132)"/><rect x="642" y="1118" width="28" height="28" transform="rotate(0,656,1132)"/><rect x="670" y="1118" width="28" height="28" transform="rotate(0,684,1132)"/><rect x="698" y="1118" width="28" height="28" transform="rotate(0,712,1132)"/><path d="M 810 1118v 28h 28v -14a 14 14, 0, 0, 0, -14 -14" transform="rotate(-90,824,1132)"/><rect x="838" y="1118" width="28" height="28" transform="rotate(0,852,1132)"/><path d="M 894 1118v 28h 28v -14a 14 14, 0, 0, 0, -14 -14" transform="rotate(180,908,1132)"/><rect x="922" y="1118" width="28" height="28" transform="rotate(0,936,1132)"/><path d="M 1006 1118v 28h 14a 14 14, 0, 0, 0, 0 -28" transform="rotate(-90,1020,1132)"/><path d="M 1118 1118v 28h 28v -14a 14 14, 0, 0, 0, -14 -14" transform="rotate(-90,1132,1132)"/><path d="M 1146 1118v 28h 28v -14a 14 14, 0, 0, 0, -14 -14" transform="rotate(90,1160,1132)"/><circle cx="320" cy="1160" r="14" transform="rotate(0,320,1160)"/><path d="M 390 1146v 28h 14a 14 14, 0, 0, 0, 0 -28" transform="rotate(90,404,1160)"/><circle cx="488" cy="1160" r="14" transform="rotate(0,488,1160)"/><path d="M 530 1146v 28h 14a 14 14, 0, 0, 0, 0 -28" transform="rotate(90,544,1160)"/><path d="M 642 1146v 28h 14a 14 14, 0, 0, 0, 0 -28" transform="rotate(90,656,1160)"/><path d="M 698 1146v 28h 14a 14 14, 0, 0, 0, 0 -28" transform="rotate(90,712,1160)"/><path d="M 810 1146v 28h 28v -14a 14 14, 0, 0, 0, -14 -14" transform="rotate(180,824,1160)"/><path d="M 838 1146v 28h 28v -14a 14 14, 0, 0, 0, -14 -14" transform="rotate(90,852,1160)"/><path d="M 922 1146v 28h 14a 14 14, 0, 0, 0, 0 -28" transform="rotate(90,936,1160)"/><path d="M 978 1146v 28h 14a 14 14, 0, 0, 0, 0 -28" transform="rotate(180,992,1160)"/><rect x="1006" y="1146" width="28" height="28" transform="rotate(0,1020,1160)"/><rect x="1034" y="1146" width="28" height="28" transform="rotate(0,1048,1160)"/><path d="M 1062 1146v 28h 14a 14 14, 0, 0, 0, 0 -28" transform="rotate(0,1076,1160)"/><path d="M 1118 1146v 28h 14a 14 14, 0, 0, 0, 0 -28" transform="rotate(90,1132,1160)"/></clipPath><clipPath id="clip-path-corners-square-color-0-0-739"><path clip-rule="evenodd" d="M 26 96v 56a 70 70, 0, 0, 0, 70 70h 56a 70 70, 0, 0, 0, 70 -70v -56a 70 70, 0, 0, 0, -70 -70h -56a 70 70, 0, 0, 0, -70 70M 96 54h 56a 42 42, 0, 0, 1, 42 42v 56a 42 42, 0, 0, 1, -42 42h -56a 42 42, 0, 0, 1, -42 -42v -56a 42 42, 0, 0, 1, 42 -42" transform="rotate(0,124,124)"/></clipPath><clipPath id="clip-path-corners-dot-color-0-0-739"><circle cx="124" cy="124" r="42" transform="rotate(0,124,124)"/></clipPath><clipPath id="clip-path-corners-square-color-1-0-739"><path clip-rule="evenodd" d="M 978 96v 56a 70 70, 0, 0, 0, 70 70h 56a 70 70, 0, 0, 0, 70 -70v -56a 70 70, 0, 0, 0, -70 -70h -56a 70 70, 0, 0, 0, -70 70M 1048 54h 56a 42 42, 0, 0, 1, 42 42v 56a 42 42, 0, 0, 1, -42 42h -56a 42 42, 0, 0, 1, -42 -42v -56a 42 42, 0, 0, 1, 42 -42" transform="rotate(90,1076,124)"/></clipPath><clipPath id="clip-path-corners-dot-color-1-0-739"><circle cx="1076" cy="124" r="42" transform="rotate(90,1076,124)"/></clipPath><clipPath id="clip-path-corners-square-color-0-1-739"><path clip-rule="evenodd" d="M 26 1048v 56a 70 70, 0, 0, 0, 70 70h 56a 70 70, 0, 0, 0, 70 -70v -56a 70 70, 0, 0, 0, -70 -70h -56a 70 70, 0, 0, 0, -70 70M 96 1006h 56a 42 42, 0, 0, 1, 42 42v 56a 42 42, 0, 0, 1, -42 42h -56a 42 42, 0, 0, 1, -42 -42v -56a 42 42, 0, 0, 1, 42 -42" transform="rotate(-90,124,1076)"/></clipPath><clipPath id="clip-path-corners-dot-color-0-1-739"><circle cx="124" cy="1076" r="42" transform="rotate(-90,124,1076)"/></clipPath></defs><rect x="0" y="0" height="1200" width="1200" clip-path="url('#clip-path-background-color-739')" fill="#ffffff"/><rect x="0" y="0" height="1200" width="1200" clip-path="url('#clip-path-dot-color-739')" fill="#000000"/><rect x="26" y="26" height="196" width="196" clip-path="url('#clip-path-corners-square-color-0-0-739')" fill="#000000"/><rect x="82" y="82" height="84" width="84" clip-path="url('#clip-path-corners-dot-color-0-0-739')" fill="#000000"/><rect x="978" y="26" height="196" width="196" clip-path="url('#clip-path-corners-square-color-1-0-739')" fill="#000000"/><rect x="1034" y="82" height="84" width="84" clip-path="url('#clip-path-corners-dot-color-1-0-739')" fill="#000000"/><rect x="26" y="978" height="196" width="196" clip-path="url('#clip-path-corners-square-color-0-1-739')" fill="#000000"/><rect x="82" y="1034" height="84" width="84" clip-path="url('#clip-path-corners-dot-color-0-1-739')" fill="#000000"/></svg>