<?xml version="1.0" standalone="no"?>
<svg xmlns="http://www.w3.org/2000/svg" width="1200" height="1200" xmlns:xlink="http://www.w3.org/1999/xlink" viewBox="0 0 1200 1200"><defs><clipPath id="clip-path-background-color-738"><rect x="0" y="0" width="1200" height="1200"/></clipPath><clipPath id="clip-path-dot-color-738"><circle cx="264" cy="40" r="14" transform="rotate(0,264,40)"/><path d="M 502 26v 28h 28v -14a 14 14, 0, 0, 0, -14 -14" transform="rotate(-90,516,40)"/><path d="M 530 26v 28h 28v -14a 14 14, 0, 0, 0, -14 -14" transform="rotate(0,544,40)"/><path d="M 586 26v 28h 28v -14a 14 14, 0, 0, 0, -14 -14" transform="rotate(-90,600,40)"/><path d="M 614 26v 28h 28v -14a 14 14, 0, 0, 0, -14 -14" transform="rotate(0,628,40)"/><circle cx="684" cy="40" r="14" transform="rotate(0,684,40)"/><path d="M 754 26v 28h 14a 14 14, 0, 0, 0, 0 -28" transform="rotate(180,768,40)"/><path d="M 782 26v 28h 28v -14a 14 14, 0, 0, 0, -14 -14" transform="rotate(0,796,40)"/><circle cx="852" cy="40" r="14" transform="rotate(0,852,40)"/><circle cx="908" cy="40" r="14" transform="rotate(0,908,40)"/><path d="M 278 54v 28h 28v -14a 14 14, 0, 0, 0, -14 -14" transform="rotate(-90,292,68)"/><rect x="306" y="54" width="28" height="28" transform="rotate(0,320,68)"/><path d="M 334 54v 28h 28v -14a 14 14, 0, 0, 0, -14 -14" transform="rotate(0,348,68)"/><path d="M 390 54v 28h 14a 14 14, 0, 0, 0, 0 -28" transform="rotate(-90,404,68)"/><rect x="502" y="54" width="28" height="28" transform="rotate(0,516,68)"/><rect x="530" y="54" width="28" height="28" transform="rotate(0,544,68)"/><rect x="558" y="54" width="28" height="28" transform="rotate(0,572,68)"/><rect x="586" y="54" width="28" height="28" transform="rotate(0,600,68)"/><rect x="614" y="54" width="28" height="28" transform="rotate(0,628,68)"/><path d="M 642 54v 28h 28v -14a 14 14, 0, 0, 0, -14 -14" transform="rotate(0,656,68)"/><path d="M 698 54v 28h 14a 14 14, 0, 0, 0, 0 -28" transform="rotate(-90,712,68)"/><path d="M 782 54v 28h 14a 14 14, 0, 0, 0, 0 -28" transform="rotate(90,796,68)"/><path d="M 866 54v 28h 14a 14 14, 0, 0, 0, 0 -28" transform="rotate(-90,880,68)"/><path d="M 922 54v 28h 14a 14 14, 0, 0, 0, 0 -28" transform="rotate(-90,936,68)"/><path d="M 250 82v 28h 28v -14a 14 14, 0, 0, 0, -14 -14" transform="rotate(-90,264,96)"/><path d="M 278 82v 28h 28v -14a 14 14, 0, 0, 0, -14 -14" transform="rotate(90,292,96)"/><path d="M 334 82v 28h 14a 14 14, 0, 0, 0, 0 -28" transform="rotate(90,348,96)"/><rect x="390" y="82" width="28" height="28" transform="rotate(0,404,96)"/><rect x="418" y="82" width="28" height="28" transform="rotate(0,432,96)"/><rect x="446" y="82" width="28" height="28" transform="rotate(0,460,96)"/><rect x="474" y="82" width="28" height="28" transform="rotate(0,488,96)"/><rect x="502" y="82" width="28" height="28" transform="rotate(0,516,96)"/><path d="M 558 82v 28h 14a 14 14, 0, 0, 0, 0 -28" transform="rotate(90,572,96)"/><rect x="642" y="82" width="28" height="28" transform="rotate(0,656,96)"/><rect x="670" y="82" width="28" height="28" transform="rotate(0,684,96)"/><path d="M 698 82v 28h 28v -14a 14 14, 0, 0, 0, -14 -14" transform="rotate(90,712,96)"/><circle cx="768" cy="96" r="14" transform="rotate(0,768,96)"/><rect x="866" y="82" width="28" height="28" transform="rotate(0,880,96)"/><rect x="894" y="82" width="28" height="28" transform="rotate(0,908,96)"/><rect x="922" y="82" width="28" height="28" transform="rotate(0,936,96)"/><path d="M 250 110v 28h 14a 14 14, 0, 0, 0, 0 -28" transform="rotate(90,264,124)"/><path d="M 362 110v 28h 28v -14a 14 14, 0, 0, 0, -14 -14" transform="rotate(-90,376,124)"/><rect x="390" y="110" width="28" height="28" transform="rotate(0,404,124)"/><path d="M 418 110v 28h 28v -14a 14 14, 0, 0, 0, -14 -14" transform="rotate(90,432,124)"/><path d="M 502 110v 28h 28v -14a 14 14, 0, 0, 0, -14 -14" transform="rotate(180,516,124)"/><path d="M 530 110v 28h 14a 14 14, 0, 0, 0, 0 -28" transform="rotate(0,544,124)"/><circle cx="600" cy="124" r="14" transform="rotate(0,600,124)"/><path d="M 642 110v 28h 28v -14a 14 14, 0, 0, 0, -14 -14" transform="rotate(180,656,124)"/><path d="M 670 110v 28h 28v -14a 14 14, 0, 0, 0, -14 -14" transform="rotate(90,684,124)"/><path d="M 726 110v 28h 14a 14 14, 0, 0, 0, 0 -28" transform="rotate(-90,740,124)"/><path d="M 838 110v 28h 14a 14 14, 0, 0, 0, 0 -28" transform="rotate(180,852,124)"/><rect x="866" y="110" width="28" height="28" transform="rotate(0,880,124)"/><path d="M 922 110v 28h 14a 14 14, 0, 0, 0, 0 -28" transform="rotate(90,936,124)"/><path d="M 278 138v 28h 28v -14a 14 14, 0, 0, 0, -14 -14" transform="rotate(-90,292,152)"/><rect x="306" y="138" width="28" height="28" transform="rotate(0,320,152)"/><rect x="334" y="138" width="28" height="28" transform="rotate(0,348,152)"/><rect x="362" y="138" width="28" height="28" transform="rotate(0,376,152)"/><rect x="390" y="138" width="28" height="28" transform="rotate(0,404,152)"/><path d="M 446 138v 28h 28v -14a 14 14, 0, 0, 0, -14 -14" transform="rotate(-90,460,152)"/><path d="M 474 138v 28h 14a 14 14, 0, 0, 0, 0 -28" transform="rotate(0,488,152)"/><path d="M 698 138v 28h 14a 14 14, 0, 0, 0, 0 -28" transform="rotate(180,712,152)"/><path d="M 726 138v 28h 28v -14a 14 14, 0, 0, 0, -14 -14" transform="rotate(90,740,152)"/><path d="M 782 138v 28h 28v -14a 14 14, 0, 0, 0, -14 -14" transform="rotate(-90,796,152)"/><path d="M 810 138v 28h 14a 14 14, 0, 0, 0, 0 -28" transform="rotate(0,824,152)"/><path d="M 866 138v 28h 14a 14 14, 0, 0, 0, 0 -28" transform="rotate(90,880,152)"/><path d="M 250 166v 28h 28v -14a 14 14, 0, 0, 0, -14 -14" transform="rotate(-90,264,180)"/><rect x="278" y="166" width="28" height="28" transform="rotate(0,292,180)"/><rect x="306" y="166" width="28" height="28" transform="rotate(0,320,180)"/><path d="M 390 166v 28h 28v -14a 14 14, 0, 0, 0, -14 -14" transform="rotate(180,404,180)"/><rect x="418" y="166" width="28" height="28" transform="rotate(0,432,180)"/><path d="M 446 166v 28h 28v -14a 14 14, 0, 0, 0, -14 -14" transform="rotate(90,460,180)"/><circle cx="516" cy="180" r="14" transform="rotate(0,516,180)"/><path d="M 586 166v 28h 14a 14 14, 0, 0, 0, 0 -28" transform="rotate(-90,600,180)"/><path d="M 754 166v 28h 28v -14a 14 14, 0, 0, 0, -14 -14" transform="rotate(-90,768,180)"/><path d="M 782 166v 28h 28v -14a 14 14, 0, 0, 0, -14 -14" transform="rotate(90,796,180)"/><circle cx="852" cy="180" r="14" transform="rotate(0,852,180)"/><circle cx="908" cy="180" r="14" transform="rotate(0,908,180)"/><rect x="250" y="194" width="28" height="28" transform="rotate(0,264,208)"/><path d="M 306 194v 28h 14a 14 14, 0, 0, 0, 0 -28" transform="rotate(90,320,208)"/><circle cx="376" cy="208" r="14" transform="rotate(0,376,208)"/><path d="M 418 194v 28h 14a 14 14, 0, 0, 0, 0 -28" transform="rotate(90,432,208)"/><path d="M 474 194v 28h 14a 14 14, 0, 0, 0, 0 -28" transform="rotate(-90,488,208)"/><circle cx="544" cy="208" r="14" transform="rotate(0,544,208)"/><rect x="586" y="194" width="28" height="28" transform="rotate(0,600,208)"/><circle cx="656" cy="208" r="14" transform="rotate(0,656,208)"/><path d="M 698 194v 28h 14a 14 14, 0, 0, 0, 0 -28" transform="rotate(-90,712,208)"/><path d="M 754 194v 28h 14a 14 14, 0, 0, 0, 0 -28" transform="rotate(90,768,208)"/><path d="M 810 194v 28h 14a 14 14, 0, 0, 0, 0 -28" transform="rotate(-90,824,208)"/><path d="M 866 194v 28h 14a 14 14, 0, 0, 0, 0 -28" transform="rotate(-90,880,208)"/><path d="M 922 194v 28h 14a 14 14, 0, 0, 0, 0 -28" transform="rotate(-90,936,208)"/><rect x="250" y="222" width="28" height="28" transform="rotate(0,264,236)"/><circle cx="404" cy="236" r="14" transform="rotate(0,404,236)"/><path d="M 446 222v 28h 14a 14 14, 0, 0, 0, 0 -28" transform="rotate(180,460,236)"/><rect x="474" y="222" width="28" height="28" transform="rotate(0,488,236)"/><path d="M 586 222v 28h 14a 14 14, 0, 0, 0, 0 -28" transform="rotate(90,600,236)"/><path d="M 670 222v 28h 14a 14 14, 0, 0, 0, 0 -28" transform="rotate(180,684,236)"/><rect x="698" y="222" width="28" height="28" transform="rotate(0,712,236)"/><path d="M 810 222v 28h 28v -14a 14 14, 0, 0, 0, -14 -14" transform="rotate(180,824,236)"/><rect x="838" y="222" width="28" height="28" transform="rotate(0,852,236)"/><path d="M 866 222v 28h 28v -14a 14 14, 0, 0, 0, -14 -14" transform="rotate(90,880,236)"/><path d="M 922 222v 28h 14a 14 14, 0, 0, 0, 0 -28" transform="rotate(90,936,236)"/><circle cx="68" cy="264" r="14" transform="rotate(0,68,264)"/><circle cx="124" cy="264" r="14" transform="rotate(0,124,264)"/><path d="M 166 250v 28h 28v -14a 14 14, 0, 0, 0, -14 -14" transform="rotate(-90,180,264)"/><rect x="194" y="250" width="28" height="28" transform="rotate(0,208,264)"/><rect x="222" y="250" width="28" height="28" transform="rotate(0,236,264)"/><path d="M 250 250v 28h 28v -14a 14 14, 0, 0, 0, -14 -14" transform="rotate(90,264,264)"/><path d="M 306 250v 28h 14a 14 14, 0, 0, 0, 0 -28" transform="rotate(-90,320,264)"/><circle cx="376" cy="264" r="14" transform="rotate(0,376,264)"/><path d="M 418 250v 28h 14a 14 14, 0, 0, 0, 0 -28" transform="rotate(-90,432,264)"/><rect x="474" y="250" width="28" height="28" transform="rotate(0,488,264)"/><path d="M 530 250v 28h 14a 14 14, 0, 0, 0, 0 -28" transform="rotate(180,544,264)"/><path d="M 558 250v 28h 28v -14a 14 14, 0, 0, 0, -14 -14" transform="rotate(0,572,264)"/><path d="M 614 250v 28h 14a 14 14, 0, 0, 0, 0 -28" transform="rotate(180,628,264)"/><path d="M 642 250v 28h 14a 14 14, 0, 0, 0, 0 -28" transform="rotate(0,656,264)"/><rect x="698" y="250" width="28" height="28" transform="rotate(0,712,264)"/><rect x="726" y="250" width="28" height="28" transform="rotate(0,740,264)"/><path d="M 754 250v 28h 14a 14 14, 0, 0, 0, 0 -28" transform="rotate(0,768,264)"/><path d="M 950 250v 28h 28v -14a 14 14, 0, 0, 0, -14 -14" transform="rotate(-90,964,264)"/><rect x="978" y="250" width="28" height="28" transform="rotate(0,992,264)"/><path d="M 1006 250v 28h 14a 14 14, 0, 0, 0, 0 -28" transform="rotate(0,1020,264)"/><path d="M 1062 250v 28h 28v -14a 14 14, 0, 0, 0, -14 -14" transform="rotate(-90,1076,264)"/><path d="M 1090 250v 28h 28v -14a 14 14, 0, 0, 0, -14 -14" transform="rotate(0,1104,264)"/><path d="M 1146 250v 28h 14a 14 14, 0, 0, 0, 0 -28" transform="rotate(-90,1160,264)"/><path d="M 26 278v 28h 14a 14 14, 0, 0, 0, 0 -28" transform="rotate(-90,40,292)"/><circle cx="96" cy="292" r="14" transform="rotate(0,96,292)"/><path d="M 138 278v 28h 28v -14a 14 14, 0, 0, 0, -14 -14" transform="rotate(-90,152,292)"/><path d="M 166 278v 28h 28v -14a 14 14, 0, 0, 0, -14 -14" transform="rotate(90,180,292)"/><path d="M 278 278v 28h 14a 14 14, 0, 0, 0, 0 -28" transform="rotate(180,292,292)"/><rect x="306" y="278" width="28" height="28" transform="rotate(0,320,292)"/><path d="M 334 278v 28h 14a 14 14, 0, 0, 0, 0 -28" transform="rotate(0,348,292)"/><path d="M 418 278v 28h 14a 14 14, 0, 0, 0, 0 -28" transform="rotate(90,432,292)"/><path d="M 474 278v 28h 14a 14 14, 0, 0, 0, 0 -28" transform="rotate(90,488,292)"/><path d="M 558 278v 28h 28v -14a 14 14, 0, 0, 0, -14 -14" transform="rotate(180,572,292)"/><path d="M 586 278v 28h 14a 14 14, 0, 0, 0, 0 -28" transform="rotate(0,600,292)"/><path d="M 698 278v 28h 28v -14a 14 14, 0, 0, 0, -14 -14" transform="rotate(180,712,292)"/><rect x="726" y="278" width="28" height="28" transform="rotate(0,740,292)"/><path d="M 810 278v 28h 28v -14a 14 14, 0, 0, 0, -14 -14" transform="rotate(-90,824,292)"/><rect x="838" y="278" width="28" height="28" transform="rotate(0,852,292)"/><path d="M 866 278v 28h 28v -14a 14 14, 0, 0, 0, -14 -14" transform="rotate(0,880,292)"/><path d="M 922 278v 28h 14a 14 14, 0, 0, 0, 0 -28" transform="rotate(180,936,292)"/><rect x="950" y="278" width="28" height="28" transform="rotate(0,964,292)"/><path d="M 978 278v 28h 28v -14a 14 14, 0, 0, 0, -14 -14" transform="rotate(90,992,292)"/><rect x="1062" y="278" width="28" height="28" transform="rotate(0,1076,292)"/><rect x="1090" y="278" width="28" height="28" transform="rotate(0,1104,292)"/><path d="M 1146 278v 28h 14a 14 14, 0, 0, 0, 0 -28" transform="rotate(90,1160,292)"/><path d="M 26 306v 28h 28v -14a 14 14, 0, 0, 0, -14 -14" transform="rotate(180,40,320)"/><path d="M 54 306v 28h 14a 14 14, 0, 0, 0, 0 -28" transform="rotate(0,68,320)"/><path d="M 110 306v 28h 14a 14 14, 0, 0, 0, 0 -28" transform="rotate(180,124,320)"/><rect x="138" y="306" width="28" height="28" transform="rotate(0,152,320)"/><path d="M 194 306v 28h 14a 14 14, 0, 0, 0, 0 -28" transform="rotate(180,208,320)"/><path d="M 222 306v 28h 28v -14a 14 14, 0, 0, 0, -14 -14" transform="rotate(0,236,320)"/><path d="M 306 306v 28h 14a 14 14, 0, 0, 0, 0 -28" transform="rotate(90,320,320)"/><path d="M 362 306v 28h 14a 14 14, 0, 0, 0, 0 -28" transform="rotate(180,376,320)"/><path d="M 390 306v 28h 28v -14a 14 14, 0, 0, 0, -14 -14" transform="rotate(0,404,320)"/><path d="M 642 306v 28h 14a 14 14, 0, 0, 0, 0 -28" transform="rotate(-90,656,320)"/><rect x="726" y="306" width="28" height="28" transform="rotate(0,740,320)"/><rect x="810" y="306" width="28" height="28" transform="rotate(0,824,320)"/><rect x="838" y="306" width="28" height="28" transform="rotate(0,852,320)"/><rect x="866" y="306" width="28" height="28" transform="rotate(0,880,320)"/><path d="M 894 306v 28h 14a 14 14, 0, 0, 0, 0 -28" transform="rotate(0,908,320)"/><path d="M 1006 306v 28h 14a 14 14, 0, 0, 0, 0 -28" transform="rotate(180,1020,320)"/><rect x="1034" y="306" width="28" height="28" transform="rotate(0,1048,320)"/><rect x="1062" y="306" width="28" height="28" transform="rotate(0,1076,320)"/><rect x="1090" y="306" width="28" height="28" transform="rotate(0,1104,320)"/><path d="M 1118 306v 28h 14a 14 14, 0, 0, 0, 0 -28" transform="rotate(0,1132,320)"/><path d="M 138 334v 28h 28v -14a 14 14, 0, 0, 0, -14 -14" transform="rotate(180,152,348)"/><path d="M 166 334v 28h 14a 14 14, 0, 0, 0, 0 -28" transform="rotate(0,180,348)"/><rect x="222" y="334" width="28" height="28" transform="rotate(0,236,348)"/><rect x="250" y="334" width="28" height="28" transform="rotate(0,264,348)"/><path d="M 278 334v 28h 28v -14a 14 14, 0, 0, 0, -14 -14" transform="rotate(0,292,348)"/><path d="M 334 334v 28h 14a 14 14, 0, 0, 0, 0 -28" transform="rotate(-90,348,348)"/><rect x="390" y="334" width="28" height="28" transform="rotate(0,404,348)"/><path d="M 418 334v 28h 14a 14 14, 0, 0, 0, 0 -28" transform="rotate(0,432,348)"/><path d="M 530 334v 28h 28v -14a 14 14, 0, 0, 0, -14 -14" transform="rotate(-90,544,348)"/><rect x="558" y="334" width="28" height="28" transform="rotate(0,572,348)"/><rect x="586" y="334" width="28" height="28" transform="rotate(0,600,348)"/><rect x="614" y="334" width="28" height="28" transform="rotate(0,628,348)"/><rect x="642" y="334" width="28" height="28" transform="rotate(0,656,348)"/><path d="M 670 334v 28h 14a 14 14, 0, 0, 0, 0 -28" transform="rotate(0,684,348)"/><rect x="726" y="334" width="28" height="28" transform="rotate(0,740,348)"/><rect x="754" y="334" width="28" height="28" transform="rotate(0,768,348)"/><rect x="782" y="334" width="28" height="28" transform="rotate(0,796,348)"/><rect x="810" y="334" width="28" height="28" transform="rotate(0,824,348)"/><path d="M 1090 334v 28h 14a 14 14, 0, 0, 0, 0 -28" transform="rotate(90,1104,348)"/><circle cx="40" cy="376" r="14" transform="rotate(0,40,376)"/><path d="M 82 362v 28h 28v -14a 14 14, 0, 0, 0, -14 -14" transform="rotate(-90,96,376)"/><path d="M 110 362v 28h 14a 14 14, 0, 0, 0, 0 -28" transform="rotate(0,124,376)"/><path d="M 194 362v 28h 14a 14 14, 0, 0, 0, 0 -28" transform="rotate(180,208,376)"/><rect x="222" y="362" width="28" height="28" transform="rotate(0,236,376)"/><rect x="250" y="362" width="28" height="28" transform="rotate(0,264,376)"/><rect x="278" y="362" width="28" height="28" transform="rotate(0,292,376)"/><rect x="306" y="362" width="28" height="28" transform="rotate(0,320,376)"/><rect x="334" y="362" width="28" height="28" transform="rotate(0,348,376)"/><rect x="362" y="362" width="28" height="28" transform="rotate(0,376,376)"/><path d="M 390 362v 28h 28v -14a 14 14, 0, 0, 0, -14 -14" transform="rotate(90,404,376)"/><circle cx="460" cy="376" r="14" transform="rotate(0,460,376)"/><path d="M 502 362v 28h 14a 14 14, 0, 0, 0, 0 -28" transform="rotate(180,516,376)"/><rect x="530" y="362" width="28" height="28" transform="rotate(0,544,376)"/><rect x="558" y="362" width="28" height="28" transform="rotate(0,572,376)"/><path d="M 614 362v 28h 14a 14 14, 0, 0, 0, 0 -28" transform="rotate(90,628,376)"/><path d="M 726 362v 28h 28v -14a 14 14, 0, 0, 0, -14 -14" transform="rotate(180,740,376)"/><path d="M 754 362v 28h 28v -14a 14 14, 0, 0, 0, -14 -14" transform="rotate(90,768,376)"/><path d="M 810 362v 28h 28v -14a 14 14, 0, 0, 0, -14 -14" transform="rotate(180,824,376)"/><path d="M 838 362v 28h 28v -14a 14 14, 0, 0, 0, -14 -14" transform="rotate(0,852,376)"/><path d="M 894 362v 28h 14a 14 14, 0, 0, 0, 0 -28" transform="rotate(180,908,376)"/><rect x="922" y="362" width="28" height="28" transform="rotate(0,936,376)"/><rect x="950" y="362" width="28" height="28" transform="rotate(0,964,376)"/><path d="M 978 362v 28h 14a 14 14, 0, 0, 0, 0 -28" transform="rotate(0,992,376)"/><circle cx="1076" cy="376" r="14" transform="rotate(0,1076,376)"/><path d="M 1118 362v 28h 28v -14a 14 14, 0, 0, 0, -14 -14" transform="rotate(-90,1132,376)"/><path d="M 1146 362v 28h 14a 14 14, 0, 0, 0, 0 -28" transform="rotate(0,1160,376)"/><path d="M 54 390v 28h 28v -14a 14 14, 0, 0, 0, -14 -14" transform="rotate(-90,68,404)"/><path d="M 82 390v 28h 28v -14a 14 14, 0, 0, 0, -14 -14" transform="rotate(90,96,404)"/><path d="M 138 390v 28h 14a 14 14, 0, 0, 0, 0 -28" transform="rotate(180,152,404)"/><path d="M 166 390v 28h 28v -14a 14 14, 0, 0, 0, -14 -14" transform="rotate(0,180,404)"/><path d="M 250 390v 28h 28v -14a 14 14, 0, 0, 0, -14 -14" transform="rotate(180,264,404)"/><rect x="278" y="390" width="28" height="28" transform="rotate(0,292,404)"/><rect x="306" y="390" width="28" height="28" transform="rotate(0,320,404)"/><path d="M 334 390v 28h 28v -14a 14 14, 0, 0, 0, -14 -14" transform="rotate(90,348,404)"/><path d="M 530 390v 28h 28v -14a 14 14, 0, 0, 0, -14 -14" transform="rotate(180,544,404)"/><rect x="558" y="390" width="28" height="28" transform="rotate(0,572,404)"/><path d="M 586 390v 28h 14a 14 14, 0, 0, 0, 0 -28" transform="rotate(0,600,404)"/><path d="M 642 390v 28h 14a 14 14, 0, 0, 0, 0 -28" transform="rotate(180,656,404)"/><path d="M 670 390v 28h 28v -14a 14 14, 0, 0, 0, -14 -14" transform="rotate(0,684,404)"/><path d="M 782 390v 28h 14a 14 14, 0, 0, 0, 0 -28" transform="rotate(-90,796,404)"/><path d="M 838 390v 28h 28v -14a 14 14, 0, 0, 0, -14 -14" transform="rotate(180,852,404)"/><path d="M 866 390v 28h 28v -14a 14 14, 0, 0, 0, -14 -14" transform="rotate(0,880,404)"/><rect x="1118" y="390" width="28" height="28" transform="rotate(0,1132,404)"/><path d="M 26 418v 28h 14a 14 14, 0, 0, 0, 0 -28" transform="rotate(180,40,432)"/><path d="M 54 418v 28h 28v -14a 14 14, 0, 0, 0, -14 -14" transform="rotate(90,68,432)"/><path d="M 166 418v 28h 28v -14a 14 14, 0, 0, 0, -14 -14" transform="rotate(180,180,432)"/><rect x="194" y="418" width="28" height="28" transform="rotate(0,208,432)"/><path d="M 222 418v 28h 28v -14a 14 14, 0, 0, 0, -14 -14" transform="rotate(0,236,432)"/><path d="M 278 418v 28h 28v -14a 14 14, 0, 0, 0, -14 -14" transform="rotate(180,292,432)"/><path d="M 306 418v 28h 28v -14a 14 14, 0, 0, 0, -14 -14" transform="rotate(90,320,432)"/><path d="M 362 418v 28h 14a 14 14, 0, 0, 0, 0 -28" transform="rotate(180,376,432)"/><path d="M 390 418v 28h 14a 14 14, 0, 0, 0, 0 -28" transform="rotate(0,404,432)"/><path d="M 446 418v 28h 14a 14 14, 0, 0, 0, 0 -28" transform="rotate(-90,460,432)"/><rect x="558" y="418" width="28" height="28" transform="rotate(0,572,432)"/><circle cx="628" cy="432" r="14" transform="rotate(0,628,432)"/><rect x="670" y="418" width="28" height="28" transform="rotate(0,684,432)"/><path d="M 726 418v 28h 14a 14 14, 0, 0, 0, 0 -28" transform="rotate(-90,740,432)"/><path d="M 782 418v 28h 28v -14a 14 14, 0, 0, 0, -14 -14" transform="rotate(180,796,432)"/><path d="M 810 418v 28h 28v -14a 14 14, 0, 0, 0, -14 -14" transform="rotate(0,824,432)"/><path d="M 866 418v 28h 14a 14 14, 0, 0, 0, 0 -28" transform="rotate(90,880,432)"/><circle cx="936" cy="432" r="14" transform="rotate(0,936,432)"/><path d="M 978 418v 28h 14a 14 14, 0, 0, 0, 0 -28" transform="rotate(-90,992,432)"/><path d="M 1062 418v 28h 14a 14 14, 0, 0, 0, 0 -28" transform="rotate(180,1076,432)"/><rect x="1090" y="418" width="28" height="28" transform="rotate(0,1104,432)"/><rect x="1118" y="418" width="28" height="28" transform="rotate(0,1132,432)"/><path d="M 1146 418v 28h 28v -14a 14 14, 0, 0, 0, -14 -14" transform="rotate(0,1160,432)"/><rect x="222" y="446" width="28" height="28" transform="rotate(0,236,460)"/><path d="M 250 446v 28h 14a 14 14, 0, 0, 0, 0 -28" transform="rotate(0,264,460)"/><path d="M 418 446v 28h 14a 14 14, 0, 0, 0, 0 -28" transform="rotate(180,432,460)"/><path d="M 446 446v 28h 28v -14a 14 14, 0, 0, 0, -14 -14" transform="rotate(90,460,460)"/><path d="M 530 446v 28h 28v -14a 14 14, 0, 0, 0, -14 -14" transform="rotate(-90,544,460)"/><rect x="558" y="446" width="28" height="28" transform="rotate(0,572,460)"/><path d="M 642 446v 28h 14a 14 14, 0, 0, 0, 0 -28" transform="rotate(180,656,460)"/><path d="M 670 446v 28h 28v -14a 14 14, 0, 0, 0, -14 -14" transform="rotate(90,684,460)"/><path d="M 726 446v 28h 28v -14a 14 14, 0, 0, 0, -14 -14" transform="rotate(180,740,460)"/><path d="M 754 446v 28h 14a 14 14, 0, 0, 0, 0 -28" transform="rotate(0,768,460)"/><path d="M 810 446v 28h 28v -14a 14 14, 0, 0, 0, -14 -14" transform="rotate(180,824,460)"/><path d="M 838 446v 28h 28v -14a 14 14, 0, 0, 0, -14 -14" transform="rotate(0,852,460)"/><path d="M 978 446v 28h 14a 14 14, 0, 0, 0, 0 -28" transform="rotate(90,992,460)"/><circle cx="1048" cy="460" r="14" transform="rotate(0,1048,460)"/><rect x="1118" y="446" width="28" height="28" transform="rotate(0,1132,460)"/><path d="M 1146 446v 28h 28v -14a 14 14, 0, 0, 0, -14 -14" transform="rotate(90,1160,460)"/><path d="M 26 474v 28h 14a 14 14, 0, 0, 0, 0 -28" transform="rotate(180,40,488)"/><path d="M 54 474v 28h 14a 14 14, 0, 0, 0, 0 -28" transform="rotate(0,68,488)"/><circle cx="124" cy="488" r="14" transform="rotate(0,124,488)"/><path d="M 194 474v 28h 14a 14 14, 0, 0, 0, 0 -28" transform="rotate(180,208,488)"/><path d="M 222 474v 28h 28v -14a 14 14, 0, 0, 0, -14 -14" transform="rotate(90,236,488)"/><circle cx="292" cy="488" r="14" transform="rotate(0,292,488)"/><path d="M 334 474v 28h 28v -14a 14 14, 0, 0, 0, -14 -14" transform="rotate(-90,348,488)"/><rect x="362" y="474" width="28" height="28" transform="rotate(0,376,488)"/><path d="M 390 474v 28h 28v -14a 14 14, 0, 0, 0, -14 -14" transform="rotate(0,404,488)"/><path d="M 474 474v 28h 28v -14a 14 14, 0, 0, 0, -14 -14" transform="rotate(-90,488,488)"/><rect x="502" y="474" width="28" height="28" transform="rotate(0,516,488)"/><rect x="530" y="474" width="28" height="28" transform="rotate(0,544,488)"/><rect x="558" y="474" width="28" height="28" transform="rotate(0,572,488)"/><circle cx="628" cy="488" r="14" transform="rotate(0,628,488)"/><circle cx="796" cy="488" r="14" transform="rotate(0,796,488)"/><path d="M 838 474v 28h 14a 14 14, 0, 0, 0, 0 -28" transform="rotate(90,852,488)"/><path d="M 894 474v 28h 14a 14 14, 0, 0, 0, 0 -28" transform="rotate(180,908,488)"/><path d="M 922 474v 28h 14a 14 14, 0, 0, 0, 0 -28" transform="rotate(0,936,488)"/><path d="M 1006 474v 28h 14a 14 14, 0, 0, 0, 0 -28" transform="rotate(-90,1020,488)"/><circle cx="1076" cy="488" r="14" transform="rotate(0,1076,488)"/><rect x="1118" y="474" width="28" height="28" transform="rotate(0,1132,488)"/><path d="M 82 502v 28h 14a 14 14, 0, 0, 0, 0 -28" transform="rotate(-90,96,516)"/><path d="M 138 502v 28h 28v -14a 14 14, 0, 0, 0, -14 -14" transform="rotate(-90,152,516)"/><path d="M 166 502v 28h 28v -14a 14 14, 0, 0, 0, -14 -14" transform="rotate(0,180,516)"/><path d="M 306 502v 28h 14a 14 14, 0, 0, 0, 0 -28" transform="rotate(180,320,516)"/><path d="M 334 502v 28h 28v -14a 14 14, 0, 0, 0, -14 -14" transform="rotate(90,348,516)"/><rect x="390" y="502" width="28" height="28" transform="rotate(0,404,516)"/><path d="M 446 502v 28h 14a 14 14, 0, 0, 0, 0 -28" transform="rotate(180,460,516)"/><rect x="474" y="502" width="28" height="28" transform="rotate(0,488,516)"/><rect x="530" y="502" width="28" height="28" transform="rotate(0,544,516)"/><path d="M 558 502v 28h 28v -14a 14 14, 0, 0, 0, -14 -14" transform="rotate(90,572,516)"/><path d="M 642 502v 28h 14a 14 14, 0, 0, 0, 0 -28" transform="rotate(180,656,516)"/><rect x="670" y="502" width="28" height="28" transform="rotate(0,684,516)"/><path d="M 698 502v 28h 28v -14a 14 14, 0, 0, 0, -14 -14" transform="rotate(0,712,516)"/><path d="M 866 502v 28h 14a 14 14, 0, 0, 0, 0 -28" transform="rotate(-90,880,516)"/><path d="M 978 502v 28h 14a 14 14, 0, 0, 0, 0 -28" transform="rotate(180,992,516)"/><path d="M 1006 502v 28h 28v -14a 14 14, 0, 0, 0, -14 -14" transform="rotate(90,1020,516)"/><path d="M 1090 502v 28h 28v -14a 14 14, 0, 0, 0, -14 -14" transform="rotate(-90,1104,516)"/><rect x="1118" y="502" width="28" height="28" transform="rotate(0,1132,516)"/><path d="M 1146 502v 28h 28v -14a 14 14, 0, 0, 0, -14 -14" transform="rotate(0,1160,516)"/><path d="M 26 530v 28h 14a 14 14, 0, 0, 0, 0 -28" transform="rotate(180,40,544)"/><rect x="54" y="530" width="28" height="28" transform="rotate(0,68,544)"/><rect x="82" y="530" width="28" height="28" transform="rotate(0,96,544)"/><rect x="110" y="530" width="28" height="28" transform="rotate(0,124,544)"/><rect x="138" y="530" width="28" height="28" transform="rotate(0,152,544)"/><rect x="166" y="530" width="28" height="28" transform="rotate(0,180,544)"/><rect x="194" y="530" width="28" height="28" transform="rotate(0,208,544)"/><rect x="222" y="530" width="28" height="28" transform="rotate(0,236,544)"/><path d="M 250 530v 28h 28v -14a 14 14, 0, 0, 0, -14 -14" transform="rotate(0,264,544)"/><rect x="390" y="530" width="28" height="28" transform="rotate(0,404,544)"/><path d="M 474 530v 28h 14a 14 14, 0, 0, 0, 0 -28" transform="rotate(90,488,544)"/><rect x="530" y="530" width="28" height="28" transform="rotate(0,544,544)"/><circle cx="600" cy="544" r="14" transform="rotate(0,600,544)"/><rect x="698" y="530" width="28" height="28" transform="rotate(0,712,544)"/><path d="M 726 530v 28h 28v -14a 14 14, 0, 0, 0, -14 -14" transform="rotate(0,740,544)"/><path d="M 810 530v 28h 14a 14 14, 0, 0, 0, 0 -28" transform="rotate(-90,824,544)"/><rect x="866" y="530" width="28" height="28" transform="rotate(0,880,544)"/><circle cx="936" cy="544" r="14" transform="rotate(0,936,544)"/><path d="M 1034 530v 28h 14a 14 14, 0, 0, 0, 0 -28" transform="rotate(180,1048,544)"/><rect x="1062" y="530" width="28" height="28" transform="rotate(0,1076,544)"/><rect x="1090" y="530" width="28" height="28" transform="rotate(0,1104,544)"/><rect x="1118" y="530" width="28" height="28" transform="rotate(0,1132,544)"/><path d="M 1146 530v 28h 28v -14a 14 14, 0, 0, 0, -14 -14" transform="rotate(90,1160,544)"/><path d="M 54 558v 28h 14a 14 14, 0, 0, 0, 0 -28" transform="rotate(90,68,572)"/><path d="M 138 558v 28h 14a 14 14, 0, 0, 0, 0 -28" transform="rotate(90,152,572)"/><rect x="250" y="558" width="28" height="28" transform="rotate(0,264,572)"/><path d="M 278 558v 28h 28v -14a 14 14, 0, 0, 0, -14 -14" transform="rotate(0,292,572)"/><rect x="390" y="558" width="28" height="28" transform="rotate(0,404,572)"/><path d="M 446 558v 28h 14a 14 14, 0, 0, 0, 0 -28" transform="rotate(-90,460,572)"/><path d="M 530 558v 28h 14a 14 14, 0, 0, 0, 0 -28" transform="rotate(90,544,572)"/><path d="M 670 558v 28h 28v -14a 14 14, 0, 0, 0, -14 -14" transform="rotate(-90,684,572)"/><rect x="698" y="558" width="28" height="28" transform="rotate(0,712,572)"/><path d="M 726 558v 28h 28v -14a 14 14, 0, 0, 0, -14 -14" transform="rotate(90,740,572)"/><path d="M 810 558v 28h 28v -14a 14 14, 0, 0, 0, -14 -14" transform="rotate(180,824,572)"/><rect x="838" y="558" width="28" height="28" transform="rotate(0,852,572)"/><rect x="866" y="558" width="28" height="28" transform="rotate(0,880,572)"/><path d="M 978 558v 28h 28v -14a 14 14, 0, 0, 0, -14 -14" transform="rotate(-90,992,572)"/><path d="M 1006 558v 28h 28v -14a 14 14, 0, 0, 0, -14 -14" transform="rotate(0,1020,572)"/><rect x="1062" y="558" width="28" height="28" transform="rotate(0,1076,572)"/><rect x="1118" y="558" width="28" height="28" transform="rotate(0,1132,572)"/><path d="M 82 586v 28h 14a 14 14, 0, 0, 0, 0 -28" transform="rotate(180,96,600)"/><path d="M 110 586v 28h 14a 14 14, 0, 0, 0, 0 -28" transform="rotate(0,124,600)"/><path d="M 194 586v 28h 14a 14 14, 0, 0, 0, 0 -28" transform="rotate(180,208,600)"/><rect x="222" y="586" width="28" height="28" transform="rotate(0,236,600)"/><rect x="250" y="586" width="28" height="28" transform="rotate(0,264,600)"/><rect x="278" y="586" width="28" height="28" transform="rotate(0,292,600)"/><rect x="306" y="586" width="28" height="28" transform="rotate(0,320,600)"/><rect x="334" y="586" width="28" height="28" transform="rotate(0,348,600)"/><rect x="362" y="586" width="28" height="28" transform="rotate(0,376,600)"/><rect x="390" y="586" width="28" height="28" transform="rotate(0,404,600)"/><rect x="418" y="586" width="28" height="28" transform="rotate(0,432,600)"/><rect x="446" y="586" width="28" height="28" transform="rotate(0,460,600)"/><path d="M 474 586v 28h 28v -14a 14 14, 0, 0, 0, -14 -14" transform="rotate(0,488,600)"/><circle cx="572" cy="600" r="14" transform="rotate(0,572,600)"/><path d="M 670 586v 28h 28v -14a 14 14, 0, 0, 0, -14 -14" transform="rotate(180,684,600)"/><rect x="698" y="586" width="28" height="28" transform="rotate(0,712,600)"/><circle cx="768" cy="600" r="14" transform="rotate(0,768,600)"/><rect x="838" y="586" width="28" height="28" transform="rotate(0,852,600)"/><rect x="866" y="586" width="28" height="28" transform="rotate(0,880,600)"/><path d="M 894 586v 28h 14a 14 14, 0, 0, 0, 0 -28" transform="rotate(0,908,600)"/><path d="M 950 586v 28h 28v -14a 14 14, 0, 0, 0, -14 -14" transform="rotate(-90,964,600)"/><rect x="978" y="586" width="28" height="28" transform="rotate(0,992,600)"/><path d="M 1006 586v 28h 28v -14a 14 14, 0, 0, 0, -14 -14" transform="rotate(90,1020,600)"/><rect x="1062" y="586" width="28" height="28" transform="rotate(0,1076,600)"/><rect x="1090" y="586" width="28" height="28" transform="rotate(0,1104,600)"/><rect x="1118" y="586" width="28" height="28" transform="rotate(0,1132,600)"/><circle cx="152" cy="628" r="14" transform="rotate(0,152,628)"/><rect x="278" y="614" width="28" height="28" transform="rotate(0,292,628)"/><path d="M 334 614v 28h 28v -14a 14 14, 0, 0, 0, -14 -14" transform="rotate(180,348,628)"/><path d="M 362 614v 28h 28v -14a 14 14, 0, 0, 0, -14 -14" transform="rotate(90,376,628)"/><rect x="418" y="614" width="28" height="28" transform="rotate(0,432,628)"/><rect x="474" y="614" width="28" height="28" transform="rotate(0,488,628)"/><rect x="502" y="614" width="28" height="28" transform="rotate(0,516,628)"/><path d="M 530 614v 28h 28v -14a 14 14, 0, 0, 0, -14 -14" transform="rotate(0,544,628)"/><path d="M 614 614v 28h 28v -14a 14 14, 0, 0, 0, -14 -14" transform="rotate(-90,628,628)"/><path d="M 642 614v 28h 28v -14a 14 14, 0, 0, 0, -14 -14" transform="rotate(0,656,628)"/><rect x="698" y="614" width="28" height="28" transform="rotate(0,712,628)"/><path d="M 726 614v 28h 28v -14a 14 14, 0, 0, 0, -14 -14" transform="rotate(0,740,628)"/><path d="M 810 614v 28h 28v -14a 14 14, 0, 0, 0, -14 -14" transform="rotate(-90,824,628)"/><rect x="838" y="614" width="28" height="28" transform="rotate(0,852,628)"/><path d="M 866 614v 28h 28v -14a 14 14, 0, 0, 0, -14 -14" transform="rotate(90,880,628)"/><path d="M 922 614v 28h 14a 14 14, 0, 0, 0, 0 -28" transform="rotate(180,936,628)"/><rect x="950" y="614" width="28" height="28" transform="rotate(0,964,628)"/><rect x="978" y="614" width="28" height="28" transform="rotate(0,992,628)"/><rect x="1062" y="614" width="28" height="28" transform="rotate(0,1076,628)"/><rect x="1118" y="614" width="28" height="28" transform="rotate(0,1132,628)"/><path d="M 1146 614v 28h 14a 14 14, 0, 0, 0, 0 -28" transform="rotate(0,1160,628)"/><path d="M 26 642v 28h 14a 14 14, 0, 0, 0, 0 -28" transform="rotate(-90,40,656)"/><path d="M 110 642v 28h 14a 14 14, 0, 0, 0, 0 -28" transform="rotate(-90,124,656)"/><path d="M 194 642v 28h 14a 14 14, 0, 0, 0, 0 -28" transform="rotate(180,208,656)"/><path d="M 222 642v 28h 28v -14a 14 14, 0, 0, 0, -14 -14" transform="rotate(0,236,656)"/><path d="M 278 642v 28h 14a 14 14, 0, 0, 0, 0 -28" transform="rotate(90,292,656)"/><path d="M 390 642v 28h 14a 14 14, 0, 0, 0, 0 -28" transform="rotate(180,404,656)"/><path d="M 418 642v 28h 28v -14a 14 14, 0, 0, 0, -14 -14" transform="rotate(90,432,656)"/><rect x="474" y="642" width="28" height="28" transform="rotate(0,488,656)"/><rect x="502" y="642" width="28" height="28" transform="rotate(0,516,656)"/><path d="M 530 642v 28h 28v -14a 14 14, 0, 0, 0, -14 -14" transform="rotate(90,544,656)"/><rect x="614" y="642" width="28" height="28" transform="rotate(0,628,656)"/><rect x="642" y="642" width="28" height="28" transform="rotate(0,656,656)"/><rect x="698" y="642" width="28" height="28" transform="rotate(0,712,656)"/><rect x="726" y="642" width="28" height="28" transform="rotate(0,740,656)"/><path d="M 810 642v 28h 14a 14 14, 0, 0, 0, 0 -28" transform="rotate(90,824,656)"/><circle cx="908" cy="656" r="14" transform="rotate(0,908,656)"/><rect x="950" y="642" width="28" height="28" transform="rotate(0,964,656)"/><path d="M 978 642v 28h 28v -14a 14 14, 0, 0, 0, -14 -14" transform="rotate(90,992,656)"/><path d="M 1062 642v 28h 14a 14 14, 0, 0, 0, 0 -28" transform="rotate(90,1076,656)"/><rect x="1118" y="642" width="28" height="28" transform="rotate(0,1132,656)"/><rect x="26" y="670" width="28" height="28" transform="rotate(0,40,684)"/><rect x="54" y="670" width="28" height="28" transform="rotate(0,68,684)"/><rect x="82" y="670" width="28" height="28" transform="rotate(0,96,684)"/><rect x="110" y="670" width="28" height="28" transform="rotate(0,124,684)"/><path d="M 138 670v 28h 14a 14 14, 0, 0, 0, 0 -28" transform="rotate(0,152,684)"/><rect x="222" y="670" width="28" height="28" transform="rotate(0,236,684)"/><path d="M 250 670v 28h 14a 14 14, 0, 0, 0, 0 -28" transform="rotate(0,264,684)"/><circle cx="320" cy="684" r="14" transform="rotate(0,320,684)"/><path d="M 474 670v 28h 28v -14a 14 14, 0, 0, 0, -14 -14" transform="rotate(180,488,684)"/><path d="M 502 670v 28h 28v -14a 14 14, 0, 0, 0, -14 -14" transform="rotate(90,516,684)"/><path d="M 586 670v 28h 28v -14a 14 14, 0, 0, 0, -14 -14" transform="rotate(-90,600,684)"/><rect x="614" y="670" width="28" height="28" transform="rotate(0,628,684)"/><rect x="642" y="670" width="28" height="28" transform="rotate(0,656,684)"/><rect x="670" y="670" width="28" height="28" transform="rotate(0,684,684)"/><rect x="698" y="670" width="28" height="28" transform="rotate(0,712,684)"/><rect x="726" y="670" width="28" height="28" transform="rotate(0,740,684)"/><circle cx="796" cy="684" r="14" transform="rotate(0,796,684)"/><circle cx="880" cy="684" r="14" transform="rotate(0,880,684)"/><path d="M 922 670v 28h 28v -14a 14 14, 0, 0, 0, -14 -14" transform="rotate(-90,936,684)"/><path d="M 950 670v 28h 28v -14a 14 14, 0, 0, 0, -14 -14" transform="rotate(90,964,684)"/><path d="M 1090 670v 28h 14a 14 14, 0, 0, 0, 0 -28" transform="rotate(180,1104,684)"/><path d="M 1118 670v 28h 28v -14a 14 14, 0, 0, 0, -14 -14" transform="rotate(90,1132,684)"/><path d="M 26 698v 28h 14a 14 14, 0, 0, 0, 0 -28" transform="rotate(90,40,712)"/><path d="M 82 698v 28h 28v -14a 14 14, 0, 0, 0, -14 -14" transform="rotate(180,96,712)"/><rect x="110" y="698" width="28" height="28" transform="rotate(0,124,712)"/><path d="M 166 698v 28h 14a 14 14, 0, 0, 0, 0 -28" transform="rotate(180,180,712)"/><rect x="194" y="698" width="28" height="28" transform="rotate(0,208,712)"/><path d="M 222 698v 28h 28v -14a 14 14, 0, 0, 0, -14 -14" transform="rotate(90,236,712)"/><path d="M 334 698v 28h 14a 14 14, 0, 0, 0, 0 -28" transform="rotate(-90,348,712)"/><path d="M 390 698v 28h 14a 14 14, 0, 0, 0, 0 -28" transform="rotate(180,404,712)"/><rect x="418" y="698" width="28" height="28" transform="rotate(0,432,712)"/><path d="M 446 698v 28h 28v -14a 14 14, 0, 0, 0, -14 -14" transform="rotate(0,460,712)"/><path d="M 558 698v 28h 28v -14a 14 14, 0, 0, 0, -14 -14" transform="rotate(-90,572,712)"/><rect x="586" y="698" width="28" height="28" transform="rotate(0,600,712)"/><rect x="614" y="698" width="28" height="28" transform="rotate(0,628,712)"/><rect x="642" y="698" width="28" height="28" transform="rotate(0,656,712)"/><path d="M 670 698v 28h 28v -14a 14 14, 0, 0, 0, -14 -14" transform="rotate(90,684,712)"/><rect x="726" y="698" width="28" height="28" transform="rotate(0,740,712)"/><path d="M 838 698v 28h 14a 14 14, 0, 0, 0, 0 -28" transform="rotate(-90,852,712)"/><path d="M 922 698v 28h 14a 14 14, 0, 0, 0, 0 -28" transform="rotate(90,936,712)"/><circle cx="992" cy="712" r="14" transform="rotate(0,992,712)"/><circle cx="1160" cy="712" r="14" transform="rotate(0,1160,712)"/><path d="M 110 726v 28h 14a 14 14, 0, 0, 0, 0 -28" transform="rotate(90,124,740)"/><path d="M 250 726v 28h 14a 14 14, 0, 0, 0, 0 -28" transform="rotate(180,264,740)"/><rect x="278" y="726" width="28" height="28" transform="rotate(0,292,740)"/><rect x="306" y="726" width="28" height="28" transform="rotate(0,320,740)"/><path d="M 334 726v 28h 28v -14a 14 14, 0, 0, 0, -14 -14" transform="rotate(90,348,740)"/><path d="M 418 726v 28h 28v -14a 14 14, 0, 0, 0, -14 -14" transform="rotate(180,432,740)"/><rect x="446" y="726" width="28" height="28" transform="rotate(0,460,740)"/><path d="M 502 726v 28h 14a 14 14, 0, 0, 0, 0 -28" transform="rotate(180,516,740)"/><rect x="530" y="726" width="28" height="28" transform="rotate(0,544,740)"/><rect x="558" y="726" width="28" height="28" transform="rotate(0,572,740)"/><rect x="586" y="726" width="28" height="28" transform="rotate(0,600,740)"/><rect x="614" y="726" width="28" height="28" transform="rotate(0,628,740)"/><path d="M 642 726v 28h 28v -14a 14 14, 0, 0, 0, -14 -14" transform="rotate(90,656,740)"/><path d="M 698 726v 28h 28v -14a 14 14, 0, 0, 0, -14 -14" transform="rotate(-90,712,740)"/><path d="M 726 726v 28h 28v -14a 14 14, 0, 0, 0, -14 -14" transform="rotate(90,740,740)"/><rect x="838" y="726" width="28" height="28" transform="rotate(0,852,740)"/><circle cx="908" cy="740" r="14" transform="rotate(0,908,740)"/><path d="M 950 726v 28h 14a 14 14, 0, 0, 0, 0 -28" transform="rotate(-90,964,740)"/><circle cx="1076" cy="740" r="14" transform="rotate(0,1076,740)"/><path d="M 1118 726v 28h 14a 14 14, 0, 0, 0, 0 -28" transform="rotate(-90,1132,740)"/><circle cx="40" cy="768" r="14" transform="rotate(0,40,768)"/><circle cx="208" cy="768" r="14" transform="rotate(0,208,768)"/><path d="M 362 754v 28h 14a 14 14, 0, 0, 0, 0 -28" transform="rotate(180,376,768)"/><path d="M 390 754v 28h 14a 14 14, 0, 0, 0, 0 -28" transform="rotate(0,404,768)"/><path d="M 446 754v 28h 14a 14 14, 0, 0, 0, 0 -28" transform="rotate(90,460,768)"/><rect x="586" y="754" width="28" height="28" transform="rotate(0,600,768)"/><path d="M 614 754v 28h 28v -14a 14 14, 0, 0, 0, -14 -14" transform="rotate(90,628,768)"/><path d="M 670 754v 28h 28v -14a 14 14, 0, 0, 0, -14 -14" transform="rotate(-90,684,768)"/><rect x="698" y="754" width="28" height="28" transform="rotate(0,712,768)"/><path d="M 754 754v 28h 14a 14 14, 0, 0, 0, 0 -28" transform="rotate(-90,768,768)"/><path d="M 810 754v 28h 28v -14a 14 14, 0, 0, 0, -14 -14" transform="rotate(-90,824,768)"/><rect x="838" y="754" width="28" height="28" transform="rotate(0,852,768)"/><path d="M 922 754v 28h 28v -14a 14 14, 0, 0, 0, -14 -14" transform="rotate(-90,936,768)"/><rect x="950" y="754" width="28" height="28" transform="rotate(0,964,768)"/><path d="M 978 754v 28h 14a 14 14, 0, 0, 0, 0 -28" transform="rotate(0,992,768)"/><rect x="1118" y="754" width="28" height="28" transform="rotate(0,1132,768)"/><path d="M 1146 754v 28h 14a 14 14, 0, 0, 0, 0 -28" transform="rotate(0,1160,768)"/><path d="M 54 782v 28h 14a 14 14, 0, 0, 0, 0 -28" transform="rotate(180,68,796)"/><path d="M 82 782v 28h 28v -14a 14 14, 0, 0, 0, -14 -14" transform="rotate(0,96,796)"/><path d="M 138 782v 28h 14a 14 14, 0, 0, 0, 0 -28" transform="rotate(180,152,796)"/><path d="M 166 782v 28h 14a 14 14, 0, 0, 0, 0 -28" transform="rotate(0,180,796)"/><circle cx="348" cy="796" r="14" transform="rotate(0,348,796)"/><path d="M 418 782v 28h 14a 14 14, 0, 0, 0, 0 -28" transform="rotate(-90,432,796)"/><path d="M 474 782v 28h 28v -14a 14 14, 0, 0, 0, -14 -14" transform="rotate(-90,488,796)"/><rect x="502" y="782" width="28" height="28" transform="rotate(0,516,796)"/><rect x="530" y="782" width="28" height="28" transform="rotate(0,544,796)"/><rect x="558" y="782" width="28" height="28" transform="rotate(0,572,796)"/><rect x="586" y="782" width="28" height="28" transform="rotate(0,600,796)"/><rect x="670" y="782" width="28" height="28" transform="rotate(0,684,796)"/><rect x="698" y="782" width="28" height="28" transform="rotate(0,712,796)"/><rect x="726" y="782" width="28" height="28" transform="rotate(0,740,796)"/><rect x="754" y="782" width="28" height="28" transform="rotate(0,768,796)"/><rect x="782" y="782" width="28" height="28" transform="rotate(0,796,796)"/><rect x="810" y="782" width="28" height="28" transform="rotate(0,824,796)"/><rect x="838" y="782" width="28" height="28" transform="rotate(0,852,796)"/><path d="M 922 782v 28h 28v -14a 14 14, 0, 0, 0, -14 -14" transform="rotate(180,936,796)"/><rect x="950" y="782" width="28" height="28" transform="rotate(0,964,796)"/><circle cx="1020" cy="796" r="14" transform="rotate(0,1020,796)"/><rect x="1118" y="782" width="28" height="28" transform="rotate(0,1132,796)"/><circle cx="40" cy="824" r="14" transform="rotate(0,40,824)"/><rect x="82" y="810" width="28" height="28" transform="rotate(0,96,824)"/><path d="M 110 810v 28h 14a 14 14, 0, 0, 0, 0 -28" transform="rotate(0,124,824)"/><path d="M 194 810v 28h 14a 14 14, 0, 0, 0, 0 -28" transform="rotate(180,208,824)"/><rect x="222" y="810" width="28" height="28" transform="rotate(0,236,824)"/><rect x="250" y="810" width="28" height="28" transform="rotate(0,264,824)"/><path d="M 278 810v 28h 28v -14a 14 14, 0, 0, 0, -14 -14" transform="rotate(0,292,824)"/><rect x="418" y="810" width="28" height="28" transform="rotate(0,432,824)"/><rect x="474" y="810" width="28" height="28" transform="rotate(0,488,824)"/><path d="M 530 810v 28h 14a 14 14, 0, 0, 0, 0 -28" transform="rotate(90,544,824)"/><rect x="586" y="810" width="28" height="28" transform="rotate(0,600,824)"/><path d="M 614 810v 28h 28v -14a 14 14, 0, 0, 0, -14 -14" transform="rotate(0,628,824)"/><path d="M 670 810v 28h 28v -14a 14 14, 0, 0, 0, -14 -14" transform="rotate(180,684,824)"/><rect x="698" y="810" width="28" height="28" transform="rotate(0,712,824)"/><path d="M 810 810v 28h 28v -14a 14 14, 0, 0, 0, -14 -14" transform="rotate(180,824,824)"/><path d="M 838 810v 28h 28v -14a 14 14, 0, 0, 0, -14 -14" transform="rotate(90,852,824)"/><rect x="950" y="810" width="28" height="28" transform="rotate(0,964,824)"/><path d="M 1118 810v 28h 14a 14 14, 0, 0, 0, 0 -28" transform="rotate(90,1132,824)"/><path d="M 54 838v 28h 14a 14 14, 0, 0, 0, 0 -28" transform="rotate(180,68,852)"/><rect x="82" y="838" width="28" height="28" transform="rotate(0,96,852)"/><rect x="222" y="838" width="28" height="28" transform="rotate(0,236,852)"/><rect x="250" y="838" width="28" height="28" transform="rotate(0,264,852)"/><rect x="278" y="838" width="28" height="28" transform="rotate(0,292,852)"/><rect x="306" y="838" width="28" height="28" transform="rotate(0,320,852)"/><path d="M 334 838v 28h 14a 14 14, 0, 0, 0, 0 -28" transform="rotate(0,348,852)"/><rect x="418" y="838" width="28" height="28" transform="rotate(0,432,852)"/><rect x="474" y="838" width="28" height="28" transform="rotate(0,488,852)"/><path d="M 502 838v 28h 28v -14a 14 14, 0, 0, 0, -14 -14" transform="rotate(0,516,852)"/><rect x="586" y="838" width="28" height="28" transform="rotate(0,600,852)"/><rect x="614" y="838" width="28" height="28" transform="rotate(0,628,852)"/><path d="M 642 838v 28h 28v -14a 14 14, 0, 0, 0, -14 -14" transform="rotate(0,656,852)"/><rect x="698" y="838" width="28" height="28" transform="rotate(0,712,852)"/><path d="M 726 838v 28h 28v -14a 14 14, 0, 0, 0, -14 -14" transform="rotate(0,740,852)"/><circle cx="796" cy="852" r="14" transform="rotate(0,796,852)"/><path d="M 950 838v 28h 28v -14a 14 14, 0, 0, 0, -14 -14" transform="rotate(180,964,852)"/><path d="M 978 838v 28h 14a 14 14, 0, 0, 0, 0 -28" transform="rotate(0,992,852)"/><path d="M 1146 838v 28h 14a 14 14, 0, 0, 0, 0 -28" transform="rotate(-90,1160,852)"/><circle cx="40" cy="880" r="14" transform="rotate(0,40,880)"/><rect x="82" y="866" width="28" height="28" transform="rotate(0,96,880)"/><rect x="110" y="866" width="28" height="28" transform="rotate(0,124,880)"/><rect x="138" y="866" width="28" height="28" transform="rotate(0,152,880)"/><rect x="166" y="866" width="28" height="28" transform="rotate(0,180,880)"/><rect x="194" y="866" width="28" height="28" transform="rotate(0,208,880)"/><rect x="222" y="866" width="28" height="28" transform="rotate(0,236,880)"/><rect x="250" y="866" width="28" height="28" transform="rotate(0,264,880)"/><rect x="278" y="866" width="28" height="28" transform="rotate(0,292,880)"/><path d="M 390 866v 28h 28v -14a 14 14, 0, 0, 0, -14 -14" transform="rotate(-90,404,880)"/><rect x="418" y="866" width="28" height="28" transform="rotate(0,432,880)"/><rect x="474" y="866" width="28" height="28" transform="rotate(0,488,880)"/><rect x="502" y="866" width="28" height="28" transform="rotate(0,516,880)"/><path d="M 586 866v 28h 14a 14 14, 0, 0, 0, 0 -28" transform="rotate(90,600,880)"/><rect x="642" y="866" width="28" height="28" transform="rotate(0,656,880)"/><rect x="670" y="866" width="28" height="28" transform="rotate(0,684,880)"/><rect x="698" y="866" width="28" height="28" transform="rotate(0,712,880)"/><rect x="726" y="866" width="28" height="28" transform="rotate(0,740,880)"/><path d="M 754 866v 28h 14a 14 14, 0, 0, 0, 0 -28" transform="rotate(0,768,880)"/><path d="M 838 866v 28h 28v -14a 14 14, 0, 0, 0, -14 -14" transform="rotate(-90,852,880)"/><path d="M 866 866v 28h 14a 14 14, 0, 0, 0, 0 -28" transform="rotate(0,880,880)"/><path d="M 1006 866v 28h 14a 14 14, 0, 0, 0, 0 -28" transform="rotate(180,1020,880)"/><rect x="1034" y="866" width="28" height="28" transform="rotate(0,1048,880)"/><path d="M 1062 866v 28h 28v -14a 14 14, 0, 0, 0, -14 -14" transform="rotate(0,1076,880)"/><path d="M 1118 866v 28h 14a 14 14, 0, 0, 0, 0 -28" transform="rotate(180,1132,880)"/><rect x="1146" y="866" width="28" height="28" transform="rotate(0,1160,880)"/><rect x="82" y="894" width="28" height="28" transform="rotate(0,96,908)"/><rect x="110" y="894" width="28" height="28" transform="rotate(0,124,908)"/><path d="M 166 894v 28h 14a 14 14, 0, 0, 0, 0 -28" transform="rotate(90,180,908)"/><path d="M 250 894v 28h 28v -14a 14 14, 0, 0, 0, -14 -14" transform="rotate(180,264,908)"/><rect x="278" y="894" width="28" height="28" transform="rotate(0,292,908)"/><rect x="306" y="894" width="28" height="28" transform="rotate(0,320,908)"/><rect x="334" y="894" width="28" height="28" transform="rotate(0,348,908)"/><rect x="362" y="894" width="28" height="28" transform="rotate(0,376,908)"/><rect x="390" y="894" width="28" height="28" transform="rotate(0,404,908)"/><rect x="418" y="894" width="28" height="28" transform="rotate(0,432,908)"/><rect x="474" y="894" width="28" height="28" transform="rotate(0,488,908)"/><rect x="502" y="894" width="28" height="28" transform="rotate(0,516,908)"/><path d="M 558 894v 28h 14a 14 14, 0, 0, 0, 0 -28" transform="rotate(-90,572,908)"/><path d="M 614 894v 28h 14a 14 14, 0, 0, 0, 0 -28" transform="rotate(180,628,908)"/><path d="M 642 894v 28h 28v -14a 14 14, 0, 0, 0, -14 -14" transform="rotate(90,656,908)"/><path d="M 698 894v 28h 14a 14 14, 0, 0, 0, 0 -28" transform="rotate(90,712,908)"/><path d="M 782 894v 28h 14a 14 14, 0, 0, 0, 0 -28" transform="rotate(180,796,908)"/><rect x="810" y="894" width="28" height="28" transform="rotate(0,824,908)"/><path d="M 838 894v 28h 28v -14a 14 14, 0, 0, 0, -14 -14" transform="rotate(90,852,908)"/><path d="M 922 894v 28h 28v -14a 14 14, 0, 0, 0, -14 -14" transform="rotate(-90,936,908)"/><path d="M 950 894v 28h 28v -14a 14 14, 0, 0, 0, -14 -14" transform="rotate(0,964,908)"/><rect x="1034" y="894" width="28" height="28" transform="rotate(0,1048,908)"/><path d="M 1062 894v 28h 28v -14a 14 14, 0, 0, 0, -14 -14" transform="rotate(90,1076,908)"/><path d="M 1146 894v 28h 14a 14 14, 0, 0, 0, 0 -28" transform="rotate(90,1160,908)"/><circle cx="40" cy="936" r="14" transform="rotate(0,40,936)"/><path d="M 82 922v 28h 28v -14a 14 14, 0, 0, 0, -14 -14" transform="rotate(180,96,936)"/><rect x="110" y="922" width="28" height="28" transform="rotate(0,124,936)"/><path d="M 138 922v 28h 14a 14 14, 0, 0, 0, 0 -28" transform="rotate(0,152,936)"/><circle cx="208" cy="936" r="14" transform="rotate(0,208,936)"/><rect x="278" y="922" width="28" height="28" transform="rotate(0,292,936)"/><rect x="362" y="922" width="28" height="28" transform="rotate(0,376,936)"/><rect x="418" y="922" width="28" height="28" transform="rotate(0,432,936)"/><rect x="446" y="922" width="28" height="28" transform="rotate(0,460,936)"/><rect x="474" y="922" width="28" height="28" transform="rotate(0,488,936)"/><rect x="502" y="922" width="28" height="28" transform="rotate(0,516,936)"/><rect x="530" y="922" width="28" height="28" transform="rotate(0,544,936)"/><path d="M 558 922v 28h 28v -14a 14 14, 0, 0, 0, -14 -14" transform="rotate(90,572,936)"/><path d="M 726 922v 28h 28v -14a 14 14, 0, 0, 0, -14 -14" transform="rotate(-90,740,936)"/><path d="M 754 922v 28h 14a 14 14, 0, 0, 0, 0 -28" transform="rotate(0,768,936)"/><rect x="922" y="922" width="28" height="28" transform="rotate(0,936,936)"/><rect x="950" y="922" width="28" height="28" transform="rotate(0,964,936)"/><rect x="978" y="922" width="28" height="28" transform="rotate(0,992,936)"/><rect x="1006" y="922" width="28" height="28" transform="rotate(0,1020,936)"/><rect x="1034" y="922" width="28" height="28" transform="rotate(0,1048,936)"/><circle cx="1104" cy="936" r="14" transform="rotate(0,1104,936)"/><path d="M 250 950v 28h 28v -14a 14 14, 0, 0, 0, -14 -14" transform="rotate(-90,264,964)"/><rect x="278" y="950" width="28" height="28" transform="rotate(0,292,964)"/><path d="M 306 950v 28h 28v -14a 14 14, 0, 0, 0, -14 -14" transform="rotate(0,320,964)"/><rect x="362" y="950" width="28" height="28" transform="rotate(0,376,964)"/><rect x="418" y="950" width="28" height="28" transform="rotate(0,432,964)"/><path d="M 446 950v 28h 28v -14a 14 14, 0, 0, 0, -14 -14" transform="rotate(90,460,964)"/><rect x="502" y="950" width="28" height="28" transform="rotate(0,516,964)"/><circle cx="628" cy="964" r="14" transform="rotate(0,628,964)"/><path d="M 698 950v 28h 14a 14 14, 0, 0, 0, 0 -28" transform="rotate(180,712,964)"/><rect x="726" y="950" width="28" height="28" transform="rotate(0,740,964)"/><path d="M 810 950v 28h 14a 14 14, 0, 0, 0, 0 -28" transform="rotate(-90,824,964)"/><path d="M 894 950v 28h 14a 14 14, 0, 0, 0, 0 -28" transform="rotate(180,908,964)"/><rect x="922" y="950" width="28" height="28" transform="rotate(0,936,964)"/><rect x="1034" y="950" width="28" height="28" transform="rotate(0,1048,964)"/><path d="M 1062 950v 28h 28v -14a 14 14, 0, 0, 0, -14 -14" transform="rotate(0,1076,964)"/><path d="M 1118 950v 28h 14a 14 14, 0, 0, 0, 0 -28" transform="rotate(180,1132,964)"/><path d="M 1146 950v 28h 14a 14 14, 0, 0, 0, 0 -28" transform="rotate(0,1160,964)"/><rect x="250" y="978" width="28" height="28" transform="rotate(0,264,992)"/><rect x="278" y="978" width="28" height="28" transform="rotate(0,292,992)"/><rect x="306" y="978" width="28" height="28" transform="rotate(0,320,992)"/><rect x="334" y="978" width="28" height="28" transform="rotate(0,348,992)"/><rect x="362" y="978" width="28" height="28" transform="rotate(0,376,992)"/><rect x="390" y="978" width="28" height="28" transform="rotate(0,404,992)"/><path d="M 418 978v 28h 28v -14a 14 14, 0, 0, 0, -14 -14" transform="rotate(90,432,992)"/><rect x="502" y="978" width="28" height="28" transform="rotate(0,516,992)"/><path d="M 558 978v 28h 14a 14 14, 0, 0, 0, 0 -28" transform="rotate(180,572,992)"/><path d="M 586 978v 28h 14a 14 14, 0, 0, 0, 0 -28" transform="rotate(0,600,992)"/><path d="M 642 978v 28h 14a 14 14, 0, 0, 0, 0 -28" transform="rotate(-90,656,992)"/><rect x="726" y="978" width="28" height="28" transform="rotate(0,740,992)"/><path d="M 754 978v 28h 14a 14 14, 0, 0, 0, 0 -28" transform="rotate(0,768,992)"/><rect x="810" y="978" width="28" height="28" transform="rotate(0,824,992)"/><path d="M 838 978v 28h 28v -14a 14 14, 0, 0, 0, -14 -14" transform="rotate(0,852,992)"/><rect x="922" y="978" width="28" height="28" transform="rotate(0,936,992)"/><circle cx="992" cy="992" r="14" transform="rotate(0,992,992)"/><rect x="1034" y="978" width="28" height="28" transform="rotate(0,1048,992)"/><path d="M 1062 978v 28h 28v -14a 14 14, 0, 0, 0, -14 -14" transform="rotate(90,1076,992)"/><path d="M 250 1006v 28h 28v -14a 14 14, 0, 0, 0, -14 -14" transform="rotate(180,264,1020)"/><rect x="278" y="1006" width="28" height="28" transform="rotate(0,292,1020)"/><rect x="306" y="1006" width="28" height="28" transform="rotate(0,320,1020)"/><rect x="334" y="1006" width="28" height="28" transform="rotate(0,348,1020)"/><path d="M 502 1006v 28h 28v -14a 14 14, 0, 0, 0, -14 -14" transform="rotate(180,516,1020)"/><path d="M 530 1006v 28h 28v -14a 14 14, 0, 0, 0, -14 -14" transform="rotate(0,544,1020)"/><path d="M 614 1006v 28h 28v -14a 14 14, 0, 0, 0, -14 -14" transform="rotate(-90,628,1020)"/><path d="M 642 1006v 28h 28v -14a 14 14, 0, 0, 0, -14 -14" transform="rotate(90,656,1020)"/><path d="M 726 1006v 28h 14a 14 14, 0, 0, 0, 0 -28" transform="rotate(90,740,1020)"/><rect x="810" y="1006" width="28" height="28" transform="rotate(0,824,1020)"/><path d="M 838 1006v 28h 28v -14a 14 14, 0, 0, 0, -14 -14" transform="rotate(90,852,1020)"/><rect x="922" y="1006" width="28" height="28" transform="rotate(0,936,1020)"/><rect x="1034" y="1006" width="28" height="28" transform="rotate(0,1048,1020)"/><circle cx="1104" cy="1020" r="14" transform="rotate(0,1104,1020)"/><rect x="334" y="1034" width="28" height="28" transform="rotate(0,348,1048)"/><rect x="362" y="1034" width="28" height="28" transform="rotate(0,376,1048)"/><rect x="390" y="1034" width="28" height="28" transform="rotate(0,404,1048)"/><rect x="418" y="1034" width="28" height="28" transform="rotate(0,432,1048)"/><rect x="446" y="1034" width="28" height="28" transform="rotate(0,460,1048)"/><path d="M 474 1034v 28h 28v -14a 14 14, 0, 0, 0, -14 -14" transform="rotate(0,488,1048)"/><path d="M 530 1034v 28h 28v -14a 14 14, 0, 0, 0, -14 -14" transform="rotate(180,544,1048)"/><rect x="558" y="1034" width="28" height="28" transform="rotate(0,572,1048)"/><rect x="586" y="1034" width="28" height="28" transform="rotate(0,600,1048)"/><path d="M 614 1034v 28h 28v -14a 14 14, 0, 0, 0, -14 -14" transform="rotate(90,628,1048)"/><path d="M 670 1034v 28h 14a 14 14, 0, 0, 0, 0 -28" transform="rotate(180,684,1048)"/><path d="M 698 1034v 28h 28v -14a 14 14, 0, 0, 0, -14 -14" transform="rotate(0,712,1048)"/><path d="M 754 1034v 28h 28v -14a 14 14, 0, 0, 0, -14 -14" transform="rotate(-90,768,1048)"/><rect x="782" y="1034" width="28" height="28" transform="rotate(0,796,1048)"/><path d="M 810 1034v 28h 28v -14a 14 14, 0, 0, 0, -14 -14" transform="rotate(90,824,1048)"/><path d="M 922 1034v 28h 28v -14a 14 14, 0, 0, 0, -14 -14" transform="rotate(180,936,1048)"/><rect x="950" y="1034" width="28" height="28" transform="rotate(0,964,1048)"/><rect x="978" y="1034" width="28" height="28" transform="rotate(0,992,1048)"/><rect x="1006" y="1034" width="28" height="28" transform="rotate(0,1020,1048)"/><rect x="1034" y="1034" width="28" height="28" transform="rotate(0,1048,1048)"/><path d="M 1062 1034v 28h 14a 14 14, 0, 0, 0, 0 -28" transform="rotate(0,1076,1048)"/><circle cx="264" cy="1076" r="14" transform="rotate(0,264,1076)"/><path d="M 334 1062v 28h 28v -14a 14 14, 0, 0, 0, -14 -14" transform="rotate(180,348,1076)"/><rect x="362" y="1062" width="28" height="28" transform="rotate(0,376,1076)"/><path d="M 474 1062v 28h 28v -14a 14 14, 0, 0, 0, -14 -14" transform="rotate(180,488,1076)"/><path d="M 502 1062v 28h 28v -14a 14 14, 0, 0, 0, -14 -14" transform="rotate(0,516,1076)"/><rect x="558" y="1062" width="28" height="28" transform="rotate(0,572,1076)"/><rect x="586" y="1062" width="28" height="28" transform="rotate(0,600,1076)"/><path d="M 698 1062v 28h 14a 14 14, 0, 0, 0, 0 -28" transform="rotate(90,712,1076)"/><rect x="754" y="1062" width="28" height="28" transform="rotate(0,768,1076)"/><path d="M 894 1062v 28h 14a 14 14, 0, 0, 0, 0 -28" transform="rotate(-90,908,1076)"/><path d="M 950 1062v 28h 28v -14a 14 14, 0, 0, 0, -14 -14" transform="rotate(180,964,1076)"/><path d="M 978 1062v 28h 28v -14a 14 14, 0, 0, 0, -14 -14" transform="rotate(90,992,1076)"/><rect x="1034" y="1062" width="28" height="28" transform="rotate(0,1048,1076)"/><path d="M 1118 1062v 28h 28v -14a 14 14, 0, 0, 0, -14 -14" transform="rotate(-90,1132,1076)"/><path d="M 1146 1062v 28h 28v -14a 14 14, 0, 0, 0, -14 -14" transform="rotate(0,1160,1076)"/><circle cx="320" cy="1104" r="14" transform="rotate(0,320,1104)"/><rect x="362" y="1090" width="28" height="28" transform="rotate(0,376,1104)"/><path d="M 418 1090v 28h 28v -14a 14 14, 0, 0, 0, -14 -14" transform="rotate(-90,432,1104)"/><path d="M 446 1090v 28h 14a 14 14, 0, 0, 0, 0 -28" transform="rotate(0,460,1104)"/><path d="M 502 1090v 28h 28v -14a 14 14, 0, 0, 0, -14 -14" transform="rotate(180,516,1104)"/><rect x="530" y="1090" width="28" height="28" transform="rotate(0,544,1104)"/><rect x="558" y="1090" width="28" height="28" transform="rotate(0,572,1104)"/><rect x="586" y="1090" width="28" height="28" transform="rotate(0,600,1104)"/><path d="M 614 1090v 28h 14a 14 14, 0, 0, 0, 0 -28" transform="rotate(0,628,1104)"/><path d="M 670 1090v 28h 14a 14 14, 0, 0, 0, 0 -28" transform="rotate(-90,684,1104)"/><path d="M 726 1090v 28h 28v -14a 14 14, 0, 0, 0, -14 -14" transform="rotate(-90,740,1104)"/><path d="M 754 1090v 28h 28v -14a 14 14, 0, 0, 0, -14 -14" transform="rotate(90,768,1104)"/><path d="M 838 1090v 28h 14a 14 14, 0, 0, 0, 0 -28" transform="rotate(-90,852,1104)"/><path d="M 894 1090v 28h 28v -14a 14 14, 0, 0, 0, -14 -14" transform="rotate(180,908,1104)"/><path d="M 922 1090v 28h 28v -14a 14 14, 0, 0, 0, -14 -14" transform="rotate(0,936,1104)"/><path d="M 1034 1090v 28h 28v -14a 14 14, 0, 0, 0, -14 -14" transform="rotate(180,1048,1104)"/><rect x="1062" y="1090" width="28" height="28" transform="rotate(0,1076,1104)"/><rect x="1090" y="1090" width="28" height="28" transform="rotate(0,1104,1104)"/><rect x="1118" y="1090" width="28" height="28" transform="rotate(0,1132,1104)"/><path d="M 1146 1090v 28h 28v -14a 14 14, 0, 0, 0, -14 -14" transform="rotate(90,1160,1104)"/><circle cx="264" cy="1132" r="14" transform="rotate(0,264,1132)"/><path d="M 334 1118v 28h 14a 14 14, 0, 0, 0, 0 -28" transform="rotate(180,348,1132)"/><path d="M 362 1118v 28h 28v -14a 14 14, 0, 0, 0, -14 -14" transform="rotate(90,376,1132)"/><rect x="418" y="1118" width="28" height="28" transform="rotate(0,432,1132)"/><circle cx="488" cy="1132" r="14" transform="rotate(0,488,1132)"/><path d="M 558 1118v 28h 14a 14 14, 0, 0, 0, 0 -28" transform="rotate(90,572,1132)"/><path d="M 670 1118v 28h 28v -14a 14 14, 0, 0, 0, -14 -14" transform="rotate(180,684,1132)"/><rect x="698" y="1118" width="28" height="28" transform="rotate(0,712,1132)"/><path d="M 726 1118v 28h 28v -14a 14 14, 0, 0, 0, -14 -14" transform="rotate(90,740,1132)"/><rect x="838" y="1118" width="28" height="28" transform="rotate(0,852,1132)"/><rect x="922" y="1118" width="28" height="28" transform="rotate(0,936,1132)"/><path d="M 978 1118v 28h 28v -14a 14 14, 0, 0, 0, -14 -14" transform="rotate(-90,992,1132)"/><path d="M 1006 1118v 28h 28v -14a 14 14, 0, 0, 0, -14 -14" transform="rotate(0,1020,1132)"/><rect x="1118" y="1118" width="28" height="28" transform="rotate(0,1132,1132)"/><circle cx="292" cy="1160" r="14" transform="rotate(0,292,1160)"/><path d="M 390 1146v 28h 14a 14 14, 0, 0, 0, 0 -28" transform="rotate(180,404,1160)"/><path d="M 418 1146v 28h 28v -14a 14 14, 0, 0, 0, -14 -14" transform="rotate(90,432,1160)"/><circle cx="544" cy="1160" r="14" transform="rotate(0,544,1160)"/><path d="M 586 1146v 28h 14a 14 14, 0, 0, 0, 0 -28" transform="rotate(180,600,1160)"/><rect x="614" y="1146" width="28" height="28" transform="rotate(0,628,1160)"/><path d="M 642 1146v 28h 14a 14 14, 0, 0, 0, 0 -28" transform="rotate(0,656,1160)"/><path d="M 698 1146v 28h 14a 14 14, 0, 0, 0, 0 -28" transform="rotate(90,712,1160)"/><path d="M 810 1146v 28h 14a 14 14, 0, 0, 0, 0 -28" transform="rotate(180,824,1160)"/><path d="M 838 1146v 28h 28v -14a 14 14, 0, 0, 0, -14 -14" transform="rotate(90,852,1160)"/><path d="M 922 1146v 28h 14a 14 14, 0, 0, 0, 0 -28" transform="rotate(90,936,1160)"/><path d="M 978 1146v 28h 28v -14a 14 14, 0, 0, 0, -14 -14" transform="rotate(180,992,1160)"/><rect x="1006" y="1146" width="28" height="28" transform="rotate(0,1020,1160)"/><path d="M 1034 1146v 28h 14a 14 14, 0, 0, 0, 0 -28" transform="rotate(0,1048,1160)"/><path d="M 1118 1146v 28h 14a 14 14, 0, 0, 0, 0 -28" transform="rotate(90,1132,1160)"/></clipPath><clipPath id="clip-path-corners-square-color-0-0-738"><path clip-rule="evenodd" d="M 26 96v 56a 70 70, 0, 0, 0, 70 70h 56a 70 70, 0, 0, 0, 70 -70v -56a 70 70, 0, 0, 0, -70 -70h -56a 70 70, 0, 0, 0, -70 70M 96 54h 56a 42 42, 0, 0, 1, 42 42v 56a 42 42, 0, 0, 1, -42 42h -56a 42 42, 0, 0, 1, -42 -42v -56a 42 42, 0, 0, 1, 42 -42" transform="rotate(0,124,124)"/></clipPath><clipPath id="clip-path-corners-dot-color-0-0-738"><circle cx="124" cy="124" r="42" transform="rotate(0,124,124)"/></clipPath><clipPath id="clip-path-corners-square-color-1-0-738"><path clip-rule="evenodd" d="M 978 96v 56a 70 70, 0, 0, 0, 70 70h 56a 70 70, 0, 0, 0, 70 -70v -56a 70 70, 0, 0, 0, -70 -70h -56a 70 70, 0, 0, 0, -70 70M 1048 54h 56a 42 42, 0, 0, 1, 42 42v 56a 42 42, 0, 0, 1, -42 42h -56a 42 42, 0, 0, 1, -42 -42v -56a 42 42, 0, 0, 1, 42 -42" transform="rotate(90,1076,124)"/></clipPath><clipPath id="clip-path-corners-dot-color-1-0-738"><circle cx="1076" cy="124" r="42" transform="rotate(90,1076,124)"/></clipPath><clipPath id="clip-path-corners-square-color-0-1-738"><path clip-rule="evenodd" d="M 26 1048v 56a 70 70, 0, 0, 0, 70 70h 56a 70 70, 0, 0, 0, 70 -70v -56a 70 70, 0, 0, 0, -70 -70h -56a 70 70, 0, 0, 0, -70 70M 96 1006h 56a 42 42, 0, 0, 1, 42 42v 56a 42 42, 0, 0, 1, -42 42h -56a 42 42, 0, 0, 1, -42 -42v -56a 42 42, 0, 0, 1, 42 -42" transform="rotate(-90,124,1076)"/></clipPath><clipPath id="clip-path-corners-dot-color-0-1-738"><circle cx="124" cy="1076" r="42" transform="rotate(-90,124,1076)"/></clipPath></defs><rect x="0" y="0" height="1200" width="1200" clip-path="url('#clip-path-background-color-738')" fill="#ffffff"/><rect x="0" y="0" height="1200" width="1200" clip-path="url('#clip-path-dot-color-738')" fill="#000000"/><rect x="26" y="26" height="196" width="196" clip-path="url('#clip-path-corners-square-color-0-0-738')" fill="#000000"/><rect x="82" y="82" height="84" width="84" clip-path="url('#clip-path-corners-dot-color-0-0-738')" fill="#000000"/><rect x="978" y="26" height="196" width="196" clip-path="url('#clip-path-corners-square-color-1-0-738')" fill="#000000"/><rect x="1034" y="82" height="84" width="84" clip-path="url('#clip-path-corners-dot-color-1-0-738')" fill="#000000"/><rect x="26" y="978" height="196" width="196" clip-path="url('#clip-path-corners-square-color-0-1-738')" fill="#000000"/><rect x="82" y="1034" height="84" width="84" clip-path="url('#clip-path-corners-dot-color-0-1-738')" fill="#000000"/></svg>