<?xml version="1.0" standalone="no"?>
<svg xmlns="http://www.w3.org/2000/svg" width="1200" height="1200" xmlns:xlink="http://www.w3.org/1999/xlink" viewBox="0 0 1200 1200"><defs><clipPath id="clip-path-background-color-741"><rect x="0" y="0" width="1200" height="1200"/></clipPath><clipPath id="clip-path-dot-color-741"><circle cx="280" cy="24" r="16" transform="rotate(0,280,24)"/><path d="M 328 8v 32h 16a 16 16, 0, 0, 0, 0 -32" transform="rotate(180,344,24)"/><path d="M 360 8v 32h 32v -16a 16 16, 0, 0, 0, -16 -16" transform="rotate(0,376,24)"/><path d="M 424 8v 32h 16a 16 16, 0, 0, 0, 0 -32" transform="rotate(180,440,24)"/><path d="M 456 8v 32h 32v -16a 16 16, 0, 0, 0, -16 -16" transform="rotate(0,472,24)"/><path d="M 520 8v 32h 16a 16 16, 0, 0, 0, 0 -32" transform="rotate(180,536,24)"/><path d="M 552 8v 32h 32v -16a 16 16, 0, 0, 0, -16 -16" transform="rotate(0,568,24)"/><path d="M 616 8v 32h 16a 16 16, 0, 0, 0, 0 -32" transform="rotate(-90,632,24)"/><path d="M 680 8v 32h 32v -16a 16 16, 0, 0, 0, -16 -16" transform="rotate(-90,696,24)"/><rect x="712" y="8" width="32" height="32" transform="rotate(0,728,24)"/><path d="M 744 8v 32h 16a 16 16, 0, 0, 0, 0 -32" transform="rotate(0,760,24)"/><circle cx="824" cy="24" r="16" transform="rotate(0,824,24)"/><path d="M 360 40v 32h 32v -16a 16 16, 0, 0, 0, -16 -16" transform="rotate(180,376,56)"/><path d="M 392 40v 32h 16a 16 16, 0, 0, 0, 0 -32" transform="rotate(0,408,56)"/><rect x="456" y="40" width="32" height="32" transform="rotate(0,472,56)"/><path d="M 552 40v 32h 16a 16 16, 0, 0, 0, 0 -32" transform="rotate(90,568,56)"/><path d="M 616 40v 32h 16a 16 16, 0, 0, 0, 0 -32" transform="rotate(90,632,56)"/><rect x="680" y="40" width="32" height="32" transform="rotate(0,696,56)"/><path d="M 712 40v 32h 32v -16a 16 16, 0, 0, 0, -16 -16" transform="rotate(90,728,56)"/><path d="M 872 40v 32h 32v -16a 16 16, 0, 0, 0, -16 -16" transform="rotate(-90,888,56)"/><path d="M 904 40v 32h 32v -16a 16 16, 0, 0, 0, -16 -16" transform="rotate(0,920,56)"/><circle cx="344" cy="88" r="16" transform="rotate(0,344,88)"/><path d="M 456 72v 32h 32v -16a 16 16, 0, 0, 0, -16 -16" transform="rotate(180,472,88)"/><path d="M 488 72v 32h 16a 16 16, 0, 0, 0, 0 -32" transform="rotate(0,504,88)"/><circle cx="600" cy="88" r="16" transform="rotate(0,600,88)"/><path d="M 648 72v 32h 16a 16 16, 0, 0, 0, 0 -32" transform="rotate(180,664,88)"/><path d="M 680 72v 32h 32v -16a 16 16, 0, 0, 0, -16 -16" transform="rotate(90,696,88)"/><path d="M 840 72v 32h 32v -16a 16 16, 0, 0, 0, -16 -16" transform="rotate(-90,856,88)"/><rect x="872" y="72" width="32" height="32" transform="rotate(0,888,88)"/><path d="M 904 72v 32h 32v -16a 16 16, 0, 0, 0, -16 -16" transform="rotate(90,920,88)"/><path d="M 360 104v 32h 16a 16 16, 0, 0, 0, 0 -32" transform="rotate(-90,376,120)"/><path d="M 424 104v 32h 16a 16 16, 0, 0, 0, 0 -32" transform="rotate(-90,440,120)"/><path d="M 552 104v 32h 16a 16 16, 0, 0, 0, 0 -32" transform="rotate(-90,568,120)"/><path d="M 712 104v 32h 32v -16a 16 16, 0, 0, 0, -16 -16" transform="rotate(-90,728,120)"/><rect x="744" y="104" width="32" height="32" transform="rotate(0,760,120)"/><rect x="776" y="104" width="32" height="32" transform="rotate(0,792,120)"/><rect x="808" y="104" width="32" height="32" transform="rotate(0,824,120)"/><rect x="840" y="104" width="32" height="32" transform="rotate(0,856,120)"/><path d="M 264 136v 32h 16a 16 16, 0, 0, 0, 0 -32" transform="rotate(-90,280,152)"/><path d="M 360 136v 32h 16a 16 16, 0, 0, 0, 0 -32" transform="rotate(90,376,152)"/><rect x="424" y="136" width="32" height="32" transform="rotate(0,440,152)"/><path d="M 488 136v 32h 16a 16 16, 0, 0, 0, 0 -32" transform="rotate(-90,504,152)"/><rect x="552" y="136" width="32" height="32" transform="rotate(0,568,152)"/><path d="M 584 136v 32h 32v -16a 16 16, 0, 0, 0, -16 -16" transform="rotate(0,600,152)"/><path d="M 648 136v 32h 32v -16a 16 16, 0, 0, 0, -16 -16" transform="rotate(-90,664,152)"/><rect x="680" y="136" width="32" height="32" transform="rotate(0,696,152)"/><rect x="712" y="136" width="32" height="32" transform="rotate(0,728,152)"/><path d="M 744 136v 32h 32v -16a 16 16, 0, 0, 0, -16 -16" transform="rotate(90,760,152)"/><path d="M 808 136v 32h 32v -16a 16 16, 0, 0, 0, -16 -16" transform="rotate(180,824,152)"/><rect x="840" y="136" width="32" height="32" transform="rotate(0,856,152)"/><rect x="264" y="168" width="32" height="32" transform="rotate(0,280,184)"/><path d="M 424 168v 32h 16a 16 16, 0, 0, 0, 0 -32" transform="rotate(90,440,184)"/><path d="M 488 168v 32h 16a 16 16, 0, 0, 0, 0 -32" transform="rotate(90,504,184)"/><path d="M 552 168v 32h 32v -16a 16 16, 0, 0, 0, -16 -16" transform="rotate(180,568,184)"/><rect x="584" y="168" width="32" height="32" transform="rotate(0,600,184)"/><rect x="648" y="168" width="32" height="32" transform="rotate(0,664,184)"/><rect x="680" y="168" width="32" height="32" transform="rotate(0,696,184)"/><rect x="712" y="168" width="32" height="32" transform="rotate(0,728,184)"/><rect x="840" y="168" width="32" height="32" transform="rotate(0,856,184)"/><rect x="872" y="168" width="32" height="32" transform="rotate(0,888,184)"/><path d="M 904 168v 32h 32v -16a 16 16, 0, 0, 0, -16 -16" transform="rotate(0,920,184)"/><path d="M 264 200v 32h 16a 16 16, 0, 0, 0, 0 -32" transform="rotate(90,280,216)"/><circle cx="344" cy="216" r="16" transform="rotate(0,344,216)"/><path d="M 392 200v 32h 16a 16 16, 0, 0, 0, 0 -32" transform="rotate(-90,408,216)"/><path d="M 456 200v 32h 16a 16 16, 0, 0, 0, 0 -32" transform="rotate(-90,472,216)"/><circle cx="536" cy="216" r="16" transform="rotate(0,536,216)"/><rect x="584" y="200" width="32" height="32" transform="rotate(0,600,216)"/><path d="M 648 200v 32h 16a 16 16, 0, 0, 0, 0 -32" transform="rotate(90,664,216)"/><rect x="712" y="200" width="32" height="32" transform="rotate(0,728,216)"/><path d="M 776 200v 32h 16a 16 16, 0, 0, 0, 0 -32" transform="rotate(-90,792,216)"/><path d="M 840 200v 32h 16a 16 16, 0, 0, 0, 0 -32" transform="rotate(90,856,216)"/><rect x="904" y="200" width="32" height="32" transform="rotate(0,920,216)"/><circle cx="312" cy="248" r="16" transform="rotate(0,312,248)"/><path d="M 360 232v 32h 32v -16a 16 16, 0, 0, 0, -16 -16" transform="rotate(-90,376,248)"/><rect x="392" y="232" width="32" height="32" transform="rotate(0,408,248)"/><rect x="424" y="232" width="32" height="32" transform="rotate(0,440,248)"/><path d="M 456 232v 32h 32v -16a 16 16, 0, 0, 0, -16 -16" transform="rotate(90,472,248)"/><rect x="584" y="232" width="32" height="32" transform="rotate(0,600,248)"/><path d="M 680 232v 32h 16a 16 16, 0, 0, 0, 0 -32" transform="rotate(180,696,248)"/><rect x="712" y="232" width="32" height="32" transform="rotate(0,728,248)"/><rect x="744" y="232" width="32" height="32" transform="rotate(0,760,248)"/><rect x="776" y="232" width="32" height="32" transform="rotate(0,792,248)"/><path d="M 904 232v 32h 16a 16 16, 0, 0, 0, 0 -32" transform="rotate(90,920,248)"/><path d="M 40 264v 32h 32v -16a 16 16, 0, 0, 0, -16 -16" transform="rotate(-90,56,280)"/><rect x="72" y="264" width="32" height="32" transform="rotate(0,88,280)"/><rect x="104" y="264" width="32" height="32" transform="rotate(0,120,280)"/><rect x="136" y="264" width="32" height="32" transform="rotate(0,152,280)"/><rect x="168" y="264" width="32" height="32" transform="rotate(0,184,280)"/><rect x="200" y="264" width="32" height="32" transform="rotate(0,216,280)"/><path d="M 232 264v 32h 32v -16a 16 16, 0, 0, 0, -16 -16" transform="rotate(0,248,280)"/><rect x="360" y="264" width="32" height="32" transform="rotate(0,376,280)"/><rect x="392" y="264" width="32" height="32" transform="rotate(0,408,280)"/><rect x="424" y="264" width="32" height="32" transform="rotate(0,440,280)"/><path d="M 488 264v 32h 16a 16 16, 0, 0, 0, 0 -32" transform="rotate(-90,504,280)"/><path d="M 552 264v 32h 32v -16a 16 16, 0, 0, 0, -16 -16" transform="rotate(-90,568,280)"/><path d="M 584 264v 32h 32v -16a 16 16, 0, 0, 0, -16 -16" transform="rotate(90,600,280)"/><circle cx="664" cy="280" r="16" transform="rotate(0,664,280)"/><rect x="712" y="264" width="32" height="32" transform="rotate(0,728,280)"/><path d="M 776 264v 32h 32v -16a 16 16, 0, 0, 0, -16 -16" transform="rotate(180,792,280)"/><rect x="808" y="264" width="32" height="32" transform="rotate(0,824,280)"/><path d="M 840 264v 32h 16a 16 16, 0, 0, 0, 0 -32" transform="rotate(0,856,280)"/><path d="M 1000 264v 32h 32v -16a 16 16, 0, 0, 0, -16 -16" transform="rotate(-90,1016,280)"/><path d="M 1032 264v 32h 16a 16 16, 0, 0, 0, 0 -32" transform="rotate(0,1048,280)"/><circle cx="1176" cy="280" r="16" transform="rotate(0,1176,280)"/><path d="M 8 296v 32h 16a 16 16, 0, 0, 0, 0 -32" transform="rotate(180,24,312)"/><rect x="40" y="296" width="32" height="32" transform="rotate(0,56,312)"/><path d="M 72 296v 32h 32v -16a 16 16, 0, 0, 0, -16 -16" transform="rotate(90,88,312)"/><path d="M 232 296v 32h 32v -16a 16 16, 0, 0, 0, -16 -16" transform="rotate(180,248,312)"/><path d="M 264 296v 32h 32v -16a 16 16, 0, 0, 0, -16 -16" transform="rotate(0,280,312)"/><path d="M 328 296v 32h 32v -16a 16 16, 0, 0, 0, -16 -16" transform="rotate(-90,344,312)"/><path d="M 360 296v 32h 32v -16a 16 16, 0, 0, 0, -16 -16" transform="rotate(90,376,312)"/><rect x="424" y="296" width="32" height="32" transform="rotate(0,440,312)"/><path d="M 488 296v 32h 32v -16a 16 16, 0, 0, 0, -16 -16" transform="rotate(180,504,312)"/><rect x="520" y="296" width="32" height="32" transform="rotate(0,536,312)"/><rect x="552" y="296" width="32" height="32" transform="rotate(0,568,312)"/><path d="M 616 296v 32h 16a 16 16, 0, 0, 0, 0 -32" transform="rotate(-90,632,312)"/><path d="M 680 296v 32h 32v -16a 16 16, 0, 0, 0, -16 -16" transform="rotate(-90,696,312)"/><rect x="712" y="296" width="32" height="32" transform="rotate(0,728,312)"/><path d="M 744 296v 32h 16a 16 16, 0, 0, 0, 0 -32" transform="rotate(0,760,312)"/><rect x="808" y="296" width="32" height="32" transform="rotate(0,824,312)"/><path d="M 904 296v 32h 16a 16 16, 0, 0, 0, 0 -32" transform="rotate(180,920,312)"/><path d="M 936 296v 32h 16a 16 16, 0, 0, 0, 0 -32" transform="rotate(0,952,312)"/><rect x="1000" y="296" width="32" height="32" transform="rotate(0,1016,312)"/><path d="M 1096 296v 32h 16a 16 16, 0, 0, 0, 0 -32" transform="rotate(-90,1112,312)"/><path d="M 40 328v 32h 16a 16 16, 0, 0, 0, 0 -32" transform="rotate(90,56,344)"/><path d="M 104 328v 32h 16a 16 16, 0, 0, 0, 0 -32" transform="rotate(180,120,344)"/><path d="M 136 328v 32h 32v -16a 16 16, 0, 0, 0, -16 -16" transform="rotate(0,152,344)"/><circle cx="216" cy="344" r="16" transform="rotate(0,216,344)"/><rect x="264" y="328" width="32" height="32" transform="rotate(0,280,344)"/><rect x="328" y="328" width="32" height="32" transform="rotate(0,344,344)"/><rect x="424" y="328" width="32" height="32" transform="rotate(0,440,344)"/><rect x="552" y="328" width="32" height="32" transform="rotate(0,568,344)"/><path d="M 616 328v 32h 32v -16a 16 16, 0, 0, 0, -16 -16" transform="rotate(180,632,344)"/><rect x="648" y="328" width="32" height="32" transform="rotate(0,664,344)"/><rect x="680" y="328" width="32" height="32" transform="rotate(0,696,344)"/><path d="M 808 328v 32h 32v -16a 16 16, 0, 0, 0, -16 -16" transform="rotate(180,824,344)"/><rect x="840" y="328" width="32" height="32" transform="rotate(0,856,344)"/><path d="M 872 328v 32h 16a 16 16, 0, 0, 0, 0 -32" transform="rotate(0,888,344)"/><path d="M 968 328v 32h 32v -16a 16 16, 0, 0, 0, -16 -16" transform="rotate(-90,984,344)"/><rect x="1000" y="328" width="32" height="32" transform="rotate(0,1016,344)"/><path d="M 1032 328v 32h 32v -16a 16 16, 0, 0, 0, -16 -16" transform="rotate(0,1048,344)"/><path d="M 1096 328v 32h 32v -16a 16 16, 0, 0, 0, -16 -16" transform="rotate(180,1112,344)"/><rect x="1128" y="328" width="32" height="32" transform="rotate(0,1144,344)"/><path d="M 1160 328v 32h 16a 16 16, 0, 0, 0, 0 -32" transform="rotate(0,1176,344)"/><circle cx="24" cy="376" r="16" transform="rotate(0,24,376)"/><path d="M 72 360v 32h 16a 16 16, 0, 0, 0, 0 -32" transform="rotate(-90,88,376)"/><rect x="136" y="360" width="32" height="32" transform="rotate(0,152,376)"/><path d="M 168 360v 32h 16a 16 16, 0, 0, 0, 0 -32" transform="rotate(0,184,376)"/><rect x="264" y="360" width="32" height="32" transform="rotate(0,280,376)"/><rect x="328" y="360" width="32" height="32" transform="rotate(0,344,376)"/><path d="M 392 360v 32h 16a 16 16, 0, 0, 0, 0 -32" transform="rotate(180,408,376)"/><path d="M 424 360v 32h 32v -16a 16 16, 0, 0, 0, -16 -16" transform="rotate(90,440,376)"/><path d="M 488 360v 32h 16a 16 16, 0, 0, 0, 0 -32" transform="rotate(180,504,376)"/><rect x="520" y="360" width="32" height="32" transform="rotate(0,536,376)"/><rect x="552" y="360" width="32" height="32" transform="rotate(0,568,376)"/><path d="M 584 360v 32h 16a 16 16, 0, 0, 0, 0 -32" transform="rotate(0,600,376)"/><path d="M 648 360v 32h 32v -16a 16 16, 0, 0, 0, -16 -16" transform="rotate(180,664,376)"/><rect x="680" y="360" width="32" height="32" transform="rotate(0,696,376)"/><rect x="712" y="360" width="32" height="32" transform="rotate(0,728,376)"/><rect x="744" y="360" width="32" height="32" transform="rotate(0,760,376)"/><path d="M 776 360v 32h 16a 16 16, 0, 0, 0, 0 -32" transform="rotate(0,792,376)"/><rect x="840" y="360" width="32" height="32" transform="rotate(0,856,376)"/><circle cx="920" cy="376" r="16" transform="rotate(0,920,376)"/><rect x="968" y="360" width="32" height="32" transform="rotate(0,984,376)"/><rect x="1000" y="360" width="32" height="32" transform="rotate(0,1016,376)"/><rect x="1032" y="360" width="32" height="32" transform="rotate(0,1048,376)"/><path d="M 1128 360v 32h 16a 16 16, 0, 0, 0, 0 -32" transform="rotate(90,1144,376)"/><rect x="72" y="392" width="32" height="32" transform="rotate(0,88,408)"/><rect x="104" y="392" width="32" height="32" transform="rotate(0,120,408)"/><path d="M 136 392v 32h 32v -16a 16 16, 0, 0, 0, -16 -16" transform="rotate(90,152,408)"/><circle cx="216" cy="408" r="16" transform="rotate(0,216,408)"/><path d="M 264 392v 32h 16a 16 16, 0, 0, 0, 0 -32" transform="rotate(90,280,408)"/><path d="M 328 392v 32h 32v -16a 16 16, 0, 0, 0, -16 -16" transform="rotate(180,344,408)"/><path d="M 360 392v 32h 16a 16 16, 0, 0, 0, 0 -32" transform="rotate(0,376,408)"/><path d="M 456 392v 32h 16a 16 16, 0, 0, 0, 0 -32" transform="rotate(-90,472,408)"/><rect x="552" y="392" width="32" height="32" transform="rotate(0,568,408)"/><path d="M 712 392v 32h 16a 16 16, 0, 0, 0, 0 -32" transform="rotate(90,728,408)"/><path d="M 808 392v 32h 32v -16a 16 16, 0, 0, 0, -16 -16" transform="rotate(-90,824,408)"/><rect x="840" y="392" width="32" height="32" transform="rotate(0,856,408)"/><path d="M 872 392v 32h 16a 16 16, 0, 0, 0, 0 -32" transform="rotate(0,888,408)"/><path d="M 936 392v 32h 32v -16a 16 16, 0, 0, 0, -16 -16" transform="rotate(-90,952,408)"/><path d="M 968 392v 32h 32v -16a 16 16, 0, 0, 0, -16 -16" transform="rotate(90,984,408)"/><path d="M 1032 392v 32h 16a 16 16, 0, 0, 0, 0 -32" transform="rotate(90,1048,408)"/><path d="M 1096 392v 32h 16a 16 16, 0, 0, 0, 0 -32" transform="rotate(-90,1112,408)"/><circle cx="1176" cy="408" r="16" transform="rotate(0,1176,408)"/><path d="M 40 424v 32h 16a 16 16, 0, 0, 0, 0 -32" transform="rotate(180,56,440)"/><rect x="72" y="424" width="32" height="32" transform="rotate(0,88,440)"/><path d="M 104 424v 32h 32v -16a 16 16, 0, 0, 0, -16 -16" transform="rotate(90,120,440)"/><circle cx="248" cy="440" r="16" transform="rotate(0,248,440)"/><rect x="456" y="424" width="32" height="32" transform="rotate(0,472,440)"/><path d="M 488 424v 32h 16a 16 16, 0, 0, 0, 0 -32" transform="rotate(0,504,440)"/><path d="M 552 424v 32h 16a 16 16, 0, 0, 0, 0 -32" transform="rotate(90,568,440)"/><circle cx="696" cy="440" r="16" transform="rotate(0,696,440)"/><circle cx="760" cy="440" r="16" transform="rotate(0,760,440)"/><rect x="808" y="424" width="32" height="32" transform="rotate(0,824,440)"/><path d="M 904 424v 32h 16a 16 16, 0, 0, 0, 0 -32" transform="rotate(180,920,440)"/><rect x="936" y="424" width="32" height="32" transform="rotate(0,952,440)"/><path d="M 1064 424v 32h 32v -16a 16 16, 0, 0, 0, -16 -16" transform="rotate(-90,1080,440)"/><path d="M 1096 424v 32h 32v -16a 16 16, 0, 0, 0, -16 -16" transform="rotate(90,1112,440)"/><circle cx="24" cy="472" r="16" transform="rotate(0,24,472)"/><path d="M 136 456v 32h 32v -16a 16 16, 0, 0, 0, -16 -16" transform="rotate(-90,152,472)"/><rect x="168" y="456" width="32" height="32" transform="rotate(0,184,472)"/><path d="M 200 456v 32h 16a 16 16, 0, 0, 0, 0 -32" transform="rotate(0,216,472)"/><path d="M 264 456v 32h 16a 16 16, 0, 0, 0, 0 -32" transform="rotate(180,280,472)"/><rect x="296" y="456" width="32" height="32" transform="rotate(0,312,472)"/><rect x="328" y="456" width="32" height="32" transform="rotate(0,344,472)"/><path d="M 360 456v 32h 16a 16 16, 0, 0, 0, 0 -32" transform="rotate(0,376,472)"/><rect x="456" y="456" width="32" height="32" transform="rotate(0,472,472)"/><path d="M 776 456v 32h 16a 16 16, 0, 0, 0, 0 -32" transform="rotate(180,792,472)"/><rect x="808" y="456" width="32" height="32" transform="rotate(0,824,472)"/><rect x="840" y="456" width="32" height="32" transform="rotate(0,856,472)"/><path d="M 872 456v 32h 16a 16 16, 0, 0, 0, 0 -32" transform="rotate(0,888,472)"/><path d="M 936 456v 32h 16a 16 16, 0, 0, 0, 0 -32" transform="rotate(90,952,472)"/><path d="M 1064 456v 32h 16a 16 16, 0, 0, 0, 0 -32" transform="rotate(90,1080,472)"/><path d="M 1128 456v 32h 32v -16a 16 16, 0, 0, 0, -16 -16" transform="rotate(-90,1144,472)"/><path d="M 1160 456v 32h 32v -16a 16 16, 0, 0, 0, -16 -16" transform="rotate(0,1176,472)"/><path d="M 104 488v 32h 16a 16 16, 0, 0, 0, 0 -32" transform="rotate(180,120,504)"/><rect x="136" y="488" width="32" height="32" transform="rotate(0,152,504)"/><path d="M 328 488v 32h 16a 16 16, 0, 0, 0, 0 -32" transform="rotate(90,344,504)"/><rect x="456" y="488" width="32" height="32" transform="rotate(0,472,504)"/><path d="M 520 488v 32h 16a 16 16, 0, 0, 0, 0 -32" transform="rotate(180,536,504)"/><rect x="552" y="488" width="32" height="32" transform="rotate(0,568,504)"/><path d="M 584 488v 32h 32v -16a 16 16, 0, 0, 0, -16 -16" transform="rotate(0,600,504)"/><path d="M 680 488v 32h 32v -16a 16 16, 0, 0, 0, -16 -16" transform="rotate(-90,696,504)"/><path d="M 712 488v 32h 16a 16 16, 0, 0, 0, 0 -32" transform="rotate(0,728,504)"/><rect x="840" y="488" width="32" height="32" transform="rotate(0,856,504)"/><circle cx="920" cy="504" r="16" transform="rotate(0,920,504)"/><circle cx="1016" cy="504" r="16" transform="rotate(0,1016,504)"/><rect x="1128" y="488" width="32" height="32" transform="rotate(0,1144,504)"/><rect x="1160" y="488" width="32" height="32" transform="rotate(0,1176,504)"/><path d="M 136 520v 32h 32v -16a 16 16, 0, 0, 0, -16 -16" transform="rotate(180,152,536)"/><rect x="168" y="520" width="32" height="32" transform="rotate(0,184,536)"/><rect x="200" y="520" width="32" height="32" transform="rotate(0,216,536)"/><path d="M 232 520v 32h 16a 16 16, 0, 0, 0, 0 -32" transform="rotate(0,248,536)"/><path d="M 360 520v 32h 32v -16a 16 16, 0, 0, 0, -16 -16" transform="rotate(-90,376,536)"/><path d="M 392 520v 32h 32v -16a 16 16, 0, 0, 0, -16 -16" transform="rotate(0,408,536)"/><path d="M 456 520v 32h 16a 16 16, 0, 0, 0, 0 -32" transform="rotate(90,472,536)"/><path d="M 584 520v 32h 16a 16 16, 0, 0, 0, 0 -32" transform="rotate(90,600,536)"/><rect x="680" y="520" width="32" height="32" transform="rotate(0,696,536)"/><path d="M 744 520v 32h 32v -16a 16 16, 0, 0, 0, -16 -16" transform="rotate(-90,760,536)"/><rect x="776" y="520" width="32" height="32" transform="rotate(0,792,536)"/><rect x="808" y="520" width="32" height="32" transform="rotate(0,824,536)"/><path d="M 840 520v 32h 32v -16a 16 16, 0, 0, 0, -16 -16" transform="rotate(90,856,536)"/><path d="M 936 520v 32h 16a 16 16, 0, 0, 0, 0 -32" transform="rotate(180,952,536)"/><path d="M 968 520v 32h 16a 16 16, 0, 0, 0, 0 -32" transform="rotate(0,984,536)"/><circle cx="1048" cy="536" r="16" transform="rotate(0,1048,536)"/><path d="M 1096 520v 32h 16a 16 16, 0, 0, 0, 0 -32" transform="rotate(180,1112,536)"/><rect x="1128" y="520" width="32" height="32" transform="rotate(0,1144,536)"/><path d="M 1160 520v 32h 32v -16a 16 16, 0, 0, 0, -16 -16" transform="rotate(90,1176,536)"/><path d="M 72 552v 32h 16a 16 16, 0, 0, 0, 0 -32" transform="rotate(-90,88,568)"/><circle cx="312" cy="568" r="16" transform="rotate(0,312,568)"/><path d="M 360 552v 32h 32v -16a 16 16, 0, 0, 0, -16 -16" transform="rotate(180,376,568)"/><rect x="392" y="552" width="32" height="32" transform="rotate(0,408,568)"/><circle cx="632" cy="568" r="16" transform="rotate(0,632,568)"/><rect x="680" y="552" width="32" height="32" transform="rotate(0,696,568)"/><path d="M 744 552v 32h 16a 16 16, 0, 0, 0, 0 -32" transform="rotate(90,760,568)"/><path d="M 904 552v 32h 16a 16 16, 0, 0, 0, 0 -32" transform="rotate(-90,920,568)"/><path d="M 40 584v 32h 16a 16 16, 0, 0, 0, 0 -32" transform="rotate(180,56,600)"/><rect x="72" y="584" width="32" height="32" transform="rotate(0,88,600)"/><circle cx="152" cy="600" r="16" transform="rotate(0,152,600)"/><path d="M 200 584v 32h 16a 16 16, 0, 0, 0, 0 -32" transform="rotate(180,216,600)"/><path d="M 232 584v 32h 16a 16 16, 0, 0, 0, 0 -32" transform="rotate(0,248,600)"/><path d="M 392 584v 32h 16a 16 16, 0, 0, 0, 0 -32" transform="rotate(90,408,600)"/><path d="M 456 584v 32h 16a 16 16, 0, 0, 0, 0 -32" transform="rotate(180,472,600)"/><rect x="488" y="584" width="32" height="32" transform="rotate(0,504,600)"/><path d="M 520 584v 32h 32v -16a 16 16, 0, 0, 0, -16 -16" transform="rotate(0,536,600)"/><circle cx="600" cy="600" r="16" transform="rotate(0,600,600)"/><path d="M 648 584v 32h 16a 16 16, 0, 0, 0, 0 -32" transform="rotate(180,664,600)"/><rect x="680" y="584" width="32" height="32" transform="rotate(0,696,600)"/><path d="M 712 584v 32h 32v -16a 16 16, 0, 0, 0, -16 -16" transform="rotate(0,728,600)"/><path d="M 808 584v 32h 16a 16 16, 0, 0, 0, 0 -32" transform="rotate(180,824,600)"/><rect x="840" y="584" width="32" height="32" transform="rotate(0,856,600)"/><rect x="872" y="584" width="32" height="32" transform="rotate(0,888,600)"/><rect x="904" y="584" width="32" height="32" transform="rotate(0,920,600)"/><path d="M 936 584v 32h 32v -16a 16 16, 0, 0, 0, -16 -16" transform="rotate(0,952,600)"/><circle cx="1016" cy="600" r="16" transform="rotate(0,1016,600)"/><path d="M 1064 584v 32h 16a 16 16, 0, 0, 0, 0 -32" transform="rotate(180,1080,600)"/><rect x="1096" y="584" width="32" height="32" transform="rotate(0,1112,600)"/><rect x="1128" y="584" width="32" height="32" transform="rotate(0,1144,600)"/><path d="M 1160 584v 32h 16a 16 16, 0, 0, 0, 0 -32" transform="rotate(0,1176,600)"/><path d="M 72 616v 32h 16a 16 16, 0, 0, 0, 0 -32" transform="rotate(90,88,632)"/><path d="M 264 616v 32h 16a 16 16, 0, 0, 0, 0 -32" transform="rotate(180,280,632)"/><rect x="296" y="616" width="32" height="32" transform="rotate(0,312,632)"/><rect x="328" y="616" width="32" height="32" transform="rotate(0,344,632)"/><path d="M 360 616v 32h 16a 16 16, 0, 0, 0, 0 -32" transform="rotate(0,376,632)"/><rect x="488" y="616" width="32" height="32" transform="rotate(0,504,632)"/><rect x="520" y="616" width="32" height="32" transform="rotate(0,536,632)"/><path d="M 552 616v 32h 16a 16 16, 0, 0, 0, 0 -32" transform="rotate(0,568,632)"/><path d="M 680 616v 32h 32v -16a 16 16, 0, 0, 0, -16 -16" transform="rotate(180,696,632)"/><rect x="712" y="616" width="32" height="32" transform="rotate(0,728,632)"/><path d="M 904 616v 32h 32v -16a 16 16, 0, 0, 0, -16 -16" transform="rotate(180,920,632)"/><rect x="936" y="616" width="32" height="32" transform="rotate(0,952,632)"/><path d="M 968 616v 32h 32v -16a 16 16, 0, 0, 0, -16 -16" transform="rotate(0,984,632)"/><path d="M 1032 616v 32h 16a 16 16, 0, 0, 0, 0 -32" transform="rotate(-90,1048,632)"/><path d="M 8 648v 32h 16a 16 16, 0, 0, 0, 0 -32" transform="rotate(-90,24,664)"/><path d="M 168 648v 32h 16a 16 16, 0, 0, 0, 0 -32" transform="rotate(180,184,664)"/><rect x="200" y="648" width="32" height="32" transform="rotate(0,216,664)"/><path d="M 232 648v 32h 16a 16 16, 0, 0, 0, 0 -32" transform="rotate(0,248,664)"/><path d="M 328 648v 32h 16a 16 16, 0, 0, 0, 0 -32" transform="rotate(90,344,664)"/><path d="M 456 648v 32h 16a 16 16, 0, 0, 0, 0 -32" transform="rotate(180,472,664)"/><rect x="488" y="648" width="32" height="32" transform="rotate(0,504,664)"/><path d="M 520 648v 32h 32v -16a 16 16, 0, 0, 0, -16 -16" transform="rotate(90,536,664)"/><path d="M 616 648v 32h 16a 16 16, 0, 0, 0, 0 -32" transform="rotate(-90,632,664)"/><rect x="712" y="648" width="32" height="32" transform="rotate(0,728,664)"/><path d="M 808 648v 32h 32v -16a 16 16, 0, 0, 0, -16 -16" transform="rotate(-90,824,664)"/><path d="M 840 648v 32h 16a 16 16, 0, 0, 0, 0 -32" transform="rotate(0,856,664)"/><rect x="936" y="648" width="32" height="32" transform="rotate(0,952,664)"/><rect x="968" y="648" width="32" height="32" transform="rotate(0,984,664)"/><rect x="1000" y="648" width="32" height="32" transform="rotate(0,1016,664)"/><rect x="1032" y="648" width="32" height="32" transform="rotate(0,1048,664)"/><rect x="1064" y="648" width="32" height="32" transform="rotate(0,1080,664)"/><path d="M 1096 648v 32h 16a 16 16, 0, 0, 0, 0 -32" transform="rotate(0,1112,664)"/><rect x="8" y="680" width="32" height="32" transform="rotate(0,24,696)"/><rect x="40" y="680" width="32" height="32" transform="rotate(0,56,696)"/><rect x="72" y="680" width="32" height="32" transform="rotate(0,88,696)"/><rect x="104" y="680" width="32" height="32" transform="rotate(0,120,696)"/><path d="M 136 680v 32h 32v -16a 16 16, 0, 0, 0, -16 -16" transform="rotate(0,152,696)"/><path d="M 296 680v 32h 16a 16 16, 0, 0, 0, 0 -32" transform="rotate(-90,312,696)"/><path d="M 360 680v 32h 16a 16 16, 0, 0, 0, 0 -32" transform="rotate(-90,376,696)"/><path d="M 552 680v 32h 16a 16 16, 0, 0, 0, 0 -32" transform="rotate(180,568,696)"/><rect x="584" y="680" width="32" height="32" transform="rotate(0,600,696)"/><rect x="616" y="680" width="32" height="32" transform="rotate(0,632,696)"/><path d="M 680 680v 32h 16a 16 16, 0, 0, 0, 0 -32" transform="rotate(180,696,696)"/><rect x="712" y="680" width="32" height="32" transform="rotate(0,728,696)"/><path d="M 744 680v 32h 16a 16 16, 0, 0, 0, 0 -32" transform="rotate(0,760,696)"/><path d="M 808 680v 32h 16a 16 16, 0, 0, 0, 0 -32" transform="rotate(90,824,696)"/><path d="M 936 680v 32h 16a 16 16, 0, 0, 0, 0 -32" transform="rotate(90,952,696)"/><path d="M 1000 680v 32h 16a 16 16, 0, 0, 0, 0 -32" transform="rotate(90,1016,696)"/><path d="M 1064 680v 32h 16a 16 16, 0, 0, 0, 0 -32" transform="rotate(90,1080,696)"/><rect x="8" y="712" width="32" height="32" transform="rotate(0,24,728)"/><rect x="40" y="712" width="32" height="32" transform="rotate(0,56,728)"/><rect x="104" y="712" width="32" height="32" transform="rotate(0,120,728)"/><rect x="136" y="712" width="32" height="32" transform="rotate(0,152,728)"/><circle cx="216" cy="728" r="16" transform="rotate(0,216,728)"/><path d="M 264 712v 32h 32v -16a 16 16, 0, 0, 0, -16 -16" transform="rotate(-90,280,728)"/><path d="M 296 712v 32h 32v -16a 16 16, 0, 0, 0, -16 -16" transform="rotate(90,312,728)"/><rect x="360" y="712" width="32" height="32" transform="rotate(0,376,728)"/><path d="M 392 712v 32h 32v -16a 16 16, 0, 0, 0, -16 -16" transform="rotate(0,408,728)"/><path d="M 456 712v 32h 32v -16a 16 16, 0, 0, 0, -16 -16" transform="rotate(-90,472,728)"/><rect x="488" y="712" width="32" height="32" transform="rotate(0,504,728)"/><path d="M 520 712v 32h 16a 16 16, 0, 0, 0, 0 -32" transform="rotate(0,536,728)"/><path d="M 616 712v 32h 32v -16a 16 16, 0, 0, 0, -16 -16" transform="rotate(180,632,728)"/><path d="M 648 712v 32h 32v -16a 16 16, 0, 0, 0, -16 -16" transform="rotate(0,664,728)"/><path d="M 776 712v 32h 16a 16 16, 0, 0, 0, 0 -32" transform="rotate(-90,792,728)"/><circle cx="888" cy="728" r="16" transform="rotate(0,888,728)"/><circle cx="984" cy="728" r="16" transform="rotate(0,984,728)"/><path d="M 1128 712v 32h 16a 16 16, 0, 0, 0, 0 -32" transform="rotate(180,1144,728)"/><path d="M 1160 712v 32h 32v -16a 16 16, 0, 0, 0, -16 -16" transform="rotate(0,1176,728)"/><rect x="8" y="744" width="32" height="32" transform="rotate(0,24,760)"/><path d="M 40 744v 32h 32v -16a 16 16, 0, 0, 0, -16 -16" transform="rotate(90,56,760)"/><path d="M 104 744v 32h 32v -16a 16 16, 0, 0, 0, -16 -16" transform="rotate(180,120,760)"/><rect x="136" y="744" width="32" height="32" transform="rotate(0,152,760)"/><path d="M 168 744v 32h 32v -16a 16 16, 0, 0, 0, -16 -16" transform="rotate(0,184,760)"/><path d="M 232 744v 32h 32v -16a 16 16, 0, 0, 0, -16 -16" transform="rotate(-90,248,760)"/><path d="M 264 744v 32h 32v -16a 16 16, 0, 0, 0, -16 -16" transform="rotate(90,280,760)"/><path d="M 328 744v 32h 16a 16 16, 0, 0, 0, 0 -32" transform="rotate(180,344,760)"/><rect x="360" y="744" width="32" height="32" transform="rotate(0,376,760)"/><path d="M 392 744v 32h 32v -16a 16 16, 0, 0, 0, -16 -16" transform="rotate(90,408,760)"/><rect x="456" y="744" width="32" height="32" transform="rotate(0,472,760)"/><path d="M 648 744v 32h 32v -16a 16 16, 0, 0, 0, -16 -16" transform="rotate(180,664,760)"/><path d="M 680 744v 32h 16a 16 16, 0, 0, 0, 0 -32" transform="rotate(0,696,760)"/><path d="M 744 744v 32h 16a 16 16, 0, 0, 0, 0 -32" transform="rotate(180,760,760)"/><path d="M 776 744v 32h 32v -16a 16 16, 0, 0, 0, -16 -16" transform="rotate(90,792,760)"/><path d="M 840 744v 32h 16a 16 16, 0, 0, 0, 0 -32" transform="rotate(-90,856,760)"/><circle cx="1016" cy="760" r="16" transform="rotate(0,1016,760)"/><path d="M 1160 744v 32h 16a 16 16, 0, 0, 0, 0 -32" transform="rotate(90,1176,760)"/><rect x="8" y="776" width="32" height="32" transform="rotate(0,24,792)"/><path d="M 168 776v 32h 32v -16a 16 16, 0, 0, 0, -16 -16" transform="rotate(180,184,792)"/><rect x="200" y="776" width="32" height="32" transform="rotate(0,216,792)"/><path d="M 232 776v 32h 32v -16a 16 16, 0, 0, 0, -16 -16" transform="rotate(90,248,792)"/><circle cx="312" cy="792" r="16" transform="rotate(0,312,792)"/><rect x="456" y="776" width="32" height="32" transform="rotate(0,472,792)"/><path d="M 552 776v 32h 16a 16 16, 0, 0, 0, 0 -32" transform="rotate(180,568,792)"/><rect x="584" y="776" width="32" height="32" transform="rotate(0,600,792)"/><path d="M 616 776v 32h 32v -16a 16 16, 0, 0, 0, -16 -16" transform="rotate(0,632,792)"/><path d="M 712 776v 32h 16a 16 16, 0, 0, 0, 0 -32" transform="rotate(-90,728,792)"/><path d="M 808 776v 32h 16a 16 16, 0, 0, 0, 0 -32" transform="rotate(180,824,792)"/><rect x="840" y="776" width="32" height="32" transform="rotate(0,856,792)"/><circle cx="984" cy="792" r="16" transform="rotate(0,984,792)"/><circle cx="1048" cy="792" r="16" transform="rotate(0,1048,792)"/><circle cx="1112" cy="792" r="16" transform="rotate(0,1112,792)"/><rect x="8" y="808" width="32" height="32" transform="rotate(0,24,824)"/><rect x="40" y="808" width="32" height="32" transform="rotate(0,56,824)"/><path d="M 72 808v 32h 32v -16a 16 16, 0, 0, 0, -16 -16" transform="rotate(0,88,824)"/><path d="M 136 808v 32h 16a 16 16, 0, 0, 0, 0 -32" transform="rotate(-90,152,824)"/><path d="M 360 808v 32h 16a 16 16, 0, 0, 0, 0 -32" transform="rotate(-90,376,824)"/><path d="M 424 808v 32h 16a 16 16, 0, 0, 0, 0 -32" transform="rotate(180,440,824)"/><rect x="456" y="808" width="32" height="32" transform="rotate(0,472,824)"/><rect x="584" y="808" width="32" height="32" transform="rotate(0,600,824)"/><rect x="616" y="808" width="32" height="32" transform="rotate(0,632,824)"/><rect x="712" y="808" width="32" height="32" transform="rotate(0,728,824)"/><path d="M 744 808v 32h 16a 16 16, 0, 0, 0, 0 -32" transform="rotate(0,760,824)"/><path d="M 840 808v 32h 16a 16 16, 0, 0, 0, 0 -32" transform="rotate(90,856,824)"/><path d="M 904 808v 32h 16a 16 16, 0, 0, 0, 0 -32" transform="rotate(-90,920,824)"/><circle cx="1016" cy="824" r="16" transform="rotate(0,1016,824)"/><path d="M 1064 808v 32h 16a 16 16, 0, 0, 0, 0 -32" transform="rotate(-90,1080,824)"/><rect x="8" y="840" width="32" height="32" transform="rotate(0,24,856)"/><rect x="72" y="840" width="32" height="32" transform="rotate(0,88,856)"/><rect x="104" y="840" width="32" height="32" transform="rotate(0,120,856)"/><path d="M 136 840v 32h 32v -16a 16 16, 0, 0, 0, -16 -16" transform="rotate(90,152,856)"/><circle cx="216" cy="856" r="16" transform="rotate(0,216,856)"/><path d="M 360 840v 32h 16a 16 16, 0, 0, 0, 0 -32" transform="rotate(90,376,856)"/><rect x="456" y="840" width="32" height="32" transform="rotate(0,472,856)"/><rect x="488" y="840" width="32" height="32" transform="rotate(0,504,856)"/><path d="M 520 840v 32h 16a 16 16, 0, 0, 0, 0 -32" transform="rotate(0,536,856)"/><rect x="584" y="840" width="32" height="32" transform="rotate(0,600,856)"/><rect x="616" y="840" width="32" height="32" transform="rotate(0,632,856)"/><path d="M 680 840v 32h 32v -16a 16 16, 0, 0, 0, -16 -16" transform="rotate(-90,696,856)"/><path d="M 712 840v 32h 32v -16a 16 16, 0, 0, 0, -16 -16" transform="rotate(90,728,856)"/><path d="M 776 840v 32h 16a 16 16, 0, 0, 0, 0 -32" transform="rotate(180,792,856)"/><path d="M 808 840v 32h 16a 16 16, 0, 0, 0, 0 -32" transform="rotate(0,824,856)"/><path d="M 872 840v 32h 32v -16a 16 16, 0, 0, 0, -16 -16" transform="rotate(-90,888,856)"/><rect x="904" y="840" width="32" height="32" transform="rotate(0,920,856)"/><circle cx="984" cy="856" r="16" transform="rotate(0,984,856)"/><path d="M 1032 840v 32h 16a 16 16, 0, 0, 0, 0 -32" transform="rotate(180,1048,856)"/><rect x="1064" y="840" width="32" height="32" transform="rotate(0,1080,856)"/><rect x="1096" y="840" width="32" height="32" transform="rotate(0,1112,856)"/><rect x="1128" y="840" width="32" height="32" transform="rotate(0,1144,856)"/><path d="M 1160 840v 32h 32v -16a 16 16, 0, 0, 0, -16 -16" transform="rotate(0,1176,856)"/><rect x="8" y="872" width="32" height="32" transform="rotate(0,24,888)"/><rect x="72" y="872" width="32" height="32" transform="rotate(0,88,888)"/><circle cx="184" cy="888" r="16" transform="rotate(0,184,888)"/><path d="M 232 872v 32h 32v -16a 16 16, 0, 0, 0, -16 -16" transform="rotate(-90,248,888)"/><rect x="264" y="872" width="32" height="32" transform="rotate(0,280,888)"/><rect x="296" y="872" width="32" height="32" transform="rotate(0,312,888)"/><path d="M 328 872v 32h 16a 16 16, 0, 0, 0, 0 -32" transform="rotate(0,344,888)"/><circle cx="408" cy="888" r="16" transform="rotate(0,408,888)"/><path d="M 456 872v 32h 16a 16 16, 0, 0, 0, 0 -32" transform="rotate(90,472,888)"/><rect x="584" y="872" width="32" height="32" transform="rotate(0,600,888)"/><path d="M 616 872v 32h 32v -16a 16 16, 0, 0, 0, -16 -16" transform="rotate(90,632,888)"/><path d="M 680 872v 32h 16a 16 16, 0, 0, 0, 0 -32" transform="rotate(90,696,888)"/><path d="M 744 872v 32h 16a 16 16, 0, 0, 0, 0 -32" transform="rotate(-90,760,888)"/><path d="M 840 872v 32h 32v -16a 16 16, 0, 0, 0, -16 -16" transform="rotate(-90,856,888)"/><rect x="872" y="872" width="32" height="32" transform="rotate(0,888,888)"/><rect x="904" y="872" width="32" height="32" transform="rotate(0,920,888)"/><path d="M 936 872v 32h 32v -16a 16 16, 0, 0, 0, -16 -16" transform="rotate(0,952,888)"/><rect x="1160" y="872" width="32" height="32" transform="rotate(0,1176,888)"/><path d="M 8 904v 32h 16a 16 16, 0, 0, 0, 0 -32" transform="rotate(90,24,920)"/><path d="M 72 904v 32h 32v -16a 16 16, 0, 0, 0, -16 -16" transform="rotate(180,88,920)"/><rect x="104" y="904" width="32" height="32" transform="rotate(0,120,920)"/><path d="M 136 904v 32h 16a 16 16, 0, 0, 0, 0 -32" transform="rotate(0,152,920)"/><path d="M 200 904v 32h 16a 16 16, 0, 0, 0, 0 -32" transform="rotate(180,216,920)"/><rect x="232" y="904" width="32" height="32" transform="rotate(0,248,920)"/><rect x="264" y="904" width="32" height="32" transform="rotate(0,280,920)"/><circle cx="376" cy="920" r="16" transform="rotate(0,376,920)"/><circle cx="440" cy="920" r="16" transform="rotate(0,440,920)"/><path d="M 520 904v 32h 16a 16 16, 0, 0, 0, 0 -32" transform="rotate(-90,536,920)"/><path d="M 584 904v 32h 16a 16 16, 0, 0, 0, 0 -32" transform="rotate(90,600,920)"/><rect x="744" y="904" width="32" height="32" transform="rotate(0,760,920)"/><rect x="776" y="904" width="32" height="32" transform="rotate(0,792,920)"/><rect x="808" y="904" width="32" height="32" transform="rotate(0,824,920)"/><rect x="840" y="904" width="32" height="32" transform="rotate(0,856,920)"/><rect x="904" y="904" width="32" height="32" transform="rotate(0,920,920)"/><rect x="936" y="904" width="32" height="32" transform="rotate(0,952,920)"/><rect x="968" y="904" width="32" height="32" transform="rotate(0,984,920)"/><rect x="1000" y="904" width="32" height="32" transform="rotate(0,1016,920)"/><path d="M 1032 904v 32h 32v -16a 16 16, 0, 0, 0, -16 -16" transform="rotate(0,1048,920)"/><path d="M 1096 904v 32h 16a 16 16, 0, 0, 0, 0 -32" transform="rotate(180,1112,920)"/><rect x="1128" y="904" width="32" height="32" transform="rotate(0,1144,920)"/><path d="M 1160 904v 32h 32v -16a 16 16, 0, 0, 0, -16 -16" transform="rotate(90,1176,920)"/><rect x="264" y="936" width="32" height="32" transform="rotate(0,280,952)"/><path d="M 296 936v 32h 16a 16 16, 0, 0, 0, 0 -32" transform="rotate(0,312,952)"/><path d="M 392 936v 32h 16a 16 16, 0, 0, 0, 0 -32" transform="rotate(-90,408,952)"/><path d="M 456 936v 32h 32v -16a 16 16, 0, 0, 0, -16 -16" transform="rotate(-90,472,952)"/><rect x="488" y="936" width="32" height="32" transform="rotate(0,504,952)"/><path d="M 520 936v 32h 32v -16a 16 16, 0, 0, 0, -16 -16" transform="rotate(90,536,952)"/><path d="M 616 936v 32h 16a 16 16, 0, 0, 0, 0 -32" transform="rotate(-90,632,952)"/><path d="M 744 936v 32h 16a 16 16, 0, 0, 0, 0 -32" transform="rotate(90,760,952)"/><path d="M 808 936v 32h 32v -16a 16 16, 0, 0, 0, -16 -16" transform="rotate(180,824,952)"/><rect x="840" y="936" width="32" height="32" transform="rotate(0,856,952)"/><rect x="872" y="936" width="32" height="32" transform="rotate(0,888,952)"/><rect x="904" y="936" width="32" height="32" transform="rotate(0,920,952)"/><rect x="1032" y="936" width="32" height="32" transform="rotate(0,1048,952)"/><rect x="264" y="968" width="32" height="32" transform="rotate(0,280,984)"/><circle cx="344" cy="984" r="16" transform="rotate(0,344,984)"/><rect x="392" y="968" width="32" height="32" transform="rotate(0,408,984)"/><rect x="456" y="968" width="32" height="32" transform="rotate(0,472,984)"/><rect x="488" y="968" width="32" height="32" transform="rotate(0,504,984)"/><path d="M 584 968v 32h 16a 16 16, 0, 0, 0, 0 -32" transform="rotate(180,600,984)"/><rect x="616" y="968" width="32" height="32" transform="rotate(0,632,984)"/><path d="M 648 968v 32h 32v -16a 16 16, 0, 0, 0, -16 -16" transform="rotate(0,664,984)"/><circle cx="728" cy="984" r="16" transform="rotate(0,728,984)"/><rect x="904" y="968" width="32" height="32" transform="rotate(0,920,984)"/><circle cx="984" cy="984" r="16" transform="rotate(0,984,984)"/><rect x="1032" y="968" width="32" height="32" transform="rotate(0,1048,984)"/><path d="M 1064 968v 32h 16a 16 16, 0, 0, 0, 0 -32" transform="rotate(0,1080,984)"/><path d="M 1128 968v 32h 16a 16 16, 0, 0, 0, 0 -32" transform="rotate(180,1144,984)"/><path d="M 1160 968v 32h 16a 16 16, 0, 0, 0, 0 -32" transform="rotate(0,1176,984)"/><rect x="264" y="1000" width="32" height="32" transform="rotate(0,280,1016)"/><path d="M 296 1000v 32h 32v -16a 16 16, 0, 0, 0, -16 -16" transform="rotate(0,312,1016)"/><rect x="392" y="1000" width="32" height="32" transform="rotate(0,408,1016)"/><rect x="424" y="1000" width="32" height="32" transform="rotate(0,440,1016)"/><rect x="456" y="1000" width="32" height="32" transform="rotate(0,472,1016)"/><rect x="488" y="1000" width="32" height="32" transform="rotate(0,504,1016)"/><path d="M 520 1000v 32h 16a 16 16, 0, 0, 0, 0 -32" transform="rotate(0,536,1016)"/><rect x="616" y="1000" width="32" height="32" transform="rotate(0,632,1016)"/><rect x="648" y="1000" width="32" height="32" transform="rotate(0,664,1016)"/><path d="M 840 1000v 32h 16a 16 16, 0, 0, 0, 0 -32" transform="rotate(-90,856,1016)"/><rect x="904" y="1000" width="32" height="32" transform="rotate(0,920,1016)"/><rect x="1032" y="1000" width="32" height="32" transform="rotate(0,1048,1016)"/><rect x="264" y="1032" width="32" height="32" transform="rotate(0,280,1048)"/><rect x="296" y="1032" width="32" height="32" transform="rotate(0,312,1048)"/><path d="M 360 1032v 32h 16a 16 16, 0, 0, 0, 0 -32" transform="rotate(180,376,1048)"/><rect x="392" y="1032" width="32" height="32" transform="rotate(0,408,1048)"/><path d="M 488 1032v 32h 16a 16 16, 0, 0, 0, 0 -32" transform="rotate(90,504,1048)"/><path d="M 552 1032v 32h 16a 16 16, 0, 0, 0, 0 -32" transform="rotate(-90,568,1048)"/><path d="M 616 1032v 32h 32v -16a 16 16, 0, 0, 0, -16 -16" transform="rotate(180,632,1048)"/><rect x="648" y="1032" width="32" height="32" transform="rotate(0,664,1048)"/><rect x="680" y="1032" width="32" height="32" transform="rotate(0,696,1048)"/><path d="M 712 1032v 32h 16a 16 16, 0, 0, 0, 0 -32" transform="rotate(0,728,1048)"/><path d="M 776 1032v 32h 16a 16 16, 0, 0, 0, 0 -32" transform="rotate(180,792,1048)"/><rect x="808" y="1032" width="32" height="32" transform="rotate(0,824,1048)"/><rect x="840" y="1032" width="32" height="32" transform="rotate(0,856,1048)"/><rect x="872" y="1032" width="32" height="32" transform="rotate(0,888,1048)"/><rect x="904" y="1032" width="32" height="32" transform="rotate(0,920,1048)"/><rect x="936" y="1032" width="32" height="32" transform="rotate(0,952,1048)"/><rect x="968" y="1032" width="32" height="32" transform="rotate(0,984,1048)"/><rect x="1000" y="1032" width="32" height="32" transform="rotate(0,1016,1048)"/><rect x="1032" y="1032" width="32" height="32" transform="rotate(0,1048,1048)"/><path d="M 1096 1032v 32h 16a 16 16, 0, 0, 0, 0 -32" transform="rotate(-90,1112,1048)"/><circle cx="1176" cy="1048" r="16" transform="rotate(0,1176,1048)"/><rect x="264" y="1064" width="32" height="32" transform="rotate(0,280,1080)"/><rect x="296" y="1064" width="32" height="32" transform="rotate(0,312,1080)"/><path d="M 392 1064v 32h 32v -16a 16 16, 0, 0, 0, -16 -16" transform="rotate(180,408,1080)"/><path d="M 424 1064v 32h 16a 16 16, 0, 0, 0, 0 -32" transform="rotate(0,440,1080)"/><rect x="552" y="1064" width="32" height="32" transform="rotate(0,568,1080)"/><circle cx="760" cy="1080" r="16" transform="rotate(0,760,1080)"/><path d="M 968 1064v 32h 16a 16 16, 0, 0, 0, 0 -32" transform="rotate(90,984,1080)"/><path d="M 1032 1064v 32h 16a 16 16, 0, 0, 0, 0 -32" transform="rotate(90,1048,1080)"/><path d="M 1096 1064v 32h 32v -16a 16 16, 0, 0, 0, -16 -16" transform="rotate(180,1112,1080)"/><path d="M 1128 1064v 32h 16a 16 16, 0, 0, 0, 0 -32" transform="rotate(0,1144,1080)"/><rect x="264" y="1096" width="32" height="32" transform="rotate(0,280,1112)"/><rect x="296" y="1096" width="32" height="32" transform="rotate(0,312,1112)"/><path d="M 328 1096v 32h 32v -16a 16 16, 0, 0, 0, -16 -16" transform="rotate(0,344,1112)"/><rect x="552" y="1096" width="32" height="32" transform="rotate(0,568,1112)"/><path d="M 648 1096v 32h 16a 16 16, 0, 0, 0, 0 -32" transform="rotate(180,664,1112)"/><rect x="680" y="1096" width="32" height="32" transform="rotate(0,696,1112)"/><path d="M 712 1096v 32h 32v -16a 16 16, 0, 0, 0, -16 -16" transform="rotate(0,728,1112)"/><path d="M 776 1096v 32h 16a 16 16, 0, 0, 0, 0 -32" transform="rotate(-90,792,1112)"/><path d="M 840 1096v 32h 16a 16 16, 0, 0, 0, 0 -32" transform="rotate(-90,856,1112)"/><circle cx="952" cy="1112" r="16" transform="rotate(0,952,1112)"/><circle cx="1016" cy="1112" r="16" transform="rotate(0,1016,1112)"/><circle cx="1080" cy="1112" r="16" transform="rotate(0,1080,1112)"/><path d="M 1160 1096v 32h 16a 16 16, 0, 0, 0, 0 -32" transform="rotate(-90,1176,1112)"/><path d="M 264 1128v 32h 32v -16a 16 16, 0, 0, 0, -16 -16" transform="rotate(180,280,1144)"/><rect x="296" y="1128" width="32" height="32" transform="rotate(0,312,1144)"/><rect x="328" y="1128" width="32" height="32" transform="rotate(0,344,1144)"/><path d="M 360 1128v 32h 16a 16 16, 0, 0, 0, 0 -32" transform="rotate(0,376,1144)"/><path d="M 424 1128v 32h 16a 16 16, 0, 0, 0, 0 -32" transform="rotate(180,440,1144)"/><path d="M 456 1128v 32h 32v -16a 16 16, 0, 0, 0, -16 -16" transform="rotate(0,472,1144)"/><path d="M 520 1128v 32h 32v -16a 16 16, 0, 0, 0, -16 -16" transform="rotate(-90,536,1144)"/><path d="M 552 1128v 32h 32v -16a 16 16, 0, 0, 0, -16 -16" transform="rotate(90,568,1144)"/><path d="M 680 1128v 32h 32v -16a 16 16, 0, 0, 0, -16 -16" transform="rotate(180,696,1144)"/><rect x="712" y="1128" width="32" height="32" transform="rotate(0,728,1144)"/><path d="M 776 1128v 32h 16a 16 16, 0, 0, 0, 0 -32" transform="rotate(90,792,1144)"/><rect x="840" y="1128" width="32" height="32" transform="rotate(0,856,1144)"/><rect x="872" y="1128" width="32" height="32" transform="rotate(0,888,1144)"/><path d="M 904 1128v 32h 16a 16 16, 0, 0, 0, 0 -32" transform="rotate(0,920,1144)"/><circle cx="984" cy="1144" r="16" transform="rotate(0,984,1144)"/><circle cx="1048" cy="1144" r="16" transform="rotate(0,1048,1144)"/><rect x="1160" y="1128" width="32" height="32" transform="rotate(0,1176,1144)"/><path d="M 296 1160v 32h 32v -16a 16 16, 0, 0, 0, -16 -16" transform="rotate(180,312,1176)"/><path d="M 328 1160v 32h 32v -16a 16 16, 0, 0, 0, -16 -16" transform="rotate(90,344,1176)"/><path d="M 456 1160v 32h 16a 16 16, 0, 0, 0, 0 -32" transform="rotate(90,472,1176)"/><path d="M 520 1160v 32h 16a 16 16, 0, 0, 0, 0 -32" transform="rotate(90,536,1176)"/><circle cx="600" cy="1176" r="16" transform="rotate(0,600,1176)"/><path d="M 712 1160v 32h 16a 16 16, 0, 0, 0, 0 -32" transform="rotate(90,728,1176)"/><path d="M 808 1160v 32h 16a 16 16, 0, 0, 0, 0 -32" transform="rotate(180,824,1176)"/><path d="M 840 1160v 32h 32v -16a 16 16, 0, 0, 0, -16 -16" transform="rotate(90,856,1176)"/><circle cx="952" cy="1176" r="16" transform="rotate(0,952,1176)"/><path d="M 1096 1160v 32h 16a 16 16, 0, 0, 0, 0 -32" transform="rotate(180,1112,1176)"/><rect x="1128" y="1160" width="32" height="32" transform="rotate(0,1144,1176)"/><path d="M 1160 1160v 32h 32v -16a 16 16, 0, 0, 0, -16 -16" transform="rotate(90,1176,1176)"/></clipPath><clipPath id="clip-path-corners-square-color-0-0-741"><path clip-rule="evenodd" d="M 8 88v 64a 80 80, 0, 0, 0, 80 80h 64a 80 80, 0, 0, 0, 80 -80v -64a 80 80, 0, 0, 0, -80 -80h -64a 80 80, 0, 0, 0, -80 80M 88 40h 64a 48 48, 0, 0, 1, 48 48v 64a 48 48, 0, 0, 1, -48 48h -64a 48 48, 0, 0, 1, -48 -48v -64a 48 48, 0, 0, 1, 48 -48" transform="rotate(0,120,120)"/></clipPath><clipPath id="clip-path-corners-dot-color-0-0-741"><circle cx="120" cy="120" r="48" transform="rotate(0,120,120)"/></clipPath><clipPath id="clip-path-corners-square-color-1-0-741"><path clip-rule="evenodd" d="M 968 88v 64a 80 80, 0, 0, 0, 80 80h 64a 80 80, 0, 0, 0, 80 -80v -64a 80 80, 0, 0, 0, -80 -80h -64a 80 80, 0, 0, 0, -80 80M 1048 40h 64a 48 48, 0, 0, 1, 48 48v 64a 48 48, 0, 0, 1, -48 48h -64a 48 48, 0, 0, 1, -48 -48v -64a 48 48, 0, 0, 1, 48 -48" transform="rotate(90,1080,120)"/></clipPath><clipPath id="clip-path-corners-dot-color-1-0-741"><circle cx="1080" cy="120" r="48" transform="rotate(90,1080,120)"/></clipPath><clipPath id="clip-path-corners-square-color-0-1-741"><path clip-rule="evenodd" d="M 8 1048v 64a 80 80, 0, 0, 0, 80 80h 64a 80 80, 0, 0, 0, 80 -80v -64a 80 80, 0, 0, 0, -80 -80h -64a 80 80, 0, 0, 0, -80 80M 88 1000h 64a 48 48, 0, 0, 1, 48 48v 64a 48 48, 0, 0, 1, -48 48h -64a 48 48, 0, 0, 1, -48 -48v -64a 48 48, 0, 0, 1, 48 -48" transform="rotate(-90,120,1080)"/></clipPath><clipPath id="clip-path-corners-dot-color-0-1-741"><circle cx="120" cy="1080" r="48" transform="rotate(-90,120,1080)"/></clipPath></defs><rect x="0" y="0" height="1200" width="1200" clip-path="url('#clip-path-background-color-741')" fill="#ffffff"/><rect x="0" y="0" height="1200" width="1200" clip-path="url('#clip-path-dot-color-741')" fill="#000000"/><rect x="8" y="8" height="224" width="224" clip-path="url('#clip-path-corners-square-color-0-0-741')" fill="#000000"/><rect x="72" y="72" height="96" width="96" clip-path="url('#clip-path-corners-dot-color-0-0-741')" fill="#000000"/><rect x="968" y="8" height="224" width="224" clip-path="url('#clip-path-corners-square-color-1-0-741')" fill="#000000"/><rect x="1032" y="72" height="96" width="96" clip-path="url('#clip-path-corners-dot-color-1-0-741')" fill="#000000"/><rect x="8" y="968" height="224" width="224" clip-path="url('#clip-path-corners-square-color-0-1-741')" fill="#000000"/><rect x="72" y="1032" height="96" width="96" clip-path="url('#clip-path-corners-dot-color-0-1-741')" fill="#000000"/></svg>