<?xml version="1.0" standalone="no"?>
<svg xmlns="http://www.w3.org/2000/svg" width="1200" height="1200" xmlns:xlink="http://www.w3.org/1999/xlink" viewBox="0 0 1200 1200"><defs><clipPath id="clip-path-background-color-740"><rect x="0" y="0" width="1200" height="1200"/></clipPath><clipPath id="clip-path-dot-color-740"><path d="M 250 26v 28h 14a 14 14, 0, 0, 0, 0 -28" transform="rotate(180,264,40)"/><path d="M 278 26v 28h 28v -14a 14 14, 0, 0, 0, -14 -14" transform="rotate(0,292,40)"/><path d="M 334 26v 28h 14a 14 14, 0, 0, 0, 0 -28" transform="rotate(-90,348,40)"/><path d="M 390 26v 28h 14a 14 14, 0, 0, 0, 0 -28" transform="rotate(-90,404,40)"/><circle cx="460" cy="40" r="14" transform="rotate(0,460,40)"/><circle cx="544" cy="40" r="14" transform="rotate(0,544,40)"/><circle cx="628" cy="40" r="14" transform="rotate(0,628,40)"/><path d="M 698 26v 28h 28v -14a 14 14, 0, 0, 0, -14 -14" transform="rotate(-90,712,40)"/><rect x="726" y="26" width="28" height="28" transform="rotate(0,740,40)"/><path d="M 754 26v 28h 28v -14a 14 14, 0, 0, 0, -14 -14" transform="rotate(0,768,40)"/><path d="M 810 26v 28h 14a 14 14, 0, 0, 0, 0 -28" transform="rotate(-90,824,40)"/><path d="M 894 26v 28h 14a 14 14, 0, 0, 0, 0 -28" transform="rotate(180,908,40)"/><path d="M 922 26v 28h 28v -14a 14 14, 0, 0, 0, -14 -14" transform="rotate(0,936,40)"/><rect x="278" y="54" width="28" height="28" transform="rotate(0,292,68)"/><rect x="306" y="54" width="28" height="28" transform="rotate(0,320,68)"/><rect x="334" y="54" width="28" height="28" transform="rotate(0,348,68)"/><rect x="390" y="54" width="28" height="28" transform="rotate(0,404,68)"/><path d="M 418 54v 28h 28v -14a 14 14, 0, 0, 0, -14 -14" transform="rotate(0,432,68)"/><path d="M 474 54v 28h 14a 14 14, 0, 0, 0, 0 -28" transform="rotate(180,488,68)"/><path d="M 502 54v 28h 28v -14a 14 14, 0, 0, 0, -14 -14" transform="rotate(0,516,68)"/><path d="M 642 54v 28h 28v -14a 14 14, 0, 0, 0, -14 -14" transform="rotate(-90,656,68)"/><rect x="670" y="54" width="28" height="28" transform="rotate(0,684,68)"/><rect x="698" y="54" width="28" height="28" transform="rotate(0,712,68)"/><rect x="726" y="54" width="28" height="28" transform="rotate(0,740,68)"/><rect x="754" y="54" width="28" height="28" transform="rotate(0,768,68)"/><rect x="782" y="54" width="28" height="28" transform="rotate(0,796,68)"/><rect x="810" y="54" width="28" height="28" transform="rotate(0,824,68)"/><rect x="922" y="54" width="28" height="28" transform="rotate(0,936,68)"/><path d="M 278 82v 28h 28v -14a 14 14, 0, 0, 0, -14 -14" transform="rotate(180,292,96)"/><rect x="306" y="82" width="28" height="28" transform="rotate(0,320,96)"/><rect x="334" y="82" width="28" height="28" transform="rotate(0,348,96)"/><rect x="362" y="82" width="28" height="28" transform="rotate(0,376,96)"/><rect x="390" y="82" width="28" height="28" transform="rotate(0,404,96)"/><rect x="418" y="82" width="28" height="28" transform="rotate(0,432,96)"/><path d="M 446 82v 28h 28v -14a 14 14, 0, 0, 0, -14 -14" transform="rotate(0,460,96)"/><path d="M 502 82v 28h 14a 14 14, 0, 0, 0, 0 -28" transform="rotate(90,516,96)"/><path d="M 614 82v 28h 14a 14 14, 0, 0, 0, 0 -28" transform="rotate(180,628,96)"/><rect x="642" y="82" width="28" height="28" transform="rotate(0,656,96)"/><rect x="670" y="82" width="28" height="28" transform="rotate(0,684,96)"/><rect x="698" y="82" width="28" height="28" transform="rotate(0,712,96)"/><path d="M 726 82v 28h 28v -14a 14 14, 0, 0, 0, -14 -14" transform="rotate(90,740,96)"/><path d="M 782 82v 28h 28v -14a 14 14, 0, 0, 0, -14 -14" transform="rotate(180,796,96)"/><path d="M 810 82v 28h 28v -14a 14 14, 0, 0, 0, -14 -14" transform="rotate(90,824,96)"/><path d="M 894 82v 28h 28v -14a 14 14, 0, 0, 0, -14 -14" transform="rotate(-90,908,96)"/><rect x="922" y="82" width="28" height="28" transform="rotate(0,936,96)"/><path d="M 418 110v 28h 28v -14a 14 14, 0, 0, 0, -14 -14" transform="rotate(180,432,124)"/><path d="M 446 110v 28h 28v -14a 14 14, 0, 0, 0, -14 -14" transform="rotate(90,460,124)"/><path d="M 586 110v 28h 14a 14 14, 0, 0, 0, 0 -28" transform="rotate(-90,600,124)"/><rect x="698" y="110" width="28" height="28" transform="rotate(0,712,124)"/><circle cx="768" cy="124" r="14" transform="rotate(0,768,124)"/><circle cx="852" cy="124" r="14" transform="rotate(0,852,124)"/><rect x="894" y="110" width="28" height="28" transform="rotate(0,908,124)"/><rect x="922" y="110" width="28" height="28" transform="rotate(0,936,124)"/><path d="M 250 138v 28h 14a 14 14, 0, 0, 0, 0 -28" transform="rotate(-90,264,152)"/><path d="M 334 138v 28h 14a 14 14, 0, 0, 0, 0 -28" transform="rotate(180,348,152)"/><rect x="362" y="138" width="28" height="28" transform="rotate(0,376,152)"/><path d="M 390 138v 28h 14a 14 14, 0, 0, 0, 0 -28" transform="rotate(0,404,152)"/><circle cx="488" cy="152" r="14" transform="rotate(0,488,152)"/><path d="M 530 138v 28h 28v -14a 14 14, 0, 0, 0, -14 -14" transform="rotate(-90,544,152)"/><rect x="558" y="138" width="28" height="28" transform="rotate(0,572,152)"/><rect x="586" y="138" width="28" height="28" transform="rotate(0,600,152)"/><rect x="614" y="138" width="28" height="28" transform="rotate(0,628,152)"/><path d="M 642 138v 28h 28v -14a 14 14, 0, 0, 0, -14 -14" transform="rotate(0,656,152)"/><rect x="698" y="138" width="28" height="28" transform="rotate(0,712,152)"/><circle cx="824" cy="152" r="14" transform="rotate(0,824,152)"/><path d="M 866 138v 28h 28v -14a 14 14, 0, 0, 0, -14 -14" transform="rotate(-90,880,152)"/><rect x="894" y="138" width="28" height="28" transform="rotate(0,908,152)"/><rect x="922" y="138" width="28" height="28" transform="rotate(0,936,152)"/><rect x="250" y="166" width="28" height="28" transform="rotate(0,264,180)"/><rect x="362" y="166" width="28" height="28" transform="rotate(0,376,180)"/><circle cx="460" cy="180" r="14" transform="rotate(0,460,180)"/><path d="M 502 166v 28h 14a 14 14, 0, 0, 0, 0 -28" transform="rotate(180,516,180)"/><rect x="530" y="166" width="28" height="28" transform="rotate(0,544,180)"/><path d="M 558 166v 28h 28v -14a 14 14, 0, 0, 0, -14 -14" transform="rotate(90,572,180)"/><rect x="642" y="166" width="28" height="28" transform="rotate(0,656,180)"/><rect x="698" y="166" width="28" height="28" transform="rotate(0,712,180)"/><path d="M 726 166v 28h 14a 14 14, 0, 0, 0, 0 -28" transform="rotate(0,740,180)"/><circle cx="796" cy="180" r="14" transform="rotate(0,796,180)"/><path d="M 838 166v 28h 14a 14 14, 0, 0, 0, 0 -28" transform="rotate(180,852,180)"/><rect x="866" y="166" width="28" height="28" transform="rotate(0,880,180)"/><rect x="922" y="166" width="28" height="28" transform="rotate(0,936,180)"/><path d="M 250 194v 28h 14a 14 14, 0, 0, 0, 0 -28" transform="rotate(90,264,208)"/><circle cx="320" cy="208" r="14" transform="rotate(0,320,208)"/><rect x="362" y="194" width="28" height="28" transform="rotate(0,376,208)"/><path d="M 418 194v 28h 14a 14 14, 0, 0, 0, 0 -28" transform="rotate(-90,432,208)"/><circle cx="488" cy="208" r="14" transform="rotate(0,488,208)"/><rect x="530" y="194" width="28" height="28" transform="rotate(0,544,208)"/><path d="M 586 194v 28h 14a 14 14, 0, 0, 0, 0 -28" transform="rotate(-90,600,208)"/><path d="M 642 194v 28h 14a 14 14, 0, 0, 0, 0 -28" transform="rotate(90,656,208)"/><path d="M 698 194v 28h 14a 14 14, 0, 0, 0, 0 -28" transform="rotate(90,712,208)"/><circle cx="768" cy="208" r="14" transform="rotate(0,768,208)"/><circle cx="824" cy="208" r="14" transform="rotate(0,824,208)"/><path d="M 866 194v 28h 14a 14 14, 0, 0, 0, 0 -28" transform="rotate(90,880,208)"/><rect x="922" y="194" width="28" height="28" transform="rotate(0,936,208)"/><circle cx="292" cy="236" r="14" transform="rotate(0,292,236)"/><path d="M 334 222v 28h 28v -14a 14 14, 0, 0, 0, -14 -14" transform="rotate(-90,348,236)"/><rect x="362" y="222" width="28" height="28" transform="rotate(0,376,236)"/><rect x="390" y="222" width="28" height="28" transform="rotate(0,404,236)"/><rect x="418" y="222" width="28" height="28" transform="rotate(0,432,236)"/><path d="M 446 222v 28h 28v -14a 14 14, 0, 0, 0, -14 -14" transform="rotate(0,460,236)"/><rect x="530" y="222" width="28" height="28" transform="rotate(0,544,236)"/><path d="M 586 222v 28h 14a 14 14, 0, 0, 0, 0 -28" transform="rotate(90,600,236)"/><path d="M 922 222v 28h 14a 14 14, 0, 0, 0, 0 -28" transform="rotate(90,936,236)"/><path d="M 54 250v 28h 28v -14a 14 14, 0, 0, 0, -14 -14" transform="rotate(-90,68,264)"/><rect x="82" y="250" width="28" height="28" transform="rotate(0,96,264)"/><rect x="110" y="250" width="28" height="28" transform="rotate(0,124,264)"/><rect x="138" y="250" width="28" height="28" transform="rotate(0,152,264)"/><rect x="166" y="250" width="28" height="28" transform="rotate(0,180,264)"/><rect x="194" y="250" width="28" height="28" transform="rotate(0,208,264)"/><path d="M 222 250v 28h 14a 14 14, 0, 0, 0, 0 -28" transform="rotate(0,236,264)"/><rect x="334" y="250" width="28" height="28" transform="rotate(0,348,264)"/><rect x="362" y="250" width="28" height="28" transform="rotate(0,376,264)"/><rect x="418" y="250" width="28" height="28" transform="rotate(0,432,264)"/><rect x="446" y="250" width="28" height="28" transform="rotate(0,460,264)"/><path d="M 530 250v 28h 28v -14a 14 14, 0, 0, 0, -14 -14" transform="rotate(180,544,264)"/><path d="M 558 250v 28h 14a 14 14, 0, 0, 0, 0 -28" transform="rotate(0,572,264)"/><path d="M 670 250v 28h 28v -14a 14 14, 0, 0, 0, -14 -14" transform="rotate(-90,684,264)"/><rect x="698" y="250" width="28" height="28" transform="rotate(0,712,264)"/><rect x="726" y="250" width="28" height="28" transform="rotate(0,740,264)"/><rect x="754" y="250" width="28" height="28" transform="rotate(0,768,264)"/><rect x="782" y="250" width="28" height="28" transform="rotate(0,796,264)"/><rect x="810" y="250" width="28" height="28" transform="rotate(0,824,264)"/><path d="M 838 250v 28h 14a 14 14, 0, 0, 0, 0 -28" transform="rotate(0,852,264)"/><path d="M 1006 250v 28h 28v -14a 14 14, 0, 0, 0, -14 -14" transform="rotate(-90,1020,264)"/><path d="M 1034 250v 28h 28v -14a 14 14, 0, 0, 0, -14 -14" transform="rotate(0,1048,264)"/><path d="M 1146 250v 28h 14a 14 14, 0, 0, 0, 0 -28" transform="rotate(-90,1160,264)"/><path d="M 26 278v 28h 28v -14a 14 14, 0, 0, 0, -14 -14" transform="rotate(-90,40,292)"/><rect x="54" y="278" width="28" height="28" transform="rotate(0,68,292)"/><rect x="82" y="278" width="28" height="28" transform="rotate(0,96,292)"/><rect x="110" y="278" width="28" height="28" transform="rotate(0,124,292)"/><rect x="138" y="278" width="28" height="28" transform="rotate(0,152,292)"/><path d="M 278 278v 28h 14a 14 14, 0, 0, 0, 0 -28" transform="rotate(-90,292,292)"/><rect x="334" y="278" width="28" height="28" transform="rotate(0,348,292)"/><rect x="362" y="278" width="28" height="28" transform="rotate(0,376,292)"/><rect x="390" y="278" width="28" height="28" transform="rotate(0,404,292)"/><rect x="418" y="278" width="28" height="28" transform="rotate(0,432,292)"/><rect x="446" y="278" width="28" height="28" transform="rotate(0,460,292)"/><rect x="474" y="278" width="28" height="28" transform="rotate(0,488,292)"/><path d="M 502 278v 28h 14a 14 14, 0, 0, 0, 0 -28" transform="rotate(0,516,292)"/><circle cx="600" cy="292" r="14" transform="rotate(0,600,292)"/><path d="M 642 278v 28h 28v -14a 14 14, 0, 0, 0, -14 -14" transform="rotate(-90,656,292)"/><rect x="670" y="278" width="28" height="28" transform="rotate(0,684,292)"/><rect x="698" y="278" width="28" height="28" transform="rotate(0,712,292)"/><rect x="810" y="278" width="28" height="28" transform="rotate(0,824,292)"/><path d="M 894 278v 28h 14a 14 14, 0, 0, 0, 0 -28" transform="rotate(180,908,292)"/><rect x="922" y="278" width="28" height="28" transform="rotate(0,936,292)"/><rect x="950" y="278" width="28" height="28" transform="rotate(0,964,292)"/><rect x="978" y="278" width="28" height="28" transform="rotate(0,992,292)"/><rect x="1006" y="278" width="28" height="28" transform="rotate(0,1020,292)"/><rect x="1034" y="278" width="28" height="28" transform="rotate(0,1048,292)"/><path d="M 1090 278v 28h 14a 14 14, 0, 0, 0, 0 -28" transform="rotate(180,1104,292)"/><rect x="1118" y="278" width="28" height="28" transform="rotate(0,1132,292)"/><path d="M 1146 278v 28h 28v -14a 14 14, 0, 0, 0, -14 -14" transform="rotate(90,1160,292)"/><rect x="26" y="306" width="28" height="28" transform="rotate(0,40,320)"/><rect x="82" y="306" width="28" height="28" transform="rotate(0,96,320)"/><path d="M 138 306v 28h 14a 14 14, 0, 0, 0, 0 -28" transform="rotate(90,152,320)"/><path d="M 194 306v 28h 14a 14 14, 0, 0, 0, 0 -28" transform="rotate(180,208,320)"/><rect x="222" y="306" width="28" height="28" transform="rotate(0,236,320)"/><rect x="250" y="306" width="28" height="28" transform="rotate(0,264,320)"/><rect x="278" y="306" width="28" height="28" transform="rotate(0,292,320)"/><rect x="306" y="306" width="28" height="28" transform="rotate(0,320,320)"/><rect x="334" y="306" width="28" height="28" transform="rotate(0,348,320)"/><rect x="362" y="306" width="28" height="28" transform="rotate(0,376,320)"/><path d="M 418 306v 28h 28v -14a 14 14, 0, 0, 0, -14 -14" transform="rotate(180,432,320)"/><rect x="446" y="306" width="28" height="28" transform="rotate(0,460,320)"/><path d="M 614 306v 28h 28v -14a 14 14, 0, 0, 0, -14 -14" transform="rotate(-90,628,320)"/><rect x="642" y="306" width="28" height="28" transform="rotate(0,656,320)"/><path d="M 698 306v 28h 14a 14 14, 0, 0, 0, 0 -28" transform="rotate(90,712,320)"/><path d="M 754 306v 28h 14a 14 14, 0, 0, 0, 0 -28" transform="rotate(180,768,320)"/><rect x="782" y="306" width="28" height="28" transform="rotate(0,796,320)"/><rect x="810" y="306" width="28" height="28" transform="rotate(0,824,320)"/><rect x="838" y="306" width="28" height="28" transform="rotate(0,852,320)"/><path d="M 866 306v 28h 28v -14a 14 14, 0, 0, 0, -14 -14" transform="rotate(0,880,320)"/><rect x="922" y="306" width="28" height="28" transform="rotate(0,936,320)"/><rect x="950" y="306" width="28" height="28" transform="rotate(0,964,320)"/><path d="M 1006 306v 28h 28v -14a 14 14, 0, 0, 0, -14 -14" transform="rotate(180,1020,320)"/><rect x="1034" y="306" width="28" height="28" transform="rotate(0,1048,320)"/><path d="M 26 334v 28h 28v -14a 14 14, 0, 0, 0, -14 -14" transform="rotate(180,40,348)"/><rect x="54" y="334" width="28" height="28" transform="rotate(0,68,348)"/><rect x="82" y="334" width="28" height="28" transform="rotate(0,96,348)"/><path d="M 166 334v 28h 14a 14 14, 0, 0, 0, 0 -28" transform="rotate(-90,180,348)"/><path d="M 250 334v 28h 28v -14a 14 14, 0, 0, 0, -14 -14" transform="rotate(180,264,348)"/><path d="M 278 334v 28h 28v -14a 14 14, 0, 0, 0, -14 -14" transform="rotate(90,292,348)"/><path d="M 334 334v 28h 28v -14a 14 14, 0, 0, 0, -14 -14" transform="rotate(180,348,348)"/><path d="M 362 334v 28h 28v -14a 14 14, 0, 0, 0, -14 -14" transform="rotate(90,376,348)"/><rect x="446" y="334" width="28" height="28" transform="rotate(0,460,348)"/><path d="M 474 334v 28h 28v -14a 14 14, 0, 0, 0, -14 -14" transform="rotate(0,488,348)"/><path d="M 586 334v 28h 28v -14a 14 14, 0, 0, 0, -14 -14" transform="rotate(-90,600,348)"/><rect x="614" y="334" width="28" height="28" transform="rotate(0,628,348)"/><rect x="642" y="334" width="28" height="28" transform="rotate(0,656,348)"/><path d="M 670 334v 28h 14a 14 14, 0, 0, 0, 0 -28" transform="rotate(0,684,348)"/><rect x="782" y="334" width="28" height="28" transform="rotate(0,796,348)"/><path d="M 810 334v 28h 28v -14a 14 14, 0, 0, 0, -14 -14" transform="rotate(90,824,348)"/><path d="M 866 334v 28h 28v -14a 14 14, 0, 0, 0, -14 -14" transform="rotate(180,880,348)"/><rect x="894" y="334" width="28" height="28" transform="rotate(0,908,348)"/><rect x="922" y="334" width="28" height="28" transform="rotate(0,936,348)"/><rect x="950" y="334" width="28" height="28" transform="rotate(0,964,348)"/><path d="M 978 334v 28h 14a 14 14, 0, 0, 0, 0 -28" transform="rotate(0,992,348)"/><path d="M 1034 334v 28h 28v -14a 14 14, 0, 0, 0, -14 -14" transform="rotate(180,1048,348)"/><path d="M 1062 334v 28h 28v -14a 14 14, 0, 0, 0, -14 -14" transform="rotate(0,1076,348)"/><path d="M 1118 334v 28h 14a 14 14, 0, 0, 0, 0 -28" transform="rotate(180,1132,348)"/><path d="M 1146 334v 28h 14a 14 14, 0, 0, 0, 0 -28" transform="rotate(0,1160,348)"/><rect x="54" y="362" width="28" height="28" transform="rotate(0,68,376)"/><rect x="82" y="362" width="28" height="28" transform="rotate(0,96,376)"/><path d="M 166 362v 28h 28v -14a 14 14, 0, 0, 0, -14 -14" transform="rotate(180,180,376)"/><rect x="194" y="362" width="28" height="28" transform="rotate(0,208,376)"/><path d="M 222 362v 28h 14a 14 14, 0, 0, 0, 0 -28" transform="rotate(0,236,376)"/><path d="M 390 362v 28h 28v -14a 14 14, 0, 0, 0, -14 -14" transform="rotate(-90,404,376)"/><rect x="418" y="362" width="28" height="28" transform="rotate(0,432,376)"/><rect x="446" y="362" width="28" height="28" transform="rotate(0,460,376)"/><rect x="474" y="362" width="28" height="28" transform="rotate(0,488,376)"/><rect x="502" y="362" width="28" height="28" transform="rotate(0,516,376)"/><rect x="530" y="362" width="28" height="28" transform="rotate(0,544,376)"/><rect x="558" y="362" width="28" height="28" transform="rotate(0,572,376)"/><path d="M 586 362v 28h 28v -14a 14 14, 0, 0, 0, -14 -14" transform="rotate(90,600,376)"/><path d="M 642 362v 28h 14a 14 14, 0, 0, 0, 0 -28" transform="rotate(90,656,376)"/><path d="M 698 362v 28h 14a 14 14, 0, 0, 0, 0 -28" transform="rotate(180,712,376)"/><path d="M 726 362v 28h 14a 14 14, 0, 0, 0, 0 -28" transform="rotate(0,740,376)"/><rect x="782" y="362" width="28" height="28" transform="rotate(0,796,376)"/><circle cx="852" cy="376" r="14" transform="rotate(0,852,376)"/><rect x="894" y="362" width="28" height="28" transform="rotate(0,908,376)"/><path d="M 1062 362v 28h 28v -14a 14 14, 0, 0, 0, -14 -14" transform="rotate(180,1076,376)"/><path d="M 1090 362v 28h 14a 14 14, 0, 0, 0, 0 -28" transform="rotate(0,1104,376)"/><rect x="54" y="390" width="28" height="28" transform="rotate(0,68,404)"/><path d="M 82 390v 28h 28v -14a 14 14, 0, 0, 0, -14 -14" transform="rotate(90,96,404)"/><circle cx="152" cy="404" r="14" transform="rotate(0,152,404)"/><path d="M 250 390v 28h 14a 14 14, 0, 0, 0, 0 -28" transform="rotate(180,264,404)"/><path d="M 278 390v 28h 14a 14 14, 0, 0, 0, 0 -28" transform="rotate(0,292,404)"/><path d="M 334 390v 28h 28v -14a 14 14, 0, 0, 0, -14 -14" transform="rotate(-90,348,404)"/><rect x="362" y="390" width="28" height="28" transform="rotate(0,376,404)"/><path d="M 390 390v 28h 28v -14a 14 14, 0, 0, 0, -14 -14" transform="rotate(90,404,404)"/><path d="M 446 390v 28h 28v -14a 14 14, 0, 0, 0, -14 -14" transform="rotate(180,460,404)"/><path d="M 474 390v 28h 28v -14a 14 14, 0, 0, 0, -14 -14" transform="rotate(90,488,404)"/><path d="M 614 390v 28h 14a 14 14, 0, 0, 0, 0 -28" transform="rotate(-90,628,404)"/><rect x="782" y="390" width="28" height="28" transform="rotate(0,796,404)"/><path d="M 894 390v 28h 28v -14a 14 14, 0, 0, 0, -14 -14" transform="rotate(180,908,404)"/><rect x="922" y="390" width="28" height="28" transform="rotate(0,936,404)"/><rect x="950" y="390" width="28" height="28" transform="rotate(0,964,404)"/><rect x="978" y="390" width="28" height="28" transform="rotate(0,992,404)"/><rect x="1006" y="390" width="28" height="28" transform="rotate(0,1020,404)"/><path d="M 1034 390v 28h 14a 14 14, 0, 0, 0, 0 -28" transform="rotate(0,1048,404)"/><path d="M 1118 390v 28h 14a 14 14, 0, 0, 0, 0 -28" transform="rotate(180,1132,404)"/><path d="M 1146 390v 28h 14a 14 14, 0, 0, 0, 0 -28" transform="rotate(0,1160,404)"/><path d="M 26 418v 28h 28v -14a 14 14, 0, 0, 0, -14 -14" transform="rotate(-90,40,432)"/><rect x="54" y="418" width="28" height="28" transform="rotate(0,68,432)"/><circle cx="124" cy="432" r="14" transform="rotate(0,124,432)"/><path d="M 194 418v 28h 14a 14 14, 0, 0, 0, 0 -28" transform="rotate(180,208,432)"/><path d="M 222 418v 28h 14a 14 14, 0, 0, 0, 0 -28" transform="rotate(0,236,432)"/><path d="M 306 418v 28h 28v -14a 14 14, 0, 0, 0, -14 -14" transform="rotate(-90,320,432)"/><rect x="334" y="418" width="28" height="28" transform="rotate(0,348,432)"/><path d="M 362 418v 28h 28v -14a 14 14, 0, 0, 0, -14 -14" transform="rotate(90,376,432)"/><circle cx="432" cy="432" r="14" transform="rotate(0,432,432)"/><path d="M 530 418v 28h 14a 14 14, 0, 0, 0, 0 -28" transform="rotate(180,544,432)"/><path d="M 558 418v 28h 28v -14a 14 14, 0, 0, 0, -14 -14" transform="rotate(0,572,432)"/><rect x="614" y="418" width="28" height="28" transform="rotate(0,628,432)"/><rect x="642" y="418" width="28" height="28" transform="rotate(0,656,432)"/><rect x="670" y="418" width="28" height="28" transform="rotate(0,684,432)"/><rect x="698" y="418" width="28" height="28" transform="rotate(0,712,432)"/><rect x="726" y="418" width="28" height="28" transform="rotate(0,740,432)"/><rect x="754" y="418" width="28" height="28" transform="rotate(0,768,432)"/><rect x="782" y="418" width="28" height="28" transform="rotate(0,796,432)"/><rect x="810" y="418" width="28" height="28" transform="rotate(0,824,432)"/><rect x="838" y="418" width="28" height="28" transform="rotate(0,852,432)"/><path d="M 866 418v 28h 28v -14a 14 14, 0, 0, 0, -14 -14" transform="rotate(0,880,432)"/><path d="M 950 418v 28h 14a 14 14, 0, 0, 0, 0 -28" transform="rotate(90,964,432)"/><rect x="1006" y="418" width="28" height="28" transform="rotate(0,1020,432)"/><path d="M 1062 418v 28h 28v -14a 14 14, 0, 0, 0, -14 -14" transform="rotate(-90,1076,432)"/><path d="M 1090 418v 28h 14a 14 14, 0, 0, 0, 0 -28" transform="rotate(0,1104,432)"/><path d="M 26 446v 28h 28v -14a 14 14, 0, 0, 0, -14 -14" transform="rotate(180,40,460)"/><path d="M 54 446v 28h 28v -14a 14 14, 0, 0, 0, -14 -14" transform="rotate(90,68,460)"/><path d="M 250 446v 28h 28v -14a 14 14, 0, 0, 0, -14 -14" transform="rotate(-90,264,460)"/><rect x="278" y="446" width="28" height="28" transform="rotate(0,292,460)"/><rect x="306" y="446" width="28" height="28" transform="rotate(0,320,460)"/><path d="M 334 446v 28h 28v -14a 14 14, 0, 0, 0, -14 -14" transform="rotate(90,348,460)"/><circle cx="404" cy="460" r="14" transform="rotate(0,404,460)"/><path d="M 502 446v 28h 14a 14 14, 0, 0, 0, 0 -28" transform="rotate(-90,516,460)"/><path d="M 558 446v 28h 14a 14 14, 0, 0, 0, 0 -28" transform="rotate(90,572,460)"/><rect x="614" y="446" width="28" height="28" transform="rotate(0,628,460)"/><rect x="670" y="446" width="28" height="28" transform="rotate(0,684,460)"/><rect x="782" y="446" width="28" height="28" transform="rotate(0,796,460)"/><path d="M 810 446v 28h 28v -14a 14 14, 0, 0, 0, -14 -14" transform="rotate(90,824,460)"/><path d="M 866 446v 28h 14a 14 14, 0, 0, 0, 0 -28" transform="rotate(90,880,460)"/><circle cx="936" cy="460" r="14" transform="rotate(0,936,460)"/><path d="M 978 446v 28h 14a 14 14, 0, 0, 0, 0 -28" transform="rotate(180,992,460)"/><rect x="1006" y="446" width="28" height="28" transform="rotate(0,1020,460)"/><path d="M 1062 446v 28h 14a 14 14, 0, 0, 0, 0 -28" transform="rotate(90,1076,460)"/><path d="M 1118 446v 28h 14a 14 14, 0, 0, 0, 0 -28" transform="rotate(180,1132,460)"/><path d="M 1146 446v 28h 14a 14 14, 0, 0, 0, 0 -28" transform="rotate(0,1160,460)"/><path d="M 82 474v 28h 14a 14 14, 0, 0, 0, 0 -28" transform="rotate(-90,96,488)"/><path d="M 166 474v 28h 14a 14 14, 0, 0, 0, 0 -28" transform="rotate(180,180,488)"/><path d="M 194 474v 28h 14a 14 14, 0, 0, 0, 0 -28" transform="rotate(0,208,488)"/><rect x="250" y="474" width="28" height="28" transform="rotate(0,264,488)"/><path d="M 306 474v 28h 14a 14 14, 0, 0, 0, 0 -28" transform="rotate(90,320,488)"/><path d="M 474 474v 28h 28v -14a 14 14, 0, 0, 0, -14 -14" transform="rotate(-90,488,488)"/><rect x="502" y="474" width="28" height="28" transform="rotate(0,516,488)"/><path d="M 530 474v 28h 14a 14 14, 0, 0, 0, 0 -28" transform="rotate(0,544,488)"/><rect x="614" y="474" width="28" height="28" transform="rotate(0,628,488)"/><rect x="642" y="474" width="28" height="28" transform="rotate(0,656,488)"/><rect x="670" y="474" width="28" height="28" transform="rotate(0,684,488)"/><rect x="698" y="474" width="28" height="28" transform="rotate(0,712,488)"/><rect x="726" y="474" width="28" height="28" transform="rotate(0,740,488)"/><rect x="754" y="474" width="28" height="28" transform="rotate(0,768,488)"/><path d="M 782 474v 28h 28v -14a 14 14, 0, 0, 0, -14 -14" transform="rotate(90,796,488)"/><path d="M 838 474v 28h 14a 14 14, 0, 0, 0, 0 -28" transform="rotate(-90,852,488)"/><circle cx="964" cy="488" r="14" transform="rotate(0,964,488)"/><rect x="1006" y="474" width="28" height="28" transform="rotate(0,1020,488)"/><circle cx="1104" cy="488" r="14" transform="rotate(0,1104,488)"/><path d="M 26 502v 28h 14a 14 14, 0, 0, 0, 0 -28" transform="rotate(-90,40,516)"/><path d="M 82 502v 28h 14a 14 14, 0, 0, 0, 0 -28" transform="rotate(90,96,516)"/><circle cx="152" cy="516" r="14" transform="rotate(0,152,516)"/><rect x="250" y="502" width="28" height="28" transform="rotate(0,264,516)"/><circle cx="348" cy="516" r="14" transform="rotate(0,348,516)"/><circle cx="432" cy="516" r="14" transform="rotate(0,432,516)"/><path d="M 474 502v 28h 28v -14a 14 14, 0, 0, 0, -14 -14" transform="rotate(180,488,516)"/><path d="M 502 502v 28h 28v -14a 14 14, 0, 0, 0, -14 -14" transform="rotate(90,516,516)"/><path d="M 586 502v 28h 28v -14a 14 14, 0, 0, 0, -14 -14" transform="rotate(-90,600,516)"/><path d="M 614 502v 28h 28v -14a 14 14, 0, 0, 0, -14 -14" transform="rotate(90,628,516)"/><path d="M 670 502v 28h 14a 14 14, 0, 0, 0, 0 -28" transform="rotate(90,684,516)"/><path d="M 838 502v 28h 14a 14 14, 0, 0, 0, 0 -28" transform="rotate(90,852,516)"/><path d="M 894 502v 28h 14a 14 14, 0, 0, 0, 0 -28" transform="rotate(180,908,516)"/><path d="M 922 502v 28h 14a 14 14, 0, 0, 0, 0 -28" transform="rotate(0,936,516)"/><path d="M 978 502v 28h 28v -14a 14 14, 0, 0, 0, -14 -14" transform="rotate(-90,992,516)"/><rect x="1006" y="502" width="28" height="28" transform="rotate(0,1020,516)"/><rect x="1034" y="502" width="28" height="28" transform="rotate(0,1048,516)"/><path d="M 1062 502v 28h 28v -14a 14 14, 0, 0, 0, -14 -14" transform="rotate(0,1076,516)"/><path d="M 1118 502v 28h 14a 14 14, 0, 0, 0, 0 -28" transform="rotate(180,1132,516)"/><path d="M 1146 502v 28h 14a 14 14, 0, 0, 0, 0 -28" transform="rotate(0,1160,516)"/><rect x="26" y="530" width="28" height="28" transform="rotate(0,40,544)"/><path d="M 54 530v 28h 28v -14a 14 14, 0, 0, 0, -14 -14" transform="rotate(0,68,544)"/><path d="M 110 530v 28h 14a 14 14, 0, 0, 0, 0 -28" transform="rotate(-90,124,544)"/><path d="M 166 530v 28h 28v -14a 14 14, 0, 0, 0, -14 -14" transform="rotate(-90,180,544)"/><rect x="194" y="530" width="28" height="28" transform="rotate(0,208,544)"/><rect x="222" y="530" width="28" height="28" transform="rotate(0,236,544)"/><rect x="250" y="530" width="28" height="28" transform="rotate(0,264,544)"/><rect x="278" y="530" width="28" height="28" transform="rotate(0,292,544)"/><path d="M 306 530v 28h 28v -14a 14 14, 0, 0, 0, -14 -14" transform="rotate(0,320,544)"/><path d="M 362 530v 28h 14a 14 14, 0, 0, 0, 0 -28" transform="rotate(180,376,544)"/><path d="M 390 530v 28h 28v -14a 14 14, 0, 0, 0, -14 -14" transform="rotate(0,404,544)"/><path d="M 530 530v 28h 14a 14 14, 0, 0, 0, 0 -28" transform="rotate(-90,544,544)"/><path d="M 586 530v 28h 14a 14 14, 0, 0, 0, 0 -28" transform="rotate(90,600,544)"/><circle cx="656" cy="544" r="14" transform="rotate(0,656,544)"/><circle cx="796" cy="544" r="14" transform="rotate(0,796,544)"/><path d="M 950 530v 28h 14a 14 14, 0, 0, 0, 0 -28" transform="rotate(180,964,544)"/><path d="M 978 530v 28h 28v -14a 14 14, 0, 0, 0, -14 -14" transform="rotate(90,992,544)"/><rect x="1034" y="530" width="28" height="28" transform="rotate(0,1048,544)"/><rect x="1062" y="530" width="28" height="28" transform="rotate(0,1076,544)"/><path d="M 26 558v 28h 28v -14a 14 14, 0, 0, 0, -14 -14" transform="rotate(180,40,572)"/><rect x="54" y="558" width="28" height="28" transform="rotate(0,68,572)"/><rect x="82" y="558" width="28" height="28" transform="rotate(0,96,572)"/><path d="M 110 558v 28h 28v -14a 14 14, 0, 0, 0, -14 -14" transform="rotate(90,124,572)"/><rect x="166" y="558" width="28" height="28" transform="rotate(0,180,572)"/><path d="M 250 558v 28h 28v -14a 14 14, 0, 0, 0, -14 -14" transform="rotate(180,264,572)"/><rect x="278" y="558" width="28" height="28" transform="rotate(0,292,572)"/><rect x="306" y="558" width="28" height="28" transform="rotate(0,320,572)"/><path d="M 334 558v 28h 14a 14 14, 0, 0, 0, 0 -28" transform="rotate(0,348,572)"/><rect x="390" y="558" width="28" height="28" transform="rotate(0,404,572)"/><path d="M 530 558v 28h 28v -14a 14 14, 0, 0, 0, -14 -14" transform="rotate(180,544,572)"/><path d="M 558 558v 28h 14a 14 14, 0, 0, 0, 0 -28" transform="rotate(0,572,572)"/><path d="M 698 558v 28h 14a 14 14, 0, 0, 0, 0 -28" transform="rotate(-90,712,572)"/><circle cx="768" cy="572" r="14" transform="rotate(0,768,572)"/><circle cx="880" cy="572" r="14" transform="rotate(0,880,572)"/><path d="M 1034 558v 28h 28v -14a 14 14, 0, 0, 0, -14 -14" transform="rotate(180,1048,572)"/><rect x="1062" y="558" width="28" height="28" transform="rotate(0,1076,572)"/><path d="M 1118 558v 28h 14a 14 14, 0, 0, 0, 0 -28" transform="rotate(180,1132,572)"/><path d="M 1146 558v 28h 28v -14a 14 14, 0, 0, 0, -14 -14" transform="rotate(0,1160,572)"/><path d="M 138 586v 28h 14a 14 14, 0, 0, 0, 0 -28" transform="rotate(180,152,600)"/><rect x="166" y="586" width="28" height="28" transform="rotate(0,180,600)"/><rect x="194" y="586" width="28" height="28" transform="rotate(0,208,600)"/><path d="M 222 586v 28h 28v -14a 14 14, 0, 0, 0, -14 -14" transform="rotate(0,236,600)"/><rect x="306" y="586" width="28" height="28" transform="rotate(0,320,600)"/><path d="M 362 586v 28h 14a 14 14, 0, 0, 0, 0 -28" transform="rotate(180,376,600)"/><path d="M 390 586v 28h 28v -14a 14 14, 0, 0, 0, -14 -14" transform="rotate(90,404,600)"/><circle cx="460" cy="600" r="14" transform="rotate(0,460,600)"/><circle cx="516" cy="600" r="14" transform="rotate(0,516,600)"/><path d="M 614 586v 28h 14a 14 14, 0, 0, 0, 0 -28" transform="rotate(180,628,600)"/><rect x="642" y="586" width="28" height="28" transform="rotate(0,656,600)"/><rect x="670" y="586" width="28" height="28" transform="rotate(0,684,600)"/><path d="M 698 586v 28h 28v -14a 14 14, 0, 0, 0, -14 -14" transform="rotate(90,712,600)"/><path d="M 782 586v 28h 14a 14 14, 0, 0, 0, 0 -28" transform="rotate(180,796,600)"/><rect x="810" y="586" width="28" height="28" transform="rotate(0,824,600)"/><path d="M 838 586v 28h 14a 14 14, 0, 0, 0, 0 -28" transform="rotate(0,852,600)"/><path d="M 894 586v 28h 14a 14 14, 0, 0, 0, 0 -28" transform="rotate(-90,908,600)"/><path d="M 1006 586v 28h 14a 14 14, 0, 0, 0, 0 -28" transform="rotate(-90,1020,600)"/><path d="M 1062 586v 28h 28v -14a 14 14, 0, 0, 0, -14 -14" transform="rotate(180,1076,600)"/><path d="M 1090 586v 28h 28v -14a 14 14, 0, 0, 0, -14 -14" transform="rotate(0,1104,600)"/><rect x="1146" y="586" width="28" height="28" transform="rotate(0,1160,600)"/><path d="M 54 614v 28h 14a 14 14, 0, 0, 0, 0 -28" transform="rotate(180,68,628)"/><rect x="82" y="614" width="28" height="28" transform="rotate(0,96,628)"/><path d="M 110 614v 28h 14a 14 14, 0, 0, 0, 0 -28" transform="rotate(0,124,628)"/><rect x="166" y="614" width="28" height="28" transform="rotate(0,180,628)"/><rect x="222" y="614" width="28" height="28" transform="rotate(0,236,628)"/><rect x="306" y="614" width="28" height="28" transform="rotate(0,320,628)"/><path d="M 474 614v 28h 14a 14 14, 0, 0, 0, 0 -28" transform="rotate(-90,488,628)"/><path d="M 530 614v 28h 28v -14a 14 14, 0, 0, 0, -14 -14" transform="rotate(-90,544,628)"/><path d="M 558 614v 28h 28v -14a 14 14, 0, 0, 0, -14 -14" transform="rotate(0,572,628)"/><rect x="642" y="614" width="28" height="28" transform="rotate(0,656,628)"/><path d="M 670 614v 28h 28v -14a 14 14, 0, 0, 0, -14 -14" transform="rotate(90,684,628)"/><path d="M 754 614v 28h 14a 14 14, 0, 0, 0, 0 -28" transform="rotate(-90,768,628)"/><rect x="810" y="614" width="28" height="28" transform="rotate(0,824,628)"/><path d="M 894 614v 28h 28v -14a 14 14, 0, 0, 0, -14 -14" transform="rotate(180,908,628)"/><rect x="922" y="614" width="28" height="28" transform="rotate(0,936,628)"/><rect x="950" y="614" width="28" height="28" transform="rotate(0,964,628)"/><rect x="978" y="614" width="28" height="28" transform="rotate(0,992,628)"/><rect x="1006" y="614" width="28" height="28" transform="rotate(0,1020,628)"/><path d="M 1034 614v 28h 28v -14a 14 14, 0, 0, 0, -14 -14" transform="rotate(0,1048,628)"/><path d="M 1090 614v 28h 28v -14a 14 14, 0, 0, 0, -14 -14" transform="rotate(180,1104,628)"/><rect x="1118" y="614" width="28" height="28" transform="rotate(0,1132,628)"/><path d="M 1146 614v 28h 28v -14a 14 14, 0, 0, 0, -14 -14" transform="rotate(90,1160,628)"/><path d="M 26 642v 28h 14a 14 14, 0, 0, 0, 0 -28" transform="rotate(-90,40,656)"/><rect x="82" y="642" width="28" height="28" transform="rotate(0,96,656)"/><rect x="166" y="642" width="28" height="28" transform="rotate(0,180,656)"/><rect x="194" y="642" width="28" height="28" transform="rotate(0,208,656)"/><rect x="222" y="642" width="28" height="28" transform="rotate(0,236,656)"/><path d="M 306 642v 28h 14a 14 14, 0, 0, 0, 0 -28" transform="rotate(90,320,656)"/><path d="M 446 642v 28h 14a 14 14, 0, 0, 0, 0 -28" transform="rotate(180,460,656)"/><rect x="474" y="642" width="28" height="28" transform="rotate(0,488,656)"/><rect x="502" y="642" width="28" height="28" transform="rotate(0,516,656)"/><rect x="530" y="642" width="28" height="28" transform="rotate(0,544,656)"/><rect x="558" y="642" width="28" height="28" transform="rotate(0,572,656)"/><rect x="586" y="642" width="28" height="28" transform="rotate(0,600,656)"/><rect x="614" y="642" width="28" height="28" transform="rotate(0,628,656)"/><rect x="642" y="642" width="28" height="28" transform="rotate(0,656,656)"/><circle cx="712" cy="656" r="14" transform="rotate(0,712,656)"/><rect x="754" y="642" width="28" height="28" transform="rotate(0,768,656)"/><rect x="782" y="642" width="28" height="28" transform="rotate(0,796,656)"/><path d="M 810 642v 28h 28v -14a 14 14, 0, 0, 0, -14 -14" transform="rotate(90,824,656)"/><path d="M 922 642v 28h 14a 14 14, 0, 0, 0, 0 -28" transform="rotate(90,936,656)"/><path d="M 978 642v 28h 28v -14a 14 14, 0, 0, 0, -14 -14" transform="rotate(180,992,656)"/><rect x="1006" y="642" width="28" height="28" transform="rotate(0,1020,656)"/><rect x="1034" y="642" width="28" height="28" transform="rotate(0,1048,656)"/><path d="M 1062 642v 28h 28v -14a 14 14, 0, 0, 0, -14 -14" transform="rotate(0,1076,656)"/><path d="M 26 670v 28h 14a 14 14, 0, 0, 0, 0 -28" transform="rotate(90,40,684)"/><path d="M 82 670v 28h 28v -14a 14 14, 0, 0, 0, -14 -14" transform="rotate(180,96,684)"/><rect x="110" y="670" width="28" height="28" transform="rotate(0,124,684)"/><rect x="138" y="670" width="28" height="28" transform="rotate(0,152,684)"/><rect x="166" y="670" width="28" height="28" transform="rotate(0,180,684)"/><rect x="222" y="670" width="28" height="28" transform="rotate(0,236,684)"/><path d="M 250 670v 28h 28v -14a 14 14, 0, 0, 0, -14 -14" transform="rotate(0,264,684)"/><path d="M 362 670v 28h 28v -14a 14 14, 0, 0, 0, -14 -14" transform="rotate(-90,376,684)"/><rect x="390" y="670" width="28" height="28" transform="rotate(0,404,684)"/><path d="M 418 670v 28h 28v -14a 14 14, 0, 0, 0, -14 -14" transform="rotate(0,432,684)"/><rect x="474" y="670" width="28" height="28" transform="rotate(0,488,684)"/><rect x="530" y="670" width="28" height="28" transform="rotate(0,544,684)"/><rect x="558" y="670" width="28" height="28" transform="rotate(0,572,684)"/><rect x="642" y="670" width="28" height="28" transform="rotate(0,656,684)"/><path d="M 670 670v 28h 28v -14a 14 14, 0, 0, 0, -14 -14" transform="rotate(0,684,684)"/><rect x="754" y="670" width="28" height="28" transform="rotate(0,768,684)"/><rect x="782" y="670" width="28" height="28" transform="rotate(0,796,684)"/><circle cx="908" cy="684" r="14" transform="rotate(0,908,684)"/><path d="M 950 670v 28h 14a 14 14, 0, 0, 0, 0 -28" transform="rotate(-90,964,684)"/><path d="M 1006 670v 28h 28v -14a 14 14, 0, 0, 0, -14 -14" transform="rotate(180,1020,684)"/><rect x="1034" y="670" width="28" height="28" transform="rotate(0,1048,684)"/><path d="M 1062 670v 28h 28v -14a 14 14, 0, 0, 0, -14 -14" transform="rotate(90,1076,684)"/><path d="M 166 698v 28h 28v -14a 14 14, 0, 0, 0, -14 -14" transform="rotate(180,180,712)"/><rect x="194" y="698" width="28" height="28" transform="rotate(0,208,712)"/><rect x="222" y="698" width="28" height="28" transform="rotate(0,236,712)"/><path d="M 250 698v 28h 28v -14a 14 14, 0, 0, 0, -14 -14" transform="rotate(90,264,712)"/><path d="M 306 698v 28h 28v -14a 14 14, 0, 0, 0, -14 -14" transform="rotate(-90,320,712)"/><rect x="334" y="698" width="28" height="28" transform="rotate(0,348,712)"/><rect x="362" y="698" width="28" height="28" transform="rotate(0,376,712)"/><rect x="418" y="698" width="28" height="28" transform="rotate(0,432,712)"/><rect x="474" y="698" width="28" height="28" transform="rotate(0,488,712)"/><rect x="502" y="698" width="28" height="28" transform="rotate(0,516,712)"/><rect x="530" y="698" width="28" height="28" transform="rotate(0,544,712)"/><rect x="558" y="698" width="28" height="28" transform="rotate(0,572,712)"/><rect x="586" y="698" width="28" height="28" transform="rotate(0,600,712)"/><rect x="614" y="698" width="28" height="28" transform="rotate(0,628,712)"/><rect x="642" y="698" width="28" height="28" transform="rotate(0,656,712)"/><rect x="670" y="698" width="28" height="28" transform="rotate(0,684,712)"/><path d="M 726 698v 28h 28v -14a 14 14, 0, 0, 0, -14 -14" transform="rotate(-90,740,712)"/><rect x="754" y="698" width="28" height="28" transform="rotate(0,768,712)"/><rect x="782" y="698" width="28" height="28" transform="rotate(0,796,712)"/><rect x="810" y="698" width="28" height="28" transform="rotate(0,824,712)"/><path d="M 838 698v 28h 14a 14 14, 0, 0, 0, 0 -28" transform="rotate(0,852,712)"/><rect x="950" y="698" width="28" height="28" transform="rotate(0,964,712)"/><circle cx="1104" cy="712" r="14" transform="rotate(0,1104,712)"/><path d="M 54 726v 28h 28v -14a 14 14, 0, 0, 0, -14 -14" transform="rotate(-90,68,740)"/><rect x="82" y="726" width="28" height="28" transform="rotate(0,96,740)"/><path d="M 110 726v 28h 14a 14 14, 0, 0, 0, 0 -28" transform="rotate(0,124,740)"/><path d="M 278 726v 28h 28v -14a 14 14, 0, 0, 0, -14 -14" transform="rotate(-90,292,740)"/><rect x="306" y="726" width="28" height="28" transform="rotate(0,320,740)"/><path d="M 362 726v 28h 14a 14 14, 0, 0, 0, 0 -28" transform="rotate(90,376,740)"/><path d="M 418 726v 28h 28v -14a 14 14, 0, 0, 0, -14 -14" transform="rotate(180,432,740)"/><rect x="446" y="726" width="28" height="28" transform="rotate(0,460,740)"/><rect x="474" y="726" width="28" height="28" transform="rotate(0,488,740)"/><rect x="558" y="726" width="28" height="28" transform="rotate(0,572,740)"/><path d="M 614 726v 28h 14a 14 14, 0, 0, 0, 0 -28" transform="rotate(90,628,740)"/><path d="M 670 726v 28h 14a 14 14, 0, 0, 0, 0 -28" transform="rotate(90,684,740)"/><path d="M 726 726v 28h 14a 14 14, 0, 0, 0, 0 -28" transform="rotate(90,740,740)"/><path d="M 810 726v 28h 14a 14 14, 0, 0, 0, 0 -28" transform="rotate(90,824,740)"/><path d="M 866 726v 28h 14a 14 14, 0, 0, 0, 0 -28" transform="rotate(180,880,740)"/><path d="M 894 726v 28h 14a 14 14, 0, 0, 0, 0 -28" transform="rotate(0,908,740)"/><path d="M 950 726v 28h 28v -14a 14 14, 0, 0, 0, -14 -14" transform="rotate(180,964,740)"/><rect x="978" y="726" width="28" height="28" transform="rotate(0,992,740)"/><rect x="1006" y="726" width="28" height="28" transform="rotate(0,1020,740)"/><rect x="1034" y="726" width="28" height="28" transform="rotate(0,1048,740)"/><path d="M 1062 726v 28h 14a 14 14, 0, 0, 0, 0 -28" transform="rotate(0,1076,740)"/><path d="M 1118 726v 28h 14a 14 14, 0, 0, 0, 0 -28" transform="rotate(180,1132,740)"/><path d="M 1146 726v 28h 14a 14 14, 0, 0, 0, 0 -28" transform="rotate(0,1160,740)"/><path d="M 26 754v 28h 28v -14a 14 14, 0, 0, 0, -14 -14" transform="rotate(-90,40,768)"/><rect x="54" y="754" width="28" height="28" transform="rotate(0,68,768)"/><rect x="82" y="754" width="28" height="28" transform="rotate(0,96,768)"/><path d="M 166 754v 28h 28v -14a 14 14, 0, 0, 0, -14 -14" transform="rotate(-90,180,768)"/><path d="M 194 754v 28h 14a 14 14, 0, 0, 0, 0 -28" transform="rotate(0,208,768)"/><path d="M 278 754v 28h 28v -14a 14 14, 0, 0, 0, -14 -14" transform="rotate(180,292,768)"/><rect x="306" y="754" width="28" height="28" transform="rotate(0,320,768)"/><path d="M 334 754v 28h 14a 14 14, 0, 0, 0, 0 -28" transform="rotate(0,348,768)"/><path d="M 390 754v 28h 14a 14 14, 0, 0, 0, 0 -28" transform="rotate(-90,404,768)"/><path d="M 446 754v 28h 28v -14a 14 14, 0, 0, 0, -14 -14" transform="rotate(180,460,768)"/><rect x="474" y="754" width="28" height="28" transform="rotate(0,488,768)"/><path d="M 502 754v 28h 14a 14 14, 0, 0, 0, 0 -28" transform="rotate(0,516,768)"/><rect x="558" y="754" width="28" height="28" transform="rotate(0,572,768)"/><circle cx="656" cy="768" r="14" transform="rotate(0,656,768)"/><circle cx="712" cy="768" r="14" transform="rotate(0,712,768)"/><path d="M 754 754v 28h 28v -14a 14 14, 0, 0, 0, -14 -14" transform="rotate(-90,768,768)"/><path d="M 782 754v 28h 28v -14a 14 14, 0, 0, 0, -14 -14" transform="rotate(0,796,768)"/><path d="M 922 754v 28h 14a 14 14, 0, 0, 0, 0 -28" transform="rotate(-90,936,768)"/><path d="M 1006 754v 28h 14a 14 14, 0, 0, 0, 0 -28" transform="rotate(90,1020,768)"/><path d="M 26 782v 28h 14a 14 14, 0, 0, 0, 0 -28" transform="rotate(90,40,796)"/><path d="M 82 782v 28h 14a 14 14, 0, 0, 0, 0 -28" transform="rotate(90,96,796)"/><path d="M 166 782v 28h 14a 14 14, 0, 0, 0, 0 -28" transform="rotate(90,180,796)"/><path d="M 362 782v 28h 14a 14 14, 0, 0, 0, 0 -28" transform="rotate(180,376,796)"/><rect x="390" y="782" width="28" height="28" transform="rotate(0,404,796)"/><path d="M 418 782v 28h 14a 14 14, 0, 0, 0, 0 -28" transform="rotate(0,432,796)"/><rect x="558" y="782" width="28" height="28" transform="rotate(0,572,796)"/><rect x="754" y="782" width="28" height="28" transform="rotate(0,768,796)"/><rect x="782" y="782" width="28" height="28" transform="rotate(0,796,796)"/><path d="M 810 782v 28h 14a 14 14, 0, 0, 0, 0 -28" transform="rotate(0,824,796)"/><path d="M 866 782v 28h 14a 14 14, 0, 0, 0, 0 -28" transform="rotate(180,880,796)"/><rect x="894" y="782" width="28" height="28" transform="rotate(0,908,796)"/><path d="M 922 782v 28h 28v -14a 14 14, 0, 0, 0, -14 -14" transform="rotate(90,936,796)"/><path d="M 1034 782v 28h 14a 14 14, 0, 0, 0, 0 -28" transform="rotate(180,1048,796)"/><path d="M 1062 782v 28h 28v -14a 14 14, 0, 0, 0, -14 -14" transform="rotate(0,1076,796)"/><circle cx="1132" cy="796" r="14" transform="rotate(0,1132,796)"/><path d="M 194 810v 28h 14a 14 14, 0, 0, 0, 0 -28" transform="rotate(180,208,824)"/><path d="M 222 810v 28h 14a 14 14, 0, 0, 0, 0 -28" transform="rotate(0,236,824)"/><path d="M 390 810v 28h 14a 14 14, 0, 0, 0, 0 -28" transform="rotate(90,404,824)"/><path d="M 446 810v 28h 14a 14 14, 0, 0, 0, 0 -28" transform="rotate(180,460,824)"/><path d="M 474 810v 28h 28v -14a 14 14, 0, 0, 0, -14 -14" transform="rotate(0,488,824)"/><path d="M 530 810v 28h 28v -14a 14 14, 0, 0, 0, -14 -14" transform="rotate(-90,544,824)"/><rect x="558" y="810" width="28" height="28" transform="rotate(0,572,824)"/><path d="M 586 810v 28h 14a 14 14, 0, 0, 0, 0 -28" transform="rotate(0,600,824)"/><circle cx="684" cy="824" r="14" transform="rotate(0,684,824)"/><path d="M 726 810v 28h 28v -14a 14 14, 0, 0, 0, -14 -14" transform="rotate(-90,740,824)"/><rect x="754" y="810" width="28" height="28" transform="rotate(0,768,824)"/><path d="M 782 810v 28h 28v -14a 14 14, 0, 0, 0, -14 -14" transform="rotate(90,796,824)"/><circle cx="852" cy="824" r="14" transform="rotate(0,852,824)"/><rect x="894" y="810" width="28" height="28" transform="rotate(0,908,824)"/><path d="M 950 810v 28h 14a 14 14, 0, 0, 0, 0 -28" transform="rotate(-90,964,824)"/><rect x="1062" y="810" width="28" height="28" transform="rotate(0,1076,824)"/><path d="M 1090 810v 28h 28v -14a 14 14, 0, 0, 0, -14 -14" transform="rotate(0,1104,824)"/><path d="M 1146 810v 28h 14a 14 14, 0, 0, 0, 0 -28" transform="rotate(-90,1160,824)"/><path d="M 26 838v 28h 28v -14a 14 14, 0, 0, 0, -14 -14" transform="rotate(-90,40,852)"/><path d="M 54 838v 28h 14a 14 14, 0, 0, 0, 0 -28" transform="rotate(0,68,852)"/><path d="M 138 838v 28h 14a 14 14, 0, 0, 0, 0 -28" transform="rotate(180,152,852)"/><path d="M 166 838v 28h 28v -14a 14 14, 0, 0, 0, -14 -14" transform="rotate(0,180,852)"/><path d="M 278 838v 28h 14a 14 14, 0, 0, 0, 0 -28" transform="rotate(180,292,852)"/><rect x="306" y="838" width="28" height="28" transform="rotate(0,320,852)"/><rect x="334" y="838" width="28" height="28" transform="rotate(0,348,852)"/><path d="M 362 838v 28h 28v -14a 14 14, 0, 0, 0, -14 -14" transform="rotate(0,376,852)"/><path d="M 474 838v 28h 14a 14 14, 0, 0, 0, 0 -28" transform="rotate(90,488,852)"/><rect x="530" y="838" width="28" height="28" transform="rotate(0,544,852)"/><rect x="558" y="838" width="28" height="28" transform="rotate(0,572,852)"/><path d="M 614 838v 28h 14a 14 14, 0, 0, 0, 0 -28" transform="rotate(180,628,852)"/><path d="M 642 838v 28h 14a 14 14, 0, 0, 0, 0 -28" transform="rotate(0,656,852)"/><path d="M 698 838v 28h 14a 14 14, 0, 0, 0, 0 -28" transform="rotate(180,712,852)"/><rect x="726" y="838" width="28" height="28" transform="rotate(0,740,852)"/><path d="M 754 838v 28h 28v -14a 14 14, 0, 0, 0, -14 -14" transform="rotate(90,768,852)"/><circle cx="824" cy="852" r="14" transform="rotate(0,824,852)"/><path d="M 866 838v 28h 28v -14a 14 14, 0, 0, 0, -14 -14" transform="rotate(-90,880,852)"/><rect x="894" y="838" width="28" height="28" transform="rotate(0,908,852)"/><rect x="922" y="838" width="28" height="28" transform="rotate(0,936,852)"/><rect x="950" y="838" width="28" height="28" transform="rotate(0,964,852)"/><path d="M 978 838v 28h 28v -14a 14 14, 0, 0, 0, -14 -14" transform="rotate(0,992,852)"/><path d="M 1034 838v 28h 28v -14a 14 14, 0, 0, 0, -14 -14" transform="rotate(-90,1048,852)"/><rect x="1062" y="838" width="28" height="28" transform="rotate(0,1076,852)"/><rect x="1090" y="838" width="28" height="28" transform="rotate(0,1104,852)"/><path d="M 1146 838v 28h 14a 14 14, 0, 0, 0, 0 -28" transform="rotate(90,1160,852)"/><rect x="26" y="866" width="28" height="28" transform="rotate(0,40,880)"/><path d="M 166 866v 28h 28v -14a 14 14, 0, 0, 0, -14 -14" transform="rotate(180,180,880)"/><rect x="194" y="866" width="28" height="28" transform="rotate(0,208,880)"/><path d="M 222 866v 28h 14a 14 14, 0, 0, 0, 0 -28" transform="rotate(0,236,880)"/><rect x="306" y="866" width="28" height="28" transform="rotate(0,320,880)"/><rect x="334" y="866" width="28" height="28" transform="rotate(0,348,880)"/><path d="M 362 866v 28h 28v -14a 14 14, 0, 0, 0, -14 -14" transform="rotate(90,376,880)"/><circle cx="432" cy="880" r="14" transform="rotate(0,432,880)"/><path d="M 502 866v 28h 28v -14a 14 14, 0, 0, 0, -14 -14" transform="rotate(-90,516,880)"/><rect x="530" y="866" width="28" height="28" transform="rotate(0,544,880)"/><rect x="558" y="866" width="28" height="28" transform="rotate(0,572,880)"/><path d="M 782 866v 28h 14a 14 14, 0, 0, 0, 0 -28" transform="rotate(-90,796,880)"/><path d="M 838 866v 28h 14a 14 14, 0, 0, 0, 0 -28" transform="rotate(180,852,880)"/><rect x="866" y="866" width="28" height="28" transform="rotate(0,880,880)"/><rect x="922" y="866" width="28" height="28" transform="rotate(0,936,880)"/><rect x="950" y="866" width="28" height="28" transform="rotate(0,964,880)"/><rect x="978" y="866" width="28" height="28" transform="rotate(0,992,880)"/><rect x="1006" y="866" width="28" height="28" transform="rotate(0,1020,880)"/><rect x="1034" y="866" width="28" height="28" transform="rotate(0,1048,880)"/><rect x="1062" y="866" width="28" height="28" transform="rotate(0,1076,880)"/><path d="M 1090 866v 28h 28v -14a 14 14, 0, 0, 0, -14 -14" transform="rotate(90,1104,880)"/><rect x="26" y="894" width="28" height="28" transform="rotate(0,40,908)"/><path d="M 82 894v 28h 28v -14a 14 14, 0, 0, 0, -14 -14" transform="rotate(-90,96,908)"/><rect x="110" y="894" width="28" height="28" transform="rotate(0,124,908)"/><path d="M 138 894v 28h 28v -14a 14 14, 0, 0, 0, -14 -14" transform="rotate(0,152,908)"/><path d="M 250 894v 28h 28v -14a 14 14, 0, 0, 0, -14 -14" transform="rotate(-90,264,908)"/><rect x="278" y="894" width="28" height="28" transform="rotate(0,292,908)"/><rect x="306" y="894" width="28" height="28" transform="rotate(0,320,908)"/><rect x="334" y="894" width="28" height="28" transform="rotate(0,348,908)"/><rect x="502" y="894" width="28" height="28" transform="rotate(0,516,908)"/><rect x="558" y="894" width="28" height="28" transform="rotate(0,572,908)"/><path d="M 586 894v 28h 28v -14a 14 14, 0, 0, 0, -14 -14" transform="rotate(0,600,908)"/><circle cx="712" cy="908" r="14" transform="rotate(0,712,908)"/><path d="M 754 894v 28h 28v -14a 14 14, 0, 0, 0, -14 -14" transform="rotate(-90,768,908)"/><path d="M 782 894v 28h 28v -14a 14 14, 0, 0, 0, -14 -14" transform="rotate(90,796,908)"/><path d="M 866 894v 28h 14a 14 14, 0, 0, 0, 0 -28" transform="rotate(90,880,908)"/><rect x="922" y="894" width="28" height="28" transform="rotate(0,936,908)"/><rect x="950" y="894" width="28" height="28" transform="rotate(0,964,908)"/><rect x="978" y="894" width="28" height="28" transform="rotate(0,992,908)"/><rect x="1006" y="894" width="28" height="28" transform="rotate(0,1020,908)"/><path d="M 1062 894v 28h 14a 14 14, 0, 0, 0, 0 -28" transform="rotate(90,1076,908)"/><path d="M 26 922v 28h 14a 14 14, 0, 0, 0, 0 -28" transform="rotate(90,40,936)"/><path d="M 82 922v 28h 14a 14 14, 0, 0, 0, 0 -28" transform="rotate(90,96,936)"/><path d="M 138 922v 28h 14a 14 14, 0, 0, 0, 0 -28" transform="rotate(90,152,936)"/><circle cx="208" cy="936" r="14" transform="rotate(0,208,936)"/><rect x="250" y="922" width="28" height="28" transform="rotate(0,264,936)"/><rect x="306" y="922" width="28" height="28" transform="rotate(0,320,936)"/><rect x="334" y="922" width="28" height="28" transform="rotate(0,348,936)"/><path d="M 418 922v 28h 14a 14 14, 0, 0, 0, 0 -28" transform="rotate(-90,432,936)"/><rect x="502" y="922" width="28" height="28" transform="rotate(0,516,936)"/><rect x="530" y="922" width="28" height="28" transform="rotate(0,544,936)"/><rect x="558" y="922" width="28" height="28" transform="rotate(0,572,936)"/><rect x="586" y="922" width="28" height="28" transform="rotate(0,600,936)"/><rect x="614" y="922" width="28" height="28" transform="rotate(0,628,936)"/><path d="M 642 922v 28h 28v -14a 14 14, 0, 0, 0, -14 -14" transform="rotate(0,656,936)"/><path d="M 726 922v 28h 28v -14a 14 14, 0, 0, 0, -14 -14" transform="rotate(-90,740,936)"/><path d="M 754 922v 28h 28v -14a 14 14, 0, 0, 0, -14 -14" transform="rotate(90,768,936)"/><path d="M 810 922v 28h 28v -14a 14 14, 0, 0, 0, -14 -14" transform="rotate(-90,824,936)"/><path d="M 838 922v 28h 14a 14 14, 0, 0, 0, 0 -28" transform="rotate(0,852,936)"/><path d="M 894 922v 28h 14a 14 14, 0, 0, 0, 0 -28" transform="rotate(180,908,936)"/><rect x="922" y="922" width="28" height="28" transform="rotate(0,936,936)"/><rect x="950" y="922" width="28" height="28" transform="rotate(0,964,936)"/><rect x="978" y="922" width="28" height="28" transform="rotate(0,992,936)"/><rect x="1006" y="922" width="28" height="28" transform="rotate(0,1020,936)"/><path d="M 1034 922v 28h 28v -14a 14 14, 0, 0, 0, -14 -14" transform="rotate(0,1048,936)"/><path d="M 1090 922v 28h 14a 14 14, 0, 0, 0, 0 -28" transform="rotate(180,1104,936)"/><rect x="1118" y="922" width="28" height="28" transform="rotate(0,1132,936)"/><path d="M 1146 922v 28h 28v -14a 14 14, 0, 0, 0, -14 -14" transform="rotate(0,1160,936)"/><rect x="250" y="950" width="28" height="28" transform="rotate(0,264,964)"/><rect x="278" y="950" width="28" height="28" transform="rotate(0,292,964)"/><rect x="306" y="950" width="28" height="28" transform="rotate(0,320,964)"/><rect x="334" y="950" width="28" height="28" transform="rotate(0,348,964)"/><path d="M 390 950v 28h 14a 14 14, 0, 0, 0, 0 -28" transform="rotate(180,404,964)"/><rect x="418" y="950" width="28" height="28" transform="rotate(0,432,964)"/><rect x="446" y="950" width="28" height="28" transform="rotate(0,460,964)"/><rect x="474" y="950" width="28" height="28" transform="rotate(0,488,964)"/><path d="M 502 950v 28h 28v -14a 14 14, 0, 0, 0, -14 -14" transform="rotate(90,516,964)"/><rect x="586" y="950" width="28" height="28" transform="rotate(0,600,964)"/><rect x="614" y="950" width="28" height="28" transform="rotate(0,628,964)"/><rect x="642" y="950" width="28" height="28" transform="rotate(0,656,964)"/><path d="M 670 950v 28h 14a 14 14, 0, 0, 0, 0 -28" transform="rotate(0,684,964)"/><rect x="726" y="950" width="28" height="28" transform="rotate(0,740,964)"/><rect x="810" y="950" width="28" height="28" transform="rotate(0,824,964)"/><circle cx="880" cy="964" r="14" transform="rotate(0,880,964)"/><rect x="922" y="950" width="28" height="28" transform="rotate(0,936,964)"/><rect x="1034" y="950" width="28" height="28" transform="rotate(0,1048,964)"/><rect x="1118" y="950" width="28" height="28" transform="rotate(0,1132,964)"/><path d="M 1146 950v 28h 28v -14a 14 14, 0, 0, 0, -14 -14" transform="rotate(90,1160,964)"/><rect x="250" y="978" width="28" height="28" transform="rotate(0,264,992)"/><rect x="278" y="978" width="28" height="28" transform="rotate(0,292,992)"/><rect x="306" y="978" width="28" height="28" transform="rotate(0,320,992)"/><rect x="334" y="978" width="28" height="28" transform="rotate(0,348,992)"/><path d="M 362 978v 28h 14a 14 14, 0, 0, 0, 0 -28" transform="rotate(0,376,992)"/><rect x="586" y="978" width="28" height="28" transform="rotate(0,600,992)"/><rect x="614" y="978" width="28" height="28" transform="rotate(0,628,992)"/><path d="M 698 978v 28h 14a 14 14, 0, 0, 0, 0 -28" transform="rotate(180,712,992)"/><rect x="726" y="978" width="28" height="28" transform="rotate(0,740,992)"/><rect x="754" y="978" width="28" height="28" transform="rotate(0,768,992)"/><rect x="782" y="978" width="28" height="28" transform="rotate(0,796,992)"/><rect x="810" y="978" width="28" height="28" transform="rotate(0,824,992)"/><path d="M 894 978v 28h 28v -14a 14 14, 0, 0, 0, -14 -14" transform="rotate(-90,908,992)"/><rect x="922" y="978" width="28" height="28" transform="rotate(0,936,992)"/><circle cx="992" cy="992" r="14" transform="rotate(0,992,992)"/><rect x="1034" y="978" width="28" height="28" transform="rotate(0,1048,992)"/><path d="M 1090 978v 28h 14a 14 14, 0, 0, 0, 0 -28" transform="rotate(180,1104,992)"/><path d="M 1118 978v 28h 28v -14a 14 14, 0, 0, 0, -14 -14" transform="rotate(90,1132,992)"/><rect x="250" y="1006" width="28" height="28" transform="rotate(0,264,1020)"/><rect x="334" y="1006" width="28" height="28" transform="rotate(0,348,1020)"/><path d="M 390 1006v 28h 14a 14 14, 0, 0, 0, 0 -28" transform="rotate(-90,404,1020)"/><path d="M 446 1006v 28h 14a 14 14, 0, 0, 0, 0 -28" transform="rotate(180,460,1020)"/><rect x="474" y="1006" width="28" height="28" transform="rotate(0,488,1020)"/><path d="M 502 1006v 28h 14a 14 14, 0, 0, 0, 0 -28" transform="rotate(0,516,1020)"/><path d="M 586 1006v 28h 28v -14a 14 14, 0, 0, 0, -14 -14" transform="rotate(180,600,1020)"/><path d="M 614 1006v 28h 28v -14a 14 14, 0, 0, 0, -14 -14" transform="rotate(90,628,1020)"/><path d="M 670 1006v 28h 14a 14 14, 0, 0, 0, 0 -28" transform="rotate(-90,684,1020)"/><path d="M 726 1006v 28h 14a 14 14, 0, 0, 0, 0 -28" transform="rotate(90,740,1020)"/><path d="M 810 1006v 28h 14a 14 14, 0, 0, 0, 0 -28" transform="rotate(90,824,1020)"/><path d="M 894 1006v 28h 28v -14a 14 14, 0, 0, 0, -14 -14" transform="rotate(180,908,1020)"/><rect x="922" y="1006" width="28" height="28" transform="rotate(0,936,1020)"/><rect x="1034" y="1006" width="28" height="28" transform="rotate(0,1048,1020)"/><path d="M 1062 1006v 28h 28v -14a 14 14, 0, 0, 0, -14 -14" transform="rotate(0,1076,1020)"/><rect x="250" y="1034" width="28" height="28" transform="rotate(0,264,1048)"/><rect x="278" y="1034" width="28" height="28" transform="rotate(0,292,1048)"/><rect x="306" y="1034" width="28" height="28" transform="rotate(0,320,1048)"/><rect x="334" y="1034" width="28" height="28" transform="rotate(0,348,1048)"/><rect x="362" y="1034" width="28" height="28" transform="rotate(0,376,1048)"/><rect x="390" y="1034" width="28" height="28" transform="rotate(0,404,1048)"/><path d="M 530 1034v 28h 14a 14 14, 0, 0, 0, 0 -28" transform="rotate(180,544,1048)"/><path d="M 558 1034v 28h 28v -14a 14 14, 0, 0, 0, -14 -14" transform="rotate(0,572,1048)"/><path d="M 642 1034v 28h 14a 14 14, 0, 0, 0, 0 -28" transform="rotate(180,656,1048)"/><rect x="670" y="1034" width="28" height="28" transform="rotate(0,684,1048)"/><path d="M 698 1034v 28h 14a 14 14, 0, 0, 0, 0 -28" transform="rotate(0,712,1048)"/><circle cx="768" cy="1048" r="14" transform="rotate(0,768,1048)"/><path d="M 838 1034v 28h 14a 14 14, 0, 0, 0, 0 -28" transform="rotate(-90,852,1048)"/><path d="M 922 1034v 28h 28v -14a 14 14, 0, 0, 0, -14 -14" transform="rotate(180,936,1048)"/><rect x="950" y="1034" width="28" height="28" transform="rotate(0,964,1048)"/><rect x="978" y="1034" width="28" height="28" transform="rotate(0,992,1048)"/><rect x="1006" y="1034" width="28" height="28" transform="rotate(0,1020,1048)"/><rect x="1034" y="1034" width="28" height="28" transform="rotate(0,1048,1048)"/><rect x="1062" y="1034" width="28" height="28" transform="rotate(0,1076,1048)"/><rect x="1090" y="1034" width="28" height="28" transform="rotate(0,1104,1048)"/><rect x="1118" y="1034" width="28" height="28" transform="rotate(0,1132,1048)"/><path d="M 1146 1034v 28h 14a 14 14, 0, 0, 0, 0 -28" transform="rotate(0,1160,1048)"/><rect x="250" y="1062" width="28" height="28" transform="rotate(0,264,1076)"/><path d="M 390 1062v 28h 14a 14 14, 0, 0, 0, 0 -28" transform="rotate(90,404,1076)"/><rect x="558" y="1062" width="28" height="28" transform="rotate(0,572,1076)"/><rect x="586" y="1062" width="28" height="28" transform="rotate(0,600,1076)"/><path d="M 614 1062v 28h 14a 14 14, 0, 0, 0, 0 -28" transform="rotate(0,628,1076)"/><path d="M 670 1062v 28h 14a 14 14, 0, 0, 0, 0 -28" transform="rotate(90,684,1076)"/><path d="M 810 1062v 28h 28v -14a 14 14, 0, 0, 0, -14 -14" transform="rotate(-90,824,1076)"/><path d="M 838 1062v 28h 28v -14a 14 14, 0, 0, 0, -14 -14" transform="rotate(90,852,1076)"/><path d="M 894 1062v 28h 14a 14 14, 0, 0, 0, 0 -28" transform="rotate(-90,908,1076)"/><rect x="950" y="1062" width="28" height="28" transform="rotate(0,964,1076)"/><rect x="1006" y="1062" width="28" height="28" transform="rotate(0,1020,1076)"/><rect x="1062" y="1062" width="28" height="28" transform="rotate(0,1076,1076)"/><path d="M 1118 1062v 28h 14a 14 14, 0, 0, 0, 0 -28" transform="rotate(90,1132,1076)"/><rect x="250" y="1090" width="28" height="28" transform="rotate(0,264,1104)"/><path d="M 278 1090v 28h 28v -14a 14 14, 0, 0, 0, -14 -14" transform="rotate(0,292,1104)"/><path d="M 334 1090v 28h 14a 14 14, 0, 0, 0, 0 -28" transform="rotate(180,348,1104)"/><path d="M 362 1090v 28h 14a 14 14, 0, 0, 0, 0 -28" transform="rotate(0,376,1104)"/><path d="M 418 1090v 28h 14a 14 14, 0, 0, 0, 0 -28" transform="rotate(-90,432,1104)"/><path d="M 474 1090v 28h 14a 14 14, 0, 0, 0, 0 -28" transform="rotate(-90,488,1104)"/><path d="M 558 1090v 28h 28v -14a 14 14, 0, 0, 0, -14 -14" transform="rotate(180,572,1104)"/><path d="M 586 1090v 28h 28v -14a 14 14, 0, 0, 0, -14 -14" transform="rotate(90,600,1104)"/><path d="M 726 1090v 28h 14a 14 14, 0, 0, 0, 0 -28" transform="rotate(180,740,1104)"/><rect x="754" y="1090" width="28" height="28" transform="rotate(0,768,1104)"/><rect x="782" y="1090" width="28" height="28" transform="rotate(0,796,1104)"/><path d="M 810 1090v 28h 28v -14a 14 14, 0, 0, 0, -14 -14" transform="rotate(90,824,1104)"/><rect x="894" y="1090" width="28" height="28" transform="rotate(0,908,1104)"/><rect x="922" y="1090" width="28" height="28" transform="rotate(0,936,1104)"/><rect x="950" y="1090" width="28" height="28" transform="rotate(0,964,1104)"/><rect x="978" y="1090" width="28" height="28" transform="rotate(0,992,1104)"/><rect x="1006" y="1090" width="28" height="28" transform="rotate(0,1020,1104)"/><rect x="1034" y="1090" width="28" height="28" transform="rotate(0,1048,1104)"/><rect x="1062" y="1090" width="28" height="28" transform="rotate(0,1076,1104)"/><path d="M 1090 1090v 28h 14a 14 14, 0, 0, 0, 0 -28" transform="rotate(0,1104,1104)"/><path d="M 250 1118v 28h 28v -14a 14 14, 0, 0, 0, -14 -14" transform="rotate(180,264,1132)"/><rect x="278" y="1118" width="28" height="28" transform="rotate(0,292,1132)"/><path d="M 306 1118v 28h 28v -14a 14 14, 0, 0, 0, -14 -14" transform="rotate(0,320,1132)"/><rect x="418" y="1118" width="28" height="28" transform="rotate(0,432,1132)"/><rect x="474" y="1118" width="28" height="28" transform="rotate(0,488,1132)"/><circle cx="628" cy="1132" r="14" transform="rotate(0,628,1132)"/><path d="M 866 1118v 28h 14a 14 14, 0, 0, 0, 0 -28" transform="rotate(180,880,1132)"/><rect x="894" y="1118" width="28" height="28" transform="rotate(0,908,1132)"/><path d="M 922 1118v 28h 28v -14a 14 14, 0, 0, 0, -14 -14" transform="rotate(90,936,1132)"/><rect x="978" y="1118" width="28" height="28" transform="rotate(0,992,1132)"/><rect x="1034" y="1118" width="28" height="28" transform="rotate(0,1048,1132)"/><rect x="1062" y="1118" width="28" height="28" transform="rotate(0,1076,1132)"/><circle cx="1132" cy="1132" r="14" transform="rotate(0,1132,1132)"/><path d="M 278 1146v 28h 28v -14a 14 14, 0, 0, 0, -14 -14" transform="rotate(180,292,1160)"/><path d="M 306 1146v 28h 28v -14a 14 14, 0, 0, 0, -14 -14" transform="rotate(90,320,1160)"/><path d="M 362 1146v 28h 14a 14 14, 0, 0, 0, 0 -28" transform="rotate(180,376,1160)"/><rect x="390" y="1146" width="28" height="28" transform="rotate(0,404,1160)"/><rect x="418" y="1146" width="28" height="28" transform="rotate(0,432,1160)"/><rect x="446" y="1146" width="28" height="28" transform="rotate(0,460,1160)"/><path d="M 474 1146v 28h 28v -14a 14 14, 0, 0, 0, -14 -14" transform="rotate(90,488,1160)"/><path d="M 530 1146v 28h 14a 14 14, 0, 0, 0, 0 -28" transform="rotate(180,544,1160)"/><rect x="558" y="1146" width="28" height="28" transform="rotate(0,572,1160)"/><path d="M 586 1146v 28h 14a 14 14, 0, 0, 0, 0 -28" transform="rotate(0,600,1160)"/><path d="M 698 1146v 28h 14a 14 14, 0, 0, 0, 0 -28" transform="rotate(180,712,1160)"/><rect x="726" y="1146" width="28" height="28" transform="rotate(0,740,1160)"/><rect x="754" y="1146" width="28" height="28" transform="rotate(0,768,1160)"/><rect x="782" y="1146" width="28" height="28" transform="rotate(0,796,1160)"/><rect x="810" y="1146" width="28" height="28" transform="rotate(0,824,1160)"/><path d="M 838 1146v 28h 14a 14 14, 0, 0, 0, 0 -28" transform="rotate(0,852,1160)"/><path d="M 894 1146v 28h 14a 14 14, 0, 0, 0, 0 -28" transform="rotate(90,908,1160)"/><path d="M 950 1146v 28h 14a 14 14, 0, 0, 0, 0 -28" transform="rotate(180,964,1160)"/><rect x="978" y="1146" width="28" height="28" transform="rotate(0,992,1160)"/><rect x="1006" y="1146" width="28" height="28" transform="rotate(0,1020,1160)"/><rect x="1034" y="1146" width="28" height="28" transform="rotate(0,1048,1160)"/><rect x="1062" y="1146" width="28" height="28" transform="rotate(0,1076,1160)"/><path d="M 1090 1146v 28h 14a 14 14, 0, 0, 0, 0 -28" transform="rotate(0,1104,1160)"/></clipPath><clipPath id="clip-path-corners-square-color-0-0-740"><path clip-rule="evenodd" d="M 26 96v 56a 70 70, 0, 0, 0, 70 70h 56a 70 70, 0, 0, 0, 70 -70v -56a 70 70, 0, 0, 0, -70 -70h -56a 70 70, 0, 0, 0, -70 70M 96 54h 56a 42 42, 0, 0, 1, 42 42v 56a 42 42, 0, 0, 1, -42 42h -56a 42 42, 0, 0, 1, -42 -42v -56a 42 42, 0, 0, 1, 42 -42" transform="rotate(0,124,124)"/></clipPath><clipPath id="clip-path-corners-dot-color-0-0-740"><circle cx="124" cy="124" r="42" transform="rotate(0,124,124)"/></clipPath><clipPath id="clip-path-corners-square-color-1-0-740"><path clip-rule="evenodd" d="M 978 96v 56a 70 70, 0, 0, 0, 70 70h 56a 70 70, 0, 0, 0, 70 -70v -56a 70 70, 0, 0, 0, -70 -70h -56a 70 70, 0, 0, 0, -70 70M 1048 54h 56a 42 42, 0, 0, 1, 42 42v 56a 42 42, 0, 0, 1, -42 42h -56a 42 42, 0, 0, 1, -42 -42v -56a 42 42, 0, 0, 1, 42 -42" transform="rotate(90,1076,124)"/></clipPath><clipPath id="clip-path-corners-dot-color-1-0-740"><circle cx="1076" cy="124" r="42" transform="rotate(90,1076,124)"/></clipPath><clipPath id="clip-path-corners-square-color-0-1-740"><path clip-rule="evenodd" d="M 26 1048v 56a 70 70, 0, 0, 0, 70 70h 56a 70 70, 0, 0, 0, 70 -70v -56a 70 70, 0, 0, 0, -70 -70h -56a 70 70, 0, 0, 0, -70 70M 96 1006h 56a 42 42, 0, 0, 1, 42 42v 56a 42 42, 0, 0, 1, -42 42h -56a 42 42, 0, 0, 1, -42 -42v -56a 42 42, 0, 0, 1, 42 -42" transform="rotate(-90,124,1076)"/></clipPath><clipPath id="clip-path-corners-dot-color-0-1-740"><circle cx="124" cy="1076" r="42" transform="rotate(-90,124,1076)"/></clipPath></defs><rect x="0" y="0" height="1200" width="1200" clip-path="url('#clip-path-background-color-740')" fill="#ffffff"/><rect x="0" y="0" height="1200" width="1200" clip-path="url('#clip-path-dot-color-740')" fill="#000000"/><rect x="26" y="26" height="196" width="196" clip-path="url('#clip-path-corners-square-color-0-0-740')" fill="#000000"/><rect x="82" y="82" height="84" width="84" clip-path="url('#clip-path-corners-dot-color-0-0-740')" fill="#000000"/><rect x="978" y="26" height="196" width="196" clip-path="url('#clip-path-corners-square-color-1-0-740')" fill="#000000"/><rect x="1034" y="82" height="84" width="84" clip-path="url('#clip-path-corners-dot-color-1-0-740')" fill="#000000"/><rect x="26" y="978" height="196" width="196" clip-path="url('#clip-path-corners-square-color-0-1-740')" fill="#000000"/><rect x="82" y="1034" height="84" width="84" clip-path="url('#clip-path-corners-dot-color-0-1-740')" fill="#000000"/></svg>