<?xml version="1.0" standalone="no"?>
<svg xmlns="http://www.w3.org/2000/svg" width="1200" height="1200" xmlns:xlink="http://www.w3.org/1999/xlink" viewBox="0 0 1200 1200"><defs><clipPath id="clip-path-background-color-759"><rect x="0" y="0" width="1200" height="1200"/></clipPath><clipPath id="clip-path-dot-color-759"><path d="M 264 8v 32h 32v -16a 16 16, 0, 0, 0, -16 -16" transform="rotate(-90,280,24)"/><rect x="296" y="8" width="32" height="32" transform="rotate(0,312,24)"/><path d="M 328 8v 32h 16a 16 16, 0, 0, 0, 0 -32" transform="rotate(0,344,24)"/><path d="M 392 8v 32h 16a 16 16, 0, 0, 0, 0 -32" transform="rotate(-90,408,24)"/><circle cx="568" cy="24" r="16" transform="rotate(0,568,24)"/><path d="M 616 8v 32h 16a 16 16, 0, 0, 0, 0 -32" transform="rotate(180,632,24)"/><rect x="648" y="8" width="32" height="32" transform="rotate(0,664,24)"/><rect x="680" y="8" width="32" height="32" transform="rotate(0,696,24)"/><rect x="712" y="8" width="32" height="32" transform="rotate(0,728,24)"/><path d="M 744 8v 32h 32v -16a 16 16, 0, 0, 0, -16 -16" transform="rotate(0,760,24)"/><path d="M 808 8v 32h 32v -16a 16 16, 0, 0, 0, -16 -16" transform="rotate(-90,824,24)"/><path d="M 840 8v 32h 16a 16 16, 0, 0, 0, 0 -32" transform="rotate(0,856,24)"/><path d="M 904 8v 32h 16a 16 16, 0, 0, 0, 0 -32" transform="rotate(-90,920,24)"/><path d="M 264 40v 32h 32v -16a 16 16, 0, 0, 0, -16 -16" transform="rotate(180,280,56)"/><path d="M 296 40v 32h 32v -16a 16 16, 0, 0, 0, -16 -16" transform="rotate(90,312,56)"/><rect x="392" y="40" width="32" height="32" transform="rotate(0,408,56)"/><rect x="424" y="40" width="32" height="32" transform="rotate(0,440,56)"/><rect x="456" y="40" width="32" height="32" transform="rotate(0,472,56)"/><path d="M 488 40v 32h 32v -16a 16 16, 0, 0, 0, -16 -16" transform="rotate(0,504,56)"/><path d="M 712 40v 32h 32v -16a 16 16, 0, 0, 0, -16 -16" transform="rotate(180,728,56)"/><rect x="744" y="40" width="32" height="32" transform="rotate(0,760,56)"/><rect x="776" y="40" width="32" height="32" transform="rotate(0,792,56)"/><path d="M 808 40v 32h 32v -16a 16 16, 0, 0, 0, -16 -16" transform="rotate(90,824,56)"/><rect x="904" y="40" width="32" height="32" transform="rotate(0,920,56)"/><path d="M 328 72v 32h 32v -16a 16 16, 0, 0, 0, -16 -16" transform="rotate(-90,344,88)"/><rect x="360" y="72" width="32" height="32" transform="rotate(0,376,88)"/><rect x="392" y="72" width="32" height="32" transform="rotate(0,408,88)"/><rect x="488" y="72" width="32" height="32" transform="rotate(0,504,88)"/><path d="M 584 72v 32h 16a 16 16, 0, 0, 0, 0 -32" transform="rotate(180,600,88)"/><path d="M 616 72v 32h 32v -16a 16 16, 0, 0, 0, -16 -16" transform="rotate(0,632,88)"/><path d="M 680 72v 32h 16a 16 16, 0, 0, 0, 0 -32" transform="rotate(-90,696,88)"/><rect x="744" y="72" width="32" height="32" transform="rotate(0,760,88)"/><path d="M 840 72v 32h 16a 16 16, 0, 0, 0, 0 -32" transform="rotate(180,856,88)"/><rect x="872" y="72" width="32" height="32" transform="rotate(0,888,88)"/><rect x="904" y="72" width="32" height="32" transform="rotate(0,920,88)"/><rect x="328" y="104" width="32" height="32" transform="rotate(0,344,120)"/><path d="M 392 104v 32h 32v -16a 16 16, 0, 0, 0, -16 -16" transform="rotate(180,408,120)"/><path d="M 424 104v 32h 16a 16 16, 0, 0, 0, 0 -32" transform="rotate(0,440,120)"/><rect x="488" y="104" width="32" height="32" transform="rotate(0,504,120)"/><path d="M 616 104v 32h 16a 16 16, 0, 0, 0, 0 -32" transform="rotate(90,632,120)"/><rect x="680" y="104" width="32" height="32" transform="rotate(0,696,120)"/><rect x="744" y="104" width="32" height="32" transform="rotate(0,760,120)"/><rect x="776" y="104" width="32" height="32" transform="rotate(0,792,120)"/><path d="M 808 104v 32h 32v -16a 16 16, 0, 0, 0, -16 -16" transform="rotate(0,824,120)"/><path d="M 872 104v 32h 32v -16a 16 16, 0, 0, 0, -16 -16" transform="rotate(180,888,120)"/><path d="M 904 104v 32h 32v -16a 16 16, 0, 0, 0, -16 -16" transform="rotate(90,920,120)"/><path d="M 328 136v 32h 32v -16a 16 16, 0, 0, 0, -16 -16" transform="rotate(180,344,152)"/><path d="M 360 136v 32h 16a 16 16, 0, 0, 0, 0 -32" transform="rotate(0,376,152)"/><path d="M 488 136v 32h 16a 16 16, 0, 0, 0, 0 -32" transform="rotate(90,504,152)"/><path d="M 552 136v 32h 32v -16a 16 16, 0, 0, 0, -16 -16" transform="rotate(-90,568,152)"/><path d="M 584 136v 32h 32v -16a 16 16, 0, 0, 0, -16 -16" transform="rotate(0,600,152)"/><path d="M 680 136v 32h 32v -16a 16 16, 0, 0, 0, -16 -16" transform="rotate(180,696,152)"/><rect x="712" y="136" width="32" height="32" transform="rotate(0,728,152)"/><path d="M 744 136v 32h 32v -16a 16 16, 0, 0, 0, -16 -16" transform="rotate(90,760,152)"/><rect x="808" y="136" width="32" height="32" transform="rotate(0,824,152)"/><circle cx="312" cy="184" r="16" transform="rotate(0,312,184)"/><path d="M 392 168v 32h 16a 16 16, 0, 0, 0, 0 -32" transform="rotate(-90,408,184)"/><path d="M 520 168v 32h 32v -16a 16 16, 0, 0, 0, -16 -16" transform="rotate(-90,536,184)"/><rect x="552" y="168" width="32" height="32" transform="rotate(0,568,184)"/><rect x="584" y="168" width="32" height="32" transform="rotate(0,600,184)"/><rect x="616" y="168" width="32" height="32" transform="rotate(0,632,184)"/><path d="M 648 168v 32h 32v -16a 16 16, 0, 0, 0, -16 -16" transform="rotate(0,664,184)"/><rect x="712" y="168" width="32" height="32" transform="rotate(0,728,184)"/><path d="M 808 168v 32h 32v -16a 16 16, 0, 0, 0, -16 -16" transform="rotate(180,824,184)"/><path d="M 840 168v 32h 32v -16a 16 16, 0, 0, 0, -16 -16" transform="rotate(0,856,184)"/><path d="M 904 168v 32h 16a 16 16, 0, 0, 0, 0 -32" transform="rotate(-90,920,184)"/><circle cx="280" cy="216" r="16" transform="rotate(0,280,216)"/><circle cx="344" cy="216" r="16" transform="rotate(0,344,216)"/><rect x="392" y="200" width="32" height="32" transform="rotate(0,408,216)"/><circle cx="472" cy="216" r="16" transform="rotate(0,472,216)"/><rect x="520" y="200" width="32" height="32" transform="rotate(0,536,216)"/><rect x="584" y="200" width="32" height="32" transform="rotate(0,600,216)"/><rect x="648" y="200" width="32" height="32" transform="rotate(0,664,216)"/><rect x="712" y="200" width="32" height="32" transform="rotate(0,728,216)"/><circle cx="792" cy="216" r="16" transform="rotate(0,792,216)"/><path d="M 840 200v 32h 16a 16 16, 0, 0, 0, 0 -32" transform="rotate(90,856,216)"/><rect x="904" y="200" width="32" height="32" transform="rotate(0,920,216)"/><rect x="392" y="232" width="32" height="32" transform="rotate(0,408,248)"/><path d="M 424 232v 32h 32v -16a 16 16, 0, 0, 0, -16 -16" transform="rotate(0,440,248)"/><path d="M 488 232v 32h 16a 16 16, 0, 0, 0, 0 -32" transform="rotate(180,504,248)"/><path d="M 520 232v 32h 32v -16a 16 16, 0, 0, 0, -16 -16" transform="rotate(90,536,248)"/><rect x="584" y="232" width="32" height="32" transform="rotate(0,600,248)"/><rect x="616" y="232" width="32" height="32" transform="rotate(0,632,248)"/><rect x="648" y="232" width="32" height="32" transform="rotate(0,664,248)"/><rect x="712" y="232" width="32" height="32" transform="rotate(0,728,248)"/><circle cx="824" cy="248" r="16" transform="rotate(0,824,248)"/><path d="M 872 232v 32h 16a 16 16, 0, 0, 0, 0 -32" transform="rotate(180,888,248)"/><rect x="904" y="232" width="32" height="32" transform="rotate(0,920,248)"/><circle cx="56" cy="280" r="16" transform="rotate(0,56,280)"/><path d="M 200 264v 32h 16a 16 16, 0, 0, 0, 0 -32" transform="rotate(180,216,280)"/><rect x="232" y="264" width="32" height="32" transform="rotate(0,248,280)"/><path d="M 264 264v 32h 16a 16 16, 0, 0, 0, 0 -32" transform="rotate(0,280,280)"/><path d="M 360 264v 32h 32v -16a 16 16, 0, 0, 0, -16 -16" transform="rotate(-90,376,280)"/><rect x="392" y="264" width="32" height="32" transform="rotate(0,408,280)"/><rect x="424" y="264" width="32" height="32" transform="rotate(0,440,280)"/><path d="M 456 264v 32h 16a 16 16, 0, 0, 0, 0 -32" transform="rotate(0,472,280)"/><path d="M 552 264v 32h 16a 16 16, 0, 0, 0, 0 -32" transform="rotate(180,568,280)"/><rect x="584" y="264" width="32" height="32" transform="rotate(0,600,280)"/><rect x="616" y="264" width="32" height="32" transform="rotate(0,632,280)"/><rect x="648" y="264" width="32" height="32" transform="rotate(0,664,280)"/><path d="M 712 264v 32h 32v -16a 16 16, 0, 0, 0, -16 -16" transform="rotate(180,728,280)"/><rect x="744" y="264" width="32" height="32" transform="rotate(0,760,280)"/><path d="M 776 264v 32h 16a 16 16, 0, 0, 0, 0 -32" transform="rotate(0,792,280)"/><path d="M 840 264v 32h 16a 16 16, 0, 0, 0, 0 -32" transform="rotate(-90,856,280)"/><rect x="904" y="264" width="32" height="32" transform="rotate(0,920,280)"/><path d="M 936 264v 32h 32v -16a 16 16, 0, 0, 0, -16 -16" transform="rotate(0,952,280)"/><path d="M 1128 264v 32h 16a 16 16, 0, 0, 0, 0 -32" transform="rotate(180,1144,280)"/><path d="M 1160 264v 32h 16a 16 16, 0, 0, 0, 0 -32" transform="rotate(0,1176,280)"/><path d="M 8 296v 32h 16a 16 16, 0, 0, 0, 0 -32" transform="rotate(-90,24,312)"/><path d="M 72 296v 32h 32v -16a 16 16, 0, 0, 0, -16 -16" transform="rotate(-90,88,312)"/><rect x="104" y="296" width="32" height="32" transform="rotate(0,120,312)"/><path d="M 136 296v 32h 32v -16a 16 16, 0, 0, 0, -16 -16" transform="rotate(0,152,312)"/><path d="M 232 296v 32h 16a 16 16, 0, 0, 0, 0 -32" transform="rotate(90,248,312)"/><path d="M 360 296v 32h 16a 16 16, 0, 0, 0, 0 -32" transform="rotate(90,376,312)"/><path d="M 424 296v 32h 16a 16 16, 0, 0, 0, 0 -32" transform="rotate(90,440,312)"/><path d="M 488 296v 32h 16a 16 16, 0, 0, 0, 0 -32" transform="rotate(-90,504,312)"/><rect x="616" y="296" width="32" height="32" transform="rotate(0,632,312)"/><rect x="648" y="296" width="32" height="32" transform="rotate(0,664,312)"/><path d="M 744 296v 32h 16a 16 16, 0, 0, 0, 0 -32" transform="rotate(90,760,312)"/><path d="M 808 296v 32h 32v -16a 16 16, 0, 0, 0, -16 -16" transform="rotate(-90,824,312)"/><rect x="840" y="296" width="32" height="32" transform="rotate(0,856,312)"/><rect x="904" y="296" width="32" height="32" transform="rotate(0,920,312)"/><path d="M 936 296v 32h 32v -16a 16 16, 0, 0, 0, -16 -16" transform="rotate(90,952,312)"/><path d="M 1000 296v 32h 32v -16a 16 16, 0, 0, 0, -16 -16" transform="rotate(-90,1016,312)"/><path d="M 1032 296v 32h 32v -16a 16 16, 0, 0, 0, -16 -16" transform="rotate(0,1048,312)"/><path d="M 1096 296v 32h 16a 16 16, 0, 0, 0, 0 -32" transform="rotate(-90,1112,312)"/><rect x="8" y="328" width="32" height="32" transform="rotate(0,24,344)"/><rect x="72" y="328" width="32" height="32" transform="rotate(0,88,344)"/><path d="M 136 328v 32h 16a 16 16, 0, 0, 0, 0 -32" transform="rotate(90,152,344)"/><circle cx="216" cy="344" r="16" transform="rotate(0,216,344)"/><path d="M 264 328v 32h 16a 16 16, 0, 0, 0, 0 -32" transform="rotate(-90,280,344)"/><path d="M 456 328v 32h 32v -16a 16 16, 0, 0, 0, -16 -16" transform="rotate(-90,472,344)"/><rect x="488" y="328" width="32" height="32" transform="rotate(0,504,344)"/><path d="M 584 328v 32h 16a 16 16, 0, 0, 0, 0 -32" transform="rotate(180,600,344)"/><rect x="616" y="328" width="32" height="32" transform="rotate(0,632,344)"/><rect x="648" y="328" width="32" height="32" transform="rotate(0,664,344)"/><circle cx="728" cy="344" r="16" transform="rotate(0,728,344)"/><path d="M 808 328v 32h 32v -16a 16 16, 0, 0, 0, -16 -16" transform="rotate(180,824,344)"/><rect x="840" y="328" width="32" height="32" transform="rotate(0,856,344)"/><rect x="872" y="328" width="32" height="32" transform="rotate(0,888,344)"/><path d="M 904 328v 32h 32v -16a 16 16, 0, 0, 0, -16 -16" transform="rotate(90,920,344)"/><path d="M 968 328v 32h 32v -16a 16 16, 0, 0, 0, -16 -16" transform="rotate(-90,984,344)"/><rect x="1000" y="328" width="32" height="32" transform="rotate(0,1016,344)"/><rect x="1032" y="328" width="32" height="32" transform="rotate(0,1048,344)"/><rect x="1064" y="328" width="32" height="32" transform="rotate(0,1080,344)"/><rect x="1096" y="328" width="32" height="32" transform="rotate(0,1112,344)"/><rect x="1128" y="328" width="32" height="32" transform="rotate(0,1144,344)"/><path d="M 1160 328v 32h 16a 16 16, 0, 0, 0, 0 -32" transform="rotate(0,1176,344)"/><path d="M 8 360v 32h 16a 16 16, 0, 0, 0, 0 -32" transform="rotate(90,24,376)"/><rect x="72" y="360" width="32" height="32" transform="rotate(0,88,376)"/><path d="M 168 360v 32h 16a 16 16, 0, 0, 0, 0 -32" transform="rotate(-90,184,376)"/><path d="M 264 360v 32h 32v -16a 16 16, 0, 0, 0, -16 -16" transform="rotate(180,280,376)"/><rect x="296" y="360" width="32" height="32" transform="rotate(0,312,376)"/><path d="M 328 360v 32h 16a 16 16, 0, 0, 0, 0 -32" transform="rotate(0,344,376)"/><circle cx="408" cy="376" r="16" transform="rotate(0,408,376)"/><path d="M 456 360v 32h 32v -16a 16 16, 0, 0, 0, -16 -16" transform="rotate(180,472,376)"/><path d="M 488 360v 32h 32v -16a 16 16, 0, 0, 0, -16 -16" transform="rotate(90,504,376)"/><rect x="648" y="360" width="32" height="32" transform="rotate(0,664,376)"/><path d="M 744 360v 32h 32v -16a 16 16, 0, 0, 0, -16 -16" transform="rotate(-90,760,376)"/><path d="M 776 360v 32h 16a 16 16, 0, 0, 0, 0 -32" transform="rotate(0,792,376)"/><path d="M 840 360v 32h 16a 16 16, 0, 0, 0, 0 -32" transform="rotate(90,856,376)"/><rect x="968" y="360" width="32" height="32" transform="rotate(0,984,376)"/><path d="M 1032 360v 32h 32v -16a 16 16, 0, 0, 0, -16 -16" transform="rotate(180,1048,376)"/><rect x="1064" y="360" width="32" height="32" transform="rotate(0,1080,376)"/><rect x="1128" y="360" width="32" height="32" transform="rotate(0,1144,376)"/><path d="M 40 392v 32h 16a 16 16, 0, 0, 0, 0 -32" transform="rotate(180,56,408)"/><rect x="72" y="392" width="32" height="32" transform="rotate(0,88,408)"/><path d="M 136 392v 32h 32v -16a 16 16, 0, 0, 0, -16 -16" transform="rotate(-90,152,408)"/><rect x="168" y="392" width="32" height="32" transform="rotate(0,184,408)"/><rect x="200" y="392" width="32" height="32" transform="rotate(0,216,408)"/><path d="M 232 392v 32h 16a 16 16, 0, 0, 0, 0 -32" transform="rotate(0,248,408)"/><rect x="296" y="392" width="32" height="32" transform="rotate(0,312,408)"/><circle cx="440" cy="408" r="16" transform="rotate(0,440,408)"/><path d="M 520 392v 32h 32v -16a 16 16, 0, 0, 0, -16 -16" transform="rotate(-90,536,408)"/><rect x="552" y="392" width="32" height="32" transform="rotate(0,568,408)"/><rect x="584" y="392" width="32" height="32" transform="rotate(0,600,408)"/><rect x="616" y="392" width="32" height="32" transform="rotate(0,632,408)"/><path d="M 648 392v 32h 32v -16a 16 16, 0, 0, 0, -16 -16" transform="rotate(90,664,408)"/><rect x="744" y="392" width="32" height="32" transform="rotate(0,760,408)"/><path d="M 872 392v 32h 32v -16a 16 16, 0, 0, 0, -16 -16" transform="rotate(-90,888,408)"/><path d="M 904 392v 32h 32v -16a 16 16, 0, 0, 0, -16 -16" transform="rotate(0,920,408)"/><path d="M 968 392v 32h 32v -16a 16 16, 0, 0, 0, -16 -16" transform="rotate(180,984,408)"/><path d="M 1000 392v 32h 16a 16 16, 0, 0, 0, 0 -32" transform="rotate(0,1016,408)"/><path d="M 1064 392v 32h 16a 16 16, 0, 0, 0, 0 -32" transform="rotate(90,1080,408)"/><path d="M 1128 392v 32h 32v -16a 16 16, 0, 0, 0, -16 -16" transform="rotate(180,1144,408)"/><path d="M 1160 392v 32h 16a 16 16, 0, 0, 0, 0 -32" transform="rotate(0,1176,408)"/><path d="M 72 424v 32h 16a 16 16, 0, 0, 0, 0 -32" transform="rotate(90,88,440)"/><path d="M 136 424v 32h 16a 16 16, 0, 0, 0, 0 -32" transform="rotate(90,152,440)"/><path d="M 296 424v 32h 32v -16a 16 16, 0, 0, 0, -16 -16" transform="rotate(180,312,440)"/><path d="M 328 424v 32h 16a 16 16, 0, 0, 0, 0 -32" transform="rotate(0,344,440)"/><path d="M 456 424v 32h 16a 16 16, 0, 0, 0, 0 -32" transform="rotate(-90,472,440)"/><path d="M 520 424v 32h 32v -16a 16 16, 0, 0, 0, -16 -16" transform="rotate(180,536,440)"/><rect x="552" y="424" width="32" height="32" transform="rotate(0,568,440)"/><path d="M 616 424v 32h 16a 16 16, 0, 0, 0, 0 -32" transform="rotate(90,632,440)"/><path d="M 744 424v 32h 16a 16 16, 0, 0, 0, 0 -32" transform="rotate(90,760,440)"/><path d="M 808 424v 32h 16a 16 16, 0, 0, 0, 0 -32" transform="rotate(-90,824,440)"/><rect x="872" y="424" width="32" height="32" transform="rotate(0,888,440)"/><rect x="904" y="424" width="32" height="32" transform="rotate(0,920,440)"/><path d="M 936 424v 32h 32v -16a 16 16, 0, 0, 0, -16 -16" transform="rotate(0,952,440)"/><circle cx="1112" cy="440" r="16" transform="rotate(0,1112,440)"/><circle cx="24" cy="472" r="16" transform="rotate(0,24,472)"/><path d="M 168 456v 32h 16a 16 16, 0, 0, 0, 0 -32" transform="rotate(180,184,472)"/><rect x="200" y="456" width="32" height="32" transform="rotate(0,216,472)"/><rect x="232" y="456" width="32" height="32" transform="rotate(0,248,472)"/><path d="M 264 456v 32h 16a 16 16, 0, 0, 0, 0 -32" transform="rotate(0,280,472)"/><path d="M 392 456v 32h 16a 16 16, 0, 0, 0, 0 -32" transform="rotate(-90,408,472)"/><path d="M 456 456v 32h 32v -16a 16 16, 0, 0, 0, -16 -16" transform="rotate(180,472,472)"/><path d="M 488 456v 32h 16a 16 16, 0, 0, 0, 0 -32" transform="rotate(0,504,472)"/><rect x="552" y="456" width="32" height="32" transform="rotate(0,568,472)"/><path d="M 648 456v 32h 32v -16a 16 16, 0, 0, 0, -16 -16" transform="rotate(-90,664,472)"/><path d="M 680 456v 32h 16a 16 16, 0, 0, 0, 0 -32" transform="rotate(0,696,472)"/><path d="M 776 456v 32h 16a 16 16, 0, 0, 0, 0 -32" transform="rotate(180,792,472)"/><rect x="808" y="456" width="32" height="32" transform="rotate(0,824,472)"/><rect x="840" y="456" width="32" height="32" transform="rotate(0,856,472)"/><rect x="872" y="456" width="32" height="32" transform="rotate(0,888,472)"/><rect x="904" y="456" width="32" height="32" transform="rotate(0,920,472)"/><path d="M 936 456v 32h 32v -16a 16 16, 0, 0, 0, -16 -16" transform="rotate(90,952,472)"/><path d="M 1064 456v 32h 16a 16 16, 0, 0, 0, 0 -32" transform="rotate(-90,1080,472)"/><path d="M 1128 456v 32h 32v -16a 16 16, 0, 0, 0, -16 -16" transform="rotate(-90,1144,472)"/><path d="M 1160 456v 32h 32v -16a 16 16, 0, 0, 0, -16 -16" transform="rotate(0,1176,472)"/><path d="M 72 488v 32h 16a 16 16, 0, 0, 0, 0 -32" transform="rotate(-90,88,504)"/><circle cx="152" cy="504" r="16" transform="rotate(0,152,504)"/><circle cx="312" cy="504" r="16" transform="rotate(0,312,504)"/><path d="M 360 488v 32h 16a 16 16, 0, 0, 0, 0 -32" transform="rotate(180,376,504)"/><path d="M 392 488v 32h 32v -16a 16 16, 0, 0, 0, -16 -16" transform="rotate(90,408,504)"/><path d="M 520 488v 32h 16a 16 16, 0, 0, 0, 0 -32" transform="rotate(180,536,504)"/><path d="M 552 488v 32h 32v -16a 16 16, 0, 0, 0, -16 -16" transform="rotate(90,568,504)"/><path d="M 648 488v 32h 16a 16 16, 0, 0, 0, 0 -32" transform="rotate(90,664,504)"/><path d="M 904 488v 32h 16a 16 16, 0, 0, 0, 0 -32" transform="rotate(90,920,504)"/><path d="M 1000 488v 32h 16a 16 16, 0, 0, 0, 0 -32" transform="rotate(180,1016,504)"/><rect x="1032" y="488" width="32" height="32" transform="rotate(0,1048,504)"/><rect x="1064" y="488" width="32" height="32" transform="rotate(0,1080,504)"/><rect x="1096" y="488" width="32" height="32" transform="rotate(0,1112,504)"/><rect x="1128" y="488" width="32" height="32" transform="rotate(0,1144,504)"/><rect x="1160" y="488" width="32" height="32" transform="rotate(0,1176,504)"/><rect x="72" y="520" width="32" height="32" transform="rotate(0,88,536)"/><path d="M 168 520v 32h 32v -16a 16 16, 0, 0, 0, -16 -16" transform="rotate(-90,184,536)"/><path d="M 200 520v 32h 16a 16 16, 0, 0, 0, 0 -32" transform="rotate(0,216,536)"/><path d="M 328 520v 32h 16a 16 16, 0, 0, 0, 0 -32" transform="rotate(-90,344,536)"/><path d="M 456 520v 32h 16a 16 16, 0, 0, 0, 0 -32" transform="rotate(180,472,536)"/><path d="M 488 520v 32h 32v -16a 16 16, 0, 0, 0, -16 -16" transform="rotate(0,504,536)"/><circle cx="696" cy="536" r="16" transform="rotate(0,696,536)"/><circle cx="760" cy="536" r="16" transform="rotate(0,760,536)"/><path d="M 808 520v 32h 32v -16a 16 16, 0, 0, 0, -16 -16" transform="rotate(-90,824,536)"/><path d="M 840 520v 32h 16a 16 16, 0, 0, 0, 0 -32" transform="rotate(0,856,536)"/><path d="M 936 520v 32h 16a 16 16, 0, 0, 0, 0 -32" transform="rotate(180,952,536)"/><path d="M 968 520v 32h 16a 16 16, 0, 0, 0, 0 -32" transform="rotate(0,984,536)"/><path d="M 1032 520v 32h 16a 16 16, 0, 0, 0, 0 -32" transform="rotate(90,1048,536)"/><path d="M 1096 520v 32h 32v -16a 16 16, 0, 0, 0, -16 -16" transform="rotate(180,1112,536)"/><rect x="1128" y="520" width="32" height="32" transform="rotate(0,1144,536)"/><path d="M 1160 520v 32h 32v -16a 16 16, 0, 0, 0, -16 -16" transform="rotate(90,1176,536)"/><path d="M 72 552v 32h 32v -16a 16 16, 0, 0, 0, -16 -16" transform="rotate(180,88,568)"/><rect x="104" y="552" width="32" height="32" transform="rotate(0,120,568)"/><rect x="136" y="552" width="32" height="32" transform="rotate(0,152,568)"/><rect x="168" y="552" width="32" height="32" transform="rotate(0,184,568)"/><path d="M 232 552v 32h 32v -16a 16 16, 0, 0, 0, -16 -16" transform="rotate(-90,248,568)"/><path d="M 264 552v 32h 32v -16a 16 16, 0, 0, 0, -16 -16" transform="rotate(0,280,568)"/><path d="M 328 552v 32h 16a 16 16, 0, 0, 0, 0 -32" transform="rotate(90,344,568)"/><circle cx="408" cy="568" r="16" transform="rotate(0,408,568)"/><rect x="488" y="552" width="32" height="32" transform="rotate(0,504,568)"/><path d="M 552 552v 32h 16a 16 16, 0, 0, 0, 0 -32" transform="rotate(-90,568,568)"/><path d="M 616 552v 32h 16a 16 16, 0, 0, 0, 0 -32" transform="rotate(180,632,568)"/><path d="M 648 552v 32h 32v -16a 16 16, 0, 0, 0, -16 -16" transform="rotate(0,664,568)"/><circle cx="728" cy="568" r="16" transform="rotate(0,728,568)"/><path d="M 776 552v 32h 16a 16 16, 0, 0, 0, 0 -32" transform="rotate(180,792,568)"/><path d="M 808 552v 32h 32v -16a 16 16, 0, 0, 0, -16 -16" transform="rotate(90,824,568)"/><path d="M 872 552v 32h 32v -16a 16 16, 0, 0, 0, -16 -16" transform="rotate(-90,888,568)"/><path d="M 904 552v 32h 16a 16 16, 0, 0, 0, 0 -32" transform="rotate(0,920,568)"/><path d="M 1064 552v 32h 16a 16 16, 0, 0, 0, 0 -32" transform="rotate(-90,1080,568)"/><path d="M 40 584v 32h 16a 16 16, 0, 0, 0, 0 -32" transform="rotate(-90,56,600)"/><rect x="168" y="584" width="32" height="32" transform="rotate(0,184,600)"/><rect x="200" y="584" width="32" height="32" transform="rotate(0,216,600)"/><rect x="232" y="584" width="32" height="32" transform="rotate(0,248,600)"/><rect x="264" y="584" width="32" height="32" transform="rotate(0,280,600)"/><path d="M 296 584v 32h 16a 16 16, 0, 0, 0, 0 -32" transform="rotate(0,312,600)"/><path d="M 424 584v 32h 32v -16a 16 16, 0, 0, 0, -16 -16" transform="rotate(-90,440,600)"/><rect x="456" y="584" width="32" height="32" transform="rotate(0,472,600)"/><path d="M 488 584v 32h 32v -16a 16 16, 0, 0, 0, -16 -16" transform="rotate(90,504,600)"/><rect x="552" y="584" width="32" height="32" transform="rotate(0,568,600)"/><path d="M 584 584v 32h 16a 16 16, 0, 0, 0, 0 -32" transform="rotate(0,600,600)"/><rect x="648" y="584" width="32" height="32" transform="rotate(0,664,600)"/><path d="M 680 584v 32h 16a 16 16, 0, 0, 0, 0 -32" transform="rotate(0,696,600)"/><circle cx="760" cy="600" r="16" transform="rotate(0,760,600)"/><path d="M 840 584v 32h 32v -16a 16 16, 0, 0, 0, -16 -16" transform="rotate(-90,856,600)"/><rect x="872" y="584" width="32" height="32" transform="rotate(0,888,600)"/><path d="M 1032 584v 32h 32v -16a 16 16, 0, 0, 0, -16 -16" transform="rotate(-90,1048,600)"/><rect x="1064" y="584" width="32" height="32" transform="rotate(0,1080,600)"/><circle cx="1176" cy="600" r="16" transform="rotate(0,1176,600)"/><rect x="40" y="616" width="32" height="32" transform="rotate(0,56,632)"/><rect x="72" y="616" width="32" height="32" transform="rotate(0,88,632)"/><rect x="104" y="616" width="32" height="32" transform="rotate(0,120,632)"/><rect x="136" y="616" width="32" height="32" transform="rotate(0,152,632)"/><path d="M 168 616v 32h 32v -16a 16 16, 0, 0, 0, -16 -16" transform="rotate(90,184,632)"/><path d="M 232 616v 32h 32v -16a 16 16, 0, 0, 0, -16 -16" transform="rotate(180,248,632)"/><rect x="264" y="616" width="32" height="32" transform="rotate(0,280,632)"/><circle cx="344" cy="632" r="16" transform="rotate(0,344,632)"/><path d="M 392 616v 32h 16a 16 16, 0, 0, 0, 0 -32" transform="rotate(180,408,632)"/><path d="M 424 616v 32h 32v -16a 16 16, 0, 0, 0, -16 -16" transform="rotate(90,440,632)"/><path d="M 520 616v 32h 16a 16 16, 0, 0, 0, 0 -32" transform="rotate(180,536,632)"/><rect x="552" y="616" width="32" height="32" transform="rotate(0,568,632)"/><rect x="648" y="616" width="32" height="32" transform="rotate(0,664,632)"/><path d="M 712 616v 32h 16a 16 16, 0, 0, 0, 0 -32" transform="rotate(-90,728,632)"/><path d="M 776 616v 32h 16a 16 16, 0, 0, 0, 0 -32" transform="rotate(-90,792,632)"/><rect x="840" y="616" width="32" height="32" transform="rotate(0,856,632)"/><rect x="872" y="616" width="32" height="32" transform="rotate(0,888,632)"/><rect x="904" y="616" width="32" height="32" transform="rotate(0,920,632)"/><rect x="936" y="616" width="32" height="32" transform="rotate(0,952,632)"/><path d="M 968 616v 32h 32v -16a 16 16, 0, 0, 0, -16 -16" transform="rotate(0,984,632)"/><rect x="1032" y="616" width="32" height="32" transform="rotate(0,1048,632)"/><rect x="1064" y="616" width="32" height="32" transform="rotate(0,1080,632)"/><path d="M 40 648v 32h 16a 16 16, 0, 0, 0, 0 -32" transform="rotate(90,56,664)"/><circle cx="216" cy="664" r="16" transform="rotate(0,216,664)"/><rect x="264" y="648" width="32" height="32" transform="rotate(0,280,664)"/><path d="M 296 648v 32h 16a 16 16, 0, 0, 0, 0 -32" transform="rotate(0,312,664)"/><circle cx="376" cy="664" r="16" transform="rotate(0,376,664)"/><path d="M 456 648v 32h 16a 16 16, 0, 0, 0, 0 -32" transform="rotate(180,472,664)"/><path d="M 488 648v 32h 32v -16a 16 16, 0, 0, 0, -16 -16" transform="rotate(0,504,664)"/><rect x="552" y="648" width="32" height="32" transform="rotate(0,568,664)"/><path d="M 584 648v 32h 32v -16a 16 16, 0, 0, 0, -16 -16" transform="rotate(0,600,664)"/><rect x="648" y="648" width="32" height="32" transform="rotate(0,664,664)"/><path d="M 712 648v 32h 16a 16 16, 0, 0, 0, 0 -32" transform="rotate(90,728,664)"/><rect x="776" y="648" width="32" height="32" transform="rotate(0,792,664)"/><rect x="808" y="648" width="32" height="32" transform="rotate(0,824,664)"/><rect x="840" y="648" width="32" height="32" transform="rotate(0,856,664)"/><rect x="936" y="648" width="32" height="32" transform="rotate(0,952,664)"/><rect x="968" y="648" width="32" height="32" transform="rotate(0,984,664)"/><rect x="1000" y="648" width="32" height="32" transform="rotate(0,1016,664)"/><rect x="1032" y="648" width="32" height="32" transform="rotate(0,1048,664)"/><rect x="1064" y="648" width="32" height="32" transform="rotate(0,1080,664)"/><path d="M 1096 648v 32h 32v -16a 16 16, 0, 0, 0, -16 -16" transform="rotate(0,1112,664)"/><circle cx="1176" cy="664" r="16" transform="rotate(0,1176,664)"/><circle cx="24" cy="696" r="16" transform="rotate(0,24,696)"/><circle cx="120" cy="696" r="16" transform="rotate(0,120,696)"/><path d="M 232 680v 32h 32v -16a 16 16, 0, 0, 0, -16 -16" transform="rotate(-90,248,696)"/><path d="M 264 680v 32h 32v -16a 16 16, 0, 0, 0, -16 -16" transform="rotate(90,280,696)"/><circle cx="344" cy="696" r="16" transform="rotate(0,344,696)"/><rect x="488" y="680" width="32" height="32" transform="rotate(0,504,696)"/><path d="M 552 680v 32h 32v -16a 16 16, 0, 0, 0, -16 -16" transform="rotate(180,568,696)"/><rect x="584" y="680" width="32" height="32" transform="rotate(0,600,696)"/><rect x="616" y="680" width="32" height="32" transform="rotate(0,632,696)"/><path d="M 648 680v 32h 32v -16a 16 16, 0, 0, 0, -16 -16" transform="rotate(90,664,696)"/><path d="M 744 680v 32h 16a 16 16, 0, 0, 0, 0 -32" transform="rotate(180,760,696)"/><rect x="776" y="680" width="32" height="32" transform="rotate(0,792,696)"/><path d="M 840 680v 32h 32v -16a 16 16, 0, 0, 0, -16 -16" transform="rotate(180,856,696)"/><rect x="872" y="680" width="32" height="32" transform="rotate(0,888,696)"/><rect x="904" y="680" width="32" height="32" transform="rotate(0,920,696)"/><path d="M 936 680v 32h 32v -16a 16 16, 0, 0, 0, -16 -16" transform="rotate(90,952,696)"/><path d="M 1000 680v 32h 32v -16a 16 16, 0, 0, 0, -16 -16" transform="rotate(180,1016,696)"/><path d="M 1032 680v 32h 32v -16a 16 16, 0, 0, 0, -16 -16" transform="rotate(90,1048,696)"/><path d="M 1096 680v 32h 32v -16a 16 16, 0, 0, 0, -16 -16" transform="rotate(180,1112,696)"/><path d="M 1128 680v 32h 32v -16a 16 16, 0, 0, 0, -16 -16" transform="rotate(0,1144,696)"/><path d="M 40 712v 32h 16a 16 16, 0, 0, 0, 0 -32" transform="rotate(180,56,728)"/><path d="M 72 712v 32h 32v -16a 16 16, 0, 0, 0, -16 -16" transform="rotate(0,88,728)"/><path d="M 136 712v 32h 16a 16 16, 0, 0, 0, 0 -32" transform="rotate(-90,152,728)"/><path d="M 200 712v 32h 16a 16 16, 0, 0, 0, 0 -32" transform="rotate(180,216,728)"/><rect x="232" y="712" width="32" height="32" transform="rotate(0,248,728)"/><path d="M 296 712v 32h 16a 16 16, 0, 0, 0, 0 -32" transform="rotate(-90,312,728)"/><path d="M 360 712v 32h 32v -16a 16 16, 0, 0, 0, -16 -16" transform="rotate(-90,376,728)"/><path d="M 392 712v 32h 32v -16a 16 16, 0, 0, 0, -16 -16" transform="rotate(0,408,728)"/><path d="M 488 712v 32h 32v -16a 16 16, 0, 0, 0, -16 -16" transform="rotate(180,504,728)"/><path d="M 520 712v 32h 32v -16a 16 16, 0, 0, 0, -16 -16" transform="rotate(0,536,728)"/><path d="M 776 712v 32h 16a 16 16, 0, 0, 0, 0 -32" transform="rotate(90,792,728)"/><rect x="872" y="712" width="32" height="32" transform="rotate(0,888,728)"/><circle cx="984" cy="728" r="16" transform="rotate(0,984,728)"/><path d="M 1128 712v 32h 32v -16a 16 16, 0, 0, 0, -16 -16" transform="rotate(180,1144,728)"/><path d="M 1160 712v 32h 16a 16 16, 0, 0, 0, 0 -32" transform="rotate(0,1176,728)"/><path d="M 72 744v 32h 16a 16 16, 0, 0, 0, 0 -32" transform="rotate(90,88,760)"/><rect x="136" y="744" width="32" height="32" transform="rotate(0,152,760)"/><path d="M 168 744v 32h 16a 16 16, 0, 0, 0, 0 -32" transform="rotate(0,184,760)"/><path d="M 232 744v 32h 32v -16a 16 16, 0, 0, 0, -16 -16" transform="rotate(180,248,760)"/><rect x="264" y="744" width="32" height="32" transform="rotate(0,280,760)"/><rect x="296" y="744" width="32" height="32" transform="rotate(0,312,760)"/><rect x="328" y="744" width="32" height="32" transform="rotate(0,344,760)"/><rect x="360" y="744" width="32" height="32" transform="rotate(0,376,760)"/><path d="M 392 744v 32h 32v -16a 16 16, 0, 0, 0, -16 -16" transform="rotate(90,408,760)"/><path d="M 456 744v 32h 16a 16 16, 0, 0, 0, 0 -32" transform="rotate(-90,472,760)"/><rect x="520" y="744" width="32" height="32" transform="rotate(0,536,760)"/><path d="M 840 744v 32h 32v -16a 16 16, 0, 0, 0, -16 -16" transform="rotate(-90,856,760)"/><path d="M 872 744v 32h 32v -16a 16 16, 0, 0, 0, -16 -16" transform="rotate(90,888,760)"/><path d="M 936 744v 32h 16a 16 16, 0, 0, 0, 0 -32" transform="rotate(-90,952,760)"/><path d="M 1000 744v 32h 16a 16 16, 0, 0, 0, 0 -32" transform="rotate(-90,1016,760)"/><circle cx="1080" cy="760" r="16" transform="rotate(0,1080,760)"/><path d="M 104 776v 32h 16a 16 16, 0, 0, 0, 0 -32" transform="rotate(180,120,792)"/><rect x="136" y="776" width="32" height="32" transform="rotate(0,152,792)"/><circle cx="216" cy="792" r="16" transform="rotate(0,216,792)"/><path d="M 264 776v 32h 32v -16a 16 16, 0, 0, 0, -16 -16" transform="rotate(180,280,792)"/><rect x="296" y="776" width="32" height="32" transform="rotate(0,312,792)"/><path d="M 328 776v 32h 32v -16a 16 16, 0, 0, 0, -16 -16" transform="rotate(90,344,792)"/><path d="M 424 776v 32h 16a 16 16, 0, 0, 0, 0 -32" transform="rotate(180,440,792)"/><rect x="456" y="776" width="32" height="32" transform="rotate(0,472,792)"/><rect x="488" y="776" width="32" height="32" transform="rotate(0,504,792)"/><path d="M 520 776v 32h 32v -16a 16 16, 0, 0, 0, -16 -16" transform="rotate(90,536,792)"/><path d="M 584 776v 32h 16a 16 16, 0, 0, 0, 0 -32" transform="rotate(-90,600,792)"/><circle cx="664" cy="792" r="16" transform="rotate(0,664,792)"/><path d="M 744 776v 32h 16a 16 16, 0, 0, 0, 0 -32" transform="rotate(-90,760,792)"/><path d="M 808 776v 32h 16a 16 16, 0, 0, 0, 0 -32" transform="rotate(180,824,792)"/><rect x="840" y="776" width="32" height="32" transform="rotate(0,856,792)"/><path d="M 904 776v 32h 32v -16a 16 16, 0, 0, 0, -16 -16" transform="rotate(-90,920,792)"/><rect x="936" y="776" width="32" height="32" transform="rotate(0,952,792)"/><rect x="968" y="776" width="32" height="32" transform="rotate(0,984,792)"/><rect x="1000" y="776" width="32" height="32" transform="rotate(0,1016,792)"/><path d="M 1128 776v 32h 16a 16 16, 0, 0, 0, 0 -32" transform="rotate(180,1144,792)"/><path d="M 1160 776v 32h 16a 16 16, 0, 0, 0, 0 -32" transform="rotate(0,1176,792)"/><path d="M 8 808v 32h 16a 16 16, 0, 0, 0, 0 -32" transform="rotate(-90,24,824)"/><path d="M 72 808v 32h 16a 16 16, 0, 0, 0, 0 -32" transform="rotate(-90,88,824)"/><rect x="136" y="808" width="32" height="32" transform="rotate(0,152,824)"/><path d="M 360 808v 32h 16a 16 16, 0, 0, 0, 0 -32" transform="rotate(-90,376,824)"/><path d="M 552 808v 32h 32v -16a 16 16, 0, 0, 0, -16 -16" transform="rotate(-90,568,824)"/><rect x="584" y="808" width="32" height="32" transform="rotate(0,600,824)"/><path d="M 616 808v 32h 32v -16a 16 16, 0, 0, 0, -16 -16" transform="rotate(0,632,824)"/><path d="M 680 808v 32h 32v -16a 16 16, 0, 0, 0, -16 -16" transform="rotate(-90,696,824)"/><rect x="712" y="808" width="32" height="32" transform="rotate(0,728,824)"/><path d="M 744 808v 32h 32v -16a 16 16, 0, 0, 0, -16 -16" transform="rotate(90,760,824)"/><path d="M 840 808v 32h 16a 16 16, 0, 0, 0, 0 -32" transform="rotate(90,856,824)"/><path d="M 904 808v 32h 16a 16 16, 0, 0, 0, 0 -32" transform="rotate(90,920,824)"/><rect x="968" y="808" width="32" height="32" transform="rotate(0,984,824)"/><rect x="1000" y="808" width="32" height="32" transform="rotate(0,1016,824)"/><circle cx="1112" cy="824" r="16" transform="rotate(0,1112,824)"/><rect x="8" y="840" width="32" height="32" transform="rotate(0,24,856)"/><path d="M 72 840v 32h 32v -16a 16 16, 0, 0, 0, -16 -16" transform="rotate(180,88,856)"/><rect x="104" y="840" width="32" height="32" transform="rotate(0,120,856)"/><rect x="136" y="840" width="32" height="32" transform="rotate(0,152,856)"/><rect x="168" y="840" width="32" height="32" transform="rotate(0,184,856)"/><path d="M 200 840v 32h 16a 16 16, 0, 0, 0, 0 -32" transform="rotate(0,216,856)"/><path d="M 328 840v 32h 32v -16a 16 16, 0, 0, 0, -16 -16" transform="rotate(-90,344,856)"/><path d="M 360 840v 32h 32v -16a 16 16, 0, 0, 0, -16 -16" transform="rotate(90,376,856)"/><path d="M 456 840v 32h 16a 16 16, 0, 0, 0, 0 -32" transform="rotate(180,472,856)"/><path d="M 488 840v 32h 32v -16a 16 16, 0, 0, 0, -16 -16" transform="rotate(0,504,856)"/><path d="M 552 840v 32h 16a 16 16, 0, 0, 0, 0 -32" transform="rotate(90,568,856)"/><rect x="616" y="840" width="32" height="32" transform="rotate(0,632,856)"/><path d="M 680 840v 32h 32v -16a 16 16, 0, 0, 0, -16 -16" transform="rotate(180,696,856)"/><rect x="712" y="840" width="32" height="32" transform="rotate(0,728,856)"/><path d="M 776 840v 32h 16a 16 16, 0, 0, 0, 0 -32" transform="rotate(180,792,856)"/><path d="M 808 840v 32h 16a 16 16, 0, 0, 0, 0 -32" transform="rotate(0,824,856)"/><path d="M 968 840v 32h 32v -16a 16 16, 0, 0, 0, -16 -16" transform="rotate(180,984,856)"/><rect x="1000" y="840" width="32" height="32" transform="rotate(0,1016,856)"/><path d="M 1032 840v 32h 32v -16a 16 16, 0, 0, 0, -16 -16" transform="rotate(0,1048,856)"/><path d="M 1128 840v 32h 16a 16 16, 0, 0, 0, 0 -32" transform="rotate(180,1144,856)"/><path d="M 1160 840v 32h 32v -16a 16 16, 0, 0, 0, -16 -16" transform="rotate(0,1176,856)"/><rect x="8" y="872" width="32" height="32" transform="rotate(0,24,888)"/><rect x="136" y="872" width="32" height="32" transform="rotate(0,152,888)"/><rect x="168" y="872" width="32" height="32" transform="rotate(0,184,888)"/><path d="M 232 872v 32h 16a 16 16, 0, 0, 0, 0 -32" transform="rotate(-90,248,888)"/><path d="M 296 872v 32h 16a 16 16, 0, 0, 0, 0 -32" transform="rotate(180,312,888)"/><rect x="328" y="872" width="32" height="32" transform="rotate(0,344,888)"/><circle cx="408" cy="888" r="16" transform="rotate(0,408,888)"/><rect x="488" y="872" width="32" height="32" transform="rotate(0,504,888)"/><path d="M 616 872v 32h 32v -16a 16 16, 0, 0, 0, -16 -16" transform="rotate(180,632,888)"/><path d="M 648 872v 32h 16a 16 16, 0, 0, 0, 0 -32" transform="rotate(0,664,888)"/><rect x="712" y="872" width="32" height="32" transform="rotate(0,728,888)"/><path d="M 744 872v 32h 32v -16a 16 16, 0, 0, 0, -16 -16" transform="rotate(0,760,888)"/><circle cx="888" cy="888" r="16" transform="rotate(0,888,888)"/><path d="M 936 872v 32h 16a 16 16, 0, 0, 0, 0 -32" transform="rotate(-90,952,888)"/><rect x="1032" y="872" width="32" height="32" transform="rotate(0,1048,888)"/><rect x="1064" y="872" width="32" height="32" transform="rotate(0,1080,888)"/><path d="M 1096 872v 32h 32v -16a 16 16, 0, 0, 0, -16 -16" transform="rotate(0,1112,888)"/><rect x="1160" y="872" width="32" height="32" transform="rotate(0,1176,888)"/><path d="M 8 904v 32h 16a 16 16, 0, 0, 0, 0 -32" transform="rotate(90,24,920)"/><path d="M 72 904v 32h 16a 16 16, 0, 0, 0, 0 -32" transform="rotate(180,88,920)"/><rect x="104" y="904" width="32" height="32" transform="rotate(0,120,920)"/><rect x="136" y="904" width="32" height="32" transform="rotate(0,152,920)"/><rect x="168" y="904" width="32" height="32" transform="rotate(0,184,920)"/><rect x="200" y="904" width="32" height="32" transform="rotate(0,216,920)"/><rect x="232" y="904" width="32" height="32" transform="rotate(0,248,920)"/><path d="M 264 904v 32h 32v -16a 16 16, 0, 0, 0, -16 -16" transform="rotate(0,280,920)"/><path d="M 328 904v 32h 32v -16a 16 16, 0, 0, 0, -16 -16" transform="rotate(180,344,920)"/><path d="M 360 904v 32h 16a 16 16, 0, 0, 0, 0 -32" transform="rotate(0,376,920)"/><path d="M 488 904v 32h 32v -16a 16 16, 0, 0, 0, -16 -16" transform="rotate(180,504,920)"/><rect x="520" y="904" width="32" height="32" transform="rotate(0,536,920)"/><rect x="552" y="904" width="32" height="32" transform="rotate(0,568,920)"/><path d="M 584 904v 32h 16a 16 16, 0, 0, 0, 0 -32" transform="rotate(0,600,920)"/><rect x="712" y="904" width="32" height="32" transform="rotate(0,728,920)"/><rect x="744" y="904" width="32" height="32" transform="rotate(0,760,920)"/><rect x="776" y="904" width="32" height="32" transform="rotate(0,792,920)"/><rect x="808" y="904" width="32" height="32" transform="rotate(0,824,920)"/><path d="M 840 904v 32h 32v -16a 16 16, 0, 0, 0, -16 -16" transform="rotate(0,856,920)"/><path d="M 904 904v 32h 32v -16a 16 16, 0, 0, 0, -16 -16" transform="rotate(-90,920,920)"/><rect x="936" y="904" width="32" height="32" transform="rotate(0,952,920)"/><rect x="968" y="904" width="32" height="32" transform="rotate(0,984,920)"/><rect x="1000" y="904" width="32" height="32" transform="rotate(0,1016,920)"/><rect x="1032" y="904" width="32" height="32" transform="rotate(0,1048,920)"/><rect x="1064" y="904" width="32" height="32" transform="rotate(0,1080,920)"/><rect x="1096" y="904" width="32" height="32" transform="rotate(0,1112,920)"/><rect x="1128" y="904" width="32" height="32" transform="rotate(0,1144,920)"/><path d="M 1160 904v 32h 32v -16a 16 16, 0, 0, 0, -16 -16" transform="rotate(90,1176,920)"/><rect x="264" y="936" width="32" height="32" transform="rotate(0,280,952)"/><circle cx="472" cy="952" r="16" transform="rotate(0,472,952)"/><path d="M 680 936v 32h 16a 16 16, 0, 0, 0, 0 -32" transform="rotate(180,696,952)"/><rect x="712" y="936" width="32" height="32" transform="rotate(0,728,952)"/><rect x="744" y="936" width="32" height="32" transform="rotate(0,760,952)"/><rect x="808" y="936" width="32" height="32" transform="rotate(0,824,952)"/><rect x="840" y="936" width="32" height="32" transform="rotate(0,856,952)"/><rect x="904" y="936" width="32" height="32" transform="rotate(0,920,952)"/><rect x="1032" y="936" width="32" height="32" transform="rotate(0,1048,952)"/><rect x="1064" y="936" width="32" height="32" transform="rotate(0,1080,952)"/><path d="M 264 968v 32h 32v -16a 16 16, 0, 0, 0, -16 -16" transform="rotate(180,280,984)"/><path d="M 296 968v 32h 16a 16 16, 0, 0, 0, 0 -32" transform="rotate(0,312,984)"/><path d="M 392 968v 32h 32v -16a 16 16, 0, 0, 0, -16 -16" transform="rotate(-90,408,984)"/><path d="M 424 968v 32h 32v -16a 16 16, 0, 0, 0, -16 -16" transform="rotate(0,440,984)"/><circle cx="504" cy="984" r="16" transform="rotate(0,504,984)"/><circle cx="568" cy="984" r="16" transform="rotate(0,568,984)"/><path d="M 616 968v 32h 16a 16 16, 0, 0, 0, 0 -32" transform="rotate(180,632,984)"/><path d="M 648 968v 32h 16a 16 16, 0, 0, 0, 0 -32" transform="rotate(0,664,984)"/><path d="M 744 968v 32h 16a 16 16, 0, 0, 0, 0 -32" transform="rotate(90,760,984)"/><path d="M 808 968v 32h 32v -16a 16 16, 0, 0, 0, -16 -16" transform="rotate(180,824,984)"/><rect x="840" y="968" width="32" height="32" transform="rotate(0,856,984)"/><rect x="904" y="968" width="32" height="32" transform="rotate(0,920,984)"/><circle cx="984" cy="984" r="16" transform="rotate(0,984,984)"/><rect x="1032" y="968" width="32" height="32" transform="rotate(0,1048,984)"/><rect x="1064" y="968" width="32" height="32" transform="rotate(0,1080,984)"/><path d="M 1096 968v 32h 16a 16 16, 0, 0, 0, 0 -32" transform="rotate(0,1112,984)"/><circle cx="1176" cy="984" r="16" transform="rotate(0,1176,984)"/><path d="M 328 1000v 32h 16a 16 16, 0, 0, 0, 0 -32" transform="rotate(180,344,1016)"/><rect x="360" y="1000" width="32" height="32" transform="rotate(0,376,1016)"/><rect x="392" y="1000" width="32" height="32" transform="rotate(0,408,1016)"/><rect x="424" y="1000" width="32" height="32" transform="rotate(0,440,1016)"/><path d="M 456 1000v 32h 16a 16 16, 0, 0, 0, 0 -32" transform="rotate(0,472,1016)"/><path d="M 680 1000v 32h 16a 16 16, 0, 0, 0, 0 -32" transform="rotate(-90,696,1016)"/><rect x="840" y="1000" width="32" height="32" transform="rotate(0,856,1016)"/><rect x="872" y="1000" width="32" height="32" transform="rotate(0,888,1016)"/><rect x="904" y="1000" width="32" height="32" transform="rotate(0,920,1016)"/><rect x="1032" y="1000" width="32" height="32" transform="rotate(0,1048,1016)"/><path d="M 1064 1000v 32h 32v -16a 16 16, 0, 0, 0, -16 -16" transform="rotate(90,1080,1016)"/><path d="M 296 1032v 32h 16a 16 16, 0, 0, 0, 0 -32" transform="rotate(-90,312,1048)"/><rect x="360" y="1032" width="32" height="32" transform="rotate(0,376,1048)"/><path d="M 392 1032v 32h 32v -16a 16 16, 0, 0, 0, -16 -16" transform="rotate(90,408,1048)"/><path d="M 584 1032v 32h 16a 16 16, 0, 0, 0, 0 -32" transform="rotate(-90,600,1048)"/><path d="M 648 1032v 32h 32v -16a 16 16, 0, 0, 0, -16 -16" transform="rotate(-90,664,1048)"/><rect x="680" y="1032" width="32" height="32" transform="rotate(0,696,1048)"/><path d="M 712 1032v 32h 32v -16a 16 16, 0, 0, 0, -16 -16" transform="rotate(0,728,1048)"/><path d="M 776 1032v 32h 16a 16 16, 0, 0, 0, 0 -32" transform="rotate(180,792,1048)"/><rect x="808" y="1032" width="32" height="32" transform="rotate(0,824,1048)"/><rect x="840" y="1032" width="32" height="32" transform="rotate(0,856,1048)"/><rect x="872" y="1032" width="32" height="32" transform="rotate(0,888,1048)"/><rect x="904" y="1032" width="32" height="32" transform="rotate(0,920,1048)"/><rect x="936" y="1032" width="32" height="32" transform="rotate(0,952,1048)"/><rect x="968" y="1032" width="32" height="32" transform="rotate(0,984,1048)"/><rect x="1000" y="1032" width="32" height="32" transform="rotate(0,1016,1048)"/><path d="M 1032 1032v 32h 32v -16a 16 16, 0, 0, 0, -16 -16" transform="rotate(90,1048,1048)"/><circle cx="1112" cy="1048" r="16" transform="rotate(0,1112,1048)"/><circle cx="1176" cy="1048" r="16" transform="rotate(0,1176,1048)"/><rect x="296" y="1064" width="32" height="32" transform="rotate(0,312,1080)"/><rect x="360" y="1064" width="32" height="32" transform="rotate(0,376,1080)"/><path d="M 424 1064v 32h 16a 16 16, 0, 0, 0, 0 -32" transform="rotate(180,440,1080)"/><rect x="456" y="1064" width="32" height="32" transform="rotate(0,472,1080)"/><rect x="488" y="1064" width="32" height="32" transform="rotate(0,504,1080)"/><path d="M 520 1064v 32h 16a 16 16, 0, 0, 0, 0 -32" transform="rotate(0,536,1080)"/><path d="M 584 1064v 32h 16a 16 16, 0, 0, 0, 0 -32" transform="rotate(90,600,1080)"/><rect x="648" y="1064" width="32" height="32" transform="rotate(0,664,1080)"/><rect x="680" y="1064" width="32" height="32" transform="rotate(0,696,1080)"/><path d="M 712 1064v 32h 32v -16a 16 16, 0, 0, 0, -16 -16" transform="rotate(90,728,1080)"/><rect x="840" y="1064" width="32" height="32" transform="rotate(0,856,1080)"/><path d="M 872 1064v 32h 32v -16a 16 16, 0, 0, 0, -16 -16" transform="rotate(90,888,1080)"/><path d="M 968 1064v 32h 16a 16 16, 0, 0, 0, 0 -32" transform="rotate(90,984,1080)"/><path d="M 1064 1064v 32h 16a 16 16, 0, 0, 0, 0 -32" transform="rotate(-90,1080,1080)"/><circle cx="1144" cy="1080" r="16" transform="rotate(0,1144,1080)"/><rect x="296" y="1096" width="32" height="32" transform="rotate(0,312,1112)"/><rect x="328" y="1096" width="32" height="32" transform="rotate(0,344,1112)"/><rect x="360" y="1096" width="32" height="32" transform="rotate(0,376,1112)"/><path d="M 392 1096v 32h 16a 16 16, 0, 0, 0, 0 -32" transform="rotate(0,408,1112)"/><rect x="456" y="1096" width="32" height="32" transform="rotate(0,472,1112)"/><path d="M 648 1096v 32h 32v -16a 16 16, 0, 0, 0, -16 -16" transform="rotate(180,664,1112)"/><path d="M 680 1096v 32h 32v -16a 16 16, 0, 0, 0, -16 -16" transform="rotate(90,696,1112)"/><path d="M 744 1096v 32h 32v -16a 16 16, 0, 0, 0, -16 -16" transform="rotate(-90,760,1112)"/><path d="M 776 1096v 32h 16a 16 16, 0, 0, 0, 0 -32" transform="rotate(0,792,1112)"/><rect x="840" y="1096" width="32" height="32" transform="rotate(0,856,1112)"/><circle cx="952" cy="1112" r="16" transform="rotate(0,952,1112)"/><circle cx="1016" cy="1112" r="16" transform="rotate(0,1016,1112)"/><rect x="1064" y="1096" width="32" height="32" transform="rotate(0,1080,1112)"/><path d="M 1160 1096v 32h 16a 16 16, 0, 0, 0, 0 -32" transform="rotate(-90,1176,1112)"/><path d="M 264 1128v 32h 16a 16 16, 0, 0, 0, 0 -32" transform="rotate(180,280,1144)"/><rect x="296" y="1128" width="32" height="32" transform="rotate(0,312,1144)"/><path d="M 424 1128v 32h 16a 16 16, 0, 0, 0, 0 -32" transform="rotate(180,440,1144)"/><rect x="456" y="1128" width="32" height="32" transform="rotate(0,472,1144)"/><rect x="488" y="1128" width="32" height="32" transform="rotate(0,504,1144)"/><rect x="520" y="1128" width="32" height="32" transform="rotate(0,536,1144)"/><path d="M 552 1128v 32h 32v -16a 16 16, 0, 0, 0, -16 -16" transform="rotate(0,568,1144)"/><path d="M 712 1128v 32h 16a 16 16, 0, 0, 0, 0 -32" transform="rotate(180,728,1144)"/><path d="M 744 1128v 32h 32v -16a 16 16, 0, 0, 0, -16 -16" transform="rotate(90,760,1144)"/><path d="M 840 1128v 32h 16a 16 16, 0, 0, 0, 0 -32" transform="rotate(90,856,1144)"/><path d="M 904 1128v 32h 16a 16 16, 0, 0, 0, 0 -32" transform="rotate(-90,920,1144)"/><circle cx="984" cy="1144" r="16" transform="rotate(0,984,1144)"/><path d="M 1032 1128v 32h 32v -16a 16 16, 0, 0, 0, -16 -16" transform="rotate(-90,1048,1144)"/><path d="M 1064 1128v 32h 32v -16a 16 16, 0, 0, 0, -16 -16" transform="rotate(90,1080,1144)"/><rect x="1160" y="1128" width="32" height="32" transform="rotate(0,1176,1144)"/><path d="M 296 1160v 32h 16a 16 16, 0, 0, 0, 0 -32" transform="rotate(90,312,1176)"/><circle cx="376" cy="1176" r="16" transform="rotate(0,376,1176)"/><path d="M 552 1160v 32h 32v -16a 16 16, 0, 0, 0, -16 -16" transform="rotate(180,568,1176)"/><rect x="584" y="1160" width="32" height="32" transform="rotate(0,600,1176)"/><rect x="616" y="1160" width="32" height="32" transform="rotate(0,632,1176)"/><path d="M 648 1160v 32h 16a 16 16, 0, 0, 0, 0 -32" transform="rotate(0,664,1176)"/><circle cx="792" cy="1176" r="16" transform="rotate(0,792,1176)"/><path d="M 904 1160v 32h 16a 16 16, 0, 0, 0, 0 -32" transform="rotate(90,920,1176)"/><path d="M 1000 1160v 32h 16a 16 16, 0, 0, 0, 0 -32" transform="rotate(180,1016,1176)"/><path d="M 1032 1160v 32h 32v -16a 16 16, 0, 0, 0, -16 -16" transform="rotate(90,1048,1176)"/><path d="M 1160 1160v 32h 16a 16 16, 0, 0, 0, 0 -32" transform="rotate(90,1176,1176)"/></clipPath><clipPath id="clip-path-corners-square-color-0-0-759"><path clip-rule="evenodd" d="M 8 88v 64a 80 80, 0, 0, 0, 80 80h 64a 80 80, 0, 0, 0, 80 -80v -64a 80 80, 0, 0, 0, -80 -80h -64a 80 80, 0, 0, 0, -80 80M 88 40h 64a 48 48, 0, 0, 1, 48 48v 64a 48 48, 0, 0, 1, -48 48h -64a 48 48, 0, 0, 1, -48 -48v -64a 48 48, 0, 0, 1, 48 -48" transform="rotate(0,120,120)"/></clipPath><clipPath id="clip-path-corners-dot-color-0-0-759"><circle cx="120" cy="120" r="48" transform="rotate(0,120,120)"/></clipPath><clipPath id="clip-path-corners-square-color-1-0-759"><path clip-rule="evenodd" d="M 968 88v 64a 80 80, 0, 0, 0, 80 80h 64a 80 80, 0, 0, 0, 80 -80v -64a 80 80, 0, 0, 0, -80 -80h -64a 80 80, 0, 0, 0, -80 80M 1048 40h 64a 48 48, 0, 0, 1, 48 48v 64a 48 48, 0, 0, 1, -48 48h -64a 48 48, 0, 0, 1, -48 -48v -64a 48 48, 0, 0, 1, 48 -48" transform="rotate(90,1080,120)"/></clipPath><clipPath id="clip-path-corners-dot-color-1-0-759"><circle cx="1080" cy="120" r="48" transform="rotate(90,1080,120)"/></clipPath><clipPath id="clip-path-corners-square-color-0-1-759"><path clip-rule="evenodd" d="M 8 1048v 64a 80 80, 0, 0, 0, 80 80h 64a 80 80, 0, 0, 0, 80 -80v -64a 80 80, 0, 0, 0, -80 -80h -64a 80 80, 0, 0, 0, -80 80M 88 1000h 64a 48 48, 0, 0, 1, 48 48v 64a 48 48, 0, 0, 1, -48 48h -64a 48 48, 0, 0, 1, -48 -48v -64a 48 48, 0, 0, 1, 48 -48" transform="rotate(-90,120,1080)"/></clipPath><clipPath id="clip-path-corners-dot-color-0-1-759"><circle cx="120" cy="1080" r="48" transform="rotate(-90,120,1080)"/></clipPath></defs><rect x="0" y="0" height="1200" width="1200" clip-path="url('#clip-path-background-color-759')" fill="#ffffff"/><rect x="0" y="0" height="1200" width="1200" clip-path="url('#clip-path-dot-color-759')" fill="#000000"/><rect x="8" y="8" height="224" width="224" clip-path="url('#clip-path-corners-square-color-0-0-759')" fill="#000000"/><rect x="72" y="72" height="96" width="96" clip-path="url('#clip-path-corners-dot-color-0-0-759')" fill="#000000"/><rect x="968" y="8" height="224" width="224" clip-path="url('#clip-path-corners-square-color-1-0-759')" fill="#000000"/><rect x="1032" y="72" height="96" width="96" clip-path="url('#clip-path-corners-dot-color-1-0-759')" fill="#000000"/><rect x="8" y="968" height="224" width="224" clip-path="url('#clip-path-corners-square-color-0-1-759')" fill="#000000"/><rect x="72" y="1032" height="96" width="96" clip-path="url('#clip-path-corners-dot-color-0-1-759')" fill="#000000"/></svg>