<?xml version="1.0" standalone="no"?>
<svg xmlns="http://www.w3.org/2000/svg" width="1200" height="1200" xmlns:xlink="http://www.w3.org/1999/xlink" viewBox="0 0 1200 1200"><defs><clipPath id="clip-path-background-color-763"><rect x="0" y="0" width="1200" height="1200"/></clipPath><clipPath id="clip-path-dot-color-763"><circle cx="280" cy="24" r="16" transform="rotate(0,280,24)"/><path d="M 392 8v 32h 32v -16a 16 16, 0, 0, 0, -16 -16" transform="rotate(-90,408,24)"/><rect x="424" y="8" width="32" height="32" transform="rotate(0,440,24)"/><path d="M 456 8v 32h 32v -16a 16 16, 0, 0, 0, -16 -16" transform="rotate(0,472,24)"/><circle cx="536" cy="24" r="16" transform="rotate(0,536,24)"/><path d="M 584 8v 32h 16a 16 16, 0, 0, 0, 0 -32" transform="rotate(-90,600,24)"/><path d="M 648 8v 32h 32v -16a 16 16, 0, 0, 0, -16 -16" transform="rotate(-90,664,24)"/><path d="M 680 8v 32h 32v -16a 16 16, 0, 0, 0, -16 -16" transform="rotate(0,696,24)"/><path d="M 328 40v 32h 32v -16a 16 16, 0, 0, 0, -16 -16" transform="rotate(-90,344,56)"/><rect x="360" y="40" width="32" height="32" transform="rotate(0,376,56)"/><rect x="392" y="40" width="32" height="32" transform="rotate(0,408,56)"/><rect x="424" y="40" width="32" height="32" transform="rotate(0,440,56)"/><rect x="456" y="40" width="32" height="32" transform="rotate(0,472,56)"/><path d="M 584 40v 32h 16a 16 16, 0, 0, 0, 0 -32" transform="rotate(90,600,56)"/><path d="M 648 40v 32h 32v -16a 16 16, 0, 0, 0, -16 -16" transform="rotate(180,664,56)"/><rect x="680" y="40" width="32" height="32" transform="rotate(0,696,56)"/><rect x="712" y="40" width="32" height="32" transform="rotate(0,728,56)"/><rect x="744" y="40" width="32" height="32" transform="rotate(0,760,56)"/><rect x="776" y="40" width="32" height="32" transform="rotate(0,792,56)"/><path d="M 808 40v 32h 16a 16 16, 0, 0, 0, 0 -32" transform="rotate(0,824,56)"/><path d="M 872 40v 32h 32v -16a 16 16, 0, 0, 0, -16 -16" transform="rotate(-90,888,56)"/><path d="M 904 40v 32h 32v -16a 16 16, 0, 0, 0, -16 -16" transform="rotate(0,920,56)"/><path d="M 296 72v 32h 16a 16 16, 0, 0, 0, 0 -32" transform="rotate(180,312,88)"/><rect x="328" y="72" width="32" height="32" transform="rotate(0,344,88)"/><rect x="360" y="72" width="32" height="32" transform="rotate(0,376,88)"/><path d="M 456 72v 32h 32v -16a 16 16, 0, 0, 0, -16 -16" transform="rotate(180,472,88)"/><path d="M 488 72v 32h 16a 16 16, 0, 0, 0, 0 -32" transform="rotate(0,504,88)"/><path d="M 616 72v 32h 16a 16 16, 0, 0, 0, 0 -32" transform="rotate(-90,632,88)"/><path d="M 680 72v 32h 16a 16 16, 0, 0, 0, 0 -32" transform="rotate(90,696,88)"/><rect x="744" y="72" width="32" height="32" transform="rotate(0,760,88)"/><path d="M 840 72v 32h 32v -16a 16 16, 0, 0, 0, -16 -16" transform="rotate(-90,856,88)"/><rect x="872" y="72" width="32" height="32" transform="rotate(0,888,88)"/><path d="M 904 72v 32h 32v -16a 16 16, 0, 0, 0, -16 -16" transform="rotate(90,920,88)"/><path d="M 328 104v 32h 32v -16a 16 16, 0, 0, 0, -16 -16" transform="rotate(180,344,120)"/><path d="M 360 104v 32h 32v -16a 16 16, 0, 0, 0, -16 -16" transform="rotate(90,376,120)"/><path d="M 520 104v 32h 16a 16 16, 0, 0, 0, 0 -32" transform="rotate(-90,536,120)"/><path d="M 616 104v 32h 32v -16a 16 16, 0, 0, 0, -16 -16" transform="rotate(180,632,120)"/><path d="M 648 104v 32h 16a 16 16, 0, 0, 0, 0 -32" transform="rotate(0,664,120)"/><path d="M 712 104v 32h 32v -16a 16 16, 0, 0, 0, -16 -16" transform="rotate(-90,728,120)"/><rect x="744" y="104" width="32" height="32" transform="rotate(0,760,120)"/><path d="M 808 104v 32h 16a 16 16, 0, 0, 0, 0 -32" transform="rotate(180,824,120)"/><path d="M 840 104v 32h 32v -16a 16 16, 0, 0, 0, -16 -16" transform="rotate(90,856,120)"/><path d="M 264 136v 32h 16a 16 16, 0, 0, 0, 0 -32" transform="rotate(-90,280,152)"/><path d="M 456 136v 32h 16a 16 16, 0, 0, 0, 0 -32" transform="rotate(-90,472,152)"/><rect x="520" y="136" width="32" height="32" transform="rotate(0,536,152)"/><path d="M 552 136v 32h 32v -16a 16 16, 0, 0, 0, -16 -16" transform="rotate(0,568,152)"/><path d="M 680 136v 32h 32v -16a 16 16, 0, 0, 0, -16 -16" transform="rotate(-90,696,152)"/><rect x="712" y="136" width="32" height="32" transform="rotate(0,728,152)"/><path d="M 744 136v 32h 32v -16a 16 16, 0, 0, 0, -16 -16" transform="rotate(90,760,152)"/><rect x="264" y="168" width="32" height="32" transform="rotate(0,280,184)"/><circle cx="376" cy="184" r="16" transform="rotate(0,376,184)"/><path d="M 424 168v 32h 16a 16 16, 0, 0, 0, 0 -32" transform="rotate(180,440,184)"/><rect x="456" y="168" width="32" height="32" transform="rotate(0,472,184)"/><rect x="488" y="168" width="32" height="32" transform="rotate(0,504,184)"/><rect x="520" y="168" width="32" height="32" transform="rotate(0,536,184)"/><rect x="552" y="168" width="32" height="32" transform="rotate(0,568,184)"/><path d="M 584 168v 32h 32v -16a 16 16, 0, 0, 0, -16 -16" transform="rotate(0,600,184)"/><path d="M 648 168v 32h 32v -16a 16 16, 0, 0, 0, -16 -16" transform="rotate(-90,664,184)"/><rect x="680" y="168" width="32" height="32" transform="rotate(0,696,184)"/><rect x="712" y="168" width="32" height="32" transform="rotate(0,728,184)"/><path d="M 840 168v 32h 32v -16a 16 16, 0, 0, 0, -16 -16" transform="rotate(-90,856,184)"/><rect x="872" y="168" width="32" height="32" transform="rotate(0,888,184)"/><path d="M 904 168v 32h 32v -16a 16 16, 0, 0, 0, -16 -16" transform="rotate(0,920,184)"/><path d="M 264 200v 32h 16a 16 16, 0, 0, 0, 0 -32" transform="rotate(90,280,216)"/><circle cx="344" cy="216" r="16" transform="rotate(0,344,216)"/><path d="M 392 200v 32h 16a 16 16, 0, 0, 0, 0 -32" transform="rotate(-90,408,216)"/><rect x="456" y="200" width="32" height="32" transform="rotate(0,472,216)"/><path d="M 520 200v 32h 16a 16 16, 0, 0, 0, 0 -32" transform="rotate(90,536,216)"/><rect x="584" y="200" width="32" height="32" transform="rotate(0,600,216)"/><rect x="648" y="200" width="32" height="32" transform="rotate(0,664,216)"/><rect x="712" y="200" width="32" height="32" transform="rotate(0,728,216)"/><circle cx="792" cy="216" r="16" transform="rotate(0,792,216)"/><rect x="840" y="200" width="32" height="32" transform="rotate(0,856,216)"/><rect x="904" y="200" width="32" height="32" transform="rotate(0,920,216)"/><circle cx="312" cy="248" r="16" transform="rotate(0,312,248)"/><path d="M 360 232v 32h 16a 16 16, 0, 0, 0, 0 -32" transform="rotate(180,376,248)"/><rect x="392" y="232" width="32" height="32" transform="rotate(0,408,248)"/><rect x="424" y="232" width="32" height="32" transform="rotate(0,440,248)"/><rect x="456" y="232" width="32" height="32" transform="rotate(0,472,248)"/><path d="M 488 232v 32h 32v -16a 16 16, 0, 0, 0, -16 -16" transform="rotate(0,504,248)"/><rect x="584" y="232" width="32" height="32" transform="rotate(0,600,248)"/><rect x="648" y="232" width="32" height="32" transform="rotate(0,664,248)"/><rect x="680" y="232" width="32" height="32" transform="rotate(0,696,248)"/><rect x="712" y="232" width="32" height="32" transform="rotate(0,728,248)"/><rect x="840" y="232" width="32" height="32" transform="rotate(0,856,248)"/><path d="M 904 232v 32h 16a 16 16, 0, 0, 0, 0 -32" transform="rotate(90,920,248)"/><path d="M 40 264v 32h 32v -16a 16 16, 0, 0, 0, -16 -16" transform="rotate(-90,56,280)"/><rect x="72" y="264" width="32" height="32" transform="rotate(0,88,280)"/><rect x="104" y="264" width="32" height="32" transform="rotate(0,120,280)"/><rect x="136" y="264" width="32" height="32" transform="rotate(0,152,280)"/><rect x="168" y="264" width="32" height="32" transform="rotate(0,184,280)"/><rect x="200" y="264" width="32" height="32" transform="rotate(0,216,280)"/><path d="M 232 264v 32h 32v -16a 16 16, 0, 0, 0, -16 -16" transform="rotate(0,248,280)"/><path d="M 392 264v 32h 32v -16a 16 16, 0, 0, 0, -16 -16" transform="rotate(180,408,280)"/><rect x="424" y="264" width="32" height="32" transform="rotate(0,440,280)"/><path d="M 488 264v 32h 16a 16 16, 0, 0, 0, 0 -32" transform="rotate(90,504,280)"/><path d="M 552 264v 32h 32v -16a 16 16, 0, 0, 0, -16 -16" transform="rotate(-90,568,280)"/><rect x="584" y="264" width="32" height="32" transform="rotate(0,600,280)"/><rect x="616" y="264" width="32" height="32" transform="rotate(0,632,280)"/><path d="M 648 264v 32h 32v -16a 16 16, 0, 0, 0, -16 -16" transform="rotate(90,664,280)"/><rect x="712" y="264" width="32" height="32" transform="rotate(0,728,280)"/><rect x="744" y="264" width="32" height="32" transform="rotate(0,760,280)"/><rect x="776" y="264" width="32" height="32" transform="rotate(0,792,280)"/><rect x="808" y="264" width="32" height="32" transform="rotate(0,824,280)"/><rect x="840" y="264" width="32" height="32" transform="rotate(0,856,280)"/><path d="M 1000 264v 32h 32v -16a 16 16, 0, 0, 0, -16 -16" transform="rotate(-90,1016,280)"/><path d="M 1032 264v 32h 16a 16 16, 0, 0, 0, 0 -32" transform="rotate(0,1048,280)"/><circle cx="1176" cy="280" r="16" transform="rotate(0,1176,280)"/><path d="M 40 296v 32h 32v -16a 16 16, 0, 0, 0, -16 -16" transform="rotate(180,56,312)"/><rect x="72" y="296" width="32" height="32" transform="rotate(0,88,312)"/><path d="M 136 296v 32h 16a 16 16, 0, 0, 0, 0 -32" transform="rotate(90,152,312)"/><path d="M 232 296v 32h 32v -16a 16 16, 0, 0, 0, -16 -16" transform="rotate(180,248,312)"/><path d="M 264 296v 32h 32v -16a 16 16, 0, 0, 0, -16 -16" transform="rotate(0,280,312)"/><path d="M 328 296v 32h 32v -16a 16 16, 0, 0, 0, -16 -16" transform="rotate(-90,344,312)"/><path d="M 360 296v 32h 16a 16 16, 0, 0, 0, 0 -32" transform="rotate(0,376,312)"/><rect x="424" y="296" width="32" height="32" transform="rotate(0,440,312)"/><path d="M 552 296v 32h 16a 16 16, 0, 0, 0, 0 -32" transform="rotate(90,568,312)"/><rect x="616" y="296" width="32" height="32" transform="rotate(0,632,312)"/><path d="M 680 296v 32h 32v -16a 16 16, 0, 0, 0, -16 -16" transform="rotate(-90,696,312)"/><rect x="712" y="296" width="32" height="32" transform="rotate(0,728,312)"/><path d="M 744 296v 32h 32v -16a 16 16, 0, 0, 0, -16 -16" transform="rotate(90,760,312)"/><rect x="808" y="296" width="32" height="32" transform="rotate(0,824,312)"/><rect x="840" y="296" width="32" height="32" transform="rotate(0,856,312)"/><path d="M 904 296v 32h 32v -16a 16 16, 0, 0, 0, -16 -16" transform="rotate(-90,920,312)"/><path d="M 936 296v 32h 16a 16 16, 0, 0, 0, 0 -32" transform="rotate(0,952,312)"/><path d="M 1000 296v 32h 16a 16 16, 0, 0, 0, 0 -32" transform="rotate(90,1016,312)"/><path d="M 1096 296v 32h 16a 16 16, 0, 0, 0, 0 -32" transform="rotate(-90,1112,312)"/><rect x="72" y="328" width="32" height="32" transform="rotate(0,88,344)"/><path d="M 168 328v 32h 32v -16a 16 16, 0, 0, 0, -16 -16" transform="rotate(-90,184,344)"/><path d="M 200 328v 32h 16a 16 16, 0, 0, 0, 0 -32" transform="rotate(0,216,344)"/><rect x="264" y="328" width="32" height="32" transform="rotate(0,280,344)"/><path d="M 328 328v 32h 16a 16 16, 0, 0, 0, 0 -32" transform="rotate(90,344,344)"/><rect x="424" y="328" width="32" height="32" transform="rotate(0,440,344)"/><path d="M 456 328v 32h 16a 16 16, 0, 0, 0, 0 -32" transform="rotate(0,472,344)"/><path d="M 616 328v 32h 32v -16a 16 16, 0, 0, 0, -16 -16" transform="rotate(180,632,344)"/><rect x="648" y="328" width="32" height="32" transform="rotate(0,664,344)"/><rect x="680" y="328" width="32" height="32" transform="rotate(0,696,344)"/><path d="M 808 328v 32h 32v -16a 16 16, 0, 0, 0, -16 -16" transform="rotate(180,824,344)"/><rect x="840" y="328" width="32" height="32" transform="rotate(0,856,344)"/><rect x="872" y="328" width="32" height="32" transform="rotate(0,888,344)"/><path d="M 904 328v 32h 32v -16a 16 16, 0, 0, 0, -16 -16" transform="rotate(90,920,344)"/><path d="M 968 328v 32h 16a 16 16, 0, 0, 0, 0 -32" transform="rotate(-90,984,344)"/><circle cx="1048" cy="344" r="16" transform="rotate(0,1048,344)"/><path d="M 1096 328v 32h 32v -16a 16 16, 0, 0, 0, -16 -16" transform="rotate(180,1112,344)"/><rect x="1128" y="328" width="32" height="32" transform="rotate(0,1144,344)"/><path d="M 1160 328v 32h 16a 16 16, 0, 0, 0, 0 -32" transform="rotate(0,1176,344)"/><path d="M 40 360v 32h 32v -16a 16 16, 0, 0, 0, -16 -16" transform="rotate(-90,56,376)"/><rect x="72" y="360" width="32" height="32" transform="rotate(0,88,376)"/><rect x="168" y="360" width="32" height="32" transform="rotate(0,184,376)"/><path d="M 264 360v 32h 32v -16a 16 16, 0, 0, 0, -16 -16" transform="rotate(180,280,376)"/><path d="M 296 360v 32h 32v -16a 16 16, 0, 0, 0, -16 -16" transform="rotate(0,312,376)"/><path d="M 392 360v 32h 16a 16 16, 0, 0, 0, 0 -32" transform="rotate(180,408,376)"/><path d="M 424 360v 32h 32v -16a 16 16, 0, 0, 0, -16 -16" transform="rotate(90,440,376)"/><path d="M 488 360v 32h 16a 16 16, 0, 0, 0, 0 -32" transform="rotate(-90,504,376)"/><path d="M 552 360v 32h 32v -16a 16 16, 0, 0, 0, -16 -16" transform="rotate(-90,568,376)"/><path d="M 584 360v 32h 32v -16a 16 16, 0, 0, 0, -16 -16" transform="rotate(0,600,376)"/><rect x="648" y="360" width="32" height="32" transform="rotate(0,664,376)"/><path d="M 680 360v 32h 32v -16a 16 16, 0, 0, 0, -16 -16" transform="rotate(90,696,376)"/><path d="M 744 360v 32h 16a 16 16, 0, 0, 0, 0 -32" transform="rotate(180,760,376)"/><path d="M 776 360v 32h 16a 16 16, 0, 0, 0, 0 -32" transform="rotate(0,792,376)"/><rect x="840" y="360" width="32" height="32" transform="rotate(0,856,376)"/><rect x="968" y="360" width="32" height="32" transform="rotate(0,984,376)"/><path d="M 1128 360v 32h 16a 16 16, 0, 0, 0, 0 -32" transform="rotate(90,1144,376)"/><path d="M 8 392v 32h 16a 16 16, 0, 0, 0, 0 -32" transform="rotate(180,24,408)"/><rect x="40" y="392" width="32" height="32" transform="rotate(0,56,408)"/><rect x="72" y="392" width="32" height="32" transform="rotate(0,88,408)"/><rect x="104" y="392" width="32" height="32" transform="rotate(0,120,408)"/><rect x="136" y="392" width="32" height="32" transform="rotate(0,152,408)"/><rect x="168" y="392" width="32" height="32" transform="rotate(0,184,408)"/><path d="M 200 392v 32h 16a 16 16, 0, 0, 0, 0 -32" transform="rotate(0,216,408)"/><rect x="296" y="392" width="32" height="32" transform="rotate(0,312,408)"/><rect x="328" y="392" width="32" height="32" transform="rotate(0,344,408)"/><path d="M 360 392v 32h 16a 16 16, 0, 0, 0, 0 -32" transform="rotate(0,376,408)"/><path d="M 488 392v 32h 32v -16a 16 16, 0, 0, 0, -16 -16" transform="rotate(180,504,408)"/><rect x="520" y="392" width="32" height="32" transform="rotate(0,536,408)"/><rect x="552" y="392" width="32" height="32" transform="rotate(0,568,408)"/><rect x="584" y="392" width="32" height="32" transform="rotate(0,600,408)"/><path d="M 648 392v 32h 16a 16 16, 0, 0, 0, 0 -32" transform="rotate(90,664,408)"/><circle cx="728" cy="408" r="16" transform="rotate(0,728,408)"/><path d="M 808 392v 32h 32v -16a 16 16, 0, 0, 0, -16 -16" transform="rotate(-90,824,408)"/><path d="M 840 392v 32h 32v -16a 16 16, 0, 0, 0, -16 -16" transform="rotate(90,856,408)"/><path d="M 936 392v 32h 32v -16a 16 16, 0, 0, 0, -16 -16" transform="rotate(-90,952,408)"/><path d="M 968 392v 32h 32v -16a 16 16, 0, 0, 0, -16 -16" transform="rotate(90,984,408)"/><circle cx="1048" cy="408" r="16" transform="rotate(0,1048,408)"/><path d="M 1096 392v 32h 16a 16 16, 0, 0, 0, 0 -32" transform="rotate(-90,1112,408)"/><circle cx="1176" cy="408" r="16" transform="rotate(0,1176,408)"/><path d="M 72 424v 32h 16a 16 16, 0, 0, 0, 0 -32" transform="rotate(90,88,440)"/><path d="M 264 424v 32h 32v -16a 16 16, 0, 0, 0, -16 -16" transform="rotate(-90,280,440)"/><path d="M 296 424v 32h 32v -16a 16 16, 0, 0, 0, -16 -16" transform="rotate(90,312,440)"/><circle cx="408" cy="440" r="16" transform="rotate(0,408,440)"/><path d="M 456 424v 32h 16a 16 16, 0, 0, 0, 0 -32" transform="rotate(-90,472,440)"/><rect x="584" y="424" width="32" height="32" transform="rotate(0,600,440)"/><path d="M 616 424v 32h 32v -16a 16 16, 0, 0, 0, -16 -16" transform="rotate(0,632,440)"/><path d="M 680 424v 32h 16a 16 16, 0, 0, 0, 0 -32" transform="rotate(-90,696,440)"/><circle cx="760" cy="440" r="16" transform="rotate(0,760,440)"/><rect x="808" y="424" width="32" height="32" transform="rotate(0,824,440)"/><path d="M 904 424v 32h 32v -16a 16 16, 0, 0, 0, -16 -16" transform="rotate(-90,920,440)"/><rect x="936" y="424" width="32" height="32" transform="rotate(0,952,440)"/><path d="M 1064 424v 32h 32v -16a 16 16, 0, 0, 0, -16 -16" transform="rotate(-90,1080,440)"/><path d="M 1096 424v 32h 32v -16a 16 16, 0, 0, 0, -16 -16" transform="rotate(90,1112,440)"/><circle cx="24" cy="472" r="16" transform="rotate(0,24,472)"/><circle cx="120" cy="472" r="16" transform="rotate(0,120,472)"/><path d="M 168 456v 32h 16a 16 16, 0, 0, 0, 0 -32" transform="rotate(180,184,472)"/><rect x="200" y="456" width="32" height="32" transform="rotate(0,216,472)"/><rect x="232" y="456" width="32" height="32" transform="rotate(0,248,472)"/><path d="M 264 456v 32h 32v -16a 16 16, 0, 0, 0, -16 -16" transform="rotate(90,280,472)"/><path d="M 328 456v 32h 16a 16 16, 0, 0, 0, 0 -32" transform="rotate(180,344,472)"/><path d="M 360 456v 32h 16a 16 16, 0, 0, 0, 0 -32" transform="rotate(0,376,472)"/><rect x="456" y="456" width="32" height="32" transform="rotate(0,472,472)"/><path d="M 520 456v 32h 16a 16 16, 0, 0, 0, 0 -32" transform="rotate(-90,536,472)"/><rect x="584" y="456" width="32" height="32" transform="rotate(0,600,472)"/><rect x="616" y="456" width="32" height="32" transform="rotate(0,632,472)"/><rect x="648" y="456" width="32" height="32" transform="rotate(0,664,472)"/><rect x="680" y="456" width="32" height="32" transform="rotate(0,696,472)"/><path d="M 776 456v 32h 16a 16 16, 0, 0, 0, 0 -32" transform="rotate(180,792,472)"/><rect x="808" y="456" width="32" height="32" transform="rotate(0,824,472)"/><rect x="840" y="456" width="32" height="32" transform="rotate(0,856,472)"/><rect x="872" y="456" width="32" height="32" transform="rotate(0,888,472)"/><rect x="904" y="456" width="32" height="32" transform="rotate(0,920,472)"/><path d="M 936 456v 32h 32v -16a 16 16, 0, 0, 0, -16 -16" transform="rotate(90,952,472)"/><path d="M 1064 456v 32h 16a 16 16, 0, 0, 0, 0 -32" transform="rotate(90,1080,472)"/><path d="M 1128 456v 32h 32v -16a 16 16, 0, 0, 0, -16 -16" transform="rotate(-90,1144,472)"/><path d="M 1160 456v 32h 32v -16a 16 16, 0, 0, 0, -16 -16" transform="rotate(0,1176,472)"/><circle cx="88" cy="504" r="16" transform="rotate(0,88,504)"/><path d="M 232 488v 32h 16a 16 16, 0, 0, 0, 0 -32" transform="rotate(90,248,504)"/><path d="M 296 488v 32h 16a 16 16, 0, 0, 0, 0 -32" transform="rotate(-90,312,504)"/><rect x="456" y="488" width="32" height="32" transform="rotate(0,472,504)"/><path d="M 520 488v 32h 16a 16 16, 0, 0, 0, 0 -32" transform="rotate(90,536,504)"/><path d="M 584 488v 32h 16a 16 16, 0, 0, 0, 0 -32" transform="rotate(90,600,504)"/><rect x="680" y="488" width="32" height="32" transform="rotate(0,696,504)"/><path d="M 712 488v 32h 16a 16 16, 0, 0, 0, 0 -32" transform="rotate(0,728,504)"/><rect x="840" y="488" width="32" height="32" transform="rotate(0,856,504)"/><path d="M 872 488v 32h 32v -16a 16 16, 0, 0, 0, -16 -16" transform="rotate(90,888,504)"/><circle cx="1016" cy="504" r="16" transform="rotate(0,1016,504)"/><rect x="1128" y="488" width="32" height="32" transform="rotate(0,1144,504)"/><rect x="1160" y="488" width="32" height="32" transform="rotate(0,1176,504)"/><circle cx="216" cy="536" r="16" transform="rotate(0,216,536)"/><path d="M 264 520v 32h 16a 16 16, 0, 0, 0, 0 -32" transform="rotate(180,280,536)"/><rect x="296" y="520" width="32" height="32" transform="rotate(0,312,536)"/><path d="M 328 520v 32h 32v -16a 16 16, 0, 0, 0, -16 -16" transform="rotate(0,344,536)"/><path d="M 456 520v 32h 32v -16a 16 16, 0, 0, 0, -16 -16" transform="rotate(180,472,536)"/><path d="M 488 520v 32h 16a 16 16, 0, 0, 0, 0 -32" transform="rotate(0,504,536)"/><path d="M 552 520v 32h 16a 16 16, 0, 0, 0, 0 -32" transform="rotate(-90,568,536)"/><path d="M 648 520v 32h 16a 16 16, 0, 0, 0, 0 -32" transform="rotate(180,664,536)"/><rect x="680" y="520" width="32" height="32" transform="rotate(0,696,536)"/><circle cx="760" cy="536" r="16" transform="rotate(0,760,536)"/><path d="M 808 520v 32h 32v -16a 16 16, 0, 0, 0, -16 -16" transform="rotate(-90,824,536)"/><path d="M 840 520v 32h 32v -16a 16 16, 0, 0, 0, -16 -16" transform="rotate(90,856,536)"/><path d="M 936 520v 32h 16a 16 16, 0, 0, 0, 0 -32" transform="rotate(180,952,536)"/><path d="M 968 520v 32h 16a 16 16, 0, 0, 0, 0 -32" transform="rotate(0,984,536)"/><circle cx="1048" cy="536" r="16" transform="rotate(0,1048,536)"/><path d="M 1096 520v 32h 16a 16 16, 0, 0, 0, 0 -32" transform="rotate(180,1112,536)"/><rect x="1128" y="520" width="32" height="32" transform="rotate(0,1144,536)"/><path d="M 1160 520v 32h 32v -16a 16 16, 0, 0, 0, -16 -16" transform="rotate(90,1176,536)"/><path d="M 72 552v 32h 16a 16 16, 0, 0, 0, 0 -32" transform="rotate(-90,88,568)"/><path d="M 136 552v 32h 32v -16a 16 16, 0, 0, 0, -16 -16" transform="rotate(-90,152,568)"/><path d="M 168 552v 32h 32v -16a 16 16, 0, 0, 0, -16 -16" transform="rotate(0,184,568)"/><path d="M 296 552v 32h 32v -16a 16 16, 0, 0, 0, -16 -16" transform="rotate(180,312,568)"/><rect x="328" y="552" width="32" height="32" transform="rotate(0,344,568)"/><path d="M 552 552v 32h 16a 16 16, 0, 0, 0, 0 -32" transform="rotate(90,568,568)"/><circle cx="632" cy="568" r="16" transform="rotate(0,632,568)"/><rect x="680" y="552" width="32" height="32" transform="rotate(0,696,568)"/><path d="M 712 552v 32h 32v -16a 16 16, 0, 0, 0, -16 -16" transform="rotate(0,728,568)"/><path d="M 776 552v 32h 16a 16 16, 0, 0, 0, 0 -32" transform="rotate(180,792,568)"/><rect x="808" y="552" width="32" height="32" transform="rotate(0,824,568)"/><path d="M 904 552v 32h 16a 16 16, 0, 0, 0, 0 -32" transform="rotate(-90,920,568)"/><path d="M 40 584v 32h 16a 16 16, 0, 0, 0, 0 -32" transform="rotate(180,56,600)"/><rect x="72" y="584" width="32" height="32" transform="rotate(0,88,600)"/><path d="M 136 584v 32h 32v -16a 16 16, 0, 0, 0, -16 -16" transform="rotate(180,152,600)"/><rect x="168" y="584" width="32" height="32" transform="rotate(0,184,600)"/><rect x="200" y="584" width="32" height="32" transform="rotate(0,216,600)"/><rect x="232" y="584" width="32" height="32" transform="rotate(0,248,600)"/><path d="M 264 584v 32h 16a 16 16, 0, 0, 0, 0 -32" transform="rotate(0,280,600)"/><path d="M 328 584v 32h 32v -16a 16 16, 0, 0, 0, -16 -16" transform="rotate(180,344,600)"/><rect x="360" y="584" width="32" height="32" transform="rotate(0,376,600)"/><path d="M 392 584v 32h 16a 16 16, 0, 0, 0, 0 -32" transform="rotate(0,408,600)"/><path d="M 488 584v 32h 32v -16a 16 16, 0, 0, 0, -16 -16" transform="rotate(-90,504,600)"/><path d="M 520 584v 32h 32v -16a 16 16, 0, 0, 0, -16 -16" transform="rotate(0,536,600)"/><rect x="680" y="584" width="32" height="32" transform="rotate(0,696,600)"/><rect x="712" y="584" width="32" height="32" transform="rotate(0,728,600)"/><path d="M 808 584v 32h 16a 16 16, 0, 0, 0, 0 -32" transform="rotate(90,824,600)"/><path d="M 872 584v 32h 16a 16 16, 0, 0, 0, 0 -32" transform="rotate(180,888,600)"/><rect x="904" y="584" width="32" height="32" transform="rotate(0,920,600)"/><path d="M 936 584v 32h 32v -16a 16 16, 0, 0, 0, -16 -16" transform="rotate(0,952,600)"/><circle cx="1016" cy="600" r="16" transform="rotate(0,1016,600)"/><path d="M 1064 584v 32h 16a 16 16, 0, 0, 0, 0 -32" transform="rotate(180,1080,600)"/><rect x="1096" y="584" width="32" height="32" transform="rotate(0,1112,600)"/><rect x="1128" y="584" width="32" height="32" transform="rotate(0,1144,600)"/><path d="M 1160 584v 32h 16a 16 16, 0, 0, 0, 0 -32" transform="rotate(0,1176,600)"/><path d="M 72 616v 32h 16a 16 16, 0, 0, 0, 0 -32" transform="rotate(90,88,632)"/><rect x="168" y="616" width="32" height="32" transform="rotate(0,184,632)"/><circle cx="312" cy="632" r="16" transform="rotate(0,312,632)"/><path d="M 360 616v 32h 16a 16 16, 0, 0, 0, 0 -32" transform="rotate(90,376,632)"/><circle cx="440" cy="632" r="16" transform="rotate(0,440,632)"/><rect x="488" y="616" width="32" height="32" transform="rotate(0,504,632)"/><rect x="520" y="616" width="32" height="32" transform="rotate(0,536,632)"/><path d="M 552 616v 32h 16a 16 16, 0, 0, 0, 0 -32" transform="rotate(0,568,632)"/><path d="M 616 616v 32h 32v -16a 16 16, 0, 0, 0, -16 -16" transform="rotate(-90,632,632)"/><rect x="648" y="616" width="32" height="32" transform="rotate(0,664,632)"/><rect x="680" y="616" width="32" height="32" transform="rotate(0,696,632)"/><rect x="712" y="616" width="32" height="32" transform="rotate(0,728,632)"/><path d="M 776 616v 32h 16a 16 16, 0, 0, 0, 0 -32" transform="rotate(-90,792,632)"/><path d="M 840 616v 32h 16a 16 16, 0, 0, 0, 0 -32" transform="rotate(-90,856,632)"/><path d="M 904 616v 32h 32v -16a 16 16, 0, 0, 0, -16 -16" transform="rotate(180,920,632)"/><rect x="936" y="616" width="32" height="32" transform="rotate(0,952,632)"/><path d="M 968 616v 32h 32v -16a 16 16, 0, 0, 0, -16 -16" transform="rotate(0,984,632)"/><path d="M 1032 616v 32h 16a 16 16, 0, 0, 0, 0 -32" transform="rotate(-90,1048,632)"/><path d="M 136 648v 32h 32v -16a 16 16, 0, 0, 0, -16 -16" transform="rotate(-90,152,664)"/><rect x="168" y="648" width="32" height="32" transform="rotate(0,184,664)"/><rect x="200" y="648" width="32" height="32" transform="rotate(0,216,664)"/><rect x="232" y="648" width="32" height="32" transform="rotate(0,248,664)"/><path d="M 264 648v 32h 16a 16 16, 0, 0, 0, 0 -32" transform="rotate(0,280,664)"/><path d="M 392 648v 32h 16a 16 16, 0, 0, 0, 0 -32" transform="rotate(-90,408,664)"/><path d="M 488 648v 32h 16a 16 16, 0, 0, 0, 0 -32" transform="rotate(90,504,664)"/><path d="M 584 648v 32h 16a 16 16, 0, 0, 0, 0 -32" transform="rotate(180,600,664)"/><rect x="616" y="648" width="32" height="32" transform="rotate(0,632,664)"/><path d="M 648 648v 32h 32v -16a 16 16, 0, 0, 0, -16 -16" transform="rotate(90,664,664)"/><rect x="712" y="648" width="32" height="32" transform="rotate(0,728,664)"/><rect x="776" y="648" width="32" height="32" transform="rotate(0,792,664)"/><rect x="808" y="648" width="32" height="32" transform="rotate(0,824,664)"/><path d="M 840 648v 32h 32v -16a 16 16, 0, 0, 0, -16 -16" transform="rotate(90,856,664)"/><rect x="936" y="648" width="32" height="32" transform="rotate(0,952,664)"/><rect x="968" y="648" width="32" height="32" transform="rotate(0,984,664)"/><rect x="1000" y="648" width="32" height="32" transform="rotate(0,1016,664)"/><rect x="1032" y="648" width="32" height="32" transform="rotate(0,1048,664)"/><rect x="1064" y="648" width="32" height="32" transform="rotate(0,1080,664)"/><rect x="1096" y="648" width="32" height="32" transform="rotate(0,1112,664)"/><rect x="1128" y="648" width="32" height="32" transform="rotate(0,1144,664)"/><path d="M 1160 648v 32h 16a 16 16, 0, 0, 0, 0 -32" transform="rotate(0,1176,664)"/><path d="M 8 680v 32h 16a 16 16, 0, 0, 0, 0 -32" transform="rotate(-90,24,696)"/><path d="M 104 680v 32h 32v -16a 16 16, 0, 0, 0, -16 -16" transform="rotate(-90,120,696)"/><rect x="136" y="680" width="32" height="32" transform="rotate(0,152,696)"/><path d="M 296 680v 32h 32v -16a 16 16, 0, 0, 0, -16 -16" transform="rotate(-90,312,696)"/><rect x="328" y="680" width="32" height="32" transform="rotate(0,344,696)"/><rect x="360" y="680" width="32" height="32" transform="rotate(0,376,696)"/><rect x="392" y="680" width="32" height="32" transform="rotate(0,408,696)"/><circle cx="568" cy="696" r="16" transform="rotate(0,568,696)"/><path d="M 616 680v 32h 16a 16 16, 0, 0, 0, 0 -32" transform="rotate(90,632,696)"/><path d="M 680 680v 32h 16a 16 16, 0, 0, 0, 0 -32" transform="rotate(180,696,696)"/><rect x="712" y="680" width="32" height="32" transform="rotate(0,728,696)"/><rect x="744" y="680" width="32" height="32" transform="rotate(0,760,696)"/><rect x="776" y="680" width="32" height="32" transform="rotate(0,792,696)"/><rect x="936" y="680" width="32" height="32" transform="rotate(0,952,696)"/><path d="M 1000 680v 32h 16a 16 16, 0, 0, 0, 0 -32" transform="rotate(90,1016,696)"/><path d="M 1064 680v 32h 16a 16 16, 0, 0, 0, 0 -32" transform="rotate(90,1080,696)"/><path d="M 8 712v 32h 32v -16a 16 16, 0, 0, 0, -16 -16" transform="rotate(180,24,728)"/><path d="M 40 712v 32h 16a 16 16, 0, 0, 0, 0 -32" transform="rotate(0,56,728)"/><path d="M 104 712v 32h 32v -16a 16 16, 0, 0, 0, -16 -16" transform="rotate(180,120,728)"/><rect x="136" y="712" width="32" height="32" transform="rotate(0,152,728)"/><path d="M 200 712v 32h 16a 16 16, 0, 0, 0, 0 -32" transform="rotate(180,216,728)"/><rect x="232" y="712" width="32" height="32" transform="rotate(0,248,728)"/><rect x="264" y="712" width="32" height="32" transform="rotate(0,280,728)"/><path d="M 296 712v 32h 32v -16a 16 16, 0, 0, 0, -16 -16" transform="rotate(90,312,728)"/><rect x="392" y="712" width="32" height="32" transform="rotate(0,408,728)"/><path d="M 648 712v 32h 16a 16 16, 0, 0, 0, 0 -32" transform="rotate(-90,664,728)"/><path d="M 776 712v 32h 16a 16 16, 0, 0, 0, 0 -32" transform="rotate(90,792,728)"/><path d="M 840 712v 32h 16a 16 16, 0, 0, 0, 0 -32" transform="rotate(180,856,728)"/><path d="M 872 712v 32h 16a 16 16, 0, 0, 0, 0 -32" transform="rotate(0,888,728)"/><rect x="936" y="712" width="32" height="32" transform="rotate(0,952,728)"/><path d="M 968 712v 32h 32v -16a 16 16, 0, 0, 0, -16 -16" transform="rotate(0,984,728)"/><path d="M 1128 712v 32h 32v -16a 16 16, 0, 0, 0, -16 -16" transform="rotate(-90,1144,728)"/><path d="M 1160 712v 32h 16a 16 16, 0, 0, 0, 0 -32" transform="rotate(0,1176,728)"/><path d="M 72 744v 32h 16a 16 16, 0, 0, 0, 0 -32" transform="rotate(-90,88,760)"/><path d="M 136 744v 32h 32v -16a 16 16, 0, 0, 0, -16 -16" transform="rotate(180,152,760)"/><path d="M 168 744v 32h 32v -16a 16 16, 0, 0, 0, -16 -16" transform="rotate(0,184,760)"/><circle cx="344" cy="760" r="16" transform="rotate(0,344,760)"/><path d="M 392 744v 32h 32v -16a 16 16, 0, 0, 0, -16 -16" transform="rotate(180,408,760)"/><path d="M 424 744v 32h 32v -16a 16 16, 0, 0, 0, -16 -16" transform="rotate(0,440,760)"/><path d="M 616 744v 32h 32v -16a 16 16, 0, 0, 0, -16 -16" transform="rotate(-90,632,760)"/><rect x="648" y="744" width="32" height="32" transform="rotate(0,664,760)"/><path d="M 680 744v 32h 16a 16 16, 0, 0, 0, 0 -32" transform="rotate(0,696,760)"/><rect x="936" y="744" width="32" height="32" transform="rotate(0,952,760)"/><rect x="968" y="744" width="32" height="32" transform="rotate(0,984,760)"/><path d="M 1000 744v 32h 16a 16 16, 0, 0, 0, 0 -32" transform="rotate(0,1016,760)"/><path d="M 1128 744v 32h 16a 16 16, 0, 0, 0, 0 -32" transform="rotate(90,1144,760)"/><rect x="72" y="776" width="32" height="32" transform="rotate(0,88,792)"/><path d="M 104 776v 32h 16a 16 16, 0, 0, 0, 0 -32" transform="rotate(0,120,792)"/><path d="M 168 776v 32h 32v -16a 16 16, 0, 0, 0, -16 -16" transform="rotate(180,184,792)"/><rect x="200" y="776" width="32" height="32" transform="rotate(0,216,792)"/><path d="M 232 776v 32h 16a 16 16, 0, 0, 0, 0 -32" transform="rotate(0,248,792)"/><path d="M 296 776v 32h 16a 16 16, 0, 0, 0, 0 -32" transform="rotate(-90,312,792)"/><path d="M 360 776v 32h 16a 16 16, 0, 0, 0, 0 -32" transform="rotate(-90,376,792)"/><path d="M 424 776v 32h 16a 16 16, 0, 0, 0, 0 -32" transform="rotate(90,440,792)"/><path d="M 552 776v 32h 16a 16 16, 0, 0, 0, 0 -32" transform="rotate(180,568,792)"/><rect x="584" y="776" width="32" height="32" transform="rotate(0,600,792)"/><rect x="616" y="776" width="32" height="32" transform="rotate(0,632,792)"/><path d="M 712 776v 32h 16a 16 16, 0, 0, 0, 0 -32" transform="rotate(-90,728,792)"/><path d="M 936 776v 32h 32v -16a 16 16, 0, 0, 0, -16 -16" transform="rotate(180,952,792)"/><path d="M 968 776v 32h 32v -16a 16 16, 0, 0, 0, -16 -16" transform="rotate(90,984,792)"/><circle cx="1048" cy="792" r="16" transform="rotate(0,1048,792)"/><circle cx="1112" cy="792" r="16" transform="rotate(0,1112,792)"/><circle cx="1176" cy="792" r="16" transform="rotate(0,1176,792)"/><path d="M 8 808v 32h 16a 16 16, 0, 0, 0, 0 -32" transform="rotate(-90,24,824)"/><rect x="72" y="808" width="32" height="32" transform="rotate(0,88,824)"/><path d="M 296 808v 32h 16a 16 16, 0, 0, 0, 0 -32" transform="rotate(90,312,824)"/><rect x="360" y="808" width="32" height="32" transform="rotate(0,376,824)"/><path d="M 456 808v 32h 16a 16 16, 0, 0, 0, 0 -32" transform="rotate(180,472,824)"/><rect x="488" y="808" width="32" height="32" transform="rotate(0,504,824)"/><path d="M 520 808v 32h 16a 16 16, 0, 0, 0, 0 -32" transform="rotate(0,536,824)"/><path d="M 584 808v 32h 32v -16a 16 16, 0, 0, 0, -16 -16" transform="rotate(180,600,824)"/><rect x="616" y="808" width="32" height="32" transform="rotate(0,632,824)"/><rect x="712" y="808" width="32" height="32" transform="rotate(0,728,824)"/><path d="M 744 808v 32h 16a 16 16, 0, 0, 0, 0 -32" transform="rotate(0,760,824)"/><path d="M 904 808v 32h 16a 16 16, 0, 0, 0, 0 -32" transform="rotate(-90,920,824)"/><circle cx="1016" cy="824" r="16" transform="rotate(0,1016,824)"/><path d="M 1064 808v 32h 16a 16 16, 0, 0, 0, 0 -32" transform="rotate(-90,1080,824)"/><rect x="8" y="840" width="32" height="32" transform="rotate(0,24,856)"/><rect x="72" y="840" width="32" height="32" transform="rotate(0,88,856)"/><path d="M 104 840v 32h 16a 16 16, 0, 0, 0, 0 -32" transform="rotate(0,120,856)"/><circle cx="216" cy="856" r="16" transform="rotate(0,216,856)"/><path d="M 360 840v 32h 16a 16 16, 0, 0, 0, 0 -32" transform="rotate(90,376,856)"/><rect x="616" y="840" width="32" height="32" transform="rotate(0,632,856)"/><rect x="712" y="840" width="32" height="32" transform="rotate(0,728,856)"/><path d="M 776 840v 32h 16a 16 16, 0, 0, 0, 0 -32" transform="rotate(180,792,856)"/><path d="M 808 840v 32h 16a 16 16, 0, 0, 0, 0 -32" transform="rotate(0,824,856)"/><path d="M 872 840v 32h 16a 16 16, 0, 0, 0, 0 -32" transform="rotate(180,888,856)"/><path d="M 904 840v 32h 32v -16a 16 16, 0, 0, 0, -16 -16" transform="rotate(90,920,856)"/><circle cx="984" cy="856" r="16" transform="rotate(0,984,856)"/><path d="M 1032 840v 32h 32v -16a 16 16, 0, 0, 0, -16 -16" transform="rotate(-90,1048,856)"/><rect x="1064" y="840" width="32" height="32" transform="rotate(0,1080,856)"/><rect x="1096" y="840" width="32" height="32" transform="rotate(0,1112,856)"/><rect x="1128" y="840" width="32" height="32" transform="rotate(0,1144,856)"/><path d="M 1160 840v 32h 32v -16a 16 16, 0, 0, 0, -16 -16" transform="rotate(0,1176,856)"/><rect x="8" y="872" width="32" height="32" transform="rotate(0,24,888)"/><path d="M 72 872v 32h 16a 16 16, 0, 0, 0, 0 -32" transform="rotate(90,88,888)"/><circle cx="184" cy="888" r="16" transform="rotate(0,184,888)"/><path d="M 232 872v 32h 32v -16a 16 16, 0, 0, 0, -16 -16" transform="rotate(-90,248,888)"/><path d="M 264 872v 32h 32v -16a 16 16, 0, 0, 0, -16 -16" transform="rotate(0,280,888)"/><circle cx="408" cy="888" r="16" transform="rotate(0,408,888)"/><path d="M 456 872v 32h 16a 16 16, 0, 0, 0, 0 -32" transform="rotate(180,472,888)"/><rect x="488" y="872" width="32" height="32" transform="rotate(0,504,888)"/><path d="M 520 872v 32h 16a 16 16, 0, 0, 0, 0 -32" transform="rotate(0,536,888)"/><path d="M 584 872v 32h 16a 16 16, 0, 0, 0, 0 -32" transform="rotate(180,600,888)"/><path d="M 616 872v 32h 32v -16a 16 16, 0, 0, 0, -16 -16" transform="rotate(90,632,888)"/><path d="M 680 872v 32h 16a 16 16, 0, 0, 0, 0 -32" transform="rotate(180,696,888)"/><rect x="712" y="872" width="32" height="32" transform="rotate(0,728,888)"/><path d="M 744 872v 32h 32v -16a 16 16, 0, 0, 0, -16 -16" transform="rotate(0,760,888)"/><path d="M 840 872v 32h 16a 16 16, 0, 0, 0, 0 -32" transform="rotate(-90,856,888)"/><path d="M 936 872v 32h 16a 16 16, 0, 0, 0, 0 -32" transform="rotate(-90,952,888)"/><path d="M 1000 872v 32h 32v -16a 16 16, 0, 0, 0, -16 -16" transform="rotate(-90,1016,888)"/><rect x="1032" y="872" width="32" height="32" transform="rotate(0,1048,888)"/><rect x="1160" y="872" width="32" height="32" transform="rotate(0,1176,888)"/><path d="M 8 904v 32h 16a 16 16, 0, 0, 0, 0 -32" transform="rotate(90,24,920)"/><path d="M 104 904v 32h 16a 16 16, 0, 0, 0, 0 -32" transform="rotate(180,120,920)"/><path d="M 136 904v 32h 16a 16 16, 0, 0, 0, 0 -32" transform="rotate(0,152,920)"/><path d="M 200 904v 32h 16a 16 16, 0, 0, 0, 0 -32" transform="rotate(180,216,920)"/><rect x="232" y="904" width="32" height="32" transform="rotate(0,248,920)"/><rect x="264" y="904" width="32" height="32" transform="rotate(0,280,920)"/><path d="M 296 904v 32h 32v -16a 16 16, 0, 0, 0, -16 -16" transform="rotate(0,312,920)"/><path d="M 360 904v 32h 16a 16 16, 0, 0, 0, 0 -32" transform="rotate(-90,376,920)"/><path d="M 648 904v 32h 16a 16 16, 0, 0, 0, 0 -32" transform="rotate(-90,664,920)"/><rect x="712" y="904" width="32" height="32" transform="rotate(0,728,920)"/><rect x="744" y="904" width="32" height="32" transform="rotate(0,760,920)"/><rect x="776" y="904" width="32" height="32" transform="rotate(0,792,920)"/><rect x="808" y="904" width="32" height="32" transform="rotate(0,824,920)"/><rect x="840" y="904" width="32" height="32" transform="rotate(0,856,920)"/><rect x="872" y="904" width="32" height="32" transform="rotate(0,888,920)"/><rect x="904" y="904" width="32" height="32" transform="rotate(0,920,920)"/><rect x="936" y="904" width="32" height="32" transform="rotate(0,952,920)"/><rect x="968" y="904" width="32" height="32" transform="rotate(0,984,920)"/><rect x="1000" y="904" width="32" height="32" transform="rotate(0,1016,920)"/><rect x="1032" y="904" width="32" height="32" transform="rotate(0,1048,920)"/><rect x="1064" y="904" width="32" height="32" transform="rotate(0,1080,920)"/><rect x="1096" y="904" width="32" height="32" transform="rotate(0,1112,920)"/><rect x="1128" y="904" width="32" height="32" transform="rotate(0,1144,920)"/><path d="M 1160 904v 32h 32v -16a 16 16, 0, 0, 0, -16 -16" transform="rotate(90,1176,920)"/><rect x="264" y="936" width="32" height="32" transform="rotate(0,280,952)"/><path d="M 296 936v 32h 32v -16a 16 16, 0, 0, 0, -16 -16" transform="rotate(90,312,952)"/><rect x="360" y="936" width="32" height="32" transform="rotate(0,376,952)"/><path d="M 392 936v 32h 16a 16 16, 0, 0, 0, 0 -32" transform="rotate(0,408,952)"/><path d="M 552 936v 32h 32v -16a 16 16, 0, 0, 0, -16 -16" transform="rotate(-90,568,952)"/><path d="M 584 936v 32h 16a 16 16, 0, 0, 0, 0 -32" transform="rotate(0,600,952)"/><rect x="648" y="936" width="32" height="32" transform="rotate(0,664,952)"/><rect x="712" y="936" width="32" height="32" transform="rotate(0,728,952)"/><path d="M 744 936v 32h 32v -16a 16 16, 0, 0, 0, -16 -16" transform="rotate(90,760,952)"/><path d="M 808 936v 32h 32v -16a 16 16, 0, 0, 0, -16 -16" transform="rotate(180,824,952)"/><rect x="840" y="936" width="32" height="32" transform="rotate(0,856,952)"/><rect x="872" y="936" width="32" height="32" transform="rotate(0,888,952)"/><rect x="904" y="936" width="32" height="32" transform="rotate(0,920,952)"/><rect x="1032" y="936" width="32" height="32" transform="rotate(0,1048,952)"/><rect x="264" y="968" width="32" height="32" transform="rotate(0,280,984)"/><path d="M 328 968v 32h 32v -16a 16 16, 0, 0, 0, -16 -16" transform="rotate(-90,344,984)"/><rect x="360" y="968" width="32" height="32" transform="rotate(0,376,984)"/><path d="M 456 968v 32h 32v -16a 16 16, 0, 0, 0, -16 -16" transform="rotate(-90,472,984)"/><path d="M 488 968v 32h 32v -16a 16 16, 0, 0, 0, -16 -16" transform="rotate(0,504,984)"/><path d="M 552 968v 32h 16a 16 16, 0, 0, 0, 0 -32" transform="rotate(90,568,984)"/><path d="M 616 968v 32h 32v -16a 16 16, 0, 0, 0, -16 -16" transform="rotate(-90,632,984)"/><rect x="648" y="968" width="32" height="32" transform="rotate(0,664,984)"/><path d="M 712 968v 32h 16a 16 16, 0, 0, 0, 0 -32" transform="rotate(90,728,984)"/><rect x="904" y="968" width="32" height="32" transform="rotate(0,920,984)"/><circle cx="984" cy="984" r="16" transform="rotate(0,984,984)"/><rect x="1032" y="968" width="32" height="32" transform="rotate(0,1048,984)"/><path d="M 1064 968v 32h 16a 16 16, 0, 0, 0, 0 -32" transform="rotate(0,1080,984)"/><path d="M 1128 968v 32h 16a 16 16, 0, 0, 0, 0 -32" transform="rotate(180,1144,984)"/><path d="M 1160 968v 32h 16a 16 16, 0, 0, 0, 0 -32" transform="rotate(0,1176,984)"/><rect x="264" y="1000" width="32" height="32" transform="rotate(0,280,1016)"/><path d="M 328 1000v 32h 32v -16a 16 16, 0, 0, 0, -16 -16" transform="rotate(180,344,1016)"/><rect x="360" y="1000" width="32" height="32" transform="rotate(0,376,1016)"/><rect x="392" y="1000" width="32" height="32" transform="rotate(0,408,1016)"/><rect x="424" y="1000" width="32" height="32" transform="rotate(0,440,1016)"/><rect x="456" y="1000" width="32" height="32" transform="rotate(0,472,1016)"/><rect x="488" y="1000" width="32" height="32" transform="rotate(0,504,1016)"/><path d="M 616 1000v 32h 32v -16a 16 16, 0, 0, 0, -16 -16" transform="rotate(180,632,1016)"/><rect x="648" y="1000" width="32" height="32" transform="rotate(0,664,1016)"/><path d="M 840 1000v 32h 16a 16 16, 0, 0, 0, 0 -32" transform="rotate(-90,856,1016)"/><rect x="904" y="1000" width="32" height="32" transform="rotate(0,920,1016)"/><rect x="1032" y="1000" width="32" height="32" transform="rotate(0,1048,1016)"/><rect x="264" y="1032" width="32" height="32" transform="rotate(0,280,1048)"/><path d="M 296 1032v 32h 16a 16 16, 0, 0, 0, 0 -32" transform="rotate(0,312,1048)"/><rect x="360" y="1032" width="32" height="32" transform="rotate(0,376,1048)"/><rect x="392" y="1032" width="32" height="32" transform="rotate(0,408,1048)"/><path d="M 488 1032v 32h 16a 16 16, 0, 0, 0, 0 -32" transform="rotate(90,504,1048)"/><path d="M 648 1032v 32h 32v -16a 16 16, 0, 0, 0, -16 -16" transform="rotate(180,664,1048)"/><rect x="680" y="1032" width="32" height="32" transform="rotate(0,696,1048)"/><path d="M 712 1032v 32h 16a 16 16, 0, 0, 0, 0 -32" transform="rotate(0,728,1048)"/><path d="M 776 1032v 32h 16a 16 16, 0, 0, 0, 0 -32" transform="rotate(180,792,1048)"/><rect x="808" y="1032" width="32" height="32" transform="rotate(0,824,1048)"/><rect x="840" y="1032" width="32" height="32" transform="rotate(0,856,1048)"/><rect x="872" y="1032" width="32" height="32" transform="rotate(0,888,1048)"/><rect x="904" y="1032" width="32" height="32" transform="rotate(0,920,1048)"/><rect x="936" y="1032" width="32" height="32" transform="rotate(0,952,1048)"/><rect x="968" y="1032" width="32" height="32" transform="rotate(0,984,1048)"/><rect x="1000" y="1032" width="32" height="32" transform="rotate(0,1016,1048)"/><rect x="1032" y="1032" width="32" height="32" transform="rotate(0,1048,1048)"/><path d="M 1096 1032v 32h 16a 16 16, 0, 0, 0, 0 -32" transform="rotate(-90,1112,1048)"/><circle cx="1176" cy="1048" r="16" transform="rotate(0,1176,1048)"/><rect x="264" y="1064" width="32" height="32" transform="rotate(0,280,1080)"/><path d="M 360 1064v 32h 32v -16a 16 16, 0, 0, 0, -16 -16" transform="rotate(180,376,1080)"/><path d="M 392 1064v 32h 32v -16a 16 16, 0, 0, 0, -16 -16" transform="rotate(90,408,1080)"/><path d="M 584 1064v 32h 16a 16 16, 0, 0, 0, 0 -32" transform="rotate(-90,600,1080)"/><rect x="680" y="1064" width="32" height="32" transform="rotate(0,696,1080)"/><path d="M 904 1064v 32h 16a 16 16, 0, 0, 0, 0 -32" transform="rotate(90,920,1080)"/><path d="M 968 1064v 32h 16a 16 16, 0, 0, 0, 0 -32" transform="rotate(90,984,1080)"/><path d="M 1032 1064v 32h 16a 16 16, 0, 0, 0, 0 -32" transform="rotate(90,1048,1080)"/><path d="M 1096 1064v 32h 32v -16a 16 16, 0, 0, 0, -16 -16" transform="rotate(180,1112,1080)"/><path d="M 1128 1064v 32h 16a 16 16, 0, 0, 0, 0 -32" transform="rotate(0,1144,1080)"/><rect x="264" y="1096" width="32" height="32" transform="rotate(0,280,1112)"/><path d="M 296 1096v 32h 32v -16a 16 16, 0, 0, 0, -16 -16" transform="rotate(0,312,1112)"/><rect x="584" y="1096" width="32" height="32" transform="rotate(0,600,1112)"/><path d="M 648 1096v 32h 16a 16 16, 0, 0, 0, 0 -32" transform="rotate(180,664,1112)"/><rect x="680" y="1096" width="32" height="32" transform="rotate(0,696,1112)"/><path d="M 744 1096v 32h 32v -16a 16 16, 0, 0, 0, -16 -16" transform="rotate(-90,760,1112)"/><path d="M 776 1096v 32h 16a 16 16, 0, 0, 0, 0 -32" transform="rotate(0,792,1112)"/><path d="M 840 1096v 32h 16a 16 16, 0, 0, 0, 0 -32" transform="rotate(-90,856,1112)"/><circle cx="952" cy="1112" r="16" transform="rotate(0,952,1112)"/><circle cx="1016" cy="1112" r="16" transform="rotate(0,1016,1112)"/><circle cx="1080" cy="1112" r="16" transform="rotate(0,1080,1112)"/><path d="M 1160 1096v 32h 16a 16 16, 0, 0, 0, 0 -32" transform="rotate(-90,1176,1112)"/><path d="M 264 1128v 32h 32v -16a 16 16, 0, 0, 0, -16 -16" transform="rotate(180,280,1144)"/><rect x="296" y="1128" width="32" height="32" transform="rotate(0,312,1144)"/><path d="M 392 1128v 32h 32v -16a 16 16, 0, 0, 0, -16 -16" transform="rotate(-90,408,1144)"/><path d="M 424 1128v 32h 32v -16a 16 16, 0, 0, 0, -16 -16" transform="rotate(0,440,1144)"/><path d="M 520 1128v 32h 32v -16a 16 16, 0, 0, 0, -16 -16" transform="rotate(-90,536,1144)"/><rect x="552" y="1128" width="32" height="32" transform="rotate(0,568,1144)"/><rect x="584" y="1128" width="32" height="32" transform="rotate(0,600,1144)"/><path d="M 680 1128v 32h 16a 16 16, 0, 0, 0, 0 -32" transform="rotate(90,696,1144)"/><rect x="744" y="1128" width="32" height="32" transform="rotate(0,760,1144)"/><rect x="840" y="1128" width="32" height="32" transform="rotate(0,856,1144)"/><rect x="872" y="1128" width="32" height="32" transform="rotate(0,888,1144)"/><path d="M 904 1128v 32h 16a 16 16, 0, 0, 0, 0 -32" transform="rotate(0,920,1144)"/><circle cx="984" cy="1144" r="16" transform="rotate(0,984,1144)"/><circle cx="1048" cy="1144" r="16" transform="rotate(0,1048,1144)"/><rect x="1160" y="1128" width="32" height="32" transform="rotate(0,1176,1144)"/><path d="M 296 1160v 32h 16a 16 16, 0, 0, 0, 0 -32" transform="rotate(90,312,1176)"/><path d="M 360 1160v 32h 16a 16 16, 0, 0, 0, 0 -32" transform="rotate(180,376,1176)"/><rect x="392" y="1160" width="32" height="32" transform="rotate(0,408,1176)"/><rect x="424" y="1160" width="32" height="32" transform="rotate(0,440,1176)"/><path d="M 456 1160v 32h 16a 16 16, 0, 0, 0, 0 -32" transform="rotate(0,472,1176)"/><path d="M 520 1160v 32h 16a 16 16, 0, 0, 0, 0 -32" transform="rotate(90,536,1176)"/><path d="M 584 1160v 32h 16a 16 16, 0, 0, 0, 0 -32" transform="rotate(90,600,1176)"/><path d="M 712 1160v 32h 16a 16 16, 0, 0, 0, 0 -32" transform="rotate(180,728,1176)"/><rect x="744" y="1160" width="32" height="32" transform="rotate(0,760,1176)"/><rect x="776" y="1160" width="32" height="32" transform="rotate(0,792,1176)"/><rect x="808" y="1160" width="32" height="32" transform="rotate(0,824,1176)"/><path d="M 840 1160v 32h 32v -16a 16 16, 0, 0, 0, -16 -16" transform="rotate(90,856,1176)"/><circle cx="952" cy="1176" r="16" transform="rotate(0,952,1176)"/><path d="M 1096 1160v 32h 16a 16 16, 0, 0, 0, 0 -32" transform="rotate(180,1112,1176)"/><rect x="1128" y="1160" width="32" height="32" transform="rotate(0,1144,1176)"/><path d="M 1160 1160v 32h 32v -16a 16 16, 0, 0, 0, -16 -16" transform="rotate(90,1176,1176)"/></clipPath><clipPath id="clip-path-corners-square-color-0-0-763"><path clip-rule="evenodd" d="M 8 88v 64a 80 80, 0, 0, 0, 80 80h 64a 80 80, 0, 0, 0, 80 -80v -64a 80 80, 0, 0, 0, -80 -80h -64a 80 80, 0, 0, 0, -80 80M 88 40h 64a 48 48, 0, 0, 1, 48 48v 64a 48 48, 0, 0, 1, -48 48h -64a 48 48, 0, 0, 1, -48 -48v -64a 48 48, 0, 0, 1, 48 -48" transform="rotate(0,120,120)"/></clipPath><clipPath id="clip-path-corners-dot-color-0-0-763"><circle cx="120" cy="120" r="48" transform="rotate(0,120,120)"/></clipPath><clipPath id="clip-path-corners-square-color-1-0-763"><path clip-rule="evenodd" d="M 968 88v 64a 80 80, 0, 0, 0, 80 80h 64a 80 80, 0, 0, 0, 80 -80v -64a 80 80, 0, 0, 0, -80 -80h -64a 80 80, 0, 0, 0, -80 80M 1048 40h 64a 48 48, 0, 0, 1, 48 48v 64a 48 48, 0, 0, 1, -48 48h -64a 48 48, 0, 0, 1, -48 -48v -64a 48 48, 0, 0, 1, 48 -48" transform="rotate(90,1080,120)"/></clipPath><clipPath id="clip-path-corners-dot-color-1-0-763"><circle cx="1080" cy="120" r="48" transform="rotate(90,1080,120)"/></clipPath><clipPath id="clip-path-corners-square-color-0-1-763"><path clip-rule="evenodd" d="M 8 1048v 64a 80 80, 0, 0, 0, 80 80h 64a 80 80, 0, 0, 0, 80 -80v -64a 80 80, 0, 0, 0, -80 -80h -64a 80 80, 0, 0, 0, -80 80M 88 1000h 64a 48 48, 0, 0, 1, 48 48v 64a 48 48, 0, 0, 1, -48 48h -64a 48 48, 0, 0, 1, -48 -48v -64a 48 48, 0, 0, 1, 48 -48" transform="rotate(-90,120,1080)"/></clipPath><clipPath id="clip-path-corners-dot-color-0-1-763"><circle cx="120" cy="1080" r="48" transform="rotate(-90,120,1080)"/></clipPath></defs><rect x="0" y="0" height="1200" width="1200" clip-path="url('#clip-path-background-color-763')" fill="#ffffff"/><rect x="0" y="0" height="1200" width="1200" clip-path="url('#clip-path-dot-color-763')" fill="#000000"/><rect x="8" y="8" height="224" width="224" clip-path="url('#clip-path-corners-square-color-0-0-763')" fill="#000000"/><rect x="72" y="72" height="96" width="96" clip-path="url('#clip-path-corners-dot-color-0-0-763')" fill="#000000"/><rect x="968" y="8" height="224" width="224" clip-path="url('#clip-path-corners-square-color-1-0-763')" fill="#000000"/><rect x="1032" y="72" height="96" width="96" clip-path="url('#clip-path-corners-dot-color-1-0-763')" fill="#000000"/><rect x="8" y="968" height="224" width="224" clip-path="url('#clip-path-corners-square-color-0-1-763')" fill="#000000"/><rect x="72" y="1032" height="96" width="96" clip-path="url('#clip-path-corners-dot-color-0-1-763')" fill="#000000"/></svg>