<?xml version="1.0" standalone="no"?>
<svg xmlns="http://www.w3.org/2000/svg" width="1200" height="1200" xmlns:xlink="http://www.w3.org/1999/xlink" viewBox="0 0 1200 1200"><defs><clipPath id="clip-path-background-color-781"><rect x="0" y="0" width="1200" height="1200"/></clipPath><clipPath id="clip-path-dot-color-781"><path d="M 264 8v 32h 32v -16a 16 16, 0, 0, 0, -16 -16" transform="rotate(-90,280,24)"/><path d="M 296 8v 32h 16a 16 16, 0, 0, 0, 0 -32" transform="rotate(0,312,24)"/><circle cx="376" cy="24" r="16" transform="rotate(0,376,24)"/><circle cx="440" cy="24" r="16" transform="rotate(0,440,24)"/><path d="M 552 8v 32h 16a 16 16, 0, 0, 0, 0 -32" transform="rotate(180,568,24)"/><path d="M 584 8v 32h 16a 16 16, 0, 0, 0, 0 -32" transform="rotate(0,600,24)"/><path d="M 680 8v 32h 16a 16 16, 0, 0, 0, 0 -32" transform="rotate(180,696,24)"/><rect x="712" y="8" width="32" height="32" transform="rotate(0,728,24)"/><path d="M 744 8v 32h 32v -16a 16 16, 0, 0, 0, -16 -16" transform="rotate(0,760,24)"/><path d="M 840 8v 32h 16a 16 16, 0, 0, 0, 0 -32" transform="rotate(-90,856,24)"/><path d="M 904 8v 32h 16a 16 16, 0, 0, 0, 0 -32" transform="rotate(-90,920,24)"/><path d="M 264 40v 32h 16a 16 16, 0, 0, 0, 0 -32" transform="rotate(90,280,56)"/><path d="M 328 40v 32h 16a 16 16, 0, 0, 0, 0 -32" transform="rotate(-90,344,56)"/><circle cx="408" cy="56" r="16" transform="rotate(0,408,56)"/><path d="M 456 40v 32h 32v -16a 16 16, 0, 0, 0, -16 -16" transform="rotate(-90,472,56)"/><path d="M 488 40v 32h 32v -16a 16 16, 0, 0, 0, -16 -16" transform="rotate(0,504,56)"/><path d="M 616 40v 32h 16a 16 16, 0, 0, 0, 0 -32" transform="rotate(180,632,56)"/><path d="M 648 40v 32h 32v -16a 16 16, 0, 0, 0, -16 -16" transform="rotate(0,664,56)"/><path d="M 712 40v 32h 32v -16a 16 16, 0, 0, 0, -16 -16" transform="rotate(180,728,56)"/><rect x="744" y="40" width="32" height="32" transform="rotate(0,760,56)"/><rect x="776" y="40" width="32" height="32" transform="rotate(0,792,56)"/><rect x="808" y="40" width="32" height="32" transform="rotate(0,824,56)"/><path d="M 840 40v 32h 32v -16a 16 16, 0, 0, 0, -16 -16" transform="rotate(90,856,56)"/><rect x="904" y="40" width="32" height="32" transform="rotate(0,920,56)"/><path d="M 296 72v 32h 32v -16a 16 16, 0, 0, 0, -16 -16" transform="rotate(-90,312,88)"/><rect x="328" y="72" width="32" height="32" transform="rotate(0,344,88)"/><path d="M 424 72v 32h 32v -16a 16 16, 0, 0, 0, -16 -16" transform="rotate(-90,440,88)"/><rect x="456" y="72" width="32" height="32" transform="rotate(0,472,88)"/><rect x="488" y="72" width="32" height="32" transform="rotate(0,504,88)"/><path d="M 584 72v 32h 16a 16 16, 0, 0, 0, 0 -32" transform="rotate(-90,600,88)"/><rect x="648" y="72" width="32" height="32" transform="rotate(0,664,88)"/><path d="M 680 72v 32h 32v -16a 16 16, 0, 0, 0, -16 -16" transform="rotate(0,696,88)"/><rect x="744" y="72" width="32" height="32" transform="rotate(0,760,88)"/><path d="M 872 72v 32h 32v -16a 16 16, 0, 0, 0, -16 -16" transform="rotate(-90,888,88)"/><rect x="904" y="72" width="32" height="32" transform="rotate(0,920,88)"/><path d="M 296 104v 32h 32v -16a 16 16, 0, 0, 0, -16 -16" transform="rotate(180,312,120)"/><rect x="328" y="104" width="32" height="32" transform="rotate(0,344,120)"/><path d="M 424 104v 32h 32v -16a 16 16, 0, 0, 0, -16 -16" transform="rotate(180,440,120)"/><rect x="456" y="104" width="32" height="32" transform="rotate(0,472,120)"/><path d="M 488 104v 32h 32v -16a 16 16, 0, 0, 0, -16 -16" transform="rotate(90,504,120)"/><rect x="584" y="104" width="32" height="32" transform="rotate(0,600,120)"/><rect x="616" y="104" width="32" height="32" transform="rotate(0,632,120)"/><rect x="648" y="104" width="32" height="32" transform="rotate(0,664,120)"/><rect x="680" y="104" width="32" height="32" transform="rotate(0,696,120)"/><rect x="744" y="104" width="32" height="32" transform="rotate(0,760,120)"/><circle cx="824" cy="120" r="16" transform="rotate(0,824,120)"/><path d="M 872 104v 32h 32v -16a 16 16, 0, 0, 0, -16 -16" transform="rotate(180,888,120)"/><path d="M 904 104v 32h 32v -16a 16 16, 0, 0, 0, -16 -16" transform="rotate(90,920,120)"/><path d="M 328 136v 32h 16a 16 16, 0, 0, 0, 0 -32" transform="rotate(90,344,152)"/><path d="M 392 136v 32h 16a 16 16, 0, 0, 0, 0 -32" transform="rotate(-90,408,152)"/><path d="M 552 136v 32h 32v -16a 16 16, 0, 0, 0, -16 -16" transform="rotate(-90,568,152)"/><rect x="584" y="136" width="32" height="32" transform="rotate(0,600,152)"/><path d="M 680 136v 32h 32v -16a 16 16, 0, 0, 0, -16 -16" transform="rotate(180,696,152)"/><rect x="712" y="136" width="32" height="32" transform="rotate(0,728,152)"/><path d="M 744 136v 32h 32v -16a 16 16, 0, 0, 0, -16 -16" transform="rotate(90,760,152)"/><circle cx="312" cy="184" r="16" transform="rotate(0,312,184)"/><rect x="392" y="168" width="32" height="32" transform="rotate(0,408,184)"/><path d="M 520 168v 32h 32v -16a 16 16, 0, 0, 0, -16 -16" transform="rotate(-90,536,184)"/><rect x="552" y="168" width="32" height="32" transform="rotate(0,568,184)"/><rect x="584" y="168" width="32" height="32" transform="rotate(0,600,184)"/><rect x="616" y="168" width="32" height="32" transform="rotate(0,632,184)"/><path d="M 648 168v 32h 32v -16a 16 16, 0, 0, 0, -16 -16" transform="rotate(0,664,184)"/><rect x="712" y="168" width="32" height="32" transform="rotate(0,728,184)"/><circle cx="824" cy="184" r="16" transform="rotate(0,824,184)"/><path d="M 904 168v 32h 16a 16 16, 0, 0, 0, 0 -32" transform="rotate(-90,920,184)"/><circle cx="280" cy="216" r="16" transform="rotate(0,280,216)"/><circle cx="344" cy="216" r="16" transform="rotate(0,344,216)"/><rect x="392" y="200" width="32" height="32" transform="rotate(0,408,216)"/><circle cx="472" cy="216" r="16" transform="rotate(0,472,216)"/><rect x="520" y="200" width="32" height="32" transform="rotate(0,536,216)"/><rect x="584" y="200" width="32" height="32" transform="rotate(0,600,216)"/><rect x="648" y="200" width="32" height="32" transform="rotate(0,664,216)"/><rect x="712" y="200" width="32" height="32" transform="rotate(0,728,216)"/><circle cx="792" cy="216" r="16" transform="rotate(0,792,216)"/><circle cx="856" cy="216" r="16" transform="rotate(0,856,216)"/><rect x="904" y="200" width="32" height="32" transform="rotate(0,920,216)"/><path d="M 360 232v 32h 16a 16 16, 0, 0, 0, 0 -32" transform="rotate(180,376,248)"/><rect x="392" y="232" width="32" height="32" transform="rotate(0,408,248)"/><rect x="520" y="232" width="32" height="32" transform="rotate(0,536,248)"/><rect x="584" y="232" width="32" height="32" transform="rotate(0,600,248)"/><rect x="616" y="232" width="32" height="32" transform="rotate(0,632,248)"/><rect x="648" y="232" width="32" height="32" transform="rotate(0,664,248)"/><rect x="712" y="232" width="32" height="32" transform="rotate(0,728,248)"/><path d="M 872 232v 32h 16a 16 16, 0, 0, 0, 0 -32" transform="rotate(180,888,248)"/><rect x="904" y="232" width="32" height="32" transform="rotate(0,920,248)"/><circle cx="56" cy="280" r="16" transform="rotate(0,56,280)"/><path d="M 200 264v 32h 16a 16 16, 0, 0, 0, 0 -32" transform="rotate(180,216,280)"/><rect x="232" y="264" width="32" height="32" transform="rotate(0,248,280)"/><path d="M 264 264v 32h 16a 16 16, 0, 0, 0, 0 -32" transform="rotate(0,280,280)"/><path d="M 392 264v 32h 16a 16 16, 0, 0, 0, 0 -32" transform="rotate(90,408,280)"/><path d="M 456 264v 32h 32v -16a 16 16, 0, 0, 0, -16 -16" transform="rotate(-90,472,280)"/><rect x="488" y="264" width="32" height="32" transform="rotate(0,504,280)"/><rect x="520" y="264" width="32" height="32" transform="rotate(0,536,280)"/><rect x="552" y="264" width="32" height="32" transform="rotate(0,568,280)"/><path d="M 584 264v 32h 32v -16a 16 16, 0, 0, 0, -16 -16" transform="rotate(90,600,280)"/><rect x="648" y="264" width="32" height="32" transform="rotate(0,664,280)"/><path d="M 712 264v 32h 32v -16a 16 16, 0, 0, 0, -16 -16" transform="rotate(180,728,280)"/><rect x="744" y="264" width="32" height="32" transform="rotate(0,760,280)"/><rect x="776" y="264" width="32" height="32" transform="rotate(0,792,280)"/><rect x="808" y="264" width="32" height="32" transform="rotate(0,824,280)"/><path d="M 840 264v 32h 16a 16 16, 0, 0, 0, 0 -32" transform="rotate(0,856,280)"/><path d="M 904 264v 32h 32v -16a 16 16, 0, 0, 0, -16 -16" transform="rotate(180,920,280)"/><path d="M 936 264v 32h 16a 16 16, 0, 0, 0, 0 -32" transform="rotate(0,952,280)"/><path d="M 1128 264v 32h 16a 16 16, 0, 0, 0, 0 -32" transform="rotate(180,1144,280)"/><path d="M 1160 264v 32h 16a 16 16, 0, 0, 0, 0 -32" transform="rotate(0,1176,280)"/><circle cx="24" cy="312" r="16" transform="rotate(0,24,312)"/><path d="M 72 296v 32h 32v -16a 16 16, 0, 0, 0, -16 -16" transform="rotate(-90,88,312)"/><rect x="104" y="296" width="32" height="32" transform="rotate(0,120,312)"/><path d="M 136 296v 32h 16a 16 16, 0, 0, 0, 0 -32" transform="rotate(0,152,312)"/><path d="M 232 296v 32h 16a 16 16, 0, 0, 0, 0 -32" transform="rotate(90,248,312)"/><circle cx="376" cy="312" r="16" transform="rotate(0,376,312)"/><path d="M 424 296v 32h 32v -16a 16 16, 0, 0, 0, -16 -16" transform="rotate(-90,440,312)"/><path d="M 456 296v 32h 32v -16a 16 16, 0, 0, 0, -16 -16" transform="rotate(90,472,312)"/><rect x="520" y="296" width="32" height="32" transform="rotate(0,536,312)"/><path d="M 552 296v 32h 32v -16a 16 16, 0, 0, 0, -16 -16" transform="rotate(90,568,312)"/><path d="M 616 296v 32h 32v -16a 16 16, 0, 0, 0, -16 -16" transform="rotate(-90,632,312)"/><rect x="648" y="296" width="32" height="32" transform="rotate(0,664,312)"/><path d="M 744 296v 32h 16a 16 16, 0, 0, 0, 0 -32" transform="rotate(90,760,312)"/><rect x="808" y="296" width="32" height="32" transform="rotate(0,824,312)"/><path d="M 872 296v 32h 16a 16 16, 0, 0, 0, 0 -32" transform="rotate(-90,888,312)"/><circle cx="1048" cy="312" r="16" transform="rotate(0,1048,312)"/><circle cx="1112" cy="312" r="16" transform="rotate(0,1112,312)"/><rect x="72" y="328" width="32" height="32" transform="rotate(0,88,344)"/><path d="M 104 328v 32h 32v -16a 16 16, 0, 0, 0, -16 -16" transform="rotate(90,120,344)"/><circle cx="216" cy="344" r="16" transform="rotate(0,216,344)"/><path d="M 264 328v 32h 16a 16 16, 0, 0, 0, 0 -32" transform="rotate(-90,280,344)"/><path d="M 424 328v 32h 16a 16 16, 0, 0, 0, 0 -32" transform="rotate(90,440,344)"/><path d="M 520 328v 32h 16a 16 16, 0, 0, 0, 0 -32" transform="rotate(90,536,344)"/><path d="M 584 328v 32h 16a 16 16, 0, 0, 0, 0 -32" transform="rotate(180,600,344)"/><rect x="616" y="328" width="32" height="32" transform="rotate(0,632,344)"/><rect x="648" y="328" width="32" height="32" transform="rotate(0,664,344)"/><rect x="680" y="328" width="32" height="32" transform="rotate(0,696,344)"/><path d="M 712 328v 32h 16a 16 16, 0, 0, 0, 0 -32" transform="rotate(0,728,344)"/><path d="M 808 328v 32h 32v -16a 16 16, 0, 0, 0, -16 -16" transform="rotate(180,824,344)"/><rect x="840" y="328" width="32" height="32" transform="rotate(0,856,344)"/><rect x="872" y="328" width="32" height="32" transform="rotate(0,888,344)"/><path d="M 904 328v 32h 32v -16a 16 16, 0, 0, 0, -16 -16" transform="rotate(0,920,344)"/><path d="M 968 328v 32h 16a 16 16, 0, 0, 0, 0 -32" transform="rotate(-90,984,344)"/><path d="M 1064 328v 32h 16a 16 16, 0, 0, 0, 0 -32" transform="rotate(-90,1080,344)"/><path d="M 1128 328v 32h 32v -16a 16 16, 0, 0, 0, -16 -16" transform="rotate(-90,1144,344)"/><path d="M 1160 328v 32h 16a 16 16, 0, 0, 0, 0 -32" transform="rotate(0,1176,344)"/><path d="M 40 360v 32h 16a 16 16, 0, 0, 0, 0 -32" transform="rotate(180,56,376)"/><path d="M 72 360v 32h 32v -16a 16 16, 0, 0, 0, -16 -16" transform="rotate(90,88,376)"/><path d="M 264 360v 32h 16a 16 16, 0, 0, 0, 0 -32" transform="rotate(90,280,376)"/><path d="M 328 360v 32h 16a 16 16, 0, 0, 0, 0 -32" transform="rotate(-90,344,376)"/><circle cx="408" cy="376" r="16" transform="rotate(0,408,376)"/><path d="M 456 360v 32h 32v -16a 16 16, 0, 0, 0, -16 -16" transform="rotate(-90,472,376)"/><path d="M 488 360v 32h 32v -16a 16 16, 0, 0, 0, -16 -16" transform="rotate(0,504,376)"/><rect x="648" y="360" width="32" height="32" transform="rotate(0,664,376)"/><path d="M 744 360v 32h 32v -16a 16 16, 0, 0, 0, -16 -16" transform="rotate(-90,760,376)"/><path d="M 776 360v 32h 16a 16 16, 0, 0, 0, 0 -32" transform="rotate(0,792,376)"/><path d="M 840 360v 32h 16a 16 16, 0, 0, 0, 0 -32" transform="rotate(90,856,376)"/><rect x="904" y="360" width="32" height="32" transform="rotate(0,920,376)"/><rect x="968" y="360" width="32" height="32" transform="rotate(0,984,376)"/><path d="M 1032 360v 32h 16a 16 16, 0, 0, 0, 0 -32" transform="rotate(180,1048,376)"/><rect x="1064" y="360" width="32" height="32" transform="rotate(0,1080,376)"/><rect x="1128" y="360" width="32" height="32" transform="rotate(0,1144,376)"/><circle cx="24" cy="408" r="16" transform="rotate(0,24,408)"/><path d="M 200 392v 32h 16a 16 16, 0, 0, 0, 0 -32" transform="rotate(180,216,408)"/><path d="M 232 392v 32h 32v -16a 16 16, 0, 0, 0, -16 -16" transform="rotate(0,248,408)"/><path d="M 296 392v 32h 16a 16 16, 0, 0, 0, 0 -32" transform="rotate(180,312,408)"/><rect x="328" y="392" width="32" height="32" transform="rotate(0,344,408)"/><rect x="456" y="392" width="32" height="32" transform="rotate(0,472,408)"/><path d="M 488 392v 32h 32v -16a 16 16, 0, 0, 0, -16 -16" transform="rotate(90,504,408)"/><circle cx="568" cy="408" r="16" transform="rotate(0,568,408)"/><path d="M 616 392v 32h 32v -16a 16 16, 0, 0, 0, -16 -16" transform="rotate(-90,632,408)"/><path d="M 648 392v 32h 32v -16a 16 16, 0, 0, 0, -16 -16" transform="rotate(90,664,408)"/><rect x="744" y="392" width="32" height="32" transform="rotate(0,760,408)"/><path d="M 872 392v 32h 32v -16a 16 16, 0, 0, 0, -16 -16" transform="rotate(-90,888,408)"/><rect x="904" y="392" width="32" height="32" transform="rotate(0,920,408)"/><path d="M 968 392v 32h 32v -16a 16 16, 0, 0, 0, -16 -16" transform="rotate(180,984,408)"/><path d="M 1000 392v 32h 16a 16 16, 0, 0, 0, 0 -32" transform="rotate(0,1016,408)"/><path d="M 1064 392v 32h 16a 16 16, 0, 0, 0, 0 -32" transform="rotate(90,1080,408)"/><path d="M 1128 392v 32h 32v -16a 16 16, 0, 0, 0, -16 -16" transform="rotate(180,1144,408)"/><path d="M 1160 392v 32h 16a 16 16, 0, 0, 0, 0 -32" transform="rotate(0,1176,408)"/><path d="M 136 424v 32h 32v -16a 16 16, 0, 0, 0, -16 -16" transform="rotate(-90,152,440)"/><path d="M 168 424v 32h 16a 16 16, 0, 0, 0, 0 -32" transform="rotate(0,184,440)"/><rect x="232" y="424" width="32" height="32" transform="rotate(0,248,440)"/><path d="M 264 424v 32h 16a 16 16, 0, 0, 0, 0 -32" transform="rotate(0,280,440)"/><path d="M 328 424v 32h 32v -16a 16 16, 0, 0, 0, -16 -16" transform="rotate(180,344,440)"/><rect x="360" y="424" width="32" height="32" transform="rotate(0,376,440)"/><path d="M 392 424v 32h 32v -16a 16 16, 0, 0, 0, -16 -16" transform="rotate(0,408,440)"/><rect x="456" y="424" width="32" height="32" transform="rotate(0,472,440)"/><path d="M 520 424v 32h 16a 16 16, 0, 0, 0, 0 -32" transform="rotate(-90,536,440)"/><rect x="616" y="424" width="32" height="32" transform="rotate(0,632,440)"/><path d="M 744 424v 32h 16a 16 16, 0, 0, 0, 0 -32" transform="rotate(90,760,440)"/><path d="M 808 424v 32h 16a 16 16, 0, 0, 0, 0 -32" transform="rotate(-90,824,440)"/><rect x="872" y="424" width="32" height="32" transform="rotate(0,888,440)"/><rect x="904" y="424" width="32" height="32" transform="rotate(0,920,440)"/><path d="M 936 424v 32h 32v -16a 16 16, 0, 0, 0, -16 -16" transform="rotate(0,952,440)"/><circle cx="1112" cy="440" r="16" transform="rotate(0,1112,440)"/><circle cx="24" cy="472" r="16" transform="rotate(0,24,472)"/><path d="M 72 456v 32h 16a 16 16, 0, 0, 0, 0 -32" transform="rotate(-90,88,472)"/><path d="M 136 456v 32h 16a 16 16, 0, 0, 0, 0 -32" transform="rotate(90,152,472)"/><path d="M 200 456v 32h 16a 16 16, 0, 0, 0, 0 -32" transform="rotate(180,216,472)"/><rect x="232" y="456" width="32" height="32" transform="rotate(0,248,472)"/><path d="M 296 456v 32h 16a 16 16, 0, 0, 0, 0 -32" transform="rotate(-90,312,472)"/><path d="M 392 456v 32h 16a 16 16, 0, 0, 0, 0 -32" transform="rotate(90,408,472)"/><path d="M 456 456v 32h 16a 16 16, 0, 0, 0, 0 -32" transform="rotate(90,472,472)"/><path d="M 520 456v 32h 16a 16 16, 0, 0, 0, 0 -32" transform="rotate(90,536,472)"/><path d="M 584 456v 32h 32v -16a 16 16, 0, 0, 0, -16 -16" transform="rotate(-90,600,472)"/><path d="M 616 456v 32h 32v -16a 16 16, 0, 0, 0, -16 -16" transform="rotate(90,632,472)"/><circle cx="696" cy="472" r="16" transform="rotate(0,696,472)"/><path d="M 776 456v 32h 16a 16 16, 0, 0, 0, 0 -32" transform="rotate(180,792,472)"/><rect x="808" y="456" width="32" height="32" transform="rotate(0,824,472)"/><rect x="840" y="456" width="32" height="32" transform="rotate(0,856,472)"/><rect x="872" y="456" width="32" height="32" transform="rotate(0,888,472)"/><rect x="904" y="456" width="32" height="32" transform="rotate(0,920,472)"/><path d="M 936 456v 32h 32v -16a 16 16, 0, 0, 0, -16 -16" transform="rotate(90,952,472)"/><path d="M 1064 456v 32h 16a 16 16, 0, 0, 0, 0 -32" transform="rotate(-90,1080,472)"/><path d="M 1128 456v 32h 32v -16a 16 16, 0, 0, 0, -16 -16" transform="rotate(-90,1144,472)"/><path d="M 1160 456v 32h 32v -16a 16 16, 0, 0, 0, -16 -16" transform="rotate(0,1176,472)"/><path d="M 72 488v 32h 32v -16a 16 16, 0, 0, 0, -16 -16" transform="rotate(180,88,504)"/><path d="M 104 488v 32h 16a 16 16, 0, 0, 0, 0 -32" transform="rotate(0,120,504)"/><path d="M 232 488v 32h 32v -16a 16 16, 0, 0, 0, -16 -16" transform="rotate(180,248,504)"/><rect x="264" y="488" width="32" height="32" transform="rotate(0,280,504)"/><path d="M 296 488v 32h 32v -16a 16 16, 0, 0, 0, -16 -16" transform="rotate(90,312,504)"/><path d="M 360 488v 32h 16a 16 16, 0, 0, 0, 0 -32" transform="rotate(-90,376,504)"/><rect x="584" y="488" width="32" height="32" transform="rotate(0,600,504)"/><circle cx="664" cy="504" r="16" transform="rotate(0,664,504)"/><path d="M 904 488v 32h 16a 16 16, 0, 0, 0, 0 -32" transform="rotate(90,920,504)"/><path d="M 1000 488v 32h 16a 16 16, 0, 0, 0, 0 -32" transform="rotate(180,1016,504)"/><rect x="1032" y="488" width="32" height="32" transform="rotate(0,1048,504)"/><rect x="1064" y="488" width="32" height="32" transform="rotate(0,1080,504)"/><rect x="1096" y="488" width="32" height="32" transform="rotate(0,1112,504)"/><rect x="1128" y="488" width="32" height="32" transform="rotate(0,1144,504)"/><rect x="1160" y="488" width="32" height="32" transform="rotate(0,1176,504)"/><path d="M 168 520v 32h 32v -16a 16 16, 0, 0, 0, -16 -16" transform="rotate(-90,184,536)"/><path d="M 200 520v 32h 16a 16 16, 0, 0, 0, 0 -32" transform="rotate(0,216,536)"/><rect x="264" y="520" width="32" height="32" transform="rotate(0,280,536)"/><path d="M 360 520v 32h 16a 16 16, 0, 0, 0, 0 -32" transform="rotate(90,376,536)"/><path d="M 456 520v 32h 16a 16 16, 0, 0, 0, 0 -32" transform="rotate(180,472,536)"/><path d="M 488 520v 32h 32v -16a 16 16, 0, 0, 0, -16 -16" transform="rotate(0,504,536)"/><rect x="584" y="520" width="32" height="32" transform="rotate(0,600,536)"/><path d="M 616 520v 32h 16a 16 16, 0, 0, 0, 0 -32" transform="rotate(0,632,536)"/><circle cx="696" cy="536" r="16" transform="rotate(0,696,536)"/><path d="M 744 520v 32h 16a 16 16, 0, 0, 0, 0 -32" transform="rotate(180,760,536)"/><rect x="776" y="520" width="32" height="32" transform="rotate(0,792,536)"/><rect x="808" y="520" width="32" height="32" transform="rotate(0,824,536)"/><path d="M 840 520v 32h 16a 16 16, 0, 0, 0, 0 -32" transform="rotate(0,856,536)"/><path d="M 936 520v 32h 16a 16 16, 0, 0, 0, 0 -32" transform="rotate(180,952,536)"/><path d="M 968 520v 32h 16a 16 16, 0, 0, 0, 0 -32" transform="rotate(0,984,536)"/><path d="M 1032 520v 32h 16a 16 16, 0, 0, 0, 0 -32" transform="rotate(90,1048,536)"/><path d="M 1096 520v 32h 32v -16a 16 16, 0, 0, 0, -16 -16" transform="rotate(180,1112,536)"/><rect x="1128" y="520" width="32" height="32" transform="rotate(0,1144,536)"/><path d="M 1160 520v 32h 32v -16a 16 16, 0, 0, 0, -16 -16" transform="rotate(90,1176,536)"/><circle cx="24" cy="568" r="16" transform="rotate(0,24,568)"/><path d="M 72 552v 32h 16a 16 16, 0, 0, 0, 0 -32" transform="rotate(180,88,568)"/><path d="M 104 552v 32h 16a 16 16, 0, 0, 0, 0 -32" transform="rotate(0,120,568)"/><rect x="168" y="552" width="32" height="32" transform="rotate(0,184,568)"/><rect x="264" y="552" width="32" height="32" transform="rotate(0,280,568)"/><rect x="296" y="552" width="32" height="32" transform="rotate(0,312,568)"/><path d="M 328 552v 32h 32v -16a 16 16, 0, 0, 0, -16 -16" transform="rotate(0,344,568)"/><rect x="488" y="552" width="32" height="32" transform="rotate(0,504,568)"/><path d="M 552 552v 32h 16a 16 16, 0, 0, 0, 0 -32" transform="rotate(180,568,568)"/><rect x="584" y="552" width="32" height="32" transform="rotate(0,600,568)"/><circle cx="664" cy="568" r="16" transform="rotate(0,664,568)"/><circle cx="728" cy="568" r="16" transform="rotate(0,728,568)"/><path d="M 776 552v 32h 32v -16a 16 16, 0, 0, 0, -16 -16" transform="rotate(180,792,568)"/><path d="M 808 552v 32h 32v -16a 16 16, 0, 0, 0, -16 -16" transform="rotate(90,824,568)"/><path d="M 872 552v 32h 32v -16a 16 16, 0, 0, 0, -16 -16" transform="rotate(-90,888,568)"/><path d="M 904 552v 32h 16a 16 16, 0, 0, 0, 0 -32" transform="rotate(0,920,568)"/><path d="M 1064 552v 32h 16a 16 16, 0, 0, 0, 0 -32" transform="rotate(-90,1080,568)"/><path d="M 136 584v 32h 16a 16 16, 0, 0, 0, 0 -32" transform="rotate(180,152,600)"/><rect x="168" y="584" width="32" height="32" transform="rotate(0,184,600)"/><rect x="200" y="584" width="32" height="32" transform="rotate(0,216,600)"/><rect x="232" y="584" width="32" height="32" transform="rotate(0,248,600)"/><path d="M 264 584v 32h 32v -16a 16 16, 0, 0, 0, -16 -16" transform="rotate(90,280,600)"/><path d="M 328 584v 32h 16a 16 16, 0, 0, 0, 0 -32" transform="rotate(90,344,600)"/><circle cx="408" cy="600" r="16" transform="rotate(0,408,600)"/><path d="M 488 584v 32h 16a 16 16, 0, 0, 0, 0 -32" transform="rotate(90,504,600)"/><path d="M 584 584v 32h 16a 16 16, 0, 0, 0, 0 -32" transform="rotate(90,600,600)"/><circle cx="696" cy="600" r="16" transform="rotate(0,696,600)"/><path d="M 744 584v 32h 16a 16 16, 0, 0, 0, 0 -32" transform="rotate(-90,760,600)"/><rect x="872" y="584" width="32" height="32" transform="rotate(0,888,600)"/><path d="M 1032 584v 32h 32v -16a 16 16, 0, 0, 0, -16 -16" transform="rotate(-90,1048,600)"/><rect x="1064" y="584" width="32" height="32" transform="rotate(0,1080,600)"/><path d="M 1160 584v 32h 16a 16 16, 0, 0, 0, 0 -32" transform="rotate(-90,1176,600)"/><path d="M 8 616v 32h 32v -16a 16 16, 0, 0, 0, -16 -16" transform="rotate(-90,24,632)"/><rect x="40" y="616" width="32" height="32" transform="rotate(0,56,632)"/><rect x="72" y="616" width="32" height="32" transform="rotate(0,88,632)"/><path d="M 104 616v 32h 32v -16a 16 16, 0, 0, 0, -16 -16" transform="rotate(0,120,632)"/><circle cx="376" cy="632" r="16" transform="rotate(0,376,632)"/><circle cx="440" cy="632" r="16" transform="rotate(0,440,632)"/><path d="M 520 616v 32h 16a 16 16, 0, 0, 0, 0 -32" transform="rotate(-90,536,632)"/><path d="M 712 616v 32h 32v -16a 16 16, 0, 0, 0, -16 -16" transform="rotate(-90,728,632)"/><rect x="744" y="616" width="32" height="32" transform="rotate(0,760,632)"/><path d="M 776 616v 32h 32v -16a 16 16, 0, 0, 0, -16 -16" transform="rotate(0,792,632)"/><path d="M 872 616v 32h 32v -16a 16 16, 0, 0, 0, -16 -16" transform="rotate(180,888,632)"/><rect x="904" y="616" width="32" height="32" transform="rotate(0,920,632)"/><rect x="936" y="616" width="32" height="32" transform="rotate(0,952,632)"/><path d="M 968 616v 32h 32v -16a 16 16, 0, 0, 0, -16 -16" transform="rotate(0,984,632)"/><rect x="1032" y="616" width="32" height="32" transform="rotate(0,1048,632)"/><rect x="1064" y="616" width="32" height="32" transform="rotate(0,1080,632)"/><path d="M 1160 616v 32h 16a 16 16, 0, 0, 0, 0 -32" transform="rotate(90,1176,632)"/><rect x="8" y="648" width="32" height="32" transform="rotate(0,24,664)"/><rect x="104" y="648" width="32" height="32" transform="rotate(0,120,664)"/><path d="M 136 648v 32h 16a 16 16, 0, 0, 0, 0 -32" transform="rotate(0,152,664)"/><path d="M 200 648v 32h 16a 16 16, 0, 0, 0, 0 -32" transform="rotate(180,216,664)"/><path d="M 232 648v 32h 16a 16 16, 0, 0, 0, 0 -32" transform="rotate(0,248,664)"/><circle cx="312" cy="664" r="16" transform="rotate(0,312,664)"/><path d="M 488 648v 32h 16a 16 16, 0, 0, 0, 0 -32" transform="rotate(180,504,664)"/><rect x="520" y="648" width="32" height="32" transform="rotate(0,536,664)"/><rect x="552" y="648" width="32" height="32" transform="rotate(0,568,664)"/><rect x="584" y="648" width="32" height="32" transform="rotate(0,600,664)"/><rect x="616" y="648" width="32" height="32" transform="rotate(0,632,664)"/><path d="M 648 648v 32h 16a 16 16, 0, 0, 0, 0 -32" transform="rotate(0,664,664)"/><path d="M 712 648v 32h 16a 16 16, 0, 0, 0, 0 -32" transform="rotate(90,728,664)"/><rect x="776" y="648" width="32" height="32" transform="rotate(0,792,664)"/><rect x="808" y="648" width="32" height="32" transform="rotate(0,824,664)"/><path d="M 840 648v 32h 32v -16a 16 16, 0, 0, 0, -16 -16" transform="rotate(0,856,664)"/><rect x="936" y="648" width="32" height="32" transform="rotate(0,952,664)"/><rect x="968" y="648" width="32" height="32" transform="rotate(0,984,664)"/><rect x="1000" y="648" width="32" height="32" transform="rotate(0,1016,664)"/><rect x="1032" y="648" width="32" height="32" transform="rotate(0,1048,664)"/><rect x="1064" y="648" width="32" height="32" transform="rotate(0,1080,664)"/><path d="M 1096 648v 32h 32v -16a 16 16, 0, 0, 0, -16 -16" transform="rotate(0,1112,664)"/><rect x="8" y="680" width="32" height="32" transform="rotate(0,24,696)"/><rect x="40" y="680" width="32" height="32" transform="rotate(0,56,696)"/><rect x="72" y="680" width="32" height="32" transform="rotate(0,88,696)"/><rect x="104" y="680" width="32" height="32" transform="rotate(0,120,696)"/><circle cx="184" cy="696" r="16" transform="rotate(0,184,696)"/><circle cx="280" cy="696" r="16" transform="rotate(0,280,696)"/><path d="M 360 680v 32h 32v -16a 16 16, 0, 0, 0, -16 -16" transform="rotate(-90,376,696)"/><path d="M 392 680v 32h 16a 16 16, 0, 0, 0, 0 -32" transform="rotate(0,408,696)"/><path d="M 456 680v 32h 16a 16 16, 0, 0, 0, 0 -32" transform="rotate(-90,472,696)"/><path d="M 552 680v 32h 16a 16 16, 0, 0, 0, 0 -32" transform="rotate(90,568,696)"/><rect x="616" y="680" width="32" height="32" transform="rotate(0,632,696)"/><path d="M 744 680v 32h 16a 16 16, 0, 0, 0, 0 -32" transform="rotate(180,760,696)"/><path d="M 776 680v 32h 32v -16a 16 16, 0, 0, 0, -16 -16" transform="rotate(90,792,696)"/><path d="M 840 680v 32h 32v -16a 16 16, 0, 0, 0, -16 -16" transform="rotate(180,856,696)"/><rect x="872" y="680" width="32" height="32" transform="rotate(0,888,696)"/><rect x="904" y="680" width="32" height="32" transform="rotate(0,920,696)"/><rect x="936" y="680" width="32" height="32" transform="rotate(0,952,696)"/><path d="M 1000 680v 32h 32v -16a 16 16, 0, 0, 0, -16 -16" transform="rotate(180,1016,696)"/><path d="M 1032 680v 32h 32v -16a 16 16, 0, 0, 0, -16 -16" transform="rotate(90,1048,696)"/><path d="M 1096 680v 32h 32v -16a 16 16, 0, 0, 0, -16 -16" transform="rotate(180,1112,696)"/><path d="M 1128 680v 32h 32v -16a 16 16, 0, 0, 0, -16 -16" transform="rotate(0,1144,696)"/><rect x="8" y="712" width="32" height="32" transform="rotate(0,24,728)"/><rect x="72" y="712" width="32" height="32" transform="rotate(0,88,728)"/><rect x="104" y="712" width="32" height="32" transform="rotate(0,120,728)"/><path d="M 136 712v 32h 32v -16a 16 16, 0, 0, 0, -16 -16" transform="rotate(0,152,728)"/><path d="M 200 712v 32h 16a 16 16, 0, 0, 0, 0 -32" transform="rotate(180,216,728)"/><path d="M 232 712v 32h 16a 16 16, 0, 0, 0, 0 -32" transform="rotate(0,248,728)"/><path d="M 296 712v 32h 16a 16 16, 0, 0, 0, 0 -32" transform="rotate(-90,312,728)"/><rect x="360" y="712" width="32" height="32" transform="rotate(0,376,728)"/><rect x="456" y="712" width="32" height="32" transform="rotate(0,472,728)"/><rect x="616" y="712" width="32" height="32" transform="rotate(0,632,728)"/><circle cx="824" cy="728" r="16" transform="rotate(0,824,728)"/><rect x="872" y="712" width="32" height="32" transform="rotate(0,888,728)"/><rect x="936" y="712" width="32" height="32" transform="rotate(0,952,728)"/><rect x="1128" y="712" width="32" height="32" transform="rotate(0,1144,728)"/><path d="M 1160 712v 32h 32v -16a 16 16, 0, 0, 0, -16 -16" transform="rotate(0,1176,728)"/><rect x="8" y="744" width="32" height="32" transform="rotate(0,24,760)"/><rect x="72" y="744" width="32" height="32" transform="rotate(0,88,760)"/><rect x="136" y="744" width="32" height="32" transform="rotate(0,152,760)"/><path d="M 168 744v 32h 16a 16 16, 0, 0, 0, 0 -32" transform="rotate(0,184,760)"/><rect x="296" y="744" width="32" height="32" transform="rotate(0,312,760)"/><rect x="328" y="744" width="32" height="32" transform="rotate(0,344,760)"/><rect x="360" y="744" width="32" height="32" transform="rotate(0,376,760)"/><path d="M 392 744v 32h 16a 16 16, 0, 0, 0, 0 -32" transform="rotate(0,408,760)"/><rect x="456" y="744" width="32" height="32" transform="rotate(0,472,760)"/><circle cx="536" cy="760" r="16" transform="rotate(0,536,760)"/><path d="M 616 744v 32h 32v -16a 16 16, 0, 0, 0, -16 -16" transform="rotate(180,632,760)"/><path d="M 648 744v 32h 32v -16a 16 16, 0, 0, 0, -16 -16" transform="rotate(0,664,760)"/><path d="M 840 744v 32h 16a 16 16, 0, 0, 0, 0 -32" transform="rotate(180,856,760)"/><path d="M 872 744v 32h 32v -16a 16 16, 0, 0, 0, -16 -16" transform="rotate(90,888,760)"/><path d="M 936 744v 32h 32v -16a 16 16, 0, 0, 0, -16 -16" transform="rotate(180,952,760)"/><rect x="968" y="744" width="32" height="32" transform="rotate(0,984,760)"/><path d="M 1000 744v 32h 32v -16a 16 16, 0, 0, 0, -16 -16" transform="rotate(0,1016,760)"/><circle cx="1080" cy="760" r="16" transform="rotate(0,1080,760)"/><path d="M 1128 744v 32h 32v -16a 16 16, 0, 0, 0, -16 -16" transform="rotate(180,1144,760)"/><path d="M 1160 744v 32h 32v -16a 16 16, 0, 0, 0, -16 -16" transform="rotate(90,1176,760)"/><rect x="8" y="776" width="32" height="32" transform="rotate(0,24,792)"/><rect x="72" y="776" width="32" height="32" transform="rotate(0,88,792)"/><path d="M 136 776v 32h 16a 16 16, 0, 0, 0, 0 -32" transform="rotate(90,152,792)"/><circle cx="216" cy="792" r="16" transform="rotate(0,216,792)"/><path d="M 264 776v 32h 16a 16 16, 0, 0, 0, 0 -32" transform="rotate(180,280,792)"/><rect x="296" y="776" width="32" height="32" transform="rotate(0,312,792)"/><rect x="328" y="776" width="32" height="32" transform="rotate(0,344,792)"/><rect x="360" y="776" width="32" height="32" transform="rotate(0,376,792)"/><path d="M 424 776v 32h 16a 16 16, 0, 0, 0, 0 -32" transform="rotate(180,440,792)"/><rect x="456" y="776" width="32" height="32" transform="rotate(0,472,792)"/><path d="M 584 776v 32h 16a 16 16, 0, 0, 0, 0 -32" transform="rotate(-90,600,792)"/><path d="M 648 776v 32h 16a 16 16, 0, 0, 0, 0 -32" transform="rotate(90,664,792)"/><path d="M 744 776v 32h 16a 16 16, 0, 0, 0, 0 -32" transform="rotate(-90,760,792)"/><path d="M 904 776v 32h 16a 16 16, 0, 0, 0, 0 -32" transform="rotate(-90,920,792)"/><path d="M 968 776v 32h 32v -16a 16 16, 0, 0, 0, -16 -16" transform="rotate(180,984,792)"/><rect x="1000" y="776" width="32" height="32" transform="rotate(0,1016,792)"/><rect x="8" y="808" width="32" height="32" transform="rotate(0,24,824)"/><rect x="40" y="808" width="32" height="32" transform="rotate(0,56,824)"/><path d="M 72 808v 32h 32v -16a 16 16, 0, 0, 0, -16 -16" transform="rotate(90,88,824)"/><rect x="296" y="808" width="32" height="32" transform="rotate(0,312,824)"/><rect x="360" y="808" width="32" height="32" transform="rotate(0,376,824)"/><rect x="456" y="808" width="32" height="32" transform="rotate(0,472,824)"/><rect x="488" y="808" width="32" height="32" transform="rotate(0,504,824)"/><path d="M 520 808v 32h 16a 16 16, 0, 0, 0, 0 -32" transform="rotate(0,536,824)"/><path d="M 584 808v 32h 32v -16a 16 16, 0, 0, 0, -16 -16" transform="rotate(180,600,824)"/><path d="M 616 808v 32h 32v -16a 16 16, 0, 0, 0, -16 -16" transform="rotate(0,632,824)"/><path d="M 680 808v 32h 32v -16a 16 16, 0, 0, 0, -16 -16" transform="rotate(-90,696,824)"/><rect x="712" y="808" width="32" height="32" transform="rotate(0,728,824)"/><path d="M 744 808v 32h 32v -16a 16 16, 0, 0, 0, -16 -16" transform="rotate(90,760,824)"/><path d="M 840 808v 32h 16a 16 16, 0, 0, 0, 0 -32" transform="rotate(180,856,824)"/><rect x="872" y="808" width="32" height="32" transform="rotate(0,888,824)"/><rect x="904" y="808" width="32" height="32" transform="rotate(0,920,824)"/><path d="M 936 808v 32h 16a 16 16, 0, 0, 0, 0 -32" transform="rotate(0,952,824)"/><rect x="1000" y="808" width="32" height="32" transform="rotate(0,1016,824)"/><path d="M 1064 808v 32h 16a 16 16, 0, 0, 0, 0 -32" transform="rotate(180,1080,824)"/><path d="M 1096 808v 32h 32v -16a 16 16, 0, 0, 0, -16 -16" transform="rotate(0,1112,824)"/><rect x="8" y="840" width="32" height="32" transform="rotate(0,24,856)"/><path d="M 104 840v 32h 16a 16 16, 0, 0, 0, 0 -32" transform="rotate(-90,120,856)"/><path d="M 168 840v 32h 16a 16 16, 0, 0, 0, 0 -32" transform="rotate(180,184,856)"/><path d="M 200 840v 32h 16a 16 16, 0, 0, 0, 0 -32" transform="rotate(0,216,856)"/><rect x="296" y="840" width="32" height="32" transform="rotate(0,312,856)"/><rect x="328" y="840" width="32" height="32" transform="rotate(0,344,856)"/><path d="M 360 840v 32h 32v -16a 16 16, 0, 0, 0, -16 -16" transform="rotate(90,376,856)"/><path d="M 424 840v 32h 32v -16a 16 16, 0, 0, 0, -16 -16" transform="rotate(-90,440,856)"/><rect x="456" y="840" width="32" height="32" transform="rotate(0,472,856)"/><rect x="488" y="840" width="32" height="32" transform="rotate(0,504,856)"/><rect x="616" y="840" width="32" height="32" transform="rotate(0,632,856)"/><path d="M 680 840v 32h 16a 16 16, 0, 0, 0, 0 -32" transform="rotate(90,696,856)"/><path d="M 776 840v 32h 16a 16 16, 0, 0, 0, 0 -32" transform="rotate(180,792,856)"/><path d="M 808 840v 32h 16a 16 16, 0, 0, 0, 0 -32" transform="rotate(0,824,856)"/><rect x="872" y="840" width="32" height="32" transform="rotate(0,888,856)"/><path d="M 968 840v 32h 16a 16 16, 0, 0, 0, 0 -32" transform="rotate(180,984,856)"/><rect x="1000" y="840" width="32" height="32" transform="rotate(0,1016,856)"/><path d="M 1032 840v 32h 16a 16 16, 0, 0, 0, 0 -32" transform="rotate(0,1048,856)"/><rect x="1096" y="840" width="32" height="32" transform="rotate(0,1112,856)"/><rect x="1128" y="840" width="32" height="32" transform="rotate(0,1144,856)"/><path d="M 1160 840v 32h 32v -16a 16 16, 0, 0, 0, -16 -16" transform="rotate(0,1176,856)"/><rect x="8" y="872" width="32" height="32" transform="rotate(0,24,888)"/><path d="M 72 872v 32h 32v -16a 16 16, 0, 0, 0, -16 -16" transform="rotate(-90,88,888)"/><rect x="104" y="872" width="32" height="32" transform="rotate(0,120,888)"/><path d="M 136 872v 32h 16a 16 16, 0, 0, 0, 0 -32" transform="rotate(0,152,888)"/><path d="M 232 872v 32h 16a 16 16, 0, 0, 0, 0 -32" transform="rotate(-90,248,888)"/><rect x="296" y="872" width="32" height="32" transform="rotate(0,312,888)"/><rect x="328" y="872" width="32" height="32" transform="rotate(0,344,888)"/><path d="M 392 872v 32h 32v -16a 16 16, 0, 0, 0, -16 -16" transform="rotate(-90,408,888)"/><path d="M 424 872v 32h 32v -16a 16 16, 0, 0, 0, -16 -16" transform="rotate(90,440,888)"/><path d="M 488 872v 32h 16a 16 16, 0, 0, 0, 0 -32" transform="rotate(90,504,888)"/><path d="M 616 872v 32h 32v -16a 16 16, 0, 0, 0, -16 -16" transform="rotate(180,632,888)"/><path d="M 648 872v 32h 16a 16 16, 0, 0, 0, 0 -32" transform="rotate(0,664,888)"/><path d="M 712 872v 32h 32v -16a 16 16, 0, 0, 0, -16 -16" transform="rotate(-90,728,888)"/><path d="M 744 872v 32h 32v -16a 16 16, 0, 0, 0, -16 -16" transform="rotate(0,760,888)"/><rect x="872" y="872" width="32" height="32" transform="rotate(0,888,888)"/><path d="M 936 872v 32h 16a 16 16, 0, 0, 0, 0 -32" transform="rotate(-90,952,888)"/><rect x="1000" y="872" width="32" height="32" transform="rotate(0,1016,888)"/><path d="M 1064 872v 32h 32v -16a 16 16, 0, 0, 0, -16 -16" transform="rotate(-90,1080,888)"/><rect x="1096" y="872" width="32" height="32" transform="rotate(0,1112,888)"/><rect x="1160" y="872" width="32" height="32" transform="rotate(0,1176,888)"/><path d="M 8 904v 32h 16a 16 16, 0, 0, 0, 0 -32" transform="rotate(90,24,920)"/><path d="M 72 904v 32h 32v -16a 16 16, 0, 0, 0, -16 -16" transform="rotate(180,88,920)"/><path d="M 104 904v 32h 32v -16a 16 16, 0, 0, 0, -16 -16" transform="rotate(90,120,920)"/><path d="M 200 904v 32h 16a 16 16, 0, 0, 0, 0 -32" transform="rotate(180,216,920)"/><rect x="232" y="904" width="32" height="32" transform="rotate(0,248,920)"/><rect x="264" y="904" width="32" height="32" transform="rotate(0,280,920)"/><rect x="296" y="904" width="32" height="32" transform="rotate(0,312,920)"/><rect x="328" y="904" width="32" height="32" transform="rotate(0,344,920)"/><rect x="360" y="904" width="32" height="32" transform="rotate(0,376,920)"/><rect x="392" y="904" width="32" height="32" transform="rotate(0,408,920)"/><path d="M 456 904v 32h 16a 16 16, 0, 0, 0, 0 -32" transform="rotate(-90,472,920)"/><circle cx="536" cy="920" r="16" transform="rotate(0,536,920)"/><circle cx="600" cy="920" r="16" transform="rotate(0,600,920)"/><path d="M 712 904v 32h 32v -16a 16 16, 0, 0, 0, -16 -16" transform="rotate(180,728,920)"/><rect x="744" y="904" width="32" height="32" transform="rotate(0,760,920)"/><rect x="776" y="904" width="32" height="32" transform="rotate(0,792,920)"/><rect x="808" y="904" width="32" height="32" transform="rotate(0,824,920)"/><rect x="840" y="904" width="32" height="32" transform="rotate(0,856,920)"/><rect x="872" y="904" width="32" height="32" transform="rotate(0,888,920)"/><rect x="904" y="904" width="32" height="32" transform="rotate(0,920,920)"/><rect x="936" y="904" width="32" height="32" transform="rotate(0,952,920)"/><rect x="968" y="904" width="32" height="32" transform="rotate(0,984,920)"/><rect x="1000" y="904" width="32" height="32" transform="rotate(0,1016,920)"/><rect x="1032" y="904" width="32" height="32" transform="rotate(0,1048,920)"/><rect x="1064" y="904" width="32" height="32" transform="rotate(0,1080,920)"/><rect x="1096" y="904" width="32" height="32" transform="rotate(0,1112,920)"/><rect x="1128" y="904" width="32" height="32" transform="rotate(0,1144,920)"/><path d="M 1160 904v 32h 32v -16a 16 16, 0, 0, 0, -16 -16" transform="rotate(90,1176,920)"/><rect x="264" y="936" width="32" height="32" transform="rotate(0,280,952)"/><path d="M 360 936v 32h 32v -16a 16 16, 0, 0, 0, -16 -16" transform="rotate(180,376,952)"/><rect x="392" y="936" width="32" height="32" transform="rotate(0,408,952)"/><path d="M 456 936v 32h 32v -16a 16 16, 0, 0, 0, -16 -16" transform="rotate(180,472,952)"/><path d="M 488 936v 32h 16a 16 16, 0, 0, 0, 0 -32" transform="rotate(0,504,952)"/><circle cx="568" cy="952" r="16" transform="rotate(0,568,952)"/><circle cx="632" cy="952" r="16" transform="rotate(0,632,952)"/><circle cx="696" cy="952" r="16" transform="rotate(0,696,952)"/><rect x="744" y="936" width="32" height="32" transform="rotate(0,760,952)"/><rect x="808" y="936" width="32" height="32" transform="rotate(0,824,952)"/><rect x="840" y="936" width="32" height="32" transform="rotate(0,856,952)"/><rect x="904" y="936" width="32" height="32" transform="rotate(0,920,952)"/><rect x="1032" y="936" width="32" height="32" transform="rotate(0,1048,952)"/><rect x="1064" y="936" width="32" height="32" transform="rotate(0,1080,952)"/><path d="M 264 968v 32h 32v -16a 16 16, 0, 0, 0, -16 -16" transform="rotate(180,280,984)"/><path d="M 296 968v 32h 32v -16a 16 16, 0, 0, 0, -16 -16" transform="rotate(0,312,984)"/><rect x="392" y="968" width="32" height="32" transform="rotate(0,408,984)"/><path d="M 424 968v 32h 32v -16a 16 16, 0, 0, 0, -16 -16" transform="rotate(0,440,984)"/><path d="M 648 968v 32h 16a 16 16, 0, 0, 0, 0 -32" transform="rotate(-90,664,984)"/><path d="M 744 968v 32h 16a 16 16, 0, 0, 0, 0 -32" transform="rotate(90,760,984)"/><path d="M 808 968v 32h 32v -16a 16 16, 0, 0, 0, -16 -16" transform="rotate(180,824,984)"/><rect x="840" y="968" width="32" height="32" transform="rotate(0,856,984)"/><rect x="904" y="968" width="32" height="32" transform="rotate(0,920,984)"/><circle cx="984" cy="984" r="16" transform="rotate(0,984,984)"/><rect x="1032" y="968" width="32" height="32" transform="rotate(0,1048,984)"/><rect x="1064" y="968" width="32" height="32" transform="rotate(0,1080,984)"/><path d="M 1096 968v 32h 16a 16 16, 0, 0, 0, 0 -32" transform="rotate(0,1112,984)"/><circle cx="1176" cy="984" r="16" transform="rotate(0,1176,984)"/><rect x="296" y="1000" width="32" height="32" transform="rotate(0,312,1016)"/><path d="M 392 1000v 32h 32v -16a 16 16, 0, 0, 0, -16 -16" transform="rotate(180,408,1016)"/><rect x="424" y="1000" width="32" height="32" transform="rotate(0,440,1016)"/><rect x="456" y="1000" width="32" height="32" transform="rotate(0,472,1016)"/><rect x="488" y="1000" width="32" height="32" transform="rotate(0,504,1016)"/><path d="M 520 1000v 32h 16a 16 16, 0, 0, 0, 0 -32" transform="rotate(0,536,1016)"/><rect x="648" y="1000" width="32" height="32" transform="rotate(0,664,1016)"/><path d="M 680 1000v 32h 32v -16a 16 16, 0, 0, 0, -16 -16" transform="rotate(0,696,1016)"/><rect x="840" y="1000" width="32" height="32" transform="rotate(0,856,1016)"/><rect x="872" y="1000" width="32" height="32" transform="rotate(0,888,1016)"/><rect x="904" y="1000" width="32" height="32" transform="rotate(0,920,1016)"/><rect x="1032" y="1000" width="32" height="32" transform="rotate(0,1048,1016)"/><path d="M 1064 1000v 32h 32v -16a 16 16, 0, 0, 0, -16 -16" transform="rotate(90,1080,1016)"/><path d="M 296 1032v 32h 16a 16 16, 0, 0, 0, 0 -32" transform="rotate(90,312,1048)"/><path d="M 360 1032v 32h 16a 16 16, 0, 0, 0, 0 -32" transform="rotate(-90,376,1048)"/><rect x="488" y="1032" width="32" height="32" transform="rotate(0,504,1048)"/><circle cx="600" cy="1048" r="16" transform="rotate(0,600,1048)"/><rect x="648" y="1032" width="32" height="32" transform="rotate(0,664,1048)"/><rect x="680" y="1032" width="32" height="32" transform="rotate(0,696,1048)"/><path d="M 712 1032v 32h 32v -16a 16 16, 0, 0, 0, -16 -16" transform="rotate(0,728,1048)"/><path d="M 808 1032v 32h 32v -16a 16 16, 0, 0, 0, -16 -16" transform="rotate(-90,824,1048)"/><rect x="840" y="1032" width="32" height="32" transform="rotate(0,856,1048)"/><rect x="872" y="1032" width="32" height="32" transform="rotate(0,888,1048)"/><rect x="904" y="1032" width="32" height="32" transform="rotate(0,920,1048)"/><rect x="936" y="1032" width="32" height="32" transform="rotate(0,952,1048)"/><rect x="968" y="1032" width="32" height="32" transform="rotate(0,984,1048)"/><rect x="1000" y="1032" width="32" height="32" transform="rotate(0,1016,1048)"/><path d="M 1032 1032v 32h 32v -16a 16 16, 0, 0, 0, -16 -16" transform="rotate(90,1048,1048)"/><circle cx="1112" cy="1048" r="16" transform="rotate(0,1112,1048)"/><circle cx="1176" cy="1048" r="16" transform="rotate(0,1176,1048)"/><path d="M 328 1064v 32h 32v -16a 16 16, 0, 0, 0, -16 -16" transform="rotate(-90,344,1080)"/><rect x="360" y="1064" width="32" height="32" transform="rotate(0,376,1080)"/><rect x="392" y="1064" width="32" height="32" transform="rotate(0,408,1080)"/><rect x="424" y="1064" width="32" height="32" transform="rotate(0,440,1080)"/><rect x="456" y="1064" width="32" height="32" transform="rotate(0,472,1080)"/><rect x="488" y="1064" width="32" height="32" transform="rotate(0,504,1080)"/><rect x="520" y="1064" width="32" height="32" transform="rotate(0,536,1080)"/><path d="M 552 1064v 32h 16a 16 16, 0, 0, 0, 0 -32" transform="rotate(0,568,1080)"/><rect x="648" y="1064" width="32" height="32" transform="rotate(0,664,1080)"/><rect x="712" y="1064" width="32" height="32" transform="rotate(0,728,1080)"/><path d="M 744 1064v 32h 16a 16 16, 0, 0, 0, 0 -32" transform="rotate(0,760,1080)"/><path d="M 808 1064v 32h 32v -16a 16 16, 0, 0, 0, -16 -16" transform="rotate(180,824,1080)"/><rect x="840" y="1064" width="32" height="32" transform="rotate(0,856,1080)"/><path d="M 872 1064v 32h 32v -16a 16 16, 0, 0, 0, -16 -16" transform="rotate(90,888,1080)"/><path d="M 968 1064v 32h 16a 16 16, 0, 0, 0, 0 -32" transform="rotate(90,984,1080)"/><path d="M 1064 1064v 32h 16a 16 16, 0, 0, 0, 0 -32" transform="rotate(-90,1080,1080)"/><circle cx="1144" cy="1080" r="16" transform="rotate(0,1144,1080)"/><rect x="328" y="1096" width="32" height="32" transform="rotate(0,344,1112)"/><path d="M 392 1096v 32h 32v -16a 16 16, 0, 0, 0, -16 -16" transform="rotate(180,408,1112)"/><rect x="424" y="1096" width="32" height="32" transform="rotate(0,440,1112)"/><rect x="456" y="1096" width="32" height="32" transform="rotate(0,472,1112)"/><path d="M 648 1096v 32h 32v -16a 16 16, 0, 0, 0, -16 -16" transform="rotate(180,664,1112)"/><rect x="680" y="1096" width="32" height="32" transform="rotate(0,696,1112)"/><rect x="712" y="1096" width="32" height="32" transform="rotate(0,728,1112)"/><circle cx="952" cy="1112" r="16" transform="rotate(0,952,1112)"/><circle cx="1016" cy="1112" r="16" transform="rotate(0,1016,1112)"/><rect x="1064" y="1096" width="32" height="32" transform="rotate(0,1080,1112)"/><path d="M 1160 1096v 32h 16a 16 16, 0, 0, 0, 0 -32" transform="rotate(-90,1176,1112)"/><circle cx="280" cy="1144" r="16" transform="rotate(0,280,1144)"/><rect x="328" y="1128" width="32" height="32" transform="rotate(0,344,1144)"/><rect x="456" y="1128" width="32" height="32" transform="rotate(0,472,1144)"/><rect x="488" y="1128" width="32" height="32" transform="rotate(0,504,1144)"/><path d="M 520 1128v 32h 16a 16 16, 0, 0, 0, 0 -32" transform="rotate(0,536,1144)"/><rect x="712" y="1128" width="32" height="32" transform="rotate(0,728,1144)"/><circle cx="856" cy="1144" r="16" transform="rotate(0,856,1144)"/><path d="M 904 1128v 32h 16a 16 16, 0, 0, 0, 0 -32" transform="rotate(-90,920,1144)"/><circle cx="984" cy="1144" r="16" transform="rotate(0,984,1144)"/><path d="M 1032 1128v 32h 32v -16a 16 16, 0, 0, 0, -16 -16" transform="rotate(-90,1048,1144)"/><path d="M 1064 1128v 32h 32v -16a 16 16, 0, 0, 0, -16 -16" transform="rotate(90,1080,1144)"/><rect x="1160" y="1128" width="32" height="32" transform="rotate(0,1176,1144)"/><path d="M 328 1160v 32h 16a 16 16, 0, 0, 0, 0 -32" transform="rotate(90,344,1176)"/><circle cx="408" cy="1176" r="16" transform="rotate(0,408,1176)"/><path d="M 456 1160v 32h 16a 16 16, 0, 0, 0, 0 -32" transform="rotate(90,472,1176)"/><path d="M 552 1160v 32h 16a 16 16, 0, 0, 0, 0 -32" transform="rotate(180,568,1176)"/><rect x="584" y="1160" width="32" height="32" transform="rotate(0,600,1176)"/><rect x="616" y="1160" width="32" height="32" transform="rotate(0,632,1176)"/><path d="M 648 1160v 32h 16a 16 16, 0, 0, 0, 0 -32" transform="rotate(0,664,1176)"/><path d="M 712 1160v 32h 32v -16a 16 16, 0, 0, 0, -16 -16" transform="rotate(180,728,1176)"/><rect x="744" y="1160" width="32" height="32" transform="rotate(0,760,1176)"/><path d="M 776 1160v 32h 16a 16 16, 0, 0, 0, 0 -32" transform="rotate(0,792,1176)"/><path d="M 904 1160v 32h 16a 16 16, 0, 0, 0, 0 -32" transform="rotate(90,920,1176)"/><path d="M 1000 1160v 32h 16a 16 16, 0, 0, 0, 0 -32" transform="rotate(180,1016,1176)"/><path d="M 1032 1160v 32h 32v -16a 16 16, 0, 0, 0, -16 -16" transform="rotate(90,1048,1176)"/><path d="M 1160 1160v 32h 16a 16 16, 0, 0, 0, 0 -32" transform="rotate(90,1176,1176)"/></clipPath><clipPath id="clip-path-corners-square-color-0-0-781"><path clip-rule="evenodd" d="M 8 88v 64a 80 80, 0, 0, 0, 80 80h 64a 80 80, 0, 0, 0, 80 -80v -64a 80 80, 0, 0, 0, -80 -80h -64a 80 80, 0, 0, 0, -80 80M 88 40h 64a 48 48, 0, 0, 1, 48 48v 64a 48 48, 0, 0, 1, -48 48h -64a 48 48, 0, 0, 1, -48 -48v -64a 48 48, 0, 0, 1, 48 -48" transform="rotate(0,120,120)"/></clipPath><clipPath id="clip-path-corners-dot-color-0-0-781"><circle cx="120" cy="120" r="48" transform="rotate(0,120,120)"/></clipPath><clipPath id="clip-path-corners-square-color-1-0-781"><path clip-rule="evenodd" d="M 968 88v 64a 80 80, 0, 0, 0, 80 80h 64a 80 80, 0, 0, 0, 80 -80v -64a 80 80, 0, 0, 0, -80 -80h -64a 80 80, 0, 0, 0, -80 80M 1048 40h 64a 48 48, 0, 0, 1, 48 48v 64a 48 48, 0, 0, 1, -48 48h -64a 48 48, 0, 0, 1, -48 -48v -64a 48 48, 0, 0, 1, 48 -48" transform="rotate(90,1080,120)"/></clipPath><clipPath id="clip-path-corners-dot-color-1-0-781"><circle cx="1080" cy="120" r="48" transform="rotate(90,1080,120)"/></clipPath><clipPath id="clip-path-corners-square-color-0-1-781"><path clip-rule="evenodd" d="M 8 1048v 64a 80 80, 0, 0, 0, 80 80h 64a 80 80, 0, 0, 0, 80 -80v -64a 80 80, 0, 0, 0, -80 -80h -64a 80 80, 0, 0, 0, -80 80M 88 1000h 64a 48 48, 0, 0, 1, 48 48v 64a 48 48, 0, 0, 1, -48 48h -64a 48 48, 0, 0, 1, -48 -48v -64a 48 48, 0, 0, 1, 48 -48" transform="rotate(-90,120,1080)"/></clipPath><clipPath id="clip-path-corners-dot-color-0-1-781"><circle cx="120" cy="1080" r="48" transform="rotate(-90,120,1080)"/></clipPath></defs><rect x="0" y="0" height="1200" width="1200" clip-path="url('#clip-path-background-color-781')" fill="#ffffff"/><rect x="0" y="0" height="1200" width="1200" clip-path="url('#clip-path-dot-color-781')" fill="#000000"/><rect x="8" y="8" height="224" width="224" clip-path="url('#clip-path-corners-square-color-0-0-781')" fill="#000000"/><rect x="72" y="72" height="96" width="96" clip-path="url('#clip-path-corners-dot-color-0-0-781')" fill="#000000"/><rect x="968" y="8" height="224" width="224" clip-path="url('#clip-path-corners-square-color-1-0-781')" fill="#000000"/><rect x="1032" y="72" height="96" width="96" clip-path="url('#clip-path-corners-dot-color-1-0-781')" fill="#000000"/><rect x="8" y="968" height="224" width="224" clip-path="url('#clip-path-corners-square-color-0-1-781')" fill="#000000"/><rect x="72" y="1032" height="96" width="96" clip-path="url('#clip-path-corners-dot-color-0-1-781')" fill="#000000"/></svg>